<?xml version="1.0" encoding="utf-8"?>
<!-- Generator: Adobe Illustrator 16.0.0, SVG Export Plug-In . SVG Version: 6.00 Build 0)  -->
<!DOCTYPE svg PUBLIC "-//W3C//DTD SVG 1.1//EN" "http://www.w3.org/Graphics/SVG/1.1/DTD/svg11.dtd">
<svg version="1.1" id="Layer_1" xmlns="http://www.w3.org/2000/svg" xmlns:xlink="http://www.w3.org/1999/xlink" x="0px" y="0px"
	 width="512px" height="512px" viewBox="0 0 512 512" enable-background="new 0 0 512 512" xml:space="preserve">
<path d="M444,240.665h-11.199c-7.357-85.397-76.069-154.108-161.467-161.466V68c0-5.522-4.478-10-10-10h-10.669
	c-5.522,0-10,4.478-10,10v11.199c-85.397,7.357-154.108,76.069-161.466,161.466H68c-5.522,0-10,4.478-10,10v10.67
	c0,5.522,4.478,10,10,10h11.199c7.357,85.396,76.068,154.108,161.466,161.466V444c0,5.522,4.478,10,10,10h10.669
	c5.522,0,10-4.478,10-10v-11.199c85.397-7.357,154.109-76.068,161.467-161.466H444c5.522,0,10-4.478,10-10v-10.67
	C454,245.143,449.522,240.665,444,240.665z M271.334,401.992v-40.064c47.104-6.761,83.832-43.489,90.594-90.593h40.064
	c-3.481,33.285-18.407,64.572-42.247,88.411C335.905,383.586,304.618,398.512,271.334,401.992z M240.665,401.992
	c-33.285-3.481-64.572-18.407-88.411-42.246s-38.765-55.126-42.246-88.411h40.064c6.761,47.103,43.49,83.832,90.593,90.593V401.992z
	 M240.665,110.008v40.064c-47.103,6.761-83.832,43.49-90.593,90.593h-40.064c3.481-33.285,18.407-64.572,42.246-88.411
	S207.38,113.489,240.665,110.008z M182.108,256c0-40.744,33.147-73.892,73.892-73.892s73.892,33.147,73.892,73.892
	S296.744,329.892,256,329.892S182.108,296.744,182.108,256z M271.334,110.008c33.284,3.48,64.571,18.406,88.411,42.246
	c23.84,23.839,38.766,55.126,42.247,88.411h-40.064c-6.762-47.103-43.49-83.832-90.594-90.593V110.008z"/>
</svg>
