<?xml version="1.0" encoding="utf-8"?>
<!-- Generator: Adobe Illustrator 16.0.0, SVG Export Plug-In . SVG Version: 6.00 Build 0)  -->
<!DOCTYPE svg PUBLIC "-//W3C//DTD SVG 1.1//EN" "http://www.w3.org/Graphics/SVG/1.1/DTD/svg11.dtd">
<svg version="1.1" id="Layer_1" xmlns="http://www.w3.org/2000/svg" xmlns:xlink="http://www.w3.org/1999/xlink" x="0px" y="0px"
	 width="512px" height="512px" viewBox="0 0 512 512" enable-background="new 0 0 512 512" xml:space="preserve">
<g>
	<path d="M138.606,190.703c-3.146-3.146-7.877-4.087-11.988-2.385c-4.11,1.703-6.79,5.714-6.79,10.163v115.037
		c0,4.449,2.68,8.46,6.79,10.163c1.361,0.563,2.79,0.837,4.208,0.837c2.862,0,5.676-1.117,7.78-3.222l57.52-57.519
		c2.063-2.063,3.222-4.861,3.222-7.778s-1.159-5.716-3.222-7.778L138.606,190.703z"/>
	<path d="M385.382,188.318c-4.109-1.7-8.841-0.763-11.988,2.385l-57.52,57.519c-2.063,2.063-3.222,4.861-3.222,7.778
		s1.159,5.716,3.222,7.778l57.52,57.519c2.104,2.104,4.918,3.222,7.78,3.222c1.417,0,2.847-0.273,4.208-0.837
		c4.11-1.703,6.79-5.714,6.79-10.163V198.481C392.172,194.032,389.492,190.021,385.382,188.318z"/>
	<path d="M259,47h-6c-6.075,0-11,4.925-11,11v35c0,6.075,4.925,11,11,11h6c6.075,0,11-4.925,11-11V58C270,51.925,265.075,47,259,47z
		"/>
	<path d="M259,142.352h-6c-6.075,0-11,4.925-11,11v72.473c0,6.075,4.925,11,11,11h6c6.075,0,11-4.925,11-11v-72.473
		C270,147.276,265.075,142.352,259,142.352z"/>
	<path d="M259,275.176h-6c-6.075,0-11,4.925-11,11v72.473c0,6.075,4.925,11,11,11h6c6.075,0,11-4.925,11-11v-72.473
		C270,280.101,265.075,275.176,259,275.176z"/>
	<path d="M259,408h-6c-6.075,0-11,4.925-11,11v35c0,6.075,4.925,11,11,11h6c6.075,0,11-4.925,11-11v-35
		C270,412.925,265.075,408,259,408z"/>
</g>
</svg>
