<?xml version="1.0" encoding="utf-8"?>
<!-- Generator: Adobe Illustrator 16.0.0, SVG Export Plug-In . SVG Version: 6.00 Build 0)  -->
<!DOCTYPE svg PUBLIC "-//W3C//DTD SVG 1.1//EN" "http://www.w3.org/Graphics/SVG/1.1/DTD/svg11.dtd">
<svg version="1.1" id="Layer_1" xmlns="http://www.w3.org/2000/svg" xmlns:xlink="http://www.w3.org/1999/xlink" x="0px" y="0px"
	 width="512px" height="512px" viewBox="0 0 512 512" enable-background="new 0 0 512 512" xml:space="preserve">
<g>
	<path d="M460.059,250.934c-7.347-3.104-30.051-9.218-99.557-15.302c-50.57-4.426-110.493-7.4-149.111-7.4
		c-20.387,0-40.893,0.906-59.302,2.619c-1.776,0.166-3.362,1.182-4.254,2.727c-0.892,1.545-0.978,3.427-0.233,5.048
		c2.737,5.95,4.125,12.586,4.125,19.725c0,5.85-0.742,11.196-2.204,15.889c-0.495,1.588-0.245,3.314,0.681,4.696
		c0.925,1.382,2.426,2.271,4.083,2.418c17.793,1.58,37.539,2.416,57.104,2.417h0.001c38.622,0,98.545-2.975,149.111-7.401
		c69.504-6.084,92.209-12.199,99.557-15.303c2.036-0.86,3.36-2.855,3.36-5.066C463.418,253.79,462.095,251.793,460.059,250.934z"/>
	<path d="M99.74,287.662c4.792,1.752,9.499,2.641,13.993,2.641h0c5.31,0,12.849-1.302,18.616-7.508
		c5.17-5.564,7.792-13.789,7.792-24.445c0-21.581-14.946-36.653-36.345-36.653c-19.618,0-39.384,12.24-54.229,33.583
		c-1.13,1.625-1.301,3.732-0.444,5.517c0.854,1.785,2.603,2.973,4.577,3.11c9.563,0.666,16.086,5.41,23.641,10.903
		C83.382,279.204,90.23,284.185,99.74,287.662z"/>
	<path d="M438.453,281.75c-1.238-1.045-2.875-1.496-4.468-1.221c-6.973,1.182-15.002,2.355-23.865,3.487
		c-2.746,0.351-4.804,2.688-4.804,5.456v91.939H104.658v-74.778c0-2.497-1.682-4.68-4.096-5.318c-1.746-0.461-3.5-1.013-5.216-1.64
		c-5.878-2.149-11.531-5.01-17.282-8.747c-1.69-1.099-3.847-1.184-5.62-0.222c-1.772,0.962-2.876,2.817-2.876,4.834V411
		c0,3.038,2.462,5.5,5.5,5.5h359.835c3.038,0,5.5-2.462,5.5-5.5V285.952C440.404,284.333,439.69,282.795,438.453,281.75z"/>
	<path d="M72.082,214.372c1.567,1.013,3.541,1.163,5.242,0.398c7.274-3.271,14.75-5.194,22.219-5.717
		c2.882-0.202,5.116-2.598,5.116-5.486v-72.978h300.657v91.939c0,2.769,2.058,5.105,4.804,5.456
		c8.854,1.13,16.884,2.304,23.865,3.487c0.306,0.052,0.613,0.078,0.919,0.078c1.29,0,2.549-0.454,3.549-1.298
		c1.237-1.045,1.951-2.582,1.951-4.202V101c0-3.038-2.462-5.5-5.5-5.5H75.068c-3.038,0-5.5,2.462-5.5,5.5v108.753
		C69.568,211.62,70.515,213.358,72.082,214.372z"/>
	<path d="M121.83,185.249c0,19.736,16.057,35.792,35.792,35.792c19.736,0,35.793-16.057,35.793-35.792s-16.057-35.792-35.793-35.792
		C137.887,149.457,121.83,165.513,121.83,185.249z"/>
	<path d="M219.194,185.249c0,19.736,16.056,35.792,35.792,35.792c19.736,0,35.792-16.057,35.792-35.792
		s-16.056-35.792-35.792-35.792C235.25,149.457,219.194,165.513,219.194,185.249z"/>
	<path d="M316.557,185.249c0,19.736,16.057,35.792,35.793,35.792s35.793-16.057,35.793-35.792s-16.057-35.792-35.793-35.792
		S316.557,165.513,316.557,185.249z"/>
	<path d="M121.83,326.75c0,19.736,16.057,35.792,35.792,35.792c19.736,0,35.793-16.057,35.793-35.792s-16.057-35.792-35.793-35.792
		C137.887,290.958,121.83,307.015,121.83,326.75z"/>
	<path d="M290.778,326.75c0-19.736-16.056-35.792-35.792-35.792c-19.736,0-35.792,16.056-35.792,35.792s16.056,35.792,35.792,35.792
		C274.722,362.543,290.778,346.486,290.778,326.75z"/>
	<path d="M388.143,326.75c0-19.736-16.057-35.792-35.793-35.792s-35.793,16.056-35.793,35.792s16.057,35.792,35.793,35.792
		S388.143,346.486,388.143,326.75z"/>
</g>
</svg>
