<?xml version="1.0" encoding="utf-8"?>
<!-- Generator: Adobe Illustrator 16.0.0, SVG Export Plug-In . SVG Version: 6.00 Build 0)  -->
<!DOCTYPE svg PUBLIC "-//W3C//DTD SVG 1.1//EN" "http://www.w3.org/Graphics/SVG/1.1/DTD/svg11.dtd">
<svg version="1.1" id="Layer_1" xmlns="http://www.w3.org/2000/svg" xmlns:xlink="http://www.w3.org/1999/xlink" x="0px" y="0px"
	 width="512px" height="512px" viewBox="0 0 512 512" enable-background="new 0 0 512 512" xml:space="preserve">
<path d="M428.662,80.648c-4.868-4.869-11.396-7.443-18.881-7.443c-10.159,0-29.492,4.533-79.879,43.733
	c-33.747,26.256-74.202,62.585-113.912,102.295c-27.837,27.836-50.188,51.874-72.421,77.892c-18.55,2.251-36.082,13.324-48.41,30.67
	c-18.201,25.611-23.805,61.477-15.777,100.989c0.913,4.495,4.216,8.13,8.604,9.468c1.199,0.366,2.427,0.544,3.645,0.544
	c3.237,0,6.404-1.259,8.777-3.599c11.396-11.235,23.931-13.215,39.803-15.722c12.541-1.98,26.756-4.227,42.625-11.597
	c22.469-10.438,35.61-28,35.663-47.387c23.235-20.316,47.306-42.907,71.574-67.177c43.823-43.822,82.673-87.574,109.392-123.195
	c13.451-17.933,23.278-33.097,29.208-45.071C432.692,116.928,443.373,95.359,428.662,80.648z M197.392,317.397
	c-3.499-3.499-7.218-6.599-11.107-9.263c17.399-19.701,35.844-39.223,57.613-60.992c38.497-38.498,77.57-73.614,110.021-98.883
	c9.643-7.508,18.573-14.036,26.546-19.419c-5.382,7.972-11.911,16.904-19.418,26.546c-25.266,32.447-60.383,71.52-98.883,110.021
	c-19.854,19.854-40.546,39.45-60.125,56.949C200.579,320.689,199.027,319.032,197.392,317.397z"/>
</svg>
