<?xml version="1.0" encoding="utf-8"?>
<!-- Generator: Adobe Illustrator 16.0.0, SVG Export Plug-In . SVG Version: 6.00 Build 0)  -->
<!DOCTYPE svg PUBLIC "-//W3C//DTD SVG 1.1//EN" "http://www.w3.org/Graphics/SVG/1.1/DTD/svg11.dtd">
<svg version="1.1" id="Layer_1" xmlns="http://www.w3.org/2000/svg" xmlns:xlink="http://www.w3.org/1999/xlink" x="0px" y="0px"
	 width="512px" height="512px" viewBox="0 0 512 512" enable-background="new 0 0 512 512" xml:space="preserve">
<path d="M407.043,124.014c1.859-5.419,0.469-11.424-3.582-15.475s-10.059-5.44-15.475-3.58
	c-52.936,18.168-92.408,25.92-131.986,25.92s-79.051-7.752-131.986-25.92c-5.414-1.859-11.424-0.471-15.475,3.58
	s-5.441,10.056-3.582,15.475c34.701,101.148,34.701,162.824,0,263.973c-1.859,5.419-0.469,11.424,3.582,15.475
	c4.051,4.05,10.057,5.439,15.475,3.58c52.936-18.168,92.408-25.92,131.986-25.92s79.051,7.752,131.986,25.92
	c1.594,0.547,3.236,0.813,4.867,0.813c3.912,0,7.748-1.533,10.607-4.393c4.051-4.051,5.441-10.056,3.582-15.475
	C372.342,286.838,372.342,225.162,407.043,124.014z"/>
</svg>
