<?xml version="1.0" encoding="utf-8"?>
<!-- Generator: Adobe Illustrator 16.0.0, SVG Export Plug-In . SVG Version: 6.00 Build 0)  -->
<!DOCTYPE svg PUBLIC "-//W3C//DTD SVG 1.1//EN" "http://www.w3.org/Graphics/SVG/1.1/DTD/svg11.dtd">
<svg version="1.1" id="Layer_1" xmlns="http://www.w3.org/2000/svg" xmlns:xlink="http://www.w3.org/1999/xlink" x="0px" y="0px"
	 width="512px" height="512px" viewBox="0 0 512 512" enable-background="new 0 0 512 512" xml:space="preserve">
<path d="M421,90.357c0-10.574-4.118-20.515-11.598-27.993c-7.478-7.477-17.42-11.595-27.991-11.595
	c-10.575,0-20.516,4.118-27.991,11.594l-49.922,49.922L277.043,85.83c-6.118-6.116-14.251-9.485-22.901-9.485
	s-16.781,3.37-22.897,9.485l-51.313,51.312c-1.953,1.954-3.052,4.604-3.052,7.367c0,2.692,1.043,5.277,2.903,7.215l-85.73,85.728
	c-4.063,4.063-4.07,10.65-0.013,14.72l48.812,48.983l-0.025,17.919c0,13.652,2.397,23.548,7.539,31.142
	c5.392,7.968,13.785,12.986,23.464,14.171c-0.85,7.257-2.84,15.214-4.779,22.971c-5.027,20.12-10.226,40.924,3.055,57.933
	c8.257,10.577,21.338,15.94,38.881,15.94c16.533,0,25.787-7.178,30.639-13.199c11.707-14.529,7.727-32.822,4.522-47.545
	c-0.164-0.766-0.333-1.535-0.498-2.307c2.276,0.494,4.621,0.743,7.021,0.743c7.039,0,13.847-2.192,20.228-6.513
	c9.11-6.163,14.353-15.397,15.161-26.706c0.464-6.514-0.627-12.717-1.682-18.719c-1.127-6.377-2.194-12.43-1.779-19.264
	l35.602-35.589c1.918,1.77,4.439,2.758,7.06,2.758l0,0c2.764,0,5.413-1.098,7.368-3.051l51.313-51.313
	c6.116-6.117,9.485-14.25,9.485-22.901c0-8.65-3.369-16.783-9.483-22.898l-26.458-26.456l49.92-49.921
	C416.882,110.873,421,100.931,421,90.357z M259.344,311.629c-1.515,1.513-2.526,3.456-2.896,5.564
	c-2.501,14.224-0.398,26.154,1.136,34.866c1.994,11.329,1.805,14.194-1.068,16.139c-1.005,0.68-2.486,1.491-3.841,1.492
	c-3.612,0-6.568-6.106-7.388-7.978c-2.241-5.112-8.109-7.55-13.313-5.531c-23.409,9.084-18.195,33.046-14.391,50.543
	c1.972,9.059,4.205,19.327,1.273,22.966c-1.536,1.906-5.128,2.306-7.87,2.306c-8.082,0-13.413-1.58-15.849-4.698
	c-4.502-5.768-1.212-18.924,2.271-32.852c3.397-13.587,7.249-28.988,5.743-43.65c-1.106-10.796-6.069-16.271-14.748-16.273h-0.002
	c-1.924,0-3.807,0.249-5.633,0.49c-1.6,0.212-3.109,0.412-4.438,0.412c-2.682,0-3.306-0.924-3.761-1.597
	c-1.146-1.693-2.514-5.625-2.514-14.721l0.035-25.703c0.004-2.761-1.088-5.411-3.038-7.367l-41.052-41.196l66.887-66.882
	l27.434,27.434l-33.175,38.264c-0.717,0.826-0.674,2.065,0.1,2.837c0.404,0.406,0.939,0.611,1.471,0.611
	c0.487,0,0.975-0.169,1.367-0.51l38.264-33.176l34.875,34.875l-22.417,25.857c-0.717,0.826-0.674,2.065,0.1,2.838
	c0.404,0.405,0.939,0.61,1.472,0.61c0.486,0,0.974-0.169,1.366-0.509l25.856-22.419l22.354,22.353L259.344,311.629z"/>
</svg>
