<?xml version="1.0" encoding="utf-8"?>
<!-- Generator: Adobe Illustrator 16.0.0, SVG Export Plug-In . SVG Version: 6.00 Build 0)  -->
<!DOCTYPE svg PUBLIC "-//W3C//DTD SVG 1.1//EN" "http://www.w3.org/Graphics/SVG/1.1/DTD/svg11.dtd">
<svg version="1.1" id="Layer_1" xmlns="http://www.w3.org/2000/svg" xmlns:xlink="http://www.w3.org/1999/xlink" x="0px" y="0px"
	 width="512px" height="512px" viewBox="0 0 512 512" enable-background="new 0 0 512 512" xml:space="preserve">
<g>
	<path d="M427.37,348.874l-108.709-43.009c-3.708-1.467-7.931-0.592-10.75,2.228s-3.694,7.043-2.228,10.75l43.009,108.71
		c1.455,3.676,4.938,6.15,8.887,6.313c0.139,0.005,0.276,0.008,0.414,0.008c3.79,0,7.272-2.149,8.963-5.568l20.235-40.932
		l40.932-20.236c3.543-1.752,5.723-5.427,5.56-9.376C433.52,353.811,431.046,350.328,427.37,348.874z"/>
	<path d="M245.66,382.141c-75.357,0-136.664-61.306-136.664-136.662c0-75.356,61.307-136.664,136.664-136.664
		c75.355,0,136.662,61.307,136.662,136.664c0,16.302-2.874,31.943-8.133,46.452l28.548,11.295
		c6.643-18.009,10.273-37.461,10.273-57.747c0-92.277-75.073-167.352-167.351-167.352S78.309,153.201,78.309,245.479
		s75.074,167.351,167.352,167.351c20.285,0,39.738-3.63,57.746-10.272l-11.295-28.548
		C277.604,379.268,261.961,382.141,245.66,382.141z"/>
</g>
</svg>
