<?xml version="1.0" encoding="utf-8"?>
<!-- Generator: Adobe Illustrator 16.0.0, SVG Export Plug-In . SVG Version: 6.00 Build 0)  -->
<!DOCTYPE svg PUBLIC "-//W3C//DTD SVG 1.1//EN" "http://www.w3.org/Graphics/SVG/1.1/DTD/svg11.dtd">
<svg version="1.1" id="Layer_1" xmlns="http://www.w3.org/2000/svg" xmlns:xlink="http://www.w3.org/1999/xlink" x="0px" y="0px"
	 width="512px" height="512px" viewBox="0 0 512 512" enable-background="new 0 0 512 512" xml:space="preserve">
<g>
	<path d="M449.904,232.096h-0.371c-10.922-88.953-80.676-158.707-169.629-169.629v-0.371c0-5.522-4.477-10-10-10h-27.809
		c-5.523,0-10,4.478-10,10v0.371C143.143,73.389,73.389,143.143,62.467,232.096h-0.371c-5.523,0-10,4.478-10,10v27.809
		c0,5.522,4.477,10,10,10h0.371c10.922,88.953,80.676,158.707,169.629,169.629v0.371c0,5.522,4.477,10,10,10h27.809
		c5.523,0,10-4.478,10-10v-0.371c88.953-10.922,158.707-80.676,169.629-169.629h0.371c5.523,0,10-4.478,10-10v-27.809
		C459.904,236.573,455.427,232.096,449.904,232.096z M419.319,279.514l-0.057,0.391c-5.141,35.271-21.272,67.329-46.651,92.707
		c-25.379,25.378-57.437,41.51-92.707,46.65l-0.391,0.057c-1.204-4.171-5.05-7.223-9.609-7.223h-27.809
		c-4.56,0-8.406,3.051-9.609,7.223l-0.391-0.057c-35.271-5.141-67.328-21.272-92.707-46.65
		c-25.379-25.378-41.51-57.436-46.651-92.707l-0.057-0.391c4.172-1.203,7.224-5.05,7.224-9.609v-27.809
		c0-4.56-3.051-8.406-7.224-9.609l0.057-0.391c5.141-35.271,21.272-67.329,46.651-92.707c25.379-25.378,57.437-41.51,92.707-46.65
		l0.391-0.057c1.204,4.171,5.05,7.223,9.609,7.223h27.809c4.56,0,8.406-3.051,9.609-7.223l0.391,0.057
		c35.271,5.141,67.328,21.272,92.707,46.65c25.379,25.378,41.51,57.436,46.651,92.707l0.057,0.391
		c-4.172,1.203-7.224,5.05-7.224,9.609v27.809C412.096,274.464,415.147,278.311,419.319,279.514z"/>
	<path d="M269.904,232.096h-27.809c-5.522,0-10,4.478-10,10v27.809c0,5.522,4.478,10,10,10h27.809c5.522,0,10-4.478,10-10v-27.809
		C279.904,236.573,275.427,232.096,269.904,232.096z"/>
</g>
</svg>
