<?xml version="1.0" encoding="utf-8"?>
<!-- Generator: Adobe Illustrator 16.0.0, SVG Export Plug-In . SVG Version: 6.00 Build 0)  -->
<!DOCTYPE svg PUBLIC "-//W3C//DTD SVG 1.1//EN" "http://www.w3.org/Graphics/SVG/1.1/DTD/svg11.dtd">
<svg version="1.1" id="Layer_1" xmlns="http://www.w3.org/2000/svg" xmlns:xlink="http://www.w3.org/1999/xlink" x="0px" y="0px"
	 width="512px" height="512px" viewBox="0 0 512 512" enable-background="new 0 0 512 512" xml:space="preserve">
<path d="M426.112,146.155c0-16.126-6.267-31.274-17.646-42.653c-11.394-11.394-26.542-17.668-42.654-17.668
	c-16.112,0-31.26,6.274-42.655,17.668l-48.136,48.138c-3.066-0.808-6.223-1.216-9.422-1.216c-9.857,0-19.126,3.838-26.099,10.81
	c-10.353,10.353-13.534,25.7-8.419,39.177L109.159,322.333c-2.952,2.952-4.54,7.001-4.382,11.173l1.36,36.011l-18.025,29.316
	c-3.638,5.915-2.739,13.554,2.171,18.463l4.476,4.477c2.894,2.894,6.734,4.394,10.611,4.394c2.713,0,5.444-0.734,7.88-2.239
	l29.358-18.142l35.828,1.405c4.182,0.168,8.236-1.425,11.194-4.381l121.93-121.93c4.163,1.57,8.623,2.39,13.083,2.39
	c9.856,0,19.123-3.838,26.092-10.808c9.29-9.29,12.889-22.93,9.59-35.515l48.138-48.14
	C419.845,177.428,426.112,162.28,426.112,146.155z M169.341,367.468l-23.951-0.939l-0.903-23.892l112.106-112.106l24.843,24.843
	L169.341,367.468z"/>
</svg>
