<?xml version="1.0" encoding="utf-8"?>
<!-- Generator: Adobe Illustrator 16.0.0, SVG Export Plug-In . SVG Version: 6.00 Build 0)  -->
<!DOCTYPE svg PUBLIC "-//W3C//DTD SVG 1.1//EN" "http://www.w3.org/Graphics/SVG/1.1/DTD/svg11.dtd">
<svg version="1.1" id="Layer_1" xmlns="http://www.w3.org/2000/svg" xmlns:xlink="http://www.w3.org/1999/xlink" x="0px" y="0px"
	 width="512px" height="512px" viewBox="0 0 512 512" enable-background="new 0 0 512 512" xml:space="preserve">
<path d="M432.557,51H79.443C63.759,51,51,63.76,51,79.443v353.114C51,448.24,63.759,461,79.443,461h353.113
	C448.241,461,461,448.24,461,432.557V79.443C461,63.76,448.241,51,432.557,51z M184.211,184.472
	c18.122-18.119,42.211-28.098,67.835-28.098c24.006,0,46.662,8.756,64.329,24.758l-135.5,135.502
	C146.844,279.024,147.953,220.728,184.211,184.472z M411.109,411.37h-310l61.956-61.957c24.391,22.393,55.799,34.667,88.98,34.667
	c72.659,0,131.773-59.111,131.773-131.771c0-33.184-12.273-64.593-34.666-88.981l61.956-61.958V411.37z"/>
</svg>
