<?xml version="1.0" encoding="utf-8"?>
<!-- Generator: Adobe Illustrator 16.0.0, SVG Export Plug-In . SVG Version: 6.00 Build 0)  -->
<!DOCTYPE svg PUBLIC "-//W3C//DTD SVG 1.1//EN" "http://www.w3.org/Graphics/SVG/1.1/DTD/svg11.dtd">
<svg version="1.1" id="Layer_1" xmlns="http://www.w3.org/2000/svg" xmlns:xlink="http://www.w3.org/1999/xlink" x="0px" y="0px"
	 width="512px" height="512px" viewBox="0 0 512 512" enable-background="new 0 0 512 512" xml:space="preserve">
<path d="M398.257,105.368C367.991,93.523,327.948,87,285.503,87c-42.442,0-82.486,6.523-112.754,18.368
	c-33.116,12.962-51.354,31.32-51.354,51.692c0,3.402,0.523,6.821,1.556,10.161c0.071,0.229,0.148,0.455,0.233,0.679l13.709,36.165
	c-7.703,6.14-22.913,18.706-37.379,33.238c-20.593,20.687-46.496,51.188-33.738,77.126c7.516,15.284,25.019,22.714,53.509,22.714
	c3.193,0,6.49-0.085,10.068-0.258c9.661-0.459,20.811-1.625,33.191-3.469l11.143,64.33c0.715,4.125,3.615,7.536,7.572,8.905
	l5.559,1.923c1.926,0.671,47.751,16.425,98.686,16.425c50.906,0,96.743-15.748,98.655-16.413l5.594-1.938
	c3.954-1.37,6.852-4.78,7.565-8.903l30.814-177.895l19.714-51.803c0.107-0.281,0.204-0.568,0.289-0.857
	c0.444-1.519,1.479-5.546,1.479-10.13C449.613,136.688,431.375,118.33,398.257,105.368z M285.503,129.914
	c36.676,0,72.073,5.62,97.116,15.42c11.862,4.642,18.274,8.903,21.604,11.727c-3.329,2.822-9.741,7.083-21.608,11.725
	c-25.031,9.799-60.427,15.418-97.112,15.418s-72.082-5.619-97.116-15.419c-11.863-4.641-18.274-8.9-21.604-11.724
	c3.329-2.822,9.741-7.084,21.606-11.727C213.43,135.534,248.826,129.914,285.503,129.914z M146.813,242.588l4.234,24.451
	c0.525,3.032,2.243,5.727,4.769,7.482c2.526,1.754,5.653,2.424,8.675,1.86c27.341-5.11,63.454-15.455,107.335-30.747
	c1.705-0.595,3.247-1.582,4.5-2.883c2.424-2.518,5.684-3.904,9.178-3.904c7.056,0,12.796,5.74,12.796,12.795
	s-5.74,12.794-12.796,12.794c-0.67,0-1.361-0.06-2.054-0.177c-1.899-0.318-3.849-0.16-5.668,0.47
	c-44.765,15.458-117.857,34.193-148.67,36.131c-2.949,0.186-5.709,0.279-8.206,0.279c-15.137,0-18.182-3.407-18.788-4.873
	c-1.427-3.447,1.48-12.162,23.438-34.105C132.928,254.794,140.58,247.937,146.813,242.588z"/>
</svg>
