<?xml version="1.0" encoding="utf-8"?>
<!-- Generator: Adobe Illustrator 16.0.0, SVG Export Plug-In . SVG Version: 6.00 Build 0)  -->
<!DOCTYPE svg PUBLIC "-//W3C//DTD SVG 1.1//EN" "http://www.w3.org/Graphics/SVG/1.1/DTD/svg11.dtd">
<svg version="1.1" id="Layer_1" xmlns="http://www.w3.org/2000/svg" xmlns:xlink="http://www.w3.org/1999/xlink" x="0px" y="0px"
	 width="512px" height="512px" viewBox="0 0 512 512" enable-background="new 0 0 512 512" xml:space="preserve">
<g>
	<path d="M445.045,174.823L341.686,71.472c-7.861-7.861-20.654-8.379-29.127-1.18L142.242,217.442l156.845,156.907
		c0.405-0.405,147.14-170.399,147.14-170.399C453.426,195.479,452.907,182.685,445.045,174.823z"/>
	<path d="M99.351,364.847l53.1,53.097c38.406-17.247,77.017-28.013,114.762-31.999L131.347,250.08
		C127.361,287.832,116.596,326.445,99.351,364.847z"/>
	<path d="M65.954,412.227c-4.831,4.831-6.486,11.885-4.318,18.407c2.167,6.523,7.728,11.23,14.513,12.281l23.745,3.682
		c5.657,0.877,11.826-1.392,15.854-5.42l12.228-12.228l-39.375-39.37L65.954,412.227z"/>
</g>
</svg>
