<?xml version="1.0" encoding="utf-8"?>
<!-- Generator: Adobe Illustrator 16.0.0, SVG Export Plug-In . SVG Version: 6.00 Build 0)  -->
<!DOCTYPE svg PUBLIC "-//W3C//DTD SVG 1.1//EN" "http://www.w3.org/Graphics/SVG/1.1/DTD/svg11.dtd">
<svg version="1.1" id="Layer_1" xmlns="http://www.w3.org/2000/svg" xmlns:xlink="http://www.w3.org/1999/xlink" x="0px" y="0px"
	 width="512px" height="512px" viewBox="0 0 512 512" enable-background="new 0 0 512 512" xml:space="preserve">
<path d="M435.631,161.512c8.284,0,15-6.716,15-15v-19.023c0-8.284-6.716-15-15-15h-36.119V76.369c0-8.284-6.716-15-15-15h-19.023
	c-8.284,0-15,6.716-15,15v36.119H161.512V76.369c0-8.284-6.716-15-15-15h-19.023c-8.284,0-15,6.716-15,15v36.119H76.369
	c-8.284,0-15,6.716-15,15v19.023c0,8.284,6.716,15,15,15h36.119v188.977H76.369c-8.284,0-15,6.716-15,15v19.023
	c0,8.284,6.716,15,15,15h36.119v36.119c0,8.284,6.716,15,15,15h19.023c8.284,0,15-6.716,15-15v-36.119h188.977v36.119
	c0,8.284,6.716,15,15,15h19.023c8.284,0,15-6.716,15-15v-36.119h36.119c8.284,0,15-6.716,15-15v-19.023c0-8.284-6.716-15-15-15
	h-36.119V161.512H435.631z M350.488,161.512v188.977H161.512V161.512H350.488z"/>
</svg>
