<?xml version="1.0" encoding="utf-8"?>
<!-- Generator: Adobe Illustrator 16.0.0, SVG Export Plug-In . SVG Version: 6.00 Build 0)  -->
<!DOCTYPE svg PUBLIC "-//W3C//DTD SVG 1.1//EN" "http://www.w3.org/Graphics/SVG/1.1/DTD/svg11.dtd">
<svg version="1.1" id="Layer_1" xmlns="http://www.w3.org/2000/svg" xmlns:xlink="http://www.w3.org/1999/xlink" x="0px" y="0px"
	 width="512px" height="512px" viewBox="0 0 512 512" enable-background="new 0 0 512 512" xml:space="preserve">
<g>
	<path d="M447.324,62.788H330.802c-8.284,0-15,6.716-15,15v6.424c0,8.284,6.716,15,15,15H425.9v95.096c0,8.284,6.716,15,15,15h6.424
		c8.284,0,15-6.716,15-15V77.788C462.324,69.504,455.608,62.788,447.324,62.788z"/>
	<path d="M181.198,62.788H64.676c-8.284,0-15,6.716-15,15v116.52c0,8.284,6.716,15,15,15H71.1c8.284,0,15-6.716,15-15V99.212h95.098
		c8.284,0,15-6.716,15-15v-6.424C196.198,69.504,189.482,62.788,181.198,62.788z"/>
	<path d="M181.198,412.788H86.1v-95.096c0-8.284-6.716-15-15-15h-6.424c-8.284,0-15,6.716-15,15v116.52c0,8.284,6.716,15,15,15
		h116.521c8.284,0,15-6.716,15-15v-6.424C196.198,419.504,189.482,412.788,181.198,412.788z"/>
	<path d="M447.324,302.692H440.9c-8.284,0-15,6.716-15,15v95.096h-95.098c-8.284,0-15,6.716-15,15v6.424c0,8.284,6.716,15,15,15
		h116.521c8.284,0,15-6.716,15-15v-116.52C462.324,309.408,455.608,302.692,447.324,302.692z"/>
	<path d="M296,237.788h-21.788V216c0-8.284-6.716-15-15-15h-6.424c-8.284,0-15,6.716-15,15v21.788H216c-8.284,0-15,6.716-15,15
		v6.424c0,8.284,6.716,15,15,15h21.788V296c0,8.284,6.716,15,15,15h6.424c8.284,0,15-6.716,15-15v-21.788H296
		c8.284,0,15-6.716,15-15v-6.424C311,244.504,304.284,237.788,296,237.788z"/>
</g>
</svg>
