<?xml version="1.0" encoding="utf-8"?>
<!-- Generator: Adobe Illustrator 16.0.0, SVG Export Plug-In . SVG Version: 6.00 Build 0)  -->
<!DOCTYPE svg PUBLIC "-//W3C//DTD SVG 1.1//EN" "http://www.w3.org/Graphics/SVG/1.1/DTD/svg11.dtd">
<svg version="1.1" id="Layer_1" xmlns="http://www.w3.org/2000/svg" xmlns:xlink="http://www.w3.org/1999/xlink" x="0px" y="0px"
	 width="512px" height="512px" viewBox="0 0 512 512" enable-background="new 0 0 512 512" xml:space="preserve">
<g>
	<path d="M480.904,125V97.191c0-5.522-4.478-10-10-10h-27.809c-5.152,0-9.396,3.896-9.941,8.904H78.845
		c-0.545-5.008-4.788-8.904-9.94-8.904H41.096c-5.522,0-10,4.478-10,10V125c0,5.152,3.896,9.396,8.904,9.94v97.218
		c-5.007,0.547-8.904,4.785-8.904,9.938v27.809c0,5.152,3.897,9.391,8.904,9.938v97.218c-5.008,0.545-8.904,4.788-8.904,9.94v27.809
		c0,5.522,4.478,10,10,10h27.809c5.152,0,9.396-3.896,9.94-8.904h354.31c0.545,5.008,4.789,8.904,9.941,8.904h27.809
		c5.522,0,10-4.478,10-10V387c0-5.152-3.896-9.396-8.904-9.94v-97.218c5.007-0.547,8.904-4.785,8.904-9.938v-27.809
		c0-5.152-3.897-9.391-8.904-9.938V134.94C477.008,134.396,480.904,130.152,480.904,125z M433.154,385.904H78.845
		c-0.506-4.647-4.197-8.339-8.845-8.845v-97.218c5.007-0.547,8.904-4.785,8.904-9.938v-27.809c0-5.152-3.897-9.391-8.904-9.938
		V134.94c4.647-0.506,8.339-4.197,8.845-8.845h354.31c0.507,4.647,4.199,8.339,8.846,8.845v97.218
		c-5.007,0.547-8.904,4.785-8.904,9.938v27.809c0,5.152,3.897,9.391,8.904,9.938v97.218
		C437.354,377.565,433.661,381.257,433.154,385.904z"/>
	<path d="M269.904,232.096h-27.809c-5.522,0-10,4.478-10,10v27.809c0,5.522,4.478,10,10,10h27.809c5.522,0,10-4.478,10-10v-27.809
		C279.904,236.573,275.427,232.096,269.904,232.096z"/>
</g>
</svg>
