<?xml version="1.0" encoding="utf-8"?>
<!-- Generator: Adobe Illustrator 16.0.0, SVG Export Plug-In . SVG Version: 6.00 Build 0)  -->
<!DOCTYPE svg PUBLIC "-//W3C//DTD SVG 1.1//EN" "http://www.w3.org/Graphics/SVG/1.1/DTD/svg11.dtd">
<svg version="1.1" id="Layer_1" xmlns="http://www.w3.org/2000/svg" xmlns:xlink="http://www.w3.org/1999/xlink" x="0px" y="0px"
	 width="512px" height="512px" viewBox="0 0 512 512" enable-background="new 0 0 512 512" xml:space="preserve">
<path d="M430.402,159.982L261.408,51.443c-3.293-2.115-7.515-2.115-10.807,0L81.6,159.938c-2.866,1.84-4.6,5.014-4.598,8.42
	l0.041,180.039c0.002,3.475,1.806,6.699,4.767,8.518l168.961,103.75c1.605,0.986,3.419,1.479,5.233,1.479s3.629-0.492,5.233-1.479
	l168.971-103.709c2.96-1.818,4.766-5.043,4.767-8.518l0.023-180.039C434.999,164.994,433.266,161.822,430.402,159.982z
	 M256.004,75.484l61.935,39.629l-61.935,39.627l-61.934-39.627L256.004,75.484z M100.053,341.111v-63.938l60.692,36.848l0.01,64.377
	L100.053,341.111z M160.756,287.48l-60.703-37.285v-64.74l60.703,38.842V287.48z M113.076,166.691l59.186-37.869l59.186,37.869
	l-59.186,37.869L113.076,166.691z M183.764,224.297l60.705-38.844v64.742l-60.705,37.285V224.297z M183.795,327.783l40.348,25.816
	l-40.348,24.783V327.783z M244.498,429.809l-50.232-30.854l50.232-30.846V429.809z M255.994,346.897l-62.076-38.765l62.076-38.592
	l62.076,38.734L255.994,346.897z M267.51,429.809v-61.645l50.194,30.813L267.51,429.809z M328.215,378.428l-40.388-24.805
	l40.388-25.842V378.428z M328.244,287.527l-60.703-37.287v-64.736l60.703,38.842V287.527z M280.564,166.736l59.186-37.867
	l59.186,37.867l-59.186,37.869L280.564,166.736z M411.961,341.156l-60.705,37.287v-63.17l60.705-37.984V341.156z M411.961,250.24
	l-60.705,37.287v-63.182l60.705-38.844V250.24z"/>
</svg>
