<?xml version="1.0" encoding="utf-8"?>
<!-- Generator: Adobe Illustrator 16.0.0, SVG Export Plug-In . SVG Version: 6.00 Build 0)  -->
<!DOCTYPE svg PUBLIC "-//W3C//DTD SVG 1.1//EN" "http://www.w3.org/Graphics/SVG/1.1/DTD/svg11.dtd">
<svg version="1.1" id="Layer_1" xmlns="http://www.w3.org/2000/svg" xmlns:xlink="http://www.w3.org/1999/xlink" x="0px" y="0px"
	 width="512px" height="512px" viewBox="0 0 512 512" enable-background="new 0 0 512 512" xml:space="preserve">
<g>
	<path d="M182.934,316.639c6.178-11.188,8.82-23.51,7.641-35.635l26.801-2.729C217.555,260.396,219,243.9,219,243.9l-35.234,14.814
		c-3.723-6.855-8.711-12.847-14.824-17.809c-11.586-9.407-26.662-14.588-42.451-14.588c-8.119,0-16.15,1.349-23.873,4.01
		c-17.021,5.865-30.998,17.433-39.357,32.572c-8.594,15.563-10.271,33.004-4.721,49.111c3.576,10.382,10.045,19.588,18.709,26.623
		c11.586,9.407,26.662,14.587,42.453,14.587c8.119,0,16.152-1.349,23.873-4.009C160.594,343.348,174.57,331.78,182.934,316.639z
		 M161.047,304.554c-5.363,9.712-14.461,17.177-25.615,21.02c-5.143,1.772-10.463,2.67-15.813,2.67
		c-9.998,0-19.449-3.203-26.613-9.018c-5.105-4.148-8.75-9.315-10.832-15.358c-3.215-9.334-2.16-19.592,2.971-28.882
		c5.363-9.712,14.461-17.178,25.617-21.021c5.143-1.772,10.461-2.67,15.811-2.67c9.996,0,19.447,3.203,26.613,9.02
		c5.104,4.143,8.748,9.311,10.83,15.358C167.232,285.006,166.178,295.264,161.047,304.554z"/>
	<path d="M455.643,186.117c-1.439-1.876-3.998-2.485-6.127-1.465c-32.264,15.459-97.025,42.234-154.863,47.868l5.494,28.821
		l-3.918,12.535c0,0,4.291-0.517,4.514-0.546c71.221-9.556,127.865-49.561,154.73-80.915
		C457.012,190.619,457.082,187.992,455.643,186.117z"/>
	<path d="M253.281,328.232l27.311-61.112c0.42-0.937,0.539-1.98,0.346-2.988c-13.045-67.545,28.104-163.515,46.4-201.642
		c1.023-2.132,0.412-4.688-1.463-6.129c-1.875-1.439-4.504-1.369-6.299,0.169c-32.488,27.839-73.344,86.474-81.57,160.102
		c-0.008,0.074-0.016,0.147-0.02,0.222l-6.992,104.569c-1.877-0.183-3.787-0.275-5.676-0.275c-10.367,0-20.447,2.663-29.961,7.916
		c-15.141,8.36-26.709,22.338-32.57,39.358c-7.953,23.082-3.898,48.497,10.578,66.326c7.031,8.663,16.236,15.133,26.621,18.711
		c6.191,2.132,12.625,3.213,19.123,3.213h0.002c10.361,0,20.451-2.67,29.986-7.936c15.141-8.362,26.709-22.339,32.572-39.358
		c7.951-23.083,3.898-48.497-10.578-66.324C266.127,336.94,260.135,331.953,253.281,328.232z M252.938,248.218
		c1.447-1.448,3.373-2.245,5.42-2.245c2.049,0,3.973,0.797,5.422,2.246c1.443,1.444,2.24,3.37,2.24,5.421s-0.797,3.977-2.242,5.422
		c-1.447,1.447-3.371,2.245-5.42,2.245c-2.047,0-3.973-0.798-5.422-2.246c-1.443-1.444-2.238-3.369-2.238-5.42
		C250.697,251.588,251.492,249.663,252.938,248.218z M258.033,401.236c-3.844,11.155-11.309,20.253-21.021,25.617
		c-5.682,3.138-11.889,4.796-17.953,4.796c-3.734,0-7.41-0.614-10.928-1.825c-6.047-2.083-11.215-5.728-15.357-10.833
		c-9.08-11.182-11.514-27.438-6.35-42.425c3.842-11.156,11.307-20.252,21.02-25.615c5.682-3.138,11.887-4.796,17.949-4.796
		c3.734,0,7.414,0.615,10.934,1.827c6.045,2.083,11.213,5.727,15.357,10.831C260.762,369.995,263.195,386.251,258.033,401.236z"/>
</g>
</svg>
