<?xml version="1.0" encoding="utf-8"?>
<!-- Generator: Adobe Illustrator 16.0.0, SVG Export Plug-In . SVG Version: 6.00 Build 0)  -->
<!DOCTYPE svg PUBLIC "-//W3C//DTD SVG 1.1//EN" "http://www.w3.org/Graphics/SVG/1.1/DTD/svg11.dtd">
<svg version="1.1" id="Layer_1" xmlns="http://www.w3.org/2000/svg" xmlns:xlink="http://www.w3.org/1999/xlink" x="0px" y="0px"
	 width="512px" height="512px" viewBox="0 0 512 512" enable-background="new 0 0 512 512" xml:space="preserve">
<g>
	<path d="M440.5,387.535h-18.852c-5.522,0-10,4.477-10,10v14.111h-14.113c-5.522,0-10,4.477-10,10V440.5c0,5.523,4.478,10,10,10
		H440.5c5.522,0,10-4.477,10-10v-42.965C450.5,392.012,446.022,387.535,440.5,387.535z"/>
	<path d="M228.427,411.646h-58.813c-5.522,0-10,4.477-10,10V440.5c0,5.523,4.478,10,10,10h58.813c5.522,0,10-4.477,10-10v-18.854
		C238.427,416.123,233.949,411.646,228.427,411.646z"/>
	<path d="M342.387,411.646h-58.813c-5.523,0-10,4.477-10,10V440.5c0,5.523,4.477,10,10,10h58.813c5.522,0,10-4.477,10-10v-18.854
		C352.387,416.123,347.909,411.646,342.387,411.646z"/>
	<path d="M114.465,411.646h-14.113v-14.111c0-5.523-4.478-10-10-10H71.5c-5.522,0-10,4.477-10,10V440.5c0,5.523,4.478,10,10,10
		h42.965c5.521,0,10-4.477,10-10v-18.854C124.465,416.123,119.986,411.646,114.465,411.646z"/>
	<path d="M71.5,352.386h18.852c5.522,0,10-4.477,10-10v-58.812c0-5.523-4.478-10-10-10H71.5c-5.522,0-10,4.477-10,10v58.812
		C61.5,347.909,65.978,352.386,71.5,352.386z"/>
	<path d="M71.5,238.426h18.852c5.522,0,10-4.477,10-10v-58.812c0-5.523-4.478-10-10-10H71.5c-5.522,0-10,4.477-10,10v58.812
		C61.5,233.949,65.978,238.426,71.5,238.426z"/>
	<path d="M114.465,61.5H71.5c-5.522,0-10,4.477-10,10v42.967c0,5.523,4.478,10,10,10h18.852c5.522,0,10-4.477,10-10v-14.113h14.113
		c5.521,0,10-4.477,10-10V71.5C124.465,65.978,119.986,61.5,114.465,61.5z"/>
	<path d="M342.387,61.5h-58.813c-5.522,0-10,4.477-10,10v18.854c0,5.523,4.478,10,10,10h58.813c5.522,0,10-4.477,10-10V71.5
		C352.387,65.978,347.909,61.5,342.387,61.5z"/>
	<path d="M169.613,100.354h58.813c5.522,0,10-4.477,10-10V71.5c0-5.523-4.478-10-10-10h-58.813c-5.522,0-10,4.477-10,10v18.854
		C159.613,95.877,164.091,100.354,169.613,100.354z"/>
	<path d="M440.5,61.5h-42.965c-5.522,0-10,4.477-10,10v18.854c0,5.523,4.478,10,10,10h14.113v14.113c0,5.523,4.478,10,10,10H440.5
		c5.522,0,10-4.477,10-10V71.5C450.5,65.978,446.022,61.5,440.5,61.5z"/>
	<path d="M440.5,273.574h-18.852c-5.522,0-10,4.477-10,10v58.812c0,5.523,4.478,10,10,10H440.5c5.522,0,10-4.477,10-10v-58.812
		C450.5,278.051,446.022,273.574,440.5,273.574z"/>
	<path d="M440.5,159.614h-18.852c-5.522,0-10,4.477-10,10v58.812c0,5.523,4.478,10,10,10H440.5c5.522,0,10-4.477,10-10v-58.812
		C450.5,164.091,446.022,159.614,440.5,159.614z"/>
</g>
</svg>
