<?xml version="1.0" encoding="utf-8"?>
<!-- Generator: Adobe Illustrator 16.0.0, SVG Export Plug-In . SVG Version: 6.00 Build 0)  -->
<!DOCTYPE svg PUBLIC "-//W3C//DTD SVG 1.1//EN" "http://www.w3.org/Graphics/SVG/1.1/DTD/svg11.dtd">
<svg version="1.1" id="Layer_1" xmlns="http://www.w3.org/2000/svg" xmlns:xlink="http://www.w3.org/1999/xlink" x="0px" y="0px"
	 width="512px" height="512px" viewBox="0 0 512 512" enable-background="new 0 0 512 512" xml:space="preserve">
<g>
	<path d="M370.74,167.445c1.898,2.363,4.766,3.737,7.797,3.737h22.588c2.66,0,5.211-1.061,7.088-2.946s2.926-4.441,2.912-7.102
		l0.034-55.064c-0.063-5.479-4.522-9.888-10-9.888H103.152c-5.523,0-10,4.478-10,10v55c0,5.522,4.477,10,10,10h22.596
		c3.039,0,5.912-1.381,7.809-3.753l16.998-21.247h71.592v259.635c0,5.522,4.477,10,10,10h40c5.521,0,10-4.478,10-10V146.183h71.512
		L370.74,167.445z"/>
	<path d="M416.77,353.6c-2.627-3.409-7.143-4.754-11.207-3.342l-12.756,4.437l0.002-38.723c0-2.652-1.053-5.196-2.928-7.072
		c-1.875-1.875-4.42-2.929-7.072-2.929h-9.992c-5.521,0-10,4.478-10,10v38.724l-12.756-4.437c-4.064-1.416-8.578-0.067-11.205,3.342
		s-2.779,8.116-0.375,11.688l31.035,46.113c1.859,2.762,4.969,4.417,8.297,4.417s6.438-1.655,8.295-4.417l31.037-46.113
		C419.547,361.716,419.396,357.009,416.77,353.6z"/>
</g>
</svg>
