<?xml version="1.0" encoding="utf-8"?>
<!-- Generator: Adobe Illustrator 16.0.0, SVG Export Plug-In . SVG Version: 6.00 Build 0)  -->
<!DOCTYPE svg PUBLIC "-//W3C//DTD SVG 1.1//EN" "http://www.w3.org/Graphics/SVG/1.1/DTD/svg11.dtd">
<svg version="1.1" id="Layer_1" xmlns="http://www.w3.org/2000/svg" xmlns:xlink="http://www.w3.org/1999/xlink" x="0px" y="0px"
	 width="512px" height="512px" viewBox="0 0 512 512" enable-background="new 0 0 512 512" xml:space="preserve">
<path d="M446,56H66c-5.522,0-10,4.477-10,10V446c0,5.523,4.478,10,10,10h380c5.522,0,10-4.477,10-10V66
	C456,60.478,451.522,56,446,56z M96,96h72.918c-16.474,35.443-18.849,66.198-15.167,95.45c-16.926-0.546-35.836-2.901-57.751-7.874
	V96z M96,214.287c24.021,5.041,44.829,7.142,63.453,7.298c2.599,10.736,5.655,21.417,8.744,32.211
	c2.737,9.563,5.55,19.401,8.156,29.659c-22.106-0.698-47.817,1.876-80.353,10.266V214.287z M183.252,416H96v-91.223
	c36.843-10.233,63.87-12.536,86.952-10.869C188.051,343.173,189.859,376.305,183.252,416z M197.039,245.541
	c-2.502-8.743-4.919-17.191-7.048-25.479c23.288-2.52,43.387-7.776,63.164-12.969c12.128-3.184,24.083-6.32,36.659-8.733
	c-5.431,32.492-10.736,68.082-11.561,105.493c-10.485-2.269-20.297-4.917-30.031-7.544c-13.183-3.558-26.153-7.057-40.146-9.521
	C204.695,272.309,200.8,258.682,197.039,245.541z M213.625,416c5.731-37.417,4.703-69.175,0.564-97.373
	c8.789,1.944,17.376,4.261,26.215,6.646c11.983,3.234,24.42,6.587,38.248,9.293c1.332,26.577,5.392,53.864,13.635,81.434H213.625z
	 M295.117,166.969c-17.689,2.738-33.723,6.945-49.581,11.108c-19.88,5.22-39.244,10.303-61.633,12.448
	c-4.122-29.401-1.172-58.784,18.67-94.525h98.57C303.128,114.353,299.771,138.874,295.117,166.969z M416,416h-92.241
	c-8.59-25.817-13.023-51.676-14.705-77.065c8.59,0.779,17.75,1.23,27.635,1.23c22.251,0,48.16-2.279,79.312-8.138V416z M416,301.477
	c-46.637,9.259-80.26,10.135-107.734,7.249c0.47-40.658,6.731-79.522,12.646-114.374c25.826-1.58,55.87,1.097,95.088,12.259V301.477
	z M416,175.506c-35.882-9.483-64.904-12.3-90.012-11.463c4.089-25.598,6.841-48.52,5.278-68.043H416V175.506z"/>
</svg>
