<?xml version="1.0" encoding="utf-8"?>
<!-- Generator: Adobe Illustrator 16.0.0, SVG Export Plug-In . SVG Version: 6.00 Build 0)  -->
<!DOCTYPE svg PUBLIC "-//W3C//DTD SVG 1.1//EN" "http://www.w3.org/Graphics/SVG/1.1/DTD/svg11.dtd">
<svg version="1.1" id="Layer_1" xmlns="http://www.w3.org/2000/svg" xmlns:xlink="http://www.w3.org/1999/xlink" x="0px" y="0px"
	 width="512px" height="512px" viewBox="0 0 512 512" enable-background="new 0 0 512 512" xml:space="preserve">
<g>
	<path d="M391.093,100.697c-0.054-4.652-3.838-8.396-8.492-8.396H129.491c-4.689,0-8.491,3.801-8.491,8.49v46.703
		c0,4.688,3.802,8.49,8.491,8.49h19.186c2.581,0,5.021-1.17,6.633-3.186l14.431-18.043h60.793v220.465
		c0,4.689,3.802,8.492,8.491,8.492h33.966c4.688,0,8.492-3.803,8.492-8.492V134.756h60.722l14.503,18.059
		c1.611,2.004,4.047,3.17,6.62,3.17h19.182c2.257,0,4.424-0.9,6.02-2.5c1.591-1.602,2.483-3.771,2.472-6.029L391.093,100.697z"/>
	<path d="M347.281,382.76H164.719c-10.198,0-18.47,8.27-18.47,18.469s8.271,18.471,18.47,18.471h182.563
		c10.198,0,18.47-8.271,18.47-18.471S357.479,382.76,347.281,382.76z"/>
</g>
</svg>
