<?xml version="1.0" encoding="utf-8"?>
<!-- Generator: Adobe Illustrator 16.0.0, SVG Export Plug-In . SVG Version: 6.00 Build 0)  -->
<!DOCTYPE svg PUBLIC "-//W3C//DTD SVG 1.1//EN" "http://www.w3.org/Graphics/SVG/1.1/DTD/svg11.dtd">
<svg version="1.1" id="Layer_1" xmlns="http://www.w3.org/2000/svg" xmlns:xlink="http://www.w3.org/1999/xlink" x="0px" y="0px"
	 width="512px" height="512px" viewBox="0 0 512 512" enable-background="new 0 0 512 512" xml:space="preserve">
<g>
	<path d="M396.251,230.383H129.413c-3.59,0-6.5,2.91-6.5,6.5v219.638c0,3.59,2.91,6.5,6.5,6.5h266.838c3.59,0,6.5-2.91,6.5-6.5
		V236.883C402.751,233.293,399.841,230.383,396.251,230.383z M376.936,437.205H148.731V256.199h228.204V437.205z"/>
	<path d="M178.291,345.698c0.411,1.955,1.699,3.613,3.492,4.494c1.792,0.881,3.89,0.89,5.691,0.022
		c6.88-3.317,14.013-9.59,22.273-16.856c6.44-5.67,13.101-11.534,19.26-15.555c2.886-1.886,4.973-2.904,6.4-3.452
		c-1.643,5.269-6.748,14.384-9.396,19.111c-4.681,8.363-9.52,17.012-11.791,25.282c-5.323,19.374,5.921,28.464,10.965,31.45
		c3.715,2.234,7.896,3.32,12.784,3.32c12.928,0,29.17-7.806,47.952-16.833l0.142-0.067c9.347-4.488,19.012-9.129,27.169-12.135
		c1.253-0.461,2.451-0.875,3.589-1.241c-2.241,3.204-6.627,9.562-15.458,22.494c-1.408,2.063-1.51,4.749-0.263,6.912
		c1.166,2.023,3.319,3.253,5.629,3.253c0.161,0,0.323-0.006,0.484-0.018l20.946-1.56c1.895-0.141,3.632-1.104,4.757-2.634
		c3.663-4.989,21.738-30.476,17.754-42.445c-2.321-6.755-6.937-11.742-13.344-14.421c-3.396-1.423-7.088-2.115-11.283-2.115
		c-14.577,0-32.983,8.845-52.469,18.21c-8.878,4.264-23.124,11.107-31.17,13.338c1.897-4.954,5.953-12.203,8.538-16.823
		c4.604-8.225,9.367-16.73,11.812-25.017c5.29-17.931-2.913-27.559-8.274-31.703c-0.024-0.019-0.129-0.097-0.154-0.116
		c-4.909-3.683-10.354-5.55-16.182-5.55c-16.737,0-33.656,14.883-47.251,26.843c-5.836,5.129-10.341,8.98-13.358,11.101
		c-2.127,1.495-3.158,4.113-2.623,6.657L178.291,345.698z"/>
	<path d="M155.085,217.799h213.199c2.157,0,4.174-1.07,5.383-2.857s1.453-4.057,0.651-6.06l-40.971-102.306
		c-0.641-1.601-1.892-2.88-3.477-3.559s-3.374-0.699-4.975-0.059c0,0-37.679,15.156-50.121,20.073s-16.025-1.75-19.072-8.831
		c-1.999-4.646-19.731-49.267-19.731-49.267c-1.335-3.333-5.117-4.953-8.451-3.618l-114.187,45.73
		c-3.332,1.335-4.952,5.118-3.617,8.451l39.334,98.217C150.039,216.182,152.428,217.799,155.085,217.799z"/>
	<path d="M270.278,92.377c1.018,2.54,3.457,4.085,6.036,4.085c0.805,0,1.622-0.15,2.415-0.468l34.507-13.82
		c2.44-0.978,4.052-3.33,4.083-5.959c0.03-2.629-1.526-5.018-3.944-6.052l-48.318-20.661c-2.418-1.033-5.219-0.509-7.099,1.328
		s-2.469,4.626-1.491,7.066L270.278,92.377z"/>
</g>
</svg>
