<?xml version="1.0" encoding="utf-8"?>
<!-- Generator: Adobe Illustrator 16.0.0, SVG Export Plug-In . SVG Version: 6.00 Build 0)  -->
<!DOCTYPE svg PUBLIC "-//W3C//DTD SVG 1.1//EN" "http://www.w3.org/Graphics/SVG/1.1/DTD/svg11.dtd">
<svg version="1.1" id="Layer_1" xmlns="http://www.w3.org/2000/svg" xmlns:xlink="http://www.w3.org/1999/xlink" x="0px" y="0px"
	 width="512px" height="512px" viewBox="0 0 512 512" enable-background="new 0 0 512 512" xml:space="preserve">
<path d="M441.176,395.491c-1.923-6.558-7.188-11.374-15.647-14.316c-4.767-1.657-10.161-2.696-15.885-3.799
	c-4.628-0.892-9.413-1.813-13.292-3.007c-0.477-0.146-0.917-0.292-1.32-0.431c0.999-1.022,2.034-2.048,2.905-2.91
	c4.104-4.061,8.35-8.261,11.27-13.064c5.421-8.919,4.794-18.37-1.678-25.283c0,0-6.153-6.954-17.971-6.954
	c-3.318,0-6.764,0.591-10.241,1.755c0.101-6.3,0.047-12.383-0.16-18.081c-1.074-29.663-5.978-48.149-15.433-58.178
	c0.024-22.692-9.021-56.099-24.195-89.363c-23.063-50.56-53.469-87.256-72.299-87.256c-1.77,0-3.423,0.345-4.919,1.026
	c-0.185,0.084-0.365,0.177-0.572,0.286l-9.3,4.248c-6.788-2.36-20.356-6.799-34.954-10.01c-11.217-2.468-20.925-3.72-28.854-3.72
	c-13.492,0-22.308,3.459-26.953,10.575c-2.41,3.692-4.77,9.95-2.322,18.786c0.493,1.779,1.177,3.634,2.034,5.511
	c9.438,20.69,52.658,54.961,100.532,79.715c1.051,0.544,2.261,0.696,3.414,0.433c0.963-0.222,1.953-0.333,2.944-0.333
	c5.175,0,9.905,3.039,12.051,7.742c1.469,3.221,1.596,6.819,0.357,10.136c-1.238,3.315-3.693,5.95-6.914,7.419
	c-1.742,0.795-3.59,1.197-5.491,1.198c-5.179,0-9.913-3.044-12.063-7.755c-0.463-1.015-0.794-2.079-0.985-3.163
	c-0.27-1.536-1.24-2.857-2.624-3.574c-38.121-19.751-73.136-44.636-93.667-66.568c-1.468-1.567-3.772-2.023-5.726-1.132
	l-80.227,36.596c-1.999,0.912-3.168,3.021-2.882,5.2c1.469,11.192,8.085,51.709,31.55,103.146
	c23.463,51.437,49.724,82.994,57.214,91.44c1.458,1.645,3.818,2.145,5.816,1.231l167.184-76.263
	c0.206,1.544,0.419,3.117,0.643,4.757c1.438,10.558,3.07,22.524,3.111,32.35c0.028,6.927-0.745,10.775-1.399,12.784l0,0
	c-1.97-0.213-4.409-0.62-6.77-1.015c-4.793-0.799-9.748-1.626-14.512-1.626c-11.599,0-17.069,5.341-19.617,9.821
	c-5.987,10.531-0.034,23.457,5.82,33.542c-3.291,0.917-7.79,1.701-10.776,2.221c-4.479,0.781-9.11,1.589-13.123,2.859
	c-7.511,2.379-12.398,6.464-14.527,12.144c-1.671,4.458-2.248,11.518,4.491,19.838c8.808,10.871,21.499,19.079,37.721,24.398
	c13.406,4.395,29.27,6.718,45.877,6.718c16,0,32.02-2.082,46.328-6.021c10.649-2.933,25.359-8.347,34.965-17.488
	C434.14,418.219,444.851,408.026,441.176,395.491z M318.109,383.586c1.161-2.648,0.595-5.928-1.736-10.03
	c-5.625-9.902-7.554-16.623-5.735-19.975c0.392-0.721,1.583-2.916,7.17-2.916c3.206,0,7.05,0.672,10.776,1.323
	c3.615,0.63,7.028,1.227,9.801,1.227c1.473,0,2.625-0.168,3.521-0.515c0.584-0.226,1.116-0.582,1.559-1.042
	c9.31-9.687,7.154-36.916,4.149-63.981c-1.054-9.492-2-17.064-0.998-18.58c0.235-0.263,0.46-0.376,0.701-0.349
	c8.647,2.772,14.124,18.758,15.837,46.226c0.724,11.607,0.638,22.874,0.438,30.28c-0.046,1.747,0.861,3.367,2.34,4.175
	c1.478,0.809,3.267,0.662,4.607-0.376c3.512-2.721,8.796-5.963,14.036-5.964c2.735,0,5.131,0.837,7.325,2.56l0.002,0.002
	c3.938,4.407,0.54,9.42-8.057,18.331c-5.881,6.096-8.544,9.329-8.772,12.373c-0.052,0.708,0.053,1.421,0.31,2.08
	c2.803,7.205,13.858,9.436,24.549,11.592c8.933,1.803,17.371,3.504,18.673,8.155c0.836,2.989-1.31,6.988-6.561,12.223
	c-10.729,10.696-36.627,18.166-62.979,18.166c-28.879,0-52.202-8.738-63.986-23.974c-1.986-2.568-2.69-4.715-2.095-6.382
	c1.266-3.537,8.118-4.788,15.375-6.113C308.554,390.241,315.937,388.542,318.109,383.586z M297.761,180.913
	c-9.343-20.483-16.378-41.472-19.808-59.101c-1.195-6.131-1.938-11.761-2.206-16.734h0.001c3.582,3.467,7.348,7.719,11.192,12.638
	c11.064,14.147,22.303,33.217,31.646,53.697c9.342,20.48,16.377,41.468,19.808,59.1c1.194,6.127,1.937,11.757,2.206,16.734
	c-3.577-3.459-7.343-7.711-11.193-12.638C318.343,220.464,307.104,201.395,297.761,180.913z M174.24,85.207
	c0.743-1.138,3.611-3.783,14.187-3.783c6.916,0,15.562,1.127,25.698,3.35c5.588,1.225,11.647,2.791,18.007,4.653l-46.042,21.002
	c-5.281-5.665-8.99-10.797-11.022-15.252c-0.538-1.18-0.96-2.318-1.256-3.387C173.037,88.99,173.176,86.836,174.24,85.207z"/>
</svg>
