<?xml version="1.0" encoding="utf-8"?>
<!-- Generator: Adobe Illustrator 16.0.0, SVG Export Plug-In . SVG Version: 6.00 Build 0)  -->
<!DOCTYPE svg PUBLIC "-//W3C//DTD SVG 1.1//EN" "http://www.w3.org/Graphics/SVG/1.1/DTD/svg11.dtd">
<svg version="1.1" id="Layer_1" xmlns="http://www.w3.org/2000/svg" xmlns:xlink="http://www.w3.org/1999/xlink" x="0px" y="0px"
	 width="512px" height="512px" viewBox="0 0 512 512" enable-background="new 0 0 512 512" xml:space="preserve">
<g>
	<path d="M454.188,180.453c-2.825-3.863-7.323-6.146-12.108-6.146H69.921c-4.192,0-8.194,1.755-11.034,4.84
		c-2.841,3.084-4.26,7.217-3.915,11.396l19.009,230c0.643,7.779,7.144,13.765,14.949,13.765h279.968
		c6.532,0,12.313-4.228,14.294-10.452l73.182-230C457.823,189.295,457.013,184.315,454.188,180.453z M112.861,393.314
		L98.148,215.299h82.413l-56.643,178.016H112.861z"/>
	<path d="M312.723,107.515l-44.91-0.002l9.296-23.405c0.723-1.816,0.24-3.891-1.209-5.201c-1.447-1.313-3.559-1.588-5.295-0.689
		l-70.666,36.526c-1.555,0.805-2.532,2.41-2.531,4.161c-0.001,1.751,0.977,3.355,2.532,4.162l70.665,36.525
		c1.736,0.897,3.848,0.623,5.296-0.69c1.448-1.312,1.931-3.386,1.208-5.2l-9.297-23.407h44.911c2.587,0,4.685-2.097,4.685-4.684
		v-13.411c0-1.243-0.494-2.435-1.373-3.313C315.156,108.007,313.966,107.513,312.723,107.515z"/>
</g>
</svg>
