<?xml version="1.0" encoding="utf-8"?>
<!-- Generator: Adobe Illustrator 16.0.0, SVG Export Plug-In . SVG Version: 6.00 Build 0)  -->
<!DOCTYPE svg PUBLIC "-//W3C//DTD SVG 1.1//EN" "http://www.w3.org/Graphics/SVG/1.1/DTD/svg11.dtd">
<svg version="1.1" id="Layer_1" xmlns="http://www.w3.org/2000/svg" xmlns:xlink="http://www.w3.org/1999/xlink" x="0px" y="0px"
	 width="512px" height="512px" viewBox="0 0 512 512" enable-background="new 0 0 512 512" xml:space="preserve">
<path d="M414.949,106.07c-0.063-5.479-4.521-9.888-10-9.888H107.014c-5.523,0-10,4.478-10,10v55c0,5.522,4.477,10,10,10h22.596
	c3.039,0,5.912-1.381,7.809-3.753l16.998-21.247h71.592v259.635c0,5.522,4.477,10,10,10h40c5.521,0,10-4.478,10-10V146.183h71.512
	l17.082,21.263c1.898,2.363,4.766,3.737,7.797,3.737h22.588c2.66,0,5.211-1.061,7.088-2.946s2.926-4.441,2.912-7.102L414.949,106.07
	z"/>
</svg>
