<?xml version="1.0" encoding="utf-8"?>
<!-- Generator: Adobe Illustrator 16.0.0, SVG Export Plug-In . SVG Version: 6.00 Build 0)  -->
<!DOCTYPE svg PUBLIC "-//W3C//DTD SVG 1.1//EN" "http://www.w3.org/Graphics/SVG/1.1/DTD/svg11.dtd">
<svg version="1.1" id="Layer_1" xmlns="http://www.w3.org/2000/svg" xmlns:xlink="http://www.w3.org/1999/xlink" x="0px" y="0px"
	 width="512px" height="512px" viewBox="0 0 512 512" enable-background="new 0 0 512 512" xml:space="preserve">
<path d="M446,56H66c-5.522,0-10,4.477-10,10V446c0,5.523,4.478,10,10,10h380c5.522,0,10-4.477,10-10V66
	C456,60.478,451.522,56,446,56z M109.4,416H96V96h13.4V416z M139.4,416h-10V96h10V416z M189.4,416h-30V96h30V416z M249.4,416h-40V96
	h40V416z M329.4,416h-60V96h60V416z M416,416h-66.6V96H416V416z"/>
</svg>
