<?xml version="1.0" encoding="utf-8"?>
<!-- Generator: Adobe Illustrator 16.0.0, SVG Export Plug-In . SVG Version: 6.00 Build 0)  -->
<!DOCTYPE svg PUBLIC "-//W3C//DTD SVG 1.1//EN" "http://www.w3.org/Graphics/SVG/1.1/DTD/svg11.dtd">
<svg version="1.1" id="Layer_1" xmlns="http://www.w3.org/2000/svg" xmlns:xlink="http://www.w3.org/1999/xlink" x="0px" y="0px"
	 width="512px" height="512px" viewBox="0 0 512 512" enable-background="new 0 0 512 512" xml:space="preserve">
<g>
	<path d="M380.518,137.413C378.452,96.416,324.92,65.5,255.997,65.5c-68.892,0-122.402,30.916-124.468,71.913l-0.054,242.397
		c0,0,10.969,66.689,124.521,66.689s124.521-66.689,124.521-66.689l0.007-242.121L380.518,137.413z M324.742,398.776
		c-18.094,9.702-42.508,15.045-68.745,15.045s-50.651-5.343-68.745-15.044c-14.438-7.743-23.057-17.689-23.057-26.607
		c0-8.919,8.619-18.865,23.057-26.605c18.09-9.702,42.504-15.046,68.745-15.046s50.654,5.344,68.746,15.047
		c14.437,7.739,23.056,17.686,23.056,26.604C347.798,381.088,339.179,391.034,324.742,398.776z M187.252,113.224
		c18.094-9.702,42.508-15.045,68.745-15.045s50.651,5.343,68.745,15.044c14.438,7.743,23.057,17.689,23.057,26.607
		c0,8.919-8.619,18.865-23.057,26.605c-18.09,9.702-42.504,15.046-68.745,15.046s-50.654-5.344-68.746-15.047
		c-14.437-7.739-23.056-17.686-23.056-26.604C164.196,130.912,172.815,120.966,187.252,113.224z M348.589,190.204v131.592
		c-23.217-15.323-56.227-23.956-92.592-23.956s-69.376,8.633-92.593,23.957V190.203c23.217,15.324,56.228,23.957,92.593,23.957
		S325.372,205.527,348.589,190.204z"/>
</g>
</svg>
