<?xml version="1.0" encoding="utf-8"?>
<!-- Generator: Adobe Illustrator 16.0.0, SVG Export Plug-In . SVG Version: 6.00 Build 0)  -->
<!DOCTYPE svg PUBLIC "-//W3C//DTD SVG 1.1//EN" "http://www.w3.org/Graphics/SVG/1.1/DTD/svg11.dtd">
<svg version="1.1" id="Layer_1" xmlns="http://www.w3.org/2000/svg" xmlns:xlink="http://www.w3.org/1999/xlink" x="0px" y="0px"
	 width="512px" height="512px" viewBox="0 0 512 512" enable-background="new 0 0 512 512" xml:space="preserve">
<path d="M449.75,131.703h-25.5c-1.104,0-2,0.896-2,2v2.25h-151.5v-2.25c0-1.104-0.896-2-2-2h-25.5c-1.104,0-2,0.896-2,2v2.25H89.75
	v-2.25c0-1.104-0.896-2-2-2h-25.5c-1.104,0-2,0.896-2,2v25.5c0,1.104,0.896,2,2,2h25.5c1.104,0,2-0.896,2-2v-2.25h110.684
	c-4.089,2.469-8.078,5.185-11.879,8.087c-16.482,12.579-31.898,30.05-45.82,51.928c-19.732,31.008-30.775,61.956-33.857,71.253
	h-3.96c-1.104,0-2,0.896-2,2v16.166c0,1.104,0.896,2,2,2h15.169l22.004,70.507c0.253,0.81,0.989,1.373,1.837,1.403
	c0.024,0.001,0.049,0.001,0.072,0.001c0.819,0,1.56-0.501,1.861-1.268l10.925-27.782l29.579-4.027
	c0.841-0.115,1.518-0.747,1.689-1.578c0.171-0.831-0.2-1.68-0.928-2.117l-64.042-38.551V290.22c0-1.104-0.896-2-2-2h-0.567
	c3.929-11.179,14.422-38.514,31.499-65.348c21.957-34.508,46.822-56.686,73.901-65.92h15.333v2.25c0,1.104,0.896,2,2,2h25.5
	c1.104,0,2-0.896,2-2v-2.25h151.5v2.25c0,1.104,0.896,2,2,2h25.5c1.104,0,2-0.896,2-2v-25.5
	C451.75,132.598,450.854,131.703,449.75,131.703z M109.917,301.386v-6.166h6.167v6.166H109.917z"/>
</svg>
