<?xml version="1.0" encoding="utf-8"?>
<!-- Generator: Adobe Illustrator 16.0.0, SVG Export Plug-In . SVG Version: 6.00 Build 0)  -->
<!DOCTYPE svg PUBLIC "-//W3C//DTD SVG 1.1//EN" "http://www.w3.org/Graphics/SVG/1.1/DTD/svg11.dtd">
<svg version="1.1" id="Layer_1" xmlns="http://www.w3.org/2000/svg" xmlns:xlink="http://www.w3.org/1999/xlink" x="0px" y="0px"
	 width="512px" height="512px" viewBox="0 0 512 512" enable-background="new 0 0 512 512" xml:space="preserve">
<g>
	<path d="M272.191,154.46c-0.162-3.949-2.637-7.432-6.313-8.887L88.29,75.313c-3.709-1.468-7.932-0.591-10.75,2.228
		c-2.818,2.819-3.694,7.043-2.228,10.75l70.26,177.59c1.454,3.676,4.938,6.149,8.887,6.313c0.139,0.006,0.276,0.009,0.414,0.009
		c3.791,0,7.271-2.149,8.962-5.568l34.01-68.79l68.787-34.006C270.176,162.085,272.354,158.41,272.191,154.46z"/>
	<path d="M433.044,318.65l-34.327-23.539c-3.062-2.1-7.032-2.331-10.316-0.601c-3.283,1.729-5.339,5.136-5.339,8.848v7.49h-40.115
		v-40.114h7.491c0.008,0.001,0.014,0.001,0.02,0c5.523,0,10-4.477,10-10c0-2.309-0.781-4.434-2.096-6.126l-23.217-33.857
		c-1.864-2.719-4.95-4.345-8.247-4.345s-6.383,1.626-8.247,4.345l-23.54,34.328c-2.1,3.061-2.33,7.032-0.601,10.316
		c1.73,3.283,5.136,5.339,8.848,5.339h7.491v40.114h-40.114v-7.491c0-3.711-2.056-7.117-5.339-8.848
		c-3.284-1.73-7.256-1.498-10.316,0.601l-34.328,23.54c-2.72,1.865-4.345,4.95-4.345,8.247c0,3.298,1.625,6.383,4.345,8.247
		l34.328,23.54c3.061,2.099,7.031,2.33,10.316,0.601c3.283-1.729,5.339-5.136,5.339-8.848v-7.491h40.114v40.115h-7.491
		c-3.712,0-7.117,2.056-8.848,5.34c-1.729,3.283-1.498,7.255,0.601,10.315l23.54,34.328c1.864,2.719,4.95,4.345,8.247,4.345
		s6.383-1.626,8.247-4.345l23.54-34.328c2.099-3.061,2.33-7.032,0.601-10.315c-1.73-3.284-5.136-5.34-8.848-5.34h-7.491v-40.115
		h40.115v7.491c0,3.711,2.056,7.117,5.339,8.848c3.283,1.729,7.255,1.498,10.316-0.601l34.327-23.54
		c2.72-1.864,4.345-4.949,4.345-8.247C437.389,323.601,435.764,320.516,433.044,318.65z"/>
</g>
</svg>
