<?xml version="1.0" encoding="utf-8"?>
<!-- Generator: Adobe Illustrator 16.0.0, SVG Export Plug-In . SVG Version: 6.00 Build 0)  -->
<!DOCTYPE svg PUBLIC "-//W3C//DTD SVG 1.1//EN" "http://www.w3.org/Graphics/SVG/1.1/DTD/svg11.dtd">
<svg version="1.1" id="Layer_1" xmlns="http://www.w3.org/2000/svg" xmlns:xlink="http://www.w3.org/1999/xlink" x="0px" y="0px"
	 width="512px" height="512px" viewBox="0 0 512 512" enable-background="new 0 0 512 512" xml:space="preserve">
<g>
	<path d="M424.119,118.366h-26.788V91.578c0-5.522-4.478-10-10-10h-6.424c-5.523,0-10,4.478-10,10v26.788h-26.788
		c-5.523,0-10,4.478-10,10v6.424c0,5.522,4.477,10,10,10h26.788v26.788c0,5.522,4.477,10,10,10h6.424c5.522,0,10-4.478,10-10V144.79
		h26.788c5.522,0,10-4.478,10-10v-6.424C434.119,122.844,429.642,118.366,424.119,118.366z"/>
	<path d="M267.484,272.758l74.053-31.949c5.746-2.479,9.348-8.265,9.039-14.515c-0.311-6.25-4.467-11.651-10.43-13.551
		L97.434,135.441c-5.346-1.7-11.193-0.28-15.158,3.687c-3.967,3.966-5.389,9.813-3.688,15.158l77.303,242.713
		c1.898,5.963,7.301,10.12,13.551,10.43c6.25,0.311,12.035-3.294,14.514-9.039l31.949-74.052l101.691,101.69
		c2.813,2.813,6.627,4.394,10.605,4.394s7.795-1.58,10.607-4.394l30.367-30.368c5.857-5.858,5.857-15.355,0-21.213L267.484,272.758z
		"/>
</g>
</svg>
