<?xml version="1.0" encoding="utf-8"?>
<!-- Generator: Adobe Illustrator 16.0.0, SVG Export Plug-In . SVG Version: 6.00 Build 0)  -->
<!DOCTYPE svg PUBLIC "-//W3C//DTD SVG 1.1//EN" "http://www.w3.org/Graphics/SVG/1.1/DTD/svg11.dtd">
<svg version="1.1" id="Layer_1" xmlns="http://www.w3.org/2000/svg" xmlns:xlink="http://www.w3.org/1999/xlink" x="0px" y="0px"
	 width="512px" height="512px" viewBox="0 0 512 512" enable-background="new 0 0 512 512" xml:space="preserve">
<path d="M446,369.955h-37.021V113.021c0-5.523-4.477-10-10-10H142.045V66c0-5.523-4.477-10-10-10h-19.024c-5.523,0-10,4.477-10,10
	v37.021H66c-5.523,0-10,4.477-10,10v19.024c0,5.523,4.477,10,10,10h37.021v256.934c0,5.523,4.477,10,10,10h256.934V446
	c0,5.523,4.477,10,10,10h19.024c5.523,0,10-4.477,10-10v-37.021H446c5.523,0,10-4.477,10-10v-19.024
	C456,374.432,451.523,369.955,446,369.955z M142.045,369.955V142.045h227.909v227.909H142.045z"/>
</svg>
