<?xml version="1.0" encoding="utf-8"?>
<!-- Generator: Adobe Illustrator 16.0.0, SVG Export Plug-In . SVG Version: 6.00 Build 0)  -->
<!DOCTYPE svg PUBLIC "-//W3C//DTD SVG 1.1//EN" "http://www.w3.org/Graphics/SVG/1.1/DTD/svg11.dtd">
<svg version="1.1" id="Layer_1" xmlns="http://www.w3.org/2000/svg" xmlns:xlink="http://www.w3.org/1999/xlink" x="0px" y="0px"
	 width="512px" height="512px" viewBox="0 0 512 512" enable-background="new 0 0 512 512" xml:space="preserve">
<g>
	<path d="M436,101.025H76c-5.522,0-10,4.477-10,10v289.949c0,5.523,4.478,10,10,10h360c5.522,0,10-4.477,10-10V111.025
		C446,105.502,441.522,101.025,436,101.025z M408.285,373.26h-304.57V138.74h304.57V373.26z"/>
	<path d="M141.555,349.302h228.891c5.121,0,9.272-4.151,9.272-9.272v-53.156c0-2.42-0.945-4.743-2.637-6.475l-25.474-26.114
		c-3.473-3.559-9.131-3.745-12.83-0.425l-48.028,43.106l-82.928-75.259c-3.35-3.038-8.398-3.219-11.955-0.428
		c-11.679,9.165-37.859,29.708-60.033,47.094c-2.241,1.758-3.551,4.448-3.551,7.297v64.358
		C132.282,345.15,136.434,349.302,141.555,349.302z"/>
	<path d="M293.602,263.821c11.483,0,20.826-9.342,20.826-20.824c0-11.483-9.343-20.825-20.826-20.825
		c-11.482,0-20.824,9.342-20.824,20.825C272.777,254.479,282.119,263.821,293.602,263.821z"/>
</g>
</svg>
