<?xml version="1.0" encoding="utf-8"?>
<!-- Generator: Adobe Illustrator 16.0.0, SVG Export Plug-In . SVG Version: 6.00 Build 0)  -->
<!DOCTYPE svg PUBLIC "-//W3C//DTD SVG 1.1//EN" "http://www.w3.org/Graphics/SVG/1.1/DTD/svg11.dtd">
<svg version="1.1" id="Layer_1" xmlns="http://www.w3.org/2000/svg" xmlns:xlink="http://www.w3.org/1999/xlink" x="0px" y="0px"
	 width="512px" height="512px" viewBox="0 0 512 512" enable-background="new 0 0 512 512" xml:space="preserve">
<g>
	<path d="M448.527,50.974h-327.53c-6.903,0-12.5,5.597-12.5,12.5V302.45H63.473c-6.903,0-12.5,5.597-12.5,12.5v133.576
		c0,6.903,5.597,12.5,12.5,12.5h133.576c6.903,0,12.5-5.597,12.5-12.5v-45.023h238.978c6.903,0,12.5-5.597,12.5-12.5V63.474
		C461.027,56.57,455.43,50.974,448.527,50.974z M143.497,368.503V337.45h31.053v31.053H143.497z M120.997,403.503h53.553v22.523
		H85.973V337.45h22.523v53.553C108.497,397.906,114.093,403.503,120.997,403.503z M197.049,302.45h-53.553V85.974h282.53v282.529
		H209.549V314.95C209.549,308.047,203.953,302.45,197.049,302.45z"/>
	<path d="M335.289,184.689c0.739,0.74,1.742,1.154,2.787,1.154c1.045,0,2.048-0.414,2.787-1.154l26.718-26.717l8.394,19.455
		c0.652,1.51,2.172,2.457,3.813,2.375c1.643-0.081,3.062-1.174,3.561-2.74l20.311-63.77c0.447-1.404,0.073-2.94-0.97-3.982
		c-1.041-1.042-2.577-1.415-3.982-0.969l-63.769,20.311c-1.567,0.499-2.659,1.918-2.74,3.561c-0.081,1.642,0.865,3.162,2.375,3.813
		l19.456,8.395l-26.718,26.718c-1.539,1.539-1.539,4.034,0,5.573L335.289,184.689z"/>
</g>
</svg>
