<?xml version="1.0" encoding="utf-8"?>
<!-- Generator: Adobe Illustrator 16.0.0, SVG Export Plug-In . SVG Version: 6.00 Build 0)  -->
<!DOCTYPE svg PUBLIC "-//W3C//DTD SVG 1.1//EN" "http://www.w3.org/Graphics/SVG/1.1/DTD/svg11.dtd">
<svg version="1.1" id="Layer_1" xmlns="http://www.w3.org/2000/svg" xmlns:xlink="http://www.w3.org/1999/xlink" x="0px" y="0px"
	 width="512px" height="512px" viewBox="0 0 512 512" enable-background="new 0 0 512 512" xml:space="preserve">
<path d="M449.588,211.104c-1.765-5.43-6.458-9.389-12.108-10.209l-116.105-16.871L269.451,78.816
	c-2.527-5.121-7.742-8.361-13.451-8.361c-5.71,0-10.925,3.24-13.451,8.361l-51.923,105.207L74.521,200.895
	c-5.65,0.82-10.344,4.779-12.108,10.209c-1.765,5.43-0.293,11.391,3.795,15.377l84.014,81.893L130.389,424.01
	c-0.966,5.627,1.348,11.314,5.967,14.672c4.619,3.355,10.745,3.797,15.797,1.141L256,385.227l103.847,54.596
	c2.195,1.154,4.591,1.723,6.978,1.723c3.11,0,6.206-0.965,8.819-2.863c4.619-3.357,6.933-9.045,5.967-14.672l-19.833-115.637
	l84.014-81.893C449.881,222.494,451.353,216.533,449.588,211.104z"/>
</svg>
