<?xml version="1.0" encoding="utf-8"?>
<!-- Generator: Adobe Illustrator 16.0.0, SVG Export Plug-In . SVG Version: 6.00 Build 0)  -->
<!DOCTYPE svg PUBLIC "-//W3C//DTD SVG 1.1//EN" "http://www.w3.org/Graphics/SVG/1.1/DTD/svg11.dtd">
<svg version="1.1" id="Layer_1" xmlns="http://www.w3.org/2000/svg" xmlns:xlink="http://www.w3.org/1999/xlink" x="0px" y="0px"
	 width="512px" height="512px" viewBox="0 0 512 512" enable-background="new 0 0 512 512" xml:space="preserve">
<g>
	<path d="M331.46,230.791l-62.194-37.439c-0.889-0.535-2.017-0.466-2.833,0.176c-0.816,0.641-1.151,1.72-0.843,2.711l21.627,69.298
		c0.316,1.013,1.236,1.715,2.297,1.754c0.03,0.001,0.061,0.001,0.091,0.001c1.023,0,1.948-0.626,2.325-1.585l10.407-26.46
		l28.171-3.836c1.051-0.143,1.897-0.934,2.111-1.972C332.834,232.399,332.369,231.338,331.46,230.791z"/>
	<path d="M422.583,331.483h-2.14c-1.547-62.941-39.449-119.908-96.881-145.883h56.506v1.75c0,1.381,1.119,2.5,2.5,2.5h24.5
		c1.381,0,2.5-1.119,2.5-2.5v-24.5c0-1.381-1.119-2.5-2.5-2.5h-24.5c-1.381,0-2.5,1.119-2.5,2.5v1.75H270.75v-2.25
		c0-1.104-0.896-2-2-2h-25.5c-1.104,0-2,0.896-2,2v2.25H131.932v-1.75c0-1.381-1.119-2.5-2.5-2.5h-24.5c-1.381,0-2.5,1.119-2.5,2.5
		v24.5c0,1.381,1.119,2.5,2.5,2.5h24.5c1.381,0,2.5-1.119,2.5-2.5v-1.75h56.506c-57.432,25.975-95.334,82.943-96.881,145.883h-2.14
		c-1.381,0-2.5,1.119-2.5,2.5v15.166c0,1.381,1.119,2.5,2.5,2.5h15.166c1.381,0,2.5-1.119,2.5-2.5v-15.166
		c0-1.381-1.119-2.5-2.5-2.5h-2.025c0.903-34.288,13.51-67.681,35.529-94.081c21.822-26.165,52.028-44.553,85.063-51.785
		l18.101-0.004v2.237c0,1.104,0.896,2,2,2h25.5c1.104,0,2-0.896,2-2v-2.245l18.229,0.04c32.984,7.251,63.14,25.625,84.934,51.756
		c22.02,26.4,34.626,59.792,35.529,94.081h-2.025c-1.381,0-2.5,1.119-2.5,2.5v15.166c0,1.381,1.119,2.5,2.5,2.5h15.166
		c1.381,0,2.5-1.119,2.5-2.5v-15.166C425.083,332.603,423.964,331.483,422.583,331.483z M100.083,344.649h-6.166v-6.166h6.166
		V344.649z M418.083,344.649h-6.166v-6.166h6.166V344.649z"/>
</g>
</svg>
