<?xml version="1.0" encoding="utf-8"?>
<!-- Generator: Adobe Illustrator 16.0.0, SVG Export Plug-In . SVG Version: 6.00 Build 0)  -->
<!DOCTYPE svg PUBLIC "-//W3C//DTD SVG 1.1//EN" "http://www.w3.org/Graphics/SVG/1.1/DTD/svg11.dtd">
<svg version="1.1" id="Layer_1" xmlns="http://www.w3.org/2000/svg" xmlns:xlink="http://www.w3.org/1999/xlink" x="0px" y="0px"
	 width="512px" height="512px" viewBox="0 0 512 512" enable-background="new 0 0 512 512" xml:space="preserve">
<path d="M463.264,91.836c-0.808-2.045-2.67-3.484-4.853-3.751c-2.177-0.266-4.335,0.682-5.612,2.472
	c-7.581,10.629-17.529,14.172-29.053,18.275c-9.292,3.31-18.901,6.73-29.286,14.186c-14.687,10.544-21.405,24.917-18.055,38.54
	l-0.358,0.459c-6.133-8.897-12.806-17.126-19.848-24.474c-32.947-34.378-78.984-55.046-126.31-56.703
	c-2.085-0.073-4.204-0.11-6.298-0.11c-52.846,0-103.428,23.624-138.775,64.813c-35.163,40.976-50.748,94.317-42.758,146.346
	c0.668,4.349,1.504,8.744,2.487,13.063c12.996,57.203,46.189,100.717,91.069,119.383c11.063,4.602,22.222,6.935,33.163,6.935
	c27.183,0,50.926-14.539,65.143-39.89c5.404-9.645,8.891-19.62,10.36-29.651c0.866-5.92,0.274-11.835-0.3-17.567
	c-0.591-5.901-1.149-11.476-0.256-17.09c2.047-12.869,11.036-20.553,24.047-20.553c3.701,0,7.483,0.609,11.259,1.813
	c-4.421,8.11-8.438,15.854-11.947,23.032c-7.436,15.212-12.567,27.81-15.252,37.44c-1.655,5.94-6.052,21.722,4.67,29.164
	c3.405,2.364,7.722,3.197,12.215,2.361c4.049-0.752,16.369-3.04,51.378-42.896c9.396-10.695,19.521-23.072,30.103-36.794
	c27.168-9.15,48.31-31.921,53.904-58.087c1.4-6.54,1.984-13.54,1.735-20.812c10.172-15.72,19.094-30.388,28.072-46.156
	c0.172-0.304,0.342-0.628,0.51-0.96c13.031-3.569,24.254-13.71,30.842-27.891C474.879,146.035,474.17,119.435,463.264,91.836z
	 M316.392,189.841c-4.713,7.485-12.815,11.954-21.673,11.954c-4.81,0-9.515-1.361-13.605-3.937
	c-5.783-3.642-9.803-9.317-11.317-15.98s-0.345-13.518,3.298-19.301c4.714-7.485,12.816-11.954,21.675-11.954
	c4.81,0,9.514,1.361,13.604,3.938c5.782,3.64,9.802,9.315,11.316,15.979C321.204,177.204,320.033,184.058,316.392,189.841z
	 M349.599,236.194c12.933-19.057,26.612-38,39.604-54.85c2.107,1.902,4.461,3.76,7.012,5.53c4.226,2.933,8.648,5.201,13.164,6.754
	c-10.969,18.758-22.763,37.342-37.043,58.375c-23.463,34.57-47.859,66.684-68.695,90.424c-11.638,13.26-21.823,23.498-29.671,29.839
	c3.029-9.69,8.818-22.989,16.875-38.746C305.252,305.343,326.118,270.779,349.599,236.194z M122.513,236.03
	c-4.811,0-9.516-1.361-13.607-3.938c-5.782-3.641-9.801-9.314-11.315-15.979c-1.514-6.664-0.342-13.519,3.301-19.302
	c4.711-7.484,12.813-11.953,21.671-11.953c4.812,0,9.517,1.361,13.607,3.938c11.936,7.518,15.532,23.345,8.019,35.279
	C139.473,231.561,131.37,236.03,122.513,236.03z M95.696,292.364c4.713-7.485,12.814-11.954,21.673-11.954
	c4.81,0,9.514,1.362,13.606,3.938c5.782,3.641,9.801,9.315,11.315,15.98c1.515,6.662,0.343,13.516-3.301,19.3
	c-4.711,7.484-12.813,11.953-21.671,11.953c-4.811,0-9.517-1.361-13.609-3.938c-5.782-3.642-9.8-9.316-11.313-15.979
	C90.884,305.001,92.056,298.147,95.696,292.364z M177.627,140.421c4.713-7.485,12.815-11.954,21.673-11.954
	c4.809,0,9.514,1.361,13.604,3.937c11.937,7.516,15.533,23.344,8.019,35.28c-4.715,7.486-12.817,11.955-21.675,11.955
	c-4.81,0-9.515-1.361-13.605-3.938c-5.781-3.64-9.799-9.314-11.313-15.979C172.814,153.059,173.986,146.205,177.627,140.421z"/>
</svg>
