<?xml version="1.0" encoding="utf-8"?>
<!-- Generator: Adobe Illustrator 16.0.0, SVG Export Plug-In . SVG Version: 6.00 Build 0)  -->
<!DOCTYPE svg PUBLIC "-//W3C//DTD SVG 1.1//EN" "http://www.w3.org/Graphics/SVG/1.1/DTD/svg11.dtd">
<svg version="1.1" id="Layer_1" xmlns="http://www.w3.org/2000/svg" xmlns:xlink="http://www.w3.org/1999/xlink" x="0px" y="0px"
	 width="512px" height="512px" viewBox="0 0 512 512" enable-background="new 0 0 512 512" xml:space="preserve">
<path d="M450.379,284.147l-21.072-21.071l5.657-5.657c1.875-1.875,2.929-4.419,2.929-7.071c0-2.651-1.054-5.195-2.929-7.071
	L261.016,69.328c-3.905-3.904-10.238-3.904-14.142,0l-32.527,32.527c-3.905,3.905-3.905,10.237,0,14.143l173.948,173.948
	c1.875,1.875,4.419,2.929,7.071,2.929s5.196-1.054,7.071-2.929l5.656-5.656l6.929,6.929l-37.759,37.759l-104.51-104.51
	c-3.904-3.904-10.236-3.903-14.142,0l-65.471,65.471l-3.535-3.536c-3.906-3.904-10.237-3.904-14.143,0L61.621,400.245
	c-1.875,1.875-2.929,4.419-2.929,7.071s1.054,5.195,2.929,7.071l28.285,28.283c1.953,1.953,4.512,2.929,7.071,2.929
	s5.119-0.977,7.071-2.929L217.891,328.83c1.875-1.876,2.929-4.419,2.929-7.071s-1.054-5.196-2.929-7.071l-3.537-3.536l51.329-51.328
	l104.51,104.511c1.875,1.875,4.419,2.929,7.071,2.929s5.196-1.054,7.071-2.929l66.043-66.044
	C454.284,294.385,454.284,288.053,450.379,284.147z"/>
</svg>
