<?xml version="1.0" encoding="utf-8"?>
<!-- Generator: Adobe Illustrator 16.0.0, SVG Export Plug-In . SVG Version: 6.00 Build 0)  -->
<!DOCTYPE svg PUBLIC "-//W3C//DTD SVG 1.1//EN" "http://www.w3.org/Graphics/SVG/1.1/DTD/svg11.dtd">
<svg version="1.1" id="Layer_1" xmlns="http://www.w3.org/2000/svg" xmlns:xlink="http://www.w3.org/1999/xlink" x="0px" y="0px"
	 width="512px" height="512px" viewBox="0 0 512 512" enable-background="new 0 0 512 512" xml:space="preserve">
<g>
	<path d="M368.712,148.549c-2.609-3.01-5.323-5.922-8.139-8.738c-33.06-33.063-78.501-55.224-126.213-47.142
		c-37.348,6.327-60.382,34.548-58.499,71.529c0.479,9.381,2.465,18.711,6.272,27.318c4.313,9.748,13,16.633,17.102,26.218
		c8.732,20.415-9.968,33.76-28.095,33.76c-47.276-2.599-78.503,51.444-63.374,92.725c13.696,37.372,59.732,62.813,96.103,71.895
		c41.408,10.339,86.191,4.129,123.101-17.346C414.772,347.678,435.32,225.368,368.712,148.549z M232.001,381.887
		c-13.254,0-23.999-10.745-23.999-23.999c0-13.254,10.745-23.999,23.999-23.999c13.254,0,23.999,10.745,23.999,23.999
		C256,371.143,245.255,381.887,232.001,381.887z M281.096,173.398c0-13.254,10.745-23.999,23.999-23.999
		c13.254,0,23.999,10.745,23.999,23.999c0,13.254-10.745,23.999-23.999,23.999C291.84,197.396,281.096,186.652,281.096,173.398z
		 M315.594,352.888c-13.254,0-23.999-10.745-23.999-23.999c0-13.254,10.745-23.999,23.999-23.999
		c13.254,0,23.999,10.745,23.999,23.999C339.592,342.144,328.848,352.888,315.594,352.888z M347.092,272.893
		c-13.254,0-23.999-10.745-23.999-23.999c0-13.254,10.745-23.999,23.999-23.999c13.254,0,23.999,10.745,23.999,23.999
		C371.091,262.148,360.346,272.893,347.092,272.893z"/>
</g>
</svg>
