<?xml version="1.0" encoding="utf-8"?>
<!-- Generator: Adobe Illustrator 16.0.0, SVG Export Plug-In . SVG Version: 6.00 Build 0)  -->
<!DOCTYPE svg PUBLIC "-//W3C//DTD SVG 1.1//EN" "http://www.w3.org/Graphics/SVG/1.1/DTD/svg11.dtd">
<svg version="1.1" id="Layer_1" xmlns="http://www.w3.org/2000/svg" xmlns:xlink="http://www.w3.org/1999/xlink" x="0px" y="0px"
	 width="512px" height="512px" viewBox="0 0 512 512" enable-background="new 0 0 512 512" xml:space="preserve">
<g>
	<rect x="61" y="151.086" width="113.049" height="81.553"/>
	<path d="M174.049,62.991c0-6.939-5.646-12.583-12.584-12.583H73.583C66.646,50.408,61,56.052,61,62.991v63.99h113.049V62.991z"/>
	<path d="M174.049,426.394v-63.993H61v63.993c0,6.937,5.646,12.581,12.583,12.581h87.882
		C168.403,438.975,174.049,433.331,174.049,426.394z M117.524,389.089c6.396,0,11.598,5.203,11.598,11.599
		s-5.202,11.599-11.598,11.599c-6.396,0-11.601-5.203-11.601-11.599S111.128,389.089,117.524,389.089z"/>
	<rect x="61" y="256.744" width="113.049" height="81.553"/>
	<polygon points="297.952,200.62 204.424,148.112 188.407,176.64 188.407,227.908 260.053,268.13 	"/>
	<path d="M338.773,127.907c1.57-2.795,1.956-6.034,1.091-9.118c-0.866-3.085-2.884-5.649-5.68-7.219l-72.604-40.76
		c-1.792-1.007-3.821-1.54-5.865-1.54c-4.336,0-8.348,2.349-10.471,6.129l-29.716,52.932l93.527,52.509L338.773,127.907z"/>
	<polygon points="188.407,368.727 188.407,395.741 199.94,375.2 	"/>
	<polygon points="248.945,287.91 188.407,253.923 188.407,342.711 211.044,355.419 	"/>
	<polygon points="314.36,212.073 300.198,223.428 268.911,279.156 321.039,344.187 381.447,295.764 315.271,213.211 	"/>
	<path d="M448.368,226.741l-52.074-64.966c-2.288-2.857-5.704-4.496-9.368-4.496c-2.713,0-5.378,0.937-7.501,2.638l-47.363,37.967
		l67.085,83.69l47.366-37.967C451.674,239.469,452.506,231.902,448.368,226.741z"/>
	<path d="M191.735,416.623v9.771c0,11.633-9.466,21.097-21.103,21.097h-17.335l7.7,9.605c2.29,2.857,5.705,4.496,9.368,4.496
		c2.715,0,5.377-0.937,7.499-2.637l47.365-37.97l-21.14-26.373L191.735,416.623z"/>
	<polygon points="216.065,373.283 242.93,406.797 303.338,358.375 256.937,300.486 	"/>
</g>
</svg>
