<?xml version="1.0" encoding="utf-8"?>
<!-- Generator: Adobe Illustrator 16.0.0, SVG Export Plug-In . SVG Version: 6.00 Build 0)  -->
<!DOCTYPE svg PUBLIC "-//W3C//DTD SVG 1.1//EN" "http://www.w3.org/Graphics/SVG/1.1/DTD/svg11.dtd">
<svg version="1.1" id="Layer_1" xmlns="http://www.w3.org/2000/svg" xmlns:xlink="http://www.w3.org/1999/xlink" x="0px" y="0px"
	 width="512px" height="512px" viewBox="0 0 512 512" enable-background="new 0 0 512 512" xml:space="preserve">
<g>
	<path d="M464.654,407.506c-14.697-21.898-37.03-48.196-62.885-74.049c-14.205-14.205-29.115-27.855-43.116-39.477
		c-1.621-1.345-3.793-1.821-5.827-1.278c-2.035,0.543-3.681,2.038-4.415,4.012c-2.19,5.881-5.758,11.319-10.603,16.163
		c-3.981,3.982-8.115,7.116-12.286,9.314c-1.737,0.916-2.967,2.568-3.347,4.495c-0.379,1.927,0.133,3.922,1.394,5.428
		c11.278,13.473,24.45,27.808,38.093,41.456c47.014,47.012,92.693,79.846,111.086,79.847c2.825,0,5.035-0.777,6.566-2.309
		C486.537,443.883,475.33,423.41,464.654,407.506z"/>
	<path d="M274.25,273.401c1.158,7.334,2.471,15.647,6.731,24.82c5.792,12.473,15.584,19.92,26.192,19.921h0.001
		c8.016,0,16.087-4.007,23.991-11.91c11.2-11.201,14.573-25.885,9.023-39.28c-7.363-17.779-28.377-29.267-53.533-29.267
		c-5.537,0-11.322,0.533-17.195,1.585c-2.299,0.412-4.201,2.026-4.98,4.229c-0.781,2.202-0.318,4.654,1.21,6.421
		C271.623,256.781,272.84,264.481,274.25,273.401z"/>
	<path d="M442.59,58.584H36.893c-3.59,0-6.5,2.91-6.5,6.5v275.467c0,3.59,2.91,6.5,6.5,6.5h278.209l-13.289-17.07
		c-26.898,0-34.912-25.93-37.26-25.93H73.393V101.584H406.09v202.467h-15.26l41.413,43h10.347c3.59,0,6.5-2.91,6.5-6.5V65.084
		C449.09,61.494,446.18,58.584,442.59,58.584z"/>
	<path d="M255.048,229.813c1.22,1.138,2.81,1.747,4.434,1.747c0.603,0,1.209-0.083,1.802-0.255
		c4.097-1.183,10.135-2.898,15.639-4.357c1.336-0.354,2.523-1.125,3.392-2.199c1.517-1.878,3.296-3.852,4.597-5.294
		c6.48-7.193,15.355-17.043,11.449-28.758c-2.013-5.867-6.021-10.201-11.594-12.533c-2.948-1.234-6.148-1.833-9.784-1.833
		c-12.584,0-28.438,7.618-45.223,15.683c-7.487,3.597-19.419,9.329-26.381,11.35c1.646-4.16,4.895-9.963,7.181-14.05
		c3.969-7.087,8.073-14.416,10.182-21.566c4.594-15.575-2.562-23.934-7.277-27.562c-0.007-0.005-0.085-0.064-0.092-0.07
		c-4.23-3.173-8.941-4.782-14.001-4.782c-14.476,0-29.065,12.832-40.788,23.143c-4.802,4.224-8.536,7.423-11.153,9.306
		c-2.089,1.503-3.095,4.097-2.564,6.615l2.626,12.475c0.42,1.995,1.751,3.677,3.594,4.543c1.847,0.868,3.991,0.819,5.794-0.13
		c5.621-2.958,11.457-8.093,18.22-14.042c5.539-4.872,11.268-9.91,16.521-13.344c2.215-1.448,3.874-2.295,5.068-2.79
		c-1.496,4.48-5.568,11.75-7.94,15.988c-4.03,7.202-8.198,14.65-10.159,21.787c-4.619,16.809,5.146,24.699,9.522,27.288
		c3.231,1.943,6.864,2.887,11.105,2.887c11.163,0,25.158-6.724,41.364-14.51c8.074-3.879,16.424-7.89,23.457-10.479
		c0.545-0.201,1.078-0.391,1.6-0.571c-4.958,5.514-10.811,12.282-12.511,20.197C252.646,225.931,253.376,228.254,255.048,229.813z"
		/>
</g>
</svg>
