<?xml version="1.0" encoding="utf-8"?>
<!-- Generator: Adobe Illustrator 16.0.0, SVG Export Plug-In . SVG Version: 6.00 Build 0)  -->
<!DOCTYPE svg PUBLIC "-//W3C//DTD SVG 1.1//EN" "http://www.w3.org/Graphics/SVG/1.1/DTD/svg11.dtd">
<svg version="1.1" id="Layer_1" xmlns="http://www.w3.org/2000/svg" xmlns:xlink="http://www.w3.org/1999/xlink" x="0px" y="0px"
	 width="512px" height="512px" viewBox="0 0 512 512" enable-background="new 0 0 512 512" xml:space="preserve">
<g>
	<path d="M415.244,362.008H388.48v-26.764c0-2.761-2.238-5-5-5h-16.473c-2.762,0-5,2.239-5,5v26.764h-26.764c-2.762,0-5,2.239-5,5
		v16.472c0,2.761,2.238,5,5,5h26.764v26.764c0,2.761,2.238,5,5,5h16.473c2.762,0,5-2.239,5-5V388.48h26.764c2.762,0,5-2.239,5-5
		v-16.472C420.244,364.247,418.006,362.008,415.244,362.008z"/>
	<path d="M361.477,233.487l-82.965-82.965c-2.746-2.745-7.162-2.862-10.045-0.268c-14.863,13.354-93,81.184-171.943,105.162
		l-0.855,0.259c-2.051,0.623-3.727,2.114-4.582,4.082c-0.854,1.968-0.801,4.209,0.146,6.132l0.395,0.8
		c0.004,0.01,0.008,0.018,0.014,0.027c0.271,0.564,11.654,24.328,13.133,57.81c0.916,20.821-2.1,40.833-8.945,59.519
		c-2.443,0.191-4.834,1.215-6.703,3.084c-4.168,4.167-4.166,10.921,0,15.087c4.166,4.166,10.92,4.167,15.086,0
		c2.408-2.409,3.416-5.682,3.039-8.821l76.486-76.489c1.908-1.907,2.609-4.709,1.824-7.289c-2.703-8.89-0.291-18.508,6.299-25.097
		c4.756-4.757,11.078-7.377,17.809-7.377c6.73,0,13.057,2.62,17.813,7.377c4.758,4.757,7.375,11.081,7.375,17.808
		s-2.617,13.051-7.377,17.809c-4.754,4.754-11.074,7.372-17.799,7.373c-2.494,0-4.953-0.362-7.309-1.076
		c-2.582-0.782-5.379-0.079-7.283,1.825l-76.48,76.489c-3.141-0.378-6.416,0.628-8.826,3.038c-4.166,4.166-4.164,10.921,0,15.087
		c4.166,4.166,10.922,4.167,15.088,0c1.869-1.869,2.891-4.258,3.084-6.702c16.48-6.036,34.014-9.106,52.15-9.106
		c2.277,0,4.605,0.049,6.922,0.145c33.588,1.385,58.088,13.064,58.316,13.173l0.775,0.382c1.014,0.498,2.117,0.749,3.221,0.748
		c0.99,0.001,1.98-0.201,2.91-0.603c1.963-0.855,3.457-2.529,4.08-4.579l0.258-0.854c23.979-78.944,91.807-157.083,105.16-171.945
		C364.34,240.646,364.223,236.234,361.477,233.487z"/>
	<path d="M423.859,172.974l-84.838-84.835c-1.369-1.37-3.227-2.139-5.164-2.138c-1.936-0.001-3.795,0.768-5.164,2.137
		l-36.295,36.299c-2.854,2.853-2.854,7.477,0,10.329l84.84,84.834c1.369,1.371,3.225,2.14,5.164,2.14c1.936,0,3.793-0.77,5.162-2.14
		l36.297-36.297C426.713,180.451,426.713,175.827,423.859,172.974z"/>
</g>
</svg>
