<?xml version="1.0" encoding="utf-8"?>
<!-- Generator: Adobe Illustrator 16.0.0, SVG Export Plug-In . SVG Version: 6.00 Build 0)  -->
<!DOCTYPE svg PUBLIC "-//W3C//DTD SVG 1.1//EN" "http://www.w3.org/Graphics/SVG/1.1/DTD/svg11.dtd">
<svg version="1.1" id="Layer_1" xmlns="http://www.w3.org/2000/svg" xmlns:xlink="http://www.w3.org/1999/xlink" x="0px" y="0px"
	 width="512px" height="512px" viewBox="0 0 512 512" enable-background="new 0 0 512 512" xml:space="preserve">
<path d="M421.914,302.721l-62.016-37.333c0.09-0.258,0.143-0.533,0.143-0.82v-15.284c0-1.381-1.119-2.5-2.5-2.5h-15.166
	c-1.381,0-2.5,1.119-2.5,2.5v2.083h-67.863c2.943-2.354,5.736-4.938,8.314-7.695c34.682-37.088,35.498-106.614,34.859-127.922h1.838
	c1.381,0,2.5-1.119,2.5-2.5v-24.5c0-1.381-1.119-2.5-2.5-2.5h-24.5c-1.381,0-2.5,1.119-2.5,2.5v24.5c0,1.381,1.119,2.5,2.5,2.5
	h1.637c0.584,19.382,0.033,82.347-29.172,113.578c-10.723,11.465-23.98,17.039-40.529,17.039c-10.131,0-19.678,1.682-28.381,5
	h-87.037v-2.083c0-1.381-1.119-2.5-2.5-2.5H91.375c-1.381,0-2.5,1.119-2.5,2.5v15.166c0,1.381,1.119,2.5,2.5,2.5h15.166
	c1.381,0,2.5-1.119,2.5-2.5v-2.083h67.863c-2.939,2.35-5.73,4.934-8.313,7.695c-34.102,36.466-35.381,105.137-34.906,126.188h-1.791
	c-1.381,0-2.5,1.119-2.5,2.5v24.5c0,1.381,1.119,2.5,2.5,2.5h24.5c1.381,0,2.5-1.119,2.5-2.5v-24.5c0-1.381-1.119-2.5-2.5-2.5
	h-1.682c-0.426-19.134,0.578-81.219,29.217-111.844c10.721-11.465,23.979-17.039,40.529-17.039c10.131,0,19.678-1.682,28.379-5
	h87.037v2.083c0,1.381,1.119,2.5,2.5,2.5h13.607c-0.076,0.397-0.063,0.815,0.063,1.219l21.627,69.296
	c0.316,1.013,1.236,1.715,2.297,1.754c0.031,0.001,0.061,0.001,0.092,0.001c1.023,0,1.947-0.626,2.324-1.585l10.406-26.46
	l28.172-3.836c1.051-0.143,1.896-0.934,2.111-1.972C423.289,304.329,422.824,303.268,421.914,302.721z M95.875,259.95v-6.166h6.166
	v6.166H95.875z M353.041,253.784v6.166h-6.166v-6.166H353.041z"/>
</svg>
