<?xml version="1.0" encoding="utf-8"?>
<!-- Generator: Adobe Illustrator 16.0.0, SVG Export Plug-In . SVG Version: 6.00 Build 0)  -->
<!DOCTYPE svg PUBLIC "-//W3C//DTD SVG 1.1//EN" "http://www.w3.org/Graphics/SVG/1.1/DTD/svg11.dtd">
<svg version="1.1" id="Layer_1" xmlns="http://www.w3.org/2000/svg" xmlns:xlink="http://www.w3.org/1999/xlink" x="0px" y="0px"
	 width="512px" height="512px" viewBox="0 0 512 512" enable-background="new 0 0 512 512" xml:space="preserve">
<path d="M396.006,115.993C358.608,78.596,308.886,58,256,58s-102.608,20.596-140.007,57.994C78.596,153.392,58,203.114,58,256
	s20.596,102.608,57.994,140.007C153.392,433.404,203.114,454,256,454s102.608-20.596,140.007-57.994
	C433.404,358.607,454,308.886,454,256S433.404,153.393,396.006,115.993z M421.999,256c0,2.333-0.052,4.705-0.155,7.09
	l-132.851-76.701l83.702-48.328C404.509,169.519,421.999,211.311,421.999,256z M299.788,319.379v96.756
	c-14.227,3.892-28.946,5.864-43.788,5.864c-31.724,0-62.397-8.956-89.02-25.944L299.788,319.379z M255.999,205.437l43.789,25.283
	v50.562L256,306.563l-43.788-25.281V230.72L255.999,205.437z M256,90.001c31.722,0,62.396,8.956,89.02,25.944l-132.808,76.674
	V95.865C226.438,91.973,241.157,90.001,256,90.001z M179.218,108.854v153.379L95.43,213.857
	C107.319,168.557,137.635,130.614,179.218,108.854z M223.007,325.611l-83.701,48.328C107.491,342.479,90.001,300.688,90.001,256
	c0-2.324,0.052-4.695,0.156-7.088L223.007,325.611z M332.783,403.146V249.767l83.787,48.376
	C404.681,343.444,374.366,381.387,332.783,403.146z"/>
</svg>
