<?xml version="1.0" encoding="utf-8"?>
<!-- Generator: Adobe Illustrator 16.0.0, SVG Export Plug-In . SVG Version: 6.00 Build 0)  -->
<!DOCTYPE svg PUBLIC "-//W3C//DTD SVG 1.1//EN" "http://www.w3.org/Graphics/SVG/1.1/DTD/svg11.dtd">
<svg version="1.1" id="Layer_1" xmlns="http://www.w3.org/2000/svg" xmlns:xlink="http://www.w3.org/1999/xlink" x="0px" y="0px"
	 width="512px" height="512px" viewBox="0 0 512 512" enable-background="new 0 0 512 512" xml:space="preserve">
<g>
	<path d="M480.904,125V97.191c0-5.522-4.478-10-10-10h-27.809c-5.152,0-9.396,3.896-9.94,8.904H78.845
		c-0.546-5.008-4.788-8.904-9.94-8.904H41.096c-5.522,0-10,4.478-10,10V125c0,5.152,3.896,9.396,8.904,9.94V377.06
		c-5.008,0.545-8.904,4.788-8.904,9.94v27.809c0,5.522,4.478,10,10,10h27.809c5.152,0,9.395-3.896,9.94-8.904h354.311
		c0.545,5.008,4.788,8.904,9.94,8.904h27.809c5.522,0,10-4.478,10-10V387c0-5.152-3.896-9.396-8.904-9.94V134.94
		C477.008,134.396,480.904,130.152,480.904,125z M442,134.94V377.06c-4.648,0.506-8.339,4.197-8.845,8.845H78.845
		c-0.506-4.647-4.197-8.339-8.845-8.845V134.94c4.647-0.506,8.339-4.197,8.845-8.845h354.311
		C433.661,130.743,437.352,134.435,442,134.94z"/>
	<path d="M269.904,232.096h-27.809c-5.522,0-10,4.478-10,10v27.809c0,5.522,4.478,10,10,10h27.809c5.522,0,10-4.478,10-10v-27.809
		C279.904,236.573,275.427,232.096,269.904,232.096z"/>
</g>
</svg>
