<?xml version="1.0" encoding="utf-8"?>
<!-- Generator: Adobe Illustrator 16.0.0, SVG Export Plug-In . SVG Version: 6.00 Build 0)  -->
<!DOCTYPE svg PUBLIC "-//W3C//DTD SVG 1.1//EN" "http://www.w3.org/Graphics/SVG/1.1/DTD/svg11.dtd">
<svg version="1.1" id="Layer_1" xmlns="http://www.w3.org/2000/svg" xmlns:xlink="http://www.w3.org/1999/xlink" x="0px" y="0px"
	 width="512px" height="512px" viewBox="0 0 512 512" enable-background="new 0 0 512 512" xml:space="preserve">
<g>
	<path d="M224.471,129.518c5.272-0.328,9.38-4.699,9.38-9.981V81c0-5.523-4.477-10-10-10H35.865c-5.523,0-10,4.477-10,10v187.987
		c0,5.523,4.477,10,10,10h38.538c5.282,0,9.653-4.108,9.981-9.38C89.053,194.412,149.277,134.187,224.471,129.518z"/>
	<path d="M346.596,211.141c-11.33-17.662-27.083-32.352-45.557-42.48c-18.529-10.159-39.436-15.529-60.46-15.529
		c-69.397,0-125.855,56.458-125.855,125.855c0,32.148,11.902,62.657,33.513,85.904c21.545,23.176,50.94,37.237,82.772,39.594
		c0.248,0.019,0.495,0.027,0.741,0.027c3.498,0,6.766-1.834,8.58-4.868l106.432-177.972
		C348.709,218.416,348.646,214.336,346.596,211.141z"/>
	<path d="M484.717,425.868L379.49,249.91c-1.806-3.019-5.064-4.868-8.583-4.868c-3.518,0-6.777,1.848-8.583,4.868L257.097,425.868
		c-1.848,3.089-1.892,6.934-0.116,10.065c1.776,3.132,5.098,5.067,8.698,5.067h210.456c3.6,0,6.922-1.935,8.698-5.067
		C486.609,432.802,486.565,428.958,484.717,425.868z"/>
</g>
</svg>
