<?xml version="1.0" encoding="utf-8"?>
<!-- Generator: Adobe Illustrator 16.0.0, SVG Export Plug-In . SVG Version: 6.00 Build 0)  -->
<!DOCTYPE svg PUBLIC "-//W3C//DTD SVG 1.1//EN" "http://www.w3.org/Graphics/SVG/1.1/DTD/svg11.dtd">
<svg version="1.1" id="Layer_1" xmlns="http://www.w3.org/2000/svg" xmlns:xlink="http://www.w3.org/1999/xlink" x="0px" y="0px"
	 width="512px" height="512px" viewBox="0 0 512 512" enable-background="new 0 0 512 512" xml:space="preserve">
<g>
	<path d="M286.528,237.457h134.666c5.522,0,10-4.477,10-10v-19.024c0-5.523-4.478-10-10-10h-78.046L454.569,87.012
		c3.905-3.905,3.905-10.237,0-14.142l-13.453-13.453c-1.953-1.953-4.512-2.929-7.071-2.929s-5.119,0.977-7.071,2.929
		L315.553,170.838V92.791c0-5.523-4.478-10-10-10h-19.024c-5.523,0-10,4.477-10,10v134.666
		C276.528,232.98,281.005,237.457,286.528,237.457z"/>
	<path d="M168.853,198.433H90.807c-5.523,0-10,4.477-10,10v19.024c0,5.523,4.477,10,10,10h134.666c5.523,0,10-4.477,10-10V92.791
		c0-5.523-4.477-10-10-10h-19.024c-5.523,0-10,4.477-10,10v78.047L85.026,59.417c-1.952-1.953-4.512-2.929-7.07-2.929
		c-2.56,0-5.119,0.977-7.072,2.929L57.432,72.87c-3.905,3.905-3.905,10.237,0,14.142L168.853,198.433z"/>
	<path d="M286.528,429.209h19.024c5.523,0,10-4.477,10-10v-78.047l111.421,111.421c3.905,3.905,10.238,3.905,14.143,0l13.452-13.453
		c3.905-3.905,3.905-10.237,0-14.142L343.148,313.567h78.046c5.523,0,10-4.477,10-10v-19.024c0-5.523-4.477-10-10-10H286.528
		c-5.522,0-10,4.477-10,10v134.666C276.528,424.732,281.005,429.209,286.528,429.209z"/>
	<path d="M70.884,452.583c3.905,3.905,10.238,3.905,14.142,0l111.421-111.421v78.047c0,5.523,4.478,10,10,10h19.025
		c5.523,0,10-4.477,10-10V284.543c0-5.523-4.477-10-10-10H90.806c-5.522,0-10,4.477-10,10v19.024c0,5.523,4.478,10,10,10h78.047
		L57.431,424.988c-3.905,3.905-3.905,10.237,0,14.142L70.884,452.583z"/>
</g>
</svg>
