<?xml version="1.0" encoding="utf-8"?>
<!-- Generator: Adobe Illustrator 16.0.0, SVG Export Plug-In . SVG Version: 6.00 Build 0)  -->
<!DOCTYPE svg PUBLIC "-//W3C//DTD SVG 1.1//EN" "http://www.w3.org/Graphics/SVG/1.1/DTD/svg11.dtd">
<svg version="1.1" id="Layer_1" xmlns="http://www.w3.org/2000/svg" xmlns:xlink="http://www.w3.org/1999/xlink" x="0px" y="0px"
	 width="512px" height="512px" viewBox="0 0 512 512" enable-background="new 0 0 512 512" xml:space="preserve">
<g>
	<path d="M117.275,335.902c-4.168-6.754-12.875-9.094-19.869-5.335l-5.83,3.134c-3.635,1.955-6.305,5.32-7.379,9.305
		c-1.076,3.984-0.461,8.236,1.697,11.753c8.299,13.519,18.293,25.941,29.709,36.921c2.803,2.694,6.531,4.189,10.398,4.189
		c0.242,0,0.482-0.006,0.725-0.018c4.123-0.199,7.982-2.088,10.668-5.223l4.307-5.028c5.164-6.026,4.74-15.032-0.967-20.546
		C131.744,356.368,123.852,346.56,117.275,335.902z"/>
	<path d="M234.613,406.838c-12.504-0.905-24.873-3.345-36.768-7.253c-7.531-2.473-15.684,1.335-18.617,8.696l-2.453,6.154
		c-1.529,3.838-1.408,8.136,0.334,11.882c1.742,3.746,4.953,6.606,8.873,7.908c8.094,2.686,16.453,4.843,24.848,6.409
		c7.113,1.327,14.377,2.253,21.592,2.752c0.348,0.024,0.693,0.036,1.037,0.036c3.758,0,7.395-1.412,10.174-3.979
		c3.035-2.801,4.781-6.73,4.824-10.86l0.072-6.624C248.613,414.035,242.518,407.411,234.613,406.838z"/>
	<path d="M353.73,381.171c-5.039-6.134-13.984-7.278-20.404-2.614c-10.135,7.361-21.16,13.435-32.773,18.053
		c-7.373,2.933-11.188,11.1-8.701,18.636l2.072,6.287c1.293,3.92,4.145,7.135,7.883,8.886c2.012,0.942,4.186,1.416,6.361,1.416
		c1.867,0,3.738-0.349,5.512-1.049c14.73-5.818,28.695-13.51,41.508-22.863c3.332-2.434,5.516-6.133,6.037-10.227
		c0.52-4.094-0.672-8.222-3.291-11.41L353.73,381.171z"/>
	<path d="M414.725,283.185l-6.508-1.214c-7.82-1.455-15.414,3.437-17.314,11.156c-3.029,12.29-7.592,24.13-13.561,35.192
		c-3.766,6.979-1.449,15.685,5.289,19.867l5.625,3.492c2.398,1.488,5.141,2.256,7.912,2.256c1.285,0,2.576-0.165,3.842-0.5
		c3.992-1.058,7.371-3.715,9.342-7.346c7.602-14.011,13.387-29.016,17.193-44.598c0.979-4.004,0.266-8.234-1.971-11.696
		C422.338,286.33,418.775,283.94,414.725,283.185z"/>
	<path d="M406.574,239.434h6.727c0.006,0,0.014,0,0.02,0c8.287,0,15-6.716,15-15c0-1.219-0.143-2.404-0.418-3.539
		c-5.584-29.839-18.643-58.241-37.801-82.188c-29.004-36.257-70.199-60.304-115.998-67.714c-9.908-1.603-20.006-2.416-30.014-2.416
		c-25.752,0-51.314,5.383-74.814,15.669L157.59,72.559c-2.414-2.413-5.91-3.39-9.225-2.576c-3.313,0.813-5.961,3.299-6.982,6.555
		l-24.191,77.161c-1.086,3.466-0.158,7.248,2.41,9.816s6.35,3.496,9.816,2.41l77.16-24.191c3.256-1.02,5.74-3.668,6.555-6.981
		s-0.162-6.811-2.576-9.224l-13.012-13.013c15.02-4.963,30.656-7.474,46.684-7.474c45.797,0,88.547,20.605,117.287,56.532
		c15.309,19.135,25.793,41.84,30.322,65.661C393.184,234.313,399.371,239.434,406.574,239.434z"/>
</g>
</svg>
