<?xml version="1.0" encoding="utf-8"?>
<!-- Generator: Adobe Illustrator 16.0.0, SVG Export Plug-In . SVG Version: 6.00 Build 0)  -->
<!DOCTYPE svg PUBLIC "-//W3C//DTD SVG 1.1//EN" "http://www.w3.org/Graphics/SVG/1.1/DTD/svg11.dtd">
<svg version="1.1" id="Layer_1" xmlns="http://www.w3.org/2000/svg" xmlns:xlink="http://www.w3.org/1999/xlink" x="0px" y="0px"
	 width="512px" height="512px" viewBox="0 0 512 512" enable-background="new 0 0 512 512" xml:space="preserve">
<path d="M427.402,340.994l-14.274-14.274c-2.25-2.25-5.303-3.515-8.485-3.515c-2.185,0-4.308,0.596-6.152,1.697L275.846,202.259
	c2.757-4.608,2.151-10.669-1.819-14.64l-14.274-14.274c-2.25-2.25-5.303-3.515-8.485-3.515s-6.235,1.265-8.485,3.515l-22.666,22.665
	L105.25,81.145c-3.114-3.114-7.685-4.272-11.905-3.017c-4.221,1.255-7.416,4.722-8.323,9.031l-3.682,17.497
	c-0.835,3.968,0.39,8.089,3.257,10.956L192.557,223.57l-22.666,22.666c-4.686,4.687-4.686,12.284,0,16.971l14.274,14.273
	c2.25,2.251,5.303,3.515,8.486,3.515c2.185,0,4.308-0.596,6.153-1.697l122.644,122.644c-2.758,4.609-2.152,10.67,1.819,14.641
	l14.274,14.273c2.343,2.343,5.414,3.515,8.485,3.515c3.071,0,6.142-1.172,8.485-3.515l72.891-72.891
	C432.088,353.278,432.088,345.681,427.402,340.994z M333.854,337.309c-1.653,1.653-3.767,2.527-6.113,2.527
	c-2.347,0-4.461-0.874-6.114-2.527l-90.16-90.16l12.228-12.227l90.161,90.16c1.653,1.651,2.526,3.766,2.526,6.112
	S335.508,335.655,333.854,337.309z"/>
</svg>
