<?xml version="1.0" encoding="utf-8"?>
<!-- Generator: Adobe Illustrator 16.0.0, SVG Export Plug-In . SVG Version: 6.00 Build 0)  -->
<!DOCTYPE svg PUBLIC "-//W3C//DTD SVG 1.1//EN" "http://www.w3.org/Graphics/SVG/1.1/DTD/svg11.dtd">
<svg version="1.1" id="Layer_1" xmlns="http://www.w3.org/2000/svg" xmlns:xlink="http://www.w3.org/1999/xlink" x="0px" y="0px"
	 width="512px" height="512px" viewBox="0 0 512 512" enable-background="new 0 0 512 512" xml:space="preserve">
<g>
	<path d="M298.243,321.297c3.146,3.146,7.876,4.087,11.988,2.385c4.11-1.703,6.79-5.714,6.79-10.163V198.481
		c0-4.449-2.68-8.46-6.79-10.163c-1.362-0.563-2.79-0.837-4.208-0.837c-2.862,0-5.676,1.117-7.78,3.222l-57.519,57.519
		c-2.063,2.063-3.223,4.861-3.223,7.778s1.16,5.716,3.223,7.778L298.243,321.297z"/>
	<path d="M197.055,323.682c-4.109,1.7-8.84,0.763-11.988-2.385l-57.52-57.519c-2.063-2.063-3.221-4.861-3.221-7.778
		s1.158-5.716,3.221-7.778l57.52-57.519c2.105-2.104,4.918-3.222,7.781-3.222c1.416,0,2.846,0.273,4.207,0.837
		c4.111,1.703,6.791,5.714,6.791,10.163v115.037C203.846,317.968,201.166,321.979,197.055,323.682z"/>
	<path d="M376.674,47h-6c-6.075,0-11,4.925-11,11v35c0,6.075,4.925,11,11,11h6c6.075,0,11-4.925,11-11V58
		C387.674,51.925,382.749,47,376.674,47z"/>
	<path d="M376.674,142.352h-6c-6.075,0-11,4.925-11,11v72.473c0,6.075,4.925,11,11,11h6c6.075,0,11-4.925,11-11v-72.473
		C387.674,147.276,382.749,142.352,376.674,142.352z"/>
	<path d="M376.674,275.176h-6c-6.075,0-11,4.925-11,11v72.473c0,6.075,4.925,11,11,11h6c6.075,0,11-4.925,11-11v-72.473
		C387.674,280.101,382.749,275.176,376.674,275.176z"/>
	<path d="M376.674,408h-6c-6.075,0-11,4.925-11,11v35c0,6.075,4.925,11,11,11h6c6.075,0,11-4.925,11-11v-35
		C387.674,412.925,382.749,408,376.674,408z"/>
</g>
</svg>
