<?xml version="1.0" encoding="utf-8"?>
<!-- Generator: Adobe Illustrator 16.0.0, SVG Export Plug-In . SVG Version: 6.00 Build 0)  -->
<!DOCTYPE svg PUBLIC "-//W3C//DTD SVG 1.1//EN" "http://www.w3.org/Graphics/SVG/1.1/DTD/svg11.dtd">
<svg version="1.1" id="Layer_1" xmlns="http://www.w3.org/2000/svg" xmlns:xlink="http://www.w3.org/1999/xlink" x="0px" y="0px"
	 width="512px" height="512px" viewBox="0 0 512 512" enable-background="new 0 0 512 512" xml:space="preserve">
<g>
	<path d="M447.492,201.049H310.951V64.507c0-2.485-2.015-4.5-4.5-4.5H64.508c-2.485,0-4.5,2.015-4.5,4.5v241.943
		c0,2.485,2.015,4.5,4.5,4.5h136.541v136.542c0,2.485,2.015,4.5,4.5,4.5h241.943c2.485,0,4.5-2.015,4.5-4.5V205.549
		C451.992,203.064,449.978,201.049,447.492,201.049z M310.951,306.451v-76.401h112.041v192.943H230.049V310.951h76.402
		C308.937,310.951,310.951,308.936,310.951,306.451z M261.445,281.951H89.008V109.514L261.445,281.951z M109.513,89.007h172.438
		v172.438L109.513,89.007z"/>
	<path d="M339.685,89.375l17.905,15.072c1.23,1.035,2.919,1.335,4.431,0.788c1.512-0.547,2.616-1.86,2.898-3.443l0.281-1.585
		l0.575,0.238c20.953,8.687,37.951,25.685,46.638,46.636l0.238,0.575l-1.585,0.282c-1.583,0.282-2.896,1.386-3.443,2.898
		c-0.547,1.512-0.247,3.201,0.789,4.431l15.072,17.905c0.863,1.026,2.128,1.602,3.442,1.602c0.262,0,0.525-0.023,0.788-0.069
		c1.583-0.282,2.896-1.386,3.442-2.898l7.973-22.005c0.548-1.511,0.248-3.2-0.788-4.431c-1.035-1.229-2.646-1.813-4.23-1.532
		l-1.999,0.355l-0.145-0.394c-10.711-29.272-33.642-52.202-62.911-62.909l-0.394-0.144l0.355-2.001
		c0.281-1.583-0.303-3.195-1.533-4.23s-2.918-1.335-4.431-0.788l-22.005,7.973c-1.511,0.548-2.615,1.86-2.897,3.443
		C337.871,86.727,338.455,88.339,339.685,89.375z"/>
</g>
</svg>
