<?xml version="1.0" encoding="utf-8"?>
<!-- Generator: Adobe Illustrator 16.0.0, SVG Export Plug-In . SVG Version: 6.00 Build 0)  -->
<!DOCTYPE svg PUBLIC "-//W3C//DTD SVG 1.1//EN" "http://www.w3.org/Graphics/SVG/1.1/DTD/svg11.dtd">
<svg version="1.1" id="Layer_1" xmlns="http://www.w3.org/2000/svg" xmlns:xlink="http://www.w3.org/1999/xlink" x="0px" y="0px"
	 width="512px" height="512px" viewBox="0 0 512 512" enable-background="new 0 0 512 512" xml:space="preserve">
<g>
	<path d="M384.572,342.324c-2.813-2.813-6.628-4.394-10.606-4.394h-67.276v-81.509c0-9.826,5.321-19.907,11.482-31.581
		c8.393-15.9,17.905-33.922,17.905-57.977c0-44.154-35.923-80.076-80.077-80.076s-80.077,35.922-80.077,80.076
		c0,24.026,9.496,41.999,17.878,57.864c6.176,11.691,11.51,21.787,11.51,31.693v81.509h-67.276c-3.979,0-7.794,1.581-10.606,4.394
		l-10,10h277.145L384.572,342.324z"/>
	<path d="M52.314,365.529l21.496,50.553c2.354,5.536,7.788,9.13,13.804,9.13h336.772c6.015,0,11.449-3.594,13.803-9.13
		l21.496-50.553H52.314z"/>
</g>
</svg>
