<?xml version="1.0" encoding="utf-8"?>
<!-- Generator: Adobe Illustrator 16.0.0, SVG Export Plug-In . SVG Version: 6.00 Build 0)  -->
<!DOCTYPE svg PUBLIC "-//W3C//DTD SVG 1.1//EN" "http://www.w3.org/Graphics/SVG/1.1/DTD/svg11.dtd">
<svg version="1.1" id="Layer_1" xmlns="http://www.w3.org/2000/svg" xmlns:xlink="http://www.w3.org/1999/xlink" x="0px" y="0px"
	 width="512px" height="512px" viewBox="0 0 512 512" enable-background="new 0 0 512 512" xml:space="preserve">
<path d="M424.232,163.948l-76.18-76.18c-2.928-2.93-7.678-2.928-10.606,0l-14.736,14.734c-1.407,1.407-2.197,3.314-2.197,5.303
	s0.79,3.897,2.197,5.304l34.058,34.059l-9.785,9.785l-34.058-34.058c-2.928-2.93-7.678-2.928-10.606,0l-12.912,12.91
	c-1.406,1.407-2.197,3.314-2.197,5.304c0,1.989,0.79,3.896,2.197,5.303l20.426,20.427l-9.784,9.785l-20.426-20.426
	c-2.928-2.929-7.677-2.929-10.606,0l-12.912,12.91c-1.407,1.406-2.197,3.314-2.197,5.303s0.79,3.897,2.197,5.304l34.059,34.059
	l-9.785,9.785L246.32,189.5c-2.928-2.929-7.677-2.929-10.606,0l-12.911,12.911c-1.407,1.406-2.197,3.314-2.197,5.303
	s0.79,3.897,2.197,5.303l20.426,20.426l-9.785,9.785l-20.426-20.425c-2.929-2.93-7.677-2.928-10.606,0l-12.911,12.91
	c-1.407,1.407-2.197,3.314-2.197,5.304c0,1.989,0.79,3.897,2.197,5.303l34.059,34.059l-9.785,9.785l-34.059-34.057
	c-2.929-2.929-7.678-2.929-10.606,0l-12.91,12.91c-2.929,2.929-2.929,7.677,0,10.606l20.426,20.427l-9.785,9.784l-20.427-20.426
	c-1.407-1.407-3.314-2.197-5.304-2.197s-3.897,0.791-5.303,2.197l-12.91,12.912c-2.929,2.929-2.928,7.677,0,10.606l34.058,34.058
	l-9.785,9.785l-34.059-34.058c-1.407-1.407-3.314-2.197-5.304-2.197s-3.896,0.791-5.303,2.197l-14.734,14.736
	c-2.929,2.929-2.928,7.677,0,10.606l76.18,76.18c1.464,1.464,3.384,2.197,5.303,2.197s3.839-0.732,5.303-2.197l249.678-249.678
	C427.161,171.625,427.161,166.876,424.232,163.948z"/>
</svg>
