<?xml version="1.0" encoding="utf-8"?>
<!-- Generator: Adobe Illustrator 16.0.0, SVG Export Plug-In . SVG Version: 6.00 Build 0)  -->
<!DOCTYPE svg PUBLIC "-//W3C//DTD SVG 1.1//EN" "http://www.w3.org/Graphics/SVG/1.1/DTD/svg11.dtd">
<svg version="1.1" id="Layer_1" xmlns="http://www.w3.org/2000/svg" xmlns:xlink="http://www.w3.org/1999/xlink" x="0px" y="0px"
	 width="512px" height="512px" viewBox="0 0 512 512" enable-background="new 0 0 512 512" xml:space="preserve">
<g>
	<path d="M447.498,56.488H312.832c-5.523,0-10,4.477-10,10v19.024c0,5.523,4.477,10,10,10h78.046L279.457,206.933
		c-3.905,3.905-3.905,10.237,0,14.142l13.453,13.453c1.953,1.953,4.512,2.929,7.071,2.929s5.119-0.977,7.071-2.929l111.422-111.421
		v78.047c0,5.523,4.477,10,10,10h19.024c5.523,0,10-4.477,10-10V66.488C457.498,60.965,453.021,56.488,447.498,56.488z"/>
	<path d="M121.122,95.512h78.046c5.523,0,10-4.477,10-10V66.488c0-5.523-4.477-10-10-10H64.502c-5.523,0-10,4.477-10,10v134.666
		c0,5.523,4.477,10,10,10h19.024c5.523,0,10-4.477,10-10v-78.047l111.422,111.421c1.952,1.953,4.512,2.929,7.071,2.929
		s5.119-0.977,7.071-2.929l13.453-13.453c3.905-3.905,3.905-10.237,0-14.142L121.122,95.512z"/>
	<path d="M447.498,300.846h-19.024c-5.523,0-10,4.477-10,10v78.047L307.052,277.472c-3.904-3.905-10.237-3.905-14.142,0
		l-13.453,13.453c-3.905,3.905-3.905,10.237,0,14.142l111.421,111.421h-78.046c-5.523,0-10,4.477-10,10v19.024
		c0,5.523,4.477,10,10,10h134.666c5.523,0,10-4.477,10-10V310.846C457.498,305.323,453.021,300.846,447.498,300.846z"/>
	<path d="M219.09,277.472c-3.905-3.905-10.238-3.905-14.142,0L93.526,388.894v-78.047c0-5.523-4.477-10-10-10H64.502
		c-5.523,0-10,4.477-10,10v134.666c0,5.523,4.477,10,10,10h134.666c5.523,0,10-4.477,10-10v-19.024c0-5.523-4.477-10-10-10h-78.046
		l111.421-111.421c3.905-3.905,3.905-10.237,0-14.142L219.09,277.472z"/>
</g>
</svg>
