<?xml version="1.0" encoding="utf-8"?>
<!-- Generator: Adobe Illustrator 16.0.0, SVG Export Plug-In . SVG Version: 6.00 Build 0)  -->
<!DOCTYPE svg PUBLIC "-//W3C//DTD SVG 1.1//EN" "http://www.w3.org/Graphics/SVG/1.1/DTD/svg11.dtd">
<svg version="1.1" id="Layer_1" xmlns="http://www.w3.org/2000/svg" xmlns:xlink="http://www.w3.org/1999/xlink" x="0px" y="0px"
	 width="512px" height="512px" viewBox="0 0 512 512" enable-background="new 0 0 512 512" xml:space="preserve">
<g>
	<path d="M454.188,180.453c-2.825-3.863-7.323-6.146-12.108-6.146H69.921c-4.193,0-8.194,1.755-11.035,4.84
		c-2.84,3.084-4.26,7.217-3.915,11.396l19.008,230c0.643,7.779,7.144,13.765,14.949,13.765h279.968
		c6.532,0,12.313-4.228,14.294-10.452l73.182-230C457.823,189.295,457.012,184.315,454.188,180.453z M112.861,393.314
		L98.148,215.299h82.413l-56.642,178.016H112.861z"/>
	<path d="M202.092,130.294l44.91,0.002l-9.296,23.404c-0.722,1.816-0.241,3.891,1.208,5.201c1.449,1.313,3.56,1.588,5.296,0.69
		l70.666-36.526c1.556-0.805,2.533-2.41,2.532-4.161c0.001-1.751-0.977-3.355-2.532-4.162l-70.666-36.525
		c-1.736-0.897-3.847-0.623-5.295,0.69c-1.448,1.312-1.932,3.386-1.208,5.2l9.296,23.407h-44.911c-2.586,0-4.685,2.097-4.685,4.684
		v13.411c0,1.243,0.494,2.435,1.373,3.313C199.658,129.802,200.849,130.296,202.092,130.294z"/>
</g>
</svg>
