<?xml version="1.0" encoding="utf-8"?>
<!-- Generator: Adobe Illustrator 16.0.0, SVG Export Plug-In . SVG Version: 6.00 Build 0)  -->
<!DOCTYPE svg PUBLIC "-//W3C//DTD SVG 1.1//EN" "http://www.w3.org/Graphics/SVG/1.1/DTD/svg11.dtd">
<svg version="1.1" id="Layer_1" xmlns="http://www.w3.org/2000/svg" xmlns:xlink="http://www.w3.org/1999/xlink" x="0px" y="0px"
	 width="512px" height="512px" viewBox="0 0 512 512" enable-background="new 0 0 512 512" xml:space="preserve">
<g>
	<path d="M394.724,335.902c4.168-6.754,12.875-9.094,19.869-5.336l5.83,3.135c3.635,1.955,6.305,5.32,7.379,9.305
		c1.076,3.984,0.461,8.236-1.697,11.754c-8.299,13.518-18.293,25.941-29.709,36.922c-2.803,2.693-6.531,4.189-10.398,4.189
		c-0.242,0-0.482-0.006-0.725-0.018c-4.123-0.199-7.982-2.09-10.668-5.225l-4.307-5.027c-5.164-6.025-4.74-15.031,0.967-20.547
		C380.255,356.369,388.148,346.561,394.724,335.902z"/>
	<path d="M277.386,406.838c12.504-0.904,24.873-3.344,36.768-7.252c7.531-2.475,15.684,1.334,18.617,8.695l2.453,6.154
		c1.529,3.838,1.408,8.137-0.334,11.883s-4.953,6.605-8.873,7.908c-8.094,2.686-16.453,4.842-24.848,6.408
		c-7.113,1.328-14.377,2.254-21.592,2.754c-0.348,0.023-0.693,0.035-1.037,0.035c-3.758,0-7.395-1.412-10.174-3.979
		c-3.035-2.801-4.781-6.73-4.824-10.859l-0.072-6.625C263.386,414.035,269.482,407.41,277.386,406.838z"/>
	<path d="M158.269,381.172c5.039-6.135,13.984-7.277,20.404-2.613c10.135,7.361,21.16,13.434,32.773,18.053
		c7.373,2.932,11.188,11.1,8.701,18.635l-2.072,6.287c-1.293,3.92-4.145,7.135-7.883,8.887c-2.012,0.941-4.186,1.416-6.361,1.416
		c-1.867,0-3.738-0.35-5.512-1.049c-14.73-5.818-28.695-13.51-41.508-22.863c-3.332-2.434-5.516-6.133-6.037-10.227
		c-0.52-4.096,0.672-8.223,3.291-11.41L158.269,381.172z"/>
	<path d="M97.275,283.186l6.508-1.215c7.82-1.455,15.414,3.438,17.314,11.156c3.029,12.289,7.592,24.129,13.561,35.191
		c3.766,6.98,1.449,15.686-5.289,19.867l-5.625,3.492c-2.398,1.488-5.141,2.256-7.912,2.256c-1.285,0-2.576-0.164-3.842-0.5
		c-3.992-1.059-7.371-3.715-9.342-7.346c-7.602-14.012-13.387-29.016-17.193-44.598c-0.979-4.004-0.266-8.234,1.971-11.697
		S93.224,283.941,97.275,283.186z"/>
	<path d="M105.425,239.434h-6.727c-0.006,0-0.014,0-0.02,0c-8.287,0-15-6.715-15-15c0-1.219,0.143-2.404,0.418-3.539
		c5.584-29.84,18.643-58.24,37.801-82.188c29.004-36.258,70.199-60.305,115.998-67.715c9.908-1.602,20.006-2.416,30.014-2.416
		c25.752,0,51.314,5.385,74.814,15.67l11.686-11.688c2.414-2.412,5.91-3.389,9.225-2.574c3.313,0.813,5.961,3.299,6.982,6.555
		l24.191,77.16c1.086,3.465,0.158,7.248-2.41,9.816s-6.35,3.496-9.816,2.41l-77.16-24.191c-3.256-1.02-5.74-3.668-6.555-6.982
		c-0.814-3.313,0.162-6.811,2.576-9.223l13.012-13.014c-15.02-4.963-30.656-7.473-46.684-7.473
		c-45.797,0-88.547,20.604-117.287,56.531c-15.309,19.135-25.793,41.84-30.322,65.662
		C118.816,234.313,112.628,239.434,105.425,239.434z"/>
</g>
</svg>
