<?xml version="1.0" encoding="utf-8"?>
<!-- Generator: Adobe Illustrator 16.0.0, SVG Export Plug-In . SVG Version: 6.00 Build 0)  -->
<!DOCTYPE svg PUBLIC "-//W3C//DTD SVG 1.1//EN" "http://www.w3.org/Graphics/SVG/1.1/DTD/svg11.dtd">
<svg version="1.1" id="Layer_1" xmlns="http://www.w3.org/2000/svg" xmlns:xlink="http://www.w3.org/1999/xlink" x="0px" y="0px"
	 width="512px" height="512px" viewBox="0 0 512 512" enable-background="new 0 0 512 512" xml:space="preserve">
<path d="M293.669,233.783c-6.793-0.003-12.844-4.331-15.056-10.771c-2.08-6.06-7.78-10.128-14.187-10.128c-0.002,0-0.004,0-0.006,0
	l-9.392,0.004c-4.642,0.002-9.021,2.152-11.86,5.824s-3.818,8.451-2.652,12.944c6.283,24.208,28.137,41.12,53.152,41.127
	c35.136-0.009,63.725-28.604,63.729-63.748c-0.005-41.243-33.562-74.797-74.805-74.797c-48.868,0.002-88.625,39.761-88.625,88.631
	c0.007,58.39,47.517,105.899,105.911,105.906c70.303-0.007,127.503-57.207,127.509-127.511
	c-0.001-41.271-16.073-80.073-45.256-109.256c-29.184-29.186-67.984-45.258-109.256-45.257
	c-103.81,0-188.266,84.455-188.266,188.264c0,61.557,23.972,119.429,67.499,162.956c40.768,40.769,94.847,64.655,152.276,67.261
	c0.228,0.011,0.454,0.016,0.681,0.016c3.852,0,7.565-1.482,10.362-4.155c2.962-2.83,4.637-6.748,4.637-10.845v-9.013
	c0-8.005-6.286-14.6-14.282-14.982c-102.153-4.894-182.173-88.895-182.173-191.237c0-82.305,66.96-149.264,149.266-149.264
	c30.853-0.001,59.859,12.015,81.678,33.832c21.817,21.818,33.833,50.827,33.834,81.68c-0.003,48.801-39.708,88.507-88.507,88.512
	c-36.892-0.005-66.908-30.021-66.913-66.909c0-27.363,22.263-49.626,49.626-49.628c19.739,0,35.801,16.061,35.804,35.797
	C318.396,222.679,307.299,233.78,293.669,233.783z"/>
</svg>
