<?xml version="1.0" encoding="utf-8"?>
<!-- Generator: Adobe Illustrator 16.0.0, SVG Export Plug-In . SVG Version: 6.00 Build 0)  -->
<!DOCTYPE svg PUBLIC "-//W3C//DTD SVG 1.1//EN" "http://www.w3.org/Graphics/SVG/1.1/DTD/svg11.dtd">
<svg version="1.1" id="Layer_1" xmlns="http://www.w3.org/2000/svg" xmlns:xlink="http://www.w3.org/1999/xlink" x="0px" y="0px"
	 width="512px" height="512px" viewBox="0 0 512 512" enable-background="new 0 0 512 512" xml:space="preserve">
<path d="M430.507,70.756l-254.65-0.16c-0.002,0-0.004,0-0.007,0c-2.914,0-5.708,1.156-7.771,3.215l-94.35,94.164
	c-2.068,2.064-3.229,4.865-3.229,7.787v254.643c0,6.074,4.925,11,11,11h254.592c2.917,0,5.715-1.16,7.778-3.223l94.408-94.412
	c2.063-2.064,3.222-4.861,3.222-7.779V81.756C441.5,75.684,436.58,70.76,430.507,70.756z M387.873,343.828l-43.947,43.945v-43.945
	H387.873z M203.677,167.98v-61.977h177.169l-61.971,61.977H203.677z M343.925,308.225V193.273l61.974-61.971v176.922H343.925z
	 M203.677,308.225V203.582h104.646v104.643H203.677z M131.291,405.803l61.974-61.975h115.059v61.975H131.291z M124.265,167.98
	l43.81-43.813v43.813H124.265z M168.075,203.582v115.086l-61.974,61.973V203.582H168.075z"/>
</svg>
