<?xml version="1.0" encoding="utf-8"?>
<!-- Generator: Adobe Illustrator 16.0.0, SVG Export Plug-In . SVG Version: 6.00 Build 0)  -->
<!DOCTYPE svg PUBLIC "-//W3C//DTD SVG 1.1//EN" "http://www.w3.org/Graphics/SVG/1.1/DTD/svg11.dtd">
<svg version="1.1" id="Layer_1" xmlns="http://www.w3.org/2000/svg" xmlns:xlink="http://www.w3.org/1999/xlink" x="0px" y="0px"
	 width="512px" height="512px" viewBox="0 0 512 512" enable-background="new 0 0 512 512" xml:space="preserve">
<g>
	<path d="M294.153,128.926c5.308-0.284,9.465-4.671,9.465-9.986V70.65c0-5.523-4.477-10-10-10H70.646c-5.523,0-10,4.477-10,10
		v222.974c0,5.523,4.477,10,10,10h48.289c5.315,0,9.702-4.158,9.986-9.465C133.707,204.748,204.742,133.713,294.153,128.926z"/>
	<path d="M304.328,157.297c-81.071,0-147.026,65.956-147.026,147.026c0,81.07,65.956,147.026,147.026,147.026
		s147.027-65.956,147.027-147.026C451.354,223.253,385.398,157.297,304.328,157.297z"/>
</g>
</svg>
