<?xml version="1.0" encoding="utf-8"?>
<!-- Generator: Adobe Illustrator 16.0.0, SVG Export Plug-In . SVG Version: 6.00 Build 0)  -->
<!DOCTYPE svg PUBLIC "-//W3C//DTD SVG 1.1//EN" "http://www.w3.org/Graphics/SVG/1.1/DTD/svg11.dtd">
<svg version="1.1" id="Layer_1" xmlns="http://www.w3.org/2000/svg" xmlns:xlink="http://www.w3.org/1999/xlink" x="0px" y="0px"
	 width="512px" height="512px" viewBox="0 0 512 512" enable-background="new 0 0 512 512" xml:space="preserve">
<g>
	<path d="M379.795,160.892c-19.968-28.252-47.152-50.858-79.245-63.969c-34.273-14.001-72.066-12.979-107.21-2.689
		c-30.848,9.031-58.796,27.161-76.258,54.526c-15.194,23.813-20.548,53.077-17.637,80.941
		c5.028,48.121,32.405,91.699,71.886,118.386c-0.49,8.592,2.437,17.005,8.883,24.054c6.227,6.809,14.63,11.485,23.521,14.841
		c-7.74,11.246-19.829,18.765-32.505,23.712c-3.805,1.485-6.407,4.975-5.238,9.227c1,3.634,5.412,6.727,9.226,5.238
		c18.02-7.033,33.491-17.623,43.173-33.754c1.496,0.359,2.983,0.701,4.448,1.013c19.517,4.162,39.877,4.761,59.686,2.687
		c38.422-4.022,75.904-20.62,101.347-50.344C429.218,291.781,417.673,214.485,379.795,160.892z M188.264,358.076
		c5.951,3.046,12.099,5.752,18.439,8.04c1.773,0.64,3.562,1.233,5.356,1.798c-0.462,1.844-1.007,3.665-1.621,5.447
		c-4.899-1.81-9.554-4.058-14.02-7.023C193.266,364.243,190.117,360.976,188.264,358.076z M188.327,340.98
		c1.171-2.591,2.825-5.15,5.014-6.663c3.531-2.442,7.377-1.857,11.31,0.389c4.932,2.817,8.108,8.654,8.836,14.176
		c0.16,1.216,0.257,2.457,0.306,3.711C204.902,349.54,196.38,345.639,188.327,340.98z M371.956,335.671
		c-24.954,28.659-61.891,42.969-99.174,45.239c-16.011,0.976-32.3,0.108-47.982-3.419c0.637-1.888,1.214-3.831,1.717-5.813
		c6.489,1.356,13.063,2.321,19.668,2.958c9.629,0.929,9.539-14.08,0-15c-5.943-0.573-11.782-1.529-17.504-2.82
		c0.327-10.133-1.893-20.144-8.229-27.91c-5.644-6.917-14.315-11.494-23.36-11.085c-9.718,0.439-16.854,6.821-21.285,15.024
		c-27.161-19.601-47.63-48.237-56.967-81.111c-7.416-26.109-7.287-53.346,2.698-78.946c10.181-26.102,32.408-46.269,58.81-58.002
		c31.706-14.091,69.574-17.814,102.944-8.044c31.753,9.296,58.972,30.259,79.303,55.987
		C400.921,211.228,415.23,285.972,371.956,335.671z"/>
</g>
</svg>
