<?xml version="1.0" encoding="utf-8"?>
<!-- Generator: Adobe Illustrator 16.0.0, SVG Export Plug-In . SVG Version: 6.00 Build 0)  -->
<!DOCTYPE svg PUBLIC "-//W3C//DTD SVG 1.1//EN" "http://www.w3.org/Graphics/SVG/1.1/DTD/svg11.dtd">
<svg version="1.1" id="Layer_1" xmlns="http://www.w3.org/2000/svg" xmlns:xlink="http://www.w3.org/1999/xlink" x="0px" y="0px"
	 width="512px" height="512px" viewBox="0 0 512 512" enable-background="new 0 0 512 512" xml:space="preserve">
<g>
	<path d="M255.973,125.021c-72.207,0-130.949,58.743-130.949,130.949c0,72.207,58.742,130.951,130.949,130.951
		s130.951-58.744,130.951-130.951C386.924,183.765,328.18,125.021,255.973,125.021z M255.973,341.691
		c-47.266,0-85.719-38.454-85.719-85.721c0-47.266,38.453-85.719,85.719-85.719s85.719,38.453,85.719,85.719
		C341.691,303.237,303.238,341.691,255.973,341.691z"/>
	<path d="M120.993,126.288c2.927,2.966,6.798,4.464,10.68,4.464c3.544,0,7.096-1.249,9.943-3.772
		c15.444-13.682,32.979-24.387,52.118-31.816c7.428-2.884,11.305-11.068,8.831-18.642l-4.736-14.498
		c-1.276-3.906-4.1-7.118-7.812-8.885c-3.71-1.768-7.982-1.933-11.82-0.462c-24.76,9.499-47.379,23.305-67.23,41.034
		c-3.063,2.736-4.871,6.609-5,10.715c-0.13,4.105,1.431,8.085,4.315,11.009L120.993,126.288z"/>
	<path d="M68.821,259.979c0.027,0,0.054,0,0.081,0c7.947,0,14.521-6.204,14.974-14.147c1.173-20.601,5.972-40.559,14.264-59.317
		c3.225-7.297,0.175-15.841-6.941-19.445l-13.604-6.891c-3.664-1.855-7.925-2.129-11.793-0.756c-3.868,1.372-7.006,4.27-8.681,8.018
		c-10.828,24.234-17.036,50.028-18.449,76.664c-0.218,4.097,1.252,8.104,4.067,11.088s6.729,4.686,10.832,4.707L68.821,259.979z"/>
	<path d="M416.951,194.173c2.285,5.932,7.95,9.611,13.997,9.611c1.531,0,3.09-0.236,4.621-0.732l14.508-4.697
		c3.91-1.266,7.129-4.08,8.905-7.785c1.777-3.705,1.956-7.978,0.495-11.818c-9.429-24.788-23.177-47.45-40.862-67.356
		c-2.728-3.07-6.595-4.888-10.7-5.028c-4.123-0.142-8.089,1.409-11.02,4.286l-10.883,10.682c-5.689,5.584-6.018,14.642-0.747,20.622
		C398.908,157.438,409.569,175.007,416.951,194.173z"/>
	<path d="M266.569,83.901c20.591,1.226,40.534,6.078,59.277,14.423c1.979,0.882,4.051,1.3,6.093,1.3
		c5.476,0,10.731-3.013,13.371-8.188l6.928-13.586c1.863-3.657,2.149-7.918,0.787-11.79c-1.361-3.873-4.25-7.018-7.994-8.702
		c-24.205-10.896-49.983-17.173-76.619-18.656c-4.086-0.231-8.107,1.231-11.1,4.039c-2.991,2.809-4.702,6.72-4.734,10.822
		l-0.117,15.25C252.4,76.795,258.601,83.427,266.569,83.901z"/>
	<path d="M95.327,318.632c-2.903-7.417-11.101-11.271-18.664-8.778l-14.484,4.775c-3.903,1.287-7.107,4.119-8.864,7.834
		c-1.757,3.716-1.912,7.989-0.43,11.822c9.563,24.733,23.43,47.316,41.212,67.121c2.744,3.057,6.622,4.854,10.729,4.973
		c0.145,0.004,0.289,0.006,0.434,0.006c3.951,0,7.75-1.561,10.563-4.352l10.826-10.74c5.658-5.613,5.938-14.672,0.638-20.624
		C113.563,355.261,102.812,337.753,95.327,318.632z"/>
	<path d="M469.206,255.62c-2.83-2.969-6.755-4.649-10.856-4.649H443.1c-7.984,0-14.568,6.253-14.98,14.227
		c-1.064,20.608-5.758,40.592-13.949,59.394c-3.186,7.313-0.091,15.842,7.045,19.408l13.641,6.818
		c2.104,1.052,4.402,1.583,6.707,1.583c1.719,0,3.439-0.295,5.09-0.89c3.86-1.393,6.982-4.307,8.638-8.063
		c10.698-24.287,16.769-50.113,18.042-76.761C473.528,262.589,472.037,258.59,469.206,255.62z"/>
	<path d="M391.637,384.936c-5.629-5.646-14.688-5.901-20.626-0.584c-15.375,13.765-32.854,24.563-51.952,32.098
		c-7.41,2.923-11.244,11.128-8.729,18.687l4.813,14.471c1.297,3.9,4.137,7.097,7.856,8.844c2.017,0.947,4.195,1.423,6.377,1.423
		c1.844,0,3.691-0.34,5.446-1.023c24.707-9.628,47.254-23.553,67.014-41.389c3.05-2.752,4.837-6.635,4.945-10.741
		c0.107-4.106-1.474-8.077-4.374-10.985L391.637,384.936z"/>
	<path d="M246.289,428.095c-20.608-1.121-40.579-5.867-59.357-14.107c-7.306-3.207-15.84-0.134-19.426,6.992l-6.855,13.621
		c-1.846,3.666-2.107,7.929-0.726,11.794s4.288,6.995,8.04,8.66c24.258,10.764,50.068,16.903,76.713,18.248
		c0.253,0.014,0.504,0.02,0.756,0.02c3.831,0,7.528-1.467,10.321-4.115c2.977-2.823,4.668-6.742,4.679-10.845l0.041-15.25
		C260.496,435.129,254.261,428.527,246.289,428.095z"/>
</g>
</svg>
