<?xml version="1.0" encoding="utf-8"?>
<!-- Generator: Adobe Illustrator 16.0.0, SVG Export Plug-In . SVG Version: 6.00 Build 0)  -->
<!DOCTYPE svg PUBLIC "-//W3C//DTD SVG 1.1//EN" "http://www.w3.org/Graphics/SVG/1.1/DTD/svg11.dtd">
<svg version="1.1" id="Layer_1" xmlns="http://www.w3.org/2000/svg" xmlns:xlink="http://www.w3.org/1999/xlink" x="0px" y="0px"
	 width="512px" height="512px" viewBox="0 0 512 512" enable-background="new 0 0 512 512" xml:space="preserve">
<g>
	<g>
		<path d="M344.212,256c0,44.151-32.605,80.828-75,87.224v48.924c69.25-6.667,123.576-65.179,123.576-136.147
			s-54.327-129.48-123.576-136.147v48.924C311.607,175.172,344.212,211.849,344.212,256z"/>
	</g>
	<g>
		<path d="M119.212,256c0,70.969,54.327,129.479,123.576,136.147v-48.925c-42.395-6.395-75-43.072-75-87.223
			s32.605-80.828,75-87.223v-48.925C173.539,126.521,119.212,185.031,119.212,256z"/>
	</g>
	<g>
		<path d="M317.788,256c0-29.535-20.835-54.283-48.576-60.353v120.705C296.953,310.283,317.788,285.535,317.788,256z"/>
	</g>
	<g>
		<path d="M194.212,256c0,29.535,20.835,54.283,48.576,60.352V195.648C215.047,201.717,194.212,226.465,194.212,256z"/>
	</g>
	<g>
		<path d="M92.788,256c0-85.547,66.16-155.926,150-162.675V44.637C132.14,51.481,44.212,143.658,44.212,256
			s87.928,204.519,198.576,211.363v-48.688C158.948,411.926,92.788,341.547,92.788,256z"/>
	</g>
	<g>
		<path d="M467.788,256c0-112.342-87.928-204.519-198.576-211.363v48.688c83.84,6.749,150,77.129,150,162.676
			s-66.16,155.927-150,162.676v48.688C379.86,460.519,467.788,368.342,467.788,256z"/>
	</g>
</g>
</svg>
