<?xml version="1.0" encoding="utf-8"?>
<!-- Generator: Adobe Illustrator 16.0.0, SVG Export Plug-In . SVG Version: 6.00 Build 0)  -->
<!DOCTYPE svg PUBLIC "-//W3C//DTD SVG 1.1//EN" "http://www.w3.org/Graphics/SVG/1.1/DTD/svg11.dtd">
<svg version="1.1" id="Layer_1" xmlns="http://www.w3.org/2000/svg" xmlns:xlink="http://www.w3.org/1999/xlink" x="0px" y="0px"
	 width="512px" height="512px" viewBox="0 0 512 512" enable-background="new 0 0 512 512" xml:space="preserve">
<path d="M402.225,453.656l-20.248-47.566l1.541-0.656c2.441-1.039,4.369-3.004,5.361-5.465c0.991-2.461,0.965-5.213-0.074-7.654
	l-76.389-179.477c5.095-0.461,9.086-4.744,9.086-9.959v-14.352c0-2.879-1.217-5.473-3.163-7.297
	c5.489-10.221,8.374-21.697,8.374-33.436c0-30.752-20.059-58.008-49.146-67.332V52.936c0-5.523-4.478-10-10-10h-23.134
	c-5.522,0-10,4.477-10,10v27.527c-29.087,9.326-49.146,36.582-49.146,67.332c0,11.736,2.885,23.215,8.374,33.434
	c-1.947,1.826-3.164,4.42-3.164,7.299v14.352c0,5.215,3.991,9.498,9.086,9.959l-76.389,179.477
	c-1.039,2.441-1.065,5.193-0.075,7.654c0.992,2.461,2.921,4.426,5.361,5.465l1.542,0.654l-20.247,47.568
	c-2.163,5.082,0.203,10.953,5.284,13.117l3.505,1.492c1.251,0.533,2.583,0.799,3.917,0.799c1.269,0,2.538-0.24,3.735-0.725
	c2.462-0.99,4.428-2.918,5.466-5.359l20.246-47.568l1.542,0.656c2.441,1.041,5.194,1.064,7.655,0.076
	c2.46-0.99,4.426-2.918,5.465-5.359l84.236-197.906h10.346l84.236,197.906c1.039,2.441,3.005,4.369,5.466,5.361
	c2.461,0.99,5.215,0.965,7.654-0.076l1.543-0.658l20.245,47.568c1.038,2.441,3.003,4.369,5.465,5.359
	c2.461,0.992,5.215,0.965,7.653-0.074l3.505-1.492C402.022,464.609,404.387,458.738,402.225,453.656z M283.579,147.795
	c0,6.26-2.104,12.273-5.958,17.119h-43.242c-3.854-4.846-5.959-10.861-5.959-17.119c0-15.207,12.372-27.578,27.58-27.578
	C271.207,120.217,283.579,132.588,283.579,147.795z"/>
</svg>
