<?xml version="1.0" encoding="utf-8"?>
<!-- Generator: Adobe Illustrator 16.0.0, SVG Export Plug-In . SVG Version: 6.00 Build 0)  -->
<!DOCTYPE svg PUBLIC "-//W3C//DTD SVG 1.1//EN" "http://www.w3.org/Graphics/SVG/1.1/DTD/svg11.dtd">
<svg version="1.1" id="Layer_1" xmlns="http://www.w3.org/2000/svg" xmlns:xlink="http://www.w3.org/1999/xlink" x="0px" y="0px"
	 width="512px" height="512px" viewBox="0 0 512 512" enable-background="new 0 0 512 512" xml:space="preserve">
<g>
	<path d="M115.525,270.398l82.605-91.982l32.408,36.082c11.547-6.807,23.896-12.385,36.873-16.557L205.57,129.08
		c-1.896-2.113-4.602-3.318-7.439-3.318c-2.84,0-5.543,1.205-7.441,3.318L42.17,294.459c-2.637,2.936-3.299,7.15-1.691,10.754
		c1.607,3.605,5.186,5.928,9.133,5.928h100.904c5.189-14.504,12.145-28.176,20.619-40.742H115.525z"/>
	<path d="M318.717,213.818c-84.736,0-153.674,68.939-153.674,153.676v8.744c0,5.523,4.477,10,10,10h287.348c5.521,0,10-4.477,10-10
		v-8.744C472.391,282.758,403.453,213.818,318.717,213.818z M204.037,348.758c4.375-26.887,18.25-51.541,39.072-69.424
		c21.051-18.076,47.9-28.031,75.607-28.031c27.705,0,54.557,9.955,75.605,28.031c20.822,17.883,34.699,42.537,39.072,69.424H204.037
		z"/>
</g>
</svg>
