<?xml version="1.0" encoding="utf-8"?>
<!-- Generator: Adobe Illustrator 16.0.0, SVG Export Plug-In . SVG Version: 6.00 Build 0)  -->
<!DOCTYPE svg PUBLIC "-//W3C//DTD SVG 1.1//EN" "http://www.w3.org/Graphics/SVG/1.1/DTD/svg11.dtd">
<svg version="1.1" id="Layer_1" xmlns="http://www.w3.org/2000/svg" xmlns:xlink="http://www.w3.org/1999/xlink" x="0px" y="0px"
	 width="512px" height="512px" viewBox="0 0 512 512" enable-background="new 0 0 512 512" xml:space="preserve">
<path d="M377.778,223.032v-18.887c0-67.148-54.63-121.777-121.778-121.777s-121.778,54.629-121.778,121.777v18.887
	c-1.837,0.362-3.222,1.981-3.222,3.924v21.022c0,2.209,1.791,4,4,4h10.328v159.475c0,1.75,1.138,3.297,2.807,3.818
	c10.792,3.369,50.46,14.36,107.865,14.36c57.51,0,97.102-10.99,107.866-14.358c1.669-0.522,2.806-2.068,2.806-3.817V251.979H377
	c2.209,0,4-1.791,4-4v-21.022C381,225.014,379.615,223.395,377.778,223.032z M193.895,197.285c17.502-4.205,39.559-6.52,62.105-6.52
	c22.548,0,44.604,2.315,62.104,6.52c6.097,1.465,11.537,3.128,16.169,4.946c-4.64,1.819-10.079,3.483-16.169,4.946
	c-17.495,4.204-39.552,6.519-62.104,6.519s-44.609-2.315-62.105-6.519c-6.09-1.463-11.53-3.127-16.169-4.946
	C182.359,200.413,187.799,198.749,193.895,197.285z M256,99.665c52,0,96.502,38.824,103.516,90.309v0
	c-16.222-13.322-57.821-22.273-103.516-22.273c-45.695,0-87.295,8.951-103.516,22.273C159.497,138.489,204,99.665,256,99.665z"/>
</svg>
