<?xml version="1.0" encoding="utf-8"?>
<!-- Generator: Adobe Illustrator 16.0.0, SVG Export Plug-In . SVG Version: 6.00 Build 0)  -->
<!DOCTYPE svg PUBLIC "-//W3C//DTD SVG 1.1//EN" "http://www.w3.org/Graphics/SVG/1.1/DTD/svg11.dtd">
<svg version="1.1" id="Layer_1" xmlns="http://www.w3.org/2000/svg" xmlns:xlink="http://www.w3.org/1999/xlink" x="0px" y="0px"
	 width="512px" height="512px" viewBox="0 0 512 512" enable-background="new 0 0 512 512" xml:space="preserve">
<path d="M421.075,352.484l-152.112-261.3c-2.687-4.614-7.624-7.453-12.963-7.453s-10.277,2.839-12.963,7.453L91.007,352.344
	c-0.094,0.161-0.185,0.324-0.272,0.488c-3.549,6.654-5.348,12.539-5.348,17.489c0,31.8,45.046,42.897,59.848,46.544
	c29.841,7.354,69.178,11.403,110.766,11.403c41.588,0,80.925-4.05,110.764-11.403c14.802-3.646,59.849-14.744,59.849-46.544
	C426.613,363.072,423.142,356.031,421.075,352.484z M256,386.042c-34.226,0-67.204-2.982-92.86-8.398
	c-11.859-2.503-20.173-5.1-25.889-7.323c5.715-2.224,14.028-4.82,25.891-7.323c25.642-5.415,58.619-8.396,92.858-8.396
	c34.239,0,67.217,2.981,92.862,8.396c11.86,2.503,20.173,5.1,25.888,7.323c-5.718,2.225-14.032,4.821-25.891,7.323
	C323.204,383.06,290.226,386.042,256,386.042z M256,312.374c-35.71,0-69.911,3.004-97.771,8.526L256,152.947l97.772,167.954
	C325.924,315.379,291.724,312.374,256,312.374z"/>
</svg>
