<?xml version="1.0" encoding="utf-8"?>
<!-- Generator: Adobe Illustrator 16.0.0, SVG Export Plug-In . SVG Version: 6.00 Build 0)  -->
<!DOCTYPE svg PUBLIC "-//W3C//DTD SVG 1.1//EN" "http://www.w3.org/Graphics/SVG/1.1/DTD/svg11.dtd">
<svg version="1.1" id="Layer_1" xmlns="http://www.w3.org/2000/svg" xmlns:xlink="http://www.w3.org/1999/xlink" x="0px" y="0px"
	 width="512px" height="512px" viewBox="0 0 512 512" enable-background="new 0 0 512 512" xml:space="preserve">
<path d="M442.913,193.954l-44.828-31.047l15.69-52.227c1.06-3.525,0.097-7.346-2.506-9.949c-2.603-2.602-6.424-3.566-9.948-2.506
	l-52.228,15.691l-31.047-44.829c-2.096-3.026-5.687-4.661-9.341-4.244c-3.657,0.412-6.792,2.8-8.162,6.216l-20.294,50.615
	l-54.407-3.677c-3.679-0.25-7.184,1.54-9.142,4.656s-2.047,7.056-0.229,10.257l26.918,47.424l-36.797,40.248
	c-2.483,2.716-3.274,6.577-2.059,10.05c1.216,3.474,4.241,6,7.876,6.574l31.891,5.046L67.708,418.845
	c-3.904,3.905-3.904,10.237,0,14.142l11.306,11.305c1.952,1.952,4.512,2.929,7.07,2.929c2.56,0,5.119-0.977,7.071-2.929
	L269.748,267.7l5.046,31.891c0.575,3.635,3.101,6.66,6.574,7.876c3.473,1.217,7.335,0.425,10.051-2.059l40.247-36.797l47.423,26.918
	c3.201,1.816,7.142,1.728,10.257-0.229c3.116-1.958,4.905-5.469,4.657-9.141l-3.676-54.408l50.614-20.294
	c3.416-1.37,5.804-4.505,6.216-8.162S445.939,196.049,442.913,193.954z M361.58,206.742c-4.022,1.613-6.548,5.632-6.256,9.956
	l1.851,27.401l-23.882-13.556c-3.769-2.139-8.486-1.607-11.684,1.316l-20.269,18.531l-4.293-27.124
	c-0.677-4.28-4.033-7.637-8.313-8.314l-27.125-4.293l18.531-20.268c2.925-3.198,3.456-7.916,1.317-11.685l-13.557-23.881l27.4,1.85
	c4.319,0.295,8.343-2.233,9.956-6.255l10.219-25.487l15.635,22.574c2.467,3.562,6.945,5.13,11.098,3.883l26.304-7.903l-7.903,26.304
	c-1.246,4.15,0.321,8.631,3.884,11.099l22.573,15.634L361.58,206.742z"/>
</svg>
