<?xml version="1.0" encoding="utf-8"?>
<!-- Generator: Adobe Illustrator 16.0.0, SVG Export Plug-In . SVG Version: 6.00 Build 0)  -->
<!DOCTYPE svg PUBLIC "-//W3C//DTD SVG 1.1//EN" "http://www.w3.org/Graphics/SVG/1.1/DTD/svg11.dtd">
<svg version="1.1" id="Layer_1" xmlns="http://www.w3.org/2000/svg" xmlns:xlink="http://www.w3.org/1999/xlink" x="0px" y="0px"
	 width="512px" height="512px" viewBox="0 0 512 512" enable-background="new 0 0 512 512" xml:space="preserve">
<path d="M337.544,171.226c-27.181-44.864-57.413-83.693-73.015-102.846c-2.089-2.565-5.221-4.054-8.529-4.053
	c-3.308,0-6.44,1.489-8.529,4.054c-15.602,19.159-45.834,58.001-73.015,102.869c-35.028,57.823-52.789,105.63-52.789,142.09
	c0,74.071,60.261,134.332,134.332,134.332s134.332-60.261,134.332-134.332C390.332,276.857,372.572,229.042,337.544,171.226z
	 M274.433,398.195c-7.844,2.006-15.987,3.023-24.205,3.023c-50.186,0-91.015-37.929-91.015-84.55c0-11.255,2.97-24.405,8.825-39.083
	c0.989-2.481,3.807-3.894,6.585-3.295c2.776,0.598,4.64,3.018,4.354,5.651c-0.342,3.148-0.516,6.222-0.516,9.135
	c0,50.736,40.881,93.221,95.092,98.822c2.699,0.279,4.804,2.297,5.018,4.812C278.788,395.224,277.05,397.525,274.433,398.195z"/>
</svg>
