<?xml version="1.0" encoding="utf-8"?>
<!-- Generator: Adobe Illustrator 16.0.0, SVG Export Plug-In . SVG Version: 6.00 Build 0)  -->
<!DOCTYPE svg PUBLIC "-//W3C//DTD SVG 1.1//EN" "http://www.w3.org/Graphics/SVG/1.1/DTD/svg11.dtd">
<svg version="1.1" id="Layer_1" xmlns="http://www.w3.org/2000/svg" xmlns:xlink="http://www.w3.org/1999/xlink" x="0px" y="0px"
	 width="512px" height="512px" viewBox="0 0 512 512" enable-background="new 0 0 512 512" xml:space="preserve">
<g>
	<path d="M362.291,222.685V90.479c0-7.456-6.044-13.5-13.5-13.5h-270c-7.456,0-13.5,6.044-13.5,13.5v270
		c0,7.456,6.044,13.5,13.5,13.5h155.582c7.456,0,13.5-6.044,13.5-13.5c0,0,0-100.519,0-106.146c0-8.499,6.893-18.148,19.061-18.148
		c20,0,81.857,0,81.857,0C356.247,236.185,362.291,230.141,362.291,222.685z"/>
	<path d="M433.209,259.185H284.373c-7.456,0-13.5,6.044-13.5,13.5v148.836c0,7.456,6.044,13.5,13.5,13.5h148.836
		c7.456,0,13.5-6.044,13.5-13.5V272.685C446.709,265.229,440.665,259.185,433.209,259.185z M333.832,296.064h75.998v75.998
		L333.832,296.064z M307.753,398.141v-75.998l75.997,75.998H307.753z"/>
</g>
</svg>
