<?xml version="1.0" encoding="utf-8"?>
<!-- Generator: Adobe Illustrator 16.0.0, SVG Export Plug-In . SVG Version: 6.00 Build 0)  -->
<!DOCTYPE svg PUBLIC "-//W3C//DTD SVG 1.1//EN" "http://www.w3.org/Graphics/SVG/1.1/DTD/svg11.dtd">
<svg version="1.1" id="Layer_1" xmlns="http://www.w3.org/2000/svg" xmlns:xlink="http://www.w3.org/1999/xlink" x="0px" y="0px"
	 width="512px" height="512px" viewBox="0 0 512 512" enable-background="new 0 0 512 512" xml:space="preserve">
<g>
	<path d="M294.666,207.494v-26H68.014c-5.523,0-10,4.478-10,10v129.012c0,5.522,4.477,10,10,10h226.652v-26H84.014v-97.012H294.666z
		"/>
	<path d="M443.986,181.494h-85.321v26h69.321v97.012h-69.321v26h85.321c5.522,0,10-4.478,10-10V191.494
		C453.986,185.972,449.509,181.494,443.986,181.494z"/>
	<path d="M364.076,345.434h-23.53c-0.477,0-0.88-0.402-0.88-0.879V167.447c0-0.478,0.403-0.881,0.88-0.881h23.53
		c5.523,0,10-4.478,10-10v-6c0-5.522-4.477-10-10-10h-23.53c-4.937,0-9.694,1.333-13.88,3.874
		c-4.187-2.541-8.943-3.874-13.879-3.874h-23.529c-5.523,0-10,4.478-10,10v6c0,5.522,4.477,10,10,10h23.529
		c0.477,0,0.879,0.403,0.879,0.881v177.107c0,0.477-0.402,0.879-0.879,0.879h-23.529c-5.523,0-10,4.478-10,10v6
		c0,5.522,4.477,10,10,10h23.529c4.936,0,9.693-1.333,13.879-3.874c4.187,2.541,8.944,3.874,13.88,3.874h23.53
		c5.523,0,10-4.478,10-10v-6C374.076,349.911,369.599,345.434,364.076,345.434z"/>
</g>
</svg>
