<?xml version="1.0" encoding="utf-8"?>
<!-- Generator: Adobe Illustrator 16.0.4, SVG Export Plug-In . SVG Version: 6.00 Build 0)  -->
<!DOCTYPE svg PUBLIC "-//W3C//DTD SVG 1.1//EN" "http://www.w3.org/Graphics/SVG/1.1/DTD/svg11.dtd">
<svg version="1.1" id="Capa_1" xmlns="http://www.w3.org/2000/svg" xmlns:xlink="http://www.w3.org/1999/xlink" x="0px" y="0px"
	 width="27.542px" height="22.852px" viewBox="0 0 27.542 22.852" enable-background="new 0 0 27.542 22.852" xml:space="preserve">
<g>
	<path d="M16.688,5.193c1.043,0,1.894-0.85,1.894-1.895c0-1.046-0.851-1.896-1.894-1.896c-1.047,0-1.896,0.849-1.896,1.896
		C14.792,4.344,15.641,5.193,16.688,5.193z"/>
	<path d="M8.915,3.299c0,1.045,0.849,1.895,1.893,1.895c1.047,0,1.895-0.85,1.895-1.895c0-0.371-0.108-0.715-0.292-1.008
		c0.215-0.254,1.003-1.33-0.049-2.253c0,0,0.25,1.271-0.677,1.583c-0.263-0.139-0.559-0.214-0.876-0.214
		c-0.293,0-0.571,0.066-0.819,0.188C9.026,1.3,9.282,0,9.282,0C8.232,0.922,9.014,1.994,9.23,2.252
		C9.031,2.552,8.915,2.911,8.915,3.299z"/>
	<path d="M16.688,1.261c0.875,0,1.763-0.201,1.763-0.586c0-0.771-3.521-0.771-3.521,0C14.925,1.061,15.812,1.261,16.688,1.261z
		 M16.688,0.302c1,0,1.548,0.246,1.548,0.373c0,0.126-0.547,0.373-1.548,0.373c-1.002,0-1.548-0.246-1.548-0.373
		C15.139,0.548,15.686,0.302,16.688,0.302z"/>
	<path d="M26.646,8.684c-0.309,0.522-1.415,0.735-1.839,0.744c2.131-1.212,2.733-3.624,2.733-3.624
		c-0.574,0.78-1.731,1.135-2.395,1.135c-0.609,0-1.082-0.162-1.082-0.162c-0.566-0.293-1.127-0.407-1.656-0.407
		c-0.646,0-1.248,0.173-1.773,0.409c-0.969-0.886-2.141-0.976-2.141-0.976h-3.801c-0.363,0.006-0.677,0.05-0.947,0.119
		c-0.27-0.069-0.582-0.112-0.946-0.119H9.003c0,0-1.161,0.089-2.129,0.962c-0.519-0.229-1.108-0.396-1.74-0.396
		c-0.531,0-1.09,0.113-1.658,0.407c0,0-0.471,0.162-1.082,0.162C1.733,6.939,0.575,6.584,0,5.804c0,0,0.605,2.412,2.734,3.624
		C2.31,9.419,1.205,9.205,0.894,8.685c0.109,0.326,0.677,2.365,2.162,3.057c-0.16,0.023-0.43,0.086-0.711,0.086
		c-0.343,0-0.703-0.094-0.887-0.448c0,0-0.094,1.932,2.671,1.932c0.214,0,0.448-0.012,0.699-0.037c0,0,2.256-0.355,3.707-2.422
		L8.533,21.78c0,0.596,0.482,1.074,1.074,1.074c0.588,0,1.066-0.474,1.073-1.062l0.009-0.008v-8.77h0.482l-0.001,8.758
		c0,0.598,0.482,1.079,1.08,1.079c0.596,0,1.081-0.48,1.081-1.079L13.324,8.2h0.347h0.154h0.348l-0.007,13.57
		c0,0.598,0.481,1.079,1.08,1.079c0.596,0,1.08-0.48,1.08-1.079v-8.758h0.482v8.77l0.008,0.008c0.008,0.588,0.484,1.062,1.073,1.062
		c0.595,0,1.075-0.479,1.075-1.074L18.96,10.777c1.449,2.126,3.756,2.494,3.756,2.494c0.25,0.025,0.484,0.037,0.699,0.037
		c2.765,0,2.67-1.932,2.67-1.932c-0.188,0.354-0.543,0.448-0.887,0.448c-0.281,0-0.555-0.062-0.713-0.089
		C25.97,11.049,26.539,9.009,26.646,8.684z M8.536,10.365c-1.313,2.177-3.605,2.619-3.743,2.646
		c-0.233,0.023-0.456,0.035-0.664,0.035c-0.913,0-1.583-0.216-1.991-0.646c-0.117-0.122-0.368-0.418-0.43-0.542
		c0.134,0.039,0.455,0.23,0.637,0.23c0.25,0,0.483-0.042,0.653-0.072c0.037-0.007,0.07-0.013,0.1-0.019l0.848-0.137L3.167,11.5
		C1.933,10.928,1.48,9.902,1.289,9.256C1.84,9.534,2.511,9.686,2.731,9.69l1.033,0.022L2.866,9.201
		C1.677,8.524,0.765,7.336,0.492,6.616C0.931,6.89,1.795,7.202,2.394,7.202c0.647,0,1.145-0.168,1.167-0.179L3.579,7.02l0.016-0.01
		c0.491-0.252,1.007-0.38,1.538-0.38c0.55,0,1.071,0.137,1.535,0.333l-3.08,3.079c0,0.003-0.002,0.004-0.004,0.007
		c-0.311,0.312-0.311,0.818-0.002,1.13c0.312,0.312,0.821,0.312,1.132,0c0.003-0.003,0.003-0.006,0.004-0.006h0.001L8.018,8.18
		h0.481c0.013,0.012,0.025,0.025,0.037,0.036V10.365z M24.445,11.996c0.029,0.006,0.062,0.012,0.102,0.019
		c0.17,0.031,0.402,0.072,0.65,0.072c0.184,0,0.506-0.191,0.639-0.23c-0.062,0.124-0.312,0.421-0.431,0.542
		c-0.407,0.433-1.077,0.646-1.989,0.646c-0.207,0-0.432-0.012-0.664-0.035c-0.141-0.026-2.485-0.479-3.791-2.725V8.263
		c0.022-0.025,0.054-0.052,0.086-0.083h0.436l3.297,2.994c0.002,0,0.002,0.003,0.006,0.006c0.312,0.312,0.817,0.312,1.131,0
		c0.312-0.312,0.312-0.813,0-1.13c0,0-0.006-0.003-0.006-0.007l-3.066-3.064c0.476-0.206,1.007-0.349,1.568-0.349
		c0.53,0,1.049,0.127,1.537,0.38l0.018,0.01l0.02,0.006c0.021,0.01,0.52,0.179,1.167,0.179c0.601,0,1.464-0.312,1.902-0.586
		c-0.272,0.72-1.187,1.905-2.375,2.584l-0.897,0.511l1.033-0.022c0.219-0.004,0.893-0.153,1.439-0.434
		c-0.191,0.645-0.646,1.671-1.879,2.243l-0.781,0.358L24.445,11.996z"/>
	<path d="M26.647,8.685c0.007-0.01,0.015-0.021,0.021-0.032C26.669,8.627,26.662,8.642,26.647,8.685z"/>
	<path d="M0.874,8.653C0.88,8.663,0.889,8.674,0.895,8.685C0.88,8.642,0.874,8.627,0.874,8.653z"/>
</g>
</svg>
