<?xml version="1.0" encoding="utf-8"?>
<!-- Generator: Adobe Illustrator 16.0.4, SVG Export Plug-In . SVG Version: 6.00 Build 0)  -->
<!DOCTYPE svg PUBLIC "-//W3C//DTD SVG 1.1//EN" "http://www.w3.org/Graphics/SVG/1.1/DTD/svg11.dtd">
<svg version="1.1" id="Capa_1" xmlns="http://www.w3.org/2000/svg" xmlns:xlink="http://www.w3.org/1999/xlink" x="0px" y="0px"
	 width="64px" height="64px" viewBox="0 0 64 64" enable-background="new 0 0 64 64" xml:space="preserve">
<g>
	<circle fill="#101111" cx="46.084" cy="42.725" r="6.177"/>
	<path fill="#101111" d="M55.359,31.048c-0.027-0.063-0.062-0.107-0.092-0.164c-0.021-0.078-0.043-0.159-0.068-0.256
		c-0.049-0.198-0.176-0.6-0.317-1.019c-0.142-0.444-0.313-0.867-0.507-1.371c-0.408-0.987-0.934-2.179-1.695-3.459
		c-0.76-1.28-1.726-2.663-2.938-4.045c-1.204-1.389-2.682-2.753-4.416-3.98c-0.863-0.619-1.801-1.191-2.799-1.706
		c-0.993-0.524-2.055-0.983-3.164-1.371c-1.107-0.388-2.272-0.689-3.471-0.898c-1.193-0.215-2.427-0.337-3.666-0.344
		c-1.239-0.011-2.488,0.065-3.717,0.268c-0.31,0.041-0.615,0.099-0.919,0.164l-0.457,0.094l-0.229,0.047l-0.24,0.057l-0.092,0.024
		c-0.506,0.138-0.949,0.245-1.588,0.447c-0.609,0.178-1.164,0.375-1.714,0.575c-0.553,0.203-1.101,0.43-1.643,0.664
		c-1.084,0.477-2.14,1.026-3.153,1.635c-2.017,1.241-3.852,2.738-5.387,4.405c-1.538,1.663-2.786,3.472-3.743,5.271
		c-0.959,1.801-1.651,3.585-2.135,5.252c-0.486,1.669-0.788,3.215-0.976,4.583c-0.183,1.368-0.29,2.56-0.321,3.535
		c-0.038,0.978-0.04,1.742-0.027,2.262c0.01,0.519,0.016,0.796,0.016,0.796c0.035,1.603,1.297,2.938,2.922,3.028
		c1.706,0.095,3.166-1.212,3.26-2.918l0.005-0.11c0,0,0.014-0.236,0.038-0.681c0.021-0.444,0.071-1.092,0.163-1.907
		c0.082-0.816,0.231-1.796,0.45-2.898c0.222-1.101,0.543-2.314,1-3.584c0.463-1.261,1.06-2.572,1.824-3.854
		c0.766-1.279,1.72-2.513,2.857-3.622c1.134-1.112,2.463-2.084,3.934-2.892c0.745-0.388,1.507-0.766,2.312-1.079
		c0.404-0.155,0.81-0.307,1.225-0.441c0.42-0.134,0.838-0.266,1.22-0.36c0.343-0.104,0.901-0.223,1.39-0.336l0.491-0.074
		c0.2-0.033,0.398-0.062,0.598-0.075c0.797-0.093,1.593-0.095,2.373-0.048c0.782,0.042,1.554,0.161,2.302,0.337
		c0.748,0.17,1.475,0.398,2.17,0.684c1.398,0.54,2.682,1.289,3.808,2.127c1.136,0.831,2.101,1.772,2.928,2.7
		c0.823,0.931,1.486,1.871,2.007,2.741c0.521,0.871,0.924,1.659,1.219,2.324c0.141,0.333,0.281,0.648,0.356,0.868
		c0.086,0.242,0.167,0.396,0.247,0.662c0.152,0.457,0.234,0.701,0.234,0.701c0.711,2.12,2.968,3.356,5.156,2.767
		c0.045-0.013,0.088-0.029,0.133-0.044c0.082,0.267,0.166,0.529,0.244,0.797c0.914,3.131,1.537,6.531,1.086,9.794
		c-0.396,2.864,3.981,4.103,4.383,1.209C59.05,42.447,57.677,36.455,55.359,31.048z"/>
</g>
</svg>
