<?xml version="1.0" encoding="utf-8"?>
<!-- Generator: Adobe Illustrator 16.0.4, SVG Export Plug-In . SVG Version: 6.00 Build 0)  -->
<!DOCTYPE svg PUBLIC "-//W3C//DTD SVG 1.1//EN" "http://www.w3.org/Graphics/SVG/1.1/DTD/svg11.dtd">
<svg version="1.1" id="Capa_1" xmlns="http://www.w3.org/2000/svg" xmlns:xlink="http://www.w3.org/1999/xlink" x="0px" y="0px"
	 width="64px" height="64px" viewBox="0 0 64 64" enable-background="new 0 0 64 64" xml:space="preserve">
<g>
	<path fill="#0E0F0F" d="M29.348,39.594v-2.027H18.753v4.449c0,0.217,0.014,0.385,0.039,0.52c-0.193,4.438-0.206,9.883-0.206,14.205
		c0,1.508,1.225,2.73,2.733,2.73c1.508,0,2.731-1.225,2.731-2.73c0-4.229,0.011-11.809,0.194-16.098
		c0.991,5.314,2.461,13.238,4.383,17.203c0.472,0.975,1.446,1.543,2.461,1.543c0.399,0,0.805-0.09,1.19-0.273
		c1.357-0.658,1.923-2.291,1.265-3.65C31.263,50.758,30.087,44.104,29.348,39.594z"/>
	<path fill="#0E0F0F" d="M22.872,15.549c0.185,0.803,0.045,1.629-0.393,2.327c-0.428,0.681-1.091,1.157-1.87,1.349
		c0.674,0.443,1.479,0.703,2.346,0.703c0.878,0,1.692-0.265,2.371-0.718H23.32l1.059-1.733l-1.009-1.829h3.864
		c0-2.363-1.916-4.279-4.279-4.279c-1.445,0-2.72,0.719-3.494,1.814c0.135-0.017,0.271-0.029,0.405-0.029
		C21.312,13.155,22.547,14.139,22.872,15.549z"/>
	<path fill="#0E0F0F" d="M53.66,17.359l-2.584-2.29v1.75h-3.789C45.59,6.507,39.471,4.616,39.17,4.53l-0.273,0.955
		c0.068,0.019,5.715,1.766,7.377,11.334h-18.43l-0.372-0.681H24.6l0.707,1.283L24.6,18.579h2.871l0.307-0.681h18.662
		c0.121,0.903,0.207,1.871,0.252,2.905c-0.355-0.199-0.764-0.322-1.199-0.322h-21.44c-0.208,0-0.407,0.033-0.601,0.081
		c-1.828,0.207-3.372,1.349-4.152,2.935c-2.853-2.435-2.843-3.45-2.845-3.45c0.003-0.007,0.408-0.79,3.468-1.491
		c1.208-0.277,1.962-1.48,1.685-2.688c-0.276-1.208-1.481-1.959-2.688-1.685c-1.487,0.341-6.013,1.38-6.828,4.823
		c-0.774,3.272,2.313,6.273,4.703,8.246c0.417,0.345,0.923,0.513,1.427,0.513c0.18,0,0.357-0.027,0.533-0.069v8.677h10.595V25.824
		c0-0.127-0.011-0.251-0.02-0.376H45.49c0.418,0,0.805-0.113,1.15-0.294C45.768,37.5,38.922,40.43,38.85,40.459l0.369,0.924
		c0.334-0.135,7.932-3.336,8.475-17.293c0.176-0.339,0.281-0.718,0.281-1.126c0-0.391-0.1-0.755-0.26-1.084
		c-0.021-1.441-0.115-2.766-0.271-3.982h3.635v1.75L53.66,17.359z"/>
</g>
</svg>
