<?xml version="1.0" encoding="utf-8"?>
<!-- Generator: Adobe Illustrator 16.0.4, SVG Export Plug-In . SVG Version: 6.00 Build 0)  -->
<!DOCTYPE svg PUBLIC "-//W3C//DTD SVG 1.1//EN" "http://www.w3.org/Graphics/SVG/1.1/DTD/svg11.dtd">
<svg version="1.1" id="Capa_1" xmlns="http://www.w3.org/2000/svg" xmlns:xlink="http://www.w3.org/1999/xlink" x="0px" y="0px"
	 width="64px" height="64px" viewBox="0 0 64 64" enable-background="new 0 0 64 64" xml:space="preserve">
<g>
	<path fill="#0E0F0F" d="M22.18,18.711c-2.279,0.163-4.558,0.325-6.837,0.488c-0.095,0.007-0.186,0.022-0.269,0.046
		c-0.533,0-1.058,0.187-1.411,0.61c-0.904,1.086-1.808,2.18-2.601,3.353c-0.291,0.43-0.341,0.948-0.231,1.436
		c-0.003,0.056-0.009,0.11-0.005,0.171c0.182,2.743,0.535,5.466,1.183,8.14c0.372,1.529,2.726,0.88,2.354-0.649
		c-0.408-1.682-0.684-3.378-0.875-5.089c1.509,0.98,3.05,1.906,4.658,2.723c1.4,0.712,2.636-1.396,1.231-2.108
		c-1.591-0.809-3.119-1.727-4.614-2.696c0.568-0.823,1.1-1.457,1.852-2.359c0.313-0.375,0.503-0.817,0.561-1.266
		c1.668-0.119,3.336-0.238,5.005-0.357C23.74,21.041,23.752,18.598,22.18,18.711z"/>
	<circle fill="#0E0F0F" cx="17.215" cy="16.656" r="2.075"/>
	<path fill="#0E0F0F" d="M47.984,31.081c1.742-0.466,3.441-1.052,5.123-1.698c-0.543,1.634-1.166,3.236-1.914,4.797
		c-0.682,1.42,1.488,2.545,2.168,1.123c1.188-2.479,2.101-5.07,2.848-7.716c0.018-0.058,0.021-0.112,0.029-0.168
		c0.21-0.454,0.268-0.972,0.072-1.453c-0.533-1.311-1.189-2.569-1.851-3.819c-0.256-0.484-0.729-0.776-1.248-0.888
		c-0.078-0.041-0.163-0.076-0.258-0.103c-2.196-0.632-4.392-1.264-6.587-1.896c-1.516-0.436-2.012,1.956-0.508,2.389
		c1.606,0.461,3.216,0.925,4.822,1.388c-0.037,0.451,0.057,0.923,0.284,1.354c0.55,1.041,0.938,1.769,1.323,2.691
		c-1.664,0.639-3.35,1.219-5.075,1.68C45.695,29.169,46.468,31.485,47.984,31.081z"/>
	<circle fill="#0E0F0F" cx="51.652" cy="18.279" r="2.076"/>
	<path fill="#0E0F0F" d="M46.887,14.994c-0.432,0.431-0.521,1.31,0,1.727c0.694,0.555,1.391,1.112,2.139,1.594
		c-0.385-0.258,0.25-1.97,1.232-2.108c-0.64-0.412-1.078-0.76-1.645-1.213C48.094,14.579,47.396,14.485,46.887,14.994z"/>
	<polygon fill="#0E0F0F" points="60.723,56.543 47.068,38.338 46.598,38.698 60.723,56.645 61.436,57.548 61.436,57.493 	"/>
	<path fill="#0E0F0F" d="M60.723,39.57l-6.558-3.945c-0.015,0.029-0.026,0.059-0.041,0.088c-0.058,0.122-0.13,0.232-0.207,0.337
		l6.806,3.964V39.57z"/>
	<path fill="#0E0F0F" d="M50.684,33.979c0.058-0.113,0.108-0.232,0.164-0.353l-2.836-1.705c-0.033,0.005-0.068,0.005-0.102,0.007
		l-0.273,0.461l2.984,1.741C50.641,34.078,50.659,34.027,50.684,33.979z"/>
	<polygon fill="#0E0F0F" points="41.999,39.029 52.044,59.977 42.268,38.904 	"/>
	<polygon fill="#0E0F0F" points="29.695,42.145 30.439,61.465 29.993,42.135 	"/>
	<polygon fill="#0E0F0F" points="20.626,37.074 3.286,53.236 20.828,37.293 	"/>
	<path fill="#0E0F0F" d="M3.286,32.333v0.161l7.882-0.524c-0.016-0.074-0.031-0.148-0.045-0.224L3.286,32.333z"/>
	<path fill="#0E0F0F" d="M19.924,31.089l-4.93,0.369c0.02,0.085,0.04,0.169,0.06,0.253l4.891-0.325L19.924,31.089z"/>
	<path fill="#0E0F0F" d="M3.286,26.585v0.141l7.22,1.096c-0.008-0.071-0.016-0.142-0.025-0.213L3.286,26.585z"/>
	<path fill="#0E0F0F" d="M17.294,23.318l3.249,2.604l0.366-0.468l-3.333-2.54C17.493,23.053,17.401,23.187,17.294,23.318z"/>
	<path fill="#0E0F0F" d="M13.191,19.574l-9.905-7.543L1.7,10.823l1.585,1.27l9.679,7.755C13.041,19.755,13.116,19.664,13.191,19.574
		z"/>
	<path fill="#0E0F0F" d="M23.347,18.361l-8.802-13.92h-0.071l8.444,13.74C23.07,18.225,23.216,18.282,23.347,18.361z"/>
	<path fill="#0E0F0F" d="M24.169,20.216l0.251-0.156l-0.265-0.42c0.011,0.077,0.026,0.152,0.029,0.233
		c0.003,0.114-0.002,0.228-0.017,0.342L24.169,20.216z"/>
	<polygon fill="#0E0F0F" points="33.783,4.441 33.676,4.441 33.58,14.75 33.877,14.75 	"/>
	<polygon fill="#0E0F0F" points="29.163,15.753 25.392,4.441 25.311,4.441 28.881,15.844 	"/>
	<polygon fill="#0E0F0F" points="25.435,18.134 25.702,18.005 18.978,4.441 18.524,3.53 18.956,4.441 	"/>
	<polygon fill="#0E0F0F" points="21.214,18.186 19.689,15.108 21.147,18.19 	"/>
	<polygon fill="#0E0F0F" points="38.6,21.711 52.044,4.441 38.135,21.34 	"/>
	<path fill="#0E0F0F" d="M42.318,19.258l0.404,0.436l3.303-3.155c-0.039-0.132-0.066-0.27-0.075-0.415
		c-0.002-0.051-0.001-0.101,0-0.152L42.318,19.258z"/>
	<path fill="#0E0F0F" d="M48.504,14.168l10.041-9.596l-10.49,9.493C48.206,14.086,48.355,14.115,48.504,14.168z"/>
	<path fill="#0E0F0F" d="M54.529,18.78l5.244-2.805l-5.229,2.688C54.541,18.702,54.535,18.74,54.529,18.78z"/>
	<polygon fill="#0E0F0F" points="46.705,22.693 43.451,24.366 43.589,24.63 47.034,22.788 	"/>
	<polygon fill="#0E0F0F" points="20.574,22.088 19.784,22.146 20.554,22.874 20.958,22.438 	"/>
	<path fill="#0E0F0F" d="M14.603,17.241c-0.027-0.156-0.043-0.316-0.043-0.48c0-0.051,0.004-0.1,0.008-0.15L3.286,6.324L1.67,4.851
		l-0.005,0.14l1.621,1.536L14.603,17.241z"/>
	<polygon fill="#0E0F0F" points="27.793,16.906 20.586,4.441 20.447,4.441 27.534,17.053 	"/>
	<polygon fill="#0E0F0F" points="32.36,15.922 27.876,4.441 27.69,4.441 32.084,16.029 	"/>
	<polygon fill="#0E0F0F" points="42.382,4.441 42.247,4.441 37.039,17.315 37.316,17.424 	"/>
	<polygon fill="#0E0F0F" points="3.286,41.689 20.06,34.083 19.808,33.544 3.286,41.586 	"/>
	<polygon fill="#0E0F0F" points="22.558,53.238 24.589,41.391 24,41.303 	"/>
	<polygon fill="#0E0F0F" points="25.155,61.878 25.36,61.878 28.527,42.74 27.375,42.58 	"/>
	<polygon fill="#0E0F0F" points="36.043,42.175 41.141,61.878 41.238,61.878 36.331,42.102 	"/>
	<polygon fill="#0E0F0F" points="39.713,39.833 47.727,61.878 47.797,61.878 39.993,39.732 	"/>
	<polygon fill="#0E0F0F" points="33.729,42.833 37.967,61.878 38.075,61.878 34.02,42.77 	"/>
	<path fill="#0E0F0F" d="M50.854,25.554l-3.768-0.015v0.298l3.907-0.015C50.948,25.733,50.902,25.645,50.854,25.554z"/>
	<path fill="#0E0F0F" d="M57.09,25.798l3.635-0.014v-0.193h-0.002l-3.729-0.015C57.023,25.65,57.059,25.724,57.09,25.798z"/>
	<polygon fill="#0E0F0F" points="13.539,55.245 13.684,55.323 22.117,39.904 21.856,39.762 	"/>
	<path fill="#0E0F0F" d="M60.723,29.612l-3.951-0.896c-0.047,0.161-0.096,0.322-0.145,0.48l4.096,0.854V29.612z"/>
	<path fill="#0E0F0F" d="M51.902,31.132l-0.448-0.242c-0.249,0.087-0.496,0.17-0.74,0.251l0.987,0.509
		C51.77,31.48,51.835,31.306,51.902,31.132z"/>
	<path fill="#0E0F0F" d="M60.723,35.884l-5.406-2.911c-0.06,0.151-0.121,0.301-0.184,0.451l5.59,2.889V35.884z"/>
	<polygon fill="#0E0F0F" points="60.723,43.691 48.555,35.869 48.395,36.12 60.723,43.893 	"/>
	<path fill="#0E0F0F" d="M36.512,32.71c-0.148,0.823-0.367,1.636-0.604,2.409c1.384,0.59,2.736,1.247,4.072,1.954
		c1.402,0.739,2.646-1.384,1.242-2.125C39.684,34.136,38.116,33.379,36.512,32.71z"/>
	<path fill="#0E0F0F" d="M35.036,36.65c0.87-2.729,1.981-5.989,0.433-8.669c-0.021-0.036-0.047-0.063-0.068-0.096
		c-0.026-0.31-0.102-0.606-0.233-0.87c0.083,0.01,0.165,0.026,0.251,0.026c1.158,0,2.098-0.938,2.098-2.096
		c0-1.158-0.938-2.097-2.098-2.097s-2.098,0.939-2.098,2.097c0,0.374,0.104,0.72,0.277,1.023c-0.309-0.028-0.63,0.012-0.937,0.116
		c-0.024-0.017-0.043-0.037-0.069-0.054c-1.806-1.136-3.537-2.362-5.165-3.744c-1.201-1.019-2.951,0.712-1.739,1.74
		c1.753,1.489,3.61,2.83,5.553,4.059c-0.15,0.829-0.346,1.649-0.566,2.463c-1.79-0.561-3.529-1.317-5.43-1.384
		c-0.654-0.023-1.254,0.577-1.231,1.231c0.062,1.682,0.592,3.214,1.316,4.721c0.688,1.428,2.808,0.181,2.125-1.241
		c-0.318-0.665-0.59-1.343-0.768-2.046c1.7,0.385,3.332,1.21,5.037,1.535c0.015,0.004,0.029,0.002,0.043,0.004
		c0.482,0.192,1.031,0.413,1.135,0.446c0.236-0.787,0.438-1.584,0.543-2.378c0.104-0.102,0.22-0.183,0.339-0.25
		c-0.06,1.628-0.636,3.287-1.121,4.811C32.181,37.512,34.557,38.156,35.036,36.65z"/>
</g>
</svg>
