<?xml version="1.0" encoding="utf-8"?>
<!-- Generator: Adobe Illustrator 16.0.4, SVG Export Plug-In . SVG Version: 6.00 Build 0)  -->
<!DOCTYPE svg PUBLIC "-//W3C//DTD SVG 1.1//EN" "http://www.w3.org/Graphics/SVG/1.1/DTD/svg11.dtd">
<svg version="1.1" id="Capa_1" xmlns="http://www.w3.org/2000/svg" xmlns:xlink="http://www.w3.org/1999/xlink" x="0px" y="0px"
	 width="64px" height="64px" viewBox="0 0 64 64" enable-background="new 0 0 64 64" xml:space="preserve">
<g>
	<path fill="#0E0F0F" d="M40.285,39.843c-0.742-2.948-2.424-5.282-4.996-6.698c0.049-0.187,0.082-0.384,0.082-0.604
		c0-1.432,0-2.863,0-4.295c1.5-0.488,3.001-0.975,4.502-1.462c1.293-0.42,0.738-2.463-0.562-2.04
		c-1.449,0.47-2.896,0.94-4.347,1.411l-1.621,1.361c0,0-1.305-1.34-1.379-1.301c-1.574-0.383-3.146-0.766-4.719-1.149
		c-1.326-0.322-1.888,1.718-0.563,2.04c1.397,0.341,2.794,0.681,4.192,1.021c0,1.461,0,2.92,0,4.38c0,0.229,0.036,0.433,0.087,0.624
		c-2.586,1.413-4.276,3.754-5.021,6.712c-0.417,1.654,2.134,2.356,2.55,0.702c0.609-2.418,1.981-4.473,4.367-5.424
		c0.094-0.037,0.179-0.082,0.256-0.133c0.078,0.051,0.162,0.096,0.257,0.133c2.385,0.951,3.757,3.006,4.366,5.424
		c0.242,0.963,1.205,1.124,1.888,0.768l6.169,16.975h0.062L39.83,41.184C40.203,40.898,40.436,40.434,40.285,39.843z M33.145,30.905
		c-0.172,0-0.309-0.139-0.309-0.309c0-0.171,0.137-0.309,0.309-0.309c0.17,0,0.31,0.138,0.31,0.309
		C33.453,30.766,33.314,30.905,33.145,30.905z M33.145,30c-0.172,0-0.309-0.138-0.309-0.308c0-0.171,0.137-0.309,0.309-0.309
		c0.17,0,0.31,0.138,0.31,0.309C33.453,29.862,33.314,30,33.145,30z"/>
	<circle fill="#0E0F0F" cx="33.419" cy="24.424" r="1.918"/>
	<path fill="#0E0F0F" d="M23.438,20.51c-1.995,0.142-3.989,0.285-5.983,0.428c-0.084,0.006-0.162,0.02-0.235,0.041
		c-0.466,0-0.926,0.164-1.235,0.534c-0.791,0.951-1.582,1.908-2.276,2.933c-0.254,0.376-0.298,0.829-0.202,1.256
		c-0.003,0.049-0.008,0.097-0.005,0.15c0.159,2.4,0.468,4.782,1.035,7.123c0.325,1.338,2.385,0.771,2.06-0.567
		c-0.357-1.472-0.598-2.956-0.766-4.452c1.321,0.857,2.669,1.668,4.076,2.382c1.225,0.624,2.307-1.22,1.078-1.845
		c-1.393-0.708-2.729-1.511-4.038-2.359c0.497-0.719,0.963-1.274,1.621-2.064c0.274-0.328,0.441-0.714,0.49-1.106
		c1.46-0.104,2.92-0.209,4.38-0.313C24.803,22.549,24.813,20.412,23.438,20.51z"/>
	<circle fill="#0E0F0F" cx="19.093" cy="18.712" r="1.816"/>
	<path fill="#0E0F0F" d="M46.02,31.335c1.523-0.408,3.014-0.921,4.481-1.486c-0.476,1.43-1.021,2.833-1.675,4.198
		c-0.596,1.242,1.303,2.225,1.898,0.982c1.041-2.17,1.836-4.438,2.488-6.751c0.016-0.052,0.021-0.099,0.025-0.147
		c0.185-0.397,0.234-0.851,0.062-1.271c-0.466-1.147-1.041-2.248-1.617-3.343c-0.226-0.426-0.642-0.682-1.098-0.778
		c-0.066-0.035-0.141-0.065-0.221-0.088c-1.922-0.553-3.844-1.107-5.766-1.66c-1.324-0.382-1.76,1.711-0.442,2.09
		c1.405,0.405,2.813,0.81,4.22,1.215c-0.033,0.395,0.051,0.808,0.25,1.185c0.479,0.908,0.818,1.549,1.156,2.356
		c-1.456,0.558-2.93,1.066-4.439,1.47C44.016,29.662,44.689,31.69,46.02,31.335z"/>
	<circle fill="#0E0F0F" cx="49.229" cy="20.133" r="1.816"/>
	<path fill="#0E0F0F" d="M45.057,17.258c-0.377,0.378-0.455,1.146,0,1.511c0.608,0.487,1.219,0.974,1.873,1.396
		c-0.337-0.227,0.219-1.724,1.078-1.845c-0.56-0.361-0.943-0.666-1.439-1.062C46.113,16.895,45.503,16.812,45.057,17.258z"/>
	<polygon fill="#0E0F0F" points="57.164,53.617 45.217,37.686 44.805,38.003 57.164,53.703 57.788,54.495 57.788,54.449 	"/>
	<path fill="#0E0F0F" d="M57.164,38.764l-5.737-3.451c-0.012,0.024-0.022,0.053-0.036,0.076c-0.051,0.106-0.113,0.203-0.181,0.295
		l5.954,3.469V38.764z"/>
	<path fill="#0E0F0F" d="M48.38,33.871c0.05-0.102,0.095-0.205,0.144-0.309l-2.479-1.493c-0.028,0.004-0.06,0.004-0.089,0.006
		l-0.239,0.404l2.612,1.521C48.343,33.959,48.357,33.914,48.38,33.871z"/>
	<polygon fill="#0E0F0F" points="40.779,38.292 49.57,56.621 41.016,38.182 	"/>
	<polygon fill="#0E0F0F" points="30.014,41.016 30.665,57.923 30.274,41.007 	"/>
	<polygon fill="#0E0F0F" points="22.078,36.579 6.903,50.725 22.254,36.771 	"/>
	<path fill="#0E0F0F" d="M6.903,32.431v0.141l6.898-0.458c-0.014-0.065-0.027-0.131-0.04-0.195L6.903,32.431z"/>
	<path fill="#0E0F0F" d="M21.463,31.343l-4.314,0.322c0.017,0.075,0.035,0.147,0.052,0.222l4.28-0.285L21.463,31.343z"/>
	<path fill="#0E0F0F" d="M6.903,27.401v0.124l6.318,0.959c-0.007-0.062-0.014-0.124-0.021-0.187L6.903,27.401z"/>
	<path fill="#0E0F0F" d="M19.162,24.542l2.843,2.279l0.32-0.41l-2.917-2.221C19.336,24.31,19.256,24.428,19.162,24.542z"/>
	<path fill="#0E0F0F" d="M15.373,21.505c0.067-0.082,0.133-0.16,0.199-0.239l-8.668-6.602l-1.387-1.057l1.387,1.113L15.373,21.505z"
		/>
	<path fill="#0E0F0F" d="M24.458,20.204l-7.702-12.18h-0.063l7.39,12.024C24.218,20.085,24.344,20.135,24.458,20.204z"/>
	<path fill="#0E0F0F" d="M25.178,21.828l0.22-0.137l-0.232-0.366c0.01,0.068,0.023,0.133,0.026,0.204
		c0.003,0.099-0.002,0.199-0.015,0.298L25.178,21.828z"/>
	<polygon fill="#0E0F0F" points="33.59,8.023 33.496,8.023 33.413,17.044 33.673,17.044 	"/>
	<polygon fill="#0E0F0F" points="29.548,17.922 26.248,8.023 26.177,8.023 29.301,18.002 	"/>
	<polygon fill="#0E0F0F" points="26.285,20.007 26.52,19.893 20.635,8.023 20.239,7.227 20.617,8.023 	"/>
	<polygon fill="#0E0F0F" points="22.592,20.05 21.257,17.358 22.534,20.055 	"/>
	<polygon fill="#0E0F0F" points="37.805,23.136 49.57,8.023 37.398,22.811 	"/>
	<path fill="#0E0F0F" d="M41.061,20.99l0.354,0.381l2.89-2.762c-0.033-0.115-0.058-0.236-0.063-0.362
		c-0.003-0.045-0.003-0.089,0-0.134L41.061,20.99z"/>
	<path fill="#0E0F0F" d="M46.473,16.537L55.26,8.14l-9.18,8.308C46.212,16.463,46.344,16.49,46.473,16.537z"/>
	<path fill="#0E0F0F" d="M51.744,20.571l4.59-2.454l-4.574,2.352C51.756,20.503,51.75,20.537,51.744,20.571z"/>
	<polygon fill="#0E0F0F" points="44.898,23.996 42.051,25.46 42.172,25.69 45.188,24.079 	"/>
	<polygon fill="#0E0F0F" points="22.032,23.467 21.341,23.516 22.014,24.154 22.369,23.773 	"/>
	<path fill="#0E0F0F" d="M16.807,19.223c-0.024-0.136-0.038-0.276-0.038-0.42c0-0.043,0.004-0.087,0.007-0.131L6.903,9.67
		L5.49,8.382L5.485,8.505l1.418,1.342L16.807,19.223z"/>
	<polygon fill="#0E0F0F" points="28.35,18.931 22.043,8.023 21.921,8.023 28.123,19.06 	"/>
	<polygon fill="#0E0F0F" points="32.346,18.071 28.422,8.023 28.26,8.023 32.104,18.164 	"/>
	<polygon fill="#0E0F0F" points="41.117,8.023 40.998,8.023 36.439,19.289 36.684,19.386 	"/>
	<polygon fill="#0E0F0F" points="6.903,40.62 21.583,33.962 21.361,33.491 6.903,40.527 	"/>
	<polygon fill="#0E0F0F" points="23.768,50.725 25.545,40.355 25.031,40.279 	"/>
	<polygon fill="#0E0F0F" points="26.041,58.285 26.22,58.285 28.992,41.538 27.983,41.396 	"/>
	<polygon fill="#0E0F0F" points="35.568,41.043 40.029,58.285 40.115,58.285 35.818,40.979 	"/>
	<polygon fill="#0E0F0F" points="33.543,41.62 37.252,58.285 37.348,58.285 33.799,41.564 	"/>
	<path fill="#0E0F0F" d="M48.529,26.498l-3.297-0.012v0.26l3.418-0.013C48.611,26.655,48.57,26.579,48.529,26.498z"/>
	<path fill="#0E0F0F" d="M53.984,26.713l3.18-0.012v-0.17L53.9,26.519C53.927,26.584,53.958,26.647,53.984,26.713z"/>
	<polygon fill="#0E0F0F" points="15.876,52.48 16.002,52.55 23.383,39.057 23.154,38.932 	"/>
	<path fill="#0E0F0F" d="M53.708,29.266c-0.042,0.141-0.084,0.281-0.127,0.42l3.583,0.748v-0.385L53.708,29.266z"/>
	<path fill="#0E0F0F" d="M49.445,31.381l-0.391-0.211c-0.22,0.075-0.437,0.147-0.648,0.218l0.863,0.446
		C49.33,31.684,49.389,31.533,49.445,31.381z"/>
	<path fill="#0E0F0F" d="M52.273,33.385l4.893,2.526v-0.373h-0.001l-4.729-2.549C52.382,33.124,52.329,33.255,52.273,33.385z"/>
	<polygon fill="#0E0F0F" points="57.164,42.371 46.518,35.525 46.377,35.744 57.164,42.547 	"/>
</g>
</svg>
