<?xml version="1.0" encoding="utf-8"?>
<!-- Generator: Adobe Illustrator 16.0.4, SVG Export Plug-In . SVG Version: 6.00 Build 0)  -->
<!DOCTYPE svg PUBLIC "-//W3C//DTD SVG 1.1//EN" "http://www.w3.org/Graphics/SVG/1.1/DTD/svg11.dtd">
<svg version="1.1" id="Capa_1" xmlns="http://www.w3.org/2000/svg" xmlns:xlink="http://www.w3.org/1999/xlink" x="0px" y="0px"
	 width="64px" height="64px" viewBox="0 0 64 64" enable-background="new 0 0 64 64" xml:space="preserve">
<g>
	<path fill="#0E0F0F" d="M53.475,52.206c0.674-0.539,0.945-1.474,0.594-2.308c-2.408-5.717-5.496-11.056-7.366-14.098
		c0.688-5.691-1.188-9.336-4.854-13.931c-1.146-1.438-3.56-1.211-4.76-0.025c-0.271,0.266-0.479,0.552-0.633,0.851h-7.928
		l-0.032-0.114h0.66l-0.924-1.708h-5.182v1.708h4.127l0.146,0.507c-0.486,0.36-0.806,0.933-0.806,1.585
		c0,1.094,0.886,1.979,1.979,1.979H37.1c0.44,0.555,0.849,1.145,1.217,1.759c-2.045,1.308-4.074,2.643-6.137,3.921
		c-0.369,0.228-0.607,0.519-0.755,0.834c-0.946,0.306-1.639,1.185-1.639,2.229c0,1.101,0.755,2.022,1.774,2.281v1.25
		c-1.019,0.262-1.774,1.184-1.774,2.281c0,1.3,1.057,2.355,2.356,2.355v-0.559c-0.992,0-1.797-0.808-1.797-1.798
		c0-0.991,0.805-1.795,1.797-1.795c0.99,0,1.796,0.804,1.796,1.795h0.559c0-1.106-0.766-2.033-1.794-2.288v-1.236
		c0.979-0.238,1.712-1.093,1.78-2.127c1.815-1.133,3.606-2.302,5.406-3.458c0.353,1.361,0.469,2.769,0.269,4.174
		c-2.703,4.349-3.856,9.434-3.343,14.843c0.041,0.417,0.213,0.786,0.465,1.087H24.981c0.345-0.045,0.682-0.171,0.983-0.389
		c0.971-0.697,1.192-2.049,0.492-3.02l-4.762-6.619c0.251-1.337,0.895-3.521,2.138-4.978c0.734-0.326,1.379-0.874,1.796-1.56
		c0.262-0.344,0.416-0.755,0.444-1.181c0.123-0.717,0.011-1.506-0.445-2.311c-1.812-3.2-3.991-6.139-6.283-9.007
		c-1.219-1.527-3.808-1.234-5.06,0.03c-0.029,0.03-0.053,0.061-0.081,0.091H5.104V9.462H1.593v42.744v2.269h3.511h56.563v-2.269
		H53.475z M32.141,38.854H32.12v-1.098h0.021V38.854z M32.141,37.195c-0.992,0-1.797-0.805-1.797-1.797
		c0-0.666,0.371-1.242,0.912-1.553c-0.07,1.307,1.176,2.653,2.598,2.063C33.632,36.652,32.951,37.195,32.141,37.195z M5.104,52.205
		V31.968h2.34v-2.865h-2.34v-2.327h8.399c0.177,0.513,0.454,1.007,0.813,1.457c1.467,1.833,3.353,4.375,5.157,7.563
		c0.009,0.017,0.018,0.029,0.026,0.042c-1.844,3.023-2.206,6.48-2.226,6.688c-0.051,0.521,0.091,1.047,0.398,1.474l5.272,7.328
		c0.384,0.532,0.968,0.825,1.576,0.878H5.104z M40.297,52.206c0.331-0.394,0.512-0.911,0.458-1.463
		c-0.44-4.636,0.509-8.821,2.818-12.47c1.821,2.988,4.641,7.92,6.847,13.162c0.131,0.312,0.337,0.57,0.585,0.771H40.297z"/>
	<circle fill="#0E0F0F" cx="12.341" cy="18.97" r="3.282"/>
	<path fill="#0E0F0F" d="M32.364,16.174c-0.046,0.237-0.071,0.478-0.071,0.727c0,2.077,1.684,3.76,3.76,3.76
		c2.075,0,3.762-1.683,3.762-3.76c0-0.249-0.026-0.49-0.072-0.727H32.364z"/>
	<polygon fill="#0E0F0F" points="39.812,15.687 39.812,12.956 30.596,11.783 32.056,15.327 30.596,15.687 30.596,16.174 
		32.203,15.687 	"/>
</g>
</svg>
