<?xml version="1.0" encoding="utf-8"?>
<!-- Generator: Adobe Illustrator 16.0.4, SVG Export Plug-In . SVG Version: 6.00 Build 0)  -->
<!DOCTYPE svg PUBLIC "-//W3C//DTD SVG 1.1//EN" "http://www.w3.org/Graphics/SVG/1.1/DTD/svg11.dtd">
<svg version="1.1" id="Capa_1" xmlns="http://www.w3.org/2000/svg" xmlns:xlink="http://www.w3.org/1999/xlink" x="0px" y="0px"
	 width="64px" height="64px" viewBox="0 0 64 64" enable-background="new 0 0 64 64" xml:space="preserve">
<g>
	<circle fill="#0E0F0F" cx="6.15" cy="30.876" r="1.618"/>
	<path fill="#0E0F0F" d="M15.569,26.13l0.473,1.314l0.349-0.967c0.167,0.068,0.341,0.137,0.521,0.208l0.379,1.055l0.288-0.796
		c0.227,0.087,0.456,0.175,0.681,0.26l0.404,1.123l0.307-0.851c0.739,0.281,1.373,0.528,1.687,0.678l-0.042,0.405l-0.878,0.279
		l0.818,0.329l-0.069,0.683l-0.749,0.239l0.696,0.28l-0.063,0.628l-1.07,0.342l0.996,0.401l-0.085,0.846
		c0.341,0.189,3.527-2.239,7.73-4.328l7.182,1.466c0.354,0.09,0.716-0.124,0.808-0.479l-3.735-2.777
		c1.556-0.525,3.161-0.907,4.75-1.037c0.705,0.116,5.337-0.732,6.773,2.747c0.006,0.003,0.008,0.008,0.014,0.013l-1.188,4.481
		c-0.147,0.334,0.002,0.725,0.336,0.873l3.358-3.224l-0.02-0.029l4.463-0.985c0.064-0.36-0.177-0.703-0.537-0.766L45.98,27.44
		c-0.004-0.011-0.008-0.023-0.017-0.035c-0.312-0.718-3.58-4.014-4.892-4.914c-1.311-0.917-2.739-1.768-4.312-2.407
		c-1.562-0.646-3.252-1.104-4.967-1.306c-0.711-0.09-1.427-0.129-2.138-0.128l-1.629-4.324c-0.343-0.13-0.726,0.043-0.855,0.387
		l-1.666,4.422c-1.234,0.284-2.424,0.675-3.552,1.157c-0.74,0.327-1.448,0.705-2.091,1.179c-0.645,0.47-5.903,3.739-4.943,4.335
		C15.065,25.894,15.292,26.006,15.569,26.13z M22.806,24.548c0.201,0.235,0.372,0.486,0.516,0.753
		c0.143,0.266,0.256,0.549,0.339,0.848c0.078,0.3,0.133,0.615,0.105,0.972c-0.314-0.175-0.545-0.396-0.75-0.629
		c-0.202-0.235-0.373-0.486-0.515-0.753c-0.141-0.267-0.256-0.549-0.338-0.848c-0.079-0.302-0.134-0.616-0.107-0.972
		C22.369,24.095,22.598,24.315,22.806,24.548z M21.796,25.346c0.202,0.235,0.373,0.487,0.514,0.753
		c0.145,0.267,0.258,0.548,0.341,0.847c0.08,0.301,0.135,0.615,0.105,0.973c-0.314-0.175-0.544-0.396-0.75-0.629
		c-0.202-0.235-0.373-0.486-0.515-0.753c-0.141-0.267-0.256-0.549-0.338-0.848c-0.078-0.301-0.133-0.614-0.106-0.972
		C21.358,24.893,21.589,25.113,21.796,25.346z M19.526,24.44c0.266,0,0.479,0.214,0.479,0.48c0,0.265-0.213,0.479-0.479,0.479
		c-0.265,0-0.479-0.214-0.479-0.479C19.047,24.654,19.261,24.44,19.526,24.44z"/>
	<path fill="#0E0F0F" d="M57.411,31.461c-2.054-1.509-4.315-1.959-6.052-1.206c-0.062,0.026-0.092,0.089-0.078,0.153
		c0.012,0.063,0.066,0.108,0.132,0.109c2.592,0.03,3.875,5.099,4.285,7.135c-1.421-2.256-3.099-1.518-3.116-1.508
		c-0.04,0.018-0.068,0.055-0.077,0.1c-0.008,0.044,0.007,0.087,0.034,0.12c1.154,1.186,1.65,2.426,1.475,3.688
		c-0.322,2.3-2.789,4.048-3.525,4.522c-0.198-0.592-0.893-2.156-2.664-2.156H47.71l-0.021,0.111
		c-0.235,1.336-1.625,1.912-2.193,2.094c-0.173-0.543-0.852-2.205-2.682-2.205h-0.112l-0.021,0.111
		c-0.238,1.336-1.621,1.91-2.191,2.094c-0.146-0.487-0.813-2.253-2.694-2.253H37.68l-0.02,0.11
		c-0.236,1.338-1.626,1.914-2.192,2.096c-0.173-0.543-0.854-2.206-2.682-2.206h-0.113l-0.021,0.11
		c-0.237,1.338-1.628,1.914-2.195,2.096c-0.198-0.59-0.892-2.158-2.666-2.158h-0.114l-0.02,0.111
		c-0.237,1.336-1.625,1.912-2.193,2.094c-0.173-0.543-0.852-2.205-2.682-2.205H22.67l-0.021,0.111
		c-0.25,1.414-1.789,1.977-2.282,2.121v-0.504H9.396c0.219-0.16,0.355-0.424,0.335-0.713c-0.069-1.002-0.319-2.004-0.74-3.045
		c0.476-0.496,0.989-1.068,1.54-1.721c0.619,1.086,1.349,2.191,1.388,2.251c0.153,0.231,0.412,0.365,0.678,0.365
		c0.091,0,0.185-0.019,0.275-0.05l2.427-0.867c0.423-0.152,0.642-0.617,0.492-1.041c-0.153-0.424-0.618-0.643-1.041-0.491
		l-1.817,0.651c-0.266-0.418-0.642-1.021-0.979-1.609c0.105-0.178,0.177-0.387,0.194-0.634c0.091-1.312-0.415-2.623-1.171-3.734
		l2.257,0.257c0.031,0.004,0.061,0.006,0.092,0.006c0.41,0,0.761-0.31,0.808-0.725c0.051-0.447-0.271-0.851-0.717-0.9l-4.278-0.482
		c-0.415-0.144-0.841-0.054-1.186,0.167c-0.2,0.037-0.386,0.147-0.513,0.325c-0.822,1.149-1.652,2.396-2.457,3.602
		c-0.249,0.376-0.147,0.882,0.226,1.132c0.138,0.09,0.295,0.137,0.45,0.137c0.262,0,0.521-0.127,0.678-0.364
		c0.541-0.81,1.093-1.636,1.645-2.438c0.561,0.565,1.012,1.198,1.252,1.979c0.046,0.149,0.079,0.306,0.113,0.46
		c0.012,0.059,0.019,0.081,0.022,0.094c0,0.021,0.002,0.059,0.007,0.131c0.008,0.11,0.012,0.228,0.004,0.34
		c-0.005,0.097,0,0.186,0.009,0.271c-0.694,0.824-1.331,1.532-1.895,2.098c-0.139,0.143-0.213,0.32-0.229,0.504
		c-0.033,0.162-0.019,0.334,0.054,0.496c0.464,1.032,0.722,1.998,0.788,2.949c0.018,0.249,0.149,0.465,0.338,0.602H1.253v1.312
		h19.114v-0.521c0.432-0.113,2.17-0.664,2.527-2.242c1.86,0.076,2.334,2.078,2.354,2.162l0.006-0.002l0.023,0.104
		c0.093-0.02,2.226-0.502,2.624-2.268c1.86,0.076,2.335,2.078,2.355,2.162h0.004l0.012,0.058c0.092-0.021,2.226-0.502,2.625-2.267
		c1.859,0.076,2.334,2.076,2.354,2.162l0.008-0.002l0.023,0.104c0.093-0.021,2.225-0.502,2.622-2.265
		c1.859,0.076,2.334,2.074,2.354,2.162l0.009-0.004l0.033,0.152c0.094-0.02,2.227-0.502,2.625-2.268
		c1.858,0.076,2.334,2.078,2.354,2.162l0.009-0.002l0.021,0.105c0.094-0.02,2.228-0.502,2.625-2.266
		c1.618,0.066,2.188,1.59,2.32,2.039c-0.041,0.045-0.059,0.104-0.027,0.158c0.037,0.064,0.121,0.088,0.188,0.051
		c0.145-0.082,3.473-2.024,3.869-4.852c0.182-1.293-0.288-2.557-1.398-3.761c0.497-0.122,1.86-0.188,2.979,2.19
		c0.027,0.062,0.099,0.092,0.162,0.073c0.063-0.021,0.104-0.085,0.096-0.151c-0.046-0.312-1.111-7.291-4.131-8.121
		c1.556-0.419,3.52,0.073,5.263,1.357c3.892,2.861,5.788,8.516,5.079,15.128c-0.01,0.073,0.046,0.144,0.12,0.147
		c0.005,0.002,0.011,0.002,0.016,0.002c0.067,0,0.128-0.053,0.136-0.122C63.318,40.129,61.38,34.382,57.411,31.461z"/>
	<circle fill="#0E0F0F" cx="51.687" cy="32.73" r="0.237"/>
	<circle fill="#0E0F0F" cx="53.047" cy="29.258" r="0.237"/>
	<circle fill="#0E0F0F" cx="49.553" cy="32.715" r="0.238"/>
	<circle fill="#0E0F0F" cx="49.553" cy="30.875" r="0.56"/>
	<path fill="#0E0F0F" d="M10.403,27.042c0.063-0.031,0.09-0.108,0.058-0.172c-0.031-0.062-0.11-0.088-0.171-0.056l-3.692,1.848
		l3.798-1.616C10.398,27.045,10.401,27.044,10.403,27.042z"/>
	<path fill="#0E0F0F" d="M10.811,28.515c0,0,0.007-0.001,0.012-0.002c0.067-0.017,0.108-0.087,0.091-0.156
		c-0.019-0.068-0.088-0.109-0.157-0.091L7.856,29.02L10.811,28.515z"/>
	<path fill="#0E0F0F" d="M8.079,26.427c0.043-0.058,0.028-0.139-0.029-0.18c-0.058-0.041-0.139-0.027-0.18,0.031L7.027,27.46
		l1.037-1.017C8.07,26.438,8.076,26.433,8.079,26.427z"/>
</g>
</svg>
