<?xml version="1.0" encoding="utf-8"?>
<!-- Generator: Adobe Illustrator 16.0.4, SVG Export Plug-In . SVG Version: 6.00 Build 0)  -->
<!DOCTYPE svg PUBLIC "-//W3C//DTD SVG 1.1//EN" "http://www.w3.org/Graphics/SVG/1.1/DTD/svg11.dtd">
<svg version="1.1" id="Capa_1" xmlns="http://www.w3.org/2000/svg" xmlns:xlink="http://www.w3.org/1999/xlink" x="0px" y="0px"
	 width="64px" height="64px" viewBox="0 0 64 64" enable-background="new 0 0 64 64" xml:space="preserve">
<g>
	<path fill="#0F1011" d="M14.726,15.807l-0.034,0.008H14.18l0.013,0.055H8.66v1.699h5.929l2.715,11.518h7.834l1.035-5.321
		l0.033-0.008l-0.018-0.069l1.487-7.642l0.076-0.231H14.727L14.726,15.807z M15.763,20.207l1.103,1.698l-0.449,1.081L15.763,20.207z
		 M17.129,26.004l-0.553-2.349l0.593-1.435l1.13,1.859L17.129,26.004z M22.925,21.824l1.091-1.793l0.023,0.039l0.007-0.012
		l1.111,1.826L24.06,23.69L22.925,21.824z M23.807,24.046l-1.175,1.932l-1.118-1.839l1.174-1.931L23.807,24.046z M22.651,21.5
		l-1.112-1.831l1.128-1.855l1.112,1.829L22.651,21.5z M22.415,21.883l-1.099,1.807l-1.135-1.866l1.091-1.793l0.023,0.039
		l0.008-0.013L22.415,21.883z M21.042,24.015l-1.153,1.898l-1.118-1.839l1.154-1.899L21.042,24.015z M18.533,23.69l-1.134-1.866
		l1.091-1.793l0.023,0.039l0.008-0.012l1.11,1.826L18.533,23.69z M17.729,28.552l-0.395-1.681l1.022,1.681H17.729z M17.438,26.271
		l1.099-1.807l1.135,1.866l-1.099,1.807L17.438,26.271z M18.791,28.552l1.134-1.865l1.134,1.865H18.791z M20.142,26.271l1.099-1.807
		l1.135,1.866l-1.098,1.807L20.142,26.271z M21.495,28.552l1.172-1.93l1.174,1.93H21.495z M24.697,28.552h-0.42l0.617-1.015
		L24.697,28.552z M25.115,26.399l-1.055,1.737l-1.135-1.866l1.098-1.807l1.114,1.829L25.115,26.399z M25.25,25.708l-0.972-1.601
		l1.123-1.847l0.299,1.143L25.25,25.708z M25.876,22.49l-0.152-0.583l0.426-0.824L25.876,22.49z M26.866,17.406l-0.261,1.34
		l-0.815-1.34H26.866z M26.491,19.333l-0.067,0.345l-0.982,1.899l-1.158-1.906l1.206-1.985L26.491,19.333z M25.318,17.406
		l0.048,0.079l-0.13-0.079H25.318z M25.189,17.406l-1.142,1.877l-0.024-0.04l-0.007,0.012l-1.125-1.849H25.189z M22.707,17.407
		L22.6,17.473l-0.107-0.066H22.707z M22.446,17.405l-1.142,1.876l-0.023-0.039l-0.008,0.013l-1.125-1.85H22.446z M19.954,17.405
		h0.011l-0.011,0.007V17.405z M21.037,19.643l-1.147,1.888l-1.133-1.861l1.148-1.889L21.037,19.643z M19.564,17.568l-1.042,1.715
		l-0.025-0.04l-0.007,0.012l-1.027-1.687H19.564z M18.254,19.643l-1.15,1.891l-1.156-1.778l1.188-1.953L18.254,19.643z
		 M16.809,17.568l-1.103,1.813l-0.084-0.129l-0.074,0.047l-0.408-1.731H16.809z"/>
	<polygon fill="#0F1011" points="13.572,29.875 2.278,29.875 2.278,7.389 13.572,7.389 13.572,13.192 14.788,13.192 14.788,6.174 
		1.063,6.174 1.063,31.091 5.875,31.091 5.875,56.76 9.522,56.76 9.522,31.091 14.788,31.091 14.788,21.812 13.572,21.812 	"/>
	<circle fill="#0F1011" cx="42.535" cy="15.807" r="4.133"/>
	<path fill="#0F1011" d="M59.659,36.256c-2.228,0.146-8.818,0.527-10.657-1.857c0.03-0.441-0.029-0.924-0.209-1.438
		c-0.508-1.462-0.962-2.944-1.249-4.452c1.283,0.932,2.524,1.925,3.799,2.861c1.069,0.786,2.708,0.181,3.325-0.872
		c0.723-1.235,0.193-2.543-0.872-3.326c-2.246-1.652-4.396-3.48-6.845-4.822c-0.637-1.172-2.01-1.992-3.297-1.992
		c-0.813,0-1.508,0.243-2.065,0.653c-3.956-1.414-6.062-5.771-9.075-8.515c-2.313-2.104-5.763,1.323-3.438,3.437
		c3.669,3.338,6.066,7.996,10.855,9.669c-0.014,2.681,0.576,5.396,1.383,7.958c0.088,6.95,2.271,16.854,10.646,16.778
		c3.135-0.026,3.137-4.892,0-4.86c-3.281,0.027-4.74-3.285-5.361-6.808c3.449,2.474,9.187,2.705,13.061,2.451
		C62.771,40.914,62.791,36.051,59.659,36.256z"/>
	<circle fill="#0F1011" cx="24.528" cy="10.984" r="3.834"/>
</g>
</svg>
