<?xml version="1.0" encoding="utf-8"?>
<!-- Generator: Adobe Illustrator 16.0.4, SVG Export Plug-In . SVG Version: 6.00 Build 0)  -->
<!DOCTYPE svg PUBLIC "-//W3C//DTD SVG 1.1//EN" "http://www.w3.org/Graphics/SVG/1.1/DTD/svg11.dtd">
<svg version="1.1" id="Capa_1" xmlns="http://www.w3.org/2000/svg" xmlns:xlink="http://www.w3.org/1999/xlink" x="0px" y="0px"
	 width="64px" height="64px" viewBox="0 0 64 64" enable-background="new 0 0 64 64" xml:space="preserve">
<g>
	<path fill="#0E0F0F" d="M28.133,9.553c0.205,0,0.403-0.022,0.596-0.061c0.065-0.013,0.125-0.037,0.188-0.053
		c0.126-0.034,0.251-0.067,0.37-0.115c0.071-0.028,0.135-0.066,0.204-0.1c0.104-0.052,0.206-0.104,0.304-0.166
		c0.066-0.044,0.128-0.093,0.192-0.142c0.088-0.066,0.173-0.134,0.255-0.209c0.059-0.056,0.113-0.117,0.168-0.178
		c0.072-0.079,0.143-0.161,0.207-0.25c0.048-0.066,0.093-0.135,0.137-0.207c0.056-0.092,0.106-0.186,0.154-0.284
		c0.037-0.076,0.07-0.153,0.101-0.232c0.038-0.101,0.069-0.206,0.097-0.313c0.021-0.083,0.043-0.166,0.059-0.251
		c0.005-0.036,0.02-0.069,0.024-0.106h1.293c0.006,0.037,0.018,0.07,0.025,0.106c0.015,0.086,0.035,0.169,0.058,0.251
		c0.027,0.107,0.06,0.211,0.099,0.313c0.028,0.08,0.063,0.156,0.101,0.232c0.047,0.098,0.098,0.192,0.153,0.284
		c0.045,0.071,0.089,0.14,0.14,0.207c0.063,0.089,0.133,0.17,0.205,0.25c0.055,0.061,0.108,0.122,0.17,0.178
		c0.08,0.075,0.166,0.143,0.254,0.209c0.062,0.048,0.125,0.098,0.19,0.142c0.099,0.062,0.199,0.114,0.306,0.166
		c0.066,0.033,0.131,0.071,0.202,0.1c0.118,0.048,0.243,0.082,0.369,0.115c0.063,0.017,0.123,0.04,0.188,0.053
		c0.192,0.039,0.394,0.061,0.598,0.061c1.699,0,3.082-1.384,3.082-3.083c0-1.634-1.258-2.976-2.889-3.062
		c-0.065-0.005-0.129-0.02-0.193-0.02c-0.01,0-0.02,0.002-0.027,0.002c-0.009,0.001-0.017-0.001-0.025-0.001l-7.067-0.001
		l-0.13,0.009c-0.05-0.005-0.099-0.009-0.149-0.009c-1.7,0-3.082,1.382-3.082,3.082C25.051,8.169,26.433,9.553,28.133,9.553z
		 M35.043,4.282l0.096-0.018c0.129-0.024,0.26-0.041,0.396-0.041c1.236,0,2.244,1.009,2.244,2.246c0,1.239-1.008,2.247-2.244,2.247
		c-1.239,0-2.247-1.008-2.247-2.247C33.287,5.401,34.041,4.508,35.043,4.282z M33.438,4.224c-0.506,0.472-0.845,1.11-0.942,1.829
		h-1.32c-0.099-0.719-0.438-1.357-0.943-1.829H33.438z M28.133,4.224c1.239,0,2.247,1.009,2.247,2.246
		c0,1.239-1.008,2.247-2.247,2.247c-1.238,0-2.247-1.008-2.247-2.247C25.886,5.232,26.895,4.224,28.133,4.224z"/>
	<path fill="#0E0F0F" d="M34.764,10.186c-0.195-0.054-0.336-0.093-0.472-0.147c-0.06-0.024-0.116-0.054-0.173-0.084
		c-0.176-0.087-0.293-0.146-0.402-0.216c-0.062-0.042-0.117-0.084-0.176-0.127c-0.143-0.109-0.238-0.185-0.33-0.27
		c-0.07-0.068-0.131-0.135-0.193-0.203c-0.082-0.09-0.16-0.184-0.231-0.285c-0.058-0.075-0.104-0.152-0.155-0.232
		c-0.064-0.106-0.124-0.213-0.177-0.325c-0.04-0.086-0.08-0.172-0.114-0.262c-0.045-0.119-0.079-0.236-0.111-0.356
		c-0.003-0.016-0.007-0.031-0.012-0.045H31.59c-0.004,0.015-0.008,0.031-0.013,0.046c-0.031,0.119-0.065,0.236-0.11,0.353
		c-0.034,0.092-0.073,0.178-0.112,0.264C31.3,8.41,31.242,8.516,31.179,8.62c-0.05,0.08-0.101,0.159-0.158,0.234
		c-0.072,0.101-0.151,0.194-0.233,0.285c-0.062,0.068-0.123,0.135-0.189,0.198c-0.095,0.09-0.191,0.166-0.29,0.242
		c-0.102,0.077-0.159,0.119-0.218,0.158c-0.111,0.071-0.228,0.13-0.345,0.19c-0.118,0.061-0.175,0.089-0.234,0.112
		c-0.133,0.054-0.275,0.093-0.418,0.132c-0.108,0.032-0.16,0.048-0.214,0.059c-0.651,0.131-1.281,0.07-1.847-0.132
		c0.814,1.886,2.687,3.206,4.872,3.206c2.189,0,4.07-1.328,4.878-3.224c-0.369,0.133-0.764,0.218-1.18,0.218
		c-0.222,0-0.449-0.022-0.679-0.068C34.87,10.218,34.816,10.202,34.764,10.186z"/>
	<path fill="#0E0F0F" d="M31.904,1.863c-0.883,0-1.711,0.218-2.443,0.599h4.885C33.615,2.082,32.786,1.863,31.904,1.863z"/>
	<path fill="#0E0F0F" d="M48.509,7.111L40.566,4.13c0,0-1.594-0.586-2.582-0.291c0.688,0.638,1.119,1.537,1.119,2.541
		c0,0.761-0.252,1.459-0.664,2.035l2.769,1.609c-2.438,1.72-4.442,2.725-6.185,4.384C32.799,16.171,32,21.213,32,21.213
		c-0.592-3.552-2.979-6.765-2.979-6.765c-1.724-1.656-4.19-3.108-6.646-4.842l2.917-1.293c-0.369-0.556-0.59-1.22-0.59-1.933
		c0-1.026,0.453-1.943,1.16-2.583c-0.506-0.269-2.428,0.333-2.428,0.333l-7.94,2.981c-0.485,0.538-0.712,1.258-0.626,1.978
		c0.087,0.718,0.479,1.364,1.078,1.771c1.646,1.122,5.716,3.976,8.207,5.998l0.097,1.387l-0.053,20.468v20.375
		c0,1.676,1.227,3.033,2.949,3.033c1.723,0,3.118-1.357,3.118-3.033V37.859c0,0,0.101-1.076,1.198-1.088
		c1.097-0.014,1.067,1.033,1.067,1.033v21.225c0,1.676,1.396,3.033,3.119,3.033c1.724,0,3.117-1.357,3.117-3.033l0.104-21.9
		c0-0.208,0.025-19.323,0.025-19.323s-0.012-0.029-0.027-0.118c2.229-1.976,7.303-5.54,9.189-6.828
		c0.6-0.407,0.992-1.053,1.078-1.771C49.221,8.37,48.991,7.649,48.509,7.111z"/>
	<path fill="#0E0F0F" d="M35.023,14.408l-6.002,0.04C30.831,15.098,32.93,15.323,35.023,14.408z"/>
</g>
</svg>
