<?xml version="1.0" encoding="utf-8"?>
<!-- Generator: Adobe Illustrator 16.0.4, SVG Export Plug-In . SVG Version: 6.00 Build 0)  -->
<!DOCTYPE svg PUBLIC "-//W3C//DTD SVG 1.1//EN" "http://www.w3.org/Graphics/SVG/1.1/DTD/svg11.dtd">
<svg version="1.1" id="Capa_1" xmlns="http://www.w3.org/2000/svg" xmlns:xlink="http://www.w3.org/1999/xlink" x="0px" y="0px"
	 width="64px" height="64px" viewBox="0 0 64 64" enable-background="new 0 0 64 64" xml:space="preserve">
<g>
	<circle fill="#0E0F0F" cx="23.833" cy="9.76" r="5.236"/>
	<path fill="#0E0F0F" d="M49.532,53.949c-4.438-2.752-10.683-7.852-15.437-10.627l-1.021-5.752c-0.01-0.241-0.033-0.487-0.086-0.746
		c-0.053-0.266-0.105-0.53-0.158-0.795c-0.014-0.08-0.028-0.16-0.047-0.236c-0.731-3.666-1.463-7.33-2.193-10.994
		c3.208,2.327,6.417,4.653,9.627,6.98c2.585,1.874,5.417-2.192,2.829-4.069c-4.69-3.4-9.383-6.802-14.074-10.203
		c-0.354-0.256-0.711-0.393-1.06-0.448c-2.694-1.813-7.442,0.074-6.622,4.185c0.075,0.38,0.152,0.76,0.229,1.14
		c-1.287,3.561-3.653,6.512-6.837,8.712c-3.079,2.126-0.161,7.195,2.95,5.046c2.127-1.472,4.022-3.186,5.607-5.126
		c0.364,1.824,0.728,3.647,1.091,5.472c-4.1,1.656-8.101,3.557-12.325,4.896c-1.64,0.521-2.296,2.53-1.742,4.029
		c1.251,3.394,4.287,8.981,5.505,12.385c1.351,3.771,7.123,1.479,5.773-2.288c-0.906-2.525-2.814-6.266-4.248-9.406
		c3.493-1.32,6.886-2.896,10.368-4.256c0.253,1.264,0.568,2.518,0.917,3.76c0.009,0.767,0.402,1.515,1.337,2.023
		c4.83,2.645,11.524,8.16,16.204,11.064C49.312,60.68,52.734,55.938,49.532,53.949z"/>
	<circle fill="#0E0F0F" cx="49.4" cy="34.362" r="4.526"/>
</g>
</svg>
