<?xml version="1.0" encoding="utf-8"?>
<!-- Generator: Adobe Illustrator 16.0.4, SVG Export Plug-In . SVG Version: 6.00 Build 0)  -->
<!DOCTYPE svg PUBLIC "-//W3C//DTD SVG 1.1//EN" "http://www.w3.org/Graphics/SVG/1.1/DTD/svg11.dtd">
<svg version="1.1" id="Capa_1" xmlns="http://www.w3.org/2000/svg" xmlns:xlink="http://www.w3.org/1999/xlink" x="0px" y="0px"
	 width="64px" height="64px" viewBox="0 0 64 64" enable-background="new 0 0 64 64" xml:space="preserve">
<g>
	<path fill="#0E0F0F" d="M51.414,10.988c-0.003,3.14-0.001,6.254-0.379,9.346c-4.114,0.415-8.295,0.768-12.359,0.24
		c-0.093-0.109-0.189-0.215-0.292-0.319c0.089-3.64-0.434-7.241-0.916-10.94C37.18,7.112,36.15,5.05,33.781,4.474
		c-6.04-1.471-12.131-2.29-18.29-1.116c-6.356,1.211-3.658,10.889,2.669,9.683c3.256-0.62,6.616-0.242,9.872,0.419
		c0.307,2.133,0.539,4.293,0.439,6.41c-0.552,0.493-1.017,1.087-1.348,1.789c-2.707,5.747-6.476,10.478-11.171,14.731
		c-5.977,5.414,1.125,13.785,7.54,11.561c3.825,2.711,4.683,4.465,4.359,9.958c-0.122,2.075,1.461,3.858,3.537,3.979
		c0.077,0.004,0.15,0.006,0.226,0.006c1.978,0,3.638-1.543,3.755-3.543c0.477-8.094-1.854-12.009-5.889-15.295
		c3.549-3.729,6.65-7.902,9.038-12.457c5.578,0.494,11.187-0.154,16.806-0.645c2.168-0.189,4.319-1.383,4.841-3.686
		c1.141-5.047,1.291-10.128,1.294-15.282C61.461,4.513,51.418,4.513,51.414,10.988z"/>
	<path fill="#0E0F0F" d="M1.74,53.404c0.023,6.396,2.764,6.396,6.093,7.062l-0.73-14.695C3.854,46.766,1.717,47.007,1.74,53.404z"/>
	<path fill="#0E0F0F" d="M9.369,45.439l0.754,15.135c3.984-0.417,6.995-3.874,6.794-7.924C16.716,48.602,13.377,45.46,9.369,45.439z
		"/>
	<path fill="#0E0F0F" d="M6.87,41.079l0.232,4.692c0.59-0.183,1.206-0.301,1.851-0.332c0.14-0.008,0.277,0,0.416,0l-0.222-4.476
		L6.87,41.079z"/>
</g>
</svg>
