<?xml version="1.0" encoding="utf-8"?>
<!-- Generator: Adobe Illustrator 16.0.4, SVG Export Plug-In . SVG Version: 6.00 Build 0)  -->
<!DOCTYPE svg PUBLIC "-//W3C//DTD SVG 1.1//EN" "http://www.w3.org/Graphics/SVG/1.1/DTD/svg11.dtd">
<svg version="1.1" id="Capa_1" xmlns="http://www.w3.org/2000/svg" xmlns:xlink="http://www.w3.org/1999/xlink" x="0px" y="0px"
	 width="64px" height="64px" viewBox="0 0 64 64" enable-background="new 0 0 64 64" xml:space="preserve">
<g>
	<circle fill="#0E0F0F" cx="34.044" cy="7.387" r="4.783"/>
	<path fill="#0E0F0F" d="M56.154,4.741V4.005c0-0.775-0.75-1.401-1.676-1.401c-0.922,0-1.672,0.626-1.672,1.401v5.917
		c-0.054,0.069-0.107,0.127-0.154,0.204c-3.021,4.893-7.834,6.801-13.123,4.605c-1.854-0.844-7.109-2.635-12.745,0.912
		c-0.137,0.071-0.271,0.161-0.404,0.264c-0.16,0.107-0.319,0.214-0.479,0.331l0.018,0.078c-3.862,3.736-5.483,8.715-5.569,14.031
		c-0.053,3.278,5.026,3.272,5.079,0c0.046-2.81,0.604-5.401,1.919-7.674v0.002l-0.009,3.685l-0.034,17.703v14.043
		c0,1.514,1.106,2.736,2.66,2.736c1.553,0,2.814-1.225,2.814-2.736V38.031h2.486c0,4.703,0,15.437,0,20.138
		c0,3.276,5.077,3.276,5.077,0c0-4.701,0-9.403,0-14.106l0.216-17.737c0.002-1.693,0.004-3.207,0.006-4.258l-0.086-1.809
		c6.277,1.349,12.125-1.063,16.018-6.763c1.686-0.146,3.004-1.324,3.004-2.775V7.546C59.5,5.997,58.002,4.741,56.154,4.741z"/>
	<path fill="#0E0F0F" d="M15.498,39.695h-1.582v-3.617c0-0.602-0.488-1.089-1.088-1.089H9.144c-0.6,0-1.087,0.487-1.087,1.089v3.617
		H6.475c-1.278,0-2.313,1.037-2.313,2.313v17.072c0,1.276,1.035,2.312,2.313,2.312h9.022c1.278,0,2.313-1.035,2.313-2.312v-17.07
		C17.811,40.732,16.776,39.695,15.498,39.695z M13.414,39.695H8.56v-3.617c0-0.322,0.263-0.586,0.584-0.586h3.684
		c0.323,0,0.586,0.264,0.586,0.586V39.695z"/>
</g>
</svg>
