<?xml version="1.0" encoding="utf-8"?>
<!-- Generator: Adobe Illustrator 16.0.0, SVG Export Plug-In . SVG Version: 6.00 Build 0)  -->
<!DOCTYPE svg PUBLIC "-//W3C//DTD SVG 1.1//EN" "http://www.w3.org/Graphics/SVG/1.1/DTD/svg11.dtd">
<svg version="1.1" id="Capa_1" xmlns="http://www.w3.org/2000/svg" xmlns:xlink="http://www.w3.org/1999/xlink" x="0px" y="0px"
	 width="64px" height="64px" viewBox="0 0 64 64" enable-background="new 0 0 64 64" xml:space="preserve">
<g>
	<path fill="#0E0F0F" d="M24.142,12.973c3.47-0.402,5.963-3.572,5.564-7.082c-0.396-3.51-3.532-6.029-7-5.628
		c-3.47,0.402-5.961,3.572-5.564,7.082C17.537,10.855,20.672,13.374,24.142,12.973z"/>
	<path fill="#0E0F0F" d="M60.474,58.047c-4.91-8.431-20.181-35.671-22.716-40.117c4.949-1.597,9.471-0.139,13.027,4.899
		c2.892,4.098,9.656,0.169,6.729-3.979c-6.882-9.75-17.146-12.171-27.421-6.001c-0.43,0.257-2.355,1.333-2.789,1.594
		c-6.391,3.835-12.325,3.109-16.759-3.173c-2.895-4.099-9.659-0.168-6.731,3.979c5.659,8.014,13.601,11.072,21.957,8.481
		c2.62,4.552,5.109,9.187,7.499,13.866c-3.533,1.825-6.805,4.103-9.846,6.781c-1.796,1.583-1.501,3.659-0.295,5.058
		c0.292,0.638,9.585,6.565,13.61,9.009c4.319,2.624,8.237-4.194,3.934-6.807c-2.602-1.579-5.202-3.16-7.803-4.741
		c2.505-1.707,8.94-4.523,9.281-4.795c3.862,6.646,7.732,13.282,11.595,19.924C56.288,66.401,63.027,62.436,60.474,58.047z"/>
</g>
</svg>
