<?xml version="1.0" encoding="utf-8"?>
<!-- Generator: Adobe Illustrator 16.0.4, SVG Export Plug-In . SVG Version: 6.00 Build 0)  -->
<!DOCTYPE svg PUBLIC "-//W3C//DTD SVG 1.1//EN" "http://www.w3.org/Graphics/SVG/1.1/DTD/svg11.dtd">
<svg version="1.1" id="Capa_1" xmlns="http://www.w3.org/2000/svg" xmlns:xlink="http://www.w3.org/1999/xlink" x="0px" y="0px"
	 width="15.708px" height="24.984px" viewBox="0 0 15.708 24.984" enable-background="new 0 0 15.708 24.984" xml:space="preserve">
<g>
	<path d="M10.786,14.348c-2.715,0-4.917,2.198-4.917,4.917c0,2.716,2.204,4.921,4.917,4.921c2.719,0,4.922-2.205,4.922-4.921
		C15.708,16.549,13.504,14.348,10.786,14.348z M10.786,23.421c-2.293,0-4.156-1.857-4.156-4.153c0-2.3,1.863-4.156,4.156-4.156
		c2.299,0,4.158,1.856,4.158,4.156C14.944,21.562,13.084,23.421,10.786,23.421z"/>
	<path d="M9.82,20.146c-0.065,0-1.069-1.067-1.069-1.067l-0.626,0.628l1.697,1.687l3.635-3.621l-0.627-0.628
		C12.825,17.142,9.886,20.146,9.82,20.146z"/>
	<circle cx="5.374" cy="2.207" r="2.205"/>
	<path d="M5.516,20.475v3.26l0.01,0.01c0.006,0.687,0.564,1.237,1.249,1.237c0.645,0,1.166-0.488,1.237-1.111
		c-0.085-0.051-0.173-0.092-0.255-0.146C6.646,22.975,5.831,21.821,5.516,20.475z"/>
	<path d="M7.771,14.724c0.078-0.057,0.169-0.096,0.251-0.145V7.89h0.604v5.047h0.004c0,0.003,0,0.005,0,0.007
		c0,0.516,0.414,0.931,0.933,0.931c0.517,0,0.931-0.415,0.931-0.931c0-0.002,0-0.004,0-0.007V7.509
		C10.288,5.09,7.48,5.125,7.48,5.125H3.056C-0.112,5.185,0,7.509,0,7.509v5.432h0.003C0.002,12.95,0,12.964,0,12.975
		c0,0.517,0.419,0.934,0.932,0.934c0.515,0,0.931-0.417,0.931-0.934c0-0.014-0.002-0.025-0.003-0.038h0.003V7.914h0.581
		L2.438,23.725c0,0.693,0.562,1.259,1.258,1.259c0.693,0,1.258-0.563,1.258-1.259L4.953,13.523h0.562v4.457
		C5.835,16.629,6.651,15.472,7.771,14.724z"/>
</g>
</svg>
