<?xml version="1.0" encoding="utf-8"?>
<!-- Generator: Adobe Illustrator 16.0.4, SVG Export Plug-In . SVG Version: 6.00 Build 0)  -->
<!DOCTYPE svg PUBLIC "-//W3C//DTD SVG 1.1//EN" "http://www.w3.org/Graphics/SVG/1.1/DTD/svg11.dtd">
<svg version="1.1" id="Capa_1" xmlns="http://www.w3.org/2000/svg" xmlns:xlink="http://www.w3.org/1999/xlink" x="0px" y="0px"
	 width="64px" height="64px" viewBox="0 0 64 64" enable-background="new 0 0 64 64" xml:space="preserve">
<g>
	<circle fill="#0E0F0F" cx="35.518" cy="24.956" r="5.13"/>
	<path fill="#0E0F0F" d="M46.749,37.829c-2.095-1.048-4.312-2.361-6.498-3.829c-1.121-3.783-6.666-4.136-8.531-1.011
		c-2.871-2.305-4.139-4.409-5.579-8.729c-0.383-1.152-1.63-1.773-2.781-1.392c-0.016,0.006-0.029,0.015-0.045,0.021V9.812
		c1.385,0.208,2.477,1.308,2.672,2.697h0.07c0.218-1.545,1.541-2.735,3.145-2.735c1.606,0,2.929,1.189,3.148,2.735h0.266
		c0-5.233-4.125-9.504-9.3-9.74V2h-0.732v0.765c-5.256,0.147-9.472,4.452-9.472,9.744h0.223c0.218-1.545,1.542-2.735,3.146-2.735
		s2.928,1.189,3.146,2.735h0.07c0.205-1.461,1.401-2.604,2.886-2.724v13.541c-0.626,0.568-0.897,1.47-0.612,2.324
		c0.004,0.014,0.01,0.027,0.015,0.041c-0.064,0.017-0.126,0.039-0.195,0.039c-0.438,0-0.795-0.355-0.795-0.793v-0.209h-0.731v0.209
		c0,0.841,0.684,1.526,1.526,1.526c0.153,0,0.297-0.03,0.437-0.071c1.945,5.552,4.033,8.25,8.881,11.614c0,2.905,0,5.809,0,8.713
		c-0.062,0.19-0.104,0.389-0.104,0.598V60.66c0,1.062,0.862,1.923,1.923,1.923c1.064,0,1.924-0.858,1.924-1.923v-9.473
		c0.584,0.104,1.188,0.114,1.771,0.025v9.473c0,1.062,0.861,1.924,1.923,1.924c1.063,0,1.925-0.859,1.925-1.924V47.343
		c0-0.101-0.015-0.196-0.029-0.293c0.004-0.087,0.016-0.17,0.016-0.261c0-2.479,0-4.955,0-7.434
		c1.464,0.892,2.921,1.701,4.328,2.402c0.312,0.158,0.648,0.232,0.98,0.232c0.805,0,1.582-0.446,1.967-1.219
		C48.273,39.691,47.835,38.37,46.749,37.829z"/>
</g>
</svg>
