<?xml version="1.0" encoding="utf-8"?>
<!-- Generator: Adobe Illustrator 16.0.4, SVG Export Plug-In . SVG Version: 6.00 Build 0)  -->
<!DOCTYPE svg PUBLIC "-//W3C//DTD SVG 1.1//EN" "http://www.w3.org/Graphics/SVG/1.1/DTD/svg11.dtd">
<svg version="1.1" id="Capa_1" xmlns="http://www.w3.org/2000/svg" xmlns:xlink="http://www.w3.org/1999/xlink" x="0px" y="0px"
	 width="64px" height="64px" viewBox="0 0 64 64" enable-background="new 0 0 64 64" xml:space="preserve">
<g>
	<circle fill="#0E0F0F" cx="43.275" cy="19.464" r="2.848"/>
	<path fill="#0E0F0F" d="M61.178,43.913c-3.395-5.063-7.275-11.663-7.927-12.775c-0.058-0.202-0.14-0.407-0.244-0.613
		c-0.626-1.219-1.271-2.43-1.93-3.631c0.913,0.397,1.78,0.903,2.598,1.514c1.892,1.412,3.712-1.763,1.847-3.156
		c-2.303-1.719-4.955-2.602-7.789-2.908c-0.277-0.03-0.521-0.002-0.734,0.066c-1.355-0.016-2.729,0.929-3.107,2.244
		c-1.686-0.588-3.113-1.589-4.15-3.272c-1.121-1.822-3.983-0.133-2.858,1.696c1.927,3.13,4.793,4.603,8.164,5.264
		c0.951,1.678,1.875,3.374,2.759,5.09c-1.759,1.215-3.295,2.684-4.642,4.373c-0.376,0.473-0.438,0.957-0.313,1.387
		c-0.006,0.158,0.006,0.322,0.051,0.502c0.521,2.054,1.035,4.103,1.557,6.149c0.551,2.185,4.008,1.562,3.45-0.635
		c-0.49-1.952-0.984-3.905-1.479-5.858c1.236-1.457,2.696-2.729,4.361-3.677c0.395-0.224,0.641-0.532,0.777-0.868
		c2.277,3.493,4.561,8.326,6.838,11.256C59.789,47.846,62.57,45.704,61.178,43.913z"/>
	<circle fill="#0E0F0F" cx="20.175" cy="19.648" r="2.848"/>
	<path fill="#0E0F0F" d="M23.717,21.564c-1.037,1.684-2.468,2.685-4.149,3.273c-0.629-2.178-3.99-3.344-5.474-0.807
		c-1.28,2.19-2.492,4.421-3.65,6.678c-0.107,0.208-0.187,0.414-0.245,0.616c-0.659,1.125-4.536,7.714-7.926,12.773
		c-1.393,1.791,1.39,3.932,2.779,2.146c2.278-2.931,4.56-7.765,6.839-11.259c0.137,0.34,0.385,0.646,0.777,0.871
		c1.666,0.942,3.125,2.217,4.362,3.674c-0.494,1.955-0.988,3.908-1.48,5.859c-0.556,2.194,2.901,2.817,3.452,0.635
		c0.518-2.049,1.035-4.102,1.554-6.147c0.045-0.181,0.055-0.344,0.051-0.503c0.126-0.428,0.063-0.913-0.314-1.387
		c-1.347-1.691-2.883-3.159-4.642-4.373c0.883-1.715,1.807-3.411,2.758-5.09c3.372-0.661,6.238-2.133,8.164-5.263
		C27.7,21.432,24.837,19.743,23.717,21.564z"/>
	<polygon fill="#0E0F0F" points="39.458,19.891 39.458,17.42 36.619,17.633 36.619,18.489 26.882,18.489 26.882,17.633 
		24.044,17.42 24.044,19.891 26.882,19.625 26.882,18.822 36.619,18.822 36.619,19.625 	"/>
</g>
</svg>
