<?xml version="1.0" encoding="iso-8859-1"?>
<!-- Generator: Adobe Illustrator 16.0.0, SVG Export Plug-In . SVG Version: 6.00 Build 0)  -->
<!DOCTYPE svg PUBLIC "-//W3C//DTD SVG 1.1//EN" "http://www.w3.org/Graphics/SVG/1.1/DTD/svg11.dtd">
<svg version="1.1" id="Capa_1" xmlns="http://www.w3.org/2000/svg" xmlns:xlink="http://www.w3.org/1999/xlink" x="0px" y="0px"
	 width="500px" height="500px" viewBox="0 0 500 500" style="enable-background:new 0 0 500 500;" xml:space="preserve">
<g>
	<path style="fill:#0E0F0F;" d="M95.289,141.404c25.767,0,46.657-20.885,46.657-46.656c0-25.765-20.89-46.652-46.657-46.652
		S48.632,68.981,48.632,94.748C48.632,120.517,69.521,141.404,95.289,141.404z"/>
	<path style="fill:#0E0F0F;" d="M153.178,285.806c-7.115-10.421-19.668-15.673-61.6-19.286l14.053-65.59
		c9.103,4.071,19.038,6.715,29.978,6.715c15.155,0,46.199-7.139,65.333-19.686c8.363-5.481,10.698-16.714,5.224-25.078
		c-1.168-1.777-2.606-3.261-4.204-4.476v-11.691h1.303c0.87,0,1.65-0.536,1.964-1.347l10.37-26.866
		c0.25-0.648,0.165-1.376-0.228-1.949c-0.392-0.572-1.042-0.915-1.736-0.915h-33.459c-0.694,0-1.343,0.343-1.736,0.915
		c-0.393,0.573-0.478,1.301-0.229,1.949l10.371,26.866c0.313,0.812,1.094,1.347,1.964,1.347h1.001v8.067
		c-3.585-0.126-7.234,0.764-10.472,2.884c-26.506,17.382-58.31,17.412-84.423-6.522c-0.205-0.188-0.458-0.323-0.669-0.506
		c-3.433-3.036-7.227-5.566-11.083-7.437c0,0-4.5-2.479-9.635-3.456c-4.916-0.939-10.601-0.97-10.601-0.97l-0.142-0.008
		c-16.152,0.473-35.17,9.476-39.196,28.244L3.75,267.7c-5.423,22.563,14.138,40.074,34.281,44.39
		c3.421,0.731,12.835,1.24,13.679,1.297c14.332,0.737,26.213,0.727,35.559,0.603c21.668-0.287,27.133,8.835,28.799,17.403
		c4.603,23.67,10.445,69.032,12.727,97.226c1.048,12.91,12.519,22.711,25.258,22.698c0.666,0,1.345-0.017,2.015-0.077
		c13.599-1.101,21.726-13.021,20.62-26.609C172.624,374.384,165.243,303.441,153.178,285.806z"/>
	<path style="fill:#0E0F0F;" d="M409.08,140.374c25.193-5.405,41.249-30.201,35.849-55.39c-0.501-2.289-1.194-4.466-1.988-6.596
		c27.373,49.527,45.524,41.857,45.979,40.856c-12.889-5.522-19.562-38.285-19.562-38.285
		c-12.939-55.129-42.446-24.582-42.892-24.072c-10.315-7.39-23.554-10.619-36.939-7.746c-25.186,5.397-41.249,30.2-35.841,55.389
		C359.088,129.715,383.887,145.771,409.08,140.374z"/>
	<path style="fill:#0E0F0F;" d="M483.35,232.747l-14.086-65.749c-4.021-18.759-23.042-27.768-39.191-28.243l-0.145,0.008
		c0,0-5.695,0.03-10.607,0.969c-5.125,0.978-9.631,3.455-9.631,3.455c-3.852,1.873-7.65,4.403-11.088,7.438
		c-0.217,0.182-0.463,0.316-0.672,0.505c-26.125,23.937-57.913,23.907-84.415,6.525c-3.275-2.136-6.962-3.011-10.58-2.864v-8.077
		h1.001c0.869,0,1.651-0.536,1.964-1.347l10.37-26.866c0.25-0.648,0.165-1.376-0.229-1.949c-0.392-0.572-1.042-0.915-1.735-0.915
		h-33.459c-0.693,0-1.344,0.343-1.735,0.915c-0.394,0.573-0.479,1.301-0.229,1.949l10.371,26.866
		c0.313,0.812,1.094,1.347,1.964,1.347h1.302v11.813c-1.563,1.18-2.959,2.614-4.099,4.351c-5.477,8.363-3.135,19.589,5.217,25.078
		c19.13,12.547,50.17,19.686,65.334,19.686c10.947,0,20.871-2.643,29.983-6.715l7.688,35.908l2.002,9.363
		c5.105,19.928-79.494-12.292-90.124,67.641c0,0,10.229,0.17,23.229,0.385c-6.556,30.078-11.024,75.271-13.875,110.404
		c-1.092,13.592,7.034,25.508,20.632,26.609c0.681,0.063,1.341,0.077,2.019,0.077c12.743,0.016,24.209-9.785,25.255-22.698
		c2.375-29.307,8.073-77.276,13.267-99.925c2.414-10.528,12.99-15.329,25.25-14.687c34.986,1.209,49.228-0.354,49.228-0.354
		C518.334,310.5,487.995,256.904,483.35,232.747z"/>
	<path style="fill:#0E0F0F;" d="M266.636,411.677h-13.421v-159.19h96.664c9.254,0,16.759-7.5,16.759-16.764
		c0-9.261-7.505-16.767-16.759-16.767H135.328c-9.265,0-16.765,7.505-16.765,16.767c0,9.264,7.5,16.764,16.765,16.764h96.658v159.19
		h-13.421c-6.001,0-10.866,4.864-10.866,10.865s4.865,10.866,10.866,10.866h48.071c6.001,0,10.866-4.865,10.866-10.866
		S272.637,411.677,266.636,411.677z"/>
	<path style="fill:#0E0F0F;" d="M459.543,319.877h-56.781c-9.875,0-17.886,6.597-17.886,14.714c0,8.136,8.011,14.715,17.886,14.715
		h18.293v81.341h-10.273c-5.899,0-10.682,4.782-10.682,10.681c0,5.899,4.782,10.682,10.682,10.682h40.743
		c5.898,0,10.682-4.782,10.682-10.682c0-5.898-4.783-10.681-10.682-10.681h-10.253v-81.333h18.275
		c9.876,0,17.883-6.579,17.883-14.723C477.408,326.474,469.419,319.877,459.543,319.877z"/>
	<path style="fill:#0E0F0F;" d="M91.796,319.877H35.016c-9.875,0-17.886,6.597-17.886,14.714c0,8.136,8.011,14.715,17.886,14.715
		h18.293v81.341H43.035c-5.899,0-10.682,4.782-10.682,10.681c0,5.899,4.783,10.682,10.682,10.682h40.744
		c5.898,0,10.681-4.782,10.681-10.682c0-5.898-4.783-10.681-10.681-10.681H73.525v-81.333H91.8c9.876,0,17.883-6.579,17.883-14.723
		C109.662,326.474,101.673,319.877,91.796,319.877z"/>
</g>
</svg>
