<?xml version="1.0" encoding="utf-8"?>
<!-- Generator: Adobe Illustrator 16.0.4, SVG Export Plug-In . SVG Version: 6.00 Build 0)  -->
<!DOCTYPE svg PUBLIC "-//W3C//DTD SVG 1.1//EN" "http://www.w3.org/Graphics/SVG/1.1/DTD/svg11.dtd">
<svg version="1.1" id="Capa_1" xmlns="http://www.w3.org/2000/svg" xmlns:xlink="http://www.w3.org/1999/xlink" x="0px" y="0px"
	 width="64px" height="64px" viewBox="0 0 64 64" enable-background="new 0 0 64 64" xml:space="preserve">
<g>
	<circle fill="#0E0F0F" cx="49.902" cy="16.631" r="3.442"/>
	<path fill="#0E0F0F" d="M49.281,40.96c0.217-0.005,0.421-0.054,0.615-0.124c1.311,0.117,2.664-0.516,3.104-2.16
		c1.22-4.533,1.394-9.513,1.877-14.173c0.172-1.653-1.548-3.033-3.063-3.022c-0.599,0.004-1.109,0.165-1.537,0.434
		c-0.157,0.041-0.314,0.095-0.463,0.178l-5.041,2.83l-4.347-2.672c-0.135-0.083-0.276-0.142-0.422-0.188V19.62l1.188-1.423
		l1.393-1.664h-6.184l2.418,3.087l0.003,2.449c-0.419,0.137-0.796,0.408-1.042,0.812c-0.557,0.905-0.273,2.088,0.631,2.645
		l5.309,3.265c0.309,0.189,0.657,0.285,1.01,0.285c0.32,0,0.646-0.082,0.938-0.246l2.873-1.613c-0.29,3.341-0.56,6.68-1.419,9.885
		c-0.001,0.004-0.002,0.01-0.003,0.017c-2.979,0.192-6.121,0.69-7.368,1.879c-1.668,1.585-2.086,5.487-1.246,11.606
		c0.139,0.984,0.979,1.701,1.948,1.701c0.089,0,0.179-0.008,0.271-0.02c1.076-0.148,1.83-1.143,1.684-2.219
		c-0.688-4.996-0.278-7.607,0.054-8.196C43.27,41.456,46.377,41.036,49.281,40.96z M37.539,17.084h3.868l-0.634,0.758
		c-0.154,0.186-0.738,0.088-1.135-0.058c-0.486-0.465-1.263-0.249-1.634-0.103L37.539,17.084z M39.455,19.173h-0.077h-0.203
		l-0.81-1.033c0.307-0.096,0.713-0.158,0.914,0.064l0.044,0.048l0.059,0.024c0.073,0.029,0.447,0.172,0.854,0.209l-0.575,0.688
		H39.455z"/>
	<polygon fill="#0E0F0F" points="56.979,28.617 54.115,42.021 43.682,43.375 43.682,52.785 45.604,52.785 45.604,44.991 
		53.932,44.006 53.932,52.785 55.854,52.785 55.854,42.98 58.842,29.092 	"/>
	<circle fill="#0E0F0F" cx="14.096" cy="16.631" r="3.442"/>
	<path fill="#0E0F0F" d="M16.877,37.116c-0.001-0.005-0.002-0.011-0.003-0.017c-0.86-3.203-1.127-6.542-1.418-9.885l2.873,1.613
		c0.292,0.164,0.617,0.246,0.941,0.246c0.35,0,0.698-0.096,1.007-0.285l5.308-3.265c0.906-0.557,1.188-1.74,0.631-2.645
		c-0.3-0.489-0.787-0.789-1.311-0.88v-2.38l1.189-1.423l1.392-1.664h-6.182l2.417,3.087l0.002,2.556
		c-0.051,0.026-0.103,0.044-0.152,0.074l-4.345,2.672l-5.042-2.83c-0.148-0.083-0.304-0.137-0.462-0.178
		c-0.428-0.27-0.94-0.43-1.537-0.434c-1.519-0.011-3.239,1.369-3.066,3.022c0.487,4.66,0.659,9.642,1.876,14.173
		c0.442,1.646,1.797,2.277,3.108,2.16c0.193,0.068,0.398,0.119,0.616,0.124c2.903,0.076,6.012,0.496,6.817,0.91
		c0.333,0.589,0.741,3.198,0.054,8.194c-0.148,1.078,0.605,2.07,1.683,2.221c0.091,0.012,0.181,0.019,0.271,0.019
		c0.968,0,1.813-0.716,1.948-1.7c0.84-6.117,0.421-10.021-1.245-11.606C22.999,37.809,19.858,37.311,16.877,37.116z M22.438,17.084
		h3.868l-0.634,0.758c-0.154,0.186-0.738,0.088-1.134-0.058c-0.486-0.465-1.261-0.249-1.633-0.103L22.438,17.084z M23.264,18.14
		c0.306-0.096,0.713-0.158,0.915,0.064l0.044,0.048l0.058,0.024c0.072,0.029,0.446,0.172,0.854,0.209l-0.576,0.688h-0.205h-0.077
		h-0.204L23.264,18.14z"/>
	<polygon fill="#0E0F0F" points="7.021,28.617 5.159,29.092 8.146,42.98 8.146,52.785 10.069,52.785 10.069,44.006 18.396,44.991 
		18.396,52.785 20.319,52.785 20.319,43.375 9.885,42.021 	"/>
	<rect x="22.262" y="31.166" fill="#0E0F0F" width="17.716" height="3.706"/>
</g>
</svg>
