<?xml version="1.0" encoding="utf-8"?>
<!-- Generator: Adobe Illustrator 16.0.4, SVG Export Plug-In . SVG Version: 6.00 Build 0)  -->
<!DOCTYPE svg PUBLIC "-//W3C//DTD SVG 1.1//EN" "http://www.w3.org/Graphics/SVG/1.1/DTD/svg11.dtd">
<svg version="1.1" id="Capa_1" xmlns="http://www.w3.org/2000/svg" xmlns:xlink="http://www.w3.org/1999/xlink" x="0px" y="0px"
	 width="64px" height="64px" viewBox="0 0 64 64" enable-background="new 0 0 64 64" xml:space="preserve">
<g>
	<path fill="#0E0F0F" d="M17.753,16.144c-0.7-1.836-1.083-4.226,0.609-5.858h2.106l0.815-0.997l0.516,1.109h1.108
		c0,0,1.877,2.452,0.141,5.54c1.354-1.021,2.247-2.761,2.247-4.735c0-3.143-2.259-5.689-5.045-5.689
		c-2.785,0-5.045,2.546-5.045,5.689C15.205,13.319,16.231,15.164,17.753,16.144z"/>
	<circle fill="#0E0F0F" cx="42.412" cy="8.448" r="4.642"/>
	<path fill="#0E0F0F" d="M49.883,15.487c-0.326-0.581-0.775-0.919-1.261-1.083l-0.001-0.011c-0.03-0.006-0.055-0.009-0.085-0.015
		c-0.159-0.046-0.319-0.075-0.483-0.084c-1.818-0.291-2.551,0.014-2.551,0.014l-2.473,5.086l0.537-4.539h0.09v-0.752h-1.87v0.752
		h0.097l0.635,4.541l-2.475-5.293c-0.229,0.064,0.055,0.008-0.162,0.094c0,0-0.879-1.021-4.191,0.643
		c-0.084,0.095-0.153,0.199-0.217,0.308c-0.64,0.162-1.207,0.606-1.507,1.433c-1.219,3.367-2.222,6.811-3.37,10.203
		c-1.33-2.223-2.436-4.566-2.784-7.136c-0.15-1.107-0.868-1.626-1.689-1.693l-0.002-0.045c-2.141-0.439-2.971-0.081-2.971-0.081
		l-2.356,4.845l0.512-4.324h0.087v-0.716H19.61v0.716h0.091l0.605,4.326l-2.358-5.042c-0.219,0.06,0.053,0.008-0.154,0.089
		c0,0-0.838-0.973-3.993,0.612c-0.01,0.011-0.016,0.025-0.025,0.036c-0.582,0.215-1.043,0.712-1.159,1.57
		c-0.576,4.25-3.21,7.885-5.534,11.371c-1.684,2.527,2.383,4.874,4.053,2.37c0.885-1.329,1.806-2.691,2.661-4.101L8.899,44.688
		h5.271v12.979c0,1.396,1.023,2.528,2.46,2.528c1.436,0,2.601-1.133,2.601-2.528V44.688h2.297c0,4.347,0,8.691,0,13.037
		c0,3.027,4.694,3.027,4.694,0c0-4.346,0-8.69,0-13.037H31.6l-4.756-15.059c0.557,0.902,1.133,1.787,1.712,2.654
		c-0.763,2.728,3.477,4.331,4.667,1.525c0.079-0.188,0.15-0.379,0.229-0.566c0.108-0.18,0.188-0.376,0.233-0.582
		c0.904-2.27,1.681-4.587,2.426-6.915l-0.032,12.543v17.835c0,1.466,1.073,2.654,2.582,2.654c1.507,0,2.729-1.188,2.729-2.654
		V37.542c0,0,0.088-0.94,1.049-0.953c0.959-0.011,0.935,0.906,0.935,0.906v18.577c0,1.467,1.224,2.654,2.729,2.654
		c1.508,0,2.729-1.188,2.729-2.654l0.09-19.17c0-0.129,0.011-6.532,0.017-11.486c0.461,1.652,0.722,3.364,0.666,5.172
		c-0.096,3.18,4.832,3.17,4.929,0C54.695,25.093,52.529,20.183,49.883,15.487z M20.479,32.846c-0.437,0-0.793-0.354-0.793-0.792
		c0-0.437,0.356-0.794,0.793-0.794c0.438,0,0.794,0.356,0.794,0.794S20.917,32.846,20.479,32.846z M20.479,30.353
		c-0.437,0-0.793-0.354-0.793-0.792s0.356-0.794,0.793-0.794c0.438,0,0.794,0.356,0.794,0.794
		C21.273,29.998,20.917,30.353,20.479,30.353z M20.538,27.857c-0.438,0-0.794-0.355-0.794-0.792c0-0.438,0.356-0.793,0.794-0.793
		s0.793,0.355,0.793,0.793C21.331,27.502,20.976,27.857,20.538,27.857z M42.699,30.072c-0.459,0-0.832-0.372-0.832-0.831
		s0.373-0.833,0.832-0.833s0.832,0.373,0.832,0.833S43.158,30.072,42.699,30.072z M42.699,27.455c-0.459,0-0.832-0.372-0.832-0.832
		s0.373-0.833,0.832-0.833s0.832,0.373,0.832,0.833S43.158,27.455,42.699,27.455z M42.76,24.835c-0.459,0-0.832-0.372-0.832-0.831
		s0.373-0.833,0.832-0.833c0.461,0,0.833,0.373,0.833,0.833S43.221,24.835,42.76,24.835z"/>
</g>
</svg>
