<?xml version="1.0" encoding="utf-8"?>
<!-- Generator: Adobe Illustrator 16.0.4, SVG Export Plug-In . SVG Version: 6.00 Build 0)  -->
<!DOCTYPE svg PUBLIC "-//W3C//DTD SVG 1.1//EN" "http://www.w3.org/Graphics/SVG/1.1/DTD/svg11.dtd">
<svg version="1.1" id="Capa_1" xmlns="http://www.w3.org/2000/svg" xmlns:xlink="http://www.w3.org/1999/xlink" x="0px" y="0px"
	 width="64px" height="64px" viewBox="0 0 64 64" enable-background="new 0 0 64 64" xml:space="preserve">
<g>
	<path fill="#0C0D0D" d="M20.104,19.978c-0.366-0.438-0.781-0.673-1.199-0.752c-1.822-0.824-7.061-2.573-12.522,1.4l0.015,0.066
		c-0.222,0.157-0.431,0.35-0.611,0.607c-2.698,3.86-4.475,8.786-3.626,13.498c0.534,2.967,5.042,1.704,4.512-1.244
		c-0.366-2.031,0.156-4.197,1.041-6.193l-0.007,2.588L7.674,46.256v12.936c0,1.396,1.021,2.521,2.452,2.521
		c1.43,0,2.592-1.127,2.592-2.521V40.699h2.29c0,4.332,0,14.219,0,18.551c0,3.018,4.679,3.018,4.679,0c0-4.332,0-8.662,0-12.994
		l0.197-16.338c0.001-0.987,0.002-1.906,0.003-2.695c1.844,2.506,3.529,5.121,5.023,7.87c1.44,2.651,5.48,0.291,4.04-2.36
		C26.468,28.161,23.442,23.96,20.104,19.978z"/>
	<path fill="#0C0D0D" d="M9.546,11.721c-0.042,0.245-0.069,0.496-0.069,0.752c0,2.434,1.974,4.407,4.406,4.407
		c2.435,0,4.408-1.974,4.408-4.407c0-0.256-0.026-0.507-0.069-0.751c1.944-0.444,3.178-1.807,3.241-1.876
		c0.374-0.422,0.334-1.065-0.085-1.441c-0.42-0.377-1.068-0.341-1.448,0.076c-0.011,0.013-1.061,1.133-2.564,1.298
		c-0.131-0.169-0.273-0.329-0.428-0.478c0.118-0.054,0.2-0.146,0.2-0.256l-0.511-4.472c0-0.168-0.182-0.305-0.407-0.305h-4.984
		c-0.225,0-0.407,0.136-0.407,0.305L10.42,9.046c0,0.156,0.16,0.28,0.363,0.298C10.645,9.48,10.52,9.627,10.401,9.78
		C8.909,9.615,7.864,8.51,7.838,8.482c-0.377-0.42-1.023-0.458-1.445-0.084C5.968,8.774,5.93,9.423,6.306,9.846
		C6.367,9.915,7.602,11.277,9.546,11.721z"/>
	<path fill="#0C0D0D" d="M47.496,38.475c-0.939,0-1.98,0.855-1.873,1.871c0.145,1.354,0.085,2.648-0.244,3.924
		c-0.463,0.051-0.928,0.097-1.395,0.119v-7.721c0-1.193-0.967-2.162-2.161-2.162c-1.192,0-2.161,0.969-2.161,2.162v4.953
		c-1.104-0.932-1.694-2.162-1.357-3.818c0.479-2.354-3.132-3.361-3.611-0.996c-0.778,3.854,0.92,7.084,4.369,8.9
		c0.174,0.09,0.347,0.145,0.514,0.18c-0.021,0.104-0.033,0.207-0.033,0.309c0,0.242,0.047,0.459,0.122,0.658v7.562h4.321V48.13
		c1.104-0.063,2.209-0.209,3.308-0.362c0.673-0.095,1.083-0.746,1.31-1.308c0.771-1.924,0.986-4.06,0.77-6.112
		C49.26,39.332,48.598,38.475,47.496,38.475z"/>
	<path fill="#0C0D0D" d="M62.865,16.134c-0.346-1.699-2.938-0.978-2.594,0.715c0.24,1.19-0.187,2.075-0.979,2.743v-3.558
		c0-0.858-0.692-1.554-1.554-1.554c-0.859,0-1.555,0.696-1.555,1.554v5.546c-0.334-0.018-0.668-0.048-1-0.086
		c-0.234-0.916-0.277-1.848-0.176-2.818c0.077-0.73-0.672-1.344-1.346-1.344c-0.792,0-1.268,0.616-1.346,1.344
		c-0.156,1.476,0,3.009,0.554,4.392c0.161,0.402,0.456,0.872,0.938,0.939c0.787,0.11,1.58,0.216,2.375,0.26v4.516h3.104v-5.431
		c0.054-0.143,0.088-0.299,0.088-0.474c0-0.072-0.012-0.147-0.023-0.221c0.121-0.026,0.242-0.065,0.367-0.13
		C62.204,21.224,63.426,18.901,62.865,16.134z"/>
	<circle fill="#0C0D0D" cx="39.32" cy="11.86" r="4.45"/>
	<path fill="#0C0D0D" d="M39.302,6.194l0.208,0.01c0.008,0.001,0.014,0.001,0.021,0.001c0.097,0,0.189-0.036,0.262-0.101
		c0.076-0.07,0.123-0.167,0.129-0.27L40.08,2.71c0.012-0.215-0.154-0.398-0.37-0.41L39.5,2.289
		c-0.105-0.005-0.205,0.031-0.282,0.101c-0.075,0.069-0.124,0.167-0.129,0.27l-0.157,3.123C38.92,5.999,39.085,6.183,39.302,6.194z"
		/>
	<path fill="#0C0D0D" d="M42.418,7.253c0.068,0.046,0.145,0.069,0.223,0.069c0.125,0,0.246-0.059,0.32-0.168l1.779-2.575
		c0.123-0.177,0.078-0.421-0.1-0.543l-0.176-0.12c-0.084-0.059-0.188-0.081-0.292-0.063c-0.103,0.019-0.19,0.078-0.251,0.163
		L42.146,6.59c-0.062,0.085-0.082,0.19-0.063,0.292s0.077,0.192,0.162,0.251L42.418,7.253z"/>
	<path fill="#0C0D0D" d="M44.475,9.653c-0.045,0.092-0.053,0.2-0.02,0.298l0.066,0.199c0.055,0.164,0.207,0.266,0.371,0.266
		c0.041,0,0.082-0.006,0.123-0.021l2.965-0.998c0.099-0.032,0.18-0.104,0.226-0.197c0.047-0.092,0.053-0.2,0.021-0.298L48.16,8.703
		c-0.069-0.205-0.29-0.315-0.495-0.245L44.7,9.456C44.602,9.489,44.521,9.559,44.475,9.653z"/>
	<path fill="#0C0D0D" d="M47.812,15.216c0.164,0,0.315-0.104,0.371-0.269l0.063-0.199c0.032-0.099,0.022-0.206-0.021-0.298
		c-0.05-0.094-0.131-0.164-0.229-0.196l-2.974-0.974c-0.207-0.067-0.426,0.045-0.491,0.25l-0.066,0.198
		c-0.03,0.099-0.022,0.206,0.021,0.299c0.049,0.092,0.131,0.164,0.229,0.195l2.974,0.976C47.73,15.21,47.773,15.216,47.812,15.216z"
		/>
	<path fill="#0C0D0D" d="M44.666,19.201c0.078,0.091,0.188,0.139,0.299,0.139c0.09,0,0.18-0.03,0.252-0.092l0.16-0.135
		c0.08-0.067,0.129-0.162,0.139-0.266c0.008-0.104-0.021-0.206-0.093-0.286l-2.021-2.391c-0.066-0.079-0.162-0.128-0.27-0.137
		c-0.101-0.008-0.203,0.023-0.281,0.091l-0.16,0.136c-0.166,0.139-0.188,0.386-0.047,0.551L44.666,19.201z"/>
	<path fill="#0C0D0D" d="M38.843,17.523c-0.206-0.006-0.396,0.165-0.401,0.381l-0.088,3.127c-0.002,0.104,0.035,0.205,0.107,0.28
		c0.071,0.075,0.168,0.119,0.273,0.122l0.207,0.006c0.007,0,0.009,0,0.013,0c0.211,0,0.385-0.168,0.392-0.381l0.088-3.126
		c0.002-0.104-0.035-0.205-0.104-0.28c-0.072-0.075-0.17-0.12-0.271-0.123L38.843,17.523z"/>
	<path fill="#0C0D0D" d="M35.279,16.037l-0.152-0.145c-0.075-0.072-0.188-0.114-0.277-0.108c-0.104,0.002-0.203,0.046-0.273,0.121
		l-2.159,2.263c-0.071,0.075-0.11,0.176-0.107,0.28c0.001,0.104,0.045,0.203,0.119,0.274l0.152,0.145
		c0.073,0.073,0.173,0.107,0.271,0.107c0.104,0,0.207-0.04,0.282-0.121l2.16-2.263C35.439,16.433,35.436,16.186,35.279,16.037z"/>
	<path fill="#0C0D0D" d="M33.656,13.405l-0.055-0.203c-0.023-0.1-0.09-0.186-0.182-0.238c-0.09-0.053-0.193-0.067-0.297-0.042
		l-3.027,0.792c-0.1,0.026-0.188,0.091-0.238,0.181c-0.053,0.09-0.067,0.196-0.041,0.296l0.053,0.204
		c0.047,0.175,0.206,0.292,0.379,0.292c0.033,0,0.065-0.005,0.099-0.014l3.027-0.792C33.587,13.829,33.712,13.615,33.656,13.405z"/>
	<path fill="#0C0D0D" d="M30.407,8.873l2.899,1.173c0.049,0.02,0.1,0.028,0.146,0.028c0.153,0,0.303-0.092,0.362-0.243l0.078-0.195
		c0.039-0.096,0.037-0.204-0.004-0.3c-0.039-0.095-0.115-0.171-0.212-0.21l-2.902-1.173c-0.2-0.082-0.428,0.015-0.509,0.216
		L30.19,8.363c-0.039,0.096-0.037,0.204,0.003,0.3C30.235,8.758,30.312,8.834,30.407,8.873z"/>
	<path fill="#0C0D0D" d="M35.557,6.93c0.071,0.123,0.201,0.188,0.334,0.188c0.068,0,0.137-0.018,0.2-0.056l0.181-0.109
		c0.088-0.052,0.151-0.14,0.18-0.241c0.023-0.1,0.009-0.206-0.047-0.295l-1.617-2.678c-0.057-0.088-0.143-0.152-0.241-0.177
		s-0.207-0.009-0.296,0.045l-0.182,0.109c-0.186,0.111-0.241,0.352-0.133,0.537L35.557,6.93z"/>
</g>
</svg>
