<?xml version="1.0" encoding="utf-8"?>
<!-- Generator: Adobe Illustrator 16.0.4, SVG Export Plug-In . SVG Version: 6.00 Build 0)  -->
<!DOCTYPE svg PUBLIC "-//W3C//DTD SVG 1.1//EN" "http://www.w3.org/Graphics/SVG/1.1/DTD/svg11.dtd">
<svg version="1.1" id="Capa_1" xmlns="http://www.w3.org/2000/svg" xmlns:xlink="http://www.w3.org/1999/xlink" x="0px" y="0px"
	 width="64px" height="64px" viewBox="0 0 64 64" enable-background="new 0 0 64 64" xml:space="preserve">
<g>
	<circle fill="#020202" cx="29.414" cy="6.578" r="5.082"/>
	<path fill="#020202" d="M42.254,27.913c1.729,3.449,6.889,0.419,5.167-3.021c-2.841-5.677-7.155-9.935-13.374-11.654
		c-0.875-0.242-1.629-0.106-2.227,0.252c-6.905,1.759-10.504-3.794-13.81-9.179c-2.015-3.28-7.192-0.278-5.166,3.02
		c3.159,5.144,6.877,9.885,11.877,11.718c-0.249,0.651-0.391,1.355-0.391,2.094v15.429c-1.335,7.393-2.67,14.785-4.005,22.178
		c-0.682,3.771,5.083,5.384,5.768,1.592c1.255-6.949,2.51-13.896,3.765-20.846c0.354,0.005,0.709,0.003,1.061-0.014
		c0.403,1.097,0.853,2.181,1.301,3.246c0.772,1.834,1.596,4.521,3.399,5.631c4.173,2.559,8.072-1.26,9.714-4.933
		c0.665-1.489,0.446-3.202-1.073-4.094c-1.292-0.757-3.428-0.416-4.094,1.073c-0.338,0.758-0.768,1.466-1.236,2.146
		c-0.015,0.021-0.094,0.092-0.191,0.18c-1.111-2.051-2.012-4.369-2.645-6.61v-14.98c0-0.193-0.011-0.383-0.029-0.571
		C38.786,22.257,40.703,24.81,42.254,27.913z"/>
</g>
</svg>
