<?xml version="1.0" encoding="utf-8"?>
<!-- Generator: Adobe Illustrator 16.0.4, SVG Export Plug-In . SVG Version: 6.00 Build 0)  -->
<!DOCTYPE svg PUBLIC "-//W3C//DTD SVG 1.1//EN" "http://www.w3.org/Graphics/SVG/1.1/DTD/svg11.dtd">
<svg version="1.1" id="Capa_1" xmlns="http://www.w3.org/2000/svg" xmlns:xlink="http://www.w3.org/1999/xlink" x="0px" y="0px"
	 width="64px" height="64px" viewBox="0 0 64 64" enable-background="new 0 0 64 64" xml:space="preserve">
<path fill="#0E0F0F" d="M33.078,26.484l0.393,6.242l-4.116,0.26l-0.394-6.242L33.078,26.484z M60.281,31.971
	c-2.105,0.217-3.576-2.611-3.576-7.678c-1.736-1.567-9.93,6.998-9.93,6.998l0.053,0.114c-1.854,1.298-3.744,2.539-5.633,3.781
	c0.945-2.646,1.854-5.31,2.645-8.012c0.023-0.085,0.043-0.167,0.059-0.249l6.971-6.285c-4.646-1.889-2.869-4.509-7.938-6.621
	c-1.513,0.453-3.106,9.394-3.433,11.299c-0.104,0.174-0.188,0.368-0.254,0.588c-0.863,2.961-1.875,5.871-2.914,8.771
	c-6.845-2.015-14.03-0.954-20.877,0.779c-3.567,0.903-3.578,5.048-1.507,6.978c0.266,0.463,0.739,0.817,1.46,0.942
	c4.128,0.714,7.784,2.435,11.189,4.847c2.515,1.778,4.894-2.354,2.405-4.117c-1.178-0.834-2.407-1.588-3.673-2.27
	c3.534-0.334,7.06-0.098,10.574,1.225c1.531,0.574,3.226-0.172,4.222-1.398c3.272-2.29,6.688-4.375,9.937-6.706
	c0.086-0.062,0.164-0.127,0.235-0.192C53.914,33.848,61.92,31.802,60.281,31.971z M9.583,37.557c1.784-3.654,3.775-3.646,6.487-3.64
	c1.178,0.005,2.5,0.01,3.892-0.332l8.643-0.546l-0.394-6.244l-11.19,0.706c-1.725,0.109-3.034,1.595-2.925,3.319
	c0.028,0.438,0.145,0.848,0.331,1.215c-2.443,0.133-4.85,0.904-6.763,5.123c-1.73,0.047-3.329,1.148-3.917,2.884
	C3.34,41.24,3.501,42.49,4.08,43.51l-0.579,1.709l4.03,1.367l0.312-0.923c0.179-0.003,0.356-0.017,0.532-0.042
	c0.622,0.55,1.567,0.566,2.204,0.003c0.458-0.403,0.634-1.006,0.526-1.565c0.298-0.373,0.541-0.802,0.704-1.281
	C12.513,40.702,11.523,38.462,9.583,37.557z"/>
</svg>
