<?xml version="1.0" encoding="utf-8"?>
<!-- Generator: Adobe Illustrator 16.0.4, SVG Export Plug-In . SVG Version: 6.00 Build 0)  -->
<!DOCTYPE svg PUBLIC "-//W3C//DTD SVG 1.1//EN" "http://www.w3.org/Graphics/SVG/1.1/DTD/svg11.dtd">
<svg version="1.1" id="Capa_1" xmlns="http://www.w3.org/2000/svg" xmlns:xlink="http://www.w3.org/1999/xlink" x="0px" y="0px"
	 width="64px" height="64px" viewBox="0 0 64 64" enable-background="new 0 0 64 64" xml:space="preserve">
<g>
	<path fill="#0E0F0F" d="M47.457,17.903c-0.029,0.007-0.057,0.006-0.086,0.014c-5.423,1.413-10.521,3.782-15.858,5.447
		c-3.892,1.214-1.279,6.979,2.57,5.778c3.308-1.031,6.515-2.389,9.78-3.554c-0.942,2.522-1.956,5.016-3.041,7.484
		c-0.407,0.263-0.771,0.648-1.043,1.216c-2.838,5.933-5.715,11.896-9.047,17.567c-2.071,3.522,3.398,6.705,5.461,3.189
		c2.397-4.083,4.559-8.318,6.641-12.585c1.512,1.272,2.969,2.618,4.396,3.987c-0.943,2.109-1.889,4.221-2.83,6.33
		c-1.648,3.689,3.802,6.91,5.463,3.191c1.289-2.892,2.582-5.785,3.877-8.677c0.582-1.303,0.605-2.765-0.495-3.833
		c-1.679-1.627-3.376-3.256-5.146-4.797c2.381-5.285,4.518-10.677,6.325-16.185C55.88,18.057,50.534,15.777,47.457,17.903z"/>
	<circle fill="#0E0F0F" cx="48.238" cy="10.995" r="5.262"/>
	<path fill="#0E0F0F" d="M26.35,25.028c-3.147,1.181-6.556,2.027-9.849,2.467c-0.068-0.048-0.13-0.107-0.201-0.149
		c-1.619-0.95-3.29-0.239-4.326,1.135c-2.699,3.574-3.313,8.733-1.939,12.978c0.092,0.285,0.218,0.531,0.358,0.758
		c0.177,2.758,0.188,5.66,0.188,8.486c0,1.311,1.062,2.37,2.372,2.37s2.372-1.062,2.372-2.37c0-2.02-0.008-4.207-0.081-6.383
		c1.379,0.695,3.183,1.798,4.713,2.812l-1.104,4.418c-0.318,1.271,0.455,2.559,1.726,2.875c0.193,0.051,0.387,0.072,0.577,0.072
		c1.062,0,2.03-0.723,2.299-1.797l1.506-6.021c0.237-0.949-0.134-1.949-0.936-2.515C23.128,43.532,19,40.68,16.058,39.48
		c-0.694-2.404-0.424-5.037,1.031-7.28c3.659-0.486,7.443-1.423,10.929-2.73c1.226-0.46,1.847-1.827,1.388-3.053
		C28.943,25.19,27.578,24.568,26.35,25.028z"/>
	<circle fill="#0E0F0F" cx="15.348" cy="21.864" r="4.635"/>
</g>
</svg>
