<?xml version="1.0" encoding="utf-8"?>
<!-- Generator: Adobe Illustrator 16.0.4, SVG Export Plug-In . SVG Version: 6.00 Build 0)  -->
<!DOCTYPE svg PUBLIC "-//W3C//DTD SVG 1.1//EN" "http://www.w3.org/Graphics/SVG/1.1/DTD/svg11.dtd">
<svg version="1.1" id="Capa_1" xmlns="http://www.w3.org/2000/svg" xmlns:xlink="http://www.w3.org/1999/xlink" x="0px" y="0px"
	 width="64px" height="64px" viewBox="0 0 64 64" enable-background="new 0 0 64 64" xml:space="preserve">
<g>
	<path fill="#0E0F0F" d="M33.043,14.553c-0.801-0.232-1.111,3.641-3.182,3.399c-2.071-0.241-2.324-3.554-3.085-3.332
		c-8.286,2.405-11.909,8.593-11.621,17.818c0.04,1.305,1.112,2.333,2.409,2.333c0.025,0,0.051,0,0.076,0
		c1.331-0.043,2.376-1.153,2.333-2.485c-0.104-3.371,0.61-6.232,2.061-8.491c-0.003,0.123-0.015,0.244-0.015,0.368v9.575h11.402
		c-0.276-1.578-0.79-3.256-1.736-4.491c-0.48,0.134-1.001,0.106-1.47-0.083l-2.531-1.022c-0.571-0.23-1.018-0.671-1.259-1.237
		c-0.241-0.569-0.248-1.196-0.017-1.768c0.355-0.877,1.195-1.444,2.141-1.444c0.297,0,0.587,0.057,0.864,0.169l2.53,1.021
		c0.784,0.316,1.321,1.043,1.421,1.863c1.836,1.892,2.661,4.626,3.024,6.993h1.283v-9.575c0-0.222-0.015-0.441-0.027-0.659
		c1.549,2.291,2.308,5.233,2.197,8.716c-0.041,1.33,1.006,2.442,2.335,2.484c0.027,0.001,0.052,0.001,0.076,0.001
		c1.298,0,2.368-1.029,2.409-2.335C44.951,23.147,41.328,16.959,33.043,14.553z"/>
	<circle fill="#0E0F0F" cx="29.91" cy="7.87" r="5.949"/>
	<path fill="#0E0F0F" d="M35.868,36.044c-0.244-2.358-1.048-6.686-3.579-9.027c0.057-0.547-0.244-1.087-0.779-1.303l-2.383-0.962
		c-0.648-0.262-1.387,0.052-1.647,0.7c-0.263,0.648,0.051,1.386,0.698,1.648l2.383,0.962c0.445,0.18,0.928,0.085,1.274-0.201
		c2.101,2.134,2.834,6.019,3.085,8.183h-1.232H19.905l0.482,26.034h18.321l1.206-26.034h-3.295H35.868z"/>
</g>
</svg>
