<?xml version="1.0" encoding="utf-8"?>
<!-- Generator: Adobe Illustrator 16.0.4, SVG Export Plug-In . SVG Version: 6.00 Build 0)  -->
<!DOCTYPE svg PUBLIC "-//W3C//DTD SVG 1.1//EN" "http://www.w3.org/Graphics/SVG/1.1/DTD/svg11.dtd">
<svg version="1.1" id="Capa_1" xmlns="http://www.w3.org/2000/svg" xmlns:xlink="http://www.w3.org/1999/xlink" x="0px" y="0px"
	 width="64px" height="64px" viewBox="0 0 64 64" enable-background="new 0 0 64 64" xml:space="preserve">
<g>
	<path fill="#0E0F0F" d="M42.484,37.484c1.961,2.802,6.666,0.229,4.686-2.604c-3.169-4.528-6.417-9.933-11.367-12.5
		c-0.25-0.13-0.498-0.214-0.742-0.266c-0.949-0.814-2.305-1.115-3.575-0.902c-0.229,0.02-0.464,0.065-0.708,0.149
		c-5.253,1.803-9.637,7.177-13.419,11.182c-2.378,2.518,1.843,5.829,4.194,3.339c1.888-1.999,3.969-4.479,6.271-6.475
		c-0.043,0.792-0.086,1.584-0.138,2.375c-2.292,1.827-10.221,8.461-11.332,13.565c0,0,4.721,2.086,11.504,2.752
		c-0.96,2.834-3.405,8.752-4.677,11.145c-0.687,1.291,0.121,2.979,1.381,3.527c1.415,0.621,2.844-0.094,3.53-1.381
		c1.324-2.486,2.392-5.062,3.264-7.74c0.372-1.146-2.172-4.402-3.073-5.51c0.526,0.047,1.066,0.08,1.614,0.106
		c2.935,3.901,6.303,7.563,8.048,12.078c1.244,3.222,6.215,1.21,4.968-2.017c-1.345-3.479-3.614-6.418-5.914-9.341
		c-0.241-0.307-0.408-0.622-0.528-0.944c3.391-0.405,6.967-1.31,10.53-2.986c-4.532-7.895-10.574-12.915-11.026-13.285
		c0.055-0.846,0.104-1.693,0.146-2.541C38.617,31.565,40.57,34.749,42.484,37.484z"/>
	<path fill="#0E0F0F" d="M22.709,6.597c0.294,0.197,0.686,0.23,1.03,0.312c-0.128,0.478-0.197,1.019,0.135,1.342
		c0.443,0.431,1.115,0.439,1.64,0.75c0.043,0.025,0.089,0.043,0.136,0.058c-0.15,0.737-0.101,1.505,0.683,1.872
		c0.646,0.304,1.506-0.115,2.142-0.496c0.004,0.002,0.009,0.004,0.012,0.005c0.119,0.046,0.351,0.559,0.581,1.062
		c-0.591,0.405-1.044,0.923-1.295,1.511c-2.405-0.875-4.624-0.79-5.017,0.222c-0.406,1.044,1.288,2.678,3.785,3.647
		c0.542,0.211,1.075,0.37,1.584,0.484c0.209,0.545,0.53,1.058,0.97,1.499c1.681,1.686,4.411,1.689,6.096,0.009
		c0.477-0.476,0.812-1.036,1.021-1.632c0.401-0.092,0.815-0.209,1.233-0.358c2.522-0.894,4.268-2.475,3.896-3.53
		c-0.354-1.002-2.487-1.17-4.858-0.423c-0.629-1.357-2.33-2.332-4.333-2.332c-0.278,0-0.549,0.021-0.814,0.058
		C31.258,9.8,31.03,8.624,30.851,8.425c-0.003-0.003-0.005-0.005-0.009-0.008c-0.038-1.061-0.266-2.096-0.701-3.117
		c-0.126-0.296-0.28-0.583-0.451-0.858c0.046-0.27-0.051-0.535-0.369-0.754c-0.099-0.069-0.211-0.144-0.33-0.217
		c-0.105-0.13-0.211-0.258-0.319-0.382c-0.404-0.467-1.109-1.292-1.718-1.496c-1.57-0.527-0.64,3.041-0.174,3.731
		c0.122,0.219,0.3,0.356,0.509,0.429c0,0.027,0.002,0.056,0.005,0.084C27.376,6.48,27.599,6.96,27.9,7.371
		c-1.396-1.004-2.935-1.725-4.78-2.014C22.422,5.246,22.183,6.243,22.709,6.597z M26.942,9.804c-0.006-0.007-0.009-0.01-0.012-0.016
		c-0.001-0.003-0.001-0.003-0.003-0.007C26.932,9.789,26.938,9.796,26.942,9.804z M26.792,9.651
		c0.002,0.001,0.003,0.002,0.006,0.005c-0.022-0.001-0.044-0.001-0.065-0.004C26.768,9.654,26.784,9.653,26.792,9.651z"/>
</g>
</svg>
