<?xml version="1.0" encoding="utf-8"?>
<!-- Generator: Adobe Illustrator 16.0.4, SVG Export Plug-In . SVG Version: 6.00 Build 0)  -->
<!DOCTYPE svg PUBLIC "-//W3C//DTD SVG 1.1//EN" "http://www.w3.org/Graphics/SVG/1.1/DTD/svg11.dtd">
<svg version="1.1" id="Capa_1" xmlns="http://www.w3.org/2000/svg" xmlns:xlink="http://www.w3.org/1999/xlink" x="0px" y="0px"
	 width="26.297px" height="27.352px" viewBox="0 0 26.297 27.352" enable-background="new 0 0 26.297 27.352" xml:space="preserve">
<g>
	<polygon points="12.498,6.801 13.149,6.801 13.149,6.089 12.878,6.089 12.498,6.089 	"/>
	<path d="M22.654,17.142c0-0.479-0.391-0.874-0.872-0.874c-0.48,0-0.873,0.396-0.873,0.874c0,0.481,0.393,0.874,0.873,0.874
		C22.264,18.016,22.654,17.623,22.654,17.142z M21,17.142c0-0.43,0.352-0.781,0.781-0.781c0.432,0,0.781,0.354,0.781,0.781
		c0,0.434-0.352,0.781-0.781,0.781C21.352,17.922,21,17.573,21,17.142z"/>
	<path d="M22.684,15.342c0,0-0.375-0.283-0.898-0.236v1.03c0,0,0.275,0.01,0.396,0.104L22.684,15.342z"/>
	<circle cx="21.782" cy="17.142" r="0.388"/>
	<path d="M19.077,13.649c0.142-0.317,0.31-0.633,0.485-0.942l0.621,0.563l0.002-0.002c0,0,0.002,0.003,0.004,0.005
		c0.362,0.365,0.953,0.365,1.313,0c0.367-0.358,0.367-0.951,0.002-1.312c0-0.003-0.004-0.004-0.004-0.006l-0.962-0.961
		c0.068-0.134,0.146-0.269,0.208-0.396c0.438-0.94,0.808-2.199-0.138-2.958c-0.77-0.624-2.072-0.431-2.986-0.439
		c-0.562-0.01-1.172-0.041-1.631-0.402c-0.484-0.381-0.446-1.095-0.312-1.724c0.115-0.035,0.209-0.131,0.209-0.264v-1.93
		c0-0.155-0.119-0.279-0.268-0.287l0.002-0.007c0.002-0.047,0.006-0.094,0.006-0.146c0-0.902-0.305-1.042-0.879-1.605
		C14.204,0.296,13.643,0,12.821,0c-0.823,0-1.385,0.296-1.931,0.835c-0.576,0.562-0.88,0.703-0.88,1.605
		c0,0.035,0.002,0.07,0.005,0.106l0.001,0.044C9.868,2.602,9.751,2.725,9.751,2.88v1.928C9.751,4.97,9.875,5.1,10.03,5.1h0.094
		c0.056,0.062,0.131,0.093,0.209,0.093h0.285c0.163,0,0.294-0.137,0.294-0.306V4.865c0.362,0.723,1.102,1.224,1.966,1.224
		c0.81,0,1.509-0.44,1.894-1.09c0.045,0.107,0.129,0.195,0.25,0.195h0.285c0.062,0,0.109-0.033,0.157-0.069
		c-0.131,0.67-0.144,1.413,0.334,1.846c-0.452-0.139-0.774-0.168-0.774-0.168H14.83h-0.717H13.15v0.08h-0.651v-0.08h-1.086h-0.716
		H10.6v0.002C10.515,6.81,9.059,6.951,7.933,8.117l-2.16,2.158c-0.002,0.002-0.004,0.006-0.006,0.009L7.082,11.6
		c0.004-0.003,0.006-0.005,0.008-0.008l0.001,0.121l2.377-2.146h0.519l0.001,4.08h-2.94v-0.596H5.607l1.228-1.128l-0.001-0.121
		c-0.004,0.006-0.004,0.008-0.006,0.01l-1.315-1.313l-1.458,1.457c-0.002,0.002-0.003,0.003-0.005,0.006
		c-0.297,0.296-0.337,0.741-0.147,1.093H2.261v0.596H0v13.702h26.297V13.649H19.077z M15.021,2.497
		c-0.138,0-0.233,0.104-0.268,0.237c-0.388-0.634-1.08-1.06-1.877-1.06c-0.864,0-1.604,0.501-1.966,1.224V2.804
		c0-0.17-0.131-0.307-0.294-0.307h-0.19c0.017-1.441,0.878-2.078,2.45-2.078c1.41,0,2.312,0.631,2.335,2.078H15.021z M12.498,7.008
		h0.651V7.8h-0.651V7.008z M12.498,8.081h0.651v0.794h-0.651V8.081z M12.498,9.179h0.651v0.792h-0.651V9.179z M12.498,10.277h0.651
		v0.79h-0.651V10.277z M12.498,11.412h0.651v0.792h-0.651V11.412z M12.498,12.543h0.651v0.79h-0.651V12.543z M8.824,26.985H7.048
		v-2.947h1.776V26.985z M8.824,23.507H7.048v-1.055h1.776V23.507z M8.824,22.008H7.048v-1.054h1.776V22.008z M11.439,26.823H9.662
		v-2.95h1.777V26.823z M11.439,23.345H9.662V22.29h1.777V23.345z M11.439,21.846H9.662v-1.054h1.777V21.846z M11.439,20.32H9.662
		v-1.054h1.777V20.32z M14.129,26.823h-1.775v-5.948h1.775V26.823z M14.129,20.348h-1.775v-1.054h1.775V20.348z M14.129,18.848
		h-1.775v-1.054h1.775V18.848z M14.129,17.323h-1.775v-1.058h1.775V17.323z M23.706,16.108c0,0.001,0,0.002,0,0.004
		c0-0.004-0.002-0.007-0.002-0.009C23.704,16.105,23.706,16.106,23.706,16.108z M15.562,9.568h0.004h0.002h0.604l2.23,2.025
		c0.008,0,0.016,0.001,0.021,0.001l0.004-0.003c0.002,0.002,0.053,0.004,0.088,0.005l1.314-1.312l0.02,0.021l0.021-0.021
		c-0.002-0.003-2.168-2.167-2.168-2.167c-0.301-0.312-0.625-0.549-0.939-0.729c0.817,0.153,1.73,0.014,2.531,0.084
		c0.66,0.062,1.254,0.292,1.574,0.901c0.387,0.733-0.051,1.723-0.456,2.496l-0.351-0.353l-1.297,1.294
		c0-0.001-0.02-0.002-0.037-0.003l-0.004,0.003c-0.002-0.002-0.053-0.004-0.088-0.005l-0.012,0.011l-0.016-0.013
		c-0.006,0-0.016,0-0.016-0.002l-0.014,0.015l0.865,0.786c-0.194,0.341-0.391,0.688-0.555,1.044h-3.328V9.568z M16.689,26.823
		h-1.772v-3.617h1.772V26.823z M16.689,22.678h-1.772v-1.054h1.772V22.678z M16.689,21.18h-1.772v-1.054h1.772V21.18z
		 M16.689,19.655h-1.772v-1.056h1.772V19.655z M19.389,26.823h-1.775v-2.95h1.775V26.823z M19.389,23.345h-1.775V22.29h1.775V23.345
		z M19.389,21.846h-1.775v-1.054h1.775V21.846z M19.389,20.32h-1.775v-1.054h1.775V20.32z M20.846,14.084v0.13
		c-0.854,0-1.232,0.771-1.234,0.779l-0.115-0.058C19.499,14.929,19.911,14.084,20.846,14.084z M20.834,14.613v0.133
		c-0.5,0-0.717,0.438-0.727,0.458l-0.117-0.058C20,15.124,20.25,14.613,20.834,14.613z M19.553,17.142
		c0-1.208,0.979-2.188,2.188-2.188c0.918,0,1.704,0.563,2.026,1.369c-0.047,0.052-0.078,0.118-0.091,0.195
		c-0.002,0.007-0.002,0.021-0.002,0.026c-0.084-0.078-0.146-0.136-0.168-0.157c-0.043-0.045-0.104-0.069-0.174-0.069
		c-0.097,0-0.194,0.048-0.263,0.121c-0.053,0.062-0.079,0.135-0.079,0.207c-0.015,0.062,0.012,0.129,0.086,0.23
		c-0.129-0.003-0.246,0.058-0.3,0.158c-0.028,0.059-0.063,0.182,0.052,0.346l0.01,0.014c0.216,0.246,0.384,0.415,0.543,0.578
		c0.07,0.07,0.142,0.138,0.214,0.213c0.014,0.018,0.024,0.029,0.041,0.044c-0.017,0.023-0.029,0.047-0.041,0.069
		c-0.132-0.063-0.272-0.116-0.396-0.116c-0.027,0-0.056,0.003-0.08,0.008l-0.024,0.009l-0.023,0.015
		c-0.114,0.077-0.147,0.172-0.155,0.236c-0.017,0.146,0.082,0.256,0.101,0.273l0.012,0.016l0.017,0.009
		c0.031,0.02,0.063,0.043,0.104,0.067c-0.379,0.318-0.869,0.514-1.403,0.514C20.532,19.329,19.553,18.349,19.553,17.142z
		 M22.762,19.493c-0.018,0.017-0.422,0.417-0.975,0.226l0.043-0.123c0.475,0.165,0.824-0.179,0.84-0.194L22.762,19.493z
		 M21.604,20.215l0.043-0.122c0.809,0.28,1.418-0.323,1.424-0.33l0.094,0.091C23.157,19.859,22.488,20.523,21.604,20.215z
		 M25.055,19.466c0,0,0.033-0.114-0.172-0.146c0,0-0.492-0.007-0.861-0.129c-0.107-0.052-0.379-0.124-0.477-0.245
		c-0.096-0.118-0.398-0.314-0.398-0.314s-0.152-0.16,0.031-0.282c0.215-0.048,0.68,0.276,0.68,0.276s0.197,0.015,0.148-0.119
		c0,0-0.059-0.187-0.279-0.416c-0.242-0.249-0.447-0.438-0.75-0.785c-0.174-0.251,0.131-0.318,0.215-0.229
		c0.029-0.016,0.896,0.812,0.961,0.737c0.043-0.048-1.049-1.019-0.982-1.138c-0.021-0.152,0.188-0.243,0.258-0.171
		c0.08,0.081,1.201,1.121,1.176,1.014c-0.035-0.124-0.762-0.893-0.75-0.969c0.021-0.169,0.191-0.234,0.299-0.094
		c0.025,0.034,0.836,1.064,0.857,0.961c0.029-0.126-0.273-0.436-0.404-0.717c-0.074-0.164,0.145-0.195,0.223-0.072
		c0.137,0.22,0.654,0.922,0.682,0.973c0,0,0.275,0.441,0.445,1.077l0.057,0.203L25.055,19.466z"/>
</g>
</svg>
