<?xml version="1.0" encoding="utf-8"?>
<!-- Generator: Adobe Illustrator 16.0.4, SVG Export Plug-In . SVG Version: 6.00 Build 0)  -->
<!DOCTYPE svg PUBLIC "-//W3C//DTD SVG 1.1//EN" "http://www.w3.org/Graphics/SVG/1.1/DTD/svg11.dtd">
<svg version="1.1" id="Capa_1" xmlns="http://www.w3.org/2000/svg" xmlns:xlink="http://www.w3.org/1999/xlink" x="0px" y="0px"
	 width="64px" height="64px" viewBox="0 0 64 64" enable-background="new 0 0 64 64" xml:space="preserve">
<g>
	<circle fill="#0E0F0F" cx="29.394" cy="15.996" r="3.221"/>
	<path fill="#0E0F0F" d="M60.128,47.255l-23.899,2.861c0.736-0.513,1.125-1.438,0.896-2.361l-3.57-14.423
		c0.01-0.098,0.016-0.198,0.016-0.303c0-1.511,0-3.021,0-4.532l7.1-0.423c0.08,0.043,0.159,0.086,0.239,0.129
		c0.669,0.358,1.284,0.171,1.69-0.244l7.873-0.469c0.37-0.022,0.653-0.341,0.633-0.712c-0.022-0.373-0.349-0.655-0.713-0.633
		l-7.317,0.436c-0.054-0.424-0.288-0.829-0.776-1.091c-3.141-1.686-6.281-3.372-9.421-5.058c-0.035-0.019-0.067-0.027-0.103-0.042
		c-0.942-0.832-2.508-0.867-3.492-0.103c-0.251,0.023-0.509,0.11-0.762,0.295c-2.869,2.113-5.741,4.227-8.611,6.339
		c-0.41,0.302-0.585,0.688-0.599,1.074l-6.761,0.402c-0.372,0.022-0.656,0.342-0.633,0.714c0.02,0.351,0.306,0.623,0.65,0.634
		c0.021,0,0.041,0,0.063-0.001l7.326-0.437c0.483,0.384,1.166,0.506,1.808,0.033c0.069-0.051,0.139-0.102,0.208-0.153l6.417-0.382
		c0,1.091,0,2.183,0,3.273c-0.001,0.002-0.003,0.003-0.004,0.005L20.593,45c-0.635,1.055-0.297,2.423,0.757,3.059
		c1.053,0.637,2.423,0.297,3.059-0.757l5.683-9.421L32.8,48.825c0.161,0.649,0.599,1.155,1.15,1.438l-29.678-3.01l-0.091,0.895
		l30.293,3.072l0.051,0.006l25.711-3.078L60.128,47.255z M33.57,24.263c1.611,0.865,3.222,1.73,4.832,2.595l-4.832,0.288
		C33.57,26.185,33.57,25.224,33.57,24.263z M28.388,27.455l-4.419,0.263c1.473-1.084,2.946-2.168,4.419-3.253
		C28.388,25.462,28.388,26.458,28.388,27.455z"/>
</g>
</svg>
