<?xml version="1.0" encoding="utf-8"?>
<!-- Generator: Adobe Illustrator 16.0.4, SVG Export Plug-In . SVG Version: 6.00 Build 0)  -->
<!DOCTYPE svg PUBLIC "-//W3C//DTD SVG 1.1//EN" "http://www.w3.org/Graphics/SVG/1.1/DTD/svg11.dtd">
<svg version="1.1" id="Capa_1" xmlns="http://www.w3.org/2000/svg" xmlns:xlink="http://www.w3.org/1999/xlink" x="0px" y="0px"
	 width="64px" height="64px" viewBox="0 0 64 64" enable-background="new 0 0 64 64" xml:space="preserve">
<g>
	<path fill="#0E0F0F" d="M50.762,30.678c-5.738,2.673-11.632,4.946-17.607,7.001c-1.056-3.396-1.656-6.263-2.532-10.341
		c-0.364-1.694-1.163-3.216-2.293-4.354c3.308-4.908,6.616-9.815,9.924-14.723c3.101-4.599-3.688-9.969-6.812-5.336
		c-4.525,6.715-9.053,13.431-13.579,20.147c-0.182,0.271-0.328,0.543-0.444,0.817c-1.178,1.491-1.806,3.383-1.395,5.303
		c1.056,4.896,2.13,9.812,3.67,14.584c0.567,1.756,1.895,3.05,3.502,3.806c0.145,0.126,0.298,0.249,0.47,0.367
		c8.05,5.483,16.418,10.448,25.296,14.481c5.08,2.305,8.413-5.686,3.332-7.99c-5.585-2.532-10.934-5.455-16.124-8.656
		c6.037-2.073,11.99-4.362,17.787-7.062C59.001,36.371,55.823,28.319,50.762,30.678z"/>
	<path fill="#0E0F0F" d="M20.644,16.829c2.507-3.197,1.945-7.822-1.255-10.327C16.188,3.998,11.567,4.56,9.063,7.759
		c-2.507,3.198-1.943,7.821,1.255,10.327C13.517,20.592,18.141,20.028,20.644,16.829z"/>
</g>
</svg>
