<?xml version="1.0" encoding="utf-8"?>
<!-- Generator: Adobe Illustrator 16.0.4, SVG Export Plug-In . SVG Version: 6.00 Build 0)  -->
<!DOCTYPE svg PUBLIC "-//W3C//DTD SVG 1.1//EN" "http://www.w3.org/Graphics/SVG/1.1/DTD/svg11.dtd">
<svg version="1.1" id="Capa_1" xmlns="http://www.w3.org/2000/svg" xmlns:xlink="http://www.w3.org/1999/xlink" x="0px" y="0px"
	 width="16.189px" height="29.779px" viewBox="0 0 16.189 29.779" enable-background="new 0 0 16.189 29.779" xml:space="preserve">
<g>
	<path d="M10.325,21.774v3.479c0,0.72-0.587,1.306-1.306,1.306c-0.375,0-0.715-0.162-0.955-0.42c-0.236,0.258-0.581,0.42-0.958,0.42
		c-0.726,0-1.311-0.586-1.311-1.309L5.8,21.776c-3.295,0.502-5.697,2.064-5.697,3.917c0,2.258,3.567,4.087,7.971,4.087
		c4.399,0,7.969-1.829,7.969-4.087C16.039,23.838,13.627,22.275,10.325,21.774z"/>
	<path d="M16.155,25.211c-0.022-0.135-0.078-0.367-0.172-0.641L16.155,25.211z"/>
	<path d="M10.211,13.108L10.211,13.108l2.107-2.125L9.358,0H6.476L3.671,10.975l2.116,2.133H10.211z M8.082,9.752
		c0.798,0,1.442,0.646,1.442,1.441c0,0.802-0.646,1.44-1.442,1.44c-0.793,0-1.439-0.642-1.439-1.44
		C6.641,10.398,7.289,9.752,8.082,9.752z"/>
	<path d="M0.021,25.33c-0.003-0.015,0.001-0.057,0.013-0.119L0,25.336L0.021,25.33z"/>
	<path d="M14.743,22.713c0.641,0.421,1.032,1.245,1.238,1.857l-3.295-12.218l-2.873,2.951l0.002,5.671
		c2.009,0.232,3.732,0.85,4.859,1.692L14.743,22.713z"/>
	<path d="M16.155,25.211c0.013,0.062,0.018,0.104,0.015,0.119l0.021,0.006L16.155,25.211z"/>
	<path d="M0.033,25.211l0.166-0.65C0.108,24.837,0.053,25.074,0.033,25.211z"/>
	<path d="M1.398,22.757l0.118-0.088c1.085-0.813,2.729-1.42,4.646-1.67L6.162,25.27c0,0.457,0.37,0.825,0.824,0.825
		c0.452,0,0.823-0.368,0.823-0.825l-0.002-4.396c-0.562,0.015-1.114,0.055-1.645,0.122l0.003-5.71L3.315,12.36L0.199,24.559
		C0.395,23.961,0.767,23.17,1.398,22.757z"/>
	<path d="M8.175,20.872v-2.271H7.807v0.001v2.272C7.903,20.874,8,20.871,8.096,20.87C8.122,20.87,8.149,20.872,8.175,20.872z"/>
	<path d="M8.173,20.873v4.407h0.001l0.009,0.006c0.004,0.446,0.368,0.811,0.814,0.811c0.454,0,0.82-0.365,0.82-0.816l-0.002-4.303
		C9.287,20.915,8.737,20.88,8.173,20.873z"/>
	<path d="M2.646,11.671v0.002l0.67,0.688l0.354-1.387l-0.16-0.162c0,0-0.002-0.005-0.004-0.006c-0.237-0.237-0.624-0.237-0.86,0
		c-0.237,0.237-0.237,0.624,0,0.859C2.645,11.671,2.646,11.671,2.646,11.671z"/>
	<path d="M13.351,11.674c0.002-0.002,0.002-0.002,0.002-0.002c0.239-0.239,0.239-0.626,0.001-0.863
		c-0.236-0.237-0.623-0.237-0.861,0c0,0.001-0.004,0.005-0.004,0.005l-0.169,0.172l0.37,1.37L13.351,11.674z"/>
</g>
</svg>
