<?xml version="1.0" encoding="utf-8"?>
<!-- Generator: Adobe Illustrator 16.0.4, SVG Export Plug-In . SVG Version: 6.00 Build 0)  -->
<!DOCTYPE svg PUBLIC "-//W3C//DTD SVG 1.1//EN" "http://www.w3.org/Graphics/SVG/1.1/DTD/svg11.dtd">
<svg version="1.1" id="Capa_1" xmlns="http://www.w3.org/2000/svg" xmlns:xlink="http://www.w3.org/1999/xlink" x="0px" y="0px"
	 width="64px" height="64px" viewBox="0 0 64 64" enable-background="new 0 0 64 64" xml:space="preserve">
<g>
	<circle fill="#0E0F0F" cx="51.294" cy="16.823" r="3.804"/>
	<path fill="#0E0F0F" d="M46.469,53.191c0.619-0.274,1.139-0.801,1.332-1.627c0.967-4.146,2.334-9.604,3.583-13.875
		c0.236-0.467,0.38-0.998,0.421-1.554c0.275-3.685,0.74-7.333,1.41-10.968c0.483-2.631-1.943-4.235-3.938-3.949
		c-2.946-0.681-6.336-0.883-9.34-0.61c-0.693,0.063-1.203,0.329-1.539,0.682C36.084,13.85,29.357,9.346,23.694,6.789
		c-0.191-0.086-0.418,0-0.504,0.19c-0.086,0.192-0.001,0.417,0.191,0.504l-0.23-0.064l-12.968,46.11
		c-0.473,0.16-0.937,0.433-1.364,0.861c-2.017,2.014-4.65,0.059-4.761-0.025l-0.335,0.439c0.021,0.016,1.388,1.035,2.994,1.035
		c0.818,0,1.698-0.265,2.493-1.062c0.305-0.305,0.633-0.51,0.968-0.651l0.311,0.087l0.062-0.221
		c1.772-0.492,3.645,0.729,3.779,0.816c0.08,0.061,1.418,1.029,2.987,1.029c0.818,0,1.697-0.265,2.495-1.062
		c2.024-2.022,5-0.051,5.125,0.035l0.03-0.045c0.553,0.293,1.409,0.643,2.347,0.643c0.817,0,1.698-0.266,2.494-1.062
		c0.961-0.961,2.133-1.018,3.115-0.809v5.396h26.435v-5.742H46.469z M41.116,51.48c1.149-3.647,2.243-7.475,4.635-10.457
		c-0.907,3.396-1.786,6.938-2.479,9.912c-0.264,1.131,0.285,1.903,1.084,2.263h-10.66c-1.219-0.406-2.926-0.591-4.276,0.76
		c-2.016,2.017-4.65,0.062-4.761-0.022l-0.049,0.063c-1.112-0.545-3.448-1.349-5.188,0.392c-2.015,2.017-4.648,0.061-4.76-0.023
		l-0.166,0.218l0.154-0.228c-0.026-0.018-1.966-1.311-3.927-0.969l12.88-45.803c5.693,2.61,12.407,7.221,14.332,14.854
		c0.002,0.2,0.045,0.395,0.133,0.574c0.117,0.55,0.213,1.116,0.276,1.698c-1.083,0.618-1.704,2.148-0.569,3.313
		c1.963,2.018,5.027,3.275,8.022,3.363c-0.138,1.223-0.26,2.447-0.36,3.674c-0.104,0.062-0.211,0.133-0.315,0.222
		c-4.819,4.006-6.638,9.405-8.466,15.204C35.764,53.307,40.236,54.266,41.116,51.48z M40.734,25.061
		c-0.512-0.526-1.103-0.683-1.653-0.605c-0.028-0.236-0.063-0.468-0.103-0.699c0.27,0.082,0.584,0.12,0.959,0.086
		c2.176-0.198,4.561,0.408,6.783,1.013c-0.143,0.823-0.277,1.646-0.4,2.472C44.252,27.299,41.842,26.199,40.734,25.061z"/>
</g>
</svg>
