<?xml version="1.0" encoding="utf-8"?>
<!-- Generator: Adobe Illustrator 16.0.4, SVG Export Plug-In . SVG Version: 6.00 Build 0)  -->
<!DOCTYPE svg PUBLIC "-//W3C//DTD SVG 1.1//EN" "http://www.w3.org/Graphics/SVG/1.1/DTD/svg11.dtd">
<svg version="1.1" id="Capa_1" xmlns="http://www.w3.org/2000/svg" xmlns:xlink="http://www.w3.org/1999/xlink" x="0px" y="0px"
	 width="64px" height="64px" viewBox="0 0 64 64" enable-background="new 0 0 64 64" xml:space="preserve">
<g>
	<path fill="#0E0F0F" d="M51.216,33.887c-2.998-0.473-6.047-1.009-9.104-1.425c-1.402,1.904-2.813,3.767-4.225,5.585
		c1.566,0.311,3.393,0.658,4.987,0.914l-4.821,7.082c-3.207,4.178,1.303,8.102,5.012,4.484c5.65-6.104,5.849-7.719,9.36-12.062
		C53.564,37.062,53.473,34.24,51.216,33.887z"/>
	<circle fill="#0E0F0F" cx="53.889" cy="20.633" r="5.667"/>
	<path fill="#0E0F0F" d="M32.249,43.934c-0.938,0-1.799,0.326-2.481,0.865c2.248-2.389,7.923-8.504,10.689-12.218
		c-0.055,0.104-0.109,0.213-0.175,0.315c3.452-2.441,6.706-4.646,9.085-6.059c-1.817-2.488-2.51-4.25-2.713-5.482
		c-0.553-1.338,0.367-2.631,0.052-2.594c-0.127-0.206-0.287-0.408-0.492-0.599c-3.149-2.949-6.825-5.097-11.146-5.689
		c-2.598-0.356-5,0.077-7.575,0.15c-3.528,0.101-3.537,5.584,0,5.483c1.913-0.055,3.774-0.412,5.7-0.344
		c2.699,0.093,5.135,1.661,7.26,3.211c-6.512,2.474-12.372,6.415-16.309,11.793c-4.779,6.529-9.482,12.27-18.033,13.385
		c-3.456,0.451-1.006,5.939,2.491,5.484c4.579-0.601,8.874-1.931,12.637-4.675c0.233-0.17,1.078-0.812,2.352-1.772
		c-0.416-1.264-0.173-2.596,0.693-3.648c3.178-3.875,6.286-7.918,9.504-12.359c0.751-1.036,1.854-1.606,3.108-1.606
		c0.066,0,0.138,0.011,0.205,0.014c-0.461,0.306-0.927,0.767-1.375,1.43c-3.063,4.229-7.229,9.369-10.541,13.402
		c-2.224,2.711,1.384,6.115,3.629,3.379c0,0,0.055-0.059,0.148-0.154c-0.457,0.648-0.727,1.439-0.727,2.297
		c0,2.216,1.796,4.011,4.009,4.011c2.215,0,4.011-1.795,4.011-4.011C36.258,45.729,34.464,43.934,32.249,43.934z"/>
</g>
</svg>
