<?xml version="1.0" encoding="utf-8"?>
<!-- Generator: Adobe Illustrator 16.0.4, SVG Export Plug-In . SVG Version: 6.00 Build 0)  -->
<!DOCTYPE svg PUBLIC "-//W3C//DTD SVG 1.1//EN" "http://www.w3.org/Graphics/SVG/1.1/DTD/svg11.dtd">
<svg version="1.1" id="Capa_1" xmlns="http://www.w3.org/2000/svg" xmlns:xlink="http://www.w3.org/1999/xlink" x="0px" y="0px"
	 width="10.492px" height="30.258px" viewBox="0 0 10.492 30.258" enable-background="new 0 0 10.492 30.258" xml:space="preserve">
<g>
	<path d="M2.389,1.321c0.16-0.07,0.345,0.002,0.415,0.16c0.071,0.16-0.001,0.344-0.16,0.415C2.511,1.955,2.36,1.915,2.273,1.808
		l0.215,1.985c0.028-0.095,0.096-0.178,0.194-0.22C2.858,3.495,3.063,3.574,3.141,3.75c0.078,0.175-0.002,0.38-0.178,0.458
		c-0.166,0.075-0.359,0.005-0.445-0.15l0.104,0.959l0.273-0.173L2.91,4.489l0.273,0.228L3.526,4.62L3.394,4.951l0.198,0.296
		L3.236,5.223L3.015,5.502L2.928,5.157L2.625,5.045l0.173,1.589c0,0,0.282-0.94,1.418-1.495c1.135-0.556,2.255-0.131,2.255-0.131
		l-2.27-2.44c0.002,0.136-0.076,0.267-0.207,0.326C3.82,2.97,3.615,2.892,3.537,2.717C3.459,2.54,3.538,2.335,3.713,2.258
		C3.77,2.233,3.83,2.223,3.887,2.23L2.139,0.351C2.233,0.304,2.32,0.257,2.412,0.222c0.046-0.02,0.096-0.039,0.147-0.031
		C2.61,0.198,2.653,0.234,2.676,0.278C2.682,0.29,2.687,0.301,2.691,0.312C2.693,0.317,2.695,0.324,2.698,0.33l0.007,0.02
		c0.011,0.028,0.023,0.052,0.043,0.076C2.766,0.45,2.789,0.472,2.815,0.488c0.028,0.017,0.061,0.025,0.091,0.025
		c0.064,0.001,0.12-0.022,0.167-0.054c0.048-0.031,0.088-0.07,0.118-0.116L3.188,0.338C3.142,0.366,3.095,0.392,3.049,0.413
		C3.002,0.432,2.955,0.445,2.91,0.442C2.867,0.44,2.828,0.419,2.795,0.384c-0.017-0.017-0.03-0.038-0.043-0.058L2.743,0.309
		C2.739,0.303,2.736,0.297,2.731,0.291C2.723,0.279,2.715,0.268,2.707,0.257C2.63,0.166,2.504,0.146,2.395,0.169
		C2.339,0.183,2.29,0.209,2.245,0.24C2.203,0.269,2.164,0.301,2.132,0.342l-0.02-0.021l0.125,1.146
		C2.268,1.404,2.32,1.352,2.389,1.321z M4.831,3.758C5.02,3.674,5.241,3.76,5.325,3.95c0.083,0.189-0.002,0.41-0.192,0.494
		c-0.19,0.084-0.41-0.001-0.494-0.19C4.556,4.063,4.642,3.843,4.831,3.758z M4.361,4.414L4.488,4.52l0.16-0.045L4.585,4.629
		l0.092,0.137L4.513,4.755L4.41,4.885l-0.04-0.16L4.214,4.667l0.14-0.089L4.361,4.414z M4.091,3.529
		c0.083-0.037,0.18,0.001,0.217,0.084s0,0.181-0.085,0.217c-0.083,0.037-0.18,0-0.216-0.083C3.97,3.663,4.008,3.566,4.091,3.529z
		 M3.37,3.536l0.126,0.105l0.16-0.045L3.595,3.751l0.091,0.137l-0.165-0.01l-0.104,0.13l-0.04-0.162L3.222,3.789l0.141-0.088
		L3.37,3.536z M3.333,3.09L3.167,3.078l-0.104,0.13l-0.04-0.161L2.87,2.99l0.139-0.087l0.007-0.166l0.126,0.106l0.16-0.045
		L3.241,2.951L3.333,3.09z M3.029,1.937c0.053-0.023,0.114,0,0.136,0.053c0.023,0.053,0,0.114-0.052,0.137
		C3.061,2.15,3,2.126,2.976,2.074C2.953,2.021,2.976,1.961,3.029,1.937z M3.054,2.333c0.044,0.101-0.001,0.216-0.101,0.262
		c-0.1,0.044-0.217-0.001-0.261-0.101c-0.044-0.1,0.001-0.217,0.101-0.26C2.893,2.188,3.01,2.233,3.054,2.333z"/>
	<path d="M2.115,0.322C2.162,0.225,2.24,0.14,2.338,0.106C2.387,0.088,2.44,0.085,2.49,0.093c0.052,0.009,0.098,0.029,0.147,0.052
		c0.049,0.023,0.098,0.047,0.147,0.073c0.05,0.024,0.099,0.05,0.158,0.062c0.016,0.003,0.032,0.005,0.05,0.005
		C3.01,0.283,3.032,0.276,3.048,0.26C3.063,0.244,3.07,0.226,3.073,0.21c0.004-0.016,0.004-0.031,0.004-0.046
		C3.075,0.106,3.06,0.051,3.043,0L3.035,0.001c0,0.054,0.001,0.111-0.005,0.161c-0.004,0.024-0.012,0.05-0.022,0.056
		C3.003,0.22,2.998,0.222,2.989,0.222c-0.009,0-0.021-0.002-0.031-0.007C2.911,0.202,2.861,0.179,2.811,0.158L2.659,0.097
		c-0.05-0.02-0.105-0.042-0.163-0.046c-0.058-0.008-0.117,0-0.17,0.023C2.273,0.098,2.229,0.135,2.192,0.177
		C2.158,0.22,2.129,0.268,2.109,0.32l0.003,0.001L2.115,0.322z"/>
	<circle cx="5.377" cy="7.48" r="2.206"/>
	<path d="M7.48,10.399H6.664l-1.418,2.729l-1.418-2.729H3.056c-3.167,0.059-3.055,2.385-3.055,2.385L0,18.211h0.003
		c0,0.014-0.002,0.025-0.002,0.039c0,0.516,0.418,0.934,0.932,0.934c0.515,0,0.93-0.418,0.93-0.934c0-0.014-0.001-0.025-0.003-0.039
		h0.003v-5.023h0.584L2.44,28.999c0,0.696,0.562,1.26,1.257,1.26c0.693,0,1.258-0.563,1.258-1.26L4.953,18.797h0.564V29.01
		l0.009,0.008c0.008,0.686,0.563,1.238,1.25,1.238c0.69,0,1.25-0.561,1.25-1.252l-0.002-15.84h0.604v5.045H8.63
		c0,0.004,0,0.006,0,0.008c0,0.516,0.416,0.932,0.929,0.932c0.517,0,0.935-0.416,0.935-0.932c0-0.002,0-0.004,0-0.008v-5.426
		C10.287,10.364,7.48,10.399,7.48,10.399z"/>
</g>
</svg>
