<?xml version="1.0" encoding="utf-8"?>
<!-- Generator: Adobe Illustrator 16.0.4, SVG Export Plug-In . SVG Version: 6.00 Build 0)  -->
<!DOCTYPE svg PUBLIC "-//W3C//DTD SVG 1.1//EN" "http://www.w3.org/Graphics/SVG/1.1/DTD/svg11.dtd">
<svg version="1.1" id="Capa_1" xmlns="http://www.w3.org/2000/svg" xmlns:xlink="http://www.w3.org/1999/xlink" x="0px" y="0px"
	 width="64px" height="64px" viewBox="0 0 64 64" enable-background="new 0 0 64 64" xml:space="preserve">
<g>
	<path fill="#0E0F0F" d="M16.692,22.543c-0.113,0.646-0.686,1.178-1.356,1.48c0.361-0.076,0.724-0.196,1.054-0.404
		c0.332-0.205,0.624-0.521,0.801-0.898c0.365-0.771,0.314-1.639,0.193-2.41c-0.27-1.563-0.863-2.988-1.326-4.362
		c-0.186-0.543-0.27-1.156-0.271-1.618c0.11-0.021,0.229-0.04,0.351-0.055c0.253-0.035,0.527-0.06,0.809-0.089
		c-0.006,0.412,0.049,0.831,0.172,1.247c0.651,2.184,2.949,3.425,5.133,2.773c2.184-0.65,3.425-2.95,2.773-5.133
		c-0.651-2.183-2.949-3.426-5.133-2.774c-1.026,0.306-1.84,0.979-2.352,1.83c-0.312-0.185-0.639-0.349-0.996-0.488
		c-0.409-0.151-0.844-0.281-1.412-0.309c-0.286-0.014-0.617,0.008-1.028,0.135c-0.4,0.116-0.945,0.445-1.27,0.972
		c-0.334,0.519-0.392,1.052-0.378,1.422c0.016,0.383,0.098,0.672,0.194,0.925c0.199,0.495,0.458,0.853,0.704,1.192
		c0.247,0.336,0.493,0.645,0.702,0.961c0.833,1.259,1.7,2.413,2.275,3.675C16.604,21.242,16.812,21.904,16.692,22.543z
		 M15.793,14.03c0.012-0.106,0.033-0.179,0.049-0.166c0.01,0.005,0.014,0.104-0.051,0.247C15.793,14.086,15.791,14.053,15.793,14.03
		z M15.306,14.533c-0.068-0.004-0.033-0.045,0.049-0.084c0.065-0.03,0.157-0.056,0.258-0.08
		C15.489,14.487,15.349,14.542,15.306,14.533z"/>
	<path fill="#0E0F0F" d="M30.963,13.367c-1.958-2.105-5.097,1.049-3.146,3.146c0.681,0.733,1.485,1.328,2.301,1.904
		c0.102,0.072,0.21,0.145,0.315,0.218c-0.406,0.123-0.916,0.157-1.214,0.212c-0.981,0.182-1.979,0.285-2.925,0.621
		c-0.063,0.022-0.112,0.056-0.171,0.081c-0.568-0.454-1.288-0.731-2.157-0.736c-1.374-0.009-2.904,0.934-3.485,2.252
		c-0.154,0.098-0.307,0.215-0.452,0.366c-2.333,2.44-3.622,5.566-5.633,8.238c-0.73,0.971-0.156,2.485,0.798,3.044
		c1.139,0.666,2.316,0.168,3.043-0.799c0.988-1.313,1.773-2.77,2.626-4.178c0.243,2.018,0.509,4.032,0.813,6.042l-6.655,13.021
		l8.303,0.576c0,3.571,0,7.146,0,10.716c0,3.166,4.911,3.166,4.911,0c0-3.458,0-6.917,0-10.375l1.672,0.117L29.221,35.9
		c0.071-0.418,0.077-0.866-0.005-1.346c-0.042-0.24-0.074-0.479-0.114-0.718l-0.023-0.405h-0.042
		c-0.523-3.243-0.918-6.5-1.284-9.762c2.845-0.916,6.134-0.539,7.438-3.922C36.432,16.541,32.672,15.204,30.963,13.367z"/>
	<path fill="#0E0F0F" d="M6.608,12.679c-0.685-0.138-1.351,0.305-1.489,0.988c-0.137,0.683,0.305,1.351,0.989,1.488
		c0.684,0.137,2.05-0.875,2.05-0.875S7.291,12.816,6.608,12.679z"/>
	<path fill="#0E0F0F" d="M4.152,6.481c-0.904-0.127-1.74,0.504-1.866,1.41c-0.127,0.903,0.503,1.74,1.409,1.867
		c0.905,0.126,2.61-1.306,2.61-1.306S5.058,6.606,4.152,6.481z"/>
	<path fill="#0E0F0F" d="M9.915,6.112c-0.683,0.31-0.986,1.114-0.677,1.799c0.311,0.684,2.053,1.238,2.053,1.238
		s0.733-1.677,0.423-2.361C11.405,6.104,10.598,5.801,9.915,6.112z"/>
	<path fill="#0E0F0F" d="M59.07,20.136c-0.479-1.054-1.211-1.732-2.174-2.015c-1.791-0.527-3.869,0.45-4.709,0.915V5.01
		l-0.016-0.073c-0.002-0.003-0.006-0.013-0.012-0.021c0.191-0.371,0.708-1.225,1.369-1.254c0.013,0,0.021,0,0.033,0
		c0.496,0,1.027,0.497,1.535,1.438l0.327-0.177c-0.601-1.113-1.233-1.665-1.911-1.633c-0.73,0.032-1.279,0.753-1.562,1.23
		c-0.283-0.478-0.829-1.199-1.562-1.23c-0.658-0.033-1.312,0.52-1.912,1.633L48.812,5.1c0.519-0.962,1.056-1.454,1.565-1.438
		c0.662,0.03,1.179,0.884,1.37,1.254c-0.005,0.009-0.01,0.018-0.012,0.021l-0.016,0.036v13.801
		c-0.914-0.485-2.871-1.338-4.568-0.839c-0.963,0.283-1.693,0.961-2.174,2.015l0.34,0.155c0.433-0.951,1.084-1.561,1.938-1.811
		c1.669-0.492,3.698,0.484,4.466,0.908v20.521h-7.367l9.315,9.043l2.644,0.881v-9.924h-4.127V19.466
		c0.625-0.361,2.814-1.511,4.604-0.986c0.855,0.251,1.507,0.86,1.939,1.812L59.07,20.136z"/>
	<path fill="#0E0F0F" d="M46.598,22.823c-0.48,0-0.48,0.747,0,0.747C47.074,23.569,47.074,22.823,46.598,22.823z"/>
	<path fill="#0E0F0F" d="M55.729,24.874c0.481,0,0.481-0.746,0-0.746C55.251,24.128,55.251,24.874,55.729,24.874z"/>
	<path fill="#0E0F0F" d="M58.715,22.823c-0.482,0-0.482,0.747,0,0.747C59.195,23.569,59.195,22.823,58.715,22.823z"/>
	<path fill="#0E0F0F" d="M59.833,9.214c-0.481,0-0.481,0.746,0,0.746C60.312,9.959,60.312,9.214,59.833,9.214z"/>
	<path fill="#0E0F0F" d="M49.579,12.942c-0.483,0-0.483,0.745,0,0.745C50.061,13.688,50.061,12.942,49.579,12.942z"/>
	<path fill="#0E0F0F" d="M43.426,8.095c-0.48,0-0.48,0.746,0,0.746C43.907,8.84,43.907,8.095,43.426,8.095z"/>
	<path fill="#0E0F0F" d="M50.573,6.79c-0.483,0-0.483,0.745,0,0.745C51.052,7.535,51.052,6.79,50.573,6.79z"/>
	<path fill="#0E0F0F" d="M61.324,7.349c-0.48,0-0.48,0.746,0,0.746S61.805,7.349,61.324,7.349z"/>
</g>
</svg>
