<?xml version="1.0" encoding="utf-8"?>
<!-- Generator: Adobe Illustrator 16.0.4, SVG Export Plug-In . SVG Version: 6.00 Build 0)  -->
<!DOCTYPE svg PUBLIC "-//W3C//DTD SVG 1.1//EN" "http://www.w3.org/Graphics/SVG/1.1/DTD/svg11.dtd">
<svg version="1.1" id="Capa_1" xmlns="http://www.w3.org/2000/svg" xmlns:xlink="http://www.w3.org/1999/xlink" x="0px" y="0px"
	 width="64px" height="64px" viewBox="0 0 64 64" enable-background="new 0 0 64 64" xml:space="preserve">
<g>
	<path fill="#0E0F0F" d="M24.795,4.021c0.17,0.128,0.319,0.282,0.42,0.468c0.154,0.287,0.171,0.61,0.051,0.99
		c-0.208,0.654-0.167,1.095,0.114,1.311c0.152,0.117,0.355,0.139,0.583,0.09c0.385-0.082,0.842-0.369,1.251-0.742l0.023,0.047
		l1.313-0.803l-0.224-0.451L27.462,5.46l-0.043-0.049c-0.047,0.058-0.096,0.112-0.144,0.164l-0.262,0.16l0.035,0.068
		c-0.622,0.582-1.278,0.854-1.503,0.682C25.42,6.39,25.43,6.068,25.569,5.626c0.152-0.485,0.124-0.929-0.085-1.317
		c-0.109-0.203-0.26-0.372-0.43-0.515l0.204-0.179L17.707,1l-5.153,5.34l1.437,0.398l0.18,0.835l9.917-2.128l-0.146-0.678
		L24.795,4.021z"/>
	<circle fill="#0E0F0F" cx="38.915" cy="16.972" r="4.425"/>
	<path fill="#0E0F0F" d="M46.674,52.229c2.689,0,4.545,0,4.545,0l-3.312-8.601c0.059,0.015,0.116,0.031,0.176,0.04
		c0.358,0.057,0.733,0.038,1.104-0.062c1.457-0.383,2.324-1.877,1.938-3.332c-1.678-6.338-5.098-12.049-9.893-16.521
		c-0.016-0.015-0.029-0.027-0.047-0.041c-1.934,3.441-2.272,10.519-2.272,10.519l-1.188-11.27c-1.299,0.073-2.576,0.622-3.438,1.575
		c-2.539-2.97-4.196-6.776-4.619-10.718c-0.162-1.498-1.509-2.583-3.003-2.421c-1.497,0.16-2.582,1.504-2.421,3.001
		c0.632,5.893,3.432,11.565,7.686,15.563c0.418,0.394,0.926,0.629,1.458,0.709c0.107,0.016,0.223,0.026,0.334,0.028
		c0.004,0.02,0.008,0.039,0.01,0.058l-0.344-0.086c0,0-7.729,21.559-6.642,21.559c0.235,0,1.508,0,3.356,0l-2.589,6.015
		c-0.596,1.384,0.042,2.985,1.425,3.583c0.353,0.15,0.717,0.224,1.078,0.224c1.056,0,2.062-0.616,2.504-1.649l3.521-8.168
		c1.665,0,3.401,0,5.088,0c0.487,2.684,0.976,5.363,1.459,8.045c0.627,3.457,5.998,2.514,5.369-0.955
		C47.529,56.955,47.102,54.592,46.674,52.229z"/>
</g>
</svg>
