<?xml version="1.0" encoding="utf-8"?>
<!-- Generator: Adobe Illustrator 16.0.4, SVG Export Plug-In . SVG Version: 6.00 Build 0)  -->
<!DOCTYPE svg PUBLIC "-//W3C//DTD SVG 1.1//EN" "http://www.w3.org/Graphics/SVG/1.1/DTD/svg11.dtd">
<svg version="1.1" id="Capa_1" xmlns="http://www.w3.org/2000/svg" xmlns:xlink="http://www.w3.org/1999/xlink" x="0px" y="0px"
	 width="64px" height="64px" viewBox="0 0 64 64" enable-background="new 0 0 64 64" xml:space="preserve">
<g>
	<path fill="#0E0F0F" d="M59.312,42.131c-6.258,0-12.656-0.01-18.984-0.137c1.895-3.979,1.798-8.381,0.34-12.554
		c3.124-0.641,6.114-1.693,8.902-3.362c2.64-1.581,0.238-5.712-2.41-4.126c-2.999,1.794-6.318,2.822-9.779,3.235
		c-1.472-0.544-3.229-0.439-4.525,0.321c-0.344,0.202-0.646,0.431-0.914,0.681c-0.187-0.047-0.382-0.08-0.599-0.083
		c-2.414-0.045-4.656-0.751-6.929-1.508c-0.761-0.253-1.403-0.125-1.895,0.213c-4.217-5.76-8.187-7.147-10.306-5.909
		c-0.968,0.565-1.375,1.622-1.092,2.689l-0.064-0.006l0.031,0.063c-0.752,0.08-1.325,0.494-1.606,1.196
		c-0.498,1.246,0.015,3.382,2.117,5.497c-1.866-0.399-3.543,0.117-4.362,1.452c-0.859,1.401-0.744,3.868,2.107,6.498
		c-1.935-0.296-3.24-0.036-3.805,0.771c-0.565,0.811-0.334,2.055,0.687,3.701c-1.497,0.596-1.954,1.469-2.435,2.391
		c-0.281,0.535-0.572,1.087-1.103,1.621l0.462,0.459c0.599-0.604,0.927-1.229,1.215-1.778c0.5-0.952,0.894-1.702,2.457-2.215
		l0.406-0.134L6.99,40.75c-1.018-1.532-1.343-2.709-0.918-3.316c0.498-0.711,2.09-0.809,4.373-0.263l0.274-0.573
		c-3.454-2.666-3.736-5.147-2.929-6.466c0.86-1.403,2.939-1.68,5.065-0.682c0.098,0.077,0.198,0.154,0.302,0.229h0.001
		c0.562,0.414,1.178,0.805,1.832,1.166l0.368-0.534c-0.7-0.589-1.429-1.067-2.157-1.417c-2.719-2.128-3.626-4.533-3.115-5.81
		c0.215-0.538,0.688-0.806,1.325-0.792c0.343,0.586,1.027,1.314,1.743,1.84c1.052,0.773,2.008,1.007,2.691,0.656
		c0.319-0.163,0.402-0.386,0.414-0.545c0.026-0.308-0.177-0.608-0.637-0.946c-0.945-0.694-2.896-1.452-3.785-1.624
		c-0.349-0.877-0.081-1.75,0.705-2.211c1.815-1.06,5.526,0.339,9.505,5.801c-0.919,1.18-0.778,3.316,1.097,3.94
		c2.426,0.807,4.843,1.477,7.388,1.639c0.1,0.546,0.27,1.09,0.515,1.614c1.177,2.522,0.656,4.669-0.914,6.836
		c-0.312,0.431-0.515,0.903-0.627,1.397c-2.899,1.664-5.799,2.156-11.025,0.74c-0.076-0.807-0.076-1.625-0.076-2.475
		c0-1.555,0-3.316-0.478-5.229c-0.359-1.439-1.814-2.316-3.259-1.957c-1.439,0.36-2.316,1.817-1.955,3.257
		c0.317,1.272,0.317,2.562,0.317,3.929c0,1.555,0,3.315,0.479,5.229c0.228,0.91,0.91,1.633,1.802,1.914
		c3.403,1.067,6.193,1.522,8.583,1.522c3.015,0,26.192,0.026,35.42,0.026c1.483,0,2.688-1.353,2.688-2.836
		C62,43.334,60.797,42.131,59.312,42.131z M15.236,23.822c0.259,0.19,0.339,0.309,0.364,0.356c-0.012,0.008-0.03,0.018-0.053,0.031
		c-0.445,0.228-1.178,0.008-2.008-0.603c-0.479-0.351-0.897-0.762-1.202-1.13C13.244,22.764,14.563,23.327,15.236,23.822z"/>
	<circle fill="#0E0F0F" cx="32.238" cy="19.825" r="4.828"/>
</g>
</svg>
