<?xml version="1.0" encoding="utf-8"?>
<!-- Generator: Adobe Illustrator 16.0.4, SVG Export Plug-In . SVG Version: 6.00 Build 0)  -->
<!DOCTYPE svg PUBLIC "-//W3C//DTD SVG 1.1//EN" "http://www.w3.org/Graphics/SVG/1.1/DTD/svg11.dtd">
<svg version="1.1" id="Capa_1" xmlns="http://www.w3.org/2000/svg" xmlns:xlink="http://www.w3.org/1999/xlink" x="0px" y="0px"
	 width="64px" height="64px" viewBox="0 0 64 64" enable-background="new 0 0 64 64" xml:space="preserve">
<path fill="#101111" d="M34.585,3.996c3.017,0,5.461,2.445,5.461,5.461s-2.444,5.461-5.461,5.461c-3.016,0-5.461-2.445-5.461-5.461
	S31.569,3.996,34.585,3.996z M26.59,7.503l1.221,1.589l-5.894,4.53l-1.221-1.589L26.59,7.503z M44.533,22.328
	c-1.893-3.413-4.928-6.16-8.9-6.519c-0.216-0.019-0.419-0.015-0.607,0.009c-0.191-0.021-0.393-0.032-0.594-0.032
	c-1.574,0-2.997,0.651-4.017,1.696c-2.227,1.705-4.692,3.043-7.394,3.827c-0.088,0.025-0.187,0.051-0.281,0.076
	c1.556-1.972,3.591-3.717,5.429-5.341c2.559-2.258-1.192-5.982-3.737-3.736c-1.509,1.333-2.954,2.741-4.337,4.203
	c-1.576,1.664-4.228,4.278-3.933,6.821c0.376,3.233,3.73,3.812,6.423,3.43c2.192-0.31,4.271-1.055,6.233-2.059v9.908
	c0,0.258,0.023,0.51,0.056,0.759c-0.034,0.196-0.057,0.399-0.057,0.61L28.486,59.43c0,1.455,1.186,2.641,2.643,2.641
	s2.643-1.186,2.643-2.641V40.184c0.217,0.024,0.438,0.041,0.66,0.041c0.223,0,0.442-0.017,0.66-0.041V59.43
	c0,1.455,1.186,2.641,2.643,2.641c1.455,0,2.646-1.186,2.646-2.641L40.045,35.65c0-0.153-0.016-0.299-0.033-0.438
	c0.021-0.196,0.033-0.397,0.033-0.603v-9.478c0.098,0.169,0.189,0.334,0.277,0.492c1.466,2.646,1.408,5.132,0.689,7.976
	c-0.841,3.305,4.258,4.705,5.096,1.401C47.271,30.414,46.843,26.496,44.533,22.328z"/>
</svg>
