<?xml version="1.0" encoding="utf-8"?>
<!-- Generator: Adobe Illustrator 16.0.4, SVG Export Plug-In . SVG Version: 6.00 Build 0)  -->
<!DOCTYPE svg PUBLIC "-//W3C//DTD SVG 1.1//EN" "http://www.w3.org/Graphics/SVG/1.1/DTD/svg11.dtd">
<svg version="1.1" id="Capa_1" xmlns="http://www.w3.org/2000/svg" xmlns:xlink="http://www.w3.org/1999/xlink" x="0px" y="0px"
	 width="64px" height="64px" viewBox="0 0 64 64" enable-background="new 0 0 64 64" xml:space="preserve">
<g>
	<path fill="#0E0F0F" d="M30.714,36.704H5.341C4.048,36.704,3,37.752,3,39.045c0,1.294,1.048,2.344,2.341,2.344h1.741v17.822h21.891
		V41.389h1.742c1.293,0,2.342-1.05,2.342-2.344C33.057,37.752,32.007,36.704,30.714,36.704z"/>
	<circle fill="#0E0F0F" cx="44.109" cy="11.391" r="4.959"/>
	<path fill="#0E0F0F" d="M60.965,31.718c-3.131-3.888-6.466-7.596-9.984-11.137c-0.393-0.396-2.824-2.472-3.918-2.81
		c-0.416,1.472-1.144,3.542-1.144,5.181c0-2.005-1.024-3.858-1.856-5.258c-1.054,0.266-2.013,0.838-2.66,1.735
		c-3.073,2.662-6.262,5.183-9.473,7.679c-1.241,0.967-1.006,3.067,0,4.074c1.213,1.212,2.836,0.963,4.073,0
		c1.527-1.188,3.048-2.382,4.557-3.591c0,2.05,0,4.099,0,6.149c0,0.222,0.016,0.435,0.039,0.641c-0.029,0.061-0.06,0.12-0.084,0.184
		c-2.648,6.608-4.427,13.484-5.572,20.504c-0.596,3.634,4.957,5.191,5.555,1.531c0.875-5.359,2.123-10.634,3.84-15.771
		c0.27,4.351,0.811,8.69,1.456,12.991c0.551,3.664,6.101,2.102,5.556-1.531c-0.813-5.411-1.383-10.898-1.432-16.375
		c0.277-0.598,0.438-1.298,0.438-2.104c0-1.852,0-3.704,0-5.554c2.266,2.436,4.451,4.942,6.539,7.535
		C59.225,38.686,63.271,34.582,60.965,31.718z M45.977,29.05c-0.521,0-0.944-0.423-0.944-0.945
		c-0.001-0.522,0.422-0.945,0.944-0.945c0.521,0,0.944,0.423,0.944,0.945S46.498,29.05,45.977,29.05z M45.977,25.938
		c-0.521,0-0.944-0.423-0.944-0.945s0.422-0.945,0.944-0.945c0.521,0,0.944,0.423,0.944,0.945S46.498,25.938,45.977,25.938z"/>
	<path fill="#0E0F0F" d="M18.422,33.398l0.108,0.269l0.724-0.293l-0.108-0.267c-0.091-0.229-0.206-0.455-0.34-0.673
		c0.787-0.979,1.152-2.266,0.996-3.509c0.557-0.013,1.1-0.125,1.619-0.335c0.144-0.057,0.289-0.125,0.438-0.206
		c1.272,0.811,2.848,0.96,4.251,0.395c0.104-0.043,0.206-0.091,0.316-0.146l0.26-0.126l-0.126-0.26l-0.254-0.425l-0.233,0.116
		c-0.084,0.042-0.169,0.083-0.254,0.118c-1.238,0.499-2.626,0.33-3.716-0.45l-0.206-0.144l-0.22,0.129
		c-0.197,0.117-0.375,0.207-0.547,0.277c-0.559,0.226-1.154,0.315-1.766,0.266l-0.537-0.045l0.125,0.524
		c0.295,1.237-0.055,2.581-0.92,3.525l-0.212,0.231L18,32.625C18.172,32.875,18.315,33.137,18.422,33.398z"/>
</g>
</svg>
