<?xml version="1.0" encoding="utf-8"?>
<!-- Generator: Adobe Illustrator 16.0.4, SVG Export Plug-In . SVG Version: 6.00 Build 0)  -->
<!DOCTYPE svg PUBLIC "-//W3C//DTD SVG 1.1//EN" "http://www.w3.org/Graphics/SVG/1.1/DTD/svg11.dtd">
<svg version="1.1" id="Capa_1" xmlns="http://www.w3.org/2000/svg" xmlns:xlink="http://www.w3.org/1999/xlink" x="0px" y="0px"
	 width="64px" height="64px" viewBox="0 0 64 64" enable-background="new 0 0 64 64" xml:space="preserve">
<g>
	<path fill="#0E0F0F" d="M17.313,13.788l-2.111,0.951c-0.118,0.054-0.173,0.193-0.118,0.312c0.06,0.138,1.359,3.016,3.299,3.016
		c0.259,0,0.528-0.052,0.809-0.166c0.025-0.01,0.047-0.025,0.067-0.042l1.296-1.15c0.241,0.043,0.488,0.069,0.74,0.069
		c2.293,0,4.151-1.857,4.151-4.149s-1.858-4.15-4.151-4.15c-2.028,0-3.714,1.458-4.076,3.381h-2.514v0.769h2.44
		C17.145,13.032,17.206,13.42,17.313,13.788z M19.997,16.568l-1.024,0.908c-0.741,0.287-1.418-0.024-1.974-0.52l1.673-1.114
		C19.061,16.16,19.51,16.407,19.997,16.568z M18.313,15.51l-1.609,1.071c-0.016,0.012-0.03,0.023-0.043,0.038
		c-0.505-0.56-0.873-1.217-1.041-1.547l1.85-0.833C17.67,14.715,17.959,15.144,18.313,15.51z"/>
	<rect x="4.728" y="50.307" fill="#0E0F0F" width="3.959" height="1.098"/>
	<path fill="#0E0F0F" d="M60.158,47.566l-2.865,2.053l-0.376-0.525l2.872-2.047c0.091-0.064,0.124-0.177,0.124-0.177l-0.397-0.574
		c0,0-0.014-0.009-0.021-0.012l0.008-0.005l-2.126-2.688l-0.109-0.146c-0.029-0.053-0.062-0.104-0.096-0.153
		c-0.001-0.002-0.001-0.002-0.001-0.003c-0.002-0.001-0.002-0.002-0.004-0.002c-0.026-0.04-0.05-0.081-0.077-0.12l-0.01,0.007
		c-0.072-0.092-0.053-0.053-0.014,0.01l-0.018,0.012c-0.006-0.01-0.014-0.016-0.021-0.026L56.846,43.3
		c-4.404-3.649-8.188-7.837-11.144-12.759c-0.263-0.439-0.593-0.749-0.952-0.952c-0.164-0.503-0.434-1.001-0.839-1.473
		c-1.505-1.756-3.007-3.516-4.5-5.282c1.372-0.177,2.621-0.725,3.759-1.729c0.809-0.713,1.064-2.273,0.409-3.167
		c-3.797-5.177-10.681-7.26-16.544-4.118c-2.039,1.093-2.481,3.458-2.544,5.556c-0.123,4.079-0.876,7.597-2.781,11.243
		c-0.971,1.859,0.414,3.585,1.974,3.898l-9.968,11.604h-6.18l0.573,2.196h5.162l0.591-0.905l11.179-13.015
		c0.461-0.192,0.879-0.561,1.183-1.143c0.1-0.191,0.196-0.384,0.293-0.576l5.394-6.278c2.086,2.502,4.202,4.981,6.321,7.456
		c0.33,0.386,0.683,0.677,1.045,0.887c0.104,4.843,0.635,9.658,1.787,14.361L40.889,49.1c-0.021,0.698,0.2,1.387,0.562,1.789
		l0.076,0.275l-0.523,0.135l-0.217-0.76c-0.146,0.075-0.295,0.145-0.444,0.206l0.259,0.903l-0.525,0.136l-0.238-0.841
		c-0.163,0.057-0.32,0.105-0.479,0.154l0.268,0.936L39.1,52.166l-0.266-0.93c-0.9,0.219-1.583,0.266-1.583,0.266
		c-1.088,0.206-0.929,1.439-0.929,1.439h0.012c-0.006,0.007-0.012,0.013-0.012,0.019l-0.021,0.619c-0.001,0.041,0.09,0.075,0.2,0.08
		l1.894,0.065l-0.021,0.661l-1.224-0.04c-0.156-0.02-1.828-0.256-1.903-1.199l-0.917,0.061c0.136,1.736,2.637,2.003,2.74,2.014h0.02
		l1.528,0.051l0.272,0.011l7.523,0.239l0.027-0.873l-3.521-0.112l0.021-0.646l3.523,0.12c0.11,0.005,0.206-0.065,0.206-0.065
		l0.034-0.697c0,0-0.008-0.014-0.01-0.02h0.01l-0.04-2.386c0.063-0.312,0.063-0.653-0.017-1.022V49.8l0.004-0.185
		c0.009-0.061,0.013-0.121,0.018-0.182c0.001,0,0.001-0.002,0.001-0.002c-0.001,0,0-0.002-0.001-0.005
		c0.003-0.048,0.01-0.095,0.012-0.142l-0.013-0.001c-0.002-0.117-0.009-0.075-0.017,0h-0.021c0-0.015,0-0.021,0-0.036l-0.126-0.003
		c-0.999-3.624-1.573-7.294-1.841-11.013c2.316,2.998,4.941,5.734,7.84,8.209l-0.132,0.097c0.407,0.565,1.004,0.979,1.535,1.079
		l0.229,0.173L53.8,48.214l-0.634-0.472c-0.07,0.148-0.146,0.295-0.229,0.435l0.754,0.562l-0.336,0.427l-0.699-0.521
		c-0.096,0.145-0.188,0.282-0.287,0.414l0.779,0.58l-0.336,0.428l-0.774-0.577c-0.582,0.721-1.097,1.175-1.097,1.175
		c-0.738,0.822,0.139,1.706,0.139,1.706l0.009-0.009c0,0.009-0.002,0.018,0.002,0.021l0.358,0.504
		c0.021,0.033,0.117,0.008,0.21-0.057l1.543-1.1l0.385,0.539l-0.996,0.711c-0.136,0.08-1.604,0.908-2.239,0.203l-0.691,0.604
		c1.164,1.298,3.311-0.013,3.398-0.067l0.017-0.01l1.243-0.893l0.223-0.156l6.124-4.385L60.158,47.566z M27.887,29.628
		c0.454-1.162,0.843-2.349,1.149-3.569c0.218-0.871,0.348-1.742,0.437-2.615c0.603,0.742,1.212,1.479,1.824,2.215L27.887,29.628z
		 M35.482,18.11c-0.066-0.081-0.131-0.164-0.198-0.246c0.12,0.035,0.237,0.071,0.356,0.113
		C35.584,18.019,35.532,18.063,35.482,18.11z"/>
</g>
</svg>
