<?xml version="1.0" encoding="utf-8"?>
<!-- Generator: Adobe Illustrator 16.0.4, SVG Export Plug-In . SVG Version: 6.00 Build 0)  -->
<!DOCTYPE svg PUBLIC "-//W3C//DTD SVG 1.1//EN" "http://www.w3.org/Graphics/SVG/1.1/DTD/svg11.dtd">
<svg version="1.1" id="Capa_1" xmlns="http://www.w3.org/2000/svg" xmlns:xlink="http://www.w3.org/1999/xlink" x="0px" y="0px"
	 width="64px" height="64px" viewBox="0 0 64 64" enable-background="new 0 0 64 64" xml:space="preserve">
<g>
	<path fill="#0E0F0F" d="M13.847,8.507c0.366,3.198,3.065,5.611,6.28,5.611c0.241,0,0.484-0.013,0.73-0.042
		c1.68-0.19,3.185-1.025,4.239-2.349c1.022-1.286,1.492-2.884,1.343-4.515c2.758,0.822,5.28,1.958,4.235,0.634
		c-1.242-1.575-3.813-2.104-4.66-2.403c-0.036-0.09-0.069-0.18-0.109-0.267c0.057-0.018,0.121-0.035,0.21-0.054
		c1.717-0.355,5.669,1.436,5.621,0.948c-0.047-0.488-4.259-1.954-4.259-1.954l3.077,0.533c-13.616-8.11-16.393,0.948-16.393,0.948
		c0.003,0.027,0.013,0.052,0.017,0.079C13.865,6.556,13.734,7.517,13.847,8.507z M14.614,6.745c0.074,0.101,0.154,0.197,0.24,0.285
		c0.067,1.092,0.664,2.177,0.664,2.177s0.258-0.667,0.582-1.43c0.261,0.086,0.537,0.148,0.826,0.186
		c-0.204,0.796-0.401,1.482-0.401,1.482S17.173,8.681,18.014,8c1.197-0.064,2.453-0.454,3.424-1.102
		c0.894-0.595,2.567-0.35,4.262,0.105c0.007,0.049,0.018,0.097,0.023,0.146c0.17,1.492-0.25,2.962-1.184,4.136
		c-0.936,1.176-2.271,1.916-3.765,2.086c-0.217,0.025-0.433,0.037-0.648,0.037c-2.853,0-5.249-2.142-5.574-4.982
		C14.487,7.851,14.511,7.286,14.614,6.745z"/>
	<path fill="#0E0F0F" d="M55.057,55.322c-2.465-3.674-5.054-7.756-7.397-11.547c0.464,0.414,0.938,0.701,1.393,0.74
		c2.036,0.172-0.79-3.189,2.64-3.848c-5.305-9.088-10.123-9.931-11.875-9.896c-0.028-0.05-0.062-0.103-0.086-0.148
		c-0.127-0.422-0.293-0.838-0.5-1.238c-1.312-2.548-2.664-5.092-4.037-7.579l3.377,0.262l3.322,6.563
		c0.649,1.287,1.791,2.026,3.127,2.026c1.406,0,2.815-0.812,3.588-2.066c0.725-1.179,0.771-2.584,0.125-3.858
		c-0.307-0.603-0.635-1.394-0.982-2.23c-1.379-3.316-3.27-7.855-6.773-8.128l-12.403-0.962l-0.116-0.004
		c-0.039,0-0.078,0.001-0.143,0.004c-0.472-0.116-0.96-0.175-1.458-0.175c-3.171,0-6.122,2.304-6.759,5.26
		c-2.32,4.971-5.421,7.879-9.756,9.147c-2.224,0.651-2.978,2.634-2.736,4.312c0.245,1.715,1.588,3.45,3.679,3.45
		c0.382,0,0.776-0.061,1.172-0.176c4.514-1.319,8.161-3.797,11.118-7.56c0.958,1.724,1.919,3.515,2.876,5.33
		C16.849,37.316,16.11,49.77,16.11,49.77s1.166,0.385,2.801,0.483l2.372,9.384c0.487,1.93,2.106,3.178,4.126,3.178
		c1.361,0,2.62-0.575,3.369-1.539c0.482-0.617,0.976-1.682,0.587-3.221l-2.758-10.92c0.159-0.203,0.313-0.418,0.462-0.646
		c0.056-0.062,0.113-0.125,0.169-0.188c0.146,6.987,5.388-3.979,5.341,1.686c-0.047,5.687,5.376,0.355,5.206-3.372
		c-0.042-0.95-0.023-1.548,0.025-1.912c0.955,1.63,1.905,3.31,2.84,4.969c2.566,4.56,5.226,9.272,7.854,12.654
		c0.79,1.019,1.888,1.577,3.083,1.577c1.617,0,3.197-1.002,3.93-2.494C56.184,58.044,56.004,56.54,55.057,55.322z M27.985,58.402
		c0.203,0.791,0.091,1.464-0.327,2c-0.476,0.608-1.337,0.988-2.249,0.988c-1.072,0-2.358-0.552-2.749-2.104l-2.284-9.035
		c1.634-0.104,3.483-0.589,5.067-1.915L27.985,58.402z M27.777,32.471c-1.164-2.209-2.337-4.368-3.499-6.442l-0.544-0.971
		l-0.652,0.904c-2.876,3.992-6.484,6.578-11.028,7.909c-0.267,0.078-0.526,0.115-0.773,0.115c-1.343,0-2.12-1.153-2.274-2.229
		c-0.148-1.039,0.228-2.308,1.73-2.747c4.777-1.398,8.17-4.571,10.68-9.987l0.051-0.16c0.463-2.318,2.88-4.204,5.384-4.204
		c0.412,0,0.813,0.052,1.198,0.155l0.183,0.024c0.053,0,0.102-0.003,0.151-0.006l0.076-0.003l12.403,0.963
		c2.636,0.206,4.332,4.281,5.57,7.257c0.358,0.862,0.696,1.676,1.026,2.326c0.541,1.071,0.265,1.936-0.065,2.473
		c-0.512,0.831-1.469,1.39-2.379,1.39c-0.562,0-1.34-0.217-1.859-1.247l-3.682-7.277l-6.812-0.53l0.645,1.158
		c1.584,2.837,3.148,5.763,4.656,8.694c0.152,0.298,0.275,0.609,0.374,0.922L27.777,32.471z M54.238,58.779
		c-0.487,1.003-1.577,1.701-2.647,1.701c-0.761,0-1.437-0.355-1.962-1.029c-2.564-3.299-5.195-7.967-7.738-12.479
		c-0.884-1.566-1.779-3.158-2.68-4.707l2.266-0.771c0,0,2.696,6.135,2.871,3.028c0.069-1.248,0.113-2.332,0.141-3.19
		c2.813,4.61,6.219,10.048,9.414,14.817C54.547,56.979,54.665,57.912,54.238,58.779z"/>
</g>
</svg>
