<?xml version="1.0" encoding="utf-8"?>
<!-- Generator: Adobe Illustrator 16.0.4, SVG Export Plug-In . SVG Version: 6.00 Build 0)  -->
<!DOCTYPE svg PUBLIC "-//W3C//DTD SVG 1.1//EN" "http://www.w3.org/Graphics/SVG/1.1/DTD/svg11.dtd">
<svg version="1.1" id="Capa_1" xmlns="http://www.w3.org/2000/svg" xmlns:xlink="http://www.w3.org/1999/xlink" x="0px" y="0px"
	 width="64px" height="64px" viewBox="0 0 64 64" enable-background="new 0 0 64 64" xml:space="preserve">
<g>
	<path fill="#0E0F0F" d="M25.095,55.122c-1.427-0.972-3.462-3.817-4.874-4.81c-5.253-0.86-7.362-2.438-9.157-3.381
		c-0.904,1.471-0.889,3.282,0.943,4.528c3.85,2.616,7.615,5.354,11.464,7.974C27.117,61.913,28.709,57.581,25.095,55.122z"/>
	<path fill="#0E0F0F" d="M54.426,56.656c-5.613-3.221-11.229-6.44-16.847-9.659c-1.916,2.089-2.899,2.459-5.241,3.19
		c0.102,0.07,0.208,0.141,0.319,0.205c6.51,3.73,13.017,7.463,19.524,11.192C56,63.775,58.236,58.843,54.426,56.656z"/>
	<path fill="#0E0F0F" d="M9.453,45.086c0,0,22.269,13.089,31.249-3.97l-10.646-3.884c0.356-3.397,0.482-6.811,0.353-10.246
		c4.262,1.875,8.497,3.626,13.016,4.993c3.067,0.928,4.368-3.858,1.317-4.781c-5.073-1.533-9.746-3.556-14.561-5.704
		c-0.283-0.241-0.651-0.422-1.139-0.493l-2.729,4.978l0.578-3.029h-3.005l0.811,4.36l-3.03-7.297
		c-3.705-0.576-7.279-1.437-10.777-3.434c-2.78-1.588-5.277,2.696-2.501,4.28c3.755,2.146,7.516,3.131,11.43,3.797
		c-0.017,0.245-0.023,0.497-0.007,0.763c0.229,3.912,0.158,7.783-0.294,11.637C15.952,39.425,9.453,45.086,9.453,45.086z
		 M25.387,30.039c0.623,0,1.129,0.506,1.129,1.13s-0.506,1.129-1.129,1.129c-0.624,0-1.129-0.505-1.129-1.129
		C24.258,30.544,24.763,30.039,25.387,30.039z M25.077,34.906c0.623,0,1.129,0.506,1.129,1.131c0,0.622-0.506,1.128-1.129,1.128
		c-0.624,0-1.129-0.506-1.129-1.128C23.948,35.412,24.454,34.906,25.077,34.906z"/>
	<rect x="23.884" y="20.165" fill="#0E0F0F" width="3.005" height="1.549"/>
	<path fill="#0E0F0F" d="M20.848,16.941c0.178,0.656,0.95,1.481,0.95,1.481l0.245-0.238c0.419-0.311,3.3-2.54,3.537-5.076
		c0.613,1.398,3.56,2.843,4.277,2.83l0.345-0.02c0.034-0.004,0.059-0.008,0.059-0.008c-0.259-1.633-0.337-4.29-4.38-4.624
		c0.073-0.378-0.007-0.752-0.261-1.011c-0.392-0.396-1.056-0.394-1.604-0.037c-0.058-0.048-0.12-0.1-0.173-0.149
		c-0.173-0.154-0.312-0.314-0.391-0.458c-0.04-0.072-0.054-0.141-0.069-0.198c-0.008-0.035-0.01-0.058-0.002-0.061
		c0.002,0.008-0.001-0.026-0.005-0.061L23.37,9.263l-0.003-0.025V9.235c-0.015-0.074,0.02,0.095,0.016,0.077V9.31V9.304
		c0.028-0.263,0.186-0.521,0.438-0.85c0.253-0.323,0.61-0.649,0.968-1.045c0.364-0.398,0.774-0.821,1.103-1.541
		c0.166-0.355,0.279-0.832,0.235-1.343c-0.038-0.514-0.262-0.988-0.513-1.318c-0.504-0.665-1.094-1.004-1.609-1.239
		c-0.57-0.258-1.242-0.007-1.503,0.564c-0.221,0.484-0.07,1.047,0.334,1.363l0.153,0.121c0.041,0.036,0.07,0.067,0.108,0.097
		c0.078,0.064,0.15,0.132,0.216,0.196c0.132,0.124,0.235,0.253,0.286,0.33c0.054,0.089,0.041,0.11,0.048,0.115
		c0.006,0.007,0.005,0.052-0.03,0.174c-0.076,0.241-0.332,0.636-0.61,1.049c-0.291,0.415-0.605,0.882-0.891,1.448
		c-0.139,0.285-0.276,0.598-0.347,0.96c-0.073,0.357-0.087,0.759,0,1.139l0.025,0.114l0.008,0.024l0.017,0.045l0.05,0.125
		c0.047,0.122,0.097,0.215,0.15,0.298c0.106,0.171,0.235,0.32,0.37,0.442c0.268,0.244,0.547,0.398,0.812,0.522
		c0.036,0.017,0.074,0.03,0.11,0.046c-0.023,0.07-0.039,0.141-0.052,0.209c-1.838,0.667-3.008,2.563-2.693,4.566
		C20.589,16.161,20.747,16.714,20.848,16.941z"/>
</g>
</svg>
