<?xml version="1.0" encoding="utf-8"?>
<!-- Generator: Adobe Illustrator 16.0.4, SVG Export Plug-In . SVG Version: 6.00 Build 0)  -->
<!DOCTYPE svg PUBLIC "-//W3C//DTD SVG 1.1//EN" "http://www.w3.org/Graphics/SVG/1.1/DTD/svg11.dtd">
<svg version="1.1" id="Capa_1" xmlns="http://www.w3.org/2000/svg" xmlns:xlink="http://www.w3.org/1999/xlink" x="0px" y="0px"
	 width="64px" height="64px" viewBox="0 0 64 64" enable-background="new 0 0 64 64" xml:space="preserve">
<g>
	<path fill="#0E0F0F" d="M54.448,11.495c-4.253,1.606-8.681,2.599-13.19,3.099c-0.531,0.06-1.002,0.214-1.408,0.438
		c-1.117-0.431-2.355-0.541-3.449-0.249c-0.076,0.021-0.147,0.049-0.227,0.073c-6.166-1.786-11.636-5.231-15.57-10.424
		c-2.449-3.234-7.994-0.062-5.508,3.22c4.53,5.978,10.417,10.315,17.374,12.724c0.008,0.347,0.039,0.698,0.096,1.049
		c0.293,1.788,0.619,3.576,0.812,5.377c0.07,0.638,0.103,1.279,0.125,1.92c0.009,0.194-0.122,1.688-0.062,1.565
		c-0.442,1.955-2.127,3.611-4.185,5.646c-6.317-3.812-12.791-7.388-19.296-10.848c-3.992-2.122-7.538,3.935-3.541,6.059
		c6.401,3.403,12.724,6.96,18.957,10.667c1.338,0.793,2.652,1.635,3.958,2.486c0.346,0.286,0.724,0.534,1.124,0.735
		c2.538,1.678,5.062,3.38,7.68,4.901c1.385,0.809,2.448,1.125,3.646,2.213c0.172,0.158,0.312,0.232,0.416,0.271
		c-0.074,0.045-0.169,0.117-0.282,0.23c-1.562,1.592-5.447,2.318-6.924,4.021c-2.95,3.4,1.29,7.62,4.961,4.962
		c4.136-2.995,11.363-4.889,9.4-10.694c-1.059-3.125-4.113-5.115-6.86-6.611c-1.396-0.76-2.685-1.594-3.929-2.432
		c2.305-2.479,4.332-5.176,5.279-8.502c1.09-3.836,0.385-8.087-0.328-12.063c4.36-0.589,8.651-1.504,12.793-3.07
		C60.5,16.677,58.686,9.892,54.448,11.495z"/>
	<circle fill="#0E0F0F" cx="36.113" cy="7.032" r="5.506"/>
</g>
</svg>
