<?xml version="1.0" encoding="utf-8"?>
<!-- Generator: Adobe Illustrator 16.0.4, SVG Export Plug-In . SVG Version: 6.00 Build 0)  -->
<!DOCTYPE svg PUBLIC "-//W3C//DTD SVG 1.1//EN" "http://www.w3.org/Graphics/SVG/1.1/DTD/svg11.dtd">
<svg version="1.1" id="Capa_1" xmlns="http://www.w3.org/2000/svg" xmlns:xlink="http://www.w3.org/1999/xlink" x="0px" y="0px"
	 width="64px" height="64px" viewBox="0 0 64 64" enable-background="new 0 0 64 64" xml:space="preserve">
<path fill="#0E0F0F" d="M13.09,13.049c0-3.171,2.571-5.743,5.743-5.743s5.743,2.571,5.743,5.743c0,3.172-2.571,5.743-5.743,5.743
	S13.09,16.221,13.09,13.049z M21.416,21.469l2.536-1.282l-0.513-1.015l-2.535,1.282L21.416,21.469z M62.33,9.84l-1.221,12.654
	c-0.031,0.316-0.314,0.547-0.629,0.518l-8.146-0.789c-0.316-0.03-0.549-0.313-0.52-0.627l0.312-3.207l-1.229-0.118
	c-0.354,0.416-0.828,0.765-1.436,0.998c-5.423,2.083-10.953,3.651-16.594,4.802c2.371,2.683,4.369,5.706,5.898,8.926
	c0.176,0.366,0.314,0.739,0.426,1.118c0.113,0.146,0.221,0.298,0.324,0.473c3.618,6.342,9.368,12.301,16.514,14.454
	c4.15,1.251,2.381,7.755-1.791,6.496c-7.528-2.271-13.893-7.726-18.393-14.166C28.76,42.48,17.608,44.818,16.34,52.965
	c-0.667,4.282-7.16,2.459-6.498-1.791c1.313-8.449,9.641-12.713,17.704-14.902c-1.715-2.938-3.825-5.498-6.507-7.751
	c-0.051-0.044-0.096-0.093-0.145-0.139c-6.192,0.852-12.18-0.733-17.457-4.384c-3.548-2.454-0.183-8.297,3.4-5.818
	c4.619,3.989,13.337,3.353,13.39,3.266l3.083,2.036l-1.502-1.629l2.141-1.198l0.627,2.079v-3.997
	c0.023-0.004,0.046-0.013,0.069-0.016c7.89-1.035,15.598-3.091,23.023-5.943c1.387-0.532,2.501-0.124,3.209,0.705l0.146-1.5
	l1.703,0.164l0.311-3.204c0.033-0.316,0.314-0.548,0.629-0.517l8.146,0.786C62.13,9.242,62.361,9.524,62.33,9.84z M52.673,12.731
	l-1.118-0.108L51.393,14.3c0.467,1.043,0.48,2.36-0.105,3.421l0.896,0.088L52.673,12.731z"/>
</svg>
