<?xml version="1.0" encoding="utf-8"?>
<!-- Generator: Adobe Illustrator 16.0.4, SVG Export Plug-In . SVG Version: 6.00 Build 0)  -->
<!DOCTYPE svg PUBLIC "-//W3C//DTD SVG 1.1//EN" "http://www.w3.org/Graphics/SVG/1.1/DTD/svg11.dtd">
<svg version="1.1" id="Capa_1" xmlns="http://www.w3.org/2000/svg" xmlns:xlink="http://www.w3.org/1999/xlink" x="0px" y="0px"
	 width="64px" height="64px" viewBox="0 0 64 64" enable-background="new 0 0 64 64" xml:space="preserve">
<g>
	<circle fill="#111212" cx="43.693" cy="11.117" r="4.635"/>
	<path fill="#111212" d="M8.207,16.397c-1.561-0.279-4.829,2.355-5.962,6.56c-1.134,4.206,0.905,8.41,1.859,8.668
		s4.83-2.354,5.963-6.559C11.201,20.86,9.769,16.677,8.207,16.397z"/>
	<path fill="#111212" d="M58.502,11.868c-3.818,1.989-8.016,3.046-11.93,4.818c-2.062-0.134-4.184,0.964-4.596,3.309
		c-1.832,2.017-3.826,4.158-6.387,5.112c-2.865,1.07-1.05,5.452,1.812,4.384c1.863-0.696,3.49-1.852,4.98-3.191
		c0.447,3.124,1.079,6.218,1.416,9.365L26.22,42.039c-1.386,0.502-2.101,2.031-1.599,3.416c0.393,1.086,1.417,1.76,2.508,1.76
		c0.302,0,0.609-0.053,0.909-0.162l14.073-5.102c-0.297,0.582-0.379,1.262-0.203,1.91L45.07,55.52
		c0.32,1.189,1.397,1.973,2.572,1.973c0.23,0,0.467-0.031,0.699-0.096c1.424-0.387,2.262-1.852,1.876-3.271l-2.757-10.166
		l5.033-5.033c0.98-0.98,1.025-2.527,0.158-3.576c-0.553-4.796-1.768-9.501-1.854-14.345c-0.007-0.339-0.046-0.658-0.108-0.958
		c3.397-1.361,6.938-2.379,10.205-4.082C63.609,14.551,61.211,10.458,58.502,11.868z"/>
	<path fill="#111212" d="M12.775,47.375l0.083-0.123c-0.919-0.613-1.519-1.449-2.054-2.254L10.68,45.08
		C11.224,45.896,11.834,46.746,12.775,47.375z"/>
	<path fill="#111212" d="M11.618,52.213l0.124,0.082c0.613-0.92,1.448-1.52,2.251-2.057l-0.082-0.123
		C13.095,50.66,12.247,51.27,11.618,52.213z"/>
	<path fill="#111212" d="M18.065,48.402c-0.123,0.611-0.24,1.188-0.186,1.783l0.147-0.016c-0.052-0.57,0.063-1.139,0.183-1.738
		c0.105-0.521,0.213-1.057,0.213-1.613h-0.148C18.275,47.361,18.169,47.891,18.065,48.402z"/>
	<path fill="#111212" d="M15.063,37.816l-0.147,0.021c0.191,1.242,1.16,3.384,2.412,4.009l0.066-0.134
		C16.232,41.133,15.253,39.053,15.063,37.816z"/>
</g>
</svg>
