<?xml version="1.0" encoding="utf-8"?>
<!-- Generator: Adobe Illustrator 16.0.4, SVG Export Plug-In . SVG Version: 6.00 Build 0)  -->
<!DOCTYPE svg PUBLIC "-//W3C//DTD SVG 1.1//EN" "http://www.w3.org/Graphics/SVG/1.1/DTD/svg11.dtd">
<svg version="1.1" id="Capa_1" xmlns="http://www.w3.org/2000/svg" xmlns:xlink="http://www.w3.org/1999/xlink" x="0px" y="0px"
	 width="64px" height="64px" viewBox="0 0 64 64" enable-background="new 0 0 64 64" xml:space="preserve">
<g>
	<circle fill="#010101" cx="26.587" cy="8.623" r="5.876"/>
	<path fill="#010101" d="M51.314,30.612c-0.553-3.585-1.164-6.603-3.629-9.395c-3.246-3.68-8.568-5.437-13.148-6.697l-0.021-0.028
		c-3.27-0.849-7.549,1.283-7.64,1.386c-0.102,0.034-1.144,0.507-1.791,1.513c-0.191,0.142-0.375,0.315-0.551,0.533
		c-5.661,7.056-4.388,15.234-0.448,22.833c0.669,1.289,1.835,1.616,2.905,1.351c-1.046,4.805-2.02,10.516-1.838,14.556
		c0.227,5.062,8.115,5.086,7.887,0c-0.285-6.361,0.524-12.46,2.59-18.39c0.37,0.166,0.757,0.301,1.152,0.396
		c0.36,6.651,1.391,13.228,3.327,19.642c1.468,4.854,9.08,2.782,7.604-2.099c-2.214-7.327-3.152-14.729-3.204-22.372
		c-0.004-0.583-0.364-2.284-0.446-2.654c-0.404-1.851-0.979-3.621-1.698-5.318l-2.148-3.114c1.019,0.559,1.988,1.201,2.869,1.98
		c2.158,1.91,2.286,4.731,2.699,7.406C46.348,35.783,51.874,34.229,51.314,30.612z M28.345,36.436
		c-1.811-3.918-2.87-8.312-1.118-12.213c0.25,0.295,0.482,0.599,0.717,0.901c1.291,2.209,1.338,7.863,1.338,7.863
		S28.889,34.333,28.345,36.436z"/>
	<path fill="#010101" d="M21.918,44.21c-0.041-0.008-0.078-0.007-0.116,0.002c-0.091,0.022-0.165,0.097-0.188,0.192
		c-0.171,0.781-0.465,1.604-0.862,2.406c-0.042-0.135-0.083-0.269-0.116-0.396c-0.025-0.104-0.111-0.18-0.217-0.189
		c-0.104-0.014-0.205,0.039-0.255,0.131c-0.562,1.045-1.336,2.4-2.326,3.631c-0.09,0.109-0.072,0.271,0.038,0.359
		c0.11,0.09,0.271,0.07,0.36-0.039c0.852-1.059,1.544-2.201,2.085-3.172c0.043,0.141,0.085,0.277,0.119,0.41
		c0.027,0.102,0.111,0.178,0.216,0.188c0.102,0.016,0.204-0.035,0.256-0.127c0.567-1.019,0.982-2.086,1.203-3.096
		C22.144,44.375,22.057,44.239,21.918,44.21z"/>
	<path fill="#010101" d="M22.883,40.348c-0.157-0.062-0.341-0.037-0.478,0.084c-1.075,0.959-2.376,1.844-3.804,2.594
		c0.08-0.239,0.161-0.479,0.249-0.698c0.071-0.179,0.025-0.377-0.113-0.509c-0.139-0.129-0.342-0.159-0.514-0.076
		c-1.928,0.926-4.492,2.085-7.237,2.826c-0.245,0.064-0.392,0.318-0.325,0.563c0.067,0.246,0.321,0.392,0.566,0.324
		c2.362-0.64,4.584-1.573,6.398-2.415c-0.083,0.249-0.167,0.495-0.258,0.727c-0.07,0.174-0.026,0.375,0.112,0.504
		c0.135,0.129,0.336,0.164,0.508,0.084c1.903-0.881,3.643-2,5.03-3.236c0.19-0.168,0.207-0.46,0.039-0.65
		C23.006,40.412,22.947,40.372,22.883,40.348z"/>
</g>
</svg>
