<?xml version="1.0" encoding="utf-8"?>
<!-- Generator: Adobe Illustrator 16.0.4, SVG Export Plug-In . SVG Version: 6.00 Build 0)  -->
<!DOCTYPE svg PUBLIC "-//W3C//DTD SVG 1.1//EN" "http://www.w3.org/Graphics/SVG/1.1/DTD/svg11.dtd">
<svg version="1.1" id="Capa_1" xmlns="http://www.w3.org/2000/svg" xmlns:xlink="http://www.w3.org/1999/xlink" x="0px" y="0px"
	 width="64px" height="64px" viewBox="0 0 64 64" enable-background="new 0 0 64 64" xml:space="preserve">
<g>
	<circle fill="#101111" cx="33.062" cy="10.641" r="4.676"/>
	<path fill="#101111" d="M50.719,18.256c-4.477,0-8.953,0-13.432,0c-0.059,0-0.109,0.013-0.165,0.016
		c-1.485-2.843-6.129-2.854-7.58-0.004c-0.043-0.002-0.082-0.012-0.126-0.012c-4.477,0-8.954,0-13.432,0
		c-2.917,0-2.917,4.524,0,4.524c4.373,0,8.746,0,13.118,0c0,2.766,0,5.533,0,8.299c-5.218,0-10.436,0-15.654,0
		c-3.65,0-3.65,5.655,0,5.655c5.517,0,11.034,0,16.551,0c0.431,0.52,0.987,0.901,1.604,1.149c0,5.806,0,11.609,0,17.416
		c0,3.646,5.655,3.646,5.655,0c0-6.409,0-12.819,0-19.229c0-0.068-0.006-0.135-0.01-0.2c0.214-0.495,0.338-1.067,0.338-1.72
		c0-3.791,0-7.581,0-11.371c4.377,0,8.754,0,13.131,0C53.637,22.781,53.637,18.256,50.719,18.256z"/>
</g>
</svg>
