<?xml version="1.0" encoding="utf-8"?>
<!-- Generator: Adobe Illustrator 16.0.4, SVG Export Plug-In . SVG Version: 6.00 Build 0)  -->
<!DOCTYPE svg PUBLIC "-//W3C//DTD SVG 1.1//EN" "http://www.w3.org/Graphics/SVG/1.1/DTD/svg11.dtd">
<svg version="1.1" id="Capa_1" xmlns="http://www.w3.org/2000/svg" xmlns:xlink="http://www.w3.org/1999/xlink" x="0px" y="0px"
	 width="64px" height="64px" viewBox="0 0 64 64" enable-background="new 0 0 64 64" xml:space="preserve">
<g>
	<circle fill="#0E0F0F" cx="21.438" cy="9.712" r="4.83"/>
	<path fill="#0E0F0F" d="M45.035,18.405L29.04,14.701c-1.166-0.387-1.815-0.01-2.086,0.062L32.568,28.6l-4.425,1.186l-5.871-11.391
		c-3.07,4.483-5.443,8.437-3.99,11.419c0.408,0.839,1.487,2.271,4.126,2.437c0.054,0.002,0.107,0.004,0.16,0.004
		c1.329,0,2.444-1.035,2.529-2.379c0.081-1.295-0.828-2.426-2.076-2.653c0.164-0.532,0.545-1.365,1.307-2.654
		c2.172,3.892,0.728,0.502,4.885,9.025c4.156,8.523,3.076,22.567,3.076,22.567c0,1.634,1.322,2.957,2.957,2.957
		c1.632,0,2.957-1.323,2.957-2.957V36.249c0,0,5.042,5.672,6.201,5.164c1.158-0.509-6.463-12.942-6.463-12.942
		c-1.422-2.771-2.896-5.52-4.422-8.236l10.526,2.437c1.179,0.273,2.354-0.461,2.626-1.64C46.945,19.853,46.212,18.678,45.035,18.405
		z"/>
	<path fill="#0E0F0F" d="M27.175,18.598c0.135,0,0.268-0.058,0.361-0.162c0.132-0.145,0.163-0.354,0.083-0.531L26.144,14.7
		c-0.082-0.179-0.273-0.302-0.464-0.283c-0.198,0.008-0.371,0.135-0.438,0.322l-0.757,2.1l-1.432,0.076
		c-0.19,0.009-0.357,0.129-0.428,0.307c-0.07,0.177-0.031,0.379,0.1,0.518l1.151,1.208c0.093,0.097,0.221,0.151,0.354,0.151
		c0.026,0,0.053-0.001,0.079-0.007c0.16-0.027,0.296-0.13,0.364-0.276l0.239-0.514l4.196,10.088l1.844-0.504l-5.324-10.057
		l1.39,0.743C27.068,18.589,27.122,18.598,27.175,18.598z"/>
</g>
</svg>
