<?xml version="1.0" encoding="utf-8"?>
<!-- Generator: Adobe Illustrator 16.0.4, SVG Export Plug-In . SVG Version: 6.00 Build 0)  -->
<!DOCTYPE svg PUBLIC "-//W3C//DTD SVG 1.1//EN" "http://www.w3.org/Graphics/SVG/1.1/DTD/svg11.dtd">
<svg version="1.1" id="Capa_1" xmlns="http://www.w3.org/2000/svg" xmlns:xlink="http://www.w3.org/1999/xlink" x="0px" y="0px"
	 width="64px" height="64px" viewBox="0 0 64 64" enable-background="new 0 0 64 64" xml:space="preserve">
<g>
	<circle fill="#0F1011" cx="27.956" cy="21.765" r="3.959"/>
	<path fill="#0F1011" d="M32.493,43.814c-3.526-2.828-5.342-7.52-4.284-12.215c0.317-1.409,0.869-2.705,1.602-3.858
		c-0.701-0.337-1.487-0.487-2.218-0.385c-0.316,0.043-0.609,0.124-0.879,0.229c-0.02-0.005-0.035-0.014-0.054-0.019
		c-3.583-0.885-6.535-2.76-9.108-5.376c-0.001-0.001-0.003-0.002-0.004-0.004l0.336-1.496l0.292,0.066l0.665,0.15l0.202-0.896
		l-0.665-0.15l3.369-14.952l-0.505-2.095l-1.327,1.683l-3.369,14.951l-0.665-0.15l-0.202,0.895l0.665,0.149l0.292,0.066
		l-0.262,1.158c-1.736-0.228-3.389,2.189-1.794,3.811c2.759,2.806,6.013,4.872,9.729,6.043c-0.001,0.089-0.002,0.18,0.001,0.273
		c0.159,3.828,0.318,7.654,0.475,11.483c-3.07,1.468-6.059,3.155-9.277,4.269c-2.65,0.916-1.347,5.074,1.319,4.154
		c3.68-1.271,7.045-3.291,10.59-4.873c0.193-0.089,0.361-0.191,0.51-0.311c0.154,0.027,0.307,0.053,0.46,0.062
		c0.217,1.857,0.487,3.709,0.8,5.56c-2.395,1.704-4.651,3.589-6.676,5.729c-1.934,2.051,1.261,5.018,3.188,2.976
		c2.121-2.246,4.484-4.149,7.042-5.871c0.774-0.521,1.028-1.276,0.944-1.994c-0.002-0.119-0.013-0.239-0.033-0.369
		C33.15,49.617,32.745,46.732,32.493,43.814z"/>
	<circle fill="#0F1011" cx="39.132" cy="34.48" r="10.032"/>
</g>
</svg>
