<?xml version="1.0" encoding="utf-8"?>
<!-- Generator: Adobe Illustrator 16.0.0, SVG Export Plug-In . SVG Version: 6.00 Build 0)  -->
<!DOCTYPE svg PUBLIC "-//W3C//DTD SVG 1.1//EN" "http://www.w3.org/Graphics/SVG/1.1/DTD/svg11.dtd">
<svg version="1.1" id="Capa_1" xmlns="http://www.w3.org/2000/svg" xmlns:xlink="http://www.w3.org/1999/xlink" x="0px" y="0px"
	 width="64px" height="64px" viewBox="0 0 64 64" enable-background="new 0 0 64 64" xml:space="preserve">
<g>
	<circle fill="#101111" cx="33.471" cy="6.274" r="5.903"/>
	<path fill="#101111" d="M45.297,14.05c-1.537-1.524-3.746-2.18-5.865-1.737L34.714,13.3c-1.269,0.265-2.416,0.901-3.316,1.834
		c-2.915,3.022-9.777,10.064-13.679,13.469c-2.543,2.217,1.166,5.896,3.691,3.694c4-3.491,7.701-7.317,11.399-11.137l3.928,14.607
		c-2.732,7.685-5.402,16.429-7.678,23.545c-1.283,4.019,5.021,5.727,6.294,1.731c1.987-6.215,4.275-13.678,6.646-20.588h2.916
		c2.368,6.91,4.658,14.373,6.645,20.588c1.274,3.995,7.578,2.287,6.294-1.731c-1.674-5.236-12.694-38.948-12.694-38.948
		c1.833,1.792,9.05,9.999,10.661,11.742c2.291,2.477,5.971-1.224,3.695-3.694C56.93,25.618,49.279,17.999,45.297,14.05z"/>
	<polygon fill="#101111" points="21.845,61.804 11.247,61.804 9.312,41.887 7.732,42.043 9.809,63.393 23.284,63.393 25.361,42.043 
		23.782,41.887 	"/>
	<polygon fill="#101111" points="13.461,55.331 14.83,55.04 14.589,54.459 15.201,54.091 13.785,52.204 13.076,52.625 
		12.093,54.877 13.076,54.524 	"/>
	<polygon fill="#101111" points="17.005,51.397 17.614,51.242 17.892,51.899 19.959,50.762 19.645,50.002 17.552,48.711 
		17.764,49.735 16.91,50.002 	"/>
	<polygon fill="#101111" points="17.851,57.226 17.566,58 18.227,60.369 18.766,59.471 19.576,59.854 20.452,58.764 19.898,58.466 
		20.141,57.795 	"/>
</g>
</svg>
