<?xml version="1.0" encoding="utf-8"?>
<!-- Generator: Adobe Illustrator 16.0.4, SVG Export Plug-In . SVG Version: 6.00 Build 0)  -->
<!DOCTYPE svg PUBLIC "-//W3C//DTD SVG 1.1//EN" "http://www.w3.org/Graphics/SVG/1.1/DTD/svg11.dtd">
<svg version="1.1" id="Capa_1" xmlns="http://www.w3.org/2000/svg" xmlns:xlink="http://www.w3.org/1999/xlink" x="0px" y="0px"
	 width="64px" height="64px" viewBox="0 0 64 64" enable-background="new 0 0 64 64" xml:space="preserve">
<g>
	<circle fill="#0E0F0F" cx="28.24" cy="17.215" r="3.554"/>
	<polygon fill="#0E0F0F" points="32.416,41.547 25.271,27.708 15.528,28.199 23.359,52.658 50.695,52.658 52.684,52.658 
		47.098,42.945 	"/>
	<path fill="#0E0F0F" d="M50.426,37.12c-1.214-1.416-3.293-1.372-4.975-1.267c-2.026,0.127-4.079,0.098-6.124,0.064
		c-0.087-0.195-0.195-0.393-0.33-0.587c-1.483-2.138-2.662-4.472-3.776-6.849c2.006,0,4.01,0,6.018,0
		c2.529,0,2.838-3.443,0.924-4.284v-2.123l1.229-1.469c0-0.001,0-0.001,0-0.001l1.437-1.718h-6.38l2.494,3.188l0.002,1.938
		c-2.602,0-5.201,0-7.803,0c-0.048-0.1-0.095-0.201-0.142-0.3c-0.742-1.542-2.257-2.539-4.005-1.924
		c-1.478,0.52-2.668,2.46-1.925,4.006c2.099,4.358,4.003,9.139,6.768,13.117c0.274,0.395,0.59,0.689,0.927,0.902
		c0.354,0.322,0.83,0.535,1.449,0.535c2.487,0,4.975,0,7.459,0c2.077,0,3.311-0.644,4.523,1.209c2.115,3.23,3.712,6.769,6.404,9.586
		c1.993,2.088,5.148-1.076,3.159-3.158C54.714,44.801,53.284,40.461,50.426,37.12z M39.615,19.459h3.99l-0.653,0.782
		c-0.157,0.191-0.763,0.091-1.169-0.061c-0.504-0.48-1.303-0.256-1.688-0.105L39.615,19.459z M40.467,20.549
		c0.315-0.1,0.736-0.164,0.944,0.067l0.044,0.048l0.061,0.025c0.076,0.029,0.463,0.178,0.883,0.216l-0.594,0.71h-0.213h-0.078
		h-0.212L40.467,20.549z"/>
	<path fill="#0E0F0F" d="M53.834,14.042c-3.57,0-6.479,2.906-6.479,6.478v3.852c0,3.572,2.906,6.478,6.479,6.478
		s6.479-2.906,6.479-6.478V20.52C60.312,16.949,57.406,14.042,53.834,14.042z M58.637,24.372c0,2.648-2.154,4.802-4.803,4.802
		s-4.802-2.154-4.802-4.802V20.52c0-2.648,2.153-4.802,4.802-4.802s4.803,2.154,4.803,4.802V24.372z"/>
	<path fill="#0E0F0F" d="M8.989,14.042c-3.572,0-6.478,2.906-6.478,6.478v3.853c0,3.571,2.906,6.478,6.478,6.478
		c3.571,0,6.477-2.906,6.477-6.478V20.52C15.466,16.949,12.56,14.042,8.989,14.042z M13.791,24.373c0,2.648-2.153,4.802-4.802,4.802
		c-2.648,0-4.803-2.154-4.803-4.802V20.52c0-2.648,2.155-4.802,4.803-4.802c2.648,0,4.802,2.154,4.802,4.802V24.373z"/>
</g>
</svg>
