<?xml version="1.0" encoding="utf-8"?>
<!-- Generator: Adobe Illustrator 16.0.4, SVG Export Plug-In . SVG Version: 6.00 Build 0)  -->
<!DOCTYPE svg PUBLIC "-//W3C//DTD SVG 1.1//EN" "http://www.w3.org/Graphics/SVG/1.1/DTD/svg11.dtd">
<svg version="1.1" id="Capa_1" xmlns="http://www.w3.org/2000/svg" xmlns:xlink="http://www.w3.org/1999/xlink" x="0px" y="0px"
	 width="64px" height="64px" viewBox="0 0 64 64" enable-background="new 0 0 64 64" xml:space="preserve">
<g>
	<circle cx="25.657" cy="8.606" r="4.958"/>
	<path d="M50.802,16.431c-0.026-0.029-0.049-0.059-0.071-0.086C50.7,16.391,50.74,16.41,50.802,16.431z"/>
	<path d="M50.802,16.431c0.058,0.07,0.112,0.14,0.173,0.209C50.984,16.498,50.88,16.458,50.802,16.431z"/>
	<path d="M50.111,13.818c0.006-0.073,0.013-0.148,0.025-0.228c0.559,0.851,1.229,1.589,2.191,2.034
		c-0.494-1.448-1.432-2.937-2.191-4.694c-0.66-1.525-1.189-3.676-2.269-4.853c-0.752-0.819-2.025-1.261-2.818-1.956
		c-0.504-0.443-1.03-1.622-1.879-1.8c-2.582-0.314-2.737,1.486-2.737,1.486s0,0,0.705-0.155c0.467,0.141,0.773,0.425,0.998,0.792
		c0.375,0.894,0.616,2.298,0.959,3.199c0.318,0.846,1.059,1.358,1.484,2.034c0.261,0.41,0.4,1.121,0.704,1.722
		c0.481,0.964,1.146,1.831,0.233,2.426c-0.768-0.006-1.179-0.423-1.349,0.271c0.237,0.05,0.38,0.098,0.488,0.277
		c-0.731,0.075-0.979,0.145-1.271,0.664c0.075-0.007,0.135-0.015,0.205-0.021c-0.046,0.04-0.094,0.067-0.139,0.111
		c-1.532,1.495-3.294,2.729-5.16,3.777c-1.926-0.619-3.761-1.597-5.037-3.189c-0.296-0.369-0.627-0.586-0.967-0.702l-0.003-0.056
		c-2.402-0.494-10.277-1.301-13.813,0.476c-0.015,0.017-0.024,0.038-0.039,0.055c-0.23,0.088-0.459,0.202-0.678,0.373
		c-2.032,1.592-3.394,3.794-4.463,6.112c-0.64,1.387-1.629,3.252-1.629,4.842c0,1.557,1.21,3.384,1.911,4.694
		c1.272,2.382,3.042,4.497,5.32,5.959l-0.008,3.011v19.051c0,1.566,1.146,2.838,2.756,2.838c1.611,0,2.917-1.271,2.917-2.838V39.682
		c0,0,0.093-1.006,1.118-1.017c1.025-0.013,0.999,0.968,0.999,0.968v19.842c0,1.565,1.305,2.836,2.917,2.836
		c1.609,0,2.916-1.271,2.916-2.836l0.096-20.476c0-0.194,0.021-13.844,0.023-17.479l-0.006-0.105
		c1.63,1.061,3.509,1.803,5.326,2.282c1.293,0.34,2.544-0.623,3.592-1.25c1.883-1.127,3.66-2.467,5.23-4
		c1.312-1.283,0.607-2.999-0.631-3.688c0.19-0.513,0.207-1.201,0.705-1.404c0.227,0.035,0.245,0.277,0.549,0.235
		c0.006-0.036,0.014-0.066,0.021-0.1c0.173,0.038,0.349,0.064,0.481,0.045c0.109-0.523-0.281-0.716-0.271-1.198
		c1.123,1.379,1.985,2.661,3.097,4.006c0.006-0.008,0.006-0.014,0.016-0.025c0,0,0.06,0.011,0.146,0.022
		c0.068,0.058,0.078,0.176,0.246,0.135c-0.005-0.038-0.014-0.074-0.02-0.109c0.537,0.047,1.396,0.035,0.779-0.651
		C51.094,14.819,50.055,14.873,50.111,13.818z M16.428,26.521C16.378,26.285,16.429,26.281,16.428,26.521L16.428,26.521z
		 M18.915,31.134c-0.467-0.627-0.886-1.3-1.283-1.995c-0.377-0.663-0.698-1.358-1.01-2.055c-0.062-0.139-0.106-0.256-0.139-0.358
		c0.541-1.851,1.329-3.69,2.456-5.263L18.915,31.134z"/>
</g>
</svg>
