<?xml version="1.0" encoding="utf-8"?>
<!-- Generator: Adobe Illustrator 16.0.4, SVG Export Plug-In . SVG Version: 6.00 Build 0)  -->
<!DOCTYPE svg PUBLIC "-//W3C//DTD SVG 1.1//EN" "http://www.w3.org/Graphics/SVG/1.1/DTD/svg11.dtd">
<svg version="1.1" id="Capa_1" xmlns="http://www.w3.org/2000/svg" xmlns:xlink="http://www.w3.org/1999/xlink" x="0px" y="0px"
	 width="64px" height="64px" viewBox="0 0 64 64" enable-background="new 0 0 64 64" xml:space="preserve">
<g>
	<circle fill="#0E0F0F" cx="31.072" cy="11.831" r="4.367"/>
	<path fill="#0E0F0F" d="M38.909,21.547L38.909,21.547h-0.581v-2.34v-1.741c0-1.039-0.699-1.883-1.74-1.883
		c-1.037,0-1.736,0.844-1.736,1.883v0.471v5.179v2.752c0,0.537,0.229,1.019,0.59,1.363c-0.696-0.436-1.17-1.204-1.17-2.087v-7.876
		c-0.192,0.036-0.295,0.074-0.295,0.074l-2.312,4.761c0-0.017-0.001-0.03,0-0.045H31.66l-0.006,0.045l0.01,0.001l-0.013,0.023
		l0.003-0.025l-0.473-0.045h0.479l0.496-4.2h0.086V17.15h-1.76v0.708h0.089l0.598,4.272c0,0-2.275-4.971-2.48-4.891
		c0,0-0.828-0.96-3.943,0.604c-0.013,0.014-0.021,0.031-0.034,0.046c-0.753,0.212-1.348,0.825-1.657,1.618
		c-0.898,2.3-1.115,4.682-0.819,7.08c-0.024,0.019-0.04,0.029-0.04,0.029s0.063,0.886,0.384,1.509
		c0.19,0.733,0.851,1.278,1.644,1.278H32.6c0.941,0,1.703-0.763,1.703-1.703c0-0.94-0.762-1.703-1.703-1.703h-5.826
		c0.01-0.121,0.015-0.246,0.013-0.371h6.082c1.146,0,2.078,0.929,2.078,2.076c0,1.146-0.932,2.076-2.078,2.076h-7.732l-0.026,10.126
		v16.777c0,1.381,1.011,2.498,2.428,2.498c1.418,0,2.568-1.117,2.568-2.498V39.202c0,0,0.083-0.888,0.985-0.896
		c0.904-0.013,0.88,0.854,0.88,0.854v17.479c0,1.379,1.149,2.496,2.569,2.496c1.418,0,2.568-1.117,2.568-2.496L37.195,38.6
		c0-0.113,0.008-5.404,0.014-9.905c0.541,0.014,1.1-0.171,1.6-0.656c1.402-1.361,2.189-3.048,2.127-5.067
		c-0.051-1.619-0.91-2.92-2.026-3.979V21.547z M31.632,25.384c-0.502,0-0.909-0.407-0.909-0.91c0-0.502,0.407-0.909,0.909-0.909
		s0.91,0.407,0.91,0.909C32.542,24.978,32.134,25.384,31.632,25.384z"/>
	<path fill="#0E0F0F" d="M41.848,5.649c-0.797-0.275-1.625-0.463-2.453-0.618c-0.537-0.1-1.17-0.266-1.721-0.194
		c-0.225,0.029-0.426,0.201-0.295,0.444c0.012,0.022,0.033,0.038,0.051,0.057c-0.354,0.046-0.701,0.164-0.873,0.456
		c-0.285,0.476,0.234,1,0.637,1.175c0.22,0.094,0.445,0.164,0.681,0.224c-0.024,0.191,0.004,0.393,0.104,0.529
		c0.252,0.35,0.733,0.452,1.137,0.503c0.119,0.015,0.246,0.027,0.377,0.035c0.051,0.079,0.102,0.157,0.15,0.235
		c-0.818-0.003-1.521,0.979-1.838,1.707c-0.13,0.296,0.311,0.556,0.438,0.256c0.228-0.526,0.59-1.354,1.252-1.44
		c0.13-0.018,0.271,0.003,0.396,0.056c0.045,0.02,0.221,0.139,0.15,0.083c0.215,0.176,0.557-0.045,0.396-0.308
		c-0.117-0.198-0.242-0.392-0.369-0.583c0.725-0.025,1.477-0.187,2.002-0.601c0.104-0.08,0.172-0.161,0.221-0.242
		c0.398-0.068,0.844-0.205,1-0.583C43.562,6.187,42.23,5.781,41.848,5.649z M41.662,6.111c-0.234-0.056-0.465-0.112-0.697-0.17
		c-0.09-0.04-0.176-0.077-0.254-0.108C41.033,5.913,41.352,6.002,41.662,6.111z M38.686,7.617c-0.102-0.034-0.271-0.101-0.312-0.212
		C38.354,7.361,38.352,7.329,38.35,7.3c0.114,0.021,0.229,0.038,0.346,0.055c0.135,0.102,0.26,0.221,0.377,0.355
		C38.941,7.688,38.812,7.657,38.686,7.617z M40.23,7.732c-0.176,0.016-0.354,0.023-0.529,0.023c-0.039-0.05-0.074-0.104-0.113-0.155
		c-0.037-0.046-0.076-0.096-0.117-0.148c0.604,0.064,1.213,0.097,1.818,0.071C40.951,7.648,40.57,7.7,40.23,7.732z M41.027,7.021
		c-0.705,0.012-1.416-0.04-2.115-0.146c-0.199-0.146-0.418-0.236-0.65-0.181c-0.039,0.008-0.07,0.025-0.102,0.042
		c-0.264-0.057-0.525-0.123-0.771-0.229c-0.119-0.052-0.52-0.31-0.379-0.484c0.164-0.202,0.611-0.189,0.84-0.198
		c0.285-0.01,0.57,0.009,0.854,0.039c0.733,0.235,1.487,0.429,2.241,0.608c0.146,0.07,0.296,0.141,0.437,0.223
		c0.146,0.084,0.313,0.19,0.392,0.306C41.451,7.02,41.148,7.02,41.027,7.021z M42.801,6.706c-0.035,0.114-0.232,0.184-0.479,0.231
		c-0.027-0.056-0.059-0.11-0.102-0.164c0.021,0.004,0.038,0.009,0.061,0.014c0.191,0.046,0.312-0.109,0.314-0.257
		c0.038,0.025,0.079,0.049,0.114,0.079c0.043,0.036,0.076,0.075,0.086,0.092C42.818,6.729,42.807,6.686,42.801,6.706z"/>
</g>
</svg>
