<?xml version="1.0" encoding="utf-8"?>
<!-- Generator: Adobe Illustrator 16.0.4, SVG Export Plug-In . SVG Version: 6.00 Build 0)  -->
<!DOCTYPE svg PUBLIC "-//W3C//DTD SVG 1.1//EN" "http://www.w3.org/Graphics/SVG/1.1/DTD/svg11.dtd">
<svg version="1.1" id="Capa_1" xmlns="http://www.w3.org/2000/svg" xmlns:xlink="http://www.w3.org/1999/xlink" x="0px" y="0px"
	 width="64px" height="64px" viewBox="0 0 64 64" enable-background="new 0 0 64 64" xml:space="preserve">
<g>
	<circle fill="#0E0F0F" cx="32.772" cy="18.274" r="4.282"/>
	<path fill="#0E0F0F" d="M46.184,17.554l-8.438-8.482c-0.749-0.833-2.029-0.9-2.859-0.151c-0.832,0.747-0.902,2.028-0.152,2.859
		l6.904,6.777c-1.97,1.39-4.938,3.551-6.344,4.89c-1.689,0.739-3.387,0.557-4.849,0.033c-1.392-1.337-4.396-3.523-6.379-4.923
		l7.579-6.777c0.092-0.102,0.171-0.211,0.238-0.325c0.239,0.29,0.596,0.478,1.003,0.478c0.721,0,1.305-0.583,1.305-1.303V2.324
		c0-0.72-0.584-1.304-1.305-1.304c-0.722,0-1.307,0.584-1.307,1.304v6.692c-0.031-0.031-0.055-0.066-0.087-0.095
		c-0.833-0.749-2.113-0.682-2.859,0.151l-9.114,8.482c-0.39,0.435-0.575,1.017-0.505,1.597c0.069,0.58,0.387,1.102,0.87,1.431
		c1.328,0.906,4.617,3.21,6.628,4.844l0.078,1.12l-0.044,16.526v16.455c0,1.354,0.99,2.449,2.381,2.449
		c1.392,0,2.519-1.097,2.519-2.449V42.385c0,0,0.083-0.867,0.967-0.877c0.887-0.013,0.863,0.834,0.863,0.834V59.48
		c0,1.354,1.127,2.451,2.519,2.451s2.519-1.1,2.519-2.451l0.084-17.687c0-0.168,0.021-15.604,0.021-15.604s-0.01-0.023-0.021-0.095
		c1.797-1.596,5.896-4.475,7.42-5.515c0.482-0.329,0.803-0.851,0.871-1.431C46.759,18.571,46.572,17.989,46.184,17.554z"/>
</g>
</svg>
