<?xml version="1.0" encoding="utf-8"?>
<!-- Generator: Adobe Illustrator 16.0.4, SVG Export Plug-In . SVG Version: 6.00 Build 0)  -->
<!DOCTYPE svg PUBLIC "-//W3C//DTD SVG 1.1//EN" "http://www.w3.org/Graphics/SVG/1.1/DTD/svg11.dtd">
<svg version="1.1" id="Capa_1" xmlns="http://www.w3.org/2000/svg" xmlns:xlink="http://www.w3.org/1999/xlink" x="0px" y="0px"
	 width="64px" height="64px" viewBox="0 0 64 64" enable-background="new 0 0 64 64" xml:space="preserve">
<path fill="#0E0F0F" d="M49.868,4.611c-1.728,0-3.13,1.401-3.13,3.13v5.472c-4.039,3.497-8.411,6.553-13.24,8.84
	c-0.707,0.15-1.379,0.456-1.973,0.878c-0.066,0.028-0.132,0.061-0.199,0.088c-0.979,0.405-1.522,1.187-1.707,2.032
	c-4.73-0.482-9.354-1.355-13.861-2.926c-3.277-1.143-4.672,4.043-1.427,5.175c5.299,1.848,10.792,2.729,16.368,3.226
	c0.014,0.002,0.024-0.001,0.038,0c3.945,3.791,8.759,5.824,14.236,5.928c0.653,0.012,1.241-0.084,1.766-0.259V56.02
	c0,1.729,1.402,3.129,3.133,3.129s3.132-1.396,3.132-3.129V7.741C53,6.012,51.598,4.611,49.868,4.611z M46.738,26.686
	c-0.504-0.18-1.067-0.287-1.694-0.298c-2.056-0.039-3.813-0.554-5.417-1.583c2.473-1.415,4.837-2.991,7.111-4.718V26.686z
	 M28.238,10.779c2.964,0,5.368,2.403,5.368,5.367s-2.403,5.367-5.368,5.367c-2.964,0-5.367-2.403-5.367-5.367
	S25.274,10.779,28.238,10.779z"/>
</svg>
