<?xml version="1.0" encoding="utf-8"?>
<!-- Generator: Adobe Illustrator 16.0.4, SVG Export Plug-In . SVG Version: 6.00 Build 0)  -->
<!DOCTYPE svg PUBLIC "-//W3C//DTD SVG 1.1//EN" "http://www.w3.org/Graphics/SVG/1.1/DTD/svg11.dtd">
<svg version="1.1" id="Capa_1" xmlns="http://www.w3.org/2000/svg" xmlns:xlink="http://www.w3.org/1999/xlink" x="0px" y="0px"
	 width="17.993px" height="26.059px" viewBox="0 0 17.993 26.059" enable-background="new 0 0 17.993 26.059" xml:space="preserve">
<g>
	<path d="M6.729,13.395L6.725,24.803c0,0.694,0.562,1.256,1.258,1.256c0.693,0,1.256-0.562,1.256-1.256V14.601h0.562v10.213
		l0.012,0.007c0.008,0.688,0.564,1.237,1.249,1.237c0.69,0,1.25-0.558,1.25-1.25L12.31,13.395H6.729z"/>
	<path d="M17.719,2.686c-0.363-0.359-0.953-0.359-1.318,0.002c0,0-0.001,0.004-0.005,0.005l-3.481,3.512H9.987V6.102
		c0.844-0.125,1.532-0.727,1.779-1.522H9.924V3.646H9.492v0.934H7.556c0.247,0.797,0.937,1.397,1.778,1.522v0.103H6.149L2.667,2.693
		C2.666,2.691,2.663,2.69,2.663,2.69C2.506,2.533,2.307,2.458,2.104,2.435V2.183h0.128L3.686,0H0l1.453,2.183h0.128v0.346
		C1.498,2.572,1.414,2.616,1.344,2.686C0.98,3.05,0.98,3.64,1.344,4.004c0.003,0,0.004,0.003,0.006,0.005V4.01l0.231,0.237v0.63
		C1.102,4.892,0.748,4.942,0.748,5.003c0,0.07,0.49,0.127,1.095,0.127c0.217,0,0.407-0.009,0.577-0.022l4.313,4.432L6.73,13.055
		h5.58L12.309,9.56l5.404-5.55V4.009c0.002-0.002,0.002-0.005,0.006-0.005C18.083,3.64,18.083,3.05,17.719,2.686z M1.583,1.937
		L1.583,1.937L0.452,0.242h2.781l-1.13,1.694H1.583z M2.104,4.877V4.784l0.095,0.098C2.167,4.881,2.138,4.878,2.104,4.877z
		 M9.334,6.35l0.652-0.001V6.222h0.001V6.35v0.279v0.513L9.334,7.141h0.652V6.629V6.628V6.35H9.334z M9.986,11.546v-0.792h0.001
		L9.986,11.546z M9.988,10.409H9.986v-0.79h0.002V10.409z M9.989,9.313H9.986V8.52h0.003V9.313z M9.991,8.216H9.338V8.215h0.648
		V7.423h0.005V8.216z"/>
	<path d="M7.511,3.437C7.475,3.594,7.455,3.756,7.455,3.923c0,0.166,0.021,0.327,0.056,0.484V3.437z"/>
	<rect x="7.733" y="3.496" width="1.536" height="0.856"/>
	<rect x="10.145" y="3.496" width="1.538" height="0.856"/>
	<path d="M7.51,3.274v0.163c0.014-0.054,0.025-0.107,0.042-0.163H7.51z"/>
	<path d="M7.51,4.577h0.046C7.538,4.521,7.524,4.464,7.51,4.407V4.577z"/>
	<path d="M9.293,3.275h0.199V3.274h0.432H10.1h1.67c0.062,0.206,0.098,0.422,0.098,0.648c0,0.229-0.037,0.448-0.102,0.655h0.138
		V3.274h-0.133c-0.01-0.029-0.021-0.062-0.033-0.094h-0.001c-0.141-0.391-0.388-0.729-0.708-0.984l-0.001-0.002
		c-0.374-0.297-0.85-0.476-1.363-0.476c-0.479,0-0.922,0.154-1.286,0.415L7.792,3.186H7.791l0.586-1.053
		C8.016,2.394,7.736,2.759,7.584,3.186c-0.01,0.029-0.022,0.061-0.032,0.089H9.293z"/>
	<polygon points="0.979,0.848 1.696,1.834 1.996,1.834 2.706,0.847 	"/>
</g>
</svg>
