<?xml version="1.0" encoding="utf-8"?>
<!-- Generator: Adobe Illustrator 16.0.4, SVG Export Plug-In . SVG Version: 6.00 Build 0)  -->
<!DOCTYPE svg PUBLIC "-//W3C//DTD SVG 1.1//EN" "http://www.w3.org/Graphics/SVG/1.1/DTD/svg11.dtd">
<svg version="1.1" id="Capa_1" xmlns="http://www.w3.org/2000/svg" xmlns:xlink="http://www.w3.org/1999/xlink" x="0px" y="0px"
	 width="64px" height="64px" viewBox="0 0 64 64" enable-background="new 0 0 64 64" xml:space="preserve">
<g>
	<path fill="#0E0F0F" d="M48.475,20.68c-0.328,0-0.66,0.035-0.996,0.105l-22.565,4.732c-1.507,0.316-2.576,1.237-3.019,2.505
		l-18.82,6.063C1.94,34.452,1.317,35.667,1.682,36.8c0.365,1.134,1.581,1.757,2.713,1.392l0.315-0.103
		c-0.689,0.617-0.933,1.63-0.521,2.511c0.504,1.08,1.788,1.545,2.865,1.041l17.086-7.986c0.571,0.303,1.229,0.484,1.969,0.484
		c0.325,0,0.66-0.035,0.994-0.104l11.322-2.374c-0.163,0.585-0.127,1.224,0.151,1.799l3.134,6.504
		c0.44,0.915,1.354,1.449,2.308,1.449c0.373,0,0.752-0.082,1.11-0.255c1.272-0.613,1.808-2.146,1.194-3.417l-2.283-4.737
		c1.539-1.284,3.445-2.748,4.839-3.534l0.791-0.167c2.187-0.458,3.449-2.188,3.22-4.404C52.68,22.852,51.059,20.68,48.475,20.68z"/>
	<circle fill="#0E0F0F" cx="58.459" cy="22.666" r="4.54"/>
</g>
</svg>
