<?xml version="1.0" encoding="utf-8"?>
<!-- Generator: Adobe Illustrator 16.0.4, SVG Export Plug-In . SVG Version: 6.00 Build 0)  -->
<!DOCTYPE svg PUBLIC "-//W3C//DTD SVG 1.1//EN" "http://www.w3.org/Graphics/SVG/1.1/DTD/svg11.dtd">
<svg version="1.1" id="Capa_1" xmlns="http://www.w3.org/2000/svg" xmlns:xlink="http://www.w3.org/1999/xlink" x="0px" y="0px"
	 width="64px" height="64px" viewBox="0 0 64 64" enable-background="new 0 0 64 64" xml:space="preserve">
<g>
	<circle fill="#0E0F0F" cx="39.143" cy="8.768" r="6.993"/>
	<path fill="#0E0F0F" d="M51.583,26.95c-0.869-1.61-2.877-2.211-4.487-1.343l-4.543,2.45c-0.598-1.052-1.1-2.023-1.613-3.025
		c-0.594-1.152-1.203-2.332-1.975-3.661c-0.165-1.213-0.715-2.388-1.747-3.406c-2.231-2.204-6.717-2.625-8.849,0.047
		c-7.082,8.874-10.59,15.832-8.874,27.138c0.574-0.391,1.155-0.683,1.739-0.904c1.287,2.936,2.236,6.027,3.139,9.129
		c-2.917,0-5.834,0-8.752,0c-2.448,0-3.63,1.961-3.553,3.855c-1.308,2.168-0.311,5.748,3.001,5.748c4.356,0,8.71,0,13.065,0
		c0.331,0,0.636-0.037,0.92-0.104c2.503,0.646,5.618-1.233,4.563-4.369c-1.569-4.667-2.774-9.502-4.459-14.142
		c0.785,0.185,1.574,0.386,2.37,0.57c-0.844-5.549,1-11.143,4.068-15.811c0.77,1.477,1.633,3.051,2.885,4.975
		c0.611,0.942,1.625,1.465,2.668,1.5c0.158,0.022,0.316,0.035,0.478,0.035c0.531,0,1.069-0.127,1.569-0.396l7.045-3.798
		C51.85,30.57,52.452,28.56,51.583,26.95z"/>
</g>
</svg>
