<?xml version="1.0" encoding="utf-8"?>
<!-- Generator: Adobe Illustrator 16.0.4, SVG Export Plug-In . SVG Version: 6.00 Build 0)  -->
<!DOCTYPE svg PUBLIC "-//W3C//DTD SVG 1.1//EN" "http://www.w3.org/Graphics/SVG/1.1/DTD/svg11.dtd">
<svg version="1.1" id="Capa_1" xmlns="http://www.w3.org/2000/svg" xmlns:xlink="http://www.w3.org/1999/xlink" x="0px" y="0px"
	 width="64px" height="64px" viewBox="0 0 64 64" enable-background="new 0 0 64 64" xml:space="preserve">
<g>
	<path fill="#0F1011" d="M38.342,49.955v-9.348h-12.69V31.23H10.226L10.2,61.891l40.692-0.006v-11.93H38.342z M49.507,60.499
		l-37.918,0.005l0.023-27.887h12.654v9.377h12.689v9.348h12.552V60.499z"/>
	<circle fill="#0F1011" cx="41.811" cy="5.923" r="3.813"/>
	<path fill="#0F1011" d="M31.545,23.322c1.318-1.215,2.51-2.545,3.656-3.914c0.047,2.726,0.135,5.451,0.004,8.174
		c0,0.007,0,0.014,0,0.021c-0.025,0.085-0.059,0.165-0.078,0.26c-0.284,1.456-0.395,3.116-0.984,4.492
		c-0.688,1.598-2.349,2.353-3.833,3.047c-2.428,1.136-0.314,4.722,2.1,3.593c2.008-0.94,3.844-2.101,5.048-4.009
		c0.588-0.93,0.914-2.004,1.148-3.104c0.912,5.218,2.299,10.354,3.688,15.459c0.704,2.585,4.718,1.487,4.015-1.104
		c-1.582-5.827-3.166-11.695-4.043-17.678c-0.031-0.211-0.095-0.389-0.164-0.554c0.021-0.136,0.032-0.276,0.041-0.421
		c0.094-1.923,0.072-3.848,0.041-5.772c1.075,0.673,2.187,1.332,3.147,2.151c2.028,1.727,4.987-1.201,2.938-2.941
		c-1.258-1.07-2.688-1.855-4.084-2.722c-0.793-0.491-1.551-1.021-2.066-1.731c0.006-0.901,0.021-1.802,0.062-2.702
		c0.191-3.877-4.996-4.374-6.521-1.535c-0.028,0.031-0.06,0.052-0.086,0.084c-2.261,2.717-4.366,5.564-6.972,7.967
		C26.627,22.202,29.577,25.137,31.545,23.322z"/>
</g>
</svg>
