<?xml version="1.0" encoding="utf-8"?>
<!-- Generator: Adobe Illustrator 16.0.4, SVG Export Plug-In . SVG Version: 6.00 Build 0)  -->
<!DOCTYPE svg PUBLIC "-//W3C//DTD SVG 1.1//EN" "http://www.w3.org/Graphics/SVG/1.1/DTD/svg11.dtd">
<svg version="1.1" id="Capa_1" xmlns="http://www.w3.org/2000/svg" xmlns:xlink="http://www.w3.org/1999/xlink" x="0px" y="0px"
	 width="26.811px" height="24.277px" viewBox="0 0 26.811 24.277" enable-background="new 0 0 26.811 24.277" xml:space="preserve">
<g>
	<path d="M15.222,17.763v2.827c0,0.584-0.476,1.062-1.062,1.062c-0.31,0-0.583-0.131-0.777-0.341
		c-0.196,0.21-0.471,0.341-0.781,0.341c-0.589,0-1.063-0.479-1.063-1.062l0.001-2.823c-2.683,0.404-4.637,1.68-4.637,3.188
		c0,1.836,2.902,3.326,6.483,3.326s6.483-1.49,6.483-3.326C19.869,19.444,17.907,18.17,15.222,17.763z"/>
	<polygon points="14.849,10.708 11.924,10.708 13.404,12.258 	"/>
	<path d="M8.197,18.32l-0.144,0.17c0.884-0.663,2.221-1.154,3.783-1.358l-0.002,3.479c0,0.368,0.299,0.67,0.669,0.67
		s0.875-0.299,0.875-0.668l-0.001-3.577c0.016,0,0.031-0.001,0.047-0.001v3.584l0.004,0.006c0.005,0.36,0.347,0.652,0.711,0.652
		c0.37,0,0.669-0.296,0.669-0.664l-0.002-3.502l-1.354-0.077c0.045-0.001,0.089-0.002,0.133-0.003
		c-0.043,0.001-0.125,0.002-0.147,0.003l-0.013-0.001v-1.846h-0.047v1.848l-1.54,0.098l0.001-4.646L8.972,9.545h0.001
		C8.971,9.542,8.971,9.539,8.971,9.539c-0.195-0.191-0.195-0.506,0-0.7c0.192-0.192,0.506-0.192,0.699,0
		c0.002,0.002,0.003,0.003,0.003,0.003l1.854,1.866h0.396L1.722,0.043L0,0l6.815,20.66l0.021-0.006
		c-0.019-0.09-0.022-0.183-0.022-0.274C6.814,19.604,7.335,18.89,8.197,18.32z"/>
	<path d="M24.798,0.043L14.85,10.708h0.276v0.005l0.001-0.005l1.853-1.866c0.001,0,0.003-0.001,0.003-0.003
		c0.195-0.192,0.512-0.192,0.703,0c0.192,0.194,0.192,0.509-0.001,0.703l-0.002,0.003h0.001l-2.879,2.952l0.002,4.612
		c1.634,0.189,3.037,0.69,3.955,1.38l-0.146-0.169C19.479,18.888,20,19.602,20,20.38c0,0.095-0.009,0.188-0.021,0.274l0.018,0.006
		L26.811,0L24.798,0.043z"/>
	<path d="M13.395,10.329c0.65,0,1.176-0.523,1.176-1.173s-0.523-1.175-1.176-1.175c-0.644,0-1.172,0.522-1.172,1.175
		C12.223,9.804,12.75,10.329,13.395,10.329z"/>
</g>
</svg>
