<?xml version="1.0" encoding="utf-8"?>
<!-- Generator: Adobe Illustrator 16.0.4, SVG Export Plug-In . SVG Version: 6.00 Build 0)  -->
<!DOCTYPE svg PUBLIC "-//W3C//DTD SVG 1.1//EN" "http://www.w3.org/Graphics/SVG/1.1/DTD/svg11.dtd">
<svg version="1.1" id="Capa_1" xmlns="http://www.w3.org/2000/svg" xmlns:xlink="http://www.w3.org/1999/xlink" x="0px" y="0px"
	 width="64px" height="64px" viewBox="0 0 64 64" enable-background="new 0 0 64 64" xml:space="preserve">
<g>
	<circle fill="#0E0F0F" cx="32.439" cy="16.224" r="3.374"/>
	<path fill="#0E0F0F" d="M61.248,49.404l-26.292,3.146c1.03-0.24,1.8-1.16,1.8-2.268V34.67c0.038-0.188,0.059-0.387,0.059-0.6
		c0-0.578,0-1.156,0-1.734c0.014-0.116,0.012-0.233,0-0.35c0-2.829,0-5.657,0-8.485c3.189-0.813,6.379-1.626,9.568-2.438
		c1.993-0.508,1.146-3.587-0.849-3.079c-3.324,0.848-6.647,1.695-9.974,2.542c-0.984-0.564-2.334-0.502-3.229,0.187
		c-3.484-1.191-6.97-2.384-10.455-3.575c-1.947-0.666-2.923,2.374-0.975,3.041c3.494,1.195,6.99,2.391,10.483,3.586
		c0,2.579,0,5.157,0,7.735c-2.29,1.395-4.534,2.861-6.943,4.053c-1.054,0.521-1.291,1.947-0.761,2.902
		c1.195,2.16,2.362,4.336,3.537,6.508c1.301,2.406,4.965,0.264,3.665-2.143c-0.824-1.525-1.649-3.049-2.479-4.57
		c1.248-0.699,2.466-1.449,3.683-2.201v14.236c0,1.123,0.794,2.061,1.854,2.283L2.735,49.404L2.641,50.34l31.733,3.219l0.052,0.006
		l26.934-3.225L61.248,49.404z"/>
</g>
</svg>
