<?xml version="1.0" encoding="utf-8"?>
<!-- Generator: Adobe Illustrator 16.0.4, SVG Export Plug-In . SVG Version: 6.00 Build 0)  -->
<!DOCTYPE svg PUBLIC "-//W3C//DTD SVG 1.1//EN" "http://www.w3.org/Graphics/SVG/1.1/DTD/svg11.dtd">
<svg version="1.1" id="Capa_1" xmlns="http://www.w3.org/2000/svg" xmlns:xlink="http://www.w3.org/1999/xlink" x="0px" y="0px"
	 width="64px" height="64px" viewBox="0 0 64 64" enable-background="new 0 0 64 64" xml:space="preserve">
<g>
	<circle fill="#0E0F0F" cx="25.163" cy="16.575" r="4.848"/>
	<path fill="#0E0F0F" d="M53.564,55.552c-3.764-6.39-7.522-12.778-11.282-19.167c-0.095-0.158-0.197-0.3-0.306-0.431
		c-0.072-0.185-0.154-0.37-0.25-0.558c-1.777-3.458-3.634-6.88-5.574-10.25c3.791-1.209,7.258-0.105,9.984,3.713
		c2.219,3.106,7.402,0.127,5.158-3.016c-5.275-7.389-13.145-9.224-21.022-4.547c-0.328,0.194-0.592,0.421-0.802,0.669
		c-0.119,0.047-0.237,0.098-0.354,0.153c-0.32,0.064-0.649,0.188-0.982,0.385c-4.899,2.908-9.448,2.357-12.849-2.404
		c-0.554-0.775-1.292-1.172-2.055-1.281l0.085-3.442h-2.038l0.092,3.717c-1.493,0.665-2.459,2.317-1.244,4.021
		c4.338,6.074,10.425,8.391,16.831,6.428c2.009,3.45,3.918,6.961,5.75,10.51c-2.709,1.386-5.219,3.108-7.55,5.142
		c-1.377,1.201-1.15,2.772-0.226,3.832c0.225,0.482,0.604,0.927,1.179,1.271c3.084,1.854,6.169,3.705,9.255,5.56
		c3.312,1.986,6.312-3.182,3.016-5.16c-1.994-1.196-3.988-2.396-5.982-3.592c1.919-1.295,3.988-2.365,6.181-3.129
		c0.361-0.127,0.672-0.303,0.936-0.509c2.963,5.033,5.926,10.068,8.889,15.103C50.357,61.884,55.523,58.879,53.564,55.552z"/>
	<rect x="9.47" y="12.128" fill="#0E0F0F" width="5.661" height="2.44"/>
	<path fill="#0E0F0F" d="M13.58,11.233c4.02-2.476,1.132-6.369,1.132-6.369c0,1.854-1.425,2.249-1.425,2.249
		c1.757-1.459-0.915-1.742,0.487-3.226c-5.872,1.897-2.928,7.346-2.928,7.346H13.58z"/>
</g>
</svg>
