<?xml version="1.0" encoding="utf-8"?>
<!-- Generator: Adobe Illustrator 16.0.4, SVG Export Plug-In . SVG Version: 6.00 Build 0)  -->
<!DOCTYPE svg PUBLIC "-//W3C//DTD SVG 1.1//EN" "http://www.w3.org/Graphics/SVG/1.1/DTD/svg11.dtd">
<svg version="1.1" id="Capa_1" xmlns="http://www.w3.org/2000/svg" xmlns:xlink="http://www.w3.org/1999/xlink" x="0px" y="0px"
	 width="64px" height="64px" viewBox="0 0 64 64" enable-background="new 0 0 64 64" xml:space="preserve">
<g>
	<path fill="#0E0F0F" d="M50.523,42.531c-0.814,2.279-1.979,4.398-3.278,6.437c-1.781-1.788-3.386-3.729-4.597-5.983
		c-0.125-0.234-0.271-0.438-0.42-0.623c-0.078-0.559-0.229-1.113-0.463-1.654c-1.222-2.809-2.279-5.161-3.305-7.441
		c-0.865-1.927-1.706-3.795-2.598-5.834c4.984-1.899,10.152-3.985,15.275-6.383c1.451-0.679,2.144-2.038,1.809-3.546
		c-0.385-1.723-1.961-3.023-3.665-3.023c-0.533,0-1.064,0.121-1.577,0.362c-4.695,2.198-9.441,4.116-14.797,6.139
		c-0.626-0.839-1.437-1.496-2.351-1.935c1.065-4.254,2.519-9.264,3.603-12.046c0.73-1.879-0.198-3.996-2.077-4.728
		c-1.881-0.731-3.996,0.198-4.728,2.077c-1.594,4.093-3.719,11.817-4.786,16.781c-1.214,1.733-1.547,4.028-0.672,6.125
		c1.867,4.483,3.346,7.77,4.91,11.248c0.928,2.064,1.89,4.209,2.973,6.688c-7.006,3.104-14.48,6.678-21.122,9.416
		c-4.26,1.756-2.396,8.775,1.927,6.992c8.479-3.498,18.327-8.363,26.808-11.858c0.252-0.105,0.479-0.231,0.689-0.369
		c2.027,2.873,4.57,5.376,7.22,7.681c1.868,1.625,4.287,1.252,5.695-0.732c2.639-3.723,4.976-7.543,6.521-11.855
		C59.1,40.046,52.091,38.163,50.523,42.531z"/>
	<circle fill="#0E0F0F" cx="14.115" cy="21.981" r="6.494"/>
</g>
</svg>
