<?xml version="1.0" encoding="utf-8"?>
<!-- Generator: Adobe Illustrator 18.0.0, SVG Export Plug-In . SVG Version: 6.00 Build 0)  -->
<!DOCTYPE svg PUBLIC "-//W3C//DTD SVG 1.1//EN" "http://www.w3.org/Graphics/SVG/1.1/DTD/svg11.dtd">
<svg version="1.1" id="Capa_1" xmlns="http://www.w3.org/2000/svg" xmlns:xlink="http://www.w3.org/1999/xlink" x="0px" y="0px"
	 viewBox="0 0 64 64" enable-background="new 0 0 64 64" xml:space="preserve">
<path d="M37.2,10.8L37,10.6l1.3-1.2l0.2,0.2L37.2,10.8z M36.4,10.4l-0.1-1.8l-0.3,0l0.1,1.8L36.4,10.4z M51.8,16.3
	c1.3,0.7,5.5,3.2,6.1,3.6c0.7,0.4-1.4,1.7-1.5,3.2c-0.1,2,1,0.6,1,0.6l0.6-1.1c1.4-2.4,2.6-4.3,0.3-5.7L57,16.1c0,0-1.7-0.6-3.3-5.2
	c-1.2,1.4-0.1,3.1-0.1,3.1s-1.3-1.9-1.9-1.8C51.7,12.3,50.5,15.6,51.8,16.3z M35.6,10.9l-1.3-1.2L34.1,10l1.3,1.2L35.6,10.9z
	 M27.8,6.5c-1.2-1.4-3.2-0.8-3.4,0.9h0c-0.2,1.5,1.1,2.5,2.3,3.4c0,0,0,0,0,0c0,0,0.7,0.5,0.9,0.8c0,0,0.1,0.1,0.1,0.1l0,0
	c0.1,0,0.1,0,0.1-0.1c0.2-0.2,0.6-0.5,0.8-0.6c0,0,0.1-0.1,0.2-0.1v0c1.1-0.9,2.5-1.9,2.3-3.4c0,0,0,0,0,0C31,5.7,28.9,5.1,27.8,6.5
	z M25.7,27.4c-2.3,0.2-4.3-0.2-5.9-1.5c-0.3-2.5-0.6-5.1-0.9-7.6c-0.2-2.1-1.6-3.9-3.9-4c-2,0-4.2,1.8-4,3.9
	c0.5,4.1,0.9,8.2,1.5,12.2l-7,13.8l8.8,0.1c0,4,0,7.9,0,11.9c0,3.4,5.2,3.4,5.2,0c0-3.9,0-7.9,0-11.8l1.6,0l0-13.2
	c1.4,0.4,3,0.6,4.6,0.4C28.4,31.3,28.4,27.1,25.7,27.4z M60.2,58.2c-2.8-0.9-5.7-1.8-8.5-2.8c-3.6-1.2-5.8-4.4-7-7.9
	c-0.5-0.2-1.1-0.4-1.5-0.8c-1,0-2-0.1-2.9-0.1c0.2,3.2,1.6,6.2,3.4,8.8c2.1,3.2-3,6.2-5.1,3c-3.1-4.7-4.7-10-3.9-15.6
	c0.2-1.3,1.7-2.2,2.9-2.2c1.4,0,2.8,0,4.2,0c0.1-3.5,0.7-7.3,2.2-10.6l-0.2,3.1l3.1-4.3c-0.4-0.3-7.2-5.3-10.1-7.3
	c-1.6-1-1.6-2.8-0.9-4.1H34v-3.2h0.5c-0.1-0.3-0.2-0.5-0.2-0.8c0-0.7,0.4-1.4,1-1.7l1-1.1l1,1.1c0.6,0.4,1,1,1,1.7
	c0,0.3-0.1,0.6-0.2,0.8h1.2V8.9h1.8v8.6c3.2,2.2,6.2,4.4,9.3,6.7c1.2-0.1,2.4,0.3,3.3,1.2c1.6,1.6,1.9,4.8,0,6.3
	c-3.1,2.6-3.2,8-3.2,11.8c0,0.1,0.1,1.6-0.2,2.2c0.2,0.7,0.9,3,4.6,4.6c2.3,0.7,4.6,1.5,6.8,2.2C65.4,53.7,63.9,59.4,60.2,58.2z
	 M37.9,13.6c0-0.6-0.4-1.2-0.9-1.4l-1.3,0c-0.5,0.3-0.9,0.8-0.9,1.4c0,0.3,0.1,0.6,0.2,0.8h2.7C37.8,14.2,37.9,13.9,37.9,13.6z
	 M44.1,38.4c0-0.7-0.3-1.2-0.6-1.2c-0.3,0-0.6,0.5-0.6,1.2c0,0.7,0.3,1.2,0.6,1.2C43.9,39.6,44.1,39.1,44.1,38.4z M44.4,35.8
	c0-0.7-0.3-1.2-0.6-1.2c-0.3,0-0.6,0.5-0.6,1.2c0,0.7,0.3,1.2,0.6,1.2C44.2,37,44.4,36.4,44.4,35.8z M6.7,17.6
	c2.1,0.2,3-1.1,3.2-3.2c0.3-2.9-0.3-4.8,0.2-6.6c0.4,0,0.8,0.1,1.2,0.2c-0.1,0.4-0.2,0.9-0.2,1.3c0,2.4,2,4.4,4.4,4.4s4.4-2,4.4-4.4
	s-2-4.4-4.4-4.4c-1.1,0-2.2,0.4-3,1.2C9.4,2.7,5.6,4.7,7.1,8.7C8.9,13.8,9.9,17.1,6.7,17.6z M2.3,26.1c-0.8-0.9-2.1-0.5-2.2,0.6h0
	c-0.1,1,0.7,1.6,1.5,2.2v0c0,0,0.6,0.5,0.7,0.5c0,0,0.7-0.5,0.7-0.5v0c0.8-0.6,1.6-1.2,1.5-2.2c0,0,0,0,0,0
	C4.4,25.6,3.1,25.2,2.3,26.1z"/>
</svg>
