<?xml version="1.0" encoding="utf-8"?>
<!-- Generator: Adobe Illustrator 16.0.4, SVG Export Plug-In . SVG Version: 6.00 Build 0)  -->
<!DOCTYPE svg PUBLIC "-//W3C//DTD SVG 1.1//EN" "http://www.w3.org/Graphics/SVG/1.1/DTD/svg11.dtd">
<svg version="1.1" id="Capa_1" xmlns="http://www.w3.org/2000/svg" xmlns:xlink="http://www.w3.org/1999/xlink" x="0px" y="0px"
	 width="64px" height="64px" viewBox="0 0 64 64" enable-background="new 0 0 64 64" xml:space="preserve">
<path fill="#0E0F0F" d="M52.663,11.388c-0.454-0.175-0.963,0.052-1.14,0.506l-2.541,6.607c-0.354-0.205-0.771-0.343-1.246-0.391
	c-4.754-0.472-9.498-0.968-14.202-1.749c-0.524-0.627-1.259-1.028-2.066-1.229c2.118-0.714,3.644-2.71,3.644-5.068
	c0-2.956-2.396-5.354-5.353-5.354c-2.956,0-5.353,2.397-5.353,5.354c0,2.553,1.79,4.685,4.182,5.22
	c-0.126,0.044-0.253,0.08-0.375,0.135c-0.777,0.003-1.431,0.309-1.924,0.777l-0.944-0.078l-7.584,0.855
	c-0.708,0.047-1.414,0.087-2.12,0.13c-0.354-0.125-0.765-0.174-1.239-0.124c-0.815,0.089-1.964,0.046-2.715,0.361
	c-2.64,1.114-2.875,4.575,0,5.612c1.509,0.543,3.814-0.015,5.337-0.112c1.157-0.075,2.313-0.159,3.47-0.24l0.436,0.896h1.827
	l0.429,11.62l-6.55,8.874l2.186,0.523c-2.757,3.521-5.682,6.913-8.46,10.424c-2.303,2.908,1.787,7.057,4.116,4.114
	c3.47-4.383,7.146-8.599,10.507-13.06l0.862,0.207l3.206-4.219h3.896c2.096,2.008,4.217,3.982,6.345,5.951
	c-0.454,2.957-0.907,5.912-1.36,8.868c-0.562,3.671,5.045,5.247,5.611,1.548c0.549-3.58,1.098-7.16,1.646-10.74
	c0.397-2.604-2.133-4.11-3.816-5.687c-0.93-0.866-1.855-1.739-2.779-2.612l1.678-0.938l-5.918-5.35l1.131-9.081l9.715,1.292
	l0.539-1.51c0.667,0.068,1.333,0.135,2,0.201c2.41,0.24,3.246-2.102,2.545-3.891l2.889-7.511
	C53.344,12.072,53.117,11.562,52.663,11.388z M27.957,21.573h1.9l-0.005,0.728h-1.895V21.573z M32.343,22.301h-0.002h-1.834
	l-0.019,2.473h1.854v0.728h-1.859l-0.023,2.837h1.882v0.727h-1.888l-0.033,4.222l-0.654-0.006l0.033-4.216h-1.843v-0.727h1.847
	l-0.006,0.726h0.655l0.005-0.727h-0.653l0.023-2.836h-1.871v-0.728h1.876l-0.006,0.727h0.654l0.006-0.727h-0.653l0.019-2.473h0.653
	l0.006-0.728h-0.653l0.02-2.402l0.655,0.005l-0.02,2.397h1.829V22.301z"/>
</svg>
