<?xml version="1.0" encoding="utf-8"?>
<!-- Generator: Adobe Illustrator 16.0.4, SVG Export Plug-In . SVG Version: 6.00 Build 0)  -->
<!DOCTYPE svg PUBLIC "-//W3C//DTD SVG 1.1//EN" "http://www.w3.org/Graphics/SVG/1.1/DTD/svg11.dtd">
<svg version="1.1" id="Capa_1" xmlns="http://www.w3.org/2000/svg" xmlns:xlink="http://www.w3.org/1999/xlink" x="0px" y="0px"
	 width="64px" height="64px" viewBox="0 0 64 64" enable-background="new 0 0 64 64" xml:space="preserve">
<g>
	<ellipse fill="#0E0F0F" cx="30.286" cy="8.599" rx="6.341" ry="6.217"/>
	<path fill="#0E0F0F" d="M50.02,55.562l-8.168-8.023c0.203-1.348,0.474-2.653,0.772-4.036c4.034-7.319,0.416-17.155-2.905-23.899
		c-2.512-5.102-7.547-3.938-9.818-0.342c-1.944-0.222-3.889-0.445-5.834-0.667c-0.784-2.401-1.569-4.802-2.354-7.203l0.085-0.034
		l-0.451-1.118l-0.055,0.021c-1.546-2.979-6.704-1.395-5.561,2.104c0.014,0.042,0.027,0.083,0.041,0.125l-1.222,0.493l0.451,1.117
		l1.146-0.462c0.925,2.83,1.851,5.66,2.776,8.49c0.454,1.389,1.49,2.04,2.889,2.2c2.389,0.273,4.779,0.547,7.168,0.821
		c0.147,0.597,0.357,1.204,0.658,1.816c0.15,0.305,0.32,0.663,0.5,1.047c-1.888-0.247-3.771-0.405-5.507-0.678
		c-3.711-0.583-5.33,4.967-1.777,5.729l-0.256,1.104l1.174,0.272l0.276-1.189c1.455,0.202,2.915,0.371,4.369,0.57
		c1.139,0.156,2.875,0.378,4.11,0.654c0.061,0.301,0.152,1.11,0.201,1.486c0,0.088-0.004,0.178-0.004,0.264
		c0,0.002-0.002,0.002-0.002,0.004c-0.013,0.058-0.02,0.096-0.023,0.131c-0.172,0.481-0.308,0.978-0.402,1.479l-11.284-3.167
		c-0.442-0.124-0.916,0.188-1.059,0.699c-0.143,0.51,0.098,1.022,0.539,1.147l11.443,3.213l-4.475,6.695
		c-0.402,0.602-0.59,1.316-0.539,2.037l0.732,10.143c0.124,1.709,1.548,3.012,3.233,3.012c0.079,0,0.16-0.003,0.238-0.01
		c1.788-0.129,3.133-1.684,3.003-3.471l-0.653-9.031l2.043-3.06c-0.121,0.754-0.232,1.521-0.319,2.321
		c-0.109,0.986,0.241,1.971,0.95,2.668l9.317,9.154c0.634,0.621,1.455,0.932,2.276,0.932c0.84,0,1.679-0.325,2.314-0.973
		C51.314,58.874,51.298,56.818,50.02,55.562z M33.064,35.459c0.006-0.02,0.01-0.037,0.016-0.055
		c0.014-0.023,0.029-0.049,0.044-0.072C33.104,35.374,33.084,35.417,33.064,35.459z"/>
	<path fill="#0E0F0F" d="M13.483,12.337c-0.151-0.433-0.681-0.641-1.181-0.465c-0.499,0.176-0.782,0.668-0.63,1.101l4.392,12.483
		c0.152,0.432,0.681,0.64,1.181,0.464c0.5-0.176,0.781-0.668,0.63-1.102L13.483,12.337z"/>
</g>
</svg>
