<?xml version="1.0" encoding="utf-8"?>
<!-- Generator: Adobe Illustrator 16.0.4, SVG Export Plug-In . SVG Version: 6.00 Build 0)  -->
<!DOCTYPE svg PUBLIC "-//W3C//DTD SVG 1.1//EN" "http://www.w3.org/Graphics/SVG/1.1/DTD/svg11.dtd">
<svg version="1.1" id="Capa_1" xmlns="http://www.w3.org/2000/svg" xmlns:xlink="http://www.w3.org/1999/xlink" x="0px" y="0px"
	 width="64px" height="64px" viewBox="0 0 64 64" enable-background="new 0 0 64 64" xml:space="preserve">
<g>
	<path fill="#0E0F0F" d="M34.312,10.61c0.804,0,1.455,0.749,1.455,1.673h3.775V2.418l-2.141,2.318h-6.387l-1.931-2.318v9.865h3.775
		C32.863,11.358,33.514,10.61,34.312,10.61z M38.219,6.834c0.457,0.909,0.074,2.024-0.855,2.492
		c-0.928,0.469-2.084,0.098-2.51-0.797C35.432,7.47,38.219,6.834,38.219,6.834z M31.4,9.327c-0.929-0.468-1.311-1.583-0.854-2.492
		c0,0,2.786,0.635,3.366,1.695C33.486,9.424,32.33,9.795,31.4,9.327z"/>
	<path fill="#0E0F0F" d="M18.87,6.445L9.395,1.564l-0.84,1.631l9.475,4.881L18.87,6.445z M17.635,6.846L9.787,2.801l0.001-0.007
		l7.851,4.045L17.635,6.846z"/>
	<path fill="#0E0F0F" d="M52.771,38.717h-2.713v-1.441h-1.912c0.812-0.771,1.181-1.965,0.428-3.213
		c-3.323-5.507-6.241-11.237-9.286-16.898c-0.022-0.042-0.054-0.072-0.076-0.112c-0.901-2.598-5.978-0.937-10.964-2.492
		c-0.007-0.003-0.012-0.005-0.019-0.008c-4.834-2.472-9.668-4.944-14.503-7.416c-3.14-1.604-5.915,3.123-2.766,4.732
		c5.555,2.84,11.111,5.681,16.667,8.521c-1.303,5.854,1.483,5.523,0.266,13.234C27.8,33.917,27.73,34.23,27.72,34.59
		c0,0-0.474,16.366-0.711,24.551c-0.123,4.246,6.476,4.473,6.597,0.211c0.127-4.42,0.256-8.842,0.386-13.26
		c0.603,4.482,1.207,8.969,1.809,13.452c0.567,4.212,7.113,3.366,6.543-0.856c-1.09-8.115-2.183-16.229-3.272-24.34
		c-0.021-0.175-0.061-0.332-0.103-0.488c0.056-0.213,0.058-0.45-0.02-0.725c-0.416-1.517-0.148-2.905,0.2-4.598
		c1.51,2.794,3.052,5.568,4.692,8.291c0.259,0.428,0.578,0.729,0.927,0.939v0.948h-2.716c-0.268,0-0.483,0.22-0.483,0.488v6.897
		c0,0.268,0.218,0.484,0.483,0.484h10.72c0.27,0,0.485-0.219,0.485-0.484v-6.897C53.256,38.936,53.038,38.717,52.771,38.717z
		 M49.561,38.717h-4.299v-0.72c0.729,0.242,1.524,0.13,2.197-0.228h2.102V38.717z"/>
</g>
</svg>
