<?xml version="1.0" encoding="iso-8859-1"?>
<!-- Generator: Adobe Illustrator 16.0.0, SVG Export Plug-In . SVG Version: 6.00 Build 0)  -->
<!DOCTYPE svg PUBLIC "-//W3C//DTD SVG 1.1//EN" "http://www.w3.org/Graphics/SVG/1.1/DTD/svg11.dtd">
<svg version="1.1" id="Capa_1" xmlns="http://www.w3.org/2000/svg" xmlns:xlink="http://www.w3.org/1999/xlink" x="0px" y="0px"
	 width="500px" height="500px" viewBox="0 0 500 500" style="enable-background:new 0 0 500 500;" xml:space="preserve">
<g>
	<path style="fill:#0E0F0F;" d="M360.192,278.996c-13.099-89.219-21.023-130.059-71.651-163.174
		c-2.497-1.634-5.841-0.977-7.536,1.478l-22.004,30.585v-27.384h-18v26.648l-22.008-29.849c-1.696-2.457-5.041-3.11-7.537-1.479
		c-50.629,33.116-58.553,73.956-71.649,163.166c-0.768,5.181,0.544,10.375,3.7,14.632c3.147,4.238,7.756,6.989,12.941,7.741
		c0.992,0.151,2,0.228,2.993,0.228c9.662,0,18.018-7.256,19.437-16.881c0.71-4.834,1.438-9.97,2.19-15.278l0.115-0.815
		c3.653-25.769,7.794-54.975,12.436-68.088c0.144-0.404,0.484-0.649,0.972-0.568c0.417,0.071,0.721,0.429,0.721,0.85v174.74
		c0,3.037,2.462,5.5,5.5,5.5h1.413l-0.001,93.08c0,12.349,9.996,22.351,22.325,22.351c12.341,0,22.328-10.002,22.328-22.351v-93.08
		h6.214v93.08c0,12.349,10.003,22.351,22.335,22.351c12.342,0,22.353-10.002,22.353-22.351v-93.08h1.411c3.037,0,5.5-2.463,5.5-5.5
		V200.807c0-0.421,0.304-0.778,0.73-0.851c0.429-0.077,0.819,0.164,0.961,0.563c4.646,13.129,8.785,42.335,12.438,68.103
		c0.792,5.595,1.56,11.008,2.306,16.088c1.42,9.622,9.774,16.878,19.436,16.878c0.994,0,2.001-0.077,2.955-0.222
		c5.222-0.758,9.832-3.509,12.983-7.752C359.65,289.359,360.963,284.163,360.192,278.996z M249.933,235.777
		c4.249,0,7.693,3.444,7.693,7.693s-3.444,7.693-7.693,7.693c-4.249,0-7.693-3.444-7.693-7.693S245.684,235.777,249.933,235.777z
		 M257.62,272.011c0,4.246-3.441,7.688-7.687,7.688s-7.687-3.441-7.687-7.688c0-4.245,3.441-7.687,7.687-7.687
		S257.62,267.766,257.62,272.011z M242.238,302.261c0.001-4.243,3.445-7.688,7.695-7.688c4.251,0,7.694,3.443,7.694,7.688
		c0,4.253-3.442,7.703-7.694,7.703C245.683,309.964,242.238,306.515,242.238,302.261z"/>
	<path style="fill:#0E0F0F;" d="M249.631,108.622c25.764,0,46.668-20.91,46.668-46.665c0-4.518-0.68-8.864-1.884-12.977h-17.009
		c-6.075,8.148-15.641,12.977-25.854,12.977c-10.21,0-19.725-4.835-25.839-12.977h-20.856c-1.188,4.119-1.884,8.466-1.884,12.977
		C202.967,87.721,223.845,108.622,249.631,108.622z"/>
	<path style="fill:#0E0F0F;" d="M251.398,55.806c9.732,0,18.132-5.417,22.642-13.352h17.908c-1.55-3.4-3.525-6.608-5.825-9.515
		h-8.83v-1.014c0.084-0.749,0.197-1.494,0.197-2.271c0-14.433-11.714-26.134-26.14-26.134c-14.442,0-26.148,11.709-26.148,26.134
		c0,1.132,0.208,2.217,0.333,3.291h-12.456c-2.305,2.906-4.271,6.113-5.854,9.516h21.462
		C233.211,50.396,241.63,55.806,251.398,55.806z M251.547,17.39c6.122,0,11.083,4.949,11.083,11.077
		c0,6.099-4.949,11.081-11.083,11.081c-6.107,0-11.066-4.982-11.066-11.081C240.472,22.34,245.439,17.39,251.547,17.39z"/>
</g>
</svg>
