<?xml version="1.0" encoding="utf-8"?>
<!-- Generator: Adobe Illustrator 16.0.4, SVG Export Plug-In . SVG Version: 6.00 Build 0)  -->
<!DOCTYPE svg PUBLIC "-//W3C//DTD SVG 1.1//EN" "http://www.w3.org/Graphics/SVG/1.1/DTD/svg11.dtd">
<svg version="1.1" id="Capa_1" xmlns="http://www.w3.org/2000/svg" xmlns:xlink="http://www.w3.org/1999/xlink" x="0px" y="0px"
	 width="64px" height="64px" viewBox="0 0 64 64" enable-background="new 0 0 64 64" xml:space="preserve">
<g>
	<circle fill="#0E0F0F" cx="33.779" cy="9.5" r="5.622"/>
	<path fill="#0E0F0F" d="M46.102,32.785c1.061,4.246,7.605,2.445,6.547-1.805c-1.928-7.745-7.746-12.125-15.203-13.376
		c-1.256-1.412-3.094-2.146-5.167-1.591c-2.571,0.69-4.701,3.739-3.709,6.426c0.01,0.026,0.018,0.052,0.028,0.078
		c-3.283,2.743-6.871,5.039-10.69,7.048c-3.876,2.04-0.443,7.9,3.427,5.863c3.339-1.758,6.533-3.754,9.52-6.029
		c0.525,1.809,1.006,3.63,1.417,5.47c-3.73,6.736-7.735,13.307-12.059,19.682c-2.466,3.635,3.42,7.027,5.863,3.426
		c1.635-2.408,3.219-4.852,4.767-7.312c-0.369-0.498-0.642-1.072-0.784-1.688c-0.255-1.102-0.073-2.205,0.511-3.111l0.203-0.314
		c1.33-2.059,3.261-3.59,4.728-5.35c-1.119,2.264-2.535,4.428-3.856,6.475c-1.014,1.572-0.313,3.721,1.219,4.645
		c4.36,2.637,8.769,5.256,12.938,8.188c3.591,2.527,6.978-3.362,3.427-5.862c-3.211-2.261-6.565-4.334-9.933-6.373
		c1.838-3.004,3.538-6.207,4.396-9.545c0.287-1.119,0.039-2.065-0.494-2.778c0.015,0.012,0.029,0.016,0.046,0.024
		c-0.583-2.761-1.53-6.159-2.546-9.385C43.369,26.997,45.258,29.394,46.102,32.785z"/>
	<circle fill="#0E0F0F" cx="15.569" cy="41.953" r="5.389"/>
</g>
</svg>
