<?xml version="1.0" encoding="utf-8"?>
<!-- Generator: Adobe Illustrator 16.0.4, SVG Export Plug-In . SVG Version: 6.00 Build 0)  -->
<!DOCTYPE svg PUBLIC "-//W3C//DTD SVG 1.1//EN" "http://www.w3.org/Graphics/SVG/1.1/DTD/svg11.dtd">
<svg version="1.1" id="Capa_1" xmlns="http://www.w3.org/2000/svg" xmlns:xlink="http://www.w3.org/1999/xlink" x="0px" y="0px"
	 width="64px" height="64px" viewBox="0 0 64 64" enable-background="new 0 0 64 64" xml:space="preserve">
<g>
	<path fill="#0E0F0F" d="M47.882,35.391c-2.006-3.88-5.087-6.743-8.956-8.572c-1.8-1.176-4.488-1.926-7.498-1.926
		c-2.82,0-5.354,0.66-7.145,1.71c-3.846,1.831-6.908,4.686-8.906,8.549c-1.123,2.173,2.153,4.094,3.277,1.918
		c0.726-1.403,1.619-2.662,2.658-3.768L20.24,43.908l6.069-3.416l4.127,3.398l5.087-3.354l7.363,3.382L41.586,33.17
		c1.197,1.188,2.211,2.573,3.02,4.137C45.729,39.482,49.005,37.561,47.882,35.391z"/>
	<path fill="#0E0F0F" d="M20.133,48.451h5.181c-0.031,0.152-0.048,0.312-0.048,0.474v9.491c0,1.311,1.062,2.374,2.373,2.374
		c1.31,0,2.373-1.062,2.373-2.374v-9.491c0-0.161-0.017-0.319-0.048-0.474h2.859c-0.031,0.152-0.048,0.312-0.048,0.474v9.491
		c0,1.311,1.062,2.374,2.371,2.374c1.312,0,2.373-1.062,2.373-2.374v-9.491c0-0.161-0.018-0.319-0.049-0.474h5.549v-1.898H20.133
		V48.451z"/>
	<polygon fill="#0E0F0F" points="20.133,44.994 30.119,44.994 26.165,41.734 	"/>
	<polygon fill="#0E0F0F" points="30.634,44.994 43.02,44.994 35.646,41.688 	"/>
	<path fill="#0E0F0F" d="M39.626,18.944l5.354-2.436c0-0.23-0.312-0.415-0.691-0.415H18.862c-0.381,0-0.691,0.186-0.691,0.415
		l5.008,2.436H39.626z M37.33,16.804h1.536c0.394,0,0.712,0.319,0.712,0.713c0,0.395-0.318,0.713-0.712,0.713H37.33
		c-0.395,0-0.713-0.319-0.713-0.713S36.936,16.804,37.33,16.804z M32.609,16.804h1.535c0.394,0,0.713,0.319,0.713,0.713
		c0,0.395-0.32,0.713-0.713,0.713h-1.535c-0.396,0-0.713-0.319-0.713-0.713S32.215,16.804,32.609,16.804z M28.123,16.804h1.535
		c0.394,0,0.713,0.319,0.713,0.713c0,0.395-0.319,0.713-0.713,0.713h-1.535c-0.395,0-0.713-0.319-0.713-0.713
		S27.728,16.804,28.123,16.804z M22.848,17.517c0-0.394,0.319-0.713,0.713-0.713h1.536c0.394,0,0.713,0.319,0.713,0.713
		c0,0.395-0.32,0.713-0.713,0.713h-1.536C23.167,18.23,22.848,17.911,22.848,17.517z"/>
	<path fill="#0E0F0F" d="M31.576,3.209c-3.121,0-5.648,5.112-5.648,11.419h11.296C37.225,8.321,34.695,3.209,31.576,3.209z"/>
	<path fill="#0E0F0F" d="M35.546,21.582c-0.188-0.078-0.346-0.194-0.497-0.312c-0.298-0.24-0.599-0.508-0.943-0.81
		c-0.166-0.157-0.377-0.286-0.666-0.379c-0.293-0.094-1.537-0.251-1.86-0.041c0,0.285,0.354,1.118,0.354,1.118
		s0.328,0.663,0.564,0.911c0.459,0.5,1.092,0.936,1.871,1.086c0.383,0.079,0.795,0.072,1.178-0.005
		c0.384-0.081,0.729-0.236,1.024-0.428c0.296-0.196,0.543-0.414,0.756-0.651c0.21-0.238,0.373-0.511,0.443-0.834
		c-0.32,0.092-0.582,0.204-0.834,0.301c-0.25,0.098-0.5,0.165-0.742,0.166C35.954,21.711,35.732,21.666,35.546,21.582z"/>
	<path fill="#0E0F0F" d="M29.047,20.461c-0.345,0.302-0.646,0.57-0.943,0.81c-0.152,0.117-0.309,0.233-0.497,0.312
		c-0.188,0.083-0.407,0.129-0.647,0.122c-0.242-0.001-0.493-0.068-0.743-0.166c-0.254-0.097-0.513-0.209-0.833-0.299
		c0.072,0.323,0.236,0.596,0.445,0.834c0.211,0.237,0.461,0.455,0.754,0.651c0.295,0.191,0.643,0.347,1.027,0.428
		c0.382,0.077,0.793,0.084,1.177,0.005c0.778-0.151,1.411-0.587,1.871-1.086c0.236-0.248,0.564-0.911,0.564-0.911
		s0.354-0.833,0.354-1.118c-0.326-0.212-1.57-0.055-1.861,0.039C29.423,20.175,29.215,20.304,29.047,20.461z"/>
</g>
</svg>
