<?xml version="1.0" encoding="utf-8"?>
<!-- Generator: Adobe Illustrator 16.0.4, SVG Export Plug-In . SVG Version: 6.00 Build 0)  -->
<!DOCTYPE svg PUBLIC "-//W3C//DTD SVG 1.1//EN" "http://www.w3.org/Graphics/SVG/1.1/DTD/svg11.dtd">
<svg version="1.1" id="Capa_1" xmlns="http://www.w3.org/2000/svg" xmlns:xlink="http://www.w3.org/1999/xlink" x="0px" y="0px"
	 width="64px" height="64px" viewBox="0 0 64 64" enable-background="new 0 0 64 64" xml:space="preserve">
<g>
	<path fill="#0E0F0F" d="M57.771,19.461l-0.222,2.182l-22.096-2.219l-0.205,2.054l2.867,0.288l-1.365,2.517
		c-1.483-0.61-2.771-1.631-3.832-3.035c0.496-2.219-1.184-4.647-3.262-5.305c-2.622-0.83-4.914,0.703-5.923,3.069
		c-1.843,4.32-3.688,8.641-5.532,12.962c-0.053,0.123-0.093,0.248-0.131,0.374c-0.162,0.199-0.309,0.427-0.426,0.692
		c-2.707,6.104-7.453,15.892-10.606,21.78c-0.149,0.279-0.233,0.553-0.288,0.82L6.08,56.875l0.007,0.002
		c-0.003,0.006-0.015,0.014-0.015,0.014l-0.274,0.588c0,0,0.048,0.1,0.142,0.145l2.945,1.416l3.804,1.826l1.583,0.762
		c0.093,0.043,0.184,0.055,0.2,0.02l0.247-0.518c0.004-0.006,0-0.014-0.001-0.021l0.01,0.007c0,0,0.66-0.943-0.142-1.58
		c0,0-0.542-0.334-1.188-0.9l-0.616,0.648l-0.374-0.337l0.621-0.651c-0.109-0.104-0.218-0.217-0.327-0.332l-0.558,0.586
		l-0.373-0.336l0.599-0.631c-0.096-0.115-0.188-0.235-0.276-0.363L11.59,57.75l-0.074-0.066c0.06-0.09,0.124-0.166,0.177-0.268
		c0.094-0.174,0.193-0.361,0.289-0.541c0.228-0.191,0.431-0.436,0.588-0.76c0.337-0.695,0.577-1.191,0.744-1.537
		c0.257-0.533,0.343-0.709,0.342-0.707c0.167-0.346,0.408-0.842,0.744-1.537l-0.027-0.014c2.302-4.445,4.83-9.492,6.874-13.848
		c4.278,4.365,5.809,9.338,5.411,15.619c-0.047,0.74,0.162,1.338,0.511,1.799l0.155,2.771l0.008-0.002
		c-0.001,0.006-0.006,0.02-0.006,0.02l0.076,0.645c0,0,0.094,0.059,0.196,0.049l3.25-0.35l4.195-0.451l1.746-0.189
		c0.104-0.01,0.186-0.051,0.18-0.088l-0.062-0.57c0-0.006-0.007-0.01-0.013-0.016l0.013-0.002c0,0,0.063-1.148-0.953-1.268
		c0,0-0.638,0.002-1.481-0.141l-0.185,0.875l-0.494-0.088l0.185-0.881c-0.147-0.033-0.299-0.066-0.453-0.113l-0.164,0.794
		l-0.494-0.089l0.177-0.854c-0.142-0.049-0.285-0.104-0.425-0.16l-0.15,0.717l-0.495-0.09l0.054-0.26
		c0.307-0.396,0.482-0.914,0.414-1.559c-0.079-0.77-0.138-1.312-0.178-1.695c-0.002-0.025-0.003-0.041-0.006-0.064
		c0.104-6.391-1.597-12.068-5.723-16.824c0.258-0.359,0.48-0.756,0.661-1.178c1.173-2.751,2.347-5.5,3.52-8.25
		c1.068,0.966,2.248,1.748,3.522,2.333l-0.104,0.191l0.693,0.069c1.688,0.681,3.525,1.034,5.479,1.034
		c1.131,0,2.301-0.117,3.5-0.356c1.118-0.224,1.918-1.133,2.068-2.201l0.562,0.056l1.43-2.83l6.89,0.692l0.212-2.111l2.375,0.238
		l0.104-1.026l2.056,0.207l0.322-3.209L57.771,19.461z M44.643,25.047c-0.539-0.325-1.192-0.465-1.858-0.333
		c-1.136,0.227-2.21,0.291-3.229,0.214l1.553-2.862l4.795,0.481L44.643,25.047z"/>
	<polygon fill="#0E0F0F" points="13.111,37.326 23.41,15.703 18.318,13.278 22.885,3.849 22.12,3.478 17.551,12.913 15.552,11.96 
		13.421,12.413 11.004,11.262 4.174,25.601 6.591,26.752 5.253,33.584 	"/>
	<path fill="#0E0F0F" d="M25.781,11.108c0.529,2.372,2.644,4.147,5.175,4.147c2.928,0,5.303-2.375,5.303-5.305
		c0-0.142-0.01-0.281-0.021-0.419h-5.283C30.957,9.531,28.64,10.729,25.781,11.108z"/>
	<path fill="#0E0F0F" d="M24.998,10.113c3.11-0.412,5.631-1.717,5.631-1.717h5.75h0.309c0-3.347-2.713-6.06-6.059-6.06
		c-3.347,0-6.06,2.713-6.06,6.06c0,0.605,0.092,1.189,0.257,1.741C24.884,10.129,24.941,10.12,24.998,10.113z"/>
</g>
</svg>
