<?xml version="1.0" encoding="utf-8"?>
<!-- Generator: Adobe Illustrator 16.0.4, SVG Export Plug-In . SVG Version: 6.00 Build 0)  -->
<!DOCTYPE svg PUBLIC "-//W3C//DTD SVG 1.1//EN" "http://www.w3.org/Graphics/SVG/1.1/DTD/svg11.dtd">
<svg version="1.1" id="Capa_1" xmlns="http://www.w3.org/2000/svg" xmlns:xlink="http://www.w3.org/1999/xlink" x="0px" y="0px"
	 width="64px" height="64px" viewBox="0 0 64 64" enable-background="new 0 0 64 64" xml:space="preserve">
<g>
	<path fill="#0E0F0F" d="M21.406,13.994c-0.774-2.032-1.199-4.677,0.675-6.483h2.332l0.903-1.104l0.569,1.228h1.227
		c0,0,2.078,2.714,0.156,6.13c1.5-1.129,2.486-3.055,2.486-5.24c0-3.478-2.5-6.298-5.583-6.298s-5.583,2.82-5.583,6.298
		C18.588,10.867,19.723,12.91,21.406,13.994z"/>
	<circle fill="#0E0F0F" cx="45.986" cy="32.871" r="3.309"/>
	<path fill="#0E0F0F" d="M53.127,40.811c-1.1-2.24-2.881-3.101-5.787-3.334c-0.467-0.084-0.854-0.084-1.17-0.021
		c-0.109-0.008-0.218-0.019-0.329-0.019c-0.864,0-1.688,0.258-2.396,0.707c-1.662-0.336-2.596-1.502-2.805-3.371
		c-0.113-1.01-0.744-1.859-1.809-1.936c0.374-0.674,0.404-1.519-0.17-2.382c-2.571-3.859-5.486-7.881-6.124-12.586
		c-0.167-1.227-0.96-1.8-1.87-1.874l-0.002-0.05c-2.37-0.486-3.29-0.09-3.29-0.09L24.77,21.22l0.567-4.786h0.095v-0.793H23.46v0.793
		h0.101l0.67,4.789l-2.609-5.582c-0.242,0.067,0.059,0.01-0.171,0.099c0,0-0.927-1.077-4.419,0.677
		c-0.011,0.013-0.018,0.028-0.029,0.041c-0.644,0.239-1.154,0.788-1.283,1.738c-0.638,4.705-3.553,8.727-6.125,12.586
		c-1.865,2.797,2.639,5.395,4.487,2.622c0.977-1.466,1.996-2.971,2.94-4.524l-5.416,16.708h5.835v14.365
		c0,1.547,1.133,2.8,2.722,2.8s2.878-1.253,2.878-2.8V45.587h2.545c0,4.812,0,9.621,0,14.433c0,3.354,5.196,3.354,5.196,0
		c0-4.812,0-9.621,0-14.433h5.95l-5.256-16.64c0.876,1.415,1.806,2.789,2.701,4.131c0.669,1.005,1.687,1.302,2.624,1.143
		c-0.051,0.178-0.08,0.36-0.06,0.553c0.219,1.947,0.764,4.021,2.278,5.388c0.709,0.639,1.483,1.094,2.314,1.407
		c-0.02,0.162-0.023,0.326-0.023,0.494v5.549c0,0.25,0.026,0.47,0.067,0.673c-0.008,0.075-0.021,0.149-0.021,0.233
		c0,3.52,0,7.687,0,11.203c0,2.514,3.896,2.514,3.896,0c0-3.025,0-6.527,0-9.688c0.144-0.01,0.285-0.018,0.424-0.028
		c0.128-0.01,0.257-0.017,0.39-0.021c0,3.172,0,6.695,0,9.736c0,2.514,3.896,2.514,3.896,0c0-3.521,0-7.688,0-11.203
		c0-0.045-0.01-0.082-0.012-0.123c0.058-0.229,0.093-0.482,0.093-0.783v-4.137c0.442,1.195,0.515,2.692,0.623,3.904
		c0.228,2.479,4.124,2.504,3.896,0C54.359,45.114,54.145,42.88,53.127,40.811z M24.424,32.483c-0.483,0-0.876-0.394-0.876-0.878
		s0.393-0.878,0.876-0.878c0.485,0,0.878,0.394,0.878,0.878S24.909,32.483,24.424,32.483z M24.424,29.722
		c-0.483,0-0.876-0.394-0.876-0.878c0-0.484,0.393-0.878,0.876-0.878c0.485,0,0.878,0.394,0.878,0.878
		C25.302,29.328,24.909,29.722,24.424,29.722z M24.489,26.96c-0.485,0-0.878-0.393-0.878-0.877c0-0.485,0.393-0.878,0.878-0.878
		c0.484,0,0.877,0.393,0.877,0.878C25.366,26.567,24.973,26.96,24.489,26.96z"/>
</g>
</svg>
