<?xml version="1.0" encoding="utf-8"?>
<!-- Generator: Adobe Illustrator 16.0.4, SVG Export Plug-In . SVG Version: 6.00 Build 0)  -->
<!DOCTYPE svg PUBLIC "-//W3C//DTD SVG 1.1//EN" "http://www.w3.org/Graphics/SVG/1.1/DTD/svg11.dtd">
<svg version="1.1" id="Capa_1" xmlns="http://www.w3.org/2000/svg" xmlns:xlink="http://www.w3.org/1999/xlink" x="0px" y="0px"
	 width="64px" height="64px" viewBox="0 0 64 64" enable-background="new 0 0 64 64" xml:space="preserve">
<g>
	<path fill="#0E0F0F" d="M47.657,26.444c0.708,0.449-0.322-0.485-0.517-0.742c-0.688-0.907-1.332-1.843-1.979-2.777
		c-0.763-1.103-1.513-2.216-2.25-3.336c-0.953-1.447-2.896-1.627-4.446-2.019c-2.146-0.542-4.306-1.022-6.494-1.344
		c-3.826-1.362-8.872,2.807-6.229,7.326c0.097,0.166,0.191,0.334,0.287,0.5c-2.013,2.567-5.042,3.522-8.818,3.127
		c-2.318-0.243-2.87,2.424-1.697,3.889v27.648h1.697v-26.74c4.584,0.479,8.441-0.841,11.271-3.586
		c1.152,2.093,2.275,4.201,3.369,6.325c-2.994,2.064-5.609,4.564-7.9,7.443c-0.787,0.988-0.784,2.014-0.346,2.84
		c-0.017,0.291,0.011,0.605,0.096,0.941c0.882,3.487,1.763,6.975,2.645,10.463c0.937,3.719,6.819,2.658,5.875-1.08
		c-0.882-3.488-1.763-6.977-2.645-10.465c-0.01-0.041-0.023-0.078-0.035-0.119c1.878-2.205,4.059-4.15,6.52-5.684
		c0.297,5.813,0.594,11.985,0.893,17.364c0.214,3.845,6.182,3.545,5.967-0.312c-0.408-7.403-0.818-16.301-1.229-23.703
		c-0.037-0.675-0.254-1.219-0.58-1.641c-0.098-0.328-0.228-0.66-0.398-0.995c-1.162-2.263-2.359-4.51-3.592-6.739
		c0.518,0.138,1.033,0.279,1.547,0.42c1.688,2.739,3.557,6.238,6.135,7.875C47.893,33.287,50.727,28.392,47.657,26.444z"/>
	<path fill="#0E0F0F" d="M28.729,7.42c-0.771-2.43-3.5-3.733-6.093-2.909c-2.593,0.825-4.069,3.463-3.297,5.893L28.729,7.42z"/>
	<path fill="#0E0F0F" d="M17.179,13.553l15.133-4.809c0.226-0.072,0.375-0.241,0.333-0.378l-3.441-0.502l-9.788,3.111l-2.727,2.461
		C16.733,13.574,16.952,13.625,17.179,13.553z"/>
	<path fill="#0E0F0F" d="M26.509,16.306c2.552-0.811,3.961-3.538,3.149-6.089l-9.237,2.942C21.232,15.709,23.96,17.12,26.509,16.306
		z"/>
</g>
</svg>
