<?xml version="1.0" encoding="utf-8"?>
<!-- Generator: Adobe Illustrator 16.0.4, SVG Export Plug-In . SVG Version: 6.00 Build 0)  -->
<!DOCTYPE svg PUBLIC "-//W3C//DTD SVG 1.1//EN" "http://www.w3.org/Graphics/SVG/1.1/DTD/svg11.dtd">
<svg version="1.1" id="Capa_1" xmlns="http://www.w3.org/2000/svg" xmlns:xlink="http://www.w3.org/1999/xlink" x="0px" y="0px"
	 width="64px" height="64px" viewBox="0 0 64 64" enable-background="new 0 0 64 64" xml:space="preserve">
<g>
	<circle fill="#0E0F0F" cx="31.859" cy="8.299" r="4.816"/>
	<path fill="#0E0F0F" d="M38.242,14.676c-0.051-0.018-0.098-0.039-0.146-0.055c-0.576-0.21-1.193-0.393-1.863-0.544
		c-0.332-0.075-0.646-0.085-0.938-0.048c-9.207-0.553-13.478,0.577-15.813,6.751c-0.928,2.83,0.172,5.937,1.45,8.449
		c0.27,0.529,1.096,1.085,1.096,1.085c0.917,0.67,2.09,0.527,2.847,0.137l8.666-7.848c0.822-0.745,0.885-2.021,0.141-2.842
		c-0.744-0.824-2.021-0.887-2.844-0.141l-4.63,4.192l-0.616-0.68l4.63-4.193c1.198-1.085,3.055-0.993,4.139,0.205
		c1.086,1.197,0.992,3.054-0.207,4.139l-8.667,7.851c-0.123,0.112-0.256,0.202-0.391,0.288c0.004,3.424,0.009,6.312,0.009,6.398
		l0.091,19.888c0,1.522,1.269,2.756,2.833,2.756c1.565,0,2.832-1.231,2.832-2.756V38.438c0,0-0.026-0.951,0.971-0.938
		c0.996,0.009,1.086,0.982,1.086,0.982v19.279c0,1.522,1.268,2.756,2.834,2.756c1.562,0,2.676-1.23,2.676-2.756V39.261L38.382,20.81
		c2.536,2.614,1.646,7.198,1.097,11.239c-0.438,3.223,4.485,4.613,4.931,1.358C45.428,25.906,46.025,17.615,38.242,14.676z"/>
</g>
</svg>
