<?xml version="1.0" encoding="utf-8"?>
<!-- Generator: Adobe Illustrator 16.0.4, SVG Export Plug-In . SVG Version: 6.00 Build 0)  -->
<!DOCTYPE svg PUBLIC "-//W3C//DTD SVG 1.1//EN" "http://www.w3.org/Graphics/SVG/1.1/DTD/svg11.dtd">
<svg version="1.1" id="Capa_1" xmlns="http://www.w3.org/2000/svg" xmlns:xlink="http://www.w3.org/1999/xlink" x="0px" y="0px"
	 width="64px" height="64px" viewBox="0 0 64 64" enable-background="new 0 0 64 64" xml:space="preserve">
<g>
	<path fill="#0E0F0F" d="M30.778,15.878c2.703,0,4.902-2.199,4.902-4.901c0-2.417-1.761-4.427-4.067-4.826V5.032
		c0.286-0.173,0.293-0.551,0.636-1.041c0.541-0.774,0.798-1.53,0.571-1.688c-0.225-0.157-0.847-0.493-1.389,0.282
		c-0.001,0.001-0.002,0.838-0.003,0.84C31.447,2.633,31.292,2.019,31.049,2c-0.236-0.019-0.684,1.131-0.587,0.648
		c0.097-0.483-0.945-0.558-1.167-0.435C29.055,2.35,29.237,3.127,29.7,3.95c0.259,0.459,0.183,0.832,0.432,1.051
		c0.025,0.09,0.053,0.169,0.086,0.232v0.876c-2.439,0.28-4.341,2.354-4.341,4.868C25.876,13.679,28.076,15.878,30.778,15.878z
		 M28.533,7.871C29.063,7.635,32,8.88,32.616,8.88c0.888,0,0.421-1.486,1.106-1.022c1.143,0.771,1.348,1.64,1.348,3.119
		c0,2.366-1.926,4.291-4.292,4.291c-2.366,0-4.292-1.925-4.292-4.291C26.487,9.227,27.028,8.538,28.533,7.871z"/>
	<path fill="#0E0F0F" d="M31.727,59.666c0,1.453,1.21,2.629,2.705,2.629c1.492,0,2.702-1.176,2.702-2.629l0.065-8.322h-5.472V59.666
		z"/>
	<path fill="#0E0F0F" d="M24.505,59.717c0,1.451,1.063,2.629,2.556,2.629s2.704-1.178,2.704-2.629v-8.373h-5.26V59.717z"/>
	<path fill="#0E0F0F" d="M35.969,17.587c-0.003-0.001-0.005,0-0.008,0c-0.654-0.161-1.564-0.254-2.564-0.306v2.817l-2.911,2.911
		l-2.228-2.228v-3.497c-0.982,0.037-1.722,0.079-1.957,0.094c-0.05,0.001-0.095-0.008-0.147-0.005
		c-0.454,0.026-0.875,0.102-1.278,0.204l-0.004-0.059c-0.003,0-0.005-0.001-0.009-0.001c-7.379,0.449-7.902,11.238-7.649,18.084
		c0,0,4.91,3.268,4.929,0c0.019-3.269,0.019-3.269,0.141-4.888c0.081-1.06,0.258-4.982,1.213-7.04c0.05,0.259,0.09,0.422,0.09,0.422
		c0.002,1.489,0.139,5.751,0.29,10.044l1.167,0.355l0.435-1.422l0.355-1.166l0.001-0.001l0.804-2.63l1.619,0.496v-4.581l5.139,5.14
		v3.591h-4.769l-0.467,1.527l1.932,0.591l-0.9,2.936l-1.93-0.588L23.895,49.4v1.228h5.87h1.962h5.865c0,0-0.046-3.015-0.104-7.021
		h1.964l-2.089-8.797c-0.064-4.871-0.119-9.311-0.117-10.646c0,0,0.04-0.165,0.09-0.424c0.955,2.058,1.133,5.98,1.214,7.04
		c0.122,1.619,0.479,1.587,0.14,4.886c-0.338,3.3,4.933,0,4.933,0C43.871,28.825,43.348,18.036,35.969,17.587z M32.295,34.986h-2.53
		V34.37h2.53V34.986z M33.396,29.3l-5.142-5.14v-2.341l5.142,5.139V29.3z M33.396,25.92l-0.631-0.629l0.631-0.631V25.92z
		 M32.505,24.512l-1.243-1.242l2.132-2.134v2.486h0.002L32.505,24.512z"/>
	<polygon fill="#0E0F0F" points="26.161,34.283 27.393,33.872 27.597,33.205 26.365,33.614 	"/>
	<polygon fill="#0E0F0F" points="28.462,37.277 28.717,36.447 26.787,35.857 27.241,34.37 26.009,34.781 25.773,35.547 
		24.06,35.023 23.805,35.855 25.52,36.379 20.292,53.477 20.868,55.207 26.532,36.689 	"/>
	<polygon fill="#0E0F0F" points="26.518,33.116 27.749,32.707 27.954,32.038 26.721,32.449 	"/>
	<polygon fill="#0E0F0F" points="28.382,30.638 27.37,30.328 26.874,31.951 28.106,31.54 	"/>
</g>
</svg>
