<?xml version="1.0" encoding="utf-8"?>
<!-- Generator: Adobe Illustrator 16.0.4, SVG Export Plug-In . SVG Version: 6.00 Build 0)  -->
<!DOCTYPE svg PUBLIC "-//W3C//DTD SVG 1.1//EN" "http://www.w3.org/Graphics/SVG/1.1/DTD/svg11.dtd">
<svg version="1.1" id="Capa_1" xmlns="http://www.w3.org/2000/svg" xmlns:xlink="http://www.w3.org/1999/xlink" x="0px" y="0px"
	 width="64px" height="64px" viewBox="0 0 64 64" enable-background="new 0 0 64 64" xml:space="preserve">
<g>
	<path fill="#0E0F0F" d="M13.599,30.774c-5.904,0-10.708,4.802-10.708,10.705c0,5.904,4.803,10.709,10.708,10.709
		c5.902,0,10.706-4.805,10.706-10.709C24.305,35.576,19.501,30.774,13.599,30.774z M13.599,49.812c-4.595,0-8.333-3.737-8.333-8.332
		c0-4.597,3.738-8.332,8.333-8.332c4.595,0,8.331,3.735,8.331,8.332C21.93,46.075,18.194,49.812,13.599,49.812z"/>
	<path fill="#0E0F0F" d="M50.4,30.774c-5.902,0-10.705,4.802-10.705,10.705c0,5.904,4.803,10.709,10.705,10.709
		c5.904,0,10.707-4.805,10.707-10.709C61.107,35.576,56.305,30.774,50.4,30.774z M50.4,49.812c-4.594,0-8.332-3.737-8.332-8.332
		c0-4.597,3.738-8.332,8.332-8.332c4.596,0,8.332,3.735,8.332,8.332C58.732,46.075,54.996,49.812,50.4,49.812z"/>
	<path fill="#0E0F0F" d="M39.42,26.409c0.95,0.208,1.795,0.098,2.506-0.223c1.102,1.335,2.206,2.667,3.332,3.982
		c0.842,0.985,2.496,0.861,3.357,0c0.968-0.969,0.84-2.376,0-3.359c-1.451-1.697-2.872-3.42-4.288-5.147
		c-0.19-1.325-1.063-2.503-2.804-2.886c-4.901-1.079-9.806-2.158-14.708-3.237c-2.575-0.566-4.379,1.206-4.834,3.199
		c-0.379,0.584-0.541,1.311-0.394,2.048l4.622,23.12c0.263,1.314,1.419,2.228,2.713,2.228c0.179,0,0.363-0.019,0.546-0.056
		c1.501-0.301,2.473-1.76,2.173-3.26l-0.536-2.68c0.313,0.119,0.646,0.188,0.986,0.188c0.331,0,0.667-0.06,0.994-0.187
		c5.675-2.184,6.517-5.865,6.511-7.865c-0.006-2.179-0.994-4.38-2.558-6.395C37.834,26.059,38.627,26.234,39.42,26.409z
		 M31.098,34.973c-0.349,0.133-0.653,0.334-0.909,0.574l-2.032-10.163c3.262,2.015,5.895,4.943,5.899,6.908
		C34.059,33.314,33.064,34.215,31.098,34.973z"/>
	<path fill="#0E0F0F" d="M42.159,13.799c3.78,2.007,2.665,2.818,4.032,3.356l-0.522,2.911l0.976,0.176l0.508-2.829
		c0.054,0.009,0.094,0.02,0.147,0.029c0.365-0.271,0.703-0.479,1.032-0.662c0.05,0.886,1.314,1.245,1.314,1.245l1.312,1.127
		c0.703,0.168,1.408-0.266,1.577-0.969c0.165-0.704-0.27-1.409-0.973-1.577l-1.81-0.43c2.332-0.646,3.429,0.756,3.629-0.362
		c0.261-1.456-2.038-3.087-5.139-3.644C45.145,11.615,37.648,11.41,42.159,13.799z"/>
</g>
</svg>
