<?xml version="1.0" encoding="utf-8"?>
<!-- Generator: Adobe Illustrator 16.0.4, SVG Export Plug-In . SVG Version: 6.00 Build 0)  -->
<!DOCTYPE svg PUBLIC "-//W3C//DTD SVG 1.1//EN" "http://www.w3.org/Graphics/SVG/1.1/DTD/svg11.dtd">
<svg version="1.1" id="Capa_1" xmlns="http://www.w3.org/2000/svg" xmlns:xlink="http://www.w3.org/1999/xlink" x="0px" y="0px"
	 width="64px" height="64px" viewBox="0 0 64 64" enable-background="new 0 0 64 64" xml:space="preserve">
<g>
	<circle fill="#0E0F0F" cx="23.626" cy="7.662" r="5.404"/>
	<path fill="#0E0F0F" d="M21.014,29.365h-0.185c0.808-2.381,1.617-4.762,2.426-7.143c1.723,1.661,3.445,3.322,5.168,4.983
		c1.022,0.986,2.44,0.879,3.474,0c1.042-0.887,2.066-1.801,3.044-2.759l-1.246,9.312l5.178-11.291c0,0,4.499-4.184,6.902-4.361
		c0.191-1.303-0.133-1.786-0.133-1.786l-7.058,2.715c-0.46-1.657-3.233-2.586-4.651-0.701c-1.045,1.39-2.345,2.64-3.678,3.817
		c-2.034-1.962-4.068-3.922-6.101-5.884c-0.391-0.762-1.061-1.348-1.857-1.716c-0.354-0.227-0.725-0.33-1.09-0.35
		c-1.427-0.278-3.006,0.067-4.067,1.219c-4.37,2.446-8.636,5.063-12.695,8.004c-2.539,1.839-0.092,6.103,2.479,4.242
		c2.377-1.722,4.83-3.329,7.327-4.862c-0.892,2.624-1.783,5.249-2.674,7.873C9.6,33.663,5.087,41.021,6.141,44.626h3.414
		c0.295,4.521,0.137,9.038-0.84,13.492c-0.677,3.088,4.059,4.399,4.736,1.307c1.072-4.89,1.32-9.838,1.01-14.799h2.633
		c0.904,4.801,1.33,9.647,1.357,14.55c0.019,3.166,4.931,3.168,4.914,0c-0.029-4.886-0.451-9.746-1.292-14.55h2.046L21.014,29.365z"
		/>
	<circle fill="#0E0F0F" cx="53.895" cy="9.93" r="5.663"/>
	<path fill="#0E0F0F" d="M59.74,37.152c-2.018-4.777-3.663-9.786-4.102-14.978c0.53-3.922-5.029-7.512-8.472-3.76
		c-4.328,4.716-7.173,10.189-9.249,16.159c-0.493,0.1-0.979,0.335-1.422,0.742c-6.537,6.068-8.79,15.25-8.258,23.912
		c0.222,3.615,5.825,3.197,5.602-0.414c-0.404-6.614,1.073-13.274,5.424-18.275c0.258,0.201,0.529,0.377,0.812,0.521
		c-1.18,5.871-0.502,12.092,0.628,17.903c0.685,3.511,6.294,3.138,5.604-0.414c-1.19-6.116-1.94-12.596-0.166-18.671
		c0.086-0.297,0.121-0.572,0.121-0.835c0.237-0.412,0.438-0.86,0.59-1.33c1.033-3.172,2.448-6.127,4.26-8.849
		c0.902,3.795,2.232,7.467,3.777,11.119C56.295,43.314,61.132,40.448,59.74,37.152z"/>
</g>
</svg>
