<?xml version="1.0" encoding="utf-8"?>
<!-- Generator: Adobe Illustrator 16.0.4, SVG Export Plug-In . SVG Version: 6.00 Build 0)  -->
<!DOCTYPE svg PUBLIC "-//W3C//DTD SVG 1.1//EN" "http://www.w3.org/Graphics/SVG/1.1/DTD/svg11.dtd">
<svg version="1.1" id="Capa_1" xmlns="http://www.w3.org/2000/svg" xmlns:xlink="http://www.w3.org/1999/xlink" x="0px" y="0px"
	 width="64px" height="64px" viewBox="0 0 64 64" enable-background="new 0 0 64 64" xml:space="preserve">
<g>
	<path fill="#0E0F0F" d="M60.561,52.71c-3.854-1.271-9.619-3.167-14.84-4.883c0.684-0.343,1.375-0.704,2.08-1.103l-11.965-4.77
		c-0.836-5.154-3.59-9.894-7.687-13.229c-2.386-1.946-5.68-2.313-8.005,0.042c-0.143,0.144-0.274,0.3-0.399,0.463
		c-4.795-2.73-10.075-4.776-14.948-6.429c-3.698-1.253-5.271,4.58-1.605,5.822c5.517,1.871,11.583,4.297,16.632,7.812
		c0.114,0.119,0.232,0.233,0.362,0.34c1.432,1.166,2.594,2.44,3.393,3.892L15.53,45.12c0,0,2.874,3.47,8.46,5.338
		c-0.308,1.297-0.681,2.606-1.118,3.919c-3.094-2.216-6.202-4.033-6.388-4.141c-1.622-0.946-3.7-0.398-4.644,1.224
		c-0.945,1.621-0.396,3.699,1.225,4.646c0.059,0.033,5.936,3.473,9.024,6.306c0.632,0.581,1.455,0.894,2.296,0.894
		c0.235,0,0.471-0.023,0.706-0.072c1.075-0.229,1.971-0.961,2.408-1.972c1.389-3.192,2.452-6.446,3.185-9.649
		c1.273,0.029,2.626-0.045,4.056-0.237c5.711,1.875,17.314,5.687,23.689,7.79c1.776,0.586,3.701-0.379,4.287-2.161
		C63.309,55.219,62.341,53.297,60.561,52.71z"/>
	<path fill="#0E0F0F" d="M13.025,14.415c0.637,0.331,1.249,0.584,1.856,0.772c1.206,0.403,2.375,0.585,3.49,0.747
		c0.911,0.107,1.797,0.213,2.587,0.267c-2.254,1.111-3.704,3.529-3.453,6.178c0.015,0.37,0.198,1.208,0.328,1.558
		c0.207,0.995,1.28,2.298,1.28,2.298l0.387-0.332c0.654-0.426,5.161-3.486,5.752-7.248c0.784,2.142,2.988,2.507,4.063,2.555
		l0.518,0.001c0.05-0.002,0.087-0.005,0.087-0.005c-0.234-2.46-1.876-4.437-4.051-5.243l-1.644-0.221
		c-0.001-0.062,0.007-0.121-0.002-0.186c-0.073-0.566-0.384-1.029-0.673-1.356c-0.301-0.332-0.606-0.575-0.909-0.78
		c-1.206-0.812-2.367-1.088-3.468-1.424c-1.105-0.292-2.163-0.542-3.136-0.772c-0.952-0.231-1.868-0.544-2.226-0.829
		c-0.175-0.141-0.23-0.172-0.291-0.349c-0.056-0.177-0.036-0.526,0.089-0.923c0.254-0.8,0.77-1.729,1.339-2.629
		c1.131-1.854,2.67-3.509,3.893-5.555c-1.119,0.43-2.127,1.022-3.087,1.687C14.802,3.3,13.862,4.011,12.978,4.84
		c-0.875,0.837-1.73,1.751-2.361,3.046c-0.307,0.647-0.583,1.424-0.568,2.383c-0.002,0.959,0.455,2.017,1.071,2.687
		C11.731,13.646,12.397,14.072,13.025,14.415z"/>
</g>
</svg>
