<svg width="64" xmlns="http://www.w3.org/2000/svg" height="64" viewBox="0 0 64 64" xmlns:xlink="http://www.w3.org/1999/xlink" enable-background="new 0 0 64 64">
<g fill="#0e0f0f">
<path d="m20.068,46.261c2.113-4.754 4.256-9.488 6.675-14.092 .721-.194 1.436-.559 2.106-1.142 4.256-3.692 8.732-6.969 13.872-9.331 2.514-1.155 3.097-4.737 1.806-6.939-.857-1.464-2.184-2.218-3.631-2.382-.229-.065-.476-.107-.741-.12-6.158-.288-12.322-.297-18.487-.298-3.846,0-3.846,5.964 0,5.964 2.359,0 4.72,.007 7.078,.024-5.662,4.802-8.646,10.959-7.66,12.199-2.211,4.294-4.204,8.691-6.167,13.107-1.548,3.482 3.59,6.519 5.149,3.01z"/>
<circle cx="50.112" cy="12.337" r="4.92"/>
<path d="m45.901,30.905c.544,1.043 .645,2.021 .308,2.994-.852,2.459-4.185,3.984-4.265,4.023l-33.404,17.423 .827,1.586 33.357-17.398c.03-.014 .18-.082 .413-.204 1.064-.554 3.851-2.219 4.762-4.836 .502-1.444 .363-2.93-.41-4.414l-1.588,.826z"/>
</g>
</svg>
