<?xml version="1.0" encoding="utf-8"?>
<!-- Generator: Adobe Illustrator 16.0.4, SVG Export Plug-In . SVG Version: 6.00 Build 0)  -->
<!DOCTYPE svg PUBLIC "-//W3C//DTD SVG 1.1//EN" "http://www.w3.org/Graphics/SVG/1.1/DTD/svg11.dtd">
<svg version="1.1" id="Capa_1" xmlns="http://www.w3.org/2000/svg" xmlns:xlink="http://www.w3.org/1999/xlink" x="0px" y="0px"
	 width="64px" height="64px" viewBox="0 0 64 64" enable-background="new 0 0 64 64" xml:space="preserve">
<g>
	<path fill="#101111" d="M49.043,43.023c1.064-0.193,0.32-0.032-0.327-0.021c-0.159,0.006-0.788-0.047-0.922-0.045
		c-0.418-0.075-0.83-0.18-1.233-0.309c-0.207-0.069-0.242-0.078-0.852-0.438c-0.261-0.153-0.689-0.528-1.148-1.043
		c-0.879-0.979-1.398-2.903-1.586-4.321c-0.025-0.205-0.064-0.404-0.115-0.599c-0.006-0.047-0.004-0.093-0.008-0.14
		c-0.451-4.906-1.687-9.709-2.011-14.621c3.097,1.113,6.132,2.98,9.455,3.012c3.24,0.031,3.236-4.99,0-5.021
		c-4.282-0.041-7.851-3.12-11.998-3.721c-2.815-1.414-7.03-0.108-6.955,3.964c0.006,0.303,0.029,0.604,0.043,0.906
		c-1.373,1.909-2.917,3.748-4.951,4.843c-2.852,1.535-0.315,5.869,2.534,4.336c1.179-0.635,2.231-1.454,3.193-2.381
		c0.395,2.411,0.829,4.817,1.119,7.248c-2.421,7.125-5.218,14.136-7.977,21.136c-1.486,3.77,4.586,5.389,6.052,1.668
		c2.141-5.433,4.305-10.869,6.3-16.362c1.021,3.022,2.832,5.684,5.953,7.067c2.242,0.99,4.686,1.334,7.102,0.894
		C54.689,48.35,53,42.302,49.043,43.023z"/>
	<circle fill="#101111" cx="33.236" cy="9.324" r="4.907"/>
	<path fill="#101111" d="M12.325,41.497c-1.673,0.146-4.289,3.737-4.289,8.349c0,4.612,3.244,8.35,4.289,8.35
		c1.047,0,4.289-3.736,4.289-8.35C16.614,45.234,13.999,41.354,12.325,41.497z"/>
</g>
</svg>
