<?xml version="1.0" encoding="utf-8"?>
<!-- Generator: Adobe Illustrator 16.0.4, SVG Export Plug-In . SVG Version: 6.00 Build 0)  -->
<!DOCTYPE svg PUBLIC "-//W3C//DTD SVG 1.1//EN" "http://www.w3.org/Graphics/SVG/1.1/DTD/svg11.dtd">
<svg version="1.1" id="Capa_1" xmlns="http://www.w3.org/2000/svg" xmlns:xlink="http://www.w3.org/1999/xlink" x="0px" y="0px"
	 width="64px" height="64px" viewBox="0 0 64 64" enable-background="new 0 0 64 64" xml:space="preserve">
<g>
	<ellipse fill="#0E0F0F" cx="31.491" cy="11.958" rx="4.224" ry="4.273"/>
	<path fill="#0E0F0F" d="M33.973,16.24c-0.635-0.186-0.881,2.917-2.521,2.724c-1.641-0.193-1.841-2.848-2.443-2.671
		c-6.486,1.905-9.36,6.775-9.207,14.023c-0.008,0.082-0.014,0.164-0.009,0.239c0.042,0.704,0.882,1.779,1.572,1.779
		c0.026,0,0.052,0,0.079-0.002c3.011-0.182,5.685-1.892,7.59-3.689c0.28-0.263,0.411-0.621,0.409-0.98h1.518l1.444-6.799h-3.622
		l-1.234,5.633c0.007,0,0.014,0.003,0.02,0.003c-0.113,0.056-0.227,0.11-0.324,0.202c-1.377,1.492-2.292,1.577-3.632,1.639
		c0.03-0.01,0.062-0.015,0.091-0.025c0.195-1.791,0.717-3.358,1.548-4.67c-0.002,0.098-0.011,0.195-0.011,0.295v3.693
		c0.432-0.24,0.853-0.51,1.258-0.815l1.312-6.539c0-0.293,0.235-0.531,0.525-0.531h4.725c0.291,0,0.525,0.237,0.525,0.531
		l-1.576,7.861c0,0.293-0.234,0.531-0.525,0.531h-1.896c-0.119,0.468-0.689,1.158-1.105,1.481c-1,0.775-2.091,1.626-3.243,2.044
		v1.369v21.994c0,1.336,1.071,2.42,2.393,2.42c1.322,0,2.392-1.084,2.392-2.42c0,0-0.501-18.887,1.291-18.902
		c1.792-0.016,1.498,18.902,1.498,18.902c0,1.336,1.069,2.42,2.393,2.42c1.318,0,2.395-1.084,2.395-2.42l0.027-21.994l0.003-1.684
		l0.013-7.943c0-0.178-0.014-0.354-0.022-0.529c1.228,1.837,1.829,4.194,1.741,6.984c-0.032,1.066,0.797,1.958,1.85,1.991
		c0.021,0.002,0.041,0.002,0.061,0.002c1.028,0,1.877-0.826,1.908-1.872C43.404,23.125,40.535,18.168,33.973,16.24z"/>
</g>
</svg>
