<?xml version="1.0" encoding="utf-8"?>
<!-- Generator: Adobe Illustrator 16.0.4, SVG Export Plug-In . SVG Version: 6.00 Build 0)  -->
<!DOCTYPE svg PUBLIC "-//W3C//DTD SVG 1.1//EN" "http://www.w3.org/Graphics/SVG/1.1/DTD/svg11.dtd">
<svg version="1.1" id="Capa_1" xmlns="http://www.w3.org/2000/svg" xmlns:xlink="http://www.w3.org/1999/xlink" x="0px" y="0px"
	 width="64px" height="64px" viewBox="0 0 64 64" enable-background="new 0 0 64 64" xml:space="preserve">
<g>
	<path fill="#0E0F0F" d="M24.995,48.604c-0.84,0.975-1.152,1.42-1.992,2.394c-1.855,2.149-3.712,4.304-5.568,6.455
		c-1.811,2.099,1.445,4.905,3.256,2.809c1.855-2.151,3.711-4.304,5.567-6.454c0.879-1.021,2.96-3.588,3.841-4.606
		C27.064,49.329,25.309,48.911,24.995,48.604z"/>
	<path fill="#0E0F0F" d="M54.076,31.894c-2.938,0.99-5.848,2.049-8.76,3.114c-0.055,1.749-0.265,3.346-0.619,4.789
		c3.498-1.277,6.992-2.566,10.521-3.757C57.831,35.158,56.71,31.005,54.076,31.894z"/>
	<path fill="#0E0F0F" d="M33.672,34.951c-0.01-0.01-0.021-0.02-0.029-0.029c-1.601-1.581-3.015-3.424-4.043-5.442
		c1.951-3.302,3.901-6.603,5.853-9.904c1.067-1.812,0.097-3.268-0.724-4.922c-0.894-1.803-1.785-3.604-2.679-5.408
		c-1.513-3.051-6.065-0.375-4.561,2.665c0.967,1.95,1.933,3.9,2.899,5.851c-0.241,0.406-0.48,0.813-0.721,1.219
		c0.008,0.121-3.113,5.269-3.113,5.269c-0.18,0.305-0.36,0.61-0.542,0.916c-0.509-0.106-1.06-0.099-1.642,0.057
		c-0.459,0.123-0.899,0.358-1.29,0.669l-5.745-0.819l-5.21-4.975C11.247,19.062,9.981,19,8.959,19.567
		C7.94,20.13,7.867,21.12,8.431,22.14l6.228,6.816l7.248,1.033c1.331,3.396,3.277,6.557,5.738,9.247l0.346-0.221l-2.508,8.733
		c0,0,18.847,5.731,18.774-14.276L34.373,34.5L33.672,34.951z"/>
	<path fill="#0E0F0F" d="M19.103,18.101c0.842-0.036,2.567-0.322,3.182-2c0.463,2.947,3.993,5.343,4.504,5.676l0.304,0.26
		c0,0,0.84-1.021,1.001-1.801c0.104-0.273,0.247-0.929,0.258-1.22c0.225-2.365-1.282-4.495-3.48-5.142
		c-0.02-0.081-0.042-0.161-0.075-0.241c0.042-0.021,0.084-0.038,0.125-0.062c0.299-0.164,0.615-0.365,0.912-0.669
		c0.146-0.153,0.288-0.337,0.4-0.545c0.053-0.099,0.107-0.213,0.152-0.36l0.049-0.148l0.018-0.054l0.007-0.028l0.021-0.135
		c0.074-0.45,0.028-0.92-0.084-1.333c-0.109-0.417-0.291-0.773-0.473-1.096c-0.377-0.641-0.779-1.165-1.148-1.628
		c-0.354-0.463-0.683-0.907-0.789-1.182c-0.05-0.141-0.056-0.193-0.049-0.202c0.008-0.005-0.008-0.028,0.049-0.137
		c0.053-0.096,0.163-0.253,0.309-0.407c0.073-0.08,0.155-0.165,0.239-0.245c0.042-0.038,0.074-0.077,0.119-0.121l0.172-0.152
		c0.449-0.398,0.584-1.066,0.291-1.617c-0.346-0.649-1.151-0.894-1.798-0.55c-0.585,0.312-1.25,0.75-1.792,1.565
		c-0.269,0.403-0.496,0.974-0.503,1.578c-0.015,0.601,0.154,1.15,0.372,1.554c0.438,0.816,0.947,1.281,1.402,1.719
		c0.447,0.436,0.889,0.792,1.208,1.153c0.319,0.366,0.521,0.657,0.573,0.962l0.002,0.007v0.003
		c-0.003,0.022,0.024-0.179,0.014-0.092l-0.001,0.004l-0.002,0.028L24.589,11.5c-0.002,0.042-0.006,0.082-0.003,0.073
		c0.009,0.002,0.009,0.028,0.003,0.069c-0.013,0.068-0.026,0.15-0.068,0.237c-0.081,0.174-0.231,0.372-0.423,0.565
		c-0.059,0.063-0.125,0.125-0.19,0.187c-0.666-0.377-1.443-0.332-1.872,0.16c-0.278,0.321-0.344,0.764-0.231,1.2
		c-1.703,0.631-2.989,2.179-3.172,4.105c0,0,0.029,0.002,0.068,0.005H19.103z"/>
</g>
</svg>
