<?xml version="1.0" encoding="utf-8"?>
<!-- Generator: Adobe Illustrator 16.0.4, SVG Export Plug-In . SVG Version: 6.00 Build 0)  -->
<!DOCTYPE svg PUBLIC "-//W3C//DTD SVG 1.1//EN" "http://www.w3.org/Graphics/SVG/1.1/DTD/svg11.dtd">
<svg version="1.1" id="Capa_1" xmlns="http://www.w3.org/2000/svg" xmlns:xlink="http://www.w3.org/1999/xlink" x="0px" y="0px"
	 width="64px" height="64px" viewBox="0 0 64 64" enable-background="new 0 0 64 64" xml:space="preserve">
<g>
	<path fill="#0E0F0F" d="M59.627,14.363H46.532c-0.13,0-0.259,0.009-0.39,0.026c-0.846-0.092-1.697,0.172-2.334,0.987l-14.957,12.77
		c0.071-0.383,0.095-0.749,0.056-1.072c-0.245-2.04-0.333-2.846-0.501-4.278c0.765,0.418,1.529,0.835,2.294,1.253
		c0.629,0.344,1.361,0.248,1.883-0.243c1.486-1.403,2.979-2.807,4.467-4.21c1.461-1.377-0.742-3.57-2.197-2.198
		c-1.203,1.136-2.408,2.271-3.611,3.406c-1.544-0.843-3.086-1.685-4.629-2.528c-0.464-0.297-1.023-0.475-1.682-0.479
		c-0.787-0.005-1.639,0.345-2.286,0.908c-1.802,0.528-3.603,1.057-5.403,1.586c-0.688,0.202-1.138,0.787-1.159,1.503
		c-0.06,2.045-0.121,4.09-0.182,6.136c-0.058,2.006,3.05,1.999,3.108-0.001c0.048-1.653,0.097-3.308,0.146-4.962
		c0.856-0.251,1.711-0.502,2.568-0.753c0.285,3.093,0.57,8.416,0.856,10.798c0.021,0.188,0.056,0.313,0.097,0.407l-8.987,7.674
		L4.556,40.82c-1.706,0-3.093,1.389-3.093,3.095v5.433c0,1.704,1.388,3.092,3.093,3.092H17.65c1.081,0,2.054-0.547,2.621-1.465
		L49.545,25.98h10.082c1.706,0,3.094-1.387,3.094-3.091v-5.433C62.721,15.751,61.333,14.363,59.627,14.363z M60.175,22.889
		c0,0.302-0.245,0.548-0.548,0.548H48.605L18.334,49.282l-0.082,0.071l-0.118,0.231c-0.095,0.19-0.281,0.31-0.484,0.31H4.555
		c-0.302,0-0.548-0.248-0.548-0.549v-5.432c0-0.303,0.247-0.55,0.548-0.55h10.072L45.463,17.04c0.122-0.105,0.271-0.15,0.456-0.113
		l0.251,0.047l0.25-0.052c0.04-0.009,0.079-0.013,0.112-0.013h13.095c0.303,0,0.548,0.246,0.548,0.549V22.889z"/>
	<circle fill="#0E0F0F" cx="26.268" cy="14.465" r="2.903"/>
	<path fill="#0E0F0F" d="M50.835,34.479L39.352,45.962v-4.519c0-0.434-0.351-0.784-0.783-0.784c-0.432,0-0.782,0.352-0.782,0.784
		v6.41c0,0.014,0.005,0.023,0.006,0.035c0,0.039,0.01,0.076,0.017,0.116c0.008,0.038,0.016,0.075,0.028,0.111
		c0.003,0.012,0.003,0.024,0.011,0.036c0.01,0.022,0.025,0.041,0.036,0.062c0.021,0.036,0.038,0.07,0.062,0.102
		s0.05,0.059,0.074,0.084c0.028,0.026,0.055,0.054,0.084,0.076c0.033,0.022,0.066,0.041,0.104,0.061
		c0.021,0.012,0.04,0.029,0.064,0.039c0.015,0.008,0.029,0.009,0.047,0.014c0.015,0.006,0.031,0.012,0.049,0.016
		c0.066,0.019,0.135,0.031,0.201,0.031h6.41c0.436,0,0.785-0.352,0.785-0.783c0-0.433-0.351-0.783-0.785-0.783h-4.52l11.482-11.485
		c0.31-0.306,0.31-0.801,0-1.106C51.639,34.174,51.143,34.174,50.835,34.479z"/>
</g>
</svg>
