<?xml version="1.0" encoding="utf-8"?>
<!-- Generator: Adobe Illustrator 16.0.4, SVG Export Plug-In . SVG Version: 6.00 Build 0)  -->
<!DOCTYPE svg PUBLIC "-//W3C//DTD SVG 1.1//EN" "http://www.w3.org/Graphics/SVG/1.1/DTD/svg11.dtd">
<svg version="1.1" id="Capa_1" xmlns="http://www.w3.org/2000/svg" xmlns:xlink="http://www.w3.org/1999/xlink" x="0px" y="0px"
	 width="64px" height="64px" viewBox="0 0 64 64" enable-background="new 0 0 64 64" xml:space="preserve">
<g>
	<circle fill="#0E0F0F" cx="31.755" cy="18.143" r="4.838"/>
	<path fill="#0E0F0F" d="M46.053,15.402c-0.061-1.485-1.039-2.359-2.166-2.641v-2.435h-0.318v-0.317h0.215
		c1.261,0,2.249-1.536,2.249-3.496V4.129h-0.636v2.383c0,1.55-0.739,2.86-1.613,2.86h-0.215V4.288h-0.637v5.084h-0.211
		c-0.875,0-1.615-1.31-1.615-2.86V4.129h-0.637v2.383c0,1.96,0.989,3.496,2.252,3.496h0.211v0.317h-0.315v2.363
		c-1.242,0.181-2.328,1.081-2.259,2.713c0.197,4.668-1.28,8.567-4.332,11.479c-1.166-1.41-2.846-2.3-4.719-2.3
		c-1.665,0-3.176,0.705-4.313,1.849c-3.066-2.915-4.555-6.823-4.355-11.504c0.061-1.437-0.775-2.301-1.822-2.613V3.366
		c-3.917,1.939-1.266,7.292-1.266,7.292l0.041,1.544c-1.318,0.126-2.58,1.03-2.652,2.725c-0.299,7.011,2.604,13.166,7.982,17.211
		v7.56c0,0.296,0.028,0.562,0.068,0.812c0,5.68,0,11.356,0,17.033c0,4.118,5.698,4.118,5.698,0c0-4.771,0-9.536,0-14.307
		c0.209-0.014,0.416-0.026,0.618-0.043c0.187-0.014,0.377-0.021,0.569-0.031c0,4.795,0,9.587,0,14.381c0,4.118,5.696,4.118,5.696,0
		c0-5.6,0-11.195,0-16.797c0.072-0.311,0.117-0.65,0.117-1.051v-6.793C43.32,28.869,46.359,22.581,46.053,15.402z"/>
</g>
</svg>
