<?xml version="1.0" encoding="utf-8"?>
<!-- Generator: Adobe Illustrator 16.0.4, SVG Export Plug-In . SVG Version: 6.00 Build 0)  -->
<!DOCTYPE svg PUBLIC "-//W3C//DTD SVG 1.1//EN" "http://www.w3.org/Graphics/SVG/1.1/DTD/svg11.dtd">
<svg version="1.1" id="Capa_1" xmlns="http://www.w3.org/2000/svg" xmlns:xlink="http://www.w3.org/1999/xlink" x="0px" y="0px"
	 width="64px" height="64px" viewBox="0 0 64 64" enable-background="new 0 0 64 64" xml:space="preserve">
<g>
	<path fill="#0E0F0F" d="M56.872,20.795c-0.075,0.004-6.813,0.442-10.84,0.253c-1.308-1.916-3.827-2.963-5.964-1.537
		c-2.842-1.717-6.158-4.177-8.932-6.642c-1.011-0.9-2.562-0.808-3.462,0.205c-0.9,1.012-0.81,2.562,0.204,3.461
		c2.74,2.436,5.876,4.794,8.757,6.615c-2.008,2.292-3.986,4.632-5.783,7.09l-15.063,0.541c0,0,0.968,1.703,2.726,3.998h-7.813
		c-0.049,0-0.095,0.012-0.144,0.015l-0.004-0.169c-0.014,0-0.024,0-0.036,0v-0.02c0.073-0.008,0.115-0.016,0-0.017l-0.001-0.012
		c-0.047,0.002-0.093,0.008-0.14,0.011h-0.003c0-0.002-0.001,0-0.003,0c-0.059,0.004-0.118,0.01-0.176,0.018l-0.183,0.004
		l-3.381-0.055l0.001,0.008c-0.006-0.002-0.019-0.008-0.019-0.008l-0.689,0.031c0,0-0.069,0.096-0.065,0.204l0.12,3.478L5.34,38.289
		l-0.111-3.475l-0.862,0.028l0.237,7.427l0.01,0.27l0.049,1.509l0.001,0.017c0.01,0.104,0.271,2.572,1.986,2.707l0.061-0.905
		c-0.934-0.074-1.166-1.724-1.185-1.88l-0.04-1.207l0.65-0.021l0.067,1.868c0.002,0.109,0.039,0.198,0.08,0.198l0.61-0.022
		c0.006,0.002,0.012-0.006,0.018-0.012v0.012c0,0,1.218,0.157,1.419-0.916c0,0,0.048-0.674,0.262-1.562l-0.917-0.26l0.132-0.521
		l0.923,0.265c0.044-0.156,0.096-0.313,0.153-0.475L8.053,41.1l0.132-0.519l0.891,0.252c0.063-0.146,0.131-0.293,0.204-0.438
		l-0.75-0.213l0.132-0.519l0.272,0.077c0.397,0.355,1.077,0.576,1.766,0.555l-0.002-0.066c0.001,0,0.001,0,0.002,0h12.76
		c1.551,1.428,3.303,2.791,5.23,3.904v10.713l-0.469,0.012c0,0.015,0,0.022,0,0.035h-0.019c-0.007-0.072-0.015-0.115-0.016,0h-0.011
		c0.002,0.047,0.007,0.094,0.01,0.142c0,0.002,0,0.002-0.001,0.004c0,0,0.001,0.002,0.002,0.003
		c0.004,0.061,0.007,0.118,0.016,0.177l0.004,0.183l-0.055,3.382l0.01-0.001c-0.004,0.006-0.009,0.019-0.009,0.019l0.032,0.69
		c0,0,0.094,0.066,0.204,0.062l3.477-0.119l0.021,0.64l-3.475,0.11l0.029,0.862l7.425-0.237l0.271-0.01l1.508-0.049l0.018-0.002
		c0.104-0.01,2.57-0.271,2.706-1.984l-0.906-0.062c-0.073,0.934-1.724,1.166-1.878,1.187l-1.206,0.038l-0.021-0.651l1.867-0.065
		c0.109-0.003,0.199-0.039,0.198-0.079L38.4,58.52c0-0.006-0.008-0.013-0.012-0.019H38.4c0,0,0.156-1.217-0.918-1.42
		c0,0-0.672-0.047-1.562-0.263l-0.262,0.916l-0.521-0.133l0.264-0.922c-0.155-0.045-0.312-0.096-0.473-0.152l-0.236,0.83
		l-0.518-0.133l0.252-0.892c-0.146-0.063-0.293-0.131-0.438-0.205l-0.213,0.751l-0.366-0.093c0.448-0.486,0.728-1.129,0.728-1.843
		v-8.586c1.705,0.41,3.494,0.582,5.359,0.412V34.509l-0.215-0.106c2.012-2.616,4.238-5.084,6.416-7.537
		c0.258-0.29,0.468-0.59,0.64-0.894c0.649,0.021,1.343,0.031,2.052,0.031c4.018,0,8.547-0.295,8.803-0.312
		c1.352-0.089,2.375-1.258,2.285-2.609C59.391,21.729,58.216,20.706,56.872,20.795z"/>
	<path fill="#0E0F0F" d="M42.066,16.623c1.344,2.16,4.522-5.232,4.522-5.232s4.644,2.53,3.302,0.37
		c-1.344-2.16-4.184-2.822-6.344-1.479C41.389,11.623,40.725,14.462,42.066,16.623z"/>
	<path fill="#0E0F0F" d="M38.352,9.15c1.351-0.313,2.426-1.085,3.317-1.815l1.238-1.065l0.14-0.118
		c0.016-0.015,0.062-0.049,0.055-0.047l0.076-0.059c0.032-0.029,0.104-0.082,0.117-0.1c0.02-0.025-0.007-0.027-0.062-0.057
		c-0.056-0.029-0.096-0.088-0.074-0.1c0.045-0.031,0.208,0.118,0.338,0.31c0.137,0.194,0.275,0.434,0.412,0.683
		c0.144,0.25,0.281,0.516,0.457,0.778c0.171,0.251,0.355,0.553,0.65,0.703c-0.039-0.154-0.039-0.293-0.029-0.44
		c0-0.143,0.013-0.287,0.025-0.434c0.026-0.292,0.043-0.586,0.047-0.893c0-0.306-0.013-0.62-0.08-0.963
		c-0.029-0.171-0.082-0.349-0.16-0.541c-0.08-0.19-0.188-0.401-0.383-0.608c-0.188-0.206-0.492-0.406-0.828-0.487
		c-0.338-0.083-0.658-0.053-0.91,0.004c-0.266,0.064-0.451,0.133-0.67,0.249l-0.105,0.054l-0.125,0.072l-0.213,0.126
		c-0.555,0.341-1.016,0.716-1.454,1.073c-0.87,0.721-1.616,1.411-2.43,1.9c-0.409,0.247-0.836,0.442-1.333,0.57
		c-0.498,0.135-1.057,0.173-1.688,0.178c0.418,0.47,0.982,0.816,1.631,1C36.961,9.308,37.684,9.301,38.352,9.15z"/>
</g>
</svg>
