<?xml version="1.0" encoding="utf-8"?>
<!-- Generator: Adobe Illustrator 16.0.4, SVG Export Plug-In . SVG Version: 6.00 Build 0)  -->
<!DOCTYPE svg PUBLIC "-//W3C//DTD SVG 1.1//EN" "http://www.w3.org/Graphics/SVG/1.1/DTD/svg11.dtd">
<svg version="1.1" id="Capa_1" xmlns="http://www.w3.org/2000/svg" xmlns:xlink="http://www.w3.org/1999/xlink" x="0px" y="0px"
	 width="64px" height="64px" viewBox="0 0 64 64" enable-background="new 0 0 64 64" xml:space="preserve">
<g>
	<path fill="#0E0F0F" d="M59.406,50.214c-2.127-0.688-4.254-1.374-6.383-2.063c-0.865-0.277-2.594-0.838-2.594-0.838
		s-0.371-0.84-0.771-1.436c-0.41-0.615-0.691-1.281-0.908-1.975c0.277-0.571,0.352-1.271,0.212-1.938
		c0-0.048,0.004-0.091,0.003-0.139c-0.074-3.49,0.077-8.577,2.957-10.966c1.746-1.447,1.46-4.408-0.029-5.883
		c-0.918-0.905-2.025-1.244-3.125-1.15c-2.541-1.964-5.141-3.846-7.781-5.67l4.695-4.628l-0.391-0.185l-0.312-0.148
		c0.192-0.124,0.355-0.297,0.463-0.519c0.303-0.632,0.033-1.391-0.598-1.692c-0.633-0.302-1.392-0.035-1.693,0.598
		c-0.104,0.222-0.137,0.458-0.111,0.686l-2.479-1.185l-0.221-0.104l-0.135-0.066c0.047-0.054,0.091-0.112,0.123-0.18
		c0.191-0.406,0.021-0.892-0.385-1.085s-0.891-0.022-1.086,0.383c-0.03,0.068-0.051,0.139-0.062,0.209l-1.309-0.625l-0.152-0.073
		L36.852,9.31l-0.879,7.372c-1.227,0.924-1.74,2.958-0.512,4.299l-0.05,0.424l-1.705,1.288l3.964,1.853l-0.812-2.322l0.115-0.113
		c2.398,1.628,4.76,3.309,7.071,5.054c-0.01,0.014-0.021,0.028-0.03,0.042l0.279,0.145c0.383,0.29,0.768,0.578,1.146,0.872
		l-3.416,3.689l0.726-2.512c-1.394,3.003-1.946,6.585-2.078,9.851c-1.299-0.029-2.601-0.044-3.901-0.044
		c-1.121,0-2.496,0.836-2.676,2.036c-0.775,5.221,0.682,10.169,3.605,14.52c1.986,2.949,6.792,0.178,4.789-2.8
		c-1.629-2.42-2.984-5.248-3.143-8.192c0.909,0.012,1.819,0.035,2.729,0.067c0.419,0.345,0.902,0.595,1.419,0.757
		c1.073,3.269,3.139,6.312,6.491,7.396c2.646,0.854,5.297,1.712,7.945,2.565C61.346,56.663,62.795,51.309,59.406,50.214z
		 M42.357,38.198c-0.308,0-0.556-0.497-0.556-1.109s0.249-1.108,0.556-1.108s0.555,0.496,0.555,1.108S42.664,38.198,42.357,38.198z
		 M42.635,35.703c-0.306,0-0.554-0.497-0.554-1.107c0-0.613,0.248-1.109,0.554-1.109c0.307,0,0.555,0.496,0.555,1.109
		C43.189,35.206,42.941,35.703,42.635,35.703z"/>
	<path fill="#0E0F0F" d="M50.057,16.463c1.178,0.695,5.098,3.014,5.732,3.383c0.637,0.369-1.312,1.62-1.37,2.964
		c-0.082,1.845,0.966,0.569,0.966,0.569l0.598-1.014c1.322-2.239,2.4-4.049,0.238-5.327l-1.343-0.791c0,0-1.584-0.596-3.118-4.813
		c-1.078,1.268-0.083,2.924-0.083,2.924s-1.216-1.786-1.737-1.643C49.939,12.716,48.878,15.768,50.057,16.463z"/>
	<path fill="#0E0F0F" d="M25.752,26.776c-2.139,0.234-4.005-0.201-5.509-1.446c-0.316-2.36-0.59-4.724-0.854-7.092
		c-0.22-1.986-1.47-3.683-3.645-3.697c-1.82-0.012-3.919,1.652-3.698,3.646c0.423,3.803,0.859,7.606,1.435,11.391L6.91,42.436
		l8.196,0.141c0,3.703,0,7.41,0,11.115c0,3.156,4.895,3.156,4.895,0c0-3.678,0-7.355,0-11.034l1.508,0.024L21.474,30.32
		c1.325,0.399,2.756,0.538,4.277,0.372C28.233,30.42,28.259,26.502,25.752,26.776z"/>
	<path fill="#0E0F0F" d="M4.855,25.102c-0.046,0-0.094,0.003-0.14,0.01c-0.311,0.034-0.596,0.195-0.819,0.463
		c-0.252-0.304-0.586-0.473-0.948-0.473l-0.007,0.001H2.94c-0.499,0-1.026,0.346-1.097,0.992h0.009
		c-0.006,0.05-0.009,0.102-0.009,0.157c0,0.769,0.681,1.305,1.178,1.695c0.09,0.072,0.168,0.131,0.238,0.186l-0.001,0.001
		l0.005,0.004c0.31,0.235,0.425,0.322,0.552,0.448c0.021,0.022,0.049,0.032,0.078,0.032H3.9h0.003c0.029,0,0.057-0.011,0.078-0.032
		c0.091-0.091,0.177-0.162,0.333-0.282c0.007-0.006,0.013-0.01,0.021-0.015c0.033-0.027,0.069-0.053,0.107-0.083
		c0.027-0.022,0.058-0.043,0.09-0.068l0.004-0.004v-0.001c0.07-0.054,0.148-0.114,0.236-0.185c0.499-0.391,1.18-0.927,1.18-1.696
		c0-0.056-0.004-0.107-0.009-0.159c0,0,0.006,0,0.009,0.001C5.88,25.449,5.353,25.102,4.855,25.102z"/>
	<path fill="#0E0F0F" d="M29.114,6.522c-0.072,0-0.146,0.004-0.218,0.014c-0.483,0.055-0.928,0.307-1.273,0.723
		c-0.396-0.474-0.915-0.736-1.479-0.736l-0.012,0.001h-0.001c-0.778,0-1.601,0.541-1.709,1.545h0.014
		c-0.009,0.08-0.014,0.161-0.014,0.245c0,1.196,1.061,2.031,1.835,2.642c0.139,0.11,0.261,0.203,0.37,0.288c0,0-0.002,0-0.002,0.001
		l0.007,0.007c0.482,0.366,0.661,0.502,0.861,0.698c0.031,0.033,0.076,0.051,0.121,0.051l0.008-0.002h0.006
		c0.045,0,0.09-0.016,0.122-0.05c0.144-0.141,0.277-0.252,0.521-0.44c0.01-0.007,0.02-0.015,0.031-0.023
		c0.052-0.041,0.107-0.083,0.167-0.128c0.044-0.034,0.09-0.068,0.142-0.107l0.006-0.007c0.108-0.083,0.23-0.176,0.367-0.286
		c0.776-0.611,1.837-1.446,1.837-2.642c0-0.085-0.007-0.167-0.015-0.248c0,0,0.01,0,0.015,0.002
		C30.711,7.063,29.891,6.522,29.114,6.522z"/>
	<path fill="#0E0F0F" d="M7.944,17.622c0.367,0.031,0.748,0.02,1.123-0.086c0.375-0.102,0.743-0.32,1.021-0.63
		c0.569-0.632,0.767-1.476,0.871-2.246c0.188-1.569,0.026-3.101-0.023-4.545c-0.023-0.568,0.069-1.182,0.198-1.622
		c0.113,0.012,0.232,0.027,0.355,0.047c0.251,0.039,0.521,0.092,0.797,0.146c-0.124,0.392-0.19,0.808-0.19,1.24
		c0,2.272,1.841,4.113,4.112,4.113c2.272,0,4.114-1.841,4.114-4.113c0-2.271-1.842-4.113-4.114-4.113
		c-1.066,0-2.037,0.41-2.768,1.078c-0.245-0.267-0.51-0.516-0.813-0.751c-0.346-0.261-0.726-0.508-1.259-0.697
		c-0.27-0.094-0.592-0.168-1.02-0.164c-0.416-0.004-1.03,0.156-1.491,0.566C8.39,6.247,8.183,6.736,8.09,7.095
		c-0.093,0.37-0.098,0.67-0.078,0.938c0.048,0.53,0.194,0.944,0.333,1.339c0.14,0.392,0.286,0.755,0.396,1.119
		c0.438,1.439,0.936,2.789,1.126,4.158c0.084,0.675,0.094,1.368-0.205,1.944C9.371,17.178,8.672,17.523,7.944,17.622z M11.23,8.208
		c0.041-0.099,0.083-0.165,0.094-0.146c0.008,0.008-0.017,0.106-0.123,0.226C11.211,8.262,11.22,8.232,11.23,8.208z M10.69,8.481
		c0.072-0.009,0.167-0.008,0.272-0.003c-0.153,0.078-0.303,0.091-0.342,0.069C10.557,8.523,10.603,8.495,10.69,8.481z"/>
	<circle fill="#0E0F0F" cx="38.372" cy="8.396" r="0.976"/>
	<circle fill="#0E0F0F" cx="42.002" cy="10.132" r="1.264"/>
	<circle fill="#0E0F0F" cx="44.688" cy="9.431" r="0.814"/>
	<circle fill="#0E0F0F" cx="43.986" cy="7.617" r="0.813"/>
	<circle fill="#0E0F0F" cx="41.262" cy="6.893" r="1.334"/>
</g>
</svg>
