<?xml version="1.0" encoding="utf-8"?>
<!-- Generator: Adobe Illustrator 16.0.4, SVG Export Plug-In . SVG Version: 6.00 Build 0)  -->
<!DOCTYPE svg PUBLIC "-//W3C//DTD SVG 1.1//EN" "http://www.w3.org/Graphics/SVG/1.1/DTD/svg11.dtd">
<svg version="1.1" id="Capa_1" xmlns="http://www.w3.org/2000/svg" xmlns:xlink="http://www.w3.org/1999/xlink" x="0px" y="0px"
	 width="64px" height="64px" viewBox="0 0 64 64" enable-background="new 0 0 64 64" xml:space="preserve">
<g>
	<circle fill="#0E0F0F" cx="21.812" cy="7.533" r="6.184"/>
	<circle fill="#0E0F0F" cx="54.275" cy="29.469" r="5.666"/>
	<path fill="#0E0F0F" d="M54.525,40.773c-0.014-0.157-0.041-0.301-0.074-0.441c-0.128-0.757-0.443-1.497-0.982-2.164
		c0,0-2.266,1.271-2.687,0.934c-0.421-0.336,0.259-2.58,0.259-2.58c-1.562-0.5-3.912,0.312-4.633,0.699
		c-0.719,0.387-10.912-1.879-15.667-4.416c-0.427-0.228-0.856-0.347-1.273-0.375c-0.16-0.736-0.566-1.441-1.289-1.994
		c-2.891-2.212-5.386-4.774-7.553-7.612c1.449-2.262,1.59-5.078-0.516-7.158c-1.974-1.948-5.94-2.32-7.825,0.042
		c-6.263,7.846-9.365,14-7.846,24c1.031-0.703,1.611-0.222,1.918,0.786c0,6.076,0,12.154,0,18.23c0,4.196,6.509,4.196,6.509,0
		c0-6.033,0-12.065,0-18.102c0.433-4.189,1.356-9.353,3.313-13.008c2.538,3.121,5.428,5.925,8.712,8.438
		c0.45,0.342,0.896,0.532,1.328,0.606c0.222,0.384,0.563,0.737,1.083,1.014c4.75,2.536,9.681,4.194,14.919,5.013
		c-1.544,2.26-2.955,4.602-4.277,7.002c-0.693-1.271-1.402-2.541-2.174-3.771c-1.396-2.239-3.878-5.13-6.797-3.38
		c-4.055,2.438-6.917,7.812-9.437,11.691c-0.337,0.521-0.485,1.027-0.492,1.514c-0.545,0.002-1.068,0.004-1.552,0.009
		c-3.846,0.021-3.81,5.983,0.037,5.962c5.765-0.035,16.302-0.066,22.066-0.104c0.223-0.002,0.43-0.024,0.623-0.062
		c1.663,0.152,3.342-0.572,4.322-2.592c1.629-3.344,3.389-6.641,5.428-9.751c0.934,3.524,2.266,6.922,4.03,10.229
		c1.812,3.396,6.653-0.097,4.872-3.438C56.332,51.24,54.998,46.121,54.525,40.773z M25.684,55.71
		c1.541-2.336,3.159-4.655,5.011-6.745c0.365,0.588,0.688,1.213,1.01,1.771c0.943,1.623,1.816,3.287,2.721,4.936
		C31.67,55.686,28.606,55.697,25.684,55.71z M47.9,44.404l-1.832,0.801l-0.205-1.497l4.074-3.677L47.9,44.404z"/>
</g>
</svg>
