<?xml version="1.0" encoding="utf-8"?>
<!-- Generator: Adobe Illustrator 16.0.4, SVG Export Plug-In . SVG Version: 6.00 Build 0)  -->
<!DOCTYPE svg PUBLIC "-//W3C//DTD SVG 1.1//EN" "http://www.w3.org/Graphics/SVG/1.1/DTD/svg11.dtd">
<svg version="1.1" id="Capa_1" xmlns="http://www.w3.org/2000/svg" xmlns:xlink="http://www.w3.org/1999/xlink" x="0px" y="0px"
	 width="64px" height="64px" viewBox="0 0 64 64" enable-background="new 0 0 64 64" xml:space="preserve">
<g>
	<path fill="#0E0F0F" d="M49.007,15.341c-1.524,1.489-3.28,2.716-5.137,3.759c-1.918-0.617-3.744-1.589-5.015-3.175
		c-0.295-0.369-0.627-0.583-0.965-0.699l-0.002-0.056c-2.392-0.49-3.318-0.091-3.318-0.091l-2.628,5.409l0.572-4.827h0.096v-0.799
		h-1.987v0.799h0.102l0.675,4.829l-2.63-5.628c-0.245,0.068,0.059,0.01-0.173,0.1c0,0-0.935-1.085-4.456,0.683
		c-0.029,0.033-0.049,0.072-0.076,0.107c-1.874,1.088-3.746,2.178-5.619,3.267c-1.744-1.006-3.389-2.181-4.831-3.589
		c-2.158-2.105-5.466,1.197-3.306,3.307c1.767,1.723,6.662,6.549,9.49,4.904c1.521-0.885,3.044-1.771,4.566-2.655
		C24.499,21.32,24.6,21.53,24.6,21.53l-0.014,5.268l-5.92,18.261h5.884v14.486c0,1.561,1.142,2.824,2.745,2.824
		s2.902-1.266,2.902-2.824V45.061h2.419c0.313,6.018,1.553,11.211,6.245,15.729c2.432,2.343,6.142-1.356,3.703-3.705
		c-3.655-3.522-4.492-7.437-4.719-12.024h6.156l-5.777-18.294c0.002-2.142,0.004-4.016,0.006-5.06l-0.004-0.103
		c1.621,1.056,3.49,1.794,5.301,2.271c1.289,0.34,2.533-0.621,3.576-1.243c1.875-1.123,3.645-2.458,5.207-3.983
		C54.473,16.538,51.164,13.234,49.007,15.341z M31.591,31.846c-0.487,0-0.884-0.396-0.884-0.886c0-0.488,0.397-0.885,0.884-0.885
		c0.489,0,0.885,0.396,0.885,0.885C32.476,31.449,32.08,31.846,31.591,31.846z M31.591,29.062c-0.487,0-0.884-0.396-0.884-0.885
		c0-0.489,0.397-0.885,0.884-0.885c0.489,0,0.885,0.396,0.885,0.885C32.476,28.666,32.08,29.062,31.591,29.062z M31.656,26.278
		c-0.489,0-0.885-0.397-0.885-0.886c0-0.489,0.396-0.885,0.885-0.885c0.489,0,0.885,0.396,0.885,0.885
		C32.541,25.881,32.145,26.278,31.656,26.278z"/>
	<path fill="#0E0F0F" d="M28.548,13.202c-0.78-2.049-1.208-4.716,0.681-6.538h2.351l0.91-1.114l0.574,1.238H34.3
		c0,0,2.097,2.737,0.158,6.182c1.513-1.139,2.507-3.08,2.507-5.285c0-3.507-2.521-6.351-5.629-6.351
		c-3.11,0-5.631,2.844-5.631,6.351C25.706,10.049,26.851,12.108,28.548,13.202z"/>
</g>
</svg>
