<?xml version="1.0" encoding="utf-8"?>
<!-- Generator: Adobe Illustrator 16.0.4, SVG Export Plug-In . SVG Version: 6.00 Build 0)  -->
<!DOCTYPE svg PUBLIC "-//W3C//DTD SVG 1.1//EN" "http://www.w3.org/Graphics/SVG/1.1/DTD/svg11.dtd">
<svg version="1.1" id="Capa_1" xmlns="http://www.w3.org/2000/svg" xmlns:xlink="http://www.w3.org/1999/xlink" x="0px" y="0px"
	 width="64px" height="64px" viewBox="0 0 64 64" enable-background="new 0 0 64 64" xml:space="preserve">
<g>
	<path fill="#0E0F0F" d="M27.916,35.396c0.528-4.108,0.553-8.179,0.122-12.25c1.2-0.563,2.363-1.201,3.453-1.968
		c1.776-1.249,3.44-2.263,3.444-4.627c0.006-4.113-4.889-5.451-7.96-6.95c-0.359-0.174-0.734-0.29-1.11-0.347L21.75,3.658
		l-4.13,3.035l5.268,7.169c0.042,0.057,0.102,0.136,0.2,0.271c0.518,0.703,1.457,0.952,1.457,0.952
		c1.034,0.469,2.102,0.895,3.104,1.426c-0.374,0.239-0.758,0.463-1.146,0.678c-2.55-2.769-8.596-0.402-7.76,4.4
		c0.791,4.533,0.715,9.086,0.128,13.64c-0.073,0.57,0.011,1.123,0.204,1.637c-0.003,0.062-0.009,0.129-0.009,0.193
		c0,7.537,0,15.074,0,22.613c0,3.889,6.03,3.889,6.03,0c0-3.215,0-6.428,0-9.641c0.519,2.479,0.629,5.07,0.301,7.83
		c-0.457,3.855,5.578,3.812,6.03,0c0.835-7.037-0.98-13.611-4.769-19.498C27.339,37.572,27.769,36.529,27.916,35.396z"/>
	<path fill="#0E0F0F" d="M22.895,13.872l-0.007-0.01C22.708,13.622,22.942,13.945,22.895,13.872z"/>
	<path fill="#0E0F0F" d="M16.766,6.515l5.102-3.749l4.328,5.889c0.354,0.075,0.701,0.194,1.03,0.355
		c0.043,0.021,0.09,0.042,0.135,0.063c0.297-0.989,0.346-2.066,0.079-3.14c-0.792-3.192-4.022-5.138-7.214-4.345
		c-3.19,0.792-5.136,4.022-4.345,7.213c0.682,2.747,3.169,4.564,5.883,4.516L16.766,6.515z"/>
	<path fill="#0E0F0F" d="M49.119,47.758c0.002-0.373-0.301-0.676-0.672-0.678l-3.775-0.012l0.006-2.004l-7.357-0.023l-0.008,2.006
		l-3.771-0.012c-0.371-0.002-0.678,0.301-0.678,0.672l0.062,9.594c-0.001,0.373,0.303,0.676,0.674,0.678l14.844,0.047
		c0.375,0,0.679-0.301,0.681-0.674L49.119,47.758z M43.982,47.066l-5.98-0.02l0.006-1.314l5.979,0.018L43.982,47.066z"/>
</g>
</svg>
