<?xml version="1.0" encoding="utf-8"?>
<!-- Generator: Adobe Illustrator 16.0.4, SVG Export Plug-In . SVG Version: 6.00 Build 0)  -->
<!DOCTYPE svg PUBLIC "-//W3C//DTD SVG 1.1//EN" "http://www.w3.org/Graphics/SVG/1.1/DTD/svg11.dtd">
<svg version="1.1" id="Capa_1" xmlns="http://www.w3.org/2000/svg" xmlns:xlink="http://www.w3.org/1999/xlink" x="0px" y="0px"
	 width="64px" height="64px" viewBox="0 0 64 64" enable-background="new 0 0 64 64" xml:space="preserve">
<g>
	<path fill="#0E0F0F" d="M28.054,12.051l11.374-2.44l-0.141-0.665l0.996-0.765c0.189,0.121,0.354,0.267,0.462,0.447
		c0.166,0.277,0.176,0.596,0.024,0.974c-0.258,0.652-0.229,1.086,0.084,1.29c0.172,0.109,0.4,0.124,0.662,0.068
		c0.441-0.095,0.973-0.393,1.45-0.775l0.027,0.046l1.521-0.837l-0.238-0.437l-1.004,0.551l-0.047-0.047
		c-0.058,0.058-0.115,0.114-0.172,0.167l-0.302,0.167l0.036,0.065c-0.729,0.596-1.484,0.886-1.734,0.724
		c-0.141-0.089-0.117-0.407,0.057-0.847c0.19-0.484,0.173-0.92-0.051-1.296c-0.117-0.196-0.285-0.357-0.474-0.492l0.239-0.184
		l-8.516-2.319l-6.056,5.444l1.624,0.344L28.054,12.051z"/>
	<path fill="#0E0F0F" d="M35.159,17.699c3.239-0.695,5.303-3.884,4.606-7.122l-11.729,2.515
		C28.732,16.331,31.919,18.395,35.159,17.699z"/>
	<path fill="#0E0F0F" d="M52.497,12.213c-1.632-0.393-3.276,0.611-3.67,2.246c-0.664,2.755-1.771,4.583-3.294,5.432
		c-1.586,0.886-3.857,0.854-6.748-0.094c-0.284-0.094-0.57-0.128-0.854-0.137c-1.63-0.807-3.826-0.636-5.375,0.509
		c-0.25-0.252-0.541-0.472-0.883-0.629c-5.408-2.496-9.419-6.627-11.921-12.279C19.403,6.469,18.755,5.907,18,5.635l2.966-1.497
		l-1.092-2.163l-10.701,5.4l1.092,2.164l3.806-1.921c-0.203,0.672-0.188,1.414,0.119,2.106c3.118,7.046,8.143,12.208,14.935,15.342
		c0.266,0.123,0.539,0.199,0.813,0.242L16.706,48.191l8.656-0.748c-0.468,1.66-0.936,3.34-1.375,5.027
		c-0.053,0.211-0.121,0.424-0.185,0.639c-0.398,1.308-1.611,5.287,2.351,7.145c1.056,0.495,4.035,1.771,6.669,1.771
		c0.871,0,1.705-0.141,2.416-0.494c1.088-0.54,1.854-1.518,2.104-2.684c0.352-1.645-0.695-3.261-2.339-3.613
		c-0.969-0.207-1.931,0.072-2.626,0.674c-0.697-0.106-1.793-0.413-2.817-0.812c0.022-0.074,0.044-0.147,0.064-0.213
		c0.09-0.296,0.18-0.592,0.254-0.882c0.571-2.192,1.202-4.423,1.812-6.579c0.008-0.029,0.017-0.061,0.025-0.09l0.621,0.035
		c0.255,1.122,0.464,2.189,0.534,3.168c0.093,1.289,0.989,2.379,2.233,2.72c1.026,0.279,2.188,0.792,3.414,1.336
		c2.076,0.919,4.225,1.869,6.518,2.077c0.095,0.009,0.188,0.014,0.277,0.014c1.558,0,2.883-1.188,3.028-2.769
		c0.15-1.673-1.082-3.153-2.755-3.306c-1.297-0.117-2.979-0.861-4.605-1.582c-0.752-0.334-1.518-0.672-2.297-0.977
		c-0.019-0.105-0.043-0.21-0.062-0.314l5.473,0.317l-1.855-21.46c0.183,0.006,0.369,0.025,0.547,0.025
		c2.119,0,4.029-0.471,5.716-1.413c3.067-1.71,5.168-4.846,6.245-9.321C55.139,14.25,54.13,12.607,52.497,12.213z"/>
</g>
</svg>
