<?xml version="1.0" encoding="utf-8"?>
<!-- Generator: Adobe Illustrator 16.0.4, SVG Export Plug-In . SVG Version: 6.00 Build 0)  -->
<!DOCTYPE svg PUBLIC "-//W3C//DTD SVG 1.1//EN" "http://www.w3.org/Graphics/SVG/1.1/DTD/svg11.dtd">
<svg version="1.1" id="Capa_1" xmlns="http://www.w3.org/2000/svg" xmlns:xlink="http://www.w3.org/1999/xlink" x="0px" y="0px"
	 width="64px" height="64px" viewBox="0 0 64 64" enable-background="new 0 0 64 64" xml:space="preserve">
<g>
	<path fill="#0E0F0F" d="M37.882,12.218c-1.702-0.011-2.96,0.876-3.677,2.167c-0.057,0.048-0.113,0.083-0.17,0.138
		c-2.154,2.125-4.479,3.915-7.124,5.291c-0.08-0.706-0.161-1.411-0.24-2.117c-0.259-2.329-1.723-4.316-4.271-4.333
		c-2.134-0.014-4.592,1.938-4.333,4.271c0.497,4.455,1.009,8.911,1.683,13.343l-7.701,15.07l9.604,0.158c0,4.344,0,8.687,0,13.028
		c0,3.695,5.733,3.695,5.733,0c0-4.312,0-8.621,0-12.934l1.769,0.03L29.114,31.85c0.833,0.25,1.704,0.41,2.607,0.475
		c0.209,0.995,0.754,1.821,1.472,2.435c-0.047,0.213-0.075,0.436-0.075,0.68c0,7.834,0,15.672,0,23.509c0,3.694,5.733,3.694,5.733,0
		c0-7.837,0-15.675,0-23.509c0-0.116-0.021-0.221-0.033-0.33c0.572-0.51,0.998-1.252,1.173-2.262
		c0.929-5.405,1.554-10.85,2.161-16.298C42.411,14.218,40.042,12.234,37.882,12.218z M32.142,27.742
		c-1.688-0.122-3.192-0.675-4.472-1.735c-0.062-0.458-0.128-0.915-0.186-1.374c1.955-0.869,3.784-1.945,5.495-3.192
		C32.729,23.545,32.457,25.646,32.142,27.742z"/>
	<circle fill="#0E0F0F" cx="22.944" cy="7.959" r="4.819"/>
	<circle fill="#0E0F0F" cx="35.1" cy="6.315" r="4.818"/>
	<path fill="#0E0F0F" d="M54.475,6.186c0.006,0,0.016,0,0.021,0.001c-0.164-1.492-1.383-2.296-2.534-2.296
		c-0.11,0-0.219,0.007-0.325,0.021c-0.719,0.082-1.378,0.456-1.892,1.074c-0.586-0.705-1.358-1.094-2.193-1.094c0,0-0.013,0-0.017,0
		h-0.008c-1.149,0-2.369,0.804-2.533,2.295c0.008,0,0.014,0,0.021-0.001c-0.015,0.118-0.021,0.238-0.021,0.365
		c0,1.776,1.574,3.017,2.727,3.921c0.206,0.164,0.385,0.304,0.547,0.428c0,0.001-0.002,0.004-0.002,0.004l0.012,0.01
		c0.719,0.542,0.982,0.744,1.277,1.037c0.047,0.048,0.112,0.074,0.18,0.074c0.006,0,0.012-0.001,0.017-0.003
		c0.003,0.002,0.005,0.002,0.005,0.002c0.069,0,0.137-0.027,0.184-0.075c0.211-0.21,0.41-0.375,0.771-0.652
		c0.019-0.013,0.03-0.024,0.047-0.037c0.078-0.059,0.162-0.123,0.247-0.189c0.068-0.049,0.135-0.101,0.211-0.158l0.014-0.011v-0.001
		c0.158-0.124,0.34-0.262,0.547-0.426c1.147-0.905,2.726-2.146,2.726-3.922C54.498,6.424,54.488,6.304,54.475,6.186z"/>
	<path fill="#0E0F0F" d="M12.164,19.34c0.039-0.031,0.081-0.063,0.125-0.096c0.034-0.026,0.069-0.051,0.108-0.081l0.004-0.005
		v-0.001c0.082-0.062,0.174-0.133,0.277-0.215c0.584-0.458,1.382-1.086,1.382-1.987c0-0.065-0.004-0.125-0.012-0.187
		c0,0,0.008,0,0.012,0.002c-0.083-0.756-0.7-1.164-1.285-1.164c-0.054,0-0.109,0.004-0.164,0.012
		c-0.363,0.042-0.698,0.23-0.958,0.542c-0.296-0.356-0.688-0.554-1.111-0.554l-0.009,0.001c-0.585,0-1.203,0.407-1.285,1.163h0.011
		c-0.007,0.06-0.011,0.12-0.011,0.184c0,0.901,0.797,1.529,1.38,1.987c0.105,0.083,0.195,0.153,0.277,0.217l-0.001,0.001
		l0.006,0.005c0.363,0.275,0.498,0.378,0.647,0.526c0.024,0.025,0.058,0.038,0.091,0.038l0.008-0.001h0.003
		c0.034,0,0.067-0.014,0.091-0.037c0.107-0.107,0.208-0.19,0.39-0.332C12.148,19.351,12.155,19.346,12.164,19.34z"/>
</g>
</svg>
