<?xml version="1.0" encoding="utf-8"?>
<!-- Generator: Adobe Illustrator 17.0.0, SVG Export Plug-In . SVG Version: 6.00 Build 0)  -->
<!DOCTYPE svg PUBLIC "-//W3C//DTD SVG 1.1//EN" "http://www.w3.org/Graphics/SVG/1.1/DTD/svg11.dtd">
<svg version="1.1" id="Capa_1" xmlns="http://www.w3.org/2000/svg" xmlns:xlink="http://www.w3.org/1999/xlink" x="0px" y="0px"
	 width="64px" height="64px" viewBox="0 0 64 64" enable-background="new 0 0 64 64" xml:space="preserve">
<path fill="#010101" d="M52.957,21.816l-0.381,0.158c-0.61,0.252-1.267,0.29-1.899,0.11c-0.623-0.176-1.153-0.547-1.539-1.071
	l-0.066-0.092l-0.107,0.042c-0.113,0.045-0.231,0.085-0.352,0.116l-0.097,0.025l-0.012,0.097c-0.021,0.152-0.048,0.277-0.081,0.394
	c-0.282,0.994-1.083,1.767-2.09,2.018c0,0,0.012,0.049,0.021,0.082c-4.374,0.953-10.729,2.351-12.431,2.086
	c-1.817-0.283-10.079-8.565-13.247-11.146c-1.921-1.564-4.682,1.161-2.742,2.741c2.607,2.123,5.212,4.246,7.818,6.369
	c-0.066,0.085-0.104,0.138-0.104,0.138l-11.115,8.775l-11.12,8.879c-0.868,0.761-1.016,2.013-0.234,2.906
	c0.781,0.892,2.119,0.999,2.987,0.239l12.046-8.784c0,0,0.603-0.436,1.107,0.127c0.504,0.563-0.053,1.023-0.053,1.023L7.223,45.831
	c-0.868,0.76-0.938,2.099-0.156,2.992c0.781,0.892,2.119,0.999,2.986,0.239c0,0,19.931-15.023,23.28-18.157
	c1.325-0.28,10.07-2.61,14.918-3.66c2.409-0.521,1.43-4.158-0.936-3.749c0.663-0.414,1.173-1.05,1.391-1.819
	c0.029-0.105,0.053-0.214,0.074-0.338c0.064-0.02,0.127-0.04,0.19-0.062c0.416,0.529,0.977,0.905,1.626,1.09
	c0.581,0.165,1.182,0.163,1.755-0.003c-0.368,0.906-0.292,1.904,0.172,2.74c-0.968,0.539-1.604,1.578-1.635,2.689
	c-0.776-0.208-1.594-0.117-2.309,0.258l0.135,0.26c0.664-0.348,1.424-0.427,2.141-0.223c0.027,0.008,0.056,0.017,0.083,0.028
	l0.251,0.085l-0.007-0.212c-0.04-1.124,0.605-2.198,1.61-2.697l0.144-0.071l-0.084-0.137c-0.54-0.87-0.597-1.964-0.09-2.905
	L52.957,21.816z M27.96,32.205l-0.911,0.91l-0.622-0.623L25.19,33.73l-1.149-1.15l1.237-1.237l-2.299-2.299l0.79-0.789l5.124-1.198
	l1.484,1.485l-3.04,3.041L27.96,32.205z M61.601,19.143c0,2.387-1.935,4.322-4.322,4.322s-4.322-1.935-4.322-4.322
	s1.935-4.322,4.322-4.322S61.601,16.756,61.601,19.143z M31.104,20.201c0-2.017,1.635-3.653,3.653-3.653
	c2.017,0,3.653,1.636,3.653,3.653c0,2.018-1.635,3.653-3.653,3.653C32.74,23.854,31.104,22.219,31.104,20.201z M28.309,28.327
	l0.032,0.032c-0.36,0.311-0.694,0.614-1.006,0.926l-1.148,1.149l-1.165-1.166l0.016-0.016l1.827-0.438
	C27.369,28.662,27.808,28.495,28.309,28.327z"/>
</svg>
