<?xml version="1.0" encoding="utf-8"?>
<!-- Generator: Adobe Illustrator 16.0.4, SVG Export Plug-In . SVG Version: 6.00 Build 0)  -->
<!DOCTYPE svg PUBLIC "-//W3C//DTD SVG 1.1//EN" "http://www.w3.org/Graphics/SVG/1.1/DTD/svg11.dtd">
<svg version="1.1" id="Capa_1" xmlns="http://www.w3.org/2000/svg" xmlns:xlink="http://www.w3.org/1999/xlink" x="0px" y="0px"
	 width="64px" height="64px" viewBox="0 0 64 64" enable-background="new 0 0 64 64" xml:space="preserve">
<path fill="#0E0F0F" d="M45.973,23.958l-0.117-0.357c-0.172-0.515-3.438-10.151-8.979-15.726c-0.542-1.293-1.562-2.336-2.841-2.911
	c0.004-0.054,0.017-0.105,0.017-0.16c0-1.346-1.09-2.435-2.434-2.435c-1.345,0-2.434,1.089-2.434,2.435
	c0,0.106,0.018,0.207,0.03,0.31c-1.211,0.639-2.154,1.714-2.624,3.017c-2.666,2.964-6.184,7.908-8.972,15.463l-0.133,0.364h4.195
	c-1.101,3.116-1.408,6.519-1.429,9.962c-0.017,2.791,4.311,2.79,4.328,0c0.019-3.214,0.011-6.057,1.218-8.858
	c0.474,0.79,1.868,3.783-0.342,8.967c-4.541,10.654-3.559,20.367-3.549,20.464c0.029,0.274,0.261,0.483,0.538,0.483h3.466v5.209
	c0,1.555,0.97,2.813,2.333,2.813c1.363,0,2.468-1.261,2.468-2.813v-5.209h1.792v5.154c0,1.555,1.104,2.812,2.467,2.812
	c1.362,0,2.469-1.26,2.469-2.812l0.041-5.154h3.174c0.269,0,0.496-0.194,0.535-0.459c0.062-0.396,1.465-9.82-3.082-20.488
	c-1.784-4.188-1.232-6.925-0.696-8.252c0.868,2.339,1.771,5.288,1.784,8.144c0.02,2.79,4.347,2.791,4.328,0
	c-0.021-3.444-0.328-6.846-1.428-9.962L45.973,23.958z M26.801,9.96c0.751-0.234,2.089-0.78,3.23-1.922
	c3.01,2.402,5.861,2.241,6.725,2.123c-0.087,2.671-2.281,4.819-4.974,4.819c-2.747,0-4.983-2.234-4.983-4.981
	C26.799,9.985,26.801,9.973,26.801,9.96z M37.113,34.452c3.867,9.071,3.281,17.429,3.063,19.44h-17.23
	c-0.128-2.06-0.35-10.395,3.506-19.44c2.218-5.205,1.073-8.464,0.41-9.711c0.565-0.232,1.573-0.577,2.897-0.785h4.428
	c1.199,0.2,2.057,0.525,2.535,0.75C36.062,25.928,34.874,29.199,37.113,34.452z M28.686,18.456c-0.487,0-0.88-0.393-0.88-0.879
	c0-0.485,0.394-0.879,0.88-0.879s0.878,0.394,0.878,0.879C29.564,18.062,29.172,18.456,28.686,18.456z M30.443,20.444
	c0,0.485-0.394,0.879-0.879,0.879c-0.486,0-0.878-0.394-0.878-0.879c0-0.486,0.392-0.878,0.878-0.878S30.443,19.958,30.443,20.444z
	 M30.943,22.256c0-0.485,0.394-0.878,0.879-0.878c0.061,0,0.121,0.007,0.179,0.019c0.465,0.023,0.834,0.405,0.834,0.875
	c0,0.162-0.046,0.312-0.122,0.441c-0.229-0.01-0.466-0.017-0.711-0.017c-0.313,0-0.611,0.012-0.905,0.028
	C31.008,22.588,30.943,22.434,30.943,22.256z M35.094,20.458c0,0.485-0.394,0.879-0.88,0.879c-0.483,0-0.878-0.394-0.878-0.879
	s0.395-0.879,0.878-0.879C34.7,19.579,35.094,19.973,35.094,20.458z M34.214,17.591c0-0.485,0.396-0.879,0.88-0.879
	c0.485,0,0.879,0.394,0.879,0.879c0,0.485-0.394,0.879-0.879,0.879C34.609,18.47,34.214,18.076,34.214,17.591z M38.562,18.056
	c-0.731-0.785-4.918-2.302-6.598-2.302c-1.709,0-5.984,1.481-6.752,2.302c-1.522,1.628-2.591,3.435-3.338,5.36h-3.612
	c2.495-6.629,5.541-11.178,8.013-14.105c-0.039,0.263-0.066,0.53-0.066,0.805c0,0,0.021-0.004,0.052-0.011
	c0.057,2.997,2.509,5.417,5.519,5.417c3.044,0,5.521-2.478,5.521-5.523c0-0.324-0.032-0.639-0.087-0.947
	c4.484,5.019,7.381,12.636,7.999,14.364H41.9C41.154,21.491,40.086,19.684,38.562,18.056z"/>
</svg>
