<?xml version="1.0" encoding="utf-8"?>
<!-- Generator: Adobe Illustrator 16.0.4, SVG Export Plug-In . SVG Version: 6.00 Build 0)  -->
<!DOCTYPE svg PUBLIC "-//W3C//DTD SVG 1.1//EN" "http://www.w3.org/Graphics/SVG/1.1/DTD/svg11.dtd">
<svg version="1.1" id="Capa_1" xmlns="http://www.w3.org/2000/svg" xmlns:xlink="http://www.w3.org/1999/xlink" x="0px" y="0px"
	 width="64px" height="64px" viewBox="0 0 64 64" enable-background="new 0 0 64 64" xml:space="preserve">
<g>
	<path fill="#0E0F0F" d="M28.256,14.774c-0.355-0.473-0.691-1.034-0.919-1.666c0.858,0.807,2.283,1.344,3.614,1.344
		c1.209,0,2.541-0.421,3.395-1.05c-0.089,0.406-0.22,0.815-0.419,1.218c2.06-1.186,3.468-3.561,3.468-6.301
		c0-3.923-2.887-7.104-6.445-7.104c-3.558,0-6.442,3.181-6.442,7.104C24.507,11.184,26.044,13.649,28.256,14.774z M28.581,8.702
		c0.577-0.057,2.592-0.36,3.816-1.841l0.996,2.411c0.012,0.017,1.104,1.709,0.75,3.504c-0.713,0.62-2.036,1.063-3.19,1.063
		c-1.205,0-2.496-0.487-3.234-1.217C27.279,11.46,27.577,10.108,28.581,8.702z"/>
	<path fill="#0E0F0F" d="M48.033,25.357c-2.131,0.1-4.572,0.662-6.521-0.395c-1.779-0.963-3.199-3.262-3.835-5.073
		c-0.104-0.3-0.257-0.545-0.429-0.761c-0.541-1.071-1.428-1.986-2.605-2.568c-3.69-1.225-7.249,0.118-7.249,0.118
		c-1.385,0.692-2.466,1.743-2.851,2.988c-0.15,0.202-0.285,0.425-0.378,0.694c-0.687,1.956-2.081,3.886-3.833,5.072
		c-1.692,1.145-4.307,0.485-6.209,0.395c-3.243-0.154-3.229,4.762,0,4.916c3.268,0.156,6.342,0.562,9.189-1.365
		c0.314-0.212,0.617-0.443,0.912-0.684c-0.057,2.87-0.113,5.74-0.17,8.611c-0.002,0.106,0.005,0.215,0.009,0.321l-0.031,1.617
		l-0.383,8.916L22.824,59.32c-0.005,0.277,0.062,0.543,0.18,0.789L23,60.146c-0.024,1.188,1.172,2.168,2.673,2.188
		c1.499,0.02,2.735-0.93,2.76-2.119l1.602-14.671l0.278-2.178l0.663,0.009l0.773,8.704l0.528,7.555
		c-0.006,0.326,0.087,0.636,0.247,0.915c0.258,0.961,1.319,1.688,2.61,1.705c1.501,0.02,2.734-0.932,2.759-2.12L37.507,48.96
		l-0.03-8.92l0.028-1.462c0.003-0.053,0.015-0.102,0.017-0.153c0.065-3.377,0.131-6.751,0.197-10.125
		c0.264,0.212,0.531,0.42,0.811,0.61c2.91,1.967,6.169,1.521,9.505,1.365C51.262,30.121,51.275,25.204,48.033,25.357z"/>
	<path fill="#0E0F0F" d="M11.169,19.551c0,2.843,2.302,5.149,5.144,5.149c2.839,0,5.143-2.306,5.143-5.149
		c0-2.157-1.325-4-3.201-4.767l0.322-0.364l1.336-1.951c0,0,0.515-1.657-1.542,0.169c-2.057,1.826-5.594-1.547-5.733-1.102
		c-0.139,0.445,2.03,2.884,2.03,2.884l0.225,0.185C12.743,15.223,11.169,17.2,11.169,19.551z M16.355,19.521
		c-0.922-0.255-1.552-0.611-1.552-1.301c0-0.625,0.536-1.114,1.458-1.264v-0.675h0.844v0.625c0.579,0.021,0.965,0.122,1.25,0.234
		l-0.25,0.804c-0.224-0.078-0.62-0.242-1.24-0.242c-0.56,0-0.742,0.199-0.742,0.398c0,0.234,0.302,0.384,1.034,0.612
		c1.027,0.298,1.44,0.689,1.44,1.329c0,0.633-0.542,1.173-1.534,1.315v0.725h-0.846v-0.675c-0.577-0.021-1.138-0.149-1.465-0.305
		l0.258-0.833c0.362,0.164,0.871,0.313,1.431,0.313c0.492,0,0.829-0.156,0.829-0.44C17.27,19.87,16.994,19.7,16.355,19.521z"/>
	<path fill="#0E0F0F" d="M50.462,17.38c-0.179-1.6-1.517-2.46-2.78-2.46c-0.119,0-0.236,0.008-0.354,0.021
		c-0.787,0.088-1.511,0.489-2.072,1.151c-0.642-0.756-1.489-1.171-2.405-1.171c-0.007,0-0.013,0.001-0.02,0.001l-0.006-0.001
		c-1.264,0-2.602,0.86-2.781,2.461c0.009-0.001,0.018-0.001,0.023-0.002c-0.015,0.126-0.023,0.255-0.023,0.391
		c-0.003,1.906,1.725,3.236,2.986,4.206c0.228,0.175,0.424,0.326,0.602,0.458c-0.001,0.001-0.003,0.003-0.003,0.003l0.015,0.011
		c0.784,0.581,1.076,0.798,1.398,1.111c0.055,0.051,0.124,0.079,0.199,0.079c0.005,0,0.01-0.002,0.016-0.002
		c0.002,0,0.006,0,0.006,0c0.075,0,0.146-0.028,0.198-0.08c0.231-0.226,0.451-0.402,0.847-0.699c0.018-0.013,0.034-0.026,0.053-0.04
		c0.084-0.062,0.176-0.131,0.271-0.203c0.071-0.053,0.146-0.108,0.229-0.17l0.017-0.009c0-0.001-0.002-0.001-0.002-0.001
		c0.176-0.134,0.373-0.284,0.601-0.457c1.26-0.971,2.987-2.301,2.987-4.205c0-0.137-0.009-0.268-0.024-0.395
		C50.447,17.379,50.455,17.38,50.462,17.38z"/>
</g>
</svg>
