<?xml version="1.0" encoding="utf-8"?>
<!-- Generator: Adobe Illustrator 16.0.4, SVG Export Plug-In . SVG Version: 6.00 Build 0)  -->
<!DOCTYPE svg PUBLIC "-//W3C//DTD SVG 1.1//EN" "http://www.w3.org/Graphics/SVG/1.1/DTD/svg11.dtd">
<svg version="1.1" id="Capa_1" xmlns="http://www.w3.org/2000/svg" xmlns:xlink="http://www.w3.org/1999/xlink" x="0px" y="0px"
	 width="64px" height="64px" viewBox="0 0 64 64" enable-background="new 0 0 64 64" xml:space="preserve">
<g>
	<path fill="#0E0F0F" d="M56.448,33.713l-2.441-15.758c-0.302-1.95-2.128-3.594-4.079-3.29c0,0-12.715,0.013-14.734,0.013
		c-2.021,0-2.602,2.136-2.602,2.136l-6.423,15.228c-2.326-1.047-5.818-2.684-7.647-3.84c-6.452-2.3-10.676,0.028-12.099,1.042
		c-0.151,0.089-0.29,0.195-0.415,0.317c-0.074,0.063-0.124,0.107-0.124,0.107l0.012,0.02c-0.278,0.325-0.449,0.727-0.399,1.164
		c0.24,2.102,0.398,6.589,0.421,6.714c-0.151,1.293,1.163,3.006,2.851,2.269c2.4-1.048,4.803-2.088,7.246-3.035
		c2.086-0.808,1.402-4-0.519-3.776l0.547-1.461C15.856,31.825,15.55,32,15.2,32c-0.166,0-0.319-0.043-0.459-0.112
		C14.602,31.957,14.447,32,14.281,32c-0.349,0-0.655-0.175-0.842-0.438l0.719,1.922c-1.518,0.604-3.026,1.232-4.528,1.88
		c-0.011-0.302-0.035-0.603-0.05-0.9c1.083-0.464,2.276-0.968,3.517-1.469l-0.387-1.038l0.183-0.096
		c-0.031-0.037-0.064-0.07-0.091-0.111c-0.215-0.303-0.33-0.659-0.33-1.031c0-0.658,0.35-1.24,0.895-1.553
		c0.212-0.563,0.756-0.966,1.393-0.966c0.661,0,1.223,0.433,1.415,1.029c0.494,0.325,0.8,0.875,0.8,1.489
		c0,0.372-0.114,0.729-0.33,1.032c-0.028,0.04-0.065,0.07-0.096,0.107l0.188,0.099l-0.202,0.541c0.489,0.257,0.891,0.696,1.126,1.31
		c0.512,1.314,0.068,3.057-1.558,3.687c-1.919,0.743-3.812,1.551-5.719,2.378v2.505c0,0.222-0.273,5.983-0.348,8.481
		c-0.078,2.485-0.155,4.974-0.228,6.986c-0.051,1.34,0.995,2.465,2.334,2.516c0.031,0.002,0.062,0.002,0.091,0.002
		c1.299,0,2.168-1.028,2.217-2.338c0.057-1.537,0.262-5.271,0.378-15.071c0,0,0.455,13.471,0.576,14.978
		c0.102,1.269,0.959,2.229,2.21,2.229c0.065,0,0.13-0.002,0.197-0.008c1.336-0.108,2.332-1.279,2.223-2.612
		c-0.16-1.998-0.33-4.519-0.494-6.953c-0.164-2.454-0.387-16.632-0.387-16.632l7.223,3.486c0.339,0.164,0.699,0.24,1.052,0.24
		c0.903,0,1.769-0.506,2.187-1.371c0.18-0.373,0.245-0.771,0.228-1.156l6.185-12.004c0,0-0.324,20.885-0.568,24.499
		c-0.24,3.588-0.488,7.302-0.729,10.24c-0.157,1.969,1.308,3.69,3.273,3.852c0.1,0.009,0.196,0.014,0.292,0.014
		c1.845,0,3.104-1.416,3.257-3.286c0.178-2.217,0.85-22.062,0.85-22.062c0.171,14.436,0.473,19.938,0.556,22.201
		c0.069,1.93,1.354,3.442,3.269,3.442c0.043,0,0.09-0.001,0.135-0.001c1.973-0.074,3.513-1.732,3.438-3.704
		c-0.107-2.969-0.222-6.631-0.336-10.293c-0.111-3.679-0.513-12.171-0.513-12.493v-9.888l1.168,9.14
		c0.272,1.767,1.614,3.027,3.347,3.027c0.184,0,0.367-0.016,0.553-0.042C55.965,37.488,56.75,35.662,56.448,33.713z"/>
	<circle fill="#0E0F0F" cx="43.609" cy="7.97" r="5.774"/>
	<path fill="#0E0F0F" d="M13.246,30.586c0,0.222,0.071,0.425,0.191,0.596c0.187,0.262,0.493,0.438,0.842,0.438
		c0.166,0,0.321-0.044,0.46-0.114c0.14,0.07,0.293,0.114,0.459,0.114c0.35,0,0.656-0.176,0.843-0.438
		c0.119-0.171,0.19-0.374,0.19-0.596c0-0.468-0.311-0.858-0.737-0.985c0.001-0.018,0.009-0.031,0.009-0.048
		c0-0.402-0.326-0.728-0.726-0.728c-0.403,0-0.728,0.326-0.728,0.728c0,0.01,0.004,0.018,0.004,0.027
		C13.593,29.683,13.246,30.093,13.246,30.586z"/>
	<path fill="#0E0F0F" d="M14.005,26.444c2.261,0,4.138-1.775,4.274-4.04l0.012-0.197c0.021-0.015,0.01-0.484,0.01-0.484
		c-0.228-2.162-2.056-3.846-4.279-3.846c-2.137,0-3.904,1.559-4.24,3.6L9.77,21.482l-0.037,0.347
		c-0.013,0.104-0.026,0.209-0.026,0.317C9.707,24.516,11.634,26.444,14.005,26.444z M10.468,22.071
		c0.213,0.008,0.6,0.097,1.268,0.451c0.29,0.154,0.567,0.231,0.827,0.231h0.001c0.855,0,1.267-0.797,1.541-1.326
		c0.055-0.106,0.129-0.249,0.19-0.344c0.059,0.076,0.151,0.215,0.278,0.47c0.638,1.278,1.516,1.547,2.14,1.547
		c0.253,0,0.495-0.043,0.712-0.109c-0.381,1.553-1.778,2.694-3.421,2.694c-1.951,0-3.54-1.587-3.54-3.539
		C10.465,22.121,10.467,22.097,10.468,22.071z"/>
</g>
</svg>
