<?xml version="1.0" encoding="utf-8"?>
<!-- Generator: Adobe Illustrator 16.0.4, SVG Export Plug-In . SVG Version: 6.00 Build 0)  -->
<!DOCTYPE svg PUBLIC "-//W3C//DTD SVG 1.1//EN" "http://www.w3.org/Graphics/SVG/1.1/DTD/svg11.dtd">
<svg version="1.1" id="Capa_1" xmlns="http://www.w3.org/2000/svg" xmlns:xlink="http://www.w3.org/1999/xlink" x="0px" y="0px"
	 width="64px" height="64px" viewBox="0 0 64 64" enable-background="new 0 0 64 64" xml:space="preserve">
<g>
	<path fill="#0E0F0F" d="M21.961,13.976l-0.183,0.639c0.051,0.014,4.829,1.491,5.213,10.246c-0.238-0.133-0.51-0.215-0.803-0.215
		H12.335c-0.02-0.001-0.039-0.006-0.06-0.006c-3.506,0-4.618-0.405-4.936-0.583c0.115-0.476,0.726-1.477,1.036-1.984
		c0.479-0.783,0.232-1.805-0.551-2.284C7.04,19.31,6.018,19.558,5.54,20.34c-0.964,1.578-2.165,3.542-1.164,5.328
		c0.608,1.085,1.832,1.74,3.965,2.058c-0.023,0.162-0.039,0.325-0.039,0.493v7.057h7.087v-7.057c0-0.085-0.007-0.168-0.013-0.251
		h10.811c0.279,0,0.539-0.075,0.77-0.197c-0.584,8.258-5.164,10.218-5.212,10.239l0.247,0.617c0.224-0.09,5.306-2.23,5.668-11.567
		c0.116-0.228,0.188-0.481,0.188-0.753c0.002-0.263-0.064-0.507-0.171-0.727C27.529,15.69,22.191,14.041,21.961,13.976z"/>
	<path fill="#0E0F0F" d="M5.023,17.852c0.024,0.001,0.049,0.001,0.075,0.002c-0.047,0.017-0.089,0.036-0.125,0.056
		c-0.146,0.083-0.177,0.188-0.176,0.26c0.001,0.153,0.132,0.292,0.424,0.45c0.805,0.434,1.221,0.385,1.426,0.268
		c0.049-0.028,0.084-0.058,0.108-0.084l1.64-0.271l0.01-0.036c0.133,0.439,0.73,0.948,1.144,1.673L9.27,20.328
		c-0.387,0.22-0.522,0.712-0.302,1.1c0.22,0.387,0.712,0.522,1.1,0.302l0.108-0.062c0.729,1.282,2.36,1.73,3.642,1.001
		c1.283-0.729,1.73-2.36,1.001-3.643l0.109-0.062c0.386-0.221,0.522-0.713,0.302-1.101c-0.221-0.387-0.713-0.522-1.1-0.303
		l-0.281,0.16c-0.675-1.187-3.777-0.697-4.964-0.021c-0.284,0.162-0.43,0.32-0.483,0.481l-0.08-0.026
		c-0.627-0.857-1.41-1.773-1.765-1.57c-0.089,0.051-0.14,0.152-0.148,0.301c-0.004,0.065-0.019,0.09-0.027,0.095
		c-0.087,0.049-0.433-0.126-0.662-0.242c-0.438-0.221-0.892-0.451-1.208-0.271c-0.135,0.077-0.223,0.219-0.261,0.423
		c-0.077,0.412-0.062,0.629,0.054,0.773C4.445,17.836,4.688,17.843,5.023,17.852z"/>
	<path fill="#0E0F0F" d="M15.391,37.43v-1.354H8.304v2.977c0,0.146,0.01,0.257,0.027,0.347c-0.129,2.969-0.137,6.609-0.137,9.502
		c0,1.01,0.818,1.828,1.828,1.828c1.009,0,1.827-0.818,1.827-1.828c0-2.828,0.008-7.896,0.13-10.768
		c0.663,3.557,1.646,8.854,2.932,11.51c0.316,0.649,0.967,1.029,1.646,1.029c0.267,0,0.539-0.061,0.796-0.186
		c0.908-0.438,1.287-1.531,0.848-2.439C16.673,44.896,15.886,40.445,15.391,37.43z"/>
	<circle fill="#0E0F0F" cx="13.803" cy="15.887" r="0.515"/>
	<circle fill="#0E0F0F" cx="15.38" cy="14.168" r="1.216"/>
	<path fill="#0E0F0F" d="M52.738,30.671l-3.912-0.015c0,0-0.961-0.029-1.447,0.625c-1.879,2.529-3.277,5.544-2.953,8.703
		c0.209,2.05,3.035,2.07,2.822,0c-0.109-1.082,0.361-2.1,0.584-3.065v2.707c0,0.157,0.016,0.31,0.039,0.459
		c-0.002,0.028-0.004,0.058-0.004,0.086v8.081c0,0.809,0.602,1.464,1.346,1.464c0.742,0,1.344-0.655,1.344-1.464v-5.764
		c0.049,0.002,0.096,0.007,0.146,0.007c0.045,0,0.09-0.005,0.137-0.007v5.764c0,0.809,0.604,1.464,1.346,1.464
		s1.346-0.655,1.346-1.464v-8.081c0-0.019-0.002-0.037-0.002-0.056c0.027-0.159,0.043-0.322,0.043-0.489V37.08
		c0.227,0.975,0.836,1.999,0.723,3.09c-0.211,2.07,2.346,2.051,2.557,0c0.324-3.159-1.211-6.309-3.09-8.838
		C53.312,30.731,52.738,30.671,52.738,30.671z"/>
	<path fill="#0E0F0F" d="M50.736,25.052c0.65-0.019,1.166-0.562,1.146-1.215c-0.019-0.596-0.577-1.206-1.069-0.885
		c0.006-0.151,0.041-0.287,0.108-0.406l-0.198-0.114c-0.095,0.162-0.142,0.345-0.142,0.546c-0.549-0.427-1.078,0.312-1.063,0.928
		C49.541,24.558,50.084,25.071,50.736,25.052z"/>
	<path fill="#0E0F0F" d="M60.367,26.953l-1.729-1.531v1.17h-5.775c-0.418-0.723-1.199-1.21-2.096-1.21s-1.676,0.487-2.096,1.21H43.1
		l-0.25-0.456h-1.92l0.473,0.858L40.93,27.77h1.92l0.207-0.456h5.34c-0.029,0.158-0.049,0.321-0.049,0.488
		c0,1.337,1.084,2.421,2.42,2.421c1.338,0,2.422-1.084,2.422-2.421c0-0.167-0.018-0.331-0.049-0.488h5.498v1.17L60.367,26.953z"/>
</g>
</svg>
