<?xml version="1.0" encoding="utf-8"?>
<!-- Generator: Adobe Illustrator 16.0.4, SVG Export Plug-In . SVG Version: 6.00 Build 0)  -->
<!DOCTYPE svg PUBLIC "-//W3C//DTD SVG 1.1//EN" "http://www.w3.org/Graphics/SVG/1.1/DTD/svg11.dtd">
<svg version="1.1" id="Capa_1" xmlns="http://www.w3.org/2000/svg" xmlns:xlink="http://www.w3.org/1999/xlink" x="0px" y="0px"
	 width="64px" height="64px" viewBox="0 0 64 64" enable-background="new 0 0 64 64" xml:space="preserve">
<g>
	<path fill="#0E0F0F" d="M50.379,7.324c-1.232-4.336-7.957-2.42-6.725,1.917c0.599,2.103,1.191,4.188,1.531,6.33
		c-2.563,1.019-5.182,2.01-7.877,2.462c-0.216-0.171-0.449-0.323-0.703-0.457c-0.642-2.323-1.629-4.524-2.608-6.793
		c-0.61-1.42-1.696-2.604-3.392-2.539c-4.324,0.168-8.56,0.782-12.458,2.745c-4.025,2.024-0.371,7.988,3.634,5.973
		c2.062-1.036,4.383-1.425,6.69-1.603c0.587,1.312,1.135,2.654,1.476,4.028c-0.238,0.407-0.41,0.856-0.49,1.344
		c-0.685,4.176-2.205,7.912-4.375,11.505c-3.465-1.337-6.972-2.553-10.571-3.485c-3.64-0.941-5.184,4.679-1.548,5.617
		c4.25,1.103,8.374,2.598,12.448,4.222c0.184,0.073,0.359,0.121,0.531,0.157c0.599,0.446,1.298,0.778,2.036,0.963
		c0.455,5.538,0.91,11.075,1.366,16.614c0.305,3.717,6.135,3.746,5.826,0c-0.518-6.301-1.038-12.604-1.555-18.904
		c-0.004-0.046-0.012-0.088-0.02-0.135c2.357-3.83,4.182-8.043,5.139-12.447c3.841-0.732,7.479-2.239,11.156-3.643
		c1.416-0.541,2.629-1.751,2.539-3.393C52.229,14.207,51.357,10.775,50.379,7.324z"/>
	<path fill="#0E0F0F" d="M20.92,40.215l3.394,9.987c2.588-1.038,3.944-3.929,3.037-6.603C26.442,40.927,23.607,39.461,20.92,40.215z
		"/>
	<path fill="#0E0F0F" d="M20.641,40.294c0.092-0.032,0.186-0.053,0.279-0.078l-1.002-2.955l-1.503,0.511l1.051,3.098
		c-1.985,1.283-3.37,1.854-2.134,6.136c1.237,4.277,3.071,3.754,5.428,3.563l-3.293-9.698
		C19.827,40.636,20.217,40.438,20.641,40.294z"/>
</g>
</svg>
