<?xml version="1.0" encoding="utf-8"?>
<!-- Generator: Adobe Illustrator 16.0.4, SVG Export Plug-In . SVG Version: 6.00 Build 0)  -->
<!DOCTYPE svg PUBLIC "-//W3C//DTD SVG 1.1//EN" "http://www.w3.org/Graphics/SVG/1.1/DTD/svg11.dtd">
<svg version="1.1" id="Capa_1" xmlns="http://www.w3.org/2000/svg" xmlns:xlink="http://www.w3.org/1999/xlink" x="0px" y="0px"
	 width="64px" height="64px" viewBox="0 0 64 64" enable-background="new 0 0 64 64" xml:space="preserve">
<g>
	<circle fill="#0E0F0F" cx="16.162" cy="30.167" r="1.823"/>
	<path fill="#0E0F0F" d="M61.994,42.76v0.221C62.007,42.859,61.994,42.76,61.994,42.76z"/>
	<path fill="#0E0F0F" d="M45.467,20.031C29.48-7.002-3.862,26.604,13.491,21.515c15.036-4.408,16.535,15.029,11.748,20.586
		c-0.879-1.496-1.759-2.99-2.639-4.482c-0.041-0.071-0.087-0.131-0.136-0.188c-0.024-0.062-0.041-0.121-0.072-0.185
		c-0.524-1.022-1.075-2.035-1.638-3.039c1.782,0.058,3.564,0.11,5.346,0.165c1.45,0.044,1.445-2.203,0-2.248
		c-2.445-0.075-4.89-0.149-7.335-0.224c-0.283-0.009-0.508,0.071-0.68,0.203c-0.186,0.043-0.364,0.111-0.534,0.202
		c-0.17,0.042-0.339,0.124-0.497,0.264c-1.387,1.248-2.774,2.494-4.163,3.742c-1.079,0.972,0.514,2.556,1.589,1.588
		c0.878-0.787,1.755-1.577,2.633-2.366c0.656,1.146,1.287,2.302,1.892,3.474c-1.019,0.521-1.967,1.158-2.844,1.924
		c-0.36,0.312-0.425,0.693-0.317,1.031c-0.026,0.105-0.041,0.221-0.033,0.35c0.005,0.071,0.009,0.146,0.014,0.22
		c-4.072-1.33-6.632-3.229-5.764-1.147c-1.654,3.438-6.601,0-6.601,0L3.139,53.76h58.855V42.98
		C61.91,43.829,60.637,45.684,45.467,20.031z M21.209,40.473c0.137-0.049,0.25-0.117,0.349-0.195
		c0.611,1.039,1.223,2.078,1.834,3.117c-0.253,0.082-0.515,0.135-0.786,0.149c-1.572,0.092-3.088-0.083-4.493-0.39
		c-0.018-0.279-0.036-0.562-0.054-0.842c-0.001-0.014-0.005-0.022-0.006-0.035C18.998,41.507,20.055,40.874,21.209,40.473z
		 M21.739,49.622c-5.827,0.774-10.694,0.313-10.874-1.03c-0.121-0.916,1.974-2.084,5.162-2.982c0.017,0.255,0.033,0.505,0.049,0.757
		c0.095,1.438,2.342,1.446,2.248,0c-0.028-0.433-0.057-0.86-0.084-1.291c0.909-0.19,1.867-0.358,2.866-0.491
		c0.974-0.13,1.917-0.225,2.819-0.284c0.326,0.556,0.652,1.108,0.979,1.663c0.733,1.248,2.677,0.118,1.94-1.134
		c-0.121-0.207-0.243-0.413-0.364-0.619c3.176,0.008,5.38,0.508,5.5,1.401C32.158,46.955,27.563,48.848,21.739,49.622z"/>
	<circle fill="#0E0F0F" cx="11.732" cy="24.241" r="0.543"/>
	<circle fill="#0E0F0F" cx="17.136" cy="23.344" r="0.351"/>
	<circle fill="#0E0F0F" cx="14.362" cy="22.716" r="0.278"/>
	<circle fill="#0E0F0F" cx="8.934" cy="26.224" r="0.352"/>
	<circle fill="#0E0F0F" cx="12.81" cy="26.224" r="0.278"/>
</g>
</svg>
