<?xml version="1.0" encoding="utf-8"?>
<!-- Generator: Adobe Illustrator 16.0.4, SVG Export Plug-In . SVG Version: 6.00 Build 0)  -->
<!DOCTYPE svg PUBLIC "-//W3C//DTD SVG 1.1//EN" "http://www.w3.org/Graphics/SVG/1.1/DTD/svg11.dtd">
<svg version="1.1" id="Capa_1" xmlns="http://www.w3.org/2000/svg" xmlns:xlink="http://www.w3.org/1999/xlink" x="0px" y="0px"
	 width="64px" height="64px" viewBox="0 0 64 64" enable-background="new 0 0 64 64" xml:space="preserve">
<g>
	<circle fill="#0E0F0F" cx="5.747" cy="17.129" r="4.082"/>
	<path fill="#0E0F0F" d="M22.662,38.619c-0.528-0.434-1.165-0.662-1.787-0.633c-0.139-0.086-0.292-0.16-0.459-0.223
		c-1.855-0.684-3.83-0.902-5.779-0.729c-0.023-0.336-0.077-0.678-0.167-1.014c-0.346-1.283-0.693-2.569-1.039-3.854
		c2.342-0.688,4.447-1.996,6.175-3.86c2.052-2.211-1.529-5.203-3.564-3.008c-1.098,1.184-2.394,1.936-3.826,2.357
		c-0.189-0.703-0.378-1.405-0.567-2.108c2.951-0.852,5.827-1.905,8.606-3.257c2.623-1.275,0.329-5.173-2.282-3.905
		c-3.473,1.69-7.145,2.8-10.896,3.688c-0.274,0.036-0.54,0.099-0.792,0.194c-2.165,0.813-2.882,3.018-2.319,5.104
		c1.025,3.813,2.052,7.625,3.079,11.438c0.178,0.662,0.569,1.207,1.079,1.623c1.717,4.312,1.427,8.414-0.512,12.945
		c-1.184,2.764,3.084,4.645,4.268,1.877c1.936-4.521,2.585-9.002,1.571-13.438c1.943-0.483,3.838-0.4,5.764,0.309
		c0.272,0.1,0.524,0.134,0.763,0.137c1.095,0.959,2.063,2.006,2.827,3.174c0.673,1.029,1.99,1.459,3.093,0.812
		c1.023-0.6,1.486-2.061,0.812-3.096C25.589,41.441,24.244,39.914,22.662,38.619z"/>
	<path fill="#0E0F0F" d="M57.982,24.646c-1.145,1.844-2.284,3.688-3.426,5.535c-0.945-0.323-1.92-0.527-2.916-0.581
		c-1.105-3.589-2.722-7.13-4.858-10.268c1.815-0.042,3.635-0.051,5.452-0.053c2.979,0,2.979-4.623,0-4.622
		c-3.238,0-6.477,0.016-9.709,0.23c-0.002,0-0.004,0-0.006,0c-0.961-0.312-1.951-0.128-2.795,0.363
		c0.594-0.687,0.95-1.58,0.95-2.559c0-2.17-1.759-3.929-3.93-3.929c-2.17,0-3.931,1.759-3.931,3.929s1.761,3.93,3.931,3.93
		c0.696,0,1.351-0.183,1.916-0.501c-0.494,0.55-0.863,1.222-1.029,1.947c-0.128,0.094-0.252,0.206-0.373,0.337
		c-2.311,2.543-4.62,5.085-6.934,7.628c-2,2.2,1.26,5.479,3.271,3.269c1.985-2.186,3.973-4.371,5.961-6.558
		c0.354,0.488,0.687,0.99,1.014,1.495c1.678,2.576,2.906,5.338,3.744,8.292c0.143,0.498,0.352,0.92,0.604,1.275
		c-1.84,3.778-3.44,7.66-4.854,11.619c-1.006,2.814,3.463,4.016,4.459,1.229c1.34-3.756,2.854-7.43,4.621-11.006
		c0.09-0.183,0.15-0.359,0.193-0.537c0.59-0.186,1.135-0.487,1.584-0.896c1.191-0.003,2.287,0.276,3.381,0.875
		c0.608,0.333,1.201,0.371,1.721,0.218c0.549-0.111,1.063-0.438,1.441-1.047c1.502-2.426,3.006-4.854,4.508-7.281
		C63.549,24.436,59.549,22.117,57.982,24.646z"/>
	<path fill="#0E0F0F" d="M25.99,22.798c-0.265-0.81-0.38-1.677-0.45-2.549c-0.063-0.876-0.068-1.766-0.038-2.667l0.134-2.76
		c-0.481,0.822-0.799,1.722-1,2.652c-0.2,0.929-0.286,1.892-0.216,2.857c0.07,0.962,0.294,1.939,0.769,2.821
		c0.236,0.44,0.55,0.85,0.942,1.172c0.395,0.313,0.874,0.536,1.356,0.543C26.663,24.374,26.264,23.599,25.99,22.798z"/>
	<path fill="#0E0F0F" d="M28.761,21.555c-0.157-0.563-0.228-1.159-0.276-1.764c-0.045-0.608-0.055-1.228-0.06-1.861
		c-0.009-0.637,0.008-1.278-0.035-1.973c-0.406,0.562-0.663,1.203-0.838,1.862c-0.165,0.664-0.235,1.356-0.186,2.053
		c0.052,0.695,0.22,1.405,0.589,2.041c0.185,0.315,0.43,0.607,0.728,0.832c0.304,0.216,0.668,0.357,1.019,0.331
		C29.143,22.656,28.925,22.116,28.761,21.555z"/>
	<path fill="#0E0F0F" d="M12.337,8.615c0.034-0.121,0.063-0.248,0.085-0.391c0.075-0.022,0.148-0.046,0.221-0.071
		c0.482,0.613,1.131,1.048,1.884,1.263c0.673,0.192,1.368,0.188,2.033-0.004c-0.426,1.049-0.339,2.206,0.199,3.174
		c-1.121,0.625-1.858,1.83-1.894,3.116c-0.898-0.24-1.846-0.135-2.675,0.299l0.157,0.301c0.768-0.402,1.649-0.494,2.479-0.259
		c0.033,0.01,0.065,0.021,0.097,0.033l0.291,0.1l-0.007-0.247c-0.046-1.303,0.701-2.546,1.865-3.124l0.167-0.083l-0.098-0.159
		c-0.626-1.008-0.69-2.275-0.104-3.366l0.226-0.421L16.82,8.959c-0.706,0.292-1.468,0.336-2.201,0.128
		c-0.72-0.205-1.335-0.634-1.782-1.241L12.76,7.74l-0.124,0.05c-0.131,0.053-0.268,0.099-0.408,0.135l-0.111,0.028l-0.014,0.113
		c-0.025,0.175-0.055,0.32-0.093,0.456c-0.328,1.15-1.256,2.046-2.421,2.337l0.082,0.331C10.954,10.869,11.976,9.883,12.337,8.615z"
		/>
</g>
</svg>
