<?xml version="1.0" encoding="utf-8"?>
<!-- Generator: Adobe Illustrator 16.0.4, SVG Export Plug-In . SVG Version: 6.00 Build 0)  -->
<!DOCTYPE svg PUBLIC "-//W3C//DTD SVG 1.1//EN" "http://www.w3.org/Graphics/SVG/1.1/DTD/svg11.dtd">
<svg version="1.1" id="Capa_1" xmlns="http://www.w3.org/2000/svg" xmlns:xlink="http://www.w3.org/1999/xlink" x="0px" y="0px"
	 width="64px" height="64px" viewBox="0 0 64 64" enable-background="new 0 0 64 64" xml:space="preserve">
<g>
	<path fill="#0E0F0F" d="M57.997,52.934c-0.058,0-4.636-0.018-10.058-1.232c0.767-2.801,2.203-5.047,4.336-8.378l0.664-1.04
		c0.117-0.186,0.203-0.381,0.289-0.573c2.133-2.569,2.629-6.347-0.574-9.275c-5.605-5.128-10.959-10.522-15.856-16.337
		c-2.528-3.006-7.624-2.548-10.193,0.055c-2.062,2.087-2.446,4.774-1.625,7.229c-0.073,0.164-0.155,0.319-0.212,0.502
		c-1.087,3.494-2.258,7.181-4.646,10.036c-2.412,2.887-5.998,4.329-9.463,5.516c-4.662,1.598-2.66,9.022,2.044,7.414
		c4.564-1.562,8.917-3.496,12.369-6.959c2.524-2.531,4.176-5.773,5.462-9.134c3.797,4.162,7.813,8.116,11.976,11.921
		c-1.966,3.41-3.393,6.856-3.775,11.85c-0.152,2,1.091,3.844,3,4.451c8.093,2.576,15.935,2.605,16.266,2.605
		c2.389,0,4.324-1.938,4.324-4.324C62.32,54.869,60.384,52.934,57.997,52.934z"/>
	<path fill="#0E0F0F" d="M30.91,32.705c-0.158,0.289-0.101,0.359-0.209,0.691c-2.129,6.47-4.774,12.729-7.526,18.953
		c-2.481,5.611,5.798,10.508,8.298,4.851c2.392-5.408,6.779-16.632,6.779-16.632S33.159,35.926,30.91,32.705z"/>
	<path fill="#0E0F0F" d="M11.308,49.636c-2.857-0.001-5.207-2.134-5.715-5.188c-0.447-2.683,0.672-5.929,4.178-7.13
		c1.076-0.366,2.198-0.773,3.291-1.254c-1.333-3.219-3.345-5.312-5.16-5.265c-3.048,0.081-6.66,5.843-6.662,13.048
		c0,7.204,4.065,13.241,6.662,13.047c1.915-0.146,4.623-3.26,5.914-7.772c-0.146,0.052-0.296,0.106-0.443,0.157
		C12.682,49.516,11.987,49.636,11.308,49.636z"/>
	<circle fill="#0E0F0F" cx="21.127" cy="9.688" r="7.688"/>
</g>
</svg>
