<?xml version="1.0" encoding="utf-8"?>
<!-- Generator: Adobe Illustrator 16.0.4, SVG Export Plug-In . SVG Version: 6.00 Build 0)  -->
<!DOCTYPE svg PUBLIC "-//W3C//DTD SVG 1.1//EN" "http://www.w3.org/Graphics/SVG/1.1/DTD/svg11.dtd">
<svg version="1.1" id="Capa_1" xmlns="http://www.w3.org/2000/svg" xmlns:xlink="http://www.w3.org/1999/xlink" x="0px" y="0px"
	 width="64px" height="64px" viewBox="0 0 64 64" enable-background="new 0 0 64 64" xml:space="preserve">
<g>
	<path fill="#0E0F0F" d="M10.725,26.412c4.733,0,4.775-7.331,0.053-7.331C6.045,19.081,6.004,26.412,10.725,26.412z"/>
	<path fill="#0E0F0F" d="M52.707,19.115c4.712-0.313,4.182-7.625-0.54-7.311C47.457,12.119,47.984,19.43,52.707,19.115z"/>
	<path fill="#0E0F0F" d="M57.066,34.963c-0.387,0.059-0.812,0.12-1.258,0.186c0.672-0.463,1.178-1.211,1.334-2.293
		c0.444-3.1,0.557-6.234,0.08-9.334c-0.304-1.973-1.813-3.54-3.927-3.385C51.674,20.255,50.1,21.63,49.9,23.28
		c-2.155,1.434-4.352,2.809-6.582,4.125c-1.146,0.676-1.059,1.896-0.407,2.702c-0.271,0.161-0.486,0.431-0.538,0.819
		c-0.283,2.098-0.562,4.193-0.85,6.29c-6.354,0.953-9.896,1.562-16.253,2.519c-0.794-2.041-1.587-4.082-2.38-6.123
		c-0.447-1.151-1.995-0.448-1.973,0.625c-0.087-0.062-0.174-0.125-0.28-0.178c-2.314-1.164-4.594-2.392-6.84-3.679
		c-0.307-1.633-1.97-2.9-3.597-2.911c-2.117-0.015-3.521,1.65-3.691,3.639c-0.268,3.125,0.051,6.248,0.701,9.309
		c0.175,0.827,0.548,1.438,1.032,1.87C7.5,42.396,6.758,42.51,6.016,42.621c-2.471,0.372-1.544,4.141,0.914,3.771
		c3.862-0.58,7.723-1.158,11.584-1.738c0.539,1.513,1.003,3.049,1.449,4.593c0.693,2.397,4.437,1.377,3.741-1.031
		c-0.402-1.393-0.818-2.776-1.287-4.146c6.298-0.943,12.599-1.889,18.896-2.834c-0.037,0.166-0.076,0.332-0.109,0.498
		c-0.535,2.451,3.27,3.221,3.801,0.781c0.141-0.636,0.281-1.268,0.43-1.896c4.183-0.627,8.363-1.254,12.547-1.881
		C60.453,38.363,59.525,34.594,57.066,34.963z M20.665,40.422c-0.306-0.347-0.733-0.602-1.292-0.668
		c-1.653-0.195-3.321-0.338-4.991-0.434c-0.004-0.258-0.032-0.524-0.09-0.803c-0.263-1.233-0.428-2.461-0.502-3.695
		c1.615,0.891,3.245,1.754,4.893,2.584c1.333,0.671,2.564-0.26,2.866-1.354c0.518,1.335,1.037,2.671,1.556,4.005
		C22.291,40.178,21.478,40.3,20.665,40.422z M49.954,31.433c-0.04,0.281-0.052,0.55-0.037,0.807
		c-1.66,0.207-3.313,0.459-4.952,0.765c-0.291,0.056-0.533,0.168-0.748,0.308c0.104-0.772,0.208-1.546,0.312-2.319
		c0.005-0.033,0.002-0.063,0.004-0.096c0.312-0.008,0.64-0.087,0.968-0.279c1.587-0.939,3.156-1.908,4.707-2.905
		C50.217,28.947,50.133,30.185,49.954,31.433z"/>
	<path fill="#0E0F0F" d="M36.124,46.173c-0.136-1.899-1.203-3.337-2.545-3.337c-1.34,0-2.408,1.438-2.543,3.337h-0.064l-0.489,6.032
		h6.195l-0.488-6.032H36.124z M31.693,46.173c0.127-1.491,0.938-2.687,1.886-2.687s1.76,1.193,1.888,2.687H31.693z"/>
</g>
</svg>
