<?xml version="1.0" encoding="utf-8"?>
<!-- Generator: Adobe Illustrator 16.0.4, SVG Export Plug-In . SVG Version: 6.00 Build 0)  -->
<!DOCTYPE svg PUBLIC "-//W3C//DTD SVG 1.1//EN" "http://www.w3.org/Graphics/SVG/1.1/DTD/svg11.dtd">
<svg version="1.1" id="Capa_1" xmlns="http://www.w3.org/2000/svg" xmlns:xlink="http://www.w3.org/1999/xlink" x="0px" y="0px"
	 width="64px" height="64px" viewBox="0 0 64 64" enable-background="new 0 0 64 64" xml:space="preserve">
<g>
	<circle fill="#0F1011" cx="32.059" cy="9.999" r="5.66"/>
	<path fill="#0F1011" d="M49.919,6.021c-0.935-0.936-2.451-0.936-3.388,0L35.18,17.374c-0.869-0.515-1.879-0.815-2.961-0.815
		c-1.11,0-2.144,0.316-3.026,0.855h-17.34c-1.323,0-2.396,1.073-2.396,2.396c0,1.324,1.072,2.396,2.396,2.396h14.555
		c-0.001,0.058-0.008,0.114-0.008,0.171v13.689c0,0.295,0.029,0.584,0.071,0.865c-0.042,0.18-0.071,0.362-0.071,0.555v21.222
		c0,1.324,1.073,2.396,2.396,2.396c1.324,0,2.396-1.069,2.396-2.396V41.79c0.334,0.06,0.676,0.096,1.027,0.096
		c0.352,0,0.692-0.036,1.026-0.096v16.918c0,1.324,1.073,2.396,2.396,2.396c1.323,0,2.396-1.069,2.396-2.396V37.486
		c0-0.191-0.028-0.375-0.07-0.555c0.041-0.283,0.07-0.57,0.07-0.865V22.377c0-0.34-0.034-0.67-0.092-0.994L49.919,9.409
		C50.855,8.473,50.855,6.957,49.919,6.021z"/>
</g>
</svg>
