<?xml version="1.0" encoding="utf-8"?>
<!-- Generator: Adobe Illustrator 16.0.4, SVG Export Plug-In . SVG Version: 6.00 Build 0)  -->
<!DOCTYPE svg PUBLIC "-//W3C//DTD SVG 1.1//EN" "http://www.w3.org/Graphics/SVG/1.1/DTD/svg11.dtd">
<svg version="1.1" id="Capa_1" xmlns="http://www.w3.org/2000/svg" xmlns:xlink="http://www.w3.org/1999/xlink" x="0px" y="0px"
	 width="64px" height="64px" viewBox="0 0 64 64" enable-background="new 0 0 64 64" xml:space="preserve">
<g>
	<path fill="#0E0F0F" d="M38.096,15.135l0.002-0.033c-0.439-0.119-0.902-0.201-1.399-0.231c-0.054-0.002-0.103,0.006-0.15,0.006
		c-0.056-0.004-0.147-0.009-0.258-0.016c-0.123-0.016-0.256-0.029-0.388-0.043c0.966-0.985,1.562-2.333,1.562-3.82V7.097
		c0-3.017-2.445-3.618-5.464-3.618c-3.017,0-5.464,0.6-5.464,3.617v3.902c0,1.472,0.586,2.806,1.533,3.788
		c-0.288,0.015-0.507,0.028-0.613,0.035c-0.051,0-1.546,0.368-1.546,0.368c-6.703,1.189-7.188,11.57-6.941,18.254H19
		c0.041,0.861,0.089,1.648,0.134,2.328c0.209,3.168,5.165,3.188,4.953,0c-0.055-0.815-0.085-1.636-0.106-2.453h-0.008
		c-0.019-1.613,0.021-3.232,0.141-4.834c0.082-1.077,0.263-5.056,1.232-7.146c0.051,0.264,0.091,0.43,0.091,0.43
		c0.006,3.423-0.573,15.686-0.573,15.686h6.176h1.993h5.955l-0.002-0.056h0.154c0,0-0.58-12.265-0.574-15.687
		c0,0,0.041-0.167,0.093-0.429c0.969,2.09,1.149,6.07,1.231,7.147c0.118,1.601,0.157,3.219,0.141,4.831h-0.008
		c-0.021,0.82-0.051,1.64-0.104,2.453c-0.213,3.188,4.741,3.17,4.952,0c0.045-0.676,0.094-1.465,0.134-2.328h0.03
		C45.279,26.706,44.796,16.327,38.096,15.135z M33.118,37.361h-1.924v-16.24h1.924V37.361z M35.617,11.689h-1.404
		c-0.02,0.129-0.051,0.255-0.089,0.376c-0.159,1.05-1.056,1.858-2.15,1.858c-1.204,0-2.18-0.977-2.18-2.181
		c0-0.01,0.002-0.019,0.002-0.027c-0.001-0.009-0.004-0.018-0.006-0.027h-1.406V6.763h7.233V11.689z"/>
	<path fill="#0E0F0F" d="M35.74,38.119v-0.002h-7.479v0.002h-2.63v0.056h-0.148l-0.248,17.392l0.308,0.408l0.007,1.823
		c0,0.813,0.38,1.533,0.971,2.024c0.445,0.395,1.027,0.644,1.705,0.644c0.004,0,0.011-0.003,0.017-0.003
		c0.017,0.001,0.033,0.008,0.051,0.008c1.515,0,2.745-1.197,2.745-2.673v-1.872l0.307-0.307L31.039,42.95h1.924l-0.306,12.669
		l0.306,0.355v1.769c0,0.565,0.184,1.09,0.493,1.519c0.483,0.756,1.339,1.26,2.319,1.26c1.14,0,2.031-0.676,2.404-1.635
		c0.17-0.351,0.271-0.732,0.271-1.144l0.007-1.716l0.307-0.406L38.52,38.119H35.74z"/>
	<path fill="#0E0F0F" d="M31.974,9.562c0.969,0,1.783,0.637,2.067,1.513l0.961-0.002V7.379H29v3.693h0.909
		C30.191,10.198,31.005,9.562,31.974,9.562z"/>
</g>
</svg>
