<?xml version="1.0" encoding="utf-8"?>
<!-- Generator: Adobe Illustrator 16.0.4, SVG Export Plug-In . SVG Version: 6.00 Build 0)  -->
<!DOCTYPE svg PUBLIC "-//W3C//DTD SVG 1.1//EN" "http://www.w3.org/Graphics/SVG/1.1/DTD/svg11.dtd">
<svg version="1.1" id="Capa_1" xmlns="http://www.w3.org/2000/svg" xmlns:xlink="http://www.w3.org/1999/xlink" x="0px" y="0px"
	 width="64px" height="64px" viewBox="0 0 64 64" enable-background="new 0 0 64 64" xml:space="preserve">
<g>
	<path fill="#0E0F0F" d="M15.275,47.48L6.019,45.2l0.036,0.329l0.028,0.264C5.925,45.717,5.744,45.68,5.556,45.7
		c-0.535,0.055-0.925,0.536-0.868,1.071c0.056,0.537,0.536,0.927,1.073,0.871c0.188-0.021,0.357-0.098,0.496-0.203l0.222,2.104
		l0.019,0.186l0.013,0.114c-0.054-0.01-0.111-0.014-0.168-0.008c-0.344,0.037-0.593,0.345-0.557,0.688
		c0.037,0.346,0.344,0.594,0.688,0.557c0.057-0.006,0.111-0.021,0.164-0.041l0.117,1.109l0.013,0.129l0.044,0.41l8.51-3.932
		l1.531,0.6l-0.382-3.345L15.275,47.48z"/>
	<circle fill="#0E0F0F" cx="5.599" cy="52.062" r="0.752"/>
	<circle fill="#0E0F0F" cx="5.273" cy="48.98" r="0.973"/>
	<circle fill="#0E0F0F" cx="3.732" cy="47.503" r="0.627"/>
	<circle fill="#0E0F0F" cx="2.826" cy="48.693" r="0.627"/>
	<circle fill="#0E0F0F" cx="3.448" cy="50.772" r="1.028"/>
	<path fill="#0E0F0F" d="M60.346,25.886c-0.133-2.419-3.904-2.433-3.771,0c0.138,2.485-0.098,4.916-2.463,6.215
		c-1.023,0.563-2.254,0.771-3.512,0.808c-0.49-0.855-1.332-1.244-1.332-1.244s-2.256,4.345-2.642,3.96
		c-0.188-0.154,0.511-4.912,0.231-4.992c-2.725-0.789-4.41-2.49-4.971-5.285c-0.479-2.385-4.115-1.373-3.641,1.002
		c0.684,3.397,2.822,5.865,5.798,7.242c0,0-0.001,0.004-0.002,0.006c-1.188,2.949-1.896,5.818-2.356,8.961
		c-0.043,0.284-0.061,0.567-0.057,0.849c-0.021,0.082-0.051,0.155-0.062,0.245c-0.642,3.998-1.621,7.875-3.146,11.634
		c-1.145,2.817,3.42,4.032,4.551,1.253c1.264-3.115,2.147-6.314,2.778-9.6c0.026-0.006,0.058-0.008,0.083-0.016
		c2.035,2.594,2.889,5.747,2.562,9.303c-0.273,3.028,4.442,3.002,4.717,0c0.47-5.146-1.23-9.256-4.467-12.678
		c0.398-2.4,0.953-4.66,1.781-6.939c2.071-0.06,4.112-0.439,5.969-1.459C59.725,33.323,60.537,29.367,60.346,25.886z M45.823,40.76
		c-0.361,0-0.653-0.293-0.653-0.652s0.292-0.651,0.653-0.651c0.358,0,0.651,0.292,0.651,0.651S46.182,40.76,45.823,40.76z
		 M46.475,38.495c-0.358,0-0.649-0.292-0.649-0.652s0.288-0.651,0.649-0.651s0.653,0.291,0.653,0.651S46.836,38.495,46.475,38.495z"
		/>
	<path fill="#0E0F0F" d="M52.641,27.56c0.491,0.284-1.009,1.248-1.056,2.282c-0.062,1.419,0.744,0.438,0.744,0.438l0.46-0.78
		c1.018-1.724,1.85-3.116,0.184-4.099l-1.031-0.609c0,0-1.221-0.46-2.4-3.705c-0.83,0.976-0.062,2.25-0.062,2.25
		s-0.938-1.375-1.338-1.264c0,0-0.816,2.348,0.092,2.884C49.134,25.492,52.152,27.275,52.641,27.56z"/>
	<path fill="#0E0F0F" d="M55.744,17.805c0.548-0.834,0.451-1.585-0.059-1.917c-0.51-0.333-1.234-0.123-1.783,0.712
		c-0.545,0.834-0.198,2.313-0.198,2.313S55.197,18.64,55.744,17.805z"/>
	<path fill="#0E0F0F" d="M58.814,18.825c0.5-0.417,0.582-0.903,0.326-1.207c-0.252-0.304-0.746-0.312-1.244,0.106
		c-0.5,0.417-0.562,1.404-0.562,1.404S58.316,19.242,58.814,18.825z"/>
	<path fill="#0E0F0F" d="M55.032,20.736c-0.499,0.417-0.562,1.404-0.562,1.404s0.98,0.113,1.48-0.304
		c0.498-0.417,0.58-0.902,0.324-1.208C56.025,20.325,55.533,20.319,55.032,20.736z"/>
	<path fill="#0E0F0F" d="M12.297,31.407c-2.867-0.469-4.019-1.329-5-1.845c-0.493,0.803-0.485,1.793,0.515,2.474
		c2.103,1.428,4.158,2.922,6.26,4.353c1.991,1.354,2.86-1.013,0.886-2.354C14.179,33.504,13.068,31.949,12.297,31.407z"/>
	<path fill="#0E0F0F" d="M30.972,34.871c-3.066-1.758-6.131-3.516-9.198-5.272c-1.046,1.141-1.583,1.342-2.86,1.742
		c0.055,0.039,0.112,0.076,0.174,0.11c3.552,2.038,7.107,4.074,10.659,6.113C31.83,38.76,33.055,36.064,30.972,34.871z"/>
	<rect x="14.297" y="14.948" fill="#0E0F0F" width="1.641" height="0.846"/>
	<path fill="#0E0F0F" d="M12.64,13.188c0.097,0.357,0.518,0.809,0.518,0.809l0.134-0.131c0.229-0.17,1.801-1.386,1.931-2.771
		c0.334,0.763,1.943,1.553,2.336,1.544l0.188-0.01c0.018-0.003,0.033-0.004,0.033-0.004c-0.142-0.892-0.185-2.343-2.392-2.525
		c0.04-0.206-0.004-0.41-0.143-0.552c-0.214-0.216-0.577-0.215-0.875-0.02c-0.033-0.028-0.065-0.055-0.095-0.082
		c-0.095-0.084-0.17-0.172-0.214-0.25c-0.021-0.039-0.029-0.078-0.037-0.108c-0.005-0.019-0.005-0.032-0.002-0.033
		c0.002,0.004-0.001-0.015-0.003-0.034l-0.003-0.026l-0.001-0.013V8.981c0.003,0.017,0.01,0.048,0.008,0.042V9.021V9.018
		c0.015-0.144,0.102-0.284,0.24-0.464c0.138-0.176,0.333-0.355,0.528-0.571c0.199-0.217,0.422-0.447,0.603-0.84
		c0.09-0.194,0.152-0.455,0.128-0.733c-0.021-0.28-0.144-0.54-0.281-0.72c-0.276-0.363-0.598-0.547-0.879-0.676
		c-0.312-0.141-0.678-0.004-0.82,0.308c-0.121,0.265-0.039,0.572,0.182,0.745l0.084,0.065c0.022,0.019,0.039,0.037,0.059,0.053
		c0.042,0.035,0.083,0.072,0.117,0.107c0.074,0.067,0.13,0.138,0.157,0.181c0.03,0.049,0.023,0.06,0.027,0.062
		c0.003,0.004,0.002,0.028-0.017,0.095c-0.041,0.132-0.181,0.348-0.333,0.573c-0.159,0.226-0.329,0.481-0.486,0.791
		c-0.077,0.156-0.15,0.327-0.19,0.524c-0.04,0.196-0.048,0.415,0,0.623L13.156,9.2l0.003,0.013l0.01,0.025l0.026,0.067
		c0.026,0.067,0.054,0.119,0.083,0.163c0.058,0.094,0.127,0.175,0.201,0.242c0.146,0.132,0.3,0.217,0.443,0.286
		c0.021,0.009,0.041,0.015,0.061,0.024c-0.013,0.038-0.021,0.076-0.029,0.114c-1.003,0.364-1.642,1.399-1.47,2.493
		C12.498,12.762,12.583,13.064,12.64,13.188z"/>
	<path fill="#0E0F0F" d="M5.835,15.328c2.05,1.172,4.104,1.709,6.241,2.074c-0.01,0.134-0.015,0.271-0.005,0.416
		c0.125,2.136,0.085,4.25-0.161,6.354c-1.945,1.292-5.494,4.383-5.494,4.383s12.158,7.146,17.061-2.168l-5.812-2.12
		c0.193-1.854,0.262-3.718,0.191-5.593c2.328,1.023,4.639,1.979,7.105,2.726c1.675,0.506,2.386-2.106,0.72-2.61
		c-2.769-0.837-5.321-1.942-7.949-3.115c-0.155-0.132-0.356-0.231-0.622-0.269l-1.49,2.718l0.315-1.654h-1.641l0.441,2.378
		l-1.653-3.982c-2.022-0.314-3.975-0.785-5.884-1.875C5.682,12.125,4.319,14.463,5.835,15.328z M15.117,20.339
		c0.34,0,0.617,0.276,0.617,0.617c0,0.342-0.276,0.617-0.617,0.617c-0.34,0-0.616-0.275-0.616-0.617
		C14.501,20.615,14.777,20.339,15.117,20.339z M14.949,22.997c0.34,0,0.616,0.276,0.616,0.617c0,0.341-0.276,0.616-0.616,0.616
		c-0.34,0-0.617-0.275-0.617-0.616C14.332,23.273,14.608,22.997,14.949,22.997z"/>
</g>
</svg>
