<?xml version="1.0" encoding="utf-8"?>
<!-- Generator: Adobe Illustrator 16.0.4, SVG Export Plug-In . SVG Version: 6.00 Build 0)  -->
<!DOCTYPE svg PUBLIC "-//W3C//DTD SVG 1.1//EN" "http://www.w3.org/Graphics/SVG/1.1/DTD/svg11.dtd">
<svg version="1.1" id="Capa_1" xmlns="http://www.w3.org/2000/svg" xmlns:xlink="http://www.w3.org/1999/xlink" x="0px" y="0px"
	 width="64px" height="64px" viewBox="0 0 64 64" enable-background="new 0 0 64 64" xml:space="preserve">
<path fill="#0E0F0F" d="M45.811,5.882c2.57,0,4.652,2.083,4.652,4.652c0,2.569-2.082,4.652-4.652,4.652
	c-2.568,0-4.651-2.083-4.651-4.652C41.159,7.965,43.242,5.882,45.811,5.882z M38.425,28.523l4.041-9.716l0.229,0.495
	c0.062,0.141,0.195,0.24,0.35,0.266c0.025,0.005,0.053,0.006,0.077,0.006c0.127,0,0.251-0.052,0.341-0.145l1.107-1.165
	c0.127-0.133,0.164-0.327,0.097-0.498s-0.229-0.287-0.412-0.297l-1.378-0.072l-0.729-2.022c-0.064-0.18-0.233-0.303-0.424-0.311
	c-0.188-0.018-0.367,0.101-0.447,0.273l-1.418,3.088c-0.078,0.171-0.049,0.373,0.078,0.511c0.09,0.101,0.217,0.156,0.35,0.156
	c0.051,0,0.102-0.009,0.15-0.025l1.34-0.715l-5.129,9.687L38.425,28.523z M13.537,30.484l2.146-7.244l3.755,1.113l-2.146,7.244
	L13.537,30.484z M39.354,29.868l-4.265-1.143l5.408-13.326c-0.261-0.07-0.886-0.432-2.009-0.06l-15.406,3.567
	c-1.134,0.262-1.841,1.396-1.579,2.53c0.055,0.237,0.155,0.45,0.277,0.645l-1.773,2.358l-2.206,7.452l0.335,4.99
	c0.237,0.069,0.498-0.104,0.582-0.387L22.743,22.9c0.395,0.166,0.841,0.219,1.291,0.115l10.141-2.348
	c-1.473,2.617-2.89,5.264-4.261,7.933c0,0-7.34,11.975-6.225,12.464c1.116,0.49,5.974-4.977,5.974-4.977v0.788
	c-0.206,0.283-0.36,0.608-0.445,0.976c-1.251,5.317-4.593,9.307-9.664,11.521c-1.373,0.604-2,2.2-1.398,3.572
	c0.446,1.021,1.442,1.628,2.488,1.628c0.362,0,0.731-0.073,1.086-0.229c3.146-1.378,5.816-3.335,7.933-5.75v6.672
	c0,1.571,1.275,2.85,2.847,2.85c1.573,0,2.848-1.274,2.848-2.85c0,0-1.039-13.524,2.963-21.732c4.007-8.209,2.613-4.946,4.705-8.693
	c0.732,1.241,1.104,2.042,1.262,2.556c-1.202,0.218-2.078,1.306-1.998,2.555c0.08,1.294,1.15,2.29,2.438,2.29
	c0.051,0,0.104-0.001,0.151-0.004c2.542-0.159,3.58-1.538,3.978-2.346c1.396-2.873-0.89-6.681-3.847-10.998L39.354,29.868z"/>
</svg>
