<?xml version="1.0" encoding="utf-8"?>
<!-- Generator: Adobe Illustrator 16.0.4, SVG Export Plug-In . SVG Version: 6.00 Build 0)  -->
<!DOCTYPE svg PUBLIC "-//W3C//DTD SVG 1.1//EN" "http://www.w3.org/Graphics/SVG/1.1/DTD/svg11.dtd">
<svg version="1.1" id="Capa_1" xmlns="http://www.w3.org/2000/svg" xmlns:xlink="http://www.w3.org/1999/xlink" x="0px" y="0px"
	 width="64px" height="64px" viewBox="0 0 64 64" enable-background="new 0 0 64 64" xml:space="preserve">
<g>
	<path fill="#0E0F0F" d="M44.906,24.033c-8.338-4.399-17.03-8.156-26.206-10.408C12.074,12,8.549,19.92,11.751,24.094
		c0.086,0.834,0.452,1.679,1.195,2.444c2.16,2.226,4.121,4.654,5.98,7.157c-3.396,0.145-6.804,0.115-10.077-0.369
		c-5.345-0.793-7.646,7.376-2.253,8.174c6.641,0.982,13.46,0.675,20.137,0.15c2.941-0.229,5.623-3.515,3.659-6.377
		c-1.22-1.777-2.459-3.563-3.736-5.33c2.337,0.926,4.638,1.943,6.916,3.035c0.348,4.735,3.179,9.304,6.988,12.438
		c4.185,3.443,10.217-2.518,5.994-5.993c-1.121-0.924-2.363-2.146-3.273-3.509C48.122,34.404,50.639,27.059,44.906,24.033z"/>
	<circle fill="#0E0F0F" cx="54.863" cy="33.257" r="6.276"/>
</g>
</svg>
