<?xml version="1.0" encoding="utf-8"?>
<!-- Generator: Adobe Illustrator 16.0.4, SVG Export Plug-In . SVG Version: 6.00 Build 0)  -->
<!DOCTYPE svg PUBLIC "-//W3C//DTD SVG 1.1//EN" "http://www.w3.org/Graphics/SVG/1.1/DTD/svg11.dtd">
<svg version="1.1" id="Capa_1" xmlns="http://www.w3.org/2000/svg" xmlns:xlink="http://www.w3.org/1999/xlink" x="0px" y="0px"
	 width="64px" height="64px" viewBox="0 0 64 64" enable-background="new 0 0 64 64" xml:space="preserve">
<g>
	<path fill="#0E0F0F" d="M29.246,6.206c-10.943,2.026-18.589,12.132-17.93,23.245c0.012,0.205,0.037,0.398,0.064,0.593
		c-0.401,1.993,0.356,4.349,2.734,5.31c3.796,1.537,8.127,3.883,9.561,7.989c1.534,4.397-1.79,9.084-4.471,12.228
		c-3.54,4.15,2.451,10.201,6.02,6.021c4.831-5.667,8.262-12.039,6.884-19.653c-0.039-0.209-0.099-0.408-0.146-0.612
		c0.328-0.466,0.567-1.021,0.64-1.692c0.883-8.227,3.199-16.207,4-24.446c0.651-1.4,0.852-3.021,0.461-4.465
		C36.109,7.159,32.667,5.573,29.246,6.206z M26.742,33.15c-0.858-0.75-1.774-1.444-2.732-2.083c0.078-0.473,0.107-0.98,0.077-1.527
		c-0.038-0.632-0.009-1.267,0.029-1.896c0.016-0.222,0.036-0.44,0.058-0.658c0.01-0.059,0.021-0.12,0.037-0.202
		c0.152-0.853,0.386-1.688,0.645-2.513c0.111-0.297,0.17-0.461,0.18-0.508c0.191-0.402,0.401-0.795,0.618-1.184
		c0.708-1.272,0.314-0.656,1.366-1.729c0.547-0.558,1.322-1.017,2.236-1.391C28.558,24.044,27.553,28.583,26.742,33.15z"/>
	<circle fill="#0E0F0F" cx="44.234" cy="8.705" r="6.667"/>
</g>
</svg>
