<?xml version="1.0" encoding="utf-8"?>
<!-- Generator: Adobe Illustrator 16.0.4, SVG Export Plug-In . SVG Version: 6.00 Build 0)  -->
<!DOCTYPE svg PUBLIC "-//W3C//DTD SVG 1.1//EN" "http://www.w3.org/Graphics/SVG/1.1/DTD/svg11.dtd">
<svg version="1.1" id="Capa_1" xmlns="http://www.w3.org/2000/svg" xmlns:xlink="http://www.w3.org/1999/xlink" x="0px" y="0px"
	 width="64px" height="64px" viewBox="0 0 64 64" enable-background="new 0 0 64 64" xml:space="preserve">
<g>
	<circle fill="#101111" cx="20.751" cy="15.561" r="4.235"/>
	<circle fill="#101111" cx="6.823" cy="19.633" r="2.269"/>
	<path fill="#101111" d="M55.641,36.193c-2.48,0.074-4.992,0.25-7.445-0.246c-2.984-0.604-5.514-2.721-7.635-4.78
		c-0.104-0.102-0.211-0.19-0.316-0.273c-1.584-2.998-3.398-5.636-5.627-7.959c1.716,0.535,3.342,1.215,4.654,1.804
		c2.824,1.263,5.289-2.907,2.445-4.18c-4.656-2.083-10.244-4.108-15.38-3.036c-0.553,0.116-0.959,0.366-1.243,0.69
		c-1.469,0.817-2.466,2.56-2.479,4.328c-2.715,1.092-6.419,0.54-9.219-0.343c-2.986-0.94-4.253,3.732-1.287,4.667
		c4.044,1.275,9.126,1.8,13.1-0.175c3.646,2.554,5.762,5.862,7.747,9.86c0.093,0.187,0.204,0.357,0.323,0.521
		c0.053,0.25,0.133,0.508,0.256,0.768c1.318,2.787,0.964,5.969,2.586,8.684c1.479,2.477,4.242,3.65,6.43,5.354
		c3.039,2.367,7.354-1.883,4.277-4.275c-1.699-1.324-4.174-2.4-5.484-4.135c-0.783-1.033-0.85-2.566-1.053-3.803
		c-0.061-0.363-0.135-0.717-0.213-1.062c1.713,1.196,3.553,2.19,5.594,2.924c3.111,1.115,6.727,0.815,9.969,0.722
		C59.533,42.129,59.545,36.078,55.641,36.193z"/>
</g>
</svg>
