<?xml version="1.0" encoding="utf-8"?>
<!-- Generator: Adobe Illustrator 16.0.4, SVG Export Plug-In . SVG Version: 6.00 Build 0)  -->
<!DOCTYPE svg PUBLIC "-//W3C//DTD SVG 1.1//EN" "http://www.w3.org/Graphics/SVG/1.1/DTD/svg11.dtd">
<svg version="1.1" id="Capa_1" xmlns="http://www.w3.org/2000/svg" xmlns:xlink="http://www.w3.org/1999/xlink" x="0px" y="0px"
	 width="64px" height="64px" viewBox="0 0 64 64" enable-background="new 0 0 64 64" xml:space="preserve">
<g>
	<path fill="#0E0F0F" d="M62.35,50.207c-4.74-6.277-9.149-12.787-13.543-19.31c-0.119-0.313-0.281-0.613-0.496-0.891
		c-0.026-0.037-0.057-0.074-0.084-0.111c0.58-0.152,1.112-0.55,1.469-1.284c1.339-2.76,1.855-5.77,1.693-8.826
		c-0.062-1.171-0.765-2.266-1.953-2.566c-4.192-1.055-8.354-2.13-12.666-2.568c-2.713-1.165-6.173,0.663-6.938,3.47
		c-3.919,3.388-8.252,6.184-12.712,8.845c-1.205,0.719-1.458,1.913-1.146,2.954l-6.666,3.589l0.646,1.198l6.692-3.604
		c0.748,0.813,1.927,1.194,3.16,0.458c4.065-2.425,8.031-4.989,11.711-7.938c1.65,2.644,3.458,5.179,5.324,7.673
		c-2.495,0.148-4.988,0.324-7.469,0.582c-1.575,0.162-2.676,0.915-3.207,2.442c-1.224,3.516-2.807,6.928-3.325,10.642
		c-0.586,4.192,5.821,6.002,6.414,1.769c0.408-2.926,1.477-5.664,2.511-8.412c4.292-0.364,8.607-0.553,12.906-0.784
		c0.194-0.013,0.377-0.038,0.554-0.075c3.688,5.445,7.418,10.857,11.381,16.107C59.154,56.941,64.936,53.633,62.35,50.207z
		 M45.141,25.829c-1.236-1.662-2.441-3.345-3.593-5.067c1.515,0.327,3.021,0.706,4.521,1.09
		C45.991,23.223,45.729,24.578,45.141,25.829z"/>
	<circle fill="#0E0F0F" cx="27.074" cy="9.896" r="5.786"/>
	<path fill="#0E0F0F" d="M6.87,31.993c-0.298-0.435-0.073-1.167,0.187-2.016c0.286-0.93,0.609-1.983,0.286-2.942
		c-0.495-1.466-1.677-2.315-2.819-3.137c-1.564-1.124-3.042-2.185-2.465-4.755l0.015-0.063l-0.451-0.102l-0.014,0.063
		c-0.643,2.867,1.028,4.07,2.644,5.233c1.085,0.779,2.205,1.585,2.651,2.909c0.277,0.819-0.023,1.798-0.29,2.661
		c-0.282,0.921-0.549,1.792-0.125,2.411c0.292,0.425,0.875,0.663,1.779,0.726l0.065,0.006l0.032-0.463L8.3,32.52
		C7.545,32.466,7.078,32.295,6.87,31.993z"/>
	<path fill="#0E0F0F" d="M9.662,23.922c-0.518-0.918-1.13-0.932-1.496-0.939c-0.147-0.003-0.244-0.008-0.274-0.043
		c-0.053-0.066-0.12-0.325,0.045-1.329c0.07-0.417,0.33-0.885,0.582-1.34c0.394-0.71,0.803-1.444,0.561-2.11
		C8.929,17.737,8.542,17.41,7.9,17.16l-0.122-0.048l-0.167,0.425l0.122,0.048c0.513,0.2,0.813,0.439,0.918,0.731
		c0.168,0.47-0.17,1.083-0.531,1.735c-0.271,0.486-0.549,0.99-0.633,1.487c-0.165,0.991-0.15,1.45,0.053,1.693
		c0.165,0.198,0.404,0.203,0.615,0.208c0.337,0.007,0.718,0.016,1.106,0.705c0.422,0.763-0.072,2.597-0.553,4.375
		c-0.331,1.225-0.645,2.383-0.68,3.257l-0.007,0.129l0.458,0.02l0.005-0.131c0.035-0.822,0.341-1.957,0.666-3.162
		C9.654,26.771,10.172,24.847,9.662,23.922z"/>
	<polygon fill="#0E0F0F" points="17.454,54.206 19.956,54.206 19.956,60.191 32.144,60.191 32.144,54.206 34.646,54.206 
		34.646,50.451 17.454,50.451 	"/>
</g>
</svg>
