<?xml version="1.0" encoding="iso-8859-1"?>
<!-- Generator: Adobe Illustrator 16.0.0, SVG Export Plug-In . SVG Version: 6.00 Build 0)  -->
<!DOCTYPE svg PUBLIC "-//W3C//DTD SVG 1.1//EN" "http://www.w3.org/Graphics/SVG/1.1/DTD/svg11.dtd">
<svg version="1.1" id="Capa_1" xmlns="http://www.w3.org/2000/svg" xmlns:xlink="http://www.w3.org/1999/xlink" x="0px" y="0px"
	 width="500px" height="500px" viewBox="0 0 500 500" style="enable-background:new 0 0 500 500;" xml:space="preserve">
<g>
	<path style="fill-rule:evenodd;clip-rule:evenodd;" d="M398.793,378.073l8.765-8.764c-34.032-29.585-77.706-78.667-115.202-115.058
		c4.627-9.247,1.835-20.696-7.007-26.578c-40.439-26.865-55.751-46.149-73.473-68.485c-7.938-10.007-16.158-20.356-27.052-32.173
		c-1.001-1.09-2.092-2.036-3.245-2.854c-4.2-3.903-8.872-7.21-13.695-9.539c0,0-5.17-2.837-11.057-3.961
		c-5.634-1.073-12.173-1.113-12.173-1.113H144.5c-0.637,0.018-1.288,0.137-1.92,0.175c-0.472,0.021-0.929-0.039-1.402,0
		c-0.771,0.084-1.553,0.246-2.325,0.355c-0.823,0.104-1.622,0.211-2.444,0.357c-40.544,6.36-83.214,37.981-130.265,96.637
		c-7.187,8.959-5.752,22.042,3.206,29.225c3.838,3.076,8.435,4.572,13,4.572c6.086,0,12.117-2.661,16.225-7.78
		c20.211-25.188,37.911-42.843,53.247-55.232L74.75,257.525c-2.448,11.457,0.751,22.018,7.12,30.606l-5.375,82.018l-34.183,88.35
		c-5.265,13.627,1.513,28.963,15.133,34.223c3.143,1.208,6.373,1.788,9.548,1.788c10.607,0,20.623-6.429,24.683-16.918l35.633-92.14
		c0.965-2.503,1.546-5.134,1.725-7.804l3.131-47.737l31.441,49.67l26.036,95.287c3.154,11.824,13.854,19.641,25.547,19.641
		c2.256,0,4.548-0.285,6.83-0.906c14.116-3.751,22.509-18.243,18.751-32.371l-27.076-99.188c-0.683-2.591-1.772-5.067-3.206-7.327
		l-42.865-67.723c1.367-2.725,2.524-5.617,3.223-8.882l17.529-81.793c16.409,20.108,35.285,40.285,73.989,65.986
		c3.536,2.35,7.525,3.479,11.484,3.479c4.021,0,7.931-1.295,11.348-3.544C319.874,295.903,363.504,347.333,398.793,378.073z"/>
	<circle style="fill-rule:evenodd;clip-rule:evenodd;" cx="180.737" cy="59.036" r="53.546"/>
	<path style="fill-rule:evenodd;clip-rule:evenodd;" d="M344.034,384.218l-18.499-14.859c-4.182-3.357-10.297-2.695-13.659,1.489
		c-3.36,4.185-2.693,10.299,1.489,13.66l18.878,15.163v41.222c0,0.228,0.029,0.447,0.065,0.663l-16.618,31.936
		c-2.477,4.76-0.627,10.627,4.134,13.104c1.434,0.745,2.966,1.099,4.478,1.099c3.507,0,6.895-1.905,8.626-5.231l16.72-32.13
		l18.709,32.492c1.798,3.122,5.066,4.869,8.43,4.869c1.645,0,3.312-0.418,4.838-1.298c4.65-2.678,6.25-8.618,3.572-13.268
		l-16.325-28.349h60.462v33.196c0,5.365,4.351,9.716,9.717,9.716c5.365,0,9.716-4.351,9.716-9.716v-36.382
		c0.04-0.229,0.069-0.462,0.069-0.702v-30.726l-45.255-25.949H344.034z"/>
	<path style="fill-rule:evenodd;clip-rule:evenodd;" d="M473.982,364.469c-6.006-5.659-8.02-12.281-14.763-17.081
		c-1.174-0.835-2.361-1.682-3.615-2.391c-0.751-0.422-0.995-0.912-0.909-1.729c0.287-2.784,0.57-5.572,0.793-8.362
		c0.397-4.997-1.043-9.546-5.056-12.493c-1.612-1.184-9.561-5.033-13.021,8.138c-0.756,2.867-1.774,5.717-3.136,8.331
		c-5.001,9.604-11.342,18.375-17.416,27.313c-2.771,4.078-5.537,8.149-8.299,12.215l42.489,24.198c0,0,8.189-8.955,9.339-8.452
		c1.596,0.704,3.201,1.394,4.798,2.089c4.679,2.034,9.557,2.978,14.668,2.677c8.687-0.505,17.731-5.118,18.559-15.531
		C499.176,373.835,476.012,366.381,473.982,364.469z"/>
</g>
</svg>
