<?xml version="1.0" encoding="utf-8"?>
<!-- Generator: Adobe Illustrator 16.0.4, SVG Export Plug-In . SVG Version: 6.00 Build 0)  -->
<!DOCTYPE svg PUBLIC "-//W3C//DTD SVG 1.1//EN" "http://www.w3.org/Graphics/SVG/1.1/DTD/svg11.dtd">
<svg version="1.1" id="Capa_1" xmlns="http://www.w3.org/2000/svg" xmlns:xlink="http://www.w3.org/1999/xlink" x="0px" y="0px"
	 width="64px" height="64px" viewBox="0 0 64 64" enable-background="new 0 0 64 64" xml:space="preserve">
<path fill="#0E0F0F" d="M31.191,17.699c-0.164-0.106-0.787-0.027-0.935,0.021c-0.147,0.047-0.25,0.112-0.335,0.19
	c-0.173,0.152-0.325,0.286-0.474,0.407c-0.077,0.059-0.156,0.118-0.251,0.156c-0.094,0.043-0.204,0.065-0.324,0.062
	c-0.122,0-0.247-0.034-0.373-0.084c-0.127-0.048-0.258-0.105-0.418-0.15c0.036,0.163,0.117,0.3,0.223,0.419
	c0.106,0.119,0.231,0.227,0.378,0.327c0.148,0.096,0.324,0.175,0.517,0.216c0.192,0.038,0.398,0.042,0.591,0.002
	c0.393-0.076,0.71-0.295,0.94-0.546c0.118-0.125,0.283-0.457,0.283-0.457S31.191,17.843,31.191,17.699z M30.767,22.396l0.15,3.351
	l0.571-3.272l0.408,0.044l0.374-0.62l-2.062-0.183l0.179,0.619L30.767,22.396z M27.852,16.961c0-0.001,1.107-0.022,1.995-1.917
	c0,0.791,2.022,1.332,3.323,0.98c1.258-0.214,1.459,0.937,1.459,0.937c0-1.872-1.52-3.389-3.389-3.389
	C29.368,13.572,27.852,15.089,27.852,16.961z M33.184,19.263c0.193-0.041,0.369-0.12,0.52-0.216c0.146-0.1,0.271-0.208,0.379-0.327
	c0.104-0.119,0.188-0.257,0.229-0.419c-0.162,0.045-0.293,0.102-0.422,0.15c-0.127,0.05-0.252,0.084-0.373,0.084
	c-0.119,0.003-0.229-0.019-0.324-0.062c-0.096-0.038-0.174-0.097-0.25-0.156c-0.148-0.121-0.301-0.255-0.476-0.407
	c-0.085-0.079-0.19-0.144-0.335-0.19c-0.148-0.047-0.772-0.127-0.937-0.021c0,0.144,0.179,0.563,0.179,0.563
	s0.165,0.332,0.284,0.457c0.23,0.25,0.548,0.47,0.938,0.546C32.783,19.305,32.991,19.301,33.184,19.263z M45.365,31.423l-8.646-8.61
	c-0.105-0.106-0.219-0.198-0.338-0.275c-0.386-0.324-0.949-0.489-1.812-0.443l-3.655,4.06l-2.67-4.684
	c-1.256-0.212-2.213-0.39-2.213-0.39l-3.027-0.608l2.884-7.714c0.269-0.745,0.076-1.538-0.421-2.089l6.876-5.566
	c0.182-0.144,0.204-0.401,0.062-0.579l-3.783,1.01l-4.633,3.751l-0.373,0.729c-0.725,0.115-1.367,0.601-1.631,1.339l-3.648,9.831
	c-0.196,0.545-0.156,1.149,0.113,1.664c0.268,0.513,0.738,0.891,1.297,1.043l5.296,1.432l-0.014,33.795
	c0,1.386,1.204,2.508,2.628,2.508c1.425,0,2.418-1.122,2.418-2.508l0.019-17.562c0,0,0.082-0.891,0.99-0.896
	c0.907-0.014,0.884,0.854,0.884,0.854l0.014,17.56c0,1.386,1.13,2.511,2.56,2.511c1.421,0,2.593-1.125,2.593-2.511
	c-0.034-25.195,0.056-25.195,0.035-29.896l5.246,5.314c0.399,0.403,0.928,0.608,1.456,0.614H43.34v25.459h1.104V35.105h-0.529
	c0.521-0.004,1.038-0.201,1.438-0.599C46.163,33.704,46.171,32.24,45.365,31.423z M30.943,33.677c-0.406,0-0.736-0.325-0.736-0.731
	c0-0.404,0.33-0.733,0.736-0.733c0.406,0,0.734,0.329,0.734,0.733C31.677,33.352,31.349,33.678,30.943,33.677z M30.943,31.201
	c-0.406,0-0.736-0.329-0.736-0.734c0-0.406,0.33-0.734,0.736-0.734c0.406,0,0.734,0.329,0.734,0.734
	C31.677,30.873,31.349,31.201,30.943,31.201z M30.943,29.09c-0.406,0-0.736-0.329-0.736-0.734s0.33-0.734,0.736-0.734
	c0.406,0,0.734,0.329,0.734,0.734S31.349,29.09,30.943,29.09z M25.985,2.373l2.26,2.793l-4.504,3.645l-2.26-2.793L25.985,2.373z"/>
</svg>
