<?xml version="1.0" encoding="utf-8"?>
<!-- Generator: Adobe Illustrator 16.0.4, SVG Export Plug-In . SVG Version: 6.00 Build 0)  -->
<!DOCTYPE svg PUBLIC "-//W3C//DTD SVG 1.1//EN" "http://www.w3.org/Graphics/SVG/1.1/DTD/svg11.dtd">
<svg version="1.1" id="Capa_1" xmlns="http://www.w3.org/2000/svg" xmlns:xlink="http://www.w3.org/1999/xlink" x="0px" y="0px"
	 width="64px" height="64px" viewBox="0 0 64 64" enable-background="new 0 0 64 64" xml:space="preserve">
<g>
	<path fill="#0E0F0F" d="M35.811,42.652c0.069-0.057,0.127-0.116,0.191-0.176c0.271-0.088,0.539-0.203,0.799-0.373
		c3.408-2.209,5.022-4.166,7.042-7.766c1.362-2.434,3.249-5.727,4.034-8.441c3.303,1.536,4.275,1.536,8.027,1.9
		c1.578,0.153,3.049-1.475,2.986-2.988c-0.135-3.371-1.115-6.679-2.74-9.636c-0.371-0.678-0.879-1.095-1.437-1.307l1.81-1.433
		L54.281,9.61l-7.662,6.077l2.242,2.826l1.764-1.399c0.049,0.35,0.163,0.711,0.366,1.078c0.506,0.921,0.928,1.902,1.247,2.913
		c-2.141-0.624-4.176-1.563-6.159-2.63c0,0-2.36-1.083-5.263-1.43c-0.541-0.559-1.276-0.964-2.209-1.08
		c-6.437-0.802-12.852-0.408-19.13,1.212c-2.149,0.554-2.792,2.467-2.372,4.137c-1.592-0.493-3.546-0.783-5.688-0.783
		c-5.468,0-9.751,1.872-9.751,4.262c0,2.391,4.284,4.262,9.751,4.262c5.469,0,9.751-1.872,9.751-4.262
		c0-0.27-0.063-0.532-0.167-0.787c0.111-0.02,0.224-0.041,0.339-0.07c2.929-0.756,5.865-1.176,8.818-1.312
		c-2.849,2.358-5.542,5.322-6.152,8.426c-2.209-0.377-4.405-0.594-6.574-0.625h-0.055c-1.202,0-2.25,0.579-2.874,1.59
		c-0.679,1.102-0.736,2.518-0.146,3.693c1.863,3.71,3.648,7.008,5.597,10.017c-1.844,1.303-3.76,2.637-5.796,4.037
		c-1.356,0.937-1.892,2.506-1.396,4.1c0.48,1.543,1.749,2.582,3.155,2.582h0.001c0.64,0,1.271-0.213,1.874-0.627
		c1.928-1.325,4.082-2.821,6.358-4.441c0.179,0.208,0.35,0.424,0.534,0.63c0.667,0.748,1.491,1.146,2.383,1.146
		c1.343,0,2.654-0.91,3.261-2.27c0.558-1.242,0.372-2.591-0.475-3.652C31.831,45.753,33.835,44.223,35.811,42.652z M11.417,28.511
		c-4.991,0-9.208-1.703-9.208-3.719s4.217-3.718,9.208-3.718c2.228,0,4.299,0.341,5.913,0.896c0.525,1.188,1.624,2.111,3.106,2.087
		c0.124,0.239,0.189,0.484,0.189,0.735C20.625,26.809,16.408,28.511,11.417,28.511z M25.651,41.605
		c-0.679-1.064-1.363-2.211-2.067-3.476c1.612,0.312,3.257,0.743,4.958,1.29C27.593,40.152,26.628,40.881,25.651,41.605z"/>
	<circle fill="#0E0F0F" cx="43.396" cy="11.247" r="4.745"/>
	<path fill="#0E0F0F" d="M47.975,29.881C45.32,43.166,34.018,46.257,34.018,46.257l1.943,8.556l0.844,2.688h25.528V29.066
		L47.975,29.881z"/>
	<path fill="#0E0F0F" d="M4.424,26.212l6.205-1.57l-6.732-0.999C3.897,23.643,1.937,24.423,4.424,26.212z M6.585,24.609
		c0.147,0,0.267,0.067,0.267,0.15s-0.12,0.15-0.267,0.15c-0.148,0-0.268-0.067-0.268-0.15S6.437,24.609,6.585,24.609z M5.151,24.442
		c0.156,0,0.281,0.071,0.281,0.159s-0.125,0.158-0.281,0.158c-0.155,0-0.281-0.071-0.281-0.158S4.996,24.442,5.151,24.442z
		 M4.859,25.111c0.162,0,0.292,0.074,0.292,0.166c0,0.092-0.13,0.165-0.292,0.165c-0.163,0-0.293-0.073-0.293-0.165
		C4.565,25.185,4.696,25.111,4.859,25.111z"/>
	<path fill="#0E0F0F" d="M5.197,22.975l6.22,1.448l-2.508-2.625C8.909,21.798,5.964,22.229,5.197,22.975z M7.755,22.84
		c-0.163,0-0.295-0.082-0.295-0.181c0-0.1,0.132-0.181,0.295-0.181c0.162,0,0.293,0.081,0.293,0.181
		C8.049,22.758,7.917,22.84,7.755,22.84z M9.294,23.11c0.163,0,0.293,0.041,0.293,0.091c0,0.05-0.13,0.091-0.293,0.091
		S9,23.251,9,23.201C9,23.151,9.131,23.11,9.294,23.11z"/>
</g>
</svg>
