<?xml version="1.0" encoding="utf-8"?>
<!-- Generator: Adobe Illustrator 16.0.4, SVG Export Plug-In . SVG Version: 6.00 Build 0)  -->
<!DOCTYPE svg PUBLIC "-//W3C//DTD SVG 1.1//EN" "http://www.w3.org/Graphics/SVG/1.1/DTD/svg11.dtd">
<svg version="1.1" id="Capa_1" xmlns="http://www.w3.org/2000/svg" xmlns:xlink="http://www.w3.org/1999/xlink" x="0px" y="0px"
	 width="64px" height="64px" viewBox="0 0 64 64" enable-background="new 0 0 64 64" xml:space="preserve">
<g>
	<path fill="#0E0F0F" d="M51.896,22.333c-3.051-2.765-6.293-5.658-9.889-7.737c-0.859-0.737-1.896-1.305-3.054-1.683l-3.229,4.175
		c0,0-2.553-2.587-3.917-4.243c-1.39,0.419-2.612,1.104-3.584,2.024c-2.574,1.892-5.288,3.958-7.408,6.415
		c-1.148-1.011-2.333-1.986-3.249-3.2c-0.657-0.873-1.612-1.13-2.485-0.99l-2.083-4.993l-4.186,1.746l2.674,6.412l1.476-0.616
		c0.065,0.287,0.201,0.584,0.426,0.883c1.748,2.319,4.124,3.94,6,6.134c1.041,1.217,3.036,0.758,3.799-0.491
		c0.647-1.057,1.476-2.037,2.399-2.957c-0.41,3.83-1.099,10.998-1.186,16.595c-0.124,8.022,1.93,14.459,2.817,20.603
		c0.611,4.229,7.021,2.426,6.416-1.771c-0.562-3.897-0.229-7.83-0.362-11.769c0,0-1.029-3.879,1.994-4.282
		c3.022-0.402,2.071,4.278,2.071,4.278s0.2,7.87-0.362,11.771c-0.604,4.194,5.805,6,6.414,1.771
		c1.028-7.12,1.904-11.891,2.539-21.447c0.127-1.938,0.149-3.85,0.104-5.662c0.178-0.072,0.354-0.178,0.53-0.312
		c2.584-1.969,4.338-4.804,5.707-7.723C52.725,24.307,52.75,23.105,51.896,22.333z M37.383,22.43h5.041v5.178l-2.52,1.072
		l-2.521-1.072V22.43z M45.35,37.247H28.322v2.118h-1.766v-2.118h-1.157v-2.015h1.157v-2.318h1.766v2.318H45.35V37.247z
		 M45.643,27.227c-0.188-1.812-0.41-3.354-0.596-4.501c0.737,0.623,1.463,1.26,2.18,1.899
		C46.766,25.527,46.244,26.428,45.643,27.227z"/>
	<path fill="#0E0F0F" d="M35.172,11.902c2.984-0.303,5.156-2.965,4.854-5.947L29.224,7.049
		C29.528,10.032,32.189,12.205,35.172,11.902z"/>
	<polygon fill="#0E0F0F" points="40.35,4.906 40.35,1.178 27.507,1.178 29.579,4.906 26.555,6.2 	"/>
	<rect x="28.321" y="35.837" fill="#0E0F0F" width="16.422" height="0.806"/>
	<rect x="26.002" y="35.837" fill="#0E0F0F" width="0.552" height="0.806"/>
</g>
</svg>
