<?xml version="1.0" encoding="utf-8"?>
<!-- Generator: Adobe Illustrator 16.0.4, SVG Export Plug-In . SVG Version: 6.00 Build 0)  -->
<!DOCTYPE svg PUBLIC "-//W3C//DTD SVG 1.1//EN" "http://www.w3.org/Graphics/SVG/1.1/DTD/svg11.dtd">
<svg version="1.1" id="Capa_1" xmlns="http://www.w3.org/2000/svg" xmlns:xlink="http://www.w3.org/1999/xlink" x="0px" y="0px"
	 width="64px" height="64px" viewBox="0 0 64 64" enable-background="new 0 0 64 64" xml:space="preserve">
<g>
	<path fill="#0E0F0F" d="M39.93,25.503c-0.041-0.072-0.084-0.141-0.127-0.206c-0.27-2.645-1.814-4.541-4.246-5.212
		c-1.008-0.276-2.205-0.241-3.333,0.093c-0.006-0.003-0.013-0.007-0.018-0.012c-5.2-3.271-9.677-6.517-13.684-9.922l-0.3-0.254
		l-0.854,0.854l-1.955-1.918c-1.026-1.008-2.676-0.994-3.681,0.033c-1.009,1.027-0.996,2.676,0.031,3.685l1.923,1.887l-0.694,0.694
		l0.352,0.298c4.4,3.736,9.292,7.321,14.544,10.658c-0.106,0.582-0.229,1.178-0.36,1.784c-0.216-0.42-0.68-0.717-1.151-0.717
		c-0.729,0-1.232,0.583-1.277,1.278c-0.021,0.336,0.024,0.646,0.096,0.949c-0.726-0.534-1.415-1.345-1.854-1.746
		c-1.213-1.109-3.024,0.692-1.806,1.806c0.427,0.39,0.875,0.824,1.348,1.24c-3.342-1.129-6.791-2.21-10.432-2.339l-0.111-0.002
		c-0.929,0-1.862,0.414-2.557,1.136c-0.692,0.717-1.069,1.659-1.036,2.581c0.144,4.012,1.234,7.936,3.533,12.725l0.2,0.416
		l1.059-0.621l1.379,2.34c0.73,1.24,2.328,1.652,3.566,0.923c1.24-0.73,1.653-2.328,0.923-3.566l-1.372-2.328l0.818-0.48
		l-0.17-0.352c-0.809-1.688-1.41-3.229-1.827-4.688c4.067,1.032,12.125,3.832,15.545,5.039l0.641,0.221l0.126-0.424
		c0.562-1.885,0.952-3.443,1.214-4.867c0.035-0.006,0.072-0.01,0.106-0.018c-0.424,3.12-1.426,6.239-2.402,9.276l-0.504,1.576
		l1.095,0.303l-0.607,2.572c-0.332,1.399,0.536,2.805,1.934,3.135c1.403,0.33,2.807-0.535,3.139-1.937l0.562-2.385l0.994,0.275
		l0.318-0.996C41.361,40.934,44.021,32.592,39.93,25.503z M32.477,40.682c-3.759-1.326-12.384-4.312-16.124-5.16l-0.677-0.153
		l0.169,0.672c0.405,1.617,1.028,3.313,1.902,5.181l-4.899,2.868c-2.11-4.487-3.116-8.194-3.252-11.969
		c-0.024-0.693,0.266-1.406,0.798-1.957c0.537-0.557,1.247-0.875,1.945-0.875l0.081,0.001c3.859,0.137,7.553,1.396,11.126,2.611
		c1.038,0.355,2.109,0.719,3.174,1.053l0.424,0.135l0.03-0.113c2.063,1.185,3.907,3.313,6.335,3.525
		C33.275,37.738,32.941,39.088,32.477,40.682z M38.203,48.033l-0.07,0.215l-5.472-1.512l0.233-0.73
		c1.109-3.451,2.246-7.012,2.561-10.605c0.02-0.104,0.025-0.209,0.021-0.313c0.021-0.28,0.049-0.563,0.059-0.846l0.027-0.755
		l-0.658,0.369c-0.078,0.043-0.146,0.095-0.221,0.142c-0.131-0.035-0.271-0.056-0.432-0.041c-2.225,0.172-4.169-2.297-6.051-3.326
		c-0.058-0.254-0.144-0.504-0.234-0.748c0.324-1.356,0.59-2.611,0.809-3.831l0.051-0.282l-0.241-0.154
		c-5.17-3.27-9.992-6.782-14.34-10.442l4.021-4.025c3.963,3.341,8.378,6.529,13.483,9.741c0.035,0.022,0.067,0.045,0.099,0.069
		l0.23,0.163l0.205-0.067c1.026-0.341,2.139-0.396,3.045-0.146c2.104,0.581,3.43,2.25,3.635,4.577l0.011,0.113l0.063,0.093
		c0.053,0.076,0.104,0.154,0.153,0.239C43.098,32.693,40.496,40.842,38.203,48.033z"/>
	<circle fill="#0E0F0F" cx="40.729" cy="15.742" r="5.575"/>
	<path fill="#0E0F0F" d="M57.158,46.715l-2.418-1.471l0.682-1.17l-0.391-0.207c-4.404-2.332-8.506-4.285-12.539-5.969l-0.49-0.203
		l-0.094,0.521c-0.332,1.859-0.836,3.882-1.59,6.357l-0.111,0.364l0.354,0.15c3.463,1.479,6.988,3.174,10.777,5.18l0.361,0.191
		l0.416-0.715l2.334,1.42c1.227,0.748,2.83,0.357,3.578-0.869C58.775,49.066,58.387,47.463,57.158,46.715z M51.375,49.326
		c-3.547-1.867-6.867-3.465-10.131-4.871c0.635-2.117,1.086-3.91,1.404-5.566c3.733,1.578,7.535,3.389,11.592,5.523L51.375,49.326z"
		/>
</g>
</svg>
