<?xml version="1.0" encoding="utf-8"?>
<!-- Generator: Adobe Illustrator 16.0.4, SVG Export Plug-In . SVG Version: 6.00 Build 0)  -->
<!DOCTYPE svg PUBLIC "-//W3C//DTD SVG 1.1//EN" "http://www.w3.org/Graphics/SVG/1.1/DTD/svg11.dtd">
<svg version="1.1" id="Capa_1" xmlns="http://www.w3.org/2000/svg" xmlns:xlink="http://www.w3.org/1999/xlink" x="0px" y="0px"
	 width="64px" height="64px" viewBox="0 0 64 64" enable-background="new 0 0 64 64" xml:space="preserve">
<g>
	<circle fill="#0F1011" cx="32.116" cy="9.221" r="5.053"/>
	<path fill="#0F1011" d="M45.807,25.326c-3.771-2.396-6.955-5.649-10.717-8.062c-0.888-0.732-2.025-1.172-3.265-1.172
		c-0.079,0-0.154,0.008-0.232,0.012c-0.226-0.019-0.46-0.018-0.712,0.03c-4.959,0.936-8.332,5.053-12.707,7.218
		c-2.804,1.388-0.346,5.571,2.448,4.188c2.146-1.062,4.061-2.708,6.073-4.126v8.899c-1.79-0.519-3.605-0.623-5.407,0.161
		c-1.998,0.87-2.513,4.506-2.951,6.321c-0.706,2.915-0.875,5.952-1.676,8.831c-1.05,3.772,4.801,5.373,5.847,1.61
		c1.018-3.656,1.25-7.465,2.297-11.135c0.703,0.207,1.386,0.512,2.042,0.808c1.355,0.612,2.653,1.349,3.992,1.991
		c0,5.543,0,11.084,0,16.627c0,3.91,6.063,3.91,6.063,0c0-7.416,0-14.832,0-22.248c0.033-0.231,0.055-0.467,0.055-0.707v-9.885
		c2.09,1.668,4.141,3.39,6.402,4.828C46.006,31.2,48.438,27,45.807,25.326z"/>
</g>
</svg>
