<?xml version="1.0" encoding="utf-8"?>
<!-- Generator: Adobe Illustrator 16.0.4, SVG Export Plug-In . SVG Version: 6.00 Build 0)  -->
<!DOCTYPE svg PUBLIC "-//W3C//DTD SVG 1.1//EN" "http://www.w3.org/Graphics/SVG/1.1/DTD/svg11.dtd">
<svg version="1.1" id="Capa_1" xmlns="http://www.w3.org/2000/svg" xmlns:xlink="http://www.w3.org/1999/xlink" x="0px" y="0px"
	 width="64px" height="64px" viewBox="0 0 64 64" enable-background="new 0 0 64 64" xml:space="preserve">
<g>
	<path fill="#0F1011" d="M29.704,34.744c0-0.689,0.288-1.312,0.746-1.762l-0.15-1.927c-0.035-0.451-0.431-0.787-0.882-0.753
		c-0.449,0.036-0.787,0.431-0.752,0.881l0.513,6.521c-2.768,3.165-2.293,14.313-2.126,17.11c-1.425-0.849-2.912-1.1-4.428-0.75
		c-4.312,0.998-7.354,6.483-7.481,6.718l0.542,0.297c0.029-0.056,3.033-5.476,7.078-6.411c1.527-0.354,3.025-0.02,4.458,0.995
		l0.535,0.378l-0.048-0.652c-0.293-3.934-0.466-13.459,1.542-16.763l0.687,8.731c0.035,0.449,0.431,0.787,0.881,0.752
		c0.451-0.036,0.788-0.43,0.753-0.881L30.746,36.75C30.118,36.307,29.704,35.574,29.704,34.744z"/>
	<path fill="#0F1011" d="M34.404,35.77c-0.319,0.701-0.955,1.228-1.729,1.389l-0.648,10.145c-0.027,0.422,0.317,0.789,0.77,0.818
		c0.452,0.027,0.839-0.291,0.865-0.715L34.404,35.77z"/>
	<path fill="#0F1011" d="M32.996,32.14l-0.02,0.285c0.739,0.261,1.312,0.854,1.541,1.604l0.113-1.785
		c0.027-0.423-0.316-0.789-0.768-0.818C33.411,31.397,33.023,31.716,32.996,32.14z"/>
	<path fill="#0F1011" d="M30.429,29.294l1.59-1.371c0.182-0.158,0.202-0.434,0.044-0.617c-0.157-0.184-0.433-0.202-0.616-0.045
		l-1.589,1.372c-0.183,0.158-0.203,0.434-0.045,0.618C29.972,29.434,30.248,29.453,30.429,29.294z"/>
	<path fill="#0F1011" d="M35.843,29.152c0.212,0.111,0.478,0.03,0.591-0.185c0.11-0.212,0.027-0.477-0.187-0.589l-1.856-0.977
		c-0.215-0.112-0.479-0.03-0.591,0.184c-0.112,0.214-0.03,0.478,0.185,0.59L35.843,29.152z"/>
	<circle fill="#0F1011" cx="32.027" cy="34.744" r="1.742"/>
	<path fill="#0F1011" d="M47.553,43.58c-0.658-3.241,1.088-6.52,1.606-9.779c0.87-1.015,1.241-2.467,0.473-3.986
		c-2.188-4.321-5.501-7.7-8.571-11.384c-2.471-2.963-6.396,0.181-5.815,3.333c-1.99,0.009-3.954-0.195-5.539-1.214
		c-0.246-0.158-0.491-0.249-0.729-0.288l-1.095-2.898l1.107-0.419L24.216,3.828c0,0-2.905-1.791-3.764,1.421
		c0.861,2.336,4.771,13.119,4.771,13.119l1.107-0.419l1.085,2.872c-0.751,0.783-0.926,2.163,0.255,2.923
		c2.988,1.922,6.594,1.748,10.053,1.682c1.52,1.767,3.006,3.51,4.289,5.439c-1.469,1.255-2.849,2.585-4,4.156l0.521-3.735
		c0.062-0.448-0.252-0.863-0.699-0.926c-0.447-0.061-0.863,0.252-0.926,0.7l-1.176,8.456c-0.881,2.653-1.289,5.529-1.984,8.156
		c-0.785,2.952,3.777,4.204,4.562,1.258c0.912-3.437,1.311-7.168,2.998-10.342c0.703-1.324,1.738-2.458,2.89-3.488
		c-0.634,2.856-1.806,5.573-1.384,8.631c0.332,2.381,1.024,4.72,1.83,6.981c1.016,2.854,5.586,1.624,4.563-1.259
		C48.525,47.537,47.958,45.573,47.553,43.58z"/>
	<path fill="#0F1011" d="M31.894,13.827c0.019,0.205,0.052,0.411,0.107,0.616c0.037,0.134,0.083,0.264,0.134,0.39l-1.025,0.846
		c-0.087,0.072-0.101,0.199-0.029,0.287c0.082,0.1,1.804,2.184,3.407,1.746c0.216-0.058,0.425-0.161,0.631-0.319
		c0.02-0.013,0.033-0.032,0.047-0.051l0.184-0.281c0.336,0.008,0.68-0.03,1.021-0.123c1.894-0.52,3.01-2.474,2.493-4.368
		c-0.518-1.894-2.475-3.01-4.366-2.494c-1.458,0.399-2.451,1.649-2.598,3.067l-1.85,0.505l0.174,0.636L31.894,13.827z M34.891,17.02
		l-0.048,0.072c-0.547,0.404-1.179,0.298-1.749,0.014l0.491-0.564C33.982,16.783,34.425,16.947,34.891,17.02z M33.249,16.309
		l-0.481,0.554c-0.014,0.012-0.022,0.026-0.029,0.041c-0.543-0.348-0.997-0.809-1.209-1.044l0.785-0.648
		C32.551,15.645,32.871,16.016,33.249,16.309z"/>
</g>
</svg>
