<?xml version="1.0" encoding="utf-8"?>
<!-- Generator: Adobe Illustrator 16.0.4, SVG Export Plug-In . SVG Version: 6.00 Build 0)  -->
<!DOCTYPE svg PUBLIC "-//W3C//DTD SVG 1.1//EN" "http://www.w3.org/Graphics/SVG/1.1/DTD/svg11.dtd">
<svg version="1.1" id="Capa_1" xmlns="http://www.w3.org/2000/svg" xmlns:xlink="http://www.w3.org/1999/xlink" x="0px" y="0px"
	 width="64px" height="64px" viewBox="0 0 64 64" enable-background="new 0 0 64 64" xml:space="preserve">
<g>
	<circle fill="#0E0F0F" cx="33.459" cy="10.583" r="5.708"/>
	<path fill="#0E0F0F" d="M49.781,55.338c-2.371,0.189-4.359,1.309-4.359,1.309L30.707,36.812c0.752-0.715,1.176-1.775,0.867-3.074
		c-0.93-3.931-1.402-7.914-1.754-11.92c1.031-1.733,0.4-4.083-0.943-5.532c-0.494-0.667-1.217-1.095-1.991-1.28
		c-2.207-0.738-4.357,0.349-5.761,2.22c-3.923,5.231-7.846,10.461-11.769,15.692c-1.102,1.469-0.839,3.5,0.114,5.023
		c-0.002,0.052-0.008,0.101-0.008,0.15c0,5.958,0,11.914,0,17.871c0,4.217,6.538,4.217,6.538,0c0-5.479,0-10.956,0-16.436
		c0.696-0.426,1.326-1.012,1.85-1.709c2.096-2.795,4.19-5.588,6.287-8.381c0.298,2.025,0.661,4.042,1.135,6.04
		c0.559,2.358,2.882,2.781,4.57,1.938l14.709,21.189h5.23C49.781,58.604,52.15,55.146,49.781,55.338z"/>
	<circle fill="#0E0F0F" cx="51.656" cy="51.605" r="2.31"/>
</g>
</svg>
