<?xml version="1.0" encoding="utf-8"?>
<!-- Generator: Adobe Illustrator 16.0.4, SVG Export Plug-In . SVG Version: 6.00 Build 0)  -->
<!DOCTYPE svg PUBLIC "-//W3C//DTD SVG 1.1//EN" "http://www.w3.org/Graphics/SVG/1.1/DTD/svg11.dtd">
<svg version="1.1" id="Capa_1" xmlns="http://www.w3.org/2000/svg" xmlns:xlink="http://www.w3.org/1999/xlink" x="0px" y="0px"
	 width="64px" height="64px" viewBox="0 0 64 64" enable-background="new 0 0 64 64" xml:space="preserve">
<g>
	<path fill="#0E0F0F" d="M41.74,19.337c-1.452-0.541-2.807-1.252-4.211-1.899c-0.297-0.136-0.59-0.257-0.885-0.37l-0.018-0.089
		l-3.354-1.894V11.33l-11.821,3.449l2.685,4.403L21.958,38.1h1.52c-4.282,6.53-6.12,13.688-4.853,21.856
		c0.71,4.591,7.669,2.635,6.964-1.92c-0.96-6.19,0.86-11.839,4.37-16.763c1.326,6.115,2.85,12.181,4.555,18.199
		c1.269,4.475,8.234,2.57,6.965-1.918c-1.821-6.433-3.437-12.914-4.821-19.455h4.137l-1.396-7.067
		c-1.015,0.595-2.064,1.143-3.162,1.608c-0.777,0.332-1.598,0.506-2.366,0.506c-1.686,0-3.083-0.799-3.932-2.25
		c-0.666-1.137-0.804-2.679-0.36-4.023c0.383-1.156,1.152-2.031,2.166-2.462c0.47-0.2,1.137-0.541,1.73-0.856
		c0.352,0.108,0.699,0.23,1.047,0.369c-0.707,0.608-1.482,1.148-2.425,1.553c-1.81,0.778-2.198,3.403-1.296,4.942
		c1.084,1.852,3.134,2.072,4.941,1.294c3.257-1.398,5.042-4.071,7.592-6.342C45.529,23.42,44.105,20.216,41.74,19.337z"/>
	<path fill="#0E0F0F" d="M21.114,9.33c-0.107,1.223,0.797,2.298,2.018,2.405c1.224,0.106,2.3-0.796,2.406-2.018l1.146,0.1
		l1.958,0.274l0.42,0.038l0.093-1.079l-8.368-0.833l-0.093,1.079L21.114,9.33z"/>
	<path fill="#0E0F0F" d="M29.862,3.655c0,0,0.001-1.82-1.432-1.944c-0.375-0.033-0.729,0.164-0.994,0.504
		c-0.001,0.001-0.751,0.55-1.306-0.115c-0.014-0.015-0.027-0.029-0.042-0.042C25.886,1.7,25.58,1.461,25.219,1.43
		c-1.435-0.125-1.746,1.667-1.746,1.667L23.084,5.41l6.758,0.591L29.862,3.655z"/>
	<path fill="#0E0F0F" d="M19.002,7.374l14.523,1.267c0.27,0.022,0.506-0.175,0.526-0.441L29.94,6.61l-7.03-0.615l-4.351,0.851
		C18.533,7.115,18.734,7.349,19.002,7.374z"/>
</g>
</svg>
