<?xml version="1.0" encoding="utf-8"?>
<!-- Generator: Adobe Illustrator 16.0.4, SVG Export Plug-In . SVG Version: 6.00 Build 0)  -->
<!DOCTYPE svg PUBLIC "-//W3C//DTD SVG 1.1//EN" "http://www.w3.org/Graphics/SVG/1.1/DTD/svg11.dtd">
<svg version="1.1" id="Capa_1" xmlns="http://www.w3.org/2000/svg" xmlns:xlink="http://www.w3.org/1999/xlink" x="0px" y="0px"
	 width="64px" height="64px" viewBox="0 0 64 64" enable-background="new 0 0 64 64" xml:space="preserve">
<g>
	<circle fill="#0E0F0F" cx="23.06" cy="15.482" r="3.962"/>
	<path fill="#0E0F0F" d="M42.509,4.713l-0.094,0.004c-1.711,0.164-5.538,7.638-7.155,17.634c-0.674,0.483-1.377,0.927-2.101,1.333
		c-1.539-0.494-3.006-1.276-4.025-2.548c-0.236-0.296-0.502-0.469-0.775-0.562v-0.018c-0.033-0.006-0.076-0.014-0.113-0.021
		c-0.039-0.009-0.079-0.016-0.118-0.022c-2.142-0.395-8.081-0.946-10.808,0.423c-0.013,0.014-0.019,0.031-0.031,0.045
		c-0.185,0.07-0.366,0.161-0.541,0.297c-1.624,1.273-2.711,3.033-3.565,4.885c-0.512,1.108-1.303,2.599-1.303,3.87
		c0,1.244,0.967,2.705,1.526,3.751c1.017,1.903,2.431,3.594,4.253,4.762l-0.007,2.408V56.18c0,1.252,0.916,2.266,2.203,2.266
		s2.33-1.014,2.33-2.266V40.318c0,0,0.075-0.805,0.895-0.813c0.819-0.01,0.798,0.771,0.798,0.771v15.859
		c0,1.25,1.044,2.266,2.331,2.266c1.286,0,2.329-1.016,2.329-2.266l0.076-16.365c0-0.152,0.017-11.062,0.021-13.97l-0.006-0.11
		c1.304,0.848,2.806,1.441,4.258,1.824c0.621,0.164,1.229-0.051,1.799-0.356c-0.119,1.527-0.182,3.089-0.168,4.676
		c0.104,13.143,2.935,27.111,7.976,27.111c5.165,0,8.187-9.625,8.504-27.117C50.994,17.606,44.887,4.713,42.509,4.713z
		 M15.683,29.801C15.643,29.61,15.685,29.607,15.683,29.801L15.683,29.801z M17.67,33.486c-0.373-0.502-0.707-1.041-1.025-1.595
		c-0.302-0.53-0.557-1.086-0.808-1.642c-0.049-0.111-0.083-0.205-0.109-0.286c0.432-1.48,1.062-2.949,1.963-4.207L17.67,33.486z
		 M42.49,57.371c-2.532,0-6.27-9.098-6.397-25.547c-0.026-3.345,0.255-6.485,0.718-9.344l0.476-1.813
		c-0.06,0.056-0.121,0.106-0.181,0.162c1.508-7.832,4.289-13.244,5.412-14.405c1.562,1.582,6.899,11.859,6.899,25.393
		C49.074,50.656,45.613,57.371,42.49,57.371z"/>
</g>
</svg>
