<?xml version="1.0" encoding="utf-8"?>
<!-- Generator: Adobe Illustrator 16.0.4, SVG Export Plug-In . SVG Version: 6.00 Build 0)  -->
<!DOCTYPE svg PUBLIC "-//W3C//DTD SVG 1.1//EN" "http://www.w3.org/Graphics/SVG/1.1/DTD/svg11.dtd">
<svg version="1.1" id="Capa_1" xmlns="http://www.w3.org/2000/svg" xmlns:xlink="http://www.w3.org/1999/xlink" x="0px" y="0px"
	 width="64px" height="64px" viewBox="0 0 64 64" enable-background="new 0 0 64 64" xml:space="preserve">
<path fill="#0E0F0F" d="M51.902,37.713c2.891,0,5.234,2.344,5.234,5.234s-2.344,5.234-5.234,5.234s-5.234-2.344-5.234-5.234
	S49.012,37.713,51.902,37.713z M30.576,37.142l-4.754-4.751l1.614-1.616l4.754,4.752L30.576,37.142z M62.154,51.902
	c-1.36-2.659-2.725-5.32-4.086-7.98c-0.075,2.133-1.235,3.988-2.948,5.034c0.298,0.583,0.596,1.165,0.894,1.746
	c-2.623,0-5.246,0-7.869,0c0.02-0.329,0.004-0.657-0.028-0.984c0.112-0.668-0.019-1.396-0.524-2.05
	c-0.195-0.255-0.404-0.496-0.605-0.745c-0.035-0.041-0.067-0.083-0.104-0.124c-3.288-3.994-7.251-7.309-11.69-9.984
	c-2.729-1.645-5.202,2.617-2.483,4.254c2.028,1.228,3.925,2.601,5.69,4.109L23.47,45.193c-1.528-1.381-3.057-2.76-4.584-4.143
	c-0.944-0.854-2.566-1.048-3.483,0c-2.396,2.735-4.79,5.477-7.184,8.209c-0.394,0.45-0.587,0.938-0.632,1.422
	c-1.216,0-2.432,0-3.649,0c-3.177,0-3.177,4.928,0,4.928c6.244,0,12.486,0,18.728,0v0.022l20.393,0.013
	c0.121,0,0.235-0.013,0.354-0.018c5.45,0,10.903,0,16.354,0c0.041,0.001,0.078,0.001,0.113,0c0.043,0,0.09,0,0.133,0
	c1.248,0,1.998-0.762,2.268-1.688C62.518,53.344,62.531,52.636,62.154,51.902z M13.504,50.682c1.28-1.463,2.56-2.926,3.841-4.389
	c1.473,1.33,2.945,2.659,4.417,3.989c0.193,0.174,0.394,0.298,0.597,0.399C19.407,50.682,16.456,50.682,13.504,50.682z
	 M13.21,26.105h-2.772v1.54h13.547v-1.54h-2.771v-1.733h9.544V7.994H4.589v16.377h8.621V26.105z M19.366,25.181h-4.311v-0.81h4.311
	V25.181z M13.209,22.524H6.435V9.841h22.476v12.683h-7.697H13.209z"/>
</svg>
