<?xml version="1.0" encoding="utf-8"?>
<!-- Generator: Adobe Illustrator 16.0.4, SVG Export Plug-In . SVG Version: 6.00 Build 0)  -->
<!DOCTYPE svg PUBLIC "-//W3C//DTD SVG 1.1//EN" "http://www.w3.org/Graphics/SVG/1.1/DTD/svg11.dtd">
<svg version="1.1" id="Capa_1" xmlns="http://www.w3.org/2000/svg" xmlns:xlink="http://www.w3.org/1999/xlink" x="0px" y="0px"
	 width="64px" height="64px" viewBox="0 0 64 64" enable-background="new 0 0 64 64" xml:space="preserve">
<g>
	<path fill="#0E0F0F" d="M48.501,32.678l-3.829-8.27l4.52-0.956l-4.45-1.878l4.45-1.552H44.74v-4.705l-3.871,3.226l-1.393-3.731
		l-1.593,6.762l-2.979,0.443l1.738,1.396c-0.356-0.174-0.783-0.269-1.297-0.225c-1.964,0.169-5.473,0.935-7.178-0.505
		c-1.119-0.944-2.052-2.158-2.957-3.396l0.351-1.189c0.795-2.685-0.738-5.506-3.424-6.3c-2.685-0.794-5.505,0.739-6.3,3.424
		l-5.006,16.926c-0.567,1.915,0.054,3.893,1.427,5.163c-0.147,0.369-0.234,0.789-0.234,1.269c0,6.467,0,12.935,0,19.396
		c0,4.268,6.612,4.268,6.612,0c0-6.463,0-12.931,0-19.396c0-0.289-0.032-0.556-0.088-0.806c0.932-0.635,1.661-1.584,2.005-2.75
		l2.851-9.64c0.569,0.625,1.172,1.205,1.843,1.696c2.85,2.095,6.789,1.683,10.095,1.399c1.687-0.146,2.537-1.542,2.541-2.865
		c0.003-0.605-0.183-1.188-0.534-1.635l0.534,0.43v1.205v0.001v2.636l5.244-3.842l3.705,7.685l0.664,0.586H39.74
		c0,0-1.15,10.748,11.076,10.748l3.141,1.049V32.678H48.501z"/>
	<circle fill="#0E0F0F" cx="25.772" cy="6.752" r="4.524"/>
</g>
</svg>
