<?xml version="1.0" encoding="utf-8"?>
<!-- Generator: Adobe Illustrator 16.0.4, SVG Export Plug-In . SVG Version: 6.00 Build 0)  -->
<!DOCTYPE svg PUBLIC "-//W3C//DTD SVG 1.1//EN" "http://www.w3.org/Graphics/SVG/1.1/DTD/svg11.dtd">
<svg version="1.1" id="Capa_1" xmlns="http://www.w3.org/2000/svg" xmlns:xlink="http://www.w3.org/1999/xlink" x="0px" y="0px"
	 width="64px" height="64px" viewBox="0 0 64 64" enable-background="new 0 0 64 64" xml:space="preserve">
<g>
	<circle fill="#0E0F0F" cx="29.137" cy="8.343" r="6.075"/>
	<circle fill="#0E0F0F" cx="48.549" cy="25.09" r="3.758"/>
	<path fill="#0E0F0F" d="M34.584,20.214l-0.002-0.001c-0.139-0.129-0.354-0.123-0.482,0.015l-0.021,0.022
		c-0.289,0.309-0.57,0.625-0.849,0.944c-0.277,0.32-0.549,0.646-0.816,0.974l-0.016,0.02c-0.11,0.135-0.104,0.334,0.021,0.463
		c0.252,0.26,0.505,0.483,0.781,0.699c0.272,0.212,0.562,0.41,0.87,0.576c0.308,0.166,0.64,0.305,0.988,0.374
		c0.284,0.061,0.596,0.063,0.866-0.031c0.037,0.057,0.082,0.11,0.132,0.157h-1.533v0.006h-2.492c-0.213,0-0.385,0.172-0.385,0.385
		v1.85c0,0.212,0.172,0.385,0.385,0.385h2.963h0.633h2.818h1.039h1.961c0.213,0,0.385-0.172,0.385-0.385v-1.85
		c0-0.212-0.172-0.385-0.385-0.385h-2.43v-0.006h-1.363c0.082-0.079,0.146-0.172,0.197-0.277c0.273,0.006,0.555-0.032,0.822-0.11
		c0.328-0.094,0.645-0.236,0.938-0.414c0.293-0.175,0.564-0.381,0.82-0.609c0.129-0.112,0.25-0.231,0.365-0.356
		c0.119-0.127,0.229-0.248,0.344-0.4c0.102-0.137,0.088-0.332-0.039-0.452l-0.021-0.019c-0.309-0.29-0.627-0.572-0.945-0.85
		c-0.32-0.278-0.645-0.549-0.975-0.817l-0.018-0.014c-0.148-0.121-0.367-0.101-0.492,0.046c-0.398,0.467-0.783,0.943-1.15,1.437
		c-0.186,0.246-0.367,0.496-0.539,0.75c-0.059,0.083-0.115,0.167-0.17,0.251c-0.15-0.196-0.307-0.387-0.469-0.572
		c-0.184-0.211-0.367-0.421-0.562-0.625c-0.188-0.204-0.383-0.405-0.578-0.601C34.982,20.599,34.785,20.405,34.584,20.214z
		 M37.184,22.547c0.236-0.199,0.467-0.403,0.693-0.611c0.363-0.332,0.713-0.677,1.057-1.028c0.232,0.207,0.465,0.412,0.699,0.613
		c0.24,0.205,0.484,0.405,0.73,0.603c-0.025,0.033-0.049,0.065-0.074,0.098c-0.096,0.121-0.195,0.24-0.297,0.357
		c-0.207,0.232-0.426,0.453-0.664,0.656c-0.236,0.201-0.488,0.388-0.762,0.544c-0.215,0.121-0.445,0.224-0.689,0.302
		c0.037-0.099,0.057-0.204,0.057-0.315c0-0.507-0.41-0.918-0.918-0.918h-0.199C36.941,22.751,37.062,22.65,37.184,22.547z
		 M38.416,24.734c0.02,0.059,0.029,0.121,0.029,0.186v1.825h-2.818V24.92c0-0.065,0.012-0.127,0.031-0.186H38.416z M36.135,22.235
		c0.207,0.136,0.418,0.266,0.633,0.391c-0.049,0.075-0.098,0.151-0.146,0.228c-0.474,0.036-0.847,0.431-0.847,0.914
		c0,0.159,0.041,0.309,0.111,0.44c-0.263-0.009-0.509-0.09-0.736-0.195c-0.284-0.138-0.549-0.317-0.801-0.515
		c-0.254-0.197-0.492-0.414-0.726-0.638c-0.147-0.145-0.299-0.299-0.438-0.451c0.211-0.236,0.422-0.473,0.627-0.714
		c0.201-0.236,0.397-0.476,0.592-0.718c0.121,0.096,0.242,0.193,0.367,0.287c0.222,0.17,0.442,0.335,0.672,0.497
		C35.67,21.924,35.9,22.08,36.135,22.235z"/>
	<path fill="#0E0F0F" d="M39.615,33.322h1.193c0.211,0,0.383-0.172,0.383-0.385v-5.09c0-0.213-0.172-0.385-0.383-0.385h-1.297
		h-1.145H35.55h-0.528h-2.131c-0.211,0-0.384,0.171-0.384,0.385v0.539c-1.654-1.55-3.165-3.226-4.535-5.02
		c1.424-2.222,1.563-4.99-0.506-7.034c-1.94-1.915-5.837-2.28-7.689,0.041c-6.153,7.71-9.201,13.756-7.708,23.58
		c1.012-0.689,1.581-0.217,1.883,0.771c0,5.971,0,11.941,0,17.914c0,4.125,6.396,4.125,6.396,0c0-5.807,0-11.607,0-17.414
		c0.393-1.051,1.062-1.721,2.173-1.461c-0.561-3.689,0.249-7.403,1.853-10.761c2.305,2.695,4.891,5.144,7.79,7.361
		c2.384,1.823,4.712-0.621,4.564-3.039h2.887V33.322z M38.369,33.018h-1.672c-0.113-0.742-0.473-1.46-1.146-2.039V27.77h2.818
		V33.018z"/>
	<path fill="#0E0F0F" d="M45.814,32.963c0,0.188,0,0.371,0,0.557c-2.041,1.071-4.197,1.883-6.496,2.356
		c-2.463,0.508-2.188,4.459,0.311,3.942c2.162-0.444,4.217-1.09,6.186-1.942c0,2.965,0,5.931,0,8.896
		c0,1.317,0.654,2.213,1.545,2.688c0,3.42,0,6.842,0,10.263c0,2.551,3.955,2.551,3.955,0c0-3.576,0-7.152,0-10.729
		c0.539-0.515,0.896-1.252,0.896-2.222c0-4.604,0-9.205,0-13.809C52.211,28.839,45.814,28.839,45.814,32.963z"/>
</g>
</svg>
