<?xml version="1.0" encoding="utf-8"?>
<!-- Generator: Adobe Illustrator 16.0.4, SVG Export Plug-In . SVG Version: 6.00 Build 0)  -->
<!DOCTYPE svg PUBLIC "-//W3C//DTD SVG 1.1//EN" "http://www.w3.org/Graphics/SVG/1.1/DTD/svg11.dtd">
<svg version="1.1" id="Capa_1" xmlns="http://www.w3.org/2000/svg" xmlns:xlink="http://www.w3.org/1999/xlink" x="0px" y="0px"
	 width="64px" height="64px" viewBox="0 0 64 64" enable-background="new 0 0 64 64" xml:space="preserve">
<g>
	<circle fill="#0E0F0F" cx="18.517" cy="6.764" r="5.108"/>
	<path fill="#0E0F0F" d="M38.955,24.566c-6.815-1.027-12.04-4.779-16.023-10.313c-0.592-0.822-1.428-1.143-2.241-1.114
		c-1.91-0.635-4.129-0.417-5.807,0.654c-0.365,0.1-0.728,0.281-1.067,0.582c-4.757,4.219-7.648,9.718-7.448,16.163
		c0.102,3.284,5.208,3.294,5.105,0c-0.061-1.974,0.238-3.774,0.839-5.434c0,2.824,0,5.648,0,8.472c0,0.125,0.012,0.242,0.018,0.363
		c-0.003,0.058-0.016,0.106-0.016,0.166c0,8.477-0.015,16.951-0.366,25.422c-0.154,3.766,5.684,3.75,5.838,0
		c0.274-6.642,0.342-13.281,0.358-19.924c0.276,0.018,0.554,0.02,0.83,0.004c0.017,6.642,0.085,13.283,0.358,19.92
		c0.154,3.75,5.994,3.766,5.838,0c-0.349-8.471-0.365-16.945-0.365-25.422c0-0.26-0.033-0.496-0.085-0.721c0-3.269,0-6.536,0-9.803
		c3.637,3.032,7.894,5.156,12.876,5.907C40.816,29.974,42.2,25.056,38.955,24.566z"/>
	<path fill="#0E0F0F" d="M56.913,42.99c-0.524-0.069-1.007,0.294-1.079,0.818l-2.121,15.445h-2.544
		c0.104-0.602,1.087-0.602,1.084-1.322c-0.002-0.869-0.028-1.306-1.022-1.773c-0.996-0.469-2.049,0-2.049,0s-0.5,1.214-1.022,1.773
		c-0.329,0.353-0.246,0.92,0.112,1.322h-3.465l-3.061-15.502c-0.102-0.521-0.604-0.854-1.127-0.754
		c-0.518,0.104-0.854,0.604-0.751,1.124l3.213,16.272c0.088,0.446,0.481,0.771,0.938,0.771h10.526c0.479,0,0.886-0.354,0.948-0.826
		l2.234-16.273C57.803,43.546,57.438,43.062,56.913,42.99z"/>
	<path fill="#0E0F0F" d="M46.212,53.701c1.026,0.097,2.453,1.085,2.047,0c-0.403-1.085,1.027-0.904,1.025-1.774
		c-0.003-0.87-0.029-1.305-1.025-1.774c-0.993-0.469-2.047,0-2.047,0s-0.498,1.217-1.024,1.774
		C44.662,52.486,45.186,53.604,46.212,53.701z"/>
	<path fill="#0E0F0F" d="M52.852,48.686c0.707,0.295,1.57-0.59,1.301-1.584c-0.271-0.994,0.15-2.679-0.723-1.916
		c-0.873,0.764-1.207-0.643-2.021-0.332c-0.812,0.309-1.211,0.485-1.3,1.582c-0.09,1.098,0.722,1.918,0.722,1.918
		S52.143,48.391,52.852,48.686z"/>
	<path fill="#0E0F0F" d="M42.422,34.751c0,0,0.838-0.586,1.418-0.729c0.579-0.143,0.71-1.097,0.078-1.591
		c-0.63-0.497-1.146-1.746-1.342-0.865c-0.191,0.881-1.053,0.159-1.418,0.73c-0.365,0.569-0.532,0.866-0.078,1.594
		C41.533,34.614,42.422,34.751,42.422,34.751z"/>
	<path fill="#0E0F0F" d="M47.547,45.807c0.229-0.387,0.885-0.765,0.383-0.806c-0.502-0.044-0.164-0.574-0.509-0.733
		c-0.343-0.162-0.519-0.231-0.889,0.071c-0.37,0.304-0.382,0.806-0.382,0.806s0.386,0.424,0.507,0.735
		C46.779,46.189,47.318,46.191,47.547,45.807z"/>
</g>
</svg>
