<?xml version="1.0" encoding="utf-8"?>
<!-- Generator: Adobe Illustrator 16.0.4, SVG Export Plug-In . SVG Version: 6.00 Build 0)  -->
<!DOCTYPE svg PUBLIC "-//W3C//DTD SVG 1.1//EN" "http://www.w3.org/Graphics/SVG/1.1/DTD/svg11.dtd">
<svg version="1.1" id="Capa_1" xmlns="http://www.w3.org/2000/svg" xmlns:xlink="http://www.w3.org/1999/xlink" x="0px" y="0px"
	 width="64px" height="64px" viewBox="0 0 64 64" enable-background="new 0 0 64 64" xml:space="preserve">
<g>
	<circle fill="#0F1011" cx="31.644" cy="7.657" r="6.129"/>
	<path fill="#0F1011" d="M54.238,15.687H35.092c-0.955-0.584-2.074-0.926-3.277-0.926c-1.202,0-2.321,0.342-3.276,0.926H9.762
		c-1.432,0-2.595,1.162-2.595,2.595c0,1.433,1.163,2.594,2.595,2.594h15.761c-0.001,0.063-0.009,0.123-0.009,0.186v14.825
		c0,0.32,0.032,0.633,0.078,0.939c-0.046,0.193-0.076,0.393-0.076,0.599v22.979c0,1.434,1.161,2.596,2.595,2.596
		c1.432,0,2.594-1.162,2.594-2.596v-18.32c0.361,0.064,0.731,0.104,1.11,0.104c0.381,0,0.751-0.039,1.115-0.104v18.32
		c0,1.434,1.161,2.596,2.594,2.596s2.596-1.162,2.596-2.596V37.425c0-0.209-0.031-0.409-0.078-0.604
		c0.045-0.305,0.076-0.613,0.076-0.934V21.062c0-0.063-0.01-0.123-0.012-0.186h16.133c1.436,0,2.597-1.162,2.597-2.594
		C56.834,16.85,55.672,15.687,54.238,15.687z"/>
</g>
</svg>
