<?xml version="1.0" encoding="utf-8"?>
<!-- Generator: Adobe Illustrator 16.0.4, SVG Export Plug-In . SVG Version: 6.00 Build 0)  -->
<!DOCTYPE svg PUBLIC "-//W3C//DTD SVG 1.1//EN" "http://www.w3.org/Graphics/SVG/1.1/DTD/svg11.dtd">
<svg version="1.1" id="Capa_1" xmlns="http://www.w3.org/2000/svg" xmlns:xlink="http://www.w3.org/1999/xlink" x="0px" y="0px"
	 width="64px" height="64px" viewBox="0 0 64 64" enable-background="new 0 0 64 64" xml:space="preserve">
<g>
	<path fill="#0E0F0F" d="M41.766,16.759c-0.783-1.496-2.32-1.921-4.838-2.229l-4.203-0.093l-4.206,0.093
		c-2.518,0.308-4.031,1.185-4.836,2.229c-2.588,3.98-3.971,8.416-4.438,13.133c-0.31,3.125,4.563,3.094,4.871,0
		c0.251-2.538,0.892-4.955,1.897-7.233c0,0,2.589,0.043,0.231,2.985c-2.357,2.943-3.395,22.168-3.395,22.168h0.816h2.881v7.877
		c0,1.344,1.089,2.434,2.434,2.434c1.05,0,1.936-0.667,2.278-1.598c0.155-0.321,0.251-0.678,0.251-1.061v-7.652h2.431v7.652
		c0,0.383,0.098,0.736,0.25,1.061c0.347,0.931,1.229,1.598,2.278,1.598c1.347,0,2.437-1.09,2.437-2.434v-7.877h2.883H42.6
		c0,0-0.463-19.896-3.623-22.495c-3.16-2.597,0.459-2.661,0.459-2.661c1.004,2.279,1.646,4.695,1.897,7.233
		c0.306,3.092,5.179,3.125,4.869,0C45.734,25.175,44.352,20.739,41.766,16.759z M39.468,30.356c0,3.725-3.02,6.746-6.743,6.746
		c-3.728,0-6.746-3.021-6.746-6.746s3.019-6.745,6.746-6.745C36.448,23.611,39.468,26.631,39.468,30.356z"/>
	<path fill="#0E0F0F" d="M32.646,13.442c0.022,0,0.049-0.004,0.076-0.004c0.023,0,0.049,0.004,0.073,0.004
		c2.603,0,4.71-2.108,4.71-4.71c0-2.601-2.107-4.709-4.71-4.709c-0.024,0-0.05,0.004-0.073,0.004c-0.027,0-0.054-0.004-0.076-0.004
		c-2.604,0-4.709,2.108-4.709,4.709C27.938,11.334,30.046,13.442,32.646,13.442z"/>
	<circle fill="#0E0F0F" cx="35.141" cy="27.431" r="2.118"/>
	<path fill="#0E0F0F" d="M34.896,30.665c-0.472-0.29-0.875-0.665-1.168-1.1c-0.338-0.497-1.018-0.626-1.514-0.289
		c-0.498,0.337-0.627,1.013-0.289,1.511c0.325,0.48,0.727,0.904,1.182,1.272c-0.262-0.104-0.599-0.27-1.031-0.527
		c-0.497-0.294-1.081-0.314-1.577-0.109c-0.124-0.008-0.25,0.001-0.376,0.039l-2.141,0.63c-0.576,0.171-0.906,0.774-0.736,1.352
		c0.114,0.387,0.42,0.658,0.782,0.748c0.182,0.045,0.378,0.045,0.569-0.012l1.018-0.301c0.147,0.278,0.37,0.521,0.66,0.695
		c0.71,0.42,1.49,0.822,2.325,1.029c0.76,0.188,1.562,0.213,2.389-0.063c1.346-0.452,2.365-1.569,3.123-3.419
		c0.369-0.903-0.062-1.936-0.965-2.306C36.282,29.464,35.305,29.843,34.896,30.665z"/>
</g>
</svg>
