<?xml version="1.0" encoding="utf-8"?>
<!-- Generator: Adobe Illustrator 16.0.4, SVG Export Plug-In . SVG Version: 6.00 Build 0)  -->
<!DOCTYPE svg PUBLIC "-//W3C//DTD SVG 1.1//EN" "http://www.w3.org/Graphics/SVG/1.1/DTD/svg11.dtd">
<svg version="1.1" id="Capa_1" xmlns="http://www.w3.org/2000/svg" xmlns:xlink="http://www.w3.org/1999/xlink" x="0px" y="0px"
	 width="64px" height="64px" viewBox="0 0 64 64" enable-background="new 0 0 64 64" xml:space="preserve">
<g>
	<circle fill="#0E0F0F" cx="17.875" cy="10.73" r="4.375"/>
	<path fill="#0E0F0F" d="M30.139,29.728c2.925,0.243,3.82-4.268,0.874-4.514c-4.583-0.382-8.752-1.636-10.061-5.859
		c-0.037-0.119-0.087-0.219-0.136-0.322c-0.465-2.581-2.771-3.485-4.896-3.053c-0.097-0.023-0.19-0.051-0.294-0.063
		c-5.421-0.623-10.147,2.135-12.287,7.152c-1.148,2.694,2.81,5.038,3.969,2.319c1.064-2.494,2.655-4.044,4.8-4.653
		c0.003,0.052,0.001,0.102,0.006,0.154c0,0-2.022,7.993-2.939,12.867c-0.461,0.735-0.61,1.364-0.538,1.905L3.529,54.857
		c-1.208,3.148,3.67,5.013,4.874,1.871l4.399-16.627c2.619,1.072,5.04,2.527,6.149,5.277c1.1,2.727-0.64,6.207-1.979,8.489
		c-1.689,2.879,2.535,5.948,4.24,3.045c2.329-3.972,4.146-8.56,2.662-13.163c-1.114-3.451-3.788-5.79-6.868-7.434l2.493-10.804
		C22.151,28.051,26.055,29.387,30.139,29.728z"/>
	<path fill="#0E0F0F" d="M60.559,34.952c-1.733-6.634-5.365-12.496-10.436-17.101c-1.777-1.615-3.821-1.332-5.266-0.188
		c-4.646-0.862-9.287-1.725-13.935-2.587c-3.253-0.604-4.19,4.439-0.937,5.044c4.403,0.817,8.802,1.635,13.206,2.452
		c0.215,0.673,0.621,1.325,1.265,1.909c3.188,2.897,5.433,6.381,6.903,10.309c-7.911,1.237-14.996,5.418-19.588,12.371
		c-1.801,2.728,2.065,6.108,3.881,3.354c3.307-5.007,7.803-8.238,13.033-9.834c-1.521,1.387-2.972,2.854-4.416,4.275
		c-2.365,2.328,1.543,5.658,3.883,3.354c2.906-2.858,5.771-5.854,9.395-7.814c0.016-0.008,0.027-0.02,0.041-0.023
		C59.605,39.706,61.257,37.625,60.559,34.952z"/>
	<circle fill="#0E0F0F" cx="44.436" cy="11.862" r="4.105"/>
	<path fill="#0E0F0F" d="M39.46,27.803l0.291-0.451l-0.521-0.136c-1.229-0.323-2.242-1.263-2.666-2.469l-0.104-0.295l-0.31,0.039
		c-0.301,0.034-0.601,0.038-0.879,0.007l-0.287-0.031l-0.082,0.774l0.283,0.031c0.246,0.027,0.5,0.032,0.752,0.018
		c0.492,1.151,1.451,2.08,2.619,2.526c-0.25,0.497-0.408,1.026-0.471,1.582c-0.02,0.153-0.023,0.312-0.023,0.482
		c-1.312,0.737-2.186,2.052-2.348,3.552c-0.013,0.111-0.017,0.228-0.021,0.348l-0.01,0.287l0.287,0.014l0.491-0.021l0.011-0.262
		c0.002-0.092,0.004-0.188,0.014-0.275c0.146-1.325,0.945-2.466,2.146-3.06l0.226-0.113l-0.01-0.255
		c-0.013-0.228-0.008-0.427,0.014-0.61C38.927,28.882,39.129,28.316,39.46,27.803z"/>
</g>
</svg>
