<?xml version="1.0" encoding="utf-8"?>
<!-- Generator: Adobe Illustrator 16.0.4, SVG Export Plug-In . SVG Version: 6.00 Build 0)  -->
<!DOCTYPE svg PUBLIC "-//W3C//DTD SVG 1.1//EN" "http://www.w3.org/Graphics/SVG/1.1/DTD/svg11.dtd">
<svg version="1.1" id="Capa_1" xmlns="http://www.w3.org/2000/svg" xmlns:xlink="http://www.w3.org/1999/xlink" x="0px" y="0px"
	 width="64px" height="64px" viewBox="0 0 64 64" enable-background="new 0 0 64 64" xml:space="preserve">
<g>
	<circle fill="#0E0F0F" cx="36.86" cy="24.419" r="3.439"/>
	<path fill="#0E0F0F" d="M45.434,33.691c-0.742-1.609-1.686-3.135-3.096-4.24c-0.15-0.12-0.309-0.198-0.471-0.259
		c-0.01-0.012-0.016-0.027-0.026-0.039c-2.12-1.066-6.493-0.791-8.712-0.476c-0.137,0.001-0.277,0.015-0.434,0.057
		c-0.078,0.021-0.158,0.033-0.237,0.051c-0.066,0.012-0.139,0.025-0.197,0.037v0.006c-1.231,0.229-2.5,0.035-3.692-0.356
		c-0.62-1.349-1.105-2.759-1.355-4.223c-0.085-0.498-0.338-0.843-0.665-1.057V9.763c1.375,0.207,2.459,1.298,2.655,2.68h0.069
		c0.217-1.535,1.532-2.716,3.125-2.716c1.596,0,2.911,1.181,3.127,2.716h0.264c0-5.201-4.098-9.443-9.239-9.679V2h-0.729v0.76
		c-5.222,0.147-9.411,4.425-9.411,9.683h0.222c0.215-1.535,1.531-2.716,3.125-2.716c1.593,0,2.911,1.181,3.126,2.716h0.069
		c0.205-1.452,1.393-2.586,2.868-2.706v13.206c-0.92-0.094-1.921,0.514-1.836,1.642h-0.469v0.208c0,0.563,0.312,1.05,0.77,1.312
		c0.258,1.036,0.599,2.054,1.017,3.034c0.332,0.779,0.64,1.829,1.506,2.165c1.626,0.632,3.506,1.039,5.278,0.849l-0.065,1.226
		c0.004,2.521,0.019,11.99,0.019,12.124l0.066,14.205c0,1.085,0.906,1.967,2.022,1.967c1.117,0,2.022-0.882,2.022-1.967V45.941
		c0,0-0.021-0.681,0.69-0.672c0.714,0.008,0.776,0.705,0.776,0.705v13.769c0,1.087,0.904,1.968,2.021,1.968s1.912-0.881,1.912-1.968
		V46.529l-0.006-2.092c1.581-1.016,2.809-2.479,3.691-4.133c0.486-0.908,1.324-2.178,1.324-3.257
		C46.562,35.947,45.878,34.652,45.434,33.691z M43.129,37.236c-0.219,0.481-0.439,0.965-0.703,1.425
		c-0.273,0.481-0.562,0.948-0.889,1.385l-0.018-6.708c0.78,1.092,1.328,2.367,1.703,3.65C43.201,37.061,43.172,37.141,43.129,37.236
		z M43.262,36.848C43.26,36.68,43.296,36.682,43.262,36.848L43.262,36.848z"/>
</g>
</svg>
