<?xml version="1.0" encoding="utf-8"?>
<!-- Generator: Adobe Illustrator 16.0.4, SVG Export Plug-In . SVG Version: 6.00 Build 0)  -->
<!DOCTYPE svg PUBLIC "-//W3C//DTD SVG 1.1//EN" "http://www.w3.org/Graphics/SVG/1.1/DTD/svg11.dtd">
<svg version="1.1" id="Capa_1" xmlns="http://www.w3.org/2000/svg" xmlns:xlink="http://www.w3.org/1999/xlink" x="0px" y="0px"
	 width="64px" height="64px" viewBox="0 0 64 64" enable-background="new 0 0 64 64" xml:space="preserve">
<g>
	<circle fill="#0E0F0F" cx="22.469" cy="11.562" r="4.82"/>
	<path fill="#0E0F0F" d="M52.768,52.943c-5.744-8.573-12.312-19.74-13.416-21.625c-0.1-0.342-0.232-0.689-0.414-1.038
		c-1.312-2.557-2.684-5.085-4.084-7.596c1.484,0.116,2.972,0.231,4.455,0.346c1.02,2.01,2.035,4.021,3.053,6.03
		c1.639,3.237,6.49,0.389,4.855-2.839c-1.312-2.593-2.867-8.425-6.254-8.688c-3.604-0.28-7.207-0.56-10.81-0.839
		c-0.088-0.007-0.163,0.005-0.247,0.005c-2.724-0.729-5.917,1.193-6.495,3.97c-1.842,3.989-4.487,7.104-8.925,8.404
		c-3.474,1.016-1.994,6.443,1.495,5.423c4.387-1.284,7.538-3.798,9.927-7.107c1.447,2.58,2.86,5.176,4.214,7.808
		c-2.977,2.053-5.578,4.536-7.857,7.401c-0.636,0.799-0.745,1.621-0.531,2.344c-0.008,0.27,0.009,0.55,0.086,0.854
		c0.877,3.472,1.753,6.938,2.631,10.406c0.931,3.696,6.782,2.646,5.843-1.074c-0.835-3.305-1.671-6.61-2.506-9.917
		c2.094-2.469,4.563-4.617,7.384-6.221c0.664-0.378,1.082-0.899,1.314-1.473c3.859,5.914,7.719,14.096,11.576,19.055
		C50.416,59.598,55.125,55.975,52.768,52.943z"/>
</g>
</svg>
