<?xml version="1.0" encoding="utf-8"?>
<!-- Generator: Adobe Illustrator 16.0.4, SVG Export Plug-In . SVG Version: 6.00 Build 0)  -->
<!DOCTYPE svg PUBLIC "-//W3C//DTD SVG 1.1//EN" "http://www.w3.org/Graphics/SVG/1.1/DTD/svg11.dtd">
<svg version="1.1" id="Capa_1" xmlns="http://www.w3.org/2000/svg" xmlns:xlink="http://www.w3.org/1999/xlink" x="0px" y="0px"
	 width="64px" height="64px" viewBox="0 0 64 64" enable-background="new 0 0 64 64" xml:space="preserve">
<g>
	<circle fill="#0E0F0F" cx="29.199" cy="22.69" r="3.567"/>
	<path fill="#0E0F0F" d="M43.795,27.041v-2.286c0-0.106-0.077-0.194-0.191-0.25V18.7c0-7.943-6.461-14.405-14.403-14.405
		S14.796,10.757,14.796,18.7v5.859c-0.063,0.054-0.105,0.121-0.105,0.196v2.332c-1.012,0.409-1.67,1.758-0.655,2.749
		c1.276,1.247,4.815,4.734,6.859,3.546c1.1-0.64,2.201-1.28,3.301-1.921c0.098,0.243,0.171,0.396,0.171,0.396l-0.037,13.77v13.709
		c0,1.126,0.825,2.04,1.985,2.04c1.158,0,2.098-0.914,2.098-2.04V45.052c0,0,0.066-0.724,0.805-0.731
		c0.738-0.008,0.718,0.697,0.718,0.697v14.277c0,1.128,0.941,2.042,2.098,2.042c1.159,0,2.099-0.914,2.099-2.042l0.069-14.732
		c0-0.141,0.014-9.965,0.019-12.581l-0.006-0.075c1.174,0.764,2.526,1.298,3.834,1.642c0.932,0.246,1.83-0.447,2.583-0.898
		c1.356-0.812,2.636-1.775,3.765-2.878C45.396,28.797,44.777,27.475,43.795,27.041z M43.132,24.505
		c-0.11,0.056-0.188,0.144-0.188,0.25v2.151c-0.319,0.042-0.642,0.19-0.935,0.475c-1.104,1.077-2.37,1.965-3.714,2.719
		c-1.387-0.445-2.706-1.149-3.625-2.294c-0.214-0.267-0.452-0.422-0.695-0.506l-0.002-0.04c-1.729-0.355-7.396-0.936-9.938,0.342
		c-0.021,0.023-0.035,0.052-0.056,0.078c-1.354,0.786-2.706,1.574-4.06,2.361c-1.261-0.727-2.45-1.577-3.493-2.595
		c-0.276-0.269-0.578-0.411-0.879-0.461v-2.23c0-0.131-0.116-0.241-0.277-0.285V18.7c0-7.682,6.25-13.932,13.931-13.932
		c7.682,0,13.932,6.25,13.932,13.932V24.505z"/>
</g>
</svg>
