<?xml version="1.0" encoding="utf-8"?>
<!-- Generator: Adobe Illustrator 16.0.4, SVG Export Plug-In . SVG Version: 6.00 Build 0)  -->
<!DOCTYPE svg PUBLIC "-//W3C//DTD SVG 1.1//EN" "http://www.w3.org/Graphics/SVG/1.1/DTD/svg11.dtd">
<svg version="1.1" id="Capa_1" xmlns="http://www.w3.org/2000/svg" xmlns:xlink="http://www.w3.org/1999/xlink" x="0px" y="0px"
	 width="64px" height="64px" viewBox="0 0 64 64" enable-background="new 0 0 64 64" xml:space="preserve">
<g>
	<circle fill="#0E0F0F" cx="32.251" cy="10.72" r="9.22"/>
	<path fill="#0E0F0F" d="M54.43,49.582l-1.191-0.832c-1.896-1.328-3.834-2.668-5.812-3.957c-1.924,0.703-3.948,1.213-5.823,1.68
		c-1.91,0.478-3.713,0.924-5.146,1.496c-0.748,0.301-1.488,0.451-2.201,0.451c-0.748,0-1.445-0.188-2.083-0.5
		c-0.637,0.312-1.334,0.5-2.082,0.5c-0.713,0-1.453-0.15-2.201-0.451c-1.434-0.572-3.236-1.021-5.145-1.496
		c-1.945-0.481-4.055-1.014-6.041-1.76c-2.021,1.311-3.99,2.676-5.926,4.029l-1.203,0.84c-2.361,1.648-3.35,4.906-2.402,7.926
		c0.816,2.598,2.924,4.213,5.498,4.213h38.667c2.574,0,4.684-1.615,5.498-4.213C57.779,54.488,56.791,51.23,54.43,49.582z
		 M27.166,51.393c0.551-0.354,1.074-0.733,1.584-1.125c1.17,0.219,2.387,0.229,3.557,0.017c1.003,0.184,2.042,0.194,3.052,0.062
		c0.478,0.361,0.972,0.713,1.488,1.047H27.166z"/>
	<path fill="#0E0F0F" d="M27.783,45.811c1.872,0.75,3.41,0.322,4.46-0.691c1.05,1.017,2.589,1.441,4.46,0.691
		c5.758-2.305,16.621-2.518,18.443-10.059c1.553-6.431-3.328-12.835-6.121-18.285c-2.021-3.933-6.699-2.795-8.506,0.152
		c-1.479,1.649-4.519,4.604-8.162,4.604c-4.071,0-7.468-3.699-8.743-5.103c-2.001-2.563-6.258-3.354-8.155,0.347
		c-2.795,5.449-7.674,11.854-6.121,18.285C11.162,43.293,22.027,43.506,27.783,45.811z M20.917,28.525
		c0.323-0.645,0.667-1.278,1.007-1.915C21.954,29.806,22,31.534,22,31.719c0.691,0.195,1.395,0.387,2.137,0.57
		c2.178,0.541,4.703,1.201,7.152,2.182c0.32,0.129,0.602,0.288,0.881,0.45c0.279-0.162,0.559-0.321,0.881-0.45
		c2.166-0.867,4.4-1.449,6.561-2.014c0.563-0.146,1.125-0.293,1.688-0.444c0.252-0.067,0.523-0.13,0.802-0.192
		c0.135-0.03,0.521,0.939,0.653,0.908c0-1.1,0-2.199,0-3.295V28.43c0-0.939,0-1.488,0-1.899c1.207,2.002,2.358,4.1,2.724,6.1
		c-0.133,0.077-0.312,0.178-0.562,0.312c-0.787,0.422-1.879,0.574-2.729,0.805c-2.752,0.742-5.483,1.357-8.141,2.42
		c-0.729,0.291-1.322,0.693-1.802,1.169c-0.479-0.476-1.076-0.878-1.802-1.169c-2.287-0.916-4.631-1.545-7.02-2.137
		c-1.08-0.271-2.146-0.559-3.211-0.881c-0.71-0.213-1.118-0.809-1.231-0.496C19.169,31.379,20.417,29.525,20.917,28.525z"/>
</g>
</svg>
