<?xml version="1.0" encoding="utf-8"?>
<!-- Generator: Adobe Illustrator 16.0.4, SVG Export Plug-In . SVG Version: 6.00 Build 0)  -->
<!DOCTYPE svg PUBLIC "-//W3C//DTD SVG 1.1//EN" "http://www.w3.org/Graphics/SVG/1.1/DTD/svg11.dtd">
<svg version="1.1" id="Capa_1" xmlns="http://www.w3.org/2000/svg" xmlns:xlink="http://www.w3.org/1999/xlink" x="0px" y="0px"
	 width="64px" height="64px" viewBox="0 0 64 64" enable-background="new 0 0 64 64" xml:space="preserve">
<g>
	<circle fill="#0E0F0F" cx="43.979" cy="16.648" r="10.495"/>
	<path fill="#0E0F0F" d="M53.911,28.463c-4.274-1.742-9.125,0.133-11.147,4.203c-2.322-1.432-4.328-3.291-5.789-5.441
		c-1.67-2.463-5.021-3.105-7.481-1.434c-2.463,1.67-3.105,5.021-1.434,7.484c1.613,2.377,3.6,4.482,5.85,6.301
		c-1.296-0.512-2.957-1.332-5.109-2.607c-2.465-1.457-5.354-1.561-7.814-0.543c-0.613-0.041-1.242,0.006-1.865,0.191L8.515,39.742
		c-2.854,0.84-4.486,3.836-3.645,6.691c0.561,1.9,2.08,3.262,3.875,3.707c0.896,0.223,1.865,0.217,2.816-0.063l5.041-1.486
		c0.73,1.382,1.828,2.589,3.271,3.443c3.514,2.082,7.389,4.082,11.51,5.106c3.764,0.935,7.736,1.053,11.834-0.322
		c6.662-2.233,11.727-7.774,15.477-16.938C60.527,35.408,58.384,30.295,53.911,28.463z"/>
</g>
</svg>
