<?xml version="1.0" encoding="utf-8"?>
<!-- Generator: Adobe Illustrator 16.0.4, SVG Export Plug-In . SVG Version: 6.00 Build 0)  -->
<!DOCTYPE svg PUBLIC "-//W3C//DTD SVG 1.1//EN" "http://www.w3.org/Graphics/SVG/1.1/DTD/svg11.dtd">
<svg version="1.1" id="Capa_1" xmlns="http://www.w3.org/2000/svg" xmlns:xlink="http://www.w3.org/1999/xlink" x="0px" y="0px"
	 width="64px" height="64px" viewBox="0 0 64 64" enable-background="new 0 0 64 64" xml:space="preserve">
<g>
	<path fill="#0E0F0F" d="M36.818,7.845c0.242-0.245,0.232-0.574,0.027-0.78c-0.209-0.207-0.537-0.212-0.779,0.033
		c-0.244,0.244-0.346,0.683-0.141,0.889C36.137,8.193,36.575,8.089,36.818,7.845z"/>
	<path fill="#0E0F0F" d="M35.234,7.986c0.209-0.205,0.105-0.644-0.137-0.889c-0.24-0.245-0.57-0.24-0.779-0.033
		c-0.207,0.206-0.215,0.535,0.027,0.78C34.59,8.089,35.027,8.193,35.234,7.986z"/>
	<path fill="#0E0F0F" d="M27.998,9.532c0.362,0.213,1.909,1.067,2.305,1.2h0.091c0.092,2.914,2.487,5.259,5.422,5.259
		c2.99,0,5.42-2.427,5.431-5.414c0.61-0.293,1.659-0.874,1.95-1.045c0.721-0.428,1.394-1.644,1.906-2.494
		c-0.953-0.274-1.77,0.356-2.554,0.388c-0.389,0.02-0.768,0.062-1.141,0.117c-0.375,0.051-0.749,0.092-1.122,0.125
		c-0.293,0.024-0.583,0.041-0.873,0.057c-0.581-1.763-2.021-3.03-3.738-3.106V4.611c-0.025,0-0.054,0.003-0.08,0.003
		c-0.025,0-0.055-0.003-0.078-0.003v0.007c-1.717,0.076-3.163,1.343-3.741,3.106c-0.29-0.016-0.581-0.033-0.873-0.057
		c-0.375-0.033-0.749-0.074-1.123-0.125c-0.374-0.055-0.751-0.097-1.142-0.117c-0.783-0.031-1.597-0.662-2.55-0.388
		C26.603,7.887,27.275,9.103,27.998,9.532z M39.359,13.065c-0.787,1.111-2.08,1.84-3.543,1.84c-1.758,0-3.273-1.052-3.958-2.557
		c0.245,0.062,0.506,0.092,0.783,0.092c1.109,0,2.401-0.457,3.481-0.95c0.146,1.057,1.051,1.871,2.146,1.871
		C38.67,13.36,39.04,13.251,39.359,13.065z M35.596,5.632c0.975,0,1.766,0.654,1.766,1.783S36.223,9.72,35.596,9.72
		c-0.628,0-1.765-1.176-1.765-2.305S34.62,5.632,35.596,5.632z M35.506,10.741h0.09h0.092l0.461-0.001
		c-0.021,0.115-0.037,0.234-0.043,0.355c-1.42,0.667-3.25,1.293-4.415,0.819c-0.124-0.373-0.194-0.769-0.211-1.18L35.506,10.741z"/>
	<path fill="#0E0F0F" d="M52.775,39.736c-0.287-0.998-0.979-1.807-1.944-2.282c-0.646-0.318-1.36-0.461-2.086-0.417l-0.474-1.639
		c0.875-0.559,1.431-1.567,1.057-2.873c-1.271-4.438-2.541-8.875-3.811-13.314c-0.729-2.545-7.504-2.28-9.123-2.28h-0.682
		c-1.51,0-8.133-0.32-8.851,2.185c-0.912,3.185-1.824,6.371-2.735,9.557c-4.04-3.844-8.421-13.045-7.294-17.74l0.09-0.379
		l-5.791-5.717L10.829,5.14c-0.096,0.093-4.787,12.163,11.145,25.929l0.396,0.323l0.178-0.191l0.668,0.667
		c-0.054,0.188-0.108,0.376-0.162,0.566c-0.964,3.369,4.283,4.77,5.246,1.406c0.035-0.117,0.068-0.232,0.102-0.354l0.146-0.146
		l-0.082-0.081c0.491-1.719,0.983-3.437,1.475-5.156v10.311h0.361v21.359h5.644V38.414h1.088V50.48h1.345v8.069
		c0,0.679,0.548,1.226,1.226,1.226c0.676,0,1.225-0.547,1.225-1.226V50.48h1.102V38.416h0.244V27.254
		c0.639,2.237,1.28,4.473,1.92,6.709c0.354,1.239,1.289,1.825,2.281,1.908l0.736,2.546c0.072,0.251,0.242,0.461,0.469,0.586
		c0.227,0.124,0.494,0.156,0.742,0.083c0.568-0.164,1.152-0.12,1.646,0.124c0.469,0.229,0.797,0.608,0.932,1.072
		s0.06,0.962-0.213,1.403c-0.289,0.474-0.762,0.819-1.326,0.983c-0.521,0.147-0.816,0.69-0.668,1.213
		c0.125,0.429,0.517,0.706,0.938,0.706c0.094,0,0.184-0.014,0.271-0.039c1.037-0.3,1.906-0.953,2.451-1.843
		C52.914,41.79,53.064,40.734,52.775,39.736z M22.266,30.238C7.938,16.738,11.371,6.557,11.371,6.557l4.338,4.513
		c-0.789,5.912,4.966,15.759,7.298,18.031L22.266,30.238z M31.234,20.551c0-0.477,0.386-0.864,0.864-0.864
		c0.476,0,0.863,0.387,0.863,0.864c0,0.478-0.387,0.864-0.863,0.864C31.62,21.415,31.234,21.029,31.234,20.551z M32.098,27.06
		c0-0.477,0.386-0.863,0.863-0.863c0.479,0,0.863,0.387,0.863,0.863c0,0.478-0.387,0.864-0.863,0.864
		C32.484,27.924,32.098,27.538,32.098,27.06z M33.824,34.79c-0.475,0-0.863-0.388-0.863-0.864c0-0.478,0.389-0.865,0.863-0.865
		c0.479,0,0.865,0.391,0.865,0.865C34.689,34.402,34.302,34.79,33.824,34.79z M36.514,35.764h-1.089l-0.446-4.616l2.367-5.798
		L36.514,35.764z M37.65,21.538l-2.912,7.134l-1.066-11.014h4.289L37.65,21.538z"/>
</g>
</svg>
