<svg width="64" xmlns="http://www.w3.org/2000/svg" height="64" viewBox="0 0 64 64" xmlns:xlink="http://www.w3.org/1999/xlink" enable-background="new 0 0 64 64">
<g fill="#0e0f0f">
<path d="m14.263,30.218c-5.763,0-10.452,4.688-10.452,10.451s4.689,10.452 10.452,10.452c5.762,0 10.451-4.688 10.451-10.452s-4.69-10.451-10.451-10.451zm0,18.585c-4.485,0-8.134-3.648-8.134-8.134s3.649-8.133 8.134-8.133c4.485,0 8.133,3.647 8.133,8.133s-3.648,8.134-8.133,8.134z"/>
<path d="m50.188,30.218c-5.762,0-10.45,4.688-10.45,10.451s4.688,10.452 10.45,10.452c5.764,0 10.452-4.688 10.452-10.452s-4.689-10.451-10.452-10.451zm0,18.585c-4.484,0-8.133-3.648-8.133-8.134s3.648-8.133 8.133-8.133c4.485,0 8.135,3.647 8.135,8.133s-3.65,8.134-8.135,8.134z"/>
<path d="m39.469,25.956c1.226,.27 2.271-.004 3.074-.579 .809,.979 1.623,1.952 2.447,2.919 .359,.622 1.023,1.044 1.795,1.044h3.77c1.146,0 2.078-.929 2.078-2.078 0-1.149-.932-2.08-2.078-2.08h-2.349c-1.617-1.899-3.202-3.829-4.782-5.759-.241-.294-.564-.472-.916-.567-.291-.148-.615-.27-.985-.352-4.786-1.053-9.571-2.106-14.357-3.16-2.514-.553-4.275,1.177-4.719,3.123-.37,.57-.528,1.28-.385,2l4.512,22.57c.256,1.284 1.385,2.174 2.648,2.174 .177,0 .354-.018 .533-.054 1.465-.293 2.415-1.718 2.122-3.182l-.524-2.616c.306,.116 .63,.186 .963,.186 .323,0 .652-.058 .971-.182 5.54-2.131 6.359-5.724 6.354-7.677-.004-2.126-.972-4.276-2.495-6.242 .774,.171 1.548,.342 2.323,.512zm-8.124,8.359c-.34,.131-.637,.324-.887,.562l-1.984-9.921c3.185,1.967 5.756,4.826 5.758,6.744 .002,.997-.968,1.877-2.887,2.615z"/>
<circle cx="49.673" cy="17.232" r="4.508"/>
</g>
</svg>
