<?xml version="1.0" encoding="utf-8"?>
<!-- Generator: Adobe Illustrator 17.0.0, SVG Export Plug-In . SVG Version: 6.00 Build 0)  -->
<!DOCTYPE svg PUBLIC "-//W3C//DTD SVG 1.1//EN" "http://www.w3.org/Graphics/SVG/1.1/DTD/svg11.dtd">
<svg version="1.1" id="Capa_1" xmlns="http://www.w3.org/2000/svg" xmlns:xlink="http://www.w3.org/1999/xlink" x="0px" y="0px"
	 width="64px" height="64px" viewBox="0 0 64 64" enable-background="new 0 0 64 64" xml:space="preserve">
<path fill="#0E0F0F" d="M48.793,15.775c1.457,0,2.639,1.182,2.639,2.639s-1.182,2.639-2.639,2.639c-1.458,0-2.639-1.182-2.639-2.639
	S47.336,15.775,48.793,15.775z M56.264,22.679c-3.271-0.145-6.522-0.662-9.665-1.586c-0.066-0.019-0.129-0.026-0.192-0.036
	c-0.021-0.311-0.093-0.628-0.229-0.948c-0.164-0.386-0.431-0.734-0.759-1.023c0.17-3.125,0.679-6.23,1.563-9.235
	c0.496-1.689-2.065-2.709-2.567-1c-0.916,3.117-1.502,6.32-1.708,9.562c-0.126,0.04-0.249,0.088-0.368,0.152
	c-2.682,1.436-5.361,2.872-8.043,4.307c-0.044,0.023-0.085,0.05-0.127,0.074l-0.803,0.43l-4.331,2.218l-5.492,2.644
	c-0.135,0.071-0.247,0.167-0.339,0.276l-0.019,0.009c-0.572,0.306-0.788,1.018-0.48,1.589c0.306,0.572,1.018,0.787,1.589,0.481
	l7.33-3.28l1.097-0.471l0.136,0.252l-3.986,2.597l-3.491,2.2c-0.158,0.084-0.285,0.201-0.385,0.336
	c-0.404,0.352-0.528,0.945-0.264,1.438c0.306,0.572,1.017,0.787,1.589,0.481l5.246-3.106l4.246-2.375l0.698-0.374
	c0.026-0.013,0.054-0.023,0.081-0.037c2.682-1.436,5.362-2.872,8.043-4.308c0.231-0.124,0.444-0.27,0.639-0.432
	c0.097,0.057,0.202,0.107,0.327,0.143c3.368,0.991,6.838,1.601,10.348,1.756C57.712,25.494,58.041,22.758,56.264,22.679z
	 M15.46,42.98c-1.861,0-3.37,1.509-3.37,3.37s1.509,3.37,3.37,3.37s3.37-1.509,3.37-3.37S17.321,42.98,15.46,42.98z M40.868,46.063
	L40.868,46.063c-0.071-0.142-0.156-0.278-0.263-0.403c-1.014-1.2-2.037-2.393-3.161-3.493c-0.017-0.017-0.034-0.026-0.052-0.042
	c-0.082-0.114-0.171-0.228-0.273-0.339c-2.019-2.167-4.504-3.975-7.403-4.671c0.443-0.442,0.885-0.885,1.327-1.327
	c1.416-1.414-0.776-3.605-2.19-2.191c-1.098,1.098-2.195,2.195-3.293,3.293c-0.852,0.106-1.687,0.301-2.503,0.57
	c0-1.541,0-3.08,0-4.622c0.001-1.997-3.098-1.997-3.098,0c-0.001,2.017,0,4.032,0,6.048c-0.366,0.217-0.727,0.446-1.08,0.689
	c-3.086,2.126-0.154,7.194,2.963,5.049c1.809-1.246,3.583-2.094,5.812-1.976c1.939,0.105,3.625,1.518,4.943,2.874
	c0.084,1.711-0.187,3.408-0.936,5.009c-0.84,1.799,1.831,3.373,2.677,1.564c0.814-1.744,1.233-3.529,1.321-5.349
	c0.442-0.13,0.855-0.373,1.205-0.693c0.41,0.458,0.813,0.925,1.212,1.395c-0.843,1.631-1.807,3.185-2.958,4.626
	c-1.238,1.551,0.981,3.716,2.227,2.156c1.556-1.947,2.869-4.02,3.941-6.269C41.65,47.201,41.372,46.493,40.868,46.063z
	 M9.927,45.762l0.091-0.428L6,44.939L9.927,45.762z M8.172,47.973l1.675-0.401l-0.072-0.176L8.172,47.973z M10.208,49.625
	l1.188-1.084l-0.169-0.119L10.208,49.625z"/>
</svg>
