<?xml version="1.0" encoding="utf-8"?>
<!-- Generator: Adobe Illustrator 16.0.0, SVG Export Plug-In . SVG Version: 6.00 Build 0)  -->
<!DOCTYPE svg PUBLIC "-//W3C//DTD SVG 1.1//EN" "http://www.w3.org/Graphics/SVG/1.1/DTD/svg11.dtd">
<svg version="1.1" id="Capa_1" xmlns="http://www.w3.org/2000/svg" xmlns:xlink="http://www.w3.org/1999/xlink" x="0px" y="0px"
	 width="64px" height="64px" viewBox="0 0 64 64" enable-background="new 0 0 64 64" xml:space="preserve">
<g>
	<circle cx="31.823" cy="6.229" r="6.136"/>
	<path d="M48.707,27.548c-5.053-2.925-9.199-6.876-12.689-11.524c-2.193-3.084-7.991-2.923-10.347-0.097
		c-3.584,3.487-6.625,7.081-9.037,10.677c-0.986,1.473-0.594,3.466,0.878,4.452c0.549,0.368,1.168,0.544,1.783,0.544
		c1.034,0,2.05-0.499,2.668-1.423c1.059-1.577,2.26-3.159,3.59-4.734c-0.051,3.333,0.116,9.347,0.2,12.05
		c0.028,0.9-0.177,1.78-0.595,2.579c-3.308,6.317-5.424,12.294-7.572,19.606c-0.526,1.785,0.497,3.658,2.281,4.183
		c0.404,0.119,0.812,0.159,1.206,0.129c1.358-0.104,2.572-1.029,2.978-2.411c1.982-6.742,3.897-12.201,6.884-17.981
		c0.152,0.006,0.304,0.006,0.458-0.001c1.907,5.69,3.815,11.383,5.725,17.073c1.387,4.147,7.822,1.993,6.431-2.155
		c-2.087-6.221-4.171-12.439-6.251-18.659c-0.121-0.357-0.414-1.755-0.455-2.211c-0.344-3.832-0.469-7.652-0.432-11.477
		c2.928,2.805,6.175,5.238,9.782,7.328C49.79,35.584,52.256,29.605,48.707,27.548z"/>
</g>
</svg>
