<?xml version="1.0" encoding="utf-8"?>
<!-- Generator: Adobe Illustrator 16.0.4, SVG Export Plug-In . SVG Version: 6.00 Build 0)  -->
<!DOCTYPE svg PUBLIC "-//W3C//DTD SVG 1.1//EN" "http://www.w3.org/Graphics/SVG/1.1/DTD/svg11.dtd">
<svg version="1.1" id="Capa_1" xmlns="http://www.w3.org/2000/svg" xmlns:xlink="http://www.w3.org/1999/xlink" x="0px" y="0px"
	 width="64px" height="64px" viewBox="0 0 64 64" enable-background="new 0 0 64 64" xml:space="preserve">
<g>
	<path fill="#0E0F0F" d="M28.907,13.506c-0.785-2.062-1.215-4.744,0.685-6.577h2.365l0.916-1.119l0.578,1.245h1.244
		c0,0,2.105,2.751,0.158,6.217c1.52-1.146,2.521-3.099,2.521-5.316c0-3.527-2.535-6.386-5.662-6.386
		c-3.126,0-5.663,2.859-5.663,6.386C26.048,10.334,27.199,12.405,28.907,13.506z"/>
	<path fill="#0E0F0F" d="M47.027,23.832c-0.76-3.801-4.121-6.219-7.398-7.819c-0.65-0.318-1.289-0.411-1.878-0.344l-0.011-0.184
		c-2.403-0.495-3.336-0.091-3.336-0.091s-0.889,5.4-2.862,5.441c-1.975,0.04-2.976-5.661-2.976-5.661
		c-0.246,0.068,0.06,0.009-0.173,0.101c0,0-0.941-1.092-4.483,0.687c-0.016,0.019-0.027,0.042-0.043,0.062
		c-3.231,1.581-6.159,3.779-7.276,7.333c-1.172,3.731,1.284,7.402,3.783,9.902c0.447,0.448,0.932,0.722,1.422,0.859
		c-1.699,4.284-3.304,9.185-2.828,11.427c0.267,1.262,2.415,2.137,5.358,2.653v11.916c0,1.569,1.148,2.84,2.761,2.84
		c1.611,0,2.919-1.271,2.919-2.84V48.73c1.041,0.028,2.096,0.033,3.141,0.002c0,3.814,0,7.633,0,11.449c0,3.396,5.27,3.396,5.27,0
		c0-3.968,0-7.933,0-11.896c3.382-0.514,5.886-1.434,6.037-2.74c0.238-2.038-1.296-6.936-2.912-11.379
		c0.553-0.116,1.105-0.402,1.607-0.904C45.643,30.765,47.764,27.52,47.027,23.832z M24.36,27.933
		c-0.774-0.791-1.619-1.816-1.418-2.825c0.147-0.737,0.72-1.353,1.431-1.868L24.36,27.933z M31.407,32.254
		c-0.49,0-0.889-0.397-0.889-0.889c0-0.492,0.399-0.89,0.889-0.89c0.492,0,0.891,0.399,0.891,0.89
		C32.298,31.856,31.9,32.254,31.407,32.254z M31.407,29.455c-0.49,0-0.889-0.397-0.889-0.889c0-0.491,0.399-0.891,0.889-0.891
		c0.492,0,0.891,0.399,0.891,0.891C32.298,29.058,31.9,29.455,31.407,29.455z M31.474,26.654c-0.492,0-0.891-0.398-0.891-0.889
		c0-0.492,0.398-0.89,0.891-0.89c0.491,0,0.89,0.397,0.89,0.89C32.364,26.256,31.965,26.654,31.474,26.654z M39.143,27.96
		c-0.615-1.507-1.023-2.467-1.023-2.467l-0.038,0.344c0.002-1.273,0.004-2.388,0.005-3.21c1.002,0.589,1.908,1.305,2.482,2.348
		C41.047,25.836,39.963,27.12,39.143,27.96z"/>
	<path fill="#0E0F0F" d="M16.433,9.873c0.292,0.269,0.612,0.505,0.921,0.754c0.619,0.498,1.24,0.99,1.867,1.479l0.015-0.018
		c-0.583-0.541-1.169-1.076-1.759-1.606c-0.295-0.266-0.579-0.543-0.892-0.789c-0.313-0.244-0.632-0.482-0.975-0.69L15.594,9.02
		c0.059,0.069,0.123,0.133,0.184,0.199c-0.386,0-0.756-0.159-1.023-0.441l-0.141-0.15l-0.057,0.197
		c-0.207,0.706-0.839,1.2-1.571,1.227c-0.456,0.017-0.89-0.144-1.224-0.455c-0.333-0.309-0.527-0.731-0.543-1.185
		c-0.01-0.28,0.047-0.553,0.172-0.809l0.055-0.113L11.33,7.442c-0.491-0.197-0.82-0.665-0.84-1.191
		c-0.025-0.67,0.456-1.261,1.116-1.37l0.133-0.023l-0.04-0.128c-0.023-0.076-0.036-0.151-0.039-0.226
		c-0.01-0.242,0.076-0.474,0.241-0.651c0.164-0.177,0.388-0.279,0.629-0.288c0.499-0.021,0.92,0.371,0.94,0.855l0.01,0.13
		l0.137,0.003c0.017,0,0.034,0,0.05,0l0.083,0.005l0.033-0.074c0.27-0.607,0.847-1,1.51-1.024c0.46-0.019,0.9,0.145,1.238,0.457
		c0.338,0.314,0.533,0.74,0.551,1.201c0.019,0.504-0.184,0.991-0.557,1.333l-0.112,0.103l0.128,0.082
		c0.383,0.25,0.624,0.671,0.641,1.126c0.009,0.228-0.042,0.453-0.141,0.659C16.9,8.272,16.753,8.125,16.6,7.986l-0.02,0.017
		c0.198,0.35,0.427,0.674,0.664,0.994c0.236,0.318,0.505,0.611,0.763,0.913c0.513,0.605,1.032,1.208,1.555,1.804l0.018-0.015
		c-0.47-0.639-0.946-1.275-1.427-1.907c-0.239-0.317-0.466-0.643-0.727-0.943c-0.071-0.081-0.143-0.162-0.216-0.243
		c0.145-0.261,0.218-0.555,0.207-0.851c-0.018-0.484-0.251-0.935-0.63-1.23c0.358-0.381,0.551-0.889,0.53-1.416
		c-0.02-0.523-0.242-1.008-0.625-1.364c-0.384-0.354-0.884-0.54-1.408-0.521c-0.675,0.026-1.275,0.389-1.612,0.964
		c-0.129-0.511-0.604-0.88-1.149-0.86c-0.304,0.012-0.586,0.141-0.792,0.364c-0.208,0.224-0.316,0.515-0.304,0.819
		c0.001,0.053,0.008,0.108,0.019,0.163c-0.715,0.178-1.216,0.838-1.188,1.585c0.022,0.577,0.36,1.094,0.875,1.351
		c-0.107,0.259-0.156,0.53-0.147,0.81c0.02,0.518,0.24,0.997,0.621,1.349c0.379,0.352,0.873,0.536,1.391,0.516
		c0.772-0.029,1.444-0.51,1.727-1.217c0.312,0.263,0.709,0.401,1.118,0.386c0.024,0,0.046-0.003,0.069-0.005l0.024-0.003
		L15.93,9.378C16.091,9.547,16.26,9.712,16.433,9.873z"/>
	<path fill="#0E0F0F" d="M52.152,5.753c0.729-0.185,1.26-0.864,1.229-1.646c-0.018-0.435-0.199-0.838-0.521-1.136
		c-0.318-0.297-0.735-0.45-1.174-0.434c-0.078,0.002-0.153,0.01-0.229,0.027c-0.254-1.024-1.204-1.742-2.271-1.702
		c-0.828,0.032-1.569,0.517-1.935,1.253c-0.372-0.154-0.763-0.225-1.16-0.209c-0.741,0.028-1.429,0.343-1.932,0.887
		c-0.505,0.543-0.769,1.25-0.738,1.993c0.041,1.104,0.729,2.066,1.742,2.471c-0.376,0.445-0.576,1.016-0.554,1.601
		c0,0.035,0.002,0.066,0.008,0.099l0.004,0.035l0.098-0.01c-0.242,0.237-0.479,0.479-0.707,0.727
		c-0.386,0.419-0.725,0.876-1.078,1.32c-0.715,0.887-1.418,1.775-2.119,2.673l0.025,0.021c0.773-0.834,1.539-1.675,2.297-2.52
		c0.383-0.422,0.778-0.83,1.131-1.276c0.352-0.447,0.69-0.904,0.988-1.396L45.232,8.51c-0.101,0.083-0.188,0.175-0.283,0.262
		c0-0.553,0.228-1.083,0.634-1.465l0.211-0.203l-0.28-0.082c-1.009-0.296-1.715-1.201-1.755-2.25
		c-0.022-0.652,0.207-1.273,0.648-1.751c0.442-0.477,1.048-0.755,1.698-0.779c0.4-0.015,0.789,0.067,1.158,0.248l0.161,0.078
		l0.066-0.167c0.282-0.703,0.952-1.173,1.707-1.201c0.959-0.038,1.804,0.651,1.961,1.596l0.032,0.19l0.185-0.056
		c0.104-0.034,0.217-0.052,0.323-0.057c0.347-0.014,0.677,0.109,0.931,0.346c0.253,0.234,0.399,0.554,0.417,0.9
		c0.025,0.714-0.533,1.317-1.229,1.347L51.63,5.478v0.198c0.001,0.022,0,0.047-0.003,0.07l-0.006,0.119l0.107,0.048
		c0.867,0.386,1.43,1.212,1.465,2.161c0.027,0.658-0.207,1.289-0.657,1.772c-0.447,0.484-1.058,0.763-1.716,0.789
		c-0.723,0.029-1.42-0.262-1.91-0.797l-0.148-0.16L48.645,9.86c-0.354,0.55-0.959,0.893-1.61,0.917
		c-0.328,0.012-0.647-0.061-0.943-0.202c0.216-0.202,0.425-0.412,0.623-0.632l-0.022-0.026c-0.5,0.286-0.965,0.614-1.422,0.951
		c-0.457,0.339-0.875,0.723-1.308,1.093c-0.87,0.735-1.729,1.477-2.586,2.228l0.021,0.025c0.916-0.674,1.826-1.354,2.729-2.042
		c0.456-0.341,0.923-0.667,1.351-1.041c0.116-0.102,0.234-0.206,0.349-0.31c0.375,0.208,0.795,0.312,1.221,0.296
		c0.693-0.026,1.337-0.359,1.763-0.903c0.545,0.513,1.272,0.789,2.024,0.759c0.75-0.027,1.442-0.345,1.951-0.895
		c0.51-0.55,0.774-1.266,0.749-2.015C53.494,7.093,52.975,6.236,52.152,5.753z"/>
</g>
</svg>
