<?xml version="1.0" encoding="utf-8"?>
<!-- Generator: Adobe Illustrator 16.0.4, SVG Export Plug-In . SVG Version: 6.00 Build 0)  -->
<!DOCTYPE svg PUBLIC "-//W3C//DTD SVG 1.1//EN" "http://www.w3.org/Graphics/SVG/1.1/DTD/svg11.dtd">
<svg version="1.1" id="Capa_1" xmlns="http://www.w3.org/2000/svg" xmlns:xlink="http://www.w3.org/1999/xlink" x="0px" y="0px"
	 width="64px" height="64px" viewBox="0 0 64 64" enable-background="new 0 0 64 64" xml:space="preserve">
<g>
	<circle fill="#101111" cx="26.082" cy="8.375" r="6.11"/>
	<path fill="#101111" d="M38.129,34.625c-0.251-2.366-0.861-4.616-1.564-6.847c0.002,0.002,0.004,0.003,0.006,0.004
		c2.357,1.947,4.871,3.504,7.854,4.275c3.396,0.876,4.833-4.362,1.444-5.237c-4.825-1.245-7.959-5.442-12.194-7.848
		c-2.705-4.256-10.618-1.544-9.172,4.213c0.222,0.884,0.5,1.765,0.799,2.644c-1.073,1.396-2.541,2.317-4.537,2.203
		c-1.288-0.075-2.095,0.616-2.433,1.526h-2.24v1.358h2.082c0.074,0.721,0.389,1.423,0.954,1.909l-3.708,27.149l1.346,0.185
		l3.653-26.75c0.114,0.021,0.223,0.046,0.347,0.054c2.406,0.139,4.633-0.638,6.473-1.988c0.443,1.514,0.771,3.044,0.823,4.613
		c0.014,0.395,0.065,0.762,0.146,1.107c-1.861,1.281-3.608,2.729-5.203,4.275c-4.969,4.817,0.291,10.26,2.806,14.928
		c2.076,3.854,7.937,0.428,5.861-3.424c-0.891-1.654-1.925-3.207-2.927-4.795c-0.454-0.722-0.55-2.203-1.267-1.562
		c0.458-0.513,0.979-0.976,1.486-1.435c1.378-1.244,3.02-2.525,4.729-3.557c2.365,5.96,4.629,11.962,6.881,17.963
		c1.521,4.061,8.088,2.303,6.547-1.805C44.208,50.037,41.275,42.285,38.129,34.625z"/>
</g>
</svg>
