<?xml version="1.0" encoding="utf-8"?>
<!-- Generator: Adobe Illustrator 16.0.4, SVG Export Plug-In . SVG Version: 6.00 Build 0)  -->
<!DOCTYPE svg PUBLIC "-//W3C//DTD SVG 1.1//EN" "http://www.w3.org/Graphics/SVG/1.1/DTD/svg11.dtd">
<svg version="1.1" id="Capa_1" xmlns="http://www.w3.org/2000/svg" xmlns:xlink="http://www.w3.org/1999/xlink" x="0px" y="0px"
	 width="64px" height="64px" viewBox="0 0 64 64" enable-background="new 0 0 64 64" xml:space="preserve">
<g>
	<circle fill="#0E0F0F" cx="35.275" cy="10.25" r="4.754"/>
	<circle fill="#0E0F0F" cx="13.205" cy="42.46" r="4.002"/>
	<path fill="#0E0F0F" d="M51.971,31.866c-1.654-9.193-8.684-14.797-17.738-15.824c-0.416-0.047-0.778-0.007-1.092,0.098
		c-0.293-0.092-0.627-0.132-1.007-0.098c-4.129,0.367-7.68,3.463-10.246,6.538c-2.151,2.576,1.538,6.308,3.708,3.708
		c1.098-1.315,2.765-3.258,4.546-4.296c0.015,0.049,0.023,0.099,0.04,0.149c1.153,3.42,1.483,6.792,1.15,10.368
		c-1.289,0.502-2.549,1.099-3.786,1.742c-1.655,0.862-3.702,1.751-4.357,3.61c-1.314,3.729-2.629,7.457-3.943,11.185
		c-1.127,3.198,3.941,4.562,5.058,1.396c1.223-3.469,2.445-6.938,3.668-10.404c1.814-1.16,3.834-2.289,5.926-2.986
		c0.652,0.342,1.371,0.543,2.08,0.557c0.049,0,0.094-0.004,0.142-0.006c0.301,5.703,0.534,11.41,0.778,17.113
		c0.145,3.361,5.391,3.48,5.244,0.094c-0.332-7.789-0.646-15.584-1.138-23.366c-0.012-0.176-0.039-0.341-0.075-0.499
		c0.104-2.572-0.102-5.165-0.625-7.686c3.479,2.052,5.803,5.52,6.607,10.006C47.512,36.586,52.564,35.173,51.971,31.866z"/>
</g>
</svg>
