<?xml version="1.0" encoding="utf-8"?>
<!-- Generator: Adobe Illustrator 16.0.4, SVG Export Plug-In . SVG Version: 6.00 Build 0)  -->
<!DOCTYPE svg PUBLIC "-//W3C//DTD SVG 1.1//EN" "http://www.w3.org/Graphics/SVG/1.1/DTD/svg11.dtd">
<svg version="1.1" id="Capa_1" xmlns="http://www.w3.org/2000/svg" xmlns:xlink="http://www.w3.org/1999/xlink" x="0px" y="0px"
	 width="64px" height="64px" viewBox="0 0 64 64" enable-background="new 0 0 64 64" xml:space="preserve">
<g>
	<path fill="#0E0F0F" d="M45.682,24.289c3.182,1.366,6.832-0.193,8.153-3.484l-11.524-4.948
		C40.992,19.147,42.499,22.922,45.682,24.289z"/>
	<path fill="#0E0F0F" d="M48.412,51.773c-1.991,0.131-6.488-0.869-9.637-1.448c0.617-0.72,1.256-1.376,1.914-1.896
		c0.849-0.67,1.49-1.535,1.77-2.496c0.188-0.233,0.366-0.481,0.532-0.762c3.358-5.63,2.817-7.171,4.827-13.42
		c1.896-5.891-4.887-9.053-8.887-6.357c-2.906-0.417-5.795-0.914-8.656-1.626c-3.881-0.965-5.527,5.207-1.647,6.174
		c2.383,0.592,4.788,1.036,7.206,1.413c-0.716,2.932-0.626,4.003-2.896,7.814c-0.201,0.337-0.354,0.669-0.486,1
		c-8.147,0-16.799,0-24.669,0c-4.991,0-4.991,8.005,0,8.005c7.29,0,15.254,0,22.864,0c-0.766,1.048-1.5,2.113-2.215,3.183
		c-1.319,1.979-0.074,5.496,2.314,5.879c4.411,0.709,13.202,2.834,17.667,2.545C53.368,59.458,53.398,51.454,48.412,51.773z"/>
	<path fill="#0E0F0F" d="M59.619,23.246c-1.188-1.229-2.012-2.7-2.68-4.291c0.068-0.108,0.131-0.223,0.182-0.347l2.566-6.587
		c0.422-1.049-0.059-2.252-1.071-2.688L47.41,4.521c-1.016-0.435-2.18,0.062-2.6,1.112l-2.572,6.586
		c-0.418,1.049,0.062,2.252,1.078,2.688l11.205,4.813c0.076,0.033,0.155,0.05,0.234,0.073c0.771,1.87,1.746,3.627,3.223,5.152
		c0.225,0.234,0.522,0.352,0.818,0.352c0.299,0,0.596-0.117,0.82-0.352C60.073,24.476,60.073,23.715,59.619,23.246z"/>
</g>
</svg>
