<?xml version="1.0" encoding="utf-8"?>
<!-- Generator: Adobe Illustrator 17.0.0, SVG Export Plug-In . SVG Version: 6.00 Build 0)  -->
<!DOCTYPE svg PUBLIC "-//W3C//DTD SVG 1.1//EN" "http://www.w3.org/Graphics/SVG/1.1/DTD/svg11.dtd">
<svg version="1.1" id="Capa_1" xmlns="http://www.w3.org/2000/svg" xmlns:xlink="http://www.w3.org/1999/xlink" x="0px" y="0px"
	 width="64px" height="64px" viewBox="0 0 64 64" enable-background="new 0 0 64 64" xml:space="preserve">
<path fill="#0E0F0F" d="M59.229,14.458H46.28c-0.127,0-0.255,0.009-0.385,0.025c-0.838-0.09-1.679,0.17-2.308,0.976l-9.246,7.894
	c-0.113-0.125-0.245-0.243-0.419-0.34c-2.096-1.182-4.194-2.364-6.291-3.544c-0.532-0.949-1.436-1.605-2.713-1.614
	c-1.608-0.01-3.5,1.471-3.289,3.242c0,0-0.219,9.682,0.101,12.361c0.026,0.221,0.063,0.409,0.106,0.571L13.8,40.888L4.77,40.62
	c-1.686,0-3.059,1.373-3.059,3.06v5.371c0,1.685,1.373,3.058,3.059,3.058h12.95c1.069,0,2.031-0.54,2.592-1.449l28.947-24.715h9.971
	c1.687,0,3.058-1.371,3.058-3.057v-5.372C62.287,15.832,60.916,14.458,59.229,14.458z M28.183,23.486
	c1.206,0.679,2.412,1.359,3.617,2.038l-3.782,3.229c0.023-0.249,0.014-0.529-0.026-0.864C27.779,26.105,28.062,24.888,28.183,23.486
	z M59.229,23.431H48.332L18.397,48.987l-0.083,0.069l-0.117,0.232c-0.093,0.188-0.277,0.304-0.478,0.304H4.771
	c-0.299,0-0.542-0.242-0.542-0.54v-5.371c0-0.3,0.243-0.545,0.542-0.545h9.96l30.491-26.032c0.121-0.104,0.268-0.148,0.451-0.111
	l0.248,0.046l0.247-0.052c0.039-0.008,0.078-0.012,0.111-0.012h12.949c0.299,0,0.542,0.242,0.542,0.542v5.373h0.001
	C59.771,23.189,59.528,23.431,59.229,23.431z M22.373,13.91c0-1.585,1.285-2.87,2.87-2.87c1.585,0,2.87,1.285,2.87,2.87
	c0,1.585-1.285,2.87-2.87,2.87C23.658,16.78,22.373,15.495,22.373,13.91z M51.851,34.862c0,0.013,0.006,0.023,0.006,0.037v6.338
	c0,0.427-0.348,0.773-0.775,0.773s-0.775-0.345-0.775-0.773v-4.469L38.953,48.122c-0.303,0.303-0.793,0.303-1.095,0
	c-0.304-0.303-0.304-0.792,0-1.095l11.354-11.356h-4.469c-0.426,0-0.775-0.346-0.775-0.773c0-0.428,0.348-0.775,0.775-0.775h6.339
	c0.067,0,0.136,0.011,0.201,0.03c0.017,0.005,0.032,0.009,0.048,0.015c0.017,0.006,0.032,0.008,0.049,0.014
	c0.022,0.01,0.04,0.026,0.062,0.039c0.035,0.018,0.069,0.037,0.1,0.059c0.031,0.023,0.057,0.05,0.085,0.076
	c0.024,0.027,0.05,0.053,0.073,0.082c0.022,0.033,0.041,0.066,0.06,0.1c0.013,0.021,0.028,0.041,0.039,0.064
	c0.005,0.012,0.005,0.023,0.009,0.035c0.011,0.036,0.02,0.072,0.026,0.11C51.844,34.787,51.851,34.823,51.851,34.862z"/>
</svg>
