<?xml version="1.0" encoding="utf-8"?>
<!-- Generator: Adobe Illustrator 16.0.0, SVG Export Plug-In . SVG Version: 6.00 Build 0)  -->
<!DOCTYPE svg PUBLIC "-//W3C//DTD SVG 1.1//EN" "http://www.w3.org/Graphics/SVG/1.1/DTD/svg11.dtd">
<svg version="1.1" id="Capa_1" xmlns="http://www.w3.org/2000/svg" xmlns:xlink="http://www.w3.org/1999/xlink" x="0px" y="0px"
	 width="64px" height="64px" viewBox="0 0 64 64" enable-background="new 0 0 64 64" xml:space="preserve">
<g>
	<path d="M29.895,10.446c0,2.718,2.245,4.921,5.012,4.921c2.769,0,5.013-2.203,5.013-4.921H29.895z"/>
	<path d="M45.205,10.066l-1.596,0.568l0.021,0.081c-1,0.61-2.379,0.957-1.553-0.526c0.418-0.743,0.354-1.475-0.139-2.094L42.2,7.949
		L34.816,3.41L27.866,8l1.46,0.92l0.001,0.781h11.182L40.507,8.89L41.6,8.282c0.465,0.528,0.512,1.086,0.176,1.679
		c-0.914,1.617,0.205,2.178,1.953,1.154l0.017,0.055l1.601-0.568L45.205,10.066z"/>
	<path d="M31.565,16.304l3.357,7.934l4.063-7.854C36.635,16.032,33.816,16.106,31.565,16.304z"/>
	<path d="M41.334,16.959l-6.621,12.804l-5.573-13.17c-0.117,0.018-0.242,0.036-0.347,0.054c-5.339-5.952-6.129-11.726-6.875-12.896
		L25.921,4.2l0.246-2.204L11.906,0.402L11.66,2.605l5.55,0.621c-0.821,0.676-1.297,1.74-0.922,3.08
		c2.029,7.238,5.953,13.325,11.607,18.052l-3.499,27.083h3.573l0.044,9.5c0,3.719,5.792,3.725,5.792,0v-9.5h2.104v9.554
		c0,3.58,5.625,3.892,5.625,0v-9.554h3.583l-1.876-14.209c1.715,1.729,5.471,1.041,5.424-2.094
		C48.662,21.25,41.547,17.041,41.334,16.959z"/>
</g>
</svg>
