<?xml version="1.0" encoding="utf-8"?>
<!-- Generator: Adobe Illustrator 16.0.4, SVG Export Plug-In . SVG Version: 6.00 Build 0)  -->
<!DOCTYPE svg PUBLIC "-//W3C//DTD SVG 1.1//EN" "http://www.w3.org/Graphics/SVG/1.1/DTD/svg11.dtd">
<svg version="1.1" id="Capa_1" xmlns="http://www.w3.org/2000/svg" xmlns:xlink="http://www.w3.org/1999/xlink" x="0px" y="0px"
	 width="64px" height="64px" viewBox="0 0 64 64" enable-background="new 0 0 64 64" xml:space="preserve">
<g>
	<path fill="#0E0F0F" d="M57.314,26.767c-4.176,2.779-8.588,4.594-13.362,5.372c-0.058-3.641-4.199-5.587-7.44-4.515
		c-3.146-3.436-3.816-7.948-1.957-13.275c1.243-3.56-4.393-5.078-5.624-1.551c-2.593,7.429-1.106,14.415,3.838,19.376
		c-1.173,3.895-0.646,4.553-3.141,8.596c-0.188,0.306-0.335,0.608-0.458,0.91c-7.675,0-15.824,0-23.237,0
		c-4.702,0-4.702,7.291,0,7.291c6.867,0,14.369,0,21.537,0c-0.721,0.952-1.414,1.924-2.086,2.897
		c-1.243,1.802-0.07,5.005,2.178,5.354c4.156,0.646,12.438,1.123,16.644,0.858c4.669-0.293,4.695-7.585,0-7.29
		c-1.839,0.113-5.951,0.066-8.907-0.057c0.528-0.577,1.073-1.107,1.636-1.535c0.797-0.608,1.4-1.398,1.664-2.272
		c0.176-0.213,0.346-0.438,0.502-0.69c2.211-3.586,2.631-5.354,3.328-8.033c6.397-0.631,12.387-2.776,17.832-6.398
		C63.373,29.732,60.456,24.677,57.314,26.767z"/>
	<path fill="#0E0F0F" d="M41.634,27.212c2.998,1.244,6.437-0.176,7.683-3.173l-10.854-4.507
		C37.216,22.529,38.637,25.968,41.634,27.212z"/>
	<path fill="#0E0F0F" d="M40.189,19.227l8.34,3.463c0.755,0.314,1.621-0.044,1.935-0.799l4.826-10.208
		c0.313-0.755-0.043-1.621-0.797-1.935l-8.341-3.463c-0.756-0.313-1.623,0.045-1.936,0.801l-4.828,10.208
		C39.078,18.048,39.436,18.914,40.189,19.227z"/>
</g>
</svg>
