<?xml version="1.0" encoding="utf-8"?>
<!-- Generator: Adobe Illustrator 16.0.4, SVG Export Plug-In . SVG Version: 6.00 Build 0)  -->
<!DOCTYPE svg PUBLIC "-//W3C//DTD SVG 1.1//EN" "http://www.w3.org/Graphics/SVG/1.1/DTD/svg11.dtd">
<svg version="1.1" id="Capa_1" xmlns="http://www.w3.org/2000/svg" xmlns:xlink="http://www.w3.org/1999/xlink" x="0px" y="0px"
	 width="64px" height="64px" viewBox="0 0 64 64" enable-background="new 0 0 64 64" xml:space="preserve">
<g>
	<path fill="#010101" d="M34.404,25.164l8.863,2l-3.646,9.135c-2.071-2.76-4.421-5.505-5.104-6.294
		c-0.639-0.736-1.566-1.141-2.545-1.126c-0.973,0.024-1.886,0.482-2.485,1.25l-11.933,15.23c-1.111,1.418-0.863,3.467,0.556,4.576
		c0.595,0.469,1.304,0.693,2.007,0.693c0.967,0,1.925-0.429,2.568-1.25l9.451-12.062c2.084,2.572,4.176,5.35,4.702,6.543
		c0.154,0.351,0.363,0.656,0.611,0.92c0.447,1.049,1.343,1.957,2.554,2.438c2.257,0.9,4.743-0.013,5.552-2.038l6.992-17.521
		c0.354-0.891,0.326-1.847-0.008-2.717c-0.1-1.395-1.098-2.618-2.532-2.941l-14.169-3.196c-1.756-0.397-3.501,0.707-3.896,2.463
		C31.545,23.023,32.648,24.768,34.404,25.164z"/>
	<circle fill="#010101" cx="50.652" cy="13.787" r="5.01"/>
	<path fill="#010101" d="M61.305,22.474c-1.266-0.336-2.562,0.416-2.9,1.683l-0.735,2.771h-3.894
		c-0.045,0.434-0.146,0.86-0.312,1.269l-0.202,0.51h3.934l-6.225,23.438H12.379l-5.68-23.438h22.477
		c0.736-0.563,1.634-0.891,2.585-0.914h0.082c0.997,0,1.95,0.326,2.722,0.914h6.666l0.237-0.594l-5.253-1.185H6.267l-0.66-2.722
		c-0.309-1.273-1.589-2.056-2.863-1.746C1.473,22.769,0.691,24.051,1,25.323l7.21,29.75c0.259,1.062,1.211,1.812,2.305,1.812h42.279
		c1.074,0,2.017-0.725,2.292-1.764l7.902-29.75C63.322,24.108,62.57,22.81,61.305,22.474z"/>
</g>
</svg>
