<?xml version="1.0" encoding="utf-8"?>
<!-- Generator: Adobe Illustrator 16.0.4, SVG Export Plug-In . SVG Version: 6.00 Build 0)  -->
<!DOCTYPE svg PUBLIC "-//W3C//DTD SVG 1.1//EN" "http://www.w3.org/Graphics/SVG/1.1/DTD/svg11.dtd">
<svg version="1.1" id="Capa_1" xmlns="http://www.w3.org/2000/svg" xmlns:xlink="http://www.w3.org/1999/xlink" x="0px" y="0px"
	 width="64px" height="64px" viewBox="0 0 64 64" enable-background="new 0 0 64 64" xml:space="preserve">
<g>
	<rect x="41.348" y="1.741" fill="#0E0F0F" width="1.338" height="10.291"/>
	<path fill="#0E0F0F" d="M44.314,13.929c-0.557-2.595-4.521-1.494-3.969,1.095c0.746,3.506,0.758,8.826-2.642,10.849
		c-0.03-0.007-0.062-0.013-0.095-0.02v11.413c-0.336,0.051-0.641,0.174-0.898,0.344V25.68c-1.178-0.173-2.501-0.184-3.695-0.029
		v12.166c-0.246-0.207-0.559-0.354-0.9-0.438V25.65c-3.57,0-8.599,0-12.169,0c-2.654,0-2.654,4.117,0,4.117c2.681,0,6.822,0,9.503,0
		v8.108c0,0.296,0.032,0.584,0.078,0.867c-0.021,0.102-0.037,0.205-0.037,0.312v20.473c0,0.966,0.927,1.748,2.068,1.748
		c1.144,0,2.069-0.782,2.069-1.748V43.062c0.366,0.082,0.746,0.131,1.139,0.131c0.396,0,0.774-0.049,1.146-0.131v16.394
		c0,0.964,0.926,1.747,2.066,1.747c1.146,0,2.068-0.783,2.068-1.747V38.98c0-0.1-0.016-0.193-0.033-0.287
		c0.041-0.27,0.068-0.539,0.068-0.818v-8.604C44.854,26.226,45.468,19.329,44.314,13.929z"/>
	<path fill="#0E0F0F" d="M36.713,25.679c0.312,0.046,0.614,0.104,0.9,0.173V25.65h-0.9V25.679z"/>
	<circle fill="#0E0F0F" cx="34.438" cy="20.838" r="3.65"/>
</g>
</svg>
