<?xml version="1.0" encoding="utf-8"?>
<!-- Generator: Adobe Illustrator 16.0.4, SVG Export Plug-In . SVG Version: 6.00 Build 0)  -->
<!DOCTYPE svg PUBLIC "-//W3C//DTD SVG 1.1//EN" "http://www.w3.org/Graphics/SVG/1.1/DTD/svg11.dtd">
<svg version="1.1" id="Capa_1" xmlns="http://www.w3.org/2000/svg" xmlns:xlink="http://www.w3.org/1999/xlink" x="0px" y="0px"
	 width="64px" height="64px" viewBox="0 0 64 64" enable-background="new 0 0 64 64" xml:space="preserve">
<g>
	<circle fill="#0E0F0F" cx="15.603" cy="11.78" r="3.772"/>
	<path fill="#0E0F0F" d="M26.217,28.61h0.345v1.973h0.707v-1.427l6.022-0.236c0.006,0.078,0.025,0.158,0.064,0.238
		c0.222,0.45,0.326,0.938,0.574,1.376c0.151,0.272,0.438,0.345,0.686,0.271c0.008,0.003,0.016,0.008,0.023,0.014
		c0.07,0.345,0.172,0.686,0.299,1.022c0.273,0.724,1.394,0.45,1.181-0.326c-0.134-0.485-0.238-0.979-0.363-1.466
		c-0.052-0.404-0.063-0.814-0.036-1.238c0-0.003,0-0.006,0-0.01l1.268-0.869l-1.307-1.034l-8.411-0.534v-1.436h-0.707v1.973H26.44
		c-0.174-0.517-0.597-0.937-1.338-1.056c-3.913-0.635-5.698-3.153-6.541-6.87c-0.13-0.577-0.44-0.958-0.826-1.18
		c-0.769-1.348-2.346-1.792-3.821-1.491c-0.083-0.02-0.162-0.044-0.251-0.054c-4.673-0.537-8.747,1.84-10.591,6.165
		c-0.99,2.322,2.422,4.344,3.421,2c0.917-2.15,2.288-3.487,4.138-4.012c0.002,0.045,0,0.087,0.005,0.133
		c0,0-1.743,6.89-2.534,11.091c-0.396,0.633-0.526,1.175-0.463,1.641L3.236,49.816c-1.042,2.716,3.163,4.317,4.201,1.609
		l3.792-14.33c2.257,0.928,4.343,2.18,5.3,4.551c0.948,2.351-0.552,5.353-1.705,7.316c-1.457,2.48,2.184,5.133,3.654,2.626
		c2.008-3.423,3.574-7.376,2.294-11.347c-0.96-2.979-3.265-4.991-5.92-6.407l2.014-8.734c1.607,2.367,3.976,4.042,7.182,4.562
		C25.047,29.828,25.813,29.311,26.217,28.61z"/>
	<path fill="#0E0F0F" d="M33.521,31.964c0.201,0,0.36-0.162,0.36-0.363c0-0.2-0.36-0.615-0.36-0.615s-0.362,0.415-0.362,0.615
		C33.159,31.802,33.32,31.964,33.521,31.964z"/>
	<path fill="#0E0F0F" d="M34.682,32.943c0.086,0,0.156-0.07,0.156-0.155c0-0.086-0.156-0.265-0.156-0.265s-0.154,0.179-0.154,0.265
		C34.527,32.873,34.598,32.943,34.682,32.943z"/>
	<circle fill="#0E0F0F" cx="51.701" cy="25.327" r="3.579"/>
	<path fill="#0E0F0F" d="M61.484,46.215c-2.465-3.556-3.979-7.564-4.297-11.895c-0.037-0.508-0.229-0.912-0.502-1.221
		c-0.445-2.871-4.386-4.076-6.018-2c-2.57-1.485-5.066-3.12-7.798-4.304c-2.358-1.026-4.418,2.45-2.036,3.484
		c3.033,1.318,5.775,3.196,8.663,4.8c-0.578,2.419-1.326,4.791-2.208,7.116c-1.854-1.577-3.666-3.213-5.398-4.92
		c-1.24-1.221-3.084-0.834-4.018,0.519c-1.707,2.478-3.792,4.726-5.092,7.458c-1.813,0-3.625,0-5.439,0
		c-3.296,0-3.296,5.113,0,5.113c7.389,0,14.771,0,22.159,0c0.944,0,1.619-0.422,2.021-1.021c0.201-0.211,0.371-0.453,0.494-0.734
		c0.978-2.256,1.887-4.529,2.67-6.848c0.806,2.279,1.901,4.455,3.312,6.486C59.471,50.375,62.971,48.359,61.484,46.215z
		 M38.708,45.253c0.541-0.792,1.117-1.563,1.7-2.328c0.855,0.793,1.729,1.565,2.611,2.328
		C41.583,45.253,40.146,45.253,38.708,45.253z"/>
	<ellipse fill="#0E0F0F" cx="56.715" cy="50.716" rx="1.886" ry="1.032"/>
	<path fill="#0E0F0F" d="M50.771,51.291c-1.265,0-6.563,1.508-3.795,1.553c2.771,0.043,2.53,1.553,3.795,1.553
		c1.263,0,2.287-0.692,2.287-1.553C53.059,51.986,52.033,51.291,50.771,51.291z"/>
	<path fill="#0E0F0F" d="M55.382,54.396c0,0.201,0.241,0.362,0.538,0.362s0.893-0.362,0.893-0.362s-0.596-0.365-0.893-0.365
		S55.382,54.193,55.382,54.396z"/>
	<path fill="#0E0F0F" d="M57.887,52.844c0,0.202,0.239,0.365,0.537,0.365c0.299,0,0.893-0.365,0.893-0.365s-0.594-0.365-0.893-0.365
		C58.126,52.479,57.887,52.643,57.887,52.844z"/>
</g>
</svg>
