<?xml version="1.0" encoding="iso-8859-1"?>
<!-- Generator: Adobe Illustrator 16.0.0, SVG Export Plug-In . SVG Version: 6.00 Build 0)  -->
<!DOCTYPE svg PUBLIC "-//W3C//DTD SVG 1.1//EN" "http://www.w3.org/Graphics/SVG/1.1/DTD/svg11.dtd">
<svg version="1.1" id="Capa_1" xmlns="http://www.w3.org/2000/svg" xmlns:xlink="http://www.w3.org/1999/xlink" x="0px" y="0px"
	 width="500px" height="500px" viewBox="0 0 500 500" style="enable-background:new 0 0 500 500;" xml:space="preserve">
<g>
	<polygon points="254.424,209.778 4.07,209.778 4.07,236.566 25.474,236.566 25.474,480.126 202.468,480.126 202.468,236.566 
		254.424,236.566 	"/>
	<path d="M383.888,331.399c0.046,0,0.129,0.03,0.183,0.03c32.649,0.951,51.284-8.78,54.174-34.646l13.244-119.099
		c2.47-22.19-15.224-39.122-32.9-45.6l-0.143-0.046c0,0-6.303-2.05-12.067-2.836c-6.008-0.801-11.922,0.282-11.922,0.282
		c-13.808,1.61-27.448,11.374-27.448,11.374c-25.395,18.087-64.764,21.995-117.099,11.602c-13.166-2.649-25.965,5.946-28.58,19.107
		c-2.616,13.164,5.938,25.955,19.106,28.572c21.94,4.375,42.346,6.539,61.17,6.539c17.107,0,32.475-1.894,46.921-5.497l-0.115,1.68
		l-8.44,75.909c-44.21,1.597-72.062,10.705-82.979,27.249c-14.765,22.482-38.754,113.12-45.75,140.925
		c-3.616,14.363,5.113,28.938,19.478,32.563c2.185,0.549,4.39,0.823,6.561,0.823c12.004,0,22.952-8.122,26.008-20.285
		c12.329-48.979,29.363-99.745,37.141-115.817C306.875,330.25,349.506,329.506,383.888,331.399z"/>
	<circle cx="399.953" cy="71.873" r="54.305"/>
	<path d="M488.716,278.719l7.213-93.507c0.019-0.53-0.18-1.045-0.548-1.427c-0.369-0.382-0.876-0.598-1.407-0.598h-29.679
		c-1.054,0-1.918,0.834-1.956,1.888l-6.706,93.575c-0.883,28.85-9.383,64.332-57.84,64.332c-0.687,0-53.585-0.119-53.585-0.119
		c-0.001,0-0.001,0-0.001,0c-0.52,0-1.016,0.206-1.384,0.572c-0.366,0.367-0.573,0.866-0.573,1.385v28.914
		c0,1.081,0.876,1.957,1.957,1.957l48.645-0.002v66.461h-15.273c-19.994,0-36.885,17.552-36.885,38.325
		c0,1.081,0.876,1.956,1.956,1.956h19.266c1.081,0,1.957-0.875,1.957-1.956c0-7.642,6.272-14.098,13.698-14.098h63.341
		c7.43,0,13.706,6.456,13.706,14.098c0,1.081,0.877,1.956,1.957,1.956h19.273c1.08,0,1.956-0.875,1.956-1.956
		c0-20.773-16.895-38.325-36.893-38.325h-15.259v-70.026C473.417,370.833,484.5,323.5,488.716,278.719z"/>
	<path d="M207.604,181.223h-91.717L84.845,67.468c-0.219-0.8-1.043-1.273-1.842-1.052l-16.552,4.516
		c-0.384,0.105-0.71,0.358-0.907,0.703c-0.198,0.346-0.25,0.755-0.145,1.139l34.791,127.488c0.178,0.652,0.771,1.105,1.447,1.105
		h105.968c0.829,0,1.5-0.671,1.5-1.5v-17.145C209.104,181.894,208.433,181.223,207.604,181.223z"/>
</g>
</svg>
