<?xml version="1.0" encoding="utf-8"?>
<!-- Generator: Adobe Illustrator 16.0.4, SVG Export Plug-In . SVG Version: 6.00 Build 0)  -->
<!DOCTYPE svg PUBLIC "-//W3C//DTD SVG 1.1//EN" "http://www.w3.org/Graphics/SVG/1.1/DTD/svg11.dtd">
<svg version="1.1" id="Capa_1" xmlns="http://www.w3.org/2000/svg" xmlns:xlink="http://www.w3.org/1999/xlink" x="0px" y="0px"
	 width="64px" height="64px" viewBox="0 0 64 64" enable-background="new 0 0 64 64" xml:space="preserve">
<g>
	<path fill="#0E0F0F" d="M24.391,21.173c-2.147,3.705-2.654,8.033-2.68,12.429c-0.017,2.688,4.146,2.687,4.162,0
		c0.018-3.092,0.01-5.824,1.172-8.518c-0.055-0.092-0.09-0.144-0.113-0.176c0.09,0.052,0.142,0.109,0.113,0.176
		c0.456,0.76,1.797,3.638-0.329,8.624c-4.368,10.246-3.424,19.589-3.414,19.683c0.029,0.264,0.25,0.463,0.517,0.463h3.334v5.016
		c0,1.492,0.933,2.708,2.244,2.708s2.374-1.216,2.374-2.708v-5.016h1.722v4.961c0,1.496,1.065,2.707,2.374,2.707
		c1.31,0,2.375-1.211,2.375-2.707l0.039-4.961h3.052c0.258,0,0.478-0.186,0.515-0.438c0.062-0.382,1.408-9.448-2.965-19.708
		c-1.716-4.027-1.186-6.66-0.67-7.938c0.837,2.25,1.701,5.085,1.719,7.832c0.019,2.687,4.178,2.688,4.161,0
		c-0.024-4.396-0.534-8.724-2.681-12.429H24.391z"/>
	<path fill="#0E0F0F" d="M30.794,16.512c0.282,0.562,0.923,1.615,1.812,1.76v1.011h-1.144v0.457h1.144v1.143h0.457V19.74h1.145
		v-0.457h-1.145v-1.021c0.627-0.127,1.234-0.737,1.813-1.807c1.794,0.473,3.946,1.355,4.444,1.889
		c0.834,0.891,1.517,1.838,2.092,2.829h4.929l-0.114-0.343c-0.209-0.628-6.176-19.36-14.331-18.377
		c-8.155,0.981-12.823,18.37-12.823,18.37l-0.129,0.35h5.447c0.576-0.99,1.26-1.938,2.092-2.829
		C26.98,17.811,29.017,16.99,30.794,16.512z M32.77,17.987c-0.774-0.032-1.386-1-1.669-1.554c0.736-0.184,1.408-0.303,1.876-0.303
		c0.41,0,0.969,0.095,1.599,0.247C33.973,17.468,33.363,18.019,32.77,17.987z M27.721,9.036c0.668-2.17,2.692-3.752,5.078-3.752
		c2.93,0,5.311,2.382,5.311,5.312c0,2.928-2.381,5.313-5.311,5.313c-2.892,0-5.246-2.323-5.306-5.2h-0.051
		C27.441,10.123,27.542,9.561,27.721,9.036z"/>
	<path fill="#0E0F0F" d="M32.798,15.388c2.603,0,4.724-2.09,4.784-4.679h-9.571C28.071,13.298,30.194,15.388,32.798,15.388z"/>
</g>
</svg>
