<?xml version="1.0" encoding="utf-8"?>
<!-- Generator: Adobe Illustrator 17.0.0, SVG Export Plug-In . SVG Version: 6.00 Build 0)  -->
<!DOCTYPE svg PUBLIC "-//W3C//DTD SVG 1.1//EN" "http://www.w3.org/Graphics/SVG/1.1/DTD/svg11.dtd">
<svg version="1.1" id="Capa_1" xmlns="http://www.w3.org/2000/svg" xmlns:xlink="http://www.w3.org/1999/xlink" x="0px" y="0px"
	 width="64px" height="64px" viewBox="0 0 64 64" enable-background="new 0 0 64 64" xml:space="preserve">
<path fill="#010101" d="M31.947,15.578c2.847,0,5.154-2.309,5.154-5.156V9.219c0-1.07-0.326-2.063-0.884-2.887
	c0.085-0.037,0.17-0.079,0.256-0.107c0.154-0.051,0.314-0.083,0.445-0.074c0.135,0.01,0.214,0.054,0.269,0.135
	c0.024,0.035,0.045,0.079,0.061,0.126c-0.002,0.089-0.007,0.174-0.016,0.272c-0.013,0.118-0.03,0.269-0.031,0.403
	c-0.006,0.187,0.008,0.378,0.04,0.568c-0.029,0.167-0.063,0.359-0.079,0.542c-0.071,0.774,0.063,1.596,0.448,2.326
	c0.382,0.73,1.058,1.327,1.836,1.628c0.778,0.317,1.623,0.351,2.406,0.237c0.781-0.129,1.535-0.367,2.193-0.757
	c0.327-0.196,0.628-0.432,0.895-0.704c0.266-0.271,0.504-0.579,0.677-0.941c-0.398,0.075-0.747,0.183-1.086,0.298
	s-0.662,0.237-0.978,0.361c-0.316,0.123-0.624,0.25-0.935,0.362c-0.313,0.106-0.63,0.192-0.945,0.242
	c-0.634,0.109-1.273,0.087-1.844-0.112c-0.57-0.196-1.063-0.576-1.396-1.095c-0.16-0.242-0.278-0.513-0.363-0.801
	c0.29,0.266,0.643,0.472,1.021,0.582c0.587,0.183,1.204,0.153,1.758,0.024c0.552-0.144,1.076-0.354,1.509-0.685
	c0.213-0.167,0.4-0.365,0.554-0.593c0.151-0.227,0.277-0.482,0.334-0.783c-0.308,0.035-0.561,0.103-0.801,0.18
	c-0.238,0.076-0.458,0.164-0.666,0.258c-0.211,0.092-0.406,0.194-0.604,0.288c-0.2,0.088-0.403,0.166-0.606,0.217
	c-0.405,0.111-0.815,0.135-1.188,0.048c-0.37-0.086-0.704-0.284-0.951-0.59c-0.251-0.304-0.41-0.705-0.475-1.14
	c-0.004-0.021-0.006-0.041-0.009-0.061c-0.003-0.075-0.011-0.151-0.021-0.228c-0.001-0.018-0.002-0.033-0.003-0.053
	c-0.003-0.124-0.011-0.271-0.026-0.403c-0.017-0.138-0.041-0.279-0.087-0.425c-0.049-0.145-0.117-0.307-0.271-0.445
	c-0.075-0.067-0.174-0.123-0.274-0.147c-0.101-0.024-0.198-0.023-0.284-0.011c-0.171,0.029-0.305,0.094-0.424,0.164
	c-0.24,0.143-0.435,0.314-0.615,0.495c-0.01,0.01-0.019,0.02-0.029,0.03c-0.945-1.15-2.36-1.898-3.965-1.898
	c-2.847,0-5.156,2.308-5.156,5.155v1.203C26.792,13.269,29.1,15.578,31.947,15.578z M27.518,9.105c0-0.603,0.488-1.09,1.09-1.09
	h6.497c0.604,0,1.091,0.488,1.091,1.09c0,0.601-0.487,1.089-1.091,1.089h-6.497C28.006,10.194,27.518,9.706,27.518,9.105z
	 M21.319,8.183l-0.309-0.6l1.802,0.83l0.309,0.6L21.319,8.183z M22.436,10.349l1.802,0.83l0.308,0.6l-1.801-0.83L22.436,10.349z
	 M22.465,7.74l-1.213-0.559l0.731-0.377L22.465,7.74z M21.667,8.856l1.801,0.831l0.423,0.818l-1.803-0.83L21.667,8.856z
	 M19.034,35.473h4.954c0.016,0.346,0.033,0.691,0.056,1.035c0.212,3.184-4.736,3.164-4.945,0
	C19.078,36.188,19.056,35.84,19.034,35.473z M45.009,31.342h0.181v3.826h-0.316c0.021-0.332,0.039-0.678,0.056-1.039h0.029
	c0.033-0.875,0.053-1.813,0.046-2.786h-5.069c-0.024-0.723-0.055-1.444-0.111-2.162c-0.081-1.075-0.261-5.049-1.228-7.136
	c-0.052,0.263-0.093,0.429-0.093,0.429c-0.005,3.417,0.572,13.518,0.572,13.518h-0.151l0.001,0.055h-5.947h-1.99h-6.166
	c0,0,0.578-10.1,0.573-13.517c0,0-0.039-0.166-0.091-0.429c-0.968,2.087-1.148,6.06-1.23,7.136c-0.06,0.8-0.1,1.605-0.123,2.41
	h0.402v3.826h-0.366c-0.02-0.469-0.037-0.941-0.049-1.412h-0.008c-0.01-0.806-0.003-1.609,0.018-2.412H18.89
	c0.007-6.307,1.042-14.165,6.504-15.563l-1.347-2.613l-0.582,0.299l-0.294-0.571l0.582-0.3l-0.659-1.278l1.656,0.764l0.698-0.36
	l0.294,0.571l-0.61,0.315l1.477,2.866c0.383-0.093,0.776-0.186,0.801-0.186c0.054-0.004,0.142-0.009,0.245-0.015l4.532,4.029
	l3.636-4.02c0.136,0.014,0.275,0.028,0.405,0.045c0.11,0.007,0.201,0.012,0.259,0.015c0.049,0,0.095-0.008,0.148-0.006
	c0.499,0.031,0.96,0.112,1.398,0.231v0.033C43.844,16.939,44.971,24.895,45.009,31.342z M44.874,35.168
	c-0.025,0.461-0.053,0.892-0.077,1.285c-0.211,3.164-5.158,3.184-4.945,0c0.027-0.428,0.049-0.857,0.066-1.285h-0.225v-3.826h0.24
	c0.028,0.887,0.041,1.775,0.031,2.662c0,0-0.007,0-0.007,0c-0.01,0.389-0.022,0.777-0.038,1.164H44.874z M38.698,37.63l0.003,19.615
	l-0.308,0.406l-0.005,1.715c0,0.411-0.103,0.791-0.272,1.141c-0.373,0.957-1.263,1.631-2.4,1.631c-0.98,0-1.832-0.504-2.317-1.254
	c-0.307-0.43-0.49-0.954-0.49-1.518V57.6l-0.306-0.357l0.306-12.646h-1.922l0.306,12.646l-0.306,0.307v1.871
	c0,1.473-1.226,2.664-2.74,2.664c-0.018,0-0.034-0.004-0.057-0.004c0,0-0.005,0.002-0.009,0.002c-0.678,0-1.259-0.25-1.704-0.643
	c-0.588-0.491-0.968-1.207-0.968-2.02l-0.007-1.82l-0.308-0.408l0.004-19.508h0.392v-0.055h2.624h7.468v0.001H38.698z
	 M18.965,34.184c0.022,0.453,0.045,0.885,0.069,1.289h-0.651v-3.826h0.505c-0.001,0.884,0.018,1.738,0.047,2.537H18.965z"/>
</svg>
