<?xml version="1.0" encoding="iso-8859-1"?>
<!-- Generator: Adobe Illustrator 16.0.0, SVG Export Plug-In . SVG Version: 6.00 Build 0)  -->
<!DOCTYPE svg PUBLIC "-//W3C//DTD SVG 1.1//EN" "http://www.w3.org/Graphics/SVG/1.1/DTD/svg11.dtd">
<svg version="1.1" id="Capa_1" xmlns="http://www.w3.org/2000/svg" xmlns:xlink="http://www.w3.org/1999/xlink" x="0px" y="0px"
	 width="500px" height="500px" viewBox="0 0 500 500" style="enable-background:new 0 0 500 500;" xml:space="preserve">
<g>
	<path d="M225.242,189.987c4.311-2.849,8.33-5.529,11.979-7.737c8.688-5.25,11.482-16.554,6.214-25.239
		c-5.238-8.689-16.546-11.461-25.228-6.223c-4.053,2.445-8.521,5.403-13.291,8.56c-15.428,10.229-38.895,26.148-52.063,22.426
		c-9.625-2.72-10.786-9.35-13.954-14.155c-6.818-12.582-21.304-20.933-34.394-20.66c0,0-11.675,0-25.898,5.596
		c-64.09,22.856-64.261,38.019-64.253,45.435c0.009,6.763,0.148,13.298,19.12,24.331H7.808L7.747,436.029h160.066l10.625-97.807
		c0,0-53.075-3.91-79.508-7.738c-31.757-4.598-37.31-33.873-37.31-33.873l-16.527-68.152c9.471,4.613,21.767,9.904,38,16.161
		c2.173,0.835,4.403,1.232,6.6,1.232c7.385,0,14.343-4.48,17.161-11.773c3.648-9.479-1.077-20.123-10.55-23.768
		c-9.992-3.85-21.175-8.567-30.436-12.829c1.586-0.731,3.328-1.483,5.045-2.242l25.673,10.199
		c15.497,5.984,19.826,18.521,15.244,30.435c-3.421,8.887-13.746,19.954-31.866,12.799c-5.595-2.208-10.633-4.17-15.406-6.138
		l7.973,51.806c2.271,14.746,11.323,22.381,27.008,26.607c7.576,3.164,89.693,9.396,89.693,9.396
		c-2.765,32.17-8.396,84.957-9.074,91.129c-1.841,12.832,6.466,25.123,19.312,28.02c1.856,0.412,3.714,0.611,5.527,0.611
		c11.468,0,21.809-7.922,24.431-19.574c1.103-4.912,10.737-119.828,10.828-120.973c0.579-6.967-2.082-14.563-6.798-19.717
		c-6.053-6.619-11.479-12.469-75.965-14.654l-8.762-56.881c2.623,0.394,5.247,0.656,7.876,0.656
		C181.553,218.962,206.384,202.496,225.242,189.987z"/>
	<circle cx="96.855" cy="97.242" r="47.348"/>
	<path d="M492.193,222.321h-25.668c18.972-11.033,19.112-17.568,19.12-24.331c0.008-7.416-0.162-22.579-64.253-45.435
		c-14.225-5.596-25.897-5.596-25.897-5.596c-13.091-0.273-27.576,8.078-34.394,20.66c-3.17,4.805-4.329,11.436-13.954,14.155
		c-13.169,3.723-36.637-12.197-52.063-22.426c-4.771-3.156-9.238-6.115-13.293-8.56c-8.68-5.239-19.988-2.466-25.227,6.223
		c-5.27,8.685-2.475,19.989,6.214,25.239c3.648,2.208,7.669,4.888,11.979,7.737c18.857,12.509,43.688,28.975,68.634,28.975
		c2.629,0,5.254-0.262,7.876-0.656l-8.761,56.881c-64.486,2.186-69.912,8.035-75.966,14.654c-4.717,5.154-7.377,12.75-6.797,19.717
		c0.091,1.145,9.725,116.061,10.827,120.973c2.623,11.652,12.964,19.574,24.432,19.574c1.813,0,3.67-0.199,5.526-0.611
		c12.845-2.896,21.153-15.188,19.313-28.02c-0.68-6.172-6.312-58.959-9.074-91.129c0,0,82.117-6.232,89.693-9.396
		c15.684-4.227,24.735-11.861,27.008-26.607l7.972-51.806c-4.772,1.968-9.813,3.929-15.406,6.138
		c-18.12,7.154-28.445-3.913-31.866-12.799c-4.583-11.914-0.253-24.451,15.244-30.435l25.672-10.199
		c1.719,0.759,3.46,1.51,5.046,2.242c-9.26,4.262-20.442,8.979-30.435,12.829c-9.474,3.645-14.199,14.289-10.551,23.768
		c2.818,7.293,9.776,11.773,17.16,11.773c2.197,0,4.429-0.397,6.602-1.232c16.232-6.256,28.528-11.547,37.999-16.161l-16.527,68.152
		c0,0-5.553,29.275-37.31,33.873c-26.433,3.828-79.507,7.738-79.507,7.738l10.624,97.807h160.066L492.193,222.321z"/>
	<circle cx="403.146" cy="97.242" r="47.348"/>
</g>
</svg>
