<?xml version="1.0" encoding="utf-8"?>
<!-- Generator: Adobe Illustrator 16.0.4, SVG Export Plug-In . SVG Version: 6.00 Build 0)  -->
<!DOCTYPE svg PUBLIC "-//W3C//DTD SVG 1.1//EN" "http://www.w3.org/Graphics/SVG/1.1/DTD/svg11.dtd">
<svg version="1.1" id="Capa_1" xmlns="http://www.w3.org/2000/svg" xmlns:xlink="http://www.w3.org/1999/xlink" x="0px" y="0px"
	 width="64px" height="64px" viewBox="0 0 64 64" enable-background="new 0 0 64 64" xml:space="preserve">
<g>
	<circle fill="#010101" cx="25.111" cy="13.321" r="4.547"/>
	<path fill="#010101" d="M29.105,30.547h-0.158c0-2.503,0-5.007,0-7.51c3.085-1.376,5.562-3.597,6.813-6.967
		c1.506-4.056-0.307-8.685-2.768-11.925c-1.834-2.416-5.979-0.043-4.118,2.407c1.704,2.244,3.098,4.879,2.432,7.767
		c-0.577,2.499-2.846,3.897-5.133,4.707c-0.744-0.22-1.549-0.247-2.307-0.081c-2.227-0.832-4.178-2.194-4.907-4.626
		c-0.831-2.777,0.818-5.642,2.432-7.767c1.861-2.451-2.284-4.823-4.118-2.407c-2.593,3.417-4.034,7.692-2.767,11.925
		c0.953,3.183,3.445,5.367,6.332,6.748c0,2.778,0,5.557,0,8.336L17.024,42.55c0,0,18.361,5.007,16.852-15.819L29.105,30.547z"/>
	<path fill="#010101" d="M19.312,58.949c0,3.074,4.769,3.074,4.769,0c0-3.233,0-11.455,0-14.688h-4.769
		C19.312,47.494,19.312,55.716,19.312,58.949z"/>
	<path fill="#010101" d="M46.432,18.421c-2.498,2.05-8.666,7.264-11.164,9.314c0,0,0.172,5.134-0.649,6.935
		c0,0,12.339-10.512,14.839-12.562C51.834,20.159,48.811,16.47,46.432,18.421z"/>
</g>
</svg>
