<?xml version="1.0" encoding="utf-8"?>
<!-- Generator: Adobe Illustrator 16.0.4, SVG Export Plug-In . SVG Version: 6.00 Build 0)  -->
<!DOCTYPE svg PUBLIC "-//W3C//DTD SVG 1.1//EN" "http://www.w3.org/Graphics/SVG/1.1/DTD/svg11.dtd">
<svg version="1.1" id="Capa_1" xmlns="http://www.w3.org/2000/svg" xmlns:xlink="http://www.w3.org/1999/xlink" x="0px" y="0px"
	 width="64px" height="64px" viewBox="0 0 64 64" enable-background="new 0 0 64 64" xml:space="preserve">
<g>
	<path fill="#0E0F0F" d="M37.434,18.136c-0.432-0.389-0.906-0.537-1.367-0.525v-0.009c-0.515-0.106-1.086-0.224-1.662,0.145
		c-0.32,0.207-1.278,1.393-1.278,1.393l0.171,1.834l-1.744-0.963l-1.234,2.732c0,0-0.851-1.534-1.683-2.958
		c-0.198-0.339-1.392,0.324-1.575,0.02c0,0,0.674-1.526,0.537-1.739c-0.27-0.42-0.465-0.685-0.516-0.665
		c0,0-0.826-0.947-3.847,0.441c-0.385,0.117-0.762,0.347-1.101,0.75c-0.94,1.121-1.882,2.241-2.823,3.362
		c-1.021-1.005-2.027-2.025-2.986-3.087c-2.192-2.43-5.764,1.164-3.583,3.582c1.573,1.743,3.259,3.386,4.959,5.003
		c0.934,0.888,2.677,1.077,3.583,0c0.875-1.042,1.75-2.083,2.625-3.125L24.353,29l-3.431,17.303h3.389c0,4.748,0,9.498,0,14.248
		c0,3.266,5.066,3.266,5.066,0c0-4.75,0-9.5,0-14.248h1.568c0.153,5.243,1.199,10.461,3.842,15.049
		c1.631,2.83,6.009,0.281,4.375-2.555c-2.206-3.83-3.02-8.143-3.157-12.494h3.438L36.84,34.621c1.059,0.631,2.577,0.521,3.223-0.93
		c1.027-2.318,4.064-8.171,4.064-8.171S39.209,19.732,37.434,18.136z M36.127,31.418l-0.434-1.944l-0.043-0.003
		c0.064-2.898,0.744-2.912,0.748-5.552l-0.032-0.607c0.791,0.819,1.522,1.694,2.198,2.614
		C37.751,27.756,36.938,29.587,36.127,31.418z"/>
	<path fill="#0E0F0F" d="M30.234,10.671c-0.256,1.747,3.454,3.378,3.454,3.378c0.078-0.263,0.133-0.527,0.162-0.794
		c0.076,0.127,0.155,0.252,0.24,0.378c0.154,0.229,0.323,0.462,0.528,0.688c0.204,0.226,0.442,0.455,0.747,0.648
		c0.297,0.193,0.687,0.329,1.061,0.315c0.375-0.014,0.699-0.153,0.934-0.343c0.236-0.19,0.406-0.417,0.529-0.664
		c0.062-0.125,0.111-0.25,0.148-0.385c0.02-0.068,0.035-0.136,0.051-0.205c0.014-0.072,0.025-0.139,0.031-0.215
		c-0.068,0.003-0.133,0.017-0.196,0.021c-0.062,0.009-0.12,0.018-0.182,0.025c-0.12,0.014-0.233,0.032-0.343,0.042
		c-0.213,0.023-0.408,0.032-0.562,0.009c-0.156-0.023-0.262-0.075-0.312-0.137c-0.053-0.06-0.078-0.107-0.14-0.183
		c-0.118-0.147-0.284-0.455-0.428-0.809c-0.144-0.359-0.283-0.761-0.427-1.18c-0.146-0.418-0.299-0.855-0.48-1.303
		c-0.186-0.447-0.392-0.904-0.682-1.391c-0.146-0.244-0.312-0.496-0.553-0.765c-0.121-0.135-0.263-0.273-0.445-0.408
		c-0.182-0.132-0.414-0.269-0.691-0.324c-0.276-0.058-0.572-0.015-0.789,0.097c-0.218,0.109-0.366,0.274-0.459,0.443
		c-0.146,0.277-0.181,0.573-0.115,0.909c-0.063-0.029-0.127-0.057-0.193-0.083c-2.092-0.839-4.337,0.313-5.015,2.576
		C26.108,11.013,29.081,12.889,30.234,10.671z"/>
	<path fill="#0E0F0F" d="M49.018,4.923c0.252-1.198-0.443-2.417-1.615-2.801c-0.957-0.314-2.002-0.003-2.635,0.772
		c-0.011-0.004-0.021-0.007-0.031-0.011c-1.147-0.376-2.393,0.252-2.77,1.402c-0.361,1.106,0.205,2.297,1.271,2.722l-2.221,3.277
		l0.217,0.147l2.314-3.418l0.062-0.153l-0.164-0.054c-1.014-0.332-1.564-1.426-1.234-2.438c0.334-1.013,1.43-1.567,2.438-1.235
		C44.68,3.14,44.703,3.15,44.729,3.16l0.127,0.05l0.062-0.08c0.557-0.744,1.521-1.048,2.402-0.76
		c1.07,0.352,1.695,1.483,1.425,2.578l-0.021,0.089l0.074,0.051c0.896,0.606,1.284,1.745,0.947,2.771
		c-0.418,1.273-1.794,1.971-3.068,1.553c-0.674-0.221-1.215-0.725-1.484-1.383l-0.075-0.182l-3.294,3.299l0.186,0.186l3.021-3.026
		c0.32,0.642,0.883,1.13,1.566,1.355c1.41,0.462,2.938-0.309,3.398-1.72C50.357,6.832,49.955,5.605,49.018,4.923z"/>
	<path fill="#0E0F0F" d="M16.552,8.614c-0.407,0.787-0.098,1.758,0.69,2.166c0.757,0.391,1.685,0.12,2.116-0.601l2.11,1.989
		l0.131-0.14l-2.2-2.074l-0.104-0.065l-0.058,0.113c-0.359,0.693-1.214,0.966-1.907,0.607c-0.692-0.359-0.964-1.215-0.607-1.907
		c0.01-0.017,0.02-0.033,0.029-0.051l0.051-0.084l-0.051-0.054c-0.472-0.489-0.58-1.224-0.268-1.826
		c0.379-0.733,1.271-1.053,2.031-0.729l0.061,0.027l0.046-0.049c0.542-0.577,1.411-0.725,2.113-0.361
		c0.872,0.451,1.216,1.527,0.764,2.399c-0.238,0.461-0.667,0.794-1.173,0.913L20.184,8.92l2,2.768l0.156-0.112l-1.834-2.539
		c0.502-0.156,0.92-0.504,1.164-0.974c0.499-0.967,0.119-2.159-0.847-2.659c-0.758-0.392-1.692-0.245-2.294,0.353
		c-0.837-0.321-1.8,0.04-2.214,0.841c-0.339,0.655-0.238,1.447,0.249,1.995C16.561,8.6,16.557,8.606,16.552,8.614z"/>
</g>
</svg>
