<?xml version="1.0" encoding="utf-8"?>
<!-- Generator: Adobe Illustrator 16.0.4, SVG Export Plug-In . SVG Version: 6.00 Build 0)  -->
<!DOCTYPE svg PUBLIC "-//W3C//DTD SVG 1.1//EN" "http://www.w3.org/Graphics/SVG/1.1/DTD/svg11.dtd">
<svg version="1.1" id="Capa_1" xmlns="http://www.w3.org/2000/svg" xmlns:xlink="http://www.w3.org/1999/xlink" x="0px" y="0px"
	 width="64px" height="64px" viewBox="0 0 64 64" enable-background="new 0 0 64 64" xml:space="preserve">
<g>
	<path fill="#0E0F0F" d="M45.454,21.766v0.003l-2.196,25.81h-8.213v-1.063v-8.664h1.04v8.602c1.769-0.241,3.679-1.151,4.521-3.036
		c0.033-0.187,0.305-1.04,0.406-1.301c2.928-7.363,1.95-14.96-1.373-21.994c-2.291-4.841-9.726-2.578-11.456,1.583
		c-0.043,0.023-0.088,0.036-0.131,0.062l-0.513,0.31c-0.982,0.592-1.851,1.116-2.719,1.528c0.437-1.736,1.016-3.519,1.678-5.107
		c0.583-1.396,0.106-2.96-1.05-3.83c0.494-0.751,0.698-1.65,0.505-2.518l0.469-0.196L24.27,6.826l-7.469,3.135l2.154,5.127
		l0.467-0.197c0.286,0.438,0.679,0.78,1.131,1.031c-0.013,0.028-0.031,0.052-0.042,0.079c-1.528,3.668-2.656,8.082-2.941,11.518
		c-0.076,0.904,0.231,1.799,0.845,2.465c0.614,0.668,1.479,1.048,2.387,1.048c3.638,0,6.296-1.21,8.593-2.524
		c0.881,3.298,0.68,6.602-0.494,9.952c-3.25,0.017-6.292,0.54-9.189,1.595c-1.383,0.502-2.342,1.771-2.455,3.234
		c-0.546,7.083,2.089,12.293,4.737,16.456c0.714,1.123,1.927,1.737,3.166,1.737c0.687-0.002,1.385-0.19,2.008-0.588
		c1.747-1.11,2.261-3.431,1.151-5.172c-2.263-3.559-3.372-6.365-3.598-9.334c1.439-0.313,2.623-0.459,4.206-0.445v-4.971h1.121
		v6.604h-3.954v3.538h16.862h3.489h1.3l2.499-29.348H45.454z M24.436,14.16c-1.158-0.349-2.386-0.033-3.212,0.785
		c-0.241-0.142-0.455-0.322-0.626-0.546l4.181-1.755C24.854,13.174,24.723,13.708,24.436,14.16z"/>
	<circle fill="#0E0F0F" cx="33.455" cy="9.279" r="6.854"/>
</g>
</svg>
