<?xml version="1.0" encoding="utf-8"?>
<!-- Generator: Adobe Illustrator 16.0.4, SVG Export Plug-In . SVG Version: 6.00 Build 0)  -->
<!DOCTYPE svg PUBLIC "-//W3C//DTD SVG 1.1//EN" "http://www.w3.org/Graphics/SVG/1.1/DTD/svg11.dtd">
<svg version="1.1" id="Capa_1" xmlns="http://www.w3.org/2000/svg" xmlns:xlink="http://www.w3.org/1999/xlink" x="0px" y="0px"
	 width="64px" height="64px" viewBox="0 0 64 64" enable-background="new 0 0 64 64" xml:space="preserve">
<g>
	<path fill="#0E0F0F" d="M12.294,14.162c0,0,2.371,1.355,4.271,1.995h-2.168c-0.242,0-0.44,0.188-0.458,0.425h-0.492
		c-0.017-0.237-0.215-0.425-0.457-0.425H10.8c-0.252,0-0.457,0.205-0.457,0.458l0.196,1.066c0.011,0.244,0.212,0.437,0.458,0.437
		h1.797c0.246,0,0.446-0.193,0.457-0.437l0.047-0.249h0.789l0.048,0.249c0.01,0.244,0.211,0.437,0.456,0.437h1.798
		c0.245,0,0.445-0.193,0.457-0.437l0.193-1.031l0.003-0.035c0-0.155-0.082-0.286-0.2-0.368c0.661,0.201,1.245,0.298,1.619,0.193
		c0-1.197-0.487-2.337-1.283-3.203c-0.582-0.631-1.326-1.116-2.164-1.369c-0.421-0.126-0.863-0.196-1.321-0.196
		c-2.633,0-4.769,2.135-4.769,4.768C8.926,16.439,11.7,16.428,12.294,14.162z M16.651,16.602l-0.192,1.021l-0.004,0.036
		c0,0.036-0.03,0.065-0.065,0.065h-1.798c-0.035,0-0.065-0.03-0.065-0.065l-0.114-0.621h-1.44l-0.11,0.585l-0.004,0.036
		c0,0.036-0.028,0.065-0.065,0.065h-1.797c-0.037,0-0.066-0.03-0.066-0.065l-0.194-1.058c0.006-0.03,0.032-0.054,0.064-0.054h2.19
		c0.031,0,0.058,0.024,0.064,0.054l-0.07,0.371h1.417l-0.07-0.371c0.006-0.03,0.032-0.054,0.065-0.054h2.188
		C16.618,16.548,16.644,16.572,16.651,16.602z"/>
	<path fill="#0E0F0F" d="M17.24,12.935c0.483-0.256,0.816-0.779,0.816-1.383c0-0.856-0.667-1.55-1.49-1.55
		c-0.824,0-1.492,0.694-1.492,1.55c0,0.005,0.001,0.009,0.001,0.009C15.914,11.819,16.659,12.302,17.24,12.935z"/>
	<path fill="#0E0F0F" d="M46.816,12.903v-0.416c0-0.58-0.471-1.051-1.049-1.051h-0.106c-0.578,0-1.05,0.471-1.05,1.051v0.416H30.693
		v2.727h0.841v2.651l-2.714,3.696c-0.663-0.207-1.444-0.104-1.896,0.448c-1.292,1.579-2.778,2.89-4.434,4.023
		c-0.708-0.866-1.344-1.772-1.86-2.779c-0.06-0.114-0.131-0.218-0.211-0.312c-0.5-0.992-1.106-1.132-1.106-1.132
		s-0.966-0.994-2.852-1.093l-0.726,0.618l1.73,1.472l-2.912-0.197l-1.182,1.669l-1.182-1.669L9.896,23.18
		c-0.038-0.124-0.09-0.242-0.156-0.353l1.267-1.078l-0.656-0.558c-2.142,0.219-3.877,0.727-4.155,1.776
		c-2.009,3.091-3.084,6.537-3.447,10.2c-0.239,2.427,3.544,2.403,3.781,0c0.196-1.972,0.694-3.848,1.475-5.618l0.63,1.515v6.604
		L6.181,43.5h2.312v9.805c0,1.045,0.846,1.891,1.89,1.891c1.045,0,1.891-0.846,1.891-1.891V43.5h1.96v9.977
		c0,1.045,0.846,1.892,1.891,1.892c1.044,0,1.891-0.847,1.891-1.892V43.5h2.872l-3.216-7.83v-5.975l0.027-2.757
		c0.877,0.347,1.565,1.522,1.565,1.522c0.385,0.486,0.786,0.959,1.196,1.423c0.046,0.053,0.102,0.093,0.153,0.137
		c0.505,0.733,1.45,1.151,2.439,0.558c2.461-1.47,4.725-3.251,6.545-5.478c0.652-0.797,0.783-1.891,0-2.674
		c-0.012-0.012-0.028-0.021-0.04-0.032l1.977-2.692v15.011c0,0.811,0.659,1.471,1.471,1.471h11.869v10.31l-6.204,4.794
		c-0.367,0.283-0.436,0.812-0.148,1.178c0.164,0.217,0.412,0.327,0.664,0.327c0.181,0,0.359-0.058,0.514-0.177l5.176-3.998v6.217
		c0,0.465,0.376,0.841,0.84,0.841c0.465,0,0.842-0.376,0.842-0.841v-6.217l5.176,3.998c0.152,0.119,0.334,0.177,0.514,0.177
		c0.252,0,0.501-0.11,0.666-0.327c0.283-0.365,0.216-0.895-0.15-1.178l-6.205-4.794v-10.31h11.871c0.811,0,1.469-0.662,1.469-1.472
		V15.63h0.842v-2.727H46.816z M13.694,33.471c-0.639,0-1.156-0.516-1.156-1.154c0-0.639,0.517-1.156,1.156-1.156
		c0.637,0,1.155,0.517,1.155,1.156C14.849,32.955,14.332,33.471,13.694,33.471z M13.694,28.758c-0.639,0-1.156-0.518-1.156-1.155
		c0-0.638,0.517-1.155,1.156-1.155c0.637,0,1.155,0.517,1.155,1.155S14.332,28.758,13.694,28.758z M58.635,34.712
		c0,0.116-0.094,0.209-0.209,0.209H46.073c-0.107-0.052-0.608-0.052-0.718,0H33.005c-0.116,0-0.21-0.093-0.21-0.209V17.986
		l1.161-1.581l-0.677-0.498l-0.484,0.658V15.63h25.84V34.712z"/>
	<path fill="#0E0F0F" d="M35.738,22.379c0.107,0,0.215-0.012,0.314-0.034l4.579,4.58c-0.022,0.101-0.034,0.206-0.034,0.314
		c0,0.82,0.666,1.485,1.485,1.485c0.821,0,1.487-0.665,1.487-1.485c0-0.081-0.01-0.159-0.021-0.236l3.521-1.792
		c0.266,0.406,0.723,0.676,1.244,0.676c0.135,0,0.261-0.019,0.383-0.051l1.39,1.389c-0.137,0.226-0.218,0.489-0.218,0.771
		c0,0.82,0.665,1.486,1.484,1.486c0.821,0,1.485-0.666,1.485-1.486c0-0.361-0.129-0.691-0.344-0.949l2.851-4.29
		c0.11,0.027,0.225,0.042,0.344,0.042c0.82,0,1.485-0.665,1.485-1.485s-0.665-1.485-1.485-1.485s-1.486,0.665-1.486,1.485
		c0,0.423,0.18,0.803,0.462,1.074l-2.8,4.214c-0.159-0.058-0.331-0.091-0.512-0.091c-0.256,0-0.5,0.066-0.711,0.181l-1.259-1.259
		c0.257-0.268,0.415-0.63,0.415-1.03c0-0.821-0.662-1.485-1.484-1.485c-0.818,0-1.483,0.665-1.483,1.485
		c0,0.021,0.003,0.042,0.003,0.063l-3.6,1.833c-0.273-0.333-0.688-0.544-1.15-0.544c-0.421,0-0.801,0.176-1.072,0.458l-4.246-4.246
		c0.284-0.271,0.461-0.65,0.461-1.072c0-0.821-0.666-1.485-1.486-1.485s-1.485,0.664-1.485,1.485S34.919,22.379,35.738,22.379z"/>
</g>
</svg>
