<?xml version="1.0" encoding="utf-8"?>
<!-- Generator: Adobe Illustrator 16.0.4, SVG Export Plug-In . SVG Version: 6.00 Build 0)  -->
<!DOCTYPE svg PUBLIC "-//W3C//DTD SVG 1.1//EN" "http://www.w3.org/Graphics/SVG/1.1/DTD/svg11.dtd">
<svg version="1.1" id="Capa_1" xmlns="http://www.w3.org/2000/svg" xmlns:xlink="http://www.w3.org/1999/xlink" x="0px" y="0px"
	 width="15.619px" height="24.986px" viewBox="0 0 15.619 24.986" enable-background="new 0 0 15.619 24.986" xml:space="preserve">
<g>
	<path d="M12.864,17.961l-0.771-0.769c0,0-1.225,1.305-1.304,1.305c-0.081,0-1.308-1.305-1.308-1.305l-0.771,0.769
		c0,0,1.306,1.198,1.306,1.308c0,0.106-1.306,1.308-1.306,1.308l0.771,0.767c0,0,1.217-1.305,1.308-1.305
		c0.089,0,1.304,1.305,1.304,1.305l0.771-0.767c0,0-1.307-1.218-1.307-1.308C11.558,19.177,12.864,17.961,12.864,17.961z"/>
	<path d="M10.789,14.435c-2.667,0-4.83,2.164-4.83,4.831s2.163,4.83,4.83,4.83s4.83-2.163,4.83-4.83S13.456,14.435,10.789,14.435z
		 M10.789,23.348c-2.252,0-4.081-1.828-4.081-4.082c0-2.259,1.829-4.081,4.081-4.081c2.254,0,4.082,1.822,4.082,4.081
		C14.87,21.52,13.042,23.348,10.789,23.348z"/>
	<circle cx="5.376" cy="2.207" r="2.207"/>
	<path d="M5.516,20.476v3.26l0.009,0.009c0.009,0.688,0.565,1.238,1.251,1.238c0.643,0,1.167-0.487,1.236-1.11
		c-0.083-0.052-0.173-0.093-0.253-0.146C6.646,22.976,5.833,21.821,5.516,20.476z"/>
	<path d="M7.771,14.724c0.08-0.057,0.168-0.097,0.253-0.146L8.022,7.891h0.606v5.047c0,0.003,0,0.006,0,0.007
		c0,0.516,0.417,0.932,0.932,0.932c0.516,0,0.933-0.416,0.933-0.932c0-0.001,0-0.004,0-0.007V7.51
		C10.287,5.09,7.48,5.125,7.48,5.125H3.056C-0.112,5.185,0.001,7.51,0.001,7.51L0,12.938h0.003c-0.002,0.014-0.002,0.025-0.002,0.04
		c0,0.515,0.417,0.932,0.932,0.932c0.514,0,0.929-0.417,0.929-0.932c0-0.015,0-0.025-0.001-0.04h0.001V7.914h0.584L2.439,23.725
		c0,0.693,0.562,1.261,1.257,1.261c0.695,0,1.257-0.565,1.257-1.261V13.523h0.562v4.457C5.834,16.629,6.652,15.474,7.771,14.724z"/>
</g>
</svg>
