<?xml version="1.0" encoding="utf-8"?>
<!-- Generator: Adobe Illustrator 16.0.4, SVG Export Plug-In . SVG Version: 6.00 Build 0)  -->
<!DOCTYPE svg PUBLIC "-//W3C//DTD SVG 1.1//EN" "http://www.w3.org/Graphics/SVG/1.1/DTD/svg11.dtd">
<svg version="1.1" id="Capa_1" xmlns="http://www.w3.org/2000/svg" xmlns:xlink="http://www.w3.org/1999/xlink" x="0px" y="0px"
	 width="64px" height="64px" viewBox="0 0 64 64" enable-background="new 0 0 64 64" xml:space="preserve">
<g>
	<circle fill="#0E0F0F" cx="40.307" cy="20.857" r="3.343"/>
	<path fill="#0E0F0F" d="M52.873,23.328c-3.701,1.391-7.523,2.207-11.475,2.427c-0.039,0.001-0.072,0.012-0.111,0.017
		c-0.473-0.179-0.977-0.26-1.457-0.21c-0.42,0.043-0.795,0.16-1.13,0.329c-2.999-0.72-5.854-1.757-8.558-3.324
		c-2.056-1.193-3.907,1.987-1.855,3.176c2.728,1.583,5.622,2.707,8.643,3.497c0.008,1.958,0.021,3.914,0.03,5.873
		c-0.708,4.941-2.78,12.725-4.438,16.662c-0.493,1.168,0.06,2.519,1.229,3.012c0.292,0.122,0.594,0.184,0.893,0.184
		c0.896,0,1.752-0.531,2.121-1.41c1.237-2.94,2.502-7.237,3.449-11.215c0.78,3.495,1.006,6.897,0.732,10.664
		c-0.088,1.268,0.865,2.366,2.133,2.456c0.055,0.007,0.111,0.009,0.168,0.009c1.193,0,2.202-0.927,2.289-2.137
		c0.416-5.844-0.217-10.9-2.1-16.502c-0.015-2.521-0.026-5.041-0.041-7.561c3.576-0.355,7.078-1.128,10.457-2.398
		C56.049,26.048,55.1,22.491,52.873,23.328z"/>
	<path fill="#0E0F0F" d="M22.871,19.53l-12.154,2.304c0.182-1.334,1.167-2.47,2.538-2.789c-1.754,0.259-3.417-0.907-3.75-2.666
		c-0.341-1.803,0.844-3.543,2.649-3.886c0.088-0.018,0.177-0.029,0.266-0.037l-0.107-0.57c-5.424,1.028-9.029,6.209-8.271,11.721
		L3.51,23.709c-0.298,0.057-0.494,0.345-0.438,0.643c0.057,0.299,0.345,0.497,0.643,0.438l0.533-0.1
		c1.311,5.409,6.563,8.91,11.988,7.88l-0.081-0.417c-0.086,0.025-0.172,0.048-0.262,0.064c-1.804,0.342-3.544-0.843-3.885-2.647
		c-0.342-1.804,0.843-3.543,2.645-3.886c0.091-0.017,0.18-0.028,0.269-0.037l-0.03-0.166c-0.087,0.023-0.173,0.046-0.264,0.063
		c-1.802,0.343-3.544-0.843-3.885-2.646c-0.013-0.069-0.02-0.139-0.03-0.208l12.316-2.334c1.089-0.207,2.145,0.513,2.351,1.602
		c0.208,1.091-0.513,2.145-1.602,2.352l0.157,0.827c1.545-0.293,2.565-1.79,2.272-3.336C25.912,20.256,24.416,19.235,22.871,19.53z"
		/>
	<path fill="#0E0F0F" d="M47.975,13.456c0.256-0.335,0.08-1.361,0.08-1.361s-1.035,0.104-1.289,0.438
		c-0.256,0.334-0.189,0.811,0.146,1.066C47.242,13.854,47.723,13.79,47.975,13.456z"/>
	<path fill="#0E0F0F" d="M53.748,12.533c-0.253,0.334-0.189,0.811,0.146,1.066c0.334,0.254,0.812,0.19,1.064-0.143
		c0.255-0.335,0.078-1.361,0.078-1.361S54.004,12.199,53.748,12.533z"/>
	<path fill="#0E0F0F" d="M51.195,18.043c0.256-0.334,0.078-1.36,0.078-1.36s-1.035,0.104-1.289,0.438
		c-0.256,0.333-0.189,0.812,0.144,1.065C50.463,18.442,50.941,18.378,51.195,18.043z"/>
	<path fill="#0E0F0F" d="M61.154,15.115c0.256-0.334,0.08-1.359,0.08-1.359s-1.036,0.103-1.291,0.437
		c-0.254,0.333-0.188,0.811,0.146,1.066C60.422,15.513,60.9,15.449,61.154,15.115z"/>
	<path fill="#0E0F0F" d="M38.795,13.456c0.256-0.335,0.079-1.361,0.079-1.361s-1.035,0.104-1.29,0.438s-0.189,0.811,0.145,1.066
		C38.062,13.854,38.54,13.79,38.795,13.456z"/>
	<path fill="#0E0F0F" d="M32.202,15.945c0.254-0.335,0.079-1.361,0.079-1.361s-1.035,0.104-1.289,0.438
		c-0.255,0.334-0.19,0.811,0.145,1.066C31.471,16.342,31.947,16.278,32.202,15.945z"/>
	<path fill="#0E0F0F" d="M59.943,19.635c-0.254,0.333-0.188,0.811,0.146,1.065c0.333,0.254,0.812,0.191,1.065-0.143
		c0.256-0.335,0.08-1.359,0.08-1.359S60.198,19.301,59.943,19.635z"/>
	<path fill="#0E0F0F" d="M59.191,25.155c-0.254,0.333-0.19,0.811,0.146,1.065c0.334,0.255,0.812,0.191,1.065-0.144
		c0.255-0.334,0.078-1.359,0.078-1.359S59.445,24.82,59.191,25.155z"/>
	<path fill="#0E0F0F" d="M55.254,19.635c-0.255,0.333-0.189,0.811,0.145,1.065c0.334,0.254,0.812,0.191,1.066-0.143
		c0.256-0.335,0.077-1.359,0.077-1.359S55.508,19.301,55.254,19.635z"/>
	<path fill="#0E0F0F" d="M51.463,32.729c-0.253,0.336-0.189,0.813,0.145,1.067c0.334,0.253,0.812,0.188,1.067-0.146
		s0.078-1.36,0.078-1.36S51.718,32.395,51.463,32.729z"/>
	<path fill="#0E0F0F" d="M47.975,22.02c0.256-0.335,0.08-1.361,0.08-1.361s-1.035,0.103-1.289,0.438
		c-0.256,0.333-0.189,0.812,0.146,1.066C47.242,22.418,47.723,22.353,47.975,22.02z"/>
</g>
</svg>
