<?xml version="1.0" encoding="utf-8"?>
<!-- Generator: Adobe Illustrator 16.0.4, SVG Export Plug-In . SVG Version: 6.00 Build 0)  -->
<!DOCTYPE svg PUBLIC "-//W3C//DTD SVG 1.1//EN" "http://www.w3.org/Graphics/SVG/1.1/DTD/svg11.dtd">
<svg version="1.1" id="Capa_1" xmlns="http://www.w3.org/2000/svg" xmlns:xlink="http://www.w3.org/1999/xlink" x="0px" y="0px"
	 width="64px" height="64px" viewBox="0 0 64 64" enable-background="new 0 0 64 64" xml:space="preserve">
<g>
	<path fill="#0E0F0F" d="M62.004,24.862L36.016,47.584c-1.627,1.422-3.256,2.094-4.839,1.994c-2.313-0.146-3.846-1.906-3.859-1.922
		L2.747,24.451l-1.08,0.874l24.496,23.128c0.251,0.286,2.062,2.222,4.892,2.406c0.146,0.009,0.291,0.015,0.437,0.015
		c1.886,0,3.755-0.799,5.562-2.38l25.989-22.723L62.004,24.862z"/>
	<circle fill="#0E0F0F" cx="46.363" cy="20.478" r="4.652"/>
	<path fill="#0E0F0F" d="M28.549,43.854c0.389,0.504,0.888,0.938,1.457,1.258c0.195,0.13,0.391,0.228,0.591,0.285
		c1.354,0.535,2.971,0.439,4.362-0.764c4.143-3.583,8.282-7.166,12.422-10.75c0.221-0.191,0.408-0.391,0.572-0.594
		c2.812-2.515,5.623-5.032,8.436-7.547c2.137-1.912-1.012-5.037-3.137-3.137c-2.031,1.818-4.062,3.636-6.096,5.454
		c-1.502-1.251-3.801-1.657-5.688-0.025c-1.257,1.088-2.515,2.176-3.772,3.264c-0.366-1.229-0.688-2.472-0.971-3.727l0.465-0.271
		l-0.084-0.142l0.754-0.704l-5.146-8.771L31.01,20.39l0.101,0.172l-0.022,0.014l2.693,4.604c-0.996,0.349-1.815,1.304-1.543,2.626
		c0.462,2.255,1.063,4.469,1.813,6.644c-0.936,0.81-1.871,1.618-2.807,2.429c-0.854-2.913-1.712-5.828-2.568-8.742
		c-0.271-0.931-1.143-1.653-2.136-1.628c-3.365,0.086-6.728,0.173-10.091,0.26c-0.108,0.002-0.206,0.022-0.306,0.038
		c-0.869-0.777-1.738-1.556-2.607-2.334c-2.124-1.901-5.271,1.225-3.136,3.136C16.453,33.023,22.5,38.439,28.549,43.854z
		 M32.702,19.634l-1.015,0.591l1.013-1.607l4.546,7.748l-0.393,0.366L32.702,19.634z M24.893,30.986
		c0.486,1.653,0.971,3.303,1.455,4.956c-1.806-1.615-3.613-3.235-5.419-4.853C22.25,31.054,23.572,31.02,24.893,30.986z"/>
</g>
</svg>
