<?xml version="1.0" encoding="utf-8"?>
<!-- Generator: Adobe Illustrator 16.0.4, SVG Export Plug-In . SVG Version: 6.00 Build 0)  -->
<!DOCTYPE svg PUBLIC "-//W3C//DTD SVG 1.1//EN" "http://www.w3.org/Graphics/SVG/1.1/DTD/svg11.dtd">
<svg version="1.1" id="Capa_1" xmlns="http://www.w3.org/2000/svg" xmlns:xlink="http://www.w3.org/1999/xlink" x="0px" y="0px"
	 width="64px" height="64px" viewBox="0 0 64 64" enable-background="new 0 0 64 64" xml:space="preserve">
<g>
	<path fill="#0E0F0F" d="M16.397,32.564c-0.078-0.459-0.212-0.919-0.401-1.366c-0.563-1.33-0.871-2.734-1.011-4.16
		c1.498,0.876,2.942,1.839,4.268,2.972c2.577,2.2,6.334-1.521,3.739-3.739c-2.799-2.39-5.909-4.21-9.186-5.859
		c-0.067-0.034-0.133-0.061-0.2-0.088c-0.751-0.657-1.726-1.068-2.707-1.074c-2.338-0.016-3.954,1.838-4.115,4.056
		C6.717,24.215,6.714,25.111,6.752,26c-0.912,1.108-2.02,2.033-3.407,2.726c-3.05,1.522-0.372,6.083,2.669,4.564
		c0.633-0.315,1.228-0.69,1.801-1.093c0.317,1.056,0.693,2.102,1.132,3.138c0.012,0.028,0.028,0.054,0.041,0.08
		c-1.219,2.235-2.123,4.619-2.207,7.212c-0.121,3.68,2.537,6.471,5.637,7.98c3.052,1.483,5.734-3.072,2.669-4.564
		c-1.831-0.893-3.072-1.814-3.002-3.958c0.044-1.345,0.648-2.716,1.382-3.992c2.18,3.771,4.413,7.511,6.655,11.246
		c1.751,2.919,6.323,0.263,4.564-2.667C21.88,41.993,19.087,37.309,16.397,32.564z"/>
	<circle fill="#0E0F0F" cx="9.77" cy="14.843" r="4.005"/>
	<circle fill="#0E0F0F" cx="37.312" cy="14.47" r="4.005"/>
	<path fill="#0E0F0F" d="M57.141,34.921c-1.076,0.892-2.216,1.701-3.326,2.545c-1.215-1.675-2.51-3.323-3.521-5.104
		c-0.081-0.415-0.216-0.829-0.401-1.228c-0.787-1.682-1.547-3.375-2.285-5.078c2.168,0.646,4.401,1.087,6.689,1.381
		c3.375,0.432,3.334-4.859,0-5.288c-3.753-0.482-7.396-1.591-10.681-3.484c-0.009-0.004-0.017-0.008-0.023-0.012
		c-0.854-0.554-1.897-0.768-3.089-0.449c-0.678,0.181-1.337,0.599-1.873,1.147c-2.729,1.452-5.27,3.191-7.589,5.255
		c-0.111,0.099-0.206,0.201-0.294,0.304l-5.735-4.064l-0.972,1.373l6.163,4.369c0.158,1.469,1.78,2.759,3.375,2.392l0.067,0.048
		l0.059-0.082c0.368-0.105,0.73-0.297,1.074-0.602c1.188-1.057,2.457-1.997,3.785-2.848c1.237,2.974,2.512,5.932,3.857,8.859
		c-1.82,3.951-4.312,7.582-6.359,11.436c-1.601,3.008,2.965,5.68,4.562,2.667c2.02-3.797,4.38-7.388,6.25-11.226
		c0.124-0.018,0.246-0.037,0.367-0.062c1.244,1.826,2.576,3.604,3.716,5.521c0.892,1.496,2.91,1.705,4.151,0.533
		c1.787-1.684,3.877-3.002,5.768-4.563C63.509,36.486,59.747,32.768,57.141,34.921z"/>
</g>
</svg>
