<?xml version="1.0" encoding="utf-8"?>
<!-- Generator: Adobe Illustrator 16.0.0, SVG Export Plug-In . SVG Version: 6.00 Build 0)  -->
<!DOCTYPE svg PUBLIC "-//W3C//DTD SVG 1.1//EN" "http://www.w3.org/Graphics/SVG/1.1/DTD/svg11.dtd">
<svg version="1.1" id="Capa_1" xmlns="http://www.w3.org/2000/svg" xmlns:xlink="http://www.w3.org/1999/xlink" x="0px" y="0px"
	 width="64px" height="64px" viewBox="0 0 64 64" enable-background="new 0 0 64 64" xml:space="preserve">
<g>
	<path fill="#0E0F0F" d="M63.892,30.832c-0.507-3.141-1.608-6.309-3.252-9.041c-0.641,2.247-2.382,4.034-4.605,4.729
		c0.327,0.701,0.611,1.423,0.859,2.158c-1.095,0.025-2.198,0.021-3.289-0.021c-1.736-2.401-5.368-3.704-8.331-1.399
		c-0.738-1.593-1.292-3.224-1.589-4.936c1.316,0.079,2.631,0.18,3.937,0.359c-0.38-0.854-0.591-1.797-0.591-2.791
		c0-1.266,0.344-2.451,0.941-3.474c-2.547-0.302-5.122-0.391-7.677-0.6c-1.751-0.144-3.093,1.541-3.143,3.144
		c-0.151,4.434,1.132,8.565,3.139,12.429c-2.013,1.618-3.886,3.073-5.946,4.745c-2.623-2.622-5.659-4.881-8.688-6.927
		c-1.579-1.066-3.424-0.436-4.765,0.616c-4.11,3.224-8.222,6.452-12.332,9.679c-0.623,0.49-1.012,1.037-1.209,1.6
		c-1.16,0-2.319,0-3.478,0c-5.072,0-5.072,7.861,0,7.861c9.957,0,19.914,0,29.871,0c2.376,0,3.816-1.199,4.606-1.88
		c5.482-4.744,8.995-7.128,14.479-11.873c0.129-0.11,0.242-0.223,0.352-0.335c2.563,0.117,5.144,0.053,7.684-0.066
		C63.059,34.713,64.222,32.894,63.892,30.832z M19.155,41.102c1.547-1.215,3.096-2.428,4.641-3.64c1.558,1.106,3.106,2.309,4.5,3.64
		C25.25,41.102,22.202,41.102,19.155,41.102z"/>
	<path fill="#0E0F0F" d="M54.137,25.615c3.374,0,6.116-2.745,6.116-6.118c0-3.372-2.745-6.116-6.116-6.116s-6.115,2.745-6.115,6.116
		C48.021,22.87,50.766,25.615,54.137,25.615z"/>
</g>
</svg>
