<?xml version="1.0" encoding="utf-8"?>
<!-- Generator: Adobe Illustrator 16.0.4, SVG Export Plug-In . SVG Version: 6.00 Build 0)  -->
<!DOCTYPE svg PUBLIC "-//W3C//DTD SVG 1.1//EN" "http://www.w3.org/Graphics/SVG/1.1/DTD/svg11.dtd">
<svg version="1.1" id="Capa_1" xmlns="http://www.w3.org/2000/svg" xmlns:xlink="http://www.w3.org/1999/xlink" x="0px" y="0px"
	 width="64px" height="64px" viewBox="0 0 64 64" enable-background="new 0 0 64 64" xml:space="preserve">
<g>
	<path fill="#0E0F0F" d="M45.27,55.266c-2.318-0.75-4.64-1.5-6.957-2.25c-0.942-0.305-1.886-0.606-2.826-0.914
		c1.506,0.486-0.406-0.914-0.84-1.562c-0.447-0.673-0.754-1.398-0.99-2.153c0.304-0.622,0.381-1.382,0.232-2.11
		c0-0.051,0.004-0.101,0.002-0.151c-0.082-3.806,0.084-9.353,3.223-11.953c1.902-1.579,1.592-4.807-0.034-6.412
		c-1-0.987-2.206-1.356-3.404-1.255c-3.372-2.606-6.834-5.09-10.371-7.473l3.685-10.198h-0.5H26.09
		c0.14-0.225,0.224-0.489,0.224-0.773c0-0.814-0.659-1.473-1.473-1.473s-1.474,0.659-1.474,1.473c0,0.285,0.085,0.548,0.225,0.773
		h-3.19H20.12h-0.175c0.022-0.08,0.038-0.164,0.038-0.251c0-0.521-0.423-0.944-0.945-0.944c-0.521,0-0.944,0.423-0.944,0.944
		c0,0.087,0.017,0.171,0.038,0.251h-1.683h-0.197H15.63l3.539,10.427c-1.043,1.299-1.189,3.458,0.605,4.661L18.4,26.848l3.799-1.27
		c2.142,1.477,4.252,2.997,6.329,4.564c-0.011,0.015-0.023,0.03-0.035,0.045l0.305,0.158c0.417,0.316,0.836,0.631,1.25,0.951
		l-3.721,4.022l0.788-2.74c-1.52,3.275-2.123,7.179-2.265,10.738c-1.417-0.032-2.834-0.045-4.254-0.047
		c-1.221,0-2.72,0.912-2.915,2.217c-0.847,5.693,0.742,11.084,3.932,15.826c2.162,3.215,7.399,0.193,5.219-3.049
		c-1.774-2.64-3.254-5.72-3.425-8.934c0.993,0.014,1.983,0.039,2.974,0.076c0.456,0.373,0.983,0.646,1.544,0.822
		c1.172,3.562,3.422,6.883,7.078,8.063c2.888,0.933,5.772,1.865,8.661,2.798C47.382,62.293,48.963,56.456,45.27,55.266z
		 M26.686,42.168c-0.334,0-0.604-0.541-0.604-1.21c0-0.667,0.27-1.209,0.604-1.209s0.604,0.542,0.604,1.209
		C27.29,41.627,27.02,42.168,26.686,42.168z M26.988,39.448c-0.333,0-0.604-0.541-0.604-1.21c0-0.668,0.27-1.209,0.604-1.209
		s0.605,0.541,0.605,1.209C27.593,38.907,27.322,39.448,26.988,39.448z"/>
	<path fill="#0E0F0F" d="M34.691,19.074c1.287,0.757,5.559,3.283,6.252,3.687c0.693,0.403-1.43,1.766-1.495,3.231
		c-0.089,2.011,1.053,0.621,1.053,0.621l0.651-1.105c1.439-2.441,2.617-4.414,0.258-5.806l-1.46-0.862c0,0-1.729-0.651-3.399-5.246
		c-1.178,1.382-0.092,3.186-0.092,3.186s-1.325-1.946-1.893-1.791C34.566,14.989,33.41,18.315,34.691,19.074z"/>
	<circle fill="#0E0F0F" cx="16.763" cy="7.114" r="1.133"/>
	<circle fill="#0E0F0F" cx="21.435" cy="7.114" r="1.468"/>
	<circle fill="#0E0F0F" cx="23.896" cy="5.037" r="0.944"/>
	<circle fill="#0E0F0F" cx="22.252" cy="3.488" r="0.944"/>
	<circle fill="#0E0F0F" cx="19.038" cy="4.093" r="1.549"/>
</g>
</svg>
