<?xml version="1.0" encoding="utf-8"?>
<!-- Generator: Adobe Illustrator 16.0.4, SVG Export Plug-In . SVG Version: 6.00 Build 0)  -->
<!DOCTYPE svg PUBLIC "-//W3C//DTD SVG 1.1//EN" "http://www.w3.org/Graphics/SVG/1.1/DTD/svg11.dtd">
<svg version="1.1" id="Capa_1" xmlns="http://www.w3.org/2000/svg" xmlns:xlink="http://www.w3.org/1999/xlink" x="0px" y="0px"
	 width="64px" height="64px" viewBox="0 0 64 64" enable-background="new 0 0 64 64" xml:space="preserve">
<g>
	<path fill="#0E0F0F" d="M48.861,36.471c-1.771,0.963-4.918,2.926-7.562,4.596c-0.18-0.387-0.359-0.772-0.543-1.159
		c2.254-1.103,4.105-2.407,5.049-3.937l-9.26-10.021l-0.052,0.016c-0.279-1.271-0.54-2.546-0.804-3.82
		c2.713,1.062,5.388,2.222,8.011,3.516c2.94,1.45,5.524-2.951,2.575-4.407c-4.537-2.239-9.215-4.165-14.008-5.788
		c-0.123-0.042-0.237-0.058-0.354-0.082c-0.607-0.228-1.291-0.334-2.053-0.282c-1.396,0.097-2.88,0.948-3.799,2.158
		c-1.429,1.347-2.857,2.694-4.286,4.041c-2.466-0.822-4.933-1.645-7.4-2.467c-3.132-1.044-4.463,3.887-1.357,4.922
		c2.907,0.97,5.813,1.938,8.719,2.907c0.871,0.291,1.842-0.053,2.483-0.657c0.6-0.566,1.201-1.132,1.801-1.698
		c0.314,1.521,0.638,3.039,0.97,4.556L23.164,44.73c0,0,1.491-0.203,3.719-0.631c-1.122,4.353-2.509,8.715-3.579,12.479
		c-1.136,4.001,4.995,6.021,6.133,2.018c1.39-4.888,3.209-10.604,4.458-16.154c0.308-0.088,0.614-0.181,0.922-0.273
		c0.69,1.553,1.373,3.111,1.949,4.721c0.719,2.004,3.092,2.723,4.851,1.611c2.536-1.6,8.223-5.245,10.85-6.677
		C56.126,39.834,52.488,34.498,48.861,36.471z"/>
	<path fill="#0E0F0F" d="M28.958,8.043c-0.921,2.206,3.916,5.392,3.916,5.392c0.196-0.32,0.356-0.651,0.485-0.989
		c0.067,0.186,0.146,0.374,0.228,0.563c0.149,0.342,0.317,0.693,0.542,1.048c0.223,0.353,0.497,0.72,0.874,1.058
		c0.37,0.337,0.888,0.625,1.433,0.714c0.547,0.087,1.057-0.001,1.455-0.182c0.402-0.18,0.719-0.428,0.975-0.713
		c0.126-0.146,0.24-0.294,0.339-0.46c0.047-0.083,0.095-0.167,0.138-0.251c0.041-0.091,0.078-0.175,0.113-0.272
		c-0.104-0.017-0.197-0.017-0.295-0.03c-0.092-0.005-0.18-0.011-0.271-0.02c-0.177-0.015-0.344-0.025-0.504-0.042
		c-0.318-0.031-0.599-0.075-0.816-0.148c-0.219-0.078-0.354-0.175-0.407-0.269c-0.06-0.094-0.078-0.163-0.144-0.278
		c-0.123-0.226-0.267-0.675-0.359-1.177c-0.094-0.508-0.167-1.072-0.243-1.659c-0.076-0.588-0.158-1.201-0.28-1.835
		c-0.123-0.637-0.279-1.292-0.544-2.009c-0.135-0.361-0.3-0.737-0.555-1.156c-0.136-0.211-0.292-0.431-0.519-0.66
		c-0.218-0.224-0.511-0.469-0.894-0.62c-0.38-0.155-0.821-0.183-1.169-0.099c-0.35,0.081-0.615,0.252-0.803,0.446
		c-0.297,0.319-0.441,0.695-0.453,1.152c-0.083-0.057-0.166-0.111-0.251-0.164c-2.755-1.691-6.36-0.829-8.052,1.926
		C22.896,7.309,26.593,10.606,28.958,8.043z"/>
</g>
</svg>
