<?xml version="1.0" encoding="utf-8"?>
<!-- Generator: Adobe Illustrator 16.0.4, SVG Export Plug-In . SVG Version: 6.00 Build 0)  -->
<!DOCTYPE svg PUBLIC "-//W3C//DTD SVG 1.1//EN" "http://www.w3.org/Graphics/SVG/1.1/DTD/svg11.dtd">
<svg version="1.1" id="Capa_1" xmlns="http://www.w3.org/2000/svg" xmlns:xlink="http://www.w3.org/1999/xlink" x="0px" y="0px"
	 width="64px" height="64px" viewBox="0 0 64 64" enable-background="new 0 0 64 64" xml:space="preserve">
<g>
	<rect x="9.577" y="13.274" fill="#0E0F0F" width="5.374" height="2.317"/>
	<path fill="#0E0F0F" d="M13.478,12.424c3.817-2.35,1.076-6.047,1.076-6.047c0,1.76-1.353,2.136-1.353,2.136
		c1.667-1.386-0.87-1.653,0.463-3.063c-5.576,1.801-2.78,6.974-2.78,6.974H13.478z"/>
	<circle fill="#0E0F0F" cx="24.503" cy="17.495" r="4.603"/>
	<path fill="#0E0F0F" d="M52.041,53.898l-10.71-18.194c-0.021-0.036-0.044-0.068-0.063-0.091l-0.188-0.299l-0.145-0.281
		l-3.188-6.227l-0.468-0.913l-0.034,0.014c-0.438-0.798-0.886-1.597-1.339-2.387c3.601-1.148,6.199,0.127,8.791,3.752
		c2.104,2.948,7.025,0.121,4.896-2.863c-5.012-7.015-12.479-8.757-19.958-4.318c-0.039,0.023-0.07,0.051-0.106,0.076l-0.354,0.051
		c-1.385,0.203-2.425,0.804-3.092,1.786c-0.005,0.008-0.009,0.016-0.014,0.024c-3.949,1.633-7.574,0.737-10.376-3.187
		c-0.669-0.937-1.623-1.289-2.545-1.24l0.08-3.244h-1.935l0.095,3.865c-1.055,0.757-1.578,2.102-0.593,3.481
		c3.968,5.556,9.479,7.785,15.314,6.274l5.103,9.389c-0.64,0.278-5.417,2.397-7.568,4.272c-0.676,0.59-1.061,1.314-1.114,2.104
		c-0.055,0.792,0.227,1.595,0.793,2.271c0.279,0.563,0.718,1.028,1.306,1.383l9.354,5.561c0.56,0.335,1.141,0.505,1.727,0.505
		c1.466,0,2.791-1.088,3.223-2.646c0.416-1.498-0.16-2.926-1.5-3.73l-4.901-2.941l4.983-2.416l0.512-0.223l8.141,13.829
		c0.626,1.062,1.609,1.646,2.775,1.646c1.271,0,2.549-0.738,3.178-1.84C52.701,56.125,52.674,54.973,52.041,53.898z M26.651,28.593
		c-0.069-0.262-0.622-2.481,0.374-3.952c0.482-0.709,1.259-1.145,2.318-1.3c0.088,1.307,0.702,6.517,4.865,6.517
		c2.431,0,1.618-0.18,2.53-0.536l3.187,6.228l-7.706,3.29L26.651,28.593z M51.134,56.58c-0.427,0.748-1.327,1.27-2.192,1.27
		c-0.525,0-1.269-0.188-1.797-1.089l-8.77-14.896l-0.512,0.402c-0.209,0.164-7.458,3.924-7.458,3.924l6.443,3.869
		c1.295,0.774,1.125,1.977,0.993,2.455c-0.251,0.898-1.062,1.812-2.13,1.812c-0.378,0-0.762-0.115-1.143-0.347l-9.354-5.56
		c-0.416-0.249-0.717-0.571-0.897-0.959l-0.087-0.135c-0.401-0.459-0.603-0.995-0.569-1.511c0.034-0.487,0.28-0.937,0.729-1.326
		c2.203-1.92,7.369-4.131,7.369-4.131l8.8-3.733l10.504,17.843C51.598,55.383,51.396,56.12,51.134,56.58z"/>
</g>
</svg>
