<?xml version="1.0" encoding="utf-8"?>
<!-- Generator: Adobe Illustrator 16.0.4, SVG Export Plug-In . SVG Version: 6.00 Build 0)  -->
<!DOCTYPE svg PUBLIC "-//W3C//DTD SVG 1.1//EN" "http://www.w3.org/Graphics/SVG/1.1/DTD/svg11.dtd">
<svg version="1.1" id="Capa_1" xmlns="http://www.w3.org/2000/svg" xmlns:xlink="http://www.w3.org/1999/xlink" x="0px" y="0px"
	 width="64px" height="64px" viewBox="0 0 64 64" enable-background="new 0 0 64 64" xml:space="preserve">
<g>
	<path fill="#0E0F0F" d="M24.023,19.369c2.67-0.306,4.586-2.718,4.28-5.387l-9.666,1.107C18.943,17.758,21.354,19.676,24.023,19.369
		z"/>
	<polygon fill="#0E0F0F" points="15.756,14.688 28.139,13.744 28.197,10.403 16.688,10.202 18.486,13.575 	"/>
	<path fill="#0E0F0F" d="M49.705,41.861c-2.289,2.484-4.92,4.295-8.012,5.379c-1.631-2.078-3.437-4.035-4.93-6.203
		c-0.015-0.057-0.017-0.115-0.029-0.172l-1.471-5.357l-0.642,0.178l1.132,2.107L34.9,38.252c-0.205-0.193-0.43-0.344-0.666-0.457
		L33.3,36.057l-2.325,0.652l-0.464-1.652l0.63-0.176l-0.81,0.023l-1.039-1.93l3.812-0.113l0.061,0.104l0.626,1.168l1.011-0.28
		l-2.177-7.812c-0.051-0.176-0.108-0.345-0.169-0.514c1.729,1.463,2.972,3.613,3.654,6.379c0.263,1.057,1.332,1.701,2.39,1.439
		c0.021-0.007,0.041-0.011,0.06-0.017c1.022-0.287,1.637-1.334,1.383-2.372c-1.812-7.327-6.03-11.4-13.085-11.465
		c-0.682-0.005-0.07,3.113-1.755,3.38c-1.683,0.267-1.683,0.267-3.165-1.944c-0.353,0.241-0.657,0.498-0.923,0.764
		c-0.142,0.014-0.288,0.039-0.44,0.083c-1.729,0.511-3.351,0.789-4.947-0.192c-1.588-0.977-2.518-3.137-3.301-4.729
		c-0.164-0.332-0.372-0.576-0.605-0.753l4.171-12.68c0.164-0.498-0.107-1.034-0.605-1.197c-0.497-0.164-1.034,0.107-1.197,0.604
		L9.77,15.959c-1.063,0.476-1.858,1.735-1.192,3.09c1.253,2.546,2.756,4.994,5.227,6.511c1.706,1.049,3.713,1.187,5.653,0.906
		c0.169,1.561,0.77,2.741,0.77,2.741c0.024,0.097,0.042,0.196,0.069,0.293l2.189,7.809l3.73-1.048l0.463,1.652L22.95,38.96
		l0.607,2.166c-1.043,0.662-2.004,1.442-2.864,2.349c-3.436,3.604-5.223,9.002-5.036,15.19c0.054,1.762,1.498,3.151,3.25,3.151
		c0.033,0,0.066,0,0.1,0c1.795-0.059,3.207-1.557,3.152-3.352c-0.135-4.438,1.018-8.172,3.245-10.51
		c1.591-1.67,3.747-2.633,6.417-2.875c1.884,2.543,4.129,4.818,5.88,7.469c0.82,1.242,2.145,1.809,3.609,1.471
		c5.021-1.158,9.435-3.862,12.914-7.643C57.012,43.357,52.504,38.824,49.705,41.861z"/>
</g>
</svg>
