<?xml version="1.0" encoding="utf-8"?>
<!-- Generator: Adobe Illustrator 16.0.4, SVG Export Plug-In . SVG Version: 6.00 Build 0)  -->
<!DOCTYPE svg PUBLIC "-//W3C//DTD SVG 1.1//EN" "http://www.w3.org/Graphics/SVG/1.1/DTD/svg11.dtd">
<svg version="1.1" id="Capa_1" xmlns="http://www.w3.org/2000/svg" xmlns:xlink="http://www.w3.org/1999/xlink" x="0px" y="0px"
	 width="64px" height="64px" viewBox="0 0 64 64" enable-background="new 0 0 64 64" xml:space="preserve">
<g>
	<path fill="#0E0F0F" d="M55.555,31.669l-1.731,20.362h-6.479v-0.838v-6.836h0.82v6.783c1.395-0.189,2.9-0.908,3.566-2.396
		c0.025-0.146,0.235-0.82,0.318-1.026c2.311-5.809,1.538-11.803-1.085-17.351c-2.03-4.298-9.207-1.497-9.317,2.55
		c-1.266,0.425-2.562,0.601-3.887,0.481c-0.814-0.068-1.562,0.316-2.003,0.945c-0.321-0.93-1.087-1.627-2.015-1.795v-0.4h-4.387
		v6.39h4.387v-0.4c0.816-0.146,1.499-0.709,1.875-1.477c0.343,0.633,0.984,1.089,1.759,1.156c0.405,0.033,0.812,0.053,1.215,0.053
		c1.479,0,2.935-0.238,4.349-0.703c0.641,2.54,0.461,5.085-0.444,7.666c-2.563,0.014-4.964,0.428-7.252,1.26
		c-1.091,0.396-1.849,1.395-1.935,2.551c-0.433,5.588,1.646,9.697,3.736,12.981C37.609,62.518,38.564,63,39.544,63
		c0.542,0,1.093-0.152,1.583-0.462c1.377-0.88,1.782-2.705,0.907-4.082c-1.782-2.806-2.657-5.021-2.837-7.363
		c1.135-0.247,2.07-0.362,3.316-0.351v-3.924H43.4v5.213h-3.121v2.792h13.306h2.75h1.028l1.97-23.154H55.555z M33.744,37.137v-3.578
		c0.765,0.201,1.337,0.922,1.337,1.789C35.081,36.211,34.509,36.936,33.744,37.137z"/>
	<circle fill="#0E0F0F" cx="48.328" cy="21.815" r="5.408"/>
	<circle fill="#0E0F0F" cx="6.614" cy="18.375" r="1.009"/>
	<circle fill="#0E0F0F" cx="26.28" cy="13.905" r="0.927"/>
	<circle fill="#0E0F0F" cx="19.155" cy="10.236" r="0.877"/>
	<circle fill="#0E0F0F" cx="38.936" cy="2.563" r="1.345"/>
	<circle fill="#0E0F0F" cx="41.471" cy="7.767" r="1.19"/>
	<polygon fill="#0E0F0F" points="14.793,14.85 14.326,13.904 13.86,14.85 12.818,15.001 13.573,15.736 13.394,16.775 14.326,16.285 
		15.259,16.775 15.082,15.736 15.835,15.001 	"/>
	<polygon fill="#0E0F0F" points="13.672,4.252 13.921,4.12 14.173,4.252 14.124,3.974 14.327,3.776 14.047,3.735 13.921,3.482 
		13.796,3.735 13.517,3.776 13.719,3.974 	"/>
	<polygon fill="#0E0F0F" points="25.684,3.675 26.279,3.094 25.456,2.974 25.087,2.227 24.719,2.974 23.894,3.094 24.491,3.675 
		24.35,4.496 25.087,4.108 25.825,4.496 	"/>
	<polygon fill="#0E0F0F" points="31.856,7.659 32.643,7.245 33.43,7.659 33.277,6.784 33.914,6.163 33.035,6.036 32.643,5.24 
		32.25,6.036 31.371,6.163 32.006,6.784 	"/>
	<polygon fill="#0E0F0F" points="10.322,7.083 9.771,5.966 9.219,7.083 7.986,7.262 8.879,8.132 8.668,9.359 9.771,8.78 
		10.874,9.359 10.663,8.132 11.555,7.262 	"/>
</g>
</svg>
