<?xml version="1.0" encoding="utf-8"?>
<!-- Generator: Adobe Illustrator 16.0.4, SVG Export Plug-In . SVG Version: 6.00 Build 0)  -->
<!DOCTYPE svg PUBLIC "-//W3C//DTD SVG 1.1//EN" "http://www.w3.org/Graphics/SVG/1.1/DTD/svg11.dtd">
<svg version="1.1" id="Capa_1" xmlns="http://www.w3.org/2000/svg" xmlns:xlink="http://www.w3.org/1999/xlink" x="0px" y="0px"
	 width="64px" height="64px" viewBox="0 0 64 64" enable-background="new 0 0 64 64" xml:space="preserve">
<path fill="#0E0F0F" d="M31.883,16.129l-0.484-0.017l0.034-0.981l0.485,0.017L31.883,16.129z M31.818,18.094l-0.484-0.018
	l0.036-0.98l0.484,0.018L31.818,18.094z M33.598,13.414l0.32,0.925l0.457-0.161l-0.32-0.927L33.598,13.414z M31.505,13.173
	l0.486,0.017l-0.035,0.981l-0.486-0.017L31.505,13.173z M34.557,16.192l0.457-0.162l-0.318-0.926l-0.459,0.162L34.557,16.192z
	 M35.197,18.045l0.457-0.162l-0.32-0.926l-0.457,0.162L35.197,18.045z M41.284,24.651l-4.608-5.184
	c-0.537-0.605-1.457-0.654-2.054-0.11c-0.599,0.543-0.647,1.474-0.108,2.079l3.504,3.943c-1.414,1.01-3.547,2.581-4.557,3.554
	c-1.215,0.537-2.433,0.405-3.484,0.024c-0.999-0.971-3.158-2.56-4.583-3.578l3.505-3.943c0.538-0.605,0.488-1.535-0.109-2.079
	c-0.598-0.543-1.518-0.495-2.055,0.11l-4.608,5.184c-0.28,0.315-0.413,0.739-0.363,1.16c0.05,0.421,0.278,0.801,0.625,1.04
	c0.955,0.658,3.317,2.333,4.762,3.521l0.056,0.814l-0.032,12.011v11.957c0,0.984,0.711,1.781,1.711,1.781s1.81-0.797,1.81-1.781
	V42.695c0,0,0.059-0.633,0.694-0.639c0.637-0.01,0.62,0.604,0.62,0.604V55.12c0,0.981,0.811,1.78,1.811,1.78
	c0.998,0,1.812-0.799,1.812-1.78l0.062-12.854c0-0.121,0.016-11.339,0.016-11.339s-0.006-0.017-0.016-0.069
	c1.291-1.16,4.232-3.252,5.332-4.007c0.348-0.239,0.574-0.618,0.625-1.04C41.697,25.39,41.564,24.966,41.284,24.651z M28.055,17.085
	l-0.43-0.225l-0.446,0.871l0.431,0.226L28.055,17.085z M31.65,21.817c1.7,0,3.077,1.393,3.077,3.111
	c0,1.718-1.377,3.111-3.077,3.111c-1.699,0-3.077-1.393-3.077-3.111C28.573,23.21,29.951,21.817,31.65,21.817z M28.946,15.342
	l-0.431-0.225l-0.446,0.871l0.431,0.225L28.946,15.342z M32.119,10.185V7.066H31.18v3.119l-2.078,2.441h5.095L32.119,10.185z
	 M29.836,13.598l-0.431-0.225l-0.446,0.872l0.432,0.225L29.836,13.598z"/>
</svg>
