<?xml version="1.0" encoding="utf-8"?>
<!-- Generator: Adobe Illustrator 16.0.4, SVG Export Plug-In . SVG Version: 6.00 Build 0)  -->
<!DOCTYPE svg PUBLIC "-//W3C//DTD SVG 1.1//EN" "http://www.w3.org/Graphics/SVG/1.1/DTD/svg11.dtd">
<svg version="1.1" id="Capa_1" xmlns="http://www.w3.org/2000/svg" xmlns:xlink="http://www.w3.org/1999/xlink" x="0px" y="0px"
	 width="64px" height="64px" viewBox="0 0 64 64" enable-background="new 0 0 64 64" xml:space="preserve">
<g>
	<path fill="#0E0F0F" d="M53.732,21.972c-3.678-6.13-11.026-4.972-14.646-0.843c-4.053,1.686-8.333,2.428-12.728,1.43l0.347-0.508
		L11.639,5.929l-2.317,6.536l0.294,0.317l-0.042,0.04l10.88,11.671c-0.945,2.134-0.353,5.032,2.541,5.884
		c5.036,1.485,10.104,1.289,14.959-0.018c0.112,0.221,0.223,0.442,0.354,0.664c1.912,3.185,3.125,6.368,3.887,9.651
		c-2.078-1.881-4.131-3.785-6.129-5.75c-2.551-2.511-6.342-1.714-8.256,1.064c-3.424,4.965-7.574,9.484-10.257,14.922
		c-3.247,0-6.493,0-9.739,0c-6.78,0-6.78,10.515,0,10.515c14.81,0,29.622,0,44.433,0c0.11,0.002,0.22,0.001,0.33,0
		c0.269,0,0.536,0,0.806,0c0.98,0,1.816-0.224,2.514-0.602c3.024-1.112,5.401-3.763,5.375-7.974
		C61.202,41.792,59.491,31.569,53.732,21.972z M25.279,22.277c-0.015-0.004-0.031-0.006-0.045-0.011
		c-0.528-0.155-1.024-0.208-1.487-0.183L12.537,10.06l-1.862,1.735l1.377-3.885l13.311,14.244L25.279,22.277z M29.804,50.911
		c1.028-1.486,2.115-2.933,3.213-4.374c1.604,1.484,3.235,2.938,4.889,4.374C35.205,50.911,32.505,50.911,29.804,50.911z"/>
	<circle fill="#0E0F0F" cx="40.236" cy="9.935" r="7.361"/>
</g>
</svg>
