<?xml version="1.0" encoding="utf-8"?>
<!-- Generator: Adobe Illustrator 16.0.4, SVG Export Plug-In . SVG Version: 6.00 Build 0)  -->
<!DOCTYPE svg PUBLIC "-//W3C//DTD SVG 1.1//EN" "http://www.w3.org/Graphics/SVG/1.1/DTD/svg11.dtd">
<svg version="1.1" id="Capa_1" xmlns="http://www.w3.org/2000/svg" xmlns:xlink="http://www.w3.org/1999/xlink" x="0px" y="0px"
	 width="64px" height="64px" viewBox="0 0 64 64" enable-background="new 0 0 64 64" xml:space="preserve">
<g>
	<path fill="#0E0F0F" d="M39.312,14.796c-0.187-0.296-0.379-0.59-0.576-0.885c-0.715-1.073-0.816-2.302-0.273-3.369
		c0.611-1.201,1.95-2.009,3.333-2.009c1.122,0,2.106,0.518,2.793,1.454c0.142-1.279-0.149-2.616-0.928-3.75
		c-1.679-2.443-4.954-3.018-7.319-1.284c-2.361,1.734-2.919,5.119-1.24,7.563C36.109,13.984,37.693,14.772,39.312,14.796z"/>
	<path fill="#0E0F0F" d="M44.021,10.697c-1.853-2.771-6.266-0.145-4.395,2.654c1.184,1.771,2.182,3.456,2.408,5.402
		c-1.123-0.258-2.237-0.551-3.35-0.867c-0.58-1.214-1.545-2.245-2.672-2.771c-2.197-1.023-4.34-0.39-5.888,1.132
		c-4.132,2.798-8.168,5.737-12.197,8.691c-2.819,2.067,0.285,6.586,3.104,4.519c1.178-0.863,2.355-1.726,3.535-2.585
		c-2.394,8.356-1.15,16.524,0.552,17.032c0.727,5.271-0.518,10.5,0.5,15.721c0.803,4.12,7.147,3.57,6.337-0.578
		c-1.096-5.624,0.071-11.247-0.667-16.93c0.507-0.637,0.904-1.418,1.127-2.372c1.321-5.599,3.04-10.995,5.687-16.06v10h1.271V23.509
		c1.427,0.363,2.859,0.683,4.314,0.914c1.312,0.208,2.806-0.321,3.129-1.837C47.79,18.076,46.498,14.403,44.021,10.697z"/>
	<path fill="#0E0F0F" d="M23.326,9.08c1.017,0,3.242-1.578,3.242-1.578s-2.225-2.233-3.242-2.233c-1.019,0-1.844,0.852-1.844,1.905
		C21.482,8.227,22.307,9.08,23.326,9.08z"/>
	<path fill="#0E0F0F" d="M32.438,6.391c0,0-0.044-3.205-0.766-3.949c-0.718-0.744-1.885-0.745-2.606,0
		c-0.721,0.745-0.721,1.951,0,2.696C29.785,5.881,32.438,6.391,32.438,6.391z"/>
</g>
</svg>
