<?xml version="1.0" encoding="utf-8"?>
<!-- Generator: Adobe Illustrator 16.0.4, SVG Export Plug-In . SVG Version: 6.00 Build 0)  -->
<!DOCTYPE svg PUBLIC "-//W3C//DTD SVG 1.1//EN" "http://www.w3.org/Graphics/SVG/1.1/DTD/svg11.dtd">
<svg version="1.1" id="Capa_1" xmlns="http://www.w3.org/2000/svg" xmlns:xlink="http://www.w3.org/1999/xlink" x="0px" y="0px"
	 width="64px" height="64px" viewBox="0 0 64 64" enable-background="new 0 0 64 64" xml:space="preserve">
<g>
	<circle fill="#0E0F0F" cx="45.648" cy="10.9" r="4.57"/>
	<path fill="#0E0F0F" d="M59.121,40.586c-1.656-1.575-5.825-2.234-9.781-2.492c-0.001-0.006-0.003-0.014-0.004-0.02
		c-1.204-4.482-1.533-9.157-1.945-13.829l8.375,4.477c0.356,0.191,0.74,0.282,1.118,0.282c0.849,0,1.668-0.457,2.097-1.256
		c0.619-1.158,0.184-2.598-0.976-3.217l-11.972-6.4c-0.309-0.165-0.639-0.25-0.967-0.271c-0.297-0.177-0.627-0.311-0.984-0.399
		c-0.361-0.169-0.768-0.26-1.191-0.225c-5.771,0.472-7.033,4.324-7.955,7.136c-0.346,1.062-0.674,2.063-1.189,2.953
		c-0.662,1.132-0.279,2.588,0.854,3.25c0.375,0.22,0.789,0.324,1.195,0.324c0.816,0,1.612-0.422,2.055-1.18
		c0.772-1.326,1.215-2.677,1.605-3.871c0.001-0.004,0.003-0.008,0.004-0.012c0.418,4.82,0.846,9.745,2.076,14.328
		c0.585,2.184,2.385,3.023,4.126,2.865c0.256,0.095,0.526,0.16,0.815,0.166c3.853,0.104,7.979,0.658,9.047,1.207
		c0.44,0.781,0.983,4.25,0.074,10.881c-0.199,1.431,0.803,2.749,2.232,2.943c0.119,0.019,0.238,0.025,0.357,0.025
		c1.285,0,2.404-0.947,2.584-2.259C61.891,47.874,61.334,42.689,59.121,40.586z"/>
	<polygon fill="#0E0F0F" points="37.609,32.68 33.609,32.68 33.604,56.559 52.982,56.559 54.171,45.63 40.46,44.439 	"/>
	<circle fill="#0E0F0F" cx="18.401" cy="10.718" r="4.569"/>
	<path fill="#0E0F0F" d="M29.113,24.19c-0.92-2.813-2.18-6.666-7.952-7.138c-0.425-0.034-0.829,0.056-1.191,0.226
		c-0.93,0.229-1.66,0.779-2.175,1.517l-5.838,3.276L6.19,18.525c-1.202-0.74-2.773-0.364-3.512,0.835
		c-0.739,1.202-0.364,2.773,0.837,3.513l7.045,4.333c0.41,0.252,0.873,0.378,1.337,0.378c0.431,0,0.861-0.11,1.249-0.327
		l3.398-1.907c-0.368,4.24-0.739,8.47-1.832,12.541c-0.001,0.006-0.002,0.014-0.004,0.021c-3.955,0.258-8.125,0.918-9.781,2.492
		c-2.212,2.104-2.768,7.287-1.652,15.408c0.18,1.31,1.301,2.258,2.585,2.258c0.119,0,0.238-0.008,0.359-0.022
		c1.43-0.196,2.43-1.515,2.234-2.942c-0.912-6.633-0.37-10.102,0.072-10.883c1.068-0.551,5.195-1.104,9.049-1.205
		c0.29-0.01,0.561-0.074,0.818-0.166c1.74,0.153,3.538-0.688,4.124-2.867c1.231-4.582,1.657-9.506,2.076-14.328
		c0.001,0.004,0.003,0.008,0.004,0.013c0.39,1.192,0.832,2.543,1.606,3.87c0.441,0.756,1.237,1.178,2.053,1.178
		c0.407,0,0.819-0.104,1.197-0.323c1.132-0.662,1.516-2.116,0.854-3.25C29.787,26.253,29.459,25.251,29.113,24.19z"/>
	<polygon fill="#0E0F0F" points="26.44,32.497 23.589,44.258 9.878,45.445 11.066,56.377 30.447,56.377 30.439,32.497 	"/>
</g>
</svg>
