<?xml version="1.0" encoding="utf-8"?>
<!-- Generator: Adobe Illustrator 16.0.4, SVG Export Plug-In . SVG Version: 6.00 Build 0)  -->
<!DOCTYPE svg PUBLIC "-//W3C//DTD SVG 1.1//EN" "http://www.w3.org/Graphics/SVG/1.1/DTD/svg11.dtd">
<svg version="1.1" id="Capa_1" xmlns="http://www.w3.org/2000/svg" xmlns:xlink="http://www.w3.org/1999/xlink" x="0px" y="0px"
	 width="64px" height="64px" viewBox="0 0 64 64" enable-background="new 0 0 64 64" xml:space="preserve">
<path fill="#0E0F0F" d="M21.097,58.561c0.206-1.479,1.365-2.539,2.589-2.369c1.224,0.171,2.049,1.508,1.844,2.986
	c-0.206,1.479-1.365,2.539-2.589,2.368S20.891,60.039,21.097,58.561z M34.07,2.53c2.758,0,4.994,2.236,4.994,4.994
	c0,2.758-2.236,4.994-4.994,4.994c-2.758,0-4.994-2.236-4.994-4.994C29.076,4.766,31.312,2.53,34.07,2.53z M38.457,46.104
	l-20.791,5.383c-1.285,0.332-2.133,1.356-1.891,2.289l0.412,1.596c0.24,0.932,1.478,1.417,2.763,1.084l20.791-5.385
	c1.284-0.334,5.661-1.76,4.776-3.825C43.632,45.171,39.741,45.771,38.457,46.104z M34.684,55.576
	c0.206-1.479,1.366-2.538,2.592-2.367c1.225,0.171,2.051,1.508,1.846,2.985c-0.207,1.478-1.367,2.538-2.592,2.366
	C35.304,58.391,34.478,57.054,34.684,55.576z M49.99,15.733c-0.118-1.255-1.231-2.174-2.486-2.055
	c-1.137,0.108-2.479,0.28-3.896,0.462c-2.733,0.351-6.021,0.768-8.598,0.799c-1.105-1.3-2.961-1.938-4.623-1.661
	c-3.482-2.937-7.884-6.892-9.934-9.224c-0.832-0.945-2.272-1.038-3.219-0.206c-0.945,0.832-1.038,2.272-0.208,3.218
	c2.256,2.564,6.643,6.491,10.027,9.363c-0.005,0.021-0.013,0.041-0.019,0.063c-0.796,3.2-0.563,6.754-2.398,9.596
	c-0.972,1.507-0.916,2.978-0.282,4.159c0.006,0.153,0.013,0.307,0.034,0.461c0.589,4.344-0.738,8.575-3.708,11.78
	c-2.662,2.871,1.63,7.183,4.3,4.3c3.801-4.103,5.531-9.007,5.508-14.326c0.265-0.115,0.522-0.26,0.771-0.436
	c0.876,0.521,1.62,1.207,2.013,2.187c0.853,2.114-0.088,4.568-0.875,6.544c-1.451,3.656,4.326,5.563,5.766,1.938
	c1.383-3.482,2.282-7.721,0.522-11.258c-1.021-2.049-2.602-3.538-4.453-4.642c0.68-2.363,0.908-4.819,1.467-7.305
	c2.673-0.082,5.721-0.472,8.49-0.827c1.379-0.178,2.684-0.345,3.748-0.446c0.205-0.02,0.399-0.066,0.59-0.137
	C49.466,17.728,50.089,16.779,49.99,15.733z"/>
</svg>
