<?xml version="1.0" encoding="utf-8"?>
<!-- Generator: Adobe Illustrator 16.0.4, SVG Export Plug-In . SVG Version: 6.00 Build 0)  -->
<!DOCTYPE svg PUBLIC "-//W3C//DTD SVG 1.1//EN" "http://www.w3.org/Graphics/SVG/1.1/DTD/svg11.dtd">
<svg version="1.1" id="Capa_1" xmlns="http://www.w3.org/2000/svg" xmlns:xlink="http://www.w3.org/1999/xlink" x="0px" y="0px"
	 width="64px" height="64px" viewBox="0 0 64 64" enable-background="new 0 0 64 64" xml:space="preserve">
<g>
	<circle fill="#0E0F0F" cx="20.27" cy="6.72" r="3.416"/>
	<path fill="#0E0F0F" d="M22.195,10.594c-1.459,1.272-1.378,3.209-0.327,4.682c1.92,2.69,3.841,5.379,5.76,8.07
		c0.328,0.459,0.791,0.754,1.301,0.933c2.625,2.884,3.602,6.194,3.406,10.327c-0.121,2.516,3.776,2.742,3.896,0.228
		c0.195-4.113-0.604-7.816-2.697-11c1.384-0.948,2.895-1.437,4.609-1.445c0.244-0.001,0.451-0.047,0.641-0.115
		c1.139,0.431,2.203,0.969,3.146,1.663c0.826,0.611,1.984,0.561,2.662-0.268c0.627-0.77,0.562-2.051-0.269-2.664
		c-1.38-1.015-2.882-1.821-4.5-2.375c-0.541-0.185-1.109-0.178-1.589,0.028c-0.133-0.026-0.274-0.04-0.424-0.04
		c-1.658,0.007-3.272,0.413-4.752,1.122c-0.117-0.257-0.252-0.51-0.423-0.748c-0.648-0.91-1.298-1.819-1.947-2.729
		c1.635-1.224,2.911-2.858,3.721-4.824c0.961-2.335-2.721-3.634-3.676-1.318c-0.514,1.25-1.311,2.218-2.311,2.968
		c-0.354-0.496-0.708-0.993-1.063-1.49c2.064-1.53,4.014-3.195,5.798-5.067c1.684-1.769-1.255-4.155-2.932-2.397
		c-2.233,2.345-4.792,4.292-7.478,6.085C22.55,10.324,22.362,10.449,22.195,10.594z"/>
	<path fill="#0E0F0F" d="M41.533,35.553c-0.594,0.121-1.196,0.221-1.797,0.211c-0.588-0.009-1.215-0.111-1.648-0.591
		c0.125,0.293,0.372,0.543,0.664,0.709c0.289,0.171,0.613,0.267,0.936,0.339c0.65,0.122,1.313,0.12,1.957,0.053
		c1.293-0.125,2.533-0.482,3.73-0.918c1.195-0.455,2.35-0.996,3.445-1.635c1.1-0.635,2.147-1.349,3.111-2.18
		c-1.17,0.498-2.304,1.023-3.441,1.523c-1.145,0.494-2.283,0.984-3.44,1.41C43.896,34.912,42.723,35.291,41.533,35.553z"/>
	<path fill="#0E0F0F" d="M42.79,32.26c-0.692,0.256-1.384,0.504-2.085,0.684c-0.352,0.084-0.702,0.162-1.055,0.181
		c-0.352,0.021-0.713-0.004-1.01-0.269c0.123,0.399,0.568,0.623,0.957,0.726c0.403,0.096,0.816,0.112,1.217,0.086
		c0.801-0.058,1.572-0.253,2.302-0.524c0.731-0.271,1.427-0.623,2.085-1.034c0.654-0.412,1.275-0.881,1.816-1.448
		c-0.748,0.236-1.449,0.516-2.148,0.792L42.79,32.26z"/>
	<path fill="#0E0F0F" d="M39.091,46.773v-9.898h-13.44v-9.933H9.315L9.286,59.414l43.098-0.004V46.773H39.091z M10.756,57.945
		l0.026-29.535h13.4v9.932H37.62v9.901h13.294v9.698h0.001L10.756,57.945z"/>
</g>
</svg>
