<?xml version="1.0" encoding="utf-8"?>
<!-- Generator: Adobe Illustrator 16.0.4, SVG Export Plug-In . SVG Version: 6.00 Build 0)  -->
<!DOCTYPE svg PUBLIC "-//W3C//DTD SVG 1.1//EN" "http://www.w3.org/Graphics/SVG/1.1/DTD/svg11.dtd">
<svg version="1.1" id="Capa_1" xmlns="http://www.w3.org/2000/svg" xmlns:xlink="http://www.w3.org/1999/xlink" x="0px" y="0px"
	 width="64px" height="64px" viewBox="0 0 64 64" enable-background="new 0 0 64 64" xml:space="preserve">
<g>
	<circle fill="#0E0F0F" cx="13.823" cy="8.885" r="5.955"/>
	<path fill="#0E0F0F" d="M55.754,33.782c-2.402-1.771-5.021-3.176-7.844-4.139c-0.943-0.322-1.934-0.313-2.77,0.048
		c-0.232-0.046-0.479-0.071-0.738-0.07c-2.885,0.012-5.697,0.718-8.273,1.95c-0.203-0.446-0.449-0.883-0.745-1.297
		c-1.128-1.581-2.257-3.163-3.386-4.744c2.852-2.135,5.064-4.997,6.477-8.426c1.676-4.07-4.744-6.334-6.408-2.295
		c-0.898,2.178-2.287,3.866-4.029,5.173c-0.617-0.864-1.233-1.728-1.85-2.592c3.6-2.669,6.996-5.576,10.106-8.842
		c2.937-3.081-2.188-7.242-5.111-4.175c-3.886,4.08-8.339,7.469-13.012,10.593c-0.357,0.19-0.693,0.413-0.99,0.672
		c-2.544,2.217-2.402,5.595-0.569,8.163c3.347,4.689,6.696,9.379,10.043,14.067c0.581,0.813,1.395,1.36,2.304,1.668
		c4.545,5.021,6.239,10.776,5.898,17.964c-0.209,4.38,6.586,4.775,6.795,0.391c0.34-7.173-1.057-13.627-4.704-19.178
		c2.409-1.652,5.043-2.505,8.036-2.518c0.423-0.004,0.785-0.084,1.113-0.202c1.986,0.752,3.844,1.688,5.484,2.899
		c1.443,1.062,3.464,0.979,4.643-0.47C57.314,37.084,57.205,34.85,55.754,33.782z"/>
	<path fill="#0E0F0F" d="M18.499,59.344c-2.107-0.417-4.193-0.938-6.194-1.646c-0.993-0.368-1.973-0.779-2.85-1.345
		c-0.865-0.555-1.698-1.283-1.896-2.396c-0.09,0.551,0.05,1.147,0.326,1.66c0.271,0.521,0.663,0.96,1.075,1.362
		c0.851,0.783,1.83,1.39,2.843,1.887c2.031,1.006,4.198,1.617,6.372,2.08c2.183,0.429,4.39,0.691,6.603,0.757
		c2.21,0.073,4.423-0.013,6.613-0.354c-2.188-0.343-4.351-0.608-6.5-0.92C22.742,60.109,20.605,59.784,18.499,59.344z"/>
	<path fill="#0E0F0F" d="M24.675,55.262c-1.259-0.261-2.51-0.529-3.712-0.91c-0.596-0.197-1.191-0.408-1.726-0.707
		c-0.534-0.293-1.05-0.66-1.246-1.324c-0.189,0.703,0.266,1.447,0.75,1.953c0.509,0.518,1.101,0.922,1.719,1.248
		c1.236,0.655,2.557,1.072,3.89,1.346c1.334,0.275,2.688,0.392,4.036,0.392c1.349-0.001,2.7-0.125,4.025-0.466
		c-1.324-0.341-2.622-0.572-3.913-0.809L24.675,55.262z"/>
</g>
</svg>
