<?xml version="1.0" encoding="utf-8"?>
<!-- Generator: Adobe Illustrator 16.0.4, SVG Export Plug-In . SVG Version: 6.00 Build 0)  -->
<!DOCTYPE svg PUBLIC "-//W3C//DTD SVG 1.1//EN" "http://www.w3.org/Graphics/SVG/1.1/DTD/svg11.dtd">
<svg version="1.1" id="Capa_1" xmlns="http://www.w3.org/2000/svg" xmlns:xlink="http://www.w3.org/1999/xlink" x="0px" y="0px"
	 width="64px" height="64px" viewBox="0 0 64 64" enable-background="new 0 0 64 64" xml:space="preserve">
<g>
	<path fill="#0E0F0F" d="M19.694,15.449c0.607,0.453,1.358,0.724,2.174,0.724c2.013,0,3.646-1.632,3.646-3.646
		c0-2.014-1.633-3.646-3.646-3.646c-2.014,0-3.646,1.632-3.646,3.646c0,0.145,0.01,0.286,0.026,0.426
		c-1.01-0.603-2.323-0.578-3.321,0.171l-8.312,6.639c-1.318,0.988-1.586,2.86-0.597,4.178c0.432,0.574,1.031,0.95,1.679,1.108
		c0.836,0.204,1.756,0.046,2.499-0.512l8.312-6.639C19.306,17.3,19.712,16.377,19.694,15.449z"/>
	<path fill="#0E0F0F" d="M26.776,12.527c0,0.833-0.239,1.608-0.648,2.271c0.108,0.032,0.213,0.069,0.323,0.096
		c3.065,0.748,6.158-1.13,6.906-4.196c0.746-3.065-1.131-6.158-4.197-6.906c-3.065-0.748-6.157,1.132-6.906,4.197
		C22.238,8.059,22.23,8.13,22.213,8.2c0.074-0.004,0.148-0.011,0.224-0.011C24.831,8.188,26.776,10.134,26.776,12.527z"/>
	<path fill="#0E0F0F" d="M45.503,35.32l-2.506-4.971l-4.345-10.13l15.625-4.639c1.619-0.305,2.687-1.865,2.382-3.483
		c-0.306-1.621-1.865-2.687-3.484-2.382l-19.362,4.781v0.001l-2.396,0.578l0.004,0.011l-5.52,1.363l-0.003-0.004l-2.857,0.688
		l0.01,0.021l-1.733,0.428L10.736,25.52c-0.048,0.036-0.099,0.065-0.148,0.099c1.329-0.235,8.164-1.447,13.474-2.488l0.358,0.445
		l-0.059,0.014l5.306,11.92c-1.616,0.662-3.233,1.324-4.859,1.967c-1.821,0.659-1.738,2.028-1.792,2.25
		c0,0,1.185,10.08,4.536,18.541c0.694,3.098,4.227,4.457,5.017,1.224c0.973-3.986-2.81-13.558-3.029-17.521
		c3.75-1.504,10.438-3.354,10.438-3.354c3.662,7.15,7.237,12.252,11.65,19.956c1.657,2.895,5.921,0.266,4.412-2.683
		C52.525,49.033,49.014,42.178,45.503,35.32z M30.238,35.09l-4.901-11.016l1.808-0.416l-3.086-6.057l1.466-0.354
		c0.451,0.911,2.028,4.094,2.649,5.484c0.23,0.518,0.806,0.803,1.617,0.802c1.357,0,3.436-0.824,4.246-2.005
		c0.343-0.498,0.425-1.018,0.238-1.502l-0.195-0.508c-0.622-1.618-0.678-1.762-1.684-3.967l1.17-0.282l2.067,4.511l1.744-0.779
		l4.755,11.096L30.238,35.09z"/>
</g>
</svg>
