<?xml version="1.0" encoding="utf-8"?>
<!-- Generator: Adobe Illustrator 16.0.4, SVG Export Plug-In . SVG Version: 6.00 Build 0)  -->
<!DOCTYPE svg PUBLIC "-//W3C//DTD SVG 1.1//EN" "http://www.w3.org/Graphics/SVG/1.1/DTD/svg11.dtd">
<svg version="1.1" id="Capa_1" xmlns="http://www.w3.org/2000/svg" xmlns:xlink="http://www.w3.org/1999/xlink" x="0px" y="0px"
	 width="64px" height="64px" viewBox="0 0 64 64" enable-background="new 0 0 64 64" xml:space="preserve">
<g>
	<path fill="#0E0F0F" d="M47.875,24.882c-2.197,0.433-5.32,1.156-6.791-1.041c-0.842-1.256-1.419-2.728-1.904-4.249
		c1.063-1.756,1.073-4.249,0.088-5.93c-1.67-2.852-4.854-3.206-7.637-1.987C24.485,14.802,20.36,23.441,18.702,30.76
		c-0.426,0.841-0.547,1.826-0.185,2.775c0.146,0.863,0.492,1.632,0.977,2.285c-1.015,6.871-2.922,14.188-6.749,19.972
		c-2.579,3.894,3.676,7.504,6.234,3.644c3.459-5.224,5.453-11.434,6.721-17.678c0.57,0.777,1.094,1.582,1.542,2.43
		c1.66,3.146-2.065,7.008-3.876,9.123c-3.01,3.517,2.072,8.647,5.104,5.105c3.441-4.02,7.292-8.921,6.165-14.578
		c-0.695-3.488-2.906-6.486-5.396-9.21c0.034-0.122,0.07-0.241,0.098-0.371c0.838-3.961,2.358-8.602,5.459-11.353
		c0.653,1.753,1.468,3.41,2.632,4.778c2.646,3.108,6.656,3.12,10.381,2.524l0.047,31.455l1.31,0.069L49.12,29.974
		c0.052-0.01,0.104-0.02,0.153-0.029C52.592,29.291,51.182,24.231,47.875,24.882z"/>
	<circle fill="#0E0F0F" cx="41.781" cy="7.147" r="5.48"/>
</g>
</svg>
