<?xml version="1.0" encoding="utf-8"?>
<!-- Generator: Adobe Illustrator 16.0.4, SVG Export Plug-In . SVG Version: 6.00 Build 0)  -->
<!DOCTYPE svg PUBLIC "-//W3C//DTD SVG 1.1//EN" "http://www.w3.org/Graphics/SVG/1.1/DTD/svg11.dtd">
<svg version="1.1" id="Capa_1" xmlns="http://www.w3.org/2000/svg" xmlns:xlink="http://www.w3.org/1999/xlink" x="0px" y="0px"
	 width="64px" height="64px" viewBox="0 0 64 64" enable-background="new 0 0 64 64" xml:space="preserve">
<g>
	<path fill="#0E0F0F" d="M27.841,14.852h0.107c0.259,0,0.487-0.104,0.673-0.256c0.731,1.038,1.933,1.721,3.298,1.721
		c1.365,0,2.567-0.683,3.299-1.721c0.187,0.153,0.414,0.256,0.673,0.256h0.107c0.595,0,1.076-0.482,1.076-1.076v-3.043
		c0-0.574-0.451-1.038-1.018-1.07c-0.562-1.75-2.203-3.02-4.138-3.02c-1.934,0-3.577,1.271-4.139,3.02
		c-0.565,0.032-1.015,0.496-1.015,1.07v3.043C26.766,14.37,27.246,14.852,27.841,14.852z M31.919,7.289
		c1.615,0,2.988,1.041,3.493,2.485c-0.081,0.041-0.154,0.093-0.223,0.152c-0.733-1.018-1.922-1.686-3.271-1.686
		c-1.349,0-2.537,0.668-3.271,1.686c-0.068-0.059-0.141-0.111-0.222-0.152C28.931,8.33,30.305,7.289,31.919,7.289z"/>
	<path fill="#0E0F0F" d="M40.939,9.156c-0.525,3.617-1.959,6.808-4.252,9.388c-1.467-0.702-6.375-2.543-11.534,1.133
		c-0.64,0.231-1.273,0.357-1.702,0.153c-0.363-0.173-0.276-1.47-0.254-1.932c0.131-2.731,1.334-5.593,2.503-8.027
		c1.192-2.48-2.504-4.656-3.701-2.165c-1.75,3.645-3.564,8.046-2.994,12.17c0.561,4.056,3.792,4.521,6.921,3.791l0.34,1.513
		l-0.008,3.11L26.23,43.23v11.854c0,1.274,0.934,2.31,2.245,2.31c1.312,0,2.376-1.033,2.376-2.31V38.143h2.098
		c0,3.969,0,13.027,0,16.998c0,2.764,4.287,2.764,4.287,0c0-3.971,0-7.938,0-11.908l0.182-14.97c0.002-1.43,0.003-2.707,0.004-3.595
		l-0.041-0.868c4.158-3.373,6.903-8.076,7.693-13.503C45.467,7.593,41.336,6.429,40.939,9.156z"/>
</g>
</svg>
