<?xml version="1.0" encoding="utf-8"?>
<!-- Generator: Adobe Illustrator 16.0.4, SVG Export Plug-In . SVG Version: 6.00 Build 0)  -->
<!DOCTYPE svg PUBLIC "-//W3C//DTD SVG 1.1//EN" "http://www.w3.org/Graphics/SVG/1.1/DTD/svg11.dtd">
<svg version="1.1" id="Capa_1" xmlns="http://www.w3.org/2000/svg" xmlns:xlink="http://www.w3.org/1999/xlink" x="0px" y="0px"
	 width="64px" height="64px" viewBox="0 0 64 64" enable-background="new 0 0 64 64" xml:space="preserve">
<g>
	<path fill="#0E0F0F" d="M45.822,33.271c-1.264-14.192-8.026-17.024-8.026-17.024s-6.539-3.931-13.422,1.076
		c-4.461,4.059-5.491,10.259-6.195,16.247c-0.358,3.041,4.402,3.007,4.755,0c0.421-3.573,1.022-7.164,2.796-10.22l-0.009,3.451
		l-5.374,16.577h5.342v13.149c0,1.416,1.036,2.563,2.491,2.563c1.455,0,2.635-1.146,2.635-2.563V43.378h2.328
		c0,4.404,0,8.808,0,13.211c0,3.067,4.758,3.067,4.758,0c0-4.403,0-8.807,0-13.211h5.447l-5.246-16.609
		c0.002-1.586,0.004-3.003,0.004-3.989c1.901,3.114,2.527,6.812,2.961,10.492C41.421,36.279,46.18,36.314,45.822,33.271z"/>
	<circle fill="#0E0F0F" cx="32" cy="9.493" r="4.584"/>
</g>
</svg>
