<?xml version="1.0" encoding="utf-8"?>
<!-- Generator: Adobe Illustrator 16.0.4, SVG Export Plug-In . SVG Version: 6.00 Build 0)  -->
<!DOCTYPE svg PUBLIC "-//W3C//DTD SVG 1.1//EN" "http://www.w3.org/Graphics/SVG/1.1/DTD/svg11.dtd">
<svg version="1.1" id="Capa_1" xmlns="http://www.w3.org/2000/svg" xmlns:xlink="http://www.w3.org/1999/xlink" x="0px" y="0px"
	 width="64px" height="64px" viewBox="0 0 64 64" enable-background="new 0 0 64 64" xml:space="preserve">
<g>
	<circle fill="#0E0F0F" cx="31.832" cy="11.762" r="4.994"/>
	<path fill="#0E0F0F" d="M56.038,25.08c-2.431-8.607-13.187-7.805-19.919-5.764c-0.902-0.661-2.067-1.107-3.471-1.228
		c-1.496-0.127-3.09,0.251-4.385,0.971c-6.922-2.092-16.555-2.704-19.701,5.352c-3.116,7.976,3.973,16.36,9.903,20.647
		c0.337,0.242,0.81,0.049,1.012-0.268c1.368-2.115,2.145-4.457,1.494-6.764c2.011,0.553,3.537,0.354,4.4-0.953
		c-0.011,0.572-0.022,1.148-0.033,1.725c-0.002,0.1,0.005,0.191,0.008,0.289l-0.029,1.58l-0.36,8.586l-0.776,10.748
		c-0.005,0.27,0.059,0.521,0.168,0.762L24.345,60.8c-0.022,1.146,1.105,2.089,2.519,2.104c1.411,0.017,2.574-0.896,2.597-2.041
		l1.508-14.129l0.263-2.099l0.624,0.011l0.729,8.379l0.497,7.276c-0.007,0.315,0.081,0.612,0.23,0.884
		c0.242,0.926,1.242,1.627,2.459,1.642c1.412,0.019,2.574-0.896,2.598-2.039l-0.364-10.765l-0.028-8.59L38,40.023
		c0.004-0.051,0.014-0.099,0.016-0.146c0.014-0.713,0.026-1.428,0.041-2.141c0.264-0.299,0.512-0.619,0.745-0.951
		c0.785,1.771,2.429,2.098,4.681,1.48c-0.648,2.305,0.129,4.646,1.494,6.764c0.203,0.312,0.676,0.51,1.016,0.264
		C52.141,40.846,58.332,33.2,56.038,25.08z M26.573,20.412c-0.319,0.218-0.611,0.517-0.858,0.907
		c-2.128,3.371-5.442,5.035-9.279,5.741c-3.75,0.69-2.157,6.394,1.573,5.708c2.749-0.503,5.286-1.512,7.502-2.995
		c-0.022,1.153-0.044,2.304-0.066,3.458c-0.368-0.008-0.742,0.229-0.76,0.711c-0.015-0.646-0.172,0.436-0.108,0.662
		c0.019,0.069,0.05,0.146,0.075,0.221c-0.064,1.072-0.305,2.15-1.639,2.195c-1.047,0.037-2.24-0.561-3.184-0.936
		c-0.625-0.25-1.144,0.57-0.835,1.086c1.253,2.092,0.755,4.197-0.369,6.176c-5.322-4.035-10.547-10.601-8.908-17.663
		c1.771-7.623,10.942-7.11,17.066-5.502C26.71,20.257,26.639,20.333,26.573,20.412z M45.83,43.578
		c-1.124-1.977-1.624-4.084-0.369-6.174c0.311-0.516-0.21-1.336-0.835-1.086c-1.039,0.414-2.06,0.82-3.185,0.936
		c-1.328,0.139-1.575-1.143-1.643-2.232C39.8,35.02,39.8,35.018,39.8,35.016c0.097-0.219,0.119-0.38,0.065-0.613
		c-0.104-0.45-0.094-0.504-0.102-0.226c-0.033-0.95-1.457-0.956-1.479,0c-0.003,0.153,0,0.319,0.033,0.474
		c0.002,0.015,0.002,0.023,0.005,0.035c-0.063,0.065-0.134,0.16-0.214,0.291c-0.002,0.002-0.004,0.006-0.006,0.008
		c0.03-1.666,0.062-3.333,0.097-4.999c2.243,1.528,4.825,2.562,7.625,3.079c3.729,0.688,5.323-5.017,1.573-5.708
		c-3.838-0.707-7.151-2.371-9.279-5.741c-0.148-0.236-0.316-0.435-0.493-0.606c-0.099-0.172-0.203-0.339-0.321-0.5
		c6.147-1.715,14.856-2.334,17.303,4.964C56.954,32.46,51.061,39.6,45.83,43.578z"/>
	<path fill="#0E0F0F" d="M31.946,6.269c2.723,0,5.471-0.661,5.471-2.134C37.417,2.66,34.669,2,31.946,2
		c-2.724,0-5.471,0.66-5.471,2.135C26.475,5.608,29.222,6.269,31.946,6.269z M31.946,3.184c2.746,0,4.181,0.698,4.291,0.927
		c-0.106,0.277-1.545,0.975-4.291,0.975s-4.182-0.697-4.291-0.926C27.764,3.882,29.2,3.184,31.946,3.184z"/>
</g>
</svg>
