<?xml version="1.0" encoding="utf-8"?>
<!-- Generator: Adobe Illustrator 16.0.4, SVG Export Plug-In . SVG Version: 6.00 Build 0)  -->
<!DOCTYPE svg PUBLIC "-//W3C//DTD SVG 1.1//EN" "http://www.w3.org/Graphics/SVG/1.1/DTD/svg11.dtd">
<svg version="1.1" id="Capa_1" xmlns="http://www.w3.org/2000/svg" xmlns:xlink="http://www.w3.org/1999/xlink" x="0px" y="0px"
	 width="64px" height="64px" viewBox="0 0 64 64" enable-background="new 0 0 64 64" xml:space="preserve">
<g>
	<circle fill="#0F1011" cx="31.421" cy="8.279" r="5.949"/>
	<path fill="#0F1011" d="M52.662,16.074H34.436c-0.928-0.567-2.014-0.899-3.18-0.899c-1.139,0-2.2,0.316-3.113,0.858L16.207,4.097
		c-0.983-0.983-2.579-0.983-3.561,0c-0.984,0.984-0.984,2.578,0,3.562l12.588,12.588c-0.059,0.341-0.096,0.688-0.096,1.044v14.391
		c0,0.311,0.03,0.61,0.074,0.906c-0.045,0.188-0.076,0.385-0.076,0.586v22.309c0,1.391,1.129,2.52,2.519,2.52
		c1.391,0,2.518-1.129,2.518-2.52V41.697c0.352,0.062,0.711,0.102,1.081,0.102c0.368,0,0.727-0.039,1.078-0.102V59.48
		c0,1.391,1.128,2.52,2.52,2.52c1.393,0,2.52-1.129,2.52-2.52V37.174c0-0.199-0.03-0.393-0.073-0.581
		c0.043-0.298,0.074-0.6,0.074-0.911V21.291c0-0.061-0.009-0.119-0.011-0.18h15.302c1.39,0,2.521-1.127,2.521-2.518
		C55.182,17.202,54.052,16.074,52.662,16.074z"/>
</g>
</svg>
