<?xml version="1.0" encoding="iso-8859-1"?>
<!-- Generator: Adobe Illustrator 16.0.0, SVG Export Plug-In . SVG Version: 6.00 Build 0)  -->
<!DOCTYPE svg PUBLIC "-//W3C//DTD SVG 1.1//EN" "http://www.w3.org/Graphics/SVG/1.1/DTD/svg11.dtd">
<svg version="1.1" id="Capa_1" xmlns="http://www.w3.org/2000/svg" xmlns:xlink="http://www.w3.org/1999/xlink" x="0px" y="0px"
	 width="500px" height="500px" viewBox="0 0 500 500" style="enable-background:new 0 0 500 500;" xml:space="preserve">
<g>
	<path d="M194.347,263.765H6.773c-1.088,0-1.971,0.883-1.971,1.971v34.288c0,1.088,0.882,1.971,1.971,1.971h15.992v152.424
		c0,1.089,0.882,1.971,1.971,1.971h119.849c1.088,0,1.971-0.882,1.971-1.971V301.994h47.791c1.088,0,1.971-0.883,1.971-1.971
		v-34.288C196.317,264.647,195.435,263.765,194.347,263.765z"/>
	<path d="M343.373,338.429c13.334-12.204,19.002-28.554,19.544-55.932l2.501-70.423c0.019-0.535-0.18-1.053-0.552-1.438
		c-0.371-0.385-0.883-0.602-1.418-0.602h-21.795c-1.062,0-1.932,0.84-1.97,1.9l-2.516,70.49c0,18.713-8.264,47.932-42.901,47.932
		c-1.118,0-40.316-0.083-40.316-0.083c-0.001,0-0.001,0-0.002,0c-0.522,0-1.024,0.208-1.394,0.576
		c-0.369,0.37-0.577,0.872-0.577,1.395v21.765c0,1.088,0.882,1.97,1.971,1.97h36.132v67.681h-10.999
		c-15.589,0-28.27,12.669-28.27,28.242c0,1.088,0.882,1.971,1.97,1.971h14.505c1.089,0,1.971-0.883,1.971-1.971
		c0-5.414,4.401-9.818,9.811-9.818h47.708c5.418,0,9.826,4.404,9.826,9.818c0,1.088,0.883,1.971,1.971,1.971h14.526
		c0.006,0.001,0.014,0.001,0.019,0c1.09,0,1.971-0.883,1.971-1.971c0-0.099-0.007-0.195-0.021-0.29
		c-0.155-15.439-12.787-27.952-28.291-27.952h-10.979v-70.479C326.617,350.234,335.888,345.276,343.373,338.429z"/>
	<path d="M112.517,214.914c6.098,1.419,17.889,3.597,32.863,3.597c8.697,0,17.245-0.753,25.474-2.231
		c0.813-4.408,2.1-8.622,3.788-12.369c-0.008,0,2.153-5.49,6.033-10.208c1.21-1.497,2.525-2.874,3.798-4.138
		c-7.61-15.467-24.885-24.476-42.508-20.704c-20.777,4.462-34.029,24.917-29.575,45.71
		C112.423,214.694,112.493,214.795,112.517,214.914z"/>
	<path d="M230.422,328.27c9.491-3.347,63.108-2.194,66.131-2.657c42.139,0,46.801-62.804,16.424-84.103
		c-25.248-17.702-71.256-55.68-71.256-55.68c-15.397-12.024-36.137-6.636-49.059,3.546l-0.109,0.093c0,0-4.429,3.738-7.642,7.679
		c-3.38,4.125-5.274,8.986-5.274,8.986c-2.013,4.465-3.343,9.547-3.94,14.768c-37.606,7.855-69.077-1.864-69.39-1.945
		c-9.699-3.227-20.105,2.091-23.271,11.772c-3.182,9.678,2.092,20.108,11.781,23.271c1.362,0.466,21.728,6.96,50.623,6.96
		c13.206,0,28.22-1.43,43.992-5.329l41.471,32.41c-31.974,6.752-36.941,19.267-39.025,24.459
		c-7.672,19.177-2.246,84.788,1.664,122.194c1.125,10.823,10.28,18.877,20.916,18.877c0.737,0,1.47-0.03,2.215-0.128
		c11.576-1.206,19.958-11.563,18.757-23.135C231.498,392.556,228.877,343.352,230.422,328.27z"/>
	<path d="M439.396,43.611c24.156,0,43.735,19.58,43.735,43.733c0,24.149-19.579,43.729-43.735,43.729
		c-24.152,0-43.732-19.581-43.732-43.729C395.666,63.191,415.246,43.611,439.396,43.611z"/>
	<path d="M495.197,165.628c-0.592-17.975-16.76-34.253-44.82-33.442c-4.903,0.048-9.445,1.579-9.445,1.579
		c-14.507,4.064-29.821,16.586-29.221,34.49l0.065,27.731c1.745-6.1,4.06-12.886,5.039-20.609c0.84,1.741,1.895,3.342,3.13,4.798
		c-7.499,48.246-33.366,63.175-34.371,63.728c-8.374,4.254-11.682,14.469-7.461,22.822c3.017,5.911,9.859,9.589,16.039,9.589
		c8.727-0.286,20.688-12.03,20.688-12.03c7.642-6.931,17.236-17.851,25.283-34.063v9.038c-8.277,14.382-17.529,24.068-24.714,30.154
		c1.946,10.44,9.101,18.043,17.783,22.64v138.376c0,12.784,10.374,23.157,23.15,23.157c12.791,0,23.166-10.381,23.166-23.157
		V289.957c9.354-6.146,15.974-15.764,15.582-27.844L495.197,165.628z"/>
</g>
</svg>
