<?xml version="1.0" encoding="utf-8"?>
<!-- Generator: Adobe Illustrator 16.0.4, SVG Export Plug-In . SVG Version: 6.00 Build 0)  -->
<!DOCTYPE svg PUBLIC "-//W3C//DTD SVG 1.1//EN" "http://www.w3.org/Graphics/SVG/1.1/DTD/svg11.dtd">
<svg version="1.1" id="Capa_1" xmlns="http://www.w3.org/2000/svg" xmlns:xlink="http://www.w3.org/1999/xlink" x="0px" y="0px"
	 width="64px" height="64px" viewBox="0 0 64 64" enable-background="new 0 0 64 64" xml:space="preserve">
<g>
	<circle fill="#101111" cx="20.82" cy="11.731" r="4.376"/>
	<path fill="#101111" d="M48.495,27.344c-0.308-2.217-1.308-4.264-1.877-6.405c0.015-0.131,0.038-0.257,0.036-0.399
		c-0.029-3.279-0.43-6.52-0.887-9.761c-0.226-1.584-2.217-2.427-3.604-2.044c-0.606,0.167-1.065,0.48-1.401,0.883
		c-1.104-0.364-2.271-0.535-3.479-0.549c-2.27-0.027-2.268,3.487,0,3.514c1.091,0.014,2.04,0.195,2.947,0.604
		c0.021,0.169,0.045,0.338,0.064,0.508c-0.438,0.177-0.839,0.483-1.161,0.962c-1.896,2.825-5.854,1.864-8.801,1.6
		c-1.508-1.179-3.686-1.174-5.195,0.12c-1.722,1.475-1.921,4.066-0.446,5.787c3.423,3.994,3.334,10.332,3.248,16.463
		c-0.013,0.938-0.025,1.861-0.025,2.759c0,1.142,0.467,2.173,1.22,2.917c-0.351,5.256-1.694,10.51-3.64,15.356
		c-1.217,3.024,3.672,4.325,4.87,1.342c2.033-5.062,3.414-10.606,3.803-16.123c1.173-0.724,1.956-2.015,1.956-3.492
		c0-0.858,0.015-1.743,0.024-2.644c0.076-5.35,0.151-11.705-2.306-17.245c2.485,0.043,4.806-0.231,6.808-1.476
		c-0.49,1.78-1.392,3.351-2.352,4.952c-1.168,1.948,1.871,3.715,3.034,1.774c0.67-1.117,1.315-2.246,1.851-3.423
		c0.188,0.032,0.383,0.048,0.575,0.048c0.53,1.607,1.107,3.204,1.345,4.908C45.415,30.516,48.805,29.559,48.495,27.344z"/>
	<circle fill="#101111" cx="43.154" cy="4.841" r="3.389"/>
</g>
</svg>
