<?xml version="1.0" encoding="utf-8"?>
<!-- Generator: Adobe Illustrator 16.0.4, SVG Export Plug-In . SVG Version: 6.00 Build 0)  -->
<!DOCTYPE svg PUBLIC "-//W3C//DTD SVG 1.1//EN" "http://www.w3.org/Graphics/SVG/1.1/DTD/svg11.dtd">
<svg version="1.1" id="Capa_1" xmlns="http://www.w3.org/2000/svg" xmlns:xlink="http://www.w3.org/1999/xlink" x="0px" y="0px"
	 width="64px" height="64px" viewBox="0 0 64 64" enable-background="new 0 0 64 64" xml:space="preserve">
<g>
	<path fill="#0E0F0F" d="M45.634,13.902c-4.836,1.233-9.668,2.465-14.502,3.697c-2.092-0.434-4.559,0.719-4.559,3.478
		c0,3.996,0,7.993,0,11.989c-3.137,1.908-6.212,3.922-9.512,5.553c-1.443,0.715-1.769,2.666-1.042,3.977
		c1.637,2.961,3.237,5.939,4.845,8.916c1.783,3.297,6.803,0.36,5.02-2.936c-1.129-2.09-2.259-4.178-3.396-6.262
		c1.709-0.961,3.379-1.984,5.046-3.018v19.506c0,1.766,1.432,3.197,3.198,3.197c1.765,0,3.196-1.432,3.196-3.197V37.409
		c0.053-0.259,0.082-0.532,0.082-0.823c0-0.792,0-1.583,0-2.375c0.014-0.159,0.014-0.318,0-0.479c0-4.118,0-8.236,0-12.354
		c4.262-1.085,8.522-2.172,12.786-3.258C49.527,17.425,48.368,13.207,45.634,13.902z"/>
	<circle fill="#0E0F0F" cx="26.081" cy="12.135" r="4.623"/>
	<polygon fill="#0E0F0F" points="23.629,6.46 18.219,1.938 16.386,3.77 20.997,9.092 	"/>
</g>
</svg>
