<?xml version="1.0" encoding="utf-8"?>
<!-- Generator: Adobe Illustrator 16.0.4, SVG Export Plug-In . SVG Version: 6.00 Build 0)  -->
<!DOCTYPE svg PUBLIC "-//W3C//DTD SVG 1.1//EN" "http://www.w3.org/Graphics/SVG/1.1/DTD/svg11.dtd">
<svg version="1.1" id="Capa_1" xmlns="http://www.w3.org/2000/svg" xmlns:xlink="http://www.w3.org/1999/xlink" x="0px" y="0px"
	 width="64px" height="64px" viewBox="0 0 64 64" enable-background="new 0 0 64 64" xml:space="preserve">
<g>
	<path fill="#0E0F0F" d="M39.113,31.657c-3.549,3.169,1.677,8.356,5.203,5.206c3.055-2.729,5.57-5.934,7.27-9.667
		c0.652-1.434,0.76-3.318-0.576-4.461c-2.613-2.24-5.201-4.397-8.092-6.141c-0.096-0.176-0.202-0.349-0.316-0.517
		c-1.789-2.583-5.332-3.229-7.916-1.439c-7.381,5.111-10.89,11.687-11.024,20.646c-7.084,3.86-11.127,10.791-10.385,19.276
		c0.41,4.688,7.775,4.729,7.361,0c-0.504-5.765,1.677-10.771,7.056-13.181c0.837,4.004,2.599,7.95,4.286,11.335
		c0.83,1.663,3.516,2.952,4.971,3.967c1.896,1.321,3.793,2.644,5.688,3.963c3.906,2.722,7.58-3.662,3.715-6.355
		c-2.715-1.893-5.434-3.785-8.148-5.676c-0.116-0.174-0.27-0.428-0.43-0.772c-0.599-1.272-1.104-2.575-1.58-3.897
		c-0.666-1.84-1.383-3.938-1.579-6.006c0.262-0.654,0.409-1.367,0.409-2.114c0-5.496,1.647-8.697,6.068-11.779
		c0.922,0.676,1.813,1.403,2.682,2.145C42.509,28.218,40.971,30,39.113,31.657z"/>
	<path fill="#0E0F0F" d="M25.053,17.628c3.533,0,6.406-2.873,6.406-6.405c0-3.533-2.873-6.406-6.406-6.406
		c-3.532,0-6.406,2.873-6.406,6.406C18.647,14.755,21.521,17.628,25.053,17.628z M25.053,6.156c2.794,0,5.067,2.273,5.067,5.067
		c0,2.793-2.273,5.066-5.067,5.066c-2.794,0-5.067-2.273-5.067-5.066C19.985,8.43,22.258,6.156,25.053,6.156z"/>
	<circle fill="#0E0F0F" cx="44.395" cy="8.648" r="6.125"/>
</g>
</svg>
