<?xml version="1.0" encoding="utf-8"?>
<!-- Generator: Adobe Illustrator 16.0.0, SVG Export Plug-In . SVG Version: 6.00 Build 0)  -->
<!DOCTYPE svg PUBLIC "-//W3C//DTD SVG 1.1//EN" "http://www.w3.org/Graphics/SVG/1.1/DTD/svg11.dtd">
<svg version="1.1" id="Capa_1" xmlns="http://www.w3.org/2000/svg" xmlns:xlink="http://www.w3.org/1999/xlink" x="0px" y="0px"
	 width="64px" height="64px" viewBox="0 0 64 64" enable-background="new 0 0 64 64" xml:space="preserve">
<g>
	<circle cx="49.535" cy="22.204" r="4.38"/>
	<path d="M61.309,25.902c-4.73,1.212-9.496,2.252-14.295,3.13c-0.019-0.297-0.066-0.604-0.152-0.92
		c-0.963-3.468-6.215-4.583-7.489-5.088c0.819-0.891,1.638-1.781,2.457-2.671c1.832-1.99-1.132-4.968-2.97-2.97
		c-1.501,1.633-3.004,3.267-4.506,4.899c-0.856,0.931-0.842,2.68,0.426,3.297c0.704,0.343,1.424,0.657,2.149,0.96
		c-4.802,1.433-7.063,1.619-7.169,1.627c-9.448,0.816-17.768,1.551-27.216,2.368c-3.347,0.289-3.065,5.498,0.309,5.207
		c5.61-0.483,11.221-0.972,16.831-1.454c-5.143,1.29-10.287,2.581-15.429,3.869c-3.282,0.822-1.89,5.885,1.395,5.062
		c6.599-1.653,32.015-7.385,36.833-9.18c6.711-1.043,13.36-2.399,19.942-4.088C65.048,29.277,63.935,25.229,61.309,25.902z"/>
	<g>
		<path d="M32.979,26.032c-0.334-0.421-0.565-0.927-0.671-1.485c-0.044-0.234-0.048-0.472-0.048-0.708l-0.051-0.072l-31.101-4.9
			l3.774,9.927l24.747-2.139C29.696,26.649,30.777,26.553,32.979,26.032z"/>
	</g>
</g>
</svg>
