<?xml version="1.0" encoding="utf-8"?>
<!-- Generator: Adobe Illustrator 16.0.4, SVG Export Plug-In . SVG Version: 6.00 Build 0)  -->
<!DOCTYPE svg PUBLIC "-//W3C//DTD SVG 1.1//EN" "http://www.w3.org/Graphics/SVG/1.1/DTD/svg11.dtd">
<svg version="1.1" id="Capa_1" xmlns="http://www.w3.org/2000/svg" xmlns:xlink="http://www.w3.org/1999/xlink" x="0px" y="0px"
	 width="64px" height="64px" viewBox="0 0 64 64" enable-background="new 0 0 64 64" xml:space="preserve">
<g>
	<path fill="#0E0F0F" d="M43.436,27.499c-1.391,0.887-3.021,1.822-4.725,1.396c-0.74-0.185-1.207-0.788-1.518-1.508
		c1.043-3.79-3.734-7.801-7.398-5.155c-3.243,0.469-8.561-0.482-9.518-3.907c-0.882-3.151-5.784-1.811-4.9,1.351
		c1.24,4.441,5.786,6.915,10.392,7.57c-1.305,2.28-2.247,4.792-2.716,7.264c-0.067,0.354-0.099,0.708-0.103,1.059
		c-4.437,5.832-6.622,13.371-6.177,21.404c0.094,1.69,1.495,3,3.168,3c0.06,0,0.119-0.002,0.179-0.007
		c1.751-0.096,3.093-1.594,2.995-3.346c-0.263-4.724,0.577-9.207,2.399-13.08c0.032,5.416,1.002,10.683,2.903,15.571
		c0.489,1.257,1.689,2.024,2.96,2.024c0.383,0,0.773-0.069,1.15-0.217c1.635-0.635,2.445-2.478,1.81-4.11
		c-2.541-6.535-3.132-13.899-1.733-21.356c0.36-1.321,0.838-2.411,1.568-3.637c0.749,0.807,1.67,1.455,2.792,1.844
		c3.117,1.082,6.377-0.078,9.033-1.771C48.753,30.13,46.207,25.731,43.436,27.499z"/>
	<circle fill="#0E0F0F" cx="36.846" cy="14.264" r="5.467"/>
	<path fill="#0E0F0F" d="M45.639,5.175c0.519-0.599,0.538-1.425,0.051-1.844c-0.485-0.419-1.301-0.274-1.814,0.325
		C43.359,4.255,43.395,6,43.395,6S45.123,5.774,45.639,5.175z"/>
	<path fill="#0E0F0F" d="M48.869,13.115c-0.771-0.531-2.828-0.268-2.828-0.268s0.486,2.015,1.262,2.547
		c0.771,0.533,1.75,0.452,2.184-0.177C49.919,14.589,49.645,13.647,48.869,13.115z"/>
	<path fill="#0E0F0F" d="M48.32,9.686c0.992-0.025,1.781-0.704,1.759-1.512c-0.021-0.808-0.843-1.443-1.838-1.416
		c-0.992,0.026-2.587,1.534-2.587,1.534S47.328,9.712,48.32,9.686z"/>
</g>
</svg>
