<?xml version="1.0" encoding="utf-8"?>
<!-- Generator: Adobe Illustrator 16.0.4, SVG Export Plug-In . SVG Version: 6.00 Build 0)  -->
<!DOCTYPE svg PUBLIC "-//W3C//DTD SVG 1.1//EN" "http://www.w3.org/Graphics/SVG/1.1/DTD/svg11.dtd">
<svg version="1.1" id="Capa_1" xmlns="http://www.w3.org/2000/svg" xmlns:xlink="http://www.w3.org/1999/xlink" x="0px" y="0px"
	 width="64px" height="64px" viewBox="0 0 64 64" enable-background="new 0 0 64 64" xml:space="preserve">
<g>
	<path fill="#0E0F0F" d="M37.855,29.179c-3.172-1.496-6.343-2.992-9.517-4.488c-0.052-0.04-0.104-0.082-0.157-0.118
		c-0.655-0.432-1.345-0.598-2.015-0.556c-0.163-0.044-0.331-0.076-0.509-0.076H14.884c-1.083,0-1.959,0.877-1.959,1.959
		s0.876,1.959,1.959,1.959h6.659c-1.528,1.885-3.055,3.771-4.582,5.657c-0.062,0.076-0.115,0.155-0.167,0.236
		c-0.153,0.105-0.3,0.237-0.435,0.398c-3.115,3.734-8.392,9.645-11.774,13.139c-1.791,1.852,0.931,4.617,2.741,2.746
		c2.835-2.928,6.715-7.087,9.869-10.674c4.316,2.256,6.549,5.561,7.539,10.32c0.53,2.549,4.495,1.769,3.964-0.785
		c-0.957-4.592-2.989-8.377-6.464-11.103c0.161-0.147,0.314-0.312,0.456-0.485c2.144-2.647,4.289-5.295,6.433-7.942
		c2.482,1.171,4.964,2.342,7.449,3.514C38.861,33.961,40.113,30.245,37.855,29.179z"/>
	<path fill="#0E0F0F" d="M42.314,30.504c-0.277-1.116-1.283-2.199-2.486-2.414v5.126c1.201,0.216,2.209-0.828,2.486-1.945
		l17.604,0.04v-0.809L42.314,30.504z"/>
	<path fill="#0E0F0F" d="M28.748,23.171c1.439,0,2.683-0.823,3.295-2.022H29.99c-0.211,0-0.384-0.171-0.384-0.383
		s0.173-0.383,0.384-0.383h2.34c0.059-0.231,0.096-0.471,0.108-0.718H29.99c-0.211,0-0.384-0.171-0.384-0.383
		c0-0.212,0.173-0.383,0.384-0.383h2.41c-0.038-0.261-0.106-0.514-0.197-0.754H29.13c-0.211,0-0.381-0.171-0.381-0.383
		c0-0.212,0.17-0.383,0.381-0.383h2.672c-0.666-0.973-1.785-1.612-3.053-1.612c-2.044,0-3.701,1.657-3.701,3.702
		C25.047,21.514,26.704,23.171,28.748,23.171z"/>
</g>
</svg>
