<?xml version="1.0" encoding="utf-8"?>
<!-- Generator: Adobe Illustrator 16.0.4, SVG Export Plug-In . SVG Version: 6.00 Build 0)  -->
<!DOCTYPE svg PUBLIC "-//W3C//DTD SVG 1.1//EN" "http://www.w3.org/Graphics/SVG/1.1/DTD/svg11.dtd">
<svg version="1.1" id="Capa_1" xmlns="http://www.w3.org/2000/svg" xmlns:xlink="http://www.w3.org/1999/xlink" x="0px" y="0px"
	 width="64px" height="64px" viewBox="0 0 64 64" enable-background="new 0 0 64 64" xml:space="preserve">
<g>
	<path fill="#0E0F0F" d="M37.137,39.574c0.102-0.43,0.172-0.885,0.193-1.372c0.404-8.843-4.428-16.084-11.671-20.739
		c-4.308-2.77-8.394,0.25-9.432,4.101c-2.67-2.125-7.294,1.055-5.214,4.548c0.076,0.127,0.154,0.255,0.232,0.383
		c-2.088-0.008-8.742-0.029-6.879,0.002c2.202,0.038,7.486,5.964,7.486,5.964v-5c1.623,2.482,3.698,4.804,6.786,5.155
		c1.408,0.161,2.571-0.275,3.527-1.038c1.207,1.477,1.822,3.135,1.942,5.125c-1.057-0.016-2.117,0.027-3.187,0.152
		c-3.691,0.435-5.969,1.248-6.715,5.109c-1.122,5.824,1.907,10.078,5.174,14.53c2.658,3.621,8.776,0.112,6.083-3.56
		c-2.202-3-4.417-5.465-4.326-8.951c2.152-0.327,4.292-0.239,6.477-0.03c1.069,0.46,2.275,0.646,3.469,0.553
		c1.781,5.955,5.163,11.259,9.543,15.783c3.166,3.271,8.143-1.722,4.982-4.979C41.264,50.818,38.355,45.621,37.137,39.574z"/>
	<path fill="#0E0F0F" d="M10.472,10.987c0.009,0.1,0.012,0.2,0.026,0.301c0.449,3.26,3.454,5.539,6.712,5.09
		c3.26-0.448,5.536-3.452,5.09-6.712c-0.092-0.678-0.3-1.309-0.594-1.885c0.201-0.097,0.292-0.328,0.224-0.809l-0.194-1.423
		c-0.22-1.591-1.687-2.705-3.276-2.485l-6.342,0.87c-1.595,0.22-2.706,1.687-2.487,3.28l0.155,1.151
		C8.897,9.074,8.146,9.97,8.309,10.92C8.451,11.763,9.385,11.554,10.472,10.987z"/>
	<path fill="#0E0F0F" d="M26.561,16.435c0,0,14.28,7.656,12.593,18.94c-3.698,9.408,12.449,19.098,21.229-2.6
		C60.382,32.775,71.562,3.037,26.561,16.435z M50.738,34.141v1.814h-1.93v-1.707c-0.894-0.084-1.783-0.379-2.358-0.787l-0.271-0.195
		l0.7-1.958l0.47,0.313c0.609,0.407,1.396,0.642,2.15,0.642c0.923,0,1.539-0.479,1.539-1.19c0-0.48-0.191-1.001-1.604-1.573
		c-1.492-0.584-3.021-1.435-3.021-3.287c0-1.489,0.979-2.65,2.514-3.037v-1.763h1.913v1.643c0.731,0.074,1.37,0.277,1.945,0.614
		l0.321,0.19l-0.73,1.928l-0.45-0.256c-0.264-0.151-0.887-0.508-1.876-0.508c-0.975,0-1.322,0.512-1.322,0.991
		c0,0.519,0.258,0.855,1.791,1.491c1.326,0.54,2.853,1.422,2.853,3.451C53.369,32.494,52.326,33.736,50.738,34.141z"/>
</g>
</svg>
