<?xml version="1.0" encoding="iso-8859-1"?>
<!-- Generator: Adobe Illustrator 16.0.0, SVG Export Plug-In . SVG Version: 6.00 Build 0)  -->
<!DOCTYPE svg PUBLIC "-//W3C//DTD SVG 1.1//EN" "http://www.w3.org/Graphics/SVG/1.1/DTD/svg11.dtd">
<svg version="1.1" id="Capa_1" xmlns="http://www.w3.org/2000/svg" xmlns:xlink="http://www.w3.org/1999/xlink" x="0px" y="0px"
	 width="500px" height="500px" viewBox="0 0 500 500" style="enable-background:new 0 0 500 500;" xml:space="preserve">
<g>
	<circle cx="308.064" cy="57.981" r="55.497"/>
	<path d="M446.593,193.351c-49.593-5.101-97.676-58.767-109.777-66.199c-7.425-5.36-16.205-8.87-24.604-10.18
		c0,0-5.97-1.239-12.14-0.558c-5.905,0.656-14.884,0.961-28.031,10.761c-0.952,0.592-7.668,6.439-9.786,8.987
		c-16.363,16.961-61.705,67.118-84.275,123.857c-3.19,8.06-1.166,16.815,4.39,22.72l-26.506,47.23l-37.339-20.976
		c-4.457-2.508-10.114-0.942-12.618,3.521L35.234,437.394c-2.502,4.458-0.919,10.14,3.549,12.622l28.267,15.896
		c-4.5,8.01-3.417,18.372,3.381,25.26c8.197,8.367,21.664,8.469,30.017,0.248c7.764-7.659,8.398-19.82,1.819-28.205l38.59-67.704
		l27.035-48.174l33.51-58.091c7.246-1.153,13.74-5.983,16.658-13.31c9.552-24.051,24.344-47.223,38.629-66.425l6.732,77.365
		c0.78,9.088,4.566,16.712,10.178,22.73c-17.356,31.474-64.064,117.541-80.927,146.782c-7.554,13.123-3.064,29.89,10.051,37.454
		c4.924,2.822,10.373,3.985,15.65,3.604c8.777-0.635,17.082-5.484,21.801-13.67c15.711-27.236,56.688-109.896,74.661-140.967
		c14.409,23.945,38.959,68.009,70.104,138.375c4.528,10.254,14.563,16.331,25.096,16.331c3.725,0,7.479-0.749,11.095-2.354
		c13.84-6.123,20.103-22.313,13.964-36.151c-36.728-83.039-63.771-129.136-78.754-153.413c5.922-7.434,9.489-16.675,8.556-27.519
		l-6.372-73.279c18.457,14.737,42.541,27.152,83.663,31.404c0.764,0.082,1.504,0.119,2.252,0.119
		c10.892,0,20.257-8.242,21.401-19.321C467.038,205.155,458.437,194.569,446.593,193.351z M85.13,484.704
		c-4.27,0-7.733-3.462-7.733-7.729c0-4.267,3.463-7.729,7.733-7.729c4.265,0,7.729,3.461,7.729,7.729
		C92.857,481.245,89.396,484.704,85.13,484.704z"/>
</g>
</svg>
