<?xml version="1.0" encoding="utf-8"?>
<!-- Generator: Adobe Illustrator 16.0.4, SVG Export Plug-In . SVG Version: 6.00 Build 0)  -->
<!DOCTYPE svg PUBLIC "-//W3C//DTD SVG 1.1//EN" "http://www.w3.org/Graphics/SVG/1.1/DTD/svg11.dtd">
<svg version="1.1" id="Capa_1" xmlns="http://www.w3.org/2000/svg" xmlns:xlink="http://www.w3.org/1999/xlink" x="0px" y="0px"
	 width="64px" height="64px" viewBox="0 0 64 64" enable-background="new 0 0 64 64" xml:space="preserve">
<g>
	<circle fill="#0E0F0F" cx="18.923" cy="17.009" r="3.235"/>
	<circle fill="#0E0F0F" cx="45.35" cy="17.143" r="3.235"/>
	<path fill="#0E0F0F" d="M58.287,21.624c-3.553,0-7.105,0-10.659,0c-1.356-0.876-3.258-0.877-4.603,0c-3.498,0-6.998,0-10.496,0
		c-0.191-0.084-0.414-0.134-0.667-0.134c-3.553,0-7.106,0-10.659,0c-1.357-0.876-3.257-0.877-4.603,0c-3.684,0-7.369,0-11.053,0
		c-2.084,0-2.084,3.232,0,3.232c3.149,0,6.298,0,9.447,0c0,3.088,0,6.176,0,9.264c0,0.438,0.076,0.824,0.183,1.188
		c-0.84,4.948-1.698,9.895-2.739,14.805c-0.496,2.336,3.152,2.942,3.644,0.617c0.903-4.254,1.667-8.533,2.402-12.818
		c0.342,0.035,0.687,0.037,1.028-0.006c0.651,4.283,1.333,8.562,2.151,12.816c0.449,2.334,4.106,1.795,3.656-0.549
		c-0.979-5.091-1.764-10.216-2.532-15.341c0.032-0.212,0.065-0.423,0.065-0.655c0-3.106,0-6.214,0-9.321c2.818,0,5.636,0,8.453,0
		c0.192,0.084,0.415,0.134,0.668,0.134c3.148,0,6.298,0,9.446,0c0,3.088,0,6.177,0,9.264c0,0.438,0.076,0.823,0.183,1.187
		c-0.838,4.948-1.699,9.896-2.738,14.81c-0.494,2.334,3.152,2.94,3.646,0.614c0.902-4.254,1.666-8.531,2.4-12.817
		c0.343,0.036,0.688,0.037,1.025-0.005c0.652,4.281,1.334,8.561,2.152,12.814c0.448,2.334,4.105,1.795,3.655-0.549
		c-0.979-5.093-1.765-10.217-2.532-15.344c0.031-0.211,0.064-0.42,0.064-0.652c0-3.107,0-6.215,0-9.322c3.004,0,6.007,0,9.011,0
		C60.373,24.856,60.373,21.624,58.287,21.624z"/>
</g>
</svg>
