<?xml version="1.0" encoding="utf-8"?>
<!-- Generator: Adobe Illustrator 16.0.4, SVG Export Plug-In . SVG Version: 6.00 Build 0)  -->
<!DOCTYPE svg PUBLIC "-//W3C//DTD SVG 1.1//EN" "http://www.w3.org/Graphics/SVG/1.1/DTD/svg11.dtd">
<svg version="1.1" id="Capa_1" xmlns="http://www.w3.org/2000/svg" xmlns:xlink="http://www.w3.org/1999/xlink" x="0px" y="0px"
	 width="64px" height="64px" viewBox="0 0 64 64" enable-background="new 0 0 64 64" xml:space="preserve">
<g>
	<path fill="#0E0F0F" d="M32.085,12.897c2.733,0,4.954-2.223,4.954-4.956c0-2.731-2.221-4.955-4.954-4.955
		c-2.732,0-4.954,2.223-4.954,4.955C27.13,10.675,29.353,12.897,32.085,12.897z M32.085,3.733c2.321,0,4.21,1.889,4.21,4.208
		c0,2.32-1.889,4.208-4.21,4.208c-2.321,0-4.208-1.888-4.208-4.208C27.875,5.623,29.764,3.733,32.085,3.733z"/>
	<path fill="#0E0F0F" d="M36.246,13.953l-0.98,0.835l-2.271,2.404V15.03h-1.816v2.04l-2.307-2.282l-0.886-0.754
		c-2.898,0.295-9.432,5.027-9.432,17.055c-0.324,3.281,4.794,3.25,5.116,0c0.216-2.186,0.146-4.848,0.689-7.059
		c0.185-0.243,0.425-0.522,0.706-0.786l0.599,1.441v8.936L25.47,44.213L24.9,57.475c0,0.332,0.068,0.646,0.181,0.937l-0.002,0.045
		c0,1.414,1.146,2.562,2.559,2.562c1.413,0,2.559-1.146,2.559-2.562l1.237-17.438l0.224-2.593h0.623l0.888,10.324l0.636,8.965
		c0,0.39,0.096,0.752,0.25,1.082c0.26,1.142,1.272,1.983,2.489,1.983c1.412,0,2.558-1.146,2.558-2.557l-0.566-13.264L38.34,34.367
		v-8.935l0.854-2.051c1.059,2.394,0.877,5.785,1.143,8.451c0.322,3.251,5.438,3.283,5.115,0
		C45.184,16.589,38.799,14.087,36.246,13.953z"/>
	<path fill="#0E0F0F" d="M31.844,9.938c-0.312,0-0.537,0.233-0.537,0.565c0,0.313,0.213,0.554,0.527,0.554
		c0.332,0,0.539-0.241,0.539-0.554C32.374,10.17,32.156,9.938,31.844,9.938z"/>
	<path fill="#0E0F0F" d="M31.816,5.474c0.565,0.009,0.85,0.313,0.85,0.769c0,0.403-0.223,0.752-0.625,1.226
		c-0.447,0.536-0.608,1.065-0.555,1.547l0.019,0.233h0.697l-0.008-0.233C32.167,8.56,32.31,8.166,32.703,7.7
		c0.43-0.51,0.768-0.949,0.768-1.556c0-0.68-0.462-1.315-1.492-1.315c-0.474,0-0.984,0.144-1.279,0.358l0.216,0.564
		C31.136,5.581,31.496,5.474,31.816,5.474z"/>
</g>
</svg>
