<?xml version="1.0" encoding="utf-8"?>
<!-- Generator: Adobe Illustrator 16.0.4, SVG Export Plug-In . SVG Version: 6.00 Build 0)  -->
<!DOCTYPE svg PUBLIC "-//W3C//DTD SVG 1.1//EN" "http://www.w3.org/Graphics/SVG/1.1/DTD/svg11.dtd">
<svg version="1.1" id="Capa_1" xmlns="http://www.w3.org/2000/svg" xmlns:xlink="http://www.w3.org/1999/xlink" x="0px" y="0px"
	 width="64px" height="64px" viewBox="0 0 64 64" enable-background="new 0 0 64 64" xml:space="preserve">
<g>
	<circle fill="#101111" cx="37.688" cy="9.311" r="5.151"/>
	<path fill="#101111" d="M33.383,19.257c-3.669,0-7.337,0-11.007,0c-3.212,0-3.212,4.985,0,4.985c3.65,0,7.299,0,10.948,0
		c0,2.855,0,5.71,0,8.564c-4.112,4.11-8.224,8.226-12.336,12.338c-2.843,2.844,1.563,7.25,4.405,4.401
		c3.25-3.25,6.502-6.502,9.753-9.754c0,6.233,0,12.474,0,18.709c0,4.019,6.229,4.019,6.229,0c0-6.696,0-13.396,0-20.094
		c0.775-0.744,1.294-1.804,1.294-3.202c0-5.098,0-10.196,0-15.292C42.671,14.089,33.988,13.854,33.383,19.257z"/>
</g>
</svg>
