<?xml version="1.0" encoding="utf-8"?>
<!-- Generator: Adobe Illustrator 16.0.4, SVG Export Plug-In . SVG Version: 6.00 Build 0)  -->
<!DOCTYPE svg PUBLIC "-//W3C//DTD SVG 1.1//EN" "http://www.w3.org/Graphics/SVG/1.1/DTD/svg11.dtd">
<svg version="1.1" id="Capa_1" xmlns="http://www.w3.org/2000/svg" xmlns:xlink="http://www.w3.org/1999/xlink" x="0px" y="0px"
	 width="64px" height="64px" viewBox="0 0 64 64" enable-background="new 0 0 64 64" xml:space="preserve">
<g>
	<path fill="#0E0F0F" d="M60.551,49.775L49.027,29.925c-0.006-0.019-0.008-0.039-0.016-0.058
		C45.482,18.833,41.561,13.151,28.815,10.7c-0.538-0.104-1.071-0.123-1.591-0.08c-0.207-0.073-0.42-0.13-0.647-0.153
		c-7.686-0.753-14.621-0.774-21.203-0.063c-1.5,0.162-2.584,1.509-2.422,3.008c0.163,1.5,1.509,2.58,3.008,2.422
		c5.029-0.543,10.307-0.623,16.016-0.255c-0.101,0.703-0.078,1.397,0.066,2.057v21.007c0,1.508,1.222,2.729,2.73,2.729
		s2.731-1.224,2.731-2.729V22.283c6.036,1.254,7.63,2.74,9.954,9.623c-5.469,7.236-11.587,16.219-11.908,16.689
		c-1.173,1.723-0.726,4.069,0.998,5.243c0.65,0.442,1.388,0.653,2.121,0.653c1.207,0,2.394-0.578,3.123-1.651
		c0.074-0.108,5.768-8.468,10.982-15.442c0.232,0.028,0.469,0.049,0.705,0.049c0.371,0,0.746-0.041,1.117-0.114l9.426,16.231
		c0.699,1.207,1.965,1.881,3.268,1.881c0.645,0,1.297-0.163,1.893-0.51C60.984,53.891,61.6,51.578,60.551,49.775z"/>
	<circle fill="#0E0F0F" cx="14.444" cy="23.659" r="6.001"/>
</g>
</svg>
