<?xml version="1.0" encoding="utf-8"?>
<!-- Generator: Adobe Illustrator 16.0.4, SVG Export Plug-In . SVG Version: 6.00 Build 0)  -->
<!DOCTYPE svg PUBLIC "-//W3C//DTD SVG 1.1//EN" "http://www.w3.org/Graphics/SVG/1.1/DTD/svg11.dtd">
<svg version="1.1" id="Capa_1" xmlns="http://www.w3.org/2000/svg" xmlns:xlink="http://www.w3.org/1999/xlink" x="0px" y="0px"
	 width="64px" height="64px" viewBox="0 0 64 64" enable-background="new 0 0 64 64" xml:space="preserve">
<path fill="#0E0F0F" d="M49.267,11.189l0.832,0.899l-5.646,5.227l-0.832-0.899L49.267,11.189z M35.727,2.035
	c3.165,0,5.73,2.565,5.73,5.73s-2.565,5.73-5.73,5.73c-3.164,0-5.729-2.565-5.729-5.73S32.562,2.035,35.727,2.035z M53.104,27.717
	c-0.539-3.203-1.146-6.418-2.045-9.541c-0.974-3.371-6.229-1.936-5.258,1.45c0.301,1.045,0.562,2.103,0.805,3.165
	c-2.606-1.803-5.072-3.818-7.149-6.157c-0.074-0.083-0.151-0.143-0.229-0.212c-1.925-2.524-6.074-2.963-8.036-0.686
	c-0.188,0.114-0.366,0.246-0.53,0.405c-3.347,3.256-6.188,6.612-8.441,9.972c-0.546,0.815-0.629,1.799-0.328,2.66l-1.803-0.995
	l-1.363,2.473L15,28.196L9.273,38.585l14.151,7.806L29.151,36l-4.468-2.465l1.361-2.47l-0.663-0.366
	c0.716-0.166,1.372-0.591,1.814-1.248c0.796-1.189,1.683-2.381,2.646-3.57c-0.057,4.043,0.072,8.087,0.424,12.123
	c-0.057,0.082-0.122,0.159-0.172,0.251c-3.437,6.322-5.536,12.171-7.669,19.431c-0.491,1.666,0.464,3.416,2.132,3.906
	c0.376,0.108,0.757,0.146,1.126,0.118c1.269-0.094,2.403-0.96,2.781-2.252c1.852-6.294,3.64-11.396,6.43-16.792
	c0.146,0.005,0.284,0.005,0.428,0c1.781,5.312,3.563,10.63,5.347,15.945c1.299,3.873,7.31,1.861,6.009-2.014
	c-1.943-5.812-3.896-11.617-5.84-17.432c-0.111-0.337-0.268-0.627-0.439-0.881c0.045-0.372,0.053-0.77,0.017-1.186
	c-0.373-4.149-0.495-8.29-0.392-12.436c2.842,2.316,5.983,4.329,9.082,6.126C51.332,32.091,53.484,29.98,53.104,27.717z
	 M23.691,32.986l-3.973-2.19l0.815-1.479l3.973,2.189L23.691,32.986z"/>
</svg>
