<?xml version="1.0" encoding="utf-8"?>
<!-- Generator: Adobe Illustrator 16.0.0, SVG Export Plug-In . SVG Version: 6.00 Build 0)  -->
<!DOCTYPE svg PUBLIC "-//W3C//DTD SVG 1.1//EN" "http://www.w3.org/Graphics/SVG/1.1/DTD/svg11.dtd">
<svg version="1.1" id="Capa_1" xmlns="http://www.w3.org/2000/svg" xmlns:xlink="http://www.w3.org/1999/xlink" x="0px" y="0px"
	 width="64px" height="64px" viewBox="0 0 64 64" enable-background="new 0 0 64 64" xml:space="preserve">
<g>
	<path fill="#0E0F0F" d="M62.211,50.732c1.663-0.524,1.799-2.342,1.353-3.51l-4.585-10.805c-0.643-1.294-1.557-1.821-3.252-1.867
		c-0.32-0.01-0.643-0.003-0.964-0.006c1.468-0.504,2.455-2.406,0.988-3.763c-2.768-2.562-5.062-5.396-7.61-8.173
		c-0.268-0.292-0.939-1.009-1.938-1.327c-1.886-0.601-4.462,0.641-4.822,2.75c-0.657,3.854-1.261,7.722-1.521,11.621
		c-0.159,2.38,1.042,3.93,3.076,3.978c4.38,0.103,11.96,0.009,11.96,0.009l3.943,9.4C59.06,49.607,60.101,51.398,62.211,50.732z
		 M47.835,34.424c0.153-1.517,0.331-3.027,0.539-4.535c1.311,1.441,2.68,2.827,4.113,4.154c0.25,0.232,0.52,0.39,0.792,0.49
		C51.466,34.517,49.648,34.49,47.835,34.424z"/>
	<circle fill="#0E0F0F" cx="46.507" cy="15.886" r="4.502"/>
	<path fill="#0E0F0F" d="M57.571,47.56c-0.433-0.271-1.002-0.141-1.272,0.29c-2.031,3.231-5.52,5.161-9.327,5.161
		c-6.072,0-11.013-4.938-11.013-11.01c0-2.94,1.149-5.705,3.229-7.785c0.359-0.358,0.359-0.946,0-1.305
		c-0.254-0.253-0.621-0.324-0.942-0.219l-0.382-5.624c-0.024-0.351-0.243-0.656-0.566-0.793l-0.574-0.236
		c0.303-0.833,0.105-1.794-0.933-2.313c-3.338-1.668-6.671-3.335-10.008-5.004c-0.184-0.424-0.456-0.831-0.835-1.203
		c-1.391-1.375-4.216-1.652-5.542,0.029c-2.975,3.771-5.605,7.738-7.923,11.946c-0.356,0.646-0.674,1.441-0.612,2.656
		c0.323,6.327-3.023,10.827-8.883,13.158c-3.091,1.229-1.536,6.13,2.073,4.757c6.205-2.549,10.217-6.796,11.593-13.055
		c2.796,3.955,4.636,7.95,5.664,12.797c0.697,3.295,5.959,2.808,5.139-0.935c-1.277-6.028-3.916-11.585-7.661-16.396
		c1.845-3.275,3.856-6.466,6.188-9.421c0.015-0.017,0.026-0.037,0.041-0.055c2.887,1.442,5.772,2.886,8.66,4.33
		c0.588,0.292,1.152,0.298,1.647,0.123l0.734,0.305l0.462,6.767c-1.56,2.166-2.408,4.751-2.408,7.472
		c0,7.09,5.768,12.855,12.855,12.855c4.448,0,8.52-2.253,10.892-6.023C58.133,48.402,58.003,47.833,57.571,47.56z"/>
	<circle fill="#0E0F0F" cx="27.767" cy="12.981" r="4.366"/>
</g>
</svg>
