<?xml version="1.0" encoding="utf-8"?>
<!-- Generator: Adobe Illustrator 16.0.4, SVG Export Plug-In . SVG Version: 6.00 Build 0)  -->
<!DOCTYPE svg PUBLIC "-//W3C//DTD SVG 1.1//EN" "http://www.w3.org/Graphics/SVG/1.1/DTD/svg11.dtd">
<svg version="1.1" id="Capa_1" xmlns="http://www.w3.org/2000/svg" xmlns:xlink="http://www.w3.org/1999/xlink" x="0px" y="0px"
	 width="64px" height="64px" viewBox="0 0 64 64" enable-background="new 0 0 64 64" xml:space="preserve">
<g>
	<path fill="#0E0F0F" d="M47.121,35.715c-1.51-16.992-9.607-20.381-9.607-20.381s-7.828-4.707-16.068,1.287
		c-5.34,4.859-6.573,12.282-7.417,19.449c-0.426,3.644,5.27,3.601,5.694,0c0.505-4.276,1.223-8.575,3.347-12.233l-0.011,4.131
		l-2.875,19.845h2.167v11.185c0,1.789,1.453,3.244,3.243,3.244c1.792,0,3.244-1.455,3.244-3.244V47.812h0.32h1.922v11.185
		c0,1.789,1.452,3.244,3.244,3.244c1.789,0,3.242-1.455,3.242-3.244V47.812h2.324l-2.013-19.883
		c0.002-1.899,0.004-3.595,0.006-4.775c2.277,3.728,3.025,8.154,3.546,12.561C41.854,39.314,47.549,39.355,47.121,35.715z"/>
	<circle fill="#0E0F0F" cx="30.576" cy="7.248" r="5.487"/>
</g>
</svg>
