<?xml version="1.0" encoding="utf-8"?>
<!-- Generator: Adobe Illustrator 16.0.4, SVG Export Plug-In . SVG Version: 6.00 Build 0)  -->
<!DOCTYPE svg PUBLIC "-//W3C//DTD SVG 1.1//EN" "http://www.w3.org/Graphics/SVG/1.1/DTD/svg11.dtd">
<svg version="1.1" id="Capa_1" xmlns="http://www.w3.org/2000/svg" xmlns:xlink="http://www.w3.org/1999/xlink" x="0px" y="0px"
	 width="64px" height="64px" viewBox="0 0 64 64" enable-background="new 0 0 64 64" xml:space="preserve">
<g>
	<path fill="#0E0F0F" d="M42.604,9.935c0,0-0.836,2.559-1.623,5.337c-2.746-0.031-5.508-0.144-8.125-0.936
		c-0.291-0.126-0.587-0.227-0.892-0.301c-0.108-0.04-0.217-0.076-0.324-0.119c-0.363-0.145-0.71-0.217-1.037-0.231
		c-0.092-0.124-0.192-0.245-0.307-0.363c-4.144-4.22-8.592-8.086-13.457-11.457c-3.253-2.255-7.385,2.378-4.104,4.652
		c4.864,3.371,9.311,7.236,13.456,11.457c0.008,0.008,0.016,0.014,0.024,0.021c-0.001,0.002-0.001,0.004-0.001,0.006l-0.133-0.027
		c0.042,0.06,0.071,0.135,0.105,0.203c-0.059,0.477-0.062,0.969-0.01,1.465c0.056,0.531,0.101,1.063,0.146,1.595
		c-1.188,6.81-8.82,20.175-8.82,20.175l1.142-1.145c-0.503,0.918-0.817,1.469-0.817,1.469s1.523,0.66,3.824,1.51
		c-2.938,3.872-5.863,7.758-8.849,11.597c-2.462,3.165,2.702,6.61,5.14,3.474c3.354-4.312,6.632-8.686,9.939-13.03
		c2.485,0.696,5.122,1.287,7.534,1.522c1.427,3.976,2.056,8.194,1.784,12.53c-0.246,3.974,5.906,4.757,6.156,0.759
		c0.303-4.854-0.282-9.517-1.686-13.951c0.742-0.357,1.35-0.852,1.764-1.519c0,0-5.983-18.189-4.918-23.235
		c1.555,0.066,3.11,0.073,4.649,0.096c1.31,0.02,2.765-0.742,3.112-2.105l2.4-10.703C43.997,4.979,42.604,9.935,42.604,9.935z"/>
	<circle fill="#0E0F0F" cx="34.156" cy="6.896" r="5.169"/>
</g>
</svg>
