<?xml version="1.0" encoding="utf-8"?>
<!-- Generator: Adobe Illustrator 16.0.4, SVG Export Plug-In . SVG Version: 6.00 Build 0)  -->
<!DOCTYPE svg PUBLIC "-//W3C//DTD SVG 1.1//EN" "http://www.w3.org/Graphics/SVG/1.1/DTD/svg11.dtd">
<svg version="1.1" id="Capa_1" xmlns="http://www.w3.org/2000/svg" xmlns:xlink="http://www.w3.org/1999/xlink" x="0px" y="0px"
	 width="14.016px" height="30.092px" viewBox="0 0 14.016 30.092" enable-background="new 0 0 14.016 30.092" xml:space="preserve">
<g>
	<circle cx="7.138" cy="7.413" r="2.195"/>
	<path d="M12.23,12.693c-0.203-2.405-3.89-2.375-3.89-2.375H5.72c-3.152,0.058-3.936,2.375-3.936,2.375L0,18.099h0.004
		C0.001,18.11,0,18.124,0,18.136c0,0.514,0.417,0.93,0.927,0.93c0.515,0,0.931-0.416,0.931-0.93c0-0.013-0.002-0.025-0.004-0.037
		h0.004l1.783-5h0.581l-2.825,8.554h2.821L4.215,28.84c0,0.692,0.561,1.252,1.253,1.252c0.689,0,1.25-0.56,1.25-1.252v-7.183H7.28
		v7.195l0.01,0.008c0.008,0.683,0.562,1.229,1.246,1.229c0.688,0,1.243-0.558,1.243-1.243l-0.002-7.189h2.831l-2.834-8.584h0.604
		l1.784,5.025h0.001c0,0,0,0.004,0,0.006c0,0.514,0.416,0.93,0.926,0.93c0.515,0,0.929-0.416,0.929-0.93v-0.006L12.23,12.693z"/>
	<path d="M7.978,4.895c1.195,0.41,1.688,1.502,1.688,1.502l0.121-3.33C9.691,3.166,9.544,3.204,9.409,3.152
		C9.231,3.083,9.143,2.88,9.21,2.702c0.068-0.18,0.271-0.268,0.451-0.2c0.057,0.023,0.104,0.059,0.143,0.103L9.896,0.04
		c0.1,0.033,0.192,0.062,0.283,0.102c0.046,0.019,0.096,0.041,0.125,0.083c0.031,0.041,0.036,0.096,0.021,0.144
		c-0.005,0.012-0.01,0.023-0.016,0.035c-0.002,0.005-0.005,0.011-0.008,0.017l-0.009,0.018c-0.014,0.028-0.021,0.055-0.022,0.085
		c-0.006,0.029-0.004,0.061,0.004,0.092c0.012,0.031,0.025,0.06,0.049,0.083c0.045,0.045,0.102,0.069,0.154,0.08
		c0.057,0.011,0.11,0.012,0.166,0.001V0.772c-0.055-0.011-0.104-0.026-0.148-0.044c-0.047-0.021-0.093-0.043-0.119-0.078
		c-0.029-0.031-0.044-0.073-0.041-0.121c0-0.023,0.006-0.049,0.012-0.072l0.005-0.019c0.002-0.007,0.004-0.014,0.004-0.021
		c0.004-0.014,0.006-0.029,0.008-0.042c0.012-0.118-0.062-0.221-0.156-0.283c-0.049-0.028-0.104-0.045-0.156-0.056
		C9.997,0.028,9.947,0.025,9.896,0.029V0L9.175,0.899c0.066-0.022,0.142-0.022,0.212,0.005c0.159,0.063,0.241,0.245,0.18,0.406
		C9.504,1.473,9.322,1.554,9.16,1.49c-0.139-0.051-0.216-0.186-0.2-0.323L7.709,2.723c0.086-0.048,0.19-0.058,0.292-0.02
		C8.181,2.772,8.27,2.973,8.2,3.152C8.131,3.331,7.93,3.421,7.751,3.351c-0.17-0.066-0.259-0.25-0.209-0.422L6.938,3.681
		l0.314,0.072l0.263-0.242l0.03,0.355L7.857,4.04L7.53,4.182L7.459,4.53L7.226,4.263l-0.354,0.04l0.184-0.305L6.919,3.704
		L5.918,4.95C5.918,4.95,6.782,4.485,7.978,4.895z M9.403,1.792c0.055,0.02,0.079,0.081,0.061,0.134
		c-0.021,0.053-0.08,0.08-0.134,0.06c-0.056-0.021-0.08-0.081-0.061-0.135C9.289,1.797,9.349,1.771,9.403,1.792z M8.599,4.796
		L8.566,4.959L8.458,4.834l-0.163,0.02l0.084-0.143L8.31,4.562l0.161,0.036l0.121-0.111L8.608,4.65l0.145,0.081L8.599,4.796z
		 M8.814,3.763c0.032-0.085,0.128-0.127,0.214-0.094s0.127,0.128,0.096,0.212C9.09,3.966,8.994,4.009,8.909,3.976
		C8.823,3.942,8.781,3.848,8.814,3.763z M9.389,4.354c0.192,0.075,0.287,0.292,0.214,0.485C9.528,5.032,9.312,5.127,9.118,5.053
		C8.925,4.979,8.829,4.761,8.903,4.569C8.979,4.375,9.194,4.279,9.389,4.354z M9.026,1.834C9.127,1.874,9.179,1.988,9.14,2.09
		S8.985,2.242,8.884,2.203c-0.103-0.04-0.152-0.154-0.112-0.256C8.81,1.845,8.925,1.794,9.026,1.834z M8.545,2.424L8.706,2.46
		l0.122-0.111l0.015,0.165l0.145,0.08L8.834,2.659L8.802,2.821L8.694,2.697L8.53,2.716l0.084-0.141L8.545,2.424z M8.299,3.389
		L8.23,3.239l0.162,0.036l0.12-0.112l0.015,0.165l0.146,0.081l-0.15,0.065L8.486,3.637L8.379,3.511L8.215,3.53L8.299,3.389z"/>
</g>
</svg>
