<?xml version="1.0" encoding="utf-8"?>
<!-- Generator: Adobe Illustrator 16.0.4, SVG Export Plug-In . SVG Version: 6.00 Build 0)  -->
<!DOCTYPE svg PUBLIC "-//W3C//DTD SVG 1.1//EN" "http://www.w3.org/Graphics/SVG/1.1/DTD/svg11.dtd">
<svg version="1.1" id="Capa_1" xmlns="http://www.w3.org/2000/svg" xmlns:xlink="http://www.w3.org/1999/xlink" x="0px" y="0px"
	 width="64px" height="64px" viewBox="0 0 64 64" enable-background="new 0 0 64 64" xml:space="preserve">
<g>
	<path fill="#0E0F0F" d="M62,42.648c-2.23-6.729-4.221-13.516-5.952-20.393c-0.044-0.174-0.096-0.337-0.155-0.494
		c-0.259-2.467-1.64-4.603-4.365-5.353c-2.352-0.645-5.454,0.379-6.862,2.51c-1.854,1.4-3.671,2.845-5.562,4.195
		c-0.117,0.083-0.235,0.169-0.357,0.257c1.255-3.17,2.539-6.331,3.422-9.621c1.331-4.97-6.355-7.078-7.684-2.118
		c-1.642,6.117-4.675,11.786-6.315,17.904c-0.689,2.572,1.255,4.946,3.842,5.043c3.444,0.127,6.676-1.396,9.692-3.419
		c-0.452,1.233-1.012,2.462-1.707,3.713c-2.783,1.318-6.359,1.886-7.812,1.829c-1.844-0.068-3.522-0.947-4.603-2.412
		c-1.043-1.412-1.379-3.202-0.921-4.91c0.004-0.019,0.011-0.037,0.017-0.057c-0.173,0.18-0.333,0.373-0.478,0.583
		c-1.182,1.729-3.291,5.344-3.291,5.344c-2.476,3.841-4.589,7.896-6.786,11.9c-1.785,3.25-3.626,6.467-5.768,9.504
		c-3.029,4.301,4.026,8.357,7.022,4.107c2.809-3.986,5.108-8.273,7.435-12.548c1.09-1.998,2.185-3.993,3.342-5.952
		c0,0,1.434-2.703,2.203-4.005c2.207,2.245,4.314,6.034,6.003,8.691l0.002,0.053c-3.072-0.063-6.146-0.133-9.218-0.192
		c-0.64,1.135-1.271,2.278-1.903,3.438l-0.366,0.673c-0.683,1.256-1.377,2.523-2.086,3.793c4.561,0.078,9.121,0.186,13.676,0.268
		c0.933,0.017,1.863,0.035,2.795,0.052c2.341,0.045,10.3-5.73,11.566-13.931c0.364-0.535,0.573-1.063,0.655-1.576
		c0.25-0.493,0.485-0.985,0.707-1.479c0.688,2.245,1.391,4.486,2.129,6.72C55.927,49.621,63.623,47.54,62,42.648z"/>
	<path fill="#0E0F0F" d="M14.183,47.818c0.213-0.389,0.425-0.779,0.638-1.17c-2.99-0.014-5.979-0.002-8.967,0.05
		c-5.133,0.091-5.142,8.058,0,7.969c1.45-0.024,2.901-0.04,4.353-0.046C11.654,52.357,12.966,50.038,14.183,47.818z"/>
	<circle fill="#0E0F0F" cx="53.799" cy="8.806" r="6.487"/>
</g>
</svg>
