<?xml version="1.0" encoding="utf-8"?>
<!-- Generator: Adobe Illustrator 16.0.4, SVG Export Plug-In . SVG Version: 6.00 Build 0)  -->
<!DOCTYPE svg PUBLIC "-//W3C//DTD SVG 1.1//EN" "http://www.w3.org/Graphics/SVG/1.1/DTD/svg11.dtd">
<svg version="1.1" id="Capa_1" xmlns="http://www.w3.org/2000/svg" xmlns:xlink="http://www.w3.org/1999/xlink" x="0px" y="0px"
	 width="64px" height="64px" viewBox="0 0 64 64" enable-background="new 0 0 64 64" xml:space="preserve">
<g>
	<path fill="#0E0F0F" d="M16.921,11.035c2.766-0.313,4.748-2.81,4.433-5.571c-0.317-2.764-2.813-4.748-5.573-4.431
		c-2.764,0.317-4.746,2.813-4.433,5.575C11.666,9.37,14.161,11.354,16.921,11.035z"/>
	<path fill="#0E0F0F" d="M33.98,26.669c-0.104-0.358-0.244-0.721-0.434-1.087c-1.37-2.669-2.802-5.309-4.266-7.931
		c1.551,0.12,3.102,0.24,4.654,0.361c1.062,2.099,2.123,4.197,3.186,6.297c1.711,3.38,6.775,0.407,5.07-2.963
		c-1.368-2.709-2.99-8.799-6.528-9.073c-3.762-0.293-7.525-0.584-11.288-0.876c-0.09-0.007-0.168,0.006-0.255,0.005
		c-2.857-0.767-6.208,1.262-6.791,4.184c-1.923,4.15-4.689,7.385-9.313,8.737c-3.628,1.061-2.083,6.73,1.561,5.663
		c4.581-1.34,7.871-3.965,10.367-7.421c1.511,2.693,2.986,5.407,4.4,8.153c-3.109,2.144-5.826,4.739-8.206,7.729
		c-0.664,0.836-0.777,1.693-0.554,2.449c-0.008,0.278,0.009,0.57,0.09,0.89c0.916,3.622,1.831,7.246,2.748,10.868
		c0.972,3.861,7.082,2.759,6.101-1.125c-0.872-3.449-1.745-6.9-2.617-10.354c2.187-2.577,4.765-4.821,7.71-6.493
		c0.694-0.396,1.13-0.938,1.373-1.537c4.031,6.176,8.062,14.717,12.089,19.896c2.456,3.154,7.373-0.629,4.908-3.794
		C41.995,40.3,35.139,28.646,33.98,26.669z"/>
	<path fill="#0E0F0F" d="M13.897,41.312c-0.2-0.908-0.091-1.83,0.3-2.69H7.755v24.101h7.635v-15.01l-1.337-5.288
		C13.959,42.057,13.907,41.682,13.897,41.312z"/>
	<path fill="#0E0F0F" d="M23.925,41.843l2.391,9.462c0.362,1.436,0.102,2.814-0.735,3.889c-0.892,1.146-2.367,1.828-3.946,1.828
		c-0.067,0-0.134-0.004-0.202-0.008v5.709h7.635V38.621h-1.734C26.142,39.574,25.001,40.648,23.925,41.843z"/>
	<path fill="#0E0F0F" d="M41.771,54.326c-1.818-2.34-3.633-5.33-5.412-8.434v16.828h7.635v-6.775
		C43.143,55.652,42.378,55.105,41.771,54.326z"/>
	<path fill="#0E0F0F" d="M50.038,38.62L50.038,38.62v10.696c0.604,1.267,0.622,2.685,0,3.966v9.438h7.636V38.62H50.038z"/>
</g>
</svg>
