<?xml version="1.0" encoding="utf-8"?>
<!-- Generator: Adobe Illustrator 17.0.0, SVG Export Plug-In . SVG Version: 6.00 Build 0)  -->
<!DOCTYPE svg PUBLIC "-//W3C//DTD SVG 1.1//EN" "http://www.w3.org/Graphics/SVG/1.1/DTD/svg11.dtd">
<svg version="1.1" id="Capa_1" xmlns="http://www.w3.org/2000/svg" xmlns:xlink="http://www.w3.org/1999/xlink" x="0px" y="0px"
	 width="64px" height="64px" viewBox="0 0 64 64" enable-background="new 0 0 64 64" xml:space="preserve">
<polygon points="11.726,54.029 13.315,55.585 40.068,28.9 34.622,23.454 7.811,50.197 9.406,51.759 "/>
<path d="M4.327,59.747l1.381-0.528l-1.477-1.518l-0.52,1.409C3.506,59.671,3.781,59.956,4.327,59.747z"/>
<polygon points="11.319,56.953 12.156,56.134 7.301,51.383 6.436,52.229 4.826,56.387 7.006,58.521 "/>
<path d="M40.776,28.194l0.548,0.548c0.945-0.953,1.933-1.981,2.944-3.06l0.353,0.353l0.353,0.353l0.383,0.383L34.648,37.478
	c-0.391,0.391-0.391,1.024,0,1.414l0.155,0.155c0.391,0.391,1.024,0.391,1.414,0l15.666-15.666c0.391-0.391,0.391-1.024,0-1.414
	l-0.155-0.155c-0.391-0.391-1.024-0.391-1.414,0l-2.19,2.19l-0.501-0.501l-0.352-0.352l-0.355-0.355
	c1.592-1.77,3.195-3.612,4.738-5.449c1.475-1.757,2.894-3.505,4.191-5.174c2.583-3.321,4.686-6.323,5.8-8.431l-1.673-1.672
	c-2.119,1.119-5.141,3.24-8.482,5.84c-2.356,1.834-4.869,3.909-7.338,6.041c-3.307,2.856-6.532,5.813-9.181,8.44l0.359,0.359
	L40.776,28.194z"/>
</svg>
