<?xml version="1.0" encoding="utf-8"?>
<!-- Generator: Adobe Illustrator 17.0.0, SVG Export Plug-In . SVG Version: 6.00 Build 0)  -->
<!DOCTYPE svg PUBLIC "-//W3C//DTD SVG 1.1//EN" "http://www.w3.org/Graphics/SVG/1.1/DTD/svg11.dtd">
<svg version="1.1" id="Capa_1" xmlns="http://www.w3.org/2000/svg" xmlns:xlink="http://www.w3.org/1999/xlink" x="0px" y="0px"
	 width="64px" height="64px" viewBox="0 0 64 64" enable-background="new 0 0 64 64" xml:space="preserve">
<path d="M8.948,56.415l0.879-0.89c1.802,0.98,4.625,0.671,7.996-0.716c-3.599-2.2-6.602-5.294-8.719-8.976
	c-1.427,3.512-1.745,6.452-0.712,8.29l-0.855,0.866c-0.389,0.394-1.587,2.246-1.198,2.64C6.73,58.022,8.559,56.809,8.948,56.415z"/>
<path d="M20.429,54.361c3.184-1.31,6.756-3.39,10.446-6.103c-6.895-2.951-12.455-8.413-15.543-15.233
	c-2.542,3.583-4.502,7.047-5.765,10.154C12.204,47.765,15.945,51.62,20.429,54.361z"/>
<path d="M31.875,47.257c3.25-2.389,6.592-5.268,9.848-8.564c3.449-3.493,6.44-7.085,8.879-10.56
	c-6.814-2.998-12.298-8.454-15.333-15.248C31.887,15.334,28.396,18.322,25,21.76c-3.352,3.394-6.269,6.881-8.668,10.264
	C19.42,38.845,24.98,44.307,31.875,47.257z"/>
<path d="M51.602,27.134c0.536-0.764,1.035-1.519,1.517-2.269c0.162,0.378,0.395,0.663,0.716,0.794
	c0.239,0.098,0.505,0.09,0.781,0.025c-2.775,4.41-6.274,8.346-10.058,12.098c-0.228-0.174-0.524-0.282-0.89-0.282
	c-1.348,0-1.754,1.454-1.224,2.337c-0.217,0.207-0.432,0.416-0.65,0.622c-0.94,0.887,0.477,2.299,1.414,1.414
	c8.085-7.631,15.338-15.797,18.257-26.775c0.332-1.248-1.597-1.777-1.929-0.532c-0.372,1.4-0.822,2.75-1.334,4.059
	c-0.119-0.717-0.413-1.254-0.898-1.452c-0.032-0.013-0.068-0.009-0.1-0.019c2.011-5.003,2.209-9.066,0.121-11.18
	c-3.381-3.424-11.807-0.786-21.055,5.91C39.304,18.68,44.787,24.136,51.602,27.134z"/>
</svg>
