<?xml version="1.0" encoding="utf-8"?>
<!-- Generator: Adobe Illustrator 17.0.0, SVG Export Plug-In . SVG Version: 6.00 Build 0)  -->
<!DOCTYPE svg PUBLIC "-//W3C//DTD SVG 1.1//EN" "http://www.w3.org/Graphics/SVG/1.1/DTD/svg11.dtd">
<svg version="1.1" id="Capa_1" xmlns="http://www.w3.org/2000/svg" xmlns:xlink="http://www.w3.org/1999/xlink" x="0px" y="0px"
	 width="64px" height="64px" viewBox="0 0 64 64" enable-background="new 0 0 64 64" xml:space="preserve">
<path d="M5.102,56.767l0.405,0.405L4.792,57.9c-0.295,0.3-1.084,1.828-0.643,2.273c0.441,0.444,1.944-0.363,2.239-0.663l0.721-0.735
	l0.402,0.402l13.541-2.397L7.499,43.227L5.102,56.767z"/>
<polygon points="8.617,41.62 22.658,55.661 48.948,29.208 34.907,15.167 "/>
<path d="M46.46,4.725l1.297,1.298l-9.845,9.845l9.938,9.938l9.845-9.845l1.258,1.258c2.058-2.058,0.929-6.523-2.521-9.973
	S48.518,2.667,46.46,4.725z"/>
</svg>
