<?xml version="1.0" encoding="utf-8"?>
<!-- Generator: Adobe Illustrator 17.0.0, SVG Export Plug-In . SVG Version: 6.00 Build 0)  -->
<!DOCTYPE svg PUBLIC "-//W3C//DTD SVG 1.1//EN" "http://www.w3.org/Graphics/SVG/1.1/DTD/svg11.dtd">
<svg version="1.1" id="Capa_1" xmlns="http://www.w3.org/2000/svg" xmlns:xlink="http://www.w3.org/1999/xlink" x="0px" y="0px"
	 width="64px" height="64px" viewBox="0 0 64 64" enable-background="new 0 0 64 64" xml:space="preserve">
<path d="M30.028,38.27l-4.667-4.667c-3.04,1.314-6.945,4.11-10.711,7.877c-3.925,3.925-7.297,8.504-8.535,11.594l4.443,4.443
	c3.09-1.238,7.668-4.609,11.594-8.535C25.917,45.215,28.713,41.31,30.028,38.27z"/>
<polygon points="5.349,54.918 1.969,61.396 8.516,58.016 "/>
<path d="M57.363,2.31l-3.377,3.377L57.698,9.4l3.377-3.377c1.025-1.025,1.025-2.687,0-3.712C60.05,1.285,58.388,1.285,57.363,2.31z"
	/>
<path d="M52.988,6.085L26.583,32.489l4.528,4.528l9.058-9.058c-0.067,0.79,0.736,1.627,1.593,1.075
	c6.468-4.164,12.458-9.25,17.341-15.207c0.881-1.075-0.648-2.622-1.537-1.537c-0.018,0.022-0.038,0.043-0.056,0.066l-0.868-0.868
	l0.875-0.875L52.988,6.085z M41.589,26.539l11.657-11.657l1.066,1.066C50.498,19.949,46.188,23.488,41.589,26.539z"/>
</svg>
