<?xml version="1.0" encoding="utf-8"?>
<!-- Generator: Adobe Illustrator 17.0.0, SVG Export Plug-In . SVG Version: 6.00 Build 0)  -->
<!DOCTYPE svg PUBLIC "-//W3C//DTD SVG 1.1//EN" "http://www.w3.org/Graphics/SVG/1.1/DTD/svg11.dtd">
<svg version="1.1" id="Capa_1" xmlns="http://www.w3.org/2000/svg" xmlns:xlink="http://www.w3.org/1999/xlink" x="0px" y="0px"
	 width="64px" height="64px" viewBox="0 0 64 64" enable-background="new 0 0 64 64" xml:space="preserve">
<path d="M18.851,51.233c0,0,14.271-19.382,26.007-24.303c0.382-0.16,0.733-0.344,1.099-0.517l0.522,0.522
	c-5.076,1.763-9.856,3.758-12.343,9.226c-0.53,1.165,1.194,2.182,1.727,1.009c3.18-6.992,10.509-7.766,16.902-10.374
	c1.178-0.48,0.663-2.416-0.532-1.929c-0.581,0.237-1.169,0.458-1.758,0.673l0.288-0.288l-1.023-1.023
	c7.968-5.559,10.754-14.343,9.825-19.955c-6.724-1.183-17.918,2.786-22.764,14.598c-4.846,11.812-24.24,26.07-24.24,26.07
	l3.168,3.168L18.851,51.233z"/>
<path d="M7.104,57.886l0.503-0.503c1.082,0.547,2.431,0.382,3.335-0.522l6.245-6.236l-4.077-4.077l-6.245,6.236
	c-0.897,0.897-1.067,2.234-0.534,3.312l-0.509,0.509c-0.354,0.354-1.443,2.017-1.089,2.371C5.087,59.329,6.75,58.24,7.104,57.886z"
	/>
</svg>
