<?xml version="1.0" encoding="utf-8"?>
<!-- Generator: Adobe Illustrator 17.0.0, SVG Export Plug-In . SVG Version: 6.00 Build 0)  -->
<!DOCTYPE svg PUBLIC "-//W3C//DTD SVG 1.1//EN" "http://www.w3.org/Graphics/SVG/1.1/DTD/svg11.dtd">
<svg version="1.1" id="Capa_1" xmlns="http://www.w3.org/2000/svg" xmlns:xlink="http://www.w3.org/1999/xlink" x="0px" y="0px"
	 width="64px" height="64px" viewBox="0 0 64 64" enable-background="new 0 0 64 64" xml:space="preserve">
<path d="M57.303,45.947c-0.515-0.241-1.441,0.493-2.162,0.381c-0.609-0.095-1.173-0.129-1.862-0.096
	c-6.04,0.293-6.087-0.684-12.127-0.391c-6.044,0.293-5.997,1.269-12.041,1.562c-6.044,0.293-6.136-0.975-12.159-0.389
	c-1.31,0.127-1.047,1.366-2.295,1.783c-1.251,0.417-1.56-0.51-2.81-0.094c-1.251,0.417-3.629,0.72-2.313,0.81
	c7.313,0.501,7.297,0.976,14.627,0.976c7.335,0,7.335-0.977,14.67-0.977s7.335,0.977,14.67,0.977c0.682,0,1.225-1.037,1.806-1.159
	c0.705-0.148,1.657,0.533,2.141,0.264c0.732-0.407,0.439-1.343,0.439-1.844C57.886,47.248,58.094,46.317,57.303,45.947z"/>
<path d="M42.738,20.661c2.734-2.734,2.734-7.166,0-9.899s-7.166-2.734-9.9,0l-0.707,0.707l9.9,9.9L42.738,20.661z"/>
<polygon points="9.504,34.096 5.262,48.238 19.404,43.996 "/>
<polygon points="24.939,18.662 11.626,31.975 21.525,41.874 34.838,28.561 39.91,23.49 30.01,13.59 "/>
</svg>
