<?xml version="1.0" encoding="utf-8"?>
<!-- Generator: Adobe Illustrator 17.0.0, SVG Export Plug-In . SVG Version: 6.00 Build 0)  -->
<!DOCTYPE svg PUBLIC "-//W3C//DTD SVG 1.1//EN" "http://www.w3.org/Graphics/SVG/1.1/DTD/svg11.dtd">
<svg version="1.1" id="Capa_1" xmlns="http://www.w3.org/2000/svg" xmlns:xlink="http://www.w3.org/1999/xlink" x="0px" y="0px"
	 width="64px" height="64px" viewBox="0 0 64 64" enable-background="new 0 0 64 64" xml:space="preserve">
<path d="M52.96,10.827h-7.211c-0.076-2.183-0.674-3.815-1.711-4.497c-0.608-0.399-1.311-0.437-1.932-0.101
	c-1.101,0.594-1.72,2.227-1.766,4.598h-8.565c-0.076-2.183-0.674-3.815-1.711-4.497c-0.607-0.399-1.311-0.437-1.932-0.101
	c-1.101,0.594-1.72,2.227-1.766,4.598h-8.565c-0.076-2.183-0.674-3.814-1.711-4.497c-0.606-0.398-1.311-0.436-1.932-0.101
	c-1.101,0.594-1.72,2.227-1.766,4.598H10.09c-1.17,0-2.12,0.949-2.12,2.12v44.896c0,1.171,0.95,2.12,2.12,2.12h42.87
	c1.171,0,2.12-0.949,2.12-2.12V12.947C55.08,11.776,54.131,10.827,52.96,10.827z M43.791,14.911c0.199,1.051,0.637,1.842,1.32,2.353
	c0.631,0.473,1.33,0.611,1.931,0.611c0.325,0,0.61-0.043,0.852-0.093c-0.412,0.849-1.274,1.439-2.281,1.439
	c-1.403,0-2.542-1.139-2.542-2.543C43.071,15.99,43.347,15.368,43.791,14.911z M47.965,15.717c-0.058,0.011-0.116,0.008-0.173,0.03
	c-0.009,0.004-0.934,0.327-1.482-0.084c-0.335-0.251-0.542-0.775-0.614-1.518C46.722,14.179,47.595,14.815,47.965,15.717z
	 M42.994,8.04c0.251,0.221,0.685,1.105,0.757,2.787h-1.412C42.38,9.011,42.798,8.24,42.994,8.04z M29.817,14.911
	c0.199,1.052,0.637,1.843,1.32,2.354c0.631,0.473,1.33,0.611,1.931,0.611c0.325,0,0.61-0.043,0.851-0.093
	c-0.412,0.849-1.274,1.439-2.281,1.439c-1.404,0-2.542-1.139-2.542-2.543C29.097,15.99,29.373,15.368,29.817,14.911z M33.991,15.717
	c-0.058,0.011-0.116,0.008-0.173,0.03c-0.009,0.004-0.934,0.327-1.482-0.084c-0.334-0.251-0.542-0.775-0.615-1.518
	C32.748,14.179,33.621,14.815,33.991,15.717z M29.019,8.04c0.251,0.221,0.685,1.105,0.757,2.787h-1.412
	C28.406,9.011,28.824,8.24,29.019,8.04z M15.843,14.911c0.199,1.052,0.637,1.843,1.32,2.354c0.631,0.473,1.33,0.611,1.931,0.611
	c0.325,0,0.61-0.043,0.852-0.093c-0.412,0.849-1.274,1.439-2.281,1.439c-1.404,0-2.542-1.139-2.542-2.543
	C15.123,15.99,15.399,15.368,15.843,14.911z M20.017,15.717c-0.058,0.011-0.116,0.008-0.173,0.03
	c-0.009,0.004-0.934,0.327-1.482-0.084c-0.335-0.251-0.542-0.775-0.614-1.518C18.774,14.179,19.647,14.815,20.017,15.717z
	 M15.045,8.04c0.251,0.221,0.685,1.105,0.757,2.787h-1.412C14.432,9.011,14.849,8.24,15.045,8.04z M51.144,52.239
	c0,1.171-0.949,2.12-2.12,2.12H14.145c-1.171,0-2.12-0.949-2.12-2.12V31.672c0-1.171,0.949-2.12,2.12-2.12h34.878
	c1.171,0,2.12,0.949,2.12,2.12V52.239z"/>
<g>
	<path d="M24.828,48.077V39.1c-1.671,1.282-2.795,1.923-3.374,1.923c-0.276,0-0.521-0.11-0.735-0.33
		c-0.214-0.221-0.321-0.475-0.321-0.765c0-0.335,0.105-0.582,0.316-0.74c0.21-0.158,0.582-0.361,1.115-0.611
		c0.795-0.375,1.432-0.77,1.909-1.184c0.477-0.414,0.899-0.878,1.268-1.391c0.369-0.513,0.608-0.829,0.72-0.947
		c0.112-0.118,0.322-0.178,0.631-0.178c0.349,0,0.628,0.135,0.839,0.405c0.21,0.27,0.315,0.641,0.315,1.115v11.295
		c0,1.322-0.451,1.983-1.351,1.983c-0.401,0-0.724-0.135-0.967-0.404C24.949,49.001,24.828,48.603,24.828,48.077z"/>
	<path d="M40.483,37.403h-4.686l-0.562,3.196c0.933-0.5,1.795-0.75,2.584-0.75c0.631,0,1.222,0.119,1.771,0.355
		c0.549,0.237,1.031,0.564,1.445,0.982c0.414,0.417,0.74,0.913,0.977,1.484c0.237,0.572,0.355,1.188,0.355,1.845
		c0,0.954-0.214,1.822-0.641,2.604c-0.428,0.783-1.045,1.404-1.85,1.865c-0.806,0.46-1.735,0.69-2.787,0.69
		c-1.177,0-2.132-0.217-2.866-0.651c-0.733-0.434-1.253-0.933-1.559-1.495c-0.306-0.562-0.459-1.054-0.459-1.475
		c0-0.256,0.107-0.5,0.321-0.73c0.213-0.23,0.481-0.345,0.804-0.345c0.553,0,0.963,0.319,1.233,0.957
		c0.263,0.585,0.618,1.041,1.065,1.366c0.447,0.326,0.947,0.488,1.5,0.488c0.506,0,0.95-0.131,1.331-0.395
		c0.381-0.263,0.676-0.625,0.883-1.085c0.207-0.46,0.311-0.983,0.311-1.569c0-0.631-0.112-1.17-0.335-1.618
		c-0.224-0.447-0.523-0.781-0.897-1.001c-0.375-0.22-0.793-0.331-1.253-0.331c-0.566,0-0.97,0.069-1.213,0.208
		c-0.244,0.138-0.594,0.379-1.051,0.725c-0.457,0.345-0.833,0.518-1.129,0.518c-0.322,0-0.608-0.117-0.858-0.35
		c-0.25-0.233-0.375-0.498-0.375-0.794c0-0.033,0.036-0.257,0.108-0.671l0.829-4.726c0.092-0.565,0.263-0.976,0.513-1.233
		c0.25-0.257,0.658-0.385,1.223-0.385h5.209c1.026,0,1.539,0.391,1.539,1.174c0,0.342-0.125,0.618-0.375,0.829
		C41.338,37.297,40.97,37.403,40.483,37.403z"/>
</g>
</svg>
