<?xml version="1.0" encoding="utf-8"?>
<!-- Generator: Adobe Illustrator 17.0.0, SVG Export Plug-In . SVG Version: 6.00 Build 0)  -->
<!DOCTYPE svg PUBLIC "-//W3C//DTD SVG 1.1//EN" "http://www.w3.org/Graphics/SVG/1.1/DTD/svg11.dtd">
<svg version="1.1" id="Capa_1" xmlns="http://www.w3.org/2000/svg" xmlns:xlink="http://www.w3.org/1999/xlink" x="0px" y="0px"
	 width="64px" height="64px" viewBox="0 0 64 64" enable-background="new 0 0 64 64" xml:space="preserve">
<path d="M30.038,56.113l0.017,1.733c0.007,0.695,0.934,3.399,2.044,3.404s1.984-2.693,1.977-3.388l-0.017-1.749H30.038z"/>
<path d="M50.212,1.917H13.932c-1.037,0-1.878,0.806-1.878,1.801v23.406c0,0.994,0.841,1.8,1.878,1.8h7.942h20.5h7.837
	c1.037,0,1.878-0.806,1.878-1.8V3.717C52.09,2.723,51.249,1.917,50.212,1.917z"/>
<polygon points="27.565,53.246 30.01,53.246 34.031,53.246 36.579,53.246 49.469,31.355 14.675,31.355 "/>
</svg>
