<?xml version="1.0" encoding="utf-8"?>
<!-- Generator: Adobe Illustrator 17.0.0, SVG Export Plug-In . SVG Version: 6.00 Build 0)  -->
<!DOCTYPE svg PUBLIC "-//W3C//DTD SVG 1.1//EN" "http://www.w3.org/Graphics/SVG/1.1/DTD/svg11.dtd">
<svg version="1.1" id="Capa_1" xmlns="http://www.w3.org/2000/svg" xmlns:xlink="http://www.w3.org/1999/xlink" x="0px" y="0px"
	 width="64px" height="64px" viewBox="0 0 64 64" enable-background="new 0 0 64 64" xml:space="preserve">
<polygon points="60.451,10.229 54.363,4.141 24.028,30.155 34.437,40.564 "/>
<polygon points="33.026,41.823 22.77,31.566 13.469,45.035 19.557,51.123 "/>
<path d="M12.205,58.252l5.636-7.317l-4.255-4.178l-6.608,4.985c0,0-0.286,6.146-4.21,9.525C2.769,61.267,7.396,57.721,12.205,58.252
	z M10.177,56.104c-0.719,0-1.302-0.583-1.302-1.302c0-0.719,0.583-1.302,1.302-1.302c0.719,0,1.302,0.583,1.302,1.302
	C11.479,55.521,10.896,56.104,10.177,56.104z"/>
<path d="M55.408,2.979l5.616,5.616C61.04,2.77,55.408,2.979,55.408,2.979z"/>
</svg>
