<?xml version="1.0" encoding="utf-8"?>
<!-- Generator: Adobe Illustrator 17.0.0, SVG Export Plug-In . SVG Version: 6.00 Build 0)  -->
<!DOCTYPE svg PUBLIC "-//W3C//DTD SVG 1.1//EN" "http://www.w3.org/Graphics/SVG/1.1/DTD/svg11.dtd">
<svg version="1.1" id="Capa_1" xmlns="http://www.w3.org/2000/svg" xmlns:xlink="http://www.w3.org/1999/xlink" x="0px" y="0px"
	 width="64px" height="64px" viewBox="0 0 64 64" enable-background="new 0 0 64 64" xml:space="preserve">
<path d="M59.208,53.103c0,0-0.25-4.458-8.458-6.799s-9.5-4.284-9.5-4.284c-0.543-2.662,1.601-3.284,3.162-3.397l-7.459-15.021
	c-0.315,0.08-0.645,0.168-0.988,0.264l2.347,4.6c0.226,0.442-0.026,1.007-0.574,1.287l-0.165,0.084
	c-0.187,0.095-0.39,0.146-0.586,0.146c-0.357,0-0.653-0.163-0.792-0.437l-2.558-5.014c-8.733,2.483-10.315,2.501-16.969,3.988
	c-7.083,1.583-12.583,0.917-12.583,0.917s-3.083,16.25,0,16.167c3.083-0.083,6.792,1.375,6.792,1.375c8.917,4.375,24,3.292,21.5,4
	c-2.5,0.708-3.292,1.292-3.042,3.917s6.417,1.125,6.417,1.125s-0.25,1,0.833,3.125c1.083,2.125,8.75-2.917,8.75-2.917
	s-1.083,3.375,2.208,3.583c3.292,0.208,3.125-3.25,3.875-3.292c0.75-0.042,2.542,0.25,2.542,0.25
	C60.875,57.894,59.208,53.103,59.208,53.103z"/>
<path d="M60.917,51.103c0.667-3.25-0.083-4.917-1.75-10.583c-1.667-5.667-3.917-6.833-9.583-11.333
	c-3.774-2.997-4.225-5.621-7.155-6.156l9.174,18.756c0.526,0.752,0.868,1.529,1.083,2.214l1.182,2.416
	c2.26,1.067,3.05,1.978,3.05,1.978c6.917,6.917,0.896,8.646,0.896,8.646C62.583,57.561,60.917,51.103,60.917,51.103z"/>
<polygon points="45.535,38.613 48.247,44.075 52.264,45.436 49.522,39.831 41.255,22.93 39.835,20.026 37.035,21.495 37.961,23.36 
	"/>
<path d="M36.766,20.954l2.804-1.47l0.448-0.235l0.447-0.235l0.091-0.048c-0.331-0.625-0.693-1.283-1.072-1.956
	c-0.202-0.359-0.41-0.723-0.622-1.091c-2.949-5.104-6.829-10.915-9.069-13.168l-1.266,0.664c0.534,2.872,2.753,8.594,5.067,13.637
	l-0.269,0.141l-0.267,0.14l-0.337,0.177l0.823,1.614l0.283-0.148l0.267-0.14l0.268-0.141c0.469,0.983,0.936,1.927,1.385,2.793
	l0.122-0.064l0.448-0.235L36.766,20.954z"/>
<path d="M31.47,16.156c-0.053-0.103-0.183-0.164-0.348-0.164c-0.118,0-0.242,0.031-0.359,0.091l-0.164,0.084
	c-0.179,0.091-0.314,0.236-0.363,0.388c-0.02,0.059-0.033,0.146,0.008,0.225l3.882,7.61l2.514,4.928
	c0.088,0.176,0.426,0.215,0.706,0.072l0.165-0.084c0.287-0.147,0.45-0.428,0.355-0.614l-2.392-4.689L31.47,16.156z"/>
<path d="M58.061,61.275c0.522-0.887-0.336-3.692-0.336-3.692c-2.059,0.275-3.812,0.047-3.812,0.047
	c1.645,3.12,2.682,3.917,3.263,4.045l0.007,0.015c0.111,0.244,0.743,1.102,0.987,0.991c0.244-0.112,0.009-1.151-0.103-1.395
	L58.061,61.275z"/>
</svg>
