<?xml version="1.0" encoding="utf-8"?>
<!-- Generator: Adobe Illustrator 16.0.4, SVG Export Plug-In . SVG Version: 6.00 Build 0)  -->
<!DOCTYPE svg PUBLIC "-//W3C//DTD SVG 1.1//EN" "http://www.w3.org/Graphics/SVG/1.1/DTD/svg11.dtd">
<svg version="1.1" id="Capa_1" xmlns="http://www.w3.org/2000/svg" xmlns:xlink="http://www.w3.org/1999/xlink" x="0px" y="0px"
	 width="64px" height="64px" viewBox="0 0 64 64" enable-background="new 0 0 64 64" xml:space="preserve">
<path d="M54.721,15.57c0.922,0.921,0.922,2.413,0,3.334L19.815,50.886l-4.893,4.483l-6.876-6.877l4.483-4.893l28.355-30.948
	l-1.058-1.059L26.442,24.977c-0.46,0.46-1.207,0.46-1.667,0l-0.183-0.183c-0.46-0.46-0.46-1.207,0-1.667L43.059,4.662
	c0.461-0.46,1.207-0.46,1.668,0l0.183,0.182c0.46,0.46,0.46,1.207,0,1.667l-2.582,2.582l0.948,0.949l1.236-1.348
	c0.92-0.921,2.412-0.921,3.334,0L54.721,15.57z M3.57,58.688l1.16,1.162l9.385-4.019l-6.528-6.528L3.57,58.688z M53.583,2.378
	l3.877,3.877l-2.757-2.757l-5.186,5.185l5.539,5.539l5.186-5.186l1.06,1.06C61.302,10.097,61.656,3.144,53.583,2.378z"/>
</svg>
