<?xml version="1.0" encoding="utf-8"?>
<!-- Generator: Adobe Illustrator 17.0.0, SVG Export Plug-In . SVG Version: 6.00 Build 0)  -->
<!DOCTYPE svg PUBLIC "-//W3C//DTD SVG 1.1//EN" "http://www.w3.org/Graphics/SVG/1.1/DTD/svg11.dtd">
<svg version="1.1" id="Capa_1" xmlns="http://www.w3.org/2000/svg" xmlns:xlink="http://www.w3.org/1999/xlink" x="0px" y="0px"
	 width="64px" height="64px" viewBox="0 0 64 64" enable-background="new 0 0 64 64" xml:space="preserve">
<path d="M39.046,9.824H26.629c0,17.583-2.167,22.833-4.417,25.866c-2.25,3.032,0.833,5.134,0.833,5.134
	c4.665,2.888,7.617,13.137,8.218,15.387c-0.685,0.508-1.134,1.315-1.134,2.233c0,1.364,0.981,2.494,2.274,2.735l-0.014-4.522
	l-0.003-0.947l-0.048-15.749l-2.609-2.609h6.218l-2.608,2.608l0.048,15.745l0.003,0.953l0.014,4.525
	c1.306-0.231,2.3-1.366,2.3-2.738c0-0.978-0.506-1.835-1.268-2.332c1.684-6.701,5.929-12.768,8.444-15.121
	c2.583-2.417,1-4.478,1-4.478C38.629,28.035,39.046,9.824,39.046,9.824z"/>
<path d="M25.646,1v2.333h-1.478c-1.404,0-2.542,1.138-2.542,2.542c0,1.404,1.138,2.542,2.542,2.542h17.489
	c1.404,0,2.542-1.138,2.542-2.542c0-1.404-1.138-2.542-2.542-2.542h-2.198V1H25.646z"/>
</svg>
