<?xml version="1.0" encoding="utf-8"?>
<!-- Generator: Adobe Illustrator 17.0.0, SVG Export Plug-In . SVG Version: 6.00 Build 0)  -->
<!DOCTYPE svg PUBLIC "-//W3C//DTD SVG 1.1//EN" "http://www.w3.org/Graphics/SVG/1.1/DTD/svg11.dtd">
<svg version="1.1" id="Capa_1" xmlns="http://www.w3.org/2000/svg" xmlns:xlink="http://www.w3.org/1999/xlink" x="0px" y="0px"
	 width="64px" height="64px" viewBox="0 0 64 64" enable-background="new 0 0 64 64" xml:space="preserve">
<path d="M52.199,40.461L14.64,4.539l-0.081,0.085c-0.548-0.2-2.328-0.236-6.625,4.257c-4.297,4.493-4.182,6.269-3.958,6.808
	L3.975,15.69l0.003,0.002c0.057,0.135,0.12,0.195,0.12,0.195l0.04-0.042L41.78,51.847c0.398-1.992,1.851-4.445,3.687-6.541
	C47.685,42.771,50.248,40.957,52.199,40.461z"/>
<path d="M54.634,46.049l-0.408-1.365l-0.509-1.704c0.03-0.375-0.023-0.641-0.154-0.76c-0.001-0.001-0.002-0.003-0.003-0.005
	c-0.087-0.076-0.251-0.093-0.373-0.093c-1.225,0-3.869,1.534-6.357,4.376c-2.393,2.732-3.306,5.081-3.352,6.266
	c-0.014,0.369,0.053,0.628,0.189,0.747c0.107,0.094,0.294,0.114,0.431,0.114c0.103,0,0.227-0.025,0.347-0.045l1.945,0.229
	l1.448,0.17l6.616,0.778c0-0.004-0.003-0.007-0.003-0.011c-0.039-0.486,0.187-1.051,0.62-1.55c0.21-0.243,0.763-0.779,1.451-0.827
	L54.634,46.049z"/>
<path d="M56.762,53.401c-0.038-0.032-0.089-0.047-0.147-0.047c-0.01,0-0.024,0.006-0.035,0.007c-0.207,0.018-0.5,0.199-0.753,0.492
	c-0.319,0.369-0.448,0.766-0.324,0.937c0.009,0.012,0.008,0.033,0.02,0.043l1.625,1.36c0.104,0.087,0.489,0.211,0.854,0.211
	c0.244,0,0.48-0.055,0.618-0.214c0.342-0.395-0.057-1.282-0.232-1.428L56.762,53.401z"/>
</svg>
