<?xml version="1.0" encoding="utf-8"?>
<!-- Generator: Adobe Illustrator 17.0.0, SVG Export Plug-In . SVG Version: 6.00 Build 0)  -->
<!DOCTYPE svg PUBLIC "-//W3C//DTD SVG 1.1//EN" "http://www.w3.org/Graphics/SVG/1.1/DTD/svg11.dtd">
<svg version="1.1" id="Capa_1" xmlns="http://www.w3.org/2000/svg" xmlns:xlink="http://www.w3.org/1999/xlink" x="0px" y="0px"
	 width="64px" height="64px" viewBox="0 0 64 64" enable-background="new 0 0 64 64" xml:space="preserve">
<path d="M7.03,18.321c2.369,3.582,4.449,7.839,4.777,8.571c0.094,0.211,0.242,0.709,0.408,1.318
	c1.155-1.632,2.564-2.981,4.248-3.971c2.403-1.412,5.165-1.994,8.147-1.854c-0.72-1.143-1.375-2.32-1.69-3.236
	C22.111,16.8,19.179,7.101,17.464,2.96C15.75-1.181,9.221,1.766,5.427,3.923S1.42,8.738,1.806,9.47
	C2.191,10.202,4.661,14.739,7.03,18.321z"/>
<path d="M21.578,31.667c5.046-2.08,6.125,0.443,6.125,0.443c1.599-1.483,0.482-3.236,0.482-3.236s0.404-0.751-0.25-1.522
	c-0.4-0.47-1.689-2.176-2.817-3.968c-2.982-0.14-5.744,0.442-8.147,1.854c-1.684,0.99-3.093,2.338-4.248,3.971
	c0.411,1.505,0.938,3.71,1.075,4.094c0.193,0.539,0.693,1.271,1.156,1.367c0.462,0.096,0.732,0.539,0.732,0.539
	c0.597,1.213,2.465,1.29,2.465,1.29S16.531,33.747,21.578,31.667z"/>
<path d="M59.229,42.364c-1.546-1.209-3.615-1.79-5.264-2.86c-4.263-2.766,1.259-5.314,3.087-6.962
	c3.104-2.798,3.919-6.022,2.634-9.937c-0.402-1.225-1.273-2.517-0.871-1.293c2.197,6.696-4.785,9.896-8.331,13.64
	c-1.306,1.379-1.126,2.874,0.231,4.25c2.625,2.662,10.522,4.909,5.627,9.047c-3.431,2.9-8.756,3.16-12.559,5.609
	c-0.514,0.331-0.574,1.221-0.057,1.583c3.735,2.612,8.906,1.983,12.586,4.355c-6.348,1.91-13.007,0.664-19.535,0.066
	c0.026-0.185,0.003-0.342,0.003-0.342c-0.83-5.085-0.914-6.188-0.529-8.731c0.385-2.542,0-2.774,0-2.774
	c-3.929-5.393-8.702-15.578-8.702-15.578c-0.636-1.059-3.159-1.508-6.279-0.116c-3.236,1.445-3.005,3.428-3.005,3.428l5.49,16.184
	c0.193,0.52,1.079,0.77,1.079,0.77c5.143,1.483,9.335,6.68,9.894,7.489c0.559,0.809,0.963,0.501,0.963,0.501L29.693,47.26
	c-0.458-0.105-0.925-0.503-1.2-1.093c-0.398-0.855-0.24-1.771,0.353-2.047c0.593-0.276,1.396,0.193,1.794,1.048
	c0.3,0.644,0.283,1.322,0.004,1.736l5.718,12.92c-0.042-0.004-0.084-0.008-0.126-0.012c-1.276-0.11,0.063,1.519,3.648,1.969
	c7.99,1.003,11.115,0.941,18.815-0.69c0.79-0.167,0.804-1.176,0.285-1.705c-3.41-3.48-8.403-2.738-12.491-4.639
	C51.694,52.557,65.962,47.63,59.229,42.364z"/>
</svg>
