<?xml version="1.0" encoding="utf-8"?>
<!-- Generator: Adobe Illustrator 17.0.0, SVG Export Plug-In . SVG Version: 6.00 Build 0)  -->
<!DOCTYPE svg PUBLIC "-//W3C//DTD SVG 1.1//EN" "http://www.w3.org/Graphics/SVG/1.1/DTD/svg11.dtd">
<svg version="1.1" id="Capa_1" xmlns="http://www.w3.org/2000/svg" xmlns:xlink="http://www.w3.org/1999/xlink" x="0px" y="0px"
	 width="64px" height="64px" viewBox="0 0 64 64" enable-background="new 0 0 64 64" xml:space="preserve">
<path d="M29.105,54.807C29.2,54.929,29.346,55,29.5,55s0.3-0.071,0.395-0.193l7-9C36.963,45.719,37,45.611,37,45.5v-29
	c0-0.093-0.032-0.175-0.077-0.25C36.968,16.175,37,16.093,37,16V8.5C37,8.224,36.776,8,36.5,8h-14C22.224,8,22,8.224,22,8.5V13
	c0,0.276,0.224,0.5,0.5,0.5S23,13.276,23,13V9h13v7H22.5c-0.276,0-0.5,0.224-0.5,0.5v29c0,0.111,0.037,0.219,0.105,0.307
	L29.105,54.807z M23,17h6v22c0,0.276,0.224,0.5,0.5,0.5S30,39.276,30,39V17h6v28.329l-6.5,8.357L23.522,46H29
	c0.276,0,0.5-0.224,0.5-0.5S29.276,45,29,45h-6V17z"/>
</svg>
