<?xml version="1.0" encoding="utf-8"?>
<!-- Generator: Adobe Illustrator 17.0.0, SVG Export Plug-In . SVG Version: 6.00 Build 0)  -->
<!DOCTYPE svg PUBLIC "-//W3C//DTD SVG 1.1//EN" "http://www.w3.org/Graphics/SVG/1.1/DTD/svg11.dtd">
<svg version="1.1" id="Capa_1" xmlns="http://www.w3.org/2000/svg" xmlns:xlink="http://www.w3.org/1999/xlink" x="0px" y="0px"
	 width="64px" height="64px" viewBox="0 0 64 64" enable-background="new 0 0 64 64" xml:space="preserve">
<path d="M44.789,5.983l-7.071,7.071L17.769,33.004L9.813,53.687l20.683-7.955l21.363-21.363l0,0l5.657-5.657L44.789,5.983z
	 M13.296,50.204l1.782-4.635l2.852,2.852L13.296,50.204z M29.382,44.017l-9.41,3.619l-4.109-4.109l3.142-8.172l4.569,4.569
	l1.414-1.414l-4.95-4.95l13.436-13.435l3.535,3.536l1.414-1.414l-3.535-3.536l1.414-1.414l3.536,3.536l1.414-1.414l-3.535-3.536
	l1.414-1.414l6.364,6.364L27.818,38.511l1.414,1.414L46.91,22.247l2.121,2.121L29.382,44.017z M50.445,22.954l-9.899-9.899
	l4.243-4.243l9.899,9.899L50.445,22.954z"/>
</svg>
