<?xml version="1.0" encoding="utf-8"?>
<!-- Generator: Adobe Illustrator 17.0.0, SVG Export Plug-In . SVG Version: 6.00 Build 0)  -->
<!DOCTYPE svg PUBLIC "-//W3C//DTD SVG 1.1//EN" "http://www.w3.org/Graphics/SVG/1.1/DTD/svg11.dtd">
<svg version="1.1" id="Capa_1" xmlns="http://www.w3.org/2000/svg" xmlns:xlink="http://www.w3.org/1999/xlink" x="0px" y="0px"
	 width="64px" height="64px" viewBox="0 0 64 64" enable-background="new 0 0 64 64" xml:space="preserve">
<path d="M13.762,26.99l17.678,17.678l12.728-12.728L26.49,14.262l-0.707-0.707l-0.042,0.042c-3.534-2.829-8.704-2.61-11.979,0.666
	s-3.495,8.446-0.666,11.979l-0.042,0.042L13.762,26.99z M24.504,24.651c-1.074,1.074-2.815,1.074-3.889,0
	c-1.074-1.074-1.074-2.815,0-3.889c1.074-1.074,2.815-1.074,3.889,0C25.578,21.835,25.578,23.577,24.504,24.651z"/>
<polygon points="46.289,34.061 33.561,46.789 51.238,51.738 "/>
</svg>
