<?xml version="1.0" encoding="utf-8"?>
<!-- Generator: Adobe Illustrator 17.0.0, SVG Export Plug-In . SVG Version: 6.00 Build 0)  -->
<!DOCTYPE svg PUBLIC "-//W3C//DTD SVG 1.1//EN" "http://www.w3.org/Graphics/SVG/1.1/DTD/svg11.dtd">
<svg version="1.1" id="Capa_1" xmlns="http://www.w3.org/2000/svg" xmlns:xlink="http://www.w3.org/1999/xlink" x="0px" y="0px"
	 width="64px" height="64px" viewBox="0 0 64 64" enable-background="new 0 0 64 64" xml:space="preserve">
<path d="M23.076,13.016c-2.953-1.617-6.237-1.576-8.186,0.373c-1.939,1.939-1.991,5.196-0.402,8.136
	C17.348,20.927,22.157,19.026,23.076,13.016z"/>
<path d="M43.569,48.798L54.11,52.61l-3.77-10.424C48.938,45.806,46.12,47.754,43.569,48.798z"/>
<path d="M49.113,38.794l-0.212-0.585L25.614,14.922c-0.229-0.229-0.465-0.443-0.705-0.647c-0.464,2.181-1.389,3.871-2.535,5.184
	l24.522,24.523C47.976,42.717,48.812,41.036,49.113,38.794z"/>
<path d="M15.777,23.411c0.203,0.24,0.417,0.475,0.645,0.703l23.287,23.287l0.499,0.181c1.434-0.271,3.462-0.876,5.234-2.225
	L20.928,20.842C19.249,22.192,17.356,22.968,15.777,23.411z"/>
</svg>
