<?xml version="1.0" encoding="utf-8"?>
<!-- Generator: Adobe Illustrator 17.0.0, SVG Export Plug-In . SVG Version: 6.00 Build 0)  -->
<!DOCTYPE svg PUBLIC "-//W3C//DTD SVG 1.1//EN" "http://www.w3.org/Graphics/SVG/1.1/DTD/svg11.dtd">
<svg version="1.1" id="Capa_1" xmlns="http://www.w3.org/2000/svg" xmlns:xlink="http://www.w3.org/1999/xlink" x="0px" y="0px"
	 width="64px" height="64px" viewBox="0 0 64 64" enable-background="new 0 0 64 64" xml:space="preserve">
<path d="M7.479,59.908l0.813-3.247l-2.242-0.885L4.51,58.314c0,0,0.849,2.303-0.094,4.144C4.417,62.458,5.597,60.448,7.479,59.908z
	 M5.973,58.418c0.276-0.113,0.594,0.016,0.708,0.287c0.115,0.271-0.016,0.583-0.292,0.696s-0.594-0.016-0.708-0.287
	C5.565,58.842,5.696,58.53,5.973,58.418z"/>
<path d="M31,22.247c-6.456,5.295-14.908,16.202-22.076,28.943l-0.004-0.005l-1.253,2.211l1.336,0.514l0.706-1.86
	c3.824-6.893,14.198-24.894,33.167-36.854c0,0,7.062-4.206,14.02-10.023c-1.694,1.416-5.036,3.191-6.848,4.336
	C45.292,12.514,39.423,15.338,31,22.247z"/>
<path d="M7.99,41.137c-1.468,5.189-1.384,9.141-0.816,10.227h0.888c2.452-5.079,14.262-23.477,21.613-29.236
	c7.616-5.967,13.491-9.439,18.432-11.971c1.735-0.889,3.515-2.093,5.12-3.3c1.949-1.537,3.925-3.181,5.655-4.79l-5.015,3.289
	l2.236-3.42l-4.269,4.341l2.778-4.736C48.04,2.134,41.941,5.422,41.941,5.422c-2.44,2.894-4.405,7.498-4.405,7.498
	c-0.068-2.302,1.491-5.788,1.491-5.788c-1.152,0.526-5.529,3.026-5.529,3.026c-2.141,1.776-2.806,6.446-2.806,6.446
	c-0.407-1.842,1.016-5.393,1.016-5.393c-6.167,3.552-10.572,9.603-10.572,9.603c-3.049,5.985-0.542,10.655-1.491,9.537
	c-0.949-1.118-0.745-5.196-0.745-5.196c-6.438,6.183-7.115,9.142-7.115,9.142c-1.084,2.631-2.033,9.669-2.033,9.669
	c-0.61-0.658,0-4.341,0-4.341c-1.559,3.289-0.813,6.38-0.813,6.38C8.194,45.741,7.99,41.137,7.99,41.137z"/>
<path d="M58.883,4.15c0,0-2.479,2.402-5.655,4.79c-4.979,3.927-9.773,7.137-9.773,7.137C24.674,27.175,14.209,45.286,10.75,51.496
	h1.839c0.65-0.521,1.626-0.914,5.702-2.094c5.15-1.491,8.222-4.604,8.222-4.604s-4.698,2.631-6.912,2.368
	c-2.214-0.263-5.189,0.57-5.189,0.57s-1.136-0.526,4.466-1.359c5.602-0.833,14.818-7.103,14.818-7.103s-3.524,1.447-5.15,1.315
	c-1.626-0.132-5.647,0-5.647,0c2.665-0.614,5.15-0.263,9.216-1.798c4.066-1.535,3.84-1.403,3.84-1.403
	c4.608-1.535,6.522-6.314,6.522-6.314c-0.797,0.307-6.884,1.052-9.409,0.307c-2.525-0.745-6.827,0-6.827,0
	c4.066-1.359,4.97-0.745,5.963-0.789c0.994-0.044,4.202,0.219,10.572-1.973c6.37-2.192,8.177-4.911,8.177-4.911l-4.296,0.574
	c2.805-0.472,5.967-2.328,5.967-2.328c-1.943,0.526-4.97,0.789-4.97,0.789c3.569-0.789,5.557-1.885,5.557-1.885
	c3.343-2.543,4.111-6.314,4.111-6.314c-4.744,1.622-8.493,0.877-8.493,0.877c6.506-0.438,8.313-2.105,9.216-2.499
	c0.904-0.395,1.276-2.028,1.276-2.028c-3.287,1.184-7.014,1.381-7.014,1.381c4.032-0.625,7.487-2.664,7.487-2.664V7.57
	c-1.559,0.888-4.302,1.579-4.302,1.579l4.269-2.762C60.001,5.005,58.883,4.15,58.883,4.15z"/>
<polygon points="6.216,54.964 8.755,55.981 9.228,54.857 6.689,53.84 "/>
<path d="M34.435,54.024c-8.389,4.033-16.448,6.782-27.166,7.142c-1,0.034-1.005,1.034,0,1c9.588-0.322,17.566-2.383,25.26-5.989
	c8.571-4.018,16.443-7.385,27.179-8.529c0.99-0.106,0.569-1.069-0.414-0.964C49.786,47.698,42.061,50.358,34.435,54.024z"/>
</svg>
