<?xml version="1.0" encoding="utf-8"?>
<!-- Generator: Adobe Illustrator 17.0.0, SVG Export Plug-In . SVG Version: 6.00 Build 0)  -->
<!DOCTYPE svg PUBLIC "-//W3C//DTD SVG 1.1//EN" "http://www.w3.org/Graphics/SVG/1.1/DTD/svg11.dtd">
<svg version="1.1" id="Capa_1" xmlns="http://www.w3.org/2000/svg" xmlns:xlink="http://www.w3.org/1999/xlink" x="0px" y="0px"
	 width="64px" height="64px" viewBox="0 0 64 64" enable-background="new 0 0 64 64" xml:space="preserve">
<polygon points="11.72,12.654 30.79,32.754 34.064,26.816 25.477,18.229 15.811,8.563 "/>
<polygon points="10.003,14.372 5.912,18.463 15.577,28.128 24.165,36.716 30.103,33.441 "/>
<polygon points="26.073,38.624 27.819,40.37 41.471,47.958 43.385,46.043 32.076,35.314 "/>
<polygon points="37.719,30.471 35.972,28.724 32.662,34.728 43.391,46.037 45.306,44.122 "/>
<path d="M46.013,46.244l-2.422,2.422c0,0,1.458,0.916,3.257,2.046c1.799,1.13,2.341,0.588,1.211-1.211L46.013,46.244z"/>
</svg>
