<?xml version="1.0" encoding="utf-8"?>
<!-- Generator: Adobe Illustrator 17.0.0, SVG Export Plug-In . SVG Version: 6.00 Build 0)  -->
<!DOCTYPE svg PUBLIC "-//W3C//DTD SVG 1.1//EN" "http://www.w3.org/Graphics/SVG/1.1/DTD/svg11.dtd">
<svg version="1.1" id="Capa_1" xmlns="http://www.w3.org/2000/svg" xmlns:xlink="http://www.w3.org/1999/xlink" x="0px" y="0px"
	 width="64px" height="64px" viewBox="0 0 64 64" enable-background="new 0 0 64 64" xml:space="preserve">
<path d="M13.835,29.666l15.91,15.91c2.343,2.344,6.579,4.5,9.852,5.017l4.249,0.671c0.352,0.056,0.705,0.084,1.049,0.084
	c1.681,0,3.169-0.657,4.188-1.85c1.054-1.234,1.48-2.893,1.199-4.671l-0.671-4.248c-0.517-3.273-2.673-7.509-5.017-9.852
	l-15.91-15.91l-0.018,0.018c-4.116-3.744-10.503-3.64-14.478,0.335c-3.975,3.974-4.079,10.362-0.336,14.477L13.835,29.666z
	 M44.673,41.359l0.671,4.248c0.06,0.38-0.011,0.583-0.062,0.643c-0.054,0.063-0.326,0.128-0.656,0.076l-4.249-0.671
	c-2.203-0.348-5.519-2.037-7.097-3.614L20.907,29.666l7.778-7.778L41.06,34.262C42.636,35.839,44.325,39.155,44.673,41.359z
	 M16.114,22.595c0-1.469,0.572-2.851,1.611-3.89c2.023-2.023,5.231-2.112,7.389-0.318l-7.708,7.708
	C16.584,25.11,16.114,23.894,16.114,22.595z"/>
</svg>
