<?xml version="1.0" encoding="utf-8"?>
<!-- Generator: Adobe Illustrator 17.0.0, SVG Export Plug-In . SVG Version: 6.00 Build 0)  -->
<!DOCTYPE svg PUBLIC "-//W3C//DTD SVG 1.1//EN" "http://www.w3.org/Graphics/SVG/1.1/DTD/svg11.dtd">
<svg version="1.1" id="Capa_1" xmlns="http://www.w3.org/2000/svg" xmlns:xlink="http://www.w3.org/1999/xlink" x="0px" y="0px"
	 width="64px" height="64px" viewBox="0 0 64 64" enable-background="new 0 0 64 64" xml:space="preserve">
<polygon points="49.174,44.61 46.11,47.674 52.592,51.092 "/>
<polygon points="28.904,15.383 16.883,27.404 31.025,41.546 44.124,46.832 48.332,42.624 43.046,29.525 "/>
<path d="M14.408,12.908c-3.319,3.319-2.845,9.176,1.061,13.081L27.49,13.969C23.584,10.063,17.728,9.589,14.408,12.908z"/>
<path d="M40.027,50.632c-1.201-0.026-2.442-0.081-3.704-0.085c-1.261-0.011-2.542-0.023-3.824-0.034
	c-1.281,0.011-2.562,0.022-3.824,0.033c-1.261,0-2.502,0.059-3.704,0.084c-2.402,0.069-4.645,0.175-6.566,0.303
	C14.562,51.168,12,51.5,12,51.5s2.562,0.332,6.406,0.567c1.922,0.128,4.164,0.234,6.566,0.303c1.201,0.025,2.442,0.084,3.704,0.084
	c1.261,0.011,2.542,0.022,3.824,0.033c1.281-0.012,2.562-0.023,3.824-0.034c1.261-0.004,2.502-0.059,3.704-0.085
	c2.402-0.07,4.645-0.176,6.566-0.303C50.438,51.83,53,51.5,53,51.5s-2.562-0.33-6.406-0.565
	C44.672,50.808,42.43,50.703,40.027,50.632z"/>
</svg>
