<?xml version="1.0" encoding="utf-8"?>
<!-- Generator: Adobe Illustrator 17.0.0, SVG Export Plug-In . SVG Version: 6.00 Build 0)  -->
<!DOCTYPE svg PUBLIC "-//W3C//DTD SVG 1.1//EN" "http://www.w3.org/Graphics/SVG/1.1/DTD/svg11.dtd">
<svg version="1.1" id="Capa_1" xmlns="http://www.w3.org/2000/svg" xmlns:xlink="http://www.w3.org/1999/xlink" x="0px" y="0px"
	 width="64px" height="64px" viewBox="0 0 64 64" enable-background="new 0 0 64 64" xml:space="preserve">
<path d="M17,36.478c0,0.103,0.032,0.204,0.091,0.288l13.5,19.189c0.094,0.133,0.247,0.212,0.409,0.212s0.315-0.079,0.409-0.212
	l13.5-19.189C44.968,36.681,45,36.581,45,36.478V36v-1V23v-1v-8.44V13.5c0-0.007-0.004-0.013-0.004-0.019
	C44.954,10.401,42.494,8,39.357,8H22.641c-3.071,0-5.572,2.449-5.637,5.482c0,0.006-0.004,0.012-0.004,0.018v0.054
	c0,0.016-0.002,0.032-0.002,0.048c0,0.004,0.002,0.008,0.002,0.012V36.478z M31,54.797L27.625,50h6.75L31,54.797z M44,36.319
	l-8.931,12.695C35.045,49.011,35.024,49,35,49h-8c-0.024,0-0.045,0.011-0.069,0.014L18,36.319V36h26V36.319z M44,35H18V23h26V35z
	 M18,22v-8h26v8H18z M22.641,9h16.716c2.408,0,4.311,1.72,4.587,4H18.059C18.36,10.749,20.288,9,22.641,9z"/>
</svg>
