<?xml version="1.0" encoding="utf-8"?>
<!-- Generator: Adobe Illustrator 17.0.0, SVG Export Plug-In . SVG Version: 6.00 Build 0)  -->
<!DOCTYPE svg PUBLIC "-//W3C//DTD SVG 1.1//EN" "http://www.w3.org/Graphics/SVG/1.1/DTD/svg11.dtd">
<svg version="1.1" id="Capa_1" xmlns="http://www.w3.org/2000/svg" xmlns:xlink="http://www.w3.org/1999/xlink" x="0px" y="0px"
	 width="64px" height="64px" viewBox="0 0 64 64" enable-background="new 0 0 64 64" xml:space="preserve">
<path d="M60.884,21.13c-1.785-3.042-3.262-2.968-3.79-2.812l0-0.001l-0.003,0.002c-0.133,0.04-0.208,0.084-0.208,0.084l0.017,0.028
	l-46.426,27.25c1.095,0.244,2.384,1.342,3.362,3.01c0.605,1.031,1.012,2.129,1.144,3.09c0.085,0.621,0.041,1.088-0.065,1.445
	l46.611-27.359l-0.034-0.058C61.885,25.425,62.67,24.172,60.884,21.13z"/>
<path d="M3.097,26.16l0.457,0.149l0.001,0l14.143,4.606c-0.068-0.244-0.119-0.511-0.146-0.806c-0.099-1.061,0.073-2.362,0.484-3.664
	c0.48-1.52,1.313-3.036,2.257-3.892l-7.199-2.344l0.512-1.404l16.212,5.538c0.577,0.197,1.177-0.03,1.34-0.506l0.065-0.189
	c0.163-0.477-0.173-1.023-0.75-1.221l-23.156-7.91c-0.577-0.197-1.177,0.03-1.34,0.506l-0.065,0.189
	c-0.163,0.477,0.173,1.023,0.75,1.221l3.597,1.229l-0.529,1.452l-3.464-1.128l-0.001,0l-0.456-0.149l-0.026,0.079
	c-0.79-0.022-2.375,0.352-3.374,3.417c-0.998,3.065,0.062,4.301,0.714,4.749L3.097,26.16z"/>
<path d="M21.855,22.978c-0.003,0-0.006,0-0.009,0c-0.045,0-0.1,0.022-0.15,0.033c-0.711,0.166-1.876,1.486-2.597,3.77
	c-0.367,1.163-0.522,2.309-0.437,3.224c0.066,0.707,0.286,1.22,0.561,1.307c0.494,0.158,1.551-0.785,2.346-2.67
	c0.127-0.3,0.248-0.62,0.358-0.967c0.081-0.258,0.149-0.518,0.211-0.778c0.214-0.907,0.308-1.802,0.251-2.54
	c-0.048-0.627-0.195-1.034-0.357-1.236C21.974,23.047,21.914,22.996,21.855,22.978z"/>
<path d="M12.063,53.985l0.059-0.035l0.674-0.396l0.771-0.452l-0.032-0.055c0,0,0,0,0,0c0.084-0.049,0.225-0.379,0.127-1.085
	c-0.047-0.339-0.148-0.712-0.28-1.094c-0.173-0.498-0.404-1.012-0.693-1.505c-0.317-0.54-0.648-0.974-0.97-1.328
	c-0.679-0.747-1.311-1.104-1.645-1.104c-0.074,0-0.105,0.018-0.115,0.024l-0.026-0.045l-0.805,0.472l-0.671,0.394L8.38,47.822
	l-5.429,7.349l7.9-1.009c-0.029-0.551-0.127-1.09-0.295-1.61c-0.201-0.622-0.498-1.219-0.895-1.781
	c-0.196-0.277-0.108-0.541,0.084-0.712c0.175-0.155,0.434-0.222,0.67-0.14c0.115,0.04,0.226,0.105,0.312,0.226
	c0.346,0.489,0.615,1.004,0.826,1.534c0.172,0.431,0.303,0.873,0.39,1.325c0.057,0.299,0.094,0.602,0.116,0.907
	C12.06,53.937,12.062,53.961,12.063,53.985z"/>
</svg>
