<?xml version="1.0" encoding="utf-8"?>
<!-- Generator: Adobe Illustrator 16.0.4, SVG Export Plug-In . SVG Version: 6.00 Build 0)  -->
<!DOCTYPE svg PUBLIC "-//W3C//DTD SVG 1.1//EN" "http://www.w3.org/Graphics/SVG/1.1/DTD/svg11.dtd">
<svg version="1.1" id="Capa_1" xmlns="http://www.w3.org/2000/svg" xmlns:xlink="http://www.w3.org/1999/xlink" x="0px" y="0px"
	 width="64px" height="64px" viewBox="0 0 64 64" enable-background="new 0 0 64 64" xml:space="preserve">
<g>
	<circle fill="#0E0F0F" cx="31.954" cy="8.441" r="7.441"/>
	<path fill="#0E0F0F" d="M24.782,35.918v2.389c0,0.066,0.008,0.133,0.01,0.201v21.654c0,1.439,1.167,2.607,2.607,2.607
		c1.441,0,2.608-1.168,2.608-2.607V45.639c0,0,0.022-0.299,0.022-0.539C30.03,40.398,26.488,36.805,24.782,35.918z"/>
	<path fill="#0E0F0F" d="M33.833,45.1c0,0.24-0.032,0.121-0.032,0.564v14.498c0,1.439,1.168,2.607,2.607,2.607
		c1.441,0,2.607-1.168,2.607-2.607c0,0,0.108-22.314,0.108-22.727v-1.16C37.245,37.578,33.833,41.605,33.833,45.1z"/>
	<path fill="#0E0F0F" d="M38.596,35.352H25.61c1.875,1.14,5.063,3.541,5.238,7.877h2.306C33.396,39.461,36.664,36.66,38.596,35.352z
		"/>
	<path fill="#0E0F0F" d="M49.965,32.547c-4.006-4.005-13.345-13.62-14.23-14.172c-0.489-0.397-1.008-0.638-1.528-0.72
		c-0.709-0.234-1.464-0.367-2.251-0.367c-0.867,0-1.694,0.163-2.463,0.445c-0.326,0.086-0.65,0.216-0.963,0.426
		c-1.121,0.611-10.566,10.46-14.492,14.387c-3.174,3.175,1.744,8.09,4.917,4.916c1.944-1.942,3.887-3.887,5.831-5.83v2.937h14.343
		v-3.027c1.976,1.973,3.947,3.945,5.922,5.921C48.221,40.637,53.139,35.721,49.965,32.547z"/>
</g>
</svg>
