<?xml version="1.0" encoding="utf-8"?>
<!-- Generator: Adobe Illustrator 16.0.0, SVG Export Plug-In . SVG Version: 6.00 Build 0)  -->
<!DOCTYPE svg PUBLIC "-//W3C//DTD SVG 1.1//EN" "http://www.w3.org/Graphics/SVG/1.1/DTD/svg11.dtd">
<svg version="1.1" id="Capa_1" xmlns="http://www.w3.org/2000/svg" xmlns:xlink="http://www.w3.org/1999/xlink" x="0px" y="0px"
	 width="64px" height="64px" viewBox="0 0 64 64" enable-background="new 0 0 64 64" xml:space="preserve">
<g>
	<path d="M35.004,11.911c3.001,0.35,5.715-1.832,6.056-4.867c0.34-3.037-1.813-5.78-4.818-6.127
		c-2.997-0.347-5.712,1.833-6.055,4.869C29.846,8.822,32.001,11.564,35.004,11.911z"/>
	<path d="M26.94,27.808l4.751-11.555l0.271,0.589c0.076,0.168,0.231,0.286,0.413,0.317c0.027,0.006,0.058,0.007,0.088,0.007
		c0.151,0,0.296-0.062,0.4-0.173l1.307-1.384c0.148-0.158,0.19-0.39,0.111-0.592c-0.076-0.205-0.271-0.343-0.482-0.353l-1.619-0.086
		l-0.859-2.406c-0.074-0.213-0.273-0.36-0.499-0.369c-0.219-0.021-0.43,0.119-0.523,0.324l-1.671,3.672
		c-0.09,0.203-0.056,0.442,0.093,0.609c0.107,0.119,0.258,0.184,0.41,0.184c0.061,0,0.121-0.01,0.178-0.03l1.575-0.851l-6.03,11.522
		L26.94,27.808z"/>
	<path d="M46.282,23.398c-2.276,0.17-4.554,0.34-6.83,0.512c-0.934-2.378-1.969-5.574-2.845-7.179
		c-0.707-1.295-1.485-1.078-1.976-0.223c-1.803,3.142-6.6,12.9-6.6,12.9l-5.013-1.358l6.359-15.85
		c-0.306-0.083-1.04-0.514-2.362-0.071L8.902,16.373c-1.334,0.311-2.165,1.66-1.856,3.009c0.308,1.35,1.642,2.192,2.976,1.877
		l11.923-2.792c-1.729,3.111-3.396,6.261-5.008,9.435c0,0-8.631,14.242-7.318,14.826c1.312,0.582,7.024-5.915,7.024-5.915v22.81
		c0,1.87,1.5,3.387,3.349,3.387c1.85,0,3.348-1.517,3.348-3.387c0,0-1.222-16.088,3.485-25.847c4.706-9.765,6.54-12.479,6.54-12.479
		s1.768,4.227,2.483,6.019c0.288,0.722,0.775,2.064,2.462,1.897c2.866-0.283,5.105-0.43,7.979-0.646
		C49.544,28.318,49.567,23.152,46.282,23.398z"/>
	<path d="M42.965,21.192c-0.386,0-0.699,0.313-0.699,0.699c0,0.387,0.313,0.7,0.699,0.7H56.32c0.386,0,0.699-0.313,0.699-0.7
		c0-0.386-0.313-0.699-0.699-0.699H42.965z"/>
	<path d="M47.661,20.127h3.963c0.342,0,0.623-0.268,0.64-0.608l0.287-5.778c0.009-0.175-0.055-0.346-0.176-0.473
		s-0.288-0.199-0.464-0.199h-4.537c-0.176,0-0.343,0.072-0.464,0.199s-0.185,0.298-0.176,0.473l0.287,5.778
		C47.038,19.86,47.319,20.127,47.661,20.127z M51.915,13.713l-0.056,1.095l-4.435-0.047l-0.055-1.048H51.915z"/>
</g>
</svg>
