<?xml version="1.0" encoding="iso-8859-1"?>
<!-- Generator: Adobe Illustrator 16.0.0, SVG Export Plug-In . SVG Version: 6.00 Build 0)  -->
<!DOCTYPE svg PUBLIC "-//W3C//DTD SVG 1.1//EN" "http://www.w3.org/Graphics/SVG/1.1/DTD/svg11.dtd">
<svg version="1.1" id="Capa_1" xmlns="http://www.w3.org/2000/svg" xmlns:xlink="http://www.w3.org/1999/xlink" x="0px" y="0px"
	 width="500px" height="500px" viewBox="0 0 500 500" style="enable-background:new 0 0 500 500;" xml:space="preserve">
<g>
	<path d="M478.148,361.802c-37.959-9.551-84.027-22.663-93.519-27.538c-5.333-4.303-33.054-37.242-33.054-37.242l-15.347-88.114
		c25.685,7.941,32.757,24.243,41.162,55.588c2.272,8.451,9.925,14.052,18.276,14.052c1.617,0,3.266-0.206,4.912-0.642
		c10.093-2.7,16.098-13.105,13.381-23.189c-23.296-104.037-133.777-88.719-134.029-88.704c-38.881,2.601-72.003-7.163-74.704-11.313
		c-2.979-4.302-14.967-23.599-16.798-58.872c-0.538-10.447-9.505-18.522-19.887-17.923c-2.422,0.126-4.695,0.736-6.797,1.682
		c6.992-7.422,11.343-17.351,11.343-28.347c0-22.919-18.567-41.495-41.487-41.495S90.129,28.318,90.129,51.238
		c0,22.908,18.568,41.472,41.472,41.472c8.288,0,15.958-2.479,22.435-6.675c-2.312,3.337-3.631,7.384-3.421,11.752
		c2.438,46.968,19.605,73.347,24.827,80.308c10.138,13.571,37.916,21.958,67.683,24.941c0.027,0.126,0.035,0.221,0.05,0.355
		l23.308,111.236c0,0-5.983,61.539-3.846,77.337c0.878,6.667,3.175,24.373,72.631,91.419c4.736,4.585,10.887,6.873,17.012,6.873
		c6.385,0,12.809-2.51,17.605-7.482c9.384-9.72,9.107-25.233-0.609-34.617c-24.037-23.252-58.183-64.406-58.183-64.406
		s1.297-27.585,3.594-48.761c0.146-2.03,3.688-3.218,5.202-1.373c3.866,5.012,28.554,35.502,37.958,41.657
		c14.646,9.565,74.181,25.409,108.354,33.991c2.007,0.521,4.021,0.766,5.996,0.766c10.938,0,20.917-7.4,23.717-18.53
		C499.232,378.386,491.284,365.066,478.148,361.802z"/>
	<path d="M284.028,158.326c26.333-5.649,43.123-31.574,37.471-57.892c-5.638-26.333-31.552-43.104-57.877-37.456
		c-26.354,5.649-43.12,31.566-37.479,57.873C231.787,147.184,257.702,163.963,284.028,158.326z"/>
	<g>
		<path d="M12.134,102.692l-8.803,0.13l28.266,119.766l71.669-0.086l24.109-119.881L12.134,102.692z M94.328,215.896l-2.571-5.005
			l-2.574,5.012l-7.159,0.008l6.156-11.986l-9.153-17.82l-9.152,17.82l6.16,11.994l-7.15,0.008l-2.586-5.036l-2.589,5.042
			l-7.159,0.009l6.171-12.017l-9.152-17.82l-9.153,17.82l6.176,12.024l-7.15,0.009l-2.602-5.066l-2.605,5.072l-1.398,0.002
			l-1.812-7.683l2.238-4.358l-6.037-11.755l-6.073-25.754l2.958,5.759l9.152-17.82l-9.152-17.821l-6.856,13.349L19,140.335
			l5.53-10.768l-10.403-20.255l7.152-0.004l6.828,13.294l6.833-13.303l11.79-0.008l6.836,13.311l6.842-13.32l11.772-0.008
			l6.845,13.328l6.851-13.337l11.754-0.008l6.854,13.345l6.859-13.354l7.157-0.005l-10.438,20.326l5.134,9.998l-2.013,10.011
			l-6.699-13.043l-9.152,17.821l9.152,17.82l3.541-6.894l-4.604,22.895l-8.088,15.749l3.536,6.886l-1.021,5.081L94.328,215.896z"/>
		<polygon points="53.567,136.533 44.416,154.354 53.567,172.174 62.72,154.354 		"/>
		<polygon points="31.687,179.139 40.837,196.959 49.992,179.139 40.837,161.318 		"/>
		<polygon points="57.146,179.139 66.296,196.959 75.451,179.139 66.296,161.318 		"/>
		<polygon points="79.026,136.533 69.875,154.354 79.026,172.174 88.181,154.354 		"/>
		<polygon points="91.755,161.318 82.604,179.139 91.755,196.959 100.91,179.139 		"/>
		<polygon points="100.91,129.568 91.755,111.748 82.604,129.568 91.755,147.388 		"/>
		<polygon points="49.992,129.568 40.837,111.748 31.687,129.568 40.837,147.388 		"/>
		<polygon points="75.451,129.568 66.296,111.748 57.146,129.568 66.296,147.388 		"/>
	</g>
</g>
</svg>
