<?xml version="1.0" encoding="utf-8"?>
<!-- Generator: Adobe Illustrator 16.0.4, SVG Export Plug-In . SVG Version: 6.00 Build 0)  -->
<!DOCTYPE svg PUBLIC "-//W3C//DTD SVG 1.1//EN" "http://www.w3.org/Graphics/SVG/1.1/DTD/svg11.dtd">
<svg version="1.1" id="Capa_1" xmlns="http://www.w3.org/2000/svg" xmlns:xlink="http://www.w3.org/1999/xlink" x="0px" y="0px"
	 width="64px" height="64px" viewBox="0 0 64 64" enable-background="new 0 0 64 64" xml:space="preserve">
<g>
	<path fill="#0F1011" d="M41.559,48.941c-0.914-4.498,1.508-9.045,2.229-13.569c1.211-1.407,1.725-3.423,0.656-5.53
		c-3.035-5.997-7.633-10.686-11.894-15.797c-4.063-4.875-10.966,2.158-6.93,7.003c1.225,1.469,2.466,2.889,3.677,4.317
		c0.119,2.76-0.061,5.496-1.39,7.749c-0.713,1.21-0.347,2.364,0.441,3.104l-0.895,2.439l-1.541-0.566l-6.899,18.099
		c0,0,1.424,4.516,5.241,1.922c1.217-3.23,6.898-18.098,6.898-18.098l-1.542-0.566l0.894-2.434c0.734-0.054,1.452-0.42,1.94-1.248
		c0.791-1.34,1.285-2.755,1.587-4.213c0.685,1.049,1.335,2.129,1.914,3.278c0.316,0.622,0.703,1.108,1.131,1.487
		c-0.809,4.283-2.723,8.287-2.092,12.832c0.459,3.306,1.42,6.55,2.537,9.688c1.408,3.961,7.752,2.254,6.33-1.745
		C42.907,54.434,42.12,51.71,41.559,48.941z"/>
	<path fill="#0F1011" d="M19.83,7.658c0.026,0.284,0.071,0.57,0.15,0.854c0.051,0.187,0.114,0.366,0.185,0.541l-1.425,1.175
		c-0.119,0.098-0.138,0.276-0.039,0.395c0.113,0.141,2.504,3.033,4.729,2.425c0.296-0.081,0.589-0.225,0.875-0.444
		c0.024-0.018,0.045-0.043,0.064-0.069l0.256-0.392c0.466,0.01,0.94-0.043,1.414-0.171c2.627-0.718,4.175-3.431,3.458-6.06
		c-0.718-2.628-3.429-4.176-6.058-3.459c-2.023,0.553-3.401,2.287-3.604,4.254l-2.566,0.701l0.241,0.883L19.83,7.658z
		 M23.987,12.086l-0.065,0.101c-0.76,0.56-1.634,0.415-2.428,0.02l0.683-0.783C22.728,11.758,23.342,11.986,23.987,12.086z
		 M21.711,11.1l-0.669,0.768c-0.017,0.02-0.03,0.037-0.041,0.058c-0.753-0.483-1.38-1.122-1.676-1.448l1.091-0.9
		C20.745,10.179,21.187,10.693,21.711,11.1z"/>
	<path fill="#0F1011" d="M17.413,29.958c-0.628,0-1.137,0.509-1.137,1.137v22.512c0,0.627,0.509,1.137,1.137,1.137
		s1.136-0.51,1.136-1.137V31.095C18.549,30.467,18.042,29.958,17.413,29.958z"/>
	<path fill="#0F1011" d="M23.056,31.095c0-0.628-0.508-1.137-1.136-1.137c-0.629,0-1.138,0.509-1.138,1.137v17.377l2.274-5.964
		V31.095z"/>
	<path fill="#0F1011" d="M27.547,31.29v-0.194c0-0.628-0.508-1.137-1.137-1.137s-1.137,0.509-1.137,1.137v5.595l0.113-0.297
		l1.522,0.561l0.011-0.025c-0.796-1.279-0.816-2.851,0.006-4.242C27.183,32.246,27.385,31.777,27.547,31.29z"/>
	<path fill="#0F1011" d="M21.539,29.352c0-0.336-0.271-0.606-0.605-0.606h-2.912c-0.337,0-0.608,0.271-0.608,0.606
		s0.271,0.607,0.608,0.607h2.912C21.268,29.958,21.539,29.687,21.539,29.352z"/>
	<path fill="#0F1011" d="M25.804,28.745h-2.913c-0.336,0-0.608,0.271-0.608,0.606s0.272,0.607,0.608,0.607h2.913
		c0.335,0,0.605-0.272,0.605-0.607C26.41,29.016,26.139,28.745,25.804,28.745z"/>
</g>
</svg>
