<?xml version="1.0" encoding="utf-8"?>
<!-- Generator: Adobe Illustrator 16.0.4, SVG Export Plug-In . SVG Version: 6.00 Build 0)  -->
<!DOCTYPE svg PUBLIC "-//W3C//DTD SVG 1.1//EN" "http://www.w3.org/Graphics/SVG/1.1/DTD/svg11.dtd">
<svg version="1.1" id="Capa_1" xmlns="http://www.w3.org/2000/svg" xmlns:xlink="http://www.w3.org/1999/xlink" x="0px" y="0px"
	 width="64px" height="64px" viewBox="0 0 64 64" enable-background="new 0 0 64 64" xml:space="preserve">
<g>
	<path fill="#0E0F0F" d="M44.773,34.805l-2.194-14.173c-0.272-1.753-1.916-3.23-3.67-2.958c0,0-11.435,0.012-13.251,0.012
		c-0.219,0-0.979-0.04-1.199-0.041c-1.333-0.003-2.566,0.915-2.504,2.201c0.128,2.627-0.033,10.252-0.015,10.408
		c-0.289,1.594,1.204,3.823,3.355,3.043c3.062-1.109,6.127-2.208,9.232-3.186c2.711-0.857,2.029-5.041-0.512-4.712l0.188-0.422
		c-0.283,0.353-0.729,0.568-1.213,0.537c-0.232-0.015-0.444-0.088-0.632-0.199c-0.2,0.084-0.421,0.131-0.649,0.116
		c-0.489-0.032-0.9-0.301-1.137-0.688l0.477,1.58c-2.117,0.717-4.329,1.494-4.329,1.494s-0.013-0.322-0.01-0.941l3.696-1.16
		l-0.22-0.899c-0.063-0.078-0.134-0.15-0.189-0.237c-0.231-0.376-0.341-0.808-0.312-1.247c0.055-0.826,0.568-1.521,1.302-1.824
		c0.229-0.656,0.866-1.133,1.604-1.133l0.112,0.002c0.451,0.029,0.865,0.232,1.165,0.574c0.212,0.242,0.349,0.53,0.397,0.836
		c0.627,0.413,0.992,1.126,0.941,1.9c-0.02,0.322-0.115,0.631-0.271,0.908c1.073,0.228,1.905,1.108,2.102,2.378
		c0.206,1.345-0.387,3.05-2.176,3.615c-0.965,0.303-1.924,0.621-2.879,0.944l-0.058,0.132l-0.032-0.102
		c-2.068,0.701-4.13,1.439-6.22,2.195c0.177,5.438,0.34,11.807,0.222,13.574c-0.217,3.227-0.44,6.566-0.654,9.211
		c-0.144,1.77,1.174,3.321,2.944,3.464c0.088,0.007,0.174,0.011,0.262,0.011c1.659,0,2.793-1.272,2.929-2.957
		c0.161-1.992,0.763-19.84,0.763-19.84c0.154,12.983,0.426,17.93,0.5,19.969c0.065,1.735,1.219,3.099,2.938,3.099
		c0.04,0,0.08-0.002,0.121-0.003c1.773-0.064,3.158-1.557,3.093-3.33c-0.099-2.671-0.2-5.964-0.302-9.258
		c-0.104-3.309-0.461-10.946-0.461-11.236v-8.892l1.052,8.219c0.245,1.588,1.448,2.724,3.009,2.724c0.164,0,0.328-0.015,0.495-0.039
		C44.338,38.2,45.045,36.559,44.773,34.805z"/>
	<path fill="#0E0F0F" d="M30.391,23.368c-0.02,0.31,0.06,0.601,0.211,0.846c0.238,0.386,0.65,0.655,1.136,0.686
		c0.231,0.015,0.451-0.031,0.651-0.114c0.188,0.11,0.399,0.183,0.632,0.198c0.484,0.031,0.93-0.184,1.215-0.536
		c0.18-0.224,0.297-0.502,0.314-0.812c0.043-0.652-0.357-1.224-0.939-1.439c0.005-0.023,0.017-0.042,0.019-0.066
		c0.037-0.561-0.387-1.043-0.948-1.081c-0.561-0.037-1.042,0.39-1.081,0.95c-0.001,0.013,0.005,0.024,0.005,0.037
		C30.955,22.139,30.436,22.681,30.391,23.368z"/>
	<path fill="#0E0F0F" d="M32.191,15.523c3.159,0,5.78-2.479,5.971-5.646l0.018-0.275c0.028-0.021,0.014-0.677,0.014-0.677
		c-0.318-3.02-2.87-5.374-5.976-5.374c-2.986,0-5.458,2.177-5.926,5.032l-0.017,0.005l-0.052,0.484
		c-0.019,0.147-0.037,0.293-0.037,0.444C26.185,12.83,28.878,15.523,32.191,15.523z M27.248,9.415
		c0.299,0.011,0.839,0.134,1.773,0.629c0.405,0.214,0.792,0.323,1.155,0.323c0,0,0,0,0.001,0c1.195,0,1.772-1.116,2.155-1.853
		c0.075-0.148,0.18-0.348,0.264-0.481c0.082,0.105,0.211,0.3,0.391,0.656c0.893,1.788,2.117,2.163,2.988,2.163
		c0.355,0,0.691-0.062,0.993-0.151c-0.528,2.17-2.481,3.764-4.776,3.764c-2.726,0-4.946-2.22-4.946-4.947
		C27.245,9.483,27.246,9.449,27.248,9.415z"/>
</g>
</svg>
