<?xml version="1.0" encoding="utf-8"?>
<!-- Generator: Adobe Illustrator 16.0.4, SVG Export Plug-In . SVG Version: 6.00 Build 0)  -->
<!DOCTYPE svg PUBLIC "-//W3C//DTD SVG 1.1//EN" "http://www.w3.org/Graphics/SVG/1.1/DTD/svg11.dtd">
<svg version="1.1" id="Capa_1" xmlns="http://www.w3.org/2000/svg" xmlns:xlink="http://www.w3.org/1999/xlink" x="0px" y="0px"
	 width="64px" height="64px" viewBox="0 0 64 64" enable-background="new 0 0 64 64" xml:space="preserve">
<g>
	<path fill="#0E0F0F" d="M22.72,53.781c-0.887,1.513-0.838,3.377,0.68,4.498c1.298,0.96,3.611,0.835,4.499-0.68
		c1.835-3.131,5.164-5.488,5.164-5.488s-1.226-2.698-1.806-7.76C31.257,44.354,24.808,50.219,22.72,53.781z"/>
	<path fill="#0E0F0F" d="M33.471,16.449c3.096,0,5.604-2.509,5.604-5.605H27.866C27.866,13.939,30.375,16.449,33.471,16.449z"/>
	<path fill="#0E0F0F" d="M48.902,26.552c-3.77-3.352-7.81-6.362-12.23-8.78c-0.072-0.055-0.148-0.104-0.224-0.154l-1.253,4.832
		l-5.011-4.564c-0.429,0.391-0.773,0.851-1.025,1.364c-2.726,3.182-5.001,6.639-7.043,10.293c-0.314,0.562-0.445,1.114-0.437,1.633
		l-0.477-0.263l-1.168,2.122l-3.196-1.763l-4.916,8.916l12.145,6.695l4.915-8.912l-3.835-2.115l0.905-1.644
		c0.626-0.218,1.199-0.672,1.619-1.422c0.632-1.133,1.285-2.252,1.968-3.348c0.586,3.958,1.173,7.921,1.759,11.881
		c0.119,0.803,0.499,1.491,1.034,2.054c0.854,5.639,2.419,11.201,4.89,16.314c1.802,3.734,7.349,0.47,5.554-3.246
		c-1.847-3.823-3.079-8.055-3.837-12.323c1.669-1.163,2.275-3.254,1.962-5.373c-0.579-3.91-1.159-7.823-1.737-11.733
		c1.758,1.269,3.454,2.631,5.09,4.086C47.441,33.848,52.008,29.314,48.902,26.552z M24.295,35.383l-3.409-1.879l0.699-1.27
		l0.429,0.236c0.544,1.053,1.68,1.792,2.845,1.887L24.295,35.383z M34.214,25.81c0.001-0.588,0.476-1.063,1.063-1.063
		s1.062,0.475,1.062,1.063c0,0.586-0.477,1.063-1.062,1.063C34.689,26.873,34.214,26.396,34.214,25.81z M36.047,30.913
		c-0.587,0-1.062-0.475-1.062-1.063c0-0.586,0.477-1.063,1.062-1.063c0.59-0.001,1.062,0.476,1.062,1.063
		C37.109,30.438,36.635,30.913,36.047,30.913z"/>
	<path fill="#0E0F0F" d="M37.004,4.553c0,0-0.176-2.063-1.816-2.063c-0.426,0-0.809,0.258-1.074,0.669
		c-0.004,0.001-0.797,0.698-1.494,0c-0.016-0.016-0.032-0.03-0.049-0.044C32.304,2.73,31.933,2.49,31.521,2.49
		c-1.641,0-1.817,2.063-1.817,2.063l-0.211,2.661h7.722L37.004,4.553z"/>
	<path fill="#0E0F0F" d="M25.058,9.842H41.65c0.307,0,0.554-0.248,0.554-0.554l-4.815-1.395h-8.036l-4.847,1.395
		C24.505,9.595,24.753,9.842,25.058,9.842z"/>
</g>
</svg>
