<?xml version="1.0" encoding="utf-8"?>
<!-- Generator: Adobe Illustrator 16.0.0, SVG Export Plug-In . SVG Version: 6.00 Build 0)  -->
<!DOCTYPE svg PUBLIC "-//W3C//DTD SVG 1.1//EN" "http://www.w3.org/Graphics/SVG/1.1/DTD/svg11.dtd">
<svg version="1.1" id="Capa_1" xmlns="http://www.w3.org/2000/svg" xmlns:xlink="http://www.w3.org/1999/xlink" x="0px" y="0px"
	 width="64px" height="64px" viewBox="0 0 64 64" enable-background="new 0 0 64 64" xml:space="preserve">
<g>
	<circle cx="50.785" cy="9.443" r="4.564"/>
	<path d="M63.803,28.383c-1.513-4.245-4.094-9.872-5.896-12.086c-0.921-1.246-4.565-1.23-4.79-1.294l-2.434,5.207l0.623-4.467H51.4
		v-0.74h-1.84v0.74h0.089l0.528,4.462l-2.432-5c0,0-2.811-0.699-4.128,0.393c-0.726,0.542-1.385,1.15-2.091,1.653
		c0.309-1.122,0.824-2.182,1.554-3.057c0.991-1.195,0.633-2.655-0.225-3.514l2.113,0.424V6.388l-6.058,0.91v1.167H25.044V7.298
		l-6.058-0.91v4.716l2.113-0.424c-0.856,0.859-1.216,2.319-0.224,3.514c0.729,0.875,1.244,1.935,1.553,3.057
		c-0.706-0.503-1.365-1.111-2.09-1.653c-1.317-1.092-4.127-0.393-4.127-0.393l-2.432,5l0.528-4.462h0.089v-0.74h-1.84v0.74h0.095
		l0.623,4.467l-2.434-5.207c-0.224,0.064-3.869,0.048-4.79,1.294c-1.803,2.215-4.384,7.842-5.896,12.086
		c-1.052,2.951,3.631,4.211,4.674,1.288c0.637-1.785,1.348-3.529,2.153-5.226L6.946,38.791L5.733,56.332
		c0,1.442,1.057,2.611,2.538,2.611c1.485,0,2.686-1.169,2.686-2.611l1.211-18.276c0,0,0.086-0.927,1.03-0.936
		c0.945-0.011,0.919,0.892,0.919,0.892l0.606,18.27c0,1.44,1.202,2.611,2.685,2.611c1.482,0,2.685-1.171,2.685-2.611l-0.519-18.854
		c0-0.179,0.006-16.391,0.006-16.391c1.652,1.182,3.227,2.035,5.595,2.105c1.401,0.042,2.313-1.14,2.421-2.422
		c0.298-3.583-1.027-7.228-3.294-9.951c-0.222-0.27-0.463-0.452-0.71-0.585l1.454-0.291V9.072H38.91v0.821l1.453,0.291
		c-0.247,0.133-0.487,0.316-0.71,0.585c-2.267,2.723-3.591,6.368-3.293,9.951c0.107,1.283,1.021,2.464,2.421,2.422
		c2.368-0.07,3.942-0.924,5.595-2.105c0,0,0.006,16.212,0.006,16.391l-0.519,18.854c0,1.44,1.202,2.611,2.685,2.611
		c1.483,0,2.686-1.171,2.686-2.611l0.606-18.27c0,0-0.025-0.902,0.919-0.892c0.943,0.009,1.029,0.936,1.029,0.936L53,56.332
		c0,1.442,1.2,2.611,2.686,2.611c1.481,0,2.537-1.169,2.537-2.611l-1.212-17.541l-0.035-14.346c0.805,1.697,1.516,3.441,2.152,5.226
		C60.172,32.595,64.855,31.334,63.803,28.383z M13.513,26.717l-0.962-1.73l0.959-3.834l0.976,3.78L13.513,26.717z M50.442,26.717
		l-0.973-1.784l0.977-3.78l0.959,3.834L50.442,26.717z"/>
	<circle cx="13.171" cy="9.443" r="4.564"/>
</g>
</svg>
