<?xml version="1.0" encoding="utf-8"?>
<!-- Generator: Adobe Illustrator 16.0.4, SVG Export Plug-In . SVG Version: 6.00 Build 0)  -->
<!DOCTYPE svg PUBLIC "-//W3C//DTD SVG 1.1//EN" "http://www.w3.org/Graphics/SVG/1.1/DTD/svg11.dtd">
<svg version="1.1" id="Capa_1" xmlns="http://www.w3.org/2000/svg" xmlns:xlink="http://www.w3.org/1999/xlink" x="0px" y="0px"
	 width="64px" height="64px" viewBox="0 0 64 64" enable-background="new 0 0 64 64" xml:space="preserve">
<path fill="#0E0F0F" d="M32.85,7.013l4.023,1.077l-0.177,0.662l-4.023-1.078L32.85,7.013z M45.125,2.271l0.574,0.372l-2.258,3.494
	l-0.574-0.371L45.125,2.271z M40.735,1.109l0.24,4.155l-0.683,0.04l-0.239-4.155L40.735,1.109z M28.003,10.647
	c2.501,0,4.529,2.028,4.529,4.529c0,2.501-2.028,4.529-4.529,4.529c-2.501,0-4.529-2.028-4.529-4.529
	C23.474,12.675,25.502,10.647,28.003,10.647z M35.837,2.782l2.624,3.228l-0.53,0.431l-2.624-3.228L35.837,2.782z M40.975,7.116
	c-1.578,0-2.861,1.394-2.861,3.105c0,1.247,0.699,2.951,1.768,3.692c-0.07,0.096-0.115,0.208-0.115,0.33v1.799
	c0,0.345,0.344,0.625,0.768,0.625h0.894c0.425,0,0.769-0.28,0.769-0.625v-1.799c0-0.122-0.045-0.234-0.117-0.33
	c1.064-0.741,1.768-2.445,1.768-3.692C43.836,8.509,42.551,7.116,40.975,7.116z M41.73,13.673c-0.098-0.034-0.199-0.055-0.312-0.055
	h-0.896c-0.107,0-0.215,0.021-0.311,0.055c-0.997-0.604-1.721-2.28-1.721-3.452c0-1.5,1.111-2.722,2.479-2.722
	c1.365,0,2.479,1.222,2.479,2.722C43.452,11.394,42.729,13.069,41.73,13.673z M44.676,7.647l3.881-1.516l0.249,0.637l-3.88,1.516
	L44.676,7.647z M27.087,21.145l0.409,0.064l0.161,3.604l0.614-3.518l0.438,0.047l0.402-0.666l-2.215-0.197L27.087,21.145z
	 M33.898,21.66c-0.112-0.114-0.234-0.212-0.363-0.296c-0.414-0.348-1.023-0.524-1.95-0.477l-3.934,4.365l-2.869-5.035
	c-1.353-0.229-2.381-0.42-2.381-0.42l-3.253-0.653l3.1-8.292c0.418-1.158-0.183-2.437-1.341-2.856
	c-1.162-0.417-2.44,0.185-2.855,1.344L14.13,19.908c-0.21,0.587-0.167,1.235,0.122,1.788c0.288,0.552,0.793,0.958,1.396,1.122
	l5.693,1.54l-0.015,36.332c0,1.49,1.293,2.696,2.825,2.696c1.533,0,2.6-1.206,2.6-2.696l0.021-18.879c0,0,0.09-0.959,1.063-0.97
	c0.977-0.01,0.951,0.921,0.951,0.921l0.015,18.875c0,1.49,1.219,2.699,2.751,2.699c1.531,0,2.788-1.209,2.788-2.699
	c-0.039-27.087,0.059-27.087,0.041-32.138l5.639,5.714c0.438,0.441,1.014,0.662,1.586,0.662c0.566,0,1.137-0.214,1.567-0.641
	c0.878-0.866,0.886-2.44,0.021-3.317L33.898,21.66z M27.685,33.341c-0.437,0-0.788-0.354-0.788-0.789c0-0.438,0.352-0.79,0.788-0.79
	s0.789,0.352,0.789,0.79C28.474,32.986,28.121,33.341,27.685,33.341z M27.685,30.677c-0.437,0-0.788-0.354-0.788-0.789
	c0-0.437,0.352-0.789,0.788-0.789s0.789,0.352,0.789,0.789C28.474,30.323,28.121,30.677,27.685,30.677z M27.685,28.408
	c-0.437,0-0.788-0.354-0.788-0.789c0-0.436,0.352-0.791,0.788-0.791s0.789,0.354,0.789,0.791
	C28.474,28.054,28.121,28.408,27.685,28.408z"/>
</svg>
