<?xml version="1.0" encoding="iso-8859-1"?>
<!-- Generator: Adobe Illustrator 16.0.0, SVG Export Plug-In . SVG Version: 6.00 Build 0)  -->
<!DOCTYPE svg PUBLIC "-//W3C//DTD SVG 1.1//EN" "http://www.w3.org/Graphics/SVG/1.1/DTD/svg11.dtd">
<svg version="1.1" id="Capa_1" xmlns="http://www.w3.org/2000/svg" xmlns:xlink="http://www.w3.org/1999/xlink" x="0px" y="0px"
	 width="500px" height="500px" viewBox="0 0 500 500" style="enable-background:new 0 0 500 500;" xml:space="preserve">
<g>
	<path d="M490.633,396.996c-19.876-16.557-43.646-40.701-47.388-50.244c-3.998-10.232-4.503-49.207-2.479-79.424
		c0.063-0.867,0.271-8.551-0.256-11.695l-6.807-40.724c9.138,14.361,18.085,30.573,25.326,45.854
		c2.74,5.779,8.48,9.168,14.476,9.168c2.302,0,4.64-0.492,6.839-1.535c8.021-3.771,11.424-13.326,7.641-21.322
		c-7.381-15.603-44.205-89.739-82.706-105.603c-0.419-0.141-7.941-3.474-17.004-4.287l-8.425,11.906l-11.559-8.681
		c-0.017,0.019-0.055,0.026-0.101,0.049c-4.857,2.063-12.373,7.379-15.876,10.509c-7.111,6.191-11.92,12.542-16.146,18.146
		c-6.731,8.913-10.434,13.817-20.789,16.392c-16.479,4.124-33.163-7.656-33.254-7.718c-7.121-5.259-17.164-3.739-22.411,3.382
		c-0.523,0.725-0.979,1.908-1.37,2.938L214.49,162.11v-29.42h6.31c9.789,0,17.735-7.299,17.735-16.296
		c0-8.993-7.954-16.292-17.735-16.292H19.809c-9.777,0-17.716,7.299-17.716,16.292c0,8.997,7.938,16.296,17.716,16.296h6.065
		v153.188h84.91V423.65H78.621l-0.1,21.678h80.688l0.1-21.678h-32.181V285.896h87.396l0.001-118.665l42.438,21.455
		c-0.687,5.56,1.325,11.305,6.138,14.861c0.953,0.708,20.425,14.837,45.136,14.837c4.772,0,9.785-0.544,14.872-1.801
		c10.072-2.509,17.451-6.667,23.322-11.422l11.021,65.854c0.686,3.988,2.022,7.613,3.884,10.854
		c-16.604,28.492-45.354,86.191-45.127,143.439c0.038,11.125,9.063,20.104,20.172,20.104c0.022,0,0.046,0,0.076,0
		c11.155-0.045,20.146-9.107,20.096-20.264c-0.168-48.516,26.408-100.344,40.61-124.521c0.729,0,1.469-0.066,2.186-0.098
		c-0.188,21.945,0.977,47.227,6.313,60.895c9.523,24.406,50.941,59.732,59.148,66.586c3.757,3.129,8.341,4.668,12.896,4.668
		c5.788,0,11.529-2.469,15.535-7.27C500.364,416.84,499.207,404.123,490.633,396.996z M209.25,281.021h-0.007H31.162V132.69h178.082
		v27.649l-27.082-13.417l-1.557,4.606l28.632,13.943l0.016,115.549H209.25z M393.438,229.59l-0.186,0.035l-12.039-11.8
		l-1.202-67.225l0.197-0.03l20.804,63.95L393.438,229.59z"/>
	<path d="M370.934,137.088c22.784,0,41.251-18.469,41.251-41.25c0-22.78-18.467-41.25-41.251-41.25
		c-22.773,0-41.249,18.47-41.249,41.25C329.685,118.619,348.157,137.088,370.934,137.088z"/>
	<path d="M163.916,165.432c-6.205,0-11.235,5.03-11.235,11.235c0,3.247,1.386,6.164,3.588,8.215l-11.317,24.322
		c-1.429-0.12-2.878,0.054-4.255,0.497l-20.816-26.546c0.677-1.46,1.02-2.997,1.02-4.584c0-6.188-5.036-11.224-11.225-11.224
		c-6.187,0-11.22,5.035-11.22,11.224c0,2.109,0.63,4.202,1.794,6.014L76.335,210.08c-1.383-0.601-2.824-0.904-4.296-0.904
		c-6.189,0-11.224,5.032-11.224,11.217c0,6.189,5.035,11.225,11.224,11.225c6.189,0,11.225-5.035,11.225-11.225
		c0-1.708-0.406-3.397-1.183-4.947l24.508-26.099c2.533,0.752,5.275,0.555,7.71-0.571l20.242,25.814
		c-1.091,1.771-1.663,3.759-1.663,5.811c0,6.189,5.035,11.225,11.224,11.225c6.181,0,11.209-5.035,11.209-11.225
		c0-2.928-1.168-5.718-3.241-7.817l11.493-24.698c0.118,0.003,0.234,0.018,0.353,0.018c6.205,0,11.235-5.03,11.235-11.235
		S170.121,165.432,163.916,165.432z"/>
</g>
</svg>
