<?xml version="1.0" encoding="utf-8"?>
<!-- Generator: Adobe Illustrator 16.0.4, SVG Export Plug-In . SVG Version: 6.00 Build 0)  -->
<!DOCTYPE svg PUBLIC "-//W3C//DTD SVG 1.1//EN" "http://www.w3.org/Graphics/SVG/1.1/DTD/svg11.dtd">
<svg version="1.1" id="Capa_1" xmlns="http://www.w3.org/2000/svg" xmlns:xlink="http://www.w3.org/1999/xlink" x="0px" y="0px"
	 width="64px" height="64px" viewBox="0 0 64 64" enable-background="new 0 0 64 64" xml:space="preserve">
<g>
	<circle fill="#0E0F0F" cx="25.71" cy="22.205" r="2.874"/>
	<path fill="#0E0F0F" d="M56.896,27.035C56.896,13.307,45.729,2.139,32,2.139c-13.729,0-24.896,11.168-24.896,24.896
		c0,9.008,4.813,16.91,11.998,21.281l-6.264,13.867h39.198l-7.476-13.666C51.934,44.189,56.896,36.182,56.896,27.035z
		 M10.294,27.035c0-11.97,9.736-21.708,21.706-21.708c11.968,0,21.708,9.738,21.708,21.708c0,11.97-9.739,21.707-21.708,21.707
		c-2.491,0-4.882-0.428-7.112-1.203c0.968-2.113,2.098-4.133,3.354-6.086c2.907-0.825,5.812-1.651,8.718-2.477
		c0.142-0.041,0.271-0.094,0.39-0.153c0.797,1.188,1.529,2.422,2.201,3.7c0.189,0.36,0.404,0.525,0.631,0.566
		c0.551,0.385,1.289,0.496,2.021,0.036c2.131-1.34,4.28-2.653,6.411-3.991c2.01-1.267-0.086-4.297-2.096-3.031
		c-1.596,1.004-3.199,1.992-4.8,2.987l-3.895-6.006c-0.046-0.058-0.097-0.096-0.146-0.142c-0.902-1.566-1.906-3.062-2.969-4.514
		c2.162,0.065,4.324,0.029,6.49-0.153l0.621,0.62l-2.237,2.241l4.537,4.538l7.166-7.165l-4.54-4.538l-2.375,2.375l-1.362-1.362
		l-0.173,0.172c-0.291-0.468-0.809-0.782-1.557-0.718c-3.559,0.304-7.104,0.25-10.656-0.083c-0.364-0.035-0.667,0.029-0.924,0.147
		c-0.679,0.117-1.326,0.417-1.775,0.871c-0.539,0.543-0.796,1.165-0.855,1.801c-0.687,0.208-1.403,0.401-2.056,0.576
		c-0.53,0.143-1.046,0.281-1.521,0.419c-1.344-1.644-2.352-3.112-2.938-4.286c-0.425-0.851-1.461-1.196-2.311-0.769
		c-0.851,0.424-1.195,1.458-0.771,2.31c0.826,1.649,2.218,3.622,4.138,5.862c0.333,0.391,0.814,0.602,1.308,0.602
		c0.203,0,0.408-0.035,0.605-0.11c0.571-0.215,1.451-0.45,2.382-0.7c0.809-0.217,1.661-0.448,2.484-0.707
		c1.464,1.88,2.814,3.847,3.995,5.917c-1.95,0.555-3.899,1.109-5.848,1.663c-0.515,0.146-0.862,0.438-1.079,0.795
		c-0.055,0.065-0.112,0.126-0.162,0.201c-1.454,2.2-2.747,4.489-3.832,6.896c-0.02,0.045-0.028,0.09-0.044,0.133
		C14.787,42.261,10.294,35.164,10.294,27.035z M43.098,25.89l0.864,0.869l-1.729,1.73l-0.362-0.363
		C42.805,27.757,43.218,26.76,43.098,25.89z M47.424,59.448H17.072l4.447-9.843c3.189,1.485,6.737,2.324,10.482,2.324
		c3.606,0,7.032-0.775,10.129-2.162L47.424,59.448z"/>
</g>
</svg>
