<?xml version="1.0" encoding="utf-8"?>
<!-- Generator: Adobe Illustrator 16.0.4, SVG Export Plug-In . SVG Version: 6.00 Build 0)  -->
<!DOCTYPE svg PUBLIC "-//W3C//DTD SVG 1.1//EN" "http://www.w3.org/Graphics/SVG/1.1/DTD/svg11.dtd">
<svg version="1.1" id="Capa_1" xmlns="http://www.w3.org/2000/svg" xmlns:xlink="http://www.w3.org/1999/xlink" x="0px" y="0px"
	 width="64px" height="64px" viewBox="0 0 64 64" enable-background="new 0 0 64 64" xml:space="preserve">
<g>
	<path fill="#0E0F0F" d="M47.688,11.059c-0.317-0.268-0.67-0.478-1.035-0.628L43.9,3.744l-4.935,2.032l3.479,8.459
		c0.01,0.026,0.054,0.133,0.048,0.114c0.028,0.067,0.067,0.159,0.131,0.315c0.347,0.84,1.231,1.327,1.231,1.327
		c0.928,0.731,1.898,1.431,2.778,2.219c-0.438,0.147-0.882,0.277-1.329,0.398c-1.091-1.995-3.803-2.535-5.959-1.65
		c-0.363,0.073-0.736,0.219-1.113,0.464c-4.725,3.069-9.23,6.45-13.809,9.73c-0.974,0.697-1.374,1.673-1.373,2.635l-1.908-1.919
		l-1.481,1.472l-2.77-2.787c-0.272-0.274-0.718-0.276-0.994-0.002l-7.083,7.04c-0.275,0.271-0.275,0.72-0.002,0.993L19.754,45.59
		c0.272,0.274,0.717,0.276,0.995,0.001l7.082-7.039c0.275-0.272,0.276-0.718,0.004-0.993l-2.771-2.787l1.481-1.472l-0.185-0.187
		c0.4-0.07,0.815-0.244,1.233-0.543c2.649-1.896,5.278-3.822,7.937-5.708c-0.59,2.74-1.43,5.422-2.454,8.058
		c-0.146,0.371-0.211,0.75-0.226,1.129c-2.498,7.803-6.099,15.104-10.493,22.044c-2.172,3.431,3.261,6.577,5.42,3.167
		c4.079-6.441,7.5-13.251,10.065-20.41c0.467-0.021,0.91-0.115,1.326-0.274c1.938,5.212,1.258,10.422-2.061,15.636
		c-2.183,3.426,3.254,6.57,5.418,3.167c5.097-8.003,5.312-16.864,0.674-24.944c1-3.083,1.719-6.218,2.164-9.423
		c1.353-0.268,2.688-0.621,3.98-1.122c2.106-0.816,4.045-1.424,4.641-3.812C55.023,15.922,50.416,13.343,47.688,11.059z
		 M24.558,34.262l-4.388-4.415l0.973-0.966l2.131,2.145c0.354,0.972,1.099,1.773,2.022,2.035l0.234,0.235L24.558,34.262z"/>
	<path fill="#0E0F0F" d="M41.49,13.508l-3.344-8.126l6.094-2.509l2.896,7.036c0.34,0.166,0.659,0.372,0.953,0.617
		c0.036,0.033,0.079,0.065,0.118,0.097c0.549-0.924,0.867-1.999,0.867-3.151c0-3.424-2.773-6.199-6.197-6.199
		c-3.422,0-6.198,2.775-6.198,6.199C36.68,10.416,38.738,12.876,41.49,13.508z"/>
</g>
</svg>
