<?xml version="1.0" encoding="utf-8"?>
<!-- Generator: Adobe Illustrator 16.0.4, SVG Export Plug-In . SVG Version: 6.00 Build 0)  -->
<!DOCTYPE svg PUBLIC "-//W3C//DTD SVG 1.1//EN" "http://www.w3.org/Graphics/SVG/1.1/DTD/svg11.dtd">
<svg version="1.1" id="Capa_1" xmlns="http://www.w3.org/2000/svg" xmlns:xlink="http://www.w3.org/1999/xlink" x="0px" y="0px"
	 width="64px" height="64px" viewBox="0 0 64 64" enable-background="new 0 0 64 64" xml:space="preserve">
<g>
	<path fill="#0E0F0F" d="M41.436,16.574c-0.035-0.06-0.078-0.111-0.119-0.167c-0.187-0.437-0.765-0.943-2.186-1.596
		c-0.211-0.059-0.443-0.11-0.688-0.159v7.258c0.507,0.264,1,0.514,1.396,0.704c0.069,0.271,0.134,0.922,0.183,1.188
		c-1.094-0.331-2.883-1.546-4.453-2.547v-2.673c0-1.051-0.851-1.902-1.9-1.902s-1.901,0.851-1.901,1.902v2.675
		c-1.567,1-3.169,1.836-4.262,2.167c0.068-0.385,0.172-0.781,0.287-1.174c1.035-0.443,2.574-1.107,3.339-1.58v-2.325
		c0-1.399,1.137-2.536,2.536-2.536c1.397,0,2.534,1.137,2.534,2.536v2.323c0.271,0.166,0.652,0.384,1.074,0.617v-6.817
		c-2.574-0.316-6.066-0.208-8.666,0.47c-1.106,0.159-2.189,1.215-2.189,1.215c0,0.003,0,0.008-0.001,0.011
		c-0.125,0.122-0.239,0.254-0.33,0.412c-0.29,0.508-2.827,5.071-2.46,8.739c0.051,0.497,0.292,0.955,0.676,1.272
		c0.508,0.422,1.11,0.649,1.768,0.731l-5.065,28.497c-0.093,0.518,0.253,1.011,0.769,1.104c0.057,0.008,0.113,0.016,0.168,0.016
		c0.452,0,0.853-0.326,0.935-0.785l4.286-24.116l-0.015,5.614c0.473-0.39,0.939-0.893,1.394-1.461
		c-0.484,0.654-0.956,1.175-1.394,1.479v11.397h13.417V37.646v-9.044l-6.623-3.005c0,0-0.033,0.082-0.092,0.225
		c-0.062-0.038-0.123-0.073-0.188-0.113c-2.22,1.394-4.175,2.243-5.827,2.545l0.189-1.064c1.941-0.408,4.061-1.546,5.736-2.625
		c2.082,1.341,4.853,2.793,7.108,2.793c0.887,0,1.694-0.226,2.349-0.77c0.383-0.318,0.627-0.775,0.676-1.272
		C44.262,21.646,41.727,17.083,41.436,16.574z M34.617,27.293l4.686,2.126v8.228v10.148H28.42v-9.541
		C30.757,36.031,33.479,29.987,34.617,27.293z"/>
	<circle fill="#0E0F0F" cx="35.812" cy="9.023" r="1.12"/>
	<path fill="#0E0F0F" d="M33.664,13.8c2.641,0,4.777-2.138,4.777-4.776c0-2.639-2.139-4.777-4.777-4.777
		c-2.637,0-4.775,2.139-4.775,4.777S31.027,13.8,33.664,13.8z M31.976,7.262c0.861,0,1.579,0.623,1.73,1.441h0.376
		c0.15-0.818,0.869-1.441,1.73-1.441c0.972,0,1.761,0.791,1.761,1.762c0,0.97-0.789,1.76-1.761,1.76c-0.861,0-1.58-0.622-1.73-1.44
		h-0.376c-0.151,0.818-0.869,1.44-1.73,1.44c-0.972,0-1.762-0.79-1.762-1.76C30.214,8.053,31.004,7.262,31.976,7.262z"/>
	<circle fill="#0E0F0F" cx="31.976" cy="9.023" r="1.12"/>
	<path fill="#0E0F0F" d="M27.145,58.092c0,1.512,1.105,2.735,2.657,2.735c1.55,0,2.81-1.226,2.81-2.735v-7.74h-5.466V58.092z"/>
	<path fill="#0E0F0F" d="M34.652,58.042H34.65c0,1.509,1.258,2.731,2.812,2.731c1.552,0,2.81-1.224,2.81-2.731l0.037-7.69h-5.656
		V58.042z"/>
</g>
</svg>
