<?xml version="1.0" encoding="utf-8"?>
<!-- Generator: Adobe Illustrator 16.0.4, SVG Export Plug-In . SVG Version: 6.00 Build 0)  -->
<!DOCTYPE svg PUBLIC "-//W3C//DTD SVG 1.1//EN" "http://www.w3.org/Graphics/SVG/1.1/DTD/svg11.dtd">
<svg version="1.1" id="Capa_1" xmlns="http://www.w3.org/2000/svg" xmlns:xlink="http://www.w3.org/1999/xlink" x="0px" y="0px"
	 width="64px" height="64px" viewBox="0 0 64 64" enable-background="new 0 0 64 64" xml:space="preserve">
<g>
	<circle fill="#0E0F0F" cx="46.793" cy="27.978" r="4.273"/>
	<path fill="#0E0F0F" d="M59.137,29.508c-1.758-0.646-4.242,1.715-5.552,5.271c-0.298,0.811-0.506,1.607-0.633,2.371
		c-2.94-1.184-5.878-2.366-8.818-3.549c-0.831-0.92-2.081-1.476-3.62-1.173c-7.429,2.53-15.808,2.081-18.444,0.582
		c-2.764-2.238-4.979-5.096-6.845-8.144c-1.357-2.217-4.852-0.189-3.489,2.04c1.94,3.171,4.243,6.16,7.033,8.603
		c-1-0.165-2.002-0.399-3.004-0.713c-3.488-1.086-6.613-3.171-9.566-5.267c-2.129-1.511-4.145,1.994-2.039,3.489
		c3.457,2.45,7.059,4.594,11.126,5.859c2.262,0.705,21.44,4.264,27.575,0.821c0,0,1.098-0.558,1.809-1.556
		c2.951,1.188,5.903,2.377,8.857,3.566c0.234,0.32,0.523,0.559,0.867,0.686c1.758,0.646,4.244-1.715,5.553-5.274
		C61.255,33.562,60.893,30.155,59.137,29.508z"/>
	<circle fill="#0E0F0F" cx="4.235" cy="36.105" r="0.967"/>
	<circle fill="#0E0F0F" cx="7.688" cy="22.516" r="1.017"/>
	<circle fill="#0E0F0F" cx="8.706" cy="27.75" r="0.781"/>
	<circle fill="#0E0F0F" cx="4.719" cy="25.834" r="0.483"/>
</g>
</svg>
