<?xml version="1.0" encoding="utf-8"?>
<!-- Generator: Adobe Illustrator 16.0.4, SVG Export Plug-In . SVG Version: 6.00 Build 0)  -->
<!DOCTYPE svg PUBLIC "-//W3C//DTD SVG 1.1//EN" "http://www.w3.org/Graphics/SVG/1.1/DTD/svg11.dtd">
<svg version="1.1" id="Capa_1" xmlns="http://www.w3.org/2000/svg" xmlns:xlink="http://www.w3.org/1999/xlink" x="0px" y="0px"
	 width="64px" height="64px" viewBox="0 0 64 64" enable-background="new 0 0 64 64" xml:space="preserve">
<g>
	<path fill="#0E0F0F" d="M43.408,14.583c-1.043-0.276-2.053-0.118-2.995,0.47c-1.422,0.884-2.488,2.664-3.245,4.419v-4h-1.986v3.502
		c-0.82-1.72-1.912-3.399-3.26-4.196c-0.852-0.504-1.739-0.636-2.638-0.393l-0.19,0.085c-0.132,0.085-1.307,0.844-1.771,1.45
		c-3.283,3.721-7.318,7.731-9.052,9.429v-3.747h0.566v-1.505h-7.545v1.505h0.541V37.04c0,1.774,1.444,3.219,3.219,3.219
		c1.775,0,3.219-1.444,3.219-3.219v-2.112c0.859,0.084,2.135,0.174,3.888-0.937c2.11-1.582,4.171-3.421,6.264-5.59
		c0.008,6.486,0.018,18.979,0.018,19.115v0.689l15.752,0.002l-0.027-15.141c0.525,1.463,1.928,2.51,3.568,2.51
		c2.091,0,3.791-1.7,3.791-3.791C51.523,26.532,48.736,15.993,43.408,14.583z M17.44,26.158c-0.009,0.009-0.03,0.03-0.032,0.031
		l0.032,0.034v10.819c0,1.315-1.071,2.388-2.388,2.388c-1.316,0-2.388-1.072-2.388-2.389V21.812h4.776V26.158z M47.732,34.199
		c-1.33,0-2.414-1.082-2.414-2.412c0-2.182-0.404-4.424-1.209-6.667l-1.346-3.761l0.047,25.471l-12.994-0.002
		c-0.001-3.032-0.011-15.233-0.018-20.164l-0.003-1.767L28.602,26.2c-2.451,2.67-4.829,4.859-7.225,6.659
		c-1.36,0.858-2.297,0.764-3.052,0.689c-0.02-0.002-0.034-0.001-0.054-0.004v-6.457l0.091,0.096
		c0.056-0.055,5.674-5.453,10.024-10.386c0.243-0.316,0.923-0.818,1.357-1.104c0.497-0.11,0.982-0.021,1.477,0.271
		c2.303,1.361,4.006,6.609,4.471,8.517l0.732,3.031l0.61-3.058c0.36-1.803,1.802-6.795,4.106-8.231
		c0.616-0.384,1.243-0.485,1.914-0.307c4.113,1.089,7.09,10.235,7.09,15.871C50.146,33.117,49.062,34.199,47.732,34.199z"/>
	<path fill="#0E0F0F" d="M29.181,59.768L29.181,59.768c0.001,1.741,1.414,3.153,3.157,3.153c1.742,0,3.155-1.412,3.155-3.153V49.755
		h-6.312V59.768z"/>
	<path fill="#0E0F0F" d="M37.223,59.768h0.002c0,1.741,1.412,3.153,3.155,3.153s3.155-1.412,3.155-3.153V49.755h-6.312V59.768z"/>
	<path fill="#0E0F0F" d="M36.096,9.528h0.963c0.196,0.915,1.01,1.601,1.981,1.601c1.118,0,2.028-0.91,2.028-2.029
		c0-1.118-0.91-2.028-2.028-2.028c-0.972,0-1.785,0.687-1.981,1.601h-0.963c-0.197-0.915-1.012-1.601-1.982-1.601
		c-1.117,0-2.027,0.91-2.027,2.028c0,1.119,0.91,2.029,2.027,2.029C35.085,11.129,35.898,10.442,36.096,9.528z M39.041,7.774
		c0.73,0,1.325,0.594,1.325,1.325s-0.595,1.326-1.325,1.326S37.715,9.831,37.715,9.1S38.311,7.774,39.041,7.774z M32.788,9.099
		c0-0.731,0.595-1.325,1.325-1.325c0.732,0,1.326,0.594,1.326,1.325s-0.594,1.326-1.326,1.326
		C33.383,10.425,32.788,9.83,32.788,9.099z"/>
	<path fill="#0E0F0F" d="M27.323,9.378c0,1.191,0.965,2.158,2.158,2.158c0.468,0,0.898-0.153,1.253-0.406
		c0.843,2.419,3.142,4.164,5.845,4.164c2.694,0,4.987-1.734,5.838-4.144c0.349,0.242,0.771,0.386,1.228,0.386
		c1.192,0,2.157-0.966,2.157-2.158c0-0.446-0.135-0.861-0.366-1.204c0.434-0.381,0.711-0.932,0.711-1.553
		c0-1.059-0.797-1.924-1.822-2.049c0-0.008,0.005-0.017,0.005-0.024c0-1.073-1.045-1.943-2.329-1.943
		c-0.984,0-1.824,0.514-2.164,1.236c-0.947-0.589-2.061-0.936-3.256-0.936c-1.207,0-2.331,0.353-3.284,0.952
		c-0.333-0.731-1.176-1.252-2.169-1.252c-1.285,0-2.328,0.87-2.328,1.943c0,0.008,0.003,0.017,0.003,0.024
		c-1.025,0.125-1.823,0.99-1.823,2.049c0,0.621,0.279,1.171,0.712,1.553C27.457,8.518,27.323,8.933,27.323,9.378z M36.579,4.285
		c2.655,0,4.813,2.161,4.813,4.816c0,2.653-2.158,4.814-4.813,4.814s-4.815-2.161-4.815-4.814
		C31.764,6.446,33.924,4.285,36.579,4.285z"/>
	<circle fill="#0E0F0F" cx="36.176" cy="30.179" r="1.036"/>
	<circle fill="#0E0F0F" cx="36.176" cy="34.315" r="1.036"/>
	<circle fill="#0E0F0F" cx="36.176" cy="38.45" r="1.036"/>
	<path fill="#0E0F0F" d="M15.064,38.418c1.082,0,1.96-0.878,1.96-1.96V27.06h-3.92v9.398C13.104,37.54,13.982,38.418,15.064,38.418z
		"/>
</g>
</svg>
