<?xml version="1.0" encoding="utf-8"?>
<!-- Generator: Adobe Illustrator 16.0.4, SVG Export Plug-In . SVG Version: 6.00 Build 0)  -->
<!DOCTYPE svg PUBLIC "-//W3C//DTD SVG 1.1//EN" "http://www.w3.org/Graphics/SVG/1.1/DTD/svg11.dtd">
<svg version="1.1" id="Capa_1" xmlns="http://www.w3.org/2000/svg" xmlns:xlink="http://www.w3.org/1999/xlink" x="0px" y="0px"
	 width="64px" height="64px" viewBox="0 0 64 64" enable-background="new 0 0 64 64" xml:space="preserve">
<g>
	<polygon fill="#0E0F0F" points="37.541,33.229 18.271,33.229 18.271,36.299 20.145,36.299 20.145,51.203 34.1,51.203 34.1,36.299 
		37.541,36.299 	"/>
	<path fill="#0E0F0F" d="M54.484,34.035c-1.059,6.408-3.48,6.068-6.287,5.68c-2.206-0.309-4.954-0.691-5.99,3.264
		c-0.109,0.418,0.141,0.842,0.557,0.953c0,0,0,0,0.002,0c0.416,0.109,0.844-0.139,0.953-0.557c0.655-2.504,1.848-2.453,4.264-2.115
		c0.248,0.035,0.504,0.07,0.765,0.102l0.036,7.164L46.24,49.73c-0.196,0.093-0.278,0.324-0.186,0.521
		c0.066,0.142,0.207,0.224,0.354,0.224c0.056,0,0.111-0.013,0.166-0.037l2.535-1.201l2.324,1.195
		c0.057,0.028,0.117,0.043,0.178,0.043c0.142,0,0.277-0.076,0.348-0.211c0.1-0.191,0.023-0.429-0.169-0.525l-2.229-1.148
		l-0.031-7.154c2.56,0.158,5.406-0.594,6.492-7.106l-1.52-0.365C54.494,33.986,54.488,34.012,54.484,34.035z"/>
	<path fill="#0E0F0F" d="M61.365,24.402c-1.062-1.127-2.344-1.922-3.717-2.622c-0.148-0.076-0.295-0.115-0.438-0.139
		c0.045-0.398,0.014-0.813-0.111-1.221c-0.484-1.6-2.176-2.501-3.773-2.016c-1.598,0.486-2.5,2.176-2.016,3.775
		c0.485,1.599,2.176,2.5,3.774,2.015c0.278-0.084,0.533-0.208,0.767-0.358c0.105,0.12,0.237,0.229,0.412,0.318
		c0.524,0.268,1.031,0.544,1.514,0.854c-0.668,0.315-1.334,0.638-2.008,0.935c-0.812-1.185-2.504-1.797-3.834-1.12
		c-2.431-1.336-4.82-2.75-6.982-4.496c-1.364-1.104-3.324,0.829-1.943,1.944c2.246,1.816,4.68,3.319,7.186,4.725
		c-0.838,1.569-1.562,3.2-2.32,4.812c-3.312-3.763-9.049-3.842-13.883-2.32c-2.107,0.662-1.207,3.983,0.912,3.314
		c4.113-1.293,8.854-1.502,11.164,2.435c-1.914,0.131-3.76,0.69-5.357,1.928c-2.689,2.082-3.633,5.438-3.52,8.721
		c0.076,2.211,3.515,2.219,3.438,0c-0.076-2.189,0.32-4.266,1.951-5.83c1.426-1.367,3.615-1.596,5.538-1.393
		c1.207,0.502,2.67,0.275,3.474-1.223c1.504-2.801,2.643-5.801,4.239-8.554c0.001-0.001,0.002-0.002,0.002-0.004
		c1.665-0.668,3.233-1.582,4.928-2.182C61.736,26.355,62.107,25.191,61.365,24.402z"/>
	<path fill="#0E0F0F" d="M12.119,24.605c1.015-1.604,0.011-3.882-1.554-4.665c-1.041-0.521-2.086-0.459-2.979-0.013
		c-0.156,0.048-0.47,0.207-0.47,0.207c-1.464,2.21-3.066,6.532-3.066,6.532c-2.356,8.43-1.613,9.496-0.595,9.467
		c0,0.006-0.001,0.01-0.001,0.016c0,3.902,0,7.806,0,11.707c0,2.111,3.272,2.111,3.272,0c0-3.764,0-7.524,0-11.291L6.844,36.6
		c0.343-0.381,0.618-0.858,0.786-1.445c0.63-2.192,1.364-4.331,2.283-6.39c0.449,1.614,0.705,3.286,0.844,5
		c0.169,2.088,3.442,2.104,3.272,0c-0.251-3.103-0.817-6.115-2.051-8.923C12.027,24.762,12.07,24.682,12.119,24.605z"/>
	<circle fill="#0E0F0F" cx="12.872" cy="16.461" r="3.374"/>
</g>
</svg>
