<?xml version="1.0" encoding="utf-8"?>
<!-- Generator: Adobe Illustrator 16.0.0, SVG Export Plug-In . SVG Version: 6.00 Build 0)  -->
<!DOCTYPE svg PUBLIC "-//W3C//DTD SVG 1.1//EN" "http://www.w3.org/Graphics/SVG/1.1/DTD/svg11.dtd">
<svg version="1.1" id="Capa_1" xmlns="http://www.w3.org/2000/svg" xmlns:xlink="http://www.w3.org/1999/xlink" x="0px" y="0px"
	 width="64px" height="64px" viewBox="0 0 64 64" enable-background="new 0 0 64 64" xml:space="preserve">
<g>
	<path fill="#0E0F0F" d="M6.714,32.917c4.241,0,4.278-6.568,0.047-6.568C2.521,26.349,2.483,32.917,6.714,32.917z"/>
	<path fill="#0E0F0F" d="M27.193,47.633c-1.201,0-2.158,1.286-2.279,2.989l-0.427,4.642c-0.018,0.196,0.047,0.391,0.18,0.535
		c0.132,0.146,0.32,0.229,0.517,0.229h4.018c0.197,0,0.384-0.083,0.517-0.228c0.133-0.146,0.198-0.34,0.18-0.536l-0.425-4.642
		C29.352,48.919,28.393,47.633,27.193,47.633z M25.501,50.622c0.115-1.337,0.842-2.405,1.691-2.405c0.85,0,1.577,1.068,1.691,2.405
		H25.501z"/>
	<path fill="#0E0F0F" d="M48.964,14.058c4.158-0.777,2.914-7.227-1.254-6.447C43.553,8.388,44.795,14.836,48.964,14.058z"/>
	<path fill="#0E0F0F" d="M52.662,31.368c0.506-1.333,1.565-4.149,1.672-5.333c0.122-1.359-0.098-4.145-0.098-4.145
		c1.271,0.885,2.63,1.642,4.109,2.201c2.274,0.858,3.784-2.6,1.509-3.46c-2.729-1.03-5.036-2.783-7.028-4.897
		c-0.396-0.419-1.583-1.152-3.229-0.831c-1.431,0.277-2.826,1.674-2.688,3.157c0.094,0.991,0.571,2.931,0.741,3.911
		c0.189,1.092,0.303,3.716,0.219,4.061c-1.453,0.358-2.906,0.73-4.324,1.204c-1.166,0.39-1.5,1.686-1.571,2.019
		c-0.438,2.028-0.649,4.082-0.85,6.144c-0.217,2.236,3.249,2.519,3.464,0.293c0.175-1.801,0.369-3.592,0.706-5.369
		c1.367-0.406,2.757-0.765,4.146-1.092c-0.196,0.548-0.406,1.092-0.628,1.629c-0.177,0.427-0.371,1.14,0.233,1.97
		c1.35,1.851,2.843,3.557,4.476,5.161c0.734,0.722,2.065,0.428,2.649-0.316c0.688-0.874,0.417-1.929-0.317-2.651
		C54.695,33.887,53.638,32.659,52.662,31.368z"/>
	<path fill="#0E0F0F" d="M56.895,26.289c-0.226-0.171-0.549-0.13-0.721,0.095c-0.172,0.226-0.13,0.548,0.096,0.721
		c0.1,0.075,9.809,7.718,5.001,21.504c-0.094,0.268,0.048,0.561,0.314,0.653c0.057,0.021,0.113,0.029,0.17,0.029
		c0.213,0,0.412-0.133,0.484-0.345C67.29,34.466,57,26.369,56.895,26.289z"/>
	<path fill="#0E0F0F" d="M5.703,25.076c0.021,0,0.043-0.003,0.064-0.008c0.137-0.036,0.22-0.176,0.184-0.313l-0.768-2.966
		c-0.035-0.138-0.174-0.22-0.313-0.185c-0.138,0.036-0.22,0.176-0.185,0.313l0.769,2.966C5.484,25,5.588,25.076,5.703,25.076z"/>
	<path fill="#0E0F0F" d="M3.623,26.209c0.05,0.048,0.114,0.071,0.178,0.071c0.068,0,0.135-0.026,0.186-0.078
		c0.098-0.103,0.095-0.265-0.007-0.364L2.085,24.02c-0.103-0.099-0.265-0.095-0.363,0.007c-0.099,0.103-0.096,0.265,0.007,0.364
		L3.623,26.209z"/>
	<path fill="#0E0F0F" d="M2.393,28.045c0.101,0,0.197-0.06,0.237-0.16c0.054-0.131-0.009-0.281-0.141-0.334l-1.77-0.721
		c-0.13-0.053-0.281,0.009-0.334,0.141c-0.054,0.131,0.01,0.281,0.141,0.335l1.77,0.721C2.327,28.039,2.359,28.045,2.393,28.045z"/>
	<path fill="#0E0F0F" d="M50.572,39.898l-14.25,2.18c0.227-1.688,0.454-3.373,0.679-5.059c0.168-1.233-1.765-1.281-1.929-0.061
		c-0.242,1.808-0.486,3.615-0.731,5.422l-14.679,2.245c-0.681-1.755-1.364-3.51-2.046-5.262c-0.401-1.036-1.787-0.403-1.767,0.561
		c-0.078-0.059-0.157-0.11-0.251-0.16c-2.073-1.042-4.115-2.142-6.129-3.296c-0.274-1.462-1.766-2.597-3.222-2.605
		c-1.896-0.015-3.155,1.478-3.309,3.26c-0.24,2.802,0.046,5.597,0.627,8.34c0.136,0.646,0.412,1.135,0.763,1.508l-1.981,0.303
		c-1.092,0.167-1.842,1.188-1.675,2.279c0.151,0.989,1.003,1.697,1.975,1.697c0.101,0,0.202-0.008,0.305-0.023l10.843-1.658
		c0.437,1.254,0.826,2.526,1.196,3.806c0.622,2.149,3.976,1.234,3.352-0.922c-0.331-1.148-0.677-2.29-1.057-3.418l33.892-5.183
		c1.092-0.167,1.841-1.188,1.674-2.279C52.686,40.48,51.666,39.736,50.572,39.898z M14.464,44.872
		c-1.481-0.175-2.977-0.303-4.473-0.39l-0.532-4.029c1.446,0.799,2.907,1.571,4.384,2.314c1.195,0.601,2.297-0.231,2.569-1.214
		c0.437,1.124,0.873,2.247,1.31,3.368l-2.305,0.353C15.166,45.067,14.85,44.919,14.464,44.872z"/>
</g>
</svg>
