<?xml version="1.0" encoding="utf-8"?>
<!-- Generator: Adobe Illustrator 16.0.4, SVG Export Plug-In . SVG Version: 6.00 Build 0)  -->
<!DOCTYPE svg PUBLIC "-//W3C//DTD SVG 1.1//EN" "http://www.w3.org/Graphics/SVG/1.1/DTD/svg11.dtd">
<svg version="1.1" id="Capa_1" xmlns="http://www.w3.org/2000/svg" xmlns:xlink="http://www.w3.org/1999/xlink" x="0px" y="0px"
	 width="64px" height="64px" viewBox="0 0 64 64" enable-background="new 0 0 64 64" xml:space="preserve">
<g>
	<path fill="#0E0F0F" d="M27.111,10.034c0,2.572,2.085,4.656,4.656,4.656c2.573,0,4.658-2.083,4.658-4.656H27.111z"/>
	<path fill="#0E0F0F" d="M26.575,9.326l10.583-0.041l-0.004-0.723l1.031-0.578c0.146,0.166,0.266,0.356,0.328,0.567
		c0.096,0.327,0.045,0.66-0.16,1.021c-0.352,0.623-0.406,1.082-0.166,1.364c0.131,0.152,0.334,0.217,0.576,0.217
		c0.411-0.001,0.938-0.196,1.438-0.489l0.013,0.053l1.515-0.538l-0.133-0.508L40.6,10.025l-0.033-0.059
		c-0.062,0.048-0.123,0.093-0.185,0.136l-0.299,0.107l0.021,0.076c-0.76,0.461-1.486,0.598-1.683,0.374
		c-0.104-0.125-0.026-0.449,0.211-0.872c0.259-0.462,0.324-0.921,0.195-1.363c-0.066-0.231-0.185-0.436-0.327-0.617l0.246-0.139
		l-7.147-4.293L25.191,7.72l1.381,0.715L26.575,9.326z"/>
	<path fill="#0E0F0F" d="M28.693,15.577l3.175,7.507l3.845-7.433C33.488,15.318,30.824,15.389,28.693,15.577z"/>
	<path fill="#0E0F0F" d="M39.186,17.232c-0.131-0.154-0.271-0.278-0.41-0.392c-0.073-0.143-0.156-0.275-0.262-0.395
		c-0.183-0.091-0.377-0.173-0.58-0.25l-6.267,12.117L26.395,15.85c-0.111,0.017-0.228,0.035-0.328,0.051l-0.017,0.142
		c-0.197,0.075-0.388,0.153-0.563,0.243c-0.105,0.119-0.189,0.252-0.261,0.395c-0.141,0.115-0.28,0.239-0.411,0.392
		c-3.967,4.622-5.593,10.133-5.683,16.168c-0.058,3.823,5.708,3.817,5.765,0c0.013-0.879,0.042-3.008,0.33-2.608
		c0.124,0.172,0.143,1.646,0.125,3.28l-3.446,14.911h3.38l0.042,8.988c0,1.472,1.227,2.666,2.739,2.666
		c1.512,0,2.74-1.194,2.74-2.666v-8.988h1.988v9.039c0,1.473,1.227,2.664,2.738,2.664c1.513,0,2.59-1.191,2.59-2.664v-9.039h3.042
		l-2.808-15.062c0.149-2.773,0.357-4.576,0.584-0.361c0.058,3.817,5.983,3.822,5.927,0C44.777,27.365,43.152,21.854,39.186,17.232z"
		/>
</g>
</svg>
