<?xml version="1.0" encoding="utf-8"?>
<!-- Generator: Adobe Illustrator 16.0.4, SVG Export Plug-In . SVG Version: 6.00 Build 0)  -->
<!DOCTYPE svg PUBLIC "-//W3C//DTD SVG 1.1//EN" "http://www.w3.org/Graphics/SVG/1.1/DTD/svg11.dtd">
<svg version="1.1" id="Capa_1" xmlns="http://www.w3.org/2000/svg" xmlns:xlink="http://www.w3.org/1999/xlink" x="0px" y="0px"
	 width="64px" height="64px" viewBox="0 0 64 64" enable-background="new 0 0 64 64" xml:space="preserve">
<g>
	<circle fill="#0E0F0F" cx="30.631" cy="14.654" r="3.968"/>
	<path fill="#0E0F0F" d="M63,23.194H42.212c-1.571-1.428-3.282-2.718-5.116-3.852c-1.975-1.221-3.869-0.591-5.038,0.752
		c-4.565,0-9.132,0-13.699,0c-1.869,0-2.643,1.693-2.329,3.1H1.324v0.744h14.995c0.379,0.648,1.058,1.116,2.04,1.116
		c4.327,0,8.654,0,12.981,0c0.323,0.6,0.825,1.148,1.54,1.59c3.542,2.191,6.289,5.107,8.382,8.581
		c-7.301,2.573-13.297,7.795-16.435,15.217c-1.23,2.908,3.04,5.439,4.282,2.504c2.259-5.34,5.959-9.209,10.649-11.647
		c-1.197,1.585-2.316,3.236-3.441,4.845c-1.836,2.629,2.468,5.104,4.283,2.504c2.258-3.231,4.455-6.582,7.549-9.088
		c0.013-0.011,0.022-0.021,0.035-0.029c1.782-1.086,2.985-3.356,1.849-5.772c-1.744-3.712-4.13-7.014-7.023-9.817H63V23.194z"/>
</g>
</svg>
