<?xml version="1.0" encoding="utf-8"?>
<!-- Generator: Adobe Illustrator 16.0.0, SVG Export Plug-In . SVG Version: 6.00 Build 0)  -->
<!DOCTYPE svg PUBLIC "-//W3C//DTD SVG 1.1//EN" "http://www.w3.org/Graphics/SVG/1.1/DTD/svg11.dtd">
<svg version="1.1" id="Capa_1" xmlns="http://www.w3.org/2000/svg" xmlns:xlink="http://www.w3.org/1999/xlink" x="0px" y="0px"
	 width="64px" height="64px" viewBox="0 0 64 64" enable-background="new 0 0 64 64" xml:space="preserve">
<g>
	<path d="M47.733,19.588c-1.499-2.236-5.116-2.08-6.953-0.481c-0.911,0.792-1.4,1.733-1.567,2.72
		c-2.107,3.476-5.289,5.157-9.343,4.113c-1.869-0.481-3.159,1.198-3.046,2.639l-4.903,2l0.012-0.137l-11.796-1.021l-0.197,2.257
		l11.797,1.021l0.041-0.468l5.711-2.329c0.228,0.188,0.517,0.335,0.875,0.427c4.843,1.249,9.345,0.114,12.596-3.186
		c3.597,6.149,2.713,10.997,3.151,12.678c-2.398,1.5-4.532,4.054-4.532,8.38v6.933l2.099-0.058
		c-0.013,1.907,0.147,3.847,0.485,5.803c0.297,1.689,1.764,2.882,3.425,2.882c0.2,0,0.398-0.018,0.603-0.053
		c1.894-0.333,3.159-2.136,2.83-4.027c-1.141-6.52,0.164-12.522,3.86-17.853c0.776-1.024,0.849-1.993,0.89-2.765
		C53.869,31.916,51.69,25.481,47.733,19.588z"/>
	<rect x="5.679" y="44.064" width="20.152" height="19.693"/>
	<path d="M42.169,17.257c1.976-0.909,2.767-3.212,1.767-5.144l-7.159,3.292C37.775,17.336,40.192,18.165,42.169,17.257z"/>
	<path d="M33.311,7.542l3.606,6.966l6.46-2.969l-3.653-7.053c0.436-0.799,0.475-1.792,0.017-2.685
		c-0.762-1.474-2.607-2.106-4.116-1.414c-0.64,0.295-1.116,0.783-1.394,1.359c-0.657-0.147-1.353-0.094-1.995,0.201
		c-1.509,0.693-2.114,2.45-1.347,3.926C31.373,6.819,32.306,7.416,33.311,7.542z"/>
	<path d="M13.713,20.059l-0.017-0.337l-0.335,0.018l0.017,0.337C13.574,20.076,13.497,20.08,13.713,20.059z"/>
	<polygon points="19.481,19.746 19.658,19.729 19.64,19.391 19.305,19.41 19.321,19.746 	"/>
	<path d="M23.378,24.143l-0.018-0.335l-0.335,0.018l0.017,0.336C23.238,24.162,23.162,24.166,23.378,24.143z"/>
	<polygon points="19.622,21.338 19.78,21.338 19.958,21.322 19.94,20.886 19.603,20.903 	"/>
	<polygon points="17.721,22.768 17.898,22.749 17.88,22.411 17.544,22.43 17.561,22.768 	"/>
	<path d="M14.834,21.808l-0.015-0.336l-0.339,0.018l0.02,0.336C14.695,21.825,14.619,21.83,14.834,21.808z"/>
	<polygon points="18.944,28.606 19.104,28.606 19.28,28.589 19.263,28.254 18.927,28.271 	"/>
	<path d="M17.264,27.351c0.195,0,0.121,0.004,0.335-0.02l-0.017-0.335l-0.336,0.018L17.264,27.351z"/>
	<polygon points="11.104,25.988 11.281,25.969 11.264,25.632 10.928,25.65 10.945,25.988 	"/>
	<polygon points="15.582,28.589 15.741,28.589 15.918,28.573 15.9,28.236 15.564,28.254 	"/>
	<path d="M13.875,28.846c0.195,0,0.12,0.004,0.335-0.02l-0.016-0.337l-0.337,0.018L13.875,28.846z"/>
	<path d="M13.494,26.769c3.452,0,6.16-0.791,7.074-1.096c1.265-0.422,1.958-0.902,1.687-2.152c-0.213-0.983-0.813-1.11-1.813-0.932
		c-1,0.178-1.69,0.479-2.335,0.786c-1.304,0.625-0.976,0.405-4.612,0.405C11.52,23.78,11.516,26.769,13.494,26.769z"/>
</g>
</svg>
