<?xml version="1.0" encoding="utf-8"?>
<!-- Generator: Adobe Illustrator 16.0.4, SVG Export Plug-In . SVG Version: 6.00 Build 0)  -->
<!DOCTYPE svg PUBLIC "-//W3C//DTD SVG 1.1//EN" "http://www.w3.org/Graphics/SVG/1.1/DTD/svg11.dtd">
<svg version="1.1" id="Capa_1" xmlns="http://www.w3.org/2000/svg" xmlns:xlink="http://www.w3.org/1999/xlink" x="0px" y="0px"
	 width="64px" height="64px" viewBox="0 0 64 64" enable-background="new 0 0 64 64" xml:space="preserve">
<g>
	<path fill="#0E0F0F" d="M58.184,4.281c-4.061,3.335-8.123,6.667-12.185,10c-2.19,0.521-4.028,2.722-2.797,5.354
		c2.3,4.914,4.6,9.83,6.897,14.744c0.18,0.382,0.396,0.703,0.635,0.979v20.699c0,1.859,1.507,3.368,3.367,3.368
		c1.858,0,3.367-1.509,3.367-3.368V33.764c0.237-0.787,0.201-1.689-0.248-2.653c-2.264-4.835-4.525-9.672-6.789-14.506
		c3.582-2.939,7.162-5.879,10.743-8.817C63.471,5.903,60.482,2.397,58.184,4.281z"/>
	<circle fill="#0E0F0F" cx="38.742" cy="11.325" r="4.87"/>
	<path fill="#0E0F0F" d="M21.473,14.573c-4.062-3.332-8.125-6.665-12.185-10C6.99,2.689,4.001,6.195,6.295,8.079
		c3.582,2.938,7.163,5.877,10.744,8.816c-1.962,4.193-3.925,8.388-5.887,12.582l-0.328,0.021c0,0-9.535,4.557-8.855,17.05h8.032
		v9.802c0,1.859,1.509,3.368,3.368,3.368c1.861,0,3.368-1.509,3.368-3.368v-9.802h2.897l-1.8-12.868
		c2.145-4.583,4.29-9.169,6.435-13.753C25.501,17.294,23.663,15.094,21.473,14.573z"/>
	<circle fill="#0E0F0F" cx="28.73" cy="11.617" r="4.87"/>
	<path fill="#0E0F0F" d="M37.938,24.108c-0.145-0.016-0.295-0.024-0.451-0.024c-1.291,0-2.682,0.5-3.685,1.475
		c-1.002-0.974-2.392-1.475-3.682-1.475c-0.156,0-0.308,0.008-0.452,0.024c-1.692,0.181-2.945,0.791-3.724,1.813
		c-0.783,1.026-1.04,2.394-0.768,4.067c0.62,3.776,7.039,9.399,7.768,10.028c0.256,0.221,0.57,0.33,0.888,0.33
		s0.636-0.109,0.892-0.334c0.723-0.629,7.09-6.253,7.704-10.025c0.273-1.672,0.017-3.04-0.766-4.066
		C40.883,24.899,39.63,24.289,37.938,24.108z M39.745,29.549c-0.308,1.877-3.494,5.363-5.918,7.614
		c-2.444-2.248-5.66-5.735-5.969-7.614c-0.147-0.907-0.063-1.573,0.247-1.981c0.309-0.403,0.931-0.66,1.85-0.756
		c0.053-0.007,0.108-0.009,0.165-0.009c0.784,0,2.114,0.478,2.344,1.761c0.117,0.648,0.681,1.119,1.338,1.119h0.001
		c0.657,0,1.221-0.472,1.338-1.12c0.246-1.375,1.742-1.829,2.51-1.752c0.92,0.098,1.541,0.354,1.851,0.758
		C39.811,27.976,39.895,28.642,39.745,29.549z"/>
</g>
</svg>
