<?xml version="1.0" encoding="utf-8"?>
<!-- Generator: Adobe Illustrator 16.0.4, SVG Export Plug-In . SVG Version: 6.00 Build 0)  -->
<!DOCTYPE svg PUBLIC "-//W3C//DTD SVG 1.1//EN" "http://www.w3.org/Graphics/SVG/1.1/DTD/svg11.dtd">
<svg version="1.1" id="Capa_1" xmlns="http://www.w3.org/2000/svg" xmlns:xlink="http://www.w3.org/1999/xlink" x="0px" y="0px"
	 width="64px" height="64px" viewBox="0 0 64 64" enable-background="new 0 0 64 64" xml:space="preserve">
<g>
	<circle fill="#0E0F0F" cx="17.296" cy="39.054" r="3.006"/>
	<path fill="#0E0F0F" d="M33.632,41.371c-1.384-0.162-2.768-0.323-4.152-0.485c-0.542-0.532-1.134-1.006-1.77-1.424
		c1.082-0.854,2.164-1.711,3.245-2.565c1.398-1.105-0.315-3.273-1.714-2.168c-1.412,1.114-2.823,2.23-4.234,3.347
		c-0.354-0.138-0.713-0.263-1.079-0.375c-3.194-0.984-5.119,3.873-1.894,4.866c1.873,0.578,3.447,1.35,4.598,2.976
		c1,1.415,0.943,3.376,0.724,5.049c-1.152,1.007-2.489,1.757-4.023,2.118c-1.724,0.405-1.347,3.146,0.386,2.736
		c1.671-0.395,3.152-1.088,4.475-2.033c0.336,0.236,0.734,0.393,1.152,0.46c-0.094,0.541-0.198,1.08-0.306,1.619
		c-1.607,0.313-3.229,0.498-4.874,0.489c-1.77-0.008-2.058,2.742-0.276,2.75c2.222,0.013,4.399-0.215,6.567-0.709
		c0.732-0.166,1.074-0.752,1.096-1.342c0.061-0.129,0.109-0.265,0.139-0.41c0.278-1.373,0.547-2.748,0.693-4.145
		c0.002-0.02,0-0.035,0.001-0.055c0.035-0.122,0.067-0.25,0.087-0.385c0.4-2.611,0.281-5.352-0.838-7.766
		c0.559,0.064,1.117,0.131,1.676,0.196C35.081,44.325,35.402,41.579,33.632,41.371z"/>
	<polygon fill="#0E0F0F" points="14.995,34.684 13.049,31.653 14.646,34.855 	"/>
	<polygon fill="#0E0F0F" points="13.418,35.652 12.127,34.852 13.335,35.802 	"/>
	<polygon fill="#0E0F0F" points="12.099,37.189 13.514,37.422 13.502,37.236 	"/>
	<path fill="#0E0F0F" d="M49.953,35.574c-1.68-0.67-3.359-1.34-5.038-2.01c-0.759-0.301-1.065-0.461-1.825-0.766
		c-0.087,0.268-0.955,1.02-2.707,1.835c0.797,0.317,2.725,1.154,3.52,1.472c1.681,0.67,3.359,1.34,5.039,2.009
		C50.579,38.768,51.592,36.229,49.953,35.574z"/>
	<path fill="#0E0F0F" d="M22.343,34.586c2.341-0.363,4.692-0.664,7.042-0.97c-0.627-0.71-1.213-1.549-1.757-2.521
		c-1.956,0.254-3.91,0.513-5.857,0.814C20.023,32.183,20.61,34.855,22.343,34.586z"/>
	<path fill="#0E0F0F" d="M38.583,28.27l0.26,0.023c0.599-2.242,0.771-4.596,0.523-6.904l3.788-2.712l1.513-5.675
		c0.019-0.742-0.313-1.278-1.056-1.297c-0.743-0.019-1.438,0.387-1.631,1.229l-1.48,4.337l-3.001,2.149
		c-0.312-0.061-0.63-0.063-0.925,0.001c-0.58,0.128-1.01,0.438-1.307,0.844c-1.607,0.191-3.217,0.382-4.825,0.573
		c-1.131,0.135-1.438,1.032-1.88,1.927c-0.482,0.976-0.965,1.951-1.446,2.928c-0.816,1.652,1.83,2.732,2.643,1.086
		c0.521-1.056,1.042-2.112,1.565-3.168c0.252-0.029,0.506-0.06,0.76-0.091c0.037-0.032,1.875-0.236,2.787-0.336
		c0.035,1.499-0.226,3.016-0.683,4.434c-0.002,0.008-0.006,0.016-0.008,0.025l-0.527-0.048l-5.879,2.323
		c5.834,11.314,14.788,2.544,14.788,2.544L38.583,28.27z"/>
	<path fill="#0E0F0F" d="M33.533,15.114c0.535-0.002,1.641-0.139,2.074-1.189c0.218,1.885,2.398,3.5,2.717,3.725l0.186,0.172
		c0,0,0.563-0.628,0.684-1.119c0.074-0.171,0.181-0.584,0.195-0.769c0.203-1.498-0.699-2.891-2.078-3.358
		c-0.012-0.051-0.023-0.104-0.043-0.155c0.027-0.012,0.056-0.021,0.082-0.036c0.195-0.096,0.4-0.217,0.596-0.402
		c0.101-0.093,0.193-0.206,0.27-0.335c0.037-0.062,0.073-0.133,0.105-0.226l0.035-0.093l0.014-0.034l0.005-0.018l0.017-0.085
		c0.061-0.284,0.043-0.584-0.019-0.85c-0.06-0.269-0.165-0.499-0.272-0.708c-0.224-0.417-0.466-0.76-0.688-1.064
		C37.197,8.267,37,7.976,36.939,7.798c-0.027-0.091-0.029-0.125-0.025-0.129c0.006-0.003-0.004-0.019,0.034-0.086
		c0.036-0.059,0.11-0.156,0.208-0.251c0.049-0.048,0.102-0.1,0.156-0.149c0.028-0.022,0.051-0.047,0.08-0.075l0.112-0.092
		c0.296-0.242,0.397-0.663,0.228-1.021c-0.203-0.421-0.709-0.597-1.129-0.396c-0.381,0.183-0.814,0.445-1.181,0.949
		c-0.182,0.25-0.341,0.605-0.358,0.989c-0.025,0.382,0.065,0.736,0.194,0.998c0.257,0.53,0.568,0.838,0.847,1.129
		c0.272,0.289,0.545,0.527,0.737,0.764c0.194,0.241,0.316,0.432,0.341,0.626l0.002,0.004v0.002c-0.004,0.014,0.02-0.113,0.01-0.058
		v0.002l-0.002,0.019l-0.004,0.037c-0.002,0.026-0.006,0.051-0.004,0.046c0.006,0.002,0.006,0.019,0,0.045
		c-0.011,0.043-0.021,0.094-0.049,0.148c-0.057,0.109-0.156,0.231-0.283,0.348c-0.039,0.039-0.084,0.077-0.127,0.114
		c-0.412-0.257-0.908-0.248-1.193,0.053c-0.186,0.197-0.238,0.477-0.178,0.756c-1.101,0.357-1.957,1.308-2.123,2.529
		c0,0,0.019,0.002,0.043,0.005L33.533,15.114z"/>
</g>
</svg>
