<?xml version="1.0" encoding="utf-8"?>
<!-- Generator: Adobe Illustrator 16.0.4, SVG Export Plug-In . SVG Version: 6.00 Build 0)  -->
<!DOCTYPE svg PUBLIC "-//W3C//DTD SVG 1.1//EN" "http://www.w3.org/Graphics/SVG/1.1/DTD/svg11.dtd">
<svg version="1.1" id="Capa_1" xmlns="http://www.w3.org/2000/svg" xmlns:xlink="http://www.w3.org/1999/xlink" x="0px" y="0px"
	 width="64px" height="64px" viewBox="0 0 64 64" enable-background="new 0 0 64 64" xml:space="preserve">
<g>
	<path fill="#010101" d="M59.826,44.505L49.729,30.619c-0.217-0.893-0.686-2.683-1.394-3.354l-4.474,5.422
		c0.421,0.705,0.562,1.58,0.359,2.316c-0.352,1.28-1.423,2.043-2.863,2.043c-0.185,0-0.377-0.013-0.563-0.038
		c-0.313-0.043-0.649-0.11-0.993-0.196c-0.679,1.045-1.166,1.838-1.301,2.063c-0.657,1.082-0.457,2.478,0.473,3.333l8.442,7.779
		c0.511,0.47,1.157,0.703,1.801,0.703c0.718,0,1.433-0.289,1.957-0.858c0.995-1.078,0.925-2.761-0.153-3.756l-6.817-6.281
		c0.7-1.081,1.505-2.261,2.276-3.31c0.246-0.084,0.485-0.187,0.72-0.307l8.327,11.449c0.521,0.715,1.33,1.096,2.152,1.096
		c0.543,0,1.088-0.162,1.562-0.507C60.426,47.354,60.688,45.689,59.826,44.505z"/>
	<path fill="#010101" d="M29.436,21.839c-0.459,0.765-0.683,1.605-0.7,2.438c-1.003,2.552-4.088,2.836-6.74,3.195
		c-1.234,0.167-1.887,1.729-1.592,2.804c0.363,1.316,1.573,1.758,2.803,1.59c2.775-0.375,5.671-1.106,7.684-2.8l3.925-4.219
		l0.39,0.65c0.474,0.788,0.741,1.689,0.776,2.609c0.824,1.935,3.148,2.335,5.479,2.647l4.999-5.67
		c-2.027-1.438-7.791-4.297-9.493-5.317C34.63,18.363,30.838,19.502,29.436,21.839z"/>
	<path fill="#010101" d="M26.813,21.876c2.268,0,4.107-1.839,4.107-4.108c0-1.417-0.717-2.666-1.808-3.404l0.768-0.119
		c0.453-0.069,0.763-0.494,0.693-0.947c-0.07-0.454-0.493-0.764-0.947-0.693l-1.584,0.245l0.124-0.302
		c0.174-0.424-0.029-0.908-0.454-1.083c-0.424-0.174-0.908,0.029-1.083,0.453l-0.639,1.56c-0.043,0.072-0.077,0.15-0.096,0.232
		l-0.027,0.064c-1.813,0.428-3.164,2.051-3.164,3.995C22.705,20.037,24.543,21.876,26.813,21.876z"/>
	<path fill="#010101" d="M43.521,34.59c0.295-1.074-0.357-2.637-1.592-2.804c-2.652-0.358-6.314-1.282-6.74-3.195
		c-0.428-1.913-0.24-1.671-0.699-2.437c0,0-3.147,5.995-10.83,7.499l1.403,1.756c1.112-0.5,5.84-4.119,5.84-4.119
		c2.017,1.952,6.852,4.492,9.813,4.893C41.948,36.348,43.157,35.906,43.521,34.59z"/>
	<path fill="#010101" d="M23.081,36.742l-8.414-8.415c-0.709,0.672-1.176,1.511-1.395,2.405L3.175,44.617
		c-0.864,1.186-0.601,2.85,0.587,3.712c0.471,0.343,1.02,0.51,1.562,0.51c0.82,0,1.631-0.379,2.151-1.096l8.328-11.453
		c0.234,0.122,0.474,0.228,0.72,0.31c0.772,1.047,1.575,2.229,2.278,3.309l-6.817,6.283c-1.08,0.992-1.149,2.676-0.154,3.756
		c0.524,0.568,1.239,0.857,1.956,0.857c0.644,0,1.289-0.236,1.8-0.705l8.444-7.776c0.929-0.858,1.127-2.25,0.473-3.335
		C24.356,38.752,23.823,37.878,23.081,36.742z"/>
	<path fill="#010101" d="M19.417,28.207c0.556-0.841,1.372-1.374,2.298-1.5l0.402-0.054c2.592-0.345,4.373-0.677,5.039-1.991
		c0.013-0.203,0.04-0.405,0.074-0.606c-0.139,0.01-0.277,0.021-0.417,0.021c-1.597,0-3.04-0.672-4.064-1.746
		c-2.251,1.198-4.894,2.61-6.133,3.49l2.531,2.872C19.227,28.527,19.314,28.362,19.417,28.207z"/>
	<path fill="#010101" d="M32.289,17.176c0.098,0.414,0.149,0.84,0.149,1.274c0,0.07-0.008,0.138-0.01,0.208
		c0.671-0.183,1.371-0.285,2.073-0.285c1.17,0,2.269,0.287,3.172,0.829c0.444,0.267,1.236,0.694,2.14,1.177
		c0.309-0.575,0.482-1.231,0.482-1.929c0-1.944-1.352-3.568-3.165-3.995l-0.026-0.064c-0.019-0.083-0.053-0.159-0.095-0.231
		l-0.64-1.56c-0.172-0.424-0.657-0.628-1.082-0.454c-0.426,0.174-0.628,0.659-0.454,1.083l0.125,0.301l-1.584-0.244
		c-0.454-0.069-0.877,0.241-0.949,0.694c-0.067,0.453,0.241,0.877,0.695,0.948l0.769,0.118C33.143,15.553,32.576,16.3,32.289,17.176
		z"/>
</g>
</svg>
