<?xml version="1.0" encoding="utf-8"?>
<!-- Generator: Adobe Illustrator 16.0.4, SVG Export Plug-In . SVG Version: 6.00 Build 0)  -->
<!DOCTYPE svg PUBLIC "-//W3C//DTD SVG 1.1//EN" "http://www.w3.org/Graphics/SVG/1.1/DTD/svg11.dtd">
<svg version="1.1" id="Capa_1" xmlns="http://www.w3.org/2000/svg" xmlns:xlink="http://www.w3.org/1999/xlink" x="0px" y="0px"
	 width="64px" height="64px" viewBox="0 0 64 64" enable-background="new 0 0 64 64" xml:space="preserve">
<path fill="#0E0F0F" d="M54.979,20.435l-1.615-0.234l0.179-1.231l1.615,0.234L54.979,20.435z M8.122,16.99
	c0,0-0.261-0.574-0.211-1.292l0.017-0.002l1.239-0.202l0.723-0.08c0.086,0.773,0.781,1.33,1.555,1.246
	c0.773-0.085,1.331-0.781,1.246-1.555l0.266-0.029l-0.075-0.683l-4.81,0.591c0.104-0.262,0.263-0.525,0.505-0.773
	c1.177-1.206,4.069-1.091,4.069-1.091l-0.082-1.713c-0.289-0.197-1.442,0.619-1.442,0.619L8.72,12.479L7.715,12.67
	c-2.132,0.892-0.17,3.839-0.17,3.839L8.122,16.99z M53.17,17.235c0.773,0.084,1.471-0.473,1.557-1.246l0.724,0.08l1.239,0.201
	l0.017,0.002c0.051,0.719-0.211,1.292-0.211,1.292l0.578-0.481c0,0,1.963-2.947-0.171-3.84l-1.004-0.19l-2.401-0.454
	c0,0-1.154-0.814-1.442-0.619l-0.082,1.714c0,0,2.893-0.115,4.069,1.09c0.24,0.248,0.399,0.512,0.504,0.774l-4.812-0.59
	l-0.073,0.683l0.266,0.029C51.839,16.454,52.396,17.148,53.17,17.235z M62.941,30.986c-0.629-2.782-0.354-5.685-1.276-8.429
	c-0.263-1.415-1.752-2.34-3.847-2.94l-3.649,3.599l0.666-1.797l-1.612-0.233l0.043,2.153l-2.218-4.664
	c-3.791-0.187-7.694-0.01-10.039,0.091v-1.569h-0.467l0.185-0.392l-0.281-0.132L40.2,17.198h-5.839v-0.442h-0.373v0.442h-0.42
	l0.496,1.85h4.224c-1.586,0.826-1.281,3.759,0.926,3.759c2.177,0,7.336,0,9.511,0c0.006,0.071,0.002,0.142,0.008,0.214
	c0.211,2.583-0.033,6.777-0.207,8.933l2.942,0.517l-0.116,0.696l-2.935-0.515c-2.315,5.658-3.222,12.096-3.683,18.148
	c-0.229,2.979,4.402,2.954,4.627,0c0.339-4.435,0.978-9.06,2.275-13.396c0.26,0.072,0.527,0.129,0.809,0.152
	c0.101,0.01,0.195,0.012,0.293,0.016c0.351,4.57,0.666,9.572,1.285,13.882c0.425,2.94,4.881,1.688,4.463-1.229
	c-0.692-4.816-0.93-10.691-1.354-15.539c-0.008-0.098-0.021-0.188-0.036-0.278c0.021-0.071,0.032-0.146,0.051-0.222l-2.705-0.478
	l0.117-0.696l2.703,0.475c0.067-0.76,0.536-6.202,0.331-10.281c0.334,0.493,0.513,1.259,0.701,2.196
	c0.438,2.19,0.315,4.462,0.812,6.644C59.673,34.548,63.512,33.486,62.941,30.986z M53.363,25.514c0.291,0,0.527,0.235,0.527,0.526
	s-0.236,0.527-0.527,0.527c-0.29,0-0.526-0.236-0.526-0.527S53.073,25.514,53.363,25.514z M53.148,27.32
	c0.291,0,0.525,0.235,0.525,0.526s-0.234,0.527-0.525,0.527s-0.526-0.236-0.526-0.527S52.857,27.32,53.148,27.32z M53.005,29.007
	c0.291,0,0.527,0.235,0.527,0.526s-0.236,0.526-0.527,0.526s-0.526-0.235-0.526-0.526S52.714,29.007,53.005,29.007z M53.979,33.448
	l-2.108-0.355l0.092-0.536l2.104,0.371L53.979,33.448z M30.624,16.182h-0.371v0.443h-5.838L24.172,16.1l-0.283,0.132l0.184,0.393
	h-0.466v1.568c-2.345-0.102-6.248-0.278-10.038-0.091l-2.217,4.664l0.042-2.153L9.78,20.848l0.667,1.795l-3.651-3.598
	c-2.094,0.6-3.583,1.524-3.845,2.939c-0.922,2.744-0.647,5.647-1.279,8.429c-0.566,2.5,3.271,3.562,3.839,1.059
	c0.495-2.183,0.373-4.454,0.812-6.644c0.189-0.937,0.366-1.704,0.699-2.195c-0.204,4.078,0.266,9.522,0.334,10.282l2.703-0.475
	l0.117,0.697L7.47,33.613c0.018,0.074,0.032,0.146,0.053,0.221c-0.017,0.092-0.03,0.184-0.039,0.28
	C7.059,38.96,6.823,44.835,6.13,49.652c-0.418,2.918,4.039,4.176,4.462,1.229c0.618-4.308,0.936-9.312,1.285-13.883
	c0.098-0.002,0.194-0.003,0.292-0.017c0.279-0.023,0.549-0.078,0.808-0.15c1.299,4.336,1.939,8.961,2.276,13.396
	c0.224,2.955,4.853,2.979,4.627,0c-0.462-6.057-1.365-12.492-3.682-18.15l-2.934,0.518l-0.117-0.698l2.944-0.518
	c-0.171-2.154-0.418-6.349-0.208-8.932c0.005-0.072,0.003-0.143,0.007-0.213c2.174,0,7.335,0,9.511,0
	c2.206,0,2.511-2.934,0.924-3.761h4.222l0.498-1.849h-0.421V16.182z M11.993,27.272c0,0.292-0.235,0.527-0.526,0.527
	c-0.292,0-0.527-0.235-0.527-0.527c0-0.291,0.235-0.526,0.527-0.526C11.758,26.746,11.993,26.981,11.993,27.272z M12.138,28.958
	c0.001,0.291-0.236,0.526-0.527,0.526c-0.292,0-0.527-0.235-0.527-0.526c0-0.292,0.235-0.527,0.527-0.527
	C11.902,28.431,12.138,28.666,12.138,28.958z M11.252,24.94c0.291-0.001,0.526,0.235,0.526,0.526c0,0.292-0.235,0.528-0.526,0.528
	c-0.292,0-0.527-0.236-0.527-0.528C10.725,25.175,10.959,24.94,11.252,24.94z M10.636,32.874l-0.088-0.521l2.11-0.371l0.09,0.536
	L10.636,32.874z M9.634,19.859l-0.177-1.231l1.616-0.232l0.177,1.231L9.634,19.859z"/>
</svg>
