<?xml version="1.0" encoding="utf-8"?>
<!-- Generator: Adobe Illustrator 16.0.4, SVG Export Plug-In . SVG Version: 6.00 Build 0)  -->
<!DOCTYPE svg PUBLIC "-//W3C//DTD SVG 1.1//EN" "http://www.w3.org/Graphics/SVG/1.1/DTD/svg11.dtd">
<svg version="1.1" id="Capa_1" xmlns="http://www.w3.org/2000/svg" xmlns:xlink="http://www.w3.org/1999/xlink" x="0px" y="0px"
	 width="64px" height="64px" viewBox="0 0 64 64" enable-background="new 0 0 64 64" xml:space="preserve">
<g>
	<path fill="#0E0F0F" d="M36.833,17.254l-0.003-0.029c-0.076-0.016-0.139-0.023-0.211-0.038c-0.137-0.039-0.273-0.063-0.41-0.071
		c-1.695-0.259-2.378,0.027-2.378,0.027l-2.367,4.868l-0.013,0.024l0.004-0.025l-0.483-0.046h0.489l-0.006,0.045l0.009,0.002
		c0-0.016-0.001-0.032,0-0.048h-0.003l0.486-4.107h1.145V16.74h-1.541v0.208h-0.988V16.74H29.41v1.116h0.964l0.584,4.183
		c0,0-2.327-5.082-2.536-5.001c0,0-0.846-0.981-4.031,0.618c-0.133,0.149-0.227,0.321-0.307,0.504
		c-0.029,0.034-5.214,9.05-5.39,14.398c-0.034,1.016,0.469,1.684,1.155,2.023v1.016c-0.039-0.009-0.079-0.018-0.121-0.018
		c-0.408,0-0.74,0.333-0.74,0.74v2.603c0,0.408,0.332,0.739,0.74,0.739c0.178,0,0.338-0.064,0.466-0.169v3.993
		c0,0.261,0.329,0.474,0.736,0.474c0.408,0,0.737-0.213,0.737-0.474v-4.002c0.129,0.109,0.292,0.178,0.474,0.178
		c0.408,0,0.741-0.331,0.741-0.739V36.32c0-0.408-0.333-0.741-0.741-0.741c-0.135,0-0.26,0.039-0.369,0.103v-0.955
		c0.882-0.268,1.622-0.985,1.661-2.168c0.075-2.257,0.542-4.443,1.369-6.496l-0.019,7.397h8.331l-0.89-2.933h4.689v2.933h0.213
		c0.003-2.632,0.009-5.702,0.011-7.948c0.897,1.859,1.486,3.858,1.668,5.97c0.264,3.021,5.006,3.045,4.74,0
		C43.096,26.302,37.123,17.378,36.833,17.254z"/>
	<path fill="#0E0F0F" d="M36.915,38.949h-2.132l-1.278-4.211H24.78l-0.014,5.474v17.155c0,1.41,1.033,2.555,2.482,2.555
		c1.451,0,2.626-1.145,2.626-2.555V39.494c0,0,0.085-0.906,1.008-0.916c0.923-0.012,0.899,0.871,0.899,0.871v17.869
		c0,1.412,1.176,2.555,2.627,2.555c1.449,0,2.625-1.143,2.625-2.555l0.088-18.439c0-0.066,0.002-1.811,0.006-4.141h-0.212V38.949z"
		/>
	<polygon fill="#0E0F0F" points="36.381,38.297 36.381,31.06 33.084,31.06 35.281,38.297 	"/>
	<path fill="#0E0F0F" d="M26.405,11.698c0.101,2.376,2.054,4.274,4.454,4.274c2.386,0,4.329-1.874,4.454-4.229
		c2.244-0.397,3.681-1.99,3.75-2.067c0.398-0.452,0.356-1.14-0.092-1.542c-0.449-0.403-1.142-0.365-1.547,0.082
		c-0.012,0.013-1.041,1.12-2.54,1.368c-0.127-0.263-0.276-0.512-0.45-0.744c0.002-0.007,0.006-0.013,0.006-0.02l-0.547-4.78
		c0-0.18-0.194-0.326-0.436-0.326h-5.325c-0.242,0-0.438,0.146-0.438,0.326l-0.435,4.78c0,0.014,0.008,0.025,0.01,0.039
		c-0.159,0.215-0.298,0.445-0.417,0.687c-1.385-0.301-2.328-1.301-2.354-1.329c-0.402-0.45-1.093-0.49-1.545-0.09
		c-0.453,0.402-0.495,1.095-0.092,1.548C22.928,9.751,24.281,11.243,26.405,11.698z"/>
</g>
</svg>
