<?xml version="1.0" encoding="utf-8"?>
<!-- Generator: Adobe Illustrator 16.0.4, SVG Export Plug-In . SVG Version: 6.00 Build 0)  -->
<!DOCTYPE svg PUBLIC "-//W3C//DTD SVG 1.1//EN" "http://www.w3.org/Graphics/SVG/1.1/DTD/svg11.dtd">
<svg version="1.1" id="Capa_1" xmlns="http://www.w3.org/2000/svg" xmlns:xlink="http://www.w3.org/1999/xlink" x="0px" y="0px"
	 width="64px" height="64px" viewBox="0 0 64 64" enable-background="new 0 0 64 64" xml:space="preserve">
<g>
	<path fill="#0E0F0F" d="M54.363,26.145c-1.276-5.398-3.506-11.555-7.631-15.439c-0.121-0.115-0.246-0.217-0.373-0.312
		c2.33-2.3-1.366-5.899-3.896-3.66c-4.911,4.35-10.629,7.545-16.612,10.174c-0.226,0.07-0.446,0.156-0.66,0.255
		c-5.112-0.214-11.373-1.305-14.938-4.97c-2.408-2.476-6.187,1.31-3.781,3.782c3.812,3.921,9.726,5.654,15.342,6.281
		c-0.006,0.515,0.062,1.034,0.226,1.545c2.193,6.835,6.907,13.52,13.904,15.934c0.459,0.16,0.926,0.232,1.389,0.244
		c0,5.67,0,11.338,0,17.006c0,4.742,7.355,4.742,7.355,0c0-7.155,0-14.312,0-21.465C49.432,33.688,55.4,30.521,54.363,26.145z
		 M40.167,29.336c-0.382-0.224-0.787-0.417-1.218-0.565c0.414,0.227,0.312,0.176-0.311-0.153c-0.324-0.168-0.457-0.222-0.508-0.233
		c-0.035-0.046-0.145-0.156-0.439-0.405c-0.666-0.561-1.465-1.39-1.899-1.967c-1.317-1.75-2.282-3.633-2.771-5.154
		c-0.137-0.421-0.316-0.818-0.525-1.192c2.852-1.435,5.604-3.039,8.225-4.848c0.184,0.375,0.447,0.741,0.813,1.085
		c2.675,2.52,4.181,6.375,5.183,10.012C44.784,27.494,42.552,28.516,40.167,29.336z"/>
	<circle fill="#0E0F0F" cx="23.579" cy="8.959" r="6.292"/>
</g>
</svg>
