<?xml version="1.0" encoding="utf-8"?>
<!-- Generator: Adobe Illustrator 16.0.4, SVG Export Plug-In . SVG Version: 6.00 Build 0)  -->
<!DOCTYPE svg PUBLIC "-//W3C//DTD SVG 1.1//EN" "http://www.w3.org/Graphics/SVG/1.1/DTD/svg11.dtd">
<svg version="1.1" id="Capa_1" xmlns="http://www.w3.org/2000/svg" xmlns:xlink="http://www.w3.org/1999/xlink" x="0px" y="0px"
	 width="64px" height="64px" viewBox="0 0 64 64" enable-background="new 0 0 64 64" xml:space="preserve">
<g>
	<path fill="#0E0F0F" d="M35.932,15.948c-0.402-0.396-0.842-0.648-1.289-0.79c-0.815-0.311-2.565-0.91-3.411-1.013l-2.519,3.592
		l-2.352-3.357c-1.348,0.069-1.875-0.048-3.324,0.482c-2.444,0.896-4.276,7.111-5.136,9.561c-0.86,2.449,1.705,3.976,3.595,4.483
		h8.836c1.124,0,2.038-0.915,2.038-2.038c0-1.124-0.914-2.038-2.038-2.038h-0.007h-1.457h-5.273v-0.9h5.273v-0.568l-1.987-3.112
		h5.31l0.008,0.003L30.325,23.4v0.532h0.007c1.62,0,2.938,1.318,2.938,2.938s-1.317,2.938-2.938,2.938h-7.379l-0.304,28.92
		c0,1.845,1.495,3.34,3.339,3.34c1.844,0,2.121-1.495,2.121-3.34l0.914-15.174c0,0-0.289-1.074,0.256-1.156
		c0.545-0.082,0.375,0.973,0.375,0.973l0.585,15.742c0.136,1.555,1.535,3.008,3.089,2.871c1.556-0.137,2.68-1.812,2.543-3.365
		l-0.633-33.454c0.017-0.241,0.027-0.481,0.043-0.721c1.212,2.512,1.533,5.264,1.369,8.611c-0.191,3.928,5.899,3.907,6.091,0
		C43.074,26.233,40.775,20.722,35.932,15.948z"/>
	<circle fill="#0E0F0F" cx="29.12" cy="8.087" r="4.872"/>
	<path fill="#0E0F0F" d="M28.768,14.567h-0.362c-0.028-0.237-0.256-0.421-0.536-0.421c-0.3,0-0.542,0.21-0.542,0.469v0.628
		c0,0.259,0.243,0.47,0.542,0.47c0.292,0,0.527-0.201,0.539-0.451h0.354c0.012,0.25,0.248,0.451,0.54,0.451
		c0.299,0,0.542-0.21,0.542-0.47v-0.628c0-0.258-0.243-0.469-0.542-0.469C29.023,14.146,28.796,14.33,28.768,14.567z"/>
	<path fill="#0E0F0F" d="M29.653,21.304c-0.323,0.914-1.313,0.305-1.313,0.305l0.952,1.256h0.99l0.685-1.561
		C30.966,21.304,29.977,20.391,29.653,21.304z"/>
</g>
</svg>
