<?xml version="1.0" encoding="iso-8859-1"?>
<!-- Generator: Adobe Illustrator 16.0.0, SVG Export Plug-In . SVG Version: 6.00 Build 0)  -->
<!DOCTYPE svg PUBLIC "-//W3C//DTD SVG 1.1//EN" "http://www.w3.org/Graphics/SVG/1.1/DTD/svg11.dtd">
<svg version="1.1" id="Capa_1" xmlns="http://www.w3.org/2000/svg" xmlns:xlink="http://www.w3.org/1999/xlink" x="0px" y="0px"
	 width="500px" height="500px" viewBox="0 0 500 500" style="enable-background:new 0 0 500 500;" xml:space="preserve">
<g>
	<path style="fill:#0E0F0F;" d="M249.532,105.997c0.157,0,0.312-0.01,0.468-0.012c0.156,0.002,0.31,0.012,0.468,0.012
		c28.08,0,50.844-22.766,50.844-50.844c0-28.084-22.764-50.847-50.844-50.847c-0.158,0-0.312,0.01-0.468,0.012
		c-0.156-0.002-0.311-0.012-0.468-0.012c-28.081,0-50.845,22.763-50.845,50.847C198.688,83.231,221.452,105.997,249.532,105.997z"/>
	<path style="fill:#0E0F0F;" d="M355.644,261.073c-14.521-122.442-85.012-150.396-92.771-152.247
		c-0.038-0.007-0.084-0.007-0.121-0.021l-12.281,12.898h-0.94l-12.281-12.898c-0.038,0.015-0.083,0.015-0.121,0.021
		c-7.76,1.851-78.251,29.805-92.771,152.247c-1.589,10.796,5.878,20.825,16.659,22.409c0.969,0.136,1.945,0.193,2.892,0.193
		c9.637,0,18.078-7.038,19.513-16.872c4.009-27.305,8.581-47.543,14.07-63.188v61.771c0,6.392,1.487,12.278,4.046,17.558
		c-0.008,0.129-0.038,0.25-0.038,0.371l0.015,189.046c0,12.886,10.451,23.332,23.324,23.332c12.893,0,23.336-10.446,23.336-23.332
		l-0.016-162.188L250,310.17l1.842,0.003l-0.017,162.188c0,12.886,10.443,23.332,23.336,23.332
		c12.873,0,23.324-10.446,23.324-23.332l0.016-189.046c0-0.121-0.03-0.242-0.038-0.371c2.56-5.279,4.046-11.166,4.046-17.558
		v-61.771c5.488,15.645,10.061,35.883,14.07,63.188c1.435,9.834,9.875,16.872,19.513,16.872c0.946,0,1.923-0.058,2.892-0.193
		C349.765,281.898,357.231,271.869,355.644,261.073z M250.468,237.075c-0.153,0-0.305-0.013-0.455-0.023v-0.001
		c-0.004,0-0.009,0-0.013,0s-0.009,0-0.013,0v0.001c-0.15,0.01-0.302,0.023-0.455,0.023c-4.124,0-7.474-3.357-7.474-7.473
		c0-4.126,3.35-7.479,7.474-7.479c0.153,0,0.305,0.013,0.455,0.023v0.001c0.004,0,0.009,0,0.013,0s0.009,0,0.013,0v-0.001
		c0.15-0.01,0.302-0.023,0.455-0.023c4.123,0,7.473,3.353,7.473,7.479C257.94,233.718,254.591,237.075,250.468,237.075z
		 M250.468,212.34c-0.153,0-0.305-0.013-0.455-0.023v-0.001c-0.004,0-0.009,0-0.013,0s-0.009,0-0.013,0v0.001
		c-0.15,0.01-0.302,0.023-0.455,0.023c-4.124,0-7.474-3.352-7.474-7.473c0-4.126,3.35-7.483,7.474-7.483
		c0.153,0,0.305,0.013,0.455,0.023v0.001c0.004,0,0.009,0,0.013,0s0.009,0,0.013,0v-0.001c0.15-0.01,0.302-0.023,0.455-0.023
		c4.123,0,7.473,3.357,7.473,7.483C257.94,208.988,254.591,212.34,250.468,212.34z M250.575,186.015l-0.563-0.896v-0.041
		l-0.013,0.02l-0.013-0.02v0.041l-0.563,0.896l-8.978-16.784l8.978-45.652h0.23h0.69h0.23l8.979,45.652L250.575,186.015z"/>
</g>
</svg>
