<?xml version="1.0" encoding="utf-8"?>
<!-- Generator: Adobe Illustrator 16.0.4, SVG Export Plug-In . SVG Version: 6.00 Build 0)  -->
<!DOCTYPE svg PUBLIC "-//W3C//DTD SVG 1.1//EN" "http://www.w3.org/Graphics/SVG/1.1/DTD/svg11.dtd">
<svg version="1.1" id="Capa_1" xmlns="http://www.w3.org/2000/svg" xmlns:xlink="http://www.w3.org/1999/xlink" x="0px" y="0px"
	 width="64px" height="64px" viewBox="0 0 64 64" enable-background="new 0 0 64 64" xml:space="preserve">
<g>
	<path fill="#0E0F0F" d="M44.17,56.586c-2.111-2.98-3.865-6.182-5.359-9.516c-1.035-2.311-2.123-5.133-2.394-7.852
		c0.271-0.887,0.326-1.871,0.181-2.861c-0.707-4.764-1.412-9.525-2.117-14.291c2.475,1.979,3.705,4.884,3.283,8.684
		c-0.334,2.983,4.33,2.952,4.66,0c0.799-7.165-3.355-12.497-9.695-14.911c-0.555-0.539-1.26-0.936-2.011-1.184l-1.869,4.562
		l0.237-3.521l0.279-0.042l-0.092-0.624l-1.644,0.243l0.092,0.625l0.223-0.033l0.646,3.897l-2.243-4.588
		c-1.495,0.999-2.461,5.163-2.521,5.595c-0.577,4.224-2.478,7.653-6.502,9.384c-2.753,1.185-0.376,5.199,2.352,4.023
		c2.492-1.072,4.476-2.804,5.925-4.924c0.375,2.534,0.75,5.066,1.125,7.602c-3.777,7.179-4.375,15.303-1.132,22.994
		c1.438,3.405,7.077,1.91,5.617-1.549c-2.298-5.451-2.445-10.787-0.581-15.893c0.164,0.041,0.33,0.072,0.496,0.099
		c1.225,6.158,4.599,12.198,8.015,17.019C41.293,62.564,46.348,59.659,44.17,56.586z M28.617,19.786l-0.008,0.019l-0.011-0.021
		L28.617,19.786z M29.461,23.461c0.471,0,0.854,0.382,0.854,0.854c0,0.47-0.382,0.853-0.854,0.853c-0.47,0-0.852-0.382-0.852-0.853
		S28.991,23.461,29.461,23.461z M28.752,27.605c0-0.471,0.381-0.852,0.853-0.852c0.471,0,0.852,0.381,0.852,0.852
		s-0.381,0.852-0.852,0.852S28.752,28.076,28.752,27.605z M30.111,31.849c-0.47,0-0.852-0.381-0.852-0.852
		c0-0.471,0.382-0.853,0.852-0.853c0.472,0.001,0.854,0.382,0.854,0.853C30.965,31.468,30.583,31.849,30.111,31.849z"/>
	<path fill="#0E0F0F" d="M31.87,7.469c1.969-0.159,2.218,1.426,2.218,1.426c0-2.85-2.309-5.159-5.158-5.159
		c-2.849,0-5.16,2.31-5.16,5.159c0,0,1.227-0.735,2.954-2.462C26.724,7.636,27.742,8.794,31.87,7.469z"/>
</g>
</svg>
