<?xml version="1.0" encoding="utf-8"?>
<!-- Generator: Adobe Illustrator 16.0.4, SVG Export Plug-In . SVG Version: 6.00 Build 0)  -->
<!DOCTYPE svg PUBLIC "-//W3C//DTD SVG 1.1//EN" "http://www.w3.org/Graphics/SVG/1.1/DTD/svg11.dtd">
<svg version="1.1" id="Capa_1" xmlns="http://www.w3.org/2000/svg" xmlns:xlink="http://www.w3.org/1999/xlink" x="0px" y="0px"
	 width="64px" height="64px" viewBox="0 0 64 64" enable-background="new 0 0 64 64" xml:space="preserve">
<g>
	<path fill="#0E0F0F" d="M53.566,40.303c-6.846-0.848-13.729-1.594-20.619-2.086c-0.525-2.92-1-5.285-0.233-7.16
		c0.087-0.076,0.706-1.14,0.81-1.277c0.375-0.496,0.756-0.984,1.166-1.452c1.154-1.318,2.406-2.551,3.629-3.805
		c1.996-2.043,2.627-5.029,0.652-7.385c-0.826-0.987-2.127-1.649-3.474-1.837C30.348,12.85,25,10.901,19.511,9.323
		c-4.179-1.2-6.498,5.179-2.281,6.392c3.825,1.1,7.579,2.38,11.246,3.884c-2.368,2.411-4.651,5.031-5.732,8.139
		c-1.136,3.264-0.982,6.644-0.498,9.991c-1.709-0.024-3.418-0.067-5.11-0.26c-3.004-0.342-6.531-0.463-9.103,1.424
		c-4.777,3.506-1.261,8.691-0.795,13.201c0.449,4.359,7.128,3.158,6.682-1.172c-0.224-2.166-1.231-4.107-1.584-6.232
		c-0.17-1.024-0.477-0.424,0.589-0.559c1.549-0.197,3,0.068,4.542,0.199c4.846,0.408,9.75,0.283,14.612,0.65
		c6.987,0.531,13.97,1.223,20.925,2.084C57.35,47.602,57.904,40.84,53.566,40.303z"/>
	<circle fill="#0E0F0F" cx="46.843" cy="17.792" r="5.323"/>
</g>
</svg>
