<?xml version="1.0" encoding="utf-8"?>
<!-- Generator: Adobe Illustrator 16.0.4, SVG Export Plug-In . SVG Version: 6.00 Build 0)  -->
<!DOCTYPE svg PUBLIC "-//W3C//DTD SVG 1.1//EN" "http://www.w3.org/Graphics/SVG/1.1/DTD/svg11.dtd">
<svg version="1.1" id="Capa_1" xmlns="http://www.w3.org/2000/svg" xmlns:xlink="http://www.w3.org/1999/xlink" x="0px" y="0px"
	 width="64px" height="64px" viewBox="0 0 64 64" enable-background="new 0 0 64 64" xml:space="preserve">
<g>
	<path fill="#0E0F0F" d="M50.794,1.014c-9.917,0.874-17.235,5.824-21.501,12.98c-2.859,3.584-8.57,14.526-10.647,20.254
		c-3.766,7.123-7.05,15.598-9.62,23.238c-1.571,4.672,5.483,7.72,7.063,3.027c1.922-5.716,4.244-11.896,6.868-17.631
		c2.604,5.828,5.25,11.637,8.091,17.354c2.202,4.438,8.828,0.546,6.634-3.877c-2.925-5.885-5.642-11.864-8.319-17.863
		c0.034-0.116,0.077-0.229,0.113-0.344c0.446,0.127,0.938,0.166,1.48,0.063c4.096-0.769,8.192-1.536,12.291-2.305
		c1.751-0.329,2.422-2.245,2.146-3.779c-0.828-4.597-3.447-7.795-6.707-10.821c-0.484-1.646-2.098-3.102-3.889-4.549
		c3.631-5.87,9.559-9.056,17.275-9.736C56.01,6.68,54.698,0.671,50.794,1.014z M35.87,27.143c1.013,1.054,1.875,2.163,2.526,3.447
		c-1.982,0.372-3.965,0.743-5.947,1.115C33.449,30.095,34.6,28.575,35.87,27.143z"/>
	<circle fill="#0E0F0F" cx="44.35" cy="16.635" r="5.275"/>
</g>
</svg>
