<?xml version="1.0" encoding="iso-8859-1"?>
<!-- Generator: Adobe Illustrator 16.0.0, SVG Export Plug-In . SVG Version: 6.00 Build 0)  -->
<!DOCTYPE svg PUBLIC "-//W3C//DTD SVG 1.1//EN" "http://www.w3.org/Graphics/SVG/1.1/DTD/svg11.dtd">
<svg version="1.1" id="Capa_1" xmlns="http://www.w3.org/2000/svg" xmlns:xlink="http://www.w3.org/1999/xlink" x="0px" y="0px"
	 width="500px" height="500px" viewBox="0 0 500 500" style="enable-background:new 0 0 500 500;" xml:space="preserve">
<g>
	<path d="M109.289,103.836L109.289,103.836c0.143,0.002,0.748,0.002,0.89,0.001v-0.001c27.818-0.252,50.295-22.871,50.295-50.749
		S137.997,2.589,110.179,2.338V2.337c-0.142-0.001-0.747-0.001-0.89,0v0.001C81.47,2.589,58.994,25.209,58.994,53.087
		S81.47,103.584,109.289,103.836z"/>
	<circle cx="395.214" cy="53.097" r="50.761"/>
	<path d="M422.483,112.576c-4.62-2.58-9.579-4.535-14.614-5.769l-12.652,12.729l-12.261-12.87c-0.056,0.009-0.103,0.017-0.134,0.023
		c-6.473,1.542-20.603,8.905-21.604,9.532c-38.989,23.912-56.108,59.195-74.03,140.866c-1.602,7.316,1.137,14.516,6.441,19.073
		c1.84,12.408,0.833,21.681-3.132,24.472c-7.35,5.174-17.204-3.119-20.641-5.678c-3.87-3.013-8.4-5.207-13.094-6.326
		c-0.023-0.005-0.055-0.014-0.077-0.021l-7.371,7.735l-7.372-7.735c-0.022,0.007-0.054,0.016-0.077,0.021
		c-4.693,1.119-9.224,3.313-13.094,6.326c-3.437,2.559-13.291,10.852-20.641,5.678c-4.02-2.83-4.999-12.325-3.052-24.995
		c4.12-3.553,6.771-8.771,6.853-14.635c5.373-119.63-82.547-152.481-89.561-154.188l-12.639,12.724l-12.639-12.724
		c-7.014,1.707-94.933,34.559-89.561,154.188c0.15,10.782,8.945,19.429,19.702,19.429c0.098,0,0.183,0,0.286-0.008
		c10.877-0.162,19.579-9.076,19.43-19.971c-0.302-21.417,1.405-38.182,4.554-51.597c0,0,3.148-11.896,6.308-13.479v30.244
		c-5.554,24.048-28.732,125.31-28.811,140.426c-0.031,7.395,13.994,12.785,33.635,15.981v92.361
		c0,12.854,8.433,23.274,21.288,23.274c12.87,0,23.541-10.423,23.541-23.274l-0.25-89.009c0.173,0,0.345-0.002,0.518-0.005
		c0.172,0.003,3.594,0.005,3.768,0.005v89.009c0,12.852,10.419,23.274,23.29,23.274c12.854,0,22.037-10.421,22.037-23.274v-92.361
		c19.641-3.196,33.666-8.587,33.635-15.981c-0.078-15.116-23.256-116.378-28.811-140.426v-30.244
		c3.158,1.584,6.309,13.479,6.309,13.479c3.146,13.415,4.854,30.18,4.553,51.597c-0.104,7.504,3.994,14.066,10.107,17.479
		c-1.903,18.859,2.095,32.318,11.957,40.03c6.242,4.883,13.511,6.413,20.169,6.413c1.125,0,2.229-0.05,3.312-0.129
		c-0.025,1.144-0.045,2.322-0.045,3.558v46.763c0,3.188,1.043,8.342,2.145,11.066c-0.09,0.619-0.136,97.996-0.136,97.996
		c0,7.746,6.281,14.035,14.033,14.035s14.024-6.287,14.024-14.035v-82.158l0.477,0.002v0.008l0.758-0.004l0.757,0.004v-0.008
		l0.477-0.002v82.158c0,7.748,6.272,14.035,14.024,14.035s14.033-6.289,14.033-14.035c0,0-0.046-97.377-0.136-97.996
		c1.102-2.725,2.145-7.879,2.145-11.066v-46.763c0-1.235-0.02-2.414-0.045-3.558c1.083,0.079,2.187,0.129,3.312,0.129
		c6.658,0,13.927-1.53,20.17-6.413c9.835-7.69,13.839-21.095,11.973-39.872c1.216-0.568,2.386-1.246,3.463-2.082
		c3.01-2.663,5.253-6.248,6.19-10.471c5.862-26.713,11.447-46.425,17.565-65.047v62.516c0,6.021,1.345,12.369,3.646,17.413
		l-0.132,193.964c0,12.854,10.422,23.281,23.292,23.281c12.854,0,23.282-10.43,23.282-23.281V307.72l3.307,0.017v166.647
		c0,12.854,10.43,23.28,23.291,23.28s23.292-10.428,23.292-23.28l-0.047-194.007c2.503-5.237,3.971-11.048,3.971-17.375v-62.263
		c0,0,9.826,16.365,5.236,56.246c-1.098,10.83,6.813,20.486,17.646,21.576c0.664,0.062,1.321,0.093,1.985,0.093
		c10.004,0,18.563-7.578,19.583-17.729C500.507,172.245,453.631,129.646,422.483,112.576z M395.214,244.702
		c-3.271,0-5.918-2.648-5.918-5.913c0-3.268,2.647-5.917,5.918-5.917c3.268,0,5.917,2.649,5.917,5.917
		C401.131,242.052,398.481,244.702,395.214,244.702z M395.214,226.147c-3.271,0-5.918-2.65-5.918-5.917
		c0-3.269,2.647-5.917,5.918-5.917c3.268,0,5.917,2.648,5.917,5.917C401.131,223.497,398.481,226.147,395.214,226.147z
		 M395.214,208.347c-3.271,0-5.918-2.648-5.918-5.916s2.647-5.918,5.918-5.918c3.268,0,5.917,2.649,5.917,5.918
		S398.481,208.347,395.214,208.347z M396.188,185.289l-9.152-50.626l8.182-8.045l8.56,7.91L396.188,185.289z"/>
	<path d="M248.315,286.875c0.328,0.011,0.656,0.025,0.987,0.025c0.004,0,0.008-0.001,0.013-0.001c0.004,0,0.008,0.001,0.012,0.001
		c0.332,0,0.659-0.015,0.988-0.025c16.429-0.536,29.58-14.01,29.579-30.574c0-16.55-13.151-29.962-29.579-30.494v-0.001
		c-0.329-0.01-0.656-0.024-0.988-0.024c-0.004,0-0.008,0-0.012,0c-0.005,0-0.009,0-0.013,0c-0.331,0-0.659,0.015-0.987,0.024v0.001
		c-16.428,0.532-29.58,13.944-29.58,30.494C218.734,272.865,231.887,286.34,248.315,286.875z"/>
</g>
</svg>
