<?xml version="1.0" encoding="utf-8"?>
<!-- Generator: Adobe Illustrator 16.0.0, SVG Export Plug-In . SVG Version: 6.00 Build 0)  -->
<!DOCTYPE svg PUBLIC "-//W3C//DTD SVG 1.1//EN" "http://www.w3.org/Graphics/SVG/1.1/DTD/svg11.dtd">
<svg version="1.1" id="Capa_1" xmlns="http://www.w3.org/2000/svg" xmlns:xlink="http://www.w3.org/1999/xlink" x="0px" y="0px"
	 width="64px" height="64px" viewBox="0 0 64 64" enable-background="new 0 0 64 64" xml:space="preserve">
<g>
	<path fill="#0E0F0F" d="M45.588,18.065c-0.008-0.012-0.016-0.019-0.023-0.028c-0.551-0.88-1.246-1.66-2.06-2.299v7.586l3.431,5.059
		c0.955,1.352,0.879,4.329,0,6.336l-0.199-4.297l-4.406-6.749V14.95c-0.507-0.283-1.043-0.518-1.605-0.7v4.705H35.21v-4.702
		c-0.563,0.182-1.101,0.417-1.606,0.701v8.721l-4.41,6.749l-0.198,30.266c0,1.817,1.475,3.293,3.292,3.293
		c1.817,0,3.293-1.476,3.293-3.293c0,0,1.563-21.543,2.383-21.543c0.815,0,2.332,21.543,2.332,21.543
		c0,1.817,1.476,3.293,3.291,3.293c1.822,0,3.294-1.476,3.294-3.293l0.029-21.433c1.006,0.484,2.359,0.42,3.217-0.69
		C54.346,33.096,49.24,22.913,45.588,18.065z M36.365,27.087c-0.568,0-1.027-0.462-1.027-1.03s0.459-1.029,1.027-1.029
		s1.029,0.461,1.029,1.029C37.396,26.626,36.936,27.087,36.365,27.087z M39.563,27.087c-0.565,0-1.027-0.462-1.027-1.03
		s0.462-1.029,1.027-1.029c0.569,0,1.03,0.461,1.03,1.029C40.593,26.626,40.132,27.087,39.563,27.087z"/>
	<path fill="#0E0F0F" d="M32.425,23.323v-7.581c-0.949,0.749-8.955,11.645-9.261,12.262c-1.37,0.389-2.756,0.708-4.15,0.998V23
		c3.465-0.329,6.185-3.252,6.185-6.802v-5.414h-1.176v5.414c0,2.086-1.138,3.907-2.822,4.89V10.775h-1.176v10.833
		c-0.855,0.267-2.322,0.283-3.234,0.024v-10.86h-1.175v10.369c-1.735-0.969-2.912-2.821-2.912-4.943v-5.414h-1.176v5.414
		c0,3.578,2.765,6.518,6.271,6.807v6.245c-0.021,0.004-0.042,0.008-0.062,0.012c-2.533,0.506-1.986,3.862,0.062,4.48V63.98h1.214
		V33.793c2.239-0.447,4.467-0.921,6.644-1.624C26.945,31.751,27.881,30.309,32.425,23.323z"/>
	<path fill="#0E0F0F" d="M35.795,18.366h4.338v-4.283c-0.693-0.174-1.418-0.269-2.164-0.269c-0.75,0-1.478,0.096-2.174,0.27V18.366z
		"/>
	<path fill="#0E0F0F" d="M33.307,9.07c0.264,2.452,2.25,4.365,4.657,4.365c2.408,0,4.396-1.914,4.658-4.365
		c2.662-0.373,4.383-2.269,4.461-2.359c0.451-0.507,0.403-1.281-0.104-1.734c-0.506-0.455-1.285-0.411-1.74,0.092
		c-0.016,0.015-1.213,1.31-2.947,1.556c-0.117-0.291-0.262-0.568-0.428-0.828c0.007-0.017-0.598-5.429-0.598-5.429
		c0-0.203-0.221-0.368-0.49-0.368h-5.996c-0.271,0-0.491,0.165-0.491,0.368c0,0-0.437,5.574-0.349,5.64
		c-0.111,0.199-0.219,0.404-0.303,0.619C31.913,6.38,30.722,5.104,30.69,5.07c-0.452-0.506-1.23-0.552-1.739-0.101
		c-0.51,0.452-0.558,1.232-0.106,1.742C28.926,6.801,30.645,8.697,33.307,9.07z M34.557,6.114h6.816
		c0.111,0.176,0.208,0.363,0.293,0.555h-7.404C34.35,6.478,34.443,6.29,34.557,6.114z M42.021,9.125
		c-0.28,2.1-1.992,3.721-4.06,3.721c-2.063,0-3.772-1.621-4.056-3.721C34.008,9.13,41.923,9.13,42.021,9.125z"/>
</g>
</svg>
