<?xml version="1.0" encoding="utf-8"?>
<!-- Generator: Adobe Illustrator 16.0.4, SVG Export Plug-In . SVG Version: 6.00 Build 0)  -->
<!DOCTYPE svg PUBLIC "-//W3C//DTD SVG 1.1//EN" "http://www.w3.org/Graphics/SVG/1.1/DTD/svg11.dtd">
<svg version="1.1" id="Capa_1" xmlns="http://www.w3.org/2000/svg" xmlns:xlink="http://www.w3.org/1999/xlink" x="0px" y="0px"
	 width="64px" height="64px" viewBox="0 0 64 64" enable-background="new 0 0 64 64" xml:space="preserve">
<g>
	<circle fill="#0E0F0F" cx="41.3" cy="8.56" r="4.832"/>
	<path fill="#0E0F0F" d="M49.078,15.89c-0.342-0.605-0.809-0.958-1.314-1.129v-0.012c-0.035-0.007-0.062-0.01-0.097-0.016
		c-0.159-0.046-0.321-0.075-0.485-0.085c-1.899-0.305-2.666,0.012-2.666,0.012l-2.574,5.294l0.561-4.725h0.094v-0.783h-1.947v0.783
		h0.101l0.661,4.728l-2.575-5.511c-0.239,0.067,0.058,0.01-0.17,0.098c0,0-0.915-1.063-4.363,0.668
		c-0.015,0.018-0.024,0.039-0.038,0.056c-0.695,0.064-1.359,0.439-1.796,1.262c-2.64,4.983-4.788,10.227-7.694,15.068
		c-0.28,0.467-0.382,0.923-0.371,1.353c-0.346,0.354-0.557,0.846-0.617,1.386c-0.207,1.847-1.128,2.997-2.771,3.328
		c-0.696-0.442-1.51-0.698-2.363-0.698c-0.111,0-0.217,0.01-0.325,0.018c-0.313-0.062-0.695-0.062-1.156,0.021
		c-2.869,0.23-4.628,1.079-5.713,3.291c-1.003,2.044-1.217,4.249-1.42,6.487c-0.224,2.472,3.625,2.448,3.847,0
		c0.108-1.196,0.176-2.675,0.615-3.857v4.085c0,0.295,0.034,0.549,0.092,0.772c-0.002,0.042-0.012,0.077-0.012,0.12
		c0,3.475,0,7.588,0,11.062c0,2.481,3.847,2.481,3.847,0c0-3.002,0-6.481,0-9.612c0.129,0.006,0.257,0.013,0.383,0.021
		c0.137,0.01,0.276,0.02,0.418,0.027c0,3.119,0,6.576,0,9.563c0,2.481,3.847,2.481,3.847,0c0-3.474,0-7.587,0-11.062
		c0-0.081-0.015-0.154-0.023-0.231c0.041-0.2,0.068-0.415,0.068-0.661v-5.479c0-0.166-0.008-0.329-0.024-0.489
		c0.821-0.312,1.587-0.761,2.287-1.392c1.227-1.105,1.805-2.68,2.094-4.271c0.656-0.096,1.284-0.46,1.727-1.194
		c2.085-3.475,3.78-7.154,5.546-10.796l-0.042,16.235v18.565c0,1.526,1.118,2.765,2.687,2.765c1.57,0,2.842-1.237,2.842-2.765V38.85
		c0,0,0.093-0.979,1.092-0.992c1-0.012,0.973,0.943,0.973,0.943v19.34c0,1.527,1.273,2.764,2.844,2.764
		c1.569,0,2.842-1.235,2.842-2.764l0.094-19.957c0-0.134,0.01-6.812,0.018-11.971c0.482,1.724,0.75,3.511,0.693,5.396
		c-0.1,3.311,5.029,3.3,5.129,0C54.087,25.89,51.831,20.778,49.078,15.89z M41.598,31.074c-0.478,0-0.865-0.389-0.865-0.867
		c0-0.479,0.389-0.866,0.865-0.866c0.479,0,0.866,0.388,0.866,0.866S42.076,31.074,41.598,31.074z M41.598,28.349
		c-0.478,0-0.865-0.388-0.865-0.867s0.389-0.867,0.865-0.867c0.479,0,0.866,0.388,0.866,0.867S42.076,28.349,41.598,28.349z
		 M41.662,25.623c-0.479,0-0.867-0.389-0.867-0.867s0.389-0.866,0.867-0.866s0.865,0.388,0.865,0.866S42.141,25.623,41.662,25.623z"
		/>
	<circle fill="#0E0F0F" cx="18.505" cy="32.459" r="3.267"/>
</g>
</svg>
