<?xml version="1.0" encoding="utf-8"?>
<!-- Generator: Adobe Illustrator 16.0.4, SVG Export Plug-In . SVG Version: 6.00 Build 0)  -->
<!DOCTYPE svg PUBLIC "-//W3C//DTD SVG 1.1//EN" "http://www.w3.org/Graphics/SVG/1.1/DTD/svg11.dtd">
<svg version="1.1" id="Capa_1" xmlns="http://www.w3.org/2000/svg" xmlns:xlink="http://www.w3.org/1999/xlink" x="0px" y="0px"
	 width="64px" height="64px" viewBox="0 0 64 64" enable-background="new 0 0 64 64" xml:space="preserve">
<g>
	<path fill="#0E0F0F" d="M41.352,33.441c0.155-0.748,0.058-1.524-0.412-2.149c-2.619-3.495-5.24-6.989-7.862-10.483
		c-0.951-1.266-2.411-1.993-3.905-1.461c-0.483,0.127-0.929,0.394-1.246,0.805c-0.917,0.965-1.354,2.555-0.658,3.725
		c-0.236,2.676-0.55,5.336-1.173,7.963c-0.029,0.125-0.039,0.243-0.049,0.361h-4.155l-5.679,9.534H5.589l-2.474-8.442H16.61
		l-2.006,3.457H6.101v1.312h9.259l3.527-6.079H1.367l3.231,11.032l0.41,0.033h11.948l5.678-9.535h3.725
		c0.916,1.397,3.454,1.567,3.947-0.513c0.316-1.333,0.56-2.68,0.758-4.032c1.055,1.407,2.11,2.813,3.167,4.221
		c-1.008,0.908-1.937,1.908-2.806,2.914c-0.86,0.994-1.091,1.822-1.054,3.092c0.087,3.131,0.176,6.259,0.264,9.388
		c0.078,2.812,4.446,2.819,4.367,0c-0.09-3.22-0.182-6.437-0.27-9.653c0.779-0.91,1.615-1.812,2.524-2.605
		c0.341,3.844,1.427,8.756,1.427,12.115c0,2.815,4.368,2.815,4.368,0c0-3.979-1.53-10.146-1.53-14.123
		C41.521,33.982,41.459,33.693,41.352,33.441z"/>
	<circle fill="#0E0F0F" cx="24.837" cy="16.37" r="3.814"/>
	<circle fill="#0E0F0F" cx="13.163" cy="48.324" r="1.748"/>
	<circle fill="#0E0F0F" cx="6.755" cy="48.324" r="1.748"/>
	<rect x="4.681" y="43.977" fill="#0E0F0F" width="12.122" height="1.203"/>
	<circle fill="#0E0F0F" cx="51.354" cy="33.368" r="2.299"/>
	<path fill="#0E0F0F" d="M59.889,43.244c-0.529,0.417-1.017,0.84-1.539,1.227c-0.807-1.191-1.554-2.431-2.082-3.771
		c-0.041-0.106-0.096-0.198-0.154-0.282l-0.436-1.206c1.207,0.479,2.398,0.998,3.565,1.575c1.382,0.682,2.599-1.388,1.211-2.071
		c-2.134-1.054-4.331-1.958-6.585-2.723c-0.057-0.018-0.107-0.025-0.163-0.035c-0.285-0.107-0.608-0.159-0.968-0.134
		c-0.656,0.045-1.354,0.444-1.786,1.013c-0.673,0.633-1.345,1.268-2.017,1.898c-1.158-0.387-2.317-0.771-3.478-1.158
		c-1.474-0.491-2.099,1.826-0.638,2.312c1.365,0.455,2.731,0.912,4.099,1.367c0.409,0.137,0.866-0.023,1.168-0.309
		c0.302-0.286,0.604-0.572,0.907-0.855c0.383,1.314,0.736,2.002,0.736,2.002s0.203,0.399,0.554,0.811
		c-0.795,2.39-1.698,4.742-2.604,7.092c-0.559,1.447,1.764,2.066,2.313,0.641c0.899-2.336,1.796-4.666,2.588-7.037
		c0.046-0.025,0.093-0.041,0.14-0.07c0.072-0.025,0.141-0.061,0.205-0.098c0.609,1.143,1.315,2.226,2.073,3.291
		c0.381,0.541,1.033,0.771,1.642,0.432c1.094-0.617,1.965-1.438,2.942-2.213C62.796,43.979,61.086,42.293,59.889,43.244z"/>
</g>
</svg>
