<?xml version="1.0" encoding="utf-8"?>
<!-- Generator: Adobe Illustrator 16.0.4, SVG Export Plug-In . SVG Version: 6.00 Build 0)  -->
<!DOCTYPE svg PUBLIC "-//W3C//DTD SVG 1.1//EN" "http://www.w3.org/Graphics/SVG/1.1/DTD/svg11.dtd">
<svg version="1.1" id="Capa_1" xmlns="http://www.w3.org/2000/svg" xmlns:xlink="http://www.w3.org/1999/xlink" x="0px" y="0px"
	 width="64px" height="64px" viewBox="0 0 64 64" enable-background="new 0 0 64 64" xml:space="preserve">
<g>
	<path fill="#0E0F0F" d="M20.285,23.4l1.66,0.423c1.154,0.294,2.333-0.403,2.627-1.559c0.044-0.172,0.058-0.342,0.061-0.511
		c1.472-0.601,2.508-2.043,2.508-3.731c0-2.226-1.805-4.031-4.031-4.031s-4.031,1.805-4.031,4.031c0,0.584,0.127,1.138,0.351,1.638
		c-0.334,0.28-0.589,0.66-0.705,1.114C18.431,21.93,19.13,23.107,20.285,23.4z"/>
	<path fill="#0E0F0F" d="M19.709,29.233c0.583-0.202,1.723-1.078,2.831-4.631c-0.021,0-0.041,0.004-0.061,0.004
		c-0.234,0-0.471-0.029-0.699-0.088l-1.66-0.422c-0.732-0.186-1.349-0.647-1.735-1.298c-0.386-0.649-0.496-1.411-0.311-2.144
		c0.106-0.411,0.3-0.789,0.572-1.111c-0.158-0.476-0.238-0.969-0.238-1.474c0-0.282,0.03-0.555,0.076-0.822
		c-1.104,0.736-2.144,1.577-2.69,2.41c-1.915,2.926,0.084,6.34,1.762,8.839C17.973,29.069,19.006,29.544,19.709,29.233z"/>
	<circle fill="#0E0F0F" cx="26.362" cy="7.723" r="5.388"/>
	<path fill="#0E0F0F" d="M52.578,15.224c-1.557-0.652-3.287-0.251-4.41,0.873c-0.156-0.064-0.318-0.115-0.493-0.141
		c-0.657-0.097-1.284,0.121-1.745,0.531c-0.291-0.109-0.613-0.181-0.981-0.181c-4.722,0-9.44,0-14.161,0
		c-0.201,0-0.388,0.022-0.566,0.057c-0.952-1.635-2.963-2.551-4.91-2.447c1.485,0.791,2.501,2.355,2.501,4.152
		c0,1.776-0.984,3.372-2.544,4.175c-0.012,0.079-0.026,0.156-0.046,0.23c-0.285,1.121-2.002,2.199-2.002,2.199
		c-0.928,3.035-2.044,4.785-3.321,5.203c-0.204,0.066-0.394,0.093-0.563,0.093c-0.313,0-0.546-0.085-0.697-0.157
		c-0.137,1.956-0.21,3.917-0.221,5.88c-0.001,0.199,0.008,0.395,0.025,0.58c-3.326,7.008-6.985,13.86-9.399,21.258
		c-1.346,4.121,5.128,5.871,6.462,1.781c2.095-6.414,5.218-12.381,8.144-18.441c5.118,4.533,6.716,11.309,6.947,18.222
		c0.144,4.312,6.848,4.325,6.703,0c-0.292-8.733-2.62-17.063-8.849-22.87c0.012-0.148,0.023-0.3,0.024-0.455
		c0.028-4.842,0.374-9.537,1.625-14.184c0.213,0.052,0.438,0.086,0.688,0.086c4.72,0,9.44,0,14.161,0
		c0.33,0,0.617-0.062,0.885-0.149c0.275,0.203,0.596,0.351,0.959,0.405c0.463,0.068,0.912-0.02,1.3-0.22
		c0.376,0.4,0.837,0.73,1.374,0.956c2.055,0.86,4.416-0.107,5.275-2.162S54.632,16.082,52.578,15.224z"/>
</g>
</svg>
