<?xml version="1.0" encoding="utf-8"?>
<!-- Generator: Adobe Illustrator 16.0.4, SVG Export Plug-In . SVG Version: 6.00 Build 0)  -->
<!DOCTYPE svg PUBLIC "-//W3C//DTD SVG 1.1//EN" "http://www.w3.org/Graphics/SVG/1.1/DTD/svg11.dtd">
<svg version="1.1" id="Capa_1" xmlns="http://www.w3.org/2000/svg" xmlns:xlink="http://www.w3.org/1999/xlink" x="0px" y="0px"
	 width="64px" height="64px" viewBox="0 0 64 64" enable-background="new 0 0 64 64" xml:space="preserve">
<g>
	<path fill="#0E0F0F" d="M38.145,22.5c-0.879-1.18-2.008-1.298-2.008-1.298l-7.692-0.03c0,0-1.89-0.057-2.847,1.229
		c-3.694,4.974-6.446,10.904-5.81,17.119c0.412,4.028,5.971,4.069,5.554,0c-0.218-2.129,0.708-4.125,1.146-6.029v5.324
		c0,0.307,0.031,0.604,0.079,0.899c-0.003,0.058-0.008,0.111-0.008,0.17v15.894c0,1.59,1.185,2.879,2.646,2.879
		c1.46,0,2.644-1.289,2.644-2.879V44.439c0.094,0.004,0.187,0.014,0.281,0.014c0.092,0,0.18-0.008,0.269-0.014v11.336
		c0,1.59,1.186,2.879,2.646,2.879s2.646-1.289,2.646-2.879V39.883c0-0.037-0.006-0.074-0.008-0.111
		c0.057-0.311,0.09-0.631,0.09-0.959v-5.01c0.444,1.92,1.642,3.932,1.422,6.078c-0.416,4.07,4.613,4.031,5.023,0
		C44.854,33.666,41.838,27.474,38.145,22.5z"/>
	<circle fill="#0E0F0F" cx="32.264" cy="15.559" r="4.76"/>
	<path fill="#0E0F0F" d="M32.199,10.151c1.281-0.039,2.293-1.108,2.255-2.39c-0.035-1.173-1.136-2.372-2.102-1.742
		c0.009-0.296,0.079-0.563,0.212-0.797l-0.394-0.225c-0.181,0.318-0.274,0.679-0.274,1.074c-1.078-0.84-2.123,0.614-2.088,1.825
		C29.848,9.177,30.918,10.187,32.199,10.151z"/>
</g>
</svg>
