<?xml version="1.0" encoding="utf-8"?>
<!-- Generator: Adobe Illustrator 16.0.4, SVG Export Plug-In . SVG Version: 6.00 Build 0)  -->
<!DOCTYPE svg PUBLIC "-//W3C//DTD SVG 1.1//EN" "http://www.w3.org/Graphics/SVG/1.1/DTD/svg11.dtd">
<svg version="1.1" id="Capa_1" xmlns="http://www.w3.org/2000/svg" xmlns:xlink="http://www.w3.org/1999/xlink" x="0px" y="0px"
	 width="64px" height="64px" viewBox="0 0 64 64" enable-background="new 0 0 64 64" xml:space="preserve">
<g>
	<path fill="#0E0F0F" d="M31.6,15.004c2.446,0,4.427-1.982,4.427-4.427h-8.854C27.172,13.021,29.155,15.004,31.6,15.004z"/>
	<rect x="27.172" y="8.457" fill="#0E0F0F" width="8.855" height="1.585"/>
	<rect x="27.172" y="2.411" fill="#0E0F0F" width="8.855" height="5.393"/>
	<path fill="#0E0F0F" d="M30.659,39.018h1.948h1.457V22.206c0.097-2.609-6.765-5.34-6.911-5.332c-0.05,0-1.515,0.361-1.515,0.361
		c-6.557,1.163-7.031,11.322-6.791,17.861h0.031c0.039,0.844,0.086,1.615,0.129,2.276c0.207,3.101,5.054,3.121,4.847,0
		c-0.053-0.796-0.084-1.597-0.103-2.399h-0.008c-0.019-1.578,0.021-3.163,0.138-4.729c0.08-1.054,0.257-4.948,1.205-6.993
		c0.051,0.258,0.09,0.421,0.09,0.421c0.004,3.349-0.562,15.346-0.562,15.346H30.659z M32.139,26.694
		c0.441,0,0.798,0.357,0.798,0.798c0,0.44-0.357,0.797-0.798,0.797c-0.44,0-0.797-0.357-0.797-0.797
		C31.342,27.051,31.699,26.694,32.139,26.694z M32.139,30.694c0.441,0,0.798,0.357,0.798,0.798c0,0.44-0.357,0.797-0.798,0.797
		c-0.44,0-0.797-0.357-0.797-0.797C31.342,31.051,31.699,30.694,32.139,30.694z M29.169,26.671c0.44,0,0.797,0.357,0.797,0.798
		c0,0.44-0.357,0.797-0.797,0.797s-0.799-0.357-0.799-0.797C28.37,27.028,28.729,26.671,29.169,26.671z M29.169,30.671
		c0.44,0,0.797,0.358,0.797,0.798c0,0.44-0.357,0.798-0.797,0.798s-0.799-0.358-0.799-0.798
		C28.37,31.029,28.729,30.671,29.169,30.671z"/>
	<path fill="#0E0F0F" d="M37.564,17.181v-0.032c-0.43-0.116-0.881-0.197-1.369-0.227c-0.053-0.002-0.098,0.006-0.146,0.006
		c-0.057-0.003-0.146-0.008-0.253-0.014c-1.774-0.232-4.374-0.21-6.273-0.148c2,0.833,6.254,2.936,5.729,5.557l0.012,16.694h3.174
		l-0.002-0.054h0.149c0,0-0.565-11.999-0.562-15.347c0,0,0.039-0.164,0.09-0.422c0.947,2.046,1.125,5.939,1.205,6.994
		c0.117,1.566,0.156,3.149,0.139,4.728h-0.009c-0.019,0.804-0.05,1.604-0.101,2.399c-0.209,3.121,4.639,3.103,4.846,0
		c0.043-0.662,0.091-1.434,0.13-2.276h0.03C44.593,28.504,44.12,18.347,37.564,17.181z"/>
	<path fill="#0E0F0F" d="M35.262,39.67h-7.32H25.37v0.055h-0.145l-0.242,17.019l0.3,0.399l0.007,1.783
		c0,0.797,0.373,1.499,0.949,1.979c0.438,0.388,1.006,0.632,1.669,0.632c0.005,0,0.009-0.002,0.009-0.002
		c0.022,0,0.039,0.005,0.056,0.005c1.483,0,2.685-1.17,2.685-2.612v-1.831l0.3-0.302l-0.3-12.396h1.884l-0.3,12.396l0.3,0.351v1.729
		c0,0.551,0.179,1.063,0.481,1.485c0.475,0.736,1.311,1.23,2.27,1.23c1.114,0,1.988-0.66,2.354-1.604
		c0.166-0.338,0.267-0.715,0.267-1.113l0.006-1.682l0.302-0.396L37.979,39.67H35.262z"/>
</g>
</svg>
