<?xml version="1.0" encoding="utf-8"?>
<!-- Generator: Adobe Illustrator 16.0.4, SVG Export Plug-In . SVG Version: 6.00 Build 0)  -->
<!DOCTYPE svg PUBLIC "-//W3C//DTD SVG 1.1//EN" "http://www.w3.org/Graphics/SVG/1.1/DTD/svg11.dtd">
<svg version="1.1" id="Capa_1" xmlns="http://www.w3.org/2000/svg" xmlns:xlink="http://www.w3.org/1999/xlink" x="0px" y="0px"
	 width="64px" height="64px" viewBox="0 0 64 64" enable-background="new 0 0 64 64" xml:space="preserve">
<g>
	<path fill="#0E0F0F" d="M47.607,26.893c-2.969-4.241-6.556-7.944-11.189-10.349c-0.236-0.122-2.469-0.94-3.418-1.057l-2.249,3.208
		l-2.1-2.997c-1.203,0.061-1.673-0.044-2.968,0.43c-2.182,0.799-3.818,6.348-4.585,8.535c-0.768,2.187,1.522,3.549,3.21,4.003h7.889
		c1.003,0,1.819-0.817,1.819-1.82c0-1.003-0.815-1.819-1.819-1.819h-6.015v-0.804h6.015c1.446,0,2.624,1.177,2.624,2.623
		c0,1.446-1.178,2.623-2.624,2.623h-6.588l-0.271,25.82c0,1.646,1.334,2.98,2.981,2.98c1.646,0,2.981-1.334,2.981-2.98V41.742
		c0,0,0.029,0.132-0.016-1.033c0.85-2.034,1.938-0.221,1.938-0.221l1.065,11.5c0.121,1.388,1.369,2.687,2.758,2.563
		c1.39-0.122,2.392-1.616,2.271-3.005l-1.072-11.58l0.006-0.001c0,0-1.473-14.48-1.673-14.644c0.06-0.895,0.11-1.789,0.155-2.686
		c2.529,1.82,4.674,4.104,6.486,6.693C45.057,31.955,49.463,29.544,47.607,26.893z"/>
	<circle fill="#0E0F0F" cx="31.114" cy="10.079" r="4.349"/>
	<path fill="#0E0F0F" d="M30.8,15.863h-0.323c-0.025-0.211-0.229-0.376-0.478-0.376c-0.268,0-0.484,0.188-0.484,0.419v0.561
		c0,0.231,0.217,0.419,0.484,0.419c0.26,0,0.471-0.179,0.481-0.402h0.316c0.01,0.223,0.221,0.402,0.482,0.402
		c0.266,0,0.483-0.188,0.483-0.419v-0.561c0-0.231-0.217-0.419-0.483-0.419C31.028,15.487,30.825,15.652,30.8,15.863z"/>
</g>
</svg>
