<?xml version="1.0" encoding="utf-8"?>
<!-- Generator: Adobe Illustrator 16.0.4, SVG Export Plug-In . SVG Version: 6.00 Build 0)  -->
<!DOCTYPE svg PUBLIC "-//W3C//DTD SVG 1.1//EN" "http://www.w3.org/Graphics/SVG/1.1/DTD/svg11.dtd">
<svg version="1.1" id="Capa_1" xmlns="http://www.w3.org/2000/svg" xmlns:xlink="http://www.w3.org/1999/xlink" x="0px" y="0px"
	 width="64px" height="64px" viewBox="0 0 64 64" enable-background="new 0 0 64 64" xml:space="preserve">
<g>
	<path fill="#0E0F0F" d="M28.654,17.765c0,2.345,1.906,4.25,4.25,4.25c2.343,0,4.248-1.905,4.248-4.25
		c0-0.157-0.029-0.306-0.046-0.458h1.428V8.071c0-3.109-2.522-5.629-5.63-5.629c-3.11,0-5.632,2.52-5.632,5.629v9.236H28.7
		C28.684,17.459,28.654,17.608,28.654,17.765z M36.626,17.765c0,2.052-1.671,3.722-3.722,3.722c-2.053,0-3.723-1.669-3.723-3.722
		c0-0.157,0.027-0.306,0.046-0.458h7.353C36.599,17.459,36.626,17.608,36.626,17.765z"/>
	<path fill="#0E0F0F" d="M33.727,59.984c0,1.261,1.051,2.281,2.344,2.281c1.296,0,2.345-1.021,2.345-2.281l0.058-11.99h-4.744
		L33.727,59.984z"/>
	<path fill="#0E0F0F" d="M27.463,60.031c0,1.258,0.921,2.279,2.217,2.279c1.293,0,2.343-1.021,2.343-2.279V47.994h-4.56V60.031z"/>
	<path fill="#0E0F0F" d="M22.399,41.619c0.085,1.27,1.06,1.938,2.053,2.02v-4.195h-2.175C22.312,40.252,22.357,40.993,22.399,41.619
		z"/>
	<path fill="#0E0F0F" d="M24.451,35.035h-0.316l0.248-8.962c-2.096,3.287-2.27,8.827-2.126,12.842h2.194V35.035z"/>
	<path fill="#0E0F0F" d="M37.404,23.497c-0.002,0-0.006,0.001-0.008,0.001c-2.201-0.543-7.701-0.223-8.375-0.182
		c-0.043,0.001-0.083-0.008-0.128-0.005c-0.427,0.027-0.823,0.099-1.197,0.199l0.317,11.525H27.7v3.527h2.398v-14.06h1.049v14.062
		h7.326V41.3h-7.326v5.418h-1.049V41.3H27.7v3.312h-0.679l-0.085,2.767h5.089h1.702h5.275c0,0-0.495-15.25-0.488-18.173
		c0,0,0.031-0.143,0.076-0.368c0.831,1.785,0.98,5.188,1.053,6.104c0.105,1.402,0.141,2.822,0.121,4.238h4.276
		C44.256,33.242,43.803,23.887,37.404,23.497z M33.941,36.337c-0.395,0-0.715-0.319-0.715-0.716c0-0.395,0.319-0.715,0.715-0.715
		s0.716,0.32,0.716,0.715C34.657,36.018,34.337,36.337,33.941,36.337z M33.941,34.088c-0.395,0-0.715-0.318-0.715-0.713
		c0-0.396,0.319-0.717,0.715-0.717s0.716,0.32,0.716,0.717C34.657,33.77,34.337,34.088,33.941,34.088z M33.994,31.838
		c-0.395,0-0.717-0.32-0.717-0.714c0-0.395,0.322-0.715,0.717-0.715c0.396,0,0.716,0.32,0.716,0.715S34.391,31.838,33.994,31.838z"
		/>
	<path fill="#0E0F0F" d="M39.666,41.805c-0.182,2.725,4.053,2.706,4.232,0c0.041-0.605,0.082-1.318,0.119-2.097h-4.263
		C39.74,40.408,39.714,41.107,39.666,41.805z"/>
	<rect x="29.175" y="38.915" fill="#0E0F0F" width="5.699" height="2.034"/>
	<polygon fill="#0E0F0F" points="26.9,22.45 26.171,22.45 26.171,14.535 25.651,14.535 25.651,22.45 25.132,22.45 24.821,33.723 
		25.132,33.723 25.132,43.907 26.9,43.907 26.9,33.723 27.21,33.723 	"/>
</g>
</svg>
