<?xml version="1.0" encoding="utf-8"?>
<!-- Generator: Adobe Illustrator 16.0.4, SVG Export Plug-In . SVG Version: 6.00 Build 0)  -->
<!DOCTYPE svg PUBLIC "-//W3C//DTD SVG 1.1//EN" "http://www.w3.org/Graphics/SVG/1.1/DTD/svg11.dtd">
<svg version="1.1" id="Capa_1" xmlns="http://www.w3.org/2000/svg" xmlns:xlink="http://www.w3.org/1999/xlink" x="0px" y="0px"
	 width="64px" height="64px" viewBox="0 0 64 64" enable-background="new 0 0 64 64" xml:space="preserve">
<g>
	<circle fill="#0E0F0F" cx="32.912" cy="9.734" r="4.507"/>
	<path fill="#0E0F0F" d="M34.482,16.39c-1.123-0.228-2.344-0.218-3.447,0.042c-7.493,0.878-9.926,9.551-9.239,16.164
		c0.298,2.859,4.805,2.889,4.504,0c-0.25-2.41-0.143-6.047,1.138-8.632c0,3.142,0,6.284,0,9.425c0,0.111,0.011,0.215,0.016,0.322
		c-0.003,0.051-0.015,0.094-0.015,0.146c0,7.479-0.013,14.955-0.322,22.428c-0.137,3.322,5.014,3.309,5.15,0
		c0.242-5.857,0.303-11.717,0.317-17.578c0.244,0.016,0.488,0.016,0.732,0.002c0.015,5.861,0.074,11.721,0.314,17.576
		c0.137,3.309,5.288,3.322,5.15,0c-0.309-7.473-0.32-14.949-0.32-22.428c0-0.232-0.031-0.443-0.078-0.646
		c-0.007-3.247-0.131-6.497-0.093-9.742c1.534,2.597,1.674,6.558,1.408,9.125c-0.302,2.887,4.206,2.858,4.504,0
		C44.904,25.844,42.354,16.946,34.482,16.39z"/>
</g>
</svg>
