<?xml version="1.0" encoding="utf-8"?>
<!-- Generator: Adobe Illustrator 16.0.0, SVG Export Plug-In . SVG Version: 6.00 Build 0)  -->
<!DOCTYPE svg PUBLIC "-//W3C//DTD SVG 1.1//EN" "http://www.w3.org/Graphics/SVG/1.1/DTD/svg11.dtd">
<svg version="1.1" id="Capa_1" xmlns="http://www.w3.org/2000/svg" xmlns:xlink="http://www.w3.org/1999/xlink" x="0px" y="0px"
	 width="64px" height="64px" viewBox="0 0 64 64" enable-background="new 0 0 64 64" xml:space="preserve">
<g>
	<circle cx="32.341" cy="9.089" r="9.089"/>
	<path d="M59.151,48.961c-4.383-10.289-19.918-26.166-20.22-26.362c-1.563-1.687-3.848-2.515-6.156-2.549v-0.007
		c-0.001,0-0.434,0-0.435,0v0.007c-2.308,0.035-4.594,0.863-6.156,2.549c-0.302,0.196-15.838,16.073-20.221,26.362
		c-1.071,2.516-0.068,4.885,1.611,6.282c-0.416,1.38-0.426,2.921,0.041,4.408c0.803,2.562,2.881,4.154,5.418,4.154
		c4.854,0,34.166,0,39.047,0c2.537,0,4.614-1.593,5.417-4.154c0.468-1.487,0.458-3.028,0.041-4.408
		C59.22,53.846,60.223,51.477,59.151,48.961z M17.885,47.34c1.864-3.046,3.989-5.831,6.299-8.511c0,2.764,0.08,9.679,0.219,10.307
		C23.934,49.015,19.58,47.918,17.885,47.34z M40.713,49.136c0.138-0.628,0.218-7.543,0.218-10.307c2.312,2.68,4.437,5.465,6.3,8.511
		C45.537,47.918,41.183,49.015,40.713,49.136z"/>
</g>
</svg>
