<?xml version="1.0" encoding="utf-8"?>
<!-- Generator: Adobe Illustrator 16.0.4, SVG Export Plug-In . SVG Version: 6.00 Build 0)  -->
<!DOCTYPE svg PUBLIC "-//W3C//DTD SVG 1.1//EN" "http://www.w3.org/Graphics/SVG/1.1/DTD/svg11.dtd">
<svg version="1.1" id="Capa_1" xmlns="http://www.w3.org/2000/svg" xmlns:xlink="http://www.w3.org/1999/xlink" x="0px" y="0px"
	 width="64px" height="64px" viewBox="0 0 64 64" enable-background="new 0 0 64 64" xml:space="preserve">
<g>
	<path fill="#0E0F0F" d="M22.181,49.761c2.371-1.759,4.728-3.54,7.041-5.377c0.048-0.04,0.09-0.079,0.135-0.118
		c0.449-0.138,0.894-0.334,1.324-0.611c3.746-2.43,4.324-3.387,6.543-7.34c1.5-2.674,2.674-7.485,3.539-10.468
		c3.627,1.688,7.385,2.882,11.506,3.282c1.734,0.168,3.35-1.621,3.285-3.283c-0.148-3.704-1.227-7.339-3.014-10.589
		c-2.039-3.712-7.71-0.399-5.67,3.314c0.557,1.013,1.02,2.091,1.373,3.202c-2.354-0.686-4.592-1.717-6.77-2.89l-5.779,4.333
		L37.369,20l0.208,0.077l0.39-1.072l-1.979-0.725l-0.393,1.072l0.225,0.082l-0.627,2.82l-1.166-5.061
		c-0.047,0.029-0.088,0.063-0.135,0.095h-2.814c-8.738-0.226-15.339,5.05-19.848,12.171c-0.587,0.927-0.64,1.834-0.361,2.609
		c-0.493-0.023-0.984-0.049-1.48-0.056c-2.619-0.037-3.917,2.783-2.835,4.942c1.962,3.907,4.017,7.782,6.42,11.426
		c-2.268,1.606-4.546,3.198-6.834,4.774c-3.462,2.385-0.184,8.078,3.315,5.671c2.489-1.714,4.962-3.452,7.422-5.206
		c0.312,0.371,0.614,0.747,0.937,1.109c2.823,3.168,7.451-1.492,4.642-4.644C22.36,49.98,22.274,49.868,22.181,49.761z
		 M34.262,26.813c0.621,0,1.123,0.503,1.123,1.124s-0.502,1.124-1.123,1.124s-1.125-0.503-1.125-1.124
		C33.137,27.317,33.641,26.813,34.262,26.813z M32.013,30.49c0.622,0,1.124,0.503,1.124,1.124c0,0.622-0.503,1.125-1.124,1.125
		c-0.621,0-1.123-0.503-1.123-1.125C30.89,30.994,31.391,30.49,32.013,30.49z M29.305,23.953l-0.937,1.886
		c-0.385,1.209-0.475,2.316-0.869,3.149c-1.091,2.31-1.772,3.878-3.886,5.442c-2.205-0.709-4.437-1.271-6.7-1.677
		C19.841,28.137,23.941,24.574,29.305,23.953z M18.268,44.548c-1.155-1.769-2.215-3.603-3.225-5.464
		c2.299,0.371,4.554,0.943,6.792,1.665c0.145,0.25,0.306,0.498,0.485,0.735C20.98,42.52,19.63,43.542,18.268,44.548z"/>
	<path fill="#0E0F0F" d="M45.598,11.33L45.598,11.33l0.758,0.374c0.313,0.219,0.149,0.675-0.054,1.123l-1.038,1.754
		c-0.507,0.686-0.791,1.012-1.115,0.867l-0.664-0.53c-0.156-0.092-0.359-0.044-0.453,0.117l-1.217,2.059v0.002
		c-0.09,0.151-0.051,0.356,0.115,0.455l0.776,0.342c0.501,0.233,2.472,0.255,4.541-3.337c1.991-3.461,0.987-5.023,0.584-5.354
		L47.15,8.699c-0.155-0.092-0.357-0.042-0.451,0.116l-1.217,2.06C45.395,11.026,45.432,11.232,45.598,11.33z"/>
	<path fill="#0E0F0F" d="M43.08,11.524h0.477v-1.221H31.283v1.221h0.477c0,1.385,1.121,2.506,2.506,2.506s2.508-1.122,2.508-2.506
		h1.297c0,1.385,1.121,2.506,2.505,2.506C41.96,14.031,43.08,12.909,43.08,11.524z"/>
	<path fill="#0E0F0F" d="M41.039,4.285c0,0-0.176-2.046-1.801-2.046c-0.424,0-0.805,0.256-1.069,0.664c0,0.001-0.789,0.693-1.479,0
		c-0.016-0.016-0.031-0.029-0.049-0.043c-0.264-0.382-0.632-0.62-1.039-0.62c-1.627,0-1.801,2.046-1.801,2.046l-0.211,2.64h7.657
		L41.039,4.285z"/>
	<path fill="#0E0F0F" d="M29.191,9.531h16.456c0.305,0,0.549-0.245,0.549-0.549l-4.776-1.383h-7.97l-4.807,1.383
		C28.643,9.286,28.889,9.531,29.191,9.531z"/>
	<path fill="#0E0F0F" d="M43.557,31.415c-2.918,14.597-15.934,16.502-15.934,16.502l2.732,10.894l0.928,2.95h28.05V30.52
		L43.557,31.415z"/>
</g>
</svg>
