<?xml version="1.0" encoding="utf-8"?>
<!-- Generator: Adobe Illustrator 16.0.4, SVG Export Plug-In . SVG Version: 6.00 Build 0)  -->
<!DOCTYPE svg PUBLIC "-//W3C//DTD SVG 1.1//EN" "http://www.w3.org/Graphics/SVG/1.1/DTD/svg11.dtd">
<svg version="1.1" id="Capa_1" xmlns="http://www.w3.org/2000/svg" xmlns:xlink="http://www.w3.org/1999/xlink" x="0px" y="0px"
	 width="64px" height="64px" viewBox="0 0 64 64" enable-background="new 0 0 64 64" xml:space="preserve">
<path fill="#0E0F0F" d="M43.104,7.356c0,0,0.105-1.494-1.062-1.678c-0.308-0.049-0.606,0.093-0.847,0.356
	c0,0.001-0.646,0.407-1.064-0.169c-0.011-0.013-0.021-0.026-0.029-0.038c-0.146-0.305-0.385-0.519-0.68-0.565
	c-1.17-0.186-1.529,1.268-1.529,1.268l-0.451,1.875l5.515,0.875L43.104,7.356z M33.975,9.781l11.85,1.879
	c0.22,0.034,0.425-0.115,0.459-0.333l-3.284-1.542l-5.733-0.91l-3.619,0.447C33.605,9.542,33.756,9.746,33.975,9.781z
	 M49.941,31.537c-0.818-3.609-0.463-7.375-1.658-10.933c-0.34-1.835-2.271-3.034-4.986-3.812l-4.438,4.374l0.564-2.037l-2.094-0.303
	l-0.048,2.573l-2.771-5.831c-4.92-0.241-9.983-0.014-13.024,0.119v-2.034h-0.604l0.237-0.509l-0.366-0.171l-0.317,0.68H12.87V13.08
	h-0.484v0.573H11.84l0.646,2.398h5.477c-2.056,1.072-1.662,4.878,1.2,4.878c2.821,0,9.516,0,12.336,0
	c0.004,0.091,0.001,0.183,0.01,0.276c0.272,3.351-0.048,8.79-0.27,11.585l3.82,0.671l-0.149,0.902l-3.808-0.67
	c-3.003,7.343-4.177,15.689-4.775,23.545c-0.292,3.861,5.71,3.832,6.002,0c0.436-5.754,1.265-11.75,2.949-17.375
	c0.336,0.096,0.688,0.166,1.05,0.199c0.128,0.013,0.253,0.015,0.38,0.019c0.452,5.933,0.861,12.42,1.666,18.005
	c0.549,3.816,6.33,2.188,5.787-1.596c-0.898-6.25-1.205-13.868-1.758-20.154c-0.01-0.126-0.026-0.246-0.051-0.361
	c0.026-0.095,0.047-0.189,0.069-0.287l-3.51-0.617l0.151-0.902l3.504,0.616c0.091-0.986,0.697-8.047,0.435-13.337
	c0.433,0.638,0.663,1.632,0.907,2.848c0.568,2.84,0.41,5.787,1.053,8.617C45.697,36.157,50.676,34.779,49.941,31.537z M37.2,26.408
	c0.379,0,0.684,0.305,0.684,0.682c0,0.378-0.305,0.684-0.684,0.684c-0.377,0-0.685-0.306-0.685-0.684
	C36.518,26.713,36.822,26.408,37.2,26.408z M37.049,28.97c0.378,0,0.684,0.305,0.684,0.683c0,0.378-0.306,0.684-0.684,0.684
	c-0.377,0-0.684-0.306-0.684-0.684C36.365,29.275,36.672,28.97,37.049,28.97z M38.314,34.73l-2.738-0.461l0.115-0.693l2.735,0.479
	L38.314,34.73z M41.729,12.567l0.347,0.056l0.137-0.88l-6.817-1.167l-0.14,0.88l0.347,0.053c-0.16,0.997,0.521,1.933,1.518,2.09
	c0.996,0.157,1.933-0.521,2.09-1.518l0.934,0.148L41.729,12.567z M39.609,17.857l-2.096-0.304l0.232-1.597l2.096,0.304
	L39.609,17.857z"/>
</svg>
