<?xml version="1.0" encoding="utf-8"?>
<!-- Generator: Adobe Illustrator 16.0.4, SVG Export Plug-In . SVG Version: 6.00 Build 0)  -->
<!DOCTYPE svg PUBLIC "-//W3C//DTD SVG 1.1//EN" "http://www.w3.org/Graphics/SVG/1.1/DTD/svg11.dtd">
<svg version="1.1" id="Capa_1" xmlns="http://www.w3.org/2000/svg" xmlns:xlink="http://www.w3.org/1999/xlink" x="0px" y="0px"
	 width="64px" height="64px" viewBox="0 0 64 64" enable-background="new 0 0 64 64" xml:space="preserve">
<g>
	<path fill="#0E0F0F" d="M43.118,28.63c1.229-1.572,3.487-1.912,5.127-0.737c1.679,1.205,2.062,3.542,0.854,5.223
		c-0.057,0.082-0.121,0.159-0.188,0.237l0.531,0.379c3.621-5.047,2.539-12.069-2.36-15.975l0.356-0.495
		c0.197-0.277,0.134-0.664-0.143-0.864c-0.277-0.199-0.666-0.136-0.865,0.143l-0.354,0.496c-5.27-3.392-12.27-2.167-15.892,2.881
		l0.388,0.278c0.052-0.086,0.106-0.173,0.166-0.256c1.207-1.68,3.545-2.064,5.222-0.859c1.681,1.206,2.065,3.542,0.858,5.222
		c-0.059,0.084-0.127,0.163-0.19,0.238l0.157,0.111c0.052-0.086,0.104-0.172,0.164-0.255c1.206-1.68,3.544-2.064,5.223-0.858
		c0.062,0.045,0.124,0.098,0.184,0.146l-8.224,11.462c-0.728,1.016-2.146,1.248-3.16,0.521c-0.071-0.051-0.13-0.112-0.195-0.171
		c1.136-1.018,1.498-3.2-0.114-4.433c-2.299-1.759-4.281-3.795-6.005-6.053c1.154-1.797,1.266-4.038-0.41-5.691
		c-1.569-1.55-4.723-1.846-6.223,0.033c-1.093,1.37-2.057,2.674-2.896,3.961c-0.553-2.593-1.263-5.111-1.626-3.131
		c-0.648,3.532-4.528,2.283-4.528,2.283l3.617,4.176c-2.809,1.782-10.975,7.739-9.828,16.13l10.548,0.943c0,3.282,0,6.564,0,9.846
		c0,3.338,5.177,3.338,5.177,0c0-3.127,0-6.254,0-9.383l5.854,0.521c0,0,0.334-9.123-3.15-13.85
		c0.167-0.432,0.354-0.857,0.554-1.276c1.866,2.182,3.959,4.161,6.307,5.958c0.649,0.497,1.293,0.601,1.859,0.445
		c0.151,0.168,0.317,0.322,0.508,0.459c1.439,1.033,3.449,0.701,4.481-0.737l8.121-11.313C43.91,25.616,43.988,27.306,43.118,28.63z
		"/>
	<circle fill="#0E0F0F" cx="25.604" cy="12.853" r="4.917"/>
	<path fill="#0E0F0F" d="M54.889,51.564c-1.557,1.156-2.502-0.733-2.502-0.733l-4.117-4.113c-0.166,0.019-0.332,0.033-0.494,0.033
		c-1.93,0-3.463-1.344-3.487-1.362L44.631,45c0.085,0.076,1.454,1.266,3.164,1.24l-0.456-0.456
		c-0.716-6.661-5.694-4.399-5.694-4.399v1.295l-1.811,0.775c-3.236,0.646,0,2.329,0,2.329c3.959-0.456,3.88,3.882,3.88,3.882
		l-2.847,5.436h1.293l3.625-4.398c0,0-2.557,4.398,0.431,4.398c2.988,0,5.522,0,5.522,0C56.396,53.29,56.622,48.402,54.889,51.564z"
		/>
	<path fill="#0E0F0F" d="M56.382,20.371c0.581,0.333,1.32,0.133,1.653-0.447c0.333-0.579-0.23-2.03-0.23-2.03
		s-1.537,0.246-1.869,0.826C55.604,19.299,55.803,20.04,56.382,20.371z"/>
	<path fill="#0E0F0F" d="M51.014,17.513c0.58,0.333,1.318,0.133,1.651-0.447c0.333-0.579-0.229-2.03-0.229-2.03
		s-1.537,0.248-1.869,0.826C50.232,16.442,50.436,17.182,51.014,17.513z"/>
	<path fill="#0E0F0F" d="M37.82,12.691c0.58,0.333,1.318,0.132,1.65-0.447c0.334-0.579-0.229-2.031-0.229-2.031
		s-1.537,0.247-1.872,0.826C37.041,11.62,37.241,12.359,37.82,12.691z"/>
	<path fill="#0E0F0F" d="M54.016,26.062c0.582,0.332,1.32,0.132,1.653-0.448c0.333-0.58-0.229-2.031-0.229-2.031
		s-1.535,0.247-1.869,0.826C53.238,24.989,53.438,25.729,54.016,26.062z"/>
	<path fill="#0E0F0F" d="M61.354,22.265c0,0-1.539,0.245-1.871,0.826c-0.332,0.578-0.131,1.319,0.449,1.651s1.319,0.132,1.65-0.448
		C61.915,23.714,61.354,22.265,61.354,22.265z"/>
	<path fill="#0E0F0F" d="M55.936,30.062c-0.332,0.58-0.133,1.32,0.446,1.651c0.581,0.333,1.32,0.132,1.653-0.446
		c0.333-0.58-0.229-2.031-0.229-2.031S56.268,29.483,55.936,30.062z"/>
	<path fill="#0E0F0F" d="M60.398,13.564c0.332-0.58-0.229-2.031-0.229-2.031s-1.538,0.248-1.871,0.826
		c-0.331,0.58-0.13,1.32,0.449,1.652C59.33,14.345,60.066,14.144,60.398,13.564z"/>
	<path fill="#0E0F0F" d="M54.018,12.692c0.58,0.333,1.319,0.132,1.652-0.447c0.333-0.58-0.229-2.032-0.229-2.032
		s-1.537,0.248-1.869,0.826C53.236,11.62,53.438,12.359,54.018,12.692z"/>
	<path fill="#0E0F0F" d="M46.564,11.372c0.58,0.333,1.318,0.133,1.651-0.447c0.333-0.58-0.229-2.032-0.229-2.032
		s-1.537,0.248-1.87,0.827C45.785,10.299,45.984,11.039,46.564,11.372z"/>
</g>
</svg>
