<?xml version="1.0" encoding="utf-8"?>
<!-- Generator: Adobe Illustrator 16.0.4, SVG Export Plug-In . SVG Version: 6.00 Build 0)  -->
<!DOCTYPE svg PUBLIC "-//W3C//DTD SVG 1.1//EN" "http://www.w3.org/Graphics/SVG/1.1/DTD/svg11.dtd">
<svg version="1.1" id="Capa_1" xmlns="http://www.w3.org/2000/svg" xmlns:xlink="http://www.w3.org/1999/xlink" x="0px" y="0px"
	 width="64px" height="64px" viewBox="0 0 64 64" enable-background="new 0 0 64 64" xml:space="preserve">
<g>
	<path fill="#0E0F0F" d="M49.04,22.145c-5.394-0.562-10.546-2.132-15.086-5.14c-0.048-0.032-0.097-0.057-0.146-0.086
		c-1.06-0.782-2.469-1.08-3.813-0.897c-0.292,0.012-0.585,0.073-0.874,0.192c-1.328,0.405-2.489,1.315-3.047,2.732
		c-3.305,3.031-7.212,5.235-11.461,6.803c-3.801,1.403-2.158,7.53,1.685,6.113c3.192-1.178,6.262-2.623,9.096-4.425
		c-0.098,1.593-0.211,3.186-0.351,4.776L11.927,43.352c0,0,7.015,0.662,15.018,0.211c3.673,5.138,8.25,9.785,10.517,15.646
		c1.472,3.81,7.351,1.431,5.874-2.385c-1.59-4.11-4.273-7.589-6.993-11.044c-0.786-1-0.956-2.07-0.88-3.18
		c5.355-0.978,10.205-2.74,12.708-5.836L34.979,30.53c0.143-1.842,0.265-3.686,0.357-5.532c4.303,1.949,8.945,2.99,13.704,3.484
		C53.104,28.905,53.062,22.562,49.04,22.145z"/>
	<path fill="#0E0F0F" d="M21.256,13.748c0.272,0.351,0.652,0.633,1.094,0.788c0.439,0.155,0.945,0.197,1.447,0.039
		c0.25-0.08,0.496-0.214,0.706-0.401c0.211-0.187,0.377-0.424,0.485-0.673c0.216-0.508,0.208-1.014,0.138-1.442
		c-0.069-0.396-0.197-0.75-0.343-1.079c-0.207-0.737-0.436-1.424-0.632-2.105c-0.206-0.679-0.377-1.35-0.497-1.995
		c-0.12-0.643-0.17-1.267-0.097-1.791c0.085-0.513,0.259-0.907,0.62-1.234c0.078-0.045,0.156-0.086,0.236-0.12
		c0.119-0.057,0.245-0.095,0.376-0.126c0.264-0.063,0.568-0.074,0.904-0.034c0.336,0.039,0.698,0.131,1.072,0.253
		c0.018,0.006,0.039,0.014,0.057,0.02c-0.967,0.877-1.596,2.063-1.793,3.34c-0.188,0.846-0.193,1.743,0.028,2.639
		c0.769,3.098,3.914,4.992,7.011,4.224c3.097-0.769,4.991-3.913,4.222-7.011c-0.108-0.438-0.271-0.852-0.467-1.237
		c-1.192-2.763-4.351-4.13-7.195-3.057c-0.424,0.159-0.815,0.364-1.175,0.608c-0.058-0.083-0.119-0.162-0.182-0.24
		c-0.293-0.348-0.651-0.658-1.083-0.9c-0.431-0.239-0.946-0.4-1.498-0.419c-0.276-0.009-0.557,0.022-0.829,0.084
		c-0.271,0.063-0.531,0.163-0.775,0.283c-0.026,0.012-0.053,0.027-0.075,0.044l-0.062,0.046C22.56,2.54,22.207,2.92,21.947,3.353
		c-0.264,0.432-0.424,0.91-0.511,1.372c-0.172,0.929-0.069,1.794,0.102,2.586c0.175,0.795,0.448,1.529,0.735,2.232
		c0.151,0.352,0.304,0.693,0.457,1.031l0.462,0.986l0.041,0.095c0.138,0.244,0.245,0.491,0.303,0.717
		c0.058,0.225,0.055,0.421,0.017,0.542c-0.039,0.117-0.098,0.196-0.234,0.259c-0.136,0.062-0.336,0.074-0.535,0.022
		c-0.398-0.105-0.78-0.412-1.037-0.902c-0.265-0.489-0.387-1.131-0.484-1.841c-0.404,0.589-0.627,1.335-0.503,2.139
		C20.819,12.993,20.986,13.397,21.256,13.748z M28.114,6.099c2.14,3.057,7.678,3.63,7.678,3.63s0.069-0.191,0.151-0.496
		c-0.315,2.065-1.836,3.842-3.987,4.376c-2.779,0.689-5.592-0.951-6.394-3.671C26.276,9.597,28.354,8.399,28.114,6.099z"/>
	<path fill="#0E0F0F" d="M20,57.926c-0.812,1.528,0.143,3.521,1.633,4.174c1.674,0.734,3.365-0.109,4.175-1.632
		c1.565-2.942,2.83-5.985,3.859-9.155c0.533-1.643-4.003-6.963-4.003-6.963C24.635,47.52,21.566,54.982,20,57.926z"/>
</g>
</svg>
