<?xml version="1.0" encoding="utf-8"?>
<!-- Generator: Adobe Illustrator 16.0.0, SVG Export Plug-In . SVG Version: 6.00 Build 0)  -->
<!DOCTYPE svg PUBLIC "-//W3C//DTD SVG 1.1//EN" "http://www.w3.org/Graphics/SVG/1.1/DTD/svg11.dtd">
<svg version="1.1" id="Capa_1" xmlns="http://www.w3.org/2000/svg" xmlns:xlink="http://www.w3.org/1999/xlink" x="0px" y="0px"
	 width="64px" height="64px" viewBox="0 0 64 64" enable-background="new 0 0 64 64" xml:space="preserve">
<g>
	<path d="M32.082,26.576c-2.154-2.059-4.051-4.471-5.395-7.119c3.363,0.692,6.726,1.386,10.088,2.079
		c1.403,0.289,2.801-0.528,3.232-1.895c0.225-0.713,0.139-1.486-0.237-2.132c-0.375-0.645-1.006-1.101-1.736-1.258
		c-5.13-1.101-10.167-2.21-15.444-3.298c-1.188-0.274-2.663-0.322-3.304-0.25c-4.903,0.557-9.573,1.254-14.319,2.017
		c-0.727,0.117-1.373,0.531-1.783,1.142c-0.41,0.611-0.551,1.366-0.383,2.083c0.004,0.016,0.007,0.031,0.011,0.047
		c0.319,1.366,1.637,2.248,3.022,2.026c3.55-0.571,7.106-1.112,10.675-1.574c0.583,5.149,4.114,11.055,7.544,13.256l-3.574,11.672
		c0,0,24.426,7.186,24.332-17.896L32.082,26.576z"/>
	<path d="M26.888,45.809c0,1.467,0,2.932,0,4.396c0,3.563,0,7.125,0,10.687c0,3.476,5.572,3.476,5.572,0V45.383
		c-1.454,0.282-2.992,0.443-4.624,0.443C27.514,45.826,27.199,45.818,26.888,45.809z"/>
	<path d="M57.227,23.625c-3.676,1.2-7.328,2.481-10.972,3.769c-0.106,2.205-0.42,4.218-0.927,6.045
		c4.447-1.57,8.893-3.153,13.379-4.62C62.094,27.717,60.641,22.51,57.227,23.625z"/>
	<ellipse cx="21.289" cy="5.97" rx="5.652" ry="5.464"/>
</g>
</svg>
