<?xml version="1.0" encoding="utf-8"?>
<!-- Generator: Adobe Illustrator 16.0.4, SVG Export Plug-In . SVG Version: 6.00 Build 0)  -->
<!DOCTYPE svg PUBLIC "-//W3C//DTD SVG 1.1//EN" "http://www.w3.org/Graphics/SVG/1.1/DTD/svg11.dtd">
<svg version="1.1" id="Capa_1" xmlns="http://www.w3.org/2000/svg" xmlns:xlink="http://www.w3.org/1999/xlink" x="0px" y="0px"
	 width="64px" height="64px" viewBox="0 0 64 64" enable-background="new 0 0 64 64" xml:space="preserve">
<path fill="#0E0F0F" d="M47.626,8.097c-0.831-0.021-7.172,0.267-13.681,0.581c-0.527-2.184-2.488-3.807-4.833-3.807
	c-2.514,0-4.586,1.865-4.922,4.287c-1.415,0.07-2.627,0.131-3.53,0.176c-0.532-0.75-1.482-1.257-2.343-1.257
	c-1.643,0-2.564,1.265-2.752,2.751c-0.39,3.085,0.136,6.489,2.64,8.596c2.238,1.882,5.18,2.284,8.011,2.082
	c1.53,4.225,1.8,8.746,3.227,12.997c-1.632,6.942-2.876,13.945-3.788,21.026c-0.622,4.828,6.954,4.77,7.567,0
	c0.551-4.269,1.271-8.508,2.129-12.721c1.719,4.893,4.105,9.541,7.219,13.711c2.882,3.862,9.457,0.096,6.535-3.819
	c-3.961-5.304-6.574-11.233-8.129-17.587c0.301-0.98,0.328-2.029-0.039-3.035c-1.621-4.441-1.818-9.213-3.44-13.654
	c-0.937-2.567-3.121-4.414-5.794-4.333c1.43-0.874,2.388-2.445,2.388-4.243c0-0.012-0.001-0.024-0.002-0.036L45.85,9.683
	c-1.32,6.006,6.243,6.37,6.348,4.855C52.322,12.682,49.404,8.144,47.626,8.097z M27.713,15.86c-0.073,0.001-0.146,0.003-0.222,0.013
	c-1.915,0.251-4.07,0.456-5.689-0.579c-1.058-0.676-0.916-3.007-0.732-4.465c0.038-0.303,0.001-0.596-0.089-0.872l3.161-0.035
	c0.038,2.698,2.224,4.874,4.926,4.899C28.576,15.1,28.119,15.451,27.713,15.86z"/>
</svg>
