<?xml version="1.0" encoding="utf-8"?>
<!-- Generator: Adobe Illustrator 16.0.4, SVG Export Plug-In . SVG Version: 6.00 Build 0)  -->
<!DOCTYPE svg PUBLIC "-//W3C//DTD SVG 1.1//EN" "http://www.w3.org/Graphics/SVG/1.1/DTD/svg11.dtd">
<svg version="1.1" id="Capa_1" xmlns="http://www.w3.org/2000/svg" xmlns:xlink="http://www.w3.org/1999/xlink" x="0px" y="0px"
	 width="64px" height="64px" viewBox="0 0 64 64" enable-background="new 0 0 64 64" xml:space="preserve">
<g>
	<path fill="#0E0F0F" d="M45.361,29.639c-4.567-1.455-7.498-4.728-8.644-9.041c1.009-3.56-2.765-7.299-6.124-6.006
		c-0.362-0.108-0.771-0.126-1.229,0.004c-4.166,1.179-8.355,2.267-12.361,3.932c-2.636,1.096-1.481,5.445,1.194,4.334
		c2.172-0.902,4.399-1.633,6.646-2.303c-1.956,2.518-3.75,5.158-5.334,7.926c-2.297,1.471-4.286,3.524-5.387,6.018
		c-1.974,4.478-1.116,9.034,0.996,13.224c-1.146,1.407-2.154,2.922-2.994,4.559c-1.818,3.535,3.514,6.665,5.336,3.117
		c1.445-2.809,3.371-5.068,5.75-7.092c-0.634,3.371-2.093,6.455-4.063,9.311c-2.271,3.291,3.089,6.375,5.337,3.12
		c2.88-4.171,4.6-8.806,5.121-13.821c2.252-0.249,3.809-0.654,3.726-1.554c-0.456-4.929-2.205-9.072-5.048-12.965
		c1.576-2.643,3.342-5.138,5.3-7.508c2.009,4.261,5.564,7.483,10.583,9.082c0.011,0.004,0.021,0.004,0.033,0.008v27.295h1.124
		v-27.25C47.199,33.581,47.686,30.38,45.361,29.639z"/>
	<path fill="#0E0F0F" d="M41.607,1.875c-1.67,0-3.188,0.358-4.32,0.938c-0.561-0.397-1.255-0.634-2.012-0.634
		c-1.854,0-3.357,1.415-3.357,3.16c0,1.331,0.875,2.469,2.113,2.934c-0.16,0.456-0.252,0.945-0.252,1.457
		c0,2.425,1.966,4.393,4.391,4.393c2.423,0,4.391-1.967,4.391-4.393c0-0.33-0.039-0.65-0.106-0.96
		c3.096-0.225,5.487-1.672,5.487-3.43C47.941,3.427,45.107,1.875,41.607,1.875z"/>
</g>
</svg>
