<?xml version="1.0" encoding="utf-8"?>
<!-- Generator: Adobe Illustrator 16.0.4, SVG Export Plug-In . SVG Version: 6.00 Build 0)  -->
<!DOCTYPE svg PUBLIC "-//W3C//DTD SVG 1.1//EN" "http://www.w3.org/Graphics/SVG/1.1/DTD/svg11.dtd">
<svg version="1.1" id="Capa_1" xmlns="http://www.w3.org/2000/svg" xmlns:xlink="http://www.w3.org/1999/xlink" x="0px" y="0px"
	 width="64px" height="64px" viewBox="0 0 64 64" enable-background="new 0 0 64 64" xml:space="preserve">
<g>
	<circle fill="#0E0F0F" cx="18.597" cy="18.501" r="4.256"/>
	<path fill="#0E0F0F" d="M21.961,37.43c0.312-1.92,2.079-3.082,3.909-2.472l3.916,1.308c-0.794-1.349-1.517-2.733-2.088-4.191
		c-0.079-0.197-0.179-0.367-0.289-0.524l-0.805-2.23c2.235,0.886,4.438,1.846,6.601,2.915c0.141,0.069,0.279,0.117,0.418,0.156
		c-1.7-1.125-2.65-3.203-2.238-5.325c0.033-0.167,0.091-0.322,0.14-0.483c-2.708-1.19-5.462-2.27-8.268-3.22
		c-0.103-0.036-0.201-0.049-0.299-0.069c-0.531-0.2-1.128-0.294-1.795-0.249c-1.215,0.084-2.508,0.826-3.307,1.879
		c-1.243,1.171-2.487,2.344-3.731,3.516c-2.145-0.716-4.292-1.432-6.437-2.147c-2.727-0.908-3.885,3.383-1.183,4.284
		c2.53,0.843,5.059,1.687,7.589,2.528c0.756,0.252,1.603-0.045,2.159-0.569c0.561-0.529,1.121-1.057,1.681-1.585
		c0.71,2.434,1.366,3.707,1.366,3.707s0.375,0.738,1.026,1.499c-1.474,4.424-3.148,8.776-4.823,13.131
		c-1.031,2.677,3.265,3.823,4.283,1.183c1.248-3.238,2.494-6.479,3.657-9.744C22.179,39.986,21.769,38.605,21.961,37.43z"/>
	<circle fill="#0E0F0F" cx="36.546" cy="28.227" r="4.256"/>
	<path fill="#0E0F0F" d="M52.346,46.51c-0.978,0.775-1.88,1.555-2.848,2.271c-1.493-2.206-2.877-4.499-3.854-6.982
		c-0.078-0.197-0.179-0.369-0.289-0.523l-0.805-2.231c2.235,0.888,4.439,1.849,6.602,2.916c2.561,1.263,4.812-2.567,2.242-3.837
		c-3.949-1.948-8.021-3.624-12.189-5.035c-0.105-0.035-0.201-0.049-0.301-0.07c-0.53-0.199-1.127-0.293-1.795-0.246
		c-1.215,0.084-2.508,0.824-3.307,1.879c-1.244,1.17-2.486,2.344-3.732,3.516c-2.146-0.716-4.292-1.432-6.436-2.146
		c-2.727-0.91-3.885,3.383-1.183,4.282c2.531,0.845,5.059,1.688,7.589,2.53c0.756,0.253,1.604-0.046,2.159-0.571
		c0.562-0.526,1.12-1.057,1.682-1.585c0.71,2.436,1.365,3.707,1.365,3.707s0.375,0.739,1.024,1.501
		c-1.473,4.425-3.146,8.776-4.821,13.13c-1.031,2.678,3.265,3.824,4.282,1.182c1.664-4.319,3.324-8.639,4.789-13.026
		c0.088-0.044,0.172-0.075,0.262-0.129c0.134-0.048,0.259-0.11,0.38-0.181c1.129,2.111,2.437,4.117,3.836,6.094
		c0.708,0.998,1.914,1.43,3.038,0.796c2.027-1.142,3.639-2.659,5.447-4.095C57.73,47.872,54.564,44.751,52.346,46.51z"/>
	<circle fill="#0E0F0F" cx="39.164" cy="6.566" r="4.255"/>
	<path fill="#0E0F0F" d="M54.964,24.849c-0.978,0.776-1.88,1.555-2.848,2.273c-1.494-2.208-2.878-4.5-3.853-6.983
		c-0.078-0.199-0.18-0.368-0.291-0.524l-0.804-2.231c2.235,0.886,4.438,1.848,6.603,2.915c2.56,1.263,4.812-2.568,2.24-3.835
		c-3.949-1.95-8.02-3.625-12.188-5.036c-0.104-0.035-0.201-0.05-0.302-0.069c-0.529-0.2-1.127-0.296-1.793-0.249
		c-1.217,0.083-2.508,0.826-3.308,1.879c-1.244,1.171-2.487,2.343-3.731,3.516c-2.146-0.716-4.292-1.431-6.437-2.147
		c-2.728-0.908-3.885,3.382-1.183,4.283c2.53,0.844,5.058,1.688,7.589,2.53c0.756,0.252,1.604-0.046,2.157-0.572
		c0.563-0.527,1.123-1.056,1.683-1.583c0.711,2.434,1.367,3.707,1.367,3.707s0.375,0.738,1.022,1.5
		c-0.041,0.127-0.088,0.252-0.129,0.378c1.004,1.256,1.477,2.927,1.146,4.625c-0.166,0.856-0.538,1.621-1.033,2.286
		c0.07,0.021,0.143,0.038,0.211,0.062c0.141,0.028,0.254,0.057,0.373,0.097c0.443,0.15,0.883,0.316,1.325,0.473
		c0.819-2.2,1.612-4.408,2.358-6.635c0.086-0.044,0.17-0.075,0.26-0.13c0.133-0.047,0.258-0.11,0.377-0.179
		c1.132,2.111,2.438,4.117,3.839,6.092c0.708,0.999,1.913,1.431,3.038,0.797c2.027-1.142,3.638-2.66,5.449-4.095
		C60.348,26.211,57.184,23.091,54.964,24.849z"/>
</g>
</svg>
