<?xml version="1.0" encoding="utf-8"?>
<!-- Generator: Adobe Illustrator 16.0.4, SVG Export Plug-In . SVG Version: 6.00 Build 0)  -->
<!DOCTYPE svg PUBLIC "-//W3C//DTD SVG 1.1//EN" "http://www.w3.org/Graphics/SVG/1.1/DTD/svg11.dtd">
<svg version="1.1" id="Capa_1" xmlns="http://www.w3.org/2000/svg" xmlns:xlink="http://www.w3.org/1999/xlink" x="0px" y="0px"
	 width="64px" height="64px" viewBox="0 0 64 64" enable-background="new 0 0 64 64" xml:space="preserve">
<path fill="#0E0F0F" d="M34.859,27.018l1.748-1.751c-0.035-0.035-0.072-0.062-0.112-0.093h-0.001c0,0,0,0-0.001,0l-1.728,1.73
	C34.794,26.942,34.822,26.983,34.859,27.018z M27.544,33.182l-0.1,0.102l-0.104-0.102l0.1-0.103L27.544,33.182z M28.018,33.652
	l-0.102,0.099l0.105,0.101l0.097-0.098l0.563,0.559l6.91-6.913c0.062,0.012,0.125,0.02,0.188,0.021l1.232-1.232
	c0-0.063-0.012-0.127-0.021-0.188l-1.4,1.398c-0.26-0.041-0.514-0.162-0.719-0.363c-0.005-0.006-0.008-0.012-0.012-0.018
	l-6.742,6.736L28.018,33.652z M32.634,23.046c-1.027,1.028-0.207,2.291-1.82,3.224c-1.615,0.93-4.016,0.433-5.742,2.16
	c-2.451,2.449-2.524,6.347-0.163,8.71c2.362,2.358,6.261,2.289,8.716-0.162c1.721-1.728,0.576-4.371,1.898-6
	c0.553-0.83,2.41-0.83,3.479-1.566c1.521-1.517,1.727-3.851,0.617-5.593l4.125-4.124c0.664,0.151,1.382-0.026,1.9-0.542l2.162-2.166
	c0.799-0.798,0.799-2.091,0-2.89c-0.8-0.797-2.092-0.797-2.892,0l-2.163,2.166c-0.518,0.517-0.693,1.238-0.543,1.9l-4.16,4.16
	C36.332,21.339,34.105,21.576,32.634,23.046z M34.84,25.25c0.212-0.213,0.489-0.324,0.771-0.345l-1.114,1.117
	C34.516,25.737,34.626,25.462,34.84,25.25z M43.883,16.636c-0.137-0.172-0.131-0.419,0.024-0.577c0.174-0.17,0.446-0.17,0.616,0
	c0.168,0.17,0.168,0.445,0,0.613c-0.146,0.146-0.362,0.161-0.527,0.059l-8.178,8.175c0.24,0.022,0.473,0.111,0.675,0.268h0.001
	c0,0,0,0,0.001,0l7.935-7.935c0.014-0.051,0.035-0.099,0.074-0.141c0.125-0.121,0.323-0.121,0.447,0
	c0.122,0.124,0.122,0.322,0,0.445c-0.124,0.124-0.322,0.124-0.447,0c-0.027-0.03-0.053-0.066-0.064-0.104l-7.832,7.829
	c0.006,0.005,0.016,0.008,0.02,0.015c0.205,0.204,0.328,0.458,0.367,0.72l7.988-7.989c0.017-0.048,0.039-0.093,0.074-0.13
	c0.131-0.127,0.336-0.127,0.463,0c0.129,0.128,0.129,0.337,0,0.463c-0.127,0.127-0.332,0.127-0.463,0
	c-0.035-0.035-0.059-0.08-0.074-0.126l-7.971,7.97c0.004,0.321-0.113,0.64-0.354,0.88c-0.241,0.238-0.559,0.357-0.879,0.352
	l-6.993,6.994l-0.103-0.104l-0.1,0.102l0.104,0.104l0.099-0.1l0.617,0.62l-0.896,0.894l-2.75-2.75l0.894-0.894l0.789,0.789
	l7.055-7.051c-0.009,0.067-0.009,0.134,0,0.202l-6.949,6.948l0.473,0.477l6.747-6.749c-0.158-0.204-0.25-0.438-0.271-0.675
	l1.323-1.324c-0.068-0.004-0.135-0.004-0.202-0.001L43.883,16.636z M38.493,36.568c-0.076-1.715-0.173-3.428-0.29-5.137
	c-0.319,0.106-0.616,0.228-0.691,0.339l-0.052,0.073c-0.456,0.559-0.524,1.38-0.604,2.33c-0.108,1.31-0.232,2.795-1.443,4.011
	c-1.457,1.453-3.371,2.254-5.391,2.254c-0.503,0-0.996-0.053-1.475-0.148c-1.938,5.717-3.821,11.456-5.807,17.156
	c-1.303,3.736,4.613,5.332,5.904,1.631c1.893-5.436,3.682-10.9,5.522-16.352c2.534,0.534,5.171,1.262,6.519,3.65
	c1.207,2.152-0.137,5.365-0.943,7.387c-1.696,4.229,5.135,6.047,6.806,1.879c1.703-4.254,2.187-8.591,0.231-12.826
	C45.27,39.559,41.881,37.646,38.493,36.568z M44.6,21.376c-0.205-0.116-0.445-0.184-0.688-0.225
	c-0.287-0.011-0.514-0.042-0.834,0.028c-0.121,0.027-0.23,0.106-0.292,0.226l-0.009,0.015c-0.146,0.292-0.193,0.489-0.321,0.716
	c-0.084,0.197-0.177,0.371-0.247,0.509c-0.165,0.286-0.176,0.843-0.195,1.037c-0.016,0.197-0.074,0.432-0.162,0.684
	c-0.072,0.263-0.172,0.542-0.275,0.834c-0.191,0.591-0.432,1.248-0.426,1.926c0,0.041,0.015,0.082,0.037,0.12
	c0.066,0.099,0.203,0.125,0.301,0.059l0.006-0.004c0.52-0.347,1.014-0.58,1.556-0.863c0.263-0.148,0.532-0.301,0.812-0.487
	c0.269-0.197,0.543-0.426,0.815-0.724c0.267-0.3,0.603-0.645,0.851-1.131c0.244-0.482,0.271-1.11,0.062-1.613
	C45.381,21.976,45.032,21.594,44.6,21.376z M26.717,25.296c0.328-0.074,0.652-0.136,0.965-0.193
	c0.767-0.142,1.489-0.276,2.023-0.584c0.583-0.338,0.645-0.641,0.769-1.249c0.118-0.578,0.267-1.297,0.933-1.965
	c1.071-1.07,4.737-0.695,6.249-0.695c0.021,0,0.042,0.002,0.064,0.002c-0.119-0.793-0.24-1.586-0.38-2.377
	c-0.303-4.383-9.875-3.438-10.433-2.725c-3.018-2.029-6.177-3.834-9.426-5.479c-2.946-1.491-5.545,2.937-2.59,4.432
	c3.932,1.99,7.733,4.215,11.31,6.792C26.407,22.6,26.574,23.946,26.717,25.296z M30.132,2.891c2.817,0,5.103,2.284,5.103,5.102
	c0,2.817-2.285,5.102-5.103,5.102s-5.102-2.285-5.102-5.102C25.03,5.175,27.314,2.891,30.132,2.891z"/>
</svg>
