<?xml version="1.0" encoding="utf-8"?>
<!-- Generator: Adobe Illustrator 16.0.4, SVG Export Plug-In . SVG Version: 6.00 Build 0)  -->
<!DOCTYPE svg PUBLIC "-//W3C//DTD SVG 1.1//EN" "http://www.w3.org/Graphics/SVG/1.1/DTD/svg11.dtd">
<svg version="1.1" id="Capa_1" xmlns="http://www.w3.org/2000/svg" xmlns:xlink="http://www.w3.org/1999/xlink" x="0px" y="0px"
	 width="64px" height="64px" viewBox="0 0 64 64" enable-background="new 0 0 64 64" xml:space="preserve">
<g>
	<path fill="#0E0F0F" d="M27.195,8.828c-0.118-0.101-0.238-0.19-0.358-0.272l3.192-0.93l0.034,0.106
		c0.084,0.27,0.371,0.421,0.641,0.337c0.27-0.083,0.421-0.371,0.336-0.641l-0.635-2.043c-0.083-0.27-0.371-0.42-0.641-0.336
		c-0.269,0.083-0.421,0.371-0.336,0.641l0.086,0.277L20.86,8.366c-0.02-3.237-2.647-5.854-5.888-5.854
		c-3.253,0-5.891,2.637-5.891,5.89s2.637,5.89,5.891,5.89c2.55,0,4.716-1.625,5.536-3.894l1.112-0.323
		c-0.548,1.109-0.458,2.458,0.795,3.534c1.084,0.931,2.064,1.918,2.975,2.968c-2.075,0.63-4.255,0.682-6.638,0.685
		c-1.336-1.26-3.447-1.809-5.131-1.357c-2.989,0.8-4.111,3.581-3.693,6.397c0.956,6.453,1.911,12.907,2.867,19.359
		c0.043,0.293,0.127,0.569,0.231,0.833c-1.004,4.758-2.609,9.329-4.761,13.727c-1.909,3.9,3.92,7.326,5.837,3.412
		c1.516-3.098,2.828-6.267,3.879-9.517c0.936,3.72,2.203,7.351,3.862,10.786c1.896,3.925,7.725,0.494,5.837-3.412
		c-2.899-6.008-4.389-12.975-4.864-19.6c-0.03-0.412-0.118-0.783-0.253-1.117c-0.63-4.26-1.262-8.521-1.893-12.78
		c4.138-0.125,8.089-0.743,11.578-3.301c1.404-1.029,2.325-2.984,1.213-4.624C31.648,13.392,29.652,10.938,27.195,8.828z"/>
	<path fill="#0E0F0F" d="M35.156,1.04c-1.37,0-2.482,1.114-2.482,2.484s1.112,2.484,2.482,2.484c1.369,0,2.484-1.114,2.484-2.484
		S36.525,1.04,35.156,1.04z M35.156,5.547c-1.114,0-2.022-0.907-2.022-2.023c0-1.115,0.908-2.023,2.022-2.023
		c1.115,0,2.023,0.908,2.023,2.023C37.18,4.64,36.271,5.547,35.156,5.547z"/>
	<path fill="#0E0F0F" d="M39.947,9.447c-0.704,0-1.278,0.574-1.278,1.278s0.574,1.279,1.278,1.279c0.705,0,1.277-0.574,1.277-1.279
		S40.652,9.447,39.947,9.447z M39.947,11.543c-0.45,0-0.818-0.367-0.818-0.818c0-0.451,0.368-0.817,0.818-0.817
		c0.451,0,0.816,0.367,0.816,0.817C40.764,11.175,40.398,11.543,39.947,11.543z"/>
	<path fill="#0E0F0F" d="M43.591,1.232c-0.706,0-1.278,0.574-1.278,1.279c0,0.705,0.572,1.278,1.278,1.278s1.278-0.574,1.278-1.278
		C44.869,1.807,44.297,1.232,43.591,1.232z M43.591,3.329c-0.45,0-0.817-0.367-0.817-0.817c0-0.45,0.367-0.818,0.817-0.818
		c0.451,0,0.818,0.367,0.818,0.818C44.409,2.963,44.042,3.329,43.591,3.329z"/>
	<path fill="#0E0F0F" d="M51.938,2.422c-1.277,0-2.316,1.04-2.316,2.317c0,1.277,1.039,2.317,2.316,2.317s2.316-1.04,2.316-2.317
		C54.254,3.462,53.215,2.422,51.938,2.422z M51.938,6.595c-1.023,0-1.856-0.833-1.856-1.855c0-1.024,0.833-1.856,1.856-1.856
		s1.856,0.832,1.856,1.856C53.794,5.762,52.961,6.595,51.938,6.595z"/>
</g>
</svg>
