<?xml version="1.0" encoding="utf-8"?>
<!-- Generator: Adobe Illustrator 16.0.4, SVG Export Plug-In . SVG Version: 6.00 Build 0)  -->
<!DOCTYPE svg PUBLIC "-//W3C//DTD SVG 1.1//EN" "http://www.w3.org/Graphics/SVG/1.1/DTD/svg11.dtd">
<svg version="1.1" id="Capa_1" xmlns="http://www.w3.org/2000/svg" xmlns:xlink="http://www.w3.org/1999/xlink" x="0px" y="0px"
	 width="64px" height="64px" viewBox="0 0 64 64" enable-background="new 0 0 64 64" xml:space="preserve">
<g>
	<path fill="#0E0F0F" d="M52.889,52.303c-2.168-5.723-4.41-11.469-7.139-16.951c-0.803-1.613-2.342-1.951-3.66-1.518
		c-0.395-0.002-0.791-0.002-1.186-0.006c1.82-0.639,3.041-3.013,1.215-4.703c-3.457-3.198-6.624-6.659-9.512-10.377
		c-0.133-0.172-0.292-0.31-0.463-0.426c-0.521-0.475-1.168-0.846-1.953-1.062c-2.383-0.654-5.572,0.8-6.021,3.434
		c-0.82,4.813-1.465,9.654-1.904,14.517c-0.016,0.184-0.016,0.363-0.007,0.545c-0.286,1.891,0.718,4.184,2.991,4.4
		c5.236,0.496,10.533,0.111,15.799,0.037c2.312,4.891,4.285,9.959,6.199,15.012C48.701,59.031,54.32,56.076,52.889,52.303z
		 M32.231,33.675c0.188-1.891,0.414-3.779,0.671-5.662c1.639,1.8,3.348,3.531,5.141,5.187c0.311,0.288,0.641,0.485,0.975,0.614
		C36.756,33.794,34.491,33.758,32.231,33.675z"/>
	<circle fill="#0E0F0F" cx="30.573" cy="9.742" r="5.624"/>
	<path fill="#0E0F0F" d="M44.393,50.086c-0.539-0.34-1.25-0.176-1.59,0.363c-2.535,4.037-6.893,6.445-11.652,6.445
		c-7.583,0-13.753-6.17-13.753-13.752c0-3.672,1.431-7.127,4.028-9.725c0.451-0.451,0.451-1.181,0-1.63
		c-0.318-0.318-0.773-0.407-1.172-0.277l-0.479-7.023c-0.031-0.437-0.305-0.819-0.708-0.987l-7.642-3.171
		c-0.589-0.243-1.262,0.035-1.506,0.623c-0.245,0.588,0.034,1.263,0.623,1.508l6.981,2.897l0.578,8.451
		c-1.945,2.707-3.009,5.938-3.009,9.334c0,8.854,7.205,16.059,16.06,16.059c5.559,0,10.643-2.812,13.604-7.527
		C45.096,51.139,44.932,50.426,44.393,50.086z"/>
</g>
</svg>
