<?xml version="1.0" encoding="utf-8"?>
<!-- Generator: Adobe Illustrator 16.0.4, SVG Export Plug-In . SVG Version: 6.00 Build 0)  -->
<!DOCTYPE svg PUBLIC "-//W3C//DTD SVG 1.1//EN" "http://www.w3.org/Graphics/SVG/1.1/DTD/svg11.dtd">
<svg version="1.1" id="Capa_1" xmlns="http://www.w3.org/2000/svg" xmlns:xlink="http://www.w3.org/1999/xlink" x="0px" y="0px"
	 width="64px" height="64px" viewBox="0 0 64 64" enable-background="new 0 0 64 64" xml:space="preserve">
<g>
	<path fill="#0E0F0F" d="M50.253,12.731c-0.321-1.444-1.642-2.531-3.069-2.531c-0.445,0-0.893,0.102-1.32,0.303
		c-3.932,1.839-7.907,3.445-12.391,5.14c-0.508-0.679-0.508-0.679-1.896-1.575c-3.454-0.865-4.526-0.124-4.526-0.124
		c-0.509,0.222-0.97,0.513-1.37,0.86c0,0-6.947-3.633-8.857-5.898c-1.088-1.291-3.017-1.455-4.309-0.366
		c-1.29,1.089-1.455,3.018-0.365,4.308c2.744,3.256,8.792,6.11,11.816,8.522c0.199,0.157-0.229-0.954,0.959,1.687
		c0.721,1.605,2.6,6,3.753,8.675c-3.769,1.977-7.07,4.73-10.208,7.64c-1.261,1.168-1.224,3.353,0,4.524
		c2.05,1.969,4.358,3.59,6.832,4.979c3.603,2.021,6.828-3.506,3.229-5.523c-1.011-0.569-1.98-1.165-2.907-1.82
		c2.014-1.734,4.162-3.347,6.545-4.472c-0.562,5.988,0.178,12.851,2.087,17.501c1.477,3.594,7.393,2.021,5.896-1.627
		c-2.31-5.621-2.756-15.086-0.766-20.875c0.26-0.754,0.217-1.416-0.013-1.97c-0.063-0.486-0.17-0.972-0.375-1.444
		c-0.599-1.375-2.696-6.355-3.224-7.535c4.228-1.607,8.613-3.373,12.963-5.409C49.954,15.132,50.533,13.995,50.253,12.731z"/>
	<path fill="#0E0F0F" d="M40.6,57.368c-0.798,0.666-1.043,1.659-1.111,2.353c-0.413-0.514-0.922-0.826-1.514-0.93
		c-1.332-0.234-2.738,0.654-3.426,1.175c0.036-1.214-0.287-2.231-0.967-3.026c-1.35-1.582-3.596-1.707-3.691-1.709l-0.022,0.467
		c0.023,0.001,2.139,0.117,3.357,1.547c0.689,0.811,0.967,1.895,0.818,3.227l-0.068,0.62l0.459-0.423
		c0.019-0.018,1.863-1.697,3.459-1.416c0.664,0.119,1.205,0.574,1.606,1.352l0.558,1.072l-0.115-1.205
		c-0.002-0.018-0.159-1.813,0.957-2.746c0.783-0.651,2.016-0.746,3.662-0.281l0.125-0.45C42.885,56.48,41.508,56.607,40.6,57.368z"
		/>
	<circle fill="#0E0F0F" cx="28.67" cy="8.023" r="5.163"/>
</g>
</svg>
