<?xml version="1.0" encoding="utf-8"?>
<!-- Generator: Adobe Illustrator 16.0.4, SVG Export Plug-In . SVG Version: 6.00 Build 0)  -->
<!DOCTYPE svg PUBLIC "-//W3C//DTD SVG 1.1//EN" "http://www.w3.org/Graphics/SVG/1.1/DTD/svg11.dtd">
<svg version="1.1" id="Capa_1" xmlns="http://www.w3.org/2000/svg" xmlns:xlink="http://www.w3.org/1999/xlink" x="0px" y="0px"
	 width="64px" height="64px" viewBox="0 0 64 64" enable-background="new 0 0 64 64" xml:space="preserve">
<g>
	<path fill="#0E0F0F" d="M50.175,10.939c-1.038-1.039-2.722-1.039-3.761,0l-2.016,2.016l-0.611-0.612l-0.852,0.851l0.01,0.011
		l-5.797,5.468l-7.717-4.214c-0.978-0.628-2.104-0.95-3.385-0.958c-1.836,0-3.797,0.923-5.116,2.411
		c-1.094,1.23-1.601,2.712-1.428,4.167l1.587,13.256c-0.449-0.258-0.886-0.532-1.322-0.769c-1.331-0.717-2.782-0.83-4.208-0.339
		c-0.803,0.275-1.485,0.987-1.563,1.863c-0.066,0.74,0.55,1.354,1.303,1.094c1.075-0.369,2.085-0.067,3.086,0.405
		c-0.137,0.044-0.269,0.095-0.407,0.136c-0.806,0.234-1.488,1.016-1.562,1.862c-0.068,0.771,0.546,1.313,1.305,1.095
		c1.287-0.377,2.514-0.904,3.698-1.525l1.111,8.656l-6.605,7.74l-0.018-0.019l-1.421,1.524l0.958,0.893l-1.834,1.643
		c-1.094,0.98-1.188,2.661-0.207,3.758c0.981,1.094,2.662,1.186,3.757,0.205l2.192-1.965l1.219,1.135l1.42-1.523l-0.016-0.018
		c0.728-0.812,1.482-1.627,2.287-2.479c2.239-2.366,4.554-4.812,6.134-7.51c1.002-1.711,0.51-4.211,0.114-6.219
		c-0.008-0.047-0.018-0.095-0.027-0.14c2.888,3.234,4.101,6.979,3.771,11.575l-0.031-0.002l-0.205,2.074l1.676,0.164v2.924
		c0,1.471,1.189,2.66,2.658,2.66c1.472,0,2.662-1.189,2.662-2.66v-2.4l1.278,0.125l0.205-2.072l-0.058-0.006
		c0.814-7.838-1.91-14.617-8.123-20.158c0.008-0.234,0-0.455-0.026-0.666l-0.042-0.347h6h0.924h0.295v-0.694h2.865
		c1.471,0,2.66-1.189,2.66-2.661c0-1.469-1.189-2.66-2.66-2.66h-2.865v-0.56h-0.295H40.25h-6.786l-0.382-3.187l2.891,1.579
		c0.535,0.292,1.129,0.446,1.717,0.446c0.892,0,1.752-0.348,2.422-0.98l7.703-7.262l0.004,0.007l0.853-0.851l-0.511-0.51
		l2.016-2.016C51.215,13.662,51.215,11.978,50.175,10.939z M40.25,28.852v3.824h-5.221l-0.646-3.824H40.25z M33.619,36.299
		c5.703,5.191,8.21,11.508,7.453,18.788l-5.445-0.535c0.41-5.722-1.459-10.382-5.695-14.215l-1.38-1.245l0.32,2.51
		c0.065,0.496,0.173,1.053,0.291,1.646c0.35,1.778,0.785,3.995,0.048,5.256c-1.5,2.562-3.76,4.95-5.948,7.261
		c-0.768,0.813-1.556,1.647-2.302,2.48l-4.027-3.751l7.042-8.251l-1.169-9.094c0.085-0.027,0.167-0.063,0.248-0.107
		c1.172,0,2.342,0,3.514,0c0.053,0,0.103,0,0.156,0c1.863,0,3.726,0,5.589,0C32.795,37.041,33.264,36.727,33.619,36.299z
		 M39.168,24.333c-0.695,0.656-1.699,0.785-2.535,0.328L31.4,21.805l1.456,12.179c-1.716,0-3.436,0-5.153,0
		c-0.052,0-0.102,0-0.154,0c-1.634,0-3.267,0-4.901,0c-0.064-0.02-0.132-0.027-0.199-0.035c0.005-0.109,0.012-0.221,0.031-0.323
		l0.018-0.103L20.87,19.915c-0.163-1.357,0.502-2.429,1.088-3.091c1.051-1.183,2.656-1.947,4.115-1.947
		c0.979,0.006,1.86,0.255,2.657,0.766l8.637,4.716l6.554-6.18l2.92,2.92L39.168,24.333z"/>
	<circle fill="#0E0F0F" cx="28.447" cy="8.282" r="5.143"/>
</g>
</svg>
