<?xml version="1.0" encoding="utf-8"?>
<!-- Generator: Adobe Illustrator 16.0.4, SVG Export Plug-In . SVG Version: 6.00 Build 0)  -->
<!DOCTYPE svg PUBLIC "-//W3C//DTD SVG 1.1//EN" "http://www.w3.org/Graphics/SVG/1.1/DTD/svg11.dtd">
<svg version="1.1" id="Capa_1" xmlns="http://www.w3.org/2000/svg" xmlns:xlink="http://www.w3.org/1999/xlink" x="0px" y="0px"
	 width="64px" height="64px" viewBox="0 0 64 64" enable-background="new 0 0 64 64" xml:space="preserve">
<g>
	<path fill="#0E0F0F" d="M33.004,11.922c2.969,0.777,6.001-1,6.773-3.968c0.774-2.967-1.002-6-3.967-6.773
		c-2.969-0.774-6.002,1.003-6.776,3.97C28.26,8.118,30.039,11.152,33.004,11.922z"/>
	<path fill="#0E0F0F" d="M51.413,58.076l-1.099-2.668l0.486-0.203l-0.193-0.572c-2.125-6.23-4.308-13.594-5.741-18.594
		c0.393,0.729,0.805,1.447,1.243,2.146c0.5,0.801,1.334-0.668,0.938-1.3c-0.649-1.034-1.239-2.104-1.769-3.202
		c0.068,0.016,0.135,0.032,0.203,0.051c0.697,0.16,1.086,0.537,1.395,1.184c0.111,0.238,0.252,0.346,0.516,0.354
		c0.381,0.008,0.821-0.108,1.031-0.465c0.108-0.182,0.209-0.354,0.26-0.563c0.018-0.063,0.028-0.123,0.037-0.188
		c0.008-0.043,0.016-0.072,0.021-0.1c0.224-0.289,0.305-0.709,0.17-1.051c-0.141-0.359-0.535-0.467-0.826-0.199
		c-0.195,0.179-0.334,0.389-0.425,0.631c-0.298-0.473-0.673-0.873-1.22-1.095c-0.619-0.255-1.295-0.273-1.881-0.625
		c-0.153-0.094-0.303-0.098-0.435-0.046c-0.146-0.013-0.296,0.075-0.429,0.212c-0.133-1.216-0.271-2.432-0.416-3.646
		c2.029-1.194,4.012-2.588,6.046-4.252c0.786-0.644,1.243-1.629,1.28-2.775c0.043-1.255-0.424-2.465-1.248-3.238
		c-3.16-2.964-6.938-3.883-10.942-4.856l-0.272-0.067c-0.115-0.04-0.235-0.06-0.359-0.06c-0.98,0-2.178,1.44-2.963,2.567
		c-0.68-1.009-1.604-2.101-2.412-2.101c-0.183,0-0.361,0.049-0.514,0.142c-0.646,0.391-1.199,0.87-1.648,1.431h-12.13v2.051h-3.406
		c-1.298,0-2.35,1.052-2.35,2.35c0,1.298,1.052,2.351,2.35,2.351h3.406v1.668H29.61c0.482,3.295,0.922,6.758,1.308,10.307
		c-3.809,0.97-7.554,2.521-11.139,4.621c-1.073,0.629-1.73,1.58-1.859,2.688c-0.131,0.33-0.218,0.681-0.262,1.043l-1.57,12.871
		l1.058,0.201l-0.465,2.723c-0.278,1.625,0.815,3.166,2.44,3.443c1.624,0.276,3.166-0.815,3.443-2.438l0.446-2.617l1.074,0.205
		l1.472-12.041c3.491-1.818,9.079-4.146,10.292-4.65c0.564,0.09,1.151,0.107,1.739,0.053l6.511,18.254l0.713-0.297l1.084,2.635
		c0.627,1.525,2.371,2.252,3.894,1.625C51.312,61.346,52.04,59.602,51.413,58.076z M30.811,22.604l-0.083-0.553H19.414v-0.373h0.033
		c-0.012-0.014-0.021-0.026-0.033-0.039v-4.633c0.02-0.018,0.033-0.029,0.033-0.029h-0.033v-0.755h11.491l0.193-0.273
		c0.352-0.496,0.805-0.922,1.348-1.269c0.373,0.216,1.191,1.252,1.805,2.301l0.543,0.925l0.565-0.911
		c0.863-1.386,1.998-2.703,2.402-2.807l0.352,0.086c3.832,0.931,7.449,1.812,10.363,4.543c0.547,0.514,0.867,1.375,0.838,2.249
		c-0.025,0.767-0.312,1.412-0.806,1.815c-1.852,1.515-3.657,2.787-5.495,3.895l-1.381-5.845l-1.261,0.297L40.555,22l-3.539,1.442
		c-1.203,0.489-1.781,1.862-1.289,3.064c0.488,1.202,1.859,1.78,3.062,1.29l2.919-0.919l0.242,1.025
		c0.165,1.356,0.319,2.713,0.468,4.07H32.031C31.664,28.748,31.256,25.602,30.811,22.604z M44.857,56.287L38.45,38.314l-0.537,0.092
		c-0.679,0.115-1.373,0.111-2.021-0.01l-0.188-0.035l-0.178,0.072c-0.721,0.295-7.156,2.95-10.878,4.932l-0.297,0.158l-1.386,11.338
		L17.52,53.83l1.424-11.67c0.035-0.279,0.102-0.539,0.208-0.789l0.047-0.195c0.063-0.73,0.49-1.348,1.235-1.781
		c3.648-2.137,7.462-3.69,11.338-4.617l0.554-0.133l-0.06-0.565c-0.006-0.052-0.011-0.103-0.018-0.154h10.669
		c1.312,4.646,3.812,13.279,6.269,20.554L44.857,56.287z"/>
</g>
</svg>
