<?xml version="1.0" encoding="utf-8"?>
<!-- Generator: Adobe Illustrator 16.0.4, SVG Export Plug-In . SVG Version: 6.00 Build 0)  -->
<!DOCTYPE svg PUBLIC "-//W3C//DTD SVG 1.1//EN" "http://www.w3.org/Graphics/SVG/1.1/DTD/svg11.dtd">
<svg version="1.1" id="Capa_1" xmlns="http://www.w3.org/2000/svg" xmlns:xlink="http://www.w3.org/1999/xlink" x="0px" y="0px"
	 width="64px" height="64px" viewBox="0 0 64 64" enable-background="new 0 0 64 64" xml:space="preserve">
<g>
	<path fill="#0E0F0F" d="M30.713,19.196c-0.026-0.133-0.143-0.233-0.284-0.233h-0.288c-0.141,0-0.257,0.1-0.283,0.233l-1.304-0.491
		c-0.16,0-0.289,0.13-0.289,0.289v1.248c0,0.159,0.129,0.289,0.289,0.289l1.31-0.468c0.035,0.121,0.146,0.21,0.277,0.21h0.288
		c0.132,0,0.243-0.09,0.277-0.21l1.31,0.468c0.16,0,0.289-0.129,0.289-0.289v-1.248c0-0.159-0.129-0.289-0.289-0.289L30.713,19.196z
		"/>
	<path fill="#0E0F0F" d="M49.016,16.95c1.449-2.03,3.452-2.532,3.452-2.532s-1.317-3.144-3.827-2.151
		c-2.508,0.993-1.225,0.43-3.008,0.755c-0.305,0.056-0.48,0.239-0.576,0.495c-0.352-0.447-1.021-1.375-1.591-1.495
		c-2.159-0.263-2.015,1.518-2.015,1.518s0,0,0.589-0.129c0.39,0.118,0.647,0.355,0.835,0.662c0.312,0.748-0.792,1.779,0.262,3.217
		c0.756,1.034,1.913,0.747,3.084,1.149c-0.016,0.071-0.029,0.142-0.048,0.212c-0.274,0.085-0.546,0.235-0.798,0.481
		c-1.279,1.251-2.755,2.283-4.314,3.159c-1.61-0.517-3.146-1.335-4.213-2.667c-0.353-0.44-0.763-0.633-1.171-0.662
		c-0.675-0.129-1.747-0.277-3.01-0.375v17.002h-4.873V18.562c-1.355,0.119-2.606,0.37-3.514,0.826
		c-0.005,0.006-0.008,0.013-0.013,0.018c-0.209,0.074-0.417,0.175-0.614,0.33c-1.7,1.332-2.838,3.173-3.733,5.112
		c-0.535,1.16-1.363,2.72-1.363,4.049c0,1.303,1.012,2.831,1.598,3.926c1.069,2.002,2.559,3.774,4.478,4.999l-0.006,2.515v15.935
		c0,1.31,0.958,2.371,2.305,2.371c1.347,0,2.439-1.062,2.439-2.371V39.67c0,0,0.078-0.842,0.936-0.852
		c0.858-0.008,0.835,0.811,0.835,0.811v16.596c0,1.311,1.092,2.373,2.439,2.373c1.347,0,2.438-1.063,2.438-2.373L36.1,39.1
		c0-0.162,0.017-11.58,0.021-14.621l-0.013-0.232c1.41,0.964,3.064,1.632,4.664,2.054c1.082,0.285,2.129-0.521,3.004-1.046
		c1.576-0.942,3.063-2.063,4.375-3.346c0.529-0.516,0.66-1.117,0.547-1.666c0.996,0.5,1.693,0.08,1.693,0.08
		c-0.334-0.77-0.928-2.029-1.545-3.124C48.9,17.118,48.951,17.039,49.016,16.95z M22.539,28.654
		C22.497,28.454,22.54,28.451,22.539,28.654L22.539,28.654z M24.647,32.529c-0.399-0.533-0.764-1.097-1.101-1.688
		c-0.316-0.554-0.584-1.136-0.845-1.718c-0.052-0.116-0.089-0.214-0.116-0.299c0.457-1.564,1.125-3.121,2.083-4.445L24.647,32.529z"
		/>
	<rect x="27.465" y="4.132" fill="#0E0F0F" width="5.643" height="7.718"/>
	<rect x="25.998" y="12.309" fill="#0E0F0F" width="8.575" height="1.354"/>
	<path fill="#0E0F0F" d="M33.688,14.126h-6.803c0,1.878,1.522,3.4,3.401,3.4S33.688,16.004,33.688,14.126z"/>
</g>
</svg>
