<?xml version="1.0" encoding="utf-8"?>
<!-- Generator: Adobe Illustrator 16.0.4, SVG Export Plug-In . SVG Version: 6.00 Build 0)  -->
<!DOCTYPE svg PUBLIC "-//W3C//DTD SVG 1.1//EN" "http://www.w3.org/Graphics/SVG/1.1/DTD/svg11.dtd">
<svg version="1.1" id="Capa_1" xmlns="http://www.w3.org/2000/svg" xmlns:xlink="http://www.w3.org/1999/xlink" x="0px" y="0px"
	 width="64px" height="64px" viewBox="0 0 64 64" enable-background="new 0 0 64 64" xml:space="preserve">
<g>
	<circle fill="#0E0F0F" cx="23.31" cy="13.797" r="3.174"/>
	<path fill="#0E0F0F" d="M62.207,42.169c-0.107-0.03-8.844-2.63-20.781-3.665c-2.303-3.913-4.604-7.823-6.906-11.735
		c-0.062-0.105-0.129-0.198-0.201-0.285c-0.047-0.12-0.103-0.24-0.164-0.36c-0.912-1.779-1.857-3.543-2.835-5.288
		c3.097,0.095,6.195,0.19,9.292,0.286c2.523,0.076,2.517-3.837,0-3.914c-4.256-0.13-8.513-0.26-12.771-0.391
		c-0.487-0.015-0.878,0.121-1.177,0.349c-0.324,0.073-0.639,0.192-0.935,0.351c-0.297,0.072-0.591,0.221-0.867,0.469
		c-2.416,2.17-4.83,4.342-7.246,6.514c-1.879,1.689,0.896,4.447,2.766,2.766c1.531-1.376,3.062-2.752,4.594-4.129
		c1.137,1.986,2.227,4,3.278,6.035c-1.774,0.906-3.417,2.035-4.945,3.365c-0.629,0.548-0.746,1.216-0.553,1.805
		c-0.043,0.184-0.07,0.379-0.055,0.6c0.073,1.11,0.146,2.22,0.218,3.33c-4.563,0.193-8.747,0.535-12.229,1.006
		c-9.375,1.27-9.375,2.861-9.375,3.541c0,0.679,0,2.271,9.375,3.537c5.698,0.771,13.267,1.196,21.312,1.196
		c16.484,0,30.071-4.048,30.207-4.09c0.284-0.084,0.48-0.346,0.48-0.646C62.688,42.518,62.491,42.256,62.207,42.169z M32.096,31.738
		c0.238-0.083,0.44-0.197,0.612-0.333c1.331,2.261,2.662,4.523,3.993,6.785c-1.533-0.069-3.104-0.107-4.701-0.107
		c-1.754,0-3.483,0.021-5.178,0.062c-0.07-1.069-0.14-2.136-0.21-3.203c-0.001-0.028-0.01-0.051-0.013-0.077
		C28.243,33.523,30.09,32.436,32.096,31.738z M32,46.202c-18.537,0-28.724-2.155-29.328-3.386c0.498-1.014,7.509-2.653,20.334-3.198
		c0.052,0.792,0.103,1.584,0.156,2.376c0.163,2.506,4.077,2.52,3.912,0c-0.055-0.835-0.109-1.669-0.164-2.506
		c1.619-0.035,3.315-0.057,5.089-0.057c1.884,0,3.729,0.055,5.521,0.149c0.336,0.569,0.672,1.142,1.008,1.713
		c1.16,1.968,4.049,0.535,3.623-1.371c7.719,0.724,13.99,2.087,17.24,2.894C54.803,43.955,44.208,46.202,32,46.202z"/>
</g>
</svg>
