<?xml version="1.0" encoding="utf-8"?>
<!-- Generator: Adobe Illustrator 16.0.4, SVG Export Plug-In . SVG Version: 6.00 Build 0)  -->
<!DOCTYPE svg PUBLIC "-//W3C//DTD SVG 1.1//EN" "http://www.w3.org/Graphics/SVG/1.1/DTD/svg11.dtd">
<svg version="1.1" id="Capa_1" xmlns="http://www.w3.org/2000/svg" xmlns:xlink="http://www.w3.org/1999/xlink" x="0px" y="0px"
	 width="64px" height="64px" viewBox="0 0 64 64" enable-background="new 0 0 64 64" xml:space="preserve">
<g>
	<circle fill="#0E0F0F" cx="23.87" cy="7.745" r="6.683"/>
	<path fill="#0E0F0F" d="M56.168,25.887c4.027-0.138,4.042-6.401,0-6.263c-7.825,0.266-15.568-0.211-23.271-1.401
		c-1.394-1.664-3.402-2.579-5.853-1.923c-1.7,0.456-3.33,1.937-4.062,3.695c-5.468-1.145-9.503-4.664-12.257-10.172
		c-1.808-3.613-7.21-0.44-5.41,3.161c3.919,7.837,10.572,12.691,18.954,13.548c2.173,4.522,4.778,8.807,7.058,13.288
		c0.096,0.188,0.198,0.361,0.303,0.529c0.072,0.42,0.217,0.852,0.454,1.287c3.381,6.246,1.658,10.463-4.523,13.627
		c-4.495,2.303-0.533,9.059,3.952,6.762c4.469-2.289,7.942-5.414,9.733-10.174c1.062-2.828,0.779-5.892-0.1-8.785
		c4.826,3.798,7.556,9.055,7.193,16.094c-0.258,5.049,7.573,5.023,7.828,0c0.572-11.184-5.245-20.131-14.688-25.239
		c-0.008-0.017-0.015-0.03-0.021-0.047c-1.213-2.384-2.543-4.707-3.844-7.046c-0.332-0.596-0.65-1.199-0.977-1.799
		C43.109,25.799,49.617,26.11,56.168,25.887z"/>
</g>
</svg>
