<?xml version="1.0" encoding="utf-8"?>
<!-- Generator: Adobe Illustrator 16.0.4, SVG Export Plug-In . SVG Version: 6.00 Build 0)  -->
<!DOCTYPE svg PUBLIC "-//W3C//DTD SVG 1.1//EN" "http://www.w3.org/Graphics/SVG/1.1/DTD/svg11.dtd">
<svg version="1.1" id="Capa_1" xmlns="http://www.w3.org/2000/svg" xmlns:xlink="http://www.w3.org/1999/xlink" x="0px" y="0px"
	 width="64px" height="64px" viewBox="0 0 64 64" enable-background="new 0 0 64 64" xml:space="preserve">
<path fill="#010101" d="M35.745,22.66c1.88,0,3.403,1.523,3.403,3.403s-1.523,3.403-3.403,3.403s-3.403-1.523-3.403-3.403
	S33.865,22.66,35.745,22.66z M19.157,14.801l-0.287-0.505l1.406-0.799l0.287,0.505L19.157,14.801z M45.718,44.467
	c-1.155-4.662-3.549-8.896-6.909-12.307c-0.222-0.293-0.483-0.539-0.783-0.737c-0.041-0.027-0.084-0.052-0.125-0.077
	c-1.273-0.771-3.059-0.71-4.262,0.175c-2.158-2.058-3.723-4.808-4.363-7.763c-0.245-1.132-1.364-1.851-2.493-1.605
	c-0.04,0.008-0.076,0.026-0.115,0.037v-9.942h1.333L25.99,10h-1.342l-1.016-1.346h-0.514V2.069H22.41v6.584h-0.545L20.702,10h-1.257
	l-1.679,2.249h2.62c0.402,1.06,1.239,1.792,2.207,1.792c0.969,0,1.806-0.732,2.208-1.792h1.101V22.59
	c-0.586,0.484-0.896,1.264-0.723,2.057c0.964,4.455,3.57,8.563,7.148,11.272c0.002,0.001,0.004,0.002,0.007,0.004
	c-0.001,2.489-0.061,4.979-0.17,7.468c-0.008,0.217,0.002,0.416,0.023,0.611c-0.01,0.076-0.026,0.145-0.028,0.227
	c-0.15,5.201-0.3,10.403-0.451,15.605c-0.079,2.701,4.114,2.844,4.19,0.135c0.082-2.812,0.164-5.623,0.244-8.435
	c0.383,2.853,0.768,5.705,1.149,8.558c0.358,2.68,4.521,2.141,4.159-0.546c-0.692-5.16-1.389-10.315-2.081-15.474
	c-0.021-0.163-0.058-0.313-0.104-0.45c0.008-0.104,0.022-0.21,0.027-0.319c0.051-1.145,0.087-2.293,0.116-3.438
	c0.985,1.754,1.743,3.637,2.233,5.613c0.207,0.836,0.892,1.433,1.689,1.563c0.271,0.046,0.562,0.038,0.852-0.034
	C45.311,46.729,45.994,45.591,45.718,44.467z M22.591,13.46c-0.663,0-1.241-0.487-1.577-1.212h3.155
	C23.833,12.973,23.254,13.46,22.591,13.46z M22.14,16.186l-0.562-0.154l0.428-1.56l0.561,0.154L22.14,16.186z M24.489,15.785
	l-0.44-1.556l0.559-0.158l0.44,1.556L24.489,15.785z"/>
</svg>
