<?xml version="1.0" encoding="utf-8"?>
<!-- Generator: Adobe Illustrator 16.0.4, SVG Export Plug-In . SVG Version: 6.00 Build 0)  -->
<!DOCTYPE svg PUBLIC "-//W3C//DTD SVG 1.1//EN" "http://www.w3.org/Graphics/SVG/1.1/DTD/svg11.dtd">
<svg version="1.1" id="Capa_1" xmlns="http://www.w3.org/2000/svg" xmlns:xlink="http://www.w3.org/1999/xlink" x="0px" y="0px"
	 width="64px" height="64px" viewBox="0 0 64 64" enable-background="new 0 0 64 64" xml:space="preserve">
<g>
	<circle fill="#0E0F0F" cx="32.352" cy="10.358" r="4.614"/>
	<path fill="#0E0F0F" d="M49.699,13.768c-5.109,1.92-10.387,3.046-15.838,3.351c-0.055,0.003-0.103,0.018-0.154,0.024
		c-0.654-0.248-1.35-0.359-2.013-0.291c-0.577,0.059-1.086,0.227-1.544,0.458c-4.145-0.994-8.092-2.427-11.829-4.594
		c-2.839-1.646-5.395,2.743-2.564,4.386c3.767,2.184,7.763,3.736,11.931,4.826c0.014,2.702,0.029,5.405,0.043,8.108
		c-0.978,6.823-3.837,17.563-6.127,23c-0.68,1.614,0.078,3.478,1.693,4.157c0.403,0.168,0.819,0.25,1.231,0.25
		c1.239,0,2.416-0.731,2.927-1.943c1.709-4.059,3.454-9.984,4.76-15.473c1.078,4.82,1.391,9.52,1.02,14.713
		c-0.125,1.749,1.19,3.267,2.939,3.393c0.076,0.006,0.153,0.008,0.229,0.008c1.649,0,3.043-1.275,3.162-2.947
		c0.576-8.062-0.299-15.041-2.897-22.769c-0.019-3.482-0.036-6.965-0.054-10.448c4.935-0.491,9.771-1.559,14.435-3.312
		C54.085,17.524,52.771,12.614,49.699,13.768z"/>
</g>
</svg>
