<?xml version="1.0" encoding="utf-8"?>
<!-- Generator: Adobe Illustrator 16.0.4, SVG Export Plug-In . SVG Version: 6.00 Build 0)  -->
<!DOCTYPE svg PUBLIC "-//W3C//DTD SVG 1.1//EN" "http://www.w3.org/Graphics/SVG/1.1/DTD/svg11.dtd">
<svg version="1.1" id="Capa_1" xmlns="http://www.w3.org/2000/svg" xmlns:xlink="http://www.w3.org/1999/xlink" x="0px" y="0px"
	 width="64px" height="64px" viewBox="0 0 64 64" enable-background="new 0 0 64 64" xml:space="preserve">
<g>
	<path fill="#0E0F0F" d="M49.51,51.447C45.546,45.92,42.6,39.91,40.43,33.49c-0.022-0.469-0.106-0.959-0.275-1.476
		c-0.562-1.726-1.041-3.469-1.471-5.225c1.162,0.918,2.28,1.905,3.356,2.963c2.909,2.861,7.383-1.608,4.472-4.472
		c-3.201-3.148-6.798-5.847-10.781-7.925c-1.371-1.128-3.367-1.599-5.006-1.159c-0.993,0.266-1.788,0.753-2.397,1.384
		c-0.313,0.072-0.633,0.198-0.957,0.39c-1.15,0.678-2.241,1.197-3.554,1.456c0.353-0.069-0.535-0.107-0.548-0.057
		c-0.068-0.018-0.135-0.037-0.201-0.057c-0.002-0.003-0.003-0.004-0.005-0.006c0.18,0.025-0.084-0.159-0.136-0.159
		c-0.082-0.136-0.164-0.271-0.233-0.414c0.196,0.376-0.193-0.942-0.182-0.838c-0.143-1.333,0.05-2.646,0.333-3.944
		c0.336-1.54-0.374-2.734-1.42-3.392c0.051-0.003,0.103-0.004,0.152-0.008c0.379-0.027,0.758-0.062,1.137-0.106l0.601,0.704h2.506
		V9.298h-2.506l-0.715,0.69c-0.341-0.037-0.682-0.069-1.023-0.093c-0.852-0.06-1.705-0.094-2.557-0.092
		c-0.852,0-1.706,0.032-2.559,0.093c-0.852,0.063-1.705,0.153-2.557,0.328c0.852,0.174,1.705,0.264,2.557,0.326
		c0.411,0.03,0.821,0.051,1.231,0.067c-0.444,0.371-0.785,0.914-0.947,1.653c-0.838,3.842-1.21,8.827,2.07,11.707
		c2.478,2.176,5.617,2.018,8.495,0.993c0.607,3.281,1.392,6.518,2.42,9.698c0,7.949,0,15.893,0,23.84c0,4.078,6.326,4.078,6.326,0
		c0-6.211,0-12.422,0-18.633c2.09,5.207,4.7,10.174,7.993,14.764C46.404,57.92,51.893,54.768,49.51,51.447z M23.01,19.295
		c0.019,0.004,0.036,0.008,0.049,0.01c0.002,0.002,0.004,0.003,0.006,0.006C23.046,19.305,23.028,19.3,23.01,19.295z"/>
	<circle fill="#0E0F0F" cx="32.115" cy="9.275" r="5.558"/>
</g>
</svg>
