<?xml version="1.0" encoding="utf-8"?>
<!-- Generator: Adobe Illustrator 16.0.4, SVG Export Plug-In . SVG Version: 6.00 Build 0)  -->
<!DOCTYPE svg PUBLIC "-//W3C//DTD SVG 1.1//EN" "http://www.w3.org/Graphics/SVG/1.1/DTD/svg11.dtd">
<svg version="1.1" id="Capa_1" xmlns="http://www.w3.org/2000/svg" xmlns:xlink="http://www.w3.org/1999/xlink" x="0px" y="0px"
	 width="64px" height="64px" viewBox="0 0 64 64" enable-background="new 0 0 64 64" xml:space="preserve">
<g>
	<path fill="#0E0F0F" d="M45.973,14.246c-5.279,2.687-10.6,5.283-15.584,8.493c-0.297-0.061-0.612-0.084-0.952-0.038
		c-3.346,0.465-6.863-0.081-10.211-0.679c-0.19-2.673,0.639-5.438,0.957-8.066c0.396-3.278-4.738-3.24-5.129,0
		c-0.449,3.717-1.447,7.2-0.55,10.939c0.193,0.801,0.955,1.641,1.791,1.791c3.598,0.647,7.227,1.245,10.869,1.217
		c0.034,0.274,0.086,0.548,0.16,0.821c1.172,4.353,2.345,8.708,3.516,13.059c0,0.001,0,0.002,0.001,0.003
		c-3.148,2.478-6.141,5.188-9.55,7.297c-2.806,1.735-0.232,6.174,2.589,4.429c3.897-2.41,7.237-5.6,10.896-8.334
		c0.199-0.148,0.365-0.312,0.508-0.486c0.183-0.006,0.365-0.018,0.545-0.043c0.729,2.076,1.52,4.129,2.355,6.172
		c-2.312,2.576-4.412,5.324-6.182,8.307c-1.691,2.852,2.743,5.43,4.43,2.588c1.854-3.126,4.073-5.923,6.566-8.562
		c0.755-0.799,0.85-1.732,0.564-2.537c-0.033-0.133-0.074-0.27-0.133-0.41c-1.49-3.594-2.854-7.208-3.979-10.934
		c-0.034-0.224-0.077-0.445-0.137-0.668c-1.172-4.354-2.344-8.708-3.517-13.06c-0.009-0.033-0.022-0.062-0.032-0.094
		c4.157-2.451,8.487-4.583,12.793-6.774C51.509,17.174,48.913,12.75,45.973,14.246z"/>
	<circle fill="#0E0F0F" cx="28.941" cy="16.384" r="4.66"/>
	<circle fill="#0E0F0F" cx="45.503" cy="4.418" r="3.366"/>
</g>
</svg>
