<?xml version="1.0" encoding="utf-8"?>
<!-- Generator: Adobe Illustrator 16.0.4, SVG Export Plug-In . SVG Version: 6.00 Build 0)  -->
<!DOCTYPE svg PUBLIC "-//W3C//DTD SVG 1.1//EN" "http://www.w3.org/Graphics/SVG/1.1/DTD/svg11.dtd">
<svg version="1.1" id="Capa_1" xmlns="http://www.w3.org/2000/svg" xmlns:xlink="http://www.w3.org/1999/xlink" x="0px" y="0px"
	 width="64px" height="64px" viewBox="0 0 64 64" enable-background="new 0 0 64 64" xml:space="preserve">
<g>
	<path fill="#0E0F0F" d="M49.841,55.475c-1.646-4.477-3.681-9.36-6.173-14.828c2.409-6.102-1.09-13.522-4.348-18.794
		c-1.834-2.971-4.891-3.516-7.473-2.63c-4.955-0.49-9.952-0.904-14.565-0.835c-1.88,0.03-3.38,1.565-3.352,3.429
		c0.03,1.865,1.615,3.349,3.458,3.323c3.09-0.045,6.45,0.152,9.878,0.441c0.041,0.415,0.129,0.839,0.273,1.269l-5.808,3.37
		c-2.069,1.2-2.815,3.334-1.667,4.766c1.149,1.435,3.758,1.619,5.827,0.418l4.743-2.75c0.073,0.154,0.133,0.287,0.173,0.389
		c0.233,0.598,0.413,1.21,0.589,1.823c0.065,0.229,0.171,0.983,0.229,1.334c0,0.081-0.004,0.161-0.005,0.243
		c-0.014,0.052-0.021,0.084-0.028,0.115c-0.395,0.889-0.612,1.822-0.619,2.754c-3.7,4.566-7.147,9.914-9.719,15.164
		c-0.913,1.865-0.13,4.107,1.749,5.015c0.532,0.256,1.096,0.379,1.651,0.379c1.404,0,2.752-0.779,3.405-2.113
		c2.098-4.282,4.833-8.635,7.796-12.469c0.56,0.139,1.139,0.213,1.713,0.213c2.056,4.586,3.759,8.728,5.16,12.545
		c0.562,1.521,2.013,2.468,3.557,2.468c0.431,0,0.867-0.074,1.296-0.229C49.544,59.574,50.555,57.42,49.841,55.475z M31.993,35.77
		c0.007-0.02,0.013-0.035,0.019-0.055c0.018-0.023,0.037-0.047,0.057-0.074C32.043,35.684,32.018,35.727,31.993,35.77z"/>
	<ellipse fill="#0E0F0F" cx="28.936" cy="10.409" rx="6.98" ry="6.921"/>
</g>
</svg>
