<?xml version="1.0" encoding="utf-8"?>
<!-- Generator: Adobe Illustrator 16.0.4, SVG Export Plug-In . SVG Version: 6.00 Build 0)  -->
<!DOCTYPE svg PUBLIC "-//W3C//DTD SVG 1.1//EN" "http://www.w3.org/Graphics/SVG/1.1/DTD/svg11.dtd">
<svg version="1.1" id="Capa_1" xmlns="http://www.w3.org/2000/svg" xmlns:xlink="http://www.w3.org/1999/xlink" x="0px" y="0px"
	 width="64px" height="64px" viewBox="0 0 64 64" enable-background="new 0 0 64 64" xml:space="preserve">
<g>
	<circle fill="#0E0F0F" cx="32.1" cy="20.642" r="4.014"/>
	<path fill="#0E0F0F" d="M47.488,39.827c-2.366-5.457-6.211-10.115-11.116-13.473c-0.675-0.463-1.497-0.537-2.215-0.285
		c-0.611-0.02-1.229,0.078-1.806,0.287c-0.094-0.014-0.186-0.036-0.281-0.039c-4.126-0.17-8.257-1.915-11.336-4.789
		c-0.834-0.777-2.06-0.858-2.983-0.288v-9.992H33.27l-5.724-4.571l5.724-4.981H15.753v3.699v5.854v51.058h1.998V25.496
		c3.353,2.981,7.614,4.948,12.007,5.568c0.61,3.435,1.111,6.891,1.537,10.353c-5.866,5.091-7.337,11.636-4.106,18.526
		c0.422,0.897,1.313,1.425,2.241,1.425c0.353,0,0.71-0.076,1.05-0.234c1.237-0.579,1.77-2.054,1.188-3.291
		c-2.355-5.021-1.299-9.272,3.215-12.987c0.178,0.008,0.355,0.004,0.533-0.008c0.909,5.025,1.82,10.051,2.73,15.074
		c0.569,3.137,5.442,2.281,4.873-0.865c-1.096-6.041-2.188-12.082-3.283-18.123c-0.027-0.145-0.071-0.27-0.115-0.396
		c-0.002-0.172-0.014-0.348-0.033-0.529c-0.193-1.561-0.402-3.117-0.628-4.676c1.623,1.941,2.97,4.113,3.988,6.464
		c0.403,0.933,1.315,1.49,2.271,1.49c0.327,0,0.661-0.065,0.98-0.204C47.454,42.538,48.029,41.081,47.488,39.827z"/>
</g>
</svg>
