<?xml version="1.0" encoding="utf-8"?>
<!-- Generator: Adobe Illustrator 16.0.4, SVG Export Plug-In . SVG Version: 6.00 Build 0)  -->
<!DOCTYPE svg PUBLIC "-//W3C//DTD SVG 1.1//EN" "http://www.w3.org/Graphics/SVG/1.1/DTD/svg11.dtd">
<svg version="1.1" id="Capa_1" xmlns="http://www.w3.org/2000/svg" xmlns:xlink="http://www.w3.org/1999/xlink" x="0px" y="0px"
	 width="64px" height="64px" viewBox="0 0 64 64" enable-background="new 0 0 64 64" xml:space="preserve">
<g>
	<circle fill="#0E0F0F" cx="26.615" cy="13.409" r="5.272"/>
	<path fill="#0E0F0F" d="M57.506,55.799c-4.091-6.949-8.183-13.896-12.271-20.844c-0.104-0.176-0.215-0.327-0.332-0.471
		c-0.078-0.199-0.168-0.402-0.271-0.604c-1.934-3.762-3.949-7.485-6.062-11.149c4.123-1.315,7.895-0.114,10.861,4.039
		c2.411,3.378,8.053,0.138,5.608-3.28c-5.737-8.036-14.294-10.032-22.862-4.947c-0.357,0.212-0.644,0.459-0.872,0.728
		c-0.687,0.27-1.326,0.664-1.88,1.15c-0.317,0.086-0.626,0.217-0.913,0.416c-3.47,2.429-7.059,4.941-9.337,9.118
		c-0.404,0.74-0.469,1.618-0.178,2.409c0.291,0.789,0.909,1.417,1.696,1.719c4.431,1.704,7.275,2.23,7.395,2.253
		c0.176,0.03,0.351,0.046,0.523,0.046c1.387,0,2.619-0.99,2.874-2.404c0.104-0.571,0.028-1.133-0.18-1.635
		c1.204,2.186,2.375,4.385,3.521,6.6c-2.948,1.507-5.676,3.381-8.212,5.59c-1.497,1.306-1.251,3.015-0.247,4.168
		c0.244,0.525,0.656,1.008,1.282,1.384c3.355,2.015,6.711,4.028,10.066,6.045c3.603,2.161,6.868-3.459,3.279-5.612
		c-2.169-1.304-4.339-2.604-6.507-3.906c2.088-1.409,4.338-2.572,6.724-3.402c0.396-0.141,0.729-0.328,1.015-0.552
		c3.224,5.474,6.446,10.948,9.67,16.425C54.018,62.688,59.634,59.418,57.506,55.799z M29.126,30.58
		c-0.014-0.002-0.982-0.186-2.653-0.688c0.7-0.714,1.482-1.375,2.305-2.017c0.744,1.285,1.477,2.578,2.196,3.877
		C30.548,31.159,29.903,30.721,29.126,30.58z"/>
	<path fill="#0E0F0F" d="M21.091,22.349l0.225-0.235l-0.235-0.225l-0.434-0.352l-0.202,0.213c-0.073,0.077-0.146,0.153-0.224,0.225
		c-1.116,1.009-2.65,1.372-4.109,0.973l-0.274-0.073l-0.183,0.222c-0.163,0.201-0.316,0.366-0.47,0.506
		c-0.505,0.458-1.099,0.784-1.767,0.97l-0.585,0.163l0.338,0.505c0.794,1.195,0.948,2.754,0.4,4.09l-0.134,0.329l0.291,0.199
		c0.28,0.197,0.533,0.418,0.749,0.655l0.219,0.241l0.652-0.591l-0.217-0.24c-0.187-0.208-0.396-0.402-0.623-0.582
		c0.451-1.341,0.335-2.848-0.315-4.101c0.585-0.232,1.117-0.563,1.584-0.986c0.129-0.117,0.256-0.246,0.383-0.391
		c1.664,0.362,3.389-0.094,4.653-1.239C20.907,22.541,20.994,22.45,21.091,22.349z"/>
	<rect x="6.021" y="5.659" fill="#0E0F0F" width="4.773" height="54.259"/>
</g>
</svg>
