<?xml version="1.0" encoding="utf-8"?>
<!-- Generator: Adobe Illustrator 16.0.4, SVG Export Plug-In . SVG Version: 6.00 Build 0)  -->
<!DOCTYPE svg PUBLIC "-//W3C//DTD SVG 1.1//EN" "http://www.w3.org/Graphics/SVG/1.1/DTD/svg11.dtd">
<svg version="1.1" id="Capa_1" xmlns="http://www.w3.org/2000/svg" xmlns:xlink="http://www.w3.org/1999/xlink" x="0px" y="0px"
	 width="64px" height="64px" viewBox="0 0 64 64" enable-background="new 0 0 64 64" xml:space="preserve">
<g>
	<circle fill="#0E0F0F" cx="13.891" cy="10.463" r="5.428"/>
	<path fill="#0E0F0F" d="M33.059,32.646c-0.104-0.18-0.22-0.336-0.34-0.482c-0.08-0.206-0.173-0.415-0.28-0.623
		c-1.991-3.874-4.069-7.707-6.244-11.479c4.247-1.353,8.129-0.118,11.182,4.158c2.482,3.479,8.292,0.142,5.777-3.376
		c-5.909-8.274-14.719-10.33-23.541-5.094c-0.368,0.219-0.663,0.473-0.898,0.75c-0.697,0.275-1.348,0.672-1.913,1.165
		c-0.485,0.149-0.928,0.419-1.256,0.839c-2.592,3.307-5.06,7.086-3.202,11.329c0.092,0.211,0.201,0.411,0.317,0.601
		c0,0,2.687,3.427,8.163,3.421c0.467,0.021,0.948,0.037,1.455,0.037c0.253,0,0.498-0.002,0.731-0.008
		c1.786-0.029,2.589-1.455,2.577-2.763c-0.011-1.289-0.786-2.59-2.493-2.59c-0.399,0.006-0.74,0.012-1.081,0.012
		c-0.745,0-1.725-0.023-2.69-0.205c-0.052-0.01-0.23-0.059-0.432-0.117c-0.209-0.06-0.454-0.133-0.55-0.152l-0.09,0.008
		c-0.223-0.098-0.351-0.225-0.421-0.35l0.001-1.072c0.023-0.07,0.056-0.146,0.085-0.219l1.249,0.472c0,0,0.063,0.017,0.097,0.027
		c0.143,0.041,0.268,0.078,0.32,0.09c0.845,0.158,1.744,0.179,2.431,0.179c0.333,0,0.666-0.005,0.997-0.011l0.084-0.001
		c2.493,0,3.814,1.971,3.831,3.918c0.017,2.009-1.313,4.065-3.891,4.112c-0.242,0.004-0.495,0.006-0.755,0.006
		c-0.253,0-0.497-0.006-0.741-0.012c0.267,0.512,0.537,1.022,0.802,1.536c-3.033,1.549-5.842,3.479-8.453,5.754
		c-1.542,1.345-1.289,3.106-0.254,4.292c0.251,0.542,0.675,1.036,1.32,1.424c3.454,2.074,6.909,4.147,10.364,6.223
		c3.708,2.227,7.07-3.56,3.376-5.776c-2.233-1.341-4.466-2.681-6.7-4.022c2.151-1.448,4.467-2.646,6.921-3.504
		c0.408-0.142,0.753-0.336,1.047-0.566c3.317,5.637,6.636,11.271,9.954,16.908c2.186,3.716,7.971,0.351,5.775-3.377
		C41.48,46.954,37.27,39.799,33.059,32.646z"/>
	<rect x="0.689" y="3.012" fill="#0E0F0F" width="4.916" height="55.863"/>
	<rect x="49.943" y="21.35" fill="#0E0F0F" width="12.714" height="0.669"/>
	<rect x="43.59" y="31.532" fill="#0E0F0F" width="12.712" height="0.669"/>
	<rect x="44.928" y="40.82" fill="#0E0F0F" width="12.711" height="0.669"/>
</g>
</svg>
