<?xml version="1.0" encoding="utf-8"?>
<!-- Generator: Adobe Illustrator 16.0.4, SVG Export Plug-In . SVG Version: 6.00 Build 0)  -->
<!DOCTYPE svg PUBLIC "-//W3C//DTD SVG 1.1//EN" "http://www.w3.org/Graphics/SVG/1.1/DTD/svg11.dtd">
<svg version="1.1" id="Capa_1" xmlns="http://www.w3.org/2000/svg" xmlns:xlink="http://www.w3.org/1999/xlink" x="0px" y="0px"
	 width="64px" height="64px" viewBox="0 0 64 64" enable-background="new 0 0 64 64" xml:space="preserve">
<g>
	<path fill="#0E0F0F" d="M53.811,53.348c-2.574-0.205-7.049-1.233-8.672-1.363c-0.082-0.006-0.145-0.01-0.219-0.012
		c-3.488-2.428-5.646-6.147-8.5-9.195c0.293-0.524,0.52-1.139,0.658-1.846c0.938-4.807,2.227-9.52,3.637-14.204
		c1.74,1.531,3.615,2.929,5.459,4.287c1.426,1.05,4.166,0.384,4.873-1.277c2.016-4.747,4.033-9.494,6.051-14.242
		c0.76-1.785,0.555-3.798-1.277-4.871c-1.512-0.886-4.108-0.51-4.868,1.277c-1.479,3.478-2.955,6.954-4.435,10.431
		c-1.242-1.034-2.434-2.126-3.506-3.319c-0.785-0.875-7.926-4.005-8.691-4.12c-4.773-0.722-9.365,0.113-14.119,0.585
		c-2.358,0.234-3.972,2.087-3.432,4.507c0.779,3.495,1.679,6.856,3.207,10.107c1.953,4.152,8.09,0.536,6.148-3.594
		c-0.675-1.434-1.159-2.94-1.563-4.47c1.687-0.233,3.388-0.43,5.067-0.444c-1.638,5.324-3.159,10.677-4.229,16.149
		c-0.059,0.302-0.091,0.597-0.11,0.884c-4.342,0.368-8.761,1.528-12.799,2.623c-1.135,0.305-2.243,1.299-2.487,2.485
		c-1.029,5.017-2.192,8.625-1.908,13.763c0.253,4.563,7.375,4.592,7.121,0c-0.213-3.845,0.469-6.521,1.235-9.937
		c4.092-1.078,8.444-2.055,12.642-1.904c0.199,0.224,0.43,0.431,0.704,0.617c0,0,7.08,8.808,11.816,12.051
		c1.736,1.191,9.164,1.552,12.197,1.793C58.391,60.477,58.355,53.711,53.811,53.348z"/>
	<path fill="#0E0F0F" d="M33.934,9.215c0,3.314,2.689,6.002,6.002,6.002c3.318,0,6.004-2.688,6.004-6.002
		c0-3.315-2.686-6.002-6.004-6.002c-1.528,0-2.92,0.577-3.979,1.519L32.52,3.075l-0.482,1.001l3.128,1.508
		C34.396,6.593,33.934,7.849,33.934,9.215z"/>
</g>
</svg>
