<?xml version="1.0" encoding="utf-8"?>
<!-- Generator: Adobe Illustrator 16.0.4, SVG Export Plug-In . SVG Version: 6.00 Build 0)  -->
<!DOCTYPE svg PUBLIC "-//W3C//DTD SVG 1.1//EN" "http://www.w3.org/Graphics/SVG/1.1/DTD/svg11.dtd">
<svg version="1.1" id="Capa_1" xmlns="http://www.w3.org/2000/svg" xmlns:xlink="http://www.w3.org/1999/xlink" x="0px" y="0px"
	 width="64px" height="64px" viewBox="0 0 64 64" enable-background="new 0 0 64 64" xml:space="preserve">
<g>
	<path fill="#0E0F0F" d="M52.941,56.529c-4.146-5.713-7.852-11.706-11.303-17.852c-0.561-5.542-1.894-10.824-3.945-15.9
		c2.436,1.923,3.908,4.74,4.193,8.626c0.338,4.614,7.557,4.646,7.217,0c-0.713-9.729-6.461-16.533-16.123-18.396
		c-0.721-0.14-1.375-0.081-1.951,0.12c-2.666-0.58-5.701,1.199-6.569,3.85c-0.002,0.004-0.003,0.006-0.006,0.01
		c-1.976,3.985-3.797,8.043-5.774,12.029c-2.061,4.155,4.165,7.813,6.233,3.643c0.952-1.922,1.868-3.861,2.785-5.8
		c1.722,4.169,2.873,8.529,3.232,13.103c-2.457,6.162-3.788,12.592-3.48,19.352c0.208,4.634,7.429,4.653,7.218,0
		c-0.224-4.881,0.481-9.543,1.964-14.049c0.151,0.004,0.301,0.002,0.452-0.006c2.972,5.116,6.142,10.114,9.623,14.912
		C49.414,63.9,55.682,60.305,52.941,56.529z"/>
	<path fill="#0E0F0F" d="M22.881,13.963c2.987,0,5.411-2.423,5.411-5.413c0-2.99-2.424-5.413-5.411-5.413
		c-2.991,0-5.414,2.423-5.414,5.413c0,1.179,0.381,2.267,1.021,3.155l-5.202,2.801l0.524,0.972l5.434-2.926
		C20.206,13.426,21.479,13.963,22.881,13.963z"/>
	<path fill="#0E0F0F" d="M11.31,13.278c-0.243-0.354-0.06-0.947,0.151-1.635c0.232-0.754,0.495-1.61,0.232-2.387
		c-0.401-1.189-1.36-1.879-2.287-2.545c-1.27-0.911-2.467-1.772-2-3.857l0.011-0.052L7.052,2.72L7.041,2.77
		C6.519,5.098,7.874,6.072,9.184,7.015c0.88,0.633,1.789,1.287,2.152,2.361c0.225,0.664-0.02,1.458-0.234,2.158
		c-0.229,0.748-0.446,1.454-0.102,1.956c0.237,0.346,0.708,0.539,1.443,0.589l0.052,0.004l0.027-0.375l-0.053-0.003
		C11.856,13.661,11.477,13.522,11.31,13.278z"/>
	<path fill="#0E0F0F" d="M13.574,6.73c-0.42-0.745-0.917-0.756-1.214-0.761c-0.118-0.003-0.198-0.007-0.222-0.036
		c-0.044-0.053-0.097-0.263,0.037-1.078c0.057-0.339,0.269-0.718,0.472-1.086c0.319-0.576,0.651-1.173,0.456-1.714
		c-0.123-0.342-0.438-0.608-0.958-0.812l-0.1-0.04L11.91,1.548l0.098,0.039c0.417,0.163,0.66,0.358,0.745,0.593
		c0.137,0.382-0.138,0.88-0.43,1.408c-0.22,0.395-0.447,0.804-0.513,1.207c-0.133,0.803-0.122,1.176,0.043,1.374
		c0.133,0.16,0.328,0.164,0.498,0.168c0.275,0.005,0.583,0.013,0.898,0.573c0.342,0.619-0.059,2.105-0.449,3.548
		c-0.269,0.995-0.523,1.934-0.553,2.642l-0.004,0.106l0.37,0.017l0.004-0.107c0.03-0.667,0.278-1.587,0.542-2.565
		C13.567,9.04,13.988,7.48,13.574,6.73z"/>
</g>
</svg>
