<?xml version="1.0" encoding="utf-8"?>
<!-- Generator: Adobe Illustrator 16.0.4, SVG Export Plug-In . SVG Version: 6.00 Build 0)  -->
<!DOCTYPE svg PUBLIC "-//W3C//DTD SVG 1.1//EN" "http://www.w3.org/Graphics/SVG/1.1/DTD/svg11.dtd">
<svg version="1.1" id="Capa_1" xmlns="http://www.w3.org/2000/svg" xmlns:xlink="http://www.w3.org/1999/xlink" x="0px" y="0px"
	 width="64px" height="64px" viewBox="0 0 64 64" enable-background="new 0 0 64 64" xml:space="preserve">
<g>
	<rect x="11.218" y="24.58" fill="#0E0F0F" width="2.893" height="14.029"/>
	<path fill="#0E0F0F" d="M35.803,43.74h1.157V40.9H11.218v2.84h2.893v14.75h9.978c0-5.206,3.865-4.916,3.865-4.916
		C37.746,51.839,35.803,43.74,35.803,43.74z"/>
	<path fill="#0E0F0F" d="M48.842,15.23c0.695-1.002,1.105-2.216,1.105-3.528c0-3.419-2.771-6.192-6.192-6.192
		c-3.42,0-6.192,2.772-6.192,6.192s2.772,6.193,6.192,6.193c0.597,0,1.17-0.089,1.716-0.246c-0.632,2.67-1.633,5.208-2.716,7.718
		c-0.584-0.896-1.188-1.78-1.778-2.672c0.814-3.932-3.414-8.616-7.986-6.006c-5.128,2.926-9.17,7.659-11.509,13.055
		c-1.169,2.697-0.789,5.775,1.975,7.371c0.083,0.049,0.172,0.088,0.259,0.131c0.486,0.348,1.083,0.585,1.795,0.652
		c5.313,0.504,10.678,0.604,16.025,0.643c-1.633,4.936-3.537,9.792-5.469,14.605c-1.68,4.182,5.076,5.979,6.732,1.854
		c2.512-6.253,4.979-12.58,6.857-19.058c0.797-2.75-1.622-4.491-3.817-4.297c-0.097-0.019-0.192-0.036-0.295-0.046
		c1.819-4.417,4.044-8.668,5.011-13.383C50.861,16.727,49.957,15.644,48.842,15.23z M32.85,31.386
		c1.254-1.889,2.783-3.52,4.646-4.778c1.069,1.595,2.112,3.206,2.95,4.94C37.914,31.526,35.38,31.484,32.85,31.386z"/>
</g>
</svg>
