<?xml version="1.0" encoding="utf-8"?>
<!-- Generator: Adobe Illustrator 16.0.4, SVG Export Plug-In . SVG Version: 6.00 Build 0)  -->
<!DOCTYPE svg PUBLIC "-//W3C//DTD SVG 1.1//EN" "http://www.w3.org/Graphics/SVG/1.1/DTD/svg11.dtd">
<svg version="1.1" id="Capa_1" xmlns="http://www.w3.org/2000/svg" xmlns:xlink="http://www.w3.org/1999/xlink" x="0px" y="0px"
	 width="64px" height="64px" viewBox="0 0 64 64" enable-background="new 0 0 64 64" xml:space="preserve">
<g>
	<path fill="#0E0F0F" d="M47.884,33.061c-0.282-8.027-2.655-15.81-7.454-22.305c-0.431-0.582-0.922-1.097-1.457-1.538
		c-1.639-2.535-3.711-4.756-6.404-6.201c-4.004-2.148-8.461-0.265-9.521,4.164c-0.992,4.148-0.242,9.245-0.292,13.461
		c-0.031,2.771-0.063,5.544-0.094,8.315c2.654-0.663,5.47-0.953,8.446-0.839c0.032-2.803,0.063-5.604,0.096-8.405
		c1.991,3.298,3.297,6.831,3.796,10.661c-7.401-1.306-14.844-0.396-21.176,4.173c-3.494,2.52-0.13,8.377,3.404,5.827
		c5.907-4.263,12.453-4.572,19.334-2.754c0.361,0.096,0.697,0.118,1.021,0.11C41.305,40.583,48.096,39.057,47.884,33.061z"/>
	<path fill="#0E0F0F" d="M22.541,39.689c-0.069,6.033-0.137,12.069-0.207,18.104c-0.061,5.441,8.375,5.438,8.436,0l-0.151-19.579
		C27.689,38.119,25.02,38.614,22.541,39.689z"/>
	<path fill="#0E0F0F" d="M44.409,40.219c-3.729,0-6.749,3.022-6.749,6.747c0,3.728,3.021,6.75,6.749,6.75
		c3.725,0,6.745-3.022,6.745-6.75C51.154,43.241,48.134,40.219,44.409,40.219z"/>
</g>
</svg>
