<?xml version="1.0" encoding="utf-8"?>
<!-- Generator: Adobe Illustrator 16.0.4, SVG Export Plug-In . SVG Version: 6.00 Build 0)  -->
<!DOCTYPE svg PUBLIC "-//W3C//DTD SVG 1.1//EN" "http://www.w3.org/Graphics/SVG/1.1/DTD/svg11.dtd">
<svg version="1.1" id="Capa_1" xmlns="http://www.w3.org/2000/svg" xmlns:xlink="http://www.w3.org/1999/xlink" x="0px" y="0px"
	 width="64px" height="64px" viewBox="0 0 64 64" enable-background="new 0 0 64 64" xml:space="preserve">
<g>
	<circle fill="#0E0F0F" cx="43.238" cy="7.53" r="4.289"/>
	<path fill="#0E0F0F" d="M59.205,30.191c-0.006-0.01-0.02-0.02-0.025-0.028c-0.011-0.008-0.019-0.018-0.027-0.025
		c-0.159-0.161-0.385-0.268-0.68-0.268c-0.895,0-1.789,0-2.685,0c-0.308-0.681-0.94-1.201-1.916-1.201c-1.935,0-3.871,0-5.806,0
		c-0.254,1.142-0.692,2.221-1.446,2.979c-0.668,0.672-1.521,1.027-2.463,1.027h-0.44c0.596,0.833,1.178,1.665,1.739,2.483
		c0.905,1.314,1.024,2.82,0.334,4.138c-0.769,1.458-2.442,2.438-4.17,2.438c-1.466,0-2.796-0.711-3.646-1.95
		c-2.072-3.013-4.26-6-6.688-9.133c-0.441-0.567-0.687-1.25-0.735-1.983c-0.617,0-1.237,0-1.854,0
		c-0.132-0.078-0.269-0.141-0.413-0.193c-0.109-0.194-0.262-0.384-0.458-0.563c-0.597-0.541-1.171-1.104-1.722-1.681
		c2.584-1.299,5.124-2.684,7.665-4.068c1.84-0.494,3.681-0.987,5.521-1.481v4.723c-1.21,0-2.421,0-3.629,0
		c-0.14,0-0.271,0.011-0.397,0.025c-0.578-0.077-1.189,0.03-1.802,0.389c-1.273,0.747-2.072,2.812-1.069,4.107
		c2.561,3.303,4.767,6.336,6.733,9.197c2.177,3.166,7.375,0.159,5.177-3.038c-1.082-1.576-2.193-3.136-3.322-4.677
		c1.061,0,2.117,0,3.179,0c2.933,0,2.804-5.373,2.804-5.824v-8.572c0-2.021-1.718-3.659-3.836-3.659
		c-1.785,0-3.281,1.165-3.709,2.739c-2.555,0.685-5.105,1.371-7.66,2.055c-1.734,0.465-1.902,2.335-1.098,3.458
		c-1.953,1.078-3.917,2.146-5.911,3.142c-3.142-3.589-5.748-7.604-8.92-11.204c-0.33-0.373,0.17,0.284-0.199,0.199
		c-2.624-5.942-2.394,0.096-2.394,0.096l-1.23,1.642l-7.479,6.65c0,0,0.215,2.424,3.564,2.434c-0.154,1.506-0.015,2.994,0.73,4.27
		c1.257,2.155,4.056,2.103,6.193,1.743c0.989-0.165,1.968-0.42,2.935-0.732c2.429,4.383,4.484,9.375,7.225,12.934
		c0.032,0.043,0.066,0.078,0.1,0.117c0,5.393,0,8.183,0,13.574c0,2.836,4.401,2.836,4.401,0c0-3.867,0.999-7.736,0.999-11.603
		c5.835,0,10.667,0,16.501,0c0.159,0.149,0.339,0.268,0.526,0.358c0.764,1.947,1.997,3.573,3.574,4.957c0,1.963,0,3.924,0,5.885
		c0,2.839,4.401,2.839,4.401,0c0-6.907,0-13.818,0-20.729l0.124-3.472c0.559,0,1.115,0,1.674,0c0,3.333,0,6.667,0,10
		c0,1.289,2.002,1.289,2.002,0c0-3.667,0-7.334,0-11C59.475,30.575,59.367,30.353,59.205,30.191z M10.937,28.26
		c-1.035-0.826-1.127-2.351-0.878-3.92c0.986-0.207,2.146-0.568,3.512-1.138c0.077,0.35,0.251,0.699,0.544,1.022
		c1.013,1.119,1.924,2.42,2.781,3.817C15.209,28.598,12.449,29.471,10.937,28.26z"/>
</g>
</svg>
