<?xml version="1.0" encoding="utf-8"?>
<!-- Generator: Adobe Illustrator 16.0.4, SVG Export Plug-In . SVG Version: 6.00 Build 0)  -->
<!DOCTYPE svg PUBLIC "-//W3C//DTD SVG 1.1//EN" "http://www.w3.org/Graphics/SVG/1.1/DTD/svg11.dtd">
<svg version="1.1" id="Capa_1" xmlns="http://www.w3.org/2000/svg" xmlns:xlink="http://www.w3.org/1999/xlink" x="0px" y="0px"
	 width="64px" height="64px" viewBox="0 0 64 64" enable-background="new 0 0 64 64" xml:space="preserve">
<path fill="#0E0F0F" d="M42.666,15.074c-2.743-0.663-7.445-0.958-10.383-0.313c0.441,0.661,1.49,1.729,2.023,2.378
	c0.148,0.005,0.299,0.007,0.448,0.007c2.771-0.277,5.642-1.989,5.237-1.75c-0.096,0.056,0.027,0.306,0.259,0.659
	c-0.03,0.015-0.062,0.021-0.094,0.038c-1.772,0.936-3.679,1.586-5.632,2.031c-1.571-1.07-2.966-2.44-3.693-4.216
	c-0.011-0.026-0.025-0.044-0.037-0.069l4.127-1.279c0.824,0.743,1.903,1.208,3.1,1.208c2.567,0,4.649-2.082,4.649-4.649
	c0-2.566-2.082-4.647-4.649-4.647c-2.565,0-4.647,2.081-4.647,4.647c0,0.925,0.278,1.783,0.744,2.508l-4.129,1.279
	c-0.895-0.484-2.099-0.036-2.748,0.851l-2.509,0.777c-0.292-0.144-0.616-0.233-0.961-0.251c-0.952-0.047-1.811,0.467-2.262,1.25
	l-4.105,1.271l0.335,1.08l3.438-1.065c-0.042,1.674,0.473,3.435,0.934,4.996c0.103,0.346,0.201,0.678,0.285,0.988
	c0.186,0.682,0.655,1.251,1.289,1.564c0.343,0.169,0.717,0.254,1.092,0.254c0.316,0,0.634-0.061,0.933-0.183
	c1.706-0.698,3.743-1.687,5.422-3.332c0.584,0.448,1.19,0.859,1.798,1.228c1.071,0.651,2.452,0.116,3.562-0.168
	c1.991-0.512,3.946-1.245,5.768-2.205c0.132-0.069,0.244-0.15,0.353-0.232c0.156,0.431,0.168,0.773-0.098,0.929
	c-1.451,0.859-6.304,2.46-8.824,2.89c-0.65,0.11-1.923-0.858-2.025-0.956l0.015,16.411v17.861c0,1.469,1.076,2.659,2.586,2.659
	c1.508,0,2.732-1.19,2.732-2.659V38.258c0,0,0.087-0.943,1.048-0.953c0.962-0.012,0.937,0.908,0.937,0.908v18.604
	c0,1.47,1.226,2.66,2.734,2.66c1.51,0,2.734-1.19,2.734-2.66l0.089-19.198c0-0.183,0.022-16.389,0.022-16.389
	S44.984,15.712,42.666,15.074z M26.35,18.632c-0.158-0.662-0.267-1.289-0.243-1.755c0.028-0.538-0.123-1.041-0.394-1.461
	l1.071-0.332c-0.003,0.297,0.051,0.608,0.182,0.927c0.212,0.521,0.487,1.016,0.79,1.495C27.335,17.934,26.861,18.309,26.35,18.632z
	 M38.311,30.778c-0.459,0-0.832-0.373-0.832-0.833s0.373-0.833,0.832-0.833c0.461,0,0.834,0.373,0.834,0.833
	S38.771,30.778,38.311,30.778z M38.311,28.157c-0.459,0-0.832-0.373-0.832-0.833s0.373-0.834,0.832-0.834
	c0.461,0,0.834,0.374,0.834,0.834S38.771,28.157,38.311,28.157z M38.372,25.534c-0.46,0-0.834-0.373-0.834-0.833
	s0.374-0.833,0.834-0.833s0.833,0.374,0.833,0.833S38.832,25.534,38.372,25.534z"/>
</svg>
