<?xml version="1.0" encoding="utf-8"?>
<!-- Generator: Adobe Illustrator 16.0.4, SVG Export Plug-In . SVG Version: 6.00 Build 0)  -->
<!DOCTYPE svg PUBLIC "-//W3C//DTD SVG 1.1//EN" "http://www.w3.org/Graphics/SVG/1.1/DTD/svg11.dtd">
<svg version="1.1" id="Capa_1" xmlns="http://www.w3.org/2000/svg" xmlns:xlink="http://www.w3.org/1999/xlink" x="0px" y="0px"
	 width="64px" height="64px" viewBox="0 0 64 64" enable-background="new 0 0 64 64" xml:space="preserve">
<g>
	<circle fill="#0F1011" cx="32.095" cy="9.239" r="5.62"/>
	<path fill="#0F1011" d="M50.17,5.288c-0.932-0.929-2.438-0.929-3.363,0L35.402,16.691c-0.906-0.592-1.986-0.939-3.149-0.939
		c-1.436,0-2.746,0.527-3.756,1.393L16.64,5.288c-0.928-0.929-2.435-0.929-3.364,0c-0.928,0.929-0.928,2.436,0,3.364l12.497,12.497
		c0.208,0.208,0.448,0.362,0.702,0.478v13.498c0,0.294,0.029,0.578,0.071,0.859c-0.042,0.179-0.069,0.358-0.069,0.55v21.069
		c0,1.315,1.065,2.381,2.379,2.381s2.379-1.064,2.379-2.381V40.807c0.331,0.061,0.67,0.096,1.019,0.096
		c0.35,0,0.688-0.035,1.021-0.096v16.797c0,1.315,1.064,2.381,2.379,2.381c1.313,0,2.379-1.064,2.379-2.381V36.534
		c0-0.192-0.029-0.376-0.071-0.556c0.041-0.278,0.069-0.562,0.069-0.854V21.529c0-0.233-0.018-0.463-0.045-0.691L50.17,8.652
		C51.1,7.724,51.1,6.217,50.17,5.288z"/>
</g>
</svg>
