<?xml version="1.0" encoding="utf-8"?>
<!-- Generator: Adobe Illustrator 16.0.4, SVG Export Plug-In . SVG Version: 6.00 Build 0)  -->
<!DOCTYPE svg PUBLIC "-//W3C//DTD SVG 1.1//EN" "http://www.w3.org/Graphics/SVG/1.1/DTD/svg11.dtd">
<svg version="1.1" id="Capa_1" xmlns="http://www.w3.org/2000/svg" xmlns:xlink="http://www.w3.org/1999/xlink" x="0px" y="0px"
	 width="64px" height="64px" viewBox="0 0 64 64" enable-background="new 0 0 64 64" xml:space="preserve">
<g>
	<circle fill="#0E0F0F" cx="38.156" cy="14.814" r="3.965"/>
	<path fill="#0E0F0F" d="M48.044,25.505c-0.854-1.854-1.944-3.615-3.569-4.889c-0.176-0.137-0.357-0.229-0.543-0.299
		c-0.012-0.014-0.02-0.03-0.031-0.044c-1.987-0.999-5.684-0.975-8.375-0.737c-0.197-0.045-0.408-0.073-0.639-0.073
		c-2.98,0-5.964,0-8.945,0c-0.239,0-0.457,0.032-0.662,0.08v-5.542h0.053v-8.06H12.52l2.479,3.823l-2.479,4.237h11.626v6.178
		c-0.987,1.006-0.987,2.823,0,3.829V55.75c0,0.314,0.254,0.568,0.567,0.568s0.567-0.254,0.567-0.568V24.646
		c0.206,0.048,0.423,0.08,0.662,0.08c2.219,0,4.438,0,6.658,0l-0.022,0.417c0.004,2.909,0.021,13.828,0.021,13.981l0.076,16.378
		c0,1.252,1.045,2.268,2.332,2.268c1.288,0,2.332-1.016,2.332-2.268v-15.87c0,0-0.021-0.782,0.799-0.774
		c0.82,0.011,0.896,0.813,0.896,0.813v15.877c0,1.252,1.044,2.269,2.331,2.269c1.289,0,2.205-1.017,2.205-2.269V40.311l-0.006-2.418
		c1.822-1.166,3.238-2.855,4.256-4.76c0.561-1.047,1.529-2.51,1.529-3.755C49.348,28.106,48.555,26.614,48.044,25.505z
		 M45.385,29.594c-0.251,0.555-0.507,1.113-0.81,1.643c-0.315,0.552-0.655,1.079-1.026,1.578l-0.02-7.717
		c0.902,1.259,1.533,2.73,1.966,4.211C45.469,29.389,45.434,29.483,45.385,29.594z M45.538,29.147
		C45.537,28.951,45.578,28.954,45.538,29.147L45.538,29.147z"/>
</g>
</svg>
