<?xml version="1.0" encoding="utf-8"?>
<!-- Generator: Adobe Illustrator 16.0.4, SVG Export Plug-In . SVG Version: 6.00 Build 0)  -->
<!DOCTYPE svg PUBLIC "-//W3C//DTD SVG 1.1//EN" "http://www.w3.org/Graphics/SVG/1.1/DTD/svg11.dtd">
<svg version="1.1" id="Capa_1" xmlns="http://www.w3.org/2000/svg" xmlns:xlink="http://www.w3.org/1999/xlink" x="0px" y="0px"
	 width="64px" height="64px" viewBox="0 0 64 64" enable-background="new 0 0 64 64" xml:space="preserve">
<g>
	<circle fill="#0E0F0F" cx="19.927" cy="9.68" r="5.848"/>
	<path fill="#0E0F0F" d="M39.477,28.444c1.461-1.87,4.148-2.274,6.096-0.877c1.996,1.433,2.455,4.215,1.021,6.21
		c-0.071,0.1-0.147,0.193-0.226,0.285l0.631,0.451c4.307-6.005,3.021-14.356-2.807-18.999l0.424-0.588
		c0.234-0.331,0.158-0.792-0.172-1.028c-0.33-0.237-0.789-0.162-1.025,0.169l-0.424,0.588c-6.264-4.034-14.587-2.577-18.895,3.428
		l0.46,0.329c0.062-0.103,0.125-0.206,0.197-0.304c1.432-1.996,4.212-2.454,6.21-1.021c1.997,1.433,2.456,4.215,1.022,6.211
		c-0.071,0.099-0.15,0.191-0.226,0.283l0.184,0.133c0.063-0.103,0.126-0.206,0.196-0.306c1.433-1.996,4.213-2.454,6.211-1.021
		c0.076,0.055,0.146,0.115,0.22,0.174l-9.782,13.633c-0.774,1.078-2.201,1.406-3.358,0.848c1.824-0.857,2.713-4.023,0.515-5.706
		c-2.735-2.091-5.093-4.515-7.143-7.198c1.372-2.14,1.505-4.804-0.487-6.77c-1.867-1.844-5.618-2.196-7.401,0.04
		C4.994,24.832,2.06,30.65,3.497,40.105c0.976-0.664,1.522-0.207,1.813,0.744c0,5.748,0,11.496,0,17.246
		c0,3.971,6.155,3.971,6.155,0c0-5.59,0-11.179,0-16.765c0.378-1.011,1.022-1.655,2.092-1.408c-0.539-3.551,0.24-7.124,1.784-10.356
		c2.219,2.596,4.708,4.953,7.498,7.087c0.303,0.231,0.604,0.391,0.9,0.488c0.187,0.215,0.396,0.414,0.636,0.588
		c1.712,1.228,4.104,0.834,5.332-0.877l9.654-13.456C40.418,24.859,40.512,26.87,39.477,28.444z"/>
	<path fill="#0E0F0F" d="M54.753,55.721c-1.849,1.377-2.976-0.871-2.976-0.871l-4.894-4.895c-0.2,0.023-0.397,0.041-0.59,0.041
		c-2.294,0-4.12-1.598-4.146-1.621l0.408-0.461c0.102,0.09,1.729,1.505,3.762,1.477l-0.543-0.545
		c-0.852-7.921-6.771-5.23-6.771-5.23v1.539l-2.152,0.923c-3.85,0.769,0,2.771,0,2.771c4.709-0.543,4.615,4.617,4.615,4.617
		l-3.386,6.463h1.539l4.31-5.232c0,0-3.039,5.232,0.514,5.232c3.554,0,6.564,0,6.564,0C56.549,57.771,56.816,51.961,54.753,55.721z"
		/>
	<path fill="#0E0F0F" d="M54.602,16.834c-0.395,0.69-0.156,1.57,0.533,1.964c0.688,0.396,1.568,0.158,1.965-0.532
		c0.395-0.688-0.273-2.415-0.273-2.415S54.997,16.146,54.602,16.834z"/>
	<path fill="#0E0F0F" d="M48.749,15.4c0.688,0.396,1.567,0.158,1.964-0.531c0.395-0.69-0.271-2.416-0.271-2.416
		s-1.83,0.294-2.228,0.983C47.82,14.126,48.059,15.005,48.749,15.4z"/>
	<path fill="#0E0F0F" d="M33.059,9.664c0.688,0.396,1.566,0.158,1.963-0.532c0.396-0.688-0.273-2.415-0.273-2.415
		S32.92,7.012,32.523,7.7C32.13,8.39,32.368,9.271,33.059,9.664z"/>
	<path fill="#0E0F0F" d="M51.788,23.601c-0.394,0.689-0.156,1.569,0.534,1.965c0.689,0.396,1.568,0.158,1.965-0.532
		c0.395-0.69-0.275-2.416-0.275-2.416S52.184,22.913,51.788,23.601z"/>
	<path fill="#0E0F0F" d="M61.045,21.05c0,0-1.83,0.293-2.225,0.983c-0.396,0.689-0.157,1.569,0.533,1.964
		c0.688,0.396,1.57,0.158,1.963-0.532C61.714,22.776,61.045,21.05,61.045,21.05z"/>
	<path fill="#0E0F0F" d="M54.602,30.324c-0.395,0.69-0.156,1.57,0.533,1.965c0.69,0.396,1.569,0.156,1.965-0.532
		c0.395-0.69-0.273-2.416-0.273-2.416S54.997,29.635,54.602,30.324z"/>
	<path fill="#0E0F0F" d="M59.912,10.703c0.395-0.69-0.273-2.416-0.273-2.416s-1.828,0.295-2.225,0.983
		c-0.395,0.69-0.155,1.569,0.534,1.965C58.639,11.631,59.518,11.393,59.912,10.703z"/>
	<path fill="#0E0F0F" d="M52.322,9.666c0.688,0.396,1.566,0.158,1.963-0.532c0.396-0.689-0.273-2.416-0.273-2.416
		S52.184,7.012,51.788,7.7C51.393,8.39,51.632,9.271,52.322,9.666z"/>
	<path fill="#0E0F0F" d="M43.458,8.096c0.688,0.396,1.569,0.158,1.964-0.532c0.396-0.69-0.273-2.416-0.273-2.416
		S43.32,5.442,42.923,6.13C42.529,6.82,42.768,7.7,43.458,8.096z"/>
</g>
</svg>
