<?xml version="1.0" encoding="utf-8"?>
<!-- Generator: Adobe Illustrator 16.0.4, SVG Export Plug-In . SVG Version: 6.00 Build 0)  -->
<!DOCTYPE svg PUBLIC "-//W3C//DTD SVG 1.1//EN" "http://www.w3.org/Graphics/SVG/1.1/DTD/svg11.dtd">
<svg version="1.1" id="Capa_1" xmlns="http://www.w3.org/2000/svg" xmlns:xlink="http://www.w3.org/1999/xlink" x="0px" y="0px"
	 width="64px" height="64px" viewBox="0 0 64 64" enable-background="new 0 0 64 64" xml:space="preserve">
<g>
	<circle fill="#0E0F0F" cx="19.524" cy="7.425" r="5.597"/>
	<path fill="#0E0F0F" d="M25.288,28.156c-2.618-2.003-4.875-4.322-6.837-6.891c1.313-2.047,1.44-4.597-0.467-6.479
		c-1.786-1.765-5.377-2.101-7.083,0.038c-5.668,7.103-8.477,12.673-7.102,21.725c0.934-0.637,1.458-0.199,1.737,0.713
		c0,5.5,0,11.004,0,16.504c0,3.799,5.892,3.799,5.892,0c0-5.461,0-10.924,0-16.385c0.392-3.793,1.228-8.467,2.999-11.775
		c2.297,2.825,4.913,5.362,7.887,7.636C25.332,35.553,28.262,30.43,25.288,28.156z"/>
	<circle fill="#0E0F0F" cx="55.417" cy="27.726" r="5.129"/>
	<path fill="#0E0F0F" d="M55.645,37.959c-0.014-0.143-0.037-0.273-0.067-0.398c-0.115-0.688-0.401-1.354-0.888-1.961
		c0,0-2.053,1.152-2.434,0.846c-0.382-0.305,0.232-2.334,0.232-2.334c-1.412-0.454-3.541,0.281-4.191,0.632
		s-9.878-1.699-14.184-3.996c-3.025-1.616-6.184,2.771-3.112,4.41c4.298,2.295,8.763,3.799,13.505,4.536
		c-1.398,2.046-2.677,4.162-3.873,6.339c-0.63-1.152-1.271-2.3-1.967-3.414c-1.266-2.027-3.516-4.646-6.157-3.06
		c-3.67,2.201-6.262,7.072-8.542,10.582c-0.306,0.471-0.427,0.933-0.432,1.369c-0.499,0.002-0.976,0.004-1.417,0.008
		c-3.481,0.021-3.449,5.42,0.032,5.398c5.219-0.033,14.757-0.064,19.974-0.096c0.201,0,0.39-0.021,0.565-0.057
		c1.504,0.139,3.021-0.519,3.912-2.347c1.475-3.024,3.067-6.01,4.912-8.828c0.844,3.19,2.051,6.269,3.648,9.261
		c1.639,3.073,6.027-0.086,4.411-3.111C57.277,47.434,56.072,42.801,55.645,37.959z M29.539,51.48
		c1.395-2.115,2.865-4.205,4.541-6.094c0.327,0.529,0.615,1.09,0.906,1.59c0.853,1.472,1.645,2.979,2.463,4.469
		C34.955,51.458,32.182,51.469,29.539,51.48z"/>
	<path fill="#0E0F0F" d="M54.895,56.984l-34.396,4.854L20.661,63l34.397-4.855c1.551-0.219,2.666,0.248,2.724,0.65
		s-0.886,1.158-2.437,1.379l0.162,1.158c2.133-0.299,3.607-1.463,3.434-2.701S57.025,56.684,54.895,56.984z"/>
</g>
</svg>
