<?xml version="1.0" encoding="utf-8"?>
<!-- Generator: Adobe Illustrator 16.0.4, SVG Export Plug-In . SVG Version: 6.00 Build 0)  -->
<!DOCTYPE svg PUBLIC "-//W3C//DTD SVG 1.1//EN" "http://www.w3.org/Graphics/SVG/1.1/DTD/svg11.dtd">
<svg version="1.1" id="Capa_1" xmlns="http://www.w3.org/2000/svg" xmlns:xlink="http://www.w3.org/1999/xlink" x="0px" y="0px"
	 width="64px" height="64px" viewBox="0 0 64 64" enable-background="new 0 0 64 64" xml:space="preserve">
<path fill="#0E0F0F" d="M8.838,27.395c0.391,0,0.708,0.317,0.708,0.708s-0.317,0.708-0.708,0.708S8.13,28.494,8.13,28.103
	S8.447,27.395,8.838,27.395z M56.084,30.305c0.186-0.436,0.207-0.831,0.04-0.912c-0.168-0.081-0.47,0.192-0.697,0.616
	c-2.536-0.934-5.415,0.193-6.612,2.679L58.38,37.3C59.624,34.721,58.593,31.634,56.084,30.305z M43.366,24.435
	c2.14,0,3.874,1.734,3.874,3.874s-1.734,3.874-3.874,3.874s-3.874-1.734-3.874-3.874S41.227,24.435,43.366,24.435z M7.916,22.436
	c0.509,0,0.922,0.413,0.922,0.922S8.425,24.28,7.916,24.28s-0.922-0.413-0.922-0.922S7.407,22.436,7.916,22.436z M5.223,25.927
	c0.242,0,0.438,0.196,0.438,0.438c0,0.242-0.196,0.438-0.438,0.438c-0.242,0-0.438-0.196-0.438-0.438
	C4.785,26.123,4.981,25.927,5.223,25.927z M58.264,38.482l-10.279-4.959l0.316-0.657l10.279,4.959L58.264,38.482z M4.785,34.799
	c0.484,0,0.877,0.393,0.877,0.877s-0.393,0.877-0.877,0.877s-0.877-0.393-0.877-0.877S4.301,34.799,4.785,34.799z M51.184,37.525
	c-3.41-1.373-6.816-2.746-10.229-4.119c-0.754-0.834-1.887-1.336-3.281-1.063c-6.735,2.292-14.332,1.886-16.721,0.527
	c-2.505-2.029-4.515-4.619-6.206-7.383c-1.23-2.01-4.398-0.171-3.162,1.849c1.758,2.875,3.845,5.584,6.375,7.798
	c-0.907-0.149-1.815-0.36-2.724-0.645c-3.162-0.986-5.995-2.876-8.671-4.776c-1.931-1.37-3.758,1.808-1.849,3.163
	c3.132,2.224,6.399,4.162,10.086,5.312c2.049,0.644,19.435,3.864,24.997,0.746c0,0,0.994-0.506,1.639-1.41
	c2.924,1.18,5.85,2.354,8.771,3.531C52.4,41.938,53.346,38.395,51.184,37.525z"/>
</svg>
