<?xml version="1.0" encoding="utf-8"?>
<!-- Generator: Adobe Illustrator 16.0.4, SVG Export Plug-In . SVG Version: 6.00 Build 0)  -->
<!DOCTYPE svg PUBLIC "-//W3C//DTD SVG 1.1//EN" "http://www.w3.org/Graphics/SVG/1.1/DTD/svg11.dtd">
<svg version="1.1" id="Capa_1" xmlns="http://www.w3.org/2000/svg" xmlns:xlink="http://www.w3.org/1999/xlink" x="0px" y="0px"
	 width="64px" height="64px" viewBox="0 0 64 64" enable-background="new 0 0 64 64" xml:space="preserve">
<g>
	<circle fill="#0E0F0F" cx="43.578" cy="7.852" r="6.654"/>
	<path fill="#0E0F0F" d="M35.205,42.707c7.652-0.835,16.613-3.695,15.301-13.038c-0.554-3.949-3.561-7.917-6.342-10.645
		c-0.191-0.188-0.391-0.346-0.594-0.477c-0.834-1.052-1.977-1.863-3.152-2.179c-0.311-0.083-0.611-0.132-0.906-0.167
		c-0.285-0.148-0.615-0.261-0.996-0.326c-3.932-0.672-8.342-0.74-12.098,0.725c-8.265,3.223-7.425,11.69-4.358,18.534
		c0.162,0.36,0.358,0.658,0.578,0.9c-7.365,5.267-11.714,13.289-11.217,23.006c0.255,5.002,8.052,5.024,7.793,0
		c-0.358-7.008,2.359-12.242,7.164-16.022c-0.875,2.881-1.157,5.932-0.098,8.748c1.782,4.737,5.239,7.848,9.689,10.127
		c4.465,2.287,8.41-4.438,3.936-6.73c-5.771-2.955-7.639-6.832-5.07-12.434C34.953,42.729,35.077,42.721,35.205,42.707z
		 M42.635,27.685c0.322,0.551,0.615,1.129,0.869,1.753c0.617,1.517,0.811,2.553,0.104,3.714c-0.889,1.459-3.144,2.125-5.246,2.481
		C39.811,32.995,41.291,30.377,42.635,27.685z M31.976,23.015c-0.68,1.286-1.375,2.564-2.082,3.835
		c-0.786,1.414-1.581,2.824-2.356,4.244c-0.835-2.029-1.688-4.886-0.995-6.412c0.604-1.327,1.738-1.776,3.377-2.194
		c0.74-0.189,1.588-0.288,2.493-0.332C32.268,22.443,32.125,22.73,31.976,23.015z"/>
</g>
</svg>
