<?xml version="1.0" encoding="utf-8"?>
<!-- Generator: Adobe Illustrator 16.0.4, SVG Export Plug-In . SVG Version: 6.00 Build 0)  -->
<!DOCTYPE svg PUBLIC "-//W3C//DTD SVG 1.1//EN" "http://www.w3.org/Graphics/SVG/1.1/DTD/svg11.dtd">
<svg version="1.1" id="Capa_1" xmlns="http://www.w3.org/2000/svg" xmlns:xlink="http://www.w3.org/1999/xlink" x="0px" y="0px"
	 width="64px" height="64px" viewBox="0 0 64 64" enable-background="new 0 0 64 64" xml:space="preserve">
<g>
	<path fill="#0E0F0F" d="M44.129,55.989c-1.676-1.632-3.613-3.101-5.021-4.985c-1.293-1.732-0.67-2.475-0.209-4.688
		c0.531-2.545,1.207-5.211,1.467-7.871c0.179-0.385,0.326-0.811,0.434-1.279c0.564-2.473,1.331-4.92,1.467-7.466
		c0.197-3.746-0.713-7.738-1.09-11.444c-0.322-3.167-2.363-5.868-5.806-5.89c-1.921-0.012-3.992,1.13-5.1,2.813
		c-2.335,2.057-4.995,2.832-8.206,2.006c-4.731-1.213-6.734,6.084-2.011,7.297c3.542,0.908,6.984,0.712,10.104-0.488
		c0.189,1.669,0.35,3.341,0.414,5.01c0.006,0.174,0.003,0.348-0.003,0.521c-0.027,0.204-0.062,0.445-0.097,0.596
		c-0.155,0.68-0.323,1.358-0.49,2.036c-2.242-0.899-4.567-1.608-6.886-2.247c-1.814-0.5-4.336,0.603-4.654,2.643
		c-0.679,4.372-0.203,8.442,1.032,12.674c1.364,4.672,8.666,2.684,7.296-2.014c-0.439-1.502-0.828-3.025-1.031-4.566
		c2.141,0.767,4.206,1.697,6.135,2.994c0.142,0.096,0.285,0.178,0.427,0.252c-0.492,2.028-1.086,4.096-1.356,5.795
		c-0.961,6.071,3.943,9.862,7.833,13.653C42.273,64.744,47.629,59.396,44.129,55.989z"/>
	<circle fill="#0E0F0F" cx="27.424" cy="7.182" r="5.611"/>
</g>
</svg>
