<?xml version="1.0" encoding="utf-8"?>
<!-- Generator: Adobe Illustrator 16.0.4, SVG Export Plug-In . SVG Version: 6.00 Build 0)  -->
<!DOCTYPE svg PUBLIC "-//W3C//DTD SVG 1.1//EN" "http://www.w3.org/Graphics/SVG/1.1/DTD/svg11.dtd">
<svg version="1.1" id="Capa_1" xmlns="http://www.w3.org/2000/svg" xmlns:xlink="http://www.w3.org/1999/xlink" x="0px" y="0px"
	 width="64px" height="64px" viewBox="0 0 64 64" enable-background="new 0 0 64 64" xml:space="preserve">
<g>
	<path fill="#0E0F0F" d="M39.328,13.013c2.857,0.422,5.513-1.552,5.934-4.408c0.42-2.856-1.553-5.513-4.406-5.933
		c-2.858-0.421-5.516,1.554-5.938,4.409C34.498,9.937,36.473,12.595,39.328,13.013z"/>
	<path fill="#0E0F0F" d="M59.385,56.877c-3.525-10.284-5.986-20.714-6.496-22.941c0.088-0.709,0.06-1.446-0.104-2.196
		c-1.056-4.852-2.146-9.3-3.33-13.598c-0.733-2.662-2.882-4.315-5.604-4.315c-1.812,0-3.588,0.736-4.797,1.978
		c-4.561,0.5-10.479,1.633-13.274,4.196c-0.601,0.55-0.951,1.301-0.985,2.116c-0.024,0.539,0.105,1.057,0.347,1.524l-2.419,0.23
		l0.203,2.12l-0.655,0.063c-0.228-0.029-0.46-0.037-0.697-0.013l-0.624,0.06c-0.105-0.39-0.297-0.657-0.492-0.639
		c-0.194,0.019-0.333,0.317-0.362,0.721l-0.548,0.052c-0.104-0.391-0.297-0.658-0.491-0.64c-0.195,0.021-0.333,0.318-0.363,0.72
		l-0.598,0.057c-0.104-0.39-0.296-0.657-0.492-0.639c-0.194,0.019-0.333,0.318-0.362,0.721l-0.48,0.046
		c-0.104-0.391-0.296-0.657-0.492-0.639c-0.196,0.018-0.333,0.318-0.362,0.72l-0.534,0.051c-0.104-0.39-0.296-0.657-0.492-0.639
		c-0.195,0.019-0.333,0.317-0.362,0.721l-0.598,0.057c-0.104-0.39-0.296-0.657-0.492-0.639c-0.196,0.018-0.333,0.317-0.362,0.719
		l-0.481,0.047c-0.104-0.391-0.297-0.658-0.492-0.639c-0.194,0.019-0.332,0.317-0.362,0.72l-0.547,0.052
		c-0.105-0.39-0.296-0.657-0.492-0.639c-0.196,0.019-0.333,0.317-0.362,0.72l-0.598,0.057c-0.104-0.39-0.297-0.658-0.492-0.639
		c-0.195,0.019-0.333,0.317-0.362,0.72l-0.481,0.046c-0.105-0.39-0.296-0.658-0.492-0.639c-0.196,0.019-0.333,0.32-0.362,0.725
		c-0.271,0.036-0.529,0.103-0.772,0.2c-0.271-0.477-0.646-0.768-0.86-0.655c-0.22,0.115-0.187,0.612,0.069,1.12
		c-0.18,0.144-0.343,0.308-0.487,0.487c-0.477-0.256-0.941-0.304-1.063-0.098c-0.122,0.208,0.146,0.59,0.599,0.884
		c-0.066,0.164-0.122,0.335-0.16,0.512c-0.556,0.067-0.98,0.309-0.956,0.551c0.021,0.223,0.405,0.373,0.894,0.368
		c0.001,0.019,0,0.036,0.001,0.055c0.018,0.179,0.052,0.35,0.098,0.519c-0.014,0.008-0.027,0.015-0.043,0.023
		c-0.496,0.317-0.786,0.748-0.649,0.963c0.13,0.202,0.594,0.137,1.061-0.136c0.094,0.147,0.199,0.288,0.314,0.418
		c-0.02,0.033-0.042,0.064-0.061,0.102c-0.289,0.514-0.34,1.031-0.117,1.154c0.215,0.12,0.605-0.174,0.891-0.658
		c0.166,0.104,0.342,0.189,0.525,0.262C6.76,34.01,6.893,34.48,7.137,34.518c0.236,0.032,0.484-0.349,0.587-0.867
		c0.171,0.012,0.347,0.014,0.525-0.004l0.117-0.012c0.097,0.448,0.305,0.766,0.517,0.745c0.212-0.021,0.357-0.371,0.367-0.829
		l0.451-0.043c0.096,0.448,0.304,0.766,0.517,0.745c0.212-0.021,0.356-0.371,0.366-0.828l0.569-0.055
		c0.095,0.446,0.304,0.766,0.517,0.745c0.212-0.021,0.356-0.372,0.365-0.83l0.52-0.049c0.095,0.447,0.304,0.766,0.516,0.744
		c0.212-0.02,0.357-0.371,0.367-0.83l0.451-0.041c0.097,0.447,0.305,0.766,0.517,0.744c0.212-0.021,0.357-0.371,0.367-0.83
		l0.569-0.054c0.095,0.448,0.304,0.767,0.516,0.745c0.212-0.02,0.357-0.371,0.366-0.828l0.505-0.049
		c0.095,0.447,0.304,0.766,0.516,0.745c0.213-0.021,0.357-0.371,0.367-0.829l0.453-0.043c0.095,0.447,0.304,0.766,0.516,0.745
		s0.357-0.372,0.367-0.829l0.569-0.054c0.095,0.446,0.304,0.766,0.516,0.745c0.213-0.021,0.357-0.373,0.367-0.83l0.518-0.05
		c0.096,0.448,0.305,0.765,0.517,0.745s0.357-0.371,0.366-0.829l0.37-0.035c0.657-0.062,1.248-0.324,1.72-0.718l6.78-0.646
		c-0.825,0.738-1.229,1.89-0.932,3.032c0.348,1.346,1.562,2.283,2.949,2.283c0.258,0,0.516-0.031,0.77-0.098
		c2.704-0.703,5.116-1.729,7.184-3.048c0.135,0.599,0.269,1.199,0.399,1.8c0.032,0.146,0.069,0.287,0.108,0.428
		c-3.908,2.602-6.4,5.383-9.194,9.283c-0.642,0.897-0.723,1.791-0.458,2.562c0.006,0.292,0.051,0.601,0.152,0.927
		c1.14,3.707,2.28,7.416,3.42,11.124c1.211,3.953,7.49,2.489,6.269-1.485c-1.086-3.531-2.173-7.065-3.259-10.602
		c2.132-2.788,4.688-5.251,7.652-7.143c0.318-0.201,0.576-0.437,0.789-0.688c0.174-0.003,0.35-0.014,0.523-0.03
		c1.346,4.923,4.127,14.707,6.4,20.07C55.066,63.193,61.012,60.711,59.385,56.877z M21.945,29.965L8.026,31.29
		c-0.434,0.041-0.819-0.278-0.861-0.711c-0.041-0.433,0.277-0.819,0.711-0.859l13.919-1.326c0.146-0.015,0.287,0.015,0.411,0.076
		l0.127,1.344C22.223,29.895,22.092,29.951,21.945,29.965z M23.865,25.899l-0.112-1.178l2.083-0.198
		c0.554,0.486,1.261,0.772,2.003,0.772c0.722,0,1.41-0.262,1.96-0.726l0.072,0.758L23.865,25.899z M30.694,23.969
		c1.396-0.722,3.962-1.388,7.222-1.858c0.387,1.425,0.779,2.928,1.189,4.569c-1.781,1.609-4.195,2.817-7.185,3.592
		c-0.214,0.056-0.416,0.136-0.606,0.232l-0.344-3.617l-0.157-1.649L30.694,23.969z M51.699,33.574
		c-2.291,0.181-7.566,0.642-9.441,1.189c-0.008-0.033-0.021-0.062-0.027-0.098c-0.195-0.895-0.398-1.785-0.602-2.678l-0.201-0.887
		l-0.744,0.525c-2.104,1.483-4.64,2.616-7.535,3.367c-0.974,0.258-1.982-0.354-2.23-1.312c-0.253-0.977,0.335-1.977,1.31-2.229
		c3.338-0.866,6.023-2.256,7.979-4.131l0.254-0.244l-0.085-0.343c-0.495-1.989-0.962-3.776-1.425-5.463l-0.143-0.513l-0.527,0.071
		c-2.479,0.335-6.703,1.073-8.704,2.388l-3.059,0.291c-0.009-0.009-0.02-0.015-0.028-0.024c-0.33-0.36-0.5-0.828-0.479-1.316
		c0.021-0.488,0.231-0.938,0.591-1.269c2.598-2.382,8.398-3.44,12.805-3.908l0.233-0.024l0.156-0.174
		c0.98-1.095,2.495-1.748,4.053-1.748c2.182,0,3.838,1.278,4.428,3.419c1.179,4.277,2.264,8.704,3.313,13.534
		C51.717,32.578,51.738,33.1,51.699,33.574z"/>
	<path fill="#0E0F0F" d="M45.025,21.332c-0.342,0.078-0.238,0.032-0.342,0.078c-0.138-0.047-0.281-0.078-0.435-0.078
		c-0.123,0-0.24,0.022-0.354,0.053c-0.098-0.031-0.877-0.891-0.324-0.053c0.551,0.838-0.68,0.17-0.68,0.381
		c0,0.107,0.078,0.203,0.205,0.272c-0.078,0.128-0.13,0.274-0.164,0.426l-0.029-0.042v0.249c-0.002,0.029-0.012,0.057-0.012,0.086
		c0,0.043,0.008,0.083,0.012,0.125c0,0-0.457,0.043,0,0.912c0.367,0.701,0.83,0.619,0.998,0.561
		c-0.023,0.269-0.039,0.565-0.039,0.882c0,1.142,0.174,2.066,0.389,2.066c0.213,0,0.387-0.925,0.387-2.066
		c0-0.426-0.022-0.822-0.063-1.15c0.595-0.146,1.038-0.685,1.038-1.33c0-0.076-0.012-0.148-0.022-0.22
		c0.13-0.123,0.213-0.285,0.213-0.466C45.801,21.639,45.367,21.253,45.025,21.332z"/>
	<path fill="#0E0F0F" d="M43.07,18.051c0.062,0.062,0.138,0.109,0.221,0.142c-0.182,0.129-0.301,0.341-0.301,0.582
		c0,0.396,0.32,0.716,0.716,0.716c0.381,0,0.688-0.299,0.711-0.675c0.228-0.095,0.385-0.318,0.385-0.578
		c0-0.159-0.061-0.302-0.157-0.413c0.098-0.093,0.157-0.225,0.157-0.37c0-0.073-0.016-0.143-0.043-0.206
		c0.015,0.001,0.027,0.004,0.043,0.004c0.271,0,0.492-0.22,0.492-0.493c0-0.271-0.221-0.492-0.492-0.492
		c-0.271,0-0.491,0.22-0.491,0.492c0,0.066,0.013,0.128,0.037,0.186c-0.021-0.002-0.039-0.006-0.061-0.006
		c-0.023,0-0.045,0.004-0.068,0.007c0-0.003,0.002-0.005,0.002-0.007c0-0.37-0.302-0.671-0.672-0.671
		c-0.078,0-0.154,0.016-0.225,0.041c-0.07-0.025-0.145-0.041-0.223-0.041c-0.371,0-0.672,0.301-0.672,0.671
		c0,0.105,0.026,0.204,0.069,0.294c-0.043,0.079-0.069,0.168-0.069,0.266c0,0.309,0.252,0.559,0.561,0.559
		C43.018,18.059,43.045,18.055,43.07,18.051z"/>
	<path fill="#0E0F0F" d="M49.04,24.12c-0.046-0.188-0.199-0.341-0.403-0.375c-0.123-0.021-0.244,0.009-0.343,0.071
		c-0.06-0.088-0.153-0.152-0.269-0.171c-0.058-0.01-0.113-0.006-0.166,0.008c0.004-0.011,0.007-0.021,0.01-0.034
		c0.033-0.212-0.107-0.412-0.322-0.446c-0.212-0.035-0.413,0.108-0.447,0.32c-0.033,0.213,0.109,0.413,0.321,0.448
		c0.052,0.008,0.103,0.006,0.149-0.005c-0.004,0.016-0.01,0.03-0.014,0.045c-0.002,0.019-0.002,0.036-0.002,0.054
		c0,0-0.005-0.001-0.007-0.002c-0.288-0.047-0.563,0.149-0.61,0.438c-0.01,0.062-0.006,0.122,0.004,0.18
		c-0.027,0.051-0.049,0.108-0.061,0.169c-0.046,0.29,0.15,0.563,0.439,0.611c0.082,0.013,0.162,0.005,0.238-0.017
		c0.057,0.043,0.123,0.076,0.197,0.088c0.242,0.04,0.469-0.124,0.51-0.364c0.004-0.022,0.004-0.043,0.004-0.065
		c0.057-0.041,0.103-0.093,0.14-0.154c0.077,0.159,0.229,0.28,0.416,0.311c0.309,0.05,0.601-0.159,0.651-0.468
		C49.525,24.464,49.33,24.185,49.04,24.12z"/>
</g>
</svg>
