<?xml version="1.0" encoding="utf-8"?>
<!-- Generator: Adobe Illustrator 16.0.4, SVG Export Plug-In . SVG Version: 6.00 Build 0)  -->
<!DOCTYPE svg PUBLIC "-//W3C//DTD SVG 1.1//EN" "http://www.w3.org/Graphics/SVG/1.1/DTD/svg11.dtd">
<svg version="1.1" id="Capa_1" xmlns="http://www.w3.org/2000/svg" xmlns:xlink="http://www.w3.org/1999/xlink" x="0px" y="0px"
	 width="64px" height="64px" viewBox="0 0 64 64" enable-background="new 0 0 64 64" xml:space="preserve">
<path fill="#0E0F0F" d="M21.019,5.053c2.436,0,4.411,1.975,4.411,4.411s-1.975,4.411-4.411,4.411s-4.411-1.975-4.411-4.411
	S18.583,5.053,21.019,5.053z M57.762,37.129c0.656,0,1.188,0.532,1.188,1.188c0,0.656-0.532,1.188-1.188,1.188
	s-1.188-0.532-1.188-1.188C56.574,37.661,57.105,37.129,57.762,37.129z M59.072,42.961c0.332,0,0.601,0.27,0.601,0.602
	s-0.269,0.601-0.601,0.601s-0.602-0.269-0.602-0.601S58.74,42.961,59.072,42.961z M54.023,40.885c0.308,0,0.558,0.25,0.558,0.559
	c0,0.308-0.25,0.558-0.558,0.558c-0.309,0-0.559-0.25-0.559-0.558C53.465,41.135,53.715,40.885,54.023,40.885z M54.487,46.113
	l7.937-0.018l0.029,12.838l-7.936,0.018L54.487,46.113z M49.586,37.111C44.1,35.457,39.684,30.879,36.9,26.01
	c-0.074-0.134-0.159-0.252-0.248-0.363c-0.082-0.291-0.191-0.578-0.325-0.858c-1.177-2.473-2.709-4.795-4.531-6.855
	c4.333-0.884,8.58-2.089,12.744-3.688c3.083-1.182,1.747-6.188-1.374-4.99c-5.702,2.19-11.623,3.77-17.684,4.565
	c-0.088,0.012-0.164,0.04-0.248,0.058c-0.917,0.095-1.808,0.49-2.557,1.248c-0.283,0.287-0.521,0.623-0.713,0.987
	c-3.674,0.54-7.009-0.527-10.16-2.707c-2.752-1.904-5.336,2.583-2.612,4.468c4.053,2.804,8.652,4.021,13.406,3.366
	c0.039,0.036,0.072,0.073,0.111,0.106c2.062,1.732,3.682,3.698,4.998,5.956c-6.192,1.682-12.586,4.956-13.597,11.445
	c-0.507,3.264,4.479,4.667,4.99,1.378c0.974-6.257,9.54-8.054,14.981-8.904c3.456,4.948,8.346,9.135,14.126,10.879
	C51.414,43.066,52.771,38.072,49.586,37.111z M1.547,58.423h7.934l4.596-12.834H1.547V58.423z"/>
</svg>
