<?xml version="1.0" encoding="iso-8859-1"?>
<!-- Generator: Adobe Illustrator 16.0.0, SVG Export Plug-In . SVG Version: 6.00 Build 0)  -->
<!DOCTYPE svg PUBLIC "-//W3C//DTD SVG 1.1//EN" "http://www.w3.org/Graphics/SVG/1.1/DTD/svg11.dtd">
<svg version="1.1" id="Capa_1" xmlns="http://www.w3.org/2000/svg" xmlns:xlink="http://www.w3.org/1999/xlink" x="0px" y="0px"
	 width="500px" height="500px" viewBox="0 0 500 500" style="enable-background:new 0 0 500 500;" xml:space="preserve">
<g>
	<path d="M283.853,400.957c-2.769,0-4.248-0.812-4.335-2.182c-1.516-17.476-9.565-34.229-22.859-47.808
		c4.595-9.42,4.109-22.517,3.935-25.514c-0.121-1.921-1.092-3.695-2.644-4.824c-1.554-1.139-3.521-1.498-5.402-1.029L212.91,329.79
		c-3.857-1.222-20.256-4.626-36.378-5.154c-28.044-0.905-53.864,14.894-55.098,15.623c-18.131,11.317-30.492,27.771-35.702,46.797
		c-1.787,1.047-3.635,1.783-5.475,2.129c0.634-4.24,0.131-8.729-1.456-12.231c-5.091-11.204-17.69-1.152-17.087,7.932
		c0.277,4.148,3.573,7.809,7.4,9.912c-1.637,0.31-3.55,0.229-5.675-0.291c-12.307-3.043-12.718-16.959-11.481-27.174
		c0.592-4.9-6.286-1.768-6.72,1.807c-1.952,16.19,3.666,36.012,23.96,32.896c3.685-0.566,6.321-2.599,8.168-5.312
		c2.367-0.106,4.588-0.592,6.674-1.461c-0.661,4.099-1.118,8.271-1.118,12.559c0,24.721,2.109,46.49,27.999,63.213
		c1.164,2.354,2.209,10.353,2.209,17.476c0,3.372,2.598,6.163,5.948,6.424l22.727,1.752c8.194,0,7.235-8.352,6.051-14.187
		c9.102,1.97,18.2,2.16,27.468,2.16c1.802,0,2.993-0.031,4.062-0.123c0.553,2.273,1.164,5.18,1.637,7.653
		c0.576,3.08,3.25,5.256,6.336,5.256h0.038l15.619-0.106c3.488-0.029,6.313-2.813,6.397-6.302
		c0.112-4.642,0.165-12.634,0.165-12.634s5.43-0.31,6.36-0.385l2.102,7.191c0.841,3.013,3.708,5.071,6.832,4.702l24.125-2.306
		c1.871-0.161,3.573-1.16,4.649-2.705c1.09-1.554,1.441-3.476,0.98-5.316c-1.064-4.148-1.959-8.791-2.192-11.297
		c3.898-3.458,5.398-7.25,7.149-10.45c7.457-13.629,22.446-13.814,25.429-13.814h0.063c1.783,0.138,3.458-0.569,4.731-1.791
		c1.291-1.206,1.998-2.904,1.998-4.656v-30.3C291.806,405.385,290.083,400.957,283.853,400.957z M68.867,383.19
		c-1.36-2.535,0.285-5.104,2.644-2.967c1.629,1.459,2.086,4.242,2.401,6.285c0.111,0.736,0.119,1.354,0.111,1.998
		C72.085,387.555,70.308,385.881,68.867,383.19z M195.363,364.287c-1.222,3.357-4.918,5.102-8.265,3.873
		c-33.739-12.217-51.337,7.032-52.059,7.854c-1.291,1.431-3.069,2.167-4.856,2.167c-1.502,0-3.028-0.536-4.242-1.582
		c-2.651-2.328-2.951-6.357-0.634-9.054c0.942-1.089,23.795-26.81,66.16-11.525C194.821,357.234,196.55,360.938,195.363,364.287z
		 M243.832,390.526c-3.562,0-6.451-4.287-6.451-9.591c-0.003-5.295,2.889-9.592,6.451-9.592c3.565,0,6.455,4.297,6.455,9.592
		C250.287,386.239,247.397,390.526,243.832,390.526z"/>
	<circle cx="187.237" cy="246.112" r="30.083"/>
	<path d="M357.821,104.974c28.286,0,51.209-22.928,51.209-51.209c0-28.283-22.923-51.21-51.209-51.21
		c-28.287,0-51.218,22.924-51.218,51.21C306.604,82.046,329.534,104.974,357.821,104.974z"/>
	<path d="M391.871,117.422c-0.846-0.521-14.754-7.885-21.294-9.485l-12.756,12.84l-12.372-12.976
		c-0.046,0.009-0.085,0.017-0.131,0.022c-8.762,1.511-20.778,9.087-21.624,9.604c-13.341,8.19-24.49,21.104-35.279,33.568
		c-24.675,28.532-35.575,36.771-51.569,29.307c-9.948-4.66-21.782-0.354-26.423,9.59c-4.653,9.947-0.365,21.781,9.583,26.429
		c9.767,4.562,18.854,6.506,27.368,6.506c23.938,0,43.008-15.425,58.033-31.199v73.862c0,5.418,1.69,13.843,4.33,17.496
		c-0.123,0.983-0.274,190.977-0.274,190.977c0,12.971,10.513,23.482,23.491,23.482c12.964,0,23.489-10.514,23.489-23.482
		l-0.016-163.388c0.922,0.03,1.859,0.123,2.797,0.123c0.178,0,0.369-0.031,0.546-0.031l-0.016,163.296
		c0,12.971,10.525,23.482,23.491,23.482c12.985,0,23.499-10.514,23.499-23.482l0.016-190.838c3.074-5.702,3.571-11.292,3.461-17.627
		v-55.244c0,0,2.465,4.246,3.55,9.313c0.497,2.316,2.189,31.203,0.548,52.265c-0.854,10.949,7.321,20.52,18.279,21.37
		c0.521,0.047,1.038,0.077,1.555,0.077c10.279,0,18.996-7.933,19.811-18.354C461.8,174.776,428.757,140.037,391.871,117.422z
		 M357.944,222.134h-0.226l-12.354-16.9l12.354-82.543h0.226l12.349,82.543L357.944,222.134z"/>
</g>
</svg>
