<?xml version="1.0" encoding="utf-8"?>
<!-- Generator: Adobe Illustrator 16.0.4, SVG Export Plug-In . SVG Version: 6.00 Build 0)  -->
<!DOCTYPE svg PUBLIC "-//W3C//DTD SVG 1.1//EN" "http://www.w3.org/Graphics/SVG/1.1/DTD/svg11.dtd">
<svg version="1.1" id="Capa_1" xmlns="http://www.w3.org/2000/svg" xmlns:xlink="http://www.w3.org/1999/xlink" x="0px" y="0px"
	 width="64px" height="64px" viewBox="0 0 64 64" enable-background="new 0 0 64 64" xml:space="preserve">
<g>
	<path fill="#0E0F0F" d="M52.34,16.241c-0.346-1.543-1.756-2.707-3.281-2.707c-0.479,0-0.953,0.109-1.412,0.324
		c-4.205,1.967-8.455,3.684-13.248,5.496c-0.543-0.725-1.244-1.291-2.029-1.684l-2.907,6.252l-1.93-6.384
		c-0.545,0.238-1.037,0.548-1.465,0.919c-3.151-2.797-7.428-6.963-9.47-9.385c-1.164-1.38-3.225-1.555-4.606-0.392
		c-1.379,1.166-1.555,3.227-0.391,4.606c2.935,3.48,9.4,9.611,12.633,12.19c0.213,0.168-0.244-1.02,1.025,1.804
		c0.858,1.908,1.746,3.887,2.755,6.202c-4.98,2.815-7.039,7.593-6.199,13.372c0.257,1.769,2.467,2.711,4.021,2.285
		c1.876-0.518,2.538-2.261,2.283-4.022c-0.449-3.081,1.145-4.892,3.615-6.206c-0.373,4.738,0.442,9.454,2.339,14.074
		c1.578,3.843,7.904,2.162,6.305-1.739c-2.47-6.011-2.947-11.683-0.818-17.873c0.421-1.223,0.117-2.228-0.54-2.925
		c-0.078-0.403-0.197-0.804-0.368-1.196c-0.639-1.471-1.227-2.794-1.789-4.055c4.521-1.718,9.209-3.606,13.859-5.783
		C52.02,18.809,52.639,17.592,52.34,16.241z"/>
	<path fill="#0E0F0F" d="M26.431,14.449l0.168-3.217c0,0,4.936,1.636,6.683-2.318c-0.138,2.62,1.185,2.371,2.452,2.95l-0.188,3.593
		c1.144,0.239,1.599-3.028,1.599-3.028c0.209-4.033-2.299-7.597-5.606-7.962c-3.307-0.366-6.16,2.606-6.371,6.638
		C25.167,11.105,25.274,14.435,26.431,14.449z"/>
	<path fill="#0E0F0F" d="M41.126,55.411c-0.937,0.784-1.226,1.952-1.306,2.765c-0.485-0.603-1.084-0.97-1.781-1.091
		c-1.564-0.276-3.215,0.769-4.023,1.381c0.041-1.429-0.34-2.624-1.138-3.559c-1.586-1.861-4.226-2.005-4.337-2.011l-0.026,0.549
		c0.026,0.003,2.512,0.139,3.945,1.818c0.812,0.953,1.138,2.228,0.962,3.791l-0.081,0.73l0.541-0.499
		c0.021-0.019,2.19-1.994,4.063-1.661c0.783,0.137,1.418,0.671,1.891,1.586l0.652,1.262l-0.133-1.412
		c-0.002-0.022-0.188-2.134,1.125-3.229c0.92-0.767,2.367-0.878,4.303-0.331l0.148-0.529C43.812,54.369,42.193,54.518,41.126,55.411
		z"/>
</g>
</svg>
