<?xml version="1.0" encoding="utf-8"?>
<!-- Generator: Adobe Illustrator 16.0.4, SVG Export Plug-In . SVG Version: 6.00 Build 0)  -->
<!DOCTYPE svg PUBLIC "-//W3C//DTD SVG 1.1//EN" "http://www.w3.org/Graphics/SVG/1.1/DTD/svg11.dtd">
<svg version="1.1" id="Capa_1" xmlns="http://www.w3.org/2000/svg" xmlns:xlink="http://www.w3.org/1999/xlink" x="0px" y="0px"
	 width="64px" height="64px" viewBox="0 0 64 64" enable-background="new 0 0 64 64" xml:space="preserve">
<g>
	<rect x="10.662" y="1.846" fill="#0E0F0F" width="5.034" height="60.308"/>
	<path fill="#0E0F0F" d="M17.692,6.406c0.226-0.188,0.44-0.402,0.639-0.632c1.395,0.531,2.988,0.474,4.335-0.159
		c0.22,0.626,0.544,1.201,0.972,1.71c0.118,0.142,0.249,0.281,0.395,0.42c-0.452,1.738-0.043,3.576,1.109,4.956
		c0.087,0.104,0.18,0.2,0.283,0.305l0.239,0.248l0.246-0.238l0.39-0.443l-0.217-0.221c-0.077-0.081-0.155-0.161-0.227-0.246
		c-1.016-1.217-1.335-2.851-0.854-4.372l0.088-0.286l-0.226-0.202C24.659,7.067,24.49,6.898,24.35,6.73
		c-0.46-0.551-0.779-1.192-0.946-1.902l-0.147-0.625l-0.546,0.333c-1.293,0.789-2.944,0.884-4.33,0.25l-0.34-0.155l-0.221,0.3
		c-0.22,0.288-0.462,0.545-0.722,0.762l-0.263,0.221l0.595,0.711L17.692,6.406z"/>
	<circle fill="#0E0F0F" cx="39.659" cy="6.577" r="5.165"/>
	<path fill="#0E0F0F" d="M52.537,20.502c-1.113-2.415-2.533-4.709-4.648-6.367c-0.229-0.179-0.468-0.298-0.707-0.389
		c-0.015-0.018-0.024-0.04-0.041-0.057c-3.684-1.851-11.127-1.624-14.391-0.497v0.021c-0.457,0.1-0.922,0.338-1.362,0.77
		c-1.773,1.658-3.09,2.668-4.914,3.311c-1.937-1.089-3.767-2.37-5.36-3.924c-2.257-2.204-5.719,1.253-3.459,3.46
		c1.637,1.597,3.488,2.994,5.451,4.169c1.091,0.651,2.394,1.656,3.741,1.301c1.894-0.499,3.851-1.272,5.548-2.377l-0.005,0.109
		c0.005,3.789,0.025,18.011,0.025,18.213l0.101,21.333c0,1.633,1.36,2.955,3.039,2.955c1.678,0,3.038-1.322,3.038-2.955V38.902
		c0,0-0.028-1.02,1.04-1.008s1.164,1.062,1.164,1.062v20.678c0,1.634,1.36,2.954,3.04,2.954c1.677,0,2.869-1.32,2.869-2.954V39.786
		L46.7,36.645c2.374-1.521,4.218-3.725,5.543-6.208c0.729-1.365,1.991-3.268,1.991-4.892C54.234,23.892,53.204,21.947,52.537,20.502
		z M49.074,25.829c-0.326,0.725-0.66,1.45-1.053,2.14c-0.416,0.724-0.851,1.426-1.338,2.079l-0.025-10.077
		c1.175,1.64,1.998,3.556,2.56,5.486C49.184,25.562,49.141,25.685,49.074,25.829z M49.275,25.246
		C49.273,24.991,49.327,24.995,49.275,25.246L49.275,25.246z"/>
</g>
</svg>
