<?xml version="1.0" encoding="utf-8"?>
<!-- Generator: Adobe Illustrator 16.0.4, SVG Export Plug-In . SVG Version: 6.00 Build 0)  -->
<!DOCTYPE svg PUBLIC "-//W3C//DTD SVG 1.1//EN" "http://www.w3.org/Graphics/SVG/1.1/DTD/svg11.dtd">
<svg version="1.1" id="Capa_1" xmlns="http://www.w3.org/2000/svg" xmlns:xlink="http://www.w3.org/1999/xlink" x="0px" y="0px"
	 width="64px" height="64px" viewBox="0 0 64 64" enable-background="new 0 0 64 64" xml:space="preserve">
<g>
	<path fill="#0E0F0F" d="M48.248,12.19c-5.753,1.467-11.506,2.933-17.258,4.399c-2.49-0.517-5.428,0.854-5.428,4.14
		c0,5.14,0,10.281,0,15.419c-3.734,2.273-7.392,4.668-11.319,6.61c-1.72,0.849-2.105,3.173-1.242,4.733
		c1.948,3.521,3.853,7.066,5.767,10.607c2.122,3.928,8.096,0.433,5.974-3.49c-1.345-2.485-2.688-4.973-4.042-7.453
		c2.402-1.348,4.737-2.807,7.082-4.254c0.205,0.105,0.416,0.199,0.635,0.273c0.913,8.116,5.591,14.876,13.388,18.792
		c3.529,1.774,6.641-3.524,3.102-5.305c-7.821-3.929-11.213-10.583-10.381-19.228c0.043-0.443-0.008-0.83-0.111-1.174
		c0-5.059,0-10.117,0-15.174c5.072-1.293,10.146-2.586,15.218-3.879C52.882,16.382,51.503,11.362,48.248,12.19z"/>
	<circle fill="#0E0F0F" cx="21.352" cy="14.756" r="5.503"/>
	<path fill="#0E0F0F" d="M17.402,8.922c-1.741,1.049,4.794-1.862,5.481-1.298c-1.608-2.093-2.485-3.198-5.517-5.253
		c-0.807-0.878-2.171-0.938-3.049-0.132c-0.879,0.807-0.939,2.172-0.132,3.052L17.402,8.922z"/>
</g>
</svg>
