<?xml version="1.0" encoding="utf-8"?>
<!-- Generator: Adobe Illustrator 16.0.4, SVG Export Plug-In . SVG Version: 6.00 Build 0)  -->
<!DOCTYPE svg PUBLIC "-//W3C//DTD SVG 1.1//EN" "http://www.w3.org/Graphics/SVG/1.1/DTD/svg11.dtd">
<svg version="1.1" id="Capa_1" xmlns="http://www.w3.org/2000/svg" xmlns:xlink="http://www.w3.org/1999/xlink" x="0px" y="0px"
	 width="64px" height="64px" viewBox="0 0 64 64" enable-background="new 0 0 64 64" xml:space="preserve">
<g>
	<path fill="#0E0F0F" d="M61.324,27.46c-1.463-5.327-4.758-9.69-9.688-12.239c-0.356-0.184-0.699-0.274-1.031-0.317
		c-0.918-0.292-1.94-0.41-2.971-0.322c-2.757,0.237-4.938,1.544-5.872,3.361c-0.205,0.266-0.403,0.551-0.579,0.882
		c-1.841,3.267-5.552,6.146-8.8,8.22c-0.189-0.075-0.394-0.138-0.621-0.179c-3.899-0.718-7.27-2.41-9.432-5.837
		c-0.303-0.48-0.677-0.811-1.083-1.039c-1.132-1.223-2.932-2.061-5.084-2.245c-1.03-0.088-2.05,0.03-2.968,0.321
		c-0.331,0.042-0.673,0.133-1.029,0.317c-4.933,2.548-8.227,6.912-9.689,12.239c-1.021,3.718,4.615,5.829,5.642,2.092
		c0.35-1.273,0.813-2.47,1.395-3.58c-0.06,3.121-0.12,6.243-0.18,9.363c-0.001,0.051,0.011,0.099,0.011,0.149l-0.033,1.75
		l-0.366,8.729L8.159,60.049c-0.005,0.274,0.059,0.532,0.171,0.771l-0.004,0.037C8.304,62.023,9.449,62.98,10.886,63
		c1.433,0.018,2.616-0.912,2.64-2.075l1.534-14.362l0.266-2.131l0.634,0.01l0.74,8.52l0.505,7.396
		c-0.006,0.319,0.083,0.621,0.236,0.896c0.246,0.939,1.262,1.653,2.498,1.668c1.436,0.018,2.616-0.91,2.64-2.074l-0.37-10.938
		l-0.029-8.734l0.027-1.449c0.003-0.046,0.013-0.089,0.014-0.135c0.064-3.356,0.128-6.712,0.192-10.068
		c2.283,1.556,4.902,2.618,7.75,3.142c0.828,0.152,1.543-0.016,2.13-0.362c0.905,0.499,2.041,0.599,3.142-0.086
		c1.925-1.196,4.059-2.594,5.982-4.2c0.054,2.804,0.107,5.608,0.161,8.412c0.001,0.045,0.011,0.089,0.014,0.134l0.027,1.454
		l-0.028,8.73l-0.369,10.939c0.022,1.164,1.203,2.095,2.639,2.074c1.236-0.015,2.252-0.729,2.5-1.67
		c0.15-0.273,0.24-0.576,0.234-0.896l0.506-7.396l0.739-8.521l0.636-0.008l0.267,2.131l1.532,14.361
		c0.023,1.163,1.205,2.092,2.64,2.075c1.438-0.021,2.583-0.979,2.56-2.142l-0.004-0.036c0.112-0.24,0.178-0.501,0.172-0.772
		l-0.787-10.926l-0.367-8.729l-0.033-1.767c0-0.045,0.011-0.088,0.01-0.133c-0.06-3.122-0.12-6.243-0.18-9.365
		c0.581,1.111,1.046,2.309,1.396,3.583C56.708,33.289,62.344,31.178,61.324,27.46z"/>
	<circle fill="#0E0F0F" cx="47.866" cy="7.852" r="5.075"/>
	<circle fill="#0E0F0F" cx="15.935" cy="11.014" r="5.075"/>
</g>
</svg>
