<?xml version="1.0" encoding="utf-8"?>
<!-- Generator: Adobe Illustrator 16.0.4, SVG Export Plug-In . SVG Version: 6.00 Build 0)  -->
<!DOCTYPE svg PUBLIC "-//W3C//DTD SVG 1.1//EN" "http://www.w3.org/Graphics/SVG/1.1/DTD/svg11.dtd">
<svg version="1.1" id="Capa_1" xmlns="http://www.w3.org/2000/svg" xmlns:xlink="http://www.w3.org/1999/xlink" x="0px" y="0px"
	 width="64px" height="64px" viewBox="0 0 64 64" enable-background="new 0 0 64 64" xml:space="preserve">
<g>
	<path fill="#0E0F0F" d="M49.264,35.87c-2.132-4.122-5.404-7.163-9.516-9.106c-1.911-1.249-4.768-2.044-7.964-2.044
		c-2.997,0-5.691,0.702-7.592,1.819c-4.083,1.944-7.333,4.977-9.456,9.081c-1.192,2.305,2.288,4.345,3.482,2.034
		c0.771-1.489,1.719-2.827,2.822-4l-1.138,11.265l6.447-3.63l4.382,3.613l5.403-3.563l7.821,3.593l-1.383-11.418
		c1.271,1.262,2.349,2.731,3.205,4.391C46.977,40.216,50.456,38.178,49.264,35.87z"/>
	<path fill="#0E0F0F" d="M19.788,49.744h5.504c-0.034,0.163-0.052,0.33-0.052,0.504v10.081c0,1.392,1.128,2.521,2.52,2.521
		c1.393,0,2.521-1.129,2.521-2.521V50.247c0-0.174-0.018-0.341-0.051-0.504h3.036c-0.033,0.163-0.051,0.33-0.051,0.504v10.081
		c0,1.393,1.128,2.521,2.52,2.521c1.394,0,2.521-1.129,2.521-2.521V50.247c0-0.174-0.02-0.341-0.051-0.504h5.891v-2.017H19.788
		V49.744z"/>
	<polygon fill="#0E0F0F" points="19.788,46.07 30.393,46.07 26.195,42.609 	"/>
	<polygon fill="#0E0F0F" points="30.942,46.07 44.098,46.07 36.264,42.561 	"/>
	<path fill="#0E0F0F" d="M40.494,18.399l5.686-2.586c0-0.244-0.328-0.441-0.734-0.441H18.438c-0.405,0-0.734,0.197-0.734,0.441
		l5.32,2.586H40.494z M38.055,16.129h1.631c0.418,0,0.758,0.339,0.758,0.757c0,0.418-0.34,0.757-0.758,0.757h-1.631
		c-0.42,0-0.758-0.339-0.758-0.757C37.297,16.468,37.635,16.129,38.055,16.129z M33.038,16.129h1.633
		c0.417,0,0.756,0.339,0.756,0.757c0,0.418-0.339,0.757-0.756,0.757h-1.633c-0.417,0-0.756-0.339-0.756-0.757
		C32.282,16.468,32.621,16.129,33.038,16.129z M28.273,16.129h1.632c0.418,0,0.756,0.339,0.756,0.757
		c0,0.418-0.338,0.757-0.756,0.757h-1.632c-0.417,0-0.756-0.339-0.756-0.757C27.517,16.468,27.856,16.129,28.273,16.129z
		 M22.672,16.886c0-0.418,0.339-0.757,0.756-0.757h1.632c0.418,0,0.756,0.339,0.756,0.757c0,0.418-0.338,0.757-0.756,0.757h-1.632
		C23.011,17.643,22.672,17.304,22.672,16.886z"/>
	<path fill="#0E0F0F" d="M31.941,1.688c-3.313,0-6,5.43-6,12.128h12C37.941,7.118,35.255,1.688,31.941,1.688z"/>
	<path fill="#0E0F0F" d="M36.159,21.203c-0.201-0.083-0.368-0.205-0.528-0.33c-0.316-0.255-0.636-0.541-1.003-0.861
		c-0.18-0.166-0.399-0.303-0.709-0.402c-0.31-0.101-1.631-0.268-1.977-0.042c0,0.302,0.376,1.187,0.376,1.187
		s0.348,0.704,0.598,0.967c0.488,0.531,1.159,0.994,1.986,1.153c0.408,0.084,0.846,0.078,1.252-0.004
		c0.406-0.085,0.777-0.252,1.09-0.454c0.312-0.209,0.578-0.439,0.802-0.691s0.396-0.544,0.472-0.886
		c-0.34,0.095-0.615,0.215-0.884,0.317c-0.264,0.104-0.53,0.175-0.788,0.177C36.592,21.341,36.357,21.292,36.159,21.203z"/>
	<path fill="#0E0F0F" d="M29.256,20.012c-0.367,0.321-0.688,0.606-1.003,0.861c-0.16,0.125-0.328,0.247-0.527,0.33
		c-0.2,0.089-0.433,0.138-0.688,0.13c-0.257-0.002-0.523-0.073-0.789-0.177c-0.27-0.103-0.545-0.222-0.886-0.317
		c0.078,0.342,0.251,0.634,0.473,0.886c0.225,0.252,0.491,0.482,0.801,0.691c0.313,0.202,0.684,0.369,1.092,0.454
		c0.406,0.083,0.842,0.089,1.25,0.004c0.827-0.16,1.499-0.622,1.987-1.153c0.251-0.263,0.598-0.967,0.598-0.967
		s0.377-0.884,0.377-1.187c-0.344-0.225-1.667-0.058-1.977,0.043C29.655,19.709,29.434,19.846,29.256,20.012z"/>
</g>
</svg>
