<?xml version="1.0" encoding="utf-8"?>
<!-- Generator: Adobe Illustrator 16.0.4, SVG Export Plug-In . SVG Version: 6.00 Build 0)  -->
<!DOCTYPE svg PUBLIC "-//W3C//DTD SVG 1.1//EN" "http://www.w3.org/Graphics/SVG/1.1/DTD/svg11.dtd">
<svg version="1.1" id="Capa_1" xmlns="http://www.w3.org/2000/svg" xmlns:xlink="http://www.w3.org/1999/xlink" x="0px" y="0px"
	 width="64px" height="64px" viewBox="0 0 64 64" enable-background="new 0 0 64 64" xml:space="preserve">
<g>
	<path fill="#0F1011" d="M27.5,14.951h0.462l0.617-2.677h5.672l0.942,2.677h0.289v-0.97c0-2.142,0.011-3.878-2.131-3.878h-1.327
		c0,0-1.422,0.24-4.374-2.11c-0.243,1.352,1.205,2.11,1.205,2.11s-1.665-0.76-1.986-0.439C27.597,10.893,27.5,14.951,27.5,14.951z"
		/>
	<path fill="#0F1011" d="M43.055,7.646c-2.863-0.556-4.086,3.826-1.209,4.384c1.059,0.206,1.817,0.952,2.428,1.817
		c0.396,0.563,1.385,2.226,0.74,2.918c-0.462,0.494-2.66,0.25-3.277,0.243c-1.242-0.016-2.481-0.135-3.725-0.158
		c-0.188-0.023-0.382-0.04-0.58-0.04c-0.849,0-1.627,0.225-2.252,0.598c-1.356-0.382-2.867-0.598-4.406-0.598
		c-1.611,0-4.442,0.678-4.442,0.678s-0.189-0.333-1.231-0.54c-0.367-0.405-0.906-0.672-1.623-0.663
		c-2.119,0.028-5.081,0.78-7.079-0.106c-0.664-0.294,0.246-2.11,0.47-2.512c0.569-1.026,1.492-1.971,2.667-2.199
		c2.876-0.559,1.655-4.94-1.209-4.384c-4.229,0.822-7.679,6.311-6.328,10.438c1.238,3.785,5.678,3.623,9.268,3.414
		c0.048,0.95,0.251,1.685,0.251,1.685c-0.017,1.098,0.16,4.961,3.197,8.077c3.578,3.671-1.866,5.504,3.239,5.504h-2.162v1.747
		l0.032,0.015l0.906,18.957c0,1.093,0.889,1.979,1.981,1.979c1.091,0,1.98-0.889,1.98-1.99l-0.375-16.569
		c-1.179-0.438-2.847-1.431-3.923-2.106l4.32,2.06h0.58l1.063-0.476l-0.373,17.164c0,1.093,0.887,1.98,1.979,1.98
		c1.095,0,1.981-0.889,1.979-1.959l0.91-19.673c-0.072,0.046-0.166,0.104-0.252,0.159v-1.288h-3.401
		c6.657,0,1.122-0.556,4.269-5.504c3.148-4.948,3.188-8.498,3.188-8.498c0-0.038-0.006-0.075-0.008-0.113L40.6,21.531
		c3.293,0.192,7.084,0.214,8.553-2.903C51.119,14.451,47.408,8.492,43.055,7.646z"/>
</g>
</svg>
