<?xml version="1.0" encoding="utf-8"?>
<!-- Generator: Adobe Illustrator 16.0.4, SVG Export Plug-In . SVG Version: 6.00 Build 0)  -->
<!DOCTYPE svg PUBLIC "-//W3C//DTD SVG 1.1//EN" "http://www.w3.org/Graphics/SVG/1.1/DTD/svg11.dtd">
<svg version="1.1" id="Capa_1" xmlns="http://www.w3.org/2000/svg" xmlns:xlink="http://www.w3.org/1999/xlink" x="0px" y="0px"
	 width="64px" height="64px" viewBox="0 0 64 64" enable-background="new 0 0 64 64" xml:space="preserve">
<g>
	<path fill="#0E0F0F" d="M31.216,14.338c2.515,0,4.552-2.039,4.552-4.552h-9.104C26.665,12.3,28.704,14.338,31.216,14.338z"/>
	<path fill="#0E0F0F" d="M37.891,18.045c-2.199-1.042-4.49-1.388-6.57-1.388c-4.153,0-7.452,1.385-7.452,1.385
		s-3.074,7.086-4.335,9.377c-0.342,0.62-0.38,1.221-0.234,1.754c0.038,1.181,0.81,2.385,2.32,2.484
		c1.087,0.072,2.174,0.11,3.261,0.126v0.035l-0.052,0.002l-4.061,19.309h4.086v8.307c0,1.438,1.054,2.604,2.532,2.604
		c1.478,0,2.677-1.166,2.677-2.604v-8.307h1.944v8.256c0,1.438,1.198,2.604,2.679,2.604c1.478,0,2.676-1.165,2.676-2.604
		l0.039-8.256h4.568l-3.535-14.51c0.508,0.775,1.426,1.229,2.291,1.229c0.935,0,1.803-0.527,2.017-1.748
		C43.915,29.386,43.126,22.861,37.891,18.045z M35.658,25.709l-0.014,9.857c-0.004,2.769-0.008,4.945-0.008,5.012l-0.089,18.809
		c0,0.438-0.388,0.793-0.864,0.793c-0.478,0-0.865-0.355-0.865-0.793V41.18c0.002-0.312-0.059-1.203-0.758-1.922
		c-0.496-0.51-1.189-0.791-1.956-0.791H31.08h-0.01c-1.69,0.02-2.693,1.312-2.812,2.579L28.25,41.13v0.083v18.225
		c0,0.437-0.388,0.793-0.865,0.793c-0.531,0-0.72-0.429-0.72-0.793V41.951l0.027-10.163l0.002-1.022
		c1.265-0.006,2.529-0.046,3.795-0.136c3.09-0.218,3.111-5.052,0-4.832c-2.012,0.143-4.022,0.171-6.033,0.107
		c0.496-1.04,0.694-2.071,0.902-2.299v1.307h1.003v-5.777c0.414-0.109,0.892-0.221,1.414-0.319v-1.152h1.208v0.959
		c0.727-0.095,1.51-0.156,2.337-0.156c0.686,0,1.348,0.049,1.993,0.132v-0.936h1.207v1.142c0.393,0.086,0.774,0.185,1.147,0.305
		L35.658,25.709z M38.08,34.816c-0.014,0.082-0.021,0.162-0.027,0.24l-0.592-2.428c0.004-2.566,0.008-5.189,0.01-6.918
		C38.607,28.47,38.648,31.57,38.08,34.816z"/>
	<path fill="#0E0F0F" d="M24.021,8.658h14.393c0.661,0,1.195-0.536,1.195-1.196c0-0.662-0.534-1.197-1.195-1.197
		c-0.277,0-0.635,0-1.084,0c-3.089,0-2.41-4.072-6.112-4.298c-3.702-0.227-4.298,4.159-6.451,4.298
		C24.121,6.307,23.8,6.324,23.66,6.326c-0.483,0.155-0.836,0.602-0.836,1.136C22.824,8.123,23.36,8.658,24.021,8.658z"/>
	<path fill="#0E0F0F" d="M23.66,6.326c0.037-0.012,0.073-0.026,0.111-0.034C23.614,6.311,23.475,6.331,23.66,6.326z"/>
	<path fill="#0E0F0F" d="M23.771,6.292c0.081-0.017,0.164-0.027,0.249-0.027C24.021,6.265,23.892,6.277,23.771,6.292z"/>
</g>
</svg>
