<?xml version="1.0" encoding="utf-8"?>
<!-- Generator: Adobe Illustrator 16.0.4, SVG Export Plug-In . SVG Version: 6.00 Build 0)  -->
<!DOCTYPE svg PUBLIC "-//W3C//DTD SVG 1.1//EN" "http://www.w3.org/Graphics/SVG/1.1/DTD/svg11.dtd">
<svg version="1.1" id="Capa_1" xmlns="http://www.w3.org/2000/svg" xmlns:xlink="http://www.w3.org/1999/xlink" x="0px" y="0px"
	 width="64px" height="64px" viewBox="0 0 64 64" enable-background="new 0 0 64 64" xml:space="preserve">
<g>
	<path fill="#0E0F0F" d="M26.487,60.24L26.487,60.24c0.001,1.525,0.92,2.76,2.212,2.76s2.341-1.232,2.341-2.76v-5.106h-4.553V60.24z
		"/>
	<path fill="#0E0F0F" d="M32.738,60.188c0,1.523,1.049,2.76,2.342,2.76c1.29,0,2.339-1.235,2.339-2.76l0.04-5.055h-4.721V60.188z"/>
	<path fill="#0E0F0F" d="M40.709,21.867c-0.566-1.011-1.241-1.978-2.062-2.886c-1.324-1.186-2.653-1.88-3.924-2.237
		c-0.595,1.213-1.216,1.934-1.892,2.188v0.496h1.127v1.087h-1.127v1.165H31.78v-1.165h-1.128v-1.087h1.128v-0.48
		c-1.021-0.352-1.671-1.685-1.866-2.139c-2.097,0.613-3.588,1.797-3.929,2.171c-0.821,0.908-2.194,2.949-2.166,2.98
		c-2.036,3.737-2.524,8.083-2.55,12.495c-0.017,2.736,4.087,2.734,4.104,0c0.017-3.152,0.009-5.938,1.156-8.685
		c-0.055-0.093-0.09-0.146-0.112-0.18c0.09,0.054,0.14,0.112,0.112,0.18c0.449,0.776,1.771,3.71-0.325,8.792
		c-4.306,10.447-3.375,19.971-3.365,20.063c0.028,0.269,0.247,0.474,0.509,0.474h3.287h4.553h1.699h4.721h3.013
		c0.251,0,0.467-0.189,0.508-0.447c0.058-0.389,1.388-9.631-2.925-20.09c-1.691-4.105-1.169-6.791-0.662-8.092
		c0.825,2.293,1.68,5.184,1.693,7.984c0.016,2.735,4.119,2.737,4.104,0c-0.024-4.388-0.508-8.707-2.516-12.428L40.709,21.867z"/>
	<path fill="#0E0F0F" d="M32.255,18.106c0,0,0.002,0,0.003,0c0.488,0,1.021-0.557,1.547-1.564c-1.061-0.172-2.071-0.125-2.991,0.05
		C31.079,17.148,31.645,18.081,32.255,18.106z"/>
	<path fill="#0E0F0F" d="M32.234,14.364c2.565,0,4.659-2.131,4.717-4.771h-9.438C27.574,12.233,29.667,14.364,32.234,14.364z"/>
	<path fill="#0E0F0F" d="M25.927,17.514c0.895-0.833,6.644-4.684,12.661,0c0.971,0.876,1.674,1.875,2.239,2.885h4.679l-0.109-0.35
		c-0.207-0.642-6.092-19.738-14.131-18.737c-8.041,1.001-12.644,18.729-12.644,18.729l-0.128,0.357h5.073
		C24.131,19.389,25.105,18.421,25.927,17.514z M27.148,8.023c0.658-2.211,2.653-3.824,5.006-3.824c2.888,0,5.237,2.43,5.237,5.417
		c0,2.986-2.35,5.415-5.237,5.415c-2.851,0-5.172-2.369-5.231-5.302h-0.051C26.873,9.132,26.972,8.561,27.148,8.023z"/>
</g>
</svg>
