<?xml version="1.0" encoding="utf-8"?>
<!-- Generator: Adobe Illustrator 16.0.4, SVG Export Plug-In . SVG Version: 6.00 Build 0)  -->
<!DOCTYPE svg PUBLIC "-//W3C//DTD SVG 1.1//EN" "http://www.w3.org/Graphics/SVG/1.1/DTD/svg11.dtd">
<svg version="1.1" id="Capa_1" xmlns="http://www.w3.org/2000/svg" xmlns:xlink="http://www.w3.org/1999/xlink" x="0px" y="0px"
	 width="64px" height="64px" viewBox="0 0 64 64" enable-background="new 0 0 64 64" xml:space="preserve">
<g>
	<circle fill="#0E0F0F" cx="37.969" cy="11.837" r="4.377"/>
	<path fill="#0E0F0F" d="M44.788,17.934c-0.315-0.259-0.642-0.393-0.962-0.445l-0.002-0.045c-2.119-0.435-2.942-0.081-2.942-0.081
		l-2.319,4.773l-0.014,0.024l0.004-0.025l-0.475-0.045h0.48l-0.006,0.044l0.01,0.001c0-0.016,0-0.031,0-0.046h-0.004l0.498-4.209
		h0.084v-0.709h-1.765v0.709h0.092l0.599,4.283c0,0-2.281-4.983-2.486-4.903c0,0-0.664-0.761-3.021,0.186
		c-1.921,0.413-3.843,0.825-5.764,1.238c-1.194-1.328-2.258-2.772-3.088-4.355c-0.608-1.164-1.808-1.3-2.727-0.86l-7.101-8.562
		c-0.204-0.247-0.571-0.281-0.817-0.077c-0.246,0.214-0.282,0.572-0.077,0.818l7.105,8.568c-0.367,0.534-0.474,1.236-0.079,1.991
		c1.015,1.94,5.373,7.396,5.373,7.396s3.558-0.994,6.198-1.661c0.229,0.672,0.456,1.144,0.456,1.144l-0.045,16.897v16.819
		c0,1.384,1.014,2.505,2.435,2.505c1.422,0,2.574-1.121,2.574-2.505V39.277c0,0,0.083-0.889,0.988-0.898
		c0.904-0.009,0.882,0.855,0.882,0.855v17.52c0,1.383,1.151,2.504,2.575,2.504c1.421,0,2.574-1.121,2.574-2.504l0.084-18.08
		c0-0.078,0.004-2.636,0.008-5.695c0.973,0.666,2.466,0.617,3.085-0.775c0.942-2.126,3.729-7.496,3.729-7.496
		S46.48,19.325,44.788,17.934z M38.531,28.158c-0.502,0-0.911-0.408-0.911-0.912s0.409-0.912,0.911-0.912
		c0.504,0,0.912,0.408,0.912,0.912S39.035,28.158,38.531,28.158z M38.531,25.424c-0.502,0-0.911-0.408-0.911-0.912
		c0-0.503,0.409-0.912,0.911-0.912c0.504,0,0.912,0.408,0.912,0.912C39.443,25.017,39.035,25.424,38.531,25.424z M44.121,28.917
		c0.004-2.38,0.006-4.563,0.008-5.679l-0.012-0.23c0.607,0.657,1.178,1.348,1.707,2.071C45.256,26.359,44.688,27.638,44.121,28.917z
		"/>
</g>
</svg>
