<?xml version="1.0" encoding="utf-8"?>
<!-- Generator: Adobe Illustrator 16.0.4, SVG Export Plug-In . SVG Version: 6.00 Build 0)  -->
<!DOCTYPE svg PUBLIC "-//W3C//DTD SVG 1.1//EN" "http://www.w3.org/Graphics/SVG/1.1/DTD/svg11.dtd">
<svg version="1.1" id="Capa_1" xmlns="http://www.w3.org/2000/svg" xmlns:xlink="http://www.w3.org/1999/xlink" x="0px" y="0px"
	 width="64px" height="64px" viewBox="0 0 64 64" enable-background="new 0 0 64 64" xml:space="preserve">
<g>
	<rect x="40.927" y="1.372" fill="#0E0F0F" width="1.354" height="10.418"/>
	<circle fill="#0E0F0F" cx="33.932" cy="20.706" r="3.696"/>
	<path fill="#0E0F0F" d="M43.934,13.711c-0.562-2.627-4.58-1.514-4.021,1.108c0.753,3.521,0.765,8.847-2.597,10.931
		c-0.055-0.031-0.107-0.063-0.17-0.091v-0.082h-0.209c-1.608-0.587-4.354-0.153-5.356,0.039v-0.039c-3.614,0-8.704,0-12.319,0
		c-2.688,0-2.688,4.167,0,4.167c2.713,0,6.906,0,9.621,0v8.21c0,0.235,0.017,0.47,0.047,0.7c-0.055,0.156-0.092,0.32-0.092,0.492
		v20.729c0,0.977,0.937,1.77,2.093,1.77c1.159,0,2.094-0.793,2.094-1.77V43.188c0.397,0.096,0.813,0.15,1.24,0.15
		c0.176,0,0.609-0.023,1.158-0.14v16.604c0,0.976,0.938,1.769,2.094,1.769c1.158,0,2.097-0.793,2.097-1.769V39.074
		c0-0.067-0.017-0.131-0.025-0.197c0.038-0.29,0.06-0.595,0.06-0.922v-8.712C44.479,26.16,45.1,19.178,43.934,13.711z"/>
</g>
</svg>
