<?xml version="1.0" encoding="utf-8"?>
<!-- Generator: Adobe Illustrator 16.0.4, SVG Export Plug-In . SVG Version: 6.00 Build 0)  -->
<!DOCTYPE svg PUBLIC "-//W3C//DTD SVG 1.1//EN" "http://www.w3.org/Graphics/SVG/1.1/DTD/svg11.dtd">
<svg version="1.1" id="Capa_1" xmlns="http://www.w3.org/2000/svg" xmlns:xlink="http://www.w3.org/1999/xlink" x="0px" y="0px"
	 width="64px" height="64px" viewBox="0 0 64 64" enable-background="new 0 0 64 64" xml:space="preserve">
<g>
	<path fill="#0E0F0F" d="M45.736,35.585c0.084-0.372,0.113-0.793-0.021-1.362l-0.106-0.101c-0.291,0.265-0.563,0.547-0.834,0.83
		c-0.945-0.647-1.486-1.097-1.508-1.112l-0.3,0.355c0.386-1.01,0.232-2.27-0.858-3.074c-3.512-2.593-7.023-5.186-10.538-7.779
		c-0.054-0.061-0.107-0.125-0.166-0.182c-1.775-1.752-4.258-1.46-6.048,0.032c0,0-10.427,5.945-21.179,20.315
		c0,0,0.621,0.509,1.514,1.117c-0.736,0.954-1.472,1.908-2.216,2.856c-1.978,2.521,1.557,6.106,3.558,3.556
		c1.137-1.448,2.264-2.904,3.383-4.367c0.499-0.006,0.928-0.155,1.233-0.517c1.742-2.057,3.771-6.213,3.771-6.213l2.736-0.457
		c0.004,0.006,0.009,0.013,0.013,0.017l2.067,8.174l1.147-0.192c0.137,0.994,0.211,2.033,0.222,3.119
		c0.032,3.244,5.063,3.248,5.03,0c-0.014-1.357-0.11-2.68-0.293-3.957l2.9-0.49l-5.356-7.104c-0.435-0.799-0.927-1.571-1.474-2.315
		c2.613-2.178,5.226-4.356,7.839-6.536l2.418,3.03l1.769-1.735c1.735,1.28,3.471,2.562,5.205,3.842
		c1.078,0.796,2.133,0.485,2.803-0.272c0.211,0.168,0.664,0.515,1.332,0.963c-0.354,0.4-0.713,0.797-1.038,1.225l0.106,0.1
		c0.619,0.088,1.055,0.008,1.436-0.121c0.281-0.104,0.509-0.256,0.713-0.43c2.785,1.684,7.541,3.96,13.326,4.354l1.707-0.978
		C54.021,40.171,48.698,37.459,45.736,35.585z"/>
	<circle fill="#0E0F0F" cx="33.57" cy="17.56" r="4.397"/>
	<polygon fill="#0E0F0F" points="28.781,15.928 29.187,14.642 29.54,14.36 26.172,8.729 26.151,11.021 23.913,10.527 26.307,13.104 
		23.297,11.692 24.561,13.604 22.428,14.447 	"/>
	<path fill="#0E0F0F" d="M46.708,23.669c1.819,0.84,3.405,2.119,4.709,3.616c1.306,1.502,2.33,3.228,3.081,5.057
		c0.753,1.832,1.225,3.756,1.439,5.725l1.446-0.217c-0.694-4.113-2.521-8.085-5.432-11.062c-1.45-1.479-3.179-2.705-5.103-3.456
		c-1.916-0.76-4.025-1.01-6.031-0.664C42.843,22.444,44.895,22.822,46.708,23.669z"/>
</g>
</svg>
