<?xml version="1.0" encoding="utf-8"?>
<!-- Generator: Adobe Illustrator 16.0.4, SVG Export Plug-In . SVG Version: 6.00 Build 0)  -->
<!DOCTYPE svg PUBLIC "-//W3C//DTD SVG 1.1//EN" "http://www.w3.org/Graphics/SVG/1.1/DTD/svg11.dtd">
<svg version="1.1" id="Capa_1" xmlns="http://www.w3.org/2000/svg" xmlns:xlink="http://www.w3.org/1999/xlink" x="0px" y="0px"
	 width="64px" height="64px" viewBox="0 0 64 64" enable-background="new 0 0 64 64" xml:space="preserve">
<g>
	<path fill="#0E0F0F" d="M56.188,30.451c-0.765-0.435-1.631-0.663-2.51-0.663c-0.246,0-0.488,0.02-0.729,0.054
		c-0.102-0.535-0.348-1.061-0.709-1.528c-2.422-3.126-4.815-6.299-7.408-9.288c-0.305-0.352-0.639-0.584-0.977-0.723
		c-0.969-0.7-2.151-1.117-3.438-1.117c-2.225,0-4.156,1.237-5.154,3.059c-1.513,1.112-3.023,2.225-4.537,3.337
		c-0.39,0.074-0.78,0.148-1.168,0.223c-1.127,0.214-2.253,0.428-3.38,0.643c-1.639,0.312-3.277,0.623-4.917,0.935
		c-1.473,0.281-2.034,1.411-1.926,2.55l-5.89,1.624l-5.813-14.74l-1.999,0.79l12.177,30.877l2-0.789l-5.968-15.133l5.781-1.593
		c0.503,1.062,1.603,1.875,3.066,1.595c3.278-0.623,6.556-1.247,9.833-1.871c0.662-0.126,1.355-0.57,2.022-1.089v8.914
		c0,0.291,0.027,0.572,0.067,0.853c0,5.801,0,11.604,0,17.403c0,3.467,5.373,3.467,5.373,0c0-4.135,0-8.271,0-12.405
		c0.144,0.01,0.285,0.021,0.431,0.021c0.418,0,0.824-0.046,1.218-0.129c1.409,4.289,2.691,8.614,3.697,13.022
		c0.771,3.376,5.949,1.944,5.182-1.429c-1.199-5.256-2.791-10.395-4.523-15.492c0.191-0.58,0.301-1.198,0.301-1.844v-7.187
		c0.718,0.927,1.434,1.856,2.15,2.782c0.17,0.221,0.388,0.377,0.621,0.502c-0.604,1.164-0.758,2.488-0.42,3.757
		c0.356,1.333,1.209,2.44,2.403,3.12c0.114,0.064,0.236,0.098,0.356,0.098c0.552,0,0.75-0.562,0.964-1.158
		c0.227-0.646,0.444-1.179,0.784-1.179c0.037,0,0.08,0.005,0.123,0.015c0.604,0.137,0.994,0.848,1.307,1.414
		c0.311,0.564,0.577,1.053,1.087,1.053c0.129,0,0.257-0.037,0.379-0.107c0.664-0.391,1.376-0.934,2.239-1.709
		c0.854-0.766,1.236-1.775,1.111-2.922C59.213,33.29,57.893,31.421,56.188,30.451z M30.813,23.566
		C31.065,23.45,31.138,23.5,30.813,23.566L30.813,23.566z M57.691,37.253c-0.775,0.696-1.414,1.19-1.998,1.546
		c-0.094-0.119-0.227-0.359-0.327-0.546c-0.378-0.688-0.896-1.631-1.896-1.856c-0.105-0.021-0.214-0.037-0.316-0.037
		c-1,0-1.377,1.066-1.627,1.772c-0.055,0.153-0.127,0.357-0.19,0.494c-0.903-0.565-1.55-1.44-1.83-2.485
		c-0.295-1.103-0.144-2.264,0.425-3.264c0.604,0.061,1.234-0.076,1.756-0.365c-0.029,0.082-0.054,0.168-0.054,0.258
		c0,0.434,0.351,0.783,0.782,0.783s0.779-0.351,0.779-0.783c0-0.431-0.35-0.779-0.779-0.779c-0.031,0-0.059,0.013-0.088,0.017
		c0.355-0.39,0.564-0.817,0.64-1.26c0.234-0.04,0.47-0.067,0.712-0.067c0.723,0,1.438,0.189,2.065,0.546
		c1.243,0.707,2.593,2.262,2.766,3.864C58.604,35.953,58.328,36.682,57.691,37.253z"/>
	<circle fill="#0E0F0F" cx="50.854" cy="35.016" r="0.781"/>
	<path fill="#0E0F0F" d="M55.167,31.99c-0.431,0-0.778,0.349-0.778,0.779c0,0.434,0.348,0.783,0.778,0.783
		c0.433,0,0.783-0.351,0.783-0.783C55.95,32.339,55.6,31.99,55.167,31.99z"/>
	<circle fill="#0E0F0F" cx="56.879" cy="34.76" r="0.782"/>
	<path fill="#0E0F0F" d="M10.891,29.289L3.98,55.902l15.499-0.01l-5.677-17.33L10.891,29.289z M6.067,54.279l4.971-19.143l1.23,3.92
		l4.989,15.236L6.067,54.279z"/>
	<path fill="#0E0F0F" d="M40.42,16.631c2.242,0,4.061-1.818,4.061-4.06h-8.119C36.359,14.813,38.18,16.631,40.42,16.631z"/>
	<path fill="#0E0F0F" d="M38.016,11.963l4.938-0.011c1.553,0,2.813-0.788,2.813-1.991c0-1.112-1.076-2.027-2.463-2.162
		c-0.563-0.703-1.563-1.172-2.709-1.172c-1.24,0-2.312,0.549-2.839,1.348c-1.303,0.101-2.321,0.953-2.321,1.99
		C35.436,11.069,36.592,11.963,38.016,11.963z"/>
</g>
</svg>
