<?xml version="1.0" encoding="utf-8"?>
<!-- Generator: Adobe Illustrator 16.0.4, SVG Export Plug-In . SVG Version: 6.00 Build 0)  -->
<!DOCTYPE svg PUBLIC "-//W3C//DTD SVG 1.1//EN" "http://www.w3.org/Graphics/SVG/1.1/DTD/svg11.dtd">
<svg version="1.1" id="Capa_1" xmlns="http://www.w3.org/2000/svg" xmlns:xlink="http://www.w3.org/1999/xlink" x="0px" y="0px"
	 width="64px" height="64px" viewBox="0 0 64 64" enable-background="new 0 0 64 64" xml:space="preserve">
<g>
	<path fill="#0E0F0F" d="M22.786,31.054c0.619-0.546,1.244-1.083,1.867-1.621c0.09,4.532,0.402,9.165,0.419,9.358l9.934,0.061
		c-0.158-1.733-0.502-9.634-0.371-13.633c0.125-0.113,0.248-0.236,0.361-0.383c3.264-4.231,5.609-9.03,7.093-14.159
		c0.931-3.218-3.948-5.096-4.885-1.86c-1.101,3.803-2.662,7.34-4.794,10.612c-0.665-0.427-1.44-0.702-2.283-0.771
		c-2.241-0.181-4.253,1.146-5.041,3.131c-0.117,0.097-0.233,0.196-0.343,0.323c-0.055,0.063-0.116,0.119-0.171,0.181
		c-0.007-2.686-4.309-3.607-5.134-0.631c-0.622,2.239-0.699,4.563-1.02,6.852C18.061,31.059,20.691,32.902,22.786,31.054z"/>
	<path fill="#0E0F0F" d="M20.347,16.125v0.045c0,0.621,0.503,1.124,1.124,1.124c0.607,0,1.098-0.481,1.12-1.082
		c0.652,1.297,1.901,2.27,3.447,2.5c2.024,0.302,3.935-0.762,4.805-2.496c0.025,0.599,0.516,1.079,1.121,1.079
		c0.62,0,1.124-0.503,1.124-1.124v-0.045c0.405,0,0.734-0.328,0.734-0.733v-2.938c0-0.404-0.329-0.733-0.734-0.733v-0.045
		c0-0.425-0.24-0.792-0.588-0.982c-0.799-2.431-3.088-4.191-5.782-4.191c-2.695,0-4.982,1.76-5.782,4.191
		c-0.349,0.19-0.587,0.557-0.587,0.982v0.045c-0.405,0-0.735,0.33-0.735,0.733v2.938C19.612,15.796,19.941,16.125,20.347,16.125z
		 M26.716,7.625c2.087,0,3.874,1.297,4.607,3.125c-0.293,0.203-0.486,0.541-0.486,0.924v0.391c-0.654-1.293-1.9-2.261-3.441-2.49
		c-2.022-0.302-3.93,0.759-4.802,2.49v-0.391c0-0.383-0.192-0.721-0.485-0.924C22.842,8.922,24.629,7.625,26.716,7.625z"/>
	<rect x="2" y="40.549" fill="#0E0F0F" width="59.201" height="17.903"/>
	<rect x="6.873" y="37.092" fill="#0E0F0F" width="13.769" height="2.475"/>
	<rect x="41.363" y="37.092" fill="#0E0F0F" width="13.77" height="2.475"/>
</g>
</svg>
