<?xml version="1.0" encoding="utf-8"?>
<!-- Generator: Adobe Illustrator 16.0.4, SVG Export Plug-In . SVG Version: 6.00 Build 0)  -->
<!DOCTYPE svg PUBLIC "-//W3C//DTD SVG 1.1//EN" "http://www.w3.org/Graphics/SVG/1.1/DTD/svg11.dtd">
<svg version="1.1" id="Capa_1" xmlns="http://www.w3.org/2000/svg" xmlns:xlink="http://www.w3.org/1999/xlink" x="0px" y="0px"
	 width="64px" height="64px" viewBox="0 0 64 64" enable-background="new 0 0 64 64" xml:space="preserve">
<g>
	<circle fill="#0F1011" cx="26.624" cy="10.528" r="4.505"/>
	<path fill="#0F1011" d="M26.115,22.271c0.55-1.238,1.071-2.408,1.664-3.401c0.408-0.684,0.363-1.324,0.079-1.837
		c-0.59-0.8-1.675-1.257-2.649-1.018c-0.346,0.144-0.667,0.407-0.919,0.83c-0.627,1.048-1.656,3.333-1.667,3.356l-2.522,5.314
		l-0.607-0.332l1.927-5.58c0.012-0.031,0.411-0.917,0.871-1.853c-1.084,0.398-2.206,0.975-3.337,1.798c0,0-3.242,2.794-1.662,8.353
		c0.413,2.14,3.015,1.787,3.015,1.787C23.222,28.764,24.692,25.469,26.115,22.271z"/>
	<path fill="#0F1011" d="M32.713,18.612c-0.166-0.117-0.332-0.206-0.498-0.273c-0.432-0.224-1.44-0.695-2.841-1.016
		c0.131,0.696,0.022,1.465-0.441,2.238c-0.552,0.924-1.057,2.057-1.59,3.258c-0.463,1.042-0.948,2.125-1.499,3.153
		c0.367-0.09,0.761-0.127,1.184-0.085c0.992,0.096,1.896,0.151,2.763,0.167l0.264,0.005c0.416,0.009,1.561,0.034,2.082-0.024
		c0.103-0.639-0.339-1.455-0.883-2.035c-0.56-0.598-1.011-1.031-1.466-1.402c-0.048-0.039-0.11-0.09-0.175-0.153
		c-0.046-0.027-0.091-0.056-0.137-0.087l0.022-0.034c-0.187-0.224-0.322-0.54-0.042-0.896l0.427-0.543l0.592,0.443
		c0.052,0.039,0.096,0.081,0.134,0.125c0.019,0.016,0.044,0.035,0.068,0.057c0.505,0.413,0.999,0.885,1.604,1.532
		c0.904,0.97,1.66,2.484,1.064,3.819c-0.265,0.59-0.939,0.66-3.324,0.606l-0.259-0.006c-0.904-0.016-1.845-0.074-2.873-0.173
		c-1.608-0.152-1.872,1.182-1.912,1.596c-0.113,1.167,0.565,2.486,2.048,2.63c3.836,0.373,7.537,0.382,9.367-1.625
		c0.006-0.002,0.008-0.006,0.01-0.009c0.078-0.083,0.14-0.179,0.209-0.269c0.256-0.369,0.47-0.791,0.609-1.288
		C38.4,24.223,35.945,20.863,32.713,18.612z"/>
	<path fill="#0F1011" d="M26.891,32.911c-2.125-0.206-3.299-1.984-3.326-3.727c-0.895,0.892-1.954,1.576-3.259,1.897l-0.029,14.671
		v13.225c0,1.422,1.042,2.578,2.504,2.578c1.464,0,2.651-1.156,2.651-2.578V40.07h2.341c0,4.431,0,14.537,0,18.968
		c0,3.083,4.784,3.083,4.784,0c0-4.431,0-8.856,0-13.285L32.71,32.98c-0.765,0.104-1.538,0.146-2.286,0.146
		C29.092,33.125,27.845,33.005,26.891,32.911z"/>
	<path fill="#0F1011" d="M47.73,5.813c-0.316-0.089-0.672-0.148-1.037-0.193c0.725-5.422-8.863-2.575-11.473-1.034
		c-2.427,1.434-1.195,3.735,0.762,4.905c0.479,0.288,0.988,0.523,1.513,0.719c-0.009,0.402,0.088,0.815,0.298,1.214
		c0.082,0.438,0.208,0.866,0.398,1.256c0.047,0.095,0.104,0.187,0.166,0.277c-0.664,0.503-1.129,1.115-1.043,1.765
		c-0.012,1.853,3.17,1.897,4.035,3.077c0.469,0.637,1.545,0.02,1.071-0.626c-0.425-0.58-1.094-0.944-1.782-1.265
		c0.75-0.241,1.317-0.701,1.252-1.327c0.767-0.012,1.482-0.24,1.965-0.761c0.104-0.114,0.194-0.243,0.264-0.379
		c0.509-0.045,0.988-0.108,1.393-0.189c1.342-0.269,1.58-1.251,1.344-2.295c0.875-0.227,1.677-0.612,2.285-1.25
		C50.631,8.147,49.493,6.307,47.73,5.813z M37.957,8.877c-0.033,0.044-0.064,0.09-0.096,0.137c-0.121-0.048-0.246-0.087-0.363-0.141
		c-0.835-0.383-1.706-0.835-2.257-1.594C34.48,6.235,35.939,5.57,36.668,5.22c1.508-0.726,3.242-1.074,4.878-1.382
		c1.795-0.339,4.164-0.466,3.896,1.718c-1.147,0.038-2.309,0.33-3.146,0.953c-1.021-0.252-2.077-0.161-3.012,0.526
		C38.643,7.505,38.209,8.154,37.957,8.877z M42.577,8.003c0.01-0.026,0.019-0.053,0.03-0.078c0.129,0.059,0.26,0.123,0.387,0.193
		C42.855,8.076,42.717,8.039,42.577,8.003z M44.127,9.992c-0.502-0.034-0.964-0.236-1.268-0.612
		C43.311,9.54,43.742,9.744,44.127,9.992z M41.307,9.029c0.088,0.287,0.229,0.561,0.412,0.814c-0.216-0.026-0.437-0.049-0.648-0.078
		c-0.614-0.085-1.25-0.187-1.875-0.333c0.31-0.24,0.714-0.406,1.134-0.435C40.639,8.976,40.969,8.992,41.307,9.029z M40.436,7.763
		c0.299-0.134,0.615-0.183,0.94-0.165c-0.026,0.062-0.043,0.124-0.063,0.186C41.014,7.757,40.721,7.751,40.436,7.763z
		 M39.814,14.867c-0.59,0.048-0.896-0.111-0.941-0.352c0.213-0.081,0.554-0.111,0.895-0.096
		C40.4,14.447,40.624,14.802,39.814,14.867z M45.182,12.056c-0.375,0.106-0.783,0.139-1.195,0.148
		c-0.006-0.005-0.008-0.01-0.012-0.015c-0.742-0.758-1.877-0.653-2.834-0.496c-0.191,0.032-0.43,0.095-0.688,0.181
		c-0.291-0.075-0.579-0.166-0.855-0.3c-0.283-0.138-0.488-0.291-0.642-0.45c-0.021-0.16-0.029-0.323-0.026-0.487
		c1.195,0.288,2.437,0.43,3.633,0.528c0.428,0.035,0.892,0.06,1.364,0.07c0.155,0.028,0.31,0.047,0.464,0.049
		c0.159,0.002,0.315-0.023,0.471-0.057c0.287-0.012,0.572-0.035,0.859-0.068C45.781,11.565,45.669,11.918,45.182,12.056z
		 M46.402,9.754c-0.284-0.552-0.641-1.048-0.967-1.373c-0.473-0.472-1.037-0.913-1.646-1.262c0.104-0.031,0.207-0.059,0.305-0.083
		c0.458-0.11,0.973-0.187,1.495-0.211c0.204,0.118,0.466,0.128,0.668,0.003c0.685,0.034,1.354,0.175,1.908,0.479
		C49.812,8.213,47.243,9.5,46.402,9.754z"/>
</g>
</svg>
