<?xml version="1.0" encoding="utf-8"?>
<!-- Generator: Adobe Illustrator 16.0.4, SVG Export Plug-In . SVG Version: 6.00 Build 0)  -->
<!DOCTYPE svg PUBLIC "-//W3C//DTD SVG 1.1//EN" "http://www.w3.org/Graphics/SVG/1.1/DTD/svg11.dtd">
<svg version="1.1" id="Capa_1" xmlns="http://www.w3.org/2000/svg" xmlns:xlink="http://www.w3.org/1999/xlink" x="0px" y="0px"
	 width="64px" height="64px" viewBox="0 0 64 64" enable-background="new 0 0 64 64" xml:space="preserve">
<g>
	<circle fill="#0E0F0F" cx="24.621" cy="9.111" r="4.479"/>
	<path fill="#0E0F0F" d="M28.881,39.583c-1.049-1.592-2.318-3.576-1.96-5.588c0.17-0.954,0.715-1.711,1.414-2.337
		c0.133,0.036,0.268,0.065,0.402,0.088c0.189,4.381,1.753,8.421,4.919,11.839c2.396,2.586,6.242-1.28,3.855-3.856
		c-2.664-2.875-3.854-6.67-3.324-10.567c0.137-1.002-0.078-1.987-0.719-2.655c-0.101-0.246-0.227-0.494-0.387-0.743
		c-1.646-2.55-1.437-5.738-2.151-8.608c-0.023-0.093-0.054-0.179-0.082-0.268c3.814-1.378,9.361-3.557,12.286-5.152
		c0.992-0.541,1.357-1.784,0.816-2.775s-1.783-1.356-2.776-0.816c-3.123,1.705-10.311,4.467-14.085,5.725
		c-0.279,0.094-0.523,0.244-0.729,0.431c-0.339,0.065-0.673,0.168-0.99,0.306c-0.303-0.009-0.611,0.041-0.905,0.175
		c-2.196,0.999-5.802,1.854-8.699,2.543c-1.249,0.297-2.428,0.577-3.416,0.847c-1.09,0.297-1.732,1.422-1.435,2.512
		c0.248,0.91,1.073,1.507,1.972,1.507c0.178,0,0.36-0.023,0.539-0.072c0.925-0.252,2.071-0.524,3.286-0.813
		c2.092-0.497,4.361-1.039,6.398-1.674c0.63,2.704,0.794,5.372,1.736,7.902c-1.492,1.328-2.648,2.967-3.188,5.013
		c-0.901,3.427,0.66,6.985,2.51,9.791C26.098,45.259,30.822,42.529,28.881,39.583z"/>
	<path fill="#0E0F0F" d="M52.245,43.152c-1.101-1.822-4.665-0.752-5.824-0.272l-18.763,7.753c-1.16,0.479-1.819,1.551-1.472,2.391
		l0.594,1.437c0.347,0.842,1.568,1.134,2.729,0.654l18.765-7.753C49.434,46.881,53.344,44.975,52.245,43.152z"/>
	<ellipse fill="#0E0F0F" cx="33.921" cy="56.813" rx="2.115" ry="2.555"/>
	<ellipse fill="#0E0F0F" cx="46.243" cy="52.232" rx="2.117" ry="2.555"/>
</g>
</svg>
