<?xml version="1.0" encoding="utf-8"?>
<!-- Generator: Adobe Illustrator 16.0.4, SVG Export Plug-In . SVG Version: 6.00 Build 0)  -->
<!DOCTYPE svg PUBLIC "-//W3C//DTD SVG 1.1//EN" "http://www.w3.org/Graphics/SVG/1.1/DTD/svg11.dtd">
<svg version="1.1" id="Capa_1" xmlns="http://www.w3.org/2000/svg" xmlns:xlink="http://www.w3.org/1999/xlink" x="0px" y="0px"
	 width="64px" height="64px" viewBox="0 0 64 64" enable-background="new 0 0 64 64" xml:space="preserve">
<g>
	<circle fill="#0E0F0F" cx="21.608" cy="7.741" r="6.35"/>
	<path fill="#0E0F0F" d="M61.77,57.479c-5.783-8.653-11.545-17.326-17.504-25.858c-0.129-0.616-0.336-1.228-0.617-1.816
		c-1.203-2.532-2.668-4.952-4.354-7.209c6.47,0.897,13,2.916,13.19,9.691c0.125,4.506,7.133,4.519,7.004,0
		c-0.416-14.82-15.737-15.821-27.091-17.389c-0.311-0.043-0.605-0.046-0.892-0.021c-2.443-1.276-5.376-1.144-7.508,1.015
		c-0.519,0.525-0.932,1.165-1.236,1.861c-5.397,1.276-11.291,1.639-14.585-3.357c-2.476-3.752-8.545-0.248-6.05,3.536
		c5.207,7.891,13.493,8.294,21.65,6.659c0.089,0.087,0.173,0.177,0.27,0.258c3.666,3.081,6.368,6.671,8.463,10.943
		c-2.437,3.029-4.061,6.548-4.342,10.671c-0.404,5.94,3.634,11.283,7.901,14.91c3.418,2.907,8.399-2.022,4.953-4.952
		c-3.101-2.635-5.819-5.689-5.849-9.958c-0.021-2.753,1.565-5.165,3.491-7.183c0.719-0.049,1.421-0.211,2.064-0.481
		c5.07,7.354,10.026,14.793,14.99,22.218C58.216,64.749,64.288,61.245,61.77,57.479z"/>
</g>
</svg>
