<?xml version="1.0" encoding="utf-8"?>
<!-- Generator: Adobe Illustrator 16.0.4, SVG Export Plug-In . SVG Version: 6.00 Build 0)  -->
<!DOCTYPE svg PUBLIC "-//W3C//DTD SVG 1.1//EN" "http://www.w3.org/Graphics/SVG/1.1/DTD/svg11.dtd">
<svg version="1.1" id="Capa_1" xmlns="http://www.w3.org/2000/svg" xmlns:xlink="http://www.w3.org/1999/xlink" x="0px" y="0px"
	 width="64px" height="64px" viewBox="0 0 64 64" enable-background="new 0 0 64 64" xml:space="preserve">
<g>
	<circle fill="#0E0F0F" cx="33.13" cy="8.537" r="5.568"/>
	<path fill="#0E0F0F" d="M56.885,36.791l-2.904-7.097c-0.11-0.275-0.426-0.407-0.703-0.295l-2.791,1.142l-0.607-1.484l-0.497,0.203
		c0.138-0.725-0.034-1.534-0.655-2.349c-3.59-4.708-8.119-8.301-13.526-10.301c-3.703-0.375-6.257-0.129-7.874,0.201l1.154-1.01
		l0.492,0.364l0.387-0.524l-1.426-1.054l-0.387,0.524l0.119,0.088c-0.41,0.225-1.393,0.93-1.991,1.366
		c0.362-0.742,0.56-1.675-0.595-1.866c-5.146,3.057-10.368,12.96-8.474,22.908c-1.967,1.224-3.828,2.613-5.738,4
		c-1.679,1.22-2.154,2.963-1.272,4.855c2.145,4.602,4.827,9.092,8.717,12.43c3.454,2.963,8.498-2.033,5.018-5.02
		c-2.657-2.277-4.582-5.111-6.197-8.152c1.631-1.229,3.314-2.416,5.136-3.262c3.355,5.953,7.961,13.057,13.795,15.568
		c1.776,0.766,3.791,0.547,4.855-1.273c0.887-1.514,0.504-4.088-1.271-4.855c-5.479-2.358-9.421-9.619-12.314-14.938
		c0.029-0.03,0.048-0.053,0.048-0.053s-1.238-6.904,1.568-10.892c0.98,1.465,1.649,3.125,1.867,4.935
		c0.23,1.919,1.439,3.548,3.549,3.548c1.76,0,3.78-1.625,3.549-3.548c-0.263-2.185-0.806-4.177-1.613-6.005
		c2.402,1.392,4.534,3.237,6.298,5.547c0.578,0.76,1.312,1.198,2.082,1.385l0.363,0.891l-2.792,1.142
		c-0.276,0.114-0.407,0.43-0.296,0.705l2.902,7.098c0.113,0.274,0.43,0.408,0.705,0.295l11.026-4.51
		C56.863,37.383,56.997,37.066,56.885,36.791z M45.552,32.559l-0.237-0.582c1.594,0.113,3.201-0.75,3.832-2.025l0.432-0.177
		l0.398,0.975L45.552,32.559z"/>
</g>
</svg>
