<?xml version="1.0" encoding="utf-8"?>
<!-- Generator: Adobe Illustrator 16.0.4, SVG Export Plug-In . SVG Version: 6.00 Build 0)  -->
<!DOCTYPE svg PUBLIC "-//W3C//DTD SVG 1.1//EN" "http://www.w3.org/Graphics/SVG/1.1/DTD/svg11.dtd">
<svg version="1.1" id="Capa_1" xmlns="http://www.w3.org/2000/svg" xmlns:xlink="http://www.w3.org/1999/xlink" x="0px" y="0px"
	 width="64px" height="64px" viewBox="0 0 64 64" enable-background="new 0 0 64 64" xml:space="preserve">
<g>
	<circle fill="#070808" cx="31.414" cy="21.445" r="3.625"/>
	<path fill="#070808" d="M44.02,34.35c-2.026-4.051-5.104-7.087-9.539-8.313c-0.697-0.193-1.285-0.047-1.731,0.28
		c-0.217,0.062-0.427,0.145-0.622,0.25c-4.282,0.509-6.654-3.167-8.847-6.738c-0.25-0.406-0.569-0.67-0.916-0.828l0.397-10
		c-0.56,0.034-0.56,0.387-2.65,0l0.401,10.072c-1.01,0.497-1.679,1.671-0.917,2.911c2.793,4.549,6.198,8.656,11.199,8.916
		c0.178,3.48,0.319,7.111-0.276,10.498c-0.024,0.138-0.038,0.271-0.048,0.403c-0.967,5.354-1.934,10.71-2.9,16.063
		c-0.486,2.689,3.626,3.841,4.115,1.135c0.668-3.697,1.336-7.395,2.004-11.091c0.485,1.225,1.072,2.679,2.151,3.343
		c2.978,1.826,5.759-0.896,6.929-3.518c0.477-1.062,0.319-2.284-0.764-2.92c-0.922-0.539-2.445-0.295-2.92,0.767
		c-0.24,0.539-0.549,1.047-0.884,1.532c-0.011,0.013-0.063,0.061-0.132,0.121c-0.604-1.114-1.125-2.332-1.535-3.561
		c0.064-0.181,0.121-0.374,0.158-0.587c0.625-3.549,0.666-7.213,0.545-10.834c1.271,1.128,2.258,2.576,3.095,4.252
		C41.564,38.964,45.246,36.803,44.02,34.35z"/>
	<path fill="#070808" d="M22.445,8.737c2.021-1.878,0-3.603,0-3.603c-1.157-0.856-1.012,0.713-1.589,0.963
		c-0.578,0.25,0-2.639,0-2.639c-2.602,0.933-0.578,5.279-0.578,5.279H22.445z"/>
</g>
</svg>
