<?xml version="1.0" encoding="utf-8"?>
<!-- Generator: Adobe Illustrator 16.0.4, SVG Export Plug-In . SVG Version: 6.00 Build 0)  -->
<!DOCTYPE svg PUBLIC "-//W3C//DTD SVG 1.1//EN" "http://www.w3.org/Graphics/SVG/1.1/DTD/svg11.dtd">
<svg version="1.1" id="Capa_1" xmlns="http://www.w3.org/2000/svg" xmlns:xlink="http://www.w3.org/1999/xlink" x="0px" y="0px"
	 width="64px" height="64px" viewBox="0 0 64 64" enable-background="new 0 0 64 64" xml:space="preserve">
<g>
	<path fill="#0E0F0F" d="M38.843,39.741c-0.036-0.271-0.092-0.548-0.184-0.839c-1.759-5.607-3.683-11.135-6.089-16.496
		c2.488-0.5,4.929-1.33,7.332-2.102c1.166-0.375,2.229-1.485,2.131-2.799c-0.328-4.425-0.87-8.787-2.626-12.895
		c-0.205-0.48-0.48-0.831-0.798-1.078l0.682-0.495l-1.043-1.524l-7.726,4.968l1.341,1.959l2.311-1.681
		c0.039,0.256,0.109,0.516,0.223,0.78c1.052,2.463,1.432,5.222,1.668,7.917c-2.812,0.913-5.678,1.738-8.648,1.582
		c-0.768-0.04-1.375,0.175-1.826,0.539c-0.663,0.148-1.293,0.535-1.771,1.233c-3.127,4.566-5.873,9.348-8.09,14.422
		c-1.483,3.395,3.517,6.353,5.011,2.93c1.29-2.948,2.761-5.797,4.38-8.564c1.833,4.223,3.289,8.591,4.672,12.981
		c-2.146,6.245-4.179,12.526-6.354,18.763c-1.234,3.544,4.375,5.055,5.598,1.543c1.914-5.49,3.719-11.019,5.586-16.525
		c0.151-0.01,0.304-0.025,0.454-0.049c3.441,4.643,5.492,10.049,5.849,15.893c0.224,3.717,6.03,3.74,5.804,0
		C46.264,52.547,43.529,45.689,38.843,39.741z"/>
	<circle fill="#0E0F0F" cx="22.543" cy="12.766" r="4.837"/>
	<circle fill="#0E0F0F" cx="29.506" cy="8.617" r="1.781"/>
</g>
</svg>
