<?xml version="1.0" encoding="utf-8"?>
<!-- Generator: Adobe Illustrator 16.0.4, SVG Export Plug-In . SVG Version: 6.00 Build 0)  -->
<!DOCTYPE svg PUBLIC "-//W3C//DTD SVG 1.1//EN" "http://www.w3.org/Graphics/SVG/1.1/DTD/svg11.dtd">
<svg version="1.1" id="Capa_1" xmlns="http://www.w3.org/2000/svg" xmlns:xlink="http://www.w3.org/1999/xlink" x="0px" y="0px"
	 width="64px" height="64px" viewBox="0 0 64 64" enable-background="new 0 0 64 64" xml:space="preserve">
<g>
	<path fill="#0E0F0F" d="M45.307,15.369l-4.498-1.946C40.809,13.423,42.941,16.061,45.307,15.369z"/>
	<path fill="#0E0F0F" d="M44.609,13.396l-2.189-0.947C42.42,12.449,43.451,13.676,44.609,13.396z"/>
	<polygon fill="#0E0F0F" points="2.23,51.991 30.25,51.991 35.908,49.396 7.889,49.396 	"/>
	<path fill="#0E0F0F" d="M33.033,47.825c-0.108,0.114-0.227,0.219-0.35,0.317h5.957l5.656-2.596H34.084
		C33.986,46.422,33.633,47.197,33.033,47.825z"/>
	<path fill="#0E0F0F" d="M25.761,45.548H16.28l-5.658,2.597h16.66C26.515,47.55,25.936,46.68,25.761,45.548z"/>
	<path fill="#0E0F0F" d="M25.682,44.027c-0.016-0.846-0.001-1.713,0.041-2.594h-0.465l-5.659,2.594H25.682z"/>
	<path fill="#0E0F0F" d="M34.09,44.027h13.529l5.656-2.594H34.143C34.09,42.314,34.073,43.184,34.09,44.027z"/>
	<path fill="#0E0F0F" d="M42.546,37.586c-0.848,0.928-2.073,2.004-3.575,2.592h17.038l5.658-2.592H42.546z"/>
	<path fill="#0E0F0F" d="M34.234,40.178h0.354c-0.112-0.046-0.229-0.089-0.343-0.148C34.242,40.079,34.238,40.129,34.234,40.178z"/>
	<path fill="#0E0F0F" d="M36.729,40.623c0.799,0,1.549-0.171,2.242-0.445h-4.382C35.27,40.468,35.982,40.623,36.729,40.623z"/>
	<path fill="#0E0F0F" d="M13.95,21.319c2.957,1.993,6.149,3.506,9.556,4.531c0.026,0.058,0.05,0.116,0.081,0.175
		c1.64,3.131,3.11,6.303,5.448,8.966c-0.793,3.677-1.248,7.557-1.081,11.291c0.112,2.452,3.932,2.462,3.821,0
		c-0.139-3.105,0.169-6.283,0.762-9.357c0.645,0.769,1.346,1.478,2.156,2.065c2.438,1.771,5.082-0.282,6.599-2.176
		c1.522-1.902-1.162-4.625-2.702-2.701c-0.32,0.402-1.094,1.632-1.673,1.705c-0.394,0.053-0.935-0.741-1.142-0.973
		c-0.481-0.535-0.926-1.104-1.357-1.686c-0.062-0.562-0.307-1.13-0.803-1.645c-1.65-1.722-2.779-3.826-3.848-5.951
		c2.656-0.109,5.295-0.385,7.902-0.963c2.405-0.534,1.386-4.218-1.017-3.685c-3.164,0.703-6.364,0.872-9.598,0.886
		c-0.794-0.256-1.685-0.07-2.406,0.399c-3.146-0.942-6.034-2.338-8.769-4.182C13.829,16.639,11.919,19.95,13.95,21.319z"/>
	<circle fill="#0E0F0F" cx="24.848" cy="17.442" r="3.474"/>
</g>
</svg>
