<?xml version="1.0" encoding="utf-8"?>
<!-- Generator: Adobe Illustrator 16.0.4, SVG Export Plug-In . SVG Version: 6.00 Build 0)  -->
<!DOCTYPE svg PUBLIC "-//W3C//DTD SVG 1.1//EN" "http://www.w3.org/Graphics/SVG/1.1/DTD/svg11.dtd">
<svg version="1.1" id="Capa_1" xmlns="http://www.w3.org/2000/svg" xmlns:xlink="http://www.w3.org/1999/xlink" x="0px" y="0px"
	 width="64px" height="64px" viewBox="0 0 64 64" enable-background="new 0 0 64 64" xml:space="preserve">
<g>
	<path fill="#0E0F0F" d="M23.622,13.036c0,2.112,1.716,3.823,3.832,3.823c1.914,0,3.496-1.402,3.781-3.232l2.555,0.714l0.208-0.736
		l-1.979-0.553c0.233-2.137-1.103-4.19-3.247-4.789c-2.387-0.667-4.864,0.724-5.532,3.104l0.679,0.19
		C23.729,12.012,23.622,12.512,23.622,13.036z"/>
	<path fill="#0E0F0F" d="M55.271,41.416c0,0-1.431,2.271-2.646,4.921c-1.857-10.147-6.814-11.75-6.814-11.75
		s-1.254,1.588-2.778,3.945l-7.579-3.694c0.102-0.617-0.032-1.286-0.521-1.886c-2.971-3.642-3.586-8.873-6.009-12.865
		c-0.099-0.162-0.207-0.304-0.324-0.428c-0.944-1.794-3.155-2.728-5.043-2.365c-6.104-1.731-11.383-0.066-14.174,5.959
		c-1.21,2.612,2.565,4.901,3.889,2.474l4.936,2.406c-0.653,1.682-1.395,3.332-2.242,4.952c-3.05,4.981-6.949,9.453-10.766,13.856
		c-1.931,2.227,1.309,5.486,3.251,3.244c3.12-3.6,6.304-7.254,9.085-11.158c0.288,0.181,0.591,0.334,0.906,0.449
		c0.198,0.148,0.431,0.272,0.702,0.362c2.019,0.67,3.83,1.767,5.497,3.06c-1.149,2.723-2.271,5.476-4.06,7.846
		c-1.787,2.365,2.21,4.648,3.971,2.316c2.194-2.906,3.384-6.394,4.854-9.688c0.401-0.898,0.477-2.062-0.359-2.78
		c-1.657-1.424-3.397-2.69-5.288-3.706c0.827-1.617,1.587-3.266,2.267-4.943l4.131,2.014c0.446,0.778,0.943,1.528,1.522,2.239
		c0.964,1.184,2.291,0.888,3.095,0.012l7.438,3.625c-2.19,3.59-4.571,8.375-4.571,12.234h13.303l7.752,0.091
		C58.335,48.915,55.271,41.416,55.271,41.416z M18.742,26.692l-4.788-2.333c0.687-1.265,1.573-2.427,2.967-2.961
		c1.096-0.42,2.276-0.39,3.432-0.183C19.906,23.078,19.374,24.904,18.742,26.692z M26.584,30.516
		c0.323-0.86,0.624-1.728,0.907-2.601c0.493,1.273,0.978,2.549,1.532,3.79L26.584,30.516z"/>
</g>
</svg>
