<?xml version="1.0" encoding="iso-8859-1"?>
<!-- Generator: Adobe Illustrator 16.0.0, SVG Export Plug-In . SVG Version: 6.00 Build 0)  -->
<!DOCTYPE svg PUBLIC "-//W3C//DTD SVG 1.1//EN" "http://www.w3.org/Graphics/SVG/1.1/DTD/svg11.dtd">
<svg version="1.1" id="Capa_1" xmlns="http://www.w3.org/2000/svg" xmlns:xlink="http://www.w3.org/1999/xlink" x="0px" y="0px"
	 width="500px" height="500px" viewBox="0 0 500 500" style="enable-background:new 0 0 500 500;" xml:space="preserve">
<g>
	<polygon points="242.441,194.711 7.676,194.711 7.676,220.898 28.603,220.898 28.603,458.602 201.616,458.602 201.616,220.898 
		242.441,220.898 	"/>
	<path d="M392.696,319.35c20.487-0.166,43.835-9.209,47.175-32.375l12.993-105.99c2.194-19.742-11.744-39.189-40.138-43.139
		c-5.352-0.71-10.6,0.244-10.6,0.244c-7.154,0.932-14.672,3.687-21.12,7.998c-0.061,0.046-2.682,1.845-3.76,2.748l-0.269,0.199
		c-30.089,22.229-43.777,32.241-71.33,16.679l15.739-12.097l-56.004-68.972l-34.541,33.595l31.258,34.471
		c-0.934,0.8-1.796,1.703-2.587,2.718c-6.367,8.181-4.899,19.959,3.279,26.322c26.931,20.974,48.66,28.765,67.541,28.765
		c11.125,0,21.212-2.804,30.815-7.129l-7.514,67.565c-39.343,1.414-64.13,9.519-73.843,24.249
		c-13.144,20-36.867,108.953-43.094,133.698c-3.218,12.778,4.547,25.75,17.325,28.968c1.954,0.488,3.908,0.736,5.841,0.736
		c10.688,0,20.415-7.23,23.136-18.054c10.973-43.586,36.208-121.109,36.208-121.109L392.696,319.35z"/>
	<path d="M407,38.5c26.683,0,48.316,21.632,48.316,48.318c0,26.688-21.634,48.322-48.316,48.322
		c-26.69,0-48.323-21.636-48.323-48.322C358.677,60.132,380.31,38.5,407,38.5z"/>
	<path d="M483.454,265.7l8.87-91.402h-28.276l-8.87,91.402c-2.089,66.8-42.979,63.851-61.025,64.73l-49.585-0.053v28.262h47.85
		c0.405,0.021,0.946,0.065,1.607,0.083v68.646H377.18c-18.828,0-34.149,15.311-34.149,34.132h18.837
		c0-8.433,6.857-15.303,15.303-15.303h61.912c8.441,0,15.313,6.867,15.313,15.303h18.837c0-18.806-15.313-34.132-34.156-34.132
		h-16.821v-71.78C467.045,353.535,478.074,305.31,483.454,265.7z"/>
</g>
</svg>
