<?xml version="1.0" encoding="utf-8"?>
<!-- Generator: Adobe Illustrator 16.0.4, SVG Export Plug-In . SVG Version: 6.00 Build 0)  -->
<!DOCTYPE svg PUBLIC "-//W3C//DTD SVG 1.1//EN" "http://www.w3.org/Graphics/SVG/1.1/DTD/svg11.dtd">
<svg version="1.1" id="Capa_1" xmlns="http://www.w3.org/2000/svg" xmlns:xlink="http://www.w3.org/1999/xlink" x="0px" y="0px"
	 width="64px" height="64px" viewBox="0 0 64 64" enable-background="new 0 0 64 64" xml:space="preserve">
<g>
	<path fill="#0E0F0F" d="M46.223,38.544c1.696-0.403,3.021-2.106,1.76-3.914c-3.332-4.757-7.354-8.913-12.556-11.61
		c-0.264-0.137-0.524-0.226-0.78-0.28c-0.981-0.841-2.375-1.163-3.69-0.959c-0.222-0.041-0.456-0.062-0.707-0.059
		c-3.078,0.039-6.192,0.683-8.591,2.724c-2.056,1.749-3.687,4.918-3.417,7.684c0.263,2.708,1.708,3.981,3.601,4.49h8.851
		c1.126,0,2.042-0.915,2.042-2.04c0-1.126-0.916-2.041-2.042-2.041h-6.748v-0.902h6.748c1.623,0,2.942,1.32,2.942,2.943
		c0,1.622-1.319,2.943-2.942,2.943h-9.016c-2.938,2.891-6.014,6.527-6.689,9.631c0,0,3.303,1.285,8.314,2.201v10.427
		c0,1.712,1.389,3.102,3.101,3.102c1.713,0,3.102-1.39,3.102-3.102v-9.646c0.7,0.049,1.413,0.084,2.141,0.104v6.178
		c0,1.45,1.174,2.626,2.625,2.626c1.449,0,2.625-1.176,2.625-2.626v-6.334c4.092-0.356,8.381-1.313,12.502-3.256
		C47.266,43.111,48.096,40.675,46.223,38.544z M35.607,32.87c0.066-1.004,0.123-2.007,0.175-3.013
		c2.254,1.622,4.229,3.575,5.968,5.763C38.844,34.174,35.77,33.003,35.607,32.87z"/>
	<path fill="#0E0F0F" d="M21.668,6.433c0.309,0.207,0.72,0.242,1.082,0.328c-0.134,0.501-0.207,1.071,0.143,1.411
		c0.466,0.453,1.171,0.461,1.723,0.788c0.045,0.026,0.094,0.045,0.143,0.061c-0.158,0.774-0.106,1.581,0.718,1.967
		c0.678,0.319,1.582-0.122,2.25-0.521c0.005,0.002,0.01,0.003,0.013,0.004c0.125,0.049,0.369,0.588,0.61,1.115
		c-0.622,0.426-1.098,0.971-1.361,1.59c-2.527-0.92-4.858-0.832-5.271,0.231c-0.427,1.097,1.354,2.814,3.977,3.833
		c0.569,0.222,1.129,0.388,1.665,0.509c0.22,0.573,0.558,1.111,1.019,1.575c1.767,1.771,4.635,1.775,6.406,0.009
		c0.502-0.5,0.855-1.088,1.074-1.714c0.422-0.097,0.854-0.221,1.295-0.377c2.654-0.938,4.484-2.601,4.094-3.71
		c-0.373-1.052-2.613-1.229-5.105-0.444c-0.66-1.426-2.447-2.451-4.555-2.451c-0.293,0-0.578,0.022-0.855,0.061
		c-0.08-0.9-0.32-2.136-0.509-2.346c-0.003-0.002-0.005-0.005-0.009-0.008c-0.04-1.115-0.279-2.203-0.737-3.275
		c-0.132-0.311-0.294-0.612-0.474-0.902c0.049-0.283-0.053-0.563-0.387-0.792c-0.104-0.072-0.222-0.15-0.347-0.228
		c-0.111-0.137-0.222-0.271-0.335-0.402c-0.424-0.491-1.166-1.358-1.805-1.571c-1.65-0.554-0.673,3.195-0.184,3.921
		c0.128,0.229,0.314,0.374,0.535,0.45c0,0.029,0.002,0.059,0.005,0.088c0.086,0.675,0.32,1.181,0.637,1.612
		C25.657,6.189,24.04,5.432,22.1,5.129C21.366,5.014,21.115,6.061,21.668,6.433z M26.116,9.803c-0.007-0.008-0.01-0.011-0.013-0.017
		c-0.001-0.004-0.001-0.004-0.002-0.007C26.105,9.788,26.112,9.795,26.116,9.803z M25.958,9.643
		c0.001,0.001,0.003,0.002,0.006,0.004c-0.023-0.001-0.046-0.001-0.069-0.003C25.933,9.646,25.95,9.645,25.958,9.643z"/>
</g>
</svg>
