<?xml version="1.0" encoding="utf-8"?>
<!-- Generator: Adobe Illustrator 16.0.4, SVG Export Plug-In . SVG Version: 6.00 Build 0)  -->
<!DOCTYPE svg PUBLIC "-//W3C//DTD SVG 1.1//EN" "http://www.w3.org/Graphics/SVG/1.1/DTD/svg11.dtd">
<svg version="1.1" id="Capa_1" xmlns="http://www.w3.org/2000/svg" xmlns:xlink="http://www.w3.org/1999/xlink" x="0px" y="0px"
	 width="64px" height="64px" viewBox="0 0 64 64" enable-background="new 0 0 64 64" xml:space="preserve">
<g>
	<path fill="#0E0F0F" d="M43.643,26.623c-8.172-4.312-16.692-7.994-25.688-10.201C11.22,14.771,7.754,23.178,11.52,27.12
		c0.258,0.656,0.676,1.319,1.297,1.958c2.117,2.182,4.039,4.562,5.861,7.018c-3.329,0.141-6.67,0.111-9.877-0.363
		c-5.238-0.776-7.494,7.229-2.208,8.013c6.51,0.964,13.193,0.661,19.736,0.147c2.884-0.226,5.514-3.444,3.588-6.252
		c-1.131-1.647-2.28-3.305-3.462-4.942c2.995,1.214,5.933,2.579,8.838,4.056c1.98,2.811,3.783,5.736,5.354,8.816
		c1.836,3.603,7.246,0.431,5.414-3.166c-0.826-1.62-1.727-3.19-2.674-4.728C47.204,35.409,48.703,29.296,43.643,26.623z"/>
	<circle fill="#0E0F0F" cx="54.85" cy="29.82" r="6.151"/>
</g>
</svg>
