<?xml version="1.0" encoding="utf-8"?>
<!-- Generator: Adobe Illustrator 16.0.4, SVG Export Plug-In . SVG Version: 6.00 Build 0)  -->
<!DOCTYPE svg PUBLIC "-//W3C//DTD SVG 1.1//EN" "http://www.w3.org/Graphics/SVG/1.1/DTD/svg11.dtd">
<svg version="1.1" id="Capa_1" xmlns="http://www.w3.org/2000/svg" xmlns:xlink="http://www.w3.org/1999/xlink" x="0px" y="0px"
	 width="64px" height="64px" viewBox="0 0 64 64" enable-background="new 0 0 64 64" xml:space="preserve">
<g>
	<path fill="#0E0F0F" d="M46.796,11.354c2.744,0.315,5.224-1.657,5.539-4.4c0.312-2.743-1.659-5.22-4.403-5.536
		c-2.742-0.313-5.223,1.657-5.535,4.4C42.082,8.564,44.052,11.042,46.796,11.354z"/>
	<path fill="#0E0F0F" d="M55.641,24.553c-4.592-1.345-7.341-4.556-9.248-8.68c-0.812-4.061-7.014-6.391-9.701-1.792
		c-2.25,3.845-4.375,7.762-6.409,11.722c-0.187,0.363-0.327,0.723-0.429,1.079c-1.145,1.955-7.956,13.536-13.914,22.427
		c-2.445,3.144,2.439,6.901,4.877,3.768c3.999-5.145,8.005-13.629,12.007-19.764c0.241,0.594,0.674,1.136,1.364,1.527
		c2.924,1.662,5.485,3.891,7.658,6.451c-0.867,3.43-1.734,6.855-2.601,10.286c-0.976,3.856,5.095,4.948,6.062,1.114
		c0.909-3.599,1.816-7.196,2.728-10.795c0.08-0.312,0.097-0.603,0.091-0.879c0.221-0.75,0.111-1.604-0.551-2.436
		c-2.362-2.973-5.061-5.549-8.149-7.679c1.405-2.728,2.871-5.423,4.371-8.098c2.478,3.432,5.745,6.04,10.296,7.371
		C57.71,31.236,59.244,25.606,55.641,24.553z"/>
	<path fill="#0E0F0F" d="M49.802,41.428c-0.011,0.367-0.062,0.737-0.151,1.104l-1.33,5.252v14.907h7.582V38.754h-6.396
		C49.895,39.609,50.002,40.525,49.802,41.428z"/>
	<path fill="#0E0F0F" d="M38.195,55.214c-0.83-1.065-1.09-2.438-0.73-3.86l2.374-9.399c-1.067-1.187-2.198-2.254-3.384-3.199h-1.723
		v23.938h7.584v-5.668c-0.066,0-0.135,0.009-0.201,0.009C40.547,57.032,39.082,56.352,38.195,55.214z"/>
	<path fill="#0E0F0F" d="M19.908,55.963v6.729h7.582V45.979c-1.766,3.08-3.57,6.054-5.376,8.375
		C21.513,55.127,20.754,55.672,19.908,55.963z"/>
	<path fill="#0E0F0F" d="M6.32,62.691h7.583v-9.377c-0.617-1.271-0.599-2.68,0-3.938V38.754H6.32V62.691z"/>
	<path fill="#0E0F0F" d="M30.285,20.109L36.408,9c0,0-7.086-6.828-11.464,0.048c-1.388,2.458-2.599,5.181-3.986,7.639
		C19.107,19.962,28.439,23.375,30.285,20.109z"/>
</g>
</svg>
