<?xml version="1.0" encoding="utf-8"?>
<!-- Generator: Adobe Illustrator 16.0.4, SVG Export Plug-In . SVG Version: 6.00 Build 0)  -->
<!DOCTYPE svg PUBLIC "-//W3C//DTD SVG 1.1//EN" "http://www.w3.org/Graphics/SVG/1.1/DTD/svg11.dtd">
<svg version="1.1" id="Capa_1" xmlns="http://www.w3.org/2000/svg" xmlns:xlink="http://www.w3.org/1999/xlink" x="0px" y="0px"
	 width="64px" height="64px" viewBox="0 0 64 64" enable-background="new 0 0 64 64" xml:space="preserve">
<g>
	<path fill="#0E0F0F" d="M45.91,44.704c-2.189-4.013-2.734-10.781-1.219-15.097c0.106-0.307,0.129-0.586,0.094-0.841
		c0.166-0.493,0.208-1.056,0.076-1.675c-0.479-2.282-0.781-4.596-1.11-6.906c1.265,1.089,2.563,2.135,3.959,3.062
		c2.003,1.328,3.863-1.891,1.876-3.209c-2.506-1.661-4.645-3.776-6.902-5.747c-0.018-0.016-0.037-0.025-0.056-0.041
		c-1.394-2.906-6.483-1.222-5.718,2.396c0.146,0.698,0.273,1.4,0.395,2.104c-0.879,1.81-3.438,3.124-4.631,4.512
		c-1.552,1.809,1.064,4.449,2.627,2.627c0.815-0.949,1.776-1.755,2.689-2.573c0.193,1.367,0.395,2.731,0.642,4.088
		c-4.524,1.401-7.301,4.68-7.789,9.446c-0.245,2.383,3.474,2.357,3.716,0c0.325-3.174,2.348-5.085,5.315-5.946
		c0.176-0.051,0.326-0.123,0.464-0.204c0.062,0.028,0.123,0.057,0.188,0.081c-1.019,5.068-0.125,11.58,2.177,15.797
		c0.332,0.609,0.837,0.876,1.358,0.908h-5.361v-8.35H27.366V30.76H13.588l-0.024,27.387l36.349-0.004V47.488h-5.617
		C45.502,47.402,46.677,46.107,45.91,44.704z M48.674,48.729v8.178L14.803,56.91L14.824,32h11.304v8.378h11.333v8.351H48.674z"/>
	<circle fill="#0E0F0F" cx="36.043" cy="9.258" r="3.406"/>
</g>
</svg>
