<?xml version="1.0" encoding="utf-8"?>
<!-- Generator: Adobe Illustrator 16.0.4, SVG Export Plug-In . SVG Version: 6.00 Build 0)  -->
<!DOCTYPE svg PUBLIC "-//W3C//DTD SVG 1.1//EN" "http://www.w3.org/Graphics/SVG/1.1/DTD/svg11.dtd">
<svg version="1.1" id="Capa_1" xmlns="http://www.w3.org/2000/svg" xmlns:xlink="http://www.w3.org/1999/xlink" x="0px" y="0px"
	 width="64px" height="64px" viewBox="0 0 64 64" enable-background="new 0 0 64 64" xml:space="preserve">
<g>
	<circle fill="#0E0F0F" cx="20.134" cy="17.314" r="4.095"/>
	<path fill="#0E0F0F" d="M39.822,46.171c-4.35-3.198-7.79-7.448-6.791-13.146c0.113-0.649-0.047-1.207-0.359-1.637
		c-0.673-2.547-1.675-5-2.988-7.28c2.207-0.175,4.421-0.253,6.634-0.262c2.681-0.011,2.682-4.167,0-4.156
		c-3.519,0.015-7.009,0.256-10.495,0.691c-1.056-0.097-2.133,0.308-2.861,1.004c-0.292,0.195-0.526,0.497-0.66,0.912
		c-0.137,0.298-0.218,0.619-0.231,0.957c-0.463,1.672-1.488,3.143-2.586,4.476c-1.058,1.283-2.827,0.486-4.213,0.221
		c-0.991-0.189-1.767,0.268-2.207,0.937l-2.168-0.355c-0.098-0.016-0.192,0.01-0.268,0.06c-0.05-1.648-0.917-2.841-2.604-3.116
		c-1.915-0.314-3.691,0.741-4.005,2.655c-0.313,1.915,1.015,3.602,2.928,3.915c1.681,0.275,2.878-0.57,3.457-2.105
		c0.058,0.074,0.139,0.129,0.238,0.145l2.037,0.333c0.078,0.719,0.537,1.357,1.488,1.54c2.558,0.489,5.309,1.276,7.522-0.589
		c1.039-0.876,2.018-2.053,2.81-3.346c0.674,1.277,1.228,2.605,1.668,3.997c-4.21,5.056-4.664,11.869-1.279,17.75
		c1.337,2.321,4.929,0.229,3.589-2.099c-2.317-4.024-2.245-8.362,0.112-11.937c0.067,0.021,0.135,0.037,0.202,0.054
		c0.352,5.817,3.976,10.324,8.935,13.972C39.887,51.352,41.957,47.741,39.822,46.171z M10.086,29.186
		c-0.269,1.641-1.417,2.631-3.057,2.363c-1.641-0.268-2.783-1.696-2.514-3.336c0.268-1.64,1.786-2.509,3.426-2.241
		C9.582,26.241,10.355,27.546,10.086,29.186z"/>
	<circle fill="#0E0F0F" cx="36.107" cy="26.765" r="1.344"/>
	<path fill="#0E0F0F" d="M57.893,26.359l-0.074-0.37c-4.825,0.992-11.756,4.365-12.918,4.94c-0.332-0.574-1.676-2.43-6.047-4.46
		l-0.158,0.342c4.496,2.089,5.707,3.994,5.912,4.371h-9.844v3.087h20.213v-3.087h-9.732C46.788,30.423,53.311,27.301,57.893,26.359z
		"/>
</g>
</svg>
