<?xml version="1.0" encoding="utf-8"?>
<!-- Generator: Adobe Illustrator 16.0.4, SVG Export Plug-In . SVG Version: 6.00 Build 0)  -->
<!DOCTYPE svg PUBLIC "-//W3C//DTD SVG 1.1//EN" "http://www.w3.org/Graphics/SVG/1.1/DTD/svg11.dtd">
<svg version="1.1" id="Capa_1" xmlns="http://www.w3.org/2000/svg" xmlns:xlink="http://www.w3.org/1999/xlink" x="0px" y="0px"
	 width="64px" height="64px" viewBox="0 0 64 64" enable-background="new 0 0 64 64" xml:space="preserve">
<g>
	<path fill="#0E0F0F" d="M55.152,49.021c-4.799-1.713-9.594-3.426-14.394-5.14c-0.292-1.569-0.567-3.153-0.774-4.741
		c0.135-0.559,0.188-1.146,0.141-1.75c-0.591-7.523-4.064-13.958-5.971-16.979c2.425-0.926,4.966-2.099,7.619-3.535
		c0.84-0.455,1.406-1.287,1.525-2.235c0.116-0.947-0.229-1.894-0.938-2.54l-8.137-7.474c-1.201-1.104-3.072-1.025-4.175,0.177
		c-1.104,1.202-1.025,3.071,0.178,4.175l4.987,4.581c-3.637,1.68-6.948,2.751-9.881,3.193c-0.286,0.043-0.548,0.138-0.797,0.253
		c-0.226,0.001-0.454,0.021-0.683,0.076c-3.2,0.777-6.406,0.337-8.58-1.176c-1.534-1.069-2.424-2.581-2.647-4.494
		c-0.19-1.621-1.657-2.785-3.277-2.594c-1.621,0.19-2.783,1.657-2.594,3.277c0.421,3.617,2.198,6.611,5.14,8.66
		c2.454,1.71,5.604,2.605,8.912,2.605c0.716,0,1.44-0.043,2.165-0.128c0.172,0.743,0.491,1.463,0.98,2.111
		c0.044,0.06,4.434,6.041,4.975,12.923c0.002,0.026,0.011,0.051,0.014,0.077c-2.554,2.882-4.527,6.245-4.483,10.237
		c0.053,4.796,3.879,8.294,7.742,10.473c3.988,2.249,7.562-3.878,3.578-6.125c-1.631-0.918-3.997-2.236-4.228-4.348
		c-0.195-1.77,0.826-3.422,2.022-4.825c0.15,0.865,0.307,1.729,0.459,2.586c0.46,2.604,2.144,3.414,4.402,4.222
		c4.942,1.767,9.888,3.53,14.828,5.295C57.585,57.402,59.426,50.548,55.152,49.021z"/>
	<circle fill="#0E0F0F" cx="22.379" cy="9.369" r="5.554"/>
</g>
</svg>
