<?xml version="1.0" encoding="utf-8"?>
<!-- Generator: Adobe Illustrator 16.0.4, SVG Export Plug-In . SVG Version: 6.00 Build 0)  -->
<!DOCTYPE svg PUBLIC "-//W3C//DTD SVG 1.1//EN" "http://www.w3.org/Graphics/SVG/1.1/DTD/svg11.dtd">
<svg version="1.1" id="Capa_1" xmlns="http://www.w3.org/2000/svg" xmlns:xlink="http://www.w3.org/1999/xlink" x="0px" y="0px"
	 width="64px" height="64px" viewBox="0 0 64 64" enable-background="new 0 0 64 64" xml:space="preserve">
<g>
	<path fill="#0E0F0F" d="M9.298,33.105c-0.043-0.814-0.131-1.625-0.275-2.426c0.008-0.118-0.011-0.237-0.066-0.354
		c-0.018-0.089-0.039-0.18-0.059-0.269c0.817-1.473,1.813-2.81,3.065-3.979c0.865-0.806-0.432-2.097-1.294-1.292
		c-1.09,1.015-2.015,2.164-2.797,3.408c-0.526-0.229-1.175-0.13-1.635,0.208c-1.131-0.571-2.345-0.972-3.629-1.168
		c-1.154-0.177-1.65,1.585-0.488,1.763c1.305,0.2,2.545,0.606,3.682,1.228c0.312,1.188,0.444,2.374,0.476,3.596
		c-0.48,1.755-1.096,3.477-1.779,5.16c-0.589,1.459,1.771,2.088,2.354,0.648c0.519-1.283,1-2.588,1.413-3.91
		c1.036,1.33,2.07,2.659,3.105,3.99c0.964,1.241,2.678-0.497,1.725-1.727C11.829,36.357,10.563,34.73,9.298,33.105z"/>
	<circle fill="#0E0F0F" cx="6.437" cy="25.432" r="1.791"/>
	<path fill="#0E0F0F" d="M60.037,24.574c-0.359,1.407-0.906,2.708-1.605,3.943c-0.556-0.364-1.332-0.309-1.857,0.078
		c-0.95-1.178-1.742-2.458-2.332-3.886c-0.449-1.091-2.104-0.306-1.653,0.783c0.841,2.038,2.085,3.839,3.599,5.433
		c0.14,1.146,0.131,2.28,0.035,3.445c-0.007,0.088,0,0.166,0.004,0.245c-0.162,1.795-0.455,3.578-0.824,5.342
		c-0.32,1.54,2.113,1.732,2.431,0.213c0.146-0.697,0.272-1.398,0.394-2.1c0.273,0.789,0.547,1.58,0.821,2.367
		c0.517,1.485,2.716,0.432,2.205-1.043c-0.646-1.862-1.293-3.729-1.938-5.592c0.052-1.037,0.035-2.072-0.082-3.104
		c1.139-1.687,2.016-3.504,2.522-5.489C62.045,24.079,60.33,23.434,60.037,24.574z"/>
	<circle fill="#0E0F0F" cx="57.145" cy="25.578" r="1.791"/>
	<path fill="#0E0F0F" d="M32.029,33.117c-2.229-0.6-4.459-1.198-6.689-1.8c-0.058-0.027-0.114-0.058-0.175-0.081
		c-1.079-0.407-2.165-0.716-3.279-0.931c-0.093-0.053-0.195-0.098-0.315-0.127c-2.25-0.56-4.498-1.12-6.747-1.681
		c-1.528-0.38-2.174,1.974-0.649,2.354c1.528,0.381,3.056,0.76,4.584,1.142c0.019,0.06,0.046,0.116,0.071,0.174
		c-0.905,1.921-1.324,3.99-1.197,6.124c0.069,1.173,1.899,1.18,1.83,0c-0.107-1.801,0.189-3.535,0.932-5.165
		c0.601,0.069,1.193,0.187,1.776,0.34c0.614,1.92,0.93,3.849,0.839,5.88c-0.054,1.18,1.775,1.176,1.83,0
		c0.08-1.772-0.128-3.503-0.565-5.199c0.027,0.011,0.055,0.021,0.081,0.03c0.446,0.169,0.926,0.034,1.296-0.249
		c1.91,0.516,3.82,1.029,5.73,1.543C32.902,35.879,33.546,33.527,32.029,33.117z"/>
	<circle fill="#0E0F0F" cx="27.625" cy="37.541" r="1.79"/>
	<path fill="#0E0F0F" d="M48.913,26.034c-2.302,0.283-4.601,0.568-6.899,0.853c-0.072,0.009-0.139,0.027-0.203,0.046
		c-0.121-0.028-0.246-0.036-0.373-0.032c-1.568-1.227-3.137-2.453-4.703-3.68c-1.227-0.958-2.965,0.756-1.728,1.725
		c1.63,1.274,3.257,2.546,4.886,3.82c-0.156,1.304-0.216,2.607-0.192,3.923c-0.185,0.016-0.37,0.092-0.54,0.254
		c-1.66,1.586-2.822,3.574-3.42,5.789c-0.309,1.142,1.46,1.625,1.766,0.488c0.506-1.877,1.46-3.521,2.844-4.878
		c0.424,0.282,0.98,0.349,1.455,0.193c0.014,0.022,0.021,0.042,0.038,0.063c1.259,1.742,2.212,3.603,2.74,5.695
		c0.288,1.143,2.052,0.656,1.765-0.488c-0.563-2.233-1.58-4.268-2.927-6.131c-0.181-0.252-0.425-0.367-0.676-0.394
		c0.002-0.046,0.01-0.087,0.009-0.134c-0.041-1.312-0.031-2.629,0.128-3.932c2.011-0.25,4.021-0.498,6.032-0.747
		C50.453,28.282,50.475,25.84,48.913,26.034z"/>
	<circle fill="#0E0F0F" cx="40.857" cy="37.389" r="1.791"/>
</g>
</svg>
