<?xml version="1.0" encoding="utf-8"?>
<!-- Generator: Adobe Illustrator 16.0.4, SVG Export Plug-In . SVG Version: 6.00 Build 0)  -->
<!DOCTYPE svg PUBLIC "-//W3C//DTD SVG 1.1//EN" "http://www.w3.org/Graphics/SVG/1.1/DTD/svg11.dtd">
<svg version="1.1" id="Capa_1" xmlns="http://www.w3.org/2000/svg" xmlns:xlink="http://www.w3.org/1999/xlink" x="0px" y="0px"
	 width="64px" height="64px" viewBox="0 0 64 64" enable-background="new 0 0 64 64" xml:space="preserve">
<g>
	<path fill="#0E0F0F" d="M46.848,32.704c0.978-2.201,3.86-7.76,3.86-7.76s-4.671-5.496-6.354-7.012
		c-0.412-0.369-0.86-0.51-1.299-0.499v-0.009c-0.49-0.101-1.031-0.213-1.58,0.138c-0.307,0.196-1.215,1.323-1.215,1.323l0.162,1.742
		l-1.656-0.915l-1.172,2.594c0,0-0.809-1.457-1.599-2.81c-0.188-0.322-1.321,0.308-1.495,0.019c0,0,0.641-1.449,0.51-1.651
		c-0.257-0.399-0.441-0.65-0.49-0.632c0,0-0.764-0.883-3.561,0.375c-1.845,0.396-3.69,0.792-5.535,1.189
		c-1.236-1.375-2.338-2.87-3.196-4.508c-0.57-1.089-1.64-1.309-2.542-1.005l-7.331-8.84c-0.211-0.256-0.59-0.291-0.845-0.079
		c-0.254,0.221-0.292,0.592-0.08,0.847l7.24,8.731c-0.52,0.57-0.736,1.395-0.267,2.291c1.051,2.008,5.563,7.656,5.563,7.656
		s4.077-1.138,6.835-1.823c0.339,0.703,0.654,1.199,0.654,1.199l0.476,4.986l-3.258,16.431h3.218c0,4.51,0,9.021,0,13.528
		c0,3.103,4.812,3.103,4.812,0c0-4.509,0-9.019,0-13.528h1.474c0.146,4.979,1.154,9.935,3.665,14.291
		c1.547,2.688,5.704,0.267,4.154-2.426c-2.096-3.638-2.875-7.732-3.005-11.865h3.271l-2.473-11.094
		C44.794,34.186,46.234,34.082,46.848,32.704z M43.111,30.545l-0.412-1.846l-0.042-0.002c0.063-2.755,0.71-2.765,0.712-5.272
		l-0.03-0.575c0.751,0.777,1.446,1.607,2.086,2.48C44.654,27.068,43.881,28.807,43.111,30.545z"/>
	<path fill="#0E0F0F" d="M37.516,10.843c-0.244,1.659,3.278,3.208,3.278,3.208c0.075-0.25,0.126-0.501,0.154-0.754
		c0.071,0.12,0.147,0.239,0.229,0.359c0.147,0.217,0.306,0.438,0.501,0.654c0.194,0.214,0.42,0.431,0.709,0.615
		c0.282,0.183,0.653,0.312,1.008,0.299c0.355-0.013,0.664-0.145,0.888-0.326c0.225-0.181,0.386-0.397,0.502-0.631
		c0.058-0.118,0.106-0.237,0.143-0.366c0.017-0.064,0.033-0.129,0.05-0.194c0.012-0.068,0.021-0.131,0.027-0.204
		c-0.066,0.003-0.125,0.016-0.188,0.021c-0.059,0.009-0.113,0.017-0.172,0.023c-0.115,0.014-0.222,0.03-0.326,0.04
		c-0.201,0.022-0.387,0.03-0.533,0.008c-0.148-0.021-0.247-0.071-0.299-0.129c-0.049-0.057-0.073-0.103-0.129-0.174
		c-0.113-0.14-0.271-0.432-0.407-0.768c-0.136-0.341-0.269-0.723-0.404-1.121c-0.138-0.397-0.282-0.812-0.457-1.237
		c-0.176-0.424-0.373-0.858-0.646-1.321c-0.142-0.231-0.301-0.47-0.525-0.726c-0.115-0.129-0.247-0.26-0.422-0.388
		c-0.173-0.125-0.395-0.255-0.658-0.308c-0.262-0.056-0.542-0.014-0.75,0.091c-0.206,0.104-0.347,0.261-0.436,0.421
		c-0.137,0.263-0.172,0.544-0.108,0.863c-0.062-0.028-0.12-0.054-0.183-0.079c-1.988-0.796-4.119,0.298-4.762,2.446
		C33.598,11.167,36.42,12.949,37.516,10.843z"/>
</g>
</svg>
