<?xml version="1.0" encoding="utf-8"?>
<!-- Generator: Adobe Illustrator 16.0.4, SVG Export Plug-In . SVG Version: 6.00 Build 0)  -->
<!DOCTYPE svg PUBLIC "-//W3C//DTD SVG 1.1//EN" "http://www.w3.org/Graphics/SVG/1.1/DTD/svg11.dtd">
<svg version="1.1" id="Capa_1" xmlns="http://www.w3.org/2000/svg" xmlns:xlink="http://www.w3.org/1999/xlink" x="0px" y="0px"
	 width="64px" height="64px" viewBox="0 0 64 64" enable-background="new 0 0 64 64" xml:space="preserve">
<g>
	<circle fill="#0E0F0F" cx="33.918" cy="8.123" r="6.122"/>
	<path fill="#0E0F0F" d="M47.586,50.637c-0.82-0.941-1.643-1.889-2.461-2.832c-0.285-0.326-0.482-0.593-0.586-0.74
		c-1.95-3.284-3.896-6.568-5.847-9.854c0.095-0.437,0.146-0.905,0.146-1.408c0-2.285,0-4.572,0-6.857l0.065-0.801
		c0.866,1.284,1.72,2.575,2.566,3.869c0.918,1.401,3.252,2.075,4.469,0.576c2.056-2.529,4.109-5.058,6.164-7.586
		c2.291-2.82-1.709-6.873-4.023-4.023c-1.305,1.605-2.607,3.21-3.912,4.815c-1.312-1.958-2.652-3.898-4.066-5.78
		c-0.151-0.201-0.318-0.369-0.492-0.517l0.002-0.028c-0.483-0.489-3.486-3.052-4.838-3.469c-0.512,1.817-1.41,4.373-1.41,6.397
		c0-1.262-0.33-2.473-0.789-3.588c-0.101-0.408-0.281-0.792-0.522-1.129c-0.321-0.637-0.662-1.235-0.981-1.773
		c-0.599,0.151-1.168,0.392-1.691,0.706c-0.287,0.076-0.578,0.19-0.874,0.388c-3.022,2.015-6.045,4.03-9.067,6.045
		c-1.193-1.957-2.352-3.937-3.397-5.972c-1.679-3.264-6.588-0.386-4.914,2.872c1.504,2.927,3.236,5.743,4.979,8.534
		c0.782,1.255,2.574,1.899,3.892,1.021c2.365-1.577,4.729-3.153,7.094-4.73l-0.347,3.354c0,2.531,0,5.061,0,7.592
		c0,0.251,0.013,0.493,0.038,0.729c-2.346,2.541-4.691,5.084-7.037,7.623c-0.833,0.904-1.322,2.238-0.914,3.461
		c1.375,4.115,2.75,8.229,4.127,12.346c1.446,4.328,8.314,2.471,6.858-1.889c-1.174-3.514-2.348-7.025-3.521-10.537
		c1.823-1.975,3.646-3.95,5.469-5.926c0.417,0.065,0.841,0.09,1.263,0.078c1.85,3.119,3.699,6.237,5.551,9.354
		c1.964,3.311,5.248,6.17,7.766,9.066c3.018,3.469,8.025-1.584,5.03-5.027C50.111,53.541,48.85,52.088,47.586,50.637z
		 M32.268,28.758c0-0.645,0.522-1.167,1.167-1.167c0.645,0,1.166,0.522,1.166,1.167s-0.522,1.167-1.166,1.167
		C32.79,29.925,32.268,29.403,32.268,28.758z M33.436,23.749c0.645,0,1.166,0.522,1.166,1.167s-0.522,1.167-1.166,1.167
		c-0.646,0-1.167-0.522-1.167-1.167S32.79,23.749,33.436,23.749z M44.491,46.996C44.446,46.931,44.445,46.926,44.491,46.996
		L44.491,46.996z"/>
</g>
</svg>
