<?xml version="1.0" encoding="utf-8"?>
<!-- Generator: Adobe Illustrator 16.0.4, SVG Export Plug-In . SVG Version: 6.00 Build 0)  -->
<!DOCTYPE svg PUBLIC "-//W3C//DTD SVG 1.1//EN" "http://www.w3.org/Graphics/SVG/1.1/DTD/svg11.dtd">
<svg version="1.1" id="Capa_1" xmlns="http://www.w3.org/2000/svg" xmlns:xlink="http://www.w3.org/1999/xlink" x="0px" y="0px"
	 width="64px" height="64px" viewBox="0 0 64 64" enable-background="new 0 0 64 64" xml:space="preserve">
<g>
	<path fill="#0E0F0F" d="M17.89,53.576c-0.918,1.566-0.868,3.498,0.705,4.66c1.346,0.992,3.742,0.863,4.662-0.704
		c1.902-3.244,5.351-5.687,5.351-5.687s-1.27-2.798-1.871-8.041C26.736,43.805,20.054,49.883,17.89,53.576z"/>
	<path fill="#0E0F0F" d="M45.021,25.358c-3.903-3.474-8.09-6.591-12.672-9.098c-0.493-0.373-1.057-0.665-1.652-0.86
		c-0.398-0.161-0.789-0.239-1.165-0.25c-0.629-0.072-1.259-0.04-1.836,0.115c-1.523,0.408-2.551,1.34-3.136,2.526
		c-2.823,3.297-5.181,6.88-7.297,10.666c-2.101,3.756,3.657,7.117,5.756,3.364c0.656-1.175,1.332-2.333,2.038-3.469
		c0.609,4.104,1.217,8.208,1.824,12.311c0.123,0.832,0.519,1.548,1.072,2.13c0.884,5.842,2.507,11.605,5.066,16.907
		c1.867,3.87,7.614,0.487,5.756-3.365c-1.912-3.961-3.19-8.346-3.977-12.769c1.73-1.205,2.357-3.375,2.033-5.569
		c-0.602-4.052-1.201-8.106-1.803-12.159c1.822,1.315,3.58,2.725,5.275,4.234C43.51,32.917,48.241,28.22,45.021,25.358z"/>
	<circle fill="#0E0F0F" cx="29.031" cy="7.867" r="5.808"/>
</g>
</svg>
