<?xml version="1.0" encoding="utf-8"?>
<!-- Generator: Adobe Illustrator 16.0.4, SVG Export Plug-In . SVG Version: 6.00 Build 0)  -->
<!DOCTYPE svg PUBLIC "-//W3C//DTD SVG 1.1//EN" "http://www.w3.org/Graphics/SVG/1.1/DTD/svg11.dtd">
<svg version="1.1" id="Capa_1" xmlns="http://www.w3.org/2000/svg" xmlns:xlink="http://www.w3.org/1999/xlink" x="0px" y="0px"
	 width="64px" height="64px" viewBox="0 0 64 64" enable-background="new 0 0 64 64" xml:space="preserve">
<g>
	<path fill="#0E0F0F" d="M38.445,18.192c0.627,2.937,0.636,7.393-2.211,9.088c-0.025-0.006-0.053-0.011-0.077-0.017v9.56
		c-0.282,0.043-0.537,0.145-0.755,0.288v-9.993c-0.986-0.145-2.096-0.154-3.097-0.024v10.188c-0.206-0.173-0.466-0.298-0.754-0.365
		v-9.823c-2.991,0-7.202,0-10.192,0c-1.001,0-1.548,0.7-1.647,1.469h-7.934v1.121h0.151l1.906,6.4h0.146l2.257-6.4H19.9
		c0.253,0.492,0.737,0.858,1.459,0.858c2.245,0,5.713,0,7.96,0v6.792c0,0.247,0.026,0.486,0.065,0.725
		c-0.018,0.084-0.031,0.172-0.031,0.262v17.15c0,0.807,0.776,1.463,1.732,1.463c0.958,0,1.733-0.656,1.733-1.463V41.678
		c0.308,0.068,0.625,0.109,0.955,0.109s0.648-0.041,0.959-0.11v13.731c0,0.808,0.774,1.464,1.73,1.464
		c0.958,0,1.732-0.656,1.732-1.464V38.26c0-0.082-0.014-0.16-0.027-0.238c0.035-0.225,0.059-0.453,0.059-0.688v-7.208
		c3.996-2.55,4.51-8.326,3.545-12.85C41.307,15.102,37.982,16.024,38.445,18.192z"/>
	<path fill="#0E0F0F" d="M36.157,27.094h-0.755v0.024c0.262,0.039,0.514,0.087,0.755,0.145V27.094z"/>
	<circle fill="#0E0F0F" cx="33.497" cy="23.063" r="3.057"/>
	<polygon fill="#0E0F0F" points="40.404,7.218 40.404,7.067 39.283,7.067 39.283,15.687 40.404,15.687 40.404,11.527 46.807,9.271 
		46.807,9.124 	"/>
</g>
</svg>
