<?xml version="1.0" encoding="utf-8"?>
<!-- Generator: Adobe Illustrator 16.0.4, SVG Export Plug-In . SVG Version: 6.00 Build 0)  -->
<!DOCTYPE svg PUBLIC "-//W3C//DTD SVG 1.1//EN" "http://www.w3.org/Graphics/SVG/1.1/DTD/svg11.dtd">
<svg version="1.1" id="Capa_1" xmlns="http://www.w3.org/2000/svg" xmlns:xlink="http://www.w3.org/1999/xlink" x="0px" y="0px"
	 width="64px" height="64px" viewBox="0 0 64 64" enable-background="new 0 0 64 64" xml:space="preserve">
<g>
	<path fill="#0E0F0F" d="M60.613,51.005c-1.809-0.586-3.619-1.17-5.43-1.755c-0.734-0.236-2.203-0.713-2.203-0.713
		s-0.318-0.713-0.656-1.219c-0.352-0.527-0.592-1.101-0.777-1.691c0.232-0.479,0.295-1.059,0.186-1.617
		c0-0.047,0.004-0.09,0.004-0.138c-0.065-2.97,0.064-7.296,2.515-9.326c1.481-1.231,1.24-3.75-0.028-5.003
		c-0.779-0.771-1.722-1.058-2.654-0.979c-2.75-2.126-5.574-4.151-8.465-6.087c-2.535-1.698-4.894,2.389-2.381,4.071
		c2.323,1.557,4.602,3.173,6.827,4.855c-0.008,0.012-0.018,0.023-0.024,0.036l0.236,0.122c0.325,0.247,0.651,0.493,0.977,0.743
		l-2.904,3.137l0.615-2.137c-1.188,2.557-1.652,5.6-1.764,8.379c-1.105-0.025-2.213-0.037-3.322-0.037
		c-0.953-0.002-2.123,0.709-2.273,1.729c-0.662,4.44,0.578,8.647,3.066,12.349c1.688,2.508,5.773,0.15,4.072-2.381
		c-1.386-2.059-2.539-4.462-2.672-6.97c0.772,0.011,1.547,0.03,2.319,0.062c0.354,0.289,0.769,0.504,1.205,0.642
		c0.914,2.778,2.67,5.37,5.521,6.291c2.254,0.728,4.506,1.455,6.758,2.184C62.262,56.488,63.494,51.936,60.613,51.005z
		 M46.115,40.785c-0.262,0-0.473-0.422-0.473-0.943c0-0.52,0.211-0.941,0.473-0.941c0.26,0,0.471,0.422,0.471,0.941
		C46.586,40.363,46.375,40.785,46.115,40.785z M46.35,38.663c-0.262,0-0.471-0.423-0.471-0.942c0-0.521,0.209-0.943,0.471-0.943
		s0.471,0.423,0.471,0.943S46.611,38.663,46.35,38.663z"/>
	<path fill="#0E0F0F" d="M52.662,22.3c1,0.591,4.334,2.563,4.875,2.877c0.541,0.314-1.115,1.378-1.166,2.521
		c-0.07,1.568,0.82,0.483,0.82,0.483l0.51-0.861c1.123-1.904,2.043-3.444,0.201-4.53l-1.139-0.673c0,0-1.351-0.508-2.654-4.094
		c-0.918,1.079-0.07,2.486-0.07,2.486s-1.035-1.519-1.479-1.396C52.561,19.114,51.658,21.708,52.662,22.3z"/>
	<path fill="#0E0F0F" d="M22.363,23.297c-0.403-0.428-0.833-0.833-1.292-1.207c-1.491-1.215-3.549-1.446-5.003,0.026
		c-0.089,0.09-0.171,0.188-0.249,0.289c-1.563-0.89-3.207-1.667-4.857-2.349c0.107-1.028,0.008-2.031-0.024-2.979
		c-0.016-0.388,0.048-0.803,0.136-1.104c0.077,0.008,0.157,0.019,0.241,0.032c0.218,0.034,0.451,0.084,0.696,0.129
		c0.26,0.05,0.533,0.1,0.816,0.142c-0.27,0.468-0.427,1.009-0.427,1.588c0,1.758,1.425,3.183,3.183,3.183s3.183-1.425,3.183-3.183
		c0-1.758-1.425-3.183-3.183-3.183c-0.918,0-1.743,0.391-2.323,1.012c-0.164-0.265-0.347-0.511-0.552-0.742
		c-0.185-0.208-0.387-0.398-0.62-0.578c-0.235-0.178-0.494-0.346-0.857-0.475c-0.183-0.063-0.402-0.114-0.694-0.111
		c-0.282-0.002-0.701,0.105-1.013,0.385c-0.317,0.273-0.458,0.607-0.521,0.851c-0.063,0.251-0.067,0.456-0.053,0.638
		c0.033,0.361,0.131,0.644,0.226,0.911c0.095,0.267,0.195,0.514,0.271,0.76c0.25,0.825,0.522,1.606,0.682,2.388
		c-1.233-0.488-2.46-0.931-3.648-1.333c-2.311-0.783-3.294,2.861-1.002,3.638c3.447,1.169,7.235,2.684,10.391,4.881
		c0.071,0.074,0.146,0.146,0.228,0.212c0.497,0.404,0.936,0.833,1.319,1.286v6.055c0,0,0.763,0.736,2.034,1.535
		c-0.035,0.406-0.082,0.812-0.134,1.216c-1.069-0.155-2.065-0.542-3.075-1.103c-2.129-1.182-4.032,2.076-1.904,3.256
		c2.047,1.137,4.246,1.863,6.61,1.674c1.12-0.09,1.758-0.799,1.887-1.887c0.061-0.521,0.124-1.037,0.182-1.553
		c0.178,0.049,0.358,0.094,0.541,0.133c0.626,3.246,0.554,6.545-0.185,9.879c-0.525,2.369,3.111,3.377,3.638,1.002
		c0.799-3.604,0.972-7.239,0.401-10.803c1.855-0.356,3.815-1.343,5.738-3.351L22.363,23.297z M11.137,15.781
		c0.029-0.067,0.057-0.112,0.065-0.098c0.005,0.004-0.011,0.07-0.082,0.151C11.126,15.817,11.131,15.795,11.137,15.781z
		 M10.723,16.012c-0.043-0.016-0.012-0.036,0.048-0.044c0.049-0.007,0.113-0.006,0.184-0.003
		C10.852,16.018,10.75,16.027,10.723,16.012z"/>
	<path fill="#0E0F0F" d="M5.538,7.806c0.206,0.035,0.407,0.006,0.588-0.067l-0.398,2.304l-0.035,0.203L5.67,10.373
		c-0.055-0.025-0.114-0.048-0.177-0.059c-0.376-0.064-0.734,0.188-0.799,0.565c-0.066,0.376,0.187,0.734,0.563,0.799
		c0.063,0.011,0.125,0.01,0.186,0.004l-0.209,1.215L5.21,13.039l-0.078,0.449l7.871-1.24c0.194,0.639,0.396,1.372,0.595,1.952
		c0.444-0.164,0.921-0.494,1.423-0.494c1.127,0,2.148,0.455,2.895,1.19c-0.332-0.918-0.653-1.84-0.966-2.766l0.464-2.829
		l-1.259,0.882c-0.507-0.608-1.316-0.766-2.018-0.574L6.548,5.287L6.486,5.649L6.437,5.938c-0.146-0.13-0.325-0.224-0.532-0.259
		C5.318,5.577,4.759,5.971,4.659,6.558C4.557,7.146,4.951,7.705,5.538,7.806z"/>
	<circle fill="#0E0F0F" cx="4.033" cy="12.456" r="0.83"/>
	<circle fill="#0E0F0F" cx="4.615" cy="9.083" r="1.075"/>
	<circle fill="#0E0F0F" cx="3.422" cy="7.047" r="0.692"/>
	<circle fill="#0E0F0F" cx="2.099" cy="8.039" r="0.692"/>
	<circle fill="#0E0F0F" cx="2.135" cy="10.436" r="1.135"/>
</g>
</svg>
