<?xml version="1.0" encoding="utf-8"?>
<!-- Generator: Adobe Illustrator 16.0.4, SVG Export Plug-In . SVG Version: 6.00 Build 0)  -->
<!DOCTYPE svg PUBLIC "-//W3C//DTD SVG 1.1//EN" "http://www.w3.org/Graphics/SVG/1.1/DTD/svg11.dtd">
<svg version="1.1" id="Capa_1" xmlns="http://www.w3.org/2000/svg" xmlns:xlink="http://www.w3.org/1999/xlink" x="0px" y="0px"
	 width="64px" height="64px" viewBox="0 0 64 64" enable-background="new 0 0 64 64" xml:space="preserve">
<g>
	<path fill="#0E0F0F" d="M33.686,18.084c-0.102-0.042-0.186-0.104-0.266-0.167c-0.158-0.129-0.318-0.273-0.502-0.436
		c-0.089-0.084-0.201-0.153-0.354-0.204c-0.155-0.05-0.816-0.135-0.99-0.021c0,0.153,0.188,0.601,0.188,0.601s0.175,0.356,0.3,0.49
		c0.244,0.27,0.583,0.503,0.997,0.584c0.203,0.042,0.422,0.04,0.625-0.003c0.205-0.043,0.391-0.127,0.547-0.23
		c0.156-0.106,0.289-0.223,0.4-0.35c0.11-0.128,0.198-0.275,0.235-0.449c-0.169,0.048-0.308,0.109-0.442,0.161
		c-0.132,0.053-0.267,0.089-0.395,0.089C33.9,18.155,33.783,18.13,33.686,18.084z"/>
	<path fill="#0E0F0F" d="M30.23,17.482c-0.184,0.163-0.344,0.307-0.502,0.436c-0.081,0.063-0.165,0.125-0.265,0.167
		c-0.099,0.045-0.216,0.07-0.344,0.066c-0.129,0-0.262-0.037-0.395-0.089c-0.135-0.052-0.273-0.112-0.442-0.161
		c0.038,0.173,0.124,0.321,0.236,0.449c0.112,0.127,0.245,0.244,0.401,0.35c0.157,0.103,0.342,0.187,0.546,0.23
		c0.203,0.042,0.422,0.045,0.626,0.003c0.414-0.082,0.75-0.315,0.994-0.584c0.126-0.133,0.299-0.49,0.299-0.49
		s0.188-0.448,0.188-0.601c-0.171-0.115-0.833-0.03-0.988,0.02C30.43,17.329,30.319,17.398,30.23,17.482z"/>
	<path fill="#0E0F0F" d="M27.73,14.51v2.072h7.688V14.51c0.232-0.348,0.393-0.781,0.45-1.262c0.651-0.741,1.04-1.711,1.04-2.76
		c0-2.297-1.846-4.164-4.117-4.164c-0.206,0-0.423,0.018-0.643,0.055L32.01,6.238c-0.002-0.002-0.005-0.004-0.007-0.007V5.38h0.826
		V4.512h-0.826V3.713h-0.857v0.799h-0.831V5.38h0.831v0.848c-0.004,0.003-0.008,0.007-0.011,0.01l-0.14,0.141
		c-0.217-0.036-0.432-0.054-0.638-0.054c-2.27,0-4.116,1.867-4.116,4.164c0,1.042,0.392,2.009,1.037,2.749
		C27.336,13.721,27.496,14.159,27.73,14.51z M32.01,7.428l0.151-0.154c0.084-0.084,0.14-0.191,0.165-0.309
		c0.158-0.021,0.312-0.033,0.465-0.033c0.081,0,0.16,0.007,0.238,0.012v0.332h1.26c1.189,0.57,2.018,1.794,2.018,3.211
		c0,0.631-0.168,1.232-0.463,1.754c-0.199-1.103-0.934-1.924-1.812-1.924c-0.662,0-1.243,0.467-1.573,1.168
		c-0.282-0.094-0.54-0.105-0.71-0.094V7.578h-0.001C31.844,7.55,31.936,7.502,32.01,7.428z M31.61,11.759h0.002
		c0.02-0.005,0.335-0.071,0.714,0.05c-0.104,0.313-0.162,0.658-0.162,1.023c0,1.388,0.834,2.514,1.865,2.514
		c0.16,0,0.313-0.03,0.464-0.081v0.381h-5.84v-0.381c0.149,0.051,0.303,0.081,0.464,0.081c1.03,0,1.864-1.125,1.864-2.514
		c0-0.365-0.058-0.71-0.162-1.023c0.38-0.121,0.694-0.056,0.715-0.05C31.56,11.765,31.585,11.765,31.61,11.759z M29.248,7.116
		c-0.08,0.05-0.157,0.102-0.229,0.16h1.393v-0.34c0.133,0.002,0.269,0.01,0.406,0.029c0.024,0.116,0.083,0.224,0.165,0.309
		l0.152,0.154c0.076,0.076,0.168,0.124,0.267,0.151v3.813c-0.172-0.011-0.429,0-0.711,0.094c-0.331-0.701-0.911-1.168-1.573-1.168
		c-0.878,0-1.611,0.818-1.811,1.917c-0.296-0.521-0.465-1.119-0.465-1.748C26.841,8.92,27.851,7.587,29.248,7.116z"/>
	<path fill="#0E0F0F" d="M40.934,37.988c1.724,0,1.989-1.418,1.989-3.161c0-4.381-1.161-13.17-5.554-14.345
		c-0.861-0.23-5.308-2.135-11.59-0.191c-4.393,1.175-5.554,10.107-5.554,14.488c0,1.742,0.04,3.072,1.989,3.162
		c1.95,0.088,2.297-6.188,2.805-7.239c0.005,5.356,0.622,19.544,0.622,19.544v7.913c0,1.454,1.165,2.632,2.602,2.632
		c1.436,0,2.601-1.178,2.601-2.632l0.063-14.87h1.428l-0.063,14.87c0,1.454,1.166,2.632,2.602,2.632s2.601-1.178,2.601-2.632v-7.912
		c0,0,0.609-14.496,0.614-19.833C38.594,31.467,38.939,37.6,40.934,37.988z M24.707,25.717c0,0,1.506-5.137,6.9-5.186
		c5.394-0.049,7.002,5.189,7.002,5.189L24.707,25.717z"/>
	<circle fill="#0E0F0F" cx="31.965" cy="22.689" r="0.395"/>
	<circle fill="#0E0F0F" cx="27.608" cy="24.499" r="0.404"/>
	<circle fill="#0E0F0F" cx="29.528" cy="23.614" r="0.404"/>
	<circle fill="#0E0F0F" cx="33.221" cy="24.499" r="0.404"/>
	<ellipse fill="#0E0F0F" cx="34.641" cy="23.614" rx="0.397" ry="0.404"/>
	<circle fill="#0E0F0F" cx="30.993" cy="24.499" r="0.404"/>
	<circle fill="#0E0F0F" cx="28.008" cy="22.689" r="0.404"/>
	<circle fill="#0E0F0F" cx="36.574" cy="24.356" r="0.334"/>
	<circle fill="#0E0F0F" cx="34.641" cy="21.899" r="0.395"/>
	<ellipse fill="#0E0F0F" cx="30.46" cy="21.755" rx="0.533" ry="0.539"/>
	<polygon fill="#0E0F0F" points="18.008,48.749 24.496,48.749 24.259,36.371 	"/>
	<polygon fill="#0E0F0F" points="38.797,36.371 38.561,48.749 45.049,48.749 	"/>
</g>
</svg>
