<?xml version="1.0" encoding="utf-8"?>
<!-- Generator: Adobe Illustrator 16.0.4, SVG Export Plug-In . SVG Version: 6.00 Build 0)  -->
<!DOCTYPE svg PUBLIC "-//W3C//DTD SVG 1.1//EN" "http://www.w3.org/Graphics/SVG/1.1/DTD/svg11.dtd">
<svg version="1.1" id="Capa_1" xmlns="http://www.w3.org/2000/svg" xmlns:xlink="http://www.w3.org/1999/xlink" x="0px" y="0px"
	 width="64px" height="64px" viewBox="0 0 64 64" enable-background="new 0 0 64 64" xml:space="preserve">
<g>
	<path fill="#0E0F0F" d="M62.045,37.422c-1.347-2.631-2.693-5.262-4.043-7.893c-0.072,2.109-1.223,3.944-2.916,4.979
		c0.296,0.575,0.591,1.151,0.887,1.729c-2.597,0-5.189,0-7.785,0c0.056-1.125-0.207-2.264-0.783-3.211
		c-0.059-0.174-0.135-0.352-0.24-0.528c-3.266-5.537-9.305-6.127-15.076-7.09c-3.073-0.513-4.388,4.181-1.296,4.698
		c1.434,0.239,3.017,0.402,4.574,0.671l-11.582,0.012c-1.511-1.365-3.022-2.73-4.534-4.096c-0.934-0.843-2.538-1.036-3.445,0
		c-2.368,2.707-4.736,5.413-7.105,8.121c-0.388,0.442-0.581,0.928-0.625,1.403c-1.203,0-2.406,0-3.608,0
		c-3.142,0-3.142,4.871,0,4.871c6.174,0,12.347,0,18.521,0v0.024l20.167,0.01c0.119,0.001,0.232-0.008,0.351-0.014
		c5.394,0,10.787,0,16.181,0c0.035,0,0.069,0,0.104,0c0.046,0,0.091,0,0.135,0c1.234,0,1.977-0.756,2.24-1.67
		C62.402,38.846,62.416,38.146,62.045,37.422z M13.932,36.217c1.265-1.449,2.531-2.896,3.797-4.343
		c1.457,1.315,2.912,2.631,4.368,3.946c0.19,0.173,0.389,0.294,0.59,0.396C19.769,36.217,16.85,36.217,13.932,36.217z"/>
	<circle fill="#0E0F0F" cx="51.906" cy="28.565" r="5.176"/>
</g>
</svg>
