<?xml version="1.0" encoding="utf-8"?>
<!-- Generator: Adobe Illustrator 16.0.4, SVG Export Plug-In . SVG Version: 6.00 Build 0)  -->
<!DOCTYPE svg PUBLIC "-//W3C//DTD SVG 1.1//EN" "http://www.w3.org/Graphics/SVG/1.1/DTD/svg11.dtd">
<svg version="1.1" id="Capa_1" xmlns="http://www.w3.org/2000/svg" xmlns:xlink="http://www.w3.org/1999/xlink" x="0px" y="0px"
	 width="64px" height="64px" viewBox="0 0 64 64" enable-background="new 0 0 64 64" xml:space="preserve">
<g>
	<path fill="#0E0F0F" d="M52.146,14.225c-7.217,0-9.989,0-17.207,0c-0.129,0-0.242,0.022-0.361,0.036
		c-0.445-0.445-0.943-0.812-1.496-1.009c-1.932,1.7-4.07,4.52-4.07,4.52s-0.43-3.044-1.301-4.761
		c-1.271,0.305-2.414,0.854-3.332,1.566c-0.172,0.066-0.346,0.15-0.521,0.259c-1.878,1.167-3.757,2.334-5.635,3.501
		c-1.203-2.143-2.405-4.284-3.606-6.427c-1.754-3.126-6.556-0.324-4.799,2.805c1.667,2.973,3.335,5.945,5.004,8.918
		c0.726,1.293,2.532,1.785,3.802,0.997c1.097-0.681,2.192-1.362,3.289-2.043c-0.156,2.645-0.504,5.382-1.913,8.115L9,42.293h7.605
		c-2.176,5.152-4.354,10.305-6.532,15.458c-1.378,3.261,3.41,6.097,4.8,2.808c2.572-6.091,5.144-12.178,7.717-18.266h3.159
		l0.591,7.758c0,0,0.133,0.729,0.279,1.01c0.073,0.461,0.272,0.926,0.632,1.363c2.073,2.524,4.475,6.7,7.045,9.234
		c2.712,2.677,5.739-0.879,3.297-3.77c-1.702-1.791-5.813-8.709-5.813-8.709s-0.001-0.215-0.011-0.326
		c-0.232-2.763-0.447-4.446-0.589-6.562h6.446l-5.88-11.394l4.611-11.115c6.195,0,9.064,0,15.789,0
		C55.73,19.784,55.73,14.225,52.146,14.225z"/>
	<path fill="#0E0F0F" d="M21.636,12.72c0.268,0.335,0.642,0.605,1.073,0.75c0.429,0.143,0.92,0.177,1.406,0.017
		c0.243-0.08,0.48-0.214,0.68-0.398c0.203-0.184,0.361-0.417,0.463-0.661c0.204-0.496,0.189-0.986,0.114-1.402
		c-0.072-0.386-0.201-0.727-0.349-1.045c-0.21-0.711-0.442-1.376-0.643-2.037c-0.209-0.657-0.383-1.308-0.509-1.932
		c-0.125-0.623-0.182-1.229-0.118-1.739c0.073-0.5,0.238-0.886,0.584-1.208c0.075-0.044,0.15-0.086,0.228-0.119
		c0.115-0.057,0.236-0.094,0.363-0.127c0.257-0.064,0.552-0.078,0.879-0.046c0.328,0.034,0.681,0.118,1.045,0.232
		c0.018,0.006,0.037,0.013,0.056,0.018c-1.361,1.269-2.007,3.17-1.655,5.041c0.364,2.723,2.695,4.833,5.518,4.833
		c3.073,0,5.573-2.499,5.573-5.571c0-1.192-0.38-2.296-1.021-3.203c-1.38-2.2-4.168-3.181-6.673-2.196
		c-0.41,0.16-0.788,0.366-1.133,0.606c-0.058-0.078-0.118-0.155-0.181-0.229c-0.289-0.335-0.641-0.632-1.063-0.86
		c-0.421-0.229-0.925-0.377-1.461-0.387c-0.268-0.006-0.539,0.03-0.803,0.092c-0.264,0.065-0.515,0.167-0.751,0.285
		c-0.026,0.014-0.049,0.028-0.073,0.045l-0.059,0.046c-0.374,0.286-0.713,0.659-0.96,1.084c-0.25,0.423-0.398,0.889-0.476,1.339
		c-0.154,0.905-0.044,1.745,0.133,2.512c0.18,0.771,0.456,1.479,0.746,2.16c0.15,0.338,0.304,0.669,0.458,0.995l0.463,0.952
		l0.042,0.092c0.136,0.235,0.244,0.474,0.301,0.692c0.06,0.218,0.061,0.409,0.025,0.526c-0.037,0.116-0.094,0.193-0.227,0.256
		c-0.13,0.062-0.324,0.076-0.517,0.027c-0.388-0.096-0.764-0.388-1.021-0.861c-0.264-0.473-0.39-1.095-0.495-1.784
		c-0.387,0.579-0.593,1.307-0.461,2.087C21.202,11.991,21.367,12.383,21.636,12.72z M28.196,5.194
		c1.961,2.719,6.712,3.337,7.417,3.416c-0.57,2.144-2.521,3.731-4.842,3.731c-2.238,0-4.135-1.472-4.78-3.497
		C26.811,8.388,28.436,7.217,28.196,5.194z"/>
</g>
</svg>
