<?xml version="1.0" encoding="utf-8"?>
<!-- Generator: Adobe Illustrator 16.0.4, SVG Export Plug-In . SVG Version: 6.00 Build 0)  -->
<!DOCTYPE svg PUBLIC "-//W3C//DTD SVG 1.1//EN" "http://www.w3.org/Graphics/SVG/1.1/DTD/svg11.dtd">
<svg version="1.1" id="Capa_1" xmlns="http://www.w3.org/2000/svg" xmlns:xlink="http://www.w3.org/1999/xlink" x="0px" y="0px"
	 width="64px" height="64px" viewBox="0 0 64 64" enable-background="new 0 0 64 64" xml:space="preserve">
<g>
	<path fill="#0E0F0F" d="M51.701,24.244c-4.863-0.125-9.705-0.566-14.547-1.034c-0.959-1.767-3.25-2.831-5.23-2.239
		c-3.097-1.935-6.324-3.651-9.379-5.654c-0.356-0.233-0.708-0.348-1.042-0.373l0.369-0.655l-1.235-0.695l1.308-2.324
		c0.13-0.229,0.049-0.519-0.181-0.649L15.86,7.294c-0.231-0.129-0.521-0.048-0.65,0.181l-5.168,9.175
		c-0.129,0.229-0.048,0.521,0.182,0.649l5.903,3.326c0.23,0.129,0.521,0.048,0.65-0.182l1.309-2.322l1.235,0.695l0.188-0.336
		c0.169,0.283,0.411,0.544,0.742,0.761c2.756,1.807,5.651,3.382,8.465,5.094c-2.075,3.529-3.994,7.102-5.473,10.94
		c-0.685,0.83-0.776,2.261,0.009,3.207c0.993,2.244,1.753,4.521,1.865,7.002c0.126,2.826-0.623,5.679-1.174,8.427
		c-0.574,2.864,3.81,4.084,4.386,1.209c0.636-3.179,1.341-6.379,1.336-9.636c-0.003-1.424-0.23-2.813-0.587-4.172
		c1.285,0.711,2.449,1.573,3.243,2.695c1.72,2.432,0.236,5.957-0.703,8.387c-1.06,2.739,3.339,3.914,4.386,1.209
		c1.484-3.84,2.516-8.145,0.244-11.892c-1.107-1.823-2.838-3.157-4.76-4.228c1.344-3.435,3.245-6.625,5.139-9.78
		c5.016,0.486,10.035,0.954,15.074,1.083C54.637,28.868,54.629,24.319,51.701,24.244z M20.915,14.997
		c-1.158,0.297-1.949,1.69-1.643,2.916l-0.138,0.243l-0.81-0.456l2.072-3.681l0.812,0.458L20.915,14.997z"/>
	<circle fill="#0E0F0F" cx="39.113" cy="17.281" r="4.404"/>
</g>
</svg>
