<?xml version="1.0" encoding="utf-8"?>
<!-- Generator: Adobe Illustrator 16.0.4, SVG Export Plug-In . SVG Version: 6.00 Build 0)  -->
<!DOCTYPE svg PUBLIC "-//W3C//DTD SVG 1.1//EN" "http://www.w3.org/Graphics/SVG/1.1/DTD/svg11.dtd">
<svg version="1.1" id="Capa_1" xmlns="http://www.w3.org/2000/svg" xmlns:xlink="http://www.w3.org/1999/xlink" x="0px" y="0px"
	 width="64px" height="64px" viewBox="0 0 64 64" enable-background="new 0 0 64 64" xml:space="preserve">
<g>
	<path fill="#0E0F0F" d="M40.941,10.842c0,0,4.082,7.199,4.082,3.218c0-3.979-3.229-7.205-7.207-7.205
		c-3.979,0-7.207,3.226-7.207,7.205C30.61,18.041,40.941,10.842,40.941,10.842z"/>
	<path fill="#0E0F0F" d="M46.088,5.552c0.389-0.218,0.77-0.423,1.111-0.568c0.332-0.146,0.672-0.211,0.707-0.132
		c0.02,0.032-0.084,0.077-0.182,0.07c-0.099-0.006-0.138-0.025-0.127,0.025c0,0.034,0.051,0.163,0.067,0.228l0.056,0.142
		c-0.011-0.012,0.024,0.075,0.032,0.106l0.088,0.273l0.769,2.438c0.578,1.706,1.373,3.621,2.908,5.153
		c0.764,0.751,1.717,1.358,2.731,1.649s2.053,0.296,2.994,0.018c-0.832-0.528-1.545-1.041-2.095-1.631
		c-0.555-0.581-0.965-1.193-1.303-1.859c-0.676-1.322-1.1-2.854-1.658-4.53c-0.287-0.838-0.592-1.716-1.045-2.628l-0.18-0.343
		l-0.109-0.2L50.76,3.607c-0.193-0.333-0.385-0.58-0.682-0.882c-0.289-0.285-0.691-0.59-1.207-0.756
		c-0.514-0.17-1.082-0.157-1.502-0.039c-0.434,0.113-0.748,0.305-1.012,0.491c-0.262,0.19-0.479,0.383-0.66,0.586
		c-0.373,0.4-0.65,0.808-0.902,1.214c-0.248,0.41-0.469,0.813-0.672,1.226c-0.104,0.205-0.209,0.405-0.326,0.596
		c-0.109,0.205-0.223,0.388-0.402,0.56C43.91,6.65,44.402,6.402,44.84,6.21C45.287,6.003,45.691,5.766,46.088,5.552z"/>
	<path fill="#0E0F0F" d="M60.654,54.134c-5.34-2.819-10.773-5.44-16.334-7.758c-0.512,2.851-1.277,5.662-2.092,8.351
		c4.795,2.045,9.487,4.321,14.121,6.771C61.209,64.062,65.518,56.702,60.654,54.134z"/>
	<path fill="#0E0F0F" d="M40.705,29.984c-0.072-0.124-0.146-0.237-0.225-0.348c-0.263-2.97-1.896-5.56-5.156-6.456
		c-1.354-0.372-2.912-0.27-4.348,0.216c-0.082-0.06-0.16-0.12-0.249-0.174c-6.258-3.939-12.259-8.188-17.898-12.979
		C8.666,6.707,2.603,12.709,6.8,16.274c6.077,5.162,12.518,9.813,19.252,14.074c-0.521,2.875-1.199,5.716-1.964,8.534
		c-6.204-1.94-12.234-4.563-18.823-4.796c-2.262-0.079-4.346,1.999-4.264,4.266c0.211,5.832,2.051,11.146,4.562,16.362
		c2.384,4.955,9.736,0.627,7.364-4.303c-1.108-2.306-2.053-4.662-2.667-7.106c5.896,1.336,11.557,4.215,17.467,5.336
		c0.062,0.012,0.12,0.018,0.181,0.024c1.659,0.66,3.544,1.418,3.907,1.541c0.822-2.733,1.526-5.496,1.876-8.25
		c0.371-0.358,0.777-0.646,1.195-0.877c-0.199,5.651-2.219,11.397-3.906,16.685c-1.675,5.256,6.558,7.485,8.224,2.268
		C42.225,50.57,46.074,39.27,40.705,29.984z"/>
</g>
</svg>
