<?xml version="1.0" encoding="iso-8859-1"?>
<!-- Generator: Adobe Illustrator 16.0.0, SVG Export Plug-In . SVG Version: 6.00 Build 0)  -->
<!DOCTYPE svg PUBLIC "-//W3C//DTD SVG 1.1//EN" "http://www.w3.org/Graphics/SVG/1.1/DTD/svg11.dtd">
<svg version="1.1" id="Capa_1" xmlns="http://www.w3.org/2000/svg" xmlns:xlink="http://www.w3.org/1999/xlink" x="0px" y="0px"
	 width="500px" height="500px" viewBox="0 0 500 500" style="enable-background:new 0 0 500 500;" xml:space="preserve">
<g>
	<path d="M246.718,137.726c37.62,0,68.112-30.496,68.112-68.115c0-37.615-30.492-68.111-68.112-68.111
		c-37.618,0-68.114,30.496-68.115,68.111C178.604,107.229,209.101,137.726,246.718,137.726z"/>
	<path d="M444.195,404.789H337.34c-9.49,0-17.188,7.688-17.188,17.172v59.367c0,9.48,7.695,17.172,17.188,17.172h106.855
		c9.488,0,17.193-7.688,17.193-17.172v-59.367C461.383,412.479,453.686,404.789,444.195,404.789z"/>
	<path d="M328.992,385.815c38.104,15.737,69.297,23.137,93.418,2.579c25.465-22.27,27.764-56.494,16.9-88.734l-50.969-144.049
		c-9.955-29.938-42.648-41.22-69.137-39.052l-0.215,0.023c0,0-9.291,1.083-17.164,3.498c-8.213,2.538-15.115,7.38-15.115,7.38
		c-5.609,3.536-11.049,8.016-15.902,13.185c-5.283,5.15-10.469,10.285-15.396,15.239c-30.813,30.927-46.583,46.64-70.106,40.415
		c0,0-0.207-0.051-0.585-0.157L203.33,182.4c1.049-0.775,1.739-1.94,1.915-3.231c0.176-1.292-0.18-2.6-0.984-3.625l-72.153-92.021
		c-1.64-2.092-4.662-2.464-6.759-0.831l-18.337,14.272L84.807,71.283c-1.058-1.224-2.659-1.837-4.263-1.63
		c-1.604,0.206-2.997,1.203-3.713,2.653l-37.723,76.639c-0.861,1.75-0.584,3.846,0.703,5.312l67.4,76.818l8.723,10.272
		c1.451,1.708,3.85,2.167,5.795,1.212c0.258-0.126,0.509-0.278,0.747-0.454l7.678-5.67c7.07,3.941,13.458,6.98,19.045,9.308
		c17.098,8.137,32.561,11.605,46.721,11.605c26.667,0,48.731-12.208,68.497-28.333l21.533,55.543
		c-36.768-14.282-70.115-20.983-94.968-1.248c-36.517,28.97-67.063,126.067-78.5,166.471c-5.697,20.13,5.994,41.085,26.136,46.785
		c3.455,0.972,6.934,1.457,10.358,1.457c16.518,0,31.706-10.896,36.44-27.58c14.68-51.779,36.135-105.339,48.797-123.148
		c6.132,1.181,14.977,4.27,24.487,8.035c-18.228,25.563-27.749,48.058-46.998,95.384c-7.149,17.58,1.31,37.61,18.894,44.775
		c4.237,1.727,8.605,2.534,12.928,2.534c13.57,0,26.428-8.081,31.852-21.426c19.592-48.148,25.805-65.093,46.791-93.721
		L328.992,385.815z M82.271,83.099l17.118,19.798l-43.542,33.885L82.271,83.099z"/>
</g>
</svg>
