<?xml version="1.0" encoding="utf-8"?>
<!-- Generator: Adobe Illustrator 16.0.4, SVG Export Plug-In . SVG Version: 6.00 Build 0)  -->
<!DOCTYPE svg PUBLIC "-//W3C//DTD SVG 1.1//EN" "http://www.w3.org/Graphics/SVG/1.1/DTD/svg11.dtd">
<svg version="1.1" id="Capa_1" xmlns="http://www.w3.org/2000/svg" xmlns:xlink="http://www.w3.org/1999/xlink" x="0px" y="0px"
	 width="64px" height="64px" viewBox="0 0 64 64" enable-background="new 0 0 64 64" xml:space="preserve">
<g>
	<circle fill="#0E0F0F" cx="22.094" cy="11.412" r="3.932"/>
	<path fill="#0E0F0F" d="M58.581,44.939V42.75c0-0.518-0.42-0.938-0.938-0.938H43.559L37.92,26.203
		c-0.117-0.328-0.408-0.563-0.756-0.61l-4.832-0.662c0.343-0.94,0.13-2.042-1.022-2.654c-2.673-1.42-5.347-2.84-8.02-4.26
		c-1.212-3.442-7.433-2.914-7.783,1.567c-0.316,4.041-1.783,7.926-4.476,10.982c-0.913,1.034-1.165,2.202-0.985,3.276
		c-1.461,5.266-4.194,9.899-6.96,14.637c-1.529,2.617,2.524,4.976,4.049,2.364c2.541-4.347,5.059-8.667,6.7-13.38
		c0.196,0.014,0.395,0.006,0.594-0.018c1.694,1.207,3.098,2.701,3.581,4.849c0.579,2.574-1.469,5.412-2.987,7.239
		c-1.918,2.31,1.382,5.646,3.315,3.316c2.643-3.181,4.92-6.984,4.273-11.283c-0.45-2.989-2.232-5.323-4.476-7.166
		c2.497-3.361,4.089-7.146,4.872-11.228c1.978,1.052,3.957,2.102,5.935,3.153c0.55,0.292,1.086,0.349,1.569,0.249l5.836,0.799
		l5.612,15.54v2.025c-1.442,0.41-2.503,1.733-2.503,3.308c0,1.899,1.541,3.438,3.439,3.438c1.899,0,3.438-1.539,3.438-3.438
		c0-0.394-0.067-0.769-0.188-1.119h8.246c-0.121,0.353-0.191,0.728-0.191,1.119c0,1.899,1.541,3.438,3.439,3.438
		c1.899,0,3.439-1.539,3.439-3.438C61.082,46.674,60.021,45.35,58.581,44.939z"/>
	<path fill="#0E0F0F" d="M30.017,33.48c0.359,0.184,0.696,0.424,1.029,0.674c0.332,0.253,0.655,0.521,0.987,0.798
		c-0.212-0.377-0.486-0.716-0.792-1.022c-0.306-0.306-0.654-0.576-1.049-0.787c-0.393-0.201-0.855-0.349-1.326-0.267
		c-0.474,0.075-0.851,0.414-1.032,0.802c0.315-0.296,0.684-0.496,1.066-0.506C29.283,33.16,29.662,33.293,30.017,33.48z"/>
	<path fill="#0E0F0F" d="M24.823,37.587c-0.042,0.229-0.1,0.444-0.2,0.634c-0.093,0.195-0.23,0.363-0.397,0.516
		c-0.168,0.15-0.37,0.279-0.589,0.416c0.258,0.018,0.522-0.041,0.76-0.172c0.239-0.125,0.441-0.338,0.568-0.586
		c0.247-0.511,0.188-1.088-0.055-1.535C24.879,37.117,24.864,37.355,24.823,37.587z"/>
	<path fill="#0E0F0F" d="M37.516,44.633c0.396-0.031,0.738-0.208,1.049-0.419c0.148-0.11,0.295-0.231,0.42-0.374
		c0.125-0.14,0.242-0.297,0.313-0.48c-0.362,0.148-0.659,0.341-0.957,0.545C38.051,44.114,37.771,44.332,37.516,44.633z"/>
	<path fill="#0E0F0F" d="M30.68,38.742c-0.783-0.455-1.684-0.76-2.591-0.733c0.858,0.275,1.65,0.618,2.399,1.063
		c0.755,0.435,1.451,0.962,2.187,1.484C32.152,39.818,31.462,39.207,30.68,38.742z"/>
	<path fill="#0E0F0F" d="M29.978,45.365c-0.184-0.117-0.362-0.188-0.616-0.223c0.021,0.131,0.086,0.234,0.16,0.321
		c0.071,0.091,0.157,0.156,0.245,0.22c0.09,0.056,0.182,0.105,0.282,0.142c0.101,0.039,0.2,0.061,0.333,0.081
		c-0.019-0.131-0.089-0.237-0.16-0.322C30.149,45.494,30.064,45.428,29.978,45.365z"/>
	<path fill="#0E0F0F" d="M36.081,39.441c-0.046,0.105-0.065,0.213-0.081,0.318c-0.007,0.105-0.012,0.213,0.004,0.315
		c0.012,0.106,0.036,0.206,0.081,0.334c0.104-0.077,0.169-0.188,0.212-0.289c0.047-0.104,0.067-0.213,0.083-0.317
		c0.021-0.216,0.001-0.408-0.085-0.65C36.188,39.232,36.124,39.339,36.081,39.441z"/>
</g>
</svg>
