<?xml version="1.0" encoding="utf-8"?>
<!-- Generator: Adobe Illustrator 16.0.4, SVG Export Plug-In . SVG Version: 6.00 Build 0)  -->
<!DOCTYPE svg PUBLIC "-//W3C//DTD SVG 1.1//EN" "http://www.w3.org/Graphics/SVG/1.1/DTD/svg11.dtd">
<svg version="1.1" id="Capa_1" xmlns="http://www.w3.org/2000/svg" xmlns:xlink="http://www.w3.org/1999/xlink" x="0px" y="0px"
	 width="64px" height="64px" viewBox="0 0 64 64" enable-background="new 0 0 64 64" xml:space="preserve">
<g>
	<path fill="#010101" d="M59.83,18.712c-4.434,0.96-11.693,2.604-13.544,2.316c-1.854-0.288-10.269-8.725-13.494-11.353
		c-1.956-1.595-4.769,1.183-2.793,2.792c2.655,2.163,5.31,4.325,7.964,6.488c-0.066,0.086-0.105,0.14-0.105,0.14l-11.322,8.938
		l-11.326,9.046c-0.883,0.774-1.035,2.05-0.238,2.959c0.796,0.909,2.158,1.019,3.042,0.243l12.27-8.945c0,0,0.615-0.445,1.128,0.128
		c0.513,0.574-0.054,1.042-0.054,1.042l-12.268,8.945c-0.884,0.773-0.955,2.138-0.159,3.047c0.796,0.91,2.158,1.021,3.042,0.245
		c0,0,20.301-15.302,23.711-18.495c1.35-0.286,10.258-2.658,15.194-3.728C63.367,21.982,62.312,18.175,59.83,18.712z"/>
	<circle fill="#010101" cx="47.134" cy="15.345" r="3.72"/>
	<polygon fill="#010101" points="1.7,54.803 15.602,54.803 20.209,45.846 1.7,45.846 	"/>
	<path fill="#010101" d="M7.13,35.768c0.478,0,0.478-0.74,0-0.74C6.653,35.025,6.653,35.768,7.13,35.768z"/>
	<path fill="#010101" d="M9.456,38.462c0.476,0,0.476-0.741,0-0.741C8.978,37.721,8.978,38.462,9.456,38.462z"/>
	<path fill="#010101" d="M11.121,38.521c0.478,0,0.478-0.74,0-0.74C10.642,37.781,10.642,38.521,11.121,38.521z"/>
	<path fill="#010101" d="M12.396,43.172c0.477,0,0.477-0.742,0-0.742S11.919,43.172,12.396,43.172z"/>
	<path fill="#010101" d="M6.39,41.361c0.478,0,0.478-0.741,0-0.741S5.912,41.361,6.39,41.361z"/>
</g>
</svg>
