<?xml version="1.0" encoding="iso-8859-1"?>
<!-- Generator: Adobe Illustrator 16.0.0, SVG Export Plug-In . SVG Version: 6.00 Build 0)  -->
<!DOCTYPE svg PUBLIC "-//W3C//DTD SVG 1.1//EN" "http://www.w3.org/Graphics/SVG/1.1/DTD/svg11.dtd">
<svg version="1.1" id="Capa_1" xmlns="http://www.w3.org/2000/svg" xmlns:xlink="http://www.w3.org/1999/xlink" x="0px" y="0px"
	 width="500px" height="500px" viewBox="0 0 500 500" style="enable-background:new 0 0 500 500;" xml:space="preserve">
<g>
	<path d="M83.406,134.549c0,23.68,18.727,42.869,41.838,42.869c23.111,0,41.848-19.189,41.848-42.869
		c0-17.95-10.782-33.304-26.043-39.677l2.616-3.542c0,0,10.1-14.657,10.883-15.736c1.789-2.463,4.19-13.776-12.56,1.416
		c-16.736,15.194-45.517-12.88-46.637-9.183c-1.146,3.719,16.508,23.503,16.508,23.503l1.835,2.05
		C96.199,98.525,83.406,114.979,83.406,134.549z M123.567,135.322c-7.493-2.135-12.621-5.089-12.621-10.842
		c0-5.199,4.371-9.271,11.861-10.521v-5.625h6.877v5.199c4.688,0.177,7.858,1.004,10.168,1.949l-2.045,6.697
		c-1.808-0.653-5.042-2.019-10.097-2.019c-4.558,0-6.021,1.649-6.021,3.309c0,1.941,2.444,3.199,8.407,5.093
		c8.331,2.474,11.712,5.728,11.712,11.058c0,5.259-4.425,9.759-12.479,10.956v6.023h-6.868v-5.626
		c-4.708-0.163-9.267-1.231-11.938-2.537l2.114-6.934c2.955,1.364,7.072,2.602,11.646,2.602c3.983,0,6.727-1.296,6.727-3.66
		C131.005,138.225,128.756,136.802,123.567,135.322z"/>
	<path d="M370.685,85.589c-25.315,0-45.907,20.6-45.907,45.91c-0.001,25.313,20.591,45.919,45.907,45.919
		c25.326,0,45.909-20.599,45.909-45.919S396.011,85.589,370.685,85.589z M370.685,167.297c-19.755,0-35.809-16.055-35.809-35.807
		c0-19.746,16.055-35.793,35.809-35.793c19.739,0,35.811,16.047,35.811,35.793C406.495,151.243,390.425,167.297,370.685,167.297z"/>
	<path d="M400.032,118.75c-1.366-2.475-4.452-3.4-6.946-2.041l-21.258,11.584L347.923,116.6c-2.549-1.225-5.627-0.189-6.854,2.351
		c-1.243,2.537-0.19,5.609,2.348,6.838l26.3,12.863c0.708,0.352,1.459,0.525,2.243,0.525c0.828,0,1.688-0.212,2.455-0.616
		l23.568-12.868C400.446,124.341,401.382,121.23,400.032,118.75z"/>
	<path d="M246.041,104.574c27.891-0.535,50.34-23.295,50.34-51.314s-22.449-50.78-50.34-51.314
		c-27.891,0.535-50.34,23.295-50.34,51.314S218.15,104.04,246.041,104.574z"/>
	<path d="M376.824,189.184c-14.824-0.008-33.009-0.671-41.242-1.692c-2.491-3.406-6.239-9.061-9.172-13.484
		c-10.415-15.708-22.816-34.312-36.396-47.196c-10.089-9.573-19.177-16.166-30.979-19.367c-0.045-0.008-0.092-0.008-0.142-0.016
		l-12.397,13.016l-0.455-0.458l12.965,85.126l-12.387,16.941h-0.241l-0.337-0.461l-0.337,0.461h-0.241l-12.387-16.941l12.965-85.126
		l-0.455,0.458l-12.397-13.016c-0.05,0.008-0.097,0.008-0.142,0.016c-11.803,3.201-20.891,9.794-30.979,19.367
		c-13.579,12.885-25.98,31.488-36.396,47.196c-2.933,4.424-6.681,10.078-9.172,13.484c-8.233,1.021-26.418,1.685-41.242,1.692
		c-11.009,0.008-19.927,8.938-19.91,19.949c0.007,11.006,8.925,19.915,19.927,19.915c0,0,0.009,0,0.017,0
		c48.434-0.03,56.764-3.945,59.906-5.414c6.297-2.955,10.774-8.424,17.847-18.845v59.162c0,8.518,3.771,18.659,4.645,19.754
		c-0.131,0.998-0.142,190.709-0.142,190.709c0,13.009,9.243,23.653,22.247,23.641c13.016,0,23.561-10.545,23.554-23.563
		l-0.017-163.802l2.71,0.005l2.71-0.005l-0.017,163.802c-0.007,13.018,10.538,23.563,23.554,23.563
		c13.004,0.013,22.247-10.632,22.247-23.641c0,0-0.011-189.711-0.142-190.709c0.873-1.095,4.645-11.236,4.645-19.754v-59.162
		c7.072,10.421,11.55,15.89,17.847,18.845c3.143,1.469,11.473,5.384,59.906,5.414c0.008,0,0.017,0,0.017,0
		c11.002,0,19.92-8.909,19.927-19.915C396.751,198.122,387.833,189.191,376.824,189.184z"/>
</g>
</svg>
