<?xml version="1.0" encoding="utf-8"?>
<!-- Generator: Adobe Illustrator 16.0.4, SVG Export Plug-In . SVG Version: 6.00 Build 0)  -->
<!DOCTYPE svg PUBLIC "-//W3C//DTD SVG 1.1//EN" "http://www.w3.org/Graphics/SVG/1.1/DTD/svg11.dtd">
<svg version="1.1" id="Capa_1" xmlns="http://www.w3.org/2000/svg" xmlns:xlink="http://www.w3.org/1999/xlink" x="0px" y="0px"
	 width="64px" height="64px" viewBox="0 0 64 64" enable-background="new 0 0 64 64" xml:space="preserve">
<g>
	<circle fill="#0E0F0F" cx="56.634" cy="23.754" r="6.531"/>
	<path fill="#0E0F0F" d="M50.68,29.525c-0.02-0.039-0.046-0.07-0.064-0.107l-8.92-17.716c-0.818-1.628-2.805-2.282-4.432-1.464
		c-1.627,0.82-2.283,2.804-1.465,4.432l4.605,9.149c-4.838,0-9.675,0-14.514,0c-0.758,0-1.445,0.111-2.063,0.312
		C18.717,17.35,13.082,10.999,7.095,4.972C3.758,1.613-1.426,6.8,1.908,10.157c6.302,6.345,12.278,13.024,17.516,20.281
		c0.14,0.193,0.291,0.362,0.447,0.518c0.04,0.336,0.103,0.668,0.191,0.993c-0.023,0.177-0.04,0.357-0.04,0.55
		c0,7.983,0,15.972,0,23.955c0,4.729,7.333,4.729,7.333,0c0-6.722,0-13.443,0-20.164c5.543,0,11.086,0,16.629,0
		c0.882,0,1.66-0.156,2.35-0.424l1.861,4.032l-1.75-0.534c-1.744-0.531-3.588,0.448-4.119,2.19
		c-0.533,1.744,0.447,3.588,2.191,4.121l8.799,2.689c0.317,0.096,0.643,0.143,0.965,0.143c0.938,0,1.85-0.4,2.486-1.129
		c0.854-0.98,1.056-2.373,0.51-3.553L50.68,29.525z"/>
</g>
</svg>
