<?xml version="1.0" encoding="utf-8"?>
<!-- Generator: Adobe Illustrator 16.0.4, SVG Export Plug-In . SVG Version: 6.00 Build 0)  -->
<!DOCTYPE svg PUBLIC "-//W3C//DTD SVG 1.1//EN" "http://www.w3.org/Graphics/SVG/1.1/DTD/svg11.dtd">
<svg version="1.1" id="Capa_1" xmlns="http://www.w3.org/2000/svg" xmlns:xlink="http://www.w3.org/1999/xlink" x="0px" y="0px"
	 width="64px" height="64px" viewBox="0 0 64 64" enable-background="new 0 0 64 64" xml:space="preserve">
<g>
	<circle fill="#0E0F0F" cx="33.422" cy="26.331" r="4.037"/>
	<path fill="#0E0F0F" d="M44.561,41.336c-1.256-3.261-3.219-6.328-5.528-8.637c-0.187-0.186-0.399-0.323-0.624-0.432l0.001-0.05
		c-0.745-1-1.702-1.101-1.702-1.101l-6.522-0.026c0,0-0.306-0.008-0.718,0.072c-3.465-1.832-3.646-5.823-3.083-9.088
		c0.215-1.244-0.62-2.427-1.864-2.641c-0.112-0.02-0.221-0.021-0.331-0.023l-1.203-7.988l0.819-0.225l-0.617-0.447
		c1.291-0.658,2.083-2.546,1.841-4.664c-0.286-2.511-1.917-4.384-3.644-4.188c-1.725,0.198-2.892,2.392-2.604,4.901
		c0.273,2.391,1.767,4.202,3.399,4.198l-0.624,0.817l0.793-0.219l1.188,7.887c-0.834,0.225-1.505,0.908-1.662,1.814
		c-1.188,6.893,1.099,12.06,6.168,14.271l0.479,5.97v4.515c0,0.26,0.026,0.516,0.068,0.764c-0.002,0.05-0.008,0.097-0.008,0.146
		v13.479c0,1.348,1.006,2.439,2.245,2.439c1.238,0,2.241-1.093,2.241-2.439v-9.615c0.078,0.005,0.158,0.013,0.238,0.013
		c0.078,0,0.152-0.007,0.229-0.013v9.615c0,1.348,1.004,2.439,2.243,2.439c1.236,0,2.242-1.093,2.242-2.439V46.96
		c0-0.033-0.004-0.063-0.004-0.095c0.045-0.266,0.073-0.537,0.073-0.814v-4.246l0.097-2.904c0.832,1.265,1.549,2.645,2.102,4.078
		c0.35,0.908,1.216,1.465,2.134,1.465c0.272,0,0.552-0.049,0.821-0.151C44.423,43.837,45.012,42.516,44.561,41.336z"/>
</g>
</svg>
