<?xml version="1.0" encoding="utf-8"?>
<!-- Generator: Adobe Illustrator 16.0.0, SVG Export Plug-In . SVG Version: 6.00 Build 0)  -->
<!DOCTYPE svg PUBLIC "-//W3C//DTD SVG 1.1//EN" "http://www.w3.org/Graphics/SVG/1.1/DTD/svg11.dtd">
<svg version="1.1" id="Capa_1" xmlns="http://www.w3.org/2000/svg" xmlns:xlink="http://www.w3.org/1999/xlink" x="0px" y="0px"
	 width="64px" height="64px" viewBox="0 0 64 64" enable-background="new 0 0 64 64" xml:space="preserve">
<g>
	<path d="M27.921,7.169c0,2.904,2.354,5.259,5.26,5.259c2.627,0,4.798-1.929,5.188-4.445l3.505,0.98L42.16,7.95l-2.716-0.76
		c0.316-2.938-1.518-5.762-4.456-6.585c-3.279-0.917-6.676,0.995-7.593,4.271l0.931,0.261C28.068,5.761,27.921,6.448,27.921,7.169z"
		/>
	<path d="M59.586,27.142c-0.195,3.192-0.636,6.181-1.455,9.042c-0.642,2.271-1.505,4.454-2.521,6.57L44.157,37.16
		c0.137-0.85-0.046-1.766-0.717-2.595C39.365,29.555,38.67,24,36.156,18.094c-0.625-1.469-1.154-3.161-8.326-5.064
		c-8.418-2.235-15.624-0.09-19.454,8.197c-1.66,3.594,3.519,6.74,5.336,3.402l6.774,3.309c-0.897,2.315-1.917,4.587-3.081,6.817
		c-4.183,6.852-9.534,13-14.772,19.057c-2.822,3.477,2.103,7.084,4.965,3.758c4.283-4.953,8.151-9.275,11.967-14.647
		c0.396,0.249,9.752,5.327,9.752,5.327c-1.578,3.744-3.145,6.976-5.326,10.423c-2.298,3.633,2.942,6.74,5.413,3.053
		c2.786-4.157,4.436-8.295,6.455-12.823c0.55-1.237,0.651-2.835-0.496-3.825c-0.321-0.277-7.53-5.575-7.257-5.101
		c1.137-2.223,2.179-4.489,3.111-6.799l5.67,2.771c0.613,1.071,1.298,2.104,2.091,3.082c1.323,1.629,3.146,1.219,4.249,0.016
		l11.431,5.584c-1.357,2.54-2.927,4.989-4.64,7.385c-1.77,2.479-3.666,4.897-5.67,7.375c2.917-1.348,5.474-3.342,7.763-5.594
		c2.234-2.231,4.185-4.794,5.7-7.627l1.562,0.76l0.925-1.887l-1.56-0.762c1.068-2.399,1.815-4.961,2.101-7.583
		C61.194,33.438,60.838,30.095,59.586,27.142z M21.223,25.955l-6.571-3.21c0.944-1.74,2.16-3.339,4.073-4.072
		c1.504-0.577,3.124-0.537,4.709-0.251C22.82,20.983,22.091,23.494,21.223,25.955z M31.986,31.213
		c0.443-1.185,0.855-2.376,1.245-3.577c0.676,1.751,1.341,3.505,2.102,5.211L31.986,31.213z"/>
</g>
</svg>
