<?xml version="1.0" encoding="utf-8"?>
<!-- Generator: Adobe Illustrator 16.0.4, SVG Export Plug-In . SVG Version: 6.00 Build 0)  -->
<!DOCTYPE svg PUBLIC "-//W3C//DTD SVG 1.1//EN" "http://www.w3.org/Graphics/SVG/1.1/DTD/svg11.dtd">
<svg version="1.1" id="Capa_1" xmlns="http://www.w3.org/2000/svg" xmlns:xlink="http://www.w3.org/1999/xlink" x="0px" y="0px"
	 width="64px" height="64px" viewBox="0 0 64 64" enable-background="new 0 0 64 64" xml:space="preserve">
<g>
	<path fill="#101111" d="M46.613,24.236c-0.477-0.167-0.918-0.224-1.321-0.199c-0.222-0.072-0.446-0.134-0.679-0.182l-10.4-2.148
		c3.199-2.714,6.082-5.789,8.387-9.101c2.5-3.59-3.367-6.964-5.841-3.412c-2.89,4.152-6.997,7.812-11.381,10.724
		c-3.167-0.322-6.13,1.797-6.788,4.984c-0.045,0.226-0.078,0.451-0.099,0.676c-0.473,0.687-0.719,1.556-0.559,2.566
		c0.76,4.805,1.895,9.635-0.956,13.963c-2.408,3.651,3.452,7.035,5.84,3.41c2.659-4.033,2.944-8.367,2.527-12.803l16.019,3.307
		c-2.653,7.6-5.233,16.022-7.447,22.953c-1.33,4.166,5.199,5.938,6.521,1.801c2.439-7.637,5.321-17.078,8.256-25.24
		c0.832,2.503,1.095,5.398,1.328,7.377c0.604,5.146,0.547,12.484,2.099,17.467c1.293,4.148,7.823,2.377,6.522-1.797
		C55.46,48.372,59.471,28.76,46.613,24.236z"/>
	<circle fill="#101111" cx="10.849" cy="25.834" r="5.799"/>
	<polygon fill="#101111" points="26.444,61.18 15.464,61.18 13.458,40.542 11.821,40.705 13.973,62.825 27.936,62.825 
		30.088,40.705 28.451,40.542 	"/>
	<path fill="#101111" d="M21.766,48.575c0,0-0.417,1.008,0,1.51c0.038,0.047,0.063,0.078,0.09,0.106v0.463
		c0,0,1.35-0.312,1.365-0.09h1.01V49.24h-0.205v-0.754h-1.508c0,0-0.548-0.959,0,0.089C23.067,49.628,21.766,48.575,21.766,48.575z"
		/>
	<path fill="#101111" d="M23.18,50.654c0.034-0.039,0.044-0.067,0.041-0.09H23.18C23.18,50.564,22.838,51.044,23.18,50.654z"/>
	<path fill="#101111" d="M22.074,57.518c0,0-0.311-0.502-0.084-0.039c0.022,0.049,0.044,0.069,0.068,0.073L22.074,57.518z"/>
	<path fill="#101111" d="M24.453,56.971c0,0-0.769-0.768-1.391-0.578c-0.058,0.019-0.097,0.031-0.134,0.043l-0.429-0.179
		c0,0-0.229,1.366-0.44,1.295l-0.387,0.935l1.222,0.51l0.078-0.189l0.696,0.289l0.58-1.394c0,0,1.096-0.136-0.084-0.035
		C22.983,57.771,24.453,56.971,24.453,56.971z"/>
	<path fill="#101111" d="M17.026,52.309c-0.029,0.051-0.047,0.086-0.065,0.125l-0.43,0.176c0,0,0.802,1.124,0.606,1.225
		l-0.017-0.037c0,0-0.575-0.134-0.083,0.036c0.047,0.017,0.079,0.017,0.1,0.002c0,0,0,0.001,0,0.001l0.385,0.934l1.225-0.504
		l-0.079-0.188l0.697-0.29l-0.575-1.393c0,0,0.679-0.873-0.084,0.037c-0.763,0.902-0.288-0.701-0.288-0.701
		S17.332,51.73,17.026,52.309z"/>
	<path fill="#101111" d="M23.035,7.567c0.707-0.428,1.736-1.018,3-1.67c2.53-1.301,6.038-2.838,9.734-3.746
		c0.924-0.234,1.854-0.415,2.78-0.567c0.462-0.071,0.923-0.124,1.378-0.183c0.457-0.035,0.907-0.086,1.352-0.104
		c1.783-0.093,3.455,0.033,4.861,0.297c0.353,0.073,0.688,0.146,1.006,0.213c0.312,0.091,0.609,0.177,0.89,0.258
		c0.563,0.157,1.026,0.37,1.424,0.508c0.758,0.354,1.192,0.555,1.192,0.555s-0.426-0.222-1.17-0.608
		c-0.393-0.156-0.85-0.389-1.404-0.574c-0.281-0.094-0.577-0.194-0.891-0.299c-0.316-0.083-0.651-0.169-1.002-0.26
		c-1.412-0.329-3.103-0.532-4.916-0.517c-0.455,0-0.914,0.029-1.383,0.044c-0.466,0.04-0.936,0.074-1.41,0.125
		c-0.947,0.113-1.906,0.254-2.854,0.454C31.815,2.25,28.176,3.657,25.537,4.87c-1.321,0.61-2.4,1.167-3.148,1.576
		c-0.743,0.406-1.172,0.669-1.172,0.669l0.729,1.139C21.945,8.254,22.322,8,23.035,7.567z"/>
	<path fill="#101111" d="M56.465,7.986l0.939,0.391L58.188,6.5c0,0,1.477-0.186-0.113-0.048c-1.594,0.137,0.389-0.939,0.389-0.939
		s-1.036-1.037-1.877-0.781c-0.074,0.024-0.128,0.041-0.182,0.059l-0.574-0.24c0,0-0.311,1.844-0.598,1.748L54.71,7.555l1.651,0.687
		L56.465,7.986z"/>
</g>
</svg>
