<?xml version="1.0" encoding="utf-8"?>
<!-- Generator: Adobe Illustrator 16.0.4, SVG Export Plug-In . SVG Version: 6.00 Build 0)  -->
<!DOCTYPE svg PUBLIC "-//W3C//DTD SVG 1.1//EN" "http://www.w3.org/Graphics/SVG/1.1/DTD/svg11.dtd">
<svg version="1.1" id="Capa_1" xmlns="http://www.w3.org/2000/svg" xmlns:xlink="http://www.w3.org/1999/xlink" x="0px" y="0px"
	 width="64px" height="64px" viewBox="0 0 64 64" enable-background="new 0 0 64 64" xml:space="preserve">
<g>
	<ellipse fill="#0E0F0F" cx="31.492" cy="10.649" rx="4.306" ry="4.355"/>
	<path fill="#0E0F0F" d="M42.227,22.391c-0.929-2.036-2.109-3.97-3.875-5.369c-0.189-0.15-0.388-0.25-0.586-0.327
		c-0.014-0.016-0.021-0.035-0.035-0.05c-2.656-1.349-8.126-1.001-10.905-0.602c-0.171,0.001-0.35,0.019-0.544,0.073
		c-0.108,0.03-0.218,0.046-0.327,0.07c-0.073,0.014-0.155,0.028-0.219,0.042v0.006c-1.541,0.29-3.127,0.044-4.62-0.451
		c-0.776-1.708-1.385-3.494-1.699-5.348c-0.016-0.094-0.046-0.175-0.071-0.261l-0.787-3.578c-0.071-0.321-0.386-0.524-0.703-0.452
		c-0.318,0.071-0.52,0.39-0.448,0.711l0.426,1.941c-1.25-0.224-2.723,0.643-2.445,2.285c0.322,1.9,0.886,3.771,1.635,5.543
		c0.417,0.986,0.803,2.316,1.886,2.742c2.036,0.799,4.39,1.314,6.607,1.074l-0.081,1.552c0.004,3.194,0.021,15.185,0.021,15.354
		l0.083,17.986c0,1.376,1.133,2.491,2.531,2.491s2.533-1.115,2.533-2.491v-17.43c0,0-0.023-0.859,0.867-0.85
		c0.891,0.01,0.972,0.893,0.972,0.893v17.436c0,1.375,1.133,2.49,2.531,2.49c1.4,0,2.396-1.115,2.396-2.49V38.646l-0.007-2.652
		c1.977-1.283,3.517-3.137,4.621-5.229c0.606-1.149,1.658-2.755,1.658-4.122C43.643,25.247,42.782,23.608,42.227,22.391z
		 M39.34,26.88c-0.271,0.611-0.55,1.223-0.878,1.805c-0.343,0.606-0.712,1.184-1.114,1.731l-0.021-8.473
		c0.979,1.381,1.664,2.996,2.133,4.621C39.434,26.654,39.395,26.757,39.34,26.88z M39.508,26.385
		C39.507,26.175,39.551,26.178,39.508,26.385L39.508,26.385z"/>
</g>
</svg>
