<?xml version="1.0" encoding="utf-8"?>
<!-- Generator: Adobe Illustrator 16.0.4, SVG Export Plug-In . SVG Version: 6.00 Build 0)  -->
<!DOCTYPE svg PUBLIC "-//W3C//DTD SVG 1.1//EN" "http://www.w3.org/Graphics/SVG/1.1/DTD/svg11.dtd">
<svg version="1.1" id="Capa_1" xmlns="http://www.w3.org/2000/svg" xmlns:xlink="http://www.w3.org/1999/xlink" x="0px" y="0px"
	 width="64px" height="64px" viewBox="0 0 64 64" enable-background="new 0 0 64 64" xml:space="preserve">
<g>
	<path fill="#0E0F0F" d="M47.423,46.709c-1.544-3.719-2.957-7.46-4.116-11.318c-0.035-0.209-0.064-0.418-0.121-0.625
		c-1.115-4.143-2.229-8.285-3.346-12.427c2.946-1.311,5.615-3.398,7.812-5.686c0.811-0.845,1.039-2.174,0.412-3.2
		c-1.566-2.564-3.135-5.13-4.701-7.695c-1.771-2.9-6.342-0.249-4.562,2.666c1.211,1.977,2.417,3.954,3.625,5.931
		c-1.931,1.729-4.166,3.198-6.65,3.839c-0.135,0.035-0.25,0.086-0.367,0.135c-0.639-0.035-1.271,0.047-1.846,0.262
		c-0.359,0.136-0.678,0.312-0.971,0.508c-0.027-0.001-0.049-0.009-0.076-0.009c-4.471-0.093-8.459-1.521-12.199-3.93
		c-2.872-1.85-5.517,2.723-2.666,4.56c4.013,2.584,8.415,4.159,13.122,4.553c0.023,0.107,0.033,0.215,0.062,0.322
		c1.207,4.481,2.415,8.963,3.621,13.446c0,0.001,0.001,0.002,0.001,0.003c-3.242,2.55-6.323,5.343-9.832,7.513
		c-2.889,1.789-0.24,6.358,2.666,4.56c4.012-2.48,7.452-5.765,11.221-8.58c0.204-0.152,0.368-0.323,0.514-0.501
		c0.19-0.006,0.382-0.018,0.568-0.045c0.754,2.144,1.568,4.264,2.432,6.371c-2.377,2.649-4.549,5.469-6.371,8.535
		c-1.739,2.938,2.824,5.592,4.562,2.664c1.908-3.217,4.194-6.097,6.763-8.813c0.809-0.854,0.881-1.858,0.545-2.707
		C47.491,46.93,47.471,46.823,47.423,46.709z"/>
	<circle fill="#0E0F0F" cx="32.502" cy="11.888" r="4.798"/>
	<circle fill="#0E0F0F" cx="19.175" cy="10.366" r="4.125"/>
</g>
</svg>
