<?xml version="1.0" encoding="utf-8"?>
<!-- Generator: Adobe Illustrator 16.0.4, SVG Export Plug-In . SVG Version: 6.00 Build 0)  -->
<!DOCTYPE svg PUBLIC "-//W3C//DTD SVG 1.1//EN" "http://www.w3.org/Graphics/SVG/1.1/DTD/svg11.dtd">
<svg version="1.1" id="Capa_1" xmlns="http://www.w3.org/2000/svg" xmlns:xlink="http://www.w3.org/1999/xlink" x="0px" y="0px"
	 width="64px" height="64px" viewBox="0 0 64 64" enable-background="new 0 0 64 64" xml:space="preserve">
<g>
	<circle fill="#0E0F0F" cx="36.895" cy="31.486" r="1.931"/>
	<path fill="#0E0F0F" d="M37.43,34.205c-0.148-0.014-0.281,0.001-0.404,0.029c-0.051-0.014-0.104-0.019-0.154-0.026
		c-0.12-0.06-0.256-0.103-0.413-0.117c-2.26-0.215-3.593-1.461-3.567-3.792c0.017-1.52-2.352-1.78-2.369-0.242
		c-0.032,2.972,1.383,5.147,3.903,6.021c-0.163,1.581-0.376,3.16-0.62,4.732c-1.197-0.19-2.408-0.227-3.635-0.119
		c-0.722,0.062-1.016,0.617-0.97,1.174c-0.044,0.21-0.03,0.443,0.076,0.691c0.558,1.319,1.116,2.643,1.673,3.963
		c0.597,1.418,2.775,0.459,2.181-0.951c-0.36-0.854-0.72-1.707-1.081-2.562c0.924,0.036,1.842,0.176,2.727,0.446
		c0.146,0.044,0.285,0.056,0.418,0.051c-0.23,2.317-0.459,4.634-0.689,6.952c-0.15,1.525,2.217,1.771,2.368,0.24
		c0.292-2.938,0.583-5.875,0.876-8.815c0.009-0.085,0.007-0.164,0-0.241c0.018-0.068,0.042-0.132,0.053-0.205
		c0.242-1.529,0.446-3.066,0.612-4.608c1.506,0.502,2.364,1.671,2.343,3.543c-0.016,1.519,2.352,1.78,2.369,0.241
		C43.16,36.993,41.062,34.553,37.43,34.205z"/>
	<path fill="#0E0F0F" d="M28.865,21.568l-0.387-0.219c0.57-1.003,1.395-1.704,1.578-2.311l0.016,0.049l2.265,0.374
		c0.034,0.037,0.083,0.079,0.151,0.117c0.284,0.162,0.858,0.229,1.971-0.371c0.402-0.217,0.583-0.409,0.586-0.621
		c0.001-0.101-0.04-0.245-0.243-0.36c-0.05-0.029-0.108-0.054-0.173-0.077c0.036-0.001,0.071-0.001,0.104-0.003
		c0.463-0.012,0.799-0.021,0.988-0.259c0.162-0.199,0.182-0.499,0.078-1.068c-0.054-0.281-0.176-0.478-0.363-0.584
		C35,15.987,34.374,16.304,33.77,16.61c-0.316,0.161-0.795,0.403-0.914,0.334c-0.012-0.006-0.032-0.042-0.039-0.131
		c-0.01-0.205-0.08-0.345-0.205-0.415c-0.49-0.28-1.571,0.984-2.438,2.168l-0.111,0.038c-0.072-0.224-0.275-0.442-0.667-0.665
		c-1.641-0.934-5.927-1.612-6.86,0.029l-0.387-0.22c-0.535-0.305-1.215-0.118-1.52,0.417c-0.304,0.535-0.117,1.215,0.418,1.52
		l0.149,0.085c-0.131,0.229-0.232,0.467-0.31,0.71l-8.833-6.861l-1.277-3.082l-2.524,3.209l3.367,0.57l2.897,2.25
		c-0.45,0.125-0.858,0.443-1.126,1.024c-1.178,2.551-2.294,5.491-0.568,8.068c0.877,1.309,2.313,2.403,3.662,3.445
		c-0.97,2.26-2.067,4.463-3.323,6.581c-2.063,0.629-4.167,1.073-6.314,1.394c-0.235,0.036-0.431,0.106-0.608,0.192
		c-1.153,0.146-2.256,1.144-1.919,2.613c0.645,2.809,1.253,5.625,1.897,8.434c0.609,2.65,4.675,1.527,4.067-1.121
		c-0.473-2.063-0.931-4.131-1.395-6.198c1.488-0.249,2.957-0.562,4.405-0.958c0.067,0.072,0.137,0.146,0.209,0.215
		c-1.043,2.066-1.507,4.336-0.007,5.84c1.628,1.635,3.628,2.986,5.5,4.328c2.216,1.588,4.319-2.074,2.128-3.643
		c-1.416-1.014-2.923-2.038-4.212-3.245c0.29-0.993,0.686-1.918,1.231-2.779c0.379-0.271,0.725-0.637,1.015-1.116
		c1.69-2.796,3.057-5.746,4.307-8.757l-0.604,9.492l5.311-1.263L23.712,26.99L23.7,27.187c-0.494-0.894-1.354-1.617-2.271-1.869
		c-0.938-0.257-1.785-0.129-2.499,0.255c-0.261-0.225-0.521-0.449-0.782-0.674c-0.638-0.548-1.5-1.092-1.972-1.797
		c-0.523-0.781,0.542-2.704,0.855-3.383c0.165-0.359,0.219-0.709,0.203-1.042l3.487,2.708c-0.075,1.354,0.599,2.7,1.857,3.416
		c1.771,1.008,4.025,0.388,5.033-1.383l0.15,0.086c0.535,0.304,1.215,0.117,1.52-0.417C29.587,22.553,29.399,21.872,28.865,21.568z"
		/>
	<path fill="#0E0F0F" d="M53.41,37c1.181-0.393,1.818-1.666,1.427-2.846c-0.394-1.18-1.666-1.818-2.846-1.426
		c-1.181,0.391-1.819,1.666-1.427,2.845C50.957,36.756,52.23,37.393,53.41,37z"/>
	<path fill="#0E0F0F" d="M59.734,37.302c-0.387-0.331-0.971-0.286-1.301,0.101c-0.639,0.742-1.328,1.353-2.193,2.045
		c-0.801-0.6-1.647-1.125-2.508-1.553c-0.17-0.134-0.369-0.228-0.584-0.281c-0.028-0.012-0.059-0.029-0.086-0.043
		c-0.258-0.112-0.539-0.094-0.774,0.021c-0.04,0.01-0.08,0.018-0.12,0.029c-0.148,0.011-0.297,0.053-0.43,0.137
		c-1.062,0.676-2.09,1.537-3.012,2.508c-1.043-0.221-1.912-0.449-2.797-0.812c-0.468-0.193-1.007,0.031-1.201,0.501
		c-0.193,0.471,0.03,1.01,0.5,1.202c1.125,0.464,2.222,0.734,3.52,0.996c0.131,0.025,0.26,0.018,0.381-0.012
		c0.082-0.002,0.165-0.019,0.244-0.045c0.146-0.049,0.281-0.133,0.393-0.257c0.308-0.34,0.639-0.663,0.979-0.979
		c-0.04,1.08-0.093,2.158-0.162,3.234c-1.157,0.344-2.188,0.977-3.263,1.537c-0.434,0.229-0.656,0.594-0.619,1.087
		c0.104,1.298,0.222,2.617,0.773,3.813c0.551,1.197,2.44,0.41,1.887-0.792c-0.375-0.813-0.497-1.703-0.575-2.591
		c0.79-0.445,1.598-0.907,2.467-1.125c0.288,0.201,0.626,0.326,0.956,0.347c0.555,1.69,1.725,3.913,2.156,4.714
		c0.195,0.355,0.562,0.561,0.943,0.561c0.172,0,0.348-0.041,0.51-0.127c0.521-0.283,0.716-0.936,0.435-1.455
		c-1.062-1.957-2.196-4.48-2.196-5.121c0-0.105-0.02-0.205-0.049-0.301c0.006-0.031,0.012-0.061,0.014-0.092
		c0.094-1.419,0.164-2.837,0.211-4.256c0.485,0.311,0.963,0.646,1.406,1.007c0.254,0.206,0.584,0.255,0.875,0.159
		c0.127-0.044,0.242-0.124,0.348-0.225c0.002-0.002,0.005-0.002,0.007-0.002c0.098-0.032,0.192-0.084,0.278-0.152
		c1.041-0.823,1.896-1.561,2.688-2.479C60.162,38.215,60.12,37.634,59.734,37.302z"/>
</g>
</svg>
