<?xml version="1.0" encoding="utf-8"?>
<!-- Generator: Adobe Illustrator 16.0.4, SVG Export Plug-In . SVG Version: 6.00 Build 0)  -->
<!DOCTYPE svg PUBLIC "-//W3C//DTD SVG 1.1//EN" "http://www.w3.org/Graphics/SVG/1.1/DTD/svg11.dtd">
<svg version="1.1" id="Capa_1" xmlns="http://www.w3.org/2000/svg" xmlns:xlink="http://www.w3.org/1999/xlink" x="0px" y="0px"
	 width="64px" height="64px" viewBox="0 0 64 64" enable-background="new 0 0 64 64" xml:space="preserve">
<g>
	<circle fill="#111212" cx="52.413" cy="24.257" r="4.063"/>
	<path fill="#111212" d="M16.682,40.604c4.17-2.039,8.34-4.076,12.511-6.115c1.361,2.027,3.799,2.242,5.836,1.195
		c2.48-1.274,4.963-2.55,7.441-3.824c0.104,2.33,0.204,4.662,0.305,6.992c0.129,2.924,4.662,2.727,4.533-0.197
		c-0.137-3.146-0.272-6.292-0.41-9.437c1.051-1.38,1.08-3.542,0.168-4.954c-1.353-2.089-3.822-2.319-5.885-1.261
		c-3.592,1.846-7.184,3.691-10.774,5.536c-0.409,0.21-0.748,0.5-1.024,0.839c-5.053,2.47-10.105,4.94-15.159,7.411
		C11.6,38.07,14.081,41.874,16.682,40.604z"/>
	<rect x="7.357" y="41.245" fill="#111212" width="48.483" height="2.627"/>
</g>
</svg>
