<?xml version="1.0" encoding="utf-8"?>
<!-- Generator: Adobe Illustrator 16.0.4, SVG Export Plug-In . SVG Version: 6.00 Build 0)  -->
<!DOCTYPE svg PUBLIC "-//W3C//DTD SVG 1.1//EN" "http://www.w3.org/Graphics/SVG/1.1/DTD/svg11.dtd">
<svg version="1.1" id="Capa_1" xmlns="http://www.w3.org/2000/svg" xmlns:xlink="http://www.w3.org/1999/xlink" x="0px" y="0px"
	 width="64px" height="64px" viewBox="0 0 64 64" enable-background="new 0 0 64 64" xml:space="preserve">
<g>
	<path fill="#0E0F0F" d="M47.9,61.502l-8.519-21.075c0.082-0.153,0.155-0.317,0.216-0.497c0.947-2.906,2.146-8.091,0.237-10.826
		c-1.524-2.184-3.049-4.366-4.571-6.55c0-0.226,0-0.452,0-0.679c1.608,1.709,3.106,3.519,4.436,5.466
		c0.998,1.464,2.701,1.491,3.888,0.783l0.36,0.72c0,0.202,0.16,0.365,0.365,0.365c0.201,0,0.363-0.163,0.363-0.365l-0.557-1.121
		c0.808-0.76,1.136-1.937,0.309-3.146c-1.494-2.192-3.154-4.24-4.939-6.172l-2.758-5.548c0.705-0.05,1.226-0.207,1.226-0.394
		c0-0.222-0.724-0.4-1.624-0.409l-0.634-1.273c0-0.203-0.163-0.366-0.366-0.366c-0.2,0-0.364,0.163-0.364,0.366l0.647,1.304
		c-0.609,0.062-1.039,0.208-1.039,0.378c0,0.205,0.619,0.374,1.43,0.405l1.965,3.954c-1.119-1.125-2.279-2.21-3.479-3.255
		c-0.83-1.264-2.247-2.117-3.854-2.127c-1.486-0.01-2.844,0.718-3.713,1.834c-1.663,1.43-3.255,2.93-4.76,4.51l2.43-4.889
		c0.816-0.029,1.444-0.198,1.444-0.405c0-0.171-0.437-0.318-1.054-0.38L25.537,11c0-0.204-0.164-0.366-0.365-0.366
		c-0.203,0-0.365,0.163-0.365,0.366l-0.538,1.081c-0.895,0.011-1.609,0.189-1.609,0.409c0,0.187,0.513,0.341,1.211,0.392
		l-3.301,6.642c-1.403,1.6-2.72,3.28-3.929,5.054c-0.715,1.048-0.562,2.071,0.016,2.82l-0.829,1.667
		c0,0.203,0.163,0.365,0.366,0.365c0.199,0,0.365-0.162,0.365-0.365l0.584-1.176c1.178,0.934,3.132,1.065,4.229-0.547
		c1.367-2.003,2.913-3.862,4.575-5.615c0,0.395,0,0.791,0,1.187c0,0.333,0.037,0.659,0.105,0.975
		c-1.37,1.964-2.741,3.926-4.11,5.889c-1.91,2.736-0.711,7.917,0.238,10.826c0.102,0.312,0.24,0.582,0.407,0.813l-8.116,20.086
		c-0.056,0.222,0.077,0.442,0.296,0.498l7.479-0.261c0.218,0.056,0.441-0.077,0.496-0.297l6.588-25.909
		c0.055-0.22-0.077-0.441-0.296-0.496L26.65,34.43c-0.034-0.533-0.057-1.068-0.074-1.607c-0.001-0.051-0.002-0.09-0.003-0.135
		c0.171-0.246,0.342-0.491,0.514-0.736c1.017-1.458,2.034-2.915,3.052-4.372c0.143,0.015,0.286,0.024,0.434,0.025
		c0.485,0.003,0.958-0.074,1.404-0.216c0.825,1.181,1.649,2.362,2.475,3.543c0.252,0.361,0.503,0.722,0.754,1.083
		c-0.015,0.86-0.054,1.724-0.136,2.583l-1.733,0.439c-0.217,0.055-0.351,0.277-0.294,0.496l6.587,25.91
		c0.056,0.219,0.277,0.352,0.496,0.295L47.604,62C47.823,61.943,47.956,61.723,47.9,61.502z"/>
	<circle fill="#0E0F0F" cx="30.414" cy="6.508" r="4.566"/>
</g>
</svg>
