<?xml version="1.0" encoding="utf-8"?>
<!-- Generator: Adobe Illustrator 16.0.4, SVG Export Plug-In . SVG Version: 6.00 Build 0)  -->
<!DOCTYPE svg PUBLIC "-//W3C//DTD SVG 1.1//EN" "http://www.w3.org/Graphics/SVG/1.1/DTD/svg11.dtd">
<svg version="1.1" id="Capa_1" xmlns="http://www.w3.org/2000/svg" xmlns:xlink="http://www.w3.org/1999/xlink" x="0px" y="0px"
	 width="64px" height="64px" viewBox="0 0 64 64" enable-background="new 0 0 64 64" xml:space="preserve">
<path fill="#0E0F0F" d="M46.773,53.104c-2.496-0.683-4.987-1.386-7.479-2.082c0.756-2.398,1.345-4.834,1.716-7.336
	c0.115-0.34,0.198-0.709,0.233-1.113c0.327-3.793,0.252-7.579,0.021-11.369L45.633,41.4l5.064-4.188l-10.045-9.339
	c-0.916-1.471-2.938-2.285-4.568-1.973c-1.318,0.252-2.24,0.989-2.795,1.969c-0.062,0.004-0.123,0.009-0.184,0.013
	c-1.01,0.074-2.208,0.343-3.208,0.143c-1.109-0.221-1.837-2.765-2.147-3.611c-0.008-0.022-0.019-0.042-0.027-0.064l5.763-0.714
	c1.088,1.217,2.803,1.791,4.482,1.332c2.367-0.646,3.762-3.087,3.116-5.455l0.2-0.055c0.715-0.195,1.137-0.932,0.941-1.647
	c-0.197-0.715-0.934-1.137-1.647-0.942l-0.519,0.141c-0.365-1.338-0.256-2.638-0.615-3.313l0.055,0.031l2.249-1.606
	c0.062,0.003,0.138-0.003,0.228-0.027c0.381-0.104,0.928-0.534,1.366-1.99c0.158-0.528,0.151-0.845-0.026-1.027
	c-0.084-0.087-0.242-0.174-0.515-0.1c-0.065,0.019-0.138,0.045-0.211,0.081c0.029-0.031,0.058-0.061,0.086-0.091
	c0.384-0.403,0.662-0.696,0.623-1.062c-0.03-0.307-0.268-0.58-0.844-0.975c-0.284-0.196-0.554-0.26-0.804-0.192
	c-0.584,0.159-0.848,0.961-1.104,1.737c-0.133,0.405-0.336,1.019-0.495,1.062c-0.017,0.004-0.062-0.008-0.145-0.081
	c-0.184-0.164-0.361-0.225-0.527-0.18c-0.654,0.179-0.502,2.176-0.234,3.921l-0.063,0.127c-0.253-0.13-0.608-0.145-1.135-0.001
	c-2.192,0.598-6.423,3.661-5.825,5.853l-0.517,0.141c-0.716,0.195-1.137,0.933-0.941,1.648c0.194,0.715,0.932,1.137,1.646,0.942
	l0.201-0.055c0.088,0.32,0.209,0.621,0.357,0.903c-1.367,0.194-3.449,0.483-5.652,0.767c-1.268-1.409-3.748-0.976-4.391,0.526
	c-1.071,0.117-2.073,0.215-2.925,0.28c-4.862,0.372-7.673-6.185-6.898-3.12s3.764,6.458,3.764,6.458l3.357-2.374l2.553-0.316
	c0.016,0.227,0.064,0.466,0.157,0.719c1.164,3.176,2.708,6.632,6.37,7.365c1.118,0.223,2.343,0.203,3.582,0.1
	c0.121,2.693,0.098,5.392-0.101,8.082c-3.497,0.548-10.304,2.726-9.792,7.139c0.32,2.76,1.201,5.527,1.971,8.191
	c0.911,3.152,5.626,1.261,4.728-1.854c-0.582-2.014-1.243-4.106-1.56-6.209c1.594-1.134,3.311-1.931,5.32-2.235
	c0.455-0.069,0.832-0.231,1.138-0.453c0.272,0.162,0.562,0.295,0.862,0.396c-0.476,2.022-1.08,4.011-1.787,5.979
	c-0.502,1.397,0.252,2.386,1.324,2.763c0.211,0.13,0.45,0.237,0.725,0.313c3.347,0.916,6.681,1.875,10.027,2.791
	C48.803,58.92,49.928,53.967,46.773,53.104z"/>
</svg>
