<?xml version="1.0" encoding="utf-8"?>
<!-- Generator: Adobe Illustrator 16.0.4, SVG Export Plug-In . SVG Version: 6.00 Build 0)  -->
<!DOCTYPE svg PUBLIC "-//W3C//DTD SVG 1.1//EN" "http://www.w3.org/Graphics/SVG/1.1/DTD/svg11.dtd">
<svg version="1.1" id="Capa_1" xmlns="http://www.w3.org/2000/svg" xmlns:xlink="http://www.w3.org/1999/xlink" x="0px" y="0px"
	 width="64px" height="64px" viewBox="0 0 64 64" enable-background="new 0 0 64 64" xml:space="preserve">
<g>
	<path fill="#0E0F0F" d="M36.371,15.57c-0.037-0.083-0.075-0.17-0.109-0.231L33.87,18.23l0.306-1.834v-0.89h-2.274v0.89l0.214,1.8
		L29.7,14.892c-0.369,0.184-0.712,0.415-1.021,0.688c-1.732-0.519-3.29-1.474-4.807-2.445c-0.142-0.091-0.277-0.192-0.417-0.286
		c0.947-1.119,1.92-2.215,2.944-3.261c2.677-2.733-1.515-6.929-4.194-4.194c-1.829,1.868-3.505,3.893-5.14,5.931
		c-0.91,1.135-1.372,3.123,0,4.194c3.018,2.355,6.377,4.776,10.112,5.812c0.008,2.172,0.027,4.343,0.081,6.513l-5.723,14.715h4.621
		c-0.019,0.154-0.04,0.307-0.04,0.476c0,5.153,0,10.305,0,15.458c0,3.824,5.041,3.824,5.041,0c0-5.153,0-10.305,0-15.458
		c0-0.169-0.021-0.321-0.04-0.476h3.11c-0.019,0.154-0.04,0.307-0.04,0.476c0,5.153,0,10.305,0,15.458c0,3.824,5.039,3.824,5.039,0
		c0-5.153,0-10.305,0-15.458c0-0.169-0.021-0.321-0.04-0.476h4.474l-3.393-7.676c3.118-1.994,6.137-4.53,6.43-8.352
		C47.049,21.921,37.489,16.22,36.371,15.57z M32.598,23.208c0.438,0,0.793,0.354,0.793,0.791s-0.354,0.792-0.793,0.792
		c-0.437,0-0.791-0.355-0.791-0.792S32.161,23.208,32.598,23.208z M32.598,25.5c0.438,0,0.793,0.354,0.793,0.79
		c0,0.437-0.354,0.791-0.793,0.791c-0.437,0-0.791-0.354-0.791-0.791C31.807,25.854,32.161,25.5,32.598,25.5z M32.598,29.517
		c-0.437,0-0.791-0.353-0.791-0.79s0.354-0.791,0.791-0.791c0.438,0,0.793,0.354,0.793,0.791S33.036,29.517,32.598,29.517z
		 M37.869,29.456l-0.516-1.166c-0.041-1.524-0.066-3.049-0.082-4.574c1.548,0.793,3.131,1.813,3.49,2.807
		C41.016,27.228,39.466,28.429,37.869,29.456z"/>
	<path fill="#0E0F0F" d="M35.075,8.636c0,0,2.838,5.006,2.838,2.238s-2.245-5.011-5.013-5.01c-2.767,0-5.01,2.242-5.01,5.01
		S35.075,8.636,35.075,8.636z"/>
	<path fill="#0E0F0F" d="M38.657,4.959c0.268-0.153,0.534-0.295,0.771-0.396c0.23-0.102,0.467-0.146,0.491-0.092
		c0.015,0.022-0.06,0.054-0.126,0.049c-0.066-0.003-0.094-0.016-0.09,0.018c0,0.023,0.038,0.115,0.049,0.159l0.039,0.1
		c-0.007-0.009,0.018,0.051,0.021,0.072l0.062,0.191l0.533,1.695c0.402,1.186,0.955,2.519,2.021,3.583
		c0.531,0.522,1.193,0.943,1.899,1.147c0.707,0.202,1.428,0.206,2.082,0.012c-0.578-0.368-1.073-0.724-1.455-1.135
		c-0.383-0.402-0.668-0.829-0.901-1.292c-0.473-0.918-0.766-1.985-1.156-3.15c-0.2-0.583-0.41-1.193-0.727-1.827l-0.125-0.239
		l-0.074-0.139l-0.065-0.11c-0.138-0.232-0.269-0.403-0.478-0.613c-0.199-0.198-0.48-0.411-0.838-0.527
		c-0.357-0.118-0.754-0.108-1.046-0.025c-0.3,0.077-0.521,0.211-0.703,0.341c-0.182,0.132-0.333,0.267-0.459,0.408
		c-0.259,0.278-0.45,0.561-0.628,0.844c-0.172,0.285-0.326,0.566-0.468,0.852c-0.073,0.142-0.146,0.282-0.226,0.416
		c-0.076,0.141-0.156,0.269-0.28,0.389c0.36,0.032,0.702-0.141,1.006-0.274C38.098,5.273,38.38,5.107,38.657,4.959z"/>
</g>
</svg>
