<?xml version="1.0" encoding="utf-8"?>
<!-- Generator: Adobe Illustrator 16.0.4, SVG Export Plug-In . SVG Version: 6.00 Build 0)  -->
<!DOCTYPE svg PUBLIC "-//W3C//DTD SVG 1.1//EN" "http://www.w3.org/Graphics/SVG/1.1/DTD/svg11.dtd">
<svg version="1.1" id="Capa_1" xmlns="http://www.w3.org/2000/svg" xmlns:xlink="http://www.w3.org/1999/xlink" x="0px" y="0px"
	 width="64px" height="64px" viewBox="0 0 64 64" enable-background="new 0 0 64 64" xml:space="preserve">
<g>
	<path fill="#0E0F0F" d="M50.384,40.225c-0.258-0.004-5.538-0.076-9.214,0.18c-0.141-0.219-0.292-0.452-0.439-0.682l3.494-1.354
		l-9.158-12.26c-0.404-1.75-0.709-3.5-0.926-5.242c4.002,1.705,5.618,4.601,5.618,9.451c0,1.382,1.124,2.501,2.505,2.501
		c1.383,0,2.502-1.119,2.502-2.501c0-12.243-9.082-14.956-15.915-15.932c-1.278-0.182-2.47,0.651-2.773,1.889
		c-0.161,0.173-0.307,0.362-0.417,0.585c-2.482,5.017-6.572,7.736-12.16,8.081c-1.378,0.085-2.428,1.272-2.343,2.652
		c0.082,1.327,1.183,2.35,2.496,2.35c0.051,0,0.104-0.001,0.156-0.006c4.836-0.298,8.917-2.013,12.087-5.014
		c0.313,1.776,0.698,3.552,1.174,5.326l-0.242,0.137l-2.921,15.861l4.934-1.912c-0.47,3.619-1.1,7.583-1.645,11.014
		c-0.201,1.262-0.388,2.437-0.547,3.479c-0.21,1.364,0.726,2.644,2.092,2.854c0.129,0.02,0.258,0.028,0.384,0.028
		c1.215,0,2.281-0.885,2.472-2.124c0.159-1.033,0.344-2.2,0.543-3.453c0.689-4.326,1.509-9.488,1.993-13.851l1.831-0.712
		c0.104,0.16,0.206,0.32,0.307,0.477c0.562,0.867,1.09,1.688,1.447,2.282c0.457,0.761,1.274,1.215,2.146,1.215
		c0.103,0,0.207-0.006,0.311-0.019c3.124-0.391,10.062-0.295,10.135-0.295c0.014,0,0.023,0,0.035,0c1.366,0,2.482-1.097,2.502-2.467
		C52.867,41.38,51.766,40.243,50.384,40.225z"/>
	<path fill="#0E0F0F" d="M28.725,6.698c-0.694,2.465,4.863,5.229,4.863,5.229c0.168-0.365,0.296-0.738,0.389-1.114
		c0.1,0.188,0.203,0.377,0.315,0.568c0.203,0.344,0.429,0.697,0.713,1.045c0.282,0.347,0.621,0.701,1.065,1.012
		c0.436,0.312,1.025,0.551,1.613,0.576c0.594,0.022,1.125-0.137,1.526-0.383c0.405-0.242,0.71-0.548,0.94-0.885
		c0.117-0.171,0.222-0.344,0.303-0.533c0.04-0.094,0.078-0.19,0.115-0.284c0.029-0.103,0.061-0.197,0.084-0.305
		c-0.111-0.003-0.211,0.009-0.316,0.008c-0.096,0.006-0.191,0.012-0.288,0.014c-0.19,0.006-0.37,0.018-0.543,0.019
		c-0.342,0.009-0.647-0.002-0.889-0.052c-0.243-0.053-0.396-0.139-0.468-0.233c-0.073-0.091-0.104-0.162-0.188-0.276
		c-0.163-0.226-0.371-0.685-0.538-1.207c-0.163-0.528-0.315-1.12-0.471-1.734c-0.16-0.615-0.326-1.256-0.538-1.917
		c-0.215-0.66-0.464-1.337-0.838-2.066c-0.189-0.366-0.41-0.745-0.739-1.158c-0.169-0.208-0.364-0.42-0.632-0.636
		c-0.264-0.209-0.604-0.432-1.033-0.543c-0.424-0.116-0.897-0.087-1.257,0.045c-0.361,0.131-0.621,0.348-0.794,0.578
		c-0.277,0.379-0.38,0.798-0.334,1.285c-0.094-0.048-0.19-0.096-0.287-0.141c-3.149-1.443-6.873-0.06-8.316,3.089
		C22.183,6.699,26.542,9.73,28.725,6.698z"/>
</g>
</svg>
