<?xml version="1.0" encoding="utf-8"?>
<!-- Generator: Adobe Illustrator 16.0.4, SVG Export Plug-In . SVG Version: 6.00 Build 0)  -->
<!DOCTYPE svg PUBLIC "-//W3C//DTD SVG 1.1//EN" "http://www.w3.org/Graphics/SVG/1.1/DTD/svg11.dtd">
<svg version="1.1" id="Capa_1" xmlns="http://www.w3.org/2000/svg" xmlns:xlink="http://www.w3.org/1999/xlink" x="0px" y="0px"
	 width="64px" height="64px" viewBox="0 0 64 64" enable-background="new 0 0 64 64" xml:space="preserve">
<g>
	<circle fill="#0E0F0F" cx="38.911" cy="45.179" r="3.225"/>
	<path fill="#0E0F0F" d="M33.113,45.246c-0.194-2.944,1.004-5.559,3.423-7.543c1.886-1.546-0.804-4.204-2.673-2.674
		c-3.425,2.81-4.914,6.885-4.454,11.117c-2.202,1.32-4.474,1.756-7.067,1.562c-1.132-3.314-1.6-6.848-2.581-10.207
		c-0.683-2.335-4.33-1.341-3.645,1.005c1.027,3.515,1.595,7.111,2.754,10.563c-0.655-0.197-1.317-0.37-1.978-0.535
		c-1.16-0.29-2.526-0.766-3.742-0.766c-1.16,0-2.096,1.301-2.856,2.027c-1.478,1.409-2.989,2.83-4.65,4.025
		c-1.958,1.41-0.074,4.691,1.908,3.265c2.229-1.604,4.272-3.473,6.233-5.397c2.033,0.373,4.181,0.811,5.971,1.742
		c0.002,0.002,0.004,0.002,0.006,0.004c0.518,0.342,1.143,0.558,1.808,0.635c4.244,0.488,8.489-0.463,11.981-2.963
		C35.891,49.434,35.01,46.201,33.113,45.246z"/>
	<path fill="#0E0F0F" d="M56.068,42.16c-0.659-4.34-1.941-8.467-3.975-12.362c-0.103-0.196-0.221-0.359-0.35-0.499
		c-0.021-0.239-0.07-0.479-0.152-0.715c-0.513-1.467-0.936-2.961-1.445-4.428c-0.019-0.049-0.039-0.097-0.059-0.146
		c-0.021-0.111-0.047-0.224-0.087-0.34c-1.665-4.866-2.479-9.884-2.522-15.024c-0.022-2.792-4.356-2.794-4.334,0
		c0.037,4.459,0.613,8.894,1.775,13.189c-0.107,0.057-0.212,0.12-0.314,0.187c-4.03-2.451-6.285-6.522-5.582-11.645
		c0.375-2.731-3.799-3.91-4.178-1.152c-0.537,3.898-0.185,7.64,1.815,11.096c1.489,2.569,3.806,4.432,6.388,5.799
		c0.258,0.744,0.494,1.493,0.73,2.243c-0.576,2.315-1.809,4.206-3.469,5.905c-1.951,2,1.11,5.066,3.065,3.064
		c1.296-1.328,2.412-2.794,3.265-4.404c0.676,0.297,1.448,0.383,2.264,0.184c1.521,3.234,2.445,6.65,2.984,10.199
		C52.309,46.066,56.482,44.893,56.068,42.16z"/>
	<path fill="#0E0F0F" d="M54.201,31.915c1.39-0.496,1.876-2.026,1.379-3.415c-0.497-1.39-2.157-2.113-3.546-1.616l0.438,1.895
		L54.201,31.915z"/>
</g>
</svg>
