<?xml version="1.0" encoding="utf-8"?>
<!-- Generator: Adobe Illustrator 16.0.4, SVG Export Plug-In . SVG Version: 6.00 Build 0)  -->
<!DOCTYPE svg PUBLIC "-//W3C//DTD SVG 1.1//EN" "http://www.w3.org/Graphics/SVG/1.1/DTD/svg11.dtd">
<svg version="1.1" id="Capa_1" xmlns="http://www.w3.org/2000/svg" xmlns:xlink="http://www.w3.org/1999/xlink" x="0px" y="0px"
	 width="64px" height="64px" viewBox="0 0 64 64" enable-background="new 0 0 64 64" xml:space="preserve">
<g>
	<path fill="#0E0F0F" d="M9.708,53.729c2.018-0.394,3.334-2.35,2.942-4.365c-1.135-5.842-2.923-22.594,2.367-29.89
		c0.184-0.252,0.325-0.521,0.438-0.797c2.907-4.051,6.727-7.2,11.308-9.249c2.576-1.152,0.346-4.926-2.211-3.784
		c-4.273,1.911-7.941,4.775-10.938,8.289c-1.591-0.766-3.551-0.313-4.626,1.168C0.851,26.318,4.856,48.316,5.34,50.79
		c0.347,1.776,1.905,3.008,3.65,3.008C9.226,53.798,9.466,53.775,9.708,53.729z"/>
	<circle fill="#0E0F0F" cx="9.828" cy="8.472" r="4.235"/>
	<path fill="#0E0F0F" d="M51.516,50.438v-2.455c-27.815,0-43.279,8.981-43.924,9.365l1.434,2.416
		c0.133-0.078,12.025-6.981,33.361-8.623v7.922H61v-8.625H51.516z"/>
</g>
</svg>
