<?xml version="1.0" encoding="utf-8"?>
<!-- Generator: Adobe Illustrator 16.0.4, SVG Export Plug-In . SVG Version: 6.00 Build 0)  -->
<!DOCTYPE svg PUBLIC "-//W3C//DTD SVG 1.1//EN" "http://www.w3.org/Graphics/SVG/1.1/DTD/svg11.dtd">
<svg version="1.1" id="Capa_1" xmlns="http://www.w3.org/2000/svg" xmlns:xlink="http://www.w3.org/1999/xlink" x="0px" y="0px"
	 width="64px" height="64px" viewBox="0 0 64 64" enable-background="new 0 0 64 64" xml:space="preserve">
<g>
	<path fill="#0E0F0F" d="M54.093,40.116c-1.835,1.153-3.679,2.291-5.518,3.436L44.1,36.646c-0.058-0.068-0.115-0.131-0.176-0.189
		c-1.033-1.784-2.177-3.493-3.39-5.154c2.717,0.106,5.432,0.06,8.151-0.172c2.809-0.24,2.832-4.646,0-4.406
		c-4.09,0.349-8.166,0.288-12.25-0.096c-0.332-0.031-0.623,0.003-0.877,0.086c-1.054-0.031-2.147,0.371-2.841,1.068
		c-1.502,1.519-1.191,3.564,0.03,5.094c1.885,2.355,3.604,4.837,5.1,7.458c-2.242,0.638-4.482,1.274-6.726,1.91
		c-0.588,0.169-0.996,0.498-1.245,0.903c-0.063,0.074-0.125,0.153-0.183,0.242c-1.671,2.53-3.157,5.162-4.405,7.928
		c-1.16,2.568,2.636,4.81,3.803,2.224c1.143-2.528,2.49-4.94,3.989-7.272c3.34-0.949,6.683-1.898,10.022-2.85
		c0.166-0.047,0.317-0.107,0.455-0.179c0.918,1.368,1.752,2.788,2.523,4.257c0.22,0.42,0.471,0.617,0.73,0.663
		c0.633,0.435,1.481,0.557,2.315,0.03c2.449-1.539,4.921-3.051,7.37-4.59C58.812,42.146,56.402,38.665,54.093,40.116z"/>
	<circle fill="#0E0F0F" cx="30.171" cy="24.138" r="3.303"/>
	<path fill="#0E0F0F" d="M28.092,39.984c0.633,0.438,1.479,0.559,2.315,0.033c1.522-0.959,3.051-1.904,4.581-2.854
		c-0.779-1.147-1.613-2.295-2.501-3.429c-0.879,0.547-1.758,1.096-2.635,1.644l-4.477-6.908c-0.058-0.069-0.115-0.131-0.176-0.188
		c-1.033-1.787-2.176-3.494-3.389-5.154c1.454,0.056,2.908,0.064,4.364,0.028c0.097-0.44,0.264-0.865,0.507-1.259
		c0.573-0.933,1.474-1.586,2.539-1.84c0.313-0.074,0.633-0.111,0.953-0.111c0.68,0,1.326,0.167,1.897,0.465
		c-0.063-1.04-0.762-1.978-2.109-1.862c-4.089,0.349-8.166,0.287-12.249-0.098c-0.335-0.031-0.624,0.006-0.878,0.088
		c-1.052-0.031-2.148,0.369-2.841,1.068c-1.502,1.517-1.191,3.562,0.031,5.092c1.884,2.356,3.603,4.838,5.099,7.457
		c-2.241,0.639-4.482,1.275-6.726,1.912c-0.588,0.166-0.994,0.496-1.243,0.902c-0.064,0.074-0.125,0.152-0.183,0.24
		c-1.672,2.534-3.157,5.163-4.406,7.932c-1.16,2.566,2.636,4.808,3.803,2.224c1.143-2.53,2.489-4.942,3.99-7.273
		c3.34-0.95,6.681-1.899,10.022-2.85c0.166-0.048,0.317-0.108,0.456-0.179c0.917,1.365,1.752,2.787,2.523,4.256
		C27.58,39.743,27.83,39.939,28.092,39.984z"/>
	<circle fill="#0E0F0F" cx="11.446" cy="15.964" r="3.304"/>
	<path fill="#0E0F0F" d="M58.32,25.125c-1.834,1.152-3.68,2.292-5.519,3.436l-4.476-6.907c-0.059-0.069-0.116-0.131-0.176-0.187
		c-1.033-1.788-2.176-3.495-3.391-5.155c2.717,0.104,5.432,0.058,8.151-0.174c2.81-0.239,2.832-4.646,0-4.404
		c-4.089,0.349-8.166,0.286-12.251-0.097c-0.332-0.032-0.622,0.004-0.876,0.087c-1.052-0.032-2.147,0.369-2.841,1.068
		c-1.502,1.519-1.19,3.563,0.031,5.093c1.883,2.357,3.604,4.837,5.099,7.458c-0.747,0.212-1.495,0.425-2.242,0.639
		c3.017,0.146,5.95,0.1,8.785-0.141c0.098-0.009,0.194-0.012,0.286-0.012c1.514,0,2.617,1.099,2.684,2.675
		c0.051,1.188-0.562,2.491-1.792,3.05c0.177,0.316,0.349,0.632,0.517,0.953c0.222,0.42,0.471,0.617,0.729,0.663
		c0.635,0.436,1.481,0.557,2.315,0.031c2.451-1.54,4.922-3.049,7.373-4.588C63.041,27.156,60.63,23.672,58.32,25.125z"/>
	<circle fill="#0E0F0F" cx="34.398" cy="9.146" r="3.303"/>
	<rect x="3.317" y="18.623" fill="#0E0F0F" width="1.542" height="40.423"/>
</g>
</svg>
