<?xml version="1.0" encoding="utf-8"?>
<!-- Generator: Adobe Illustrator 16.0.4, SVG Export Plug-In . SVG Version: 6.00 Build 0)  -->
<!DOCTYPE svg PUBLIC "-//W3C//DTD SVG 1.1//EN" "http://www.w3.org/Graphics/SVG/1.1/DTD/svg11.dtd">
<svg version="1.1" id="Capa_1" xmlns="http://www.w3.org/2000/svg" xmlns:xlink="http://www.w3.org/1999/xlink" x="0px" y="0px"
	 width="64px" height="64px" viewBox="0 0 64 64" enable-background="new 0 0 64 64" xml:space="preserve">
<path fill="#0E0F0F" d="M28.042,13.012c2.479,0,4.489,2.01,4.489,4.489s-2.01,4.489-4.489,4.489s-4.489-2.01-4.489-4.489
	S25.563,13.012,28.042,13.012z M32.041,23.079l-1.979,1.002l-0.401-0.792l1.979-1.001L32.041,23.079z M57.111,45.636
	c-5.584-1.686-10.076-6.343-12.906-11.297c-0.078-0.137-0.164-0.258-0.253-0.368c-0.086-0.298-0.196-0.59-0.331-0.875
	c-1.197-2.518-2.758-4.88-4.609-6.977c4.407-0.899,8.729-2.125,12.969-3.753c3.137-1.203,1.773-6.296-1.399-5.078
	c-5.804,2.229-11.826,3.836-17.993,4.646c-0.02,0.002-0.035,0.009-0.054,0.012v3.123l-0.491-1.625l-1.673,0.937l1.173,1.273
	l-2.409-1.591c-0.041,0.068-6.854,0.565-10.464-2.552c-0.116-0.08-0.23-0.145-0.345-0.203l-0.708-0.951l-0.958,0.786
	c-0.556,0.181-1.029,0.59-1.354,1.112l-3.365,2.761l0.871,1.169l1.812-1.256L9.566,48.636c-0.288-0.013-0.575-0.012-0.857,0.013
	c-2.536,0.219-3.866,1.877-3.922,1.949l0.933,0.729C5.729,51.312,6.782,50,8.81,49.828c0.224-0.021,0.453-0.02,0.683-0.01
	l1.555,0.31l0.006-0.03c1.472,0.44,3.039,1.401,4.685,2.894l0.795-0.88c-1.814-1.644-3.571-2.696-5.249-3.178l4.838-22.801
	c4.098,2.799,8.737,4.011,13.531,3.352c0.038,0.035,0.073,0.073,0.113,0.108c2.096,1.763,3.747,3.763,5.086,6.062
	c-6.304,1.712-12.811,5.041-13.836,11.646c-0.517,3.321,4.557,4.748,5.079,1.4c0.991-6.366,9.706-8.196,15.244-9.062
	c3.518,5.036,8.492,9.297,14.374,11.071C58.973,51.695,60.355,46.611,57.111,45.636z M19.341,18.975
	c0.737,0,1.335,0.598,1.335,1.335s-0.598,1.335-1.335,1.335s-1.335-0.598-1.335-1.335S18.604,18.975,19.341,18.975z"/>
</svg>
