<?xml version="1.0" encoding="utf-8"?>
<!-- Generator: Adobe Illustrator 16.0.4, SVG Export Plug-In . SVG Version: 6.00 Build 0)  -->
<!DOCTYPE svg PUBLIC "-//W3C//DTD SVG 1.1//EN" "http://www.w3.org/Graphics/SVG/1.1/DTD/svg11.dtd">
<svg version="1.1" id="Capa_1" xmlns="http://www.w3.org/2000/svg" xmlns:xlink="http://www.w3.org/1999/xlink" x="0px" y="0px"
	 width="64px" height="64px" viewBox="0 0 64 64" enable-background="new 0 0 64 64" xml:space="preserve">
<g>
	<path fill="#0E0F0F" d="M45.371,41.598c-1.965-1.869-6.906-2.652-11.594-2.955c-0.002-0.01-0.002-0.019-0.006-0.025
		c-1.424-5.311-1.816-10.851-2.306-16.385l9.925,5.306c0.424,0.226,0.877,0.332,1.325,0.332c1.005,0,1.979-0.54,2.485-1.487
		c0.582-1.09,0.363-2.384-0.434-3.241l0.387-6.655c0.507-0.087,0.896-0.528,0.896-1.061c0-0.542-0.401-0.985-0.922-1.062
		c-0.157-0.461-0.59-0.793-1.104-0.793h-3.592l-1.41-4.267h-5.043c0.527-0.836,0.84-1.825,0.84-2.888
		C34.818,3.425,32.393,1,29.403,1c-2.991,0-5.416,2.425-5.416,5.416s2.425,5.416,5.416,5.416c1.586,0,3.008-0.686,3.998-1.772h5.076
		l1.16,3.511h-0.093c-0.509,0-0.938,0.324-1.103,0.778h-0.073c-0.595,0-1.077,0.482-1.077,1.077c0,0.542,0.398,0.986,0.919,1.062
		l0.271,3.108l-8.624-4.61c-0.365-0.195-0.752-0.295-1.14-0.321c-0.356-0.209-0.75-0.369-1.177-0.475
		c-0.427-0.2-0.906-0.306-1.408-0.265c-6.841,0.559-8.333,5.123-9.424,8.456c-0.411,1.258-0.799,2.446-1.413,3.499
		c-0.785,1.344-0.33,3.067,1.013,3.851c0.446,0.262,0.934,0.384,1.417,0.384c0.968,0,1.912-0.499,2.434-1.397
		c0.917-1.572,1.44-3.173,1.902-4.585c0.001-0.005,0.003-0.009,0.005-0.015c0.496,5.711,1.001,11.548,2.459,16.979
		c0.695,2.584,2.827,3.582,4.889,3.396c0.305,0.11,0.626,0.188,0.968,0.194c4.567,0.121,9.457,0.777,10.722,1.432
		c0.523,0.927,1.166,5.033,0.086,12.895c-0.232,1.693,0.953,3.256,2.646,3.488c0.143,0.021,0.286,0.03,0.426,0.03
		c1.522,0,2.852-1.125,3.065-2.677C48.648,50.232,47.992,44.088,45.371,41.598z"/>
	<polygon fill="#0E0F0F" points="19.877,32.226 15.138,32.226 15.129,60.521 38.096,60.521 39.502,47.568 23.255,46.163 	"/>
</g>
</svg>
