<?xml version="1.0" encoding="utf-8"?>
<!-- Generator: Adobe Illustrator 16.0.4, SVG Export Plug-In . SVG Version: 6.00 Build 0)  -->
<!DOCTYPE svg PUBLIC "-//W3C//DTD SVG 1.1//EN" "http://www.w3.org/Graphics/SVG/1.1/DTD/svg11.dtd">
<svg version="1.1" id="Capa_1" xmlns="http://www.w3.org/2000/svg" xmlns:xlink="http://www.w3.org/1999/xlink" x="0px" y="0px"
	 width="64px" height="64px" viewBox="0 0 64 64" enable-background="new 0 0 64 64" xml:space="preserve">
<g>
	<circle fill="#0E0F0F" cx="53.662" cy="12.114" r="5.073"/>
	<path fill="#0E0F0F" d="M50.409,46.207v9.076H63v-9.076H50.409z M61.95,54.232H51.459v-6.978H61.95V54.232z"/>
	<path fill="#0E0F0F" d="M44.262,58.896c-1.438-0.739-4.775-2.017-7.24,0.449c-2.752,2.752-6.346,0.081-6.499-0.033L30.457,59.4
		c-1.518-0.743-4.706-1.84-7.078,0.533c-2.751,2.752-6.345,0.082-6.497-0.033l-0.227,0.299l0.21-0.311
		c-0.046-0.031-4.745-3.162-7.953,0.045C7.75,61.098,6.44,61.287,5.3,61.115L17.912,2.693c6.839-0.279,15.082,6.201,20.559,11.401
		c-0.48,0.729-0.525,1.696,0.327,2.46c4.336,3.892,9.284,6.7,14.865,8.275c0,3.924,0,7.849,0,11.774l-6.785,0.472
		c-2.198,0.153-3.881,1.975-3.901,4.142c-0.099,0.312-0.152,0.641-0.138,0.985c0.149,3.327,0.048,6.715-0.342,10.978
		c-0.144,1.588,1.026,2.992,2.614,3.137c0.089,0.008,0.178,0.012,0.265,0.012c1.478,0,2.733-1.126,2.871-2.626
		c0.282-3.11,0.42-5.792,0.427-8.335L58.7,44.669c2.312-0.161,4.057-2.167,3.896-4.479c-0.01-0.137-0.025-0.27-0.048-0.399
		c0.022-0.192,0.038-0.394,0.038-0.603c0-5.58,0-11.159,0-16.737c0-5.07-6.909-5.716-8.566-1.879
		c-4.571-1.416-8.644-3.745-12.252-6.983c-0.634-0.568-1.361-0.662-2-0.47C33.754,7.384,24.394,0.083,16.647,1.23l0.216,1.46
		L4.303,60.873c-1.061-0.359-1.821-0.921-1.889-0.973l-0.458,0.602c0.019,0.016,0.916,0.684,2.189,1.096l-0.011,0.051h0.183
		c0.528,0.158,1.112,0.269,1.725,0.269c1.116,0,2.317-0.36,3.404-1.446c2.742-2.742,6.754-0.115,6.987,0.041
		c0.109,0.079,1.933,1.405,4.076,1.405c1.116,0,2.316-0.36,3.403-1.446c2.764-2.766,6.822-0.07,6.994,0.045l0.041-0.062
		c0.757,0.399,1.924,0.876,3.204,0.876c1.117,0,2.317-0.362,3.404-1.448c2.381-2.382,5.719-0.714,6.707-0.132V63H63v-5.387H44.262
		V58.896z"/>
</g>
</svg>
