<?xml version="1.0" encoding="utf-8"?>
<!-- Generator: Adobe Illustrator 16.0.4, SVG Export Plug-In . SVG Version: 6.00 Build 0)  -->
<!DOCTYPE svg PUBLIC "-//W3C//DTD SVG 1.1//EN" "http://www.w3.org/Graphics/SVG/1.1/DTD/svg11.dtd">
<svg version="1.1" id="Capa_1" xmlns="http://www.w3.org/2000/svg" xmlns:xlink="http://www.w3.org/1999/xlink" x="0px" y="0px"
	 width="64px" height="64px" viewBox="0 0 64 64" enable-background="new 0 0 64 64" xml:space="preserve">
<g>
	<circle fill="#0E0F0F" cx="56.76" cy="23.158" r="5.24"/>
	<path fill="#0E0F0F" d="M49.689,20.408c-0.211-0.605-0.535-1.166-0.972-1.638c-2.251-3.245-5.854-5.497-9.093-7.516
		c-1.234-0.771-2.4-1.498-3.424-2.233c-1.234-0.888-2.953-0.605-3.84,0.627c-0.887,1.233-0.606,2.953,0.627,3.839
		c1.171,0.841,2.471,1.651,3.727,2.435c0.686,0.427,1.374,0.858,2.051,1.296c-4.882-0.111-9.762-0.197-14.642-0.203
		c-3.77-0.004-5.207,3.637-4.291,6.377c-1.082,5.726-4.909,9.663-10.47,11.542c0.066-0.035,0.064-0.041-0.202,0.062
		c-0.028,0.012-0.052,0.025-0.076,0.041c-0.133,0.046-0.258,0.1-0.378,0.158l-3.611,1.32l0.006,0.01
		c-0.008,0-0.024-0.002-0.024-0.002l-0.733,0.322c0,0-0.035,0.129,0.015,0.245l1.576,3.714l-0.682,0.286l-1.565-3.712L2.767,37.77
		l3.345,7.935l0.123,0.287l0.679,1.612l0.009,0.019c0.054,0.108,1.363,2.669,3.272,2.101l-0.311-1.005
		c-1.04,0.308-1.977-1.379-2.062-1.538l-0.545-1.289l0.695-0.295l0.849,1.993c0.048,0.117,0.125,0.2,0.169,0.181l0.65-0.275
		c0.008-0.002,0.011-0.012,0.015-0.02l0.004,0.012c0,0,1.382-0.336,1.156-1.58c0,0-0.23-0.75-0.368-1.801l-1.1,0.1l-0.072-0.617
		l1.106-0.098c-0.015-0.188-0.026-0.379-0.031-0.577l-0.996,0.091l-0.072-0.615l1.072-0.097c0.005-0.187,0.018-0.373,0.038-0.56
		l-0.899,0.082L9.42,41.198l0.327-0.031c0.577,0.222,1.404,0.179,2.142-0.132l-0.213-0.516c5.867-2.146,10.697-6.218,12.954-11.865
		c1.28,1.114,2.614,2.255,3.966,3.372l-7.248,11.247c-0.074,0.112-0.137,0.229-0.194,0.351l-0.118,0.187l-2.358,3.412l0.01,0.004
		c-0.008,0.006-0.021,0.015-0.021,0.015l-0.437,0.726c0,0,0.049,0.135,0.164,0.205l3.628,2.244l-0.413,0.666l-3.62-2.251
		L17.43,49.73l7.739,4.811l0.281,0.174l1.572,0.979l0.019,0.01c0.114,0.061,2.809,1.473,4.111-0.186l-0.884-0.679
		c-0.71,0.902-2.552,0.019-2.721-0.067l-1.259-0.78l0.421-0.683l1.952,1.207c0.113,0.07,0.229,0.094,0.256,0.051l0.393-0.637
		c0.005-0.007,0.002-0.017,0.001-0.025l0.012,0.009c0,0,0.987-1.136,0.032-2.071c0,0-0.655-0.509-1.417-1.332l-0.89,0.758
		l-0.439-0.488l0.896-0.762c-0.128-0.15-0.254-0.312-0.379-0.479l-0.805,0.688l-0.438-0.488l0.865-0.737
		c-0.107-0.163-0.21-0.332-0.307-0.507l-0.729,0.619l-0.439-0.486l0.264-0.227c0.633-0.162,1.321-0.705,1.769-1.422l-0.35-0.222
		l8.448-13.108c0.082-0.125,0.148-0.256,0.212-0.387c1.053-1.433,0.792-3.45-0.618-4.552c-0.923-0.722-1.854-1.485-2.778-2.257
		c4.401,0.069,8.801,0.174,13.201,0.288c3.002,0.078,4.521-2.191,4.556-4.514c0.101-0.553,0.043-1.14-0.218-1.685
		C49.738,20.497,49.71,20.453,49.689,20.408z"/>
</g>
</svg>
