<?xml version="1.0" encoding="utf-8"?>
<!-- Generator: Adobe Illustrator 16.0.4, SVG Export Plug-In . SVG Version: 6.00 Build 0)  -->
<!DOCTYPE svg PUBLIC "-//W3C//DTD SVG 1.1//EN" "http://www.w3.org/Graphics/SVG/1.1/DTD/svg11.dtd">
<svg version="1.1" id="Capa_1" xmlns="http://www.w3.org/2000/svg" xmlns:xlink="http://www.w3.org/1999/xlink" x="0px" y="0px"
	 width="64px" height="64px" viewBox="0 0 64 64" enable-background="new 0 0 64 64" xml:space="preserve">
<path fill="#0E0F0F" d="M55.05,56.866c-4.112-5.446-7.983-11.062-11.806-16.712c-0.184,0.037-0.372,0.066-0.574,0.078
	c-4.459,0.242-8.936,0.435-13.39,0.813c-1.072,2.853-2.181,5.693-2.604,8.728c-0.614,4.394-7.262,2.518-6.654-1.834
	c0.537-3.853,2.18-7.394,3.45-11.039c0.55-1.584,1.693-2.363,3.327-2.532c2.574-0.269,5.159-0.452,7.748-0.604
	c-1.257-1.678-2.484-3.375-3.659-5.107c-0.641,1.376-1.291,2.747-1.936,4.113c-0.702,1.491-3.29,1.908-4.336,0.561
	c-2.912-3.757-5.826-7.515-8.74-11.271c-2.153-2.776,1.725-6.714,3.904-3.904c2.069,2.671,4.141,5.341,6.212,8.011
	c0.498-1.059,0.982-2.126,1.438-3.202c-2.007-5.391,6.175-9.796,9.354-4.336c2.832,4.868,6.231,9.342,9.659,13.8
	c0.223,0.289,0.392,0.601,0.516,0.925c4.557,6.766,9.132,13.518,14.049,20.03C63.689,56.938,57.693,60.37,55.05,56.866z
	 M24.414,17.569c3.315,0,6.003-2.688,6.003-6.003s-2.688-6.003-6.003-6.003s-6.003,2.688-6.003,6.003S21.099,17.569,24.414,17.569z
	 M17.742,14.982l-7.29,3.927l0.669,1.242l7.29-3.926L17.742,14.982z M7.923,17.338c-0.31-0.451-0.077-1.21,0.193-2.09
	c0.296-0.965,0.632-2.059,0.296-3.052c-0.513-1.521-1.74-2.402-2.924-3.255C3.866,7.775,2.334,6.674,2.932,4.008L2.946,3.94
	L2.479,3.836L2.464,3.903C1.797,6.877,3.53,8.124,5.207,9.33c1.125,0.809,2.289,1.644,2.75,3.019
	c0.289,0.848-0.025,1.864-0.299,2.76c-0.294,0.956-0.572,1.857-0.132,2.5c0.305,0.442,0.909,0.688,1.847,0.755l0.067,0.004
	l0.034-0.479l-0.067-0.005C8.623,17.83,8.138,17.651,7.923,17.338z M10.82,8.965C10.282,8.013,9.647,7.999,9.269,7.99
	C9.116,7.988,9.014,7.982,8.983,7.947C8.928,7.878,8.859,7.609,9.03,6.568c0.073-0.433,0.343-0.919,0.604-1.389
	c0.408-0.737,0.833-1.5,0.582-2.191C10.06,2.55,9.658,2.208,8.992,1.949l-0.126-0.05l-0.173,0.44l0.125,0.05
	C9.35,2.598,9.662,2.846,9.771,3.148C9.946,3.637,9.595,4.273,9.22,4.95C8.94,5.454,8.65,5.976,8.563,6.492
	C8.394,7.519,8.409,7.996,8.619,8.249c0.171,0.205,0.419,0.21,0.637,0.216c0.351,0.007,0.746,0.016,1.148,0.73
	c0.438,0.791-0.076,2.694-0.574,4.538c-0.344,1.272-0.668,2.473-0.706,3.379l-0.007,0.136l0.474,0.021l0.004-0.136
	c0.038-0.853,0.355-2.03,0.692-3.282C10.811,11.92,11.348,9.924,10.82,8.965z M15.246,57.135h2.597V63h12.644v-5.865h2.595v-3.896
	H15.246V57.135z"/>
</svg>
