<?xml version="1.0" encoding="utf-8"?>
<!-- Generator: Adobe Illustrator 16.0.4, SVG Export Plug-In . SVG Version: 6.00 Build 0)  -->
<!DOCTYPE svg PUBLIC "-//W3C//DTD SVG 1.1//EN" "http://www.w3.org/Graphics/SVG/1.1/DTD/svg11.dtd">
<svg version="1.1" id="Capa_1" xmlns="http://www.w3.org/2000/svg" xmlns:xlink="http://www.w3.org/1999/xlink" x="0px" y="0px"
	 width="64px" height="64px" viewBox="0 0 64 64" enable-background="new 0 0 64 64" xml:space="preserve">
<g>
	<circle fill="#010101" cx="44.302" cy="53.045" r="4.579"/>
	<circle fill="#010101" cx="36.83" cy="11.136" r="4.422"/>
	<path fill="#010101" d="M31.074,24.318l-1.786,1.412l-0.009,0.024l1.873,0.688l0.678-1.847c0.184-0.501,0.398-1.004,0.635-1.529
		l-0.051-0.019C31.947,23.489,31.549,23.895,31.074,24.318z"/>
	<path fill="#010101" d="M40.922,33.82c-1.088,2.83,3.451,4.041,4.527,1.248c2.875-7.456-0.268-13.922-7.363-17.128
		c-0.236-0.185-0.502-0.366-0.801-0.542c-2.123-1.256-3.865-1.591-5.27-1.447c-0.1-0.01-0.193-0.028-0.299-0.027
		c-4.7,0.039-9.382,0.548-14.083,0.587c-3.025,0.024-3.027,4.719,0,4.694c2.986-0.024,5.965-0.238,8.946-0.401l-7.099,14.01
		l-4.768,9.545c-0.566,1.275-0.092,2.727,1.221,3.31c1.312,0.583,2.836,0.021,3.403-1.255l5.834-9.909c0,0,0.441-0.786,1.281-0.425
		c0.84,0.361,0.463,1.15,0.463,1.15l-8.768,15.772c-0.567,1.276,0.039,2.784,1.351,3.367c1.313,0.584,2.836,0.021,3.403-1.255
		c0,0,13.25-24.762,16.073-31.15C41.779,26.313,42.578,29.526,40.922,33.82z M34,27.488l-0.535,1.463l-1.002-0.368l-0.73,1.99
		l-1.847-0.679l0.73-1.989l-3.695-1.356l0.467-1.269l5.021-3.923l2.387,0.876L33,27.121L34,27.488z"/>
</g>
</svg>
