<?xml version="1.0" encoding="utf-8"?>
<!-- Generator: Adobe Illustrator 16.0.4, SVG Export Plug-In . SVG Version: 6.00 Build 0)  -->
<!DOCTYPE svg PUBLIC "-//W3C//DTD SVG 1.1//EN" "http://www.w3.org/Graphics/SVG/1.1/DTD/svg11.dtd">
<svg version="1.1" id="Capa_1" xmlns="http://www.w3.org/2000/svg" xmlns:xlink="http://www.w3.org/1999/xlink" x="0px" y="0px"
	 width="64px" height="64px" viewBox="0 0 64 64" enable-background="new 0 0 64 64" xml:space="preserve">
<g>
	<path fill="#0E0F0F" d="M59.895,24.565c-4.287-1.478-8.643-2.682-13.084-3.534c-0.014-0.072-0.024-0.146-0.039-0.217
		c3.804-0.514,7.541-1.31,11.149-2.676c3.649-1.38,2.068-7.292-1.626-5.896c-3.701,1.4-7.561,2.266-11.49,2.701
		c-0.466,0.052-0.873,0.187-1.229,0.382c-0.974-0.376-2.054-0.472-3.005-0.218c-2.676,0.718-3.756,3.246-3.342,5.786
		c0.256,1.559,0.539,3.117,0.709,4.687c0.062,0.557,0.088,1.115,0.108,1.673c0.007,0.17-0.106,1.471-0.056,1.363
		c-0.402,1.781-1.986,3.275-3.887,5.159c-5.338-3.202-10.804-6.214-16.293-9.133c-3.478-1.85-6.567,3.429-3.085,5.279
		c5.578,2.966,11.087,6.068,16.519,9.294c3.775,2.244,7.33,4.877,11.117,7.083c1.205,0.702,2.412,1.257,3.453,2.204
		c0.715,0.652,0.802,0.048,0.146,0.716c-1.361,1.388-3.109,2.298-4.395,3.78c-2.57,2.964,1.733,7.307,4.322,4.322
		c2.68-3.088,7.955-5.092,6.246-10.151c-0.921-2.724-3.586-4.459-5.979-5.762c-1.348-0.734-2.631-1.587-3.905-2.453
		c2.091-2.22,3.953-4.634,4.804-7.63c0.359-1.264,0.493-2.578,0.49-3.913c3.626,0.803,7.196,1.833,10.725,3.048
		C62.008,31.748,63.6,25.842,59.895,24.565z"/>
	<circle fill="#0E0F0F" cx="6.118" cy="29.678" r="4.182"/>
	<circle fill="#0E0F0F" cx="34.425" cy="11.516" r="4.798"/>
	<path fill="#0E0F0F" d="M11.987,24.196c-1.224-0.399-2.145-1.385-2.468-2.638l-0.062-0.235l-0.243-0.041
		c-0.218-0.035-0.406-0.079-0.575-0.134c-0.555-0.18-1.049-0.483-1.47-0.9L6.8,19.883l-0.232,0.465
		c-0.551,1.099-1.643,1.874-2.867,2.035L3.4,22.422l-0.025,0.301c-0.027,0.292-0.084,0.573-0.168,0.833l-0.086,0.265l0.715,0.233
		l0.085-0.264c0.075-0.227,0.13-0.466,0.167-0.709C5.276,22.845,6.345,22.12,7,21.105c0.42,0.335,0.891,0.59,1.404,0.758
		c0.141,0.046,0.291,0.086,0.452,0.119c0.438,1.387,1.509,2.475,2.896,2.928c0.104,0.034,0.209,0.061,0.326,0.089l0.271,0.067
		l0.067-0.27l0.076-0.472l-0.244-0.059C12.161,24.245,12.073,24.224,11.987,24.196z"/>
</g>
</svg>
