<?xml version="1.0" encoding="utf-8"?>
<!-- Generator: Adobe Illustrator 16.0.4, SVG Export Plug-In . SVG Version: 6.00 Build 0)  -->
<!DOCTYPE svg PUBLIC "-//W3C//DTD SVG 1.1//EN" "http://www.w3.org/Graphics/SVG/1.1/DTD/svg11.dtd">
<svg version="1.1" id="Capa_1" xmlns="http://www.w3.org/2000/svg" xmlns:xlink="http://www.w3.org/1999/xlink" x="0px" y="0px"
	 width="64px" height="64px" viewBox="0 0 64 64" enable-background="new 0 0 64 64" xml:space="preserve">
<g>
	<circle fill="#0E0F0F" cx="19.833" cy="10.314" r="5.343"/>
	<path fill="#0E0F0F" d="M28.882,23.209c-0.037,0-0.072,0.003-0.1,0.01c-0.615,0.141-1.66,1.851-1.715,3.95
		c0.019-0.001,0.038-0.001,0.056-0.001c1.478,0,2.728,0.972,3.186,2.477c0.342,1.125,0.128,2.236-0.539,3.003
		c0.583,0.393,1.038,0.496,1.281,0.439c0.361-0.083,0.93-0.662,1.327-1.736c0.254-0.69,0.622-2.103,0.229-3.817
		C31.999,24.895,29.82,23.209,28.882,23.209z"/>
	<path fill="#0E0F0F" d="M51.141,53.275c-4.146-7.041-8.291-14.082-12.438-21.126c-0.104-0.175-0.217-0.329-0.336-0.473
		c-0.078-0.205-0.17-0.41-0.275-0.615c-1.959-3.81-4.003-7.58-6.143-11.292c3.92-1.004,7.499,0.298,10.346,4.284
		c2.445,3.423,8.161,0.141,5.688-3.324c-5.817-8.145-14.487-10.167-23.172-5.012c-0.27,0.16-0.497,0.34-0.693,0.534
		c-0.991,0.522-1.921,1.328-2.695,2.386c-0.353,0.337-0.778,0.973-1.073,1.5c-1.851,3.309-2.767,6.903-3.084,10.663
		c-0.125,1.48,1.104,2.761,2.418,3.175c2.507,0.791,4.825,0.453,7.289-0.047c0.397,0.754,0.791,1.508,1.181,2.266
		c-2.986,1.525-5.751,3.428-8.321,5.666c-1.518,1.322-1.27,3.059-0.249,4.226c0.247,0.533,0.666,1.021,1.299,1.399
		c3.4,2.041,6.8,4.086,10.201,6.125c3.649,2.192,6.959-3.504,3.324-5.686c-2.198-1.32-4.396-2.641-6.595-3.961
		c2.116-1.427,4.396-2.607,6.813-3.449c0.4-0.14,0.741-0.33,1.029-0.558c3.267,5.547,6.533,11.097,9.799,16.646
		C47.605,60.258,53.299,56.945,51.141,53.275z M33.408,31.733c-0.49,1.328-1.279,2.236-2.111,2.426
		c-0.121,0.028-0.25,0.042-0.382,0.042c-0.711,0-1.55-0.395-2.364-1.111l-0.534-0.472l0.592-0.396
		c0.818-0.548,0.861-1.558,0.648-2.256c-0.237-0.784-0.94-1.699-2.135-1.699c-0.158,0-0.321,0.016-0.488,0.049l-0.614,0.12
		l-0.039-0.625c-0.175-2.816,1.229-5.356,2.554-5.662c0.109-0.025,0.225-0.037,0.346-0.037c1.47,0,4.068,2.017,4.794,5.179
		C34.016,28.767,33.92,30.345,33.408,31.733z"/>
</g>
</svg>
