<?xml version="1.0" encoding="utf-8"?>
<!-- Generator: Adobe Illustrator 16.0.4, SVG Export Plug-In . SVG Version: 6.00 Build 0)  -->
<!DOCTYPE svg PUBLIC "-//W3C//DTD SVG 1.1//EN" "http://www.w3.org/Graphics/SVG/1.1/DTD/svg11.dtd">
<svg version="1.1" id="Capa_1" xmlns="http://www.w3.org/2000/svg" xmlns:xlink="http://www.w3.org/1999/xlink" x="0px" y="0px"
	 width="64px" height="64px" viewBox="0 0 64 64" enable-background="new 0 0 64 64" xml:space="preserve">
<g>
	<path fill="#0E0F0F" d="M57.915,22.327c-1.336-0.438-2.774,0.291-3.214,1.628l-3.172,9.689c-2.622-0.803-5.031-1.824-6.264-2.647
		c-0.238-0.595-0.6-1.153-1.08-1.635c-2.006-2.005-2.586-3.263-3.744-5.767c-0.226-0.486-0.471-1.016-0.742-1.583
		c3.99-0.68,7.959-1.697,11.646-2.999c1.326-0.469,2.022-1.924,1.555-3.25c-0.469-1.327-1.922-2.022-3.25-1.555
		c-4.455,1.573-9.354,2.703-14.17,3.269c-0.584,0.068-1.09,0.337-1.479,0.721c-0.484,0.076-0.964,0.225-1.426,0.456
		c-0.149,0.075-0.293,0.156-0.432,0.244c-0.748,0.071-1.459,0.461-1.9,1.142c-2.835,4.382-6.813,8.447-11.501,11.757
		c-1.15,0.812-1.423,2.401-0.613,3.551c0.496,0.703,1.284,1.079,2.083,1.079c0.508,0,1.021-0.151,1.467-0.467
		c3.648-2.576,6.906-5.582,9.632-8.837c0.09,0.192,0.178,0.383,0.265,0.572c1.323,2.865,2.468,5.339,5.702,8.575
		c0.343,0.342,0.723,0.619,1.127,0.838c-0.11,0.703-0.225,1.42-0.344,2.158c-0.772,4.844-1.648,10.332-1.992,14.799
		c-0.107,1.401,0.94,2.627,2.345,2.734c0.065,0.006,0.133,0.008,0.198,0.008c1.316,0,2.434-1.016,2.537-2.353
		c0.326-4.259,1.188-9.64,1.943-14.386c0.184-1.152,0.36-2.262,0.524-3.32c0.196-0.146,0.389-0.301,0.565-0.479
		c0.01-0.01,0.019-0.021,0.028-0.03c3.095,1.608,6.858,2.614,8.384,2.981c0.2,0.049,0.401,0.072,0.6,0.072
		c1.078,0,2.07-0.689,2.418-1.756l3.929-11.995C59.982,24.204,59.253,22.765,57.915,22.327z"/>
	<path fill="#0E0F0F" d="M22.568,16.593l2.841-1.031c1.058,2.015,3.465,2.994,5.665,2.195c2.4-0.87,3.643-3.523,2.771-5.924
		s-3.524-3.641-5.926-2.771c-2.199,0.798-3.419,3.091-2.94,5.316l-2.841,1.03L22.568,16.593z"/>
	<circle fill="#0E0F0F" cx="6.505" cy="24.781" r="3.136"/>
	<path fill="#0E0F0F" d="M17.237,38.536c0.412-0.411,0.723-0.886,0.939-1.39c-0.172,0.272-0.375,0.533-0.613,0.771
		c-1.738,1.737-4.557,1.737-6.294,0c-1.326-1.326-1.638-3.28-0.939-4.903c-1.089,1.719-0.887,4.021,0.613,5.522
		C12.681,40.273,15.499,40.273,17.237,38.536z"/>
	<path fill="#0E0F0F" d="M8.131,42.377c-2.256-2.257-2.785-5.582-1.597-8.348c-1.855,2.93-1.511,6.849,1.042,9.4
		c2.958,2.956,7.752,2.956,10.709,0c0.702-0.701,1.23-1.507,1.598-2.363c-0.293,0.463-0.637,0.906-1.042,1.311
		C15.883,45.335,11.088,45.335,8.131,42.377z"/>
</g>
</svg>
