<?xml version="1.0" encoding="utf-8"?>
<!-- Generator: Adobe Illustrator 16.0.4, SVG Export Plug-In . SVG Version: 6.00 Build 0)  -->
<!DOCTYPE svg PUBLIC "-//W3C//DTD SVG 1.1//EN" "http://www.w3.org/Graphics/SVG/1.1/DTD/svg11.dtd">
<svg version="1.1" id="Capa_1" xmlns="http://www.w3.org/2000/svg" xmlns:xlink="http://www.w3.org/1999/xlink" x="0px" y="0px"
	 width="64px" height="64px" viewBox="0 0 64 64" enable-background="new 0 0 64 64" xml:space="preserve">
<g>
	<path fill="#0E0F0F" d="M34.346,13.046c-0.754-0.218-1.046,3.422-2.992,3.196c-1.946-0.226-2.184-3.341-2.9-3.133
		c-7.788,2.261-11.192,8.078-10.922,16.748c0.039,1.227,1.045,2.195,2.265,2.195c0.022,0,0.049,0,0.071,0
		c1.25-0.041,2.233-1.085,2.194-2.336c-0.099-3.169,0.573-5.858,1.936-7.981c-0.002,0.116-0.013,0.229-0.013,0.346v9.32h4.452v1.971
		h-4.452V59.17c0,1.568,1.27,2.842,2.838,2.842c1.568,0,2.839-1.272,2.839-2.842c0,0-0.595-22.152,1.532-22.17
		c2.126-0.02,1.777,22.17,1.777,22.17c0,1.568,1.271,2.842,2.838,2.842c1.566,0,2.838-1.272,2.838-2.842l0.037-25.799H37.92
		l0.6,2.684l-1.502,0.334l-0.676-3.018h-2.775V31.4h0.752l-0.903-0.226l-0.548-2.458l4.25,1.058l0.029,0.137l0.332,1.488h1.207
		l0.015-9.32c0-0.209-0.015-0.415-0.027-0.621c1.457,2.154,2.17,4.92,2.065,8.193c-0.037,1.251,0.945,2.297,2.195,2.336
		c0.022,0,0.049,0.001,0.071,0.001c1.22,0,2.226-0.969,2.263-2.195C45.538,21.125,42.133,15.308,34.346,13.046z"/>
	<path fill="#0E0F0F" d="M31.976,12.047c3.073-0.312,5.311-3.055,5-6.126L25.851,7.048C26.163,10.12,28.904,12.359,31.976,12.047z"
		/>
	<polygon fill="#0E0F0F" points="37.309,4.841 37.309,1 24.081,1 26.215,4.841 23.101,6.174 	"/>
</g>
</svg>
