<?xml version="1.0" encoding="utf-8"?>
<!-- Generator: Adobe Illustrator 16.0.4, SVG Export Plug-In . SVG Version: 6.00 Build 0)  -->
<!DOCTYPE svg PUBLIC "-//W3C//DTD SVG 1.1//EN" "http://www.w3.org/Graphics/SVG/1.1/DTD/svg11.dtd">
<svg version="1.1" id="Capa_1" xmlns="http://www.w3.org/2000/svg" xmlns:xlink="http://www.w3.org/1999/xlink" x="0px" y="0px"
	 width="64px" height="64px" viewBox="0 0 64 64" enable-background="new 0 0 64 64" xml:space="preserve">
<g>
	<circle fill="#0E0F0F" cx="31.414" cy="15.411" r="4.57"/>
	<path fill="#0E0F0F" d="M37.609,8.977c-0.797-0.889-2.164-0.96-3.051-0.161c-0.889,0.798-0.963,2.164-0.162,3.052l6.476,4.206
		c-2.101,1.483-5.271,3.79-6.771,5.22c-1.805,0.788-3.613,0.593-5.175,0.035c-1.484-1.428-4.691-3.76-6.808-5.254l5.207-5.792
		c0.798-0.888,0.727-2.254-0.162-3.052c-0.887-0.799-2.255-0.728-3.052,0.161l-6.845,7.614c-0.417,0.463-0.615,1.084-0.539,1.704
		c0.075,0.619,0.413,1.176,0.928,1.527c1.419,0.967,4.926,3.426,7.074,5.17l0.083,1.196l-0.046,17.642v17.563
		c0,1.442,1.057,2.612,2.542,2.612c1.484,0,2.688-1.17,2.688-2.612V41.507c0,0,0.086-0.928,1.032-0.938
		c0.945-0.01,0.919,0.894,0.919,0.894v18.293c0,1.443,1.204,2.613,2.688,2.613c1.483,0,2.688-1.17,2.688-2.613l0.088-18.877
		c0-0.18,0.022-16.656,0.022-16.656s-0.01-0.025-0.024-0.102c1.918-1.703,6.295-4.776,7.922-5.885
		c0.517-0.351,0.854-0.908,0.931-1.527c0.073-0.62-0.123-1.24-0.539-1.704L37.609,8.977z"/>
	<path fill="#0E0F0F" d="M45.79,8.814h0.979c0.086,0,0.154-0.068,0.158-0.153l0.201-6.917c0.002-0.043-0.014-0.084-0.045-0.115
		c-0.029-0.031-0.07-0.048-0.113-0.048h-1.383c-0.043,0-0.084,0.018-0.113,0.048c-0.029,0.03-0.047,0.072-0.045,0.115l0.201,6.917
		C45.634,8.747,45.706,8.814,45.79,8.814z"/>
	<path fill="#0E0F0F" d="M46.279,9.665c-0.584,0-1.01,0.443-1.01,1.052c0,0.608,0.426,1.051,1.01,1.051s1.009-0.442,1.009-1.051
		C47.288,10.107,46.863,9.665,46.279,9.665z"/>
</g>
</svg>
