<?xml version="1.0" encoding="utf-8"?>
<!-- Generator: Adobe Illustrator 16.0.4, SVG Export Plug-In . SVG Version: 6.00 Build 0)  -->
<!DOCTYPE svg PUBLIC "-//W3C//DTD SVG 1.1//EN" "http://www.w3.org/Graphics/SVG/1.1/DTD/svg11.dtd">
<svg version="1.1" id="Capa_1" xmlns="http://www.w3.org/2000/svg" xmlns:xlink="http://www.w3.org/1999/xlink" x="0px" y="0px"
	 width="64px" height="64px" viewBox="0 0 64 64" enable-background="new 0 0 64 64" xml:space="preserve">
<g>
	<circle fill="#0E0F0F" cx="30.954" cy="9.484" r="4.647"/>
	<path fill="#0E0F0F" d="M40.576,8.729c-1.075-1.026-2.406-0.803-3.289-0.058V5.878h-1.332v7.194h1.332v-0.665
		c1.013,0.967,2.027,1.958,2.818,3.115c0.278,0.407,0.446,0.742,0.531,0.997c0.014,0.067,0.024,0.113,0.034,0.15
		c-0.004,0.068-0.01,0.137-0.014,0.186c-0.003,0.002-0.003,0.002-0.003,0.005c-0.133,0.269-0.299,0.521-0.459,0.773
		c-0.51,0.804-1.967,0.406-2.497-0.068c-0.232-0.208-0.479-0.347-0.728-0.453l-0.008-0.149c0,0-6.781-4.078-13.92,1.115
		c-4.628,4.21-5.696,10.642-6.427,16.852c-0.371,3.156,4.565,3.121,4.933,0c0.436-3.706,1.059-7.43,2.899-10.6l-0.009,3.58
		l-0.034,17.195v13.641c0,1.469,1.075,2.658,2.584,2.658c1.509,0,2.734-1.189,2.734-2.658V39.248h2.415c0,4.568,0,14.994,0,19.562
		c0,3.182,4.932,3.182,4.932,0c0-4.567,0-9.136,0-13.703l0.209-17.229c0.003-1.646,0.005-3.115,0.006-4.137l-0.051-1.067
		c3.043,0.799,6.42-0.41,7.826-3.644C46.852,14.918,43.348,11.371,40.576,8.729z M40.684,16.81c-0.004,0.004-0.007,0.01-0.009,0.014
		c0.005-0.021,0.011-0.054,0.017-0.087c0,0.001,0.002,0.005,0.002,0.005C40.689,16.765,40.686,16.794,40.684,16.81z M40.695,16.735
		c0-0.001-0.002-0.01-0.002-0.014c0.007-0.033,0.012-0.059,0.02-0.103C40.703,16.671,40.699,16.7,40.695,16.735z"/>
</g>
</svg>
