<?xml version="1.0" encoding="utf-8"?>
<!-- Generator: Adobe Illustrator 16.0.4, SVG Export Plug-In . SVG Version: 6.00 Build 0)  -->
<!DOCTYPE svg PUBLIC "-//W3C//DTD SVG 1.1//EN" "http://www.w3.org/Graphics/SVG/1.1/DTD/svg11.dtd">
<svg version="1.1" id="Capa_1" xmlns="http://www.w3.org/2000/svg" xmlns:xlink="http://www.w3.org/1999/xlink" x="0px" y="0px"
	 width="64px" height="64px" viewBox="0 0 64 64" enable-background="new 0 0 64 64" xml:space="preserve">
<g>
	<circle fill="#0E0F0F" cx="29.68" cy="7.878" r="4.773"/>
	<path fill="#0E0F0F" d="M52.842,26.933c0.316-0.369,0.824-0.77,0.824-1.218c0-0.561-0.303-1.014-0.902-1.351
		c-0.574-0.319-1.334-0.481-2.264-0.481h-0.072c0.082-0.486,0.24-0.964,0.473-1.424l0.146-0.251c0.34-0.652,0.504-1.139,0.504-1.498
		c0-0.995-0.531-1.624-1.57-1.869l-0.1-0.023c-0.082-0.02-0.113-0.006-0.182,0.039c-0.072,0.042-0.123,0.112-0.141,0.193
		l-2.17,3.669c-0.121,0.138-0.3,0.37-0.627,0.806l-0.259,0.343c-0.148,0.199-0.256,0.333-0.341,0.434
		c-1.433-0.411-2.542-1.126-3.27-2.161c-0.109-0.157-0.233-0.297-0.367-0.423l-0.012-0.086c-0.994-1.219-1.893-2.496-2.623-3.914
		c-0.082-0.161-0.184-0.309-0.299-0.441c-0.705-1.398-2.92-2.996-5.578-3.136l-1.021,0.871l-2.367,2.504v-2.252h-1.893v2.125
		l-2.403-2.377l-0.923-0.786c-3.02,0.307-5.464,1.025-5.855,2.502c-3.984,4.877-3.458,10.099-3.969,15.264
		c-0.34,3.418,4.993,3.387,5.329,0c0.276-2.779,0.088-6.312,1.19-8.807l0.889,2.136v9.308l-0.202,11.035L22.194,59.48
		c0,1.473,1.192,2.666,2.665,2.666c1.472,0,2.665-1.193,2.665-2.666l1.777-20.627h0.691l1.48,20.869
		c0,1.471,1.194,2.664,2.667,2.664c1.469,0,2.662-1.193,2.662-2.664l-0.59-14.062l-0.486-11.035v-8.42l0.039-3.887
		c1.234,0.49,2.207,2.145,2.207,2.145c0.051,0.065,0.108,0.125,0.16,0.19c0.079,0.211,0.176,0.417,0.311,0.61
		c1.562,2.232,3.945,3.775,6.887,4.46c0.209,0.048,0.418,0.073,0.621,0.073c0.055,0,0.106-0.01,0.16-0.014
		c0.504,0.481,1.041,0.858,1.604,1.12c0.033,0.012,0.068,0.024,0.104,0.026c0.226,0.019,0.39,0.029,0.504,0.029
		c0.312,0,1.814,0,1.814,0c1.248,0,1.332-0.608,1.332-1.118c0-0.015,0-0.031-0.002-0.048c0.65-0.095,0.992-0.466,0.992-1.078
		c0-0.044,0.174-0.099,0.17-0.163c0.221-0.079,0.398-0.195,0.521-0.349c0.145-0.174,0.221-0.401,0.221-0.671
		C53.369,27.34,53.145,27.019,52.842,26.933z"/>
</g>
</svg>
