<?xml version="1.0" encoding="utf-8"?>
<!-- Generator: Adobe Illustrator 16.0.4, SVG Export Plug-In . SVG Version: 6.00 Build 0)  -->
<!DOCTYPE svg PUBLIC "-//W3C//DTD SVG 1.1//EN" "http://www.w3.org/Graphics/SVG/1.1/DTD/svg11.dtd">
<svg version="1.1" id="Capa_1" xmlns="http://www.w3.org/2000/svg" xmlns:xlink="http://www.w3.org/1999/xlink" x="0px" y="0px"
	 width="64px" height="64px" viewBox="0 0 64 64" enable-background="new 0 0 64 64" xml:space="preserve">
<g>
	<circle fill="#0E0F0F" cx="32" cy="9.576" r="4.383"/>
	<path fill="#0E0F0F" d="M45.523,33.289c-1.236-13.887-7.854-16.657-7.854-16.657s-6.396-3.845-13.129,1.052
		c-4.365,3.973-5.373,10.038-6.063,15.896c-0.349,2.977,4.307,2.941,4.653,0c0.412-3.496,1-7.008,2.735-9.999l-0.008,3.375
		l-0.032,16.219v12.867c0,1.383,1.014,2.506,2.438,2.506c1.423,0,2.578-1.123,2.578-2.506V37.65h2.278c0,4.309,0,14.144,0,18.451
		c0,3,4.652,3,4.652,0c0-4.309,0-8.619,0-12.927l0.197-16.251c0.002-1.551,0.004-2.937,0.004-3.901
		c1.859,3.046,2.473,6.664,2.896,10.265C41.217,36.23,45.872,36.266,45.523,33.289z"/>
</g>
</svg>
