<?xml version="1.0" encoding="utf-8"?>
<!-- Generator: Adobe Illustrator 16.0.4, SVG Export Plug-In . SVG Version: 6.00 Build 0)  -->
<!DOCTYPE svg PUBLIC "-//W3C//DTD SVG 1.1//EN" "http://www.w3.org/Graphics/SVG/1.1/DTD/svg11.dtd">
<svg version="1.1" id="Capa_1" xmlns="http://www.w3.org/2000/svg" xmlns:xlink="http://www.w3.org/1999/xlink" x="0px" y="0px"
	 width="64px" height="64px" viewBox="0 0 64 64" enable-background="new 0 0 64 64" xml:space="preserve">
<g>
	<path fill="#0E0F0F" d="M52.811,57.909c-1.894-6.986-6.063-18.208-8.389-25.062c0-3.515,0-7.028,0-10.542
		c0-0.443-0.061-0.845-0.16-1.218c2.217-1.777,4.377-3.629,6.491-5.521c1.901-1.703,0.106-6.545-0.274-8.667
		c-0.19-1.057-0.793-1.673-1.535-1.93c-0.627-0.625-2.432-0.582-2.432-0.582L46.509,4.39c-0.821-0.22-1.779-0.022-2.54,0.49
		l-1.806-0.182l0.126-1.269l-1.027-0.103l-0.129,1.275c-3.178-0.26-11.216-2.433-30.13,0.666L8.704,8.089
		c0,0,22.69-3.792,32.304-2.248l-0.119,1.19l1.03,0.103l0.099-0.997l0.83,0.083c-0.201,0.486-0.274,1.05-0.162,1.677
		c0.238,1.334,0.479,2.668,0.719,4.004c-2.342,2.078-4.737,4.106-7.243,5.982c-1.455,0.537-2.604,1.81-2.604,3.833
		c0,3.96,0,7.921,0,11.884c-2.156,6.436-5.745,16.81-7.521,23.361c-1.201,3.549,6.439,6.605,7.793,2.05
		c1.192-4.401,4.088-12.659,5.455-17.009c1.307,4.175,4.589,12.678,5.733,16.9C45.965,61.982,54.084,62.557,52.811,57.909z
		 M46.502,4.394c-0.025,0.013-0.408,0.215-0.807,0.657l-0.469-0.047C45.604,4.712,46.049,4.504,46.502,4.394z M38.428,18.412
		c-1.457,0.537-2.604,1.81-2.604,3.833c0,3.96,0,7.921,0,11.883c-2.154,6.437-5.744,16.81-7.52,23.361
		c-0.32,1.178-1.267,1.063-0.835-0.527c1.775-6.553,5.364-16.927,7.521-23.362c0-3.96,0-7.923,0-11.883
		c0-2.024,1.148-3.297,2.604-3.833c2.506-1.876,4.903-3.905,7.245-5.982c-0.239-1.336-0.479-2.67-0.72-4.004
		c-0.104-0.569-0.051-1.084,0.109-1.538l0.723,0.072c-0.146,0.542-0.182,1.199,0.002,1.994c0.24,1.334,0.48,2.669,0.721,4.004
		C43.331,14.507,40.934,16.536,38.428,18.412z M46.449,58.904c-1.354-4.988-4.871-14.245-6.445-19.166
		c0.105-0.33,0.207-0.662,0.316-0.991c0.011,0,0.021,0,0.035,0c1.76,5.42,5.438,15.185,6.93,20.687
		C47.436,59.993,46.714,59.878,46.449,58.904z"/>
	<circle fill="#0E0F0F" cx="35.133" cy="11.93" r="4.489"/>
</g>
</svg>
