<?xml version="1.0" encoding="utf-8"?>
<!-- Generator: Adobe Illustrator 16.0.4, SVG Export Plug-In . SVG Version: 6.00 Build 0)  -->
<!DOCTYPE svg PUBLIC "-//W3C//DTD SVG 1.1//EN" "http://www.w3.org/Graphics/SVG/1.1/DTD/svg11.dtd">
<svg version="1.1" id="Capa_1" xmlns="http://www.w3.org/2000/svg" xmlns:xlink="http://www.w3.org/1999/xlink" x="0px" y="0px"
	 width="64px" height="64px" viewBox="0 0 64 64" enable-background="new 0 0 64 64" xml:space="preserve">
<g>
	<path fill="#0E0F0F" d="M37.566,30.581c-1.338-0.026-2.451,1.026-2.483,2.366c-0.033,1.34,1.024,2.453,2.366,2.484
		c0.089,0.002,0.179,0.004,0.268,0.004c3.243,0,5.182-1.459,6.243-2.703c1.677-1.966,2.349-4.833,1.89-7.915
		c-0.004-0.06,0.006-0.112,0-0.172c-0.5-5.059-1.746-6.374-2.947-8.193c-0.838-1.602-2.721-1.785-5.42-2.115l-4.506-0.101
		l-4.509,0.101c-2.698,0.331-4.32,1.27-5.184,2.389c-2.775,4.267-4.257,9.023-4.758,14.079c-0.333,3.351,4.891,3.316,5.221,0
		c0.27-2.721,0.956-5.312,2.033-7.754c0,0,2.776,0.045,0.248,3.2c-2.526,3.154-3.639,23.764-3.639,23.764h0.875h3.088v8.442
		c0,1.44,1.169,2.61,2.609,2.61c1.125,0,2.076-0.715,2.442-1.715c0.167-0.342,0.27-0.726,0.27-1.133v-8.205h2.606v8.205
		c0,0.407,0.102,0.791,0.268,1.133c0.368,1,1.316,1.715,2.441,1.715c1.443,0,2.611-1.17,2.611-2.61v-8.442h3.088h0.875
		c0,0-0.183-7.726-1.062-14.483c-1.231,0.679-2.817,1.174-4.832,1.177l-0.299-0.006c-2.104-0.051-3.772-1.803-3.722-3.905
		c0.052-2.085,1.729-3.718,3.822-3.718l0.209,0.003c1.322,0.197,2.279-1.208,3.18-1.228c-0.348-0.904-0.739-1.586-1.18-1.949
		c-3.389-2.785,0.489-2.855,0.489-2.855c0.308,0.22,0.827,1.143,0.942,2.9c0.146,1.5-0.154,2.824-0.842,3.631
		C39.676,30.274,38.775,30.614,37.566,30.581z"/>
	<path fill="#0E0F0F" d="M32.895,13.169c0.025,0,0.054-0.003,0.082-0.003c0.025,0,0.051,0.003,0.08,0.003
		c2.789,0,5.051-2.258,5.051-5.048c0-2.788-2.262-5.048-5.051-5.048c-0.029,0-0.055,0.005-0.08,0.005
		c-0.028,0-0.057-0.005-0.082-0.005c-2.79,0-5.049,2.26-5.049,5.048C27.845,10.911,30.105,13.169,32.895,13.169z"/>
</g>
</svg>
