<?xml version="1.0" encoding="utf-8"?>
<!-- Generator: Adobe Illustrator 16.0.4, SVG Export Plug-In . SVG Version: 6.00 Build 0)  -->
<!DOCTYPE svg PUBLIC "-//W3C//DTD SVG 1.1//EN" "http://www.w3.org/Graphics/SVG/1.1/DTD/svg11.dtd">
<svg version="1.1" id="Capa_1" xmlns="http://www.w3.org/2000/svg" xmlns:xlink="http://www.w3.org/1999/xlink" x="0px" y="0px"
	 width="64px" height="64px" viewBox="0 0 64 64" enable-background="new 0 0 64 64" xml:space="preserve">
<g>
	<circle fill="#0E0F0F" cx="32.102" cy="8.937" r="5.438"/>
	<path fill="#0E0F0F" d="M48.793,24.468c-2.964-2.929-11.248-6.974-12.598-7.62c-0.877-0.69-1.979-1.111-3.254-1.12
		c-0.325-0.002-0.65,0.033-0.973,0.094c-0.076-0.022-0.147-0.054-0.227-0.069L18.797,13.21V1.486h-5.633v61.028h5.633V19.172
		l8.577,1.685c-0.002,0.119-0.007,0.237,0.001,0.357c0.274,4.216,0.547,8.433,0.821,12.649c0.009,0.126,0.025,0.248,0.04,0.375
		c0.368,8.224,1.274,16.396,2.252,24.572c0.492,4.106,6.999,4.153,6.5,0c-0.217-1.815-0.43-3.631-0.635-5.446
		c0.777,0.051,1.596-0.165,2.338-0.763c3.168-2.547,6.19-5.754,6.233-10.06c0.03-3.233-2.141-5.696-4.715-7.528
		c0.136-0.043,0.271-0.099,0.401-0.164c1.576-0.8,3.266-2.226,4.896-3.606c1.012-0.854,2.059-1.739,2.842-2.256
		c0.734-0.486,1.213-1.278,1.297-2.155C49.734,25.955,49.42,25.087,48.793,24.468z M35.656,46.771
		c-0.242-2.485-0.454-4.976-0.627-7.465c1.558,0.793,3.246,1.889,3.396,3.236C38.594,44.082,37.066,45.607,35.656,46.771z
		 M41.732,26.777c-0.931,0.786-1.943,1.64-2.803,2.25c-0.093-1.443-0.188-2.887-0.281-4.329c1.15,0.635,2.285,1.291,3.276,1.916
		C41.863,26.668,41.798,26.722,41.732,26.777z"/>
</g>
</svg>
