<?xml version="1.0" encoding="utf-8"?>
<!-- Generator: Adobe Illustrator 16.0.4, SVG Export Plug-In . SVG Version: 6.00 Build 0)  -->
<!DOCTYPE svg PUBLIC "-//W3C//DTD SVG 1.1//EN" "http://www.w3.org/Graphics/SVG/1.1/DTD/svg11.dtd">
<svg version="1.1" id="Capa_1" xmlns="http://www.w3.org/2000/svg" xmlns:xlink="http://www.w3.org/1999/xlink" x="0px" y="0px"
	 width="64px" height="64px" viewBox="0 0 64 64" enable-background="new 0 0 64 64" xml:space="preserve">
<g>
	<path fill="#0E0F0F" d="M32.317,14.111c2.853,0,5.164-2.313,5.164-5.164c0-0.996-0.287-1.922-0.773-2.711
		c0.518-1.515-0.457-4.415-0.332-3.165c0.062,0.621-0.389,1.259-0.916,1.783c-0.871-0.669-1.959-1.072-3.142-1.072
		c-1.277,0-2.444,0.466-3.346,1.235c-0.58-0.531-1.123-1.215-1.056-1.879c0.13-1.303-0.982,2.087-0.155,3.378
		c-0.387,0.725-0.608,1.552-0.608,2.431C27.153,11.799,29.465,14.111,32.317,14.111z"/>
	<path fill="#0E0F0F" d="M55.716,12.037c-1.219-0.812-2.565-2.292-3.454-3.536c-0.139,1.524-0.546,3.482-1.185,4.8l1.539-1.083
		c0.591,3.062,0.334,5.302-0.736,6.347c-0.659,0.643-1.683,0.88-3.042,0.721v-8.892l1.771,0.641
		c-0.963-1.104-1.871-2.885-2.403-4.321c-0.532,1.436-1.44,3.217-2.404,4.321l1.772-0.641v8.88
		c-1.404,0.181-2.459-0.051-3.133-0.709c-1.069-1.045-1.324-3.285-0.735-6.347l1.539,1.083c-0.64-1.318-1.048-3.275-1.183-4.8
		c-0.894,1.244-2.236,2.725-3.455,3.536l1.875-0.153c-0.516,2.629-0.674,5.876,1.076,7.584c0.771,0.755,1.826,1.133,3.148,1.133
		c0.275,0,0.566-0.021,0.866-0.054v4.354c-3.607-0.814-6.707-2.528-8.75-5.764c-0.313-0.499-0.702-0.852-1.125-1.084
		c-1.153-1.229-2.976-2.07-5.148-2.257c-1.024-0.088-2.039,0.026-2.957,0.307c-0.355,0.038-0.727,0.144-1.111,0.342
		c-5.02,2.593-8.371,7.033-9.858,12.453c-1.04,3.784,4.695,5.931,5.74,2.129c0.357-1.303,0.824-2.533,1.419-3.667
		c-0.053,2.776-0.106,5.552-0.159,8.328c-0.185-0.006-0.369,0-0.552,0.024c-2.071,0.298-3.28,2.558-4.449,4.74
		c-0.854,1.596-1.823,3.405-2.705,3.313c-0.787-0.059-2.185-3.771-3.025-5.979c-0.764-2.01-1.552-4.077-2.479-5.873l2.643-0.985
		c-2.105-0.318-4.786-1.437-6.726-2.527c0.76,2.091,1.428,4.918,1.399,7.047l1.28-2.237c0.786,1.604,1.486,3.438,2.166,5.228
		c1.5,3.944,2.593,6.819,4.416,7.134c0.047,0.009,0.094,0.015,0.142,0.02c2.102,0.218,3.325-2.065,4.507-4.274
		c0.909-1.697,1.94-3.623,3.092-3.789c0.086-0.012,0.176-0.014,0.27-0.006l-0.025,1.319l-0.374,8.882L24.402,58.84
		c-0.005,0.277,0.06,0.542,0.174,0.787l-0.003,0.037c-0.022,1.186,1.142,2.16,2.604,2.179c1.459,0.019,2.662-0.927,2.686-2.11
		l1.56-14.613l0.271-2.17l0.645,0.01l0.753,8.668l0.514,7.525c-0.006,0.326,0.086,0.634,0.24,0.912
		c0.25,0.957,1.284,1.683,2.543,1.697c1.461,0.021,2.661-0.926,2.686-2.111L38.697,48.52l-0.028-8.885l0.026-1.458
		c0.004-0.052,0.015-0.1,0.016-0.149c0.064-3.414,0.131-6.822,0.195-10.233c2.322,1.581,4.99,2.651,7.887,3.185
		c0.271,0.05,0.531,0.064,0.779,0.053v30.522h1.264V30.693c2.146-1.126,2.63-4.681,0-5.51v-4.626
		c0.268,0.027,0.529,0.045,0.777,0.045c1.32,0,2.376-0.378,3.148-1.133c1.747-1.708,1.59-4.955,1.074-7.584L55.716,12.037z"/>
</g>
</svg>
