<?xml version="1.0" encoding="utf-8"?>
<!-- Generator: Adobe Illustrator 16.0.4, SVG Export Plug-In . SVG Version: 6.00 Build 0)  -->
<!DOCTYPE svg PUBLIC "-//W3C//DTD SVG 1.1//EN" "http://www.w3.org/Graphics/SVG/1.1/DTD/svg11.dtd">
<svg version="1.1" id="Capa_1" xmlns="http://www.w3.org/2000/svg" xmlns:xlink="http://www.w3.org/1999/xlink" x="0px" y="0px"
	 width="64px" height="64px" viewBox="0 0 64 64" enable-background="new 0 0 64 64" xml:space="preserve">
<g>
	<path fill="#0E0F0F" d="M44.658,5.004c-0.518-2.468-3.057-2.542-4.633-1.28l-6.791-1.936l-0.146,0.519l4.661,1.329
		c-0.087,0.017-0.174,0.037-0.263,0.064c-1.329,0.422-0.286,1.412-1.704,1.522c-1.417,0.11-2.575,1.397-2.575,1.397l0.041,0.073
		L32.199,6.55l-0.074,0.535l6.896,0.937c0.377,2.077,0.416,3.449,0.252,5.294c-3.117,0.363-6.27,0.623-9.329-0.159
		c-0.791-0.203-1.468-0.105-2.015,0.181c-0.721,0.016-1.458,0.288-2.102,0.915c-4.209,4.106-8.07,8.516-11.439,13.338
		c-2.253,3.227,2.338,7.353,4.61,4.098c1.729-2.475,3.59-4.839,5.558-7.111c0.842,4.039,1.185,7.237,1.661,11.718l0.082,0.763
		c0.015,0.146,0.042,0.283,0.065,0.422L26.27,58.967c-0.006,1.784,1.434,3.236,3.22,3.244h0.012c1.779,0,3.227-1.438,3.232-3.216
		l0.067-15.466L37.193,58.9c0.406,1.416,1.701,2.344,3.104,2.344c0.294,0,0.595-0.039,0.89-0.126
		c1.715-0.489,2.711-2.277,2.221-3.994l-5.646-19.771c0.023-0.358,0.021-0.729-0.021-1.111c-0.634-5.932-1.166-10.38-2.546-16.432
		c2.369-0.073,4.742-0.379,7.082-0.645c1.291-0.147,2.632-1.082,2.802-2.471C45.661,12.015,45.627,9.649,44.658,5.004z"/>
	<circle fill="#0E0F0F" cx="25.761" cy="7.688" r="5.14"/>
</g>
</svg>
