<?xml version="1.0" encoding="utf-8"?>
<!-- Generator: Adobe Illustrator 16.0.4, SVG Export Plug-In . SVG Version: 6.00 Build 0)  -->
<!DOCTYPE svg PUBLIC "-//W3C//DTD SVG 1.1//EN" "http://www.w3.org/Graphics/SVG/1.1/DTD/svg11.dtd">
<svg version="1.1" id="Capa_1" xmlns="http://www.w3.org/2000/svg" xmlns:xlink="http://www.w3.org/1999/xlink" x="0px" y="0px"
	 width="64px" height="64px" viewBox="0 0 64 64" enable-background="new 0 0 64 64" xml:space="preserve">
<path fill="#0E0F0F" d="M43.928,16.862l0.784,1.18l-5.915,3.935l-0.785-1.18L43.928,16.862z M39.803,21.566
	c-2.582,1.407-4.621,2.067-6.504,0.108c0.024-0.48,0.049-0.961,0.08-1.442c0.385-5.917-8.758-7.222-9.145-1.281
	c-0.389,5.987-0.398,11.993,0.141,17.97c0.125,1.392,0.726,2.39,1.56,3.033c0.141,5.679,0.157,11.356,0.157,17.038
	c0,3.982,6.177,3.982,6.177,0c0-5.795-0.018-11.59-0.167-17.383c0.975-0.857,1.589-2.144,1.44-3.801
	c-0.21-2.332-0.327-4.661-0.368-6.985c0.236,0.074,0.469,0.152,0.717,0.206c3.168,0.689,6.303-0.643,9.029-2.129
	C46.419,24.994,43.302,19.659,39.803,21.566z M29.299,4.02c2.869,0,5.194,2.325,5.194,5.194s-2.326,5.194-5.194,5.194
	c-2.868,0-5.194-2.326-5.194-5.194S26.431,4.02,29.299,4.02z"/>
</svg>
