<?xml version="1.0" encoding="utf-8"?>
<!-- Generator: Adobe Illustrator 16.0.4, SVG Export Plug-In . SVG Version: 6.00 Build 0)  -->
<!DOCTYPE svg PUBLIC "-//W3C//DTD SVG 1.1//EN" "http://www.w3.org/Graphics/SVG/1.1/DTD/svg11.dtd">
<svg version="1.1" id="Capa_1" xmlns="http://www.w3.org/2000/svg" xmlns:xlink="http://www.w3.org/1999/xlink" x="0px" y="0px"
	 width="64px" height="64px" viewBox="0 0 64 64" enable-background="new 0 0 64 64" xml:space="preserve">
<g>
	<circle fill="#0E0F0F" cx="28.22" cy="9.045" r="5.057"/>
	<path fill="#0E0F0F" d="M44.355,26.415l-9.967-10.1c-0.121-0.123-0.253-0.228-0.392-0.318c-0.543-0.456-1.408-0.71-2.801-0.441
		c-1.858,0.742-7.503-0.774-8.846-1.153l-3.913-2.053l4.859-5.737c0.706-1.116,0.374-2.594-0.74-3.302
		c-1.118-0.707-2.597-0.374-3.302,0.742l-6.248,7.929c-0.357,0.565-0.463,1.255-0.289,1.9c0.172,0.646,0.607,1.189,1.198,1.5
		l7.104,3.724l1.84,19.631l2.392,19.435c0,1.599,1.17,2.894,2.813,2.894c1.644,0,2.975-1.295,2.975-2.894l-2.392-20.247
		c0,0,0.096-1.027,1.141-1.038c1.046-0.011,1.02,0.987,1.02,0.987l2.391,20.242c0,1.598,1.333,2.894,2.976,2.894
		c1.642,0,2.976-1.296,2.976-2.894l-2.295-20.889c0-0.126-0.804-7.612-1.384-13.003l5.479,5.551
		c0.467,0.474,1.084,0.711,1.702,0.711c0.604,0,1.213-0.229,1.68-0.688C45.271,28.869,45.283,27.354,44.355,26.415z"/>
</g>
</svg>
