<?xml version="1.0" encoding="utf-8"?>
<!-- Generator: Adobe Illustrator 16.0.4, SVG Export Plug-In . SVG Version: 6.00 Build 0)  -->
<!DOCTYPE svg PUBLIC "-//W3C//DTD SVG 1.1//EN" "http://www.w3.org/Graphics/SVG/1.1/DTD/svg11.dtd">
<svg version="1.1" id="Capa_1" xmlns="http://www.w3.org/2000/svg" xmlns:xlink="http://www.w3.org/1999/xlink" x="0px" y="0px"
	 width="64px" height="64px" viewBox="0 0 64 64" enable-background="new 0 0 64 64" xml:space="preserve">
<g>
	<path fill="#010101" d="M53.371,27.015C48.99,20.497,43.001,16.063,35.8,13.357c-3.497-0.909-8.08,1.373-8.175,1.484
		c-0.234,0.078-0.469,0.18-0.709,0.328c-3.852,2.383-10.281,7.162-7.469,12.509c2.823,5.364,11.655,4.375,16.502,3.764
		c0.92-0.116,1.751-0.493,2.32-1.109c0.494-0.372,0.892-0.949,0.892-1.85c0-0.471-0.179-0.983-0.468-1.424
		c-0.508-1.052-1.561-1.907-2.744-1.757c-2.733,0.344-5.476,0.548-8.227,0.312c-0.726-0.063-1.442-0.256-2.136-0.472
		c-0.34-0.106-0.469-0.149-0.598-0.252c0.067-0.199,0.167-0.37,0.372-0.63c0.51-0.654,1.103-1.23,1.74-1.759
		c0.249,0.43,0.538,0.846,0.871,1.236c0.278,0.327,0.535,0.664,0.794,1c2.232,0.119,4.66-0.003,7.801-0.398
		c2.346-0.291,4.256,2.099,4.256,4.144c0,2.207-1.59,3.833-4.049,4.144c-1.955,0.245-4.224,0.499-6.573,0.527
		c-3.229,8.168-4.817,16.457-4.42,25.342c0.243,5.421,8.687,5.445,8.441,0c-0.304-6.811,0.563-13.338,2.773-19.684
		c0.396,0.179,0.812,0.318,1.232,0.422c0.389,7.123,1.488,14.158,3.562,21.021c1.57,5.198,9.72,2.981,8.143-2.243
		c-2.371-7.842-3.377-15.768-3.433-23.947c-0.002-0.625-0.392-2.443-0.478-2.839c-0.437-1.982-1.051-3.876-1.818-5.694
		c1.42,1.354,2.72,2.875,3.867,4.583C50.268,33.38,55.588,30.31,53.371,27.015z M24.883,25.334c0.017-0.104,0.033-0.19,0.053-0.272
		c0.018,0.029,0.023,0.024,0.007-0.042c0.002-0.004,0.003-0.008,0.004-0.012c0.006,0.018,0.014,0.042,0.02,0.057
		C24.941,25.083,24.911,25.153,24.883,25.334z"/>
	<circle fill="#010101" cx="25.395" cy="7.074" r="6.29"/>
	<path fill="#010101" d="M10.354,38.085c0.154,0.03,0.317-0.024,0.419-0.157c0.813-1.056,1.847-2.082,3.019-3.008
		c-0.032,0.232-0.066,0.463-0.108,0.682c-0.035,0.172,0.042,0.347,0.19,0.438c0.147,0.095,0.337,0.089,0.48-0.017
		c1.595-1.17,3.729-2.659,6.099-3.801c0.213-0.102,0.301-0.357,0.2-0.568c-0.102-0.213-0.356-0.301-0.569-0.199
		c-2.04,0.984-3.902,2.211-5.407,3.285c0.033-0.241,0.067-0.479,0.113-0.704c0.033-0.171-0.041-0.347-0.188-0.44
		c-0.145-0.093-0.336-0.088-0.479,0.014c-1.581,1.123-2.974,2.438-4.023,3.797c-0.144,0.187-0.111,0.455,0.077,0.599
		C10.231,38.047,10.291,38.072,10.354,38.085z"/>
	<path fill="#010101" d="M23.05,34.693c-3.267,2.449-6.129,5.266-8.42,7.688c-0.025-0.438-0.048-0.871-0.048-1.281
		c0-0.314-0.19-0.597-0.482-0.714c-0.291-0.114-0.625-0.044-0.841,0.187c-2.405,2.537-4.408,5.344-5.795,8.115
		c-0.19,0.379-0.036,0.84,0.344,1.029c0.109,0.057,0.226,0.081,0.341,0.081c0.282,0,0.553-0.153,0.688-0.425
		c1.073-2.146,2.542-4.321,4.292-6.365c0.026,0.422,0.045,0.842,0.045,1.237c0,0.315,0.195,0.603,0.489,0.715
		c0.296,0.116,0.63,0.038,0.844-0.194c2.415-2.625,5.674-6.002,9.464-8.845c0.339-0.254,0.408-0.733,0.153-1.073
		C23.869,34.507,23.388,34.439,23.05,34.693z"/>
</g>
</svg>
