<?xml version="1.0" encoding="utf-8"?>
<!-- Generator: Adobe Illustrator 16.0.4, SVG Export Plug-In . SVG Version: 6.00 Build 0)  -->
<!DOCTYPE svg PUBLIC "-//W3C//DTD SVG 1.1//EN" "http://www.w3.org/Graphics/SVG/1.1/DTD/svg11.dtd">
<svg version="1.1" id="Capa_1" xmlns="http://www.w3.org/2000/svg" xmlns:xlink="http://www.w3.org/1999/xlink" x="0px" y="0px"
	 width="64px" height="64px" viewBox="0 0 64 64" enable-background="new 0 0 64 64" xml:space="preserve">
<g>
	<path fill="#0E0F0F" d="M46.046,54.955c-3.146-6.557-6.265-13.124-9.185-19.782c0.002-0.081,0.021-0.151,0.021-0.235
		c-0.03-4.554-0.521-9.063-1.614-13.482c4.227-3.486,6.461-8.92,8.461-13.896c1.457-3.622-4.396-5.18-5.832-1.608
		c-1.562,3.887-3.418,8.931-7.08,11.321c-0.16,0.104-0.292,0.221-0.422,0.339c-2.508,0.28-4.872,2.406-4.047,5.564
		c0.067,0.257,0.111,0.513,0.173,0.77c-0.323,0.402-0.678,0.769-1.075,1.075c-1.491,1.151-2.608-0.397-3.498-1.622
		c-2.267-3.124-7.519-0.11-5.222,3.053c2.345,3.232,5.061,5.485,9.224,4.921c0.585-0.079,1.138-0.26,1.666-0.504
		c0.084,1.042,0.139,2.092,0.162,3.153c-0.045,0.213-0.07,0.439-0.072,0.684c-0.043,7.273-0.86,14.452-2.312,21.577
		c-0.775,3.809,5.056,5.43,5.833,1.608c1.053-5.166,1.807-10.377,2.207-15.623c2.39,5.28,4.881,10.516,7.389,15.74
		C42.512,61.523,47.727,58.453,46.046,54.955z"/>
	<circle fill="#0E0F0F" cx="25.388" cy="13.319" r="4.754"/>
</g>
</svg>
