<?xml version="1.0" encoding="utf-8"?>
<!-- Generator: Adobe Illustrator 16.0.4, SVG Export Plug-In . SVG Version: 6.00 Build 0)  -->
<!DOCTYPE svg PUBLIC "-//W3C//DTD SVG 1.1//EN" "http://www.w3.org/Graphics/SVG/1.1/DTD/svg11.dtd">
<svg version="1.1" id="Capa_1" xmlns="http://www.w3.org/2000/svg" xmlns:xlink="http://www.w3.org/1999/xlink" x="0px" y="0px"
	 width="64px" height="64px" viewBox="0 0 64 64" enable-background="new 0 0 64 64" xml:space="preserve">
<g>
	<rect x="28.968" y="8.658" fill="#0E0F0F" width="4.655" height="2.92"/>
	<path fill="#0E0F0F" d="M26.324,13.634h9.89c0.185,0,0.331-0.149,0.331-0.333l-2.871-1.296h-4.791l-2.889,1.296
		C25.994,13.485,26.143,13.634,26.324,13.634z"/>
	<path fill="#0E0F0F" d="M30.22,14.886c-0.168,0.055-0.288,0.129-0.382,0.221c-0.2,0.176-0.373,0.332-0.544,0.471
		c-0.088,0.068-0.179,0.137-0.287,0.181c-0.106,0.05-0.233,0.075-0.372,0.071c-0.139,0-0.284-0.04-0.427-0.097
		c-0.146-0.056-0.294-0.121-0.478-0.174c0.042,0.187,0.135,0.348,0.255,0.486c0.122,0.138,0.265,0.264,0.434,0.378
		c0.169,0.112,0.37,0.202,0.591,0.249c0.22,0.045,0.456,0.049,0.677,0.002c0.448-0.086,0.812-0.341,1.076-0.631
		c0.135-0.144,0.324-0.53,0.324-0.53s0.203-0.481,0.204-0.648c0.002,0.168,0.204,0.647,0.204,0.647s0.189,0.386,0.324,0.53
		c0.263,0.291,0.628,0.545,1.077,0.631c0.221,0.046,0.457,0.043,0.679-0.002c0.22-0.046,0.42-0.137,0.59-0.249
		c0.169-0.114,0.312-0.24,0.435-0.378c0.119-0.138,0.213-0.299,0.254-0.486c-0.183,0.053-0.332,0.118-0.478,0.174
		c-0.146,0.057-0.29,0.097-0.429,0.097c-0.137,0.004-0.264-0.021-0.371-0.071c-0.109-0.044-0.2-0.113-0.286-0.181
		c-0.171-0.139-0.345-0.294-0.543-0.471c-0.097-0.091-0.216-0.166-0.385-0.221c-0.167-0.055-0.881-0.146-1.07-0.023c0,0,0,0,0,0.001
		C31.102,14.741,30.389,14.831,30.22,14.886z"/>
	<path fill="#0E0F0F" d="M46.904,20.616c-1.946-1.156-4.471,1.389-6.158,3.322c-1.098-1.149-2.255-2.247-3.404-3.336
		c-0.779-1.007-1.882-1.741-3.181-2.169l-2.503,3.275c0,0-1.98-2.03-3.038-3.328c-1.708,0.52-3.094,1.56-3.881,3.043
		c-0.887,0.844-1.769,1.7-2.615,2.586c-1.572-1.812-3.862-4.158-5.692-3.52c-2.076,0.726-1.551,3.748,0.218,3.925
		c0.077,0.053,0.172,0.12,0.295,0.21c1.397,1.024,2.589,2.478,3.757,3.747c0.687,0.746,2.087,0.798,2.765,0
		c0.05-0.059,0.104-0.114,0.155-0.173c-0.31,3.144-0.691,7.665-0.748,11.333c-0.097,6.296,1.497,11.346,2.185,16.162
		c0.474,3.32,5.446,1.904,4.976-1.387c-0.437-3.06-0.179-6.145-0.282-9.232c0,0-0.798-3.043,1.546-3.359
		c2.346-0.316,1.608,3.355,1.608,3.355s0.155,6.176-0.281,9.236c-0.471,3.291,4.502,4.707,4.976,1.387
		c0.797-5.586,1.479-9.326,1.967-16.826c0.271-4.137-0.061-8.106-0.412-10.84c0.08,0.091,0.164,0.178,0.242,0.271
		c0.68,0.798,2.078,0.745,2.767,0c1.211-1.31,2.433-2.617,3.788-3.774c0.136-0.115,0.223-0.189,0.283-0.245
		C47.75,23.975,48.62,21.636,46.904,20.616z M31.59,31.176c-0.382,0-0.691-0.313-0.691-0.7c0-0.387,0.309-0.698,0.691-0.698
		c0.381,0,0.689,0.312,0.689,0.698C32.279,30.862,31.971,31.176,31.59,31.176z M31.59,28.426c-0.382,0-0.691-0.312-0.691-0.698
		s0.309-0.698,0.691-0.698c0.381,0,0.689,0.312,0.689,0.698S31.971,28.426,31.59,28.426z M31.59,25.667
		c-0.382,0-0.691-0.314-0.691-0.7c0-0.384,0.309-0.698,0.691-0.698c0.381,0,0.689,0.314,0.689,0.698
		C32.279,25.354,31.971,25.667,31.59,25.667z"/>
</g>
</svg>
