<?xml version="1.0" encoding="utf-8"?>
<!-- Generator: Adobe Illustrator 16.0.4, SVG Export Plug-In . SVG Version: 6.00 Build 0)  -->
<!DOCTYPE svg PUBLIC "-//W3C//DTD SVG 1.1//EN" "http://www.w3.org/Graphics/SVG/1.1/DTD/svg11.dtd">
<svg version="1.1" id="Capa_1" xmlns="http://www.w3.org/2000/svg" xmlns:xlink="http://www.w3.org/1999/xlink" x="0px" y="0px"
	 width="64px" height="64px" viewBox="0 0 64 64" enable-background="new 0 0 64 64" xml:space="preserve">
<g>
	<path fill="#0E0F0F" d="M54.863,40.652c-2.709,1.83-5.914,3.848-9.334,3.183c-1.744-0.34-3.104-1.451-4.203-2.833
		c0.365-1.676,0.107-3.518-0.674-5.216c-0.402-0.876-0.842-1.726-1.299-2.567c0.432-0.041,0.862-0.096,1.297-0.172
		c0.188-0.033,0.35-0.088,0.5-0.154c2.039,1.074,4.545,1.147,6.692-0.11c3.187-1.869,4.449-6.261,2.462-9.462
		c-1.623-2.619-3.253-5.238-4.878-7.858c-1.983-3.198-6.147-4.402-9.461-2.461c-1.053,0.617-1.891,1.513-2.475,2.547
		c-1.665,0.402-3.247,1.073-4.574,2.213c-0.474,0.408-0.875,0.857-1.235,1.33c-1.63-0.482-3.414-0.341-5.162,0.684
		c-0.16,0.094-0.316,0.2-0.468,0.312c-0.294-0.059-0.599-0.078-0.911-0.041c-5.189,0.618-10.251,1.612-15.173,3.399
		c-4.888,1.773-2.78,9.632,2.16,7.839c3.706-1.345,7.532-2.319,11.429-2.895c0.14,0.292,0.3,0.579,0.501,0.848
		c2.759,3.682,5.479,7.382,7.625,11.443c-4.993,3.215-9.83,6.659-14.556,10.274c-4.104,3.139-0.063,10.206,4.103,7.021
		c5.5-4.207,11.147-8.184,17.018-11.832c0.301,0.016,0.6,0.008,0.896-0.01c2.137,2.561,4.809,4.559,8.223,5.543
		c5.43,1.564,11.189-1.017,15.6-3.999C63.281,44.754,59.219,37.706,54.863,40.652z M36.952,29.208
		c-1.56-2.385-3.254-4.683-4.971-6.971c-0.236-0.316-0.492-0.611-0.757-0.892c0.412-0.444,0.897-0.813,1.44-1.113
		c0.138,0.773,0.408,1.529,0.842,2.228c1.408,2.268,2.814,4.536,4.225,6.804C37.467,29.259,37.21,29.237,36.952,29.208z"/>
	<circle fill="#0E0F0F" cx="19.379" cy="11.758" r="6.64"/>
</g>
</svg>
