<?xml version="1.0" encoding="utf-8"?>
<!-- Generator: Adobe Illustrator 16.0.4, SVG Export Plug-In . SVG Version: 6.00 Build 0)  -->
<!DOCTYPE svg PUBLIC "-//W3C//DTD SVG 1.1//EN" "http://www.w3.org/Graphics/SVG/1.1/DTD/svg11.dtd">
<svg version="1.1" id="Capa_1" xmlns="http://www.w3.org/2000/svg" xmlns:xlink="http://www.w3.org/1999/xlink" x="0px" y="0px"
	 width="64px" height="64px" viewBox="0 0 64 64" enable-background="new 0 0 64 64" xml:space="preserve">
<g>
	<circle fill="#0E0F0F" cx="34.129" cy="11.266" r="4.862"/>
	<path fill="#0E0F0F" d="M55.37,7.847c-2.157-1.553-5.646-0.406-7.779,2.555c-1.735,2.41-2.655,6.132-1.493,8.128
		c-0.255,0.605-1.158,2.449-3.996,6.349c-4.369-0.603-8.135-2.171-9.416-6.316c-0.204-0.655-0.577-1.087-1.023-1.35
		c-0.436-0.592-0.979-1.098-1.608-1.461c-2.681-1.547-5.776-0.475-7.411,1.986C19.906,21.856,17.928,26,16.15,30.613
		c-0.471,1.223-0.296,2.526,0.271,3.663c-0.014,0.361,0.04,0.754,0.184,1.173c1.113,3.239,1.496,6.636,1.856,10.024
		c-3.052,2.252-6.245,4.428-9.84,5.623c-3.886,1.291-2.221,7.457,1.696,6.154c4.725-1.57,10.194-4.501,13.748-8.055
		c1.71-1.709,0.65-4.975,0.396-7.072c-0.145-1.191-0.308-2.384-0.513-3.564c2.024,1.314,3.807,2.979,4.721,5.274
		c1.436,3.615,0.118,7.565-1.531,10.856c-1.839,3.668,3.666,6.9,5.512,3.221c2.384-4.756,3.779-9.824,2.396-15.098
		c-1.139-4.34-4.45-7.613-8.183-9.947c1.065-2.67,2.273-5.074,3.919-7.735c2.948,2.999,7.426,4.566,12.108,4.956
		c3.217,0.268,4.219-4.629,1.065-4.997c2.548-3.524,3.755-4.701,4.2-5.067c2.264,0.488,5.517-1.571,7.257-3.989
		C57.545,13.073,57.525,9.4,55.37,7.847z M47.182,20.081c-0.271,0.377-0.685,0.543-0.924,0.371
		c-0.238-0.172-0.212-0.617,0.061-0.992c0.271-0.378,0.685-0.544,0.923-0.372C47.479,19.26,47.452,19.704,47.182,20.081z
		 M54.686,15.511c-1.819,2.527-5.049,4.231-6.685,3.536l-0.918-0.662c-1.177-1.328-0.584-4.933,1.235-7.46
		c1.845-2.561,4.771-3.615,6.525-2.351C56.602,9.839,56.529,12.95,54.686,15.511z"/>
</g>
</svg>
