<?xml version="1.0" encoding="utf-8"?>
<!-- Generator: Adobe Illustrator 16.0.4, SVG Export Plug-In . SVG Version: 6.00 Build 0)  -->
<!DOCTYPE svg PUBLIC "-//W3C//DTD SVG 1.1//EN" "http://www.w3.org/Graphics/SVG/1.1/DTD/svg11.dtd">
<svg version="1.1" id="Capa_1" xmlns="http://www.w3.org/2000/svg" xmlns:xlink="http://www.w3.org/1999/xlink" x="0px" y="0px"
	 width="64px" height="64px" viewBox="0 0 64 64" enable-background="new 0 0 64 64" xml:space="preserve">
<g>
	<path fill="#0E0F0F" d="M21.057,14.602c-0.809-0.309-2.561-0.909-3.404-1.012l-2.507,3.576l-2.341-3.341
		c-1.341,0.068-1.866-0.049-3.309,0.479c-2.432,0.892-4.256,7.078-5.112,9.516c-0.856,2.438,1.697,3.957,3.579,4.462h8.794
		c1.118,0,2.028-0.91,2.028-2.028s-0.91-2.028-2.028-2.028H16.75H15.3h-5.249V23.33H15.3v-0.564l-1.978-3.099h5.285l0.008,0.003
		L16.75,22.8v0.529h0.007c1.613,0,2.924,1.312,2.924,2.924c0,1.613-1.312,2.924-2.924,2.924H9.413L9.11,57.965
		c0,1.834,1.488,3.322,3.324,3.322c1.835,0,2.111-1.488,2.111-3.322l0.909-15.104c0,0-0.287-1.07,0.255-1.152
		s0.372,0.969,0.372,0.969l0.583,15.668c0.136,1.547,1.527,2.994,3.075,2.859c1.548-0.137,2.666-1.805,2.531-3.352l-0.629-33.297
		c0.016-0.239,0.027-0.479,0.042-0.717c1.207,2.5,1.526,5.239,1.363,8.569c-0.19,3.908,5.872,3.891,6.062,0
		c0.332-6.788-1.957-12.272-6.778-17.024C21.933,14.993,21.499,14.742,21.057,14.602z"/>
	<circle fill="#0E0F0F" cx="15.55" cy="7.561" r="4.849"/>
	<path fill="#0E0F0F" d="M15.2,14.009h-0.36c-0.029-0.235-0.255-0.419-0.534-0.419c-0.298,0-0.54,0.209-0.54,0.467v0.625
		c0,0.258,0.241,0.467,0.54,0.467c0.29,0,0.525-0.2,0.537-0.448h0.353c0.012,0.249,0.247,0.448,0.538,0.448
		c0.297,0,0.54-0.209,0.54-0.467v-0.625c0-0.257-0.242-0.467-0.54-0.467C15.454,13.59,15.228,13.774,15.2,14.009z"/>
	<path fill="#0E0F0F" d="M16.081,20.714c-0.322,0.909-1.307,0.303-1.307,0.303l0.947,1.25h0.985l0.682-1.553
		C17.388,20.714,16.403,19.805,16.081,20.714z"/>
	<path fill="#0E0F0F" d="M59.617,23.82c-0.855-2.438-2.68-8.624-5.112-9.516c-1.442-0.529-1.968-0.412-3.31-0.479l-2.34,3.341
		l-2.508-3.576c-1.058,0.129-3.548,1.042-3.81,1.178v0.001c-0.243,0.075-0.496,0.185-0.759,0.344
		c-1.666,1.009-4.694,2.556-6.641,1.667c-1.502-0.687-3.25-0.443-4.146,1.088c-0.771,1.317-0.416,3.459,1.087,4.146
		c3.507,1.604,6.577,0.963,9.715-0.641c0.041,2.616-0.066,36.48-0.066,36.48c-0.135,1.547,0.983,3.215,2.531,3.352
		c1.549,0.135,2.939-1.312,3.075-2.859l0.583-15.668c0,0-0.17-1.051,0.371-0.969c0.543,0.082,0.256,1.152,0.256,1.152l0.909,15.104
		c0,1.834,0.276,3.322,2.11,3.322c1.836,0,3.324-1.488,3.324-3.322l-0.304-28.787h-7.344c-1.613,0-2.925-1.312-2.925-2.924
		c0-1.612,1.312-2.924,2.925-2.924h0.007V22.8l-1.867-3.134h5.295l-1.978,3.099v0.564h5.247v0.896h-5.247h-1.45h-0.007
		c-1.118,0-2.028,0.91-2.028,2.028s0.91,2.028,2.028,2.028h8.795C57.92,27.776,60.473,26.258,59.617,23.82z"/>
	<circle fill="#0E0F0F" cx="48.451" cy="7.561" r="4.849"/>
	<path fill="#0E0F0F" d="M49.161,14.009h-0.36c-0.027-0.235-0.254-0.419-0.533-0.419c-0.297,0-0.539,0.209-0.539,0.467v0.625
		c0,0.258,0.242,0.467,0.539,0.467c0.291,0,0.525-0.2,0.537-0.448h0.354c0.012,0.249,0.245,0.448,0.536,0.448
		c0.299,0,0.539-0.209,0.539-0.467v-0.625c0-0.257-0.24-0.467-0.539-0.467C49.416,13.59,49.189,13.774,49.161,14.009z"/>
	<path fill="#0E0F0F" d="M47.92,20.714c-0.322-0.909-1.307,0-1.307,0l0.682,1.553h0.984l0.947-1.25
		C49.227,21.018,48.242,21.624,47.92,20.714z"/>
</g>
</svg>
