<?xml version="1.0" encoding="utf-8"?>
<!-- Generator: Adobe Illustrator 16.0.4, SVG Export Plug-In . SVG Version: 6.00 Build 0)  -->
<!DOCTYPE svg PUBLIC "-//W3C//DTD SVG 1.1//EN" "http://www.w3.org/Graphics/SVG/1.1/DTD/svg11.dtd">
<svg version="1.1" id="Capa_1" xmlns="http://www.w3.org/2000/svg" xmlns:xlink="http://www.w3.org/1999/xlink" x="0px" y="0px"
	 width="64px" height="64px" viewBox="0 0 64 64" enable-background="new 0 0 64 64" xml:space="preserve">
<g>
	<path fill="#0E0F0F" d="M23.6,20.224c-0.254-1.639-1.789-3.017-3.428-2.763c0,0-4.06,0.004-7.571,0.007l-0.275-3.013
		c1.21-0.22,2.096-1.308,2.028-2.566c-0.073-1.367-1.241-2.414-2.607-2.34c-1.366,0.074-2.413,1.241-2.339,2.606
		c0.068,1.26,1.066,2.246,2.292,2.334l0.271,2.979c-1.923,0.001-3.586,0.003-4.174,0.003c-1.698,0-2.185,1.795-2.185,1.795
		l-1.691,5.809l0.012-0.012l-0.879,3.019c0.004,0.005,0.005,0.01,0.008,0.015c-0.448,1.946,2.183,3.975,4.033,2.223
		c2.112-1.996,4.224-3.992,6.334-5.988c1.324-1.252,0.672-2.935-0.537-3.663l-0.137-1.497c1.058,0.338,1.973,1.16,2.396,2.225
		c0.521,1.307,0.197,2.685-0.863,3.688L8.391,30.66c-0.097,5.375-0.249,12.643-0.373,14.497c-0.203,3.015-0.412,6.132-0.61,8.603
		c-0.135,1.652,1.096,3.1,2.749,3.233c0.082,0.006,0.164,0.011,0.244,0.011c1.549,0,2.608-1.189,2.734-2.761
		c0.151-1.861,0.712-18.525,0.712-18.525c0.145,12.121,0.398,16.743,0.468,18.646c0.06,1.616,1.139,2.889,2.745,2.889
		c0.036,0,0.074,0,0.112-0.002c1.657-0.062,2.95-1.453,2.889-3.108c-0.092-2.492-0.187-5.568-0.282-8.646
		c-0.095-3.089-0.432-10.222-0.432-10.492v-8.303l0.982,7.674c0.229,1.483,1.354,2.543,2.81,2.543c0.153,0,0.309-0.012,0.463-0.036
		c1.639-0.253,2.298-1.787,2.045-3.426L23.6,20.224z M10.068,20.97c-0.589,0.558-1.386,1.322-1.977,1.881l0.054-1.768l1.15-1.088
		c0.687-0.649,1.518-0.993,2.404-0.993c0.139,0,0.277,0.017,0.415,0.034l0.122,1.347C11.535,20.197,10.749,20.326,10.068,20.97z"/>
	<path fill="#0E0F0F" d="M15.058,11.873c0.074,1.354-0.756,2.578-1.99,3.04l0.117,1.469c0.525,0.194,1.089,0.306,1.682,0.306
		c2.677,0,4.847-2.171,4.847-4.848c0-2.678-2.17-4.849-4.847-4.849c-1.713,0-3.216,0.891-4.078,2.232
		c0.327-0.14,0.674-0.231,1.038-0.251C13.516,8.88,14.967,10.187,15.058,11.873z"/>
	<path fill="#0E0F0F" d="M11.193,14.997c0.021,0.025,0.045,0.05,0.067,0.074l-0.003-0.053
		C11.235,15.013,11.214,15.003,11.193,14.997z"/>
	<path fill="#0E0F0F" d="M31.234,13.997v41.731h29.267V13.997H31.234z M58.875,54.104H32.859v-38.48h26.016V54.104z"/>
	<path fill="#0E0F0F" d="M48.666,28.488h-0.102c-0.094,0.275-0.211,0.512-0.353,0.706c-0.142,0.196-0.333,0.349-0.575,0.458
		c-0.244,0.109-0.554,0.164-0.93,0.164h-1.562c-0.393,0-0.642-0.102-0.75-0.308c-0.105-0.203-0.158-0.447-0.158-0.729v-3.736h2.021
		c0.187,0,0.365,0.014,0.535,0.043c0.092,0,0.194,0.023,0.313,0.071c0.113,0.048,0.231,0.145,0.352,0.29s0.201,0.354,0.242,0.625
		h0.109v-2.386H47.7c-0.041,0.443-0.214,0.726-0.515,0.85c-0.299,0.124-0.641,0.187-1.021,0.187h-1.93v-4.78h2.193
		c1.182,0,1.772,0.443,1.772,1.329h0.101v-1.658h-6.273v0.121h0.144c0.362,0,0.616,0.12,0.761,0.358
		c0.146,0.238,0.219,0.519,0.219,0.843v7.931c0,0.41-0.107,0.705-0.321,0.887c-0.215,0.181-0.435,0.271-0.657,0.271h-0.145v0.114
		h6.274L48.666,28.488z"/>
	<path fill="#0E0F0F" d="M42.646,36.441h-0.067c-0.124,0-0.231-0.047-0.32-0.14c-0.089-0.096-0.133-0.22-0.133-0.374v-1.703h1.047
		c0.2,0,0.339,0.043,0.414,0.129c0.074,0.084,0.119,0.194,0.131,0.328h0.052V33.62h-0.052c-0.021,0.146-0.067,0.257-0.139,0.339
		c-0.073,0.081-0.208,0.122-0.406,0.122h-1.047v-2.116h1.123c0.228,0,0.39,0.058,0.483,0.173c0.095,0.115,0.146,0.245,0.16,0.391
		h0.049v-0.71h-2.803v0.055h0.062c0.111,0,0.213,0.036,0.304,0.109c0.091,0.073,0.138,0.209,0.138,0.41v3.535
		c0,0.152-0.041,0.275-0.125,0.371c-0.086,0.096-0.188,0.143-0.315,0.143h-0.063v0.052h1.508V36.441z"/>
	<path fill="#0E0F0F" d="M46.643,31.82v0.054h0.063c0.021,0.004,0.06,0.014,0.116,0.028c0.056,0.014,0.105,0.037,0.152,0.068
		c0.045,0.03,0.086,0.081,0.119,0.153c0.033,0.072,0.051,0.162,0.051,0.27v3.535c0,0.18-0.047,0.311-0.143,0.391
		c-0.094,0.078-0.214,0.119-0.359,0.123v0.052h1.487v-0.052c-0.338-0.01-0.507-0.182-0.507-0.514v-1.611
		c0.248,0.024,0.415,0.039,0.501,0.039c0.272,0,0.515-0.037,0.724-0.104c0.211-0.069,0.379-0.164,0.508-0.28
		c0.129-0.117,0.225-0.252,0.285-0.404c0.06-0.15,0.09-0.309,0.09-0.471c0-0.168-0.032-0.326-0.098-0.479
		c-0.064-0.15-0.162-0.287-0.292-0.408c-0.13-0.12-0.293-0.214-0.487-0.285c-0.196-0.068-0.422-0.104-0.679-0.104H46.643z
		 M48.914,32.276c0.186,0.224,0.275,0.509,0.275,0.856c0,0.42-0.104,0.708-0.313,0.864c-0.212,0.154-0.467,0.232-0.771,0.232
		c-0.16,0-0.318-0.015-0.481-0.045v-2.202c0.151-0.027,0.301-0.041,0.446-0.041C48.448,31.942,48.729,32.055,48.914,32.276z"/>
	<path fill="#0E0F0F" d="M39.439,38.161c0.103-0.06,0.227-0.089,0.377-0.089h0.613v2.588c0,0.123-0.031,0.208-0.097,0.259
		C40.271,40.971,40.191,40.997,40.1,41v0.034h0.983V41c-0.224-0.007-0.335-0.12-0.335-0.34v-2.588h0.613
		c0.147,0,0.275,0.029,0.375,0.089c0.104,0.06,0.162,0.188,0.178,0.391h0.031v-0.754h-0.031c-0.074,0.101-0.178,0.151-0.312,0.151
		h-1.996c-0.049,0-0.09-0.001-0.125-0.008c-0.037-0.004-0.068-0.012-0.094-0.024c-0.027-0.013-0.05-0.024-0.064-0.042
		c-0.018-0.018-0.036-0.043-0.061-0.077h-0.033v0.754h0.033C39.279,38.352,39.34,38.221,39.439,38.161z"/>
	<path fill="#0E0F0F" d="M46.131,40.895c0.247-0.146,0.443-0.346,0.585-0.594c0.144-0.248,0.214-0.518,0.214-0.806
		c0-0.241-0.041-0.46-0.132-0.661c-0.087-0.202-0.209-0.375-0.362-0.521c-0.154-0.146-0.328-0.258-0.521-0.336
		s-0.396-0.117-0.605-0.117c-0.217,0-0.424,0.041-0.621,0.123c-0.195,0.08-0.373,0.194-0.525,0.343
		c-0.155,0.147-0.273,0.321-0.36,0.521s-0.128,0.411-0.128,0.639c0,0.293,0.072,0.566,0.217,0.815
		c0.144,0.25,0.342,0.448,0.594,0.597c0.25,0.146,0.527,0.22,0.828,0.22C45.609,41.114,45.884,41.041,46.131,40.895z M44.846,40.939
		c-0.148-0.057-0.283-0.146-0.408-0.271c-0.123-0.125-0.221-0.286-0.291-0.484c-0.07-0.195-0.105-0.428-0.105-0.691
		c0-0.303,0.043-0.557,0.128-0.762c0.086-0.205,0.192-0.362,0.325-0.478c0.133-0.112,0.27-0.188,0.408-0.231
		s0.272-0.064,0.404-0.064c0.166,0,0.346,0.04,0.533,0.118c0.189,0.079,0.358,0.233,0.504,0.467
		c0.145,0.231,0.219,0.552,0.219,0.963c0,0.284-0.039,0.524-0.114,0.724c-0.076,0.196-0.175,0.354-0.298,0.469
		s-0.256,0.197-0.403,0.248c-0.147,0.053-0.293,0.076-0.437,0.076C45.15,41.021,44.994,40.995,44.846,40.939z"/>
	<path fill="#0E0F0F" d="M48.686,38.512h0.035c0.021-0.113,0.055-0.203,0.102-0.268c0.046-0.062,0.105-0.11,0.184-0.137
		c0.078-0.027,0.178-0.041,0.301-0.041h1.476l-2.132,2.9v0.065h2.509l0.144-0.517H51.27c-0.043,0.092-0.084,0.164-0.125,0.217
		c-0.041,0.054-0.105,0.097-0.199,0.132c-0.092,0.034-0.223,0.052-0.387,0.052h-1.479l2.136-2.907v-0.06h-0.003h-2.526V38.512z"/>
	<path fill="#0E0F0F" d="M39.479,44.758h-0.031c-0.037,0.092-0.073,0.163-0.108,0.213c-0.034,0.051-0.084,0.088-0.146,0.111
		c-0.061,0.023-0.142,0.036-0.242,0.036h-0.234c-0.133,0-0.229-0.022-0.285-0.067c-0.062-0.045-0.09-0.126-0.09-0.244v-1.974
		c0-0.116,0.028-0.194,0.09-0.237c0.057-0.043,0.125-0.064,0.199-0.068v-0.029h-0.865v0.029c0.08,0.004,0.146,0.025,0.205,0.07
		c0.055,0.045,0.084,0.123,0.084,0.235v2.042c0,0.094-0.025,0.167-0.076,0.221c-0.051,0.051-0.108,0.076-0.174,0.076h-0.039v0.03
		h1.609L39.479,44.758z"/>
	<path fill="#0E0F0F" d="M43.721,42.723c-0.076-0.07-0.171-0.125-0.283-0.166c-0.111-0.039-0.242-0.06-0.393-0.06h-0.887v0.03h0.035
		c0.015,0.002,0.035,0.008,0.068,0.017c0.032,0.009,0.062,0.021,0.088,0.04c0.026,0.018,0.049,0.047,0.067,0.088
		c0.021,0.043,0.03,0.094,0.03,0.156v2.047c0,0.104-0.027,0.178-0.082,0.225s-0.124,0.07-0.208,0.072v0.03h0.86v-0.03
		c-0.194-0.005-0.293-0.104-0.293-0.297v-0.934c0.145,0.016,0.239,0.021,0.289,0.021c0.158,0,0.299-0.02,0.42-0.061
		s0.219-0.096,0.293-0.164c0.075-0.066,0.129-0.146,0.166-0.232c0.034-0.086,0.051-0.178,0.051-0.271
		c0-0.098-0.018-0.188-0.055-0.276C43.852,42.871,43.796,42.792,43.721,42.723z M43.45,43.757c-0.122,0.091-0.271,0.136-0.444,0.136
		c-0.092,0-0.188-0.009-0.279-0.025v-1.274c0.09-0.017,0.174-0.022,0.258-0.022c0.22,0,0.383,0.063,0.488,0.193
		c0.106,0.129,0.161,0.295,0.161,0.494C43.634,43.501,43.573,43.668,43.45,43.757z"/>
	<path fill="#0E0F0F" d="M48.285,44.959c-0.036,0.052-0.086,0.09-0.148,0.118c-0.062,0.028-0.142,0.041-0.238,0.041h-0.401
		c-0.101,0-0.164-0.025-0.192-0.078c-0.025-0.054-0.041-0.115-0.041-0.188v-0.959h0.521c0.049,0,0.094,0.002,0.139,0.01
		c0.022,0,0.05,0.007,0.08,0.019c0.029,0.013,0.06,0.038,0.091,0.075c0.029,0.036,0.051,0.092,0.062,0.161h0.027v-0.614h-0.027
		c-0.012,0.113-0.055,0.188-0.131,0.219c-0.078,0.031-0.166,0.049-0.264,0.049h-0.496v-1.229h0.563c0.303,0,0.455,0.113,0.455,0.342
		h0.026v-0.426h-1.613v0.029h0.035c0.095,0,0.16,0.031,0.197,0.093c0.036,0.062,0.055,0.134,0.055,0.218v2.038
		c0,0.104-0.026,0.181-0.082,0.228c-0.055,0.047-0.11,0.069-0.17,0.069h-0.035v0.03h1.613l0.092-0.426h-0.023
		C48.352,44.85,48.32,44.909,48.285,44.959z"/>
	<path fill="#0E0F0F" d="M51.13,42.527h0.037c0.046,0,0.088,0.011,0.126,0.031c0.037,0.021,0.068,0.055,0.091,0.101
		c0.023,0.047,0.035,0.104,0.035,0.174v2.042c0,0.07-0.022,0.139-0.063,0.202s-0.104,0.095-0.188,0.095H51.13v0.03h1.214
		c0.193,0,0.346-0.017,0.459-0.05c0.112-0.029,0.213-0.072,0.299-0.123c0.103-0.063,0.19-0.133,0.269-0.209
		c0.075-0.078,0.142-0.163,0.196-0.26c0.057-0.095,0.099-0.197,0.127-0.309c0.029-0.111,0.045-0.229,0.045-0.354
		s-0.016-0.244-0.045-0.36c-0.031-0.115-0.075-0.228-0.135-0.331c-0.061-0.105-0.135-0.2-0.22-0.285
		c-0.049-0.052-0.108-0.104-0.182-0.152c-0.069-0.049-0.153-0.095-0.253-0.137c-0.096-0.042-0.206-0.074-0.331-0.1
		c-0.121-0.026-0.255-0.037-0.401-0.037H51.13V42.527z M51.693,42.625h0.002c0.181-0.029,0.33-0.044,0.447-0.044
		c0.231,0,0.428,0.039,0.592,0.117c0.162,0.079,0.297,0.187,0.402,0.325c0.094,0.123,0.161,0.264,0.206,0.42
		c0.044,0.156,0.067,0.314,0.067,0.477c0,0.203-0.027,0.376-0.084,0.52c-0.059,0.144-0.133,0.266-0.225,0.365
		c-0.127,0.133-0.256,0.219-0.392,0.258c-0.135,0.037-0.3,0.057-0.496,0.057c-0.137,0-0.241-0.006-0.313-0.021
		c-0.07-0.016-0.123-0.047-0.155-0.097c-0.034-0.051-0.052-0.127-0.052-0.231V42.625z"/>
	<path fill="#0E0F0F" d="M35.355,49.775c-0.07,0-0.123-0.014-0.162-0.036c-0.037-0.026-0.057-0.075-0.057-0.151
		c0-0.056,0.016-0.128,0.045-0.218l0.213-0.662h0.933l0.239,0.716c0,0.004,0.004,0.012,0.009,0.021
		c0.022,0.07,0.034,0.125,0.034,0.166c0,0.076-0.023,0.123-0.074,0.14c-0.049,0.019-0.118,0.026-0.208,0.026v0.027h0.879v-0.027
		c-0.054-0.006-0.099-0.016-0.132-0.029s-0.07-0.047-0.108-0.102c-0.038-0.054-0.079-0.141-0.12-0.26l-0.808-2.308h-0.196
		l-0.761,2.317c-0.041,0.123-0.088,0.215-0.142,0.274c-0.056,0.062-0.127,0.097-0.219,0.104v0.027h0.635V49.775z M35.838,47.333
		h0.008l0.438,1.278h-0.857L35.838,47.333z"/>
	<path fill="#0E0F0F" d="M39.527,48.4c-0.118-0.066-0.213-0.119-0.282-0.162c-0.07-0.045-0.132-0.092-0.183-0.141
		c-0.051-0.051-0.088-0.107-0.114-0.174s-0.039-0.14-0.039-0.225c0-0.107,0.021-0.203,0.065-0.288
		c0.043-0.083,0.104-0.149,0.187-0.199c0.082-0.049,0.172-0.073,0.274-0.073c0.158,0,0.287,0.049,0.383,0.147
		c0.099,0.098,0.154,0.212,0.172,0.343h0.029v-0.574H39.99c-0.016,0.053-0.042,0.081-0.082,0.081c-0.033,0-0.061-0.005-0.078-0.015
		c-0.124-0.04-0.246-0.061-0.364-0.061c-0.155,0-0.296,0.033-0.419,0.104c-0.123,0.069-0.217,0.163-0.285,0.276
		c-0.066,0.117-0.101,0.238-0.101,0.365c0,0.109,0.021,0.207,0.058,0.291c0.036,0.086,0.088,0.159,0.152,0.221
		c0.062,0.062,0.126,0.113,0.189,0.152c0.062,0.038,0.156,0.094,0.285,0.163c0.188,0.101,0.327,0.198,0.42,0.294
		c0.092,0.096,0.139,0.219,0.139,0.369c0,0.074-0.016,0.146-0.047,0.221c-0.032,0.073-0.09,0.135-0.172,0.187
		s-0.19,0.078-0.326,0.078c-0.184,0-0.338-0.052-0.465-0.151c-0.127-0.104-0.211-0.252-0.256-0.449h-0.029v0.676h0.029
		c0.014-0.063,0.025-0.102,0.032-0.119s0.024-0.027,0.05-0.027c0.014,0,0.039,0.006,0.076,0.02c0.087,0.041,0.174,0.076,0.26,0.099
		c0.084,0.024,0.184,0.037,0.293,0.037c0.178,0,0.325-0.035,0.445-0.104c0.118-0.068,0.208-0.154,0.266-0.262
		c0.062-0.107,0.09-0.218,0.09-0.332c0-0.188-0.055-0.336-0.164-0.443C39.878,48.618,39.725,48.51,39.527,48.4z"/>
	<path fill="#0E0F0F" d="M43.438,48.745c-0.031-0.054-0.07-0.101-0.119-0.146c-0.053-0.049-0.108-0.089-0.168-0.119
		c-0.061-0.029-0.127-0.054-0.2-0.07c-0.076-0.018-0.152-0.03-0.232-0.038v-0.008c0.179-0.048,0.317-0.121,0.421-0.224
		c0.105-0.101,0.158-0.232,0.158-0.396c0-0.087-0.02-0.169-0.055-0.242c-0.036-0.076-0.09-0.144-0.157-0.201
		c-0.065-0.061-0.149-0.106-0.247-0.14c-0.1-0.034-0.204-0.051-0.32-0.051h-0.879v0.031h0.033c0.078,0,0.139,0.026,0.186,0.08
		c0.047,0.051,0.068,0.127,0.068,0.223v2.033c0,0.099-0.025,0.172-0.074,0.223c-0.049,0.049-0.106,0.074-0.176,0.074h-0.037v0.027
		h1.008c0.229,0,0.408-0.035,0.539-0.107c0.092-0.053,0.174-0.129,0.246-0.23c0.072-0.101,0.107-0.221,0.107-0.361
		c0-0.063-0.007-0.127-0.025-0.188C43.497,48.854,43.471,48.798,43.438,48.745z M42.201,47.236L42.201,47.236
		c0.091-0.026,0.171-0.041,0.24-0.041c0.08,0,0.152,0.018,0.221,0.048c0.066,0.032,0.126,0.075,0.173,0.133
		c0.049,0.056,0.085,0.12,0.11,0.192s0.039,0.147,0.039,0.229c0,0.104-0.02,0.192-0.058,0.266s-0.079,0.127-0.12,0.16
		c-0.043,0.034-0.084,0.062-0.123,0.082c-0.06,0.027-0.162,0.043-0.308,0.043h-0.175V47.236z M43.121,49.477
		c-0.104,0.164-0.282,0.246-0.528,0.246c-0.118,0-0.206-0.017-0.265-0.048c-0.059-0.03-0.094-0.067-0.105-0.11
		c-0.012-0.045-0.02-0.1-0.02-0.164v-0.969h0.275c0.111,0,0.215,0.014,0.312,0.047c0.095,0.031,0.174,0.076,0.237,0.131
		c0.062,0.056,0.111,0.123,0.146,0.207s0.055,0.176,0.055,0.279C43.229,49.234,43.191,49.363,43.121,49.477z"/>
	<path fill="#0E0F0F" d="M46.927,49.544l-1.098-1.239l0.918-0.906c0.019-0.019,0.034-0.032,0.049-0.045
		c0.017-0.015,0.046-0.041,0.087-0.082c0.061-0.054,0.117-0.086,0.178-0.101c0.058-0.014,0.123-0.022,0.198-0.026v-0.031h-0.743
		v0.031c0.066,0.006,0.115,0.017,0.15,0.026c0.033,0.013,0.05,0.038,0.05,0.081c0,0.037-0.028,0.083-0.086,0.135
		c-0.005,0.01-0.007,0.014-0.007,0.012l-1.033,1.033v-0.994c0-0.189,0.096-0.287,0.289-0.293v-0.031h-0.854v0.031
		c0.078,0.002,0.146,0.022,0.203,0.062c0.057,0.039,0.084,0.115,0.084,0.229v2.043c0,0.073-0.015,0.131-0.041,0.176
		c-0.026,0.043-0.062,0.072-0.104,0.092c-0.042,0.018-0.089,0.027-0.145,0.029v0.029h0.854v-0.029
		c-0.192-0.008-0.289-0.104-0.289-0.297v-1.035l1.203,1.361h0.582v-0.029c-0.095-0.01-0.171-0.028-0.229-0.053
		C47.084,49.698,47.012,49.639,46.927,49.544z"/>
	<path fill="#0E0F0F" d="M50.344,47.337c-0.074-0.067-0.169-0.124-0.281-0.163c-0.112-0.041-0.242-0.062-0.391-0.062h-0.883v0.031
		h0.036c0.012,0.002,0.034,0.008,0.067,0.018c0.032,0.008,0.062,0.021,0.086,0.039c0.025,0.019,0.049,0.048,0.069,0.089
		c0.019,0.042,0.029,0.093,0.029,0.155v2.035c0,0.104-0.027,0.18-0.082,0.226c-0.054,0.046-0.123,0.069-0.207,0.071v0.029h0.856
		v-0.029c-0.193-0.008-0.293-0.104-0.293-0.297v-0.928c0.144,0.014,0.239,0.021,0.289,0.021c0.157,0,0.297-0.021,0.418-0.062
		c0.121-0.038,0.217-0.095,0.291-0.161c0.074-0.067,0.129-0.146,0.164-0.231c0.035-0.089,0.053-0.179,0.053-0.272
		c0-0.096-0.02-0.187-0.057-0.275C50.475,47.484,50.417,47.407,50.344,47.337z M50.074,48.367c-0.121,0.089-0.27,0.135-0.442,0.135
		c-0.092,0-0.185-0.009-0.278-0.025v-1.27c0.088-0.016,0.174-0.023,0.258-0.023c0.218,0,0.38,0.063,0.486,0.192
		c0.105,0.129,0.159,0.294,0.159,0.493C50.257,48.111,50.195,48.277,50.074,48.367z"/>
	<path fill="#0E0F0F" d="M54.159,47.443v0.9h-1.542v-0.9c0-0.09,0.021-0.162,0.07-0.217c0.047-0.057,0.119-0.084,0.222-0.084v-0.031
		h-0.856v0.031c0.189,0,0.287,0.101,0.287,0.301v2.035c0,0.095-0.025,0.168-0.074,0.22c-0.051,0.052-0.121,0.077-0.213,0.077v0.029
		h0.856v-0.029c-0.089,0-0.16-0.025-0.214-0.077c-0.053-0.052-0.078-0.125-0.078-0.22v-1.052h1.542v1.056
		c0,0.098-0.026,0.17-0.078,0.22c-0.052,0.049-0.123,0.073-0.215,0.073v0.029h0.856v-0.029c-0.191,0-0.287-0.099-0.287-0.297v-2.035
		c0-0.09,0.023-0.162,0.068-0.217c0.047-0.057,0.118-0.084,0.219-0.084v-0.031h-0.856v0.031c0.101,0,0.175,0.028,0.223,0.086
		C54.137,47.284,54.159,47.355,54.159,47.443z"/>
	<path fill="#0E0F0F" d="M57.087,49.775c-0.071,0-0.14-0.023-0.198-0.07c-0.06-0.047-0.089-0.122-0.089-0.227v-2.043
		c0-0.104,0.027-0.18,0.084-0.226c0.056-0.044,0.123-0.067,0.203-0.067v-0.031h-0.854v0.031c0.078,0,0.146,0.021,0.203,0.062
		c0.057,0.042,0.086,0.119,0.086,0.23v2.043c0,0.106-0.029,0.183-0.086,0.228c-0.057,0.048-0.125,0.069-0.203,0.069v0.029h0.854
		V49.775z"/>
</g>
</svg>
