<?xml version="1.0" encoding="utf-8"?>
<!-- Generator: Adobe Illustrator 16.0.4, SVG Export Plug-In . SVG Version: 6.00 Build 0)  -->
<!DOCTYPE svg PUBLIC "-//W3C//DTD SVG 1.1//EN" "http://www.w3.org/Graphics/SVG/1.1/DTD/svg11.dtd">
<svg version="1.1" id="Capa_1" xmlns="http://www.w3.org/2000/svg" xmlns:xlink="http://www.w3.org/1999/xlink" x="0px" y="0px"
	 width="64px" height="64px" viewBox="0 0 64 64" enable-background="new 0 0 64 64" xml:space="preserve">
<g>
	<circle fill="#0E0F0F" cx="30.967" cy="24.736" r="3.575"/>
	<path fill="#0E0F0F" d="M32.027,44.761c-2.988-1.473-5.052-4.542-5.052-8.09c0-2.103,0.739-4.144,2.083-5.761
		c0.14-0.264,1.208-1.333,1.602-1.507c0.143-0.105,0.292-0.201,0.438-0.298c-0.749-0.618-1.729-0.959-2.772-0.875
		c-0.452,0.037-0.877,0.154-1.269,0.33c-1.568-2.837-2.6-5.863-3.208-9.082c-0.163-0.863-0.715-1.304-1.355-1.422v-2.001h0.8v-0.73
		h-0.8V5.221l-0.762-1.835L20.95,5.221v10.104h-0.8v0.73h0.8v2.304c-0.696,0.416-1.192,1.189-1.001,2.195
		c0.767,4.06,2.222,7.932,4.427,11.432c0.123,0.195,0.266,0.346,0.417,0.478c0.182,2.347-0.054,6.147-0.202,7.942
		c-0.069,0.109-0.133,0.227-0.187,0.354c-2.109,5.014-2.917,10.751-3.328,16.143c-0.198,2.604,3.849,2.584,4.045,0
		c0.302-3.967,0.88-8.105,2.07-11.975c0.261,0.086,0.534,0.146,0.817,0.174c0.334,4.058,0.61,8.121,1.189,12.153
		c0.371,2.574,4.269,1.476,3.901-1.075C32.559,52.396,32.335,48.568,32.027,44.761z"/>
	<path fill="#0E0F0F" d="M36.152,28.673c-1.805,0-3.465,0.61-4.797,1.625c-0.088,0.05-0.744,0.475-1.231,1.157
		c-1.188,1.388-1.909,3.186-1.909,5.154c0,4.384,3.553,7.938,7.938,7.938c4.385,0,7.938-3.555,7.938-7.938
		C44.09,32.228,40.537,28.673,36.152,28.673z"/>
</g>
</svg>
