<?xml version="1.0" encoding="utf-8"?>
<!-- Generator: Adobe Illustrator 16.0.4, SVG Export Plug-In . SVG Version: 6.00 Build 0)  -->
<!DOCTYPE svg PUBLIC "-//W3C//DTD SVG 1.1//EN" "http://www.w3.org/Graphics/SVG/1.1/DTD/svg11.dtd">
<svg version="1.1" id="Capa_1" xmlns="http://www.w3.org/2000/svg" xmlns:xlink="http://www.w3.org/1999/xlink" x="0px" y="0px"
	 width="64px" height="64px" viewBox="0 0 64 64" enable-background="new 0 0 64 64" xml:space="preserve">
<g>
	<path fill="#0E0F0F" d="M33.538,49.954c-4.358-3.511-7.972-7.198-9.964-12.53c-0.068-0.182-0.15-0.347-0.243-0.498
		c0.298-0.365,0.509-0.8,0.578-1.311c-2.969-0.413-5.644-1.12-8.092-2.646c0.396,1.096,0.276,2.18,0.864,3.256
		c0.028,0.051,0.063,0.092,0.093,0.139c-1.862,1.521-3.464,3.346-3.833,5.83c-0.458,3.074,0.94,5.935,2.401,8.547
		c1.591,2.846,5.957,0.297,4.364-2.551c-0.839-1.5-1.776-3.092-1.83-4.854c-0.032-1.072,0.745-1.986,1.592-2.712
		c2.356,5.246,5.922,9.219,10.494,12.903C32.477,55.551,36.076,51.999,33.538,49.954z"/>
	<circle fill="#0E0F0F" cx="18.778" cy="14.091" r="4.305"/>
	<path fill="#0E0F0F" d="M14.62,27.438l0.191,0.099c0.049,0.026,3.347,1.716,8.093,2.856c-0.709-1.864-1.015-3.819-0.79-5.848
		c2.576,0.982,5.182,1.884,7.758,2.866c2.441,0.93,3.485-2.979,1.077-3.897c-3.363-1.281-6.778-2.425-10.107-3.79
		c-0.187-0.077-0.365-0.121-0.534-0.143c-0.235-0.122-0.493-0.225-0.771-0.302c-0.896-0.246-1.949-0.102-2.831,0.346
		c-4.229,0.267-6.833-2.349-8.096-6.576c-0.744-2.491-4.647-1.429-3.898,1.075c1.61,5.392,5.075,8.83,9.963,9.425
		C14.545,24.871,14.523,26.166,14.62,27.438z"/>
	<path fill="#0E0F0F" d="M56.346,29.347l3.17-1.508c0,0-5.289-1.088-24.289,2.813c-11.938,3.375-21.698-3.445-21.698-3.445
		l0.711,4.132c12.908,9.285,28.517-1.451,45.166,0.542C60.934,31.979,56.346,29.347,56.346,29.347z"/>
</g>
</svg>
