<?xml version="1.0" encoding="utf-8"?>
<!-- Generator: Adobe Illustrator 16.0.4, SVG Export Plug-In . SVG Version: 6.00 Build 0)  -->
<!DOCTYPE svg PUBLIC "-//W3C//DTD SVG 1.1//EN" "http://www.w3.org/Graphics/SVG/1.1/DTD/svg11.dtd">
<svg version="1.1" id="Capa_1" xmlns="http://www.w3.org/2000/svg" xmlns:xlink="http://www.w3.org/1999/xlink" x="0px" y="0px"
	 width="64px" height="64px" viewBox="0 0 64 64" enable-background="new 0 0 64 64" xml:space="preserve">
<path fill="#0E0F0F" d="M15.444,10.46c0-1.985,1.609-3.594,3.594-3.594s3.594,1.609,3.594,3.594s-1.609,3.594-3.594,3.594
	S15.444,12.445,15.444,10.46z M52.29,34.682c-0.157,0.086-8.396,4.562-16.716,9.062c-0.022-0.439-0.163-0.877-0.439-1.262
	l-5.214-7.246c0.274-1.465,0.979-3.857,2.342-5.452c0.801-0.358,1.508-0.956,1.963-1.706c0.291-0.376,0.459-0.829,0.488-1.297
	c0.135-0.785,0.012-1.647-0.488-2.528c-0.072-0.127-0.147-0.252-0.222-0.379l8.685-0.003v1.28h0.861V23.87l3.662-0.001
	c0.239,0,0.432-0.193,0.432-0.431c0-0.237-0.193-0.43-0.432-0.43l-3.662,0.001v-1.302h-0.861v1.302L33.5,23.014
	c-1.827-3.029-3.941-5.856-6.152-8.623c-1.335-1.671-4.17-1.35-5.538,0.033c-0.498,0.502-0.81,1.058-0.97,1.634
	c-0.096,0.128-0.183,0.273-0.258,0.443c-0.655,1.489-1.311,2.979-1.966,4.468c-1.597,0.166-3.193,0.331-4.79,0.496
	c-2.735,0.283-2.762,4.069,0,3.784c2.082-0.216,4.165-0.431,6.246-0.646c0.707-0.073,1.543,0.18,1.86-0.543
	c0.027-0.06,0.053-0.12,0.079-0.18l2.739-0.001c0.896,1.303,1.826,2.756,2.738,4.367c0.009,0.016,0.02,0.03,0.028,0.045
	c-2.02,3.31-2.416,7.098-2.438,7.324c-0.055,0.572,0.1,1.145,0.436,1.611l5.774,8.022c0.149,0.209,0.33,0.383,0.527,0.526
	c-6.106,3.298-11.58,6.236-13.07,6.99c-3.359,1.697-5.873-0.649-5.979-0.752l-0.899,0.93c0.023,0.023,1.816,1.724,4.457,1.724
	c0.913,0,1.927-0.203,3.005-0.748c1.612-0.813,7.855-4.172,14.528-7.776c0.258-0.074,0.508-0.188,0.736-0.354
	c0.053-0.034,0.09-0.079,0.135-0.116c8.793-4.754,18.013-9.764,18.178-9.854L52.29,34.682z"/>
</svg>
