<?xml version="1.0" encoding="utf-8"?>
<!-- Generator: Adobe Illustrator 16.0.4, SVG Export Plug-In . SVG Version: 6.00 Build 0)  -->
<!DOCTYPE svg PUBLIC "-//W3C//DTD SVG 1.1//EN" "http://www.w3.org/Graphics/SVG/1.1/DTD/svg11.dtd">
<svg version="1.1" id="Capa_1" xmlns="http://www.w3.org/2000/svg" xmlns:xlink="http://www.w3.org/1999/xlink" x="0px" y="0px"
	 width="64px" height="64px" viewBox="0 0 64 64" enable-background="new 0 0 64 64" xml:space="preserve">
<g>
	<path fill="#0E0F0F" d="M25.579,60.412L25.579,60.412c-0.001,1.389,0.867,2.514,2.085,2.514c1.22,0,2.207-1.125,2.207-2.514v-9.465
		h-4.292V60.412z"/>
	<path fill="#0E0F0F" d="M31.473,60.361c0,1.391,0.988,2.518,2.208,2.518c1.217,0,2.205-1.127,2.205-2.518l0.039-9.414h-4.453
		V60.361z"/>
	<circle fill="#0E0F0F" cx="31.252" cy="18.184" r="4.109"/>
	<path fill="#0E0F0F" d="M45.25,18.042c-1.624-1.971-3.198-3.954-5.102-5.668c-0.026-0.024-0.058-0.04-0.086-0.063
		c1.783-0.655,2.86-1.501,2.86-2.426h-1.985c0.5-0.449,0.82-1.094,0.82-1.819c0-1.356-1.101-2.456-2.455-2.456
		S36.85,6.709,36.85,8.066c0,0.725,0.317,1.37,0.816,1.819h-2.312c0.5-0.449,0.82-1.094,0.82-1.819c0-1.356-1.1-2.456-2.456-2.456
		c-1.355,0-2.456,1.099-2.456,2.456c0,0.725,0.32,1.37,0.82,1.819H29.81c0.5-0.449,0.82-1.094,0.82-1.819
		c0-1.356-1.1-2.456-2.455-2.456s-2.456,1.099-2.456,2.456c0,0.725,0.32,1.37,0.819,1.819h-1.92c0.5-0.449,0.82-1.094,0.82-1.819
		c0-1.356-1.1-2.456-2.456-2.456c-1.355,0-2.456,1.099-2.456,2.456c0,0.725,0.321,1.37,0.82,1.819h-2.611
		c0,2.078,5.414,3.763,12.094,3.763c2.017,0,3.915-0.156,5.587-0.427c-0.344,0.74-0.279,1.634,0.525,2.359
		c1.439,1.3,2.695,2.753,3.924,4.239c-1.29,1.923-2.842,3.523-4.787,4.787c-0.477-0.329-0.952-0.604-1.421-0.819v-0.001
		c-3.747-1.941-7.584,0.251-7.584,0.251l0.001,0.004c-0.057,0.028-0.108,0.057-0.164,0.085c-0.295,0.045-0.602,0.147-0.912,0.335
		c-5.208,3.152-8.033,8.405-7.1,14.484c0.474,3.08,5.146,1.767,4.677-1.291c-0.384-2.495,0.454-4.734,1.95-6.523
		c0.056,0.25,0.093,0.408,0.093,0.408l-0.306,2.35c-4.061,9.526-3.183,16.516-3.174,16.602c0.027,0.244,0.234,0.432,0.482,0.432
		h3.099h4.293h1.602h4.452h2.838c0.238,0,0.441-0.176,0.479-0.412c0.056-0.354,1.31-7.08-2.759-16.621
		c-0.32-0.76-0.623-2.012-0.623-2.012l0.38-2.371c0.246-0.04,0.5-0.111,0.759-0.25c3.647-1.952,6.426-4.887,8.465-8.465
		C46.146,19.837,45.911,18.845,45.25,18.042z"/>
	<circle fill="#0E0F0F" cx="36.85" cy="3.455" r="2.455"/>
	<circle fill="#0E0F0F" cx="31.169" cy="3.455" r="2.455"/>
	<circle fill="#0E0F0F" cx="25.415" cy="3.455" r="2.455"/>
</g>
</svg>
