<?xml version="1.0" encoding="utf-8"?>
<!-- Generator: Adobe Illustrator 16.0.4, SVG Export Plug-In . SVG Version: 6.00 Build 0)  -->
<!DOCTYPE svg PUBLIC "-//W3C//DTD SVG 1.1//EN" "http://www.w3.org/Graphics/SVG/1.1/DTD/svg11.dtd">
<svg version="1.1" id="Capa_1" xmlns="http://www.w3.org/2000/svg" xmlns:xlink="http://www.w3.org/1999/xlink" x="0px" y="0px"
	 width="64px" height="64px" viewBox="0 0 64 64" enable-background="new 0 0 64 64" xml:space="preserve">
<g>
	<circle fill="#0E0F0F" cx="40.854" cy="8.886" r="5.112"/>
	<circle fill="#0E0F0F" cx="17.811" cy="53.771" r="2.342"/>
	<circle fill="#0E0F0F" cx="9.222" cy="53.771" r="2.342"/>
	<rect x="6.44" y="47.941" fill="#0E0F0F" width="16.25" height="1.61"/>
	<path fill="#0E0F0F" d="M61.295,46.698L52.141,27.37c-0.955-3.062-1.91-6.123-2.867-9.185c-0.623-2-2.114-3.562-4.196-3.599
		c-0.709-0.077-1.447,0.068-2.063,0.483c-1.568,0.82-2.807,2.615-2.455,4.388c-1.496,3.276-3.086,6.496-5.049,9.535
		c-0.732,1.135-0.586,2.291-0.005,3.166h-5.994l-7.612,12.783H7.66l-3.317-11.32h18.092l-2.69,4.636H8.343v1.757h12.414l4.728-8.147
		H2l4.33,14.786l0.549,0.047h16.018l7.611-12.784h5.748v-0.957c1.203,0.922,2.996,1.028,4.055-0.609
		c0.998-1.545,1.908-3.136,2.765-4.755c0.147,0.474,0.297,0.948,0.444,1.423L40.495,46.7h2.942
		c-0.498,3.239-1.008,6.446-1.766,8.876c-1.123,3.604,4.467,5.347,5.592,1.74c0.894-2.865,1.441-6.81,2.033-10.616h0.09
		c0.248,3.557,0.512,7.144,0.291,9.901c-0.303,3.766,5.533,4.232,5.838,0.469c0.23-2.879-0.067-6.662-0.324-10.37h6.104V46.698z"/>
</g>
</svg>
