<?xml version="1.0" encoding="utf-8"?>
<!-- Generator: Adobe Illustrator 16.0.4, SVG Export Plug-In . SVG Version: 6.00 Build 0)  -->
<!DOCTYPE svg PUBLIC "-//W3C//DTD SVG 1.1//EN" "http://www.w3.org/Graphics/SVG/1.1/DTD/svg11.dtd">
<svg version="1.1" id="Capa_1" xmlns="http://www.w3.org/2000/svg" xmlns:xlink="http://www.w3.org/1999/xlink" x="0px" y="0px"
	 width="64px" height="64px" viewBox="0 0 64 64" enable-background="new 0 0 64 64" xml:space="preserve">
<g>
	<path fill="#0E0F0F" d="M41.936,27.49c0,0,2.354-1.35,3.998-2.286l5.879-3.603c-1.379-1.796-5.639-5.835-6.848-7.181
		c-1.66-1.85-5.271-1.875-7.122-0.214c-0.604,0.544-1.024,1.217-1.263,1.938c-1.559,1.956-4.324,1.375-6.732,0.978
		c-1.12-0.186-2.109,0.999-2.141,2.016c-0.036,1.245,0.901,1.955,2.017,2.139c2.52,0.417,5.24,0.557,7.448-0.379
		C37.173,20.896,37.703,27.502,41.936,27.49z"/>
	<path fill="#0E0F0F" d="M35.548,13.535c1.978,0.609,4.074-0.501,4.683-2.478c0.379-1.235,0.09-2.516-0.662-3.452l0.699,0.102
		c0.414,0.061,0.799-0.225,0.859-0.639c0.061-0.415-0.225-0.799-0.639-0.859l-1.446-0.212l0.188-0.229
		c0.265-0.323,0.219-0.8-0.105-1.065c-0.324-0.266-0.799-0.219-1.064,0.104l-0.977,1.188c-0.057,0.051-0.105,0.11-0.145,0.177
		l-0.041,0.049c-1.693-0.114-3.308,0.939-3.828,2.633C32.46,10.831,33.57,12.926,35.548,13.535z"/>
	<circle fill="#0E0F0F" cx="5.046" cy="14.618" r="3.059"/>
	<path fill="#0E0F0F" d="M17.728,30.729c-0.396-0.324-0.873-0.498-1.341-0.474c-0.104-0.064-0.218-0.121-0.344-0.167
		c-1.392-0.512-2.876-0.677-4.339-0.545c-0.017-0.252-0.051-0.506-0.119-0.759c-0.26-0.966-0.521-1.933-0.78-2.899
		c1.755-0.516,3.337-1.488,4.633-2.885c1.538-1.658-1.147-3.9-2.673-2.255c-0.822,0.887-1.794,1.451-2.869,1.767
		c-0.142-0.527-0.283-1.053-0.425-1.58c2.211-0.639,4.368-1.428,6.452-2.442c1.965-0.956,0.247-3.879-1.711-2.928
		c-2.604,1.268-5.357,2.099-8.169,2.764c-0.205,0.027-0.405,0.074-0.594,0.146c-1.622,0.61-2.16,2.262-1.739,3.827
		c0.77,2.858,1.54,5.716,2.309,8.573c0.135,0.497,0.428,0.906,0.81,1.217c1.287,3.231,1.069,6.31-0.385,9.705
		c-0.886,2.071,2.313,3.481,3.201,1.408c1.45-3.392,1.937-6.749,1.178-10.075c1.456-0.361,2.877-0.301,4.321,0.23
		c0.204,0.074,0.393,0.101,0.572,0.103c0.82,0.72,1.546,1.504,2.119,2.381c0.504,0.771,1.491,1.091,2.319,0.606
		c0.766-0.449,1.115-1.545,0.608-2.319C19.922,32.846,18.914,31.699,17.728,30.729z"/>
	<path fill="#0E0F0F" d="M9.987,8.235c0.026-0.091,0.046-0.186,0.064-0.293c0.055-0.017,0.11-0.035,0.165-0.054
		c0.362,0.46,0.849,0.786,1.413,0.947c0.504,0.144,1.026,0.142,1.523-0.003c-0.319,0.787-0.253,1.654,0.149,2.379
		c-0.84,0.469-1.393,1.372-1.419,2.336c-0.673-0.18-1.384-0.102-2.005,0.225l0.118,0.226c0.577-0.302,1.236-0.371,1.858-0.193
		c0.025,0.007,0.049,0.016,0.073,0.024l0.219,0.075l-0.006-0.185c-0.035-0.977,0.525-1.91,1.398-2.343l0.125-0.063l-0.074-0.119
		c-0.469-0.756-0.519-1.706-0.078-2.523l0.17-0.315l-0.331,0.137c-0.53,0.219-1.101,0.252-1.65,0.097
		c-0.54-0.154-1.001-0.477-1.335-0.931l-0.058-0.08l-0.092,0.037c-0.099,0.04-0.202,0.073-0.306,0.101L9.823,7.739L9.812,7.823
		c-0.018,0.132-0.041,0.24-0.07,0.342C9.497,9.028,8.801,9.7,7.927,9.917l0.062,0.248C8.951,9.925,9.717,9.186,9.987,8.235z"/>
	<path fill="#0E0F0F" d="M61.945,49.842L61.945,49.842v-5.621h-5.416c1.02-0.557,1.523-1.775,1.137-2.91L52.591,26.5
		c0.05-0.837,0.122-2.522-0.313-3.297l-5.354,3.526c-2.272,1.216-6.155,3.796-6.333,3.955c-0.863,0.768-1.064,2.035-0.482,3.031
		l5.271,9.044c0.319,0.548,0.819,0.925,1.382,1.097c0.625,0.192,1.325,0.135,1.936-0.222c1.156-0.676,1.547-2.159,0.873-3.315
		l-4.258-7.303c0.902-0.753,1.92-1.567,2.873-2.273c0.237-0.005,0.475-0.032,0.711-0.075l4.186,12.216
		c0.205,0.596,0.618,1.059,1.13,1.338H35.561v7.741H38v3.87h3.062v3.952h20.951v-9.942H61.945z"/>
</g>
</svg>
