<?xml version="1.0" encoding="utf-8"?>
<!-- Generator: Adobe Illustrator 16.0.4, SVG Export Plug-In . SVG Version: 6.00 Build 0)  -->
<!DOCTYPE svg PUBLIC "-//W3C//DTD SVG 1.1//EN" "http://www.w3.org/Graphics/SVG/1.1/DTD/svg11.dtd">
<svg version="1.1" id="Capa_1" xmlns="http://www.w3.org/2000/svg" xmlns:xlink="http://www.w3.org/1999/xlink" x="0px" y="0px"
	 width="64px" height="64px" viewBox="0 0 64 64" enable-background="new 0 0 64 64" xml:space="preserve">
<path fill="#0E0F0F" d="M26.878,3.445h2.012v0.438h-2.012V3.445z M25.432,1.922l1.098,0.885l-0.302,0.374l-1.097-0.885L25.432,1.922
	z M27.936,1.123l0.127,1.404L27.586,2.57l-0.127-1.404L27.936,1.123z M29.978,1.236l0.434,0.206l-0.605,1.272l-0.434-0.206
	L29.978,1.236z M23.721,10.914l0.019,0.029c0.014-0.01,0.023-0.019,0.036-0.029H23.721z M50.374,46.129L39.486,26.633l-0.024,0.017
	c-1.479-2.786-3.2-5.405-5.138-7.875c1.8-0.286,3.363-1.071,4.15-2.805c1.914-4.219-1.947-8.454-4.566-11.365
	c-1.379-1.534-3.192-1.168-4.319-0.04V4.231H20.67v6.045h8.918v-0.94c0.896,1.007,1.745,2.028,2.46,3.176
	c-1.135-0.023-2.268-0.216-3.379-0.431c-0.486-0.094-0.971-0.087-1.432-0.003c-2.955-0.734-5.995,1.608-6.613,4.491
	c-0.179,0.245-0.334,0.522-0.454,0.842c-2.014,5.388-3.35,10.92-4.255,16.594c-0.642,4.024,5.509,5.754,6.155,1.696
	c0.628-3.937,1.471-7.804,2.596-11.603c2.137,2.537,3.959,5.247,5.515,8.198l-4.274,14.867l1.109-0.045
	c-1.125,2.81-2.421,5.563-3.865,8.253c-1.946,3.624,3.564,6.847,5.511,3.219c2.039-3.799,3.832-7.724,5.292-11.765l4.299-0.185
	c0.521,4.252,0.688,8.543,0.419,12.889c-0.254,4.113,6.13,4.09,6.385,0c0.271-4.411,0.105-8.805-0.402-13.157L50.374,46.129z
	 M24.13,9.382c-1.061,0-1.923-0.863-1.923-1.923s0.862-1.923,1.923-1.923s1.923,0.863,1.923,1.923
	C26.054,8.519,25.191,9.382,24.13,9.382z M28.714,5.448h-1.573V4.843h1.573V5.448z M32.625,13.702
	c0.002,0.007,0.004,0.014,0.006,0.021C32.613,13.868,32.586,13.928,32.625,13.702z M18.43,14.597l-2.827-4.106l2.39-1.645
	l0.529-0.364l1.404-0.965V3.593h1.426c-2.367-1.372-5.158-1.846-6.315-0.199l-0.599,0.413C9.988,4.843,12.395,18.75,18.43,14.597z
	 M24.13,6.061c0.772,0,1.398,0.626,1.398,1.398s-0.625,1.398-1.398,1.398c-0.772,0-1.398-0.626-1.398-1.398
	S23.358,6.061,24.13,6.061z"/>
</svg>
