<?xml version="1.0" encoding="utf-8"?>
<!-- Generator: Adobe Illustrator 16.0.4, SVG Export Plug-In . SVG Version: 6.00 Build 0)  -->
<!DOCTYPE svg PUBLIC "-//W3C//DTD SVG 1.1//EN" "http://www.w3.org/Graphics/SVG/1.1/DTD/svg11.dtd">
<svg version="1.1" id="Capa_1" xmlns="http://www.w3.org/2000/svg" xmlns:xlink="http://www.w3.org/1999/xlink" x="0px" y="0px"
	 width="64px" height="64px" viewBox="0 0 64 64" enable-background="new 0 0 64 64" xml:space="preserve">
<g>
	<circle fill="#0E0F0F" cx="35.611" cy="7.015" r="5.052"/>
	<path fill="#0E0F0F" d="M41.424,12.314c0.098,2.16-0.09,4.286-0.361,6.41c-2.242-0.888-4.486-1.795-6.112-3.569
		c-0.453-0.494-0.957-0.752-1.462-0.831c-1.428-0.83-3.533-0.845-4.945,0.116c-0.035,0.008-0.067,0.005-0.103,0.014
		c-3.506,0.842-7.021,1.234-10.624,1.265c-3.512,0.029-3.517,5.478,0,5.448c2.35-0.02,4.69-0.191,7.011-0.511
		c-1.782,3.43-3.523,6.882-5.126,10.402c-0.169,0.374-0.28,0.734-0.347,1.082l-6.728,13.165l2.391,0.038
		c-2.028,3.543-4.056,7.083-6.083,10.625c-1.926,3.364,3.292,6.353,5.218,2.986c2.575-4.498,5.15-8.996,7.727-13.496l0.817,0.015
		c0,4.553,0,9.104,0,13.656c0,3.876,6.011,3.876,6.011,0c0-4.52,0-9.036,0-13.556l1.852,0.03l-0.045-16.376
		c1.275-2.571,2.599-5.116,3.938-7.654c2.358,1.307,5,2.109,7.411,3.422c1.392,0.755,3.738,0.186,4.003-1.628
		c0.534-3.667,1.179-7.334,1.007-11.053C46.707,8.817,41.259,8.802,41.424,12.314z"/>
	<path fill="#0E0F0F" d="M54.588,5.469V5.145H41.57v3.741h13.018V8.561c0.536-0.312,0.898-0.883,0.898-1.545
		S55.124,5.781,54.588,5.469z"/>
</g>
</svg>
