<?xml version="1.0" encoding="utf-8"?>
<!-- Generator: Adobe Illustrator 16.0.4, SVG Export Plug-In . SVG Version: 6.00 Build 0)  -->
<!DOCTYPE svg PUBLIC "-//W3C//DTD SVG 1.1//EN" "http://www.w3.org/Graphics/SVG/1.1/DTD/svg11.dtd">
<svg version="1.1" id="Capa_1" xmlns="http://www.w3.org/2000/svg" xmlns:xlink="http://www.w3.org/1999/xlink" x="0px" y="0px"
	 width="64px" height="64px" viewBox="0 0 64 64" enable-background="new 0 0 64 64" xml:space="preserve">
<g>
	<path fill="#0E0F0F" d="M26.672,60.182L26.672,60.182c-0.001,1.387,0.862,2.506,2.075,2.506c1.214,0,2.197-1.119,2.197-2.506v-9.42
		h-4.272V60.182z"/>
	<path fill="#0E0F0F" d="M32.537,60.135L32.537,60.135c0.001,1.383,0.984,2.506,2.197,2.506c1.215,0,2.199-1.123,2.199-2.506
		l0.037-9.373h-4.434V60.135z"/>
	<circle fill="#0E0F0F" cx="32.318" cy="18.145" r="4.091"/>
	<path fill="#0E0F0F" d="M46.255,18.002c-1.616-1.963-3.185-3.936-5.079-5.643c-2.156-1.941-5.357,1.24-3.191,3.192
		c1.436,1.293,2.683,2.74,3.906,4.218c-1.283,1.915-2.83,3.508-4.766,4.767c-0.475-0.327-0.947-0.602-1.416-0.816
		c-3.458-1.791-6.988-0.048-7.485,0.216c-1.909-1.254-3.44-2.834-4.712-4.729c1.224-1.479,2.472-2.927,3.908-4.22
		c2.167-1.951-1.036-5.133-3.192-3.191c-1.896,1.707-3.463,3.679-5.079,5.643c-0.659,0.799-0.894,1.787-0.353,2.734
		c1.81,3.17,4.202,5.829,7.267,7.748c0.209,1.685,0.647,3.517,0.647,3.517l-0.306,2.339c-4.042,9.486-3.168,16.441-3.159,16.527
		c0.026,0.242,0.232,0.428,0.479,0.428h3.086h4.274h1.596h4.43h2.828c0.235,0,0.438-0.172,0.476-0.405
		c0.054-0.353,1.304-7.052-2.745-16.55c-0.32-0.758-0.621-2.003-0.621-2.003l0.377-2.359c0.246-0.041,0.499-0.112,0.758-0.25
		c3.631-1.944,6.395-4.866,8.426-8.428C47.148,19.79,46.912,18.802,46.255,18.002z"/>
	<path fill="#0E0F0F" d="M32.82,13.557c3.268,0,5.914-2.257,5.914-5.041c0-2.057-1.448-3.824-3.521-4.607
		C34.334,2.46,36.27,1.313,36.27,1.313h-6.961c0,0,1.775,1.361,1.049,2.626c-2.035,0.795-3.45,2.543-3.45,4.577
		C26.906,11.3,29.555,13.557,32.82,13.557z"/>
</g>
</svg>
