<?xml version="1.0" encoding="utf-8"?>
<!-- Generator: Adobe Illustrator 16.0.4, SVG Export Plug-In . SVG Version: 6.00 Build 0)  -->
<!DOCTYPE svg PUBLIC "-//W3C//DTD SVG 1.1//EN" "http://www.w3.org/Graphics/SVG/1.1/DTD/svg11.dtd">
<svg version="1.1" id="Capa_1" xmlns="http://www.w3.org/2000/svg" xmlns:xlink="http://www.w3.org/1999/xlink" x="0px" y="0px"
	 width="64px" height="64px" viewBox="0 0 64 64" enable-background="new 0 0 64 64" xml:space="preserve">
<g>
	<ellipse fill="#0E0F0F" cx="43.734" cy="12.025" rx="4.338" ry="4.386"/>
	<path fill="#0E0F0F" d="M53.209,25.229c-2.863-1.366-10.02-5.425-10.02-5.425l-3.418-1.726l1.408,6.581l-3.104,0.679l-1.673-7.806
		H25.09c-1.325,0-2.398,1.086-2.398,2.426s1.073,2.426,2.398,2.426h8.15c-1.868,2.334-3.737,4.669-5.607,7.002
		c-0.074,0.094-0.14,0.193-0.203,0.293c-0.188,0.132-0.367,0.293-0.534,0.495c-3.628,4.402-9.648,11.233-13.79,15.614l-0.025-0.044
		l-0.095,0.111c-0.332,0.393-0.676,0.793-1.035,1.203c-0.025,0.031-0.04,0.063-0.064,0.094l-0.122,0.146l-1.887,2.079l0.006,0.006
		c-0.005,0.001-0.014,0.008-0.014,0.008l-0.359,0.446c0,0,0.005,0.019,0.013,0.04l-0.666,1.021L8.815,50.95l0.005,0.005
		l-0.005,0.009l0.08,0.054l4.634,3.899l0.17,0.146l0.958,0.806l0.01,0.007c0.071,0.055,1.735,1.257,2.757,0.262l-0.526-0.539
		c-0.558,0.541-1.701-0.228-1.807-0.301l-0.766-0.646l0.344-0.418l1.188,0.994c0.071,0.059,0.146,0.086,0.166,0.061l0.322-0.393
		c0.003-0.004,0.002-0.012,0.002-0.019l0.007,0.006c0,0,0.763-0.672,0.213-1.394c0,0-0.39-0.402-0.82-1.029l-0.663,0.427
		l-0.248-0.37l0.667-0.428c-0.07-0.115-0.14-0.232-0.208-0.357l-0.599,0.387l-0.25-0.37l0.646-0.415
		c-0.056-0.12-0.108-0.245-0.157-0.371l-0.544,0.35l-0.248-0.369l0.197-0.127c0.436-0.051,0.87-0.26,1.234-0.703l-0.015-0.024
		c0.094-0.075,0.189-0.146,0.28-0.241c3.471-3.625,8.219-8.775,12.081-13.219c5.283,2.793,8.016,6.884,9.229,12.779
		c0.033,0.16,0.084,0.303,0.137,0.441l0.014,0.17l0.121,2.82l0.008-0.002c-0.004,0.005-0.006,0.016-0.006,0.016v1.784h0.338
		l0.006,0.074l6.107-0.565l0.221-0.021l1.24-0.116l0.014-0.001c0.088-0.015,2.104-0.353,2.133-1.786l-0.75-0.008
		c-0.016,0.782-1.36,1.059-1.489,1.08l-0.992,0.093L44.2,52.844l1.534-0.146c0.093-0.009,0.164-0.042,0.16-0.075l-0.049-0.509
		c0-0.005-0.004-0.011-0.008-0.015h0.008c0,0,0.07-1.021-0.822-1.139c0,0-0.559-0.006-1.301-0.141l-0.17,0.775l-0.434-0.086
		l0.172-0.779c-0.131-0.031-0.262-0.064-0.398-0.104l-0.154,0.703l-0.432-0.085l0.164-0.757c-0.123-0.045-0.246-0.094-0.369-0.148
		l-0.141,0.635l-0.434-0.082l0.051-0.231c0.211-0.271,0.354-0.608,0.383-1.015c0.105-0.357,0.133-0.76,0.041-1.213
		c-1.17-5.687-3.66-10.371-7.914-13.744c0.198-0.187,0.385-0.388,0.559-0.604c2.625-3.278,5.011-6.071,7.636-9.349
		c3.038,1.451,5.838,3.386,8.875,4.837C53.959,30.909,55.975,26.549,53.209,25.229z M11.476,52.252l-1.734-1.459l0.288-0.443
		l1.783,1.493L11.476,52.252z M38.561,53.382l1.949-0.187l0.049,0.531l-1.998,0.186V53.382z"/>
	<polygon fill="#0E0F0F" points="43.252,19.212 44.25,17.555 37.654,13.884 36.656,15.543 	"/>
	<polygon fill="#0E0F0F" points="40.408,24.052 39.193,18.255 36.863,16.896 38.523,24.432 	"/>
	<path fill="#0E0F0F" d="M32.938,13.349c0.008,0.016,0.016,0.03,0.022,0.045c0.491,0.956,1.591,1.244,2.396,1.455
		c0.258,0.067,0.58,0.202,0.687,0.274l0.976-1.585c0,0-0.552-0.404-1.179-0.568c-0.353-0.092-1.079-0.283-1.178-0.472
		c0,0,0-0.002-0.001-0.003c-0.02-0.041-0.033-0.233,0.138-0.632c0.847-1.989,0.603-2.797,0.19-3.646
		c-0.122-0.254-0.209-0.438-0.239-0.744L32.84,7.665c0.064,0.65,0.273,1.084,0.426,1.401c0.209,0.435,0.336,0.698-0.23,2.029
		C32.664,11.959,32.632,12.718,32.938,13.349z"/>
</g>
</svg>
