<?xml version="1.0" encoding="utf-8"?>
<!-- Generator: Adobe Illustrator 16.0.4, SVG Export Plug-In . SVG Version: 6.00 Build 0)  -->
<!DOCTYPE svg PUBLIC "-//W3C//DTD SVG 1.1//EN" "http://www.w3.org/Graphics/SVG/1.1/DTD/svg11.dtd">
<svg version="1.1" id="Capa_1" xmlns="http://www.w3.org/2000/svg" xmlns:xlink="http://www.w3.org/1999/xlink" x="0px" y="0px"
	 width="64px" height="64px" viewBox="0 0 64 64" enable-background="new 0 0 64 64" xml:space="preserve">
<g>
	<path fill="#0E0F0F" d="M48.77,56.455c-4.479-4.146-7.105-9.532-6.862-15.566c0.374-0.742,0.477-1.609,0.163-2.535
		c-1.125-3.332-2.473-11.979-3.834-15.22c-0.918-2.185-4.107-2.621-5.939-1.546c-0.541,0.317-0.962,0.701-1.279,1.131
		c-2.538-0.739-4.936-1.775-7.224-3.203c-0.036-0.022-0.07-0.033-0.106-0.052c0.547-1.355,1.099-2.708,1.616-4.073l1.94-5.325
		l0.967-2.662l0.938-2.672c0.014-0.037,0.025-0.079,0.037-0.118c0.268-0.965-0.298-1.965-1.264-2.232
		c-0.966-0.268-1.964,0.298-2.231,1.264l-0.756,2.729l-0.728,2.738l-1.451,5.478c-0.406,1.61-0.763,3.236-1.137,4.856
		c-1.108,0.667-1.639,2.34-0.713,3.474l-0.432,2.164c-2.745-0.902-4.922,3.373-2.134,5.186c0.01,0.006,0.021,0.011,0.031,0.019
		c-0.2,0.303-0.42,0.602-0.688,0.885c-0.271,0.29-0.418,0.702-0.354,1.125c0.111,0.735,0.796,1.241,1.531,1.13
		c0.734-0.111,1.239-0.797,1.129-1.531c-0.037-0.246-0.053-0.485-0.059-0.723c3.898,1.977,7.994,2.102,12.042,1.012
		c0.594,2.869,1.156,6.095,1.676,7.712c-2.442,3.051-4.886,5.793-7.331,8.961c-0.816,1.057-0.282,2.506,0.439,3.4
		c2.158,2.686,4.307,5.489,6.813,7.859c2.629,2.486,6.604-1.477,3.97-3.969c-1.901-1.803-3.601-3.854-5.252-5.912
		c1.387-1.797,2.772-3.594,4.16-5.391c0.776,5.945,3.89,11.444,8.352,15.575C47.451,62.881,51.432,58.92,48.77,56.455z
		 M21.174,25.423c-0.012-0.008-0.024-0.014-0.037-0.021l0.751-1.721c2.417,1.458,4.986,2.572,7.675,3.364
		C26.726,27.604,23.933,27.217,21.174,25.423z"/>
	<path fill="#0E0F0F" d="M26.745,14.946l0.046,0.008c-0.355,2.68,1.509,5.154,4.194,5.54c2.608,0.375,5.027-1.364,5.539-3.916
		l0.666,0.111l2.379,0.397l0.257-0.607l-2.179-0.757c0,0-0.804-4.528-4.81-5.127C29.954,10.115,27.226,12.063,26.745,14.946z"/>
</g>
</svg>
