<?xml version="1.0" encoding="utf-8"?>
<!-- Generator: Adobe Illustrator 16.0.4, SVG Export Plug-In . SVG Version: 6.00 Build 0)  -->
<!DOCTYPE svg PUBLIC "-//W3C//DTD SVG 1.1//EN" "http://www.w3.org/Graphics/SVG/1.1/DTD/svg11.dtd">
<svg version="1.1" id="Capa_1" xmlns="http://www.w3.org/2000/svg" xmlns:xlink="http://www.w3.org/1999/xlink" x="0px" y="0px"
	 width="64px" height="64px" viewBox="0 0 64 64" enable-background="new 0 0 64 64" xml:space="preserve">
<g>
	<path fill="#0E0F0F" d="M45.154,52.7c-3.803-2.009-7.668-3.872-11.629-5.521c-0.363,2.027-0.908,4.03-1.488,5.942
		c3.412,1.455,6.754,3.079,10.053,4.819C45.549,59.77,48.617,54.529,45.154,52.7z"/>
	<path fill="#0E0F0F" d="M30.953,35.508c-0.051-0.088-0.105-0.169-0.161-0.249c-0.187-2.112-1.351-3.955-3.671-4.594
		c-0.962-0.264-2.072-0.192-3.094,0.153c-0.058-0.041-0.114-0.084-0.177-0.123c-4.43-2.788-8.676-5.794-12.67-9.18l0.767-0.844
		l0.76,0.688c0.474,0.431,1.211,0.394,1.642-0.082c0.432-0.474,0.396-1.211-0.08-1.642l-0.194-0.177l12.13-12.645l0.066-0.069
		l0.596-3.856l-3.493,1.249L11.916,17.5l-0.194-0.177c-0.476-0.43-1.213-0.395-1.644,0.08c-0.432,0.477-0.395,1.214,0.081,1.645
		l0.643,0.583L9.77,20.769c-2.718-0.632-5.512,2.807-2.954,4.98c4.326,3.674,8.911,6.985,13.706,10.019
		c-0.371,2.047-0.854,4.069-1.398,6.078c-4.417-1.384-8.709-3.252-13.399-3.416c-1.612-0.057-3.094,1.424-3.036,3.034
		C2.838,45.616,4.15,49.4,5.937,53.115c1.696,3.525,6.931,0.445,5.242-3.063c-0.789-1.641-1.461-3.319-1.898-5.06
		c4.197,0.949,8.227,2.998,12.434,3.799c0.044,0.008,0.086,0.011,0.129,0.018c1.182,0.471,2.524,1.01,2.782,1.098
		c0.584-1.946,1.085-3.912,1.335-5.873c0.265-0.256,0.553-0.458,0.852-0.625c-0.143,4.025-1.581,8.115-2.78,11.878
		c-1.193,3.739,4.668,5.329,5.854,1.614C32.033,50.165,34.775,42.118,30.953,35.508z"/>
	<path fill="#0E0F0F" d="M28.087,21.514c-1.099,1.058-1.776,2.501-1.776,4.092c0,3.242,2.809,5.87,6.274,5.87
		s6.274-2.628,6.274-5.87c0.404-2.429-5.01-8.954-4.808-5.515c0.203,3.439-3.682-4.299-5.414-4.299
		C26.875,15.792,29.227,20.418,28.087,21.514z"/>
	<path fill="#0E0F0F" d="M42.927,49.018l0.451,0.074c0.349-2.094-0.104-3.895-1.282-5.07l-0.322,0.324
		C42.842,45.413,43.251,47.072,42.927,49.018z"/>
	<path fill="#0E0F0F" d="M52.107,42.547l-0.256-0.379c-0.906,0.604-1.844,1.229-2.771,2.158l0.322,0.322
		c0.896-0.896,1.814-1.51,2.703-2.102H52.107z"/>
	<path fill="#0E0F0F" d="M52.193,55.973l-0.424,0.17c0.569,1.426,1.707,2.463,3.477,3.17l0.168-0.424
		C53.746,58.223,52.723,57.294,52.193,55.973z"/>
	<rect x="52.895" y="50.348" fill="#0E0F0F" width="7.308" height="0.457"/>
	<path fill="#0E0F0F" d="M47.415,49.282c0.209,0,0.497,0.288,0.751,0.541l0.001,0.002l0.321-0.324
		c-0.331-0.332-0.676-0.676-1.073-0.676V49.282z"/>
</g>
</svg>
