<?xml version="1.0" encoding="utf-8"?>
<!-- Generator: Adobe Illustrator 16.0.4, SVG Export Plug-In . SVG Version: 6.00 Build 0)  -->
<!DOCTYPE svg PUBLIC "-//W3C//DTD SVG 1.1//EN" "http://www.w3.org/Graphics/SVG/1.1/DTD/svg11.dtd">
<svg version="1.1" id="Capa_1" xmlns="http://www.w3.org/2000/svg" xmlns:xlink="http://www.w3.org/1999/xlink" x="0px" y="0px"
	 width="64px" height="64px" viewBox="0 0 64 64" enable-background="new 0 0 64 64" xml:space="preserve">
<g>
	<path d="M54.762,23.008c-0.832-0.984-1.669-1.83-2.503-2.557c0.273,0.69,0.453,1.2,0.526,1.416l0.246,0.722l-0.633,0.428
		c-0.609,0.413-1.358,0.739-2.203,0.981c0.51,0.486,1.015,1.004,1.513,1.593c2.176,2.574,2.069,13.577-2.538,23.505
		c-2.699,5.814-6.16,9.285-9.26,9.285c-1.062,0-2.212-0.387-3.422-1.15c-0.84-0.752-2.619-2.016-5.233-2.183L31,55.032l-0.255,0.016
		c-2.613,0.167-4.394,1.431-5.233,2.183c-1.21,0.764-2.36,1.15-3.422,1.15c-3.099,0-6.56-3.472-9.259-9.287
		c-4.607-9.927-4.714-20.93-2.539-23.504c2.92-3.454,6.03-5.133,9.509-5.133c2.018,0,3.834,0.544,5.345,1.077
		c2.048,0.722,3.926,1.145,5.582,1.258L31,22.811l0.271-0.018c1.656-0.113,3.534-0.536,5.583-1.258
		c0.15-0.053,0.317-0.104,0.475-0.157c-0.521-0.504-0.95-1.071-1.251-1.707c-0.249-0.527-0.443-1.176-0.478-1.935
		c-0.024,0.009-0.053,0.018-0.078,0.027c-0.847,0.298-1.588,0.512-2.236,0.667c2.611-6.754,8.716-10.624,15.167-13.319
		c2.3-0.961,1.292-4.761-1.043-3.785c-7.97,3.329-14.996,7.983-18.053,16.417c-0.105,0.29-0.139,0.559-0.12,0.805
		c-0.762-0.159-1.678-0.404-2.761-0.786c-1.68-0.592-4.002-1.304-6.674-1.304c-3.762,0-8.218,1.41-12.564,6.55
		C0.716,30.723,8.672,62.381,22.09,62.381c1.874,0,3.853-0.615,5.916-2.002c0,0,1.087-1.217,2.994-1.339
		c1.907,0.122,2.994,1.339,2.994,1.339c2.062,1.385,4.042,2.002,5.916,2.002C53.33,62.381,61.284,30.724,54.762,23.008z"/>
	<path d="M35.066,43.814c-0.986-0.449-1.081-2.362-0.211-4.273c0.87-1.912,2.375-3.098,3.362-2.648s1.081,2.363,0.211,4.274
		S36.053,44.264,35.066,43.814z M24.062,41.168c-0.87-1.912-0.775-3.826,0.211-4.275s2.492,0.736,3.362,2.648
		s0.775,3.825-0.211,4.274S24.933,43.079,24.062,41.168z"/>
	<path d="M49.301,23.194c0.98-0.212,1.855-0.543,2.537-1.005c0,0-0.443-1.301-1.23-3.026c-1.556-3.406-4.457-8.47-7.969-8.47
		c-1.312,0-2.707,0.705-4.147,2.466c-1.3,1.588-1.863,3.005-1.892,4.245c-0.035,1.466,0.684,2.682,1.844,3.631
		c1.957,1.598,5.156,2.44,8.096,2.44C47.508,23.475,48.443,23.38,49.301,23.194z"/>
</g>
</svg>
