<?xml version="1.0" encoding="iso-8859-1"?>
<!-- Generator: Adobe Illustrator 17.0.0, SVG Export Plug-In . SVG Version: 6.00 Build 0)  -->
<!DOCTYPE svg PUBLIC "-//W3C//DTD SVG 1.1//EN" "http://www.w3.org/Graphics/SVG/1.1/DTD/svg11.dtd">
<svg version="1.1" id="Capa_1" xmlns="http://www.w3.org/2000/svg" xmlns:xlink="http://www.w3.org/1999/xlink" x="0px" y="0px"
	 width="64px" height="64px" viewBox="0 0 64 64" style="enable-background:new 0 0 64 64;" xml:space="preserve">
<g>
	<path d="M32.708,40.557c0.148-0.831,0.459-1.629,0.966-2.335c0.4-0.558,0.897-1.015,1.449-1.389
		c-0.065-0.224-0.136-0.446-0.175-0.682c-0.246-1.498,0.122-2.954,0.913-4.122c-1.125-0.858-1.936-2.118-2.181-3.613
		c-0.159-0.969-0.043-1.934,0.279-2.834c-0.001-0.001-0.002-0.002-0.003-0.003c-5.425-4.64-9.964-2.568-12.297-1.293
		c-1.219,0.666-2.103,0.956-2.665,1.087c-0.574,0.054-1.505,0.06-2.872-0.185c-2.617-0.469-7.578-0.993-11.251,5.128
		c-1.246,2.077-0.807,6.129,0.67,10.24H32.708z M11.41,29.038c1.7-0.924,3.214,1.666,1.514,2.59
		c-2.561,1.393-2.864,3.938-1.03,6.144c1.227,1.476-0.883,3.611-2.121,2.121C6.754,36.263,7.038,31.415,11.41,29.038z"/>
	<path d="M10.843,12.661c-1.364-0.872-2.41,1.444-1.067,2.303c3.835,2.452,6.668,3.684,7.503,8.406
		c0.282,1.597,2.781,1.354,2.495-0.26c-0.093-0.526-0.211-1.008-0.342-1.47c-0.796-0.259-1.731-0.939-2.33-2.655
		c-0.244-0.698-0.292-1.316-0.187-1.866C15.36,15.467,13.297,14.23,10.843,12.661z"/>
	<path d="M38.519,40.557c-0.865-0.334-1.625-0.875-2.229-1.566c-0.269-0.308-0.507-0.643-0.706-1.007
		c-0.349,0.267-0.672,0.57-0.936,0.937c-0.358,0.499-0.604,1.054-0.736,1.636h2.127H38.519z"/>
	<path d="M43.249,40.557c-0.02-0.038-0.035-0.079-0.054-0.118c-0.072,0.04-0.148,0.073-0.218,0.118H43.249z"/>
	<path d="M42.333,32.354c-0.629,0.39-1.335,0.656-2.087,0.779c-0.308,0.051-0.621,0.076-0.931,0.076
		c-0.869,0-1.685-0.212-2.426-0.56c-0.135,0.194-0.253,0.399-0.356,0.611c-0.395,0.811-0.558,1.742-0.401,2.697
		c0.017,0.101,0.052,0.194,0.075,0.293c0.046,0.199,0.096,0.396,0.166,0.583c0.034,0.09,0.08,0.173,0.119,0.26
		c0.043,0.095,0.081,0.193,0.13,0.284c0.768,1.426,2.259,2.366,3.96,2.366c0.245,0,0.493-0.02,0.737-0.06
		c0.336-0.055,0.656-0.155,0.964-0.279c0.163-0.066,0.317-0.147,0.47-0.231c-0.021-0.093-0.054-0.18-0.071-0.275
		c-0.003-0.015-0.009-0.028-0.011-0.043c-0.059-0.36-0.079-0.72-0.07-1.077c0.028-1.118,0.384-2.2,1.04-3.133
		C43.043,34.008,42.591,33.232,42.333,32.354z"/>
	<path d="M43.857,38.663c0.012,0.074,0.039,0.14,0.055,0.213c0.013,0.062,0.031,0.123,0.047,0.184
		c0.034,0.132,0.057,0.269,0.102,0.395c0.026,0.073,0.066,0.138,0.096,0.21c0.048,0.116,0.099,0.229,0.155,0.34
		c0.1,0.194,0.215,0.376,0.341,0.552h3.162h0.962h0.872h2.339c0.057-0.08,0.095-0.17,0.147-0.253
		c-1.337-0.847-2.31-2.23-2.583-3.899c-0.013-0.082-0.006-0.163-0.016-0.245c-0.267,0.085-0.533,0.17-0.815,0.217
		c-0.308,0.051-0.622,0.076-0.931,0.076c-0.553,0-1.081-0.099-1.589-0.245c-0.197-0.057-0.392-0.115-0.579-0.192
		c-0.194-0.079-0.382-0.169-0.565-0.268c-0.172-0.094-0.332-0.201-0.492-0.311c-0.576,0.864-0.824,1.877-0.729,2.907
		C43.846,38.45,43.839,38.556,43.857,38.663z"/>
	<path d="M42.171,29.75c0.206-1.167,0.769-2.231,1.591-3.054c-0.386-2.16-2.238-3.722-4.435-3.722c-0.245,0-0.493,0.02-0.736,0.06
		c-1.191,0.195-2.234,0.843-2.938,1.822c-0.402,0.56-0.648,1.193-0.764,1.853c-0.087,0.495-0.108,1.004-0.024,1.515
		c0.169,1.029,0.679,1.917,1.393,2.579c0.119,0.11,0.244,0.21,0.374,0.307c0.166,0.124,0.336,0.24,0.519,0.34
		c0.197,0.108,0.398,0.207,0.61,0.285c0.486,0.178,1.01,0.276,1.555,0.276c0.245,0,0.493-0.02,0.736-0.06
		c0.76-0.125,1.448-0.451,2.037-0.913c-0.001-0.023,0-0.046-0.001-0.069c-0.008-0.205-0.005-0.409,0.009-0.61
		C42.111,30.153,42.136,29.95,42.171,29.75z"/>
	<path d="M44.854,34.169c0.042,0.036,0.091,0.065,0.134,0.099c0.118,0.094,0.242,0.181,0.369,0.263
		c0.098,0.063,0.197,0.121,0.3,0.177c0.199,0.107,0.403,0.204,0.618,0.28c0.475,0.168,0.984,0.265,1.515,0.265
		c0.245,0,0.493-0.02,0.737-0.06c0.35-0.057,0.682-0.165,1.002-0.298c0.043-0.419,0.134-0.827,0.268-1.226
		c0.062-0.184,0.107-0.372,0.188-0.549c0.087-0.192,0.211-0.369,0.32-0.552c0.084-0.14,0.149-0.289,0.245-0.423
		c0.47-0.655,1.066-1.183,1.74-1.581c-0.007-0.186-0.006-0.373-0.036-0.56c-0.258-1.574-1.301-2.827-2.686-3.416
		c0.05-0.194,0.108-0.383,0.168-0.572c0.062-0.196,0.13-0.388,0.202-0.577c1.264-3.3,4.045-5.67,7.06-7.553
		c1.244-0.777,0.297-2.887-0.966-2.098c-3.726,2.327-6.945,5.164-8.379,9.242c-0.072,0.205-0.136,0.415-0.199,0.626
		c-0.059,0.199-0.117,0.399-0.168,0.604c-0.074,0.008-0.149,0.006-0.222,0.018c-0.786,0.129-1.478,0.471-2.061,0.935
		c-0.21,0.167-0.403,0.35-0.579,0.551c-0.599,0.681-0.987,1.529-1.096,2.453c-0.018,0.157-0.038,0.313-0.039,0.474
		c-0.001,0.074,0.011,0.15,0.014,0.225c0.007,0.184,0.004,0.367,0.034,0.553c0.003,0.019,0.011,0.037,0.014,0.056
		c0.01,0.059,0.031,0.113,0.044,0.171c0.17,0.782,0.528,1.479,1.031,2.045C44.563,33.89,44.701,34.038,44.854,34.169z"/>
	<path d="M53.161,39.503c0.178,0.09,0.359,0.174,0.55,0.24c0.465,0.16,0.96,0.254,1.477,0.254c0.245,0,0.493-0.02,0.736-0.06
		c1.191-0.195,2.234-0.843,2.938-1.822c0.704-0.98,0.984-2.176,0.789-3.367c-0.36-2.193-2.232-3.786-4.452-3.786
		c-0.245,0-0.493,0.02-0.736,0.06c-0.35,0.057-0.682,0.165-1.002,0.298c-0.223,0.093-0.443,0.192-0.648,0.318
		c-0.288,0.179-0.549,0.399-0.791,0.64c-0.177,0.176-0.348,0.359-0.497,0.566c-0.06,0.084-0.099,0.177-0.153,0.264
		c-0.109,0.175-0.22,0.348-0.303,0.534c-0.043,0.095-0.065,0.197-0.101,0.295c-0.034,0.094-0.069,0.188-0.097,0.284
		c-0.065,0.224-0.108,0.451-0.138,0.683c-0.032,0.247-0.044,0.495-0.034,0.747c0.007,0.187,0.006,0.373,0.037,0.561
		c0.206,1.258,0.919,2.305,1.9,2.98C52.804,39.308,52.978,39.411,53.161,39.503z"/>
	<path d="M52.561,23.413c-3.372,5.839,5.992,6.45,8.609,3.973C61.171,27.386,55.933,17.573,52.561,23.413z"/>
	<path d="M31,61.028c15.724,0,28.471-3.747,28.471-19.471h-6.768h-0.792h-0.933h-0.6h-0.714h-0.733h-3.296h-0.914h-0.702h-0.13
		h-0.471h-0.596h-0.939H41.14h-0.69h-4.624h-2.014h-0.596h-0.601H5.921H2.529C2.529,57.281,15.276,61.028,31,61.028z"/>
	<path d="M25.259,15.888c-0.678-0.104-1.931-0.266-3.225-0.266c-2.045,0-3.403,0.391-3.928,1.13c-0.3,0.423-0.328,0.991-0.111,1.715
		c0.019,0.064,0.028,0.121,0.051,0.187c0.234,0.669,0.53,1.177,0.884,1.532c0.396,0.398,0.863,0.604,1.402,0.604
		C22.198,20.79,24.516,18.433,25.259,15.888z"/>
</g>
</svg>
