<?xml version="1.0" encoding="iso-8859-1"?>
<!-- Generator: Adobe Illustrator 17.0.0, SVG Export Plug-In . SVG Version: 6.00 Build 0)  -->
<!DOCTYPE svg PUBLIC "-//W3C//DTD SVG 1.1//EN" "http://www.w3.org/Graphics/SVG/1.1/DTD/svg11.dtd">
<svg version="1.1" id="Capa_1" xmlns="http://www.w3.org/2000/svg" xmlns:xlink="http://www.w3.org/1999/xlink" x="0px" y="0px"
	 width="64px" height="64px" viewBox="0 0 64 64" style="enable-background:new 0 0 64 64;" xml:space="preserve">
<g>
	<path d="M28.078,58.548c0,0,0.981-1.099,2.703-1.209c1.722,0.11,2.703,1.209,2.703,1.209c15.199,10.21,25.463-25.804,18.752-33.743
		c-6.711-7.939-13.719-6.024-17.37-4.737c-0.81,0.286-1.497,0.474-2.107,0.616c0.028,0.307,0.061,0.618,0.109,0.941
		c0.104,0.709-0.084,1.384-0.53,1.901c-0.475,0.549-1.197,0.876-1.935,0.876c-1.106,0-1.928-0.725-2.093-1.846
		c-0.105-0.715-0.162-1.388-0.199-2.044c-0.066-0.018-0.134-0.038-0.202-0.058c-0.623,0.313-1.342,0.493-2.174,0.493
		c-1.799,0-3.835-0.787-5.627-2.043c-3.274,0.137-7.074,1.512-10.784,5.9C2.615,32.744,12.879,68.758,28.078,58.548z"/>
	<path d="M22.193,18.976c1.2,0.605,2.434,0.972,3.543,0.972c0.172,0,0.327-0.025,0.487-0.042c0.752-0.077,1.373-0.333,1.86-0.765
		c0.032-2,0.383-3.752,0.998-5.37c-0.126-0.306-0.28-0.579-0.488-0.791c-0.523-0.532-1.344-0.801-2.438-0.801
		c-3.038,0-7.204,2.041-8.575,2.759C18.679,16.617,20.398,18.071,22.193,18.976z"/>
	<path d="M29.125,20.765c0.038,0.531,0.092,1.075,0.176,1.647c0.131,0.895,0.814,0.991,1.103,0.992c0.444,0,0.896-0.203,1.178-0.53
		c0.257-0.297,0.359-0.678,0.297-1.102c-0.045-0.306-0.074-0.597-0.103-0.889c-0.57-5.764,1.937-8.795,5.354-12.906
		c0.44-0.53,0.896-1.079,1.363-1.655c0.529-0.653,0.293-1.339,0.167-1.604c-0.248-0.519-0.726-0.882-1.163-0.882
		c-0.276,0-0.531,0.143-0.759,0.423l-0.866,1.064c-2.508,3.077-4.548,5.592-5.72,8.462c-0.118,0.289-0.226,0.584-0.326,0.881
		c-0.419,1.247-0.676,2.576-0.737,4.054c-0.011,0.282-0.018,0.567-0.016,0.86C29.077,19.964,29.096,20.36,29.125,20.765z"/>
</g>
</svg>
