<?xml version="1.0" encoding="iso-8859-1"?>
<!-- Generator: Adobe Illustrator 17.0.0, SVG Export Plug-In . SVG Version: 6.00 Build 0)  -->
<!DOCTYPE svg PUBLIC "-//W3C//DTD SVG 1.1//EN" "http://www.w3.org/Graphics/SVG/1.1/DTD/svg11.dtd">
<svg version="1.1" id="Capa_1" xmlns="http://www.w3.org/2000/svg" xmlns:xlink="http://www.w3.org/1999/xlink" x="0px" y="0px"
	 width="64px" height="64px" viewBox="0 0 64 64" style="enable-background:new 0 0 64 64;" xml:space="preserve">
<g>
	<path d="M25.993,62c10.809,0,23.811-3.737,25.83-13.995c0.062-0.184,0.116-0.407,0.157-0.687c0.97-6.615,3.269-8.801,3.269-8.801
		l-0.003-0.003C58.622,35.599,61,28.625,61,21.469c0-6.173-3.623-13.003-8.812-16.517c-2.78-2.429-6.403-3.91-10.378-3.91
		c-5.576,0-10.47,2.902-13.29,7.276l-0.009-0.007c0,0-3.605,5.545-11.089,7.411c-0.321,0.08-0.568,0.169-0.756,0.266
		C7.911,18.996,1.608,27.309,1.608,37.119c0,6.083,2.423,11.595,6.349,15.625C12.002,58.35,18.571,62,25.993,62z M6.252,29.336
		c2.125-4.84,6.181-8.721,11.389-10.511l0.156-0.048l0.189-0.097c0,0,0.049-0.019,0.162-0.047c5.159-1.286,8.725-4.096,10.776-6.175
		l0.229,0.181l0.1,0.079l0.419-0.65l1.37-2.125c1.375-2.133,3.308-3.749,5.527-4.752c1.625-0.734,3.398-1.15,5.242-1.15
		c7.075,0,12.831,5.785,12.831,12.896c0,3.752-1.633,7.315-4.481,9.775l-2.374,2.057l0.189,0.199
		c-1.858,2.239-4.311,6.079-5.089,11.384c-0.016,0.11-0.03,0.158-0.03,0.158s0,0,0,0l-0.064,0.189l-0.039,0.196
		c-1.776,9.024-9.719,15.574-18.887,15.574c-10.62,0-19.26-8.68-19.26-19.35C4.608,34.376,5.196,31.74,6.252,29.336z"/>
	<path d="M25.125,44.75c6.627,0,12-5.373,12-12c0-6.627-5.373-12-12-12s-12,5.373-12,12C13.125,39.377,18.498,44.75,25.125,44.75z
		 M26.907,25.071c1.943,0.454,3.965,1.446,4.986,3.252c1.013,1.791,1.045,3.731,0.66,5.708c-0.492,2.531-4.347,1.456-3.857-1.063
		c0.455-2.339-0.636-3.522-2.853-4.04C23.332,28.342,24.397,24.485,26.907,25.071z"/>
</g>
</svg>
