<?xml version="1.0" encoding="iso-8859-1"?>
<!-- Generator: Adobe Illustrator 17.0.0, SVG Export Plug-In . SVG Version: 6.00 Build 0)  -->
<!DOCTYPE svg PUBLIC "-//W3C//DTD SVG 1.1//EN" "http://www.w3.org/Graphics/SVG/1.1/DTD/svg11.dtd">
<svg version="1.1" id="Capa_1" xmlns="http://www.w3.org/2000/svg" xmlns:xlink="http://www.w3.org/1999/xlink" x="0px" y="0px"
	 width="64px" height="64px" viewBox="0 0 64 64" style="enable-background:new 0 0 64 64;" xml:space="preserve">
<g>
	<path d="M8.282,33.125c2.099,4.337,5.58,7.858,9.934,10.218l-6.681,15.584c-0.326,0.761,0.026,1.643,0.788,1.969
		c0.192,0.083,0.393,0.122,0.59,0.122c0.582,0,1.136-0.341,1.38-0.91l6.642-15.492c3.257,1.308,6.881,2.026,10.704,2.026
		c3.925,0,7.642-0.753,10.965-2.128l6.687,15.595c0.244,0.568,0.798,0.909,1.38,0.909c0.197,0,0.397-0.039,0.59-0.122
		c0.762-0.326,1.114-1.208,0.788-1.97l-6.741-15.722c4.256-2.368,7.657-5.854,9.713-10.132c4.014-0.819,7.567-2.617,7.642-4.743
		c0.083-2.376-1.95-3.695-5.484-4.248c0.007-0.234,0.019-0.466,0.019-0.703c0-0.195-0.026-0.388-0.065-0.58
		c0.32-0.593,0.498-1.215,0.498-1.869c0-5.768-13.215-9.214-25.991-9.214S5.646,15.164,5.646,20.931c0,0.654,0.178,1.277,0.498,1.87
		C6.107,22.993,6.08,23.185,6.08,23.38c0,0.218,0.011,0.432,0.017,0.648c-3.507,0.519-5.028,1.848-4.942,4.303
		C1.231,30.505,4.442,32.334,8.282,33.125z M7.147,20.929c0.004-3.724,9.844-7.712,24.491-7.712c14.647,0,24.486,3.987,24.491,7.711
		c0,0.001,0,0.002,0,0.003c0,0.965-0.666,1.948-1.9,2.875c-0.097,0.073-0.194,0.146-0.298,0.218
		c-3.68,2.551-11.738,4.622-22.293,4.622c-14.65,0-24.491-3.989-24.491-7.714C7.146,20.93,7.147,20.93,7.147,20.929z M59.591,28.675
		c-0.05,0.963-1.556,1.615-3.593,2.019c0.462-1.352,0.793-2.769,0.989-4.241C58.91,26.812,59.657,27.414,59.591,28.675z
		 M6.284,26.408c0.195,1.488,0.528,2.92,0.994,4.285c-1.775-0.404-3.002-1.056-3.052-2.018C4.157,27.359,4.45,26.76,6.284,26.408z"
		/>
	<path d="M31.972,26.522c7.607,0,21.993-1.232,21.993-5.897c0-0.721-0.369-1.382-1.028-1.982
		c-3.017-2.749-12.214-4.212-20.965-4.212c-7.887,0-16.136,1.189-19.898,3.436c-1.323,0.791-2.096,1.711-2.096,2.758
		C9.978,25.29,24.364,26.522,31.972,26.522z M47.409,22.917l0.075-4.674c2.875,0.813,4.481,1.732,4.481,2.383
		C51.965,21.246,50.393,22.14,47.409,22.917z M23.589,24.118c-1.616-0.166-3.06-0.376-4.349-0.611l0.095-5.944
		c1.3-0.258,2.741-0.491,4.336-0.675L23.589,24.118z M26.675,16.618c1.371-0.096,2.82-0.156,4.345-0.174l-0.089,8.065
		c-1.536-0.017-2.985-0.069-4.344-0.152L26.675,16.618z M37.362,24.357c-1.088,0.067-2.227,0.116-3.43,0.141l0.088-8.038
		c1.198,0.031,2.337,0.092,3.435,0.172L37.362,24.357z M40.452,16.911c1.477,0.175,2.822,0.39,4.042,0.629l-0.096,6.022
		c-1.209,0.212-2.549,0.402-4.033,0.555L40.452,16.911z M16.323,18.279l-0.073,4.564c-2.802-0.759-4.273-1.616-4.273-2.217
		C11.978,19.984,13.531,19.083,16.323,18.279z"/>
</g>
</svg>
