<?xml version="1.0" encoding="iso-8859-1"?>
<!-- Generator: Adobe Illustrator 17.0.0, SVG Export Plug-In . SVG Version: 6.00 Build 0)  -->
<!DOCTYPE svg PUBLIC "-//W3C//DTD SVG 1.1//EN" "http://www.w3.org/Graphics/SVG/1.1/DTD/svg11.dtd">
<svg version="1.1" id="Capa_1" xmlns="http://www.w3.org/2000/svg" xmlns:xlink="http://www.w3.org/1999/xlink" x="0px" y="0px"
	 width="64px" height="64px" viewBox="0 0 64 64" style="enable-background:new 0 0 64 64;" xml:space="preserve">
<g>
	<path d="M5.895,23.462v22.497C5.895,54.818,13.077,62,21.937,62h14.739c7.776,0,14.256-5.533,15.726-12.876h6.749
		c1.105,0,2-0.895,2-2V25.041c0-1.105-0.895-2-2-2h-6.434v-0.778c0-0.401-0.031-0.795-0.06-1.188c-0.9,0.473-1.897,0.785-2.955,0.89
		c0.002,0.1,0.015,0.198,0.015,0.298v2.48c-0.015,0.098-0.03,0.196-0.03,0.298v0.202c0,0.102,0.015,0.2,0.03,0.298v20.418
		C49.718,53.15,43.867,59,36.676,59H21.937c-7.191,0-13.042-5.85-13.042-13.042V24.495C7.833,24.297,6.826,23.945,5.895,23.462z
		 M55.115,27.243c1.105,0,2,0.895,2,2v13.679c0,1.105-0.895,2-2,2h-2.398V27.243H55.115z"/>
	<path d="M23.507,57.529h11.599c6.972,0,12.624-5.652,12.624-12.624V25.317c0-0.974-0.121-1.918-0.33-2.829
		c-0.816,0.193-1.652,0.302-2.505,0.302c-3.011,0-5.85-1.229-7.903-3.396c-2.462,1.016-5.405,0.719-7.608-0.756
		c-2.762,2.053-6.453,2.69-9.75,1.648c-2.051,2.765-5.253,4.395-8.719,4.401c-0.01,0.21-0.032,0.418-0.032,0.631v19.587
		C10.883,51.877,16.535,57.529,23.507,57.529z M39.491,26.957c0.001,0,0.002,0,0.003,0c1.38,0,2.498,1.118,2.5,2.497l0.021,18.667
		c0.002,1.381-1.116,2.501-2.497,2.503c-0.001,0-0.002,0-0.003,0c-1.38,0-2.498-1.118-2.5-2.497L36.994,29.46
		C36.992,28.079,38.11,26.958,39.491,26.957z M29.491,26.957c0.001,0,0.002,0,0.003,0c1.38,0,2.498,1.118,2.5,2.497l0.021,18.667
		c0.002,1.381-1.116,2.501-2.497,2.503c-0.001,0-0.002,0-0.003,0c-1.38,0-2.498-1.118-2.5-2.497L26.994,29.46
		C26.992,28.079,28.11,26.958,29.491,26.957z M19.491,26.957c0.001,0,0.002,0,0.003,0c1.38,0,2.498,1.118,2.5,2.497l0.021,18.667
		c0.002,1.381-1.116,2.501-2.497,2.503c-0.001,0-0.002,0-0.003,0c-1.38,0-2.498-1.118-2.5-2.497L16.994,29.46
		C16.992,28.079,18.11,26.958,19.491,26.957z"/>
	<path d="M5.95,21.181c0.882,0.593,1.879,1.025,2.945,1.271c0.644,0.149,1.312,0.235,2,0.235c0.091,0,0.18-0.014,0.27-0.017
		c2.948-0.089,5.638-1.607,7.236-4.12l0.443-0.699l0.77,0.306c3.063,1.217,6.621,0.6,9.092-1.539l0.641-0.554l0.651,0.54
		c1.873,1.552,4.629,1.829,6.775,0.683l0.724-0.387l0.521,0.635c1.698,2.068,4.205,3.255,6.878,3.255
		c0.648,0,1.284-0.074,1.907-0.21c0.537-0.118,1.064-0.28,1.575-0.498l0.198-0.085l0.321,0.01h0.001
		c0.205,0,0.407-0.011,0.607-0.031c1.055-0.104,2.031-0.48,2.86-1.053c1.596-1.104,2.645-2.945,2.645-5.028
		c0-1.375-0.452-2.678-1.307-3.767l-0.133-0.169l-0.052-0.208C52.532,5.776,48.987,3,44.896,3c-2.672,0-5.179,1.187-6.878,3.255
		L37.99,6.288L37.497,6.89l-0.724-0.387c-0.197-0.105-0.4-0.198-0.605-0.28c-1.337-0.538-2.833-0.592-4.253-0.105l-0.307,0.105
		l-0.492,0.169l-0.092-0.169l-0.312-0.573C29.395,3.228,26.765,2,22.896,2c-3.761,0-6.146,0.997-7.507,3.138l-0.444,0.699
		l-0.77-0.306c-1.056-0.42-2.159-0.633-3.279-0.633C5.99,4.897,2,8.887,2,13.792C2,16.868,3.57,19.583,5.95,21.181z"/>
</g>
</svg>
