<?xml version="1.0" encoding="iso-8859-1"?>
<!-- Generator: Adobe Illustrator 17.0.0, SVG Export Plug-In . SVG Version: 6.00 Build 0)  -->
<!DOCTYPE svg PUBLIC "-//W3C//DTD SVG 1.1//EN" "http://www.w3.org/Graphics/SVG/1.1/DTD/svg11.dtd">
<svg version="1.1" id="Capa_1" xmlns="http://www.w3.org/2000/svg" xmlns:xlink="http://www.w3.org/1999/xlink" x="0px" y="0px"
	 width="64px" height="64px" viewBox="0 0 64 64" style="enable-background:new 0 0 64 64;" xml:space="preserve">
<g>
	<path d="M4.973,33.218c-0.072,0.082-0.143,0.169-0.212,0.268l-0.19,0.275l0.013,0.334c0.169,4.381,1.311,8.539,3.395,12.358
		c4.94,9.058,14.412,14.684,24.72,14.684c15.518,0,28.142-12.624,28.142-28.142c0-4.433-1.008-8.683-2.97-12.575
		c-0.975-2.289,0.001-6.279,0.476-7.677c0.042-0.149,0.412-1.49,0.412-2.334c0-3.702-2.948-6.676-6.857-6.918
		c-2.42-0.144-4.165,0.874-5.325,2.32c-2.031-0.758-3.836-0.046-4.828,0.346c-0.165,0.065-0.35,0.149-0.55,0.242
		c-1.255,0.582-1.916,0.742-2.524,0.154c-2.093-2.016-4.733-2.628-7.245-1.687c-1.28,0.481-1.812,1.49-2.198,2.227
		c-0.125,0.236-0.312,0.594-0.397,0.65c-0.025,0.006-0.496,0.082-2.263-1.255c-1.868-1.413-3.639-1.939-5.256-1.574
		c-1.516,0.345-2.442,1.391-2.868,1.993c-0.548,0.11-1.037,0.218-1.441,0.311c-1.94,0.447-2.055,0.474-3.97-1.092
		C11.553,4.913,9.81,4.97,8.483,6.27c-1.332,1.306-1.992,3.811-0.808,5.318l0.287,0.363c1.408,1.771,2.237,2.948,1.565,4.739
		c-0.26,0.694-0.743,1.591-1.255,2.54c-1.282,2.378-2.72,5.044-2.28,7.242C4.821,27.898,3.589,30.561,4.973,33.218z M51.777,5.488
		c2.839,0.176,4.98,2.292,4.98,4.922c0,0.43-0.207,1.328-0.321,1.739c-0.077,0.227-1.883,5.59-0.38,9.112
		c1.847,3.669,2.783,7.617,2.783,11.734c0,14.414-11.728,26.142-26.142,26.142c-9.575,0-18.374-5.227-22.964-13.641
		c-1.87-3.429-2.924-7.151-3.134-11.072c0.016-0.007,0.03-0.012,0.045-0.012c0.312,0,0.944,0.556,1.32,1.064
		c0.188,0.32,0.727,1.082,1.583,1.082c1.714,0,1.953-2.728,2.067-4.039c0.253-2.885,1.601-3.432,4.001-3.432
		c0.308,0,0.612,0.009,0.906,0.017s0.578,0.016,0.848,0.016c0.835,0,1.646,0.256,2.432,0.503c0.781,0.245,1.589,0.499,2.418,0.499
		c0.744,0,1.404-0.198,2.018-0.607c1.368-0.911,1.219-3.032,1.062-5.277c-0.106-1.512-0.267-3.795,0.432-4.181
		c0.393-0.217,0.847-0.323,1.39-0.323c1.278,0,2.75,0.599,3.933,1.079c0.501,0.203,0.956,0.387,1.341,0.51
		c1.414,0.45,3.167-0.016,4.228-1.112c0.676-0.698,1.031-1.589,1-2.508c-0.075-2.29,0.075-4.695,1.771-5.172
		c0.712-0.201,1.558-0.055,2.348,0.116c0.516,0.112,1.049,0.229,1.587,0.229c1.242,0,2.18-0.626,2.865-1.911
		c0.13-0.243,0.253-0.463,0.37-0.665l0.216-0.011l0.184-0.769C47.196,8.539,48.239,5.275,51.777,5.488z M44.088,10.532
		c-0.302,0.342-0.559,0.344-0.76,0.344c-0.323,0-0.73-0.089-1.161-0.183c-0.452-0.098-0.972-0.188-1.509-0.228
		C42.561,9.557,43.598,10.063,44.088,10.532z M35.624,17.77c0.016,0.478-0.23,0.835-0.439,1.052c-0.526,0.543-1.425,0.8-2.119,0.605
		c-0.225-0.966-1.016-2.562-3.625-3.658c1.113-0.395,1.781-1.58,1.979-3.535c0.135-1.334,0.49-2.241,0.952-2.427
		c0.506-0.206,1.396,0.312,1.792,0.624c0.319,0.381,1.242,1.233,3.015,1.137C35.479,13.238,35.575,16.292,35.624,17.77z
		 M45.515,7.585c-0.173,0.396-0.315,0.8-0.425,1.204c-0.156-0.117-0.324-0.232-0.518-0.335c-0.482-0.258-1.133-0.476-1.951-0.489
		C43.356,7.673,44.373,7.301,45.515,7.585z M31,8.025c0.351-0.666,0.602-1.086,1.132-1.284c2.41-0.908,4.265,0.397,5.154,1.254
		c0.641,0.617,1.322,0.87,1.979,0.92c-2.702,1.306-3.522,0.292-3.537,0.28L35.534,8.97c-0.21-0.181-2.1-1.738-3.901-1.022
		c-0.404,0.161-0.75,0.426-1.047,0.773C30.743,8.489,30.882,8.25,31,8.025z M21.758,6.866c1.016-0.228,2.229,0.179,3.605,1.22
		c1.521,1.15,2.564,1.662,3.438,1.662c0.16,0,0.315-0.017,0.466-0.051c0.466-0.104,0.802-0.349,1.068-0.644
		c-0.47,0.711-0.777,1.7-0.907,2.979c-0.136,1.342-0.48,1.8-0.663,1.858c-0.494,0.16-1.761-0.737-2.566-1.646l-0.082-0.082
		c-0.154-0.139-1.553-1.34-3.309-1.07c-0.298,0.047-0.581,0.138-0.853,0.262c0.148-0.295,0.287-0.492,0.29-0.495l0.112-0.19
		c0.085-0.189,0.806-1.889-0.128-3.076c-0.215-0.273-0.508-0.46-0.835-0.608C21.51,6.939,21.629,6.896,21.758,6.866z M26.132,14.881
		c-0.272-0.043-0.532-0.09-0.825-0.124c-1.494-0.174-2.586-0.538-3.179-1.046c0.307-0.363,0.635-0.583,0.983-0.64
		c0.658-0.113,1.379,0.342,1.639,0.555C24.97,13.87,25.479,14.396,26.132,14.881z M7.812,27.438l0.462-0.462l-0.237-0.608
		c-0.562-1.441,0.856-4.073,1.997-6.188c0.544-1.011,1.059-1.966,1.367-2.787c1.103-2.941-0.478-4.931-1.872-6.686l-0.281-0.355
		C8.81,9.794,9.137,8.43,9.884,7.697c0.596-0.583,1.192-0.588,1.886-0.021c2.559,2.093,3.348,2.032,5.686,1.493
		c0.487-0.112,1.066-0.247,1.784-0.38c0.986-0.186,1.363-0.028,1.418,0.04c0.094,0.118,0.043,0.587-0.094,0.947
		c-0.329,0.485-1.469,2.373-0.689,4.186c0.653,1.521,2.403,2.456,5.202,2.781c2.318,0.269,3.807,0.844,4.734,1.472
		c-0.862-0.274-1.775-0.481-2.689-0.481c-0.878,0-1.671,0.193-2.357,0.573c-1.814,1.002-1.634,3.579-1.459,6.07
		c0.073,1.041,0.226,3.206-0.176,3.474c-0.709,0.471-1.618,0.213-2.726-0.136c-0.886-0.278-1.891-0.595-3.032-0.595
		c-0.252,0-0.519-0.008-0.793-0.015c-0.312-0.009-0.635-0.018-0.961-0.018c-1.514,0-5.533,0-5.993,5.258
		c-0.069,0.796-0.16,1.335-0.243,1.694c-0.454-0.55-1.413-1.517-2.562-1.61C5.405,29.933,7.71,27.542,7.812,27.438z"/>
	<path d="M51.783,44.985c1.694-4.064,2.133-9.147,0.617-13.19c-0.64-1.708-2.829-0.386-2.187,1.326
		c1.275,3.401,0.769,7.517-0.644,10.904C48.842,45.77,51.064,46.711,51.783,44.985z"/>
	<path d="M25.646,50.952c-4.32-2.11-6.671-6.782-7.676-11.659c-0.387-1.88-3.038-1.611-2.647,0.288
		c1.215,5.899,4.095,11.514,9.32,14.067C26.259,54.437,27.259,51.74,25.646,50.952z"/>
	<path d="M37.541,35.836c0.965,4.699,0.827,9.352-0.078,13.981c-0.366,1.871,1.978,2.519,2.34,0.662
		c1.01-5.169,1.058-10.345-0.015-15.573C39.402,33.024,37.157,33.965,37.541,35.836z"/>
</g>
</svg>
