<?xml version="1.0" encoding="iso-8859-1"?>
<!-- Generator: Adobe Illustrator 17.0.0, SVG Export Plug-In . SVG Version: 6.00 Build 0)  -->
<!DOCTYPE svg PUBLIC "-//W3C//DTD SVG 1.1//EN" "http://www.w3.org/Graphics/SVG/1.1/DTD/svg11.dtd">
<svg version="1.1" id="Capa_1" xmlns="http://www.w3.org/2000/svg" xmlns:xlink="http://www.w3.org/1999/xlink" x="0px" y="0px"
	 width="64px" height="64px" viewBox="0 0 64 64" style="enable-background:new 0 0 64 64;" xml:space="preserve">
<g>
	<path d="M17.785,20.643c-3.098-1.305-6.341-2.005-9.75-1.743c-2.037,0.157-2.052,3.346,0,3.189c3.15-0.242,6.109,0.392,8.957,1.678
		c0.74-1.318,1.568-2.407,2.245-3.083c0.776-0.776,1.904-1.696,3.216-2.537c-0.109-0.228-0.267-0.444-0.505-0.624
		c-5.188-3.919-7.853-9.758-10.411-15.548c-0.829-1.878-3.576-0.253-2.753,1.609c1.251,2.832,2.541,5.579,4.082,8.137
		C10.952,9.547,9.205,7.223,7.64,4.809C6.527,3.091,3.765,4.687,4.887,6.418C8.384,11.814,12.661,16.745,17.785,20.643z"/>
	<path d="M17.935,24.134c-1.053,1.851-1.907,4.172-1.845,6.337c0.054,1.862,0.767,3.417,2.119,4.62l1.567,1.139
		c0.29-3.338,1.193-6.498,3.607-9.246c1.359-1.548,3.606,0.716,2.255,2.255c-2.302,2.621-2.788,5.886-2.818,9.203l3.531,2.566
		c0.429-2.746,1.386-5.342,3.411-7.647c1.359-1.548,3.606,0.716,2.255,2.255c-1.908,2.172-2.566,4.788-2.754,7.508l3.766,2.737
		c0.526-2.182,1.465-4.249,3.111-6.123c1.359-1.548,3.606,0.716,2.255,2.255c-1.527,1.739-2.251,3.762-2.578,5.895l17.507,12.725
		c1.099,0.975,2.264,1.473,3.408,1.473c1.481,0,2.781-0.831,3.394-2.169c0.71-1.553,0.323-3.362-1.061-4.962L33.648,18.48
		c-1.046-1.204-2.438-1.836-4.106-1.836c-2.464,0-5.049,1.314-6.975,2.628c-1.184,0.808-2.12,1.616-2.623,2.118
		C19.31,22.025,18.585,22.991,17.935,24.134z"/>
</g>
</svg>
