<?xml version="1.0" encoding="iso-8859-1"?>
<!-- Generator: Adobe Illustrator 17.0.0, SVG Export Plug-In . SVG Version: 6.00 Build 0)  -->
<!DOCTYPE svg PUBLIC "-//W3C//DTD SVG 1.1//EN" "http://www.w3.org/Graphics/SVG/1.1/DTD/svg11.dtd">
<svg version="1.1" id="Capa_1" xmlns="http://www.w3.org/2000/svg" xmlns:xlink="http://www.w3.org/1999/xlink" x="0px" y="0px"
	 width="64px" height="64px" viewBox="0 0 64 64" style="enable-background:new 0 0 64 64;" xml:space="preserve">
<g>
	<path d="M26.813,39.256c-2.074,0.264-3.668,1.151-4.864,2.703c-3.498,4.54-2.124,13.087-2.11,13.173l0.509,3.057
		C23.154,61.147,27.112,63,31.51,63c5.494,0,10.303-2.886,13.029-7.215l-0.138-1.618l-0.754-8.811
		C34.302,44.309,28.216,40.271,26.813,39.256z M23.956,48.836c0-1.121,0.909-2.03,2.03-2.03c1.121,0,2.03,0.909,2.03,2.03
		c0,1.121-0.909,2.03-2.03,2.03C24.865,50.866,23.956,49.957,23.956,48.836z M36.7,55.862c-3.247,2.047-7.143,2.061-10.301-0.156
		c-1.126-0.79,0.292-2.382,1.402-1.603c2.35,1.649,5.338,1.486,7.71-0.009C36.673,53.363,37.861,55.13,36.7,55.862z M36.693,50.866
		c-1.121,0-2.03-0.909-2.03-2.03c0-1.121,0.909-2.03,2.03-2.03c1.121,0,2.03,0.909,2.03,2.03
		C38.724,49.957,37.815,50.866,36.693,50.866z"/>
	<path d="M7.498,11.972c0,2.43,3.099,4.482,7.319,5.124l2.665,12.042v6.284c-0.569,0.815-1.253,1.976-1.791,3.464
		c-0.616,1.701-1.033,3.818-0.86,6.294c0.107,1.526,0.442,3.189,1.094,4.975c0.596,1.633,1.449,3.364,2.651,5.192
		c0,0-2.755-17.077,8.359-18.151c0,0,6.826,5.578,17.94,6.652l0.842,10.225c0,0,0.491-0.846,1.019-2.316
		c0.656-1.83,1.365-4.631,1.252-7.991c-0.056-1.685-0.323-3.51-0.905-5.423c-0.384-1.265-0.915-2.569-1.607-3.896v-5.309
		l2.67-12.066c4.133-0.67,7.146-2.703,7.146-5.1c0-2.412-3.007-4.465-7.239-5.118C45.452,3.358,38.882,1,31.395,1
		S17.339,3.358,14.738,6.854C10.505,7.507,7.498,9.561,7.498,11.972z M41.775,30.486h0.866v0.047v0.392v4v0.103H20.15v-3.492v-1.05
		h2.767H41.775z M16.803,8.428c1.567-3.244,7.498-5.66,14.593-5.66c7.095,0,13.026,2.416,14.593,5.66
		c3.638,0.197,6.469,1.708,6.469,3.544c0,1.849-2.869,3.369-6.544,3.549l-3.091,12.67H20.135l-2.9-12.662
		c-3.844-0.096-6.902-1.65-6.902-3.558C10.333,10.136,13.164,8.625,16.803,8.428z"/>
	<path d="M23.811,24.027l0.016,0.077c0.06,0.297,0.458,0.513,0.915,0.513c0.04,0,0.08-0.002,0.121-0.005
		c0.465-0.039,0.787-0.293,0.788-0.584c0-0.026,0.014-0.05,0.008-0.076l-1.146-5.582l-0.415-2.023l-0.086-0.421l-0.016-0.076
		c-0.066-0.323-0.529-0.552-1.036-0.508c-0.335,0.028-0.59,0.171-0.715,0.355c-0.049,0.072-0.073,0.148-0.073,0.229
		c0,0.026-0.014,0.05-0.008,0.077l0.376,1.831L23.811,24.027z"/>
	<path d="M39.442,24.612c0.041,0.003,0.081,0.005,0.121,0.005c0.458,0,0.855-0.216,0.915-0.513l0.016-0.077l1.279-6.229l0.369-1.797
		c0.005-0.027-0.008-0.051-0.008-0.077c0-0.093-0.034-0.178-0.096-0.258c-0.133-0.169-0.376-0.3-0.692-0.326
		c-0.511-0.045-0.97,0.185-1.036,0.508l-0.016,0.076l-0.08,0.389l-0.418,2.033l-1.151,5.603c-0.005,0.026,0.008,0.051,0.008,0.076
		C38.655,24.318,38.977,24.573,39.442,24.612z"/>
	<path d="M31.34,24.027c0.143,0.058,0.302,0.1,0.484,0.1c0.182,0,0.341-0.042,0.484-0.1c0.259-0.104,0.44-0.28,0.44-0.49v-4.419
		v-1.771v-1.422v-1.103c0-0.326-0.413-0.589-0.924-0.589c-0.511,0-0.924,0.264-0.924,0.589v1.103v1.426v1.771v4.416
		C30.9,23.748,31.082,23.923,31.34,24.027z"/>
</g>
</svg>
