<?xml version="1.0" encoding="iso-8859-1"?>
<!-- Generator: Adobe Illustrator 17.0.0, SVG Export Plug-In . SVG Version: 6.00 Build 0)  -->
<!DOCTYPE svg PUBLIC "-//W3C//DTD SVG 1.1//EN" "http://www.w3.org/Graphics/SVG/1.1/DTD/svg11.dtd">
<svg version="1.1" id="Capa_1" xmlns="http://www.w3.org/2000/svg" xmlns:xlink="http://www.w3.org/1999/xlink" x="0px" y="0px"
	 width="64px" height="64px" viewBox="0 0 64 64" style="enable-background:new 0 0 64 64;" xml:space="preserve">
<g>
	<path d="M24.303,44.467c0.116,0.051,0.249,0.094,0.396,0.128c7.777,1.813,11.638,2.979,13.548,3.703
		c1.134,0.43,2.564,0.404,3.461-0.412l5.798-5.272c0.897-0.816,0.882-2.137,0.188-3.132c-2.347-3.365-2.852-8.044-2.93-10.761
		c-0.006-0.193-0.034-0.356-0.072-0.505c0.521-5.411-0.969-11.338-4.598-16.494C32.854,1.432,19.848-1.889,11.045,4.305
		C2.242,10.499,0.976,23.862,8.217,34.153C12.329,39.996,18.299,43.584,24.303,44.467z M24.886,6.11
		c9.464,3.111,13.151,11.258,15.214,20.369c0.712,3.146-4.172,4.217-4.884,1.073c-1.654-7.305-4.154-14.147-11.868-16.683
		C20.288,9.863,21.815,5.101,24.886,6.11z"/>
	<path d="M54.874,45.372c-1.199,0.01-2.338,0.348-3.326,0.974l-2.005-1.973l-6.504,6.613l1.923,1.893
		c-0.723,1.057-1.113,2.309-1.103,3.61c0.029,3.516,2.913,6.353,6.429,6.324c2.954-0.024,5.191-2.571,5.872-5.335
		c2.817-0.679,5.167-2.764,5.142-5.782C61.274,48.18,58.39,45.343,54.874,45.372z M54.945,54.83l-1.882-0.455l0.249,2.088
		c-0.014,1.672-1.382,3.043-3.049,3.056c-1.7,0.014-3.094-1.358-3.108-3.057c-0.008-0.914,0.406-1.783,1.135-2.387l1.405-1.163
		l-1.997-1.964l1.884-1.917l1.93,1.899l1.153-1.257c0.59-0.643,1.385-1.001,2.237-1.008c1.699-0.014,3.094,1.358,3.108,3.057
		C58.023,53.423,56.652,54.816,54.945,54.83z"/>
</g>
</svg>
