<?xml version="1.0" encoding="iso-8859-1"?>
<!-- Generator: Adobe Illustrator 17.0.0, SVG Export Plug-In . SVG Version: 6.00 Build 0)  -->
<!DOCTYPE svg PUBLIC "-//W3C//DTD SVG 1.1//EN" "http://www.w3.org/Graphics/SVG/1.1/DTD/svg11.dtd">
<svg version="1.1" id="Capa_1" xmlns="http://www.w3.org/2000/svg" xmlns:xlink="http://www.w3.org/1999/xlink" x="0px" y="0px"
	 width="64px" height="64px" viewBox="0 0 64 64" style="enable-background:new 0 0 64 64;" xml:space="preserve">
<g>
	<path d="M32,49.333c15.832,0,28.667-7.76,28.667-17.333S47.832,14.667,32,14.667S3.333,22.427,3.333,32S16.168,49.333,32,49.333z
		 M22.645,37.443l-2.75,2.321C19.708,39.922,19.479,40,19.25,40c-0.284,0-0.567-0.121-0.765-0.355
		c-0.356-0.422-0.303-1.053,0.119-1.409l2.75-2.321c0.421-0.355,1.053-0.303,1.409,0.119C23.121,36.456,23.067,37.086,22.645,37.443
		z M52.355,28.915c0.421-0.356,1.053-0.303,1.409,0.119c0.356,0.422,0.303,1.053-0.119,1.409l-2.75,2.321
		C50.708,32.922,50.479,33,50.25,33c-0.284,0-0.567-0.121-0.765-0.355c-0.356-0.422-0.303-1.053,0.119-1.409L52.355,28.915z
		 M44.086,20.66c0.232-0.501,0.827-0.72,1.328-0.485l3.264,1.517c0.501,0.232,0.718,0.827,0.485,1.328
		c-0.169,0.365-0.53,0.579-0.907,0.579c-0.141,0-0.285-0.03-0.421-0.093l-3.264-1.517C44.071,21.755,43.854,21.161,44.086,20.66z
		 M43.764,36.034c0.356,0.422,0.303,1.053-0.119,1.409l-2.75,2.321C40.708,39.922,40.479,40,40.25,40
		c-0.284,0-0.567-0.121-0.765-0.355c-0.356-0.422-0.303-1.053,0.119-1.409l2.75-2.321C42.776,35.56,43.408,35.611,43.764,36.034z
		 M30.987,16.903c0.185-0.52,0.755-0.792,1.277-0.608l3.392,1.203c0.521,0.185,0.792,0.756,0.608,1.277
		c-0.146,0.41-0.531,0.666-0.942,0.666c-0.111,0-0.224-0.019-0.334-0.058l-3.392-1.203C31.074,17.996,30.802,17.424,30.987,16.903z
		 M23.761,25.874c0,0.785,0.377,1.531,1.032,2.184c0.557-0.909,1.756-1.789,4.194-2.184c0.848-0.137,1.838-0.219,3.013-0.219
		s2.165,0.082,3.013,0.219c2.438,0.395,3.637,1.275,4.194,2.184c0.655-0.654,1.032-1.4,1.032-2.184c0-0.552,0.448-1,1-1s1,0.448,1,1
		c0,3.693-4.498,6.586-10.239,6.586s-10.239-2.893-10.239-6.586c0-0.552,0.448-1,1-1S23.761,25.321,23.761,25.874z M18.573,19.679
		l3.272-1.497c0.501-0.231,1.095-0.008,1.325,0.493c0.23,0.502,0.009,1.096-0.493,1.325l-3.272,1.497
		c-0.135,0.062-0.276,0.091-0.416,0.091c-0.379,0-0.742-0.217-0.91-0.584C17.85,20.501,18.071,19.908,18.573,19.679z M9.605,31.236
		l2.75-2.321c0.422-0.356,1.053-0.303,1.409,0.119c0.356,0.422,0.303,1.053-0.119,1.409l-2.75,2.321
		C10.708,32.922,10.479,33,10.25,33c-0.284,0-0.567-0.121-0.765-0.355C9.129,32.223,9.183,31.592,9.605,31.236z"/>
</g>
</svg>
