<?xml version="1.0" encoding="iso-8859-1"?>
<!-- Generator: Adobe Illustrator 17.0.0, SVG Export Plug-In . SVG Version: 6.00 Build 0)  -->
<!DOCTYPE svg PUBLIC "-//W3C//DTD SVG 1.1//EN" "http://www.w3.org/Graphics/SVG/1.1/DTD/svg11.dtd">
<svg version="1.1" id="Capa_1" xmlns="http://www.w3.org/2000/svg" xmlns:xlink="http://www.w3.org/1999/xlink" x="0px" y="0px"
	 width="64px" height="64px" viewBox="0 0 64 64" style="enable-background:new 0 0 64 64;" xml:space="preserve">
<g>
	<path d="M45.038,3.469c-1.528,3.071-3.173,6.068-4.83,9.057H2.966l26.4,28.489v14.932H19.5V59.5h9.866h5.601h10.366v-3.554H34.967
		V41.014l26.4-28.488H43.697c1.351-2.449,2.682-4.91,3.932-7.423C48.543,3.264,45.953,1.629,45.038,3.469z M33.882,37.771
		l-1.715,1.851l-1.715-1.851L9.836,15.525h28.713c-0.519,0.937-1.038,1.874-1.55,2.816H15.833l16.333,17.625L48.5,18.341h-8.026
		c0.518-0.94,1.04-1.878,1.562-2.816h12.462L33.882,37.771z"/>
</g>
</svg>
