<?xml version="1.0" encoding="iso-8859-1"?>
<!-- Generator: Adobe Illustrator 17.0.0, SVG Export Plug-In . SVG Version: 6.00 Build 0)  -->
<!DOCTYPE svg PUBLIC "-//W3C//DTD SVG 1.1//EN" "http://www.w3.org/Graphics/SVG/1.1/DTD/svg11.dtd">
<svg version="1.1" id="Capa_1" xmlns="http://www.w3.org/2000/svg" xmlns:xlink="http://www.w3.org/1999/xlink" x="0px" y="0px"
	 width="64px" height="64px" viewBox="0 0 64 64" style="enable-background:new 0 0 64 64;" xml:space="preserve">
<g>
	<path d="M20.724,51.311h19.72c0.494,0,0.843-0.397,0.779-0.887l-1.558-11.029c-0.064-0.49-0.516-0.887-1.011-0.887H25.579
		c0.056,0.149,0.083,0.322,0.07,0.52c-0.16,2.445-1.317,6.702,1.27,8.228c1.402,0.827,0.131,3.012-1.276,2.182
		c-3.717-2.193-2.757-6.805-2.521-10.41c0.013-0.197,0.063-0.37,0.139-0.52h-0.748c-0.494,0-0.947,0.397-1.011,0.887l-1.558,11.029
		C19.881,50.914,20.23,51.311,20.724,51.311z"/>
	<path d="M8.568,48.004c0.339,1.797,4.343,1.313,4.366-0.42c0.048-3.665,1.442-8.51,4.92-10.257
		c0.294-0.123,0.596-0.228,0.902-0.324c-0.009,0.041-0.034,0.077-0.04,0.119l-2.2,15.576c-0.09,0.692,0.402,1.253,1.1,1.253h25.935
		c0.698,0,1.19-0.561,1.1-1.253l-2.2-15.576c-0.09-0.692-0.729-1.253-1.427-1.253h-1.91v-1.87h0.67c1.034,0,1.978-0.725,2.244-1.724
		l0.469-1.759l0.503-1.886h-1.952H20.121h-1.952l0.503,1.886l0.469,1.759c0.131,0.492,0.428,0.916,0.817,1.221
		c-0.137,0.019-0.277,0.026-0.412,0.048c-1.128,0.114-2.182,0.445-3.153,0.95C11.357,36.744,7.448,42.067,8.568,48.004z
		 M40.971,37.369l2.13,15.082H18.066l2.13-15.082H40.971z M41.047,30.13l-0.469,1.759c-0.09,0.337-0.446,0.61-0.795,0.61H21.385
		c-0.349,0-0.705-0.273-0.795-0.61l-0.469-1.759H41.047z"/>
	<path d="M9.928,11.9c0,8.685,7.065,15.75,15.75,15.75h9.551c8.685,0,15.75-7.065,15.75-15.75V9.875h-0.75h-0.75H11.428h-0.75h-0.75
		V11.9z"/>
	<polygon points="11.428,6.875 49.479,6.875 50.228,6.875 50.979,6.875 50.979,1.6 9.928,1.6 9.928,6.875 10.677,6.875 	"/>
	<path d="M13.741,55.352c-0.869,0-1.574,1.152-1.574,2.574c0,1.422,0.705,2.574,1.574,2.574h31.852c0.869,0,1.574-1.152,1.574-2.574
		c0-1.422-0.705-2.574-1.574-2.574H13.741z"/>
</g>
</svg>
