<?xml version="1.0" encoding="iso-8859-1"?>
<!-- Generator: Adobe Illustrator 17.0.0, SVG Export Plug-In . SVG Version: 6.00 Build 0)  -->
<!DOCTYPE svg PUBLIC "-//W3C//DTD SVG 1.1//EN" "http://www.w3.org/Graphics/SVG/1.1/DTD/svg11.dtd">
<svg version="1.1" id="Capa_1" xmlns="http://www.w3.org/2000/svg" xmlns:xlink="http://www.w3.org/1999/xlink" x="0px" y="0px"
	 width="64px" height="64px" viewBox="0 0 64 64" style="enable-background:new 0 0 64 64;" xml:space="preserve">
<g>
	<path d="M49,10.535v0.499v9.676v0.499c2.935-0.167,2.944-2.905,2.944-5.337C51.944,13.44,51.935,10.702,49,10.535z"/>
	<path d="M32.446,35.948c-3.196,0.611-4.625,2.416-4.625,4.549c0,2.506,1.975,4.556,6.466,4.752
		c1.475,2.773,4.114,4.717,8.844,4.717C53.842,49.966,53.842,40,53.842,33H32.419C32.419,33.939,32.42,34.933,32.446,35.948z
		 M46.554,45.342c1.805-2.666,2.466-5.709,2.459-8.896c-0.003-1.501,2.324-1.501,2.327,0c0.007,3.566-0.758,7.088-2.777,10.071
		C47.727,47.752,45.71,46.589,46.554,45.342z M30.576,40.547c-0.021-1.157,0.225-2.06,1.967-2.514
		c0.124,1.746,0.374,3.493,0.873,5.093C30.897,42.797,30.6,41.885,30.576,40.547z"/>
	<path d="M21,60h35.527C58.133,60,59,58.355,59,56.806v0v-2.265c0-1.71-0.994-3.54-2.472-3.541c0,0,0,0,0,0H23.747h0
		c-1.16,0-2.099-0.315-2.747-0.882V60z"/>
	<path d="M37.37,6H6.756h0C5.159,6,4,7.158,4,8.752v48.054C4,58.349,5.107,60,6.756,60H20V47.744v0V35v-2.46v0l0-0.001
		c0-2.084,1.541-3.539,3.747-3.539H37.37c1.624,0,2.63-1.69,2.63-3.256c0,0,0,0,0,0V24v-1V9V8.753c0,0,0,0,0,0
		C40,8.484,39.963,8.237,39.909,8C39.633,6.781,38.687,6,37.37,6z M17.831,18.33c-0.056,0-0.113-0.004-0.17-0.015l-0.786-0.135
		c-0.678,1.498-2.178,2.544-3.929,2.544c-2.385,0-4.319-1.933-4.319-4.318c0-2.385,1.933-4.318,4.319-4.318
		c2.32,0,4.197,1.833,4.299,4.127L18,16.344c0.544,0.093,0.91,0.61,0.816,1.155C18.732,17.986,18.309,18.33,17.831,18.33z"/>
	<polygon points="43.445,25 43.766,25 45.362,25 45.726,25 46.048,24 46.37,23 48,23 48,9 41,9 41,23 42.528,23 42.987,24 	"/>
</g>
</svg>
