<?xml version="1.0" encoding="iso-8859-1"?>
<!-- Generator: Adobe Illustrator 17.0.0, SVG Export Plug-In . SVG Version: 6.00 Build 0)  -->
<!DOCTYPE svg PUBLIC "-//W3C//DTD SVG 1.1//EN" "http://www.w3.org/Graphics/SVG/1.1/DTD/svg11.dtd">
<svg version="1.1" id="Capa_1" xmlns="http://www.w3.org/2000/svg" xmlns:xlink="http://www.w3.org/1999/xlink" x="0px" y="0px"
	 width="64px" height="64px" viewBox="0 0 64 64" style="enable-background:new 0 0 64 64;" xml:space="preserve">
<g>
	<path d="M61.75,33.375c-0.082-1.927-3.082-1.935-3,0c0.04,0.941,0.048,2.066-0.851,2.611c-0.532,0.323-1.218,0.339-1.899,0.24
		v-5.49c-1.357,0.648-3.428,1.169-6.356,1.624c-4.642,0.722-10.65,1.12-16.962,1.12c-6.331,0-12.211-0.373-16.643-1.049
		c-3.634-0.555-5.875-1.228-7.039-2.151v5.969c-0.62,0.07-1.234,0.032-1.718-0.262c-0.899-0.545-0.891-1.67-0.851-2.611
		c0.082-1.935-2.918-1.927-3,0c-0.082,1.935,0.443,4.241,2.337,5.201c1.033,0.524,2.13,0.677,3.233,0.619v9.531
		C9,54.953,14.19,60,20.592,60h24.15C51.143,60,56,54.953,56,48.727v-9.543c1.164,0.086,2.324-0.055,3.413-0.608
		C61.307,37.616,61.832,35.31,61.75,33.375z M44.698,55.429c-2.423,0.901-3.459-2.966-1.063-3.857
		C48.588,49.73,47.152,40.562,47,36.5c-0.096-2.581,3.904-2.571,4,0C51.242,42.983,52.198,52.64,44.698,55.429z"/>
	<path d="M9.307,28.357c0,0.221,0.126,0.435,0.354,0.643c1.917,1.745,11.531,2.979,22.973,2.979c11.145,0,20.999-1.276,23.366-2.977
		c0.352-0.253,0.542-0.515,0.542-0.785c0-2.915-0.009-5.31-11.127-6.241c0.596,0.359,0.905,1.008,0.888,1.618
		c-0.021,0.794-0.572,1.648-1.731,1.648l-0.125-0.004c-2.206-0.12-3.99-0.898-5.614-2.447c-0.238-0.228-0.444-0.435-0.634-0.624
		c-0.213-0.213-0.399-0.394-0.582-0.561c-1.538-0.032-3.185-0.05-4.983-0.05c-0.999,0-1.94,0.007-2.855,0.018
		c-0.251,0.227-0.505,0.47-0.776,0.735l-0.496,0.481c-1.623,1.55-3.406,2.328-5.613,2.448l-0.125,0.004
		c-1.159,0-1.71-0.854-1.731-1.648c-0.02-0.711,0.399-1.473,1.205-1.768C9.008,22.646,9.307,25.254,9.307,28.357z"/>
	<path d="M27.392,20.113c-0.129,0.124-0.258,0.248-0.384,0.371c-0.137,0.135-0.276,0.27-0.416,0.404
		c-0.286,0.272-0.584,0.536-0.907,0.776c-0.734,0.547-1.601,0.966-2.792,1.031c-0.694,0.038-0.75,0.565-0.742,0.871
		c0.005,0.156-0.142,0.658,0.81,0.673c1.979-0.11,3.453-0.779,4.911-2.172l0.459-0.473l0,0c0.272-0.266,0.536-0.518,0.803-0.761
		c0.309-0.281,0.625-0.539,0.959-0.764c0.509-0.343,1.062-0.612,1.729-0.746c0.201-0.031,0.39-0.046,0.581-0.063
		c0.095-0.009,0.197-0.026,0.29-0.031c0.112-0.006,0.219,0,0.329-0.002c0.249-0.004,0.499-0.001,0.746,0.017
		c0.284,0.02,0.571,0.053,0.864,0.1c0.173,0.027,0.351,0.061,0.531,0.096c0.048,0.009,0.093,0.016,0.141,0.026
		c0.852,0.185,1.447,0.386,1.92,0.631c0.417,0.216,0.742,0.467,1.073,0.771c0.194,0.178,0.391,0.375,0.609,0.594
		c0.055,0.055,0.126,0.124,0.185,0.182c0.137,0.136,0.269,0.27,0.432,0.425c1.461,1.394,3.21,2.064,5.192,2.172l0.252,0.444
		L45,24.743v-0.066v-0.434c0,0,0.513-0.517,0.518-0.676c0.008-0.306-0.27-0.833-0.965-0.871c-1.131-0.062-1.984-0.444-2.708-0.949
		c-0.352-0.246-0.676-0.518-0.981-0.803c-0.163-0.152-0.323-0.306-0.48-0.459c-0.108-0.106-0.237-0.211-0.351-0.319
		c-0.236-0.22-0.468-0.442-0.722-0.655c-0.928-0.776-1.952-1.255-3.071-1.477c-0.003-0.001-0.003-0.003-0.006-0.003
		c-0.005-0.001-0.01-0.001-0.015-0.002c-0.132-0.028-0.271-0.041-0.406-0.064c-0.223-0.039-0.444-0.08-0.673-0.107
		c-0.233-0.027-0.47-0.038-0.706-0.052c-0.483-0.03-0.967-0.036-1.449-0.016c-0.222,0.01-0.44,0.024-0.658,0.044
		c-0.289,0.026-0.579,0.052-0.859,0.096c-0.048,0.008-0.08,0.033-0.12,0.049c-1.209,0.196-2.296,0.699-3.293,1.533
		C27.821,19.708,27.604,19.91,27.392,20.113z"/>
	<path d="M21.268,2.209c-1.362,1.72-1.791,3.368-0.906,5.418c0.957,2.216,3.225,3.64,1.98,6.297
		c-0.692,1.477,1.502,2.771,2.198,1.285c0.928-1.98,0.966-3.772-0.011-5.735c-0.919-1.846-3.113-3.378-1.461-5.465
		C24.076,2.737,22.287,0.922,21.268,2.209z"/>
	<path d="M30.179,2.209c-1.362,1.72-1.791,3.368-0.906,5.418c0.957,2.216,3.225,3.64,1.98,6.297
		c-0.692,1.477,1.502,2.771,2.198,1.285c0.928-1.98,0.966-3.772-0.011-5.735c-0.919-1.846-3.113-3.378-1.461-5.465
		C32.987,2.737,31.198,0.922,30.179,2.209z"/>
	<path d="M39.091,2.209c-1.362,1.72-1.791,3.368-0.906,5.418c0.957,2.216,3.225,3.64,1.98,6.297
		c-0.692,1.477,1.502,2.771,2.198,1.285c0.928-1.98,0.966-3.772-0.011-5.735c-0.919-1.846-3.113-3.378-1.461-5.465
		C41.899,2.737,40.11,0.922,39.091,2.209z"/>
</g>
</svg>
