<?xml version="1.0" encoding="utf-8"?>
<!-- Generator: Adobe Illustrator 16.0.0, SVG Export Plug-In . SVG Version: 6.00 Build 0)  -->
<!DOCTYPE svg PUBLIC "-//W3C//DTD SVG 1.1//EN" "http://www.w3.org/Graphics/SVG/1.1/DTD/svg11.dtd">
<svg version="1.1" id="Capa_1" xmlns="http://www.w3.org/2000/svg" xmlns:xlink="http://www.w3.org/1999/xlink" x="0px" y="0px"
	 width="64px" height="64px" viewBox="0 0 64 64" enable-background="new 0 0 64 64" xml:space="preserve">
<g>
	<path d="M28.451,1.407c-1.014,0.551-1.99,1.3-2.916,2.229c0.641,0.233,1.38,0.445,2.208,0.618
		C27.946,3.25,28.18,2.291,28.451,1.407z"/>
	<path d="M27.341,6.567c-1.259-0.254-2.422-0.605-3.427-1.046c-0.826,1.09-1.601,2.326-2.314,3.698
		c0.83,0.844,2.634,1.716,5.194,2.274C26.921,9.872,27.098,8.194,27.341,6.567z"/>
	<path d="M31.99,41.882h0.083c0.557-3.716,1.256-7.182,2.09-10.356c-0.701,0.069-1.416,0.105-2.132,0.124
		c-0.715-0.018-1.429-0.054-2.131-0.124C30.734,34.7,31.433,38.166,31.99,41.882z"/>
	<path d="M26.477,19.156c0.01-1.377,0.049-3.24,0.161-5.32c-1.687-0.344-3.235-0.837-4.509-1.469
		c1.129,1.928,2.247,4.078,3.319,6.458C25.764,18.941,26.111,19.051,26.477,19.156z"/>
	<path d="M38.527,3.637c-0.926-0.929-1.9-1.678-2.916-2.229c0.271,0.884,0.505,1.843,0.709,2.848
		C37.148,4.082,37.889,3.87,38.527,3.637z"/>
	<path d="M35.245,19.667c-0.003-1.981-0.052-3.798-0.136-5.458c-1.012,0.122-2.047,0.181-3.079,0.205
		c-1.031-0.023-2.065-0.083-3.077-0.205c-0.085,1.659-0.133,3.476-0.136,5.458C30.614,20.128,34.164,20.112,35.245,19.667z"/>
	<path d="M37.271,11.493c2.56-0.558,4.362-1.43,5.192-2.274c-0.714-1.372-1.487-2.608-2.313-3.698
		c-1.006,0.441-2.168,0.792-3.428,1.046C36.966,8.194,37.143,9.872,37.271,11.493z"/>
	<path d="M34.93,28.799c0.154-2.068,0.26-4.322,0.299-6.764c-1.037,0.143-2.115,0.216-3.196,0.243
		c-1.082-0.027-2.158-0.1-3.196-0.243c0.039,2.442,0.144,4.696,0.299,6.764c0.028,0.095,0.055,0.193,0.083,0.289
		c1.253,0.334,4.302,0.302,5.63,0C34.874,28.992,34.902,28.894,34.93,28.799z"/>
	<path d="M34.963,11.879c-0.146-1.888-0.342-3.521-0.564-4.958c-0.896,0.267-3.639,0.25-4.731,0
		c-0.224,1.437-0.421,3.07-0.566,4.958C30.243,12.206,33.986,12.254,34.963,11.879z"/>
	<path d="M33.986,4.609C33.59,2.74,33.148,1.376,32.73,0.416c-0.219-0.035-1.181-0.035-1.397,0c-0.42,0.959-0.861,2.324-1.257,4.193
		C31.034,4.816,33.229,4.8,33.986,4.609z"/>
	<path d="M38.615,18.824c1.072-2.38,2.189-4.53,3.32-6.458c-1.275,0.632-2.824,1.125-4.511,1.469c0.112,2.08,0.151,3.943,0.161,5.32
		C37.952,19.051,38.3,18.941,38.615,18.824z"/>
	<path d="M45.07,9.442c-0.299,0.441-0.604,0.898-0.906,1.37c-0.182,0.284-0.363,0.578-0.544,0.872
		c-0.347,0.562-0.694,1.125-1.041,1.728c-0.8,1.394-1.615,2.967-2.421,4.686c-0.471,0.999-0.934,2.052-1.393,3.163
		c-0.43,1.043-0.854,2.12-1.265,3.266c-0.492,1.37-0.96,2.835-1.412,4.355c-0.241,0.811-0.478,1.641-0.702,2.497
		c-1.162,4.376-2.115,9.332-2.729,14.896c-0.203,1.858-0.465,3.797-0.611,5.795c-0.153-2.002-0.439-3.928-0.645-5.795
		c-0.612-5.564-1.564-10.521-2.727-14.896c-0.227-0.856-0.461-1.686-0.703-2.497c-0.452-1.52-0.92-2.985-1.412-4.355
		c-0.411-1.146-0.835-2.223-1.266-3.266c-0.457-1.111-0.92-2.164-1.391-3.163c-0.806-1.718-1.621-3.292-2.421-4.686
		c-0.347-0.603-0.695-1.166-1.042-1.728c-0.181-0.294-0.363-0.588-0.544-0.872c-0.303-0.471-0.607-0.928-0.907-1.37
		c-2.78-4.064-5.443-6.828-7.3-8.495c2.918,6.551,4.266,19.65,4.869,28.625c0.343,5.111,0.445,8.887,0.457,9.344
		c0.465,7.229,1.698,12.563,3.279,16.508c0.434,1.082,1.477,3.146,1.494,3.18c3.703,6.678,16.782,6.678,20.485,0
		c0.017-0.031,1.061-2.098,1.492-3.18c1.58-3.945,2.814-9.277,3.278-16.508c0.013-0.457,0.114-4.232,0.457-9.344
		c0.604-8.974,1.95-22.074,4.869-28.625C50.516,2.614,47.852,5.377,45.07,9.442z"/>
</g>
</svg>
