<?xml version="1.0" encoding="iso-8859-1"?>
<!-- Generator: Adobe Illustrator 17.0.0, SVG Export Plug-In . SVG Version: 6.00 Build 0)  -->
<!DOCTYPE svg PUBLIC "-//W3C//DTD SVG 1.1//EN" "http://www.w3.org/Graphics/SVG/1.1/DTD/svg11.dtd">
<svg version="1.1" id="Capa_1" xmlns="http://www.w3.org/2000/svg" xmlns:xlink="http://www.w3.org/1999/xlink" x="0px" y="0px"
	 width="64px" height="64px" viewBox="0 0 64 64" style="enable-background:new 0 0 64 64;" xml:space="preserve">
<g>
	<path d="M45.187,5.957l0.008-0.169c0.05-1.001-0.287-1.935-0.947-2.628c-0.881-0.925-2.253-1.326-3.685-1.068L25.147,4.868
		c-0.765-0.936-1.85-1.484-3.021-1.484c-0.98,0-1.953,0.387-2.739,1.089L6.833,15.685c-0.942,0.842-1.467,2.009-1.438,3.204
		c0.007,0.314,0.058,0.623,0.139,0.925c-0.843,0.6-1.459,1.581-1.658,2.786L1.518,36.927l-0.17-0.005l0.114,0.341l-0.264,1.601
		c-0.213,1.297,0.099,2.551,0.854,3.441c0.441,0.52,1.01,0.868,1.643,1.061c2.683,6.489,8.255,17.524,15.125,17.524
		c1.013,0,2.015-0.238,2.979-0.707c4.028-1.962,3.671-11.261,2.967-17.328l0.025-0.001c2.137-0.073,4.212-1.941,4.726-4.254
		l0.163-0.737c0.866-0.153,1.673-0.496,2.333-1.013l4.481-3.514c0.606-0.476,1.061-1.091,1.387-1.766l1.789-0.22
		c2.02-0.248,3.717-1.683,4.274-3.448c3.329,0.942,8.042,2.061,11.677,2.061c0.001,0,0.001,0,0.002,0
		c2.904,0,4.779-0.708,5.731-2.164c1.072-1.641,1.354-3.49,0.838-5.496C60.526,15.832,50.321,9.027,45.187,5.957z M58.844,26.16
		c-0.123,0.189-0.721,0.806-3.22,0.806c-0.001,0-0.001,0-0.001,0c-3.457,0-8.203-1.18-11.376-2.099l0.771-15.503
		c5.513,3.445,13.076,9.049,14.271,13.69C59.59,24.225,59.444,25.241,58.844,26.16z M41.15,26.732
		c-0.005,0.101-0.032,0.205-0.069,0.311c-0.212,0.599-0.912,1.227-1.776,1.332L38.37,28.49c-0.09-0.598-0.286-1.182-0.594-1.72
		L26.802,7.618l13.28-2.392l1.013-0.182c0.112-0.02,0.222-0.03,0.326-0.03c0.286,0,0.524,0.078,0.654,0.214
		c0.034,0.036,0.137,0.145,0.124,0.412l-0.016,0.317l-0.972,19.551L41.15,26.732z M34.643,30.978l-1.367,1.072l-2.791,2.189
		l-0.323,0.253c-0.352,0.276-0.854,0.417-1.367,0.438c-0.526,0.021-1.058-0.092-1.462-0.338c-0.065-0.04-0.134-0.076-0.192-0.123
		l-10.588-8.568l-4.135-3.346l-3.543-2.867c-0.121-0.098-0.214-0.208-0.29-0.322c-0.115-0.172-0.185-0.358-0.189-0.549
		c-0.008-0.317,0.147-0.634,0.437-0.893L21.385,6.711c0.151-0.135,0.308-0.214,0.466-0.265c0.092-0.03,0.185-0.062,0.276-0.062
		c0.329,0,0.63,0.208,0.845,0.583l0.16,0.279l0.874,1.526l11.168,19.488c0.104,0.182,0.168,0.385,0.207,0.596
		c0.094,0.516,0.003,1.082-0.254,1.542C35.001,30.623,34.84,30.823,34.643,30.978z M26.587,37.953
		c-0.235,1.062-1.196,1.882-1.898,1.906l-0.327,0.011l-1.516,0.052l-9.575,0.328l-7.491,0.256l-1,0.034l-0.027,1.39L4.75,42.032h0
		v-0.107v-1.385c-0.178,0-0.309-0.056-0.41-0.175c-0.182-0.214-0.249-0.593-0.18-1.013l0.14-0.848l0.246-1.494l2.292-13.923
		c0.065-0.398,0.23-0.705,0.431-0.84l17.984,14.554c0.418,0.338,0.9,0.596,1.414,0.789L26.587,37.953z M20.485,57.488
		c-0.559,0.272-1.104,0.404-1.665,0.404c-4.152,0-8.774-7.487-11.822-14.428l14.745-0.503C22.53,49.855,22.278,56.615,20.485,57.488
		z"/>
</g>
</svg>
