<?xml version="1.0" encoding="iso-8859-1"?>
<!-- Generator: Adobe Illustrator 17.0.0, SVG Export Plug-In . SVG Version: 6.00 Build 0)  -->
<!DOCTYPE svg PUBLIC "-//W3C//DTD SVG 1.1//EN" "http://www.w3.org/Graphics/SVG/1.1/DTD/svg11.dtd">
<svg version="1.1" id="Capa_1" xmlns="http://www.w3.org/2000/svg" xmlns:xlink="http://www.w3.org/1999/xlink" x="0px" y="0px"
	 width="64px" height="64px" viewBox="0 0 64 64" style="enable-background:new 0 0 64 64;" xml:space="preserve">
<g>
	<path d="M55.322,20.146c4.409-4.394,6.304-8.065,5.199-10.072c-0.201-0.366-0.497-0.659-0.851-0.897
		c-4.398,3.664-7.767,4.314-7.767,4.314c1.693-1.593,3.991-3.543,5.805-5.046c-0.738-0.139-1.512-0.186-2.212-0.186
		c-0.518,0-1.072,0.032-1.642,0.078c-9.264,5.26-27.926,15.636-16.743,7.4c3.177-2.34,5.869-4.166,8.138-5.592
		c-5.415,1.661-11.654,4.348-17.917,7.796C19.563,22.215,12.745,27.103,8.131,31.7c-4.409,4.394-6.304,8.064-5.199,10.072
		c0.194,0.352,0.478,0.634,0.814,0.867c4.706-4.016,15.416-12.766,24.093-16.971c10.282-4.983-10.227,7.831-21.633,17.804
		c0.594,0.081,1.195,0.117,1.75,0.117c6.523,0,17.315-3.709,28.164-9.682C43.889,29.631,50.708,24.743,55.322,20.146z M49.661,19.59
		c-7.065,7.954-23.32,14.389-23.32,14.389L49.661,19.59z"/>
	<path d="M37.821,37.563l0,0.112c1.326,0.194,2.533,1.034,3.497,2.323c1.536-0.139,5.121-0.162,10.083,1.698
		c6.731,2.524,0.015,1.785,0.015,1.785s-5.575-1.53-9.728-2.949c1.174,1.837,1.904,4.39,1.904,7.218
		c0,5.253-2.513,9.569-5.729,10.072l0,0.115c10.22-0.021,18.926-2.808,22.267-6.699c-7.531,3.839-15.346,3.301-15.346,3.301
		l16.371-4.883c0.285-0.633,0.439-1.286,0.437-1.955C61.58,42.076,50.937,37.536,37.821,37.563z"/>
	<path d="M42.591,47.75c0-4.606-2.129-8.542-4.768-9.061c-0.194-0.038-0.391-0.062-0.59-0.062c-2.904,0-5.358,4.178-5.358,9.123
		c0,4.945,2.454,9.123,5.358,9.123c0.212,0,0.42-0.029,0.627-0.072C40.481,56.253,42.591,52.334,42.591,47.75z M37.851,52.513
		c-0.199,0.07-0.405,0.112-0.618,0.112c-1.622,0-2.892-2.142-2.892-4.875s1.27-4.875,2.892-4.875c0.206,0,0.406,0.036,0.599,0.102
		c1.325,0.453,2.293,2.387,2.293,4.773C40.125,50.124,39.165,52.047,37.851,52.513z"/>
	<path d="M37.375,45.586c-0.586,0-1.06,0.907-1.06,2.026c0,1.119,0.475,2.026,1.06,2.026c0.169,0,0.327-0.083,0.469-0.218
		c0.349-0.332,0.591-1.013,0.591-1.808c0-0.801-0.245-1.487-0.598-1.816C37.697,45.666,37.542,45.586,37.375,45.586z"/>
</g>
</svg>
