<?xml version="1.0" encoding="iso-8859-1"?>
<!-- Generator: Adobe Illustrator 17.0.0, SVG Export Plug-In . SVG Version: 6.00 Build 0)  -->
<!DOCTYPE svg PUBLIC "-//W3C//DTD SVG 1.1//EN" "http://www.w3.org/Graphics/SVG/1.1/DTD/svg11.dtd">
<svg version="1.1" id="Capa_1" xmlns="http://www.w3.org/2000/svg" xmlns:xlink="http://www.w3.org/1999/xlink" x="0px" y="0px"
	 width="64px" height="64px" viewBox="0 0 64 64" style="enable-background:new 0 0 64 64;" xml:space="preserve">
<g>
	<path d="M18.247,11.948c-0.003,0.003-0.007,0.005-0.01,0.009c-0.472,0.527-0.687,1.221-0.604,1.954l4.12,36.937
		c0.338,3.04,3.102,5.513,6.161,5.513h0.569v0.421c-4.076,0.358-7.07,1.534-7.07,2.933c0,1.683,4.33,3.047,9.671,3.047
		c5.341,0,9.671-1.364,9.671-3.047c0-1.399-2.994-2.574-7.07-2.933V56.36h0.569c3.058,0,5.822-2.473,6.161-5.513l4.119-36.936
		c0.082-0.732-0.132-1.426-0.604-1.954c-0.048-0.053-0.106-0.093-0.157-0.142c-0.14-0.132-0.292-0.244-0.457-0.338
		c-0.155-0.088-0.318-0.159-0.49-0.212c0.011-0.158,0.024-0.315,0.024-0.475c0-3.659-2.977-6.635-6.635-6.635
		c-0.394,0-0.779,0.041-1.154,0.107c-0.172,0.03-0.341,0.069-0.508,0.112c-0.162,0.042-0.321,0.088-0.478,0.142
		c-2.611,0.893-4.496,3.365-4.496,6.275c0,0.117,0.012,0.232,0.018,0.348h-0.5h-0.5c-0.005-0.116-0.018-0.23-0.018-0.348
		c0-3.307,2.117-6.121,5.064-7.18c-0.8-1.264-2.202-2.112-3.806-2.112c-1.562,0-2.99,0.795-3.822,2.126l-0.144,0.229l-0.271,0.006
		c-3.583,0.073-6.498,3.046-6.498,6.628c0,0.283,0.024,0.561,0.058,0.835c-0.165,0.065-0.321,0.146-0.468,0.245
		C18.533,11.677,18.381,11.801,18.247,11.948z M39.088,59.714c-0.795,0.579-3.527,1.547-8.005,1.547s-7.209-0.968-8.005-1.547
		c0.626-0.456,2.47-1.146,5.404-1.422v1.625h5.201v-1.625C36.618,58.568,38.462,59.258,39.088,59.714z M19.123,13.745
		c-0.018-0.164,0.004-0.318,0.051-0.46c0.04-0.121,0.097-0.234,0.182-0.328c0.05-0.056,0.12-0.087,0.182-0.129
		c0.164-0.111,0.353-0.189,0.575-0.189h8.702h0.515h0.517h2.164h0.533h0.518h8.992c0.184,0,0.347,0.053,0.494,0.132
		c0.096,0.051,0.191,0.106,0.264,0.187c0.056,0.063,0.084,0.144,0.121,0.22c0.083,0.17,0.134,0.358,0.11,0.568l-0.064,0.576
		l-4.055,36.361c-0.258,2.304-2.353,4.179-4.671,4.179h-6.339c-2.319,0-4.414-1.875-4.671-4.179l-4.047-36.277L19.123,13.745z"/>
	<path d="M29.375,53.66h3.418c2.626,0,4.977-2.611,5.252-5.831l2.71-28.91H21.453l2.669,28.91
		C24.398,51.049,26.749,53.66,29.375,53.66z M35.894,23.972c0.024-0.415,0.419-0.722,0.793-0.705
		c0.414,0.024,0.729,0.379,0.705,0.792l-1.098,18.634c-0.023,0.398-0.354,0.706-0.748,0.706c-0.016,0-0.03,0-0.045-0.001
		c-0.414-0.024-0.729-0.379-0.705-0.792L35.894,23.972z M31.082,23.25L31.082,23.25c0.415,0,0.751,0.335,0.751,0.749l0.021,18.667
		c0,0.415-0.335,0.75-0.749,0.751h-0.001c-0.414,0-0.75-0.335-0.75-0.749l-0.021-18.667C30.333,23.586,30.668,23.25,31.082,23.25z
		 M25.501,23.268c0.409-0.033,0.769,0.292,0.793,0.705l1.098,18.634c0.024,0.414-0.291,0.768-0.705,0.792
		c-0.015,0.001-0.03,0.001-0.045,0.001c-0.394,0-0.725-0.308-0.748-0.706L24.796,24.06C24.771,23.646,25.087,23.292,25.501,23.268z"
		/>
</g>
</svg>
