<?xml version="1.0" encoding="iso-8859-1"?>
<!-- Generator: Adobe Illustrator 17.0.0, SVG Export Plug-In . SVG Version: 6.00 Build 0)  -->
<!DOCTYPE svg PUBLIC "-//W3C//DTD SVG 1.1//EN" "http://www.w3.org/Graphics/SVG/1.1/DTD/svg11.dtd">
<svg version="1.1" id="Capa_1" xmlns="http://www.w3.org/2000/svg" xmlns:xlink="http://www.w3.org/1999/xlink" x="0px" y="0px"
	 width="64px" height="64px" viewBox="0 0 64 64" style="enable-background:new 0 0 64 64;" xml:space="preserve">
<g>
	<path d="M40.1,21.068v-7.104H25.574l0.011,6.864C14.003,23.737,5.276,33.873,4.462,46.142H1.417v5.392h61.916v-5.392h-2.982
		C59.558,34.185,51.245,24.256,40.1,21.068z M29.485,17.082H36.2v3.167c-1.242-0.169-2.506-0.264-3.794-0.264
		c-0.986,0-1.96,0.053-2.921,0.153V17.082z M27.325,24.431c1.639-0.353,3.338-0.545,5.081-0.545c1.743,0,3.442,0.192,5.081,0.545
		c10.251,2.208,18.105,10.944,18.964,21.628H8.36C9.22,35.375,17.073,26.639,27.325,24.431z"/>
	<path d="M50.545,37.149c-1.964-4.365-5.777-7.91-11.336-10.536c-0.56-0.264-1.143-0.398-1.731-0.398
		c-1.852,0-3.564,1.405-3.982,3.269c-0.374,1.669,0.412,3.233,2.004,3.985c4.273,2.019,6.792,4.283,8.167,7.341
		c0.601,1.336,1.777,2.133,3.147,2.134c1.327,0,2.682-0.767,3.448-1.952C51.016,39.826,51.119,38.426,50.545,37.149z M47.806,39.402
		c-0.262,0.404-0.697,0.616-0.992,0.616c-0.104,0-0.296,0-0.479-0.408c-2.155-4.792-6.255-7.213-9.586-8.787
		c-0.366-0.173-0.474-0.362-0.398-0.699c0.106-0.475,0.585-0.984,1.127-0.984c0.153,0,0.315,0.04,0.482,0.119
		c4.911,2.32,8.247,5.378,9.917,9.09C48.045,38.723,48.023,39.068,47.806,39.402z"/>
</g>
</svg>
