<?xml version="1.0" encoding="iso-8859-1"?>
<!-- Generator: Adobe Illustrator 17.0.0, SVG Export Plug-In . SVG Version: 6.00 Build 0)  -->
<!DOCTYPE svg PUBLIC "-//W3C//DTD SVG 1.1//EN" "http://www.w3.org/Graphics/SVG/1.1/DTD/svg11.dtd">
<svg version="1.1" id="Capa_1" xmlns="http://www.w3.org/2000/svg" xmlns:xlink="http://www.w3.org/1999/xlink" x="0px" y="0px"
	 width="64px" height="64px" viewBox="0 0 64 64" style="enable-background:new 0 0 64 64;" xml:space="preserve">
<g>
	<path d="M5.5,6.625c1.503,0.087,2.96,0.31,4.176,1.057c-2.125,2.822-3.944,5.936-3.8,9.79C5.925,18.8,6.798,19.658,8.1,19.658
		c0.243,0,0.492-0.038,0.74-0.093c0.088,0.405,0.19,0.806,0.323,1.192l-0.002-0.001c0,0,0.007,0.016,0.009,0.021
		c0.202,0.583,0.464,1.158,0.769,1.724c2.092,4.505,8.461,17.045,19.488,29.024c1.499,1.87,3.14,3.532,4.868,4.943
		c0.005,0.004,0.009,0.009,0.013,0.013l0-0.001c6.519,5.313,14.178,7.16,19.295,4.025c6.806-4.17,9.03-16.535,1.893-26.429
		c-3.017-4.181-8.091-7.483-11.942-9.519l0.003-0.004c-0.014-0.005-0.025-0.011-0.039-0.016c-1.094-0.576-2.193-1.051-3.286-1.426
		c-7.086-3.563-9.117-8.087-9.117-8.087l-0.001,0c-0.367-1.015-0.888-2.012-1.571-2.959c-0.075-0.104-0.163-0.198-0.242-0.3
		c0.269-0.359,0.474-0.771,0.57-1.224c0.255-1.214-0.321-2.291-1.505-2.812c-3.735-1.645-7.696-2.411-12.465-2.411
		c-0.791,0-1.589,0.021-2.395,0.062c-0.091,0.005-0.165,0.021-0.247,0.034C11.218,3.389,8.32,2.789,5.5,2.625
		C2.922,2.475,2.936,6.476,5.5,6.625z M30.934,22.638l0.056,0.078c-0.035,0.012-0.07,0.023-0.106,0.036
		C30.902,22.715,30.917,22.676,30.934,22.638z M32.882,23.705c9.637,4.973,20.907,8.719,22.689,20.896
		c0.277,1.892-2.613,2.706-2.893,0.798c-1.652-11.286-12.438-14.525-21.311-19.104C29.648,25.408,31.166,22.819,32.882,23.705z
		 M16.933,6.839c2.427,0.061,4.639,0.335,6.713,0.853c1.425,0.356,2.788,0.824,4.119,1.41c0.533,0.234,0.749,0.615,0.641,1.13
		c-0.026,0.124-0.077,0.249-0.139,0.372c-0.255,0.501-0.785,0.941-1.422,0.941c-0.206,0-0.417-0.047-0.626-0.139
		c-0.787-0.346-1.64-0.646-2.609-0.917l-2.262-0.636l1.621,2.006c0.109,0.13,0.218,0.26,0.317,0.406
		c0.273,0.398,0.317,0.781,0.13,1.136c-0.243,0.462-0.839,0.798-1.415,0.798c-0.33,0-0.797-0.109-1.154-0.632
		c-1.322-1.931-3.665-2.688-5.312-3.089l-0.429-0.104l-0.3,0.323c-2.713,2.933-1.613,6.106-0.353,8.544
		c0.303,0.585,0.156,1.054-0.021,1.344c-0.281,0.462-0.83,0.784-1.335,0.784c-0.428,0-0.761-0.225-0.99-0.668
		c-0.2-0.386-0.417-1.222-0.591-1.893c-0.13-0.5-0.251-0.963-0.362-1.269l-0.442-1.222l-0.837,0.993
		c-0.296,0.352-0.783,0.637-1.26,0.767c-0.177,0.048-0.352,0.079-0.516,0.079c-0.502,0-0.705-0.209-0.726-0.743
		c-0.124-3.356,1.517-6.178,3.454-8.764c0.043,0.048,0.091,0.087,0.133,0.138c0.194,0.235,0.404,0.397,0.621,0.507
		c1.154,0.584,2.504-0.465,2.676-1.749c0.03-0.224,0.017-0.455-0.032-0.686c0.561-0.021,1.122-0.043,1.677-0.043
		C16.254,6.818,16.591,6.831,16.933,6.839z M24.161,28.682l-0.026-0.037c0.018-0.006,0.036-0.01,0.054-0.015
		C24.18,28.647,24.17,28.664,24.161,28.682z"/>
</g>
</svg>
