<?xml version="1.0" encoding="iso-8859-1"?>
<!-- Generator: Adobe Illustrator 17.0.0, SVG Export Plug-In . SVG Version: 6.00 Build 0)  -->
<!DOCTYPE svg PUBLIC "-//W3C//DTD SVG 1.1//EN" "http://www.w3.org/Graphics/SVG/1.1/DTD/svg11.dtd">
<svg version="1.1" id="Capa_1" xmlns="http://www.w3.org/2000/svg" xmlns:xlink="http://www.w3.org/1999/xlink" x="0px" y="0px"
	 width="64px" height="64px" viewBox="0 0 64 64" style="enable-background:new 0 0 64 64;" xml:space="preserve">
<g>
	<path d="M34.802,20.12C31.095,8.666,36.333,3,36.333,3s-17.196,8.265-22.293,30.541c-2.143-3.083-4.013-4.77-3.8-4.218
		c2.3,5.957-2.898,8.625-2.829,14.905C7.481,50.507,18.32,57.694,18.32,57.694c0.001-0.003,0.002-0.006,0.003-0.009
		c0.427,0.316,0.878,0.613,1.35,0.893c-0.404-0.48-0.783-0.971-1.134-1.472c-1.175-1.677-2-3.446-2.019-5.151
		c-0.037-3.364,1.434-5.692,2.457-8.045c0.887-2.038,1.439-4.095,0.372-6.86c-0.168-0.435,0.963,0.526,2.499,2.464
		c2.996-8.126,5.947-15.167,5.947-15.167s0.076,11.061,3.825,18.149c3.519,6.653,3.308,10.07,3.308,10.07
		c6.401-6.119,8.542-15.843,8.542-15.843c2.327,2.052,3.665,4.66,4.418,7.279c1.586,5.513-1.691,11.054-1.764,11.59
		c-0.031,0.223-0.088,0.431-0.136,0.644c-0.224,1.006-0.627,1.905-1.182,2.696c0.601-0.382,1.171-0.803,1.72-1.248
		c0.001,0.003,0.002,0.006,0.003,0.009c0,0,9.99-7.187,10.059-13.467c0.069-6.279-5.129-8.947-2.829-14.905
		c0.199-0.516-1.321,0.92-3.153,3.629c-1.814-5.595-2.976-10.117-9.038-15.464c0,0,1.121,12.163-5.322,20.97
		C36.247,38.459,38.51,31.575,34.802,20.12z"/>
</g>
</svg>
