<?xml version="1.0" encoding="iso-8859-1"?>
<!-- Generator: Adobe Illustrator 17.0.0, SVG Export Plug-In . SVG Version: 6.00 Build 0)  -->
<!DOCTYPE svg PUBLIC "-//W3C//DTD SVG 1.1//EN" "http://www.w3.org/Graphics/SVG/1.1/DTD/svg11.dtd">
<svg version="1.1" id="Capa_1" xmlns="http://www.w3.org/2000/svg" xmlns:xlink="http://www.w3.org/1999/xlink" x="0px" y="0px"
	 width="64px" height="64px" viewBox="0 0 64 64" style="enable-background:new 0 0 64 64;" xml:space="preserve">
<g>
	<path d="M29.58,24.201l-0.75,0.914c-0.16,0.196-3.865,4.837-2.331,12.46h-0.925v-9.574c0-0.828-0.672-1.5-1.5-1.5
		s-1.5,0.672-1.5,1.5v9.574h-1.715v-7.96c0-0.828-0.672-1.5-1.5-1.5c-0.828,0-1.5,0.672-1.5,1.5v7.96h-2.023v-4.68
		c0-0.828-0.672-1.5-1.5-1.5s-1.5,0.672-1.5,1.5v4.68h-0.047c-0.288-0.638-0.673-1.241-1.164-1.778l-5.853-6.394
		c-2.446-2.672-3.604-2.02-2.7,1.489c0.892,3.461,1.795,7.368,1.795,8.997c0,1.651-0.927,5.721-1.831,9.294
		c-0.888,3.513,0.371,4.248,2.918,1.672l5.488-5.553c0.606-0.613,1.067-1.322,1.393-2.08v4.05c0,0.828,0.672,1.5,1.5,1.5
		s1.5-0.672,1.5-1.5v-4.696h2.023v7.977c0,0.828,0.672,1.5,1.5,1.5c0.828,0,1.5-0.672,1.5-1.5v-7.977h1.715v10.042
		c0,0.828,0.672,1.5,1.5,1.5s1.5-0.672,1.5-1.5V42.575h2.43c0.126,0.307,0.245,0.588,0.351,0.835
		c0.602,1.399,0.602,1.399-0.182,2.596c-2.693,4.121-0.868,8.407,0.636,10.289l0.75,0.94h1.203c2.943,0,6.515-0.002,10.24-0.497
		v-2.513v-2.514V29.527v-2.527v-2.527c-2.75-0.278-5.272-0.281-7.238-0.281L29.58,24.201z"/>
	<path d="M46.003,25.305v2.569v2.608V50.55v2.606v2.586c6.436-1.762,12.706-5.606,16.441-14.008l0.404-0.908l-0.33-0.938
		C59.278,30.682,52.542,26.879,46.003,25.305z M55.635,38.224c0,1.583-1.284,2.867-2.867,2.867c-1.583,0-2.867-1.284-2.867-2.867
		c0-1.583,1.284-2.867,2.867-2.867C54.351,35.357,55.635,36.64,55.635,38.224z"/>
	<path d="M25.557,18.32c-1.593,1.092,0.067,3.592,1.667,2.495c2.222-1.524,3.505-3.352,2.894-6.09
		c-0.633-2.837-2.903-4.575-1.175-7.576c0.968-1.682-1.716-3.024-2.677-1.356c-1.241,2.156-1.307,4.329-0.404,6.622
		C26.849,14.92,28.347,16.407,25.557,18.32z"/>
	<path d="M33.557,18.32c-1.593,1.092,0.067,3.592,1.667,2.495c2.222-1.524,3.505-3.352,2.894-6.09
		c-0.633-2.837-2.903-4.575-1.175-7.576c0.968-1.682-1.716-3.024-2.677-1.356c-1.241,2.156-1.307,4.329-0.404,6.622
		C34.849,14.92,36.347,16.407,33.557,18.32z"/>
	<path d="M46.119,14.724c-0.633-2.837-2.903-4.575-1.175-7.576c0.968-1.682-1.716-3.024-2.677-1.356
		c-1.241,2.156-1.307,4.329-0.404,6.622c0.986,2.505,2.483,3.992-0.306,5.905c-1.593,1.092,0.067,3.592,1.667,2.495
		C45.446,19.291,46.729,17.462,46.119,14.724z"/>
</g>
</svg>
