<?xml version="1.0" encoding="iso-8859-1"?>
<!-- Generator: Adobe Illustrator 17.0.0, SVG Export Plug-In . SVG Version: 6.00 Build 0)  -->
<!DOCTYPE svg PUBLIC "-//W3C//DTD SVG 1.1//EN" "http://www.w3.org/Graphics/SVG/1.1/DTD/svg11.dtd">
<svg version="1.1" id="Capa_1" xmlns="http://www.w3.org/2000/svg" xmlns:xlink="http://www.w3.org/1999/xlink" x="0px" y="0px"
	 width="64px" height="64px" viewBox="0 0 64 64" style="enable-background:new 0 0 64 64;" xml:space="preserve">
<g>
	<path d="M61.905,45.08c-1.102-4.357-2.232-9.32-2.232-11.333c0-1.987,1.101-6.751,2.189-10.972
		c1.103-4.279-0.309-5.074-3.293-1.815l-7.137,7.797c-0.033,0.036-0.06,0.074-0.091,0.11h-1.715v-3.649c0-0.829-0.672-1.5-1.5-1.5
		s-1.5,0.671-1.5,1.5v3.649H43.5v-7.649c0-0.829-0.672-1.5-1.5-1.5s-1.5,0.671-1.5,1.5v7.649h-2.75V19.25c0-0.829-0.672-1.5-1.5-1.5
		s-1.5,0.671-1.5,1.5v9.617H32v-7.649c0-0.829-0.672-1.5-1.5-1.5s-1.5,0.671-1.5,1.5v7.649h-2.375v-3.75c0-0.829-0.672-1.5-1.5-1.5
		s-1.5,0.671-1.5,1.5v3.75h-2.226l-0.085-9.278c-0.053-5.725-3.347-7.115-7.358-3.104l-9.986,9.986
		c-4.011,4.011-3.951,10.575,0.135,14.661l10.172,10.172c4.086,4.086,7.355,2.757,7.302-2.969L21.493,39h2.132v3.75
		c0,0.829,0.672,1.5,1.5,1.5s1.5-0.671,1.5-1.5V39H29v7.75c0,0.829,0.672,1.5,1.5,1.5s1.5-0.671,1.5-1.5V39h2.75v10.269
		c0,0.829,0.672,1.5,1.5,1.5s1.5-0.671,1.5-1.5V39h2.75v7.75c0,0.829,0.672,1.5,1.5,1.5s1.5-0.671,1.5-1.5V39h3.125v3.75
		c0,0.829,0.672,1.5,1.5,1.5s1.5-0.671,1.5-1.5V39h0.957c0.306,0.478,0.66,0.932,1.071,1.348l6.693,6.771
		C61.452,50.261,62.988,49.364,61.905,45.08z M8.625,28c0-2.278,1.847-4.125,4.125-4.125s4.125,1.847,4.125,4.125
		c0,0.298-0.035,0.587-0.095,0.867c-0.353,1.648-1.692,2.919-3.369,3.191c-0.217,0.035-0.435,0.067-0.661,0.067
		C10.472,32.125,8.625,30.278,8.625,28z"/>
</g>
</svg>
