<?xml version="1.0" encoding="iso-8859-1"?>
<!-- Generator: Adobe Illustrator 17.0.0, SVG Export Plug-In . SVG Version: 6.00 Build 0)  -->
<!DOCTYPE svg PUBLIC "-//W3C//DTD SVG 1.1//EN" "http://www.w3.org/Graphics/SVG/1.1/DTD/svg11.dtd">
<svg version="1.1" id="Capa_1" xmlns="http://www.w3.org/2000/svg" xmlns:xlink="http://www.w3.org/1999/xlink" x="0px" y="0px"
	 width="64px" height="64px" viewBox="0 0 64 64" style="enable-background:new 0 0 64 64;" xml:space="preserve">
<g>
	<path d="M7.24,54.161v1.713h49.235v-1.713c0-11.508-7.938-21.193-18.625-23.876v-4.124c1.005-0.561,1.641-1.317,1.641-2.293
		c0-2.438-3.928-3.529-7.82-3.529c-3.892,0-7.82,1.091-7.82,3.529c0,0.842,0.476,1.519,1.249,2.05v4.578
		C14.801,33.44,7.24,42.931,7.24,54.161z M31.67,22.908c2.634,0,4.396,0.55,5.052,0.959c-0.272,0.17-0.744,0.362-1.379,0.531
		c-0.897,0.238-2.13,0.428-3.672,0.428c-1.542,0-2.775-0.19-3.672-0.428c-0.635-0.169-1.107-0.361-1.379-0.531
		C27.274,23.458,29.036,22.908,31.67,22.908z M34.423,27.825v1.853c-0.844-0.088-1.699-0.134-2.566-0.134
		c-1.131,0-2.242,0.083-3.333,0.232v-1.951H34.423z M27.394,33.449c1.44-0.31,2.932-0.479,4.463-0.479
		c1.531,0,3.023,0.169,4.463,0.479c9.005,1.939,15.904,9.614,16.659,18.999H10.735C11.49,43.063,18.388,35.388,27.394,33.449z"/>
	<path d="M16.171,47.996c0.673,1.041,1.863,1.715,3.029,1.715c1.204,0,2.237-0.701,2.765-1.874c1.208-2.686,3.421-4.676,7.175-6.449
		c1.398-0.661,2.089-2.035,1.76-3.501c-0.367-1.637-1.871-2.871-3.498-2.871c-0.517,0-1.029,0.118-1.521,0.35
		c-4.883,2.307-8.233,5.42-9.958,9.255C15.418,45.743,15.509,46.973,16.171,47.996z M18.267,45.675
		c1.466-3.26,4.397-5.947,8.711-7.985c0.146-0.069,0.289-0.104,0.423-0.104c0.477,0,0.898,0.447,0.99,0.864
		c0.067,0.296-0.028,0.463-0.35,0.614c-2.926,1.383-6.528,3.51-8.421,7.719c-0.161,0.358-0.33,0.358-0.421,0.358
		c-0.259,0-0.642-0.186-0.872-0.541C18.139,46.307,18.119,46.004,18.267,45.675z"/>
	<rect x="7.257" y="57.65" width="49.253" height="3.426"/>
	<path d="M20.955,2.243c-1.259,1.934-1.663,3.866-1.2,6.126c0.469,2.289,2.212,4.288,0.95,6.624c-0.92,1.702,1.671,3.216,2.59,1.514
		c0.995-1.842,1.105-3.615,0.508-5.608C23,8.215,21.816,6.414,23.545,3.757C24.604,2.13,22.006,0.629,20.955,2.243z"/>
	<path d="M30.955,2.243c-1.259,1.934-1.663,3.866-1.2,6.126c0.469,2.289,2.212,4.288,0.95,6.624c-0.92,1.702,1.671,3.216,2.59,1.514
		c0.995-1.842,1.105-3.615,0.508-5.608C33,8.215,31.816,6.414,33.545,3.757C34.604,2.13,32.006,0.629,30.955,2.243z"/>
	<path d="M40.955,2.243c-1.259,1.934-1.663,3.866-1.2,6.126c0.469,2.289,2.212,4.288,0.95,6.624c-0.92,1.702,1.671,3.216,2.59,1.514
		c0.995-1.842,1.105-3.615,0.508-5.608C43,8.215,41.816,6.414,43.545,3.757C44.604,2.13,42.006,0.629,40.955,2.243z"/>
</g>
</svg>
