<?xml version="1.0" encoding="iso-8859-1"?>
<!-- Generator: Adobe Illustrator 17.0.0, SVG Export Plug-In . SVG Version: 6.00 Build 0)  -->
<!DOCTYPE svg PUBLIC "-//W3C//DTD SVG 1.1//EN" "http://www.w3.org/Graphics/SVG/1.1/DTD/svg11.dtd">
<svg version="1.1" id="Capa_1" xmlns="http://www.w3.org/2000/svg" xmlns:xlink="http://www.w3.org/1999/xlink" x="0px" y="0px"
	 width="64px" height="64px" viewBox="0 0 64 64" style="enable-background:new 0 0 64 64;" xml:space="preserve">
<g>
	<path d="M55.51,15.125c1.532-4.668-1.196-9.943-5.004-12.879c-2.047-1.578-4.156,1.826-2.134,3.384
		c2.157,1.663,3.934,4.707,3.502,7.467C53.152,13.585,54.382,14.272,55.51,15.125z"/>
	<polygon points="47.527,13.255 47.527,13.255 47.527,14.255 	"/>
	<path d="M54.634,16.988c-1.045-0.846-2.215-1.544-3.452-2.02c-1.183-0.455-2.422-0.713-3.656-0.713
		c-3.409,0.001-6.786,1.955-8.851,7.067c-6.01,14.876-21.958,26.497-25.425,29.036c-2.741,2.007-16.747,8.209-5.943,8.209
		c2.864,0,7.472-0.436,14.495-1.502c33.515-5.085,36.751-29.817,36.751-29.817C59.852,23.656,57.862,19.599,54.634,16.988z
		 M51.352,36.509c-1.299,2.226-4.757,0.214-3.454-2.019c1.852-3.174,6.977-9.207,2.217-11.889c-2.247-1.266-0.231-4.722,2.019-3.454
		C59.692,23.406,54.496,31.12,51.352,36.509z"/>
</g>
</svg>
