<?xml version="1.0" encoding="iso-8859-1"?>
<!-- Generator: Adobe Illustrator 17.0.0, SVG Export Plug-In . SVG Version: 6.00 Build 0)  -->
<!DOCTYPE svg PUBLIC "-//W3C//DTD SVG 1.1//EN" "http://www.w3.org/Graphics/SVG/1.1/DTD/svg11.dtd">
<svg version="1.1" id="Capa_1" xmlns="http://www.w3.org/2000/svg" xmlns:xlink="http://www.w3.org/1999/xlink" x="0px" y="0px"
	 width="64px" height="64px" viewBox="0 0 64 64" style="enable-background:new 0 0 64 64;" xml:space="preserve">
<g>
	<polygon points="7.407,23.911 8.205,23.911 9.004,23.911 6.046,15.799 8.055,14.327 10.689,21.553 11.439,23.61 11.549,23.911 
		12.189,23.911 12.348,23.911 12.662,23.911 13.146,23.911 13.459,23.911 14.258,23.911 12.189,18.237 11.439,16.181 10.689,14.124 
		10.446,13.455 10.689,13.439 11.439,13.389 12.189,13.338 12.93,13.288 14.58,17.815 15.33,19.871 15.626,20.682 16.08,21.929 
		16.376,22.739 16.803,23.911 17.126,23.911 17.602,23.911 18.4,23.911 17.126,20.417 17.126,8.4 19.517,9.094 19.517,23.911 
		20.267,23.911 21.017,23.911 21.017,9.094 21.017,7.967 19.935,7.653 18.231,7.159 16.08,6.564 15.818,6.492 15.626,6.543 
		15.24,6.646 14.162,6.959 11.771,7.653 10.689,7.967 10.689,9.094 10.689,11.029 11.439,10.964 12.189,10.899 12.189,9.094 
		14.58,8.4 14.58,13.436 14.339,12.775 13.965,11.749 12.189,11.902 11.439,11.967 10.689,12.032 8.872,12.19 8.402,12.23 
		8.376,12.232 7.168,13.117 5.16,14.589 4.251,15.254 4.637,16.312 	"/>
	<path d="M46.38,8.389l-1.054-0.398l-2.329-0.879l-0.363-0.137l-1.067-0.356l-0.276-0.092L41.116,6.56l-0.915,0.169l-0.575,0.119
		l-2.438,0.505l-1.103,0.228l-0.088,1.123l-1.514,19.3l-0.059,0.756c0.269-0.085,0.527-0.184,0.775-0.295
		c0.277-0.124,0.539-0.264,0.785-0.418l1.508-19.225l2.438-0.505l-1.224,15.594h0.464h0.288h0.296h0.456h0.297h0.752l1.208-15.395
		l2.329,0.879l-1.139,14.516h0.678h0.074h0.714h0.039h0.749l3.421-10.649l2.489,0.07l-3.398,10.579h0.788h0.31h0.478h0.31h0.788
		l3.148-9.8l2.064,1.392l-2.701,8.408h0.788h0.787l2.554-7.95l0.345-1.073l-0.934-0.63l-2.064-1.392l-0.825-0.556l-0.445-0.276
		l-0.205-0.127l-0.228-0.011l-0.957-0.048l-0.56-0.016l-2.489-0.07l-1.126-0.032l-0.345,1.072l-2.474,7.703l0.863-10.994
		L46.38,8.389z"/>
	<path d="M32.012,29.126c0.201,0,0.4-0.008,0.596-0.021c0.255-0.018,0.504-0.051,0.75-0.092V5.392V4.345L28.421,2.92l-0.359-0.104
		l-0.096,0.029L23.03,4.32v1.072v18.519h0.75h0.75V5.392l2.391-0.694v22.436c0.222,0.239,0.472,0.462,0.75,0.665
		c0.095,0.07,0.194,0.137,0.295,0.202c0.146,0.094,0.297,0.183,0.455,0.266c0.097,0.052,0.194,0.104,0.295,0.151
		c0.239,0.112,0.491,0.209,0.75,0.296V4.698l2.391,0.694v23.729C31.909,29.122,31.96,29.126,32.012,29.126z"/>
	<path d="M54.862,24.911h-0.788h-0.788h-2.511h-0.788h-0.31h-0.478h-0.31h-0.788H45.59h-0.506h-0.282h-0.471h-0.316h-0.435h-2.398
		h-0.752h-0.297h-0.456H39.38h-0.21c-0.06,0.742-0.308,1.444-0.706,2.079c-0.33,0.528-0.768,1.005-1.286,1.424
		c-0.255,0.206-0.527,0.399-0.821,0.572c-0.328,0.194-0.676,0.369-1.045,0.518c-0.606,0.244-1.263,0.421-1.955,0.523
		c-0.246,0.036-0.496,0.061-0.75,0.077c-0.197,0.013-0.395,0.022-0.596,0.022c-0.052,0-0.102-0.005-0.154-0.006
		c-0.841-0.014-1.645-0.139-2.391-0.359c-0.257-0.076-0.509-0.159-0.75-0.256c-0.101-0.041-0.197-0.088-0.295-0.132
		c-0.155-0.07-0.307-0.143-0.455-0.222c-0.1-0.053-0.199-0.106-0.295-0.163c-0.266-0.157-0.515-0.33-0.75-0.514
		c-1.186-0.928-1.957-2.175-2.068-3.564H24.53h-0.75h-0.75h-2.013h-0.75h-0.75h-0.752h-0.798h-0.798h-0.042h-0.75H16.08h-0.455
		H15.33h-0.707H14.58h-0.756H13.51h-0.484h-0.314h-0.523h-0.276h-0.474h-0.75H9.369H8.57H7.772H5.711l7.404,37.793h37.793
		l7.404-37.793H54.862z M50.265,35.433l-3.926,22.452h-4.314l4.038-23.091l0.011-0.063l0.034-0.194l0.371-2.12l0.308-1.761h0.258
		h0.31h0.478h0.31h0.788h2.171l-0.407,2.326l-0.299,1.713L50.265,35.433z"/>
</g>
</svg>
