<?xml version="1.0" encoding="iso-8859-1"?>
<!-- Generator: Adobe Illustrator 17.0.0, SVG Export Plug-In . SVG Version: 6.00 Build 0)  -->
<!DOCTYPE svg PUBLIC "-//W3C//DTD SVG 1.1//EN" "http://www.w3.org/Graphics/SVG/1.1/DTD/svg11.dtd">
<svg version="1.1" id="Capa_1" xmlns="http://www.w3.org/2000/svg" xmlns:xlink="http://www.w3.org/1999/xlink" x="0px" y="0px"
	 width="64px" height="64px" viewBox="0 0 64 64" style="enable-background:new 0 0 64 64;" xml:space="preserve">
<g>
	<path d="M38.52,13.557c-5.263,1.306-9.389,6.891-12.098,10.701c-0.108,0.075-4.631,8.194-8.052,9.059
		c-1.011,0.255-1.765,1.105-1.642,2.141l0.796,6.692c0.123,1.036,1.038,1.858,2.017,2.217c1.274,0.468,7.047,1.342,9.658,1.732
		h-16.92c0.605-0.862,0.947-1.867,0.986-2.907l2.298-0.325l-1.115-7.898l-2.395,0.339c-0.363-0.938-0.977-1.754-1.801-2.374
		c-2.416-1.818-5.861-1.331-7.679,1.085c-1.561,2.074-1.001,4.717,0.599,6.627c-0.728,1.745-0.736,3.87,0.229,5.453H2.601v9.544
		h5.772v4.982h7.518v-4.982h32.218v4.982h7.518v-4.982h5.772v-9.544h-14.84c0.012-0.003,0.023-0.005,0.034-0.008
		c10.502-2.606,17.208-12.002,14.979-20.985S49.022,10.951,38.52,13.557z M4.834,35.721c0.879-1.168,2.544-1.403,3.712-0.525
		c0.586,0.441,0.952,1.095,1.031,1.841l0.155,1.458l2.305-0.326l0.323,2.289l-2.385,0.337l0.376,1.523
		c0.196,0.79,0.037,1.603-0.435,2.231c-0.879,1.168-2.544,1.403-3.712,0.525c-1.146-0.862-1.39-2.509-0.545-3.672l1.24-1.316
		l-1.534-0.648C4.191,38.554,3.955,36.889,4.834,35.721z M46.135,21.929c-4.819-1.343-8.81,0.487-10.54,5.27
		c-0.87,2.406-4.736,1.368-3.857-1.063c2.464-6.814,8.427-10.023,15.46-8.064C49.68,18.763,48.624,22.622,46.135,21.929z"/>
	<path d="M19.929,25.365c0.81-3.475,0.197-6.448-1.403-9.59c-1.933-3.796-5.209-6.858-3.597-11.41
		c0.863-2.438-3.003-3.477-3.857-1.063c-2.939,8.302,6.823,13.183,5,21C15.486,26.811,19.343,27.877,19.929,25.365z"/>
	<path d="M27.333,18.667c0.086-2.449-0.807-4.562-2.004-6.652c-1.192-2.08-3.188-4.362-1.935-6.839
		c1.161-2.296-2.289-4.321-3.454-2.019c-1.299,2.567-1.134,4.83-0.026,7.427c1.17,2.743,3.531,4.916,3.42,8.082
		C23.243,21.247,27.243,21.239,27.333,18.667z"/>
</g>
</svg>
