<?xml version="1.0" encoding="iso-8859-1"?>
<!-- Generator: Adobe Illustrator 17.0.0, SVG Export Plug-In . SVG Version: 6.00 Build 0)  -->
<!DOCTYPE svg PUBLIC "-//W3C//DTD SVG 1.1//EN" "http://www.w3.org/Graphics/SVG/1.1/DTD/svg11.dtd">
<svg version="1.1" id="Capa_1" xmlns="http://www.w3.org/2000/svg" xmlns:xlink="http://www.w3.org/1999/xlink" x="0px" y="0px"
	 width="64px" height="64px" viewBox="0 0 64 64" style="enable-background:new 0 0 64 64;" xml:space="preserve">
<g>
	<path d="M31.5,3.518c-5.262,0-17.5,0.519-17.5,5.324c0,0.055,0.01,0.107,0.013,0.162l-0.007,0.001l4.081,50.223l0.84,0.534
		c0.306,0.194,5.236,3.252,12.464,3.252c3.683,0,7.962-0.794,12.53-3.164l0.983-0.51l4.09-50.335l-0.007-0.001
		C48.99,8.949,49,8.897,49,8.842C49,4.036,36.762,3.518,31.5,3.518z M31.5,7.518c5.859,0,9.981,0.678,12.128,1.324
		c-2.148,0.646-6.269,1.325-12.128,1.325s-9.98-0.679-12.128-1.325C21.519,8.195,25.641,7.518,31.5,7.518z M41.098,56.781
		c-9.162,4.285-16.731,1.299-19.191,0.062L18.32,12.691c4.045,1.277,9.937,1.476,13.18,1.476s9.136-0.199,13.18-1.476L41.098,56.781
		z"/>
	<path d="M22,23.371l2.452,30.174c0,0,7.145,3.544,14.097,0L41,23.371c0-0.537-0.965-1.024-2.532-1.389
		c0.005,0.463,0.008,0.926,0.011,1.389c0.003,0.462,0.005,0.924,0.005,1.386c-0.002,4.312-0.154,8.628-0.8,12.88
		c-0.648,4.268-1.716,11.078-6.991,11.797c-1.919,0.262-2.125-2.732-0.217-2.992c4.557-0.621,4.667-12.028,4.829-15.27
		c0.099-1.981,0.14-3.96,0.154-5.94c0.005-0.62,0.007-1.241,0.006-1.861c-0.001-0.62-0.001-1.241-0.006-1.861
		c-1.206-0.12-2.544-0.188-3.958-0.188C26.253,21.321,22,22.239,22,23.371z"/>
</g>
</svg>
