<?xml version="1.0" encoding="iso-8859-1"?>
<!-- Generator: Adobe Illustrator 17.0.0, SVG Export Plug-In . SVG Version: 6.00 Build 0)  -->
<!DOCTYPE svg PUBLIC "-//W3C//DTD SVG 1.1//EN" "http://www.w3.org/Graphics/SVG/1.1/DTD/svg11.dtd">
<svg version="1.1" id="Capa_1" xmlns="http://www.w3.org/2000/svg" xmlns:xlink="http://www.w3.org/1999/xlink" x="0px" y="0px"
	 width="64px" height="64px" viewBox="0 0 64 64" style="enable-background:new 0 0 64 64;" xml:space="preserve">
<g>
	<path d="M11,23.675l-7.119,7.119c-2.751,2.751-3.083,6.043-1.18,7.946l0.073,0.073c1.903,1.903,5.257,1.634,8.008-1.117L11,37.478
		v8.908C11,54.686,17.642,61,25.079,61h0.287c5.666,0,10.024-3.67,11.781-9.086C29.899,51.05,26,43.155,26,35.694v0V18H11V23.675z"
		/>
	<path d="M26,16v-5H13.217C11.992,11,11,11.992,11,13.217v0.567C11,15.008,11.992,16,13.217,16H26z"/>
	<path d="M49.783,7C51.008,7,52,6.008,52,4.783V4.217C52,2.992,51.008,2,49.783,2H29.217C27.992,2,27,2.992,27,4.217v0.567
		C27,6.008,27.992,7,29.217,7H49.783z"/>
	<polygon points="38.76,52 38.76,52 38.762,52 	"/>
	<path d="M54,14.144l-1-1V9H27v2v5v2v17.694c0,7.066,3.654,14.539,10.438,15.237c0.34,0.035,0.68,0.069,1.035,0.069h0.287
		c7.319,0,14.239-7.437,14.24-15.304c0-0.001,0-0.001,0-0.002v-8.747l0.056,0.056c0.308,0.308,0.624,0.58,0.944,0.826
		c2.541,1.954,5.374,1.981,7.064,0.291l0.073-0.073c1.903-1.903,1.571-5.194-1.18-7.946L54,14.144z"/>
</g>
</svg>
