<?xml version="1.0" encoding="iso-8859-1"?>
<!-- Generator: Adobe Illustrator 17.0.0, SVG Export Plug-In . SVG Version: 6.00 Build 0)  -->
<!DOCTYPE svg PUBLIC "-//W3C//DTD SVG 1.1//EN" "http://www.w3.org/Graphics/SVG/1.1/DTD/svg11.dtd">
<svg version="1.1" id="Capa_1" xmlns="http://www.w3.org/2000/svg" xmlns:xlink="http://www.w3.org/1999/xlink" x="0px" y="0px"
	 width="64px" height="64px" viewBox="0 0 64 64" style="enable-background:new 0 0 64 64;" xml:space="preserve">
<g>
	<path d="M37.48,12.776l3.716-6.778c-0.312-0.382-1.233-1.193-3.41-1.193c-0.897,0-1.916,0.141-3.028,0.419
		c-2.597,0.649-4.315,2.992-5.405,5.281c0.766-0.282,1.558-0.436,2.37-0.436C33.809,10.069,35.761,11.044,37.48,12.776z"/>
	<path d="M14.885,15.013c-0.745-0.37-1.519-0.587-2.318-0.587c-5.554,0-10.057,9.47-10.057,21.151
		c0,11.682,4.503,21.151,10.057,21.151c0.799,0,1.573-0.217,2.318-0.587c-3.424-4.19-5.665-11.753-5.665-20.564
		C9.219,26.766,11.461,19.203,14.885,15.013z"/>
	<path d="M19.07,35.577c0-4.587,0.574-8.852,1.585-12.535c1.028-3.744,2.508-6.881,4.304-9.132c-1.176-0.906-2.446-1.4-3.772-1.4
		c-1.974,0-3.825,1.103-5.426,3.023c-3.309,3.971-5.542,11.457-5.542,20.043c0,8.587,2.233,16.072,5.542,20.043
		c1.6,1.921,3.451,3.023,5.426,3.023c1.325,0,2.596-0.494,3.772-1.4c-1.796-2.251-3.277-5.388-4.304-9.132
		C19.644,44.429,19.07,40.164,19.07,35.577z"/>
	<path d="M51.836,14.426c-0.799,0-1.573,0.217-2.318,0.587c3.424,4.19,5.665,11.753,5.665,20.564s-2.242,16.374-5.665,20.564
		c0.745,0.37,1.519,0.587,2.318,0.587c5.554,0,10.057-9.47,10.057-21.151C61.893,23.896,57.391,14.426,51.836,14.426z"/>
	<path d="M48.642,15.534c-1.6-1.92-3.451-3.023-5.426-3.023c-1.546,0-3.016,0.676-4.35,1.889c1.883,2.556,3.389,6.118,4.348,10.331
		c0.746,3.276,1.162,6.944,1.162,10.846c0,3.902-0.416,7.57-1.162,10.846c-0.959,4.213-2.464,7.775-4.348,10.331
		c1.334,1.214,2.804,1.889,4.35,1.889c1.974,0,3.825-1.103,5.426-3.023c3.309-3.971,5.542-11.457,5.542-20.043
		C54.184,26.99,51.951,19.505,48.642,15.534z"/>
	<path d="M43.376,35.577c0-3.011-0.259-5.893-0.732-8.558c-0.868-4.897-2.459-9.051-4.5-11.892c-0.093-0.13-0.187-0.256-0.282-0.38
		c-0.063-0.082-0.126-0.163-0.189-0.242c-0.05-0.063-0.101-0.123-0.152-0.184c-0.063-0.077-0.126-0.156-0.19-0.23
		c-0.117-0.135-0.237-0.263-0.356-0.391c-1.578-1.679-3.361-2.631-5.251-2.631c-1.02,0-2.009,0.277-2.951,0.795
		c-0.236,0.13-0.469,0.279-0.699,0.439c-0.244,0.169-0.485,0.355-0.722,0.557c-0.334,0.285-0.66,0.602-0.978,0.948
		c-0.12,0.131-0.239,0.264-0.356,0.403c-0.1,0.119-0.201,0.237-0.299,0.362c-1.929,2.445-3.494,6.031-4.483,10.316
		c-0.746,3.231-1.165,6.857-1.165,10.69s0.419,7.459,1.165,10.69c0.989,4.284,2.554,7.871,4.483,10.316
		c0.098,0.125,0.199,0.243,0.299,0.362c0.117,0.139,0.236,0.273,0.356,0.403c1.603,1.746,3.421,2.738,5.35,2.738
		c2.111,0,4.089-1.187,5.797-3.251c0.115-0.139,0.229-0.28,0.342-0.427c0.095-0.124,0.189-0.251,0.282-0.38
		c2.041-2.841,3.632-6.995,4.5-11.892C43.116,41.47,43.376,38.588,43.376,35.577z"/>
</g>
</svg>
