<?xml version="1.0" encoding="iso-8859-1"?>
<!-- Generator: Adobe Illustrator 17.0.0, SVG Export Plug-In . SVG Version: 6.00 Build 0)  -->
<!DOCTYPE svg PUBLIC "-//W3C//DTD SVG 1.1//EN" "http://www.w3.org/Graphics/SVG/1.1/DTD/svg11.dtd">
<svg version="1.1" id="Capa_1" xmlns="http://www.w3.org/2000/svg" xmlns:xlink="http://www.w3.org/1999/xlink" x="0px" y="0px"
	 width="64px" height="64px" viewBox="0 0 64 64" style="enable-background:new 0 0 64 64;" xml:space="preserve">
<g>
	<path d="M26.9,39.836c0.061,0.156,0.118,0.315,0.166,0.478c0.058,0.2,0.104,0.405,0.141,0.614h1.231
		c-0.115-0.356-0.218-0.715-0.304-1.077c-0.038-0.163-0.063-0.328-0.096-0.493c-0.033-0.17-0.063-0.34-0.09-0.511
		c-0.149-0.955-0.198-1.925-0.13-2.899c-0.776,0.707-1.749,1.206-2.842,1.395c0.716,0.524,1.305,1.212,1.711,2.018
		C26.764,39.516,26.836,39.674,26.9,39.836z"/>
	<path d="M23.186,37.527c-0.155-0.055-0.315-0.099-0.477-0.138c-0.008,0.042-0.012,0.084-0.02,0.125
		c-0.081,0.391-0.203,0.769-0.361,1.128c-0.4,0.909-1.035,1.696-1.831,2.286h2.92h0.691h0.697h0.1h0.659h0.608
		c-0.036-0.165-0.074-0.327-0.126-0.484c-0.058-0.175-0.122-0.346-0.199-0.511C25.318,38.804,24.362,37.941,23.186,37.527z"/>
	<path d="M22.653,35.079c0.058,0.251,0.106,0.507,0.13,0.771c0.013,0.139,0.014,0.277,0.017,0.414
		c0.003,0.001,0.006,0.001,0.008,0.002c0.16,0.042,0.322,0.078,0.488,0.103c0.369,0.055,0.747,0.081,1.137,0.044
		c1.612-0.148,2.958-1.103,3.679-2.428c0.08-0.349,0.161-0.698,0.272-1.045c0.02-0.062,0.046-0.122,0.067-0.184
		c0.055-0.162,0.114-0.321,0.175-0.48c0.01-0.026,0.018-0.052,0.028-0.077c0.014-0.143,0.004-0.291,0.004-0.436
		c0-0.145,0.017-0.287,0.004-0.434c-0.119-1.294-0.755-2.406-1.682-3.172c-0.865,0.747-1.957,1.244-3.179,1.357
		c-0.177,0.016-0.352,0.024-0.525,0.024c-0.638,0-1.245-0.122-1.818-0.315c-0.004,0.974-0.237,1.918-0.715,2.759
		C21.683,32.756,22.366,33.833,22.653,35.079z"/>
	<path d="M16.063,40.905c0.037,0.009,0.075,0.016,0.112,0.024h0.393h0.507h0.974c1.873-0.378,3.293-1.846,3.65-3.671
		c0.019-0.099,0.05-0.193,0.063-0.294c0.008-0.061,0.012-0.123,0.017-0.185c0.011-0.122,0.002-0.247,0.003-0.37
		c0-0.051,0.003-0.101,0.001-0.152c-0.003-0.106,0.013-0.209,0.003-0.316c-0.002-0.024-0.01-0.045-0.013-0.069
		c-0.132-1.234-0.727-2.302-1.602-3.053c0,0,0,0.001,0,0.001c-0.165,0.198-0.356,0.365-0.543,0.536
		c-0.129,0.119-0.256,0.238-0.394,0.344c-0.137,0.105-0.285,0.193-0.431,0.284c-0.744,0.466-1.578,0.776-2.477,0.859
		c-0.177,0.016-0.352,0.024-0.525,0.024c-0.147,0-0.286-0.029-0.43-0.04c0.019,0.123,0.041,0.245,0.053,0.37
		c0.157,1.715-0.472,3.322-1.587,4.471C14.443,40.276,15.205,40.707,16.063,40.905z"/>
	<path d="M21.339,27.938c0.014,0.062,0.031,0.122,0.043,0.184c0.706,0.314,1.493,0.475,2.326,0.394
		c0.898-0.083,1.706-0.427,2.378-0.935c0.147-0.111,0.28-0.234,0.413-0.361c0.126-0.121,0.259-0.234,0.37-0.368
		c0.768-0.921,1.185-2.134,1.067-3.42c-0.223-2.422-2.222-4.248-4.65-4.248c-0.144,0-0.287,0.006-0.433,0.02
		c-2.557,0.235-4.447,2.499-4.228,5.055c1.064,0.606,1.912,1.547,2.4,2.693c0.066,0.156,0.125,0.317,0.177,0.48
		C21.255,27.598,21.3,27.767,21.339,27.938z"/>
	<path d="M14.308,34.647c-0.045-0.195-0.105-0.382-0.173-0.566c-0.085-0.229-0.182-0.45-0.3-0.659
		c-0.04-0.071-0.086-0.139-0.129-0.208c-0.091-0.144-0.181-0.287-0.287-0.42c-0.108-0.135-0.226-0.26-0.348-0.382
		c-0.385-0.385-0.834-0.696-1.333-0.926c-0.211-0.097-0.429-0.175-0.656-0.241c-0.196-0.057-0.393-0.106-0.598-0.137
		c-0.231-0.035-0.464-0.066-0.705-0.066c-0.144,0-0.288,0.007-0.434,0.021c-1.244,0.114-2.369,0.706-3.168,1.666
		c-0.798,0.96-1.175,2.174-1.061,3.417c0.236,2.565,2.478,4.478,5.084,4.229c0.837-0.077,1.59-0.388,2.234-0.839
		c0.141-0.099,0.28-0.197,0.408-0.31c0.126-0.111,0.243-0.23,0.356-0.354c0.864-0.939,1.355-2.214,1.229-3.581
		C14.408,35.068,14.358,34.858,14.308,34.647z"/>
	<path d="M2.418,19.243c3.639,1.142,7.148,2.895,9.185,6.151c0.092,0.147,0.173,0.304,0.258,0.457
		c0.089,0.159,0.187,0.31,0.269,0.477c-0.706,0.905-1.092,2.063-0.979,3.294c0.02,0.216,0.073,0.419,0.121,0.625
		c0.989,0.267,1.874,0.79,2.57,1.506c0.12,0.124,0.236,0.253,0.345,0.387c0.105,0.129,0.203,0.264,0.296,0.403
		c0.261,0.389,0.47,0.815,0.63,1.267c0.364,0.053,0.736,0.076,1.121,0.039c0.828-0.076,1.592-0.381,2.254-0.847
		c0.155-0.109,0.302-0.226,0.444-0.354c0.137-0.125,0.274-0.251,0.397-0.393c0.009-0.01,0.019-0.017,0.028-0.027
		c0.014-0.016,0.032-0.028,0.045-0.045c0.089-0.107,0.153-0.228,0.231-0.341c0.097-0.14,0.206-0.273,0.286-0.421
		c0.435-0.8,0.625-1.711,0.543-2.638c0-0.006,0.001-0.011,0-0.017c-0.001-0.015-0.007-0.028-0.008-0.043
		c-0.021-0.203-0.066-0.397-0.111-0.591c-0.003-0.013-0.004-0.027-0.007-0.04c-0.041-0.172-0.094-0.336-0.154-0.5
		c-0.046-0.127-0.09-0.254-0.146-0.375c-0.243-0.525-0.577-0.993-0.985-1.388c-0.232-0.224-0.48-0.43-0.754-0.602
		c-0.179-0.112-0.373-0.2-0.567-0.287c-0.588-0.264-1.232-0.423-1.919-0.423c-0.144,0-0.288,0.007-0.434,0.021
		c-0.485,0.045-0.936,0.182-1.363,0.361c-0.082-0.148-0.169-0.29-0.255-0.434c-0.09-0.15-0.177-0.303-0.271-0.447
		c-2.433-3.73-6.359-5.724-10.66-7.074C1.394,16.492,1.003,18.798,2.418,19.243z"/>
	<path d="M9.168,23.524c-4.785-4.859-7.418,6.078-7.418,6.078C4.942,31.362,13.953,28.383,9.168,23.524z"/>
	<path d="M61.428,11.915c-4.061,0.351-7.947,1.249-11.093,3.559c-0.233,0.171-0.461,0.353-0.686,0.541
		c-0.229,0.191-0.453,0.392-0.673,0.6c-0.5-0.125-1.003-0.204-1.503-0.204c-2.848,0-5.55,1.958-6.519,4.989
		c-0.051,0.161-0.09,0.322-0.13,0.483c-0.253,0.751-0.966,2.214-2.863,3.165c-2.641,1.323-4.011,2.613-4.011,2.613l0.005,0.003
		c-1.587,1.18-2.869,2.731-3.693,4.577c-0.071,0.159-0.14,0.318-0.203,0.481c-0.06,0.153-0.116,0.308-0.17,0.464
		c-0.024,0.071-0.054,0.139-0.077,0.211c-0.556,1.739-0.656,3.521-0.386,5.244c0.027,0.169,0.057,0.338,0.09,0.505
		c0.035,0.171,0.067,0.342,0.109,0.511c0.107,0.43,0.24,0.853,0.393,1.271h0.843h0.709h0.681h0.402h0.679h0.659h21.799
		c0.531-2.133,0.414-4.309-0.239-6.341l0.01,0.001c0,0-0.303-1.839-1.686-4.45c-1.095-2.067-0.703-3.822-0.492-4.465
		c0.032-0.089,0.07-0.174,0.099-0.265c0.074-0.231,0.136-0.463,0.187-0.695c-1.345-0.883-2.424-2.044-2.807-3.339
		c-0.227-0.767-0.337-2.059,0.709-3.409c-0.073-0.065-0.152-0.124-0.228-0.186c0.199-0.162,0.402-0.319,0.61-0.467
		c0.214-0.152,0.432-0.297,0.654-0.435c0.114-0.071,0.233-0.135,0.349-0.202c0.099-0.07,0.195-0.141,0.302-0.211
		c0.735-0.477,1.446-0.776,2.123-0.896c1.883-0.665,3.915-1.008,5.944-1.183C62.893,14.252,63.017,11.778,61.428,11.915z"/>
	<path d="M56.043,16.51c-0.64,0-1.38,0.238-2.238,0.795c-0.168,0.109-0.324,0.219-0.47,0.329c-0.214,0.162-0.397,0.326-0.565,0.491
		c-0.192,0.188-0.362,0.378-0.498,0.568c-1.268,1.769-0.23,3.603,1.548,4.911c0.228,0.168,0.467,0.327,0.716,0.476
		c0.226,0.135,0.459,0.263,0.697,0.382c1.221,0.605,2.568,0.972,3.711,0.972c0.411,0,0.795-0.047,1.137-0.148
		C60.081,25.285,59.92,16.51,56.043,16.51z"/>
	<path d="M34.592,41.929h-0.576h-0.568h-2.25h-0.767h-0.134h-0.68h-0.805h-0.015h-1.502h-0.485h-0.038h-0.498H25.45h-0.064h-0.504
		h-0.41h-0.166h-6.044h-1.294h-0.496h-0.478h-0.022H6.651c0,14.389,11.664,17.818,26.053,17.818
		c14.389,0,26.053-3.429,26.053-17.818h-1.686H56.29h-0.799H34.592z"/>
</g>
</svg>
