<?xml version="1.0" encoding="iso-8859-1"?>
<!-- Generator: Adobe Illustrator 17.0.0, SVG Export Plug-In . SVG Version: 6.00 Build 0)  -->
<!DOCTYPE svg PUBLIC "-//W3C//DTD SVG 1.1//EN" "http://www.w3.org/Graphics/SVG/1.1/DTD/svg11.dtd">
<svg version="1.1" id="Capa_1" xmlns="http://www.w3.org/2000/svg" xmlns:xlink="http://www.w3.org/1999/xlink" x="0px" y="0px"
	 width="64px" height="64px" viewBox="0 0 64 64" style="enable-background:new 0 0 64 64;" xml:space="preserve">
<g>
	<path d="M12.929,60.461c3.115,0,5.822-1.768,7.181-4.351c-1.346-1.204-2.349-2.776-2.851-4.562c-0.667,0.147-1.357,0.23-2.067,0.23
		c-3.552,0-6.652-1.941-8.316-4.812c-1.277,1.434-2.06,3.316-2.06,5.383C4.815,56.822,8.455,60.461,12.929,60.461z"/>
	<path d="M7.679,45.219c0.097,0.238,0.206,0.471,0.325,0.697c1.357,2.589,4.067,4.362,7.187,4.362c0.609,0,1.201-0.073,1.773-0.201
		c-0.043-0.369-0.071-0.743-0.071-1.123c0-1.164,0.218-2.275,0.599-3.308c0.089-0.24,0.185-0.476,0.292-0.707
		c0.105-0.227,0.214-0.451,0.336-0.668c0.578-1.031,1.338-1.946,2.24-2.699c-4.081-0.207-7.501-2.959-8.681-6.707
		c-2.717,1.313-4.6,4.087-4.6,7.301c0,0.805,0.122,1.582,0.341,2.317C7.495,44.734,7.582,44.979,7.679,45.219z"/>
	<path d="M24.752,43.162c-0.313-0.607-0.56-1.251-0.739-1.924c-0.003,0.001-0.005,0.002-0.008,0.003
		c-0.25,0.081-0.495,0.174-0.734,0.278c-1.696,0.741-3.09,2.044-3.947,3.674c-0.121,0.23-0.231,0.465-0.329,0.707
		c-0.104,0.254-0.194,0.515-0.272,0.782c-0.211,0.722-0.33,1.483-0.33,2.273c0,0.219,0.016,0.433,0.033,0.647
		c0.021,0.262,0.055,0.519,0.1,0.773c0.044,0.249,0.1,0.494,0.167,0.734c0.37,1.341,1.072,2.545,2.019,3.513
		c0.193,0.198,0.395,0.387,0.608,0.564c0.2,0.167,0.408,0.324,0.624,0.471c1.301,0.889,2.872,1.41,4.563,1.41
		c4.473,0,8.112-3.639,8.112-8.113c0-0.225-0.016-0.446-0.034-0.667c-0.423,0.057-0.852,0.097-1.29,0.097
		C29.575,48.384,26.35,46.258,24.752,43.162z"/>
	<path d="M12.9,33.613c0.051,0.247,0.115,0.489,0.187,0.727c1.012,3.327,4.107,5.756,7.761,5.756c0.729,0,1.432-0.106,2.104-0.287
		c0.243-0.066,0.482-0.142,0.716-0.229c0.018-0.007,0.035-0.013,0.053-0.019c-0.021-0.261-0.04-0.523-0.04-0.789
		c0-0.336,0.018-0.668,0.052-0.996c0.238-2.3,1.293-4.359,2.866-5.889c-0.973-1.365-1.598-2.991-1.745-4.754
		c-1.221,0.563-2.575,0.886-4.006,0.886c-2.11,0-4.058-0.692-5.645-1.85c-1.519,1.475-2.467,3.534-2.467,5.814
		c0,0.3,0.019,0.595,0.051,0.887C12.814,33.121,12.85,33.37,12.9,33.613z"/>
	<path d="M35.785,46.489c1.506-0.488,2.821-1.403,3.799-2.605c-2.111-1.765-3.458-4.415-3.458-7.375
		c0-0.248,0.019-0.492,0.037-0.736c-0.565,0.104-1.144,0.166-1.738,0.166c-1.588,0-3.084-0.394-4.405-1.078
		c-0.23-0.119-0.452-0.25-0.671-0.386c-0.226-0.141-0.445-0.292-0.658-0.451c-0.402-0.3-0.783-0.625-1.133-0.983
		c-1.468,1.469-2.377,3.496-2.377,5.732c0,0.019,0.003,0.038,0.003,0.057c0.001,0.206,0.014,0.408,0.031,0.61
		c0.007,0.08,0.011,0.16,0.02,0.239c0.019,0.17,0.048,0.337,0.077,0.504c0.017,0.095,0.03,0.19,0.05,0.284
		c0.032,0.152,0.075,0.3,0.116,0.449c0.943,3.435,4.086,5.97,7.816,5.97c0.349,0,0.69-0.03,1.028-0.073
		c0.251-0.032,0.499-0.073,0.742-0.128C35.308,46.629,35.549,46.565,35.785,46.489z"/>
	<path d="M15.772,24.725c0.208,0.167,0.424,0.324,0.648,0.47c1.275,0.835,2.795,1.324,4.428,1.324c1.459,0,2.825-0.392,4.009-1.069
		c0.015-0.16,0.039-0.316,0.062-0.473c0.038-0.268,0.083-0.532,0.143-0.792c0.057-0.248,0.116-0.495,0.192-0.736
		c0.647-2.058,1.971-3.816,3.706-5.021c0-0.007,0.001-0.014,0.001-0.022c0-4.473-3.64-8.112-8.113-8.112
		c-4.473,0-8.112,3.639-8.112,8.112c0,2.279,0.948,4.339,2.467,5.814C15.384,24.397,15.574,24.566,15.772,24.725z"/>
	<path d="M26.635,24.082c-0.019,0.068-0.035,0.137-0.053,0.205c-0.069,0.264-0.124,0.533-0.166,0.806
		c-0.012,0.077-0.026,0.153-0.035,0.23c-0.028,0.229-0.044,0.461-0.053,0.696c-0.004,0.095-0.014,0.189-0.014,0.286
		c0,0.007-0.001,0.015-0.001,0.022c0,1.709,0.534,3.294,1.441,4.603c0.142,0.205,0.291,0.403,0.45,0.593
		c0.162,0.194,0.332,0.38,0.511,0.558c0.074,0.073,0.154,0.139,0.231,0.21c0.229,0.21,0.468,0.407,0.72,0.59
		c0.222,0.162,0.452,0.312,0.69,0.451c1.198,0.699,2.586,1.106,4.07,1.106c0.691,0,1.358-0.096,1.999-0.259
		c0.213-0.851,0.535-1.658,0.958-2.403c0.124-0.218,0.251-0.435,0.391-0.643c0.14-0.207,0.293-0.404,0.449-0.6
		c1.091-1.37,2.548-2.43,4.222-3.044c0.055-0.381,0.093-0.768,0.093-1.164c0-2.169-0.861-4.138-2.253-5.595
		c0.101-0.256,0.198-0.513,0.309-0.761c0.106-0.238,0.225-0.466,0.34-0.697c2.95-5.929,8.706-9.48,14.765-12.011
		c2.344-0.979,1.316-4.851-1.063-3.857c-7.156,2.99-13.563,7.031-17.117,13.83c-0.115,0.22-0.22,0.45-0.329,0.675
		c-0.109,0.227-0.226,0.446-0.329,0.679c-0.769-0.243-1.587-0.375-2.436-0.375c-1.458,0-2.824,0.392-4.008,1.069
		c-0.289,0.165-0.565,0.35-0.831,0.548c-0.336,0.251-0.655,0.522-0.947,0.82C27.709,21.599,27.013,22.773,26.635,24.082z"/>
	<path d="M40.428,42.628c0.191,0.166,0.39,0.322,0.596,0.47c0.202,0.145,0.411,0.28,0.626,0.406
		c1.202,0.706,2.597,1.117,4.089,1.117c4.473,0,8.112-3.639,8.112-8.112c0-4.474-3.64-8.113-8.112-8.113
		c-0.691,0-1.358,0.096-1.999,0.259c-0.286,0.073-0.567,0.161-0.84,0.263c-0.326,0.122-0.645,0.26-0.95,0.422
		c-0.966,0.513-1.817,1.214-2.503,2.056c-0.157,0.193-0.307,0.393-0.446,0.6c-0.142,0.212-0.276,0.431-0.398,0.656
		c-0.147,0.271-0.274,0.553-0.39,0.842c-0.129,0.32-0.233,0.651-0.321,0.989c-0.073,0.282-0.13,0.568-0.173,0.861
		c-0.055,0.381-0.093,0.768-0.093,1.164C37.626,38.951,38.716,41.139,40.428,42.628z"/>
	<path d="M60.167,24.667c0,0-6.203-18.239-13.601-9.203C39.167,24.5,55,28.167,60.167,24.667z"/>
</g>
</svg>
