<?xml version="1.0" encoding="iso-8859-1"?>
<!-- Generator: Adobe Illustrator 17.0.0, SVG Export Plug-In . SVG Version: 6.00 Build 0)  -->
<!DOCTYPE svg PUBLIC "-//W3C//DTD SVG 1.1//EN" "http://www.w3.org/Graphics/SVG/1.1/DTD/svg11.dtd">
<svg version="1.1" id="Capa_1" xmlns="http://www.w3.org/2000/svg" xmlns:xlink="http://www.w3.org/1999/xlink" x="0px" y="0px"
	 width="64px" height="64px" viewBox="0 0 64 64" style="enable-background:new 0 0 64 64;" xml:space="preserve">
<g>
	<path d="M4.845,41.726c-0.015,0-0.029,0.004-0.043,0.004c-1.134,0.024-2.056,0.948-1.968,2.084
		c1.105,14.271,13.839,15.183,29.384,15.183s28.279-0.912,29.384-15.183c0.088-1.136-0.834-2.06-1.968-2.084
		c-0.015,0-0.028-0.004-0.043-0.004h-0.598h-0.768c0.982-0.771,1.625-1.955,1.625-3.3c0-1.281-0.585-2.414-1.488-3.186h0.724h0.504
		c0.044,0,0.086-0.01,0.13-0.013c1.093-0.068,1.964-0.969,1.887-2.075C60.536,17.854,47.788,5.777,32.218,5.777
		S3.9,17.854,2.829,33.151c-0.078,1.107,0.794,2.007,1.887,2.075c0.044,0.003,0.085,0.013,0.13,0.013h0.504h0.724
		c-0.903,0.772-1.488,1.905-1.488,3.186c0,1.345,0.643,2.529,1.625,3.3H5.443H4.845z M32.218,8.777
		c13.459,0,24.797,10.217,26.294,23.462H5.924C7.421,18.995,18.759,8.777,32.218,8.777z M5.946,44.726h52.545
		c-1.306,9.61-9.337,11.271-26.272,11.271S7.252,54.336,5.946,44.726z"/>
	<path d="M32.719,22.687c1.307,0.011,2.925-1.221,2.392-2.849l-2.337-4.592l-2.397,4.552C29.891,21.394,31.412,22.676,32.719,22.687
		z"/>
	<path d="M47.173,19.801c0.993-0.85,1.404-2.841-0.067-3.719l-4.779-1.928l1.182,5.007C44.191,20.683,46.18,20.651,47.173,19.801z"
		/>
	<path d="M20.807,19.244l1.594-4.9l-4.913,1.524c-1.472,0.786-1.303,2.767-0.386,3.699S20.033,20.772,20.807,19.244z"/>
</g>
</svg>
