<?xml version="1.0" encoding="iso-8859-1"?>
<!-- Generator: Adobe Illustrator 17.0.0, SVG Export Plug-In . SVG Version: 6.00 Build 0)  -->
<!DOCTYPE svg PUBLIC "-//W3C//DTD SVG 1.1//EN" "http://www.w3.org/Graphics/SVG/1.1/DTD/svg11.dtd">
<svg version="1.1" id="Capa_1" xmlns="http://www.w3.org/2000/svg" xmlns:xlink="http://www.w3.org/1999/xlink" x="0px" y="0px"
	 width="64px" height="64px" viewBox="0 0 64 64" style="enable-background:new 0 0 64 64;" xml:space="preserve">
<g>
	<path d="M56.641,23.738h-3.208V21.08h1.124c1.95,0,3.73-1.368,4.233-3.252l0.788-2.954l1.006-3.773H56.68H21.542h-3.905
		l1.006,3.773l0.788,2.953c0.207,0.777,0.639,1.457,1.203,1.999c-0.02,0.003-0.039,0.005-0.059,0.008
		c-1.894,0.191-3.664,0.748-5.294,1.595C6.825,25.207,0.262,34.145,2.142,44.115c0.569,3.018,7.293,2.204,7.332-0.705
		c0.081-6.154,2.422-14.289,8.261-17.223c0.486-0.203,0.987-0.377,1.493-0.536c-0.014,0.064-0.036,0.126-0.044,0.191l-3.694,26.154
		c-0.152,1.162,0.675,2.104,1.847,2.104h43.549c1.172,0,1.999-0.942,1.847-2.104l-3.694-26.154
		C58.886,24.68,57.813,23.738,56.641,23.738z M56.68,14.101l-0.788,2.953c-0.151,0.566-0.748,1.025-1.334,1.025H23.664
		c-0.586,0-1.183-0.459-1.334-1.025l-0.788-2.953H56.68z M18.646,51.101l3.441-24.362h34.048l3.441,24.362H18.646z"/>
	<path d="M52.663,28.17H30.707c0.094,0.251,0.139,0.541,0.118,0.873c-0.269,4.106-2.212,11.254,2.132,13.817
		c2.354,1.389,0.221,5.058-2.142,3.664c-6.242-3.683-4.63-11.427-4.234-17.481c0.022-0.332,0.106-0.622,0.233-0.873h-1.256
		c-0.83,0-1.59,0.667-1.697,1.49l-2.616,18.519c-0.107,0.823,0.478,1.49,1.308,1.49h33.114c0.83,0,1.415-0.667,1.308-1.49
		L54.36,29.66C54.252,28.837,53.492,28.17,52.663,28.17z"/>
</g>
</svg>
