<?xml version="1.0" encoding="iso-8859-1"?>
<!-- Generator: Adobe Illustrator 17.0.0, SVG Export Plug-In . SVG Version: 6.00 Build 0)  -->
<!DOCTYPE svg PUBLIC "-//W3C//DTD SVG 1.1//EN" "http://www.w3.org/Graphics/SVG/1.1/DTD/svg11.dtd">
<svg version="1.1" id="Capa_1" xmlns="http://www.w3.org/2000/svg" xmlns:xlink="http://www.w3.org/1999/xlink" x="0px" y="0px"
	 width="64px" height="64px" viewBox="0 0 64 64" style="enable-background:new 0 0 64 64;" xml:space="preserve">
<g>
	<path d="M39.437,24.36c-8.175,0-15.419,3.953-19.948,10.046c-2.362-5.727-7.812-9.915-14.317-10.366l-0.237-0.008
		c-1.894,0-3.435,1.556-3.435,3.468V54c0,1.912,1.541,3.468,3.435,3.468l0.238-0.008c6.505-0.451,11.955-4.639,14.316-10.366
		c4.529,6.092,11.773,10.046,19.948,10.046c10.754,0,19.911-6.831,23.373-16.389C59.348,31.191,50.191,24.36,39.437,24.36z
		 M6.5,52.233V29.267c5.304,1.153,9.25,5.907,9.25,11.483S11.803,51.08,6.5,52.233z M21.474,40.75
		c3.248-6.881,10.251-11.39,17.963-11.39c0.808,0,1.607,0.061,2.396,0.157v22.465c-0.789,0.097-1.588,0.157-2.396,0.157
		C31.725,52.139,24.723,47.631,21.474,40.75z M46.833,50.69V30.81c4.584,1.85,8.408,5.365,10.567,9.94
		C55.241,45.325,51.417,48.841,46.833,50.69z"/>
	<circle cx="51.167" cy="38.833" r="2.685"/>
	<path d="M25.259,6.477c2.065-1.5,0.072-4.973-2.019-3.454c-2.492,1.81-4.239,4.162-3.632,7.388c0.549,2.918,3.168,5.95,0.477,8.424
		c-1.902,1.75,0.934,4.571,2.828,2.828c2.131-1.96,2.818-4.264,2.227-7.076C24.5,11.533,21.966,8.87,25.259,6.477z"/>
	<path d="M35.259,6.477c2.065-1.5,0.072-4.973-2.019-3.454c-2.492,1.81-4.239,4.162-3.632,7.388c0.549,2.918,3.168,5.95,0.477,8.424
		c-1.902,1.75,0.934,4.571,2.828,2.828c2.131-1.96,2.818-4.264,2.227-7.076C34.5,11.533,31.966,8.87,35.259,6.477z"/>
	<path d="M45.259,6.477c2.065-1.5,0.072-4.973-2.019-3.454c-2.492,1.81-4.239,4.162-3.632,7.388c0.549,2.918,3.168,5.95,0.477,8.424
		c-1.902,1.75,0.934,4.571,2.828,2.828c2.131-1.96,2.818-4.264,2.227-7.076C44.5,11.533,41.966,8.87,45.259,6.477z"/>
</g>
</svg>
