<?xml version="1.0" encoding="iso-8859-1"?>
<!-- Generator: Adobe Illustrator 17.0.0, SVG Export Plug-In . SVG Version: 6.00 Build 0)  -->
<!DOCTYPE svg PUBLIC "-//W3C//DTD SVG 1.1//EN" "http://www.w3.org/Graphics/SVG/1.1/DTD/svg11.dtd">
<svg version="1.1" id="Capa_1" xmlns="http://www.w3.org/2000/svg" xmlns:xlink="http://www.w3.org/1999/xlink" x="0px" y="0px"
	 width="64px" height="64px" viewBox="0 0 64 64" style="enable-background:new 0 0 64 64;" xml:space="preserve">
<g>
	<path d="M58.75,34.375c0.04,0.941,0.048,2.066-0.851,2.611c-0.532,0.323-1.218,0.339-1.899,0.24V30H9v7.248
		c-0.62,0.07-1.234,0.032-1.718-0.262c-0.899-0.545-0.891-1.67-0.851-2.611c0.082-1.935-2.918-1.927-3,0
		c-0.082,1.935,0.443,4.241,2.337,5.201c1.033,0.524,2.13,0.677,3.233,0.619v9.531C9,55.953,14.19,61,20.592,61h24.15
		C51.143,61,56,55.953,56,49.727v-9.543c1.164,0.086,2.324-0.055,3.413-0.608c1.894-0.961,2.419-3.266,2.337-5.201
		C61.668,32.448,58.668,32.44,58.75,34.375z"/>
	<path d="M9,28.113h47v-4.242H36.185c-0.183-0.673-0.532-1.275-1.018-1.747v-3.101h-5.333v3.101
		c-0.486,0.472-0.836,1.074-1.018,1.747H9V28.113z"/>
	<path d="M17.196,4.429c-1.743,1.81-2.509,4.029-1.734,6.49c0.789,2.505,3.227,5.366,1.55,7.958
		c-1.041,1.611,1.299,3.491,2.35,1.865c1.397-2.161,1.522-4.186,0.696-6.599c-0.995-2.905-3.14-5.123-0.513-7.85
		C20.89,4.9,18.527,3.048,17.196,4.429z"/>
	<path d="M24.756,3.056c-1.539,1.973-1.964,3.994-1.472,6.439c0.624,3.097,2.475,5.881,0.556,8.933
		c-1.019,1.621,1.32,3.503,2.35,1.865c1.415-2.251,1.833-4.386,1.29-7.001c-0.602-2.902-2.493-5.655-0.375-8.371
		C28.296,3.395,25.947,1.529,24.756,3.056z"/>
</g>
</svg>
