<?xml version="1.0" encoding="iso-8859-1"?>
<!-- Generator: Adobe Illustrator 17.0.0, SVG Export Plug-In . SVG Version: 6.00 Build 0)  -->
<!DOCTYPE svg PUBLIC "-//W3C//DTD SVG 1.1//EN" "http://www.w3.org/Graphics/SVG/1.1/DTD/svg11.dtd">
<svg version="1.1" id="Capa_1" xmlns="http://www.w3.org/2000/svg" xmlns:xlink="http://www.w3.org/1999/xlink" x="0px" y="0px"
	 width="64px" height="64px" viewBox="0 0 64 64" style="enable-background:new 0 0 64 64;" xml:space="preserve">
<g>
	<path d="M54.817,22.149c0.077-0.428,0.12-0.869,0.12-1.321c0-1.457-0.42-2.809-1.134-3.928c-0.341-0.535-0.748-1.017-1.211-1.429
		c-1.114-0.992-2.541-1.589-4.095-1.589c-1.54,0-2.954,0.587-4.064,1.562c-0.34,0.299-0.651,0.634-0.928,1
		c-0.046,0.06-0.086,0.125-0.13,0.187c-0.044-0.062-0.084-0.127-0.13-0.187c-0.277-0.366-0.588-0.701-0.928-1
		c-1.109-0.976-2.524-1.562-4.064-1.562s-2.954,0.587-4.063,1.562c-0.34,0.299-0.651,0.634-0.928,1
		c-0.046,0.06-0.086,0.125-0.13,0.187c-0.044-0.062-0.084-0.127-0.13-0.187c-0.277-0.366-0.588-0.701-0.928-1
		c-1.109-0.976-2.523-1.562-4.063-1.562s-2.954,0.587-4.063,1.562c-0.34,0.299-0.651,0.634-0.928,1
		c-0.046,0.06-0.086,0.125-0.13,0.187c-0.044-0.062-0.084-0.127-0.13-0.187c-0.277-0.366-0.588-0.701-0.928-1
		c-1.109-0.976-2.523-1.562-4.063-1.562c-1.554,0-2.982,0.596-4.095,1.588c-0.46,0.409-0.864,0.888-1.203,1.417
		c-0.719,1.12-1.142,2.477-1.142,3.94c0,0.305,0.025,0.603,0.06,0.898L3.84,56.459c-0.069,0.429,0.029,0.874,0.281,1.17
		C4.327,57.872,4.62,58,4.97,58h55.049c0.354,0,0.655-0.132,0.872-0.383c0.265-0.304,0.377-0.757,0.309-1.242L54.817,22.149z"/>
</g>
</svg>
