<?xml version="1.0" encoding="iso-8859-1"?>
<!-- Generator: Adobe Illustrator 17.0.0, SVG Export Plug-In . SVG Version: 6.00 Build 0)  -->
<!DOCTYPE svg PUBLIC "-//W3C//DTD SVG 1.1//EN" "http://www.w3.org/Graphics/SVG/1.1/DTD/svg11.dtd">
<svg version="1.1" id="Capa_1" xmlns="http://www.w3.org/2000/svg" xmlns:xlink="http://www.w3.org/1999/xlink" x="0px" y="0px"
	 width="64px" height="64px" viewBox="0 0 64 64" style="enable-background:new 0 0 64 64;" xml:space="preserve">
<g>
	<path d="M59.544,27.049c-2.568-2.622-8.208-2.738-27.376-2.738c-14.174,0-28.83,0-28.83,10.237c0,0.398,0.052,0.789,0.127,1.175
		c-0.046,0.254-0.088,0.511-0.116,0.779c-0.396,3.821,0.757,7.263,3.43,10.228c7.013,7.777,23.2,10.537,34.933,10.537
		c12.437,0,19.286-7.301,19.286-20.559c0-0.529,0.01-1.023,0.02-1.485c0.014-0.68,0.022-1.329-0.003-1.953
		c0.001-0.066,0.001-0.143,0.003-0.207C61.064,30.691,61.106,28.643,59.544,27.049z M56.687,29.848
		c0.386,0.395,0.361,1.603,0.33,3.134c-0.002,0.086-0.002,0.19-0.004,0.278c-0.008,0.41-0.017,0.829-0.017,1.288
		c0,4.34-0.536,8.379-5.188,10.557c1.344-3.123,2.587-7.677,2.712-13.903c0.013-0.659,0.016-1.332,0.003-2.029
		c-0.001-0.045,0.001-0.086,0-0.132c0.814,0.155,1.44,0.343,1.836,0.572C56.489,29.687,56.606,29.764,56.687,29.848z M15.383,29.106
		c-0.003,0.061-0.011,0.126-0.017,0.189c-0.066,0.658-0.316,1.424-0.63,2.144c-0.368,0.842-0.808,1.61-1.095,2.035
		c-1.085,1.594-0.677,3.767,0.915,4.856c0.604,0.415,1.294,0.613,1.976,0.613c1.115,0,2.212-0.532,2.89-1.521
		c0.262-0.382,2.268-3.402,2.826-6.776c0.091-0.55,0.147-1.108,0.147-1.667c0-0.118-0.023-0.229-0.035-0.344
		c-0.005-0.054-0.009-0.109-0.016-0.162c2.99-0.134,6.304-0.162,9.825-0.162c6.032,0,11.296,0.001,15.408,0.143
		c-0.009,0.053-0.006,0.109-0.013,0.164c-0.018,0.157-0.04,0.313-0.037,0.476c0.012,0.526,0.006,1.022,0,1.52
		c-0.113,10.459-3.975,14.922-4.123,15.087c-0.307,0.319-0.534,0.685-0.696,1.071c-0.327,0.007-0.654,0.013-0.996,0.013
		c-0.805,0-1.621-0.022-2.442-0.058c1.682-2.982,3.223-7.11,3.952-12.747c0.187-1.447-0.539-2.799-1.729-3.483
		c-0.387-0.222-0.822-0.376-1.292-0.437c-0.766-0.102-1.505,0.066-2.138,0.418c-0.938,0.522-1.634,1.458-1.782,2.603
		c-0.915,7.076-3.265,10.912-4.939,12.821c-1.343-0.217-2.674-0.472-3.983-0.755c2.375-3.06,4.509-7.023,4.722-11.559
		c0.061-1.304-0.609-2.462-1.639-3.113c-0.495-0.312-1.066-0.518-1.693-0.547c-0.766-0.038-1.484,0.187-2.083,0.583
		c-0.9,0.596-1.523,1.59-1.578,2.749c-0.164,3.489-2.527,7.074-5.234,9.845c-6.28-2.099-11.07-4.816-12.234-7.388
		c-0.178-0.394-0.281-0.785-0.281-1.17c0-1.383,0.623-2.459,1.754-3.299C10.479,30.218,12.636,29.543,15.383,29.106z"/>
	<path d="M26.914,18.164c1.584-2.043,2.262-4.003,1.738-6.575c-0.518-2.54-2.276-4.157-0.425-6.58
		c1.567-2.051-1.91-4.039-3.454-2.019c-1.392,1.822-1.766,3.78-1.255,6c0.517,2.246,2.263,4.158,0.568,6.345
		C22.526,17.347,25.335,20.201,26.914,18.164z"/>
	<path d="M35.914,18.164c1.584-2.043,2.262-4.003,1.738-6.575c-0.518-2.54-2.276-4.157-0.425-6.58
		c1.567-2.051-1.91-4.039-3.454-2.019c-1.392,1.822-1.766,3.78-1.255,6c0.517,2.246,2.263,4.158,0.568,6.345
		C31.526,17.347,34.335,20.201,35.914,18.164z"/>
	<path d="M43.914,18.164c1.584-2.043,2.262-4.003,1.738-6.575c-0.518-2.54-2.276-4.157-0.425-6.58
		c1.567-2.051-1.91-4.039-3.454-2.019c-1.392,1.822-1.766,3.78-1.255,6c0.517,2.246,2.263,4.158,0.568,6.345
		C39.526,17.347,42.335,20.201,43.914,18.164z"/>
</g>
</svg>
