<?xml version="1.0" encoding="iso-8859-1"?>
<!-- Generator: Adobe Illustrator 17.0.0, SVG Export Plug-In . SVG Version: 6.00 Build 0)  -->
<!DOCTYPE svg PUBLIC "-//W3C//DTD SVG 1.1//EN" "http://www.w3.org/Graphics/SVG/1.1/DTD/svg11.dtd">
<svg version="1.1" id="Capa_1" xmlns="http://www.w3.org/2000/svg" xmlns:xlink="http://www.w3.org/1999/xlink" x="0px" y="0px"
	 width="64px" height="64px" viewBox="0 0 64 64" style="enable-background:new 0 0 64 64;" xml:space="preserve">
<g>
	<path d="M19,31.441h-1.67L6.333,20.955c-0.999-0.951-2.581-0.914-3.535,0.084c-0.952,1-0.915,2.582,0.084,3.535l13.974,13.325
		v3.818H19v7.261C19,54.513,24.088,59,29.779,59h21.469C56.94,59,61,54.513,61,48.978V31H19V31.441z M50.265,51.507
		c4.403-1.637,3.127-9.788,2.992-13.399c-0.086-2.294,3.471-2.286,3.556,0c0.216,5.764,1.065,14.349-5.602,16.828
		C49.056,55.737,48.135,52.299,50.265,51.507z"/>
	<path d="M28.301,10.388c-1.391,1.756-1.828,3.438-0.924,5.531c0.977,2.262,3.291,3.716,2.021,6.427
		c-0.707,1.508,1.533,2.828,2.244,1.312c0.947-2.021,0.986-3.85-0.012-5.854c-0.938-1.885-3.177-3.448-1.491-5.578
		C31.167,10.926,29.341,9.074,28.301,10.388z"/>
	<path d="M37.397,10.388c-1.39,1.756-1.828,3.438-0.924,5.531c0.977,2.262,3.292,3.716,2.021,6.427
		c-0.707,1.508,1.533,2.828,2.244,1.312c0.947-2.021,0.986-3.85-0.012-5.854c-0.938-1.885-3.177-3.448-1.491-5.578
		C40.263,10.926,38.437,9.074,37.397,10.388z"/>
	<path d="M46.493,10.388c-1.39,1.756-1.828,3.438-0.924,5.531c0.977,2.262,3.291,3.716,2.021,6.427
		c-0.707,1.508,1.533,2.828,2.244,1.312c0.947-2.021,0.986-3.85-0.012-5.854c-0.938-1.885-3.177-3.448-1.491-5.578
		C49.359,10.926,47.533,9.074,46.493,10.388z"/>
</g>
</svg>
