<?xml version="1.0" encoding="iso-8859-1"?>
<!-- Generator: Adobe Illustrator 17.0.0, SVG Export Plug-In . SVG Version: 6.00 Build 0)  -->
<!DOCTYPE svg PUBLIC "-//W3C//DTD SVG 1.1//EN" "http://www.w3.org/Graphics/SVG/1.1/DTD/svg11.dtd">
<svg version="1.1" id="Capa_1" xmlns="http://www.w3.org/2000/svg" xmlns:xlink="http://www.w3.org/1999/xlink" x="0px" y="0px"
	 width="64px" height="64px" viewBox="0 0 64 64" style="enable-background:new 0 0 64 64;" xml:space="preserve">
<g>
	<path d="M60.667,1.917H2.583V60h58.083v-2.988c-2.754,0.398-6.447,0.654-11.415,0.654c-19.445,0-19.445-3.905-19.445-5.003
		c0-0.64,2.971-0.866,7.567-0.945c-1.923-1.573-3.358-3.555-4.427-5.78c-8.726-0.232-12.187-4.005-12.187-8.64
		c0-4.039,2.631-7.422,9.079-8.381c-0.031-1.507-0.032-2.953-0.032-4.288h30.86V1.917z M39.584,20.383
		c-1.038-3.5-5.636-3.56-8.572-4.412c-3.153-0.916-4.958-3.101-4.524-6.454c0.188-1.452,2.494-1.47,2.304,0
		c-0.524,4.055,3.207,4.351,6.303,5.08c3.015,0.711,5.771,2.002,6.711,5.173C42.229,21.199,40.005,21.804,39.584,20.383z
		 M46.071,19.501C45.297,12.496,29.834,16,33.056,6.907c0.493-1.39,2.719-0.792,2.222,0.612c-1.413,3.987,3.957,4.472,6.69,5.386
		c3.284,1.098,6.002,2.933,6.406,6.595C48.537,20.977,46.232,20.961,46.071,19.501z"/>
	<path d="M25.762,37.39c0.045,2.477,1.355,4.151,5.734,4.719c-0.874-3.006-1.297-6.228-1.499-9.343
		C26.774,33.567,25.723,35.236,25.762,37.39z"/>
</g>
</svg>
