<?xml version="1.0" encoding="iso-8859-1"?>
<!-- Generator: Adobe Illustrator 17.0.0, SVG Export Plug-In . SVG Version: 6.00 Build 0)  -->
<!DOCTYPE svg PUBLIC "-//W3C//DTD SVG 1.1//EN" "http://www.w3.org/Graphics/SVG/1.1/DTD/svg11.dtd">
<svg version="1.1" id="Capa_1" xmlns="http://www.w3.org/2000/svg" xmlns:xlink="http://www.w3.org/1999/xlink" x="0px" y="0px"
	 width="64px" height="64px" viewBox="0 0 64 64" style="enable-background:new 0 0 64 64;" xml:space="preserve">
<g>
	<path d="M18.338,42.159l1.269,17.561c0.042,0.988,0.868,1.78,1.842,1.78h19.093c0.974,0,1.8-0.792,1.841-1.765l1.271-17.576h-2.326
		c-1.59,4.165-5.616,7.136-10.332,7.136c-4.716,0-8.742-2.971-10.332-7.136H18.338z"/>
	<path d="M30.996,47.294c4.615,0,8.415-3.45,8.985-7.91v-2.314c-0.569-4.46-4.37-7.91-8.985-7.91c-4.455,0-8.151,3.215-8.915,7.45
		v3.234C22.845,44.079,26.542,47.294,30.996,47.294z M28.258,32.32c1.969-1.847,4.4-0.338,6.732,2.149
		c2.332,2.486,3.683,5.008,1.714,6.855c-1.969,1.847-2.287-1.644-4.619-4.13C29.753,34.707,26.289,34.167,28.258,32.32z
		 M25.71,34.71c1.969-1.847,2.287,1.644,4.619,4.13s5.796,3.027,3.827,4.874c-1.969,1.847-4.399,0.338-6.732-2.149
		C25.091,39.079,23.741,36.557,25.71,34.71z"/>
	<path d="M45.382,18.262H16.611l1.151,15.93h2.94c1.617-4.11,5.617-7.031,10.294-7.031s8.676,2.921,10.294,7.031h2.94L45.382,18.262
		z"/>
	<path d="M45.955,17.262h0.202c0.108,0,0.206-0.033,0.304-0.061c0.47-0.135,0.82-0.55,0.82-1.063c0-0.458-0.276-0.849-0.669-1.024
		c-0.14-0.062-0.292-0.1-0.455-0.1h-0.039h-0.501h-29.24h-0.502h-0.039c-0.163,0-0.315,0.038-0.455,0.1
		c-0.393,0.175-0.669,0.566-0.669,1.024c0,0.513,0.351,0.928,0.82,1.063c0.099,0.028,0.196,0.061,0.304,0.061h0.202h0.502h28.915
		H45.955z"/>
	<path d="M36.445,1.226c-2.376,0.546-3.924,1.973-4.704,4.266c-0.637,1.873-0.339,4.14-2.438,5.029
		c-1.995,0.845-0.276,3.746,1.701,2.909c1.941-0.822,2.919-2.522,3.4-4.496c0.51-2.092,0.513-3.902,2.936-4.459
		C39.457,3.988,38.559,0.74,36.445,1.226z"/>
	<path d="M37.165,10.521c-1.995,0.845-0.276,3.746,1.701,2.909c1.941-0.822,2.919-2.522,3.4-4.496
		c0.51-2.092,0.513-3.902,2.936-4.459c2.117-0.487,1.219-3.735-0.896-3.249c-2.376,0.546-3.924,1.973-4.704,4.266
		C38.966,7.364,39.264,9.632,37.165,10.521z"/>
</g>
</svg>
