<?xml version="1.0" encoding="iso-8859-1"?>
<!-- Generator: Adobe Illustrator 17.0.0, SVG Export Plug-In . SVG Version: 6.00 Build 0)  -->
<!DOCTYPE svg PUBLIC "-//W3C//DTD SVG 1.1//EN" "http://www.w3.org/Graphics/SVG/1.1/DTD/svg11.dtd">
<svg version="1.1" id="Capa_1" xmlns="http://www.w3.org/2000/svg" xmlns:xlink="http://www.w3.org/1999/xlink" x="0px" y="0px"
	 width="64px" height="64px" viewBox="0 0 64 64" style="enable-background:new 0 0 64 64;" xml:space="preserve">
<g>
	<path d="M61.424,39.704c0-4.708-3.075-8.665-10.43-9.868c0.03-1.684,0.031-3.312,0.031-4.836H5c0,14,0,36.451,23.013,36.451
		c10.743,0,16.469-4.894,19.523-11.536C57.404,49.5,61.424,45.092,61.424,39.704z M16.341,52.637
		C12.003,46.228,10.359,38.661,10.375,31c0.007-3.224,5.007-3.225,5,0c-0.014,6.848,1.406,13.385,5.284,19.113
		C22.472,52.792,18.138,55.29,16.341,52.637z M49.172,45.358c0.975-3.537,1.437-7.324,1.655-11.002
		c3.845,0.955,4.723,2.923,4.677,5.455C55.452,42.693,54.387,44.654,49.172,45.358z"/>
	<path d="M22.661,20.165c0.8-2.306,0.584-4.544-0.29-6.792c-0.972-2.497-2.25-4.175-0.462-6.611
		c1.911-2.604-2.431-5.094-4.317-2.524c-1.614,2.199-2.058,4.58-1.368,7.213c0.68,2.594,2.582,4.6,1.616,7.384
		C16.78,21.89,21.611,23.191,22.661,20.165z"/>
	<path d="M31.661,20.165c0.8-2.306,0.584-4.544-0.29-6.792c-0.972-2.497-2.25-4.175-0.462-6.611
		c1.911-2.604-2.431-5.094-4.317-2.524c-1.614,2.199-2.058,4.58-1.368,7.213c0.68,2.594,2.582,4.6,1.616,7.384
		C25.78,21.89,30.611,23.191,31.661,20.165z"/>
	<path d="M40.661,20.165c0.8-2.306,0.584-4.544-0.29-6.792c-0.972-2.497-2.25-4.175-0.462-6.611
		c1.911-2.604-2.431-5.094-4.317-2.524c-1.614,2.199-2.058,4.58-1.368,7.213c0.68,2.594,2.582,4.6,1.616,7.384
		C34.78,21.89,39.611,23.191,40.661,20.165z"/>
</g>
</svg>
