<?xml version="1.0" encoding="iso-8859-1"?>
<!-- Generator: Adobe Illustrator 17.0.0, SVG Export Plug-In . SVG Version: 6.00 Build 0)  -->
<!DOCTYPE svg PUBLIC "-//W3C//DTD SVG 1.1//EN" "http://www.w3.org/Graphics/SVG/1.1/DTD/svg11.dtd">
<svg version="1.1" id="Capa_1" xmlns="http://www.w3.org/2000/svg" xmlns:xlink="http://www.w3.org/1999/xlink" x="0px" y="0px"
	 width="64px" height="64px" viewBox="0 0 64 64" style="enable-background:new 0 0 64 64;" xml:space="preserve">
<g>
	<path d="M27.294,27c-0.021-0.29-0.044-0.58-0.044-0.875c0-5.449,3.578-10.074,8.506-11.66C34.427,12.102,31.899,10.5,29,10.5
		c-2.684,0-5.139,1.365-6.569,3.652l-0.143,0.229l-0.271,0.006C15.942,14.512,11,19.553,11,25.625c0,0.466,0.037,0.923,0.093,1.375
		H27.294z"/>
	<path d="M28.25,26.125c0,0.295,0.022,0.585,0.044,0.875h5.113h0.506h0.505h16.288c0.022-0.29,0.044-0.58,0.044-0.875
		c0-6.203-5.047-11.25-11.25-11.25c-0.802,0-1.583,0.088-2.338,0.248c-0.164,0.035-0.323,0.083-0.484,0.125
		c-0.163,0.042-0.328,0.077-0.488,0.126C31.598,16.79,28.25,21.073,28.25,26.125z"/>
	<path d="M25,48.905v0.516v0.52v4.846h-3.974c-1.257,0-2.276,1.019-2.276,2.276s1.019,2.276,2.276,2.276h19.949
		c1.257,0,2.276-1.019,2.276-2.276s-1.019-2.276-2.276-2.276H37v-4.846v-0.52v-0.516C46.093,46.3,52.75,37.93,52.75,28h-1.159
		h-0.505h-0.506H34.265H33.76h-0.517h-4.823h-0.506h-0.505H11.258H10.74h-0.505H9.25C9.25,37.93,15.907,46.3,25,48.905z"/>
</g>
</svg>
