<?xml version="1.0" encoding="iso-8859-1"?>
<!-- Generator: Adobe Illustrator 17.0.0, SVG Export Plug-In . SVG Version: 6.00 Build 0)  -->
<!DOCTYPE svg PUBLIC "-//W3C//DTD SVG 1.1//EN" "http://www.w3.org/Graphics/SVG/1.1/DTD/svg11.dtd">
<svg version="1.1" id="Capa_1" xmlns="http://www.w3.org/2000/svg" xmlns:xlink="http://www.w3.org/1999/xlink" x="0px" y="0px"
	 width="64px" height="64px" viewBox="0 0 64 64" style="enable-background:new 0 0 64 64;" xml:space="preserve">
<g>
	<path d="M54.513,23.156c0-3.388-2.295-6.339-5.581-7.178c-0.168-0.043-0.339-0.083-0.512-0.114
		c-0.165-0.03-0.332-0.058-0.501-0.077l-0.351-0.039l-0.081-0.343C45.789,8.237,39.46,3.23,32.096,3.23
		c-7.363,0-13.692,5.007-15.391,12.176l-0.081,0.343l-0.351,0.039c-0.169,0.019-0.336,0.047-0.502,0.077
		c-0.172,0.031-0.343,0.071-0.512,0.114c-3.285,0.839-5.58,3.79-5.58,7.178c0,2.832,1.613,5.385,4.101,6.628
		c-0.129-0.891,0.067-1.585,0.229-1.975c0.216-0.522,0.777-1.486,2.104-2.073c0.161-0.07,0.338-0.134,0.521-0.192
		c0.166-0.053,0.348-0.095,0.534-0.136c0.557-0.122,1.081-0.179,1.649-0.179h26.555c0.566,0,1.091,0.057,1.649,0.179
		c0.188,0.041,0.37,0.083,0.535,0.136c0.184,0.058,0.36,0.121,0.521,0.191c1.328,0.587,1.89,1.551,2.105,2.073
		c0.161,0.39,0.357,1.084,0.229,1.975C52.899,28.542,54.513,25.988,54.513,23.156z M39.321,17.032
		c-0.959-3.306-3.517-5.138-6.853-5.603c-1.082-0.151-1.657-1.514-1.397-2.46c0.317-1.152,1.381-1.547,2.46-1.397
		c4.689,0.654,8.332,3.866,9.647,8.397C43.899,18.451,40.039,19.504,39.321,17.032z"/>
	<polygon points="41.307,45.187 32.096,40.122 22.885,45.187 23.692,47.217 32.096,51.839 40.501,47.217 	"/>
	<path d="M32.096,60.936c1.28,0,2.559-0.488,3.536-1.464l1.111-2.795l-4.646-2.555l-4.646,2.555l1.111,2.795
		C29.537,60.448,30.817,60.936,32.096,60.936z"/>
	<polygon points="39.34,50.138 34.171,52.98 37.487,54.803 	"/>
	<polygon points="26.706,54.803 30.021,52.98 24.852,50.138 	"/>
	<polygon points="22.141,43.314 30.021,38.98 17.735,32.224 	"/>
	<polygon points="46.457,32.224 34.171,38.98 42.051,43.314 	"/>
	<path d="M46.937,27.971c-0.15-0.057-0.317-0.104-0.499-0.141c-0.165-0.034-0.339-0.061-0.53-0.077
		c-0.169-0.014-0.346-0.023-0.535-0.023h-4.732H23.55h-4.732c-0.189,0-0.366,0.009-0.535,0.023c-0.191,0.016-0.365,0.044-0.53,0.077
		c-0.182,0.037-0.349,0.084-0.499,0.141c-0.626,0.237-0.971,0.637-1.014,1.148l3.001,1.651l0.216,0.119l1.673,0.92l6.135,3.374
		l1.653,0.909l3.177,1.747l3.177-1.747l1.653-0.909l6.135-3.374l1.673-0.92l0.216-0.119l3.002-1.651
		C47.908,28.608,47.564,28.208,46.937,27.971z"/>
</g>
</svg>
