<?xml version="1.0" encoding="iso-8859-1"?>
<!-- Generator: Adobe Illustrator 17.0.0, SVG Export Plug-In . SVG Version: 6.00 Build 0)  -->
<!DOCTYPE svg PUBLIC "-//W3C//DTD SVG 1.1//EN" "http://www.w3.org/Graphics/SVG/1.1/DTD/svg11.dtd">
<svg version="1.1" id="Capa_1" xmlns="http://www.w3.org/2000/svg" xmlns:xlink="http://www.w3.org/1999/xlink" x="0px" y="0px"
	 width="64px" height="64px" viewBox="0 0 64 64" style="enable-background:new 0 0 64 64;" xml:space="preserve">
<g>
	<polygon points="40.974,44.595 31.763,39.529 22.552,44.595 23.358,46.625 31.763,51.247 40.167,46.625 	"/>
	<path d="M31.763,60.344c1.28,0,2.559-0.488,3.536-1.464l1.111-2.795l-4.646-2.555l-4.646,2.555l1.111,2.795
		C29.204,59.856,30.483,60.344,31.763,60.344z"/>
	<polygon points="39.007,49.545 33.838,52.388 37.153,54.211 	"/>
	<polygon points="26.372,54.211 29.688,52.388 24.519,49.545 	"/>
	<polygon points="21.808,42.721 29.688,38.388 17.402,31.631 	"/>
	<polygon points="46.124,31.631 33.838,38.388 41.718,42.721 	"/>
	<path d="M46.604,27.379c-0.15-0.057-0.317-0.104-0.499-0.141c-0.165-0.034-0.339-0.061-0.53-0.077
		c-0.169-0.014-0.346-0.023-0.535-0.023h-0.001h-4.73H23.217h-4.732c-0.187,0-0.362,0.009-0.529,0.023c-0.002,0-0.004,0-0.006,0
		c-0.191,0.016-0.365,0.044-0.53,0.077c-0.182,0.037-0.349,0.084-0.499,0.141c-0.626,0.237-0.971,0.637-1.014,1.148l3.001,1.651
		l0.216,0.119l1.673,0.92l6.135,3.374l1.653,0.909l3.177,1.747l3.177-1.747l1.653-0.909l6.135-3.374l1.673-0.92l0.216-0.119
		l3.002-1.651C47.575,28.016,47.23,27.616,46.604,27.379z"/>
	<path d="M32,8.167c-5.667-1.667-8.455-3.586-8.455-3.586s-2.878-3.247-4.378,1.358s-1.726,17.045-1.726,17.045l0.017-0.002
		c-0.014,0.26-0.039,0.517-0.039,0.781c0,0.707,0.069,1.339,0.17,1.939c0.078-0.01,0.157-0.028,0.235-0.034
		c0.209-0.018,0.429-0.029,0.663-0.029h4.732h17.092h4.732c0.13,0,0.246,0.01,0.367,0.016c0.095-0.586,0.161-1.204,0.161-1.892
		c0-1.209-0.169-2.376-0.455-3.495l0.017-0.002C43.657,13.15,37.667,9.833,32,8.167z M26.257,8.955
		C27.123,9.321,28,9.639,28.878,9.939c3.704,1.265,7.426,2.199,10.433,5.001c1.418,1.321-0.708,3.438-2.121,2.121
		c-3.409-3.176-8.281-3.754-12.446-5.516c-0.044-0.019-0.077-0.043-0.117-0.064C23.051,10.664,24.541,8.229,26.257,8.955z
		 M40.75,22.5c-1.038,0-1.514-0.863-1.438-1.664c0.066-0.691,0.541-1.336,1.438-1.336c0.774,0,1.233,0.482,1.388,1.059
		C42.369,21.422,41.91,22.5,40.75,22.5z"/>
</g>
</svg>
