<?xml version="1.0" encoding="iso-8859-1"?>
<!-- Generator: Adobe Illustrator 17.0.0, SVG Export Plug-In . SVG Version: 6.00 Build 0)  -->
<!DOCTYPE svg PUBLIC "-//W3C//DTD SVG 1.1//EN" "http://www.w3.org/Graphics/SVG/1.1/DTD/svg11.dtd">
<svg version="1.1" id="Capa_1" xmlns="http://www.w3.org/2000/svg" xmlns:xlink="http://www.w3.org/1999/xlink" x="0px" y="0px"
	 width="64px" height="64px" viewBox="0 0 64 64" style="enable-background:new 0 0 64 64;" xml:space="preserve">
<g>
	<path d="M8.321,24.972c-0.024,7.001,5.808,12.978,10.628,17.677l0.519,12.736h0.048c-0.021,0.127-0.048,0.253-0.048,0.381
		c0,3.196,6.456,6.098,14.42,6.098c7.964,0,14.42-2.903,14.42-6.098c0-0.129-0.027-0.255-0.048-0.381h0.048l1.485-39.03l5.02-6.455
		h-4.774l0.003-0.077c-3.089,1.429-11.195,1.847-15.937,1.847c-0.151,0-13.182-0.028-16.504-2.096l0.142,3.493
		C11.856,13.897,8.342,18.593,8.321,24.972z M39,50.363V15.19l5.064-0.424l-0.587,36.688l-0.059,3.709l-0.888,0.222L39,56.271
		v-0.884V50.363z M17.953,18.244l0.68,16.672c-1.277-1.479-2.467-3.034-3.497-4.736C12.38,25.627,12.917,19.468,17.953,18.244z"/>
	<path d="M17.834,8.534c0.013,0.032,0.051,0.065,0.08,0.098c0.765,0.854,7.122,2.041,16.19,2.041c9.221,0,14.855-1.174,15.979-1.951
		c0.106-0.073,0.186-0.144,0.211-0.209C50.291,6.256,50.289,3.696,37,3.379V6h-1h-5V3.385C17.841,3.722,17.834,6.269,17.834,8.534z"
		/>
	<polygon points="36,3.361 36,2.862 36,2.362 36,2 32,2 32,2.365 32,2.865 32,3.365 32,5 36,5 	"/>
</g>
</svg>
