<?xml version="1.0" encoding="iso-8859-1"?>
<!-- Generator: Adobe Illustrator 17.0.0, SVG Export Plug-In . SVG Version: 6.00 Build 0)  -->
<!DOCTYPE svg PUBLIC "-//W3C//DTD SVG 1.1//EN" "http://www.w3.org/Graphics/SVG/1.1/DTD/svg11.dtd">
<svg version="1.1" id="Capa_1" xmlns="http://www.w3.org/2000/svg" xmlns:xlink="http://www.w3.org/1999/xlink" x="0px" y="0px"
	 width="64px" height="64px" viewBox="0 0 64 64" style="enable-background:new 0 0 64 64;" xml:space="preserve">
<g>
	<path d="M26.112,30.756C26.632,30.133,27,30,27,30l2-27H16l2,27c0.448,0.247,0.858,0.604,1.233,1.05
		c0.353,0.419,0.673,0.92,0.967,1.482c0.356,0.681,0.671,1.454,0.948,2.296l-0.573,24.926c0,0.601,1.132,1.246,1.664,1.246h0.876
		c0.532,0,1.664-0.702,1.664-1.303l-0.572-24.888c0.305-1.044,0.628-1.865,0.942-2.51C25.492,31.594,25.825,31.099,26.112,30.756z
		 M25.526,5.865c0.017-0.274,0.224-0.432,0.53-0.407c0.275,0.017,0.484,0.284,0.468,0.56l-1.051,16.74
		C25.457,23.023,25.237,23,24.975,23c-0.01,0-0.021,0-0.031,0c-0.275,0-0.484-0.013-0.468-0.289L25.526,5.865z M22,6
		c0-0.276,0.224-0.5,0.5-0.5S23,5.724,23,6v17c0,0.276-0.224,0.5-0.5,0.5S22,23.276,22,23V6z M18.943,5.457
		c0.298-0.021,0.513,0.224,0.53,0.498l1.051,16.741C20.541,22.972,20.332,23,20.057,23c-0.011,0-0.021,0-0.031,0
		c-0.263,0-0.482,0.038-0.499-0.227L18.476,5.927C18.459,5.651,18.668,5.474,18.943,5.457z M22.591,59.812
		c-0.585,0-1.059-0.474-1.059-1.059c0-0.585,0.474-1.059,1.059-1.059c0.585,0,1.059,0.474,1.059,1.059
		C23.65,59.338,23.176,59.812,22.591,59.812z"/>
	<path d="M55.5,10.125L53.071,2.51l-1.75,7.615c-0.42,3.602-1.775,6.125-5.946,6.125s-5.526-2.523-5.946-6.125L37,2.51l-1.75,7.615
		c0,5.081,3.746,9.275,8.625,10.002v9.206c-1.251,0.571-2.125,1.826-2.125,3.292v24.656c0,2.002,1.623,3.625,3.625,3.625
		S49,59.283,49,57.281V32.625c0-1.465-0.874-2.72-2.125-3.292v-9.206C51.754,19.4,55.5,15.206,55.5,10.125z"/>
</g>
</svg>
