<?xml version="1.0" encoding="iso-8859-1"?>
<!-- Generator: Adobe Illustrator 17.0.0, SVG Export Plug-In . SVG Version: 6.00 Build 0)  -->
<!DOCTYPE svg PUBLIC "-//W3C//DTD SVG 1.1//EN" "http://www.w3.org/Graphics/SVG/1.1/DTD/svg11.dtd">
<svg version="1.1" id="Capa_1" xmlns="http://www.w3.org/2000/svg" xmlns:xlink="http://www.w3.org/1999/xlink" x="0px" y="0px"
	 width="64px" height="64px" viewBox="0 0 64 64" style="enable-background:new 0 0 64 64;" xml:space="preserve">
<g>
	<path d="M17.913,51.46c0.213,0,0.439-0.015,0.656-0.02c0.133,2.255,0.304,4.517,0.454,6.788c0.139,2.098,3.426,2.182,3.286,0.067
		c-0.157-2.367-0.342-4.726-0.486-7.08c1.253-0.148,2.55-0.358,3.889-0.639c5.605-1.178,9.387-3.576,11.289-7.133
		c0.192,0.044,0.379,0.092,0.576,0.133c1.063,0.223,2.092,0.391,3.102,0.53c0.073-0.832,0.123-1.666,0.152-2.501
		c0.029-0.839,0.041-1.679,0.032-2.52c-0.05-4.53-0.621-9.086-1.298-13.595c-0.142-0.945,0.45-1.491,1.17-1.618
		c-0.19,0.331-0.263,0.743-0.13,1.217c1.322,4.7,1.623,9.425,1.533,14.175c-0.016,0.831-0.042,1.663-0.079,2.496
		c-0.037,0.834-0.082,1.669-0.133,2.504c-0.143,2.338-0.327,4.681-0.483,7.032c-0.052,0.79,0.374,1.273,0.935,1.459
		c0.941,0.312,2.264-0.211,2.351-1.525c0.15-2.267,0.32-4.524,0.453-6.774c0.064,0,0.131,0.006,0.194,0.006c0,0,0,0,0,0
		c7.513,0,12.834-3.062,14.596-8.401c2.872-8.699-4.345-21.042-18.385-31.446l-1.795-1.33L38.27,4.919
		c-0.165,0.177-4.087,4.409-7.645,10.02c-0.469,0.74-0.9,1.464-1.312,2.18c-2.31-3.059-4.181-5.079-4.294-5.2l-1.523-1.635
		l-1.795,1.33C7.661,22.018,0.444,34.361,3.316,43.059C5.078,48.398,10.399,51.46,17.913,51.46z M22.862,17.026
		c1.179,1.392,2.569,3.159,3.945,5.126c-1.973,4.783-2.427,8.925-1.338,12.363c1.006,3.175,3.238,5.606,6.657,7.266
		c-1.361,1.833-3.846,3.146-7.442,3.901c-1.061,0.223-2.081,0.389-3.071,0.517c-0.087-4.729,0.218-9.432,1.534-14.111
		c0.574-2.042-2.577-2.976-3.151-0.938c-1.428,5.077-1.742,10.17-1.637,15.296c-0.147,0.003-0.302,0.014-0.446,0.014
		c-3.066,0-8.422-0.646-9.849-4.969C5.749,34.479,13.824,24.223,22.862,17.026z"/>
</g>
</svg>
