<?xml version="1.0" encoding="iso-8859-1"?>
<!-- Generator: Adobe Illustrator 17.0.0, SVG Export Plug-In . SVG Version: 6.00 Build 0)  -->
<!DOCTYPE svg PUBLIC "-//W3C//DTD SVG 1.1//EN" "http://www.w3.org/Graphics/SVG/1.1/DTD/svg11.dtd">
<svg version="1.1" id="Capa_1" xmlns="http://www.w3.org/2000/svg" xmlns:xlink="http://www.w3.org/1999/xlink" x="0px" y="0px"
	 width="64px" height="64px" viewBox="0 0 64 64" style="enable-background:new 0 0 64 64;" xml:space="preserve">
<g>
	<path d="M32.509,32.052c0-11.356-5.736-20.949-12.526-20.949c-0.614,0-1.215,0.104-1.808,0.255
		c-5.968,1.52-10.718,10.365-10.718,20.694c0,10.378,4.795,19.259,10.802,20.716c0.566,0.137,1.139,0.233,1.724,0.233
		C26.773,53.001,32.509,43.407,32.509,32.052z M19.983,49.403c-0.591,0-1.167-0.104-1.731-0.267c-4.824-1.398-8.5-8.504-8.5-17.084
		c0-8.539,3.64-15.621,8.431-17.066c0.586-0.177,1.185-0.285,1.801-0.285c5.651,0,10.232,7.768,10.232,17.351
		C30.215,41.634,25.634,49.403,19.983,49.403z"/>
	<path d="M12.972,40.83c1.234,3.265,3.118,5.673,5.276,6.529c0.291,0.115,0.586,0.205,0.885,0.262V34.212l-0.91,0.978L12.972,40.83z
		"/>
	<path d="M20.833,47.621c2.561-0.49,4.827-3.161,6.222-6.951l-6.222-6.501V47.621z"/>
	<path d="M18.721,32.16l-0.504-0.383l-6.281-4.773c-0.307,1.594-0.484,3.289-0.484,5.048c0,2.471,0.339,4.822,0.923,6.925
		l5.844-6.276L18.721,32.16z"/>
	<path d="M19.027,30.257L18.236,16.75c-0.017,0.007-0.033,0.017-0.05,0.024c-2.533,1.043-4.677,4.226-5.828,8.415l5.854,4.449
		L19.027,30.257z"/>
	<path d="M19.983,16.4c-0.022,0-0.043,0.006-0.064,0.006l0.797,13.623l6.299-6.706C25.462,19.18,22.862,16.4,19.983,16.4z"/>
	<path d="M27.605,25.178l-6.451,6.868l6.48,6.77c0.557-2.062,0.88-4.356,0.88-6.764C28.515,29.601,28.18,27.268,27.605,25.178z"/>
	<path d="M55.818,26.678c-0.192,0-0.377,0.029-0.561,0.057c-2.391-8.732-11.393-15.373-31.248-16.407
		c5.896,2.765,10.201,11.442,10.201,21.724c0,10.255-4.282,18.913-10.153,21.702c21.701-1.215,30.417-9.105,31.704-19.042
		c0.02,0,0.038,0.006,0.058,0.006c2.075,0,3.758-1.682,3.758-3.758v-0.524C59.576,28.36,57.894,26.678,55.818,26.678z"/>
</g>
</svg>
