<?xml version="1.0" encoding="iso-8859-1"?>
<!-- Generator: Adobe Illustrator 17.0.0, SVG Export Plug-In . SVG Version: 6.00 Build 0)  -->
<!DOCTYPE svg PUBLIC "-//W3C//DTD SVG 1.1//EN" "http://www.w3.org/Graphics/SVG/1.1/DTD/svg11.dtd">
<svg version="1.1" id="Capa_1" xmlns="http://www.w3.org/2000/svg" xmlns:xlink="http://www.w3.org/1999/xlink" x="0px" y="0px"
	 width="64px" height="64px" viewBox="0 0 64 64" style="enable-background:new 0 0 64 64;" xml:space="preserve">
<g>
	<path d="M57.599,15.968L26.461,9.212c-0.255-0.055-0.528-0.083-0.813-0.083c-2.589,0-6.176,2.242-6.95,5.81
		c-0.213,0.982-0.273,1.932-0.223,2.826l-8.604-0.457c-0.059-0.003-0.119-0.005-0.18-0.005c-2.63,0-6.357,2.945-6.567,6.9
		c-0.094,1.776,0.232,3.408,0.851,4.693c-0.426,0.873-0.702,1.913-0.763,3.079l-0.969,18.25c-0.194,3.654,1.735,7.702,4.263,7.836
		l34.416,1.827c0.043,0.002,0.086,0.003,0.129,0.003c1.872,0,3.435-2.171,4.165-4.787l5.087,1.104
		c0.172,0.037,0.344,0.055,0.516,0.055c2.309,0,4.6-3.236,5.322-6.565l3.875-17.86c0.242-1.114,0.29-2.159,0.168-3.087
		c0.958-1.08,1.724-2.587,2.108-4.356C63.149,20.437,60.178,16.527,57.599,15.968z M41.648,52.319
		c-0.038,0.709-0.178,1.367-0.357,1.937c-0.226,0.72-0.515,1.294-0.752,1.609L7.19,54.094c-0.436-0.551-1.039-2.037-0.954-3.655
		l0.969-18.25c0.031-0.581,0.157-1.112,0.364-1.536l0.851-1.743l-0.841-1.747c-0.204-0.423-0.535-1.343-0.46-2.745
		c0.093-1.746,1.935-3.036,2.578-3.111l8.089,0.429l4.305,0.229l19.349,1.027c0.631,0.143,2.327,1.62,2.234,3.367
		c-0.055,1.038-0.335,2.024-0.768,2.707l-0.978,1.543l0.525,1.749c0.099,0.33,0.208,0.895,0.165,1.712l-0.86,16.195L41.648,52.319z
		 M58.381,23.55c-0.22,1.016-0.654,1.945-1.191,2.549l-1.212,1.366l0.239,1.811c0.045,0.341,0.062,0.916-0.111,1.716L52.23,48.853
		c-0.341,1.57-1.152,2.833-1.661,3.323l-4.851-1.053l0.894-16.842c0.06-1.139-0.059-2.178-0.328-3.074
		c0.773-1.219,1.288-2.83,1.384-4.637c0.215-4.047-3.344-7.431-5.979-7.571l-7.254-0.385C34.845,18.033,34.597,17,33.667,17
		c-0.888,0-1.149,0.938-0.815,1.529L22.503,17.98c-0.076-0.522-0.101-1.252,0.103-2.192c0.359-1.654,2.289-2.659,3.041-2.659
		l0.004,0l31.062,6.74C57.315,20.111,58.752,21.841,58.381,23.55z"/>
	<path d="M23.833,30.833c1.29,0,1.29-2,0-2S22.544,30.833,23.833,30.833z"/>
	<path d="M24,36c-1.29,0-1.29,2,0,2S25.29,36,24,36z"/>
	<path d="M16.5,40.5c-1.29,0-1.29,2,0,2S17.79,40.5,16.5,40.5z"/>
	<path d="M14,33c-1.29,0-1.29,2,0,2S15.29,33,14,33z"/>
	<path d="M39.167,37.333c-1.29,0-1.29,2,0,2S40.456,37.333,39.167,37.333z"/>
	<path d="M34,48c-0.372,0-0.624,0.174-0.781,0.411C32.83,48.995,33.082,50,34,50c0.74,0,1.041-0.656,0.932-1.217
		C34.85,48.366,34.549,48,34,48z"/>
	<path d="M28.176,47.317c-0.141-0.086-0.302-0.15-0.509-0.15c-0.036,0-0.061,0.016-0.095,0.019
		c-1.184,0.105-1.159,1.981,0.095,1.981C28.75,49.167,28.911,47.769,28.176,47.317z"/>
	<path d="M31.667,31c-1.29,0-1.29,2,0,2S32.956,31,31.667,31z"/>
	<path d="M32.667,27.667c1.29,0,1.29-2,0-2S31.377,27.667,32.667,27.667z"/>
	<path d="M14.5,23.833c-1.29,0-1.29,2,0,2S15.79,23.833,14.5,23.833z"/>
	<path d="M12.333,46.667c-1.29,0-1.29,2,0,2S13.623,46.667,12.333,46.667z"/>
	<path d="M18.667,50.167c-1.29,0-1.29,2,0,2S19.956,50.167,18.667,50.167z"/>
	<path d="M33.5,39.5c-1.29,0-1.29,2,0,2S34.79,39.5,33.5,39.5z"/>
	<path d="M51.833,23.5c-1.29,0-1.29,2,0,2S53.123,23.5,51.833,23.5z"/>
	<path d="M51,30.667c-1.29,0-1.29,2,0,2S52.29,30.667,51,30.667z"/>
	<path d="M26.333,15.167c-1.29,0-1.29,2,0,2S27.623,15.167,26.333,15.167z"/>
	<path d="M49.5,40.5c-1.29,0-1.29,2,0,2S50.79,40.5,49.5,40.5z"/>
</g>
</svg>
