<?xml version="1.0" encoding="iso-8859-1"?>
<!-- Generator: Adobe Illustrator 17.0.0, SVG Export Plug-In . SVG Version: 6.00 Build 0)  -->
<!DOCTYPE svg PUBLIC "-//W3C//DTD SVG 1.1//EN" "http://www.w3.org/Graphics/SVG/1.1/DTD/svg11.dtd">
<svg version="1.1" id="Capa_1" xmlns="http://www.w3.org/2000/svg" xmlns:xlink="http://www.w3.org/1999/xlink" x="0px" y="0px"
	 width="64px" height="64px" viewBox="0 0 64 64" style="enable-background:new 0 0 64 64;" xml:space="preserve">
<g>
	<path d="M42.925,9.949l0.039-0.104C42.685,9.74,36.07,7.327,31.243,9.99c-0.363,0.2-0.697,0.43-1.02,0.674l-1.291-5.162
		c-2.867,0.717-5.492,1.902-7.822,3.446l0.039-0.104C20.87,8.74,14.256,6.328,9.429,8.99c-2.197,1.212-3.653,3.231-4.332,6.008
		c-0.756,0.803-2.381,2.816-2.301,5.201c0.035,1.053,0.436,2.596,2.138,3.969c0.491,0.396,0.775,0.773,0.799,1.062
		c0.046,0.558-0.723,1.42-1.341,2.112c-0.854,0.957-1.737,1.948-1.59,3.197c0.001,0.166-0.196,0.655-0.34,1.013
		c-0.731,1.825-1.957,4.88,1.36,9.087c1.349,1.711,1.268,2.846,1.183,4.048c-0.162,2.274,0.065,4.14,4.489,5.726
		c0.735,0.264,1.418,0.504,2.052,0.728c5.106,1.798,6.021,2.225,6.081,3.554c0.113,2.501,4.019,4.74,7.594,5.263
		c0.571,0.083,1.127,0.124,1.665,0.124c3.491,0,6.216-1.747,7.59-4.851c0.189,0.004,0.375,0.024,0.564,0.024
		c1.382,0,2.779-0.124,4.18-0.359c0.145,0.238,0.208,0.495,0.222,0.8c0.113,2.501,4.019,4.74,7.594,5.263
		c0.571,0.083,1.127,0.124,1.665,0.124c3.491,0,6.216-1.747,7.59-4.851c0.189,0.004,0.375,0.024,0.565,0.024
		c2.028,0,4.088-0.246,6.145-0.76L50.748,6.503C47.881,7.22,45.256,8.404,42.925,9.949z M32.685,12.622
		c2.322-1.286,5.441-0.913,7.395-0.478c-3.122,2.786-5.504,6.302-6.932,10.211l-2.085-8.337
		C31.508,13.445,32.043,12.977,32.685,12.622z M33.496,52.188c-9.554-0.659-17.665-7.371-20.022-16.792
		c-2.73-10.915,3.15-22.001,13.325-26.06l1.044,4.173l1.162,4.647l2.702,10.805l3.917,15.662l1.414,5.652l0.46,1.839
		c-0.818,0.091-1.639,0.137-2.458,0.137C34.521,52.253,34.008,52.223,33.496,52.188z M26.847,57.08
		c-3.26-0.018-6.012-1.938-6.224-2.523c-0.156-3.456-2.805-4.389-8.08-6.247c-0.629-0.222-1.307-0.46-2.037-0.722
		c-2.633-0.944-2.604-1.349-2.509-2.688c0.099-1.392,0.249-3.495-1.819-6.118c-2.242-2.844-1.575-4.506-0.931-6.112
		c0.294-0.734,0.599-1.492,0.55-2.303c0.13-0.238,0.549-0.708,0.834-1.028c0.946-1.061,2.242-2.515,2.092-4.354
		c-0.095-1.147-0.735-2.208-1.906-3.152c-0.664-0.535-0.998-1.101-1.021-1.727c-0.05-1.325,1.204-2.801,1.687-3.254l0.353-0.325
		l0.099-0.47c0.446-2.138,1.407-3.588,2.938-4.435c2.322-1.285,5.441-0.913,7.395-0.478C11.487,17.192,8.207,26.7,10.564,36.124
		c2.544,10.17,10.926,17.33,20.677,18.826C30.282,56.376,28.803,57.105,26.847,57.08z M48.703,58.08c-0.014,0-0.028,0-0.042,0
		c-3.26-0.018-6.012-1.938-6.224-2.523c-0.073-1.614-0.697-2.676-1.872-3.54l-0.559-2.235c3.634,3.257,8.17,5.42,13.051,6.169
		C52.112,57.36,50.657,58.08,48.703,58.08z M56.855,53.253c-7.573,0-14.399-3.816-18.438-9.831l-3.665-14.654
		c0.825-8.107,6.079-15.327,13.863-18.432l10.699,42.779C58.495,53.207,57.674,53.253,56.855,53.253z"/>
	<path d="M46.128,17.85c-0.574-0.295-1.277-0.175-1.625,0.407c-0.316,0.526-0.168,1.33,0.407,1.625
		c0.238,0.122,0.457,0.251,0.57,0.352c0.082,0.073,0.153,0.157,0.224,0.24c-0.026-0.021,0.037,0.081,0.079,0.147
		c-0.001,0.019,0.072,0.201,0.075,0.215c0.007,0.029,0.011,0.044,0.016,0.061c-0.004,0.012-0.008,0.042-0.007,0.117
		c0,0.049,0.002,0.077,0.003,0.096c-0.006,0.018-0.014,0.047-0.027,0.109c-0.022,0.105-0.104,0.343-0.121,0.379
		c-0.273,0.585-0.191,1.267,0.406,1.625c0.511,0.306,1.352,0.18,1.625-0.407c0.413-0.883,0.637-1.823,0.339-2.783
		C47.79,19.052,47.026,18.312,46.128,17.85z"/>
	<path d="M43.551,31.418c-0.608,0.333-0.723,1.016-0.469,1.609c0.45,1.052,0.471,2.039-0.18,2.997
		c-0.86,1.266,1.177,2.478,2.032,1.219c1.139-1.677,0.992-3.564,0.226-5.356C44.905,31.292,44.076,31.131,43.551,31.418z"/>
	<path d="M51.775,45.031c-0.869,1.259,1.169,2.47,2.032,1.219c1.172-1.699,0.672-3.654-0.52-5.175
		c-0.399-0.509-1.243-0.453-1.675-0.04c-0.502,0.479-0.438,1.168-0.04,1.675C52.17,43.475,52.306,44.262,51.775,45.031z"/>
	<path d="M25.566,17.809c-0.351-0.392-0.78-0.716-1.252-0.959c-0.574-0.295-1.277-0.175-1.625,0.407
		c-0.316,0.526-0.168,1.33,0.407,1.625c0.238,0.122,0.457,0.251,0.57,0.352c0.082,0.073,0.153,0.157,0.224,0.24
		c-0.026-0.021,0.037,0.081,0.079,0.147c-0.001,0.019,0.072,0.201,0.075,0.215c0.007,0.029,0.011,0.044,0.016,0.061
		c-0.004,0.012-0.008,0.042-0.007,0.117c0,0.049,0.002,0.077,0.003,0.096c-0.006,0.018-0.014,0.047-0.027,0.109
		c-0.022,0.105-0.104,0.343-0.121,0.379c-0.273,0.585-0.191,1.267,0.407,1.625c0.143,0.086,0.313,0.129,0.488,0.146
		c0.45,0.044,0.94-0.131,1.137-0.553c0.413-0.883,0.637-1.823,0.339-2.783C26.135,18.568,25.882,18.162,25.566,17.809z"/>
	<path d="M21.736,30.418c-0.608,0.333-0.723,1.016-0.469,1.609c0.45,1.052,0.471,2.039-0.18,2.997
		c-0.86,1.266,1.177,2.478,2.032,1.219c0.13-0.191,0.238-0.385,0.335-0.581c0.356-0.717,0.499-1.464,0.483-2.219
		c-0.018-0.852-0.233-1.714-0.593-2.555C23.09,30.292,22.261,30.131,21.736,30.418z"/>
	<path d="M29.797,40.036c-0.502,0.479-0.438,1.168-0.04,1.675c0.599,0.764,0.735,1.551,0.203,2.32
		c-0.052,0.076-0.093,0.151-0.125,0.226c-0.127,0.295-0.101,0.578,0.017,0.819c0.35,0.715,1.533,1.054,2.14,0.174
		c1.172-1.699,0.672-3.654-0.52-5.175C31.074,39.567,30.23,39.622,29.797,40.036z"/>
</g>
</svg>
