<?xml version="1.0" encoding="iso-8859-1"?>
<!-- Generator: Adobe Illustrator 17.0.0, SVG Export Plug-In . SVG Version: 6.00 Build 0)  -->
<!DOCTYPE svg PUBLIC "-//W3C//DTD SVG 1.1//EN" "http://www.w3.org/Graphics/SVG/1.1/DTD/svg11.dtd">
<svg version="1.1" id="Capa_1" xmlns="http://www.w3.org/2000/svg" xmlns:xlink="http://www.w3.org/1999/xlink" x="0px" y="0px"
	 width="64px" height="64px" viewBox="0 0 64 64" style="enable-background:new 0 0 64 64;" xml:space="preserve">
<g>
	<path d="M31.55,60.46c2.886,0.058,4.225-0.871,4.849-1.72c10.409-2.943,18.162-14.128,18.162-26.612
		c0-13.481-7.94-20.168-15.544-22.821c0.14-0.291,0.263-0.591,0.413-0.875c1.684-3.188,4.185-2.487,7.32-2.306
		c2.578,0.149,2.564-3.852,0-4c-3.782-0.218-6.816-0.572-9.539,2.461c-0.92,1.024-1.663,2.289-2.284,3.653
		C33.528,7.993,32.198,7.875,31,7.875c-8.167,0-23.561,6.438-23.561,24.253c0,12.95,8.342,24.502,19.337,26.906l0.086,0.661
		C26.862,59.695,26.72,60.363,31.55,60.46z M31,9.292c1.232,0,2.371,0.064,3.412,0.179c-0.88,2.284-1.454,4.745-1.84,6.872
		c-0.035,0.194-0.037,0.375-0.025,0.551c-0.501,0.038-1.013,0.064-1.546,0.064c-5.421,0-9.667-1.684-9.667-3.833
		C21.333,10.975,25.579,9.292,31,9.292z M38.5,10.402c1.381,0.569,2.167,1.33,2.167,2.223c0,1.254-1.492,2.594-3.951,3.446
		C37.142,14.138,37.721,12.224,38.5,10.402z"/>
</g>
</svg>
