<?xml version="1.0" encoding="iso-8859-1"?>
<!-- Generator: Adobe Illustrator 17.0.0, SVG Export Plug-In . SVG Version: 6.00 Build 0)  -->
<!DOCTYPE svg PUBLIC "-//W3C//DTD SVG 1.1//EN" "http://www.w3.org/Graphics/SVG/1.1/DTD/svg11.dtd">
<svg version="1.1" id="Capa_1" xmlns="http://www.w3.org/2000/svg" xmlns:xlink="http://www.w3.org/1999/xlink" x="0px" y="0px"
	 width="64px" height="64px" viewBox="0 0 64 64" style="enable-background:new 0 0 64 64;" xml:space="preserve">
<g>
	<path d="M55.249,14.578c-0.474-0.474-0.963-0.901-1.461-1.298c-0.481-0.585-0.992-1.154-1.539-1.702
		c-9.014-9.014-22.456-3.921-31.398,5.021c-1.036,1.036-1.937,2.153-2.731,3.322l-0.011-0.005c0,0-0.025,0.042-0.06,0.102
		c-0.142,0.211-0.269,0.427-0.403,0.642c-0.986,1.513-3.505,5.011-7.02,7.251c-0.034,0.022-0.051,0.04-0.084,0.062
		c-1.043,0.641-2.03,1.399-2.93,2.298C1.065,36.819,0.255,42.59,7.18,49.514c0.463,0.463,0.948,0.885,1.444,1.289
		c0.472,0.564,0.977,1.132,1.556,1.711c3.057,3.057,6.894,4.819,10.79,5.276l-0.001,0.003c11.395,1.66,22.713-3.349,28.221-6.327
		c1.047-0.506,2.062-1.094,3.037-1.77c0.273-0.174,0.419-0.272,0.419-0.272l-0.049,0.001c0.969-0.701,1.909-1.462,2.781-2.335
		C64.321,38.148,64.263,23.592,55.249,14.578z M7.399,37.123c0.659-1.985,2.092-3.999,4.22-6.126
		c0.769-0.769,1.609-1.423,2.491-1.982c0.027-0.019,0.042-0.034,0.071-0.053c2.975-1.948,5.155-4.917,6.012-6.198
		c0.117-0.182,0.228-0.365,0.351-0.543c0.031-0.051,0.052-0.086,0.052-0.086l0.009,0.004c0.689-0.991,1.466-1.941,2.352-2.827
		c4.086-4.086,9.209-7.29,14.202-8.286c4.357-0.869,8.616-0.057,11.998,3.326c7.258,7.258,6.94,19.345-0.711,26.996
		c-0.747,0.747-1.546,1.402-2.368,2.009l0.041-0.002c0,0-0.123,0.085-0.355,0.237c-0.827,0.586-1.684,1.099-2.567,1.546
		c-4.649,2.612-14.174,7.056-23.595,5.965l0.001-0.003c-3.223-0.281-6.365-1.647-8.827-4.109C7.316,43.53,6.322,40.365,7.399,37.123
		z"/>
	<path d="M16.951,40.629c-0.043,0.758,0.187,1.426,0.663,1.931c0.679,0.718,1.785,1.067,3.384,1.067c2.014,0,4.167-0.567,4.252-0.59
		c4.002-1.042,6.895-3.495,7.937-6.73c0.721-2.241,0.39-4.572-0.866-6.084c-0.941-1.133-2.167-1.708-3.642-1.708
		c-2.264,0-5.048,1.279-9.61,4.416c-3.773,2.594-3.889,3.936-2.734,5.796C16.69,39.302,16.998,39.798,16.951,40.629z M20.201,34.579
		c2.923-2.01,6.217-4.064,8.478-4.064c0.876,0,1.544,0.313,2.103,0.985c0.823,0.991,1.015,2.598,0.501,4.193
		c-0.827,2.57-3.21,4.542-6.541,5.409c-0.02,0.005-1.996,0.524-3.743,0.524c-1.404,0-1.832-0.337-1.931-0.44
		c-0.041-0.043-0.137-0.146-0.12-0.444c0.083-1.462-0.493-2.391-0.913-3.069C17.555,36.901,17.336,36.548,20.201,34.579z"/>
	<path d="M21.177,38.747c0.172,0.089,0.385,0.2,0.453,0.29c0.344,0.452,0.893,0.68,1.631,0.68c1.437,0,3.526-0.895,3.686-0.968
		c1.02-0.352,1.747-1.05,2.104-2.02c0.476-1.294,0.159-2.769-0.366-3.656c-0.194-0.33-0.672-0.883-1.681-0.883
		c-1.671,0-4.067,1.599-5.612,2.969c-0.886,0.786-1.456,1.473-1.357,2.271C20.129,38.202,20.785,38.543,21.177,38.747z"/>
</g>
</svg>
