<?xml version="1.0" encoding="iso-8859-1"?>
<!-- Generator: Adobe Illustrator 17.0.0, SVG Export Plug-In . SVG Version: 6.00 Build 0)  -->
<!DOCTYPE svg PUBLIC "-//W3C//DTD SVG 1.1//EN" "http://www.w3.org/Graphics/SVG/1.1/DTD/svg11.dtd">
<svg version="1.1" id="Capa_1" xmlns="http://www.w3.org/2000/svg" xmlns:xlink="http://www.w3.org/1999/xlink" x="0px" y="0px"
	 width="64px" height="64px" viewBox="0 0 64 64" style="enable-background:new 0 0 64 64;" xml:space="preserve">
<g>
	<path d="M19.45,15.958c-0.008,0.136-0.117,0.449-0.188,0.551l-4.127,5.2c-0.621,0.784-1.055,2.027-1.055,3.025v4.099v20.834v7.832
		c0,1.654,1.346,3,3,3h32.792c1.654,0,3-1.346,3-3V24.734c0-1.009-0.446-2.259-1.084-3.04l-4.524-5.534
		c-0.077-0.106-0.182-0.399-0.189-0.519v-4.717c0-0.399-0.082-0.778-0.224-1.126c0.914-0.764,1.516-2.063,1.516-3.54
		C48.368,3.907,46.841,2,44.958,2H21.495c-1.883,0-3.409,1.907-3.409,4.258c0,1.507,0.63,2.823,1.575,3.58
		c-0.132,0.338-0.211,0.702-0.211,1.086V15.958z M48.684,24.216c0.077,0.106,0.182,0.399,0.189,0.519v31.765H18.081v-3.832h21.086
		c1.654,0,3-1.346,3-3V28.833c0-1.654-1.346-3-3-3H18.081v-1.088c0.008-0.135,0.117-0.449,0.188-0.551l4.127-5.2
		c0.62-0.783,1.054-2.027,1.054-3.025v-4.044h19.625v3.717c0,1.009,0.446,2.259,1.084,3.04L48.684,24.216z M18.081,29.833h20.086
		v18.834H18.081V29.833z"/>
</g>
</svg>
