<?xml version="1.0" encoding="iso-8859-1"?>
<!-- Generator: Adobe Illustrator 17.0.0, SVG Export Plug-In . SVG Version: 6.00 Build 0)  -->
<!DOCTYPE svg PUBLIC "-//W3C//DTD SVG 1.1//EN" "http://www.w3.org/Graphics/SVG/1.1/DTD/svg11.dtd">
<svg version="1.1" id="Capa_1" xmlns="http://www.w3.org/2000/svg" xmlns:xlink="http://www.w3.org/1999/xlink" x="0px" y="0px"
	 width="64px" height="64px" viewBox="0 0 64 64" style="enable-background:new 0 0 64 64;" xml:space="preserve">
<g>
	<path d="M30.375,61.898L30.727,62v-0.204l18.779-5.43V7.956l-19.131,5.532l-0.178-0.051l-0.14,0.143l-0.034,0.035l-10.636,10.88
		L11.423,8.008l-0.179-0.052v48.411l18.779,5.43V62L30.375,61.898z M33.023,15.845l13.483-3.899v9.411L36.5,24.597V49.92
		l10.006-3.24v7.43L33.023,58.01V15.845z M45.692,24.774v19.017L39.5,45.796V26.779L45.692,24.774z"/>
	<path d="M49.023,5.833l-18.679-4.36l-18.681,4.36l18.681,5.553L49.023,5.833z M30.345,3.527l10.878,2.538L30.345,9.3L19.467,6.065
		L30.345,3.527z"/>
	<polygon points="26.646,14.208 14.977,10.766 19.949,21.059 	"/>
</g>
</svg>
