<?xml version="1.0" encoding="iso-8859-1"?>
<!-- Generator: Adobe Illustrator 17.0.0, SVG Export Plug-In . SVG Version: 6.00 Build 0)  -->
<!DOCTYPE svg PUBLIC "-//W3C//DTD SVG 1.1//EN" "http://www.w3.org/Graphics/SVG/1.1/DTD/svg11.dtd">
<svg version="1.1" id="Capa_1" xmlns="http://www.w3.org/2000/svg" xmlns:xlink="http://www.w3.org/1999/xlink" x="0px" y="0px"
	 width="64px" height="64px" viewBox="0 0 64 64" style="enable-background:new 0 0 64 64;" xml:space="preserve">
<g>
	<path d="M13.716,32.167h4.305c0.324-0.66,0.723-1.275,1.195-1.829c0.75-2.476,1.976-4.744,3.577-6.695
		C18.491,24.716,15.043,27.969,13.716,32.167z"/>
	<path d="M24.81,21.554c1.601-1.449,3.43-2.651,5.447-3.508c-1.407-0.344-2.87-0.546-4.381-0.546c-8.887,0-16.325,6.3-18.095,14.667
		h4.126C13.502,26.36,18.617,22.007,24.81,21.554z"/>
	<path d="M25.486,23.27c-1.342,1.411-2.457,3.032-3.304,4.809c-0.615,1.291-1.099,2.654-1.402,4.088h4.126
		c0.483-1.755,1.286-3.374,2.345-4.797c0.923-1.24,2.033-2.329,3.297-3.22c0.579-0.408,1.19-0.771,1.827-1.092
		c1.549-0.781,3.249-1.304,5.052-1.484c0.476-0.047,0.959-0.073,1.448-0.073c6.667,0,12.282,4.529,13.969,10.667h4.126
		C55.2,23.8,47.762,17.5,38.875,17.5c-2.29,0-4.474,0.438-6.5,1.201c-1.84,0.694-3.544,1.662-5.052,2.872
		C26.671,22.096,26.061,22.665,25.486,23.27z"/>
	<path d="M39.264,23.27c-0.13-0.004-0.258-0.02-0.389-0.02c-1.65,0-3.224,0.325-4.673,0.899c-0.637,0.252-1.245,0.556-1.827,0.902
		c-1.254,0.748-2.377,1.694-3.306,2.811c-1.043,1.255-1.85,2.713-2.353,4.304h4.305c0.358-0.731,0.814-1.404,1.353-2.004
		c0.902-1.004,2.029-1.798,3.306-2.301c0.579-0.228,1.187-0.393,1.818-0.493c0.449-0.071,0.907-0.119,1.376-0.119
		c1.321,0,2.569,0.303,3.693,0.829c1.811,0.848,3.281,2.295,4.16,4.088h4.305C49.44,27.123,44.788,23.438,39.264,23.27z"/>
	<path d="M32,60.167c14.912,0,27-12.088,27-27h-1.854h-0.011h-4.042h-1.796h-4.152h-3.01h-4.042h-1.796h-4.152h-3.54h-4.152h-1.796
		h-4.042h-2.011h-0.999h-4.152h-1.796H7.615H5C5,48.078,17.088,60.167,32,60.167z"/>
</g>
</svg>
