<?xml version="1.0" encoding="iso-8859-1"?>
<!-- Generator: Adobe Illustrator 17.0.0, SVG Export Plug-In . SVG Version: 6.00 Build 0)  -->
<!DOCTYPE svg PUBLIC "-//W3C//DTD SVG 1.1//EN" "http://www.w3.org/Graphics/SVG/1.1/DTD/svg11.dtd">
<svg version="1.1" id="Capa_1" xmlns="http://www.w3.org/2000/svg" xmlns:xlink="http://www.w3.org/1999/xlink" x="0px" y="0px"
	 width="64px" height="64px" viewBox="0 0 64 64" style="enable-background:new 0 0 64 64;" xml:space="preserve">
<g>
	<path d="M60.325,38.689c0.47-10.041-5.513-19.02-14.595-23.594c0,0-0.009-0.006-0.014-0.007c-0.838-0.422-1.701-0.808-2.59-1.152
		c-4.603-2.621-6.674-7.174-6.674-7.174L25.978,4.832l-0.012,0.254v0c0,0-2.28,6.669-7.261,9.96
		c-0.611,0.308-1.207,0.637-1.788,0.985l0,0C9.72,20.331,4.829,27.612,4.433,36.074c-0.658,14.055,11.456,23.158,26.89,23.88
		C31.97,59.985,32.615,60,33.253,60C47.82,60,59.695,52.155,60.325,38.689z M49.758,32.892c0,0,2.506,12.438-1.155,18.974
		c-2.27,1.482-4.895,2.549-7.675,3.228c6.022-10.823-3.555-25.43-4.51-26.642c4.299,8.309,0.15,22.811-1.383,27.497
		C34.441,55.981,33.846,56,33.253,56c-0.575,0-1.161-0.014-1.742-0.041c-1.843-0.086-3.624-0.316-5.335-0.659
		c-3.162-4.37-0.22-21.77-0.22-21.77c-3.655,5.467-3.83,16.252-3.731,20.714c-2.459-0.84-4.676-1.975-6.588-3.364
		c-2.751-8.838,3.796-23.016,3.796-23.016c-7.123,6.361-8.809,12.964-9.027,17.205c-1.438-2.625-2.125-5.59-1.975-8.808
		c0.321-6.864,4.162-12.987,10.539-16.797c0.509-0.304,1.026-0.589,1.536-0.846l0.209-0.105l0.195-0.129
		c3.779-2.496,6.215-6.346,7.56-9.025l5.418,0.999c1.241,1.962,3.581,4.96,7.262,7.055l0.258,0.147l0.277,0.107
		c0.708,0.274,1.426,0.591,2.134,0.944l0.114,0.057c8.031,4.045,12.781,11.645,12.398,19.834c-0.183,3.923-1.517,7.138-3.606,9.697
		C52.989,43.876,52.918,36.408,49.758,32.892z"/>
	<path d="M27.911,14.984c-0.371,1.158-1.08,2.151-1.774,3.136c-0.745,1.057,0.99,2.054,1.727,1.009
		c0.801-1.136,1.549-2.279,1.976-3.614C30.234,14.284,28.302,13.761,27.911,14.984z"/>
	<path d="M38.88,18.137c-2.098-0.997-3.67-2.894-4.54-5.027c-0.481-1.177-2.416-0.663-1.929,0.532c1.061,2.6,2.875,4.994,5.46,6.223
		C39.029,20.414,40.044,18.69,38.88,18.137z"/>
</g>
</svg>
