<?xml version="1.0" encoding="iso-8859-1"?>
<!-- Generator: Adobe Illustrator 17.0.0, SVG Export Plug-In . SVG Version: 6.00 Build 0)  -->
<!DOCTYPE svg PUBLIC "-//W3C//DTD SVG 1.1//EN" "http://www.w3.org/Graphics/SVG/1.1/DTD/svg11.dtd">
<svg version="1.1" id="Capa_1" xmlns="http://www.w3.org/2000/svg" xmlns:xlink="http://www.w3.org/1999/xlink" x="0px" y="0px"
	 width="64px" height="64px" viewBox="0 0 64 64" style="enable-background:new 0 0 64 64;" xml:space="preserve">
<g>
	<path d="M13.252,1.655c-0.849-1.853-3.575-0.244-2.732,1.597c2.169,4.732,6.574,7.847,10.62,10.886
		c4.264,3.201,9.652,6.871,10.093,12.574c-3.841-6.368-9.923-10.414-16.374-13.958c-1.789-0.983-3.385,1.749-1.597,2.732
		c6.333,3.479,12.308,7.351,15.844,13.867c0.055,0.101,0.124,0.172,0.189,0.252l0.327-1.641l0.467-2.346l1.341,1.98l0.689,1.018
		c0.411-0.4,0.976-0.746,1.734-0.925c0.167-0.039,0.33-0.059,0.486-0.059c0.03,0,0.056,0.008,0.085,0.009
		C34.705,14.742,17.937,11.878,13.252,1.655z"/>
	<path d="M34.34,28.631c-0.063,0-0.136,0.012-0.211,0.027c-0.016,0.003-0.029,0.002-0.045,0.006
		c-0.534,0.126-0.909,0.358-1.189,0.612c-0.601,0.546-0.719,1.204-0.719,1.204l-0.603-0.891l-0.969-1.431l-0.393,1.971l-0.279,1.402
		c-0.43-0.981-1.919-1.099-2.609-1.099c-0.218,0-0.357,0.012-0.357,0.012l1.541,3.236c-0.151,0.064-0.305,0.13-0.459,0.199
		c-0.151,0.067-0.302,0.133-0.456,0.205c-5.415,2.52-12.193,7.773-12.193,13.426c0,6.818,5.854,12.511,13.676,13.927l0.849,1.203
		c0,0,6.433,1.293,7.559,0c0.41-0.471,0.517-0.998,0.493-1.48c7.152-1.786,12.355-7.22,12.355-13.649
		c0-6.215-8.061-11.946-13.676-14.093c-0.158-0.06-0.315-0.12-0.469-0.175c-0.166-0.059-0.327-0.112-0.488-0.164
		c0.444-0.689,0.544-2.101,0.559-2.387c-0.07,0.747-1.678,0.903-1.678,0.903S35.635,28.631,34.34,28.631z"/>
</g>
</svg>
