<?xml version="1.0" encoding="iso-8859-1"?>
<!-- Generator: Adobe Illustrator 17.0.0, SVG Export Plug-In . SVG Version: 6.00 Build 0)  -->
<!DOCTYPE svg PUBLIC "-//W3C//DTD SVG 1.1//EN" "http://www.w3.org/Graphics/SVG/1.1/DTD/svg11.dtd">
<svg version="1.1" id="Capa_1" xmlns="http://www.w3.org/2000/svg" xmlns:xlink="http://www.w3.org/1999/xlink" x="0px" y="0px"
	 width="64px" height="64px" viewBox="0 0 64 64" style="enable-background:new 0 0 64 64;" xml:space="preserve">
<g>
	<path d="M10.199,14.882c1.674,2.984,3.807,6.179,6.318,9.434c0.298-3.74,3.149-6.762,6.808-7.33
		c-3.349-2.248-6.607-4.115-9.609-5.502C12.178,12.163,10.931,13.374,10.199,14.882z"/>
	<path d="M24.648,17.885c-0.002,0-0.004,0-0.006,0c-0.026,0-0.051-0.004-0.077-0.004c-0.142,0-0.282,0.013-0.422,0.021
		c-0.168,0.01-0.334,0.024-0.498,0.045c-3.47,0.453-6.161,3.422-6.161,7.014c0,0.005,0.001,0.01,0.001,0.014
		c0,0.169,0.013,0.336,0.025,0.502c0.003,0.035,0.002,0.07,0.005,0.105c0.095,0.118,0.187,0.237,0.283,0.355
		c1.587,1.97,3.301,3.949,5.131,5.906c0.502,0.119,1.023,0.189,1.559,0.195c0-0.026-0.004-0.051-0.004-0.077
		c0-4.117,3.096-7.518,7.081-8.013c-0.046-0.32-0.111-0.633-0.198-0.938C29.126,21.157,26.872,19.435,24.648,17.885z"/>
	<path d="M33.676,24.977c-0.338-0.054-0.682-0.088-1.034-0.092c-0.026,0-0.051-0.004-0.077-0.004c-0.142,0-0.282,0.013-0.422,0.021
		c-0.168,0.01-0.334,0.024-0.498,0.045c-3.47,0.453-6.161,3.422-6.161,7.014c0,0.005,0.001,0.01,0.001,0.014
		c0,0.169,0.013,0.336,0.025,0.502c0.012,0.167,0.031,0.332,0.055,0.496c0.122,0.843,0.384,1.641,0.776,2.361
		c1.045,1.023,2.117,2.034,3.216,3.027c0.907,0.428,1.916,0.675,2.983,0.679c0.424-3.721,3.383-6.68,7.104-7.104
		c-0.002-0.513-0.061-1.012-0.167-1.493C37.59,28.528,35.645,26.702,33.676,24.977z"/>
	<path d="M41.921,33.014c-0.432-0.084-0.876-0.131-1.332-0.132c-0.008,0-0.016-0.001-0.025-0.001c-0.163,0-0.323,0.014-0.484,0.024
		c-0.173,0.012-0.344,0.03-0.514,0.054c-3.106,0.441-5.564,2.899-6.005,6.005c-0.024,0.17-0.042,0.341-0.054,0.514
		c-0.011,0.16-0.024,0.32-0.024,0.483c0,0.008,0.001,0.016,0.001,0.025c0.002,0.691,0.107,1.358,0.295,1.989
		c2.184,1.771,4.447,3.451,6.769,5.013c0.447-3.696,3.393-6.629,7.096-7.051c0-0.044-0.006-0.087-0.007-0.131
		C45.844,37.461,43.926,35.191,41.921,33.014z"/>
	<path d="M41.563,46.964c-0.024,0.17-0.042,0.341-0.054,0.514c-0.003,0.05-0.005,0.101-0.008,0.152
		c0.149,0.097,0.301,0.189,0.45,0.285c3.489,2.249,7.098,4.209,10.766,5.77c0.916-0.667,1.665-1.545,2.177-2.566
		c-1.784-3.454-3.934-6.829-6.329-10.077c-0.038-0.052-0.075-0.104-0.114-0.156c-0.124,0.002-0.247,0.01-0.37,0.019
		c-0.173,0.012-0.344,0.03-0.514,0.054C44.462,41.401,42.004,43.859,41.563,46.964z"/>
	<path d="M61.032,60.207c-0.217,0.073-0.448,0.138-0.693,0.193c0.1,0.073,0.197,0.122,0.288,0.122
		C60.777,60.521,60.911,60.409,61.032,60.207z"/>
	<path d="M7.447,4.58c-0.172,0-0.344,0.001-0.517,0.002C5.88,4.591,5.06,4.745,4.47,4.982C5.446,5.18,6.326,6.241,7.042,8.08
		c2.013,0.442,4.27,1.226,6.697,2.321c0.218,0.098,0.435,0.197,0.655,0.3c0.23,0.108,0.465,0.224,0.698,0.337
		c2.599,1.261,5.357,2.837,8.19,4.702c0.213,0.14,0.428,0.289,0.641,0.432c0.198,0.132,0.395,0.265,0.593,0.4
		c0.164,0.112,0.328,0.218,0.492,0.332c0.279,0.193,0.56,0.397,0.84,0.595c0.388,0.275,0.776,0.545,1.166,0.829
		c1.097,0.8,2.198,1.644,3.298,2.516c0.367,0.291,0.734,0.586,1.101,0.885c0.269,0.219,0.537,0.44,0.805,0.663
		c0.648,0.538,1.293,1.088,1.937,1.649c0.286,0.25,0.573,0.499,0.858,0.753c0.433,0.385,0.865,0.775,1.295,1.17
		c0.677,0.622,1.351,1.254,2.018,1.899c0.422,0.408,0.839,0.826,1.257,1.242c0.26,0.26,0.522,0.516,0.78,0.779
		c0.719,0.733,1.427,1.482,2.128,2.24c0.22,0.238,0.438,0.479,0.657,0.72c0.279,0.308,0.561,0.613,0.837,0.924
		c1.119,1.262,2.208,2.553,3.26,3.871c0.264,0.331,0.518,0.669,0.778,1.003c0.198,0.256,0.399,0.51,0.594,0.767
		c0.125,0.165,0.25,0.328,0.374,0.494c0.129,0.173,0.253,0.349,0.381,0.523c0.139,0.189,0.277,0.379,0.414,0.569
		c2.082,2.875,3.966,5.851,5.585,8.895c0.108,0.204,0.224,0.405,0.33,0.609c0.105,0.203,0.203,0.408,0.305,0.611
		c0.759,1.501,1.45,3.017,2.068,4.543c0.231,0.071,0.462,0.152,0.693,0.22c1.304,0.382,2.23,0.76,2.858,1.166
		C62.541,42.275,47.869,4.58,7.447,4.58z"/>
	<path d="M58.543,56.849c-0.019-0.006-0.035-0.011-0.055-0.017c-0.186-0.054-0.372-0.12-0.558-0.177
		c-0.204-0.062-0.409-0.129-0.613-0.195c-1.498-0.478-2.993-1.03-4.482-1.651c-0.19-0.079-0.379-0.154-0.569-0.235
		c-0.2-0.086-0.399-0.17-0.599-0.258c-3.437-1.517-6.831-3.384-10.128-5.507c-0.177-0.114-0.354-0.226-0.53-0.341
		c-0.173-0.114-0.345-0.232-0.517-0.347c-0.044-0.029-0.088-0.059-0.133-0.089c-0.284-0.19-0.569-0.378-0.851-0.571
		c-0.359-0.245-0.715-0.495-1.071-0.746c-1.251-0.882-2.485-1.794-3.698-2.738c-0.351-0.273-0.699-0.551-1.046-0.828
		c-0.263-0.211-0.528-0.419-0.789-0.632c-1.304-1.064-2.58-2.158-3.825-3.276c-1.22-1.095-2.41-2.211-3.566-3.344
		c-1.059-1.039-2.088-2.091-3.087-3.151c-0.239-0.253-0.473-0.507-0.708-0.761c-0.333-0.36-0.666-0.721-0.992-1.082
		c-0.894-0.993-1.754-1.989-2.588-2.986c-0.31-0.371-0.618-0.741-0.919-1.112c-0.207-0.255-0.41-0.51-0.613-0.765
		c-0.017-0.022-0.035-0.043-0.052-0.065c-0.12-0.151-0.244-0.301-0.362-0.452c-0.138-0.176-0.273-0.351-0.409-0.527
		c-2.358-3.044-4.394-6.047-6.044-8.896c-0.116-0.2-0.229-0.399-0.341-0.597c-0.106-0.189-0.219-0.38-0.322-0.567
		c-1.163-2.116-2.095-4.131-2.771-5.997c-0.018-0.048-0.04-0.099-0.057-0.148C6.196,8.646,6.142,8.516,6.088,8.38
		c-0.08-0.202-0.16-0.39-0.242-0.566C5.266,6.56,4.649,5.938,4.133,5.938c-0.257,0-0.487,0.159-0.676,0.459
		C3.362,6.549,3.279,6.741,3.207,6.968C3.152,7.143,3.105,7.343,3.066,7.563C2.975,8.082,2.927,8.712,2.948,9.474
		c1.055,38.532,36.199,50.368,52.519,50.368c1.089,0,2.096-0.053,3.002-0.154c0.054-0.006,0.1-0.014,0.153-0.02
		c0.182-0.022,0.36-0.044,0.525-0.068c0.187-0.027,0.357-0.057,0.523-0.088c0.883-0.162,1.47-0.366,1.756-0.602
		c0.239-0.197,0.264-0.417,0.095-0.651C61.208,57.826,60.213,57.342,58.543,56.849z"/>
</g>
</svg>
