<?xml version="1.0" encoding="iso-8859-1"?>
<!-- Generator: Adobe Illustrator 17.0.0, SVG Export Plug-In . SVG Version: 6.00 Build 0)  -->
<!DOCTYPE svg PUBLIC "-//W3C//DTD SVG 1.1//EN" "http://www.w3.org/Graphics/SVG/1.1/DTD/svg11.dtd">
<svg version="1.1" id="Capa_1" xmlns="http://www.w3.org/2000/svg" xmlns:xlink="http://www.w3.org/1999/xlink" x="0px" y="0px"
	 width="64px" height="64px" viewBox="0 0 64 64" style="enable-background:new 0 0 64 64;" xml:space="preserve">
<g>
	<path d="M42.07,4.661c1.967-1.741-0.919-4.606-2.875-2.875c-2.577,2.28-4.707,4.933-6.382,7.844
		c-0.54-0.037-1.083-0.063-1.633-0.063c-13.384,0-24.234,11.287-24.234,25.211c0,13.924,10.85,25.211,24.234,25.211
		s24.234-11.287,24.234-25.211c0-3.525-0.698-6.881-1.954-9.928c-0.071-0.171-0.147-0.34-0.221-0.509
		c-0.076-0.174-0.148-0.349-0.228-0.521c1.023,0.089,2.093,0.143,3.228,0.143c0.001,0,0.001,0,0.002,0
		c0.372,0,0.748-0.005,1.129-0.016c-0.496-2.85-3.111-15.771-9.728-15.771c-1.124,0-2.336,0.376-3.603,1.119
		c-1.287,0.755-2.309,1.569-3.082,2.416c-0.16-0.074-0.32-0.148-0.482-0.219c-0.164-0.071-0.33-0.136-0.495-0.203
		c-0.912-0.37-1.848-0.689-2.81-0.944C38.517,8.278,40.139,6.37,42.07,4.661z M38.311,14.953c0.164,0.065,0.332,0.121,0.494,0.19
		c0.168,0.072,0.334,0.147,0.5,0.223c-0.01,0.428,0.019,0.857,0.135,1.287c0.655,2.412,3.522,4.949,8.534,6.308
		c0.123,0.191,0.226,0.396,0.343,0.591c0.113,0.189,0.224,0.379,0.332,0.572c1.747,3.135,2.766,6.768,2.766,10.654
		c0,11.696-9.077,21.211-20.234,21.211s-20.234-9.515-20.234-21.211c0-11.598,8.929-21.04,19.959-21.196
		c-0.852,2.122-1.503,4.336-1.89,6.636c-0.02,0.117-0.021,0.227-0.023,0.337c-0.608-0.209-1.213-0.494-1.821-0.859
		c-1.691-1.014-3.223,1.623-1.539,2.633c3.217,1.93,6.549,2.207,9.925,0.508c1.757-0.884,0.213-3.515-1.539-2.633
		c-0.315,0.158-0.626,0.286-0.935,0.392c0.445-2.324,1.14-4.533,2.081-6.612C36.249,14.212,37.295,14.55,38.311,14.953z"/>
</g>
</svg>
