<?xml version="1.0" encoding="iso-8859-1"?>
<!-- Generator: Adobe Illustrator 17.0.0, SVG Export Plug-In . SVG Version: 6.00 Build 0)  -->
<!DOCTYPE svg PUBLIC "-//W3C//DTD SVG 1.1//EN" "http://www.w3.org/Graphics/SVG/1.1/DTD/svg11.dtd">
<svg version="1.1" id="Capa_1" xmlns="http://www.w3.org/2000/svg" xmlns:xlink="http://www.w3.org/1999/xlink" x="0px" y="0px"
	 width="64px" height="64px" viewBox="0 0 64 64" style="enable-background:new 0 0 64 64;" xml:space="preserve">
<g>
	<path d="M7.231,7.054C6.689,7.162,6.52,7.607,6.853,8.048l2.825,3.737c1.039-0.763,2.23-1.358,3.565-1.725
		c0.507-0.139,1.032-0.228,1.566-0.288l0.469-3.365c0.076-0.547-0.301-0.903-0.842-0.794L7.231,7.054z"/>
	<path d="M60.492,46.322l-2.217,0.35l-0.505,0.08l-0.507,0.08c0.414-5.265-2.791-11.094-9.596-11.498
		c-9.523-0.565-19.772-7.257-21.857-17.325c-0.926-4.471-5.424-7.315-9.795-7.315c-0.452,0-0.902,0.036-1.347,0.098
		c-0.391,0.055-0.779,0.128-1.158,0.233c-1.225,0.337-2.297,0.878-3.225,1.561c-3.239,2.384-4.618,6.595-3.76,10.74
		c3.9,18.833,22.852,30.923,41.143,32.008c0.242,0.014,0.479,0.021,0.711,0.021c3.164,0,5.477-1.309,6.958-3.25l0.416,0.303
		l0.373,0.271l2.878,2.096c0.446,0.325,0.888,0.148,0.987-0.395l1.311-7.23C61.4,46.606,61.038,46.235,60.492,46.322z M44,42.667
		c-7.448-0.178-13.662-3.412-18.768-8.732c-2.232-2.326,1.299-5.866,3.536-3.536c4.194,4.37,9.08,7.121,15.232,7.268
		C47.219,37.744,47.226,42.744,44,42.667z"/>
</g>
</svg>
