<?xml version="1.0" encoding="iso-8859-1"?>
<!-- Generator: Adobe Illustrator 17.0.0, SVG Export Plug-In . SVG Version: 6.00 Build 0)  -->
<!DOCTYPE svg PUBLIC "-//W3C//DTD SVG 1.1//EN" "http://www.w3.org/Graphics/SVG/1.1/DTD/svg11.dtd">
<svg version="1.1" id="Capa_1" xmlns="http://www.w3.org/2000/svg" xmlns:xlink="http://www.w3.org/1999/xlink" x="0px" y="0px"
	 width="64px" height="64px" viewBox="0 0 64 64" style="enable-background:new 0 0 64 64;" xml:space="preserve">
<g>
	<path d="M41.35,40.071c1.321-0.217,2.685-0.624,4.083-1.221c0.172-0.074,0.346-0.154,0.519-0.234
		c0.492-0.225,0.987-0.465,1.486-0.736c0.123-0.067,0.252-0.124,0.384-0.177c-0.687-4.52-3.151-9.424-7.241-13.681
		c-4.254-4.427-9.518-7.292-14.448-7.939c-0.048,0.115-0.09,0.232-0.149,0.342c-0.371,0.683-0.684,1.355-0.968,2.021
		c-0.005,0.012-0.01,0.024-0.015,0.036c-0.431,1.016-0.769,2.015-0.997,2.994c0.13,0.046,0.264,0.081,0.406,0.092
		c-0.421,0.508-0.466,1.284-0.161,1.866c-0.19,0.34-0.395,0.637-0.616,0.912c-0.048,1.814,0.279,3.566,0.985,5.263
		c0.041,0.022,0.077,0.055,0.119,0.073c-0.011,0.078,0.002,0.155,0.004,0.233c0.449,1.011,1.041,2.001,1.761,2.975
		c0.131-0.032,0.262-0.067,0.394-0.093c-0.091,0.095-0.161,0.21-0.229,0.325c0.559,0.733,1.193,1.456,1.906,2.169
		c0.962,0.962,1.935,1.765,2.921,2.445c0.022-0.187,0.019-0.377-0.048-0.563c-0.264-0.733-0.585-1.437-0.938-2.125
		c0.06,0.014,0.117,0.039,0.178,0.051c0.263,0.05,0.52,0.029,0.766-0.025c-0.076,0.262-0.088,0.546-0.025,0.831
		c0.046,0.208,0.136,0.594,0.141,0.7c0.035,0.681,0.447,1.268,1.059,1.486c0,0.011-0.005,0.019-0.005,0.03v0.335
		c1.006,0.579,2.03,1.008,3.074,1.306c0.052-0.157,0.09-0.326,0.09-0.52v-0.052c0.12,0.113,0.255,0.212,0.422,0.277
		c0.029,0.184,0.091,0.342,0.166,0.489c0.909,0.205,1.834,0.307,2.779,0.307c0.517,0,1.044-0.041,1.576-0.105
		c0.053-0.239,0.07-0.487,0.005-0.731c0.022-0.001,0.043-0.002,0.065-0.003C40.908,39.691,41.1,39.914,41.35,40.071z M42.576,32.323
		c-0.074,0.074-0.139,0.159-0.196,0.25c-0.055-0.743-0.557-1.444-1.519-1.439c-0.075,0-0.149,0.005-0.224,0.006
		c0.108-0.143,0.186-0.316,0.235-0.511c0.042-0.017,0.086-0.021,0.128-0.04c0.417-0.196,0.861-0.274,1.311-0.294
		c0.338,0.546,0.647,1.094,0.933,1.645C43.008,32.006,42.779,32.12,42.576,32.323z M44.268,38.281
		c0.166-0.348,0.245-0.735,0.186-1.096c0.234-0.018,0.455-0.101,0.659-0.212c0.099,0.443,0.176,0.88,0.236,1.313
		C44.997,38.173,44.606,38.152,44.268,38.281z M35.638,27.561c-0.247,0.03-0.494,0.063-0.741,0.094
		c-0.049-0.243-0.145-0.476-0.294-0.674c0.366-0.113,0.684-0.349,0.872-0.706C35.548,26.701,35.585,27.132,35.638,27.561z
		 M27.088,28.235c-0.064,0-0.126,0.008-0.189,0.01c0.013-0.285-0.05-0.568-0.224-0.809c-0.236-0.325-0.462-0.658-0.695-0.985
		c0.259-0.315,0.498-0.644,0.722-0.984c0.224,0.91,0.349,1.838,0.437,2.772C27.12,28.24,27.105,28.235,27.088,28.235z M28.12,21.052
		c0.067-0.115,0.126-0.236,0.163-0.37c0.189-0.686-0.132-1.432-0.73-1.784c1.182,0.293,2.39,0.729,3.597,1.296
		c-0.069,0.483-0.138,0.966-0.213,1.447c-0.253-0.347-0.653-0.589-1.214-0.589H28.12z M31.528,32.048
		c-0.326-0.062-0.605-0.139-0.808-0.236c-0.054-0.026-0.109-0.043-0.164-0.063c-0.048-0.619-0.088-1.241-0.125-1.865
		c0.328,0.679,0.684,1.344,1.091,1.983c0.067,0.105,0.15,0.175,0.229,0.254C31.679,32.092,31.607,32.063,31.528,32.048z
		 M32.391,26.424c-0.007-0.02-0.015-0.039-0.022-0.058c-0.396-1.118-1.605-1.294-2.405-0.865c-0.083-0.432-0.181-0.861-0.303-1.284
		h0.063c0.437,0,0.774-0.15,1.024-0.378c0.136,0.516,0.48,0.953,1.06,1.113c0.254,0.07,0.53,0.061,0.794-0.004
		c-0.066,0.173-0.109,0.366-0.109,0.588c0,0.356,0.101,0.646,0.26,0.878C32.631,26.418,32.511,26.418,32.391,26.424z M33.685,24.051
		c0.026-0.067,0.054-0.133,0.068-0.206c0.13-0.665,0.233-1.335,0.331-2.005c0.378,0.248,0.755,0.505,1.128,0.78
		c-0.132,0.22-0.216,0.484-0.216,0.805c0,0.45,0.159,0.794,0.399,1.046c-0.014,0.038-0.041,0.068-0.053,0.108
		C34.957,24.093,34.283,23.919,33.685,24.051z M34.48,30.882c0.476-0.068,0.954-0.129,1.431-0.188
		c0.012,0.242,0.035,0.483,0.044,0.726c-0.524,0.057-1.047,0.124-1.57,0.199C34.485,31.395,34.519,31.144,34.48,30.882z
		 M35.517,37.227c-0.194-0.274-0.477-0.458-0.79-0.554c0-0.023,0.006-0.045,0.005-0.068c-0.027-0.527-0.141-1.028-0.254-1.541
		c-0.02-0.091-0.053-0.176-0.09-0.258c0.547-0.086,1.095-0.163,1.643-0.226c0.01,0.683,0.024,1.366,0.041,2.047
		C35.825,36.772,35.643,36.985,35.517,37.227z M38.898,28.306c-0.083-0.937-0.208-1.868-0.364-2.796
		c0.081,0.083,0.165,0.161,0.245,0.245c0.502,0.523,0.97,1.06,1.419,1.604c-0.134,0.119-0.333,0.283-0.795,0.5
		C39.189,27.959,39.023,28.118,38.898,28.306z M39.218,36.334c-0.018-0.665-0.035-1.331-0.048-1.997
		c0.562-0.021,1.126-0.036,1.691-0.039c0.084,0,0.156-0.018,0.233-0.029c-0.298,0.255-0.497,0.638-0.497,1.149
		c0,0.337,0.092,0.613,0.236,0.839C40.295,36.289,39.757,36.315,39.218,36.334z"/>
	<path d="M37.955,60.494c8.195,0,16.39-2.895,22.92-8.684c0.871-0.773,0.867-2.113,0.044-2.937l-9.695-9.695
		c-0.497-0.497-1.226-0.749-1.951-0.749c-0.465,0-0.927,0.108-1.327,0.318c-0.009,0.005-0.021,0.006-0.03,0.011
		c-0.494,0.268-0.989,0.51-1.484,0.739c-0.314,0.145-0.627,0.284-0.941,0.412c-1.041,0.426-2.084,0.763-3.126,0.991
		c-0.804,0.176-1.608,0.284-2.412,0.33c-0.267,0.015-0.534,0.031-0.801,0.031c-0.614,0-1.227-0.057-1.839-0.141
		c-0.785-0.107-1.57-0.274-2.352-0.528c-2.388-0.777-4.759-2.257-7.096-4.594c-0.447-0.447-0.856-0.895-1.241-1.344
		c-0.409-0.476-0.777-0.954-1.119-1.433c-0.644-0.901-1.169-1.805-1.589-2.713c-0.449-0.97-0.781-1.944-0.994-2.92
		c-0.196-0.897-0.302-1.796-0.314-2.697c-0.018-1.374,0.172-2.75,0.538-4.127c0.195-0.736,0.438-1.472,0.731-2.208
		c0.014-0.036,0.026-0.072,0.041-0.108c0.334-0.824,0.726-1.647,1.171-2.469c0.006-0.01,0.01-0.021,0.016-0.031
		c0.556-1.023,0.404-2.484-0.42-3.307l-9.695-9.695c-0.407-0.407-0.94-0.614-1.469-0.614c-0.541,0-1.077,0.217-1.468,0.658
		C0.012,16.572,0.494,37.359,13.5,50.365C20.253,57.117,29.104,60.494,37.955,60.494z"/>
</g>
</svg>
