<?xml version="1.0" encoding="iso-8859-1"?>
<!-- Generator: Adobe Illustrator 17.0.0, SVG Export Plug-In . SVG Version: 6.00 Build 0)  -->
<!DOCTYPE svg PUBLIC "-//W3C//DTD SVG 1.1//EN" "http://www.w3.org/Graphics/SVG/1.1/DTD/svg11.dtd">
<svg version="1.1" id="Capa_1" xmlns="http://www.w3.org/2000/svg" xmlns:xlink="http://www.w3.org/1999/xlink" x="0px" y="0px"
	 width="64px" height="64px" viewBox="0 0 64 64" style="enable-background:new 0 0 64 64;" xml:space="preserve">
<g>
	<path d="M48,30.545l-1.567-1.917c2.097-2.759,3.317-6.165,3.317-9.944c0-9.666-7.9-16.954-18.375-16.954S13,9.019,13,18.685
		c0,3.987,1.36,7.557,3.675,10.391l-1.175,1.48v31.663H48V30.545z M18,31.426l0.409-0.515l1.879-2.368l2.342-2.951v-5.259H40.5
		v4.987l2.327,2.847l1.924,2.353l0.749,0.916v28.281H18V31.426z M16,18.685C16,10.978,22.331,4.73,31.375,4.73
		S46.75,10.978,46.75,18.685c0,2.772-0.83,5.348-2.299,7.519L43,24.429v-5.264c0.94-0.612,1.589-1.827,1.589-3.244
		c0-2.028-1.316-3.672-2.94-3.672H21.418c-1.624,0-2.94,1.644-2.94,3.672c0,1.448,0.677,2.688,1.651,3.286v5.514l-1.525,1.922
		C16.941,24.385,16,21.645,16,18.685z"/>
	<path d="M41.475,32.997c-2.328-1.344-4.521-0.824-7.352,0.843c-2.792,1.644-5.021,1.029-7.817-0.146
		c-1.322-0.556-2.607-0.452-3.837-0.041c-0.773,0.258-1.524,0.637-2.248,1.056c-0.66,0.382-0.84,1.008-0.716,1.581v21.544h24.299
		V36.172c0.214-0.504,0.171-1.106-0.336-1.609C42.782,33.882,42.124,33.371,41.475,32.997z M40.804,54.833H22.505V37.047
		c3.299-1.307,5.893,1.756,9.489,0.944c3.263-0.737,5.859-3.993,8.81-1.637V54.833z"/>
</g>
</svg>
