<?xml version="1.0" encoding="iso-8859-1"?>
<!-- Generator: Adobe Illustrator 17.0.0, SVG Export Plug-In . SVG Version: 6.00 Build 0)  -->
<!DOCTYPE svg PUBLIC "-//W3C//DTD SVG 1.1//EN" "http://www.w3.org/Graphics/SVG/1.1/DTD/svg11.dtd">
<svg version="1.1" id="Capa_1" xmlns="http://www.w3.org/2000/svg" xmlns:xlink="http://www.w3.org/1999/xlink" x="0px" y="0px"
	 width="64px" height="64px" viewBox="0 0 64 64" style="enable-background:new 0 0 64 64;" xml:space="preserve">
<g>
	<path d="M32.375,60.397L32.75,60.5v-0.207l21-5.793V2.942L32.375,8.838L11,2.942V54.5l21,5.793V60.5L32.375,60.397z M13.5,8.625
		l11.246,3v11.246l-11.246-3V8.625z M30.746,42.871l-11.246-3V28.625l11.246,3V42.871z M35,11.226l15.75-4.345v45.334L35,56.56
		V11.226z"/>
	<path d="M36.252,25.84l13.246-3.533V8.99l-13.246,3.533V25.84z M38.252,14.061l9.246-2.467v9.176l-9.246,2.467V14.061z"/>
</g>
</svg>
