<?xml version="1.0" encoding="utf-8"?>
<!-- Generator: Adobe Illustrator 16.0.0, SVG Export Plug-In . SVG Version: 6.00 Build 0)  -->
<!DOCTYPE svg PUBLIC "-//W3C//DTD SVG 1.1//EN" "http://www.w3.org/Graphics/SVG/1.1/DTD/svg11.dtd">
<svg version="1.1" id="Capa_1" xmlns="http://www.w3.org/2000/svg" xmlns:xlink="http://www.w3.org/1999/xlink" x="0px" y="0px"
	 width="64px" height="64px" viewBox="0 0 64 64" enable-background="new 0 0 64 64" xml:space="preserve">
<g>
	<path d="M2.565,33.817c0,16.256,13.178,29.436,29.435,29.436c16.255,0,29.436-13.18,29.436-29.436H2.565z"/>
	<path d="M13.416,31.673h46.98c-0.363-1.444-1.345-2.638-2.646-3.294c0.021-0.184,0.055-0.365,0.055-0.556
		c0-2.112-1.53-3.857-3.542-4.21c0-0.024,0.009-0.049,0.009-0.075c0-1.781-1.216-3.267-2.854-3.709c0-0.007,0.001-0.014,0.001-0.02
		c0-0.358-0.097-0.69-0.253-0.985l7.067-12.479c0.431-0.763,0.161-1.731-0.601-2.163c-0.758-0.43-1.729-0.164-2.162,0.599
		l-7.039,12.424c-0.589-0.683-1.448-1.123-2.421-1.123c-0.021,0-0.038,0.007-0.058,0.007c-0.101-0.383-0.331-0.706-0.636-0.933
		l4.378-12.447c0.29-0.827-0.143-1.732-0.971-2.023c-0.829-0.292-1.731,0.144-2.022,0.97L42.115,14.69
		c-0.49-0.229-1.025-0.369-1.604-0.369c-0.021,0-0.045,0.007-0.065,0.007c-0.225-0.87-1.006-1.516-1.943-1.516
		c-0.519,0-0.989,0.202-1.346,0.525c-0.661-0.327-2.891-0.837-4.593,0.129c-0.198,0.112-0.384,0.237-0.563,0.372
		c-0.178-0.135-0.37-0.252-0.56-0.372c-0.615-0.387-3.049-0.997-4.594-0.13c-0.356-0.325-0.825-0.525-1.345-0.525
		c-0.94,0-1.722,0.646-1.943,1.516c-0.025,0-0.047-0.007-0.07-0.007c-1.008,0-1.918,0.396-2.605,1.028
		c-0.307-0.323-0.735-0.525-1.214-0.525c-0.782,0-1.435,0.538-1.62,1.264c-0.02,0-0.038-0.006-0.058-0.006
		c-1.206,0-2.246,0.67-2.8,1.65c-0.152-0.035-0.309-0.058-0.472-0.058c-1.178,0-2.133,0.956-2.133,2.133
		c0,0.008,0.001,0.014,0.001,0.021c-1.642,0.442-2.856,1.928-2.856,3.709c0,0.025,0.007,0.05,0.007,0.075
		c-2.011,0.352-3.542,2.096-3.542,4.209c0,0.19,0.032,0.372,0.056,0.555c-1.304,0.656-2.284,1.851-2.646,3.294L13.416,31.673z"/>
</g>
</svg>
