<?xml version="1.0" encoding="iso-8859-1"?>
<!-- Generator: Adobe Illustrator 17.0.0, SVG Export Plug-In . SVG Version: 6.00 Build 0)  -->
<!DOCTYPE svg PUBLIC "-//W3C//DTD SVG 1.1//EN" "http://www.w3.org/Graphics/SVG/1.1/DTD/svg11.dtd">
<svg version="1.1" id="Capa_1" xmlns="http://www.w3.org/2000/svg" xmlns:xlink="http://www.w3.org/1999/xlink" x="0px" y="0px"
	 width="64px" height="64px" viewBox="0 0 64 64" style="enable-background:new 0 0 64 64;" xml:space="preserve">
<g>
	<path d="M51,60V28h0.077C51.483,28,51,27.574,51,27.141V26v-2.384C51,23.184,51.136,19,47.132,17l-0.879-9h-6.116
		c0,0-1.274,9-1.317,9c-4.6,3-4.82,6.184-4.82,6.616V26v1.141V28h1.14H42v26h-8v6c0,1.105,0.895,2,2,2h13C50.105,62,51,61.105,51,60
		z"/>
	<path d="M41.546,7h3.398C45.695,7,46,5.925,46,5.126V4.764C46,3.965,45.695,3,44.944,3h-3.398C40.796,3,40,3.965,40,4.764v0.362
		C40,5.925,40.796,7,41.546,7z"/>
	<path d="M9.678,59.321C9.678,60.8,13.485,62,18.18,62s8.502-1.2,8.502-2.679c0-1.23-2.632-2.263-6.216-2.578v-0.28h0.5
		c2.733,0,5.204-2.211,5.507-4.928l3.621-32.472c0.075-0.671-0.121-1.306-0.553-1.789c-0.041-0.046-0.091-0.08-0.135-0.122
		c-0.142-0.134-0.298-0.248-0.467-0.34c-0.155-0.084-0.317-0.15-0.49-0.197c0.005-0.102,0.016-0.203,0.016-0.306
		c0-3.184-2.59-5.773-5.773-5.773c-0.326,0-0.644,0.034-0.955,0.086c-0.165,0.028-0.328,0.063-0.488,0.104
		c-0.162,0.042-0.321,0.09-0.477,0.145c-2.241,0.794-3.853,2.929-3.853,5.438c0,0.073,0.008,0.143,0.011,0.215h-0.5h-0.5
		c-0.002-0.072-0.011-0.142-0.011-0.215c0-2.909,1.846-5.388,4.426-6.346c-0.699-1.06-1.896-1.763-3.258-1.763
		c-1.352,0-2.589,0.688-3.31,1.84l-0.144,0.229l-0.271,0.006c-3.117,0.063-5.653,2.65-5.653,5.767c0,0.211,0.013,0.42,0.035,0.625
		c-0.166,0.059-0.324,0.133-0.471,0.228c-0.162,0.105-0.316,0.225-0.448,0.372c-0.002,0.002-0.004,0.003-0.006,0.006
		c-0.433,0.483-0.629,1.118-0.554,1.788l3.621,32.473c0.303,2.717,2.773,4.928,5.507,4.928h0.501v0.28
		C12.311,57.057,9.678,58.091,9.678,59.321z M11.377,51.369L7.858,19.814l-0.102-0.918c-0.01-0.09,0.005-0.174,0.02-0.256
		c0.025-0.137,0.071-0.264,0.161-0.365c0.048-0.054,0.114-0.087,0.176-0.124c0.123-0.073,0.262-0.125,0.423-0.125h7.611h0.515h0.516
		h1.719h0.533h0.527h7.867c0.128,0,0.246,0.028,0.352,0.076c0.094,0.042,0.179,0.098,0.247,0.173
		c0.062,0.07,0.102,0.155,0.134,0.244c0.041,0.116,0.062,0.242,0.047,0.378l-0.097,0.868l-3.524,31.605
		c-0.222,1.981-2.023,3.594-4.017,3.594h-5.573C13.4,54.963,11.599,53.351,11.377,51.369z M24.89,59.321
		C23.993,59.83,21.658,60.5,18.18,60.5s-5.812-0.67-6.709-1.179c0.683-0.388,2.204-0.867,4.423-1.074v1.253h4.573v-1.253
		C22.686,58.454,24.207,58.933,24.89,59.321z"/>
	<path d="M24.3,48.872l2.382-25.416H9.714l2.347,25.416c0.242,2.831,2.309,5.127,4.617,5.127h3.005
		C21.991,53.998,24.058,51.703,24.3,48.872z M14.32,45.068c-0.015,0.001-0.029,0.001-0.045,0.001c-0.394,0-0.725-0.308-0.748-0.706
		L12.562,27.98c-0.024-0.413,0.291-0.769,0.705-0.793c0.374-0.024,0.769,0.291,0.793,0.705l0.966,16.383
		C15.05,44.688,14.734,45.044,14.32,45.068z M18.199,45.083L18.199,45.083c-0.415,0-0.751-0.335-0.751-0.749l-0.018-16.41
		c0-0.414,0.335-0.751,0.749-0.751h0.001c0.414,0,0.75,0.335,0.75,0.749l0.018,16.41C18.948,44.746,18.613,45.083,18.199,45.083z
		 M22.104,45.069c-0.016,0-0.03,0-0.045-0.001c-0.414-0.024-0.729-0.38-0.705-0.793l0.965-16.383c0.024-0.414,0.41-0.72,0.793-0.705
		c0.414,0.024,0.729,0.38,0.705,0.793l-0.965,16.383C22.828,44.762,22.497,45.069,22.104,45.069z"/>
</g>
</svg>
