<?xml version="1.0" encoding="iso-8859-1"?>
<!-- Generator: Adobe Illustrator 17.0.0, SVG Export Plug-In . SVG Version: 6.00 Build 0)  -->
<!DOCTYPE svg PUBLIC "-//W3C//DTD SVG 1.1//EN" "http://www.w3.org/Graphics/SVG/1.1/DTD/svg11.dtd">
<svg version="1.1" id="Capa_1" xmlns="http://www.w3.org/2000/svg" xmlns:xlink="http://www.w3.org/1999/xlink" x="0px" y="0px"
	 width="64px" height="64px" viewBox="0 0 64 64" style="enable-background:new 0 0 64 64;" xml:space="preserve">
<g>
	<path d="M41.758,40.216h-0.032c0.415-1.554,0.633-3.315,0.646-5.257c0.027-3.906-0.018-6.988-0.22-9.414
		c-0.655,0.171-1.313,0.329-1.974,0.47c0.163,2.187,0.221,5.079,0.194,8.93c-0.017,2.291-0.336,4.283-0.95,5.919l-0.498,1.352h0.044
		l-3.917,11.45l0.022,7.327l-5.181,0.006l-0.006-6.911l0.002-0.284l-0.076-0.185c-1.43-3.438-3.294-8.652-4.133-11.035l0.044-0.002
		l-0.443-1.27c-0.482-1.383-0.721-3.058-0.707-4.978c0.03-4.263,0.066-7.453,0.203-9.86c-0.67-0.11-1.332-0.242-1.988-0.387
		c-0.159,2.59-0.185,5.918-0.215,10.233c-0.012,1.63,0.135,3.073,0.446,4.377l-0.111,0.005l0.438,1.268
		c0.026,0.076,2.63,7.598,4.541,12.227l0.008,8.804l9.181-0.01l-0.008-8.975c0-0.021,0-0.041-0.001-0.062l4.247-12.416
		L41.758,40.216z"/>
	<path d="M35.771,36.001h0.752c0.874,0,1.467-0.896,1.472-1.718l0.157-7.879c-0.668,0.111-1.338,0.206-2.008,0.285l-0.117,5.826
		l-0.966-5.715c-0.669,0.062-1.337,0.113-2.005,0.143l1.253,7.411c0.024,0.463,0.222,0.931,0.529,1.241
		C35.095,35.856,35.425,36,35.771,36.001z"/>
	<path d="M27.997,36.142l0.807,0.011c0.84,0,1.422-0.833,1.47-1.643l1.214-7.526c-0.1,0.001-0.2,0.006-0.299,0.006
		c-0.577,0-1.151-0.014-1.721-0.038l-0.955,5.922l-0.142-5.986c-0.674-0.047-1.343-0.106-2.005-0.186l0.182,7.686
		C26.542,35.229,27.126,36.135,27.997,36.142z"/>
	<path d="M7.141,5.513c-2.905,4.173-1.528,9.465,2.312,12.588c4.031,3.279,8.633,5.382,13.454,6.475
		c0.656,0.149,1.315,0.277,1.978,0.389c0.48,0.081,0.961,0.152,1.444,0.214c0.205,0.026,0.41,0.055,0.616,0.078
		c0.293,0.032,0.586,0.057,0.88,0.083c0.17,0.015,0.339,0.034,0.509,0.046c0.457,0.034,0.915,0.059,1.373,0.076
		c0.493,0.019,0.986,0.028,1.48,0.028c0.181,0,0.361-0.009,0.542-0.011c0.358-0.005,0.716-0.008,1.074-0.022
		c0.669-0.027,1.338-0.074,2.006-0.134c0.455-0.041,0.91-0.085,1.363-0.141c0.221-0.027,0.44-0.063,0.661-0.094
		c0.328-0.046,0.657-0.088,0.985-0.142c0.121-0.02,0.241-0.044,0.362-0.064c0.621-0.106,1.239-0.228,1.854-0.362
		c0.657-0.142,1.31-0.301,1.959-0.474c5.141-1.366,10.021-3.656,14.211-6.696c7.575-5.496,1.261-15.823-6.336-15.823
		c-1.724,0-3.513,0.531-5.222,1.771c-0.958,0.695-1.996,1.311-3.09,1.846c0.24,1.84,0.758,3.654,1.194,5.458
		c0.282,1.168-0.709,2.014-1.599,2.014c-0.527,0-1.018-0.297-1.188-0.999c-0.433-1.791-0.898-3.55-1.195-5.332
		c-1.872,0.624-3.846,1.016-5.84,1.144c-0.758,1.954-1.146,4.03-1.258,6.135c-0.051,0.963-0.831,1.449-1.581,1.449
		c-0.742,0-1.455-0.476-1.404-1.437c0.113-2.13,0.453-4.178,1.081-6.169c-1.851-0.15-3.678-0.549-5.417-1.217
		c-0.939,1.559-1.52,3.325-2.065,5.069c-0.229,0.731-0.831,1.049-1.435,1.049c-0.905,0-1.812-0.712-1.469-1.811
		c0.611-1.956,1.285-3.862,2.277-5.607c-0.704-0.419-1.384-0.889-2.035-1.418c-1.463-1.19-3.24-1.727-5.023-1.727
		C11.698,1.745,8.774,3.167,7.141,5.513z"/>
</g>
</svg>
