<?xml version="1.0" encoding="iso-8859-1"?>
<!-- Generator: Adobe Illustrator 17.0.0, SVG Export Plug-In . SVG Version: 6.00 Build 0)  -->
<!DOCTYPE svg PUBLIC "-//W3C//DTD SVG 1.1//EN" "http://www.w3.org/Graphics/SVG/1.1/DTD/svg11.dtd">
<svg version="1.1" id="Capa_1" xmlns="http://www.w3.org/2000/svg" xmlns:xlink="http://www.w3.org/1999/xlink" x="0px" y="0px"
	 width="64px" height="64px" viewBox="0 0 64 64" style="enable-background:new 0 0 64 64;" xml:space="preserve">
<g>
	<path d="M52.354,40.504c0.849-0.635,1.484-1.34,1.94-2.086c0.44-0.719,0.709-1.474,0.83-2.241c0.695-4.415-3.517-9.182-8.305-9.182
		c-1.502,0-3.06,0.469-4.54,1.566c-0.816,0.605-1.703,1.143-2.638,1.611c0.085,0.606,0.211,1.207,0.349,1.807
		c0.221,0.962,0.483,1.918,0.723,2.87c0.113,0.449-0.001,0.839-0.223,1.139c-0.275,0.372-0.72,0.604-1.145,0.604
		c-0.448,0-0.866-0.252-1.017-0.848c-0.387-1.534-0.801-3.04-1.072-4.568c-1.602,0.552-3.294,0.905-5.005,1.032
		c-0.634,1.684-0.95,3.471-1.028,5.279c-0.036,0.834-0.711,1.258-1.36,1.258c-0.46,0-0.902-0.216-1.098-0.647
		c-0.073-0.162-0.115-0.351-0.105-0.575c0.049-1.145,0.186-2.26,0.401-3.356c0.129-0.656,0.279-1.308,0.475-1.95
		c-1.591-0.113-3.163-0.44-4.661-0.999c-0.793,1.346-1.277,2.868-1.73,4.37c-0.192,0.636-0.715,0.913-1.238,0.913
		c-0.372,0-0.741-0.142-0.995-0.392c-0.274-0.269-0.414-0.663-0.267-1.151c0.204-0.675,0.422-1.341,0.658-1.997
		c0.071-0.199,0.141-0.399,0.217-0.595c0.092-0.239,0.194-0.473,0.294-0.708c0.224-0.523,0.462-1.039,0.738-1.535
		c-0.608-0.354-1.196-0.752-1.759-1.2c-1.246-0.993-2.746-1.44-4.252-1.441c-2.518,0-5.054,1.251-6.45,3.3
		c-1.104,1.62-1.46,3.427-1.221,5.166c0.132,0.958,0.444,1.895,0.915,2.769c0.578,1.072,1.39,2.051,2.399,2.855
		c0.054,0.043,0.112,0.078,0.167,0.121c5.327,4.18,11.748,6.04,18.221,6.04c7.785,0,15.641-2.677,21.752-7.205
		C52.334,40.52,52.343,40.512,52.354,40.504z"/>
	<path d="M23.934,26.776c1.695-1.559,2.242-3.392,1.772-5.629c-0.511-2.431-2.526-4.55,0.094-6.453
		c1.643-1.193,0.057-3.956-1.606-2.748c-1.982,1.44-3.373,3.311-2.889,5.878c0.437,2.321,2.52,4.733,0.38,6.702
		C20.17,25.918,22.426,28.162,23.934,26.776z"/>
	<path d="M31.889,26.776c1.695-1.559,2.242-3.392,1.772-5.629c-0.511-2.431-2.526-4.55,0.094-6.453
		c1.643-1.193,0.057-3.956-1.606-2.748c-1.982,1.44-3.373,3.311-2.889,5.878c0.437,2.321,2.52,4.733,0.38,6.702
		C28.126,25.918,30.382,28.162,31.889,26.776z"/>
	<path d="M40.104,11.946c-1.983,1.44-3.373,3.311-2.89,5.878c0.437,2.321,2.52,4.733,0.38,6.702c-1.513,1.392,0.743,3.636,2.25,2.25
		c1.695-1.559,2.242-3.392,1.772-5.629c-0.511-2.431-2.526-4.55,0.094-6.453C43.353,13.5,41.768,10.738,40.104,11.946z"/>
</g>
</svg>
