<?xml version="1.0" encoding="iso-8859-1"?>
<!-- Generator: Adobe Illustrator 17.0.0, SVG Export Plug-In . SVG Version: 6.00 Build 0)  -->
<!DOCTYPE svg PUBLIC "-//W3C//DTD SVG 1.1//EN" "http://www.w3.org/Graphics/SVG/1.1/DTD/svg11.dtd">
<svg version="1.1" id="Capa_1" xmlns="http://www.w3.org/2000/svg" xmlns:xlink="http://www.w3.org/1999/xlink" x="0px" y="0px"
	 width="64px" height="64px" viewBox="0 0 64 64" style="enable-background:new 0 0 64 64;" xml:space="preserve">
<g>
	<path d="M13.872,61.051c0.955,0,1.922-0.096,2.888-0.291c8.493-1.719,15.829-5.957,21.74-11.711c1.262,1.23,2.87,2.697,4.907,4.55
		c1.14,1.036,2.247,1.806,3.332,2.264c0,0,5.672,2.386,9.23,3.631l3.33,2.757l3.44-4.154l-3.756-3.11l-4.421-8.329l-0.005,0.005
		c-0.674-1.291-1.713-2.543-2.995-3.708c-1.988-1.808-3.581-3.189-4.896-4.218c4.774-7.843,7.626-16.893,8.168-25.814
		c0.454-7.482-5.25-11.207-11.189-11.207c-5.956,0-12.148,3.746-12.601,11.207c-0.094,1.544-0.334,3.104-0.703,4.653
		c2.057,1.286,4.32,2.27,6.504,3.328c1.962,0.951,1.261,3.863-0.464,3.863c-0.255,0-0.531-0.063-0.826-0.206
		c-2.168-1.051-4.33-2.042-6.377-3.221c-0.924,2.409-2.169,4.728-3.695,6.847c1.343,2.388,3.118,4.505,5.151,6.366
		c1.466,1.343,0.231,3.529-1.273,3.529c-0.394,0-0.806-0.15-1.194-0.504c-2.057-1.884-3.843-3.927-5.332-6.216
		c-1.689,1.745-3.61,3.258-5.728,4.459c0.794,2.243,2.095,4.297,3.404,6.296c0.988,1.509-0.387,3.129-1.747,3.129
		c-0.527,0-1.051-0.243-1.435-0.83c-1.467-2.241-2.833-4.505-3.771-6.957c-1.007,0.363-2.048,0.659-3.122,0.877
		c-6.352,1.286-9.942,8.494-8.308,14.302C3.654,58.065,8.551,61.051,13.872,61.051z M12.158,40.504
		c0.92,1.897,2.009,3.645,3.079,5.281c0.815,1.246,2.101,1.961,3.527,1.961c1.648,0,3.237-0.968,4.047-2.467
		c0.781-1.445,0.703-3.139-0.208-4.531c-0.865-1.321-1.696-2.626-2.355-3.942c0.761-0.52,1.499-1.081,2.213-1.681
		c1.177,1.492,2.505,2.913,4.017,4.296c0.829,0.759,1.826,1.161,2.882,1.161c1.778,0,3.433-1.183,4.117-2.944
		c0.684-1.761,0.241-3.65-1.156-4.929c-1.531-1.402-2.826-2.894-3.863-4.45c0.71-1.102,1.355-2.249,1.929-3.431
		c0.957,0.485,1.918,0.946,2.862,1.399c0.404,0.194,0.809,0.388,1.214,0.584c0.625,0.303,1.269,0.456,1.916,0.456
		c1.913,0,3.568-1.394,4.026-3.389c0.497-2.167-0.496-4.266-2.472-5.223c-0.485-0.235-0.974-0.466-1.463-0.698
		c-1.153-0.546-2.263-1.071-3.319-1.64c0.192-1.094,0.321-2.178,0.386-3.242c0.369-6.087,5.497-8.859,10.106-8.859
		c2.754,0,5.233,0.955,6.8,2.62c1.405,1.493,2.043,3.49,1.894,5.936c-0.521,8.581-3.23,17.113-7.712,24.517
		c-0.394,0.651-0.803,1.292-1.224,1.924c-0.094,0.141-0.186,0.282-0.281,0.422c-0.1,0.147-0.196,0.297-0.297,0.443
		c-0.163,0.234-0.333,0.461-0.5,0.692c-0.077,0.107-0.154,0.215-0.232,0.321c-0.098,0.134-0.193,0.272-0.292,0.405
		c-0.029,0.039-0.056,0.079-0.085,0.118c-0.565,0.752-1.15,1.473-1.744,2.18c-0.108,0.128-0.217,0.256-0.326,0.383
		c-0.109,0.127-0.216,0.257-0.326,0.383c-0.162,0.185-0.325,0.367-0.489,0.548c-0.112,0.124-0.227,0.244-0.34,0.367
		c-0.113,0.123-0.226,0.246-0.34,0.367c-0.454,0.483-0.916,0.953-1.385,1.411c-5.856,5.718-12.832,9.503-20.501,11.056
		c-0.792,0.16-1.597,0.242-2.392,0.242c-4.546,0-8.212-2.586-9.338-6.589c-0.656-2.331-0.225-5.069,1.152-7.324
		c1.254-2.052,3.116-3.42,5.245-3.851C11.339,40.704,11.749,40.61,12.158,40.504z M44.808,50.109l-0.215,0.237
		c-0.189,0.208-0.401,0.313-0.63,0.313c-0.133,0-0.334-0.038-0.535-0.22l-3.393-2.955c0.114-0.121,0.225-0.246,0.338-0.369
		c0.113-0.123,0.226-0.245,0.338-0.368c0.107-0.119,0.219-0.234,0.325-0.354c0.111-0.125,0.219-0.253,0.329-0.379
		c0.11-0.126,0.216-0.256,0.325-0.384l3.128,3.338C45.062,49.188,45.23,49.643,44.808,50.109z M48.901,44.433
		c0.265,0.241,0.434,0.696,0.011,1.162l-0.215,0.237c-0.189,0.208-0.401,0.313-0.631,0.313c-0.133,0-0.334-0.038-0.535-0.22
		l-3.753-2.899c0.1-0.133,0.194-0.271,0.292-0.405c0.081-0.11,0.16-0.221,0.239-0.332c0.113-0.157,0.228-0.313,0.34-0.471
		c0.103-0.146,0.209-0.289,0.31-0.436c0.096-0.139,0.186-0.283,0.281-0.423L48.901,44.433z"/>
</g>
</svg>
