<?xml version="1.0" encoding="iso-8859-1"?>
<!-- Generator: Adobe Illustrator 17.0.0, SVG Export Plug-In . SVG Version: 6.00 Build 0)  -->
<!DOCTYPE svg PUBLIC "-//W3C//DTD SVG 1.1//EN" "http://www.w3.org/Graphics/SVG/1.1/DTD/svg11.dtd">
<svg version="1.1" id="Capa_1" xmlns="http://www.w3.org/2000/svg" xmlns:xlink="http://www.w3.org/1999/xlink" x="0px" y="0px"
	 width="64px" height="64px" viewBox="0 0 64 64" style="enable-background:new 0 0 64 64;" xml:space="preserve">
<g>
	<path d="M41.217,46.832c-1.413,0-2.873-0.02-4.373-0.04c-3.15-0.041-6.538-0.041-9.688,0c-1.5,0.021-2.96,0.04-4.372,0.04
		c-3.256,0-6.13-0.118-8.648-0.506c-0.245,0.87-0.385,1.783-0.385,2.73c0,5.577,4.538,10.115,10.115,10.115h14.77
		c5.577,0,10.115-4.538,10.115-10.115c0-0.874-0.123-1.717-0.332-2.526C46.171,46.774,43.743,46.832,41.217,46.832z"/>
	<path d="M60.25,32C60.25,16.423,47.577,3.75,32,3.75S3.75,16.423,3.75,32c0,5.689,1.649,9.243,5.189,11.182
		c1.208,0.661,2.608,1.126,4.191,1.452c0.243,0.05,0.503,0.087,0.755,0.13c0.256,0.044,0.508,0.092,0.773,0.13
		c2.357,0.337,5.063,0.439,8.126,0.439c1.405,0,2.859-0.02,4.352-0.039c1.582-0.021,3.208-0.043,4.865-0.043
		s3.282,0.021,4.864,0.043c1.492,0.02,2.946,0.039,4.353,0.039c2.409,0,4.664-0.045,6.722-0.24c0.262-0.025,0.519-0.053,0.774-0.083
		c0.257-0.03,0.509-0.063,0.759-0.099C56.057,43.971,60.25,41.018,60.25,32z"/>
</g>
</svg>
