<?xml version="1.0" encoding="iso-8859-1"?>
<!-- Generator: Adobe Illustrator 17.0.0, SVG Export Plug-In . SVG Version: 6.00 Build 0)  -->
<!DOCTYPE svg PUBLIC "-//W3C//DTD SVG 1.1//EN" "http://www.w3.org/Graphics/SVG/1.1/DTD/svg11.dtd">
<svg version="1.1" id="Capa_1" xmlns="http://www.w3.org/2000/svg" xmlns:xlink="http://www.w3.org/1999/xlink" x="0px" y="0px"
	 width="64px" height="64px" viewBox="0 0 64 64" style="enable-background:new 0 0 64 64;" xml:space="preserve">
<g>
	<path d="M56.27,38.569l3.073-7.44c0.338-1.1-0.32-1.992-1.471-1.992H22.69c-4.861-3.396-10.104-6.096-16.168-7.222
		c-2.366-0.439-3.376,3.178-0.998,3.62c3.643,0.676,6.953,1.947,10.053,3.602H5.947c-1.151,0-1.81,0.892-1.471,1.992l3.089,7.477
		c-3.453,0.937-6.021,2.404-6.021,5.139c0,3.849,5.077,5.192,10.564,6.072c5.336,0.855,12.396,1.326,19.881,1.326
		c7.485,0,14.545-0.471,19.881-1.326c5.487-0.879,10.564-2.223,10.564-6.072C62.432,40.974,59.794,39.504,56.27,38.569z
		 M31.988,48.143c-15.157,0-27.445-1.969-27.445-4.397c0-0.857,1.535-1.656,4.181-2.332l0.778,1.883
		c0.339,1.1,1.546,1.992,2.697,1.992H51.62c1.151,0,2.358-0.892,2.697-1.992l0.792-1.918c2.732,0.684,4.323,1.495,4.323,2.367
		C59.432,46.174,47.145,48.143,31.988,48.143z"/>
	<path d="M38.159,22.979c-1.493,1.012-0.087,3.453,1.421,2.431c3.126-2.119,4.699-4.824,3.074-8.453
		c-1.038-2.318-6.082-6.056-2.761-8.127c1.536-0.958,0.124-3.395-1.421-2.431c-2.877,1.794-3.333,4.33-1.566,7.16
		C39.004,16.919,42.798,19.835,38.159,22.979z"/>
	<path d="M44.728,22.979c-1.493,1.012-0.087,3.453,1.421,2.431c3.126-2.119,4.699-4.824,3.074-8.453
		c-1.038-2.318-6.082-6.056-2.761-8.127c1.536-0.958,0.124-3.395-1.421-2.431c-2.877,1.794-3.333,4.33-1.566,7.16
		C45.573,16.919,49.367,19.835,44.728,22.979z"/>
</g>
</svg>
