<?xml version="1.0" encoding="iso-8859-1"?>
<!-- Generator: Adobe Illustrator 17.0.0, SVG Export Plug-In . SVG Version: 6.00 Build 0)  -->
<!DOCTYPE svg PUBLIC "-//W3C//DTD SVG 1.1//EN" "http://www.w3.org/Graphics/SVG/1.1/DTD/svg11.dtd">
<svg version="1.1" id="Capa_1" xmlns="http://www.w3.org/2000/svg" xmlns:xlink="http://www.w3.org/1999/xlink" x="0px" y="0px"
	 width="64px" height="64px" viewBox="0 0 64 64" style="enable-background:new 0 0 64 64;" xml:space="preserve">
<g>
	<path d="M54.805,37.437c-1.282,0.242-2.644,0.315-3.998,0.315c-2.413,0-5.15-0.255-8.048-0.525
		c-3.463-0.323-7.045-0.657-10.807-0.657c-3.763,0-7.344,0.334-10.807,0.657c-2.898,0.27-5.635,0.525-8.048,0.525
		c-1.304,0-2.613-0.071-3.853-0.292l4.102,22.153h37.352L54.805,37.437z M21.801,55.75c-0.097,0.014-0.193,0.021-0.289,0.021
		c-0.978,0-1.833-0.718-1.977-1.714l-1.432-9.908c-0.158-1.093,0.6-2.107,1.693-2.266c1.1-0.159,2.108,0.601,2.266,1.693
		l1.432,9.908C23.652,54.577,22.894,55.591,21.801,55.75z M34.951,52.821c0,1.104-0.896,2-2,2s-2-0.896-2-2V42.811
		c0-1.104,0.896-2,2-2s2,0.896,2,2V52.821z M47.8,44.148l-1.432,9.908c-0.144,0.996-0.999,1.714-1.977,1.714
		c-0.095,0-0.191-0.007-0.289-0.021c-1.093-0.158-1.851-1.172-1.693-2.266l1.432-9.908c0.158-1.093,1.169-1.857,2.266-1.693
		C47.2,42.041,47.958,43.055,47.8,44.148z"/>
	<path d="M7.977,36.111c0.173,0.056,0.355,0.103,0.536,0.151c0.176,0.046,0.35,0.094,0.533,0.133
		c1.206,0.255,2.564,0.356,4.05,0.356c5.14,0,11.796-1.182,18.855-1.182c7.058,0,13.715,1.182,18.855,1.182
		c1.547,0,2.955-0.109,4.197-0.388c0.183-0.041,0.358-0.091,0.534-0.14c0.184-0.051,0.364-0.107,0.54-0.167
		c2.984-1.018,4.756-3.344,4.756-8.155c0-1.285-0.129-2.546-0.371-3.777c-0.261,0.103-0.543,0.164-0.841,0.164
		c-1.264,0-2.289-1.025-2.289-2.289c0-1.078,0.748-1.976,1.751-2.219C54.959,10.485,44.048,3.833,31.951,3.833
		c-8.971,0-17.285,3.661-22.669,9.342c0.823,0.779,1.343,1.874,1.343,3.096c0,2.359-1.912,4.271-4.271,4.271
		c-0.607,0-1.181-0.13-1.704-0.358c-1.016,2.424-1.581,5.017-1.581,7.718C3.069,32.795,4.9,35.121,7.977,36.111z M46.354,22
		c2.359,0,4.271,1.912,4.271,4.271c0,0.914-0.292,1.756-0.781,2.451c-0.125,0.177-0.263,0.344-0.413,0.5
		c-0.177,0.184-0.372,0.349-0.579,0.5c-0.704,0.511-1.562,0.82-2.498,0.82s-1.794-0.31-2.498-0.82
		c-0.207-0.15-0.402-0.315-0.579-0.5c-0.15-0.156-0.288-0.323-0.413-0.5c-0.489-0.695-0.781-1.537-0.781-2.451
		C42.082,23.912,43.995,22,46.354,22z M40.247,10.693c1.264,0,2.289,1.025,2.289,2.289s-1.025,2.289-2.289,2.289
		s-2.289-1.025-2.289-2.289S38.982,10.693,40.247,10.693z M23.851,12c2.081,0,3.768,1.687,3.768,3.768
		c0,2.081-1.687,3.768-3.768,3.768c-2.081,0-3.768-1.687-3.768-3.768C20.082,13.687,21.77,12,23.851,12z M20.247,25.657
		c1.264,0,2.289,1.025,2.289,2.289c0,0.274-0.056,0.532-0.144,0.776c-0.064,0.177-0.141,0.347-0.245,0.5
		c-0.129,0.192-0.293,0.355-0.472,0.5c-0.393,0.316-0.885,0.513-1.428,0.513s-1.036-0.197-1.428-0.513
		c-0.18-0.145-0.343-0.308-0.472-0.5c-0.103-0.153-0.181-0.323-0.245-0.5c-0.088-0.243-0.144-0.502-0.144-0.776
		C17.957,26.682,18.982,25.657,20.247,25.657z"/>
</g>
</svg>
