<?xml version="1.0" encoding="iso-8859-1"?>
<!-- Generator: Adobe Illustrator 17.0.0, SVG Export Plug-In . SVG Version: 6.00 Build 0)  -->
<!DOCTYPE svg PUBLIC "-//W3C//DTD SVG 1.1//EN" "http://www.w3.org/Graphics/SVG/1.1/DTD/svg11.dtd">
<svg version="1.1" id="Capa_1" xmlns="http://www.w3.org/2000/svg" xmlns:xlink="http://www.w3.org/1999/xlink" x="0px" y="0px"
	 width="64px" height="64px" viewBox="0 0 64 64" style="enable-background:new 0 0 64 64;" xml:space="preserve">
<g>
	<path d="M37.092,42.739l-0.375,0.981c-0.879,1.436-1.256,3.369-1.256,5.501c0,8.018,0.476,10.389,2.331,11.086l0.221-10.435
		c0-0.443,0.329-0.873,0.818-0.873h0.289c0.489,0,0.817,0.486,0.817,0.94L40.8,60.596c0.222-0.001,0.449-0.002,0.689-0.001
		c0.42,0,0.808-0.003,1.171-0.011l0.861-10.796C43.519,49.373,43.848,49,44.337,49h0.289c0.489,0,0.818,0.486,0.818,0.94
		l0.214,10.119c1.857-0.998,1.859-3.836,1.859-11.854c0-2.162-0.385-3.878-1.291-5.072c-0.299-0.657-0.656-1.438-1.036-2.261
		c-0.261-0.565-0.53-1.145-0.799-1.719c-0.327-0.698-0.649-1.374-0.948-1.992l0.852-32.723C44.295,3.666,42.653,3,41.881,3H40.61
		c-0.772,0-2.414,0.726-2.414,1.498l0.863,33.1l-0.936,2.447L37.092,42.739z M41.428,5.443c0.85,0,1.539,0.689,1.539,1.539
		c0,0.85-0.689,1.539-1.539,1.539c-0.85,0-1.539-0.689-1.539-1.539C39.889,6.132,40.578,5.443,41.428,5.443z"/>
	<path d="M15.856,48.312c0,4.55,2.689,11.688,7.239,11.688s7.239-7.137,7.239-11.688c0-3.776-1.857-6.952-5.088-7.925l0.943-36.144
		C26.189,3.484,24.573,3,23.814,3h-1.25c-0.759,0-2.375,0.484-2.375,1.243l0.942,36.093C17.785,41.241,15.856,44.464,15.856,48.312z
		 M23.095,5.443c0.85,0,1.539,0.689,1.539,1.539c0,0.85-0.689,1.539-1.539,1.539c-0.85,0-1.539-0.689-1.539-1.539
		C21.555,6.132,22.245,5.443,23.095,5.443z"/>
</g>
</svg>
