<?xml version="1.0" encoding="iso-8859-1"?>
<!-- Generator: Adobe Illustrator 17.0.0, SVG Export Plug-In . SVG Version: 6.00 Build 0)  -->
<!DOCTYPE svg PUBLIC "-//W3C//DTD SVG 1.1//EN" "http://www.w3.org/Graphics/SVG/1.1/DTD/svg11.dtd">
<svg version="1.1" id="Capa_1" xmlns="http://www.w3.org/2000/svg" xmlns:xlink="http://www.w3.org/1999/xlink" x="0px" y="0px"
	 width="64px" height="64px" viewBox="0 0 64 64" style="enable-background:new 0 0 64 64;" xml:space="preserve">
<g>
	<path d="M43.241,29.364c1.233,0,2.233-1,2.233-2.233v-5.627l1.517-0.773c0.549-0.28,1.228-0.949,1.515-1.495l1.331-2.525
		c0.287-0.545,0.106-1.267-0.406-1.611l-4.999-3.363c-2.199-5.646-7.675-9.654-14.1-9.654c-6.176,0-11.48,3.704-13.835,9.007
		l-5.961,4.011c-0.512,0.344-0.693,1.065-0.406,1.611l1.331,2.525c0.287,0.545,0.966,1.215,1.515,1.495l2.215,1.129v5.271
		c0,1.233,1,2.233,2.233,2.233h2.302v11.019c-0.047,0.194-0.078,0.401-0.07,0.632c0.171,5.125-5.433,6.49-8.556,9.585
		c-2.047,2.029,1.111,5.186,3.157,3.157c1.957-1.939,4.456-3.162,6.593-4.882c1.457-1.173,2.371-2.702,2.851-4.391
		c0.656,4.674,3.135,8.915,3.351,13.834c0.126,2.868,4.592,2.88,4.465,0c-0.247-5.608-4.156-11.027-3.538-16.606h2.506
		c-1.014,2.081-1.28,4.35-0.429,6.912c1.417,4.262,5.621,7.344,5.647,12.066c0.016,2.879,4.481,2.88,4.465,0
		c-0.018-3.212-1.285-5.878-2.98-8.544c-2.381-3.745-4.61-6.621-1.345-10.434h0.623c0.453,3.459,3.263,5.612,6.084,7.475
		c3.346,2.209,7.405,4.047,4.62,8.422c-1.551,2.437,2.315,4.675,3.856,2.254c2.527-3.971,2.196-7.978-1.365-11.135
		c-2.2-1.951-8.067-4.05-8.726-7.311V29.364H43.241z"/>
</g>
</svg>
