<?xml version="1.0" encoding="utf-8"?>
<!-- Generator: Adobe Illustrator 16.0.4, SVG Export Plug-In . SVG Version: 6.00 Build 0)  -->
<!DOCTYPE svg PUBLIC "-//W3C//DTD SVG 1.1//EN" "http://www.w3.org/Graphics/SVG/1.1/DTD/svg11.dtd">
<svg version="1.1" id="Capa_1" xmlns="http://www.w3.org/2000/svg" xmlns:xlink="http://www.w3.org/1999/xlink" x="0px" y="0px"
	 width="64px" height="64px" viewBox="0 0 64 64" enable-background="new 0 0 64 64" xml:space="preserve">
<g>
	<path d="M36.195,62c7.728,0,15.648-2.174,15.648-2.174c6.489-7.803,8.833-18.816,4.188-27.851l-5.12-8.355
		c-0.369,0.609-0.819,1.165-1.342,1.64c-0.493,0.45-1.055,0.821-1.676,1.093l4.645,7.579c3.421,6.789,2.24,15.422-2.982,22.344
		C47.15,56.843,41.585,58,36.195,58c-4.887,0-8.332-0.967-9.698-2.723l-0.116-0.148l-0.13-0.137l-8.435-8.95
		c-0.427,0.54-0.927,0.991-1.478,1.349c-0.606,0.393-1.268,0.674-1.956,0.84l8.958,9.504C25.897,61.018,31.002,62,36.195,62z"/>
	<path d="M8.545,41.57c-0.029,3.232,2.139,4.849,4.321,4.849c0.026,0,0.053-0.007,0.079-0.007c0.708-0.014,1.408-0.205,2.039-0.557
		c0.574-0.32,1.089-0.77,1.481-1.371c0.491-0.752,0.8-1.721,0.811-2.912c0.013-1.475,0.083-4.358,0.213-5.791
		c0.362,0.763,1.993,2.943,2.41,3.667c0.936,1.62,2.281,2.292,3.615,2.292c3.08,0,6.104-3.58,3.925-7.352
		c-1.676-2.899-4.002-6.09-4.387-9.473c2.949-1.478,6.004-2.005,9.093-2.005c4.164,0,8.39,0.958,12.503,1.836
		c0.314,0.067,0.619,0.099,0.912,0.099c0.453,0,0.869-0.097,1.265-0.235c0.64-0.224,1.208-0.594,1.678-1.088
		c0.508-0.535,0.899-1.196,1.175-1.911c0.997-2.583,0.377-5.872-2.707-6.53c-5.019-1.071-9.9-1.998-14.723-1.998
		c-4.719,0-9.38,0.888-14.058,3.398c-0.315,0.169-0.572,0.373-0.809,0.586c-2.394-3.099-3.503-6.891-2.846-11.249
		c0.327-2.172-1.281-3.597-2.735-3.597c-0.963,0-1.858,0.626-2.077,2.074c-0.91,6.034,0.291,11.67,3.594,16.15
		c-0.341,0.369-0.652,0.825-0.904,1.413C9.728,28.12,8.606,34.609,8.545,41.57z"/>
	<path d="M30.001,51.041c0.578-0.727,2.009-0.549,3.198,0.396c1.189,0.945,1.685,2.3,1.107,3.025
		c-0.578,0.727-2.009,0.55-3.198-0.396S29.424,51.768,30.001,51.041z M42.814,30.346c0.811-0.452,2.066,0.257,2.806,1.584
		c0.739,1.326,0.682,2.769-0.129,3.22s-2.067-0.258-2.806-1.584C41.945,32.239,42.004,30.798,42.814,30.346z M39.324,45.438
		c-0.57,0.732-2.004,0.568-3.202-0.364c-1.198-0.934-1.707-2.284-1.137-3.016s2.004-0.568,3.202,0.365
		C39.385,43.355,39.895,44.706,39.324,45.438z M25.346,43.448c-0.38-0.044-0.717,0.03-0.977,0.228
		c-0.027,0.021-0.06,0.033-0.085,0.057c-0.681,0.631-0.396,2.045,0.635,3.16c1.032,1.113,2.42,1.506,3.101,0.875
		s0.396-2.045-0.635-3.158C26.758,43.93,25.998,43.523,25.346,43.448z M31.286,28.734c0.681-0.63,2.07-0.238,3.101,0.876
		c1.031,1.115,1.316,2.529,0.636,3.159c-0.681,0.631-2.069,0.238-3.101-0.876C30.889,30.779,30.605,29.364,31.286,28.734z
		 M51.83,44.629c0.109,1.516-0.553,2.797-1.479,2.863c-0.926,0.067-1.764-1.106-1.873-2.621c-0.109-1.516,0.553-2.797,1.479-2.864
		C50.882,41.94,51.721,43.114,51.83,44.629z M44.901,54.693c0.02,0.928-1.195,1.705-2.714,1.738
		c-1.519,0.031-2.766-0.694-2.785-1.622s1.195-1.706,2.714-1.737C43.635,53.039,44.882,53.766,44.901,54.693z"/>
</g>
</svg>
