<?xml version="1.0" encoding="iso-8859-1"?>
<!-- Generator: Adobe Illustrator 17.0.0, SVG Export Plug-In . SVG Version: 6.00 Build 0)  -->
<!DOCTYPE svg PUBLIC "-//W3C//DTD SVG 1.1//EN" "http://www.w3.org/Graphics/SVG/1.1/DTD/svg11.dtd">
<svg version="1.1" id="Capa_1" xmlns="http://www.w3.org/2000/svg" xmlns:xlink="http://www.w3.org/1999/xlink" x="0px" y="0px"
	 width="64px" height="64px" viewBox="0 0 64 64" style="enable-background:new 0 0 64 64;" xml:space="preserve">
<g>
	<path d="M33.702,25.769l-2.047,2.234l3.468,3.468l1.48-1.327c-0.193-0.268-0.393-0.517-0.58-0.801
		c-0.333-0.506-0.656-1.012-0.976-1.513C34.593,27.119,34.151,26.426,33.702,25.769z"/>
	<path d="M21.511,39.071c0.982,0.617,1.854,1.39,2.576,2.293l1.714-1.537l-2.6-2.6L21.511,39.071z"/>
	<path d="M6.256,57.352l2.606-2.336c-0.345-0.343-0.657-0.716-0.951-1.104l-2.426,2.647C1.27,61.158,1.616,61.513,6.256,57.352z"/>
	<path d="M42.139,20.342c0.355,1.233,0.744,2.568,1.3,3.671l11.935-10.701c4.641-4.161,7.03-8.908,5.336-10.601
		c-1.694-1.694-6.484,0.662-10.699,5.262l-8.794,9.596c0.074,0.179,0.153,0.35,0.222,0.538
		C41.694,18.797,41.91,19.548,42.139,20.342z"/>
	<path d="M9.61,54.346C11.279,55.985,13.564,57,16.083,57c5.101,0,9.25-4.149,9.25-9.25c0-2.158-0.749-4.141-1.992-5.716
		c-0.696-0.882-1.55-1.631-2.518-2.212c-1.388-0.833-3.006-1.322-4.74-1.322c-5.101,0-9.25,4.149-9.25,9.25
		c0,2.022,0.66,3.888,1.764,5.412C8.904,53.584,9.239,53.982,9.61,54.346z"/>
	<path d="M23.877,36.49l2.67,2.67l5.056,5.056c1.025,1.025,2.369,1.538,3.712,1.538c1.344,0,2.687-0.513,3.712-1.538
		c2.05-2.05,2.05-5.374,0-7.425l-4.651-4.651l-3.398-3.398l-5.415-5.415c-1.025-1.025-2.369-1.538-3.712-1.538
		c-1.344,0-2.687,0.513-3.712,1.538c-2.05,2.05-2.05,5.374,0,7.425L23.877,36.49z"/>
	<path d="M24.82,19.746c0.058,0,0.118-0.002,0.18-0.007c0.307-0.023,0.606-0.035,0.894-0.035c4.138,0,6.442,2.337,8.499,5.31
		c0.826,1.194,1.614,2.488,2.464,3.778c0.157,0.239,0.327,0.454,0.49,0.683c2.793,3.937,6.341,6.372,11.32,6.764
		c0.063,0.005,0.125,0.007,0.186,0.007c2.386,0,2.305-3.812-0.186-4.007c-1.295-0.102-2.411-0.429-3.406-0.91
		c2.07,0.516,4.364,0.567,6.573,0.576c0.003,0,0.007,0,0.01,0c2.57,0,2.565-3.989-0.01-4c-0.042,0-0.085,0-0.127,0
		c-0.64,0-1.315,0.019-1.999,0.019c-2.12,0-4.329-0.178-5.871-1.638c-0.464-0.439-0.842-0.983-1.167-1.583
		c-1.029-1.901-1.49-4.406-2.169-6.252c-0.009-0.024-0.019-0.046-0.028-0.07c-1.744-4.658-5.245-6.498-9.941-7.57
		c-0.173-0.039-0.339-0.058-0.497-0.058c-2.144,0-2.907,3.381-0.566,3.915c2.764,0.631,5.306,1.286,6.756,3.903
		c0.529,0.955,0.926,1.987,1.287,3.04c0.189,0.551,0.371,1.105,0.551,1.661c-0.285-0.443-0.575-0.88-0.871-1.312
		c-0.048-0.071-0.094-0.144-0.142-0.215c-2.695-3.887-6.28-6.052-10.882-6.052c-0.382,0-0.771,0.015-1.167,0.045
		C22.506,15.929,22.428,19.746,24.82,19.746z"/>
</g>
</svg>
