<?xml version="1.0" encoding="iso-8859-1"?>
<!-- Generator: Adobe Illustrator 17.0.0, SVG Export Plug-In . SVG Version: 6.00 Build 0)  -->
<!DOCTYPE svg PUBLIC "-//W3C//DTD SVG 1.1//EN" "http://www.w3.org/Graphics/SVG/1.1/DTD/svg11.dtd">
<svg version="1.1" id="Capa_1" xmlns="http://www.w3.org/2000/svg" xmlns:xlink="http://www.w3.org/1999/xlink" x="0px" y="0px"
	 width="64px" height="64px" viewBox="0 0 64 64" style="enable-background:new 0 0 64 64;" xml:space="preserve">
<g>
	<path d="M44.431,58.278c7.454-1.837,15.369-6.404,17.759-14.106c1.15-3.707-0.203-7.602-2.261-10.678
		c-0.545-0.814-8.12-8.654-8.506-9.137c-1.461-0.34-1.142-14.458-7.846-19.013c-5.626-3.823-13.468-3.276-19.659-1.444
		C8.377,8.497-2.819,26.618,3.454,42.253C9.707,57.835,29.741,61.899,44.431,58.278z M21.491,8.505
		c5.355-2.633,11.883-3.364,17.58-1.543c8.145,2.604,5.734,13.832,8.993,18.234c0.077,0.104,5.101,6.179,7.428,8.361
		c8.453,7.927,0.233,16.659-7.8,20.032c-12.648,5.311-30.131,2.848-38.725-8.489C-0.794,32.224,8.744,14.773,21.491,8.505z"/>
	<path d="M31,45c6.627,0,12-5.373,12-12c0-6.627-5.373-12-12-12s-12,5.373-12,12C19,39.627,24.373,45,31,45z M32.782,25.321
		c1.943,0.454,3.965,1.446,4.986,3.252c1.013,1.791,1.045,3.731,0.66,5.708c-0.492,2.531-4.347,1.456-3.857-1.063
		c0.455-2.339-0.636-3.522-2.853-4.04C29.207,28.592,30.272,24.735,32.782,25.321z M21.946,32.468c0.055-0.247,0.15-0.45,0.261-0.63
		c0.101-0.335,0.276-0.645,0.503-0.878c0.544-0.556,1.012-0.746,1.778-0.84c0.212-0.026,0.426,0.012,0.632,0.086
		c0.93,0.076,1.789,0.71,1.754,1.918c-0.04,1.368,0.517,1.994,1.594,2.76c1.249,0.889,2.455,1.814,3.133,3.231
		c0.585,1.221,0.087,2.481-1.195,2.938c-0.349,0.124-0.698,0.202-1.046,0.256c-0.32,0.234-0.704,0.364-1.111,0.316
		C23.775,41.09,20.967,36.841,21.946,32.468z"/>
</g>
</svg>
