<?xml version="1.0" encoding="iso-8859-1"?>
<!-- Generator: Adobe Illustrator 17.0.0, SVG Export Plug-In . SVG Version: 6.00 Build 0)  -->
<!DOCTYPE svg PUBLIC "-//W3C//DTD SVG 1.1//EN" "http://www.w3.org/Graphics/SVG/1.1/DTD/svg11.dtd">
<svg version="1.1" id="Capa_1" xmlns="http://www.w3.org/2000/svg" xmlns:xlink="http://www.w3.org/1999/xlink" x="0px" y="0px"
	 width="64px" height="64px" viewBox="0 0 64 64" style="enable-background:new 0 0 64 64;" xml:space="preserve">
<g>
	<rect x="8.5" y="53" width="6.25" height="3.125"/>
	<path d="M7.5,51h1h6.25h1h1H46.1l0.027,1l0.027,1l0.115,4.281l0.04,1.5l1.5-0.041l2-0.054l1.499-0.041l-0.014-0.52l-0.026-0.979
		l-0.001-0.021l-0.027-1h3.51V53h-3.594l-0.027-1l-0.027-1h3.648h0.686l0.232,1l0.082,0.356L55.899,53l0.851,3.673l0.362,1.562
		l0.339,1.461l1.461-0.339l1.949-0.451l1.461-0.339l-0.339-1.461L61.032,53L60.8,52l-0.232-1H61v-5h-1.59l-0.232-1l-0.232-1H61V16
		v-1v-1V9H3v5v1v1v28h42.912l0.027,1l0.027,1H3v5h3.5H7.5z M47.439,45l-0.027-1l-0.634-23.576l1.564-0.042l0.493,2.127L49.413,44
		l0.027,1l0.027,1l0.074,2.75l0.027,1l0.027,1L49.602,51l0.027,1l0.027,1l0.084,3.125l0.027,1l0.002,0.061l-2,0.054l-0.003-0.116
		L47.654,53l-0.027-1l-0.027-1l-0.034-1.25l-0.027-1L47.466,46L47.439,45z M57.639,45l0.232,1l1.158,5l0.232,1l0.232,1l1.03,4.445
		l-1.949,0.451L57.439,53l-0.232-1l-0.232-1l-0.226-0.974l-0.296-1.276L55.817,46l-0.232-1l-0.232-1l-5.023-21.682l-0.804-3.469
		L48.868,16l-0.071-0.308l1.949-0.451L50.921,16l6.486,28L57.639,45z M40.213,41.536c-0.289,0-0.609-0.012-0.963-0.036
		c-5.5-0.375-9-1.464-9.125-5.607c-0.009-0.286,0.01-0.576,0.041-0.866c1.293,3.343,5.463,3.952,9.411,4.221
		c0.373,0.026,0.709,0.038,1.014,0.038c1.165,0,1.939-0.188,2.458-0.516C42.916,40.371,43.097,41.536,40.213,41.536z M24.213,41.536
		c-0.289,0-0.609-0.012-0.963-0.036c-5.5-0.375-9-1.464-9.125-5.607c-0.009-0.286,0.01-0.576,0.041-0.866
		c1.293,3.343,5.463,3.952,9.411,4.221c0.373,0.026,0.709,0.038,1.014,0.038c1.165,0,1.939-0.188,2.458-0.516
		C26.916,40.371,27.097,41.536,24.213,41.536z M6.902,16c0.09-0.185,0.189-0.365,0.296-0.54c0.097-0.159,0.202-0.311,0.311-0.46
		c0.156-0.211,0.32-0.415,0.501-0.602c0.126-0.13,0.276-0.265,0.436-0.398c0.696-0.58,1.708-1.129,3.064-1.129
		c1.072,0,2.203,0.345,3.368,1.028c0.046,0.026,0.11,0.068,0.163,0.101c0.362,0.221,0.871,0.565,1.41,1
		c0.374,0.301,0.753,0.638,1.094,1c0.528,0.56,0.96,1.172,1.113,1.77c0.029,0.113,0.047,0.223,0.054,0.329
		c0.016,0.231-0.025,0.446-0.113,0.657c-0.032,0.077-0.066,0.153-0.112,0.229c-0.054,0.089-0.098,0.176-0.145,0.264
		c-0.562,1.054-0.636,2.048-0.692,2.858c-0.091,1.323-0.115,1.678-2.06,1.678c-0.274,0-0.577-0.011-0.913-0.034
		c-6.125-0.418-8.33-1.695-8.426-4.881c-0.01-0.343,0.019-0.692,0.073-1.04c0.062-0.4,0.165-0.796,0.305-1.183
		C6.71,16.427,6.799,16.211,6.902,16z M24.509,15c0.156-0.211,0.32-0.415,0.501-0.602c0.126-0.13,0.276-0.265,0.436-0.398
		c0.696-0.58,1.708-1.129,3.064-1.129c1.072,0,2.203,0.345,3.368,1.028c0.046,0.026,0.11,0.068,0.163,0.101
		c0.362,0.221,0.871,0.565,1.41,1c0.374,0.301,0.753,0.638,1.094,1c0.528,0.56,0.96,1.172,1.113,1.77
		c0.029,0.113,0.047,0.223,0.054,0.329c0.016,0.231-0.025,0.446-0.113,0.657c-0.032,0.077-0.066,0.153-0.112,0.229
		c-0.054,0.089-0.098,0.176-0.145,0.264c-0.562,1.054-0.636,2.048-0.692,2.858c-0.091,1.323-0.115,1.678-2.06,1.678
		c-0.274,0-0.577-0.011-0.913-0.034c-6.125-0.418-8.33-1.695-8.426-4.881c-0.01-0.343,0.019-0.692,0.073-1.04
		c0.062-0.4,0.165-0.796,0.305-1.183c0.08-0.22,0.169-0.437,0.272-0.647c0.09-0.185,0.189-0.365,0.296-0.54
		C24.294,15.301,24.399,15.149,24.509,15z M34.989,25.581c-1.133,0.28-2.177,0.867-3.055,1.773
		c-0.051,0.053-0.096,0.112-0.146,0.167c-0.177-0.006-0.34-0.007-0.538-0.02c-5.5-0.375-9-1.464-9.125-5.607
		c-0.009-0.286,0.01-0.576,0.041-0.866c1.293,3.343,5.463,3.952,9.411,4.221c0.373,0.026,0.709,0.038,1.014,0.038
		c1.165,0,1.939-0.188,2.458-0.516C35.026,25.055,35.012,25.327,34.989,25.581z M27.599,32.756
		c-0.032,0.077-0.066,0.153-0.112,0.229c-0.054,0.089-0.098,0.176-0.145,0.264c-0.562,1.054-0.636,2.048-0.692,2.858
		c-0.091,1.323-0.115,1.678-2.06,1.678c-0.274,0-0.577-0.011-0.913-0.034c-6.125-0.418-8.33-1.695-8.426-4.881
		c-0.01-0.343,0.019-0.692,0.073-1.04c0.062-0.4,0.165-0.796,0.305-1.183c0.149-0.413,0.339-0.813,0.567-1.188
		c0.235-0.384,0.505-0.744,0.813-1.061c0.038-0.039,0.083-0.08,0.125-0.12c0.337-0.327,0.773-0.668,1.318-0.934
		c0.57-0.278,1.253-0.474,2.057-0.474c1.072,0,2.203,0.345,3.368,1.028c0.911,0.526,3.366,2.248,3.78,3.871
		c0.029,0.113,0.047,0.223,0.054,0.329C27.728,32.33,27.687,32.545,27.599,32.756z M43.599,32.756
		c-0.032,0.077-0.066,0.153-0.112,0.229c-0.054,0.089-0.098,0.176-0.145,0.264c-0.562,1.054-0.636,2.048-0.692,2.858
		c-0.091,1.323-0.115,1.678-2.06,1.678c-0.274,0-0.577-0.011-0.913-0.034c-6.125-0.418-8.33-1.695-8.426-4.881
		c-0.01-0.343,0.019-0.692,0.073-1.04c0.062-0.4,0.165-0.796,0.305-1.183c0.149-0.413,0.339-0.813,0.567-1.188
		c0.21-0.343,0.451-0.663,0.719-0.954c0.032-0.035,0.061-0.074,0.094-0.108c0.154-0.158,0.335-0.323,0.539-0.484
		c0.392-0.31,0.88-0.599,1.462-0.795c0.207-0.07,0.428-0.125,0.66-0.167c0.266-0.048,0.542-0.082,0.84-0.082
		c1.072,0,2.203,0.345,3.368,1.028c0.911,0.526,3.366,2.248,3.78,3.871c0.029,0.113,0.047,0.223,0.054,0.329
		C43.728,32.33,43.687,32.545,43.599,32.756z M5.166,21.027c1.293,3.343,5.463,3.952,9.411,4.221
		c0.373,0.026,0.709,0.038,1.014,0.038c1.165,0,1.939-0.188,2.458-0.516c-0.036,0.426-0.049,0.821-0.104,1.172
		c-0.73,0.329-1.411,0.792-2.012,1.412c-0.049,0.051-0.092,0.107-0.139,0.159c-0.181,0.013-0.367,0.023-0.581,0.023
		c-0.289,0-0.609-0.012-0.963-0.036c-5.5-0.375-9-1.464-9.125-5.607C5.116,21.607,5.135,21.317,5.166,21.027z M50.968,46l-0.027-1
		l-0.027-1h2.9l0.232,1l0.232,1H50.968z"/>
	<path d="M14.122,20.875c2.372-0.25,1.003-1.25,1.003-2.547S12.105,16,12.105,16c-0.482-0.223-0.91-0.189-1.281,0
		C9.9,16.47,9.339,17.93,9.25,19C9.125,20.5,11.75,21.125,14.122,20.875z"/>
	<path d="M31.122,20.875c2.372-0.25,1.003-1.25,1.003-2.547S29.105,16,29.105,16c-0.482-0.223-0.91-0.189-1.281,0
		c-0.923,0.47-1.484,1.93-1.573,3C26.125,20.5,28.75,21.125,31.122,20.875z"/>
	<path d="M37.105,30c-1.681-0.778-2.73,1.5-2.855,3s2.5,2.125,4.872,1.875c2.372-0.25,1.003-1.25,1.003-2.547S37.105,30,37.105,30z"
		/>
	<path d="M21.105,30c-1.681-0.778-2.73,1.5-2.855,3s2.5,2.125,4.872,1.875c2.372-0.25,1.003-1.25,1.003-2.547S21.105,30,21.105,30z"
		/>
</g>
</svg>
