<?xml version="1.0" encoding="iso-8859-1"?>
<!-- Generator: Adobe Illustrator 17.0.0, SVG Export Plug-In . SVG Version: 6.00 Build 0)  -->
<!DOCTYPE svg PUBLIC "-//W3C//DTD SVG 1.1//EN" "http://www.w3.org/Graphics/SVG/1.1/DTD/svg11.dtd">
<svg version="1.1" id="Capa_1" xmlns="http://www.w3.org/2000/svg" xmlns:xlink="http://www.w3.org/1999/xlink" x="0px" y="0px"
	 width="64px" height="64px" viewBox="0 0 64 64" style="enable-background:new 0 0 64 64;" xml:space="preserve">
<g>
	<path d="M3.619,60.252h37.607c0.982,0,1.777-0.796,1.777-1.777v-23.33c0-0.982-0.55-2.353-1.228-3.062l-10.5-10.985
		c-0.678-0.71-2.024-1.285-3.006-1.285h-4.336c2.102-4.415,7.078-6.798,12.868-4.016c3.976,1.911,7.211,5.363,10.207,8.713
		l-3.101,3.101l11.903,11.903L63,32.325L51.097,20.422l-2.68,2.68c-4.823-5.336-10.694-11.296-18.18-10.645
		c-4.543,0.395-7.364,3.526-8.608,7.356h-5.053c-0.982,0-2.327,0.575-3.006,1.285L3.07,32.082c-0.678,0.71-1.228,2.081-1.228,3.062
		v23.33C1.842,59.456,2.638,60.252,3.619,60.252z M50.991,25.446c0.568,0.568,0.568,1.49,0,2.058c-0.568,0.568-1.49,0.568-2.058,0
		c-0.347-0.347-0.456-0.821-0.379-1.27c0.191,0.213,0.384,0.431,0.573,0.64c0.868,0.957,2.278-0.462,1.414-1.414
		c-0.117-0.129-0.239-0.265-0.358-0.397C50.477,25.108,50.764,25.219,50.991,25.446z M21.536,29.099
		c0.379,1.228,2.31,0.704,1.929-0.532c-0.07-0.227-0.13-0.454-0.187-0.68c0.579,0.308,0.979,0.911,0.979,1.612
		c0,1.011-0.822,1.833-1.833,1.833c-1.011,0-1.833-0.822-1.833-1.833c0-0.574,0.27-1.081,0.685-1.417
		C21.352,28.426,21.434,28.768,21.536,29.099z M5.239,34.155l10.488-10.972c0.162-0.148,0.648-0.355,0.849-0.37h4.421
		c-0.08,0.707-0.114,1.417-0.101,2.125c-1.914,0.643-3.307,2.434-3.307,4.563c0,2.665,2.168,4.833,4.833,4.833
		s4.833-2.168,4.833-4.833c0-2.512-1.934-4.559-4.387-4.788c-0.002-0.649,0.046-1.284,0.143-1.899h5.246
		c0.221,0.018,0.7,0.223,0.849,0.358l10.494,10.978c0.165,0.19,0.391,0.753,0.403,0.996v22.107H4.842l0-22.099
		C4.854,34.902,5.08,34.338,5.239,34.155z"/>
	<path d="M7.703,55.66h29.44c0.629,0,1.139-0.51,1.139-1.139V44.008h-0.026c0.005-0.068,0.021-0.126,0.021-0.199
		c0-1.636-1.326-2.962-2.962-2.962c-0.474,0-0.915,0.121-1.312,0.319c-0.297-0.458-0.81-0.763-1.397-0.763
		c-0.085,0-0.166,0.013-0.248,0.025c-0.608-0.562-1.414-0.914-2.307-0.914c-1.608,0-2.947,1.118-3.305,2.616
		c-0.367-0.249-0.81-0.394-1.286-0.394c-0.754,0-1.418,0.369-1.836,0.931c-0.65-0.558-1.787-0.931-3.089-0.931
		c-1.395,0-2.594,0.43-3.213,1.056c-0.267-0.149-0.57-0.241-0.897-0.241c-0.303,0-0.586,0.08-0.838,0.209
		c-0.115-0.828-0.819-1.468-1.68-1.468c-0.686,0-1.274,0.408-1.544,0.992c-0.32-0.106-0.656-0.178-1.011-0.178
		c-1.051,0-1.976,0.511-2.564,1.29c-0.221-0.324-0.575-0.55-0.996-0.55c-0.655,0-1.178,0.516-1.214,1.162H6.563v0.065v10.447
		C6.563,55.15,7.073,55.66,7.703,55.66z"/>
</g>
</svg>
