<?xml version="1.0" encoding="iso-8859-1"?>
<!-- Generator: Adobe Illustrator 17.0.0, SVG Export Plug-In . SVG Version: 6.00 Build 0)  -->
<!DOCTYPE svg PUBLIC "-//W3C//DTD SVG 1.1//EN" "http://www.w3.org/Graphics/SVG/1.1/DTD/svg11.dtd">
<svg version="1.1" id="Capa_1" xmlns="http://www.w3.org/2000/svg" xmlns:xlink="http://www.w3.org/1999/xlink" x="0px" y="0px"
	 width="64px" height="64px" viewBox="0 0 64 64" style="enable-background:new 0 0 64 64;" xml:space="preserve">
<g>
	<path d="M53.39,2.064c-0.883-0.469-1.766-0.706-2.621-0.706c-3.234,0-5.686,3.394-6.349,6.587
		c-0.243,1.167-0.611,2.093-1.056,2.887c0.634-0.058,1.27-0.095,1.907-0.095c1.195,0,2.353,0.114,3.465,0.324
		c-0.043-0.261-0.101-0.545-0.169-0.859c-0.162-0.741-0.329-1.507-0.25-2.224c0.158-1.434,1.168-2.397,2.515-2.397
		c0.485,0,0.976,0.124,1.458,0.367c2.296,1.159,3.771,4.734,4.337,7.444c0.145,0.695,0.242,1.367,0.294,2.005
		c1.38,1.478,2.266,3.103,2.735,4.814c0.921-2.308,0.896-4.695,0.617-6.558C59.473,8.325,56.077,3.489,53.39,2.064z"/>
	<path d="M59.194,28.356c-0.054,0.16-0.113,0.32-0.172,0.48c-1.298,3.544-3.697,7.017-6.624,9.944
		c-3.065,3.065-6.526,5.337-9.895,6.582c-0.153,0.056-0.305,0.109-0.458,0.162c-0.154,0.053-0.307,0.106-0.46,0.154
		c0.065,0.402,0.198,0.734,0.424,0.96c0.286,0.286,0.684,0.43,1.183,0.43c2.144,0,6.393-2.809,10.574-6.99
		c2.38-2.38,4.385-4.859,5.645-6.981c1.407-2.369,1.714-3.976,0.915-4.775c-0.235-0.235-0.565-0.384-0.977-0.452
		C59.298,28.032,59.249,28.194,59.194,28.356z"/>
	<path d="M25.38,31.146c-0.172,0.167-0.326,0.329-0.445,0.473c-0.024,0.03-0.051,0.058-0.076,0.087
		c-0.151,0.176-0.312,0.343-0.483,0.495c-0.502,0.445-1.086,0.75-1.726,0.684c-1.477-0.153-2.954-0.602-4.593,0.104
		c-1.208,0.52-2.481,2.107-3.159,3.018s-0.521,0.911,0.616,0.493c0.592-0.217,1.315-0.365,2.155-0.318
		c2.526,0.14,7.804,3.122,8.497,3.35c0.007,0.002,0.015,0.003,0.021,0.005c0.196,0.063,0.414,0.11,0.641,0.149
		c0.231,0.039,0.476,0.064,0.731,0.078c0.523,0.825,1.128,1.595,1.828,2.295c2.099,2.099,4.646,2.94,7.572,2.94c0,0,0.001,0,0.001,0
		c1.482,0,3.057-0.266,4.665-0.775c0.172-0.054,0.345-0.114,0.517-0.174c0.18-0.063,0.361-0.128,0.542-0.197
		c3.063-1.165,6.198-3.197,9.006-6.004c2.652-2.652,4.859-5.747,6.148-8.907c0.074-0.18,0.142-0.361,0.209-0.542
		c0.064-0.172,0.126-0.344,0.185-0.516c0.53-1.558,0.823-3.121,0.825-4.645c0-0.272-0.008-0.542-0.026-0.811
		c-0.018-0.267-0.045-0.533-0.082-0.797c-0.241-1.684-0.878-3.297-1.999-4.774c-0.156-0.205-0.321-0.408-0.495-0.607
		c-0.164-0.187-0.338-0.372-0.518-0.554c-0.013-0.013-0.024-0.027-0.037-0.04c-1.638-1.638-3.743-2.765-6.139-3.377
		c-0.158-0.04-0.324-0.067-0.485-0.102c-0.169-0.038-0.338-0.075-0.509-0.107c-1.118-0.213-2.285-0.333-3.497-0.333
		c-0.873,0-1.75,0.082-2.624,0.2c-0.246,0.033-0.492,0.069-0.737,0.111c-0.26,0.045-0.52,0.083-0.778,0.138
		c-0.854,0.18-1.693,0.425-2.519,0.708c-0.06-0.144-0.093-0.318-0.106-0.515c-0.011-0.159-0.008-0.333,0.019-0.533
		c0.023-0.171,0.058-0.355,0.113-0.559c0.443-1.651-3.461-0.326-5.394,1.608l-7.003,7.003c-1.934,1.934-3.058,4.82-1.849,6.029
		c0,0,0.362-0.164,0.826-0.217c0.167-0.019,0.347-0.021,0.528,0.001c0.161,0.02,0.321,0.063,0.475,0.135
		c-0.387,1.32-0.663,2.68-0.786,4.065C25.396,30.332,25.391,30.738,25.38,31.146z"/>
	<path d="M30.965,13.7c-1.474-1.474-2.726-0.922-3.838,0.19s-1.664,2.364-0.19,3.838L30.965,13.7z"/>
	<path d="M4.856,60.105c0.282,1.202,2.549,2.143,5.337,2.143c2.766,0,5.018-0.926,5.33-2.115l0.025,0l0.021-0.199
		c0.002-0.026,0.017-0.05,0.017-0.077c0-0.01-0.006-0.019-0.007-0.029l1.15-11.078C15.228,49.565,12.64,50,10.067,50H9.964
		c-2.018,0-3.944-0.231-5.422-0.697c-0.593-0.187-1.046-0.403-1.405-0.628l1.692,11.43L4.856,60.105z"/>
	<path d="M2.958,47.009c-0.001,0.163,0.191,0.406,0.58,0.661c0.307,0.201,0.733,0.408,1.305,0.588C6.208,48.69,8.076,49,9.968,49
		h0.099c3.576,0,6.12-0.775,6.787-1.455c0.113-0.115,0.179-0.228,0.179-0.334c0.001-0.29-0.594-0.949-1.903-1.359
		C13.755,45.421,11.879,45,9.984,45H9.983C5.724,45,2.96,46.281,2.958,47.009z"/>
	<path d="M6.094,43.361c0.78,1.078,2.59,0.039,1.8-1.052c-0.718-0.991-0.375-1.855-0.133-2.955c0.258-1.169,0.133-2.227-0.388-3.3
		c-0.588-1.209-2.386-0.151-1.8,1.052c0.508,1.044,0.056,2.078-0.144,3.139C5.216,41.374,5.418,42.427,6.094,43.361z"/>
	<path d="M10.264,43.361c0.781,1.078,2.59,0.039,1.8-1.052c-0.718-0.991-0.375-1.855-0.133-2.955c0.258-1.169,0.133-2.227-0.388-3.3
		c-0.588-1.209-2.386-0.151-1.8,1.052c0.508,1.044,0.056,2.078-0.144,3.139C9.385,41.374,9.588,42.427,10.264,43.361z"/>
</g>
</svg>
