<?xml version="1.0" encoding="iso-8859-1"?>
<!-- Generator: Adobe Illustrator 17.0.0, SVG Export Plug-In . SVG Version: 6.00 Build 0)  -->
<!DOCTYPE svg PUBLIC "-//W3C//DTD SVG 1.1//EN" "http://www.w3.org/Graphics/SVG/1.1/DTD/svg11.dtd">
<svg version="1.1" id="Capa_1" xmlns="http://www.w3.org/2000/svg" xmlns:xlink="http://www.w3.org/1999/xlink" x="0px" y="0px"
	 width="64px" height="64px" viewBox="0 0 64 64" style="enable-background:new 0 0 64 64;" xml:space="preserve">
<g>
	<path d="M45.009,11.742c0,0-1.27-1.994-2.273-1.994c-0.533,0-0.99,0.562-1.142,2.286c0,0,5.148,5.01,6.784,14.073
		c1.463,4.277,1.51,8.324,0.105,12.107c-0.154,0.414-0.327,0.818-0.511,1.215c-0.944,4.165-2.697,8.746-5.619,13.719
		c0,0,0.161,2.655,1.587,3.227c0.002,0.001,0.005,0.001,0.008,0.001c0.174,0,1.36-1.723,2.08-2.187
		C52.596,49.959,78.483,26.086,45.009,11.742z"/>
	<path d="M46.085,38.744c1.582-3.313,1.987-7.25,0.44-11.875c-1.215-3.632-3.631-7.687-7.643-12.202c0,0-0.365-2.838-1.501-2.838
		c-0.445,0-1.009,0.436-1.715,1.649c0,0,1.336,3.561,1.154,8.924c2.204,6.793,1.916,12.593-0.887,17.303
		c-2.548,4.281-7.05,7.468-13.381,9.471c-0.636,0.201-1.268,0.38-1.896,0.545c-0.582,0.431-1.17,0.861-1.793,1.288
		c0,0-0.984,2.472,0.063,3.595c0.005,0.006,0.015,0.008,0.028,0.008c0.257,0,1.971-0.988,2.792-1.098
		C26.57,52.87,41.419,48.516,46.085,38.744z"/>
	<path d="M22.345,47.139c0.909-0.299,1.808-0.637,2.687-1.016c6.8-2.93,12.353-8.36,11.054-18.112
		c-0.121-0.91-0.298-1.855-0.543-2.842c-0.191-0.768-0.422-1.56-0.693-2.376c-0.766-2.309-1.86-4.812-3.333-7.527
		c0,0,0.318-3.123-0.983-3.123c-0.428,0-1.031,0.337-1.878,1.234c0,0,2.894,21.924-24.902,32.723c0,0-1.52,2.183-0.756,3.515
		c0.007,0.013,0.033,0.018,0.073,0.018c0.357,0,1.901-0.446,2.745-0.446c0.063,0,0.121,0.002,0.175,0.008
		c0.651,0.063,1.494,0.103,2.481,0.103c2.914,0,7.091-0.343,11.324-1.418C20.648,47.663,21.5,47.417,22.345,47.139z"/>
</g>
</svg>
