<?xml version="1.0" encoding="iso-8859-1"?>
<!-- Generator: Adobe Illustrator 17.0.0, SVG Export Plug-In . SVG Version: 6.00 Build 0)  -->
<!DOCTYPE svg PUBLIC "-//W3C//DTD SVG 1.1//EN" "http://www.w3.org/Graphics/SVG/1.1/DTD/svg11.dtd">
<svg version="1.1" id="Capa_1" xmlns="http://www.w3.org/2000/svg" xmlns:xlink="http://www.w3.org/1999/xlink" x="0px" y="0px"
	 width="64px" height="64px" viewBox="0 0 64 64" style="enable-background:new 0 0 64 64;" xml:space="preserve">
<g>
	<path d="M57.628,45.361c0.82-1.863,1.39-3.722,1.727-5.562c0.095,0.026,0.194,0.048,0.313,0.048c0.075,0,0.137-0.016,0.202-0.028
		c0.237-0.042,0.419-0.149,0.554-0.299c0.305-0.343,0.391-0.873,0.44-1.188c0.638-4.102,0.278-20.188-12.934-24.668
		c-0.924-1.34-4.796-5.965-14.229-5.965c-1.536,0-3.167,0.126-4.85,0.375c-0.396-0.05-1.517-0.171-3.091-0.171
		c-3.882,0-11.198,0.764-16.582,5.874L7.29,15.568l1.698-0.043l0.65-0.017l0.254-0.006c0,0,0.161-0.004,0.438-0.01
		c-1.741,1.81-3.32,4.099-4.606,7.018c-5.896,13.395,0.571,26.985,16.094,33.818c4.672,2.057,9.529,3.145,14.046,3.145
		C45.893,59.474,53.622,54.462,57.628,45.361z M25.76,9.902c1.781,0,2.94,0.168,2.952,0.17l0.148,0.021l0.147-0.022
		c0.867-0.131,1.715-0.223,2.544-0.285c0.703-0.053,1.391-0.082,2.059-0.084c0.029,0,0.061-0.004,0.09-0.004
		c0.794,0,1.527,0.046,2.233,0.11c5.362,0.49,8.25,2.659,9.562,4.035c0.523,0.549,0.798,0.961,0.88,1.095
		c0.011,0.018,0.027,0.044,0.031,0.051l0.193,0.345l0.376,0.12c0.189,0.06,0.364,0.138,0.549,0.204
		c0.843,0.301,1.653,0.647,2.409,1.068c2.119,1.181,3.881,2.847,5.295,4.955c0.433,0.645,0.844,1.318,1.209,2.048
		c0.208,0.417,0.397,0.839,0.575,1.262c0.43,1.023,0.775,2.057,1.049,3.076c0.405,1.509,0.658,2.981,0.804,4.32
		c-2.719-4.723-7.827-8.582-8.12-8.801l-0.681-0.509l-0.612,0.59c-3.344,3.226-14.66,4.496-20.427,4.824l5.675-11.79l-0.122-0.38
		c-0.298-0.933-0.918-2.873-19.664-2.873c-0.781,0-1.504,0.004-2.144,0.009C17.315,10.409,22.693,9.902,25.76,9.902z M16.813,23.736
		c-3.155,4.387-3.906,9.313-1.179,14.122c1.502,2.648-2.571,5.023-4.071,2.38c-3.507-6.182-2.95-13.14,1.179-18.881
		C14.499,18.912,18.592,21.262,16.813,23.736z"/>
	<path d="M45.503,20.207c1.901,0.044,1.897-2.903,0-2.947c-0.011,0-0.24-0.028-0.295-0.029c-0.044-0.011-0.088-0.023-0.131-0.037
		c-0.015-0.009-0.029-0.018-0.071-0.04c0.001,0.005,0.006,0.014,0.012,0.024c-0.002-0.001-0.005-0.001-0.008-0.002
		c0.005,0.002,0.003,0.001,0.008,0.003c0.008,0.013-0.001,0.01,0.016,0.032c-0.172-0.225-0.115-0.158-0.173-0.343
		c-0.573-1.804-3.418-1.033-2.841,0.783C42.534,19.273,43.815,20.168,45.503,20.207z"/>
	<path d="M44.995,17.148c0.007,0.004,0.005,0.003,0.011,0.006l-0.001-0.002C44.999,17.149,45.002,17.152,44.995,17.148z"/>
	<path d="M45.005,17.153C45.201,17.262,44.992,17.092,45.005,17.153L45.005,17.153z"/>
</g>
</svg>
