<?xml version="1.0" encoding="iso-8859-1"?>
<!-- Generator: Adobe Illustrator 17.0.0, SVG Export Plug-In . SVG Version: 6.00 Build 0)  -->
<!DOCTYPE svg PUBLIC "-//W3C//DTD SVG 1.1//EN" "http://www.w3.org/Graphics/SVG/1.1/DTD/svg11.dtd">
<svg version="1.1" id="Capa_1" xmlns="http://www.w3.org/2000/svg" xmlns:xlink="http://www.w3.org/1999/xlink" x="0px" y="0px"
	 width="64px" height="64px" viewBox="0 0 64 64" style="enable-background:new 0 0 64 64;" xml:space="preserve">
<g>
	<path d="M51.42,41.332c-0.13-0.033-0.371-0.079-0.706-0.079h0c-0.829,0-2.183,0.288-3.921,1.66
		c-2.172,1.715-4.516,2.585-6.968,2.585c-4.303,0-7.151-2.757-7.461-3.071l-0.137-0.138l-0.123-0.151
		c-0.016-0.02-1.77-2.006-4.896-2.006c-2.046,0-4.317,0.834-6.748,2.479c-3.251,2.199-6.072,3.268-8.623,3.268
		c-0.943,0-1.804-0.153-2.592-0.416v7.247h46.924V42.676c-0.04,0.001-0.081,0.005-0.121,0.005
		C54.1,42.682,52.297,41.825,51.42,41.332z"/>
	<path d="M59.288,52.715H6.126c-1.178,0-1.853,0.687-1.506,1.535l5.146,5.646c0.346,0.848,1.583,1.535,2.761,1.535h40.36
		c1.178,0,2.414-0.687,2.761-1.535l5.146-5.646C61.14,53.402,60.466,52.715,59.288,52.715z"/>
	<path d="M57.995,36.084v-6.751c0-7.893-6.398-13.338-14.291-13.338h-8.813v-2v-1.412h-4.37v1.412v2h-8.813
		c-7.893,0-14.291,5.445-14.291,13.338v6.751c0,0,0.004,3.208,1.826,4.85c0.626,0.564,1.463,0.945,2.592,0.945
		c1.534,0,3.599-0.699,6.382-2.581c3.497-2.366,6.512-3.166,8.99-3.166c5.171,0,8,3.484,8,3.484s1.86,1.883,4.616,1.883
		c1.325,0,2.857-0.435,4.489-1.724c2.565-2.025,4.813-2.521,6.4-2.521c1.524,0,2.438,0.457,2.438,0.457s1.55,0.972,2.896,0.972
		c0.041,0,0.08-0.007,0.121-0.009C57.151,38.628,57.995,38.029,57.995,36.084z"/>
	<path d="M32.707,11.665c5.577,0.502,0-9.366,0-9.366S27.13,11.163,32.707,11.665z"/>
</g>
</svg>
