<?xml version="1.0" encoding="iso-8859-1"?>
<!-- Generator: Adobe Illustrator 17.0.0, SVG Export Plug-In . SVG Version: 6.00 Build 0)  -->
<!DOCTYPE svg PUBLIC "-//W3C//DTD SVG 1.1//EN" "http://www.w3.org/Graphics/SVG/1.1/DTD/svg11.dtd">
<svg version="1.1" id="Capa_1" xmlns="http://www.w3.org/2000/svg" xmlns:xlink="http://www.w3.org/1999/xlink" x="0px" y="0px"
	 width="64px" height="64px" viewBox="0 0 64 64" style="enable-background:new 0 0 64 64;" xml:space="preserve">
<g>
	<path d="M15.393,49.24c12.769,12.769,33.471,12.769,46.24,0L15.393,3C2.624,15.769,2.624,36.471,15.393,49.24z M54.461,45.516
		c-9.76,9.76-24.584,8.76-34.344-1c-9.76-9.76-10.76-24.584-1-34.344L54.461,45.516z"/>
	<path d="M31.265,37.459l1.594-4.9l-4.913,1.524c-1.472,0.786-1.303,2.767-0.386,3.699C28.476,38.714,30.491,38.987,31.265,37.459z"
		/>
	<path d="M38.986,46.796c1.246,0.395,3.154-0.308,3.123-2.02l-0.885-5.076l-3.628,3.647C36.663,44.729,37.739,46.401,38.986,46.796z
		"/>
	<path d="M18.849,25.54c0.343,1.262,1.967,2.485,3.39,1.532l3.789-3.493l-5.031-1.076C19.329,22.468,18.506,24.278,18.849,25.54z"/>
</g>
</svg>
