<?xml version="1.0" encoding="iso-8859-1"?>
<!-- Generator: Adobe Illustrator 17.0.0, SVG Export Plug-In . SVG Version: 6.00 Build 0)  -->
<!DOCTYPE svg PUBLIC "-//W3C//DTD SVG 1.1//EN" "http://www.w3.org/Graphics/SVG/1.1/DTD/svg11.dtd">
<svg version="1.1" id="Capa_1" xmlns="http://www.w3.org/2000/svg" xmlns:xlink="http://www.w3.org/1999/xlink" x="0px" y="0px"
	 width="64px" height="64px" viewBox="0 0 64 64" style="enable-background:new 0 0 64 64;" xml:space="preserve">
<g>
	<path d="M28.795,18.792H9.016v0.53c0,17.358,2.675,26.156,8.384,27.42c0.481,0.107,0.981,0.166,1.506,0.166
		c0.524,0,1.024-0.059,1.506-0.166c5.708-1.264,8.384-10.062,8.384-27.42V18.792z M24.819,40.442
		c-0.132,0.36-0.273,0.69-0.421,0.992c-1.368,2.935-3.2,4.414-5.492,4.414c-2.295,0-4.128-1.483-5.497-4.424
		c-0.145-0.296-0.282-0.619-0.412-0.97c-1.687-4.309-2.555-10.812-2.586-20.229H27.4C27.369,29.633,26.503,36.132,24.819,40.442z"/>
	<path d="M18.935,44.062c2.776,0,5.464-2.628,6.564-13.512H12.37C13.27,41.118,16.159,44.062,18.935,44.062z"/>
	<path d="M18.906,48.126c-0.511,0-1.013-0.052-1.506-0.155v10.294h-3.725c-0.513,0-0.929,0.316-0.929,0.707v0.844
		c0,0.39,0.416,0.707,0.929,0.707h10.223c0.513,0,0.93-0.316,0.93-0.707v-0.844c0-0.39-0.416-0.707-0.93-0.707h-3.487V47.971
		C19.919,48.074,19.417,48.126,18.906,48.126z"/>
	<path d="M31,22.347V23v2.805c0,0.177-0.013,0.413,0,0.63V60h0.049C31.02,60.105,31,60.215,31,60.333
		c0,1.151,4.699,2.083,9.023,2.083c4.324,0,7.977-0.933,7.977-2.083c0-0.12-0.016-0.226-0.031-0.333H48v-8h-7V27h5.951H48v-1.195V23
		v-0.653C48,21.922,47.853,19,43.341,16c-0.041,0-1.291-9-1.291-9h-6l-0.862,9C31.259,18,31,21.922,31,22.347z"/>
	<path d="M37.333,6h3.333C41.403,6,42,4.992,42,4.208V3.853C42,3.07,41.403,2,40.667,2h-3.333C36.597,2,36,3.07,36,3.853v0.355
		C36,4.992,36.597,6,37.333,6z"/>
</g>
</svg>
