<?xml version="1.0" encoding="iso-8859-1"?>
<!-- Generator: Adobe Illustrator 17.0.0, SVG Export Plug-In . SVG Version: 6.00 Build 0)  -->
<!DOCTYPE svg PUBLIC "-//W3C//DTD SVG 1.1//EN" "http://www.w3.org/Graphics/SVG/1.1/DTD/svg11.dtd">
<svg version="1.1" id="Capa_1" xmlns="http://www.w3.org/2000/svg" xmlns:xlink="http://www.w3.org/1999/xlink" x="0px" y="0px"
	 width="64px" height="64px" viewBox="0 0 64 64" style="enable-background:new 0 0 64 64;" xml:space="preserve">
<g>
	<path d="M24.735,50.925c0.384,0.085,0.782,0.132,1.201,0.132c0.418,0,0.817-0.047,1.2-0.132c0.087-0.019,0.167-0.056,0.252-0.079
		l-0.161-1.133c-0.401,0.11-0.823,0.162-1.269,0.162c-1.83,0-3.314-0.845-4.405-3.19c-0.115-0.236-0.225-0.493-0.328-0.774
		c-1.345-3.435-2.037-8.62-2.062-16.127h5.159c0.065-0.414,0.208-0.799,0.416-1.142h-5.97h-0.718H3v0.423
		c0,13.838,2.133,20.853,6.684,21.86c0.384,0.085,0.782,0.132,1.201,0.132c0.418,0,0.817-0.047,1.2-0.132
		c3.486-0.772,5.548-5.083,6.325-13.271C19.186,45.842,21.249,50.153,24.735,50.925z M15.599,45.902
		c-0.105,0.287-0.218,0.55-0.336,0.791c-1.091,2.34-2.528,3.182-4.356,3.182c-1.83,0-3.314-0.845-4.405-3.19
		c-0.115-0.236-0.225-0.493-0.328-0.774c-1.345-3.435-2.037-8.62-2.062-16.127h13.544C17.632,37.285,16.941,42.466,15.599,45.902z"
		/>
	<path d="M25.958,48.788c0.374,0,0.745-0.067,1.109-0.208l-1.499-10.564h-4.843C21.442,46.441,23.745,48.788,25.958,48.788z"/>
	<path d="M21.766,61.911h7.193l-0.255-1.799h-1.567v-8.207c-0.393,0.082-0.793,0.123-1.2,0.123s-0.808-0.042-1.2-0.123v8.207h-2.969
		c-0.409,0-0.741,0.252-0.741,0.563v0.672C21.025,61.659,21.356,61.911,21.766,61.911z"/>
	<path d="M10.907,48.788c2.213,0,4.356-2.095,5.233-10.772H5.674C6.391,46.441,8.695,48.788,10.907,48.788z"/>
	<path d="M10.885,52.028c-0.408,0-0.808-0.042-1.2-0.123v8.207H6.715c-0.409,0-0.741,0.252-0.741,0.563v0.672
		c0,0.311,0.332,0.563,0.741,0.563h8.15c0.409,0,0.741-0.252,0.741-0.563v-0.672c0-0.311-0.332-0.563-0.741-0.563h-2.78v-8.207
		C11.692,51.986,11.292,52.028,10.885,52.028z"/>
	<path d="M55.909,26.642c0.073-0.361,0.115-0.721,0.14-1.079c0.005-0.081,0.012-0.163,0.014-0.244
		c0.049-1.239-0.181-2.44-0.645-3.531c-0.486-1.412-1.099-2.678-1.306-3.732c-0.426-2.166-0.128-3.8-0.128-3.8l1.209-5.812
		L48.85,7.023l-1.216,5.842c0,0-0.38,1.826-2.007,3.332c-1.448,1.341-3.884,3.285-4.814,6.194c-0.1,0.301-0.189,0.609-0.256,0.928
		l-0.172,0.825L45.5,25.5l-0.264,1.142H55.909z"/>
	<path d="M49.977,45.127c0.141,0.1,0.283,0.198,0.427,0.292c0.149,0.097,0.3,0.192,0.453,0.282c1.729,1.021,3.695,1.601,5.861,1.601
		c0.66,0,1.339-0.054,2.036-0.166c0.074-0.012,0.146-0.017,0.215-0.017c0.106,0,0.206,0.013,0.303,0.034l2.047-13.372
		c-0.303,0.085-0.616,0.146-0.945,0.146h-4.957h-0.51h-0.511l-16.045,0H37.84H37.33h-3.611h-1.112h-5.26
		c-0.299,0-0.585-0.049-0.862-0.119l0.597,4.208l1.355,9.549l0.2,1.411l0.174,1.225l0.641,4.52l28.661,0l0.761-4.968
		c-0.693,0.088-1.373,0.13-2.04,0.13c-3.196,0-6.087-0.983-8.525-2.747c-0.165-0.119-0.328-0.241-0.489-0.367
		c-0.156-0.122-0.309-0.249-0.461-0.378c-1.59-1.351-2.961-3.049-4.057-5.041c-3.183-0.143-3.144-5.272,0.13-5.272
		c2.271,0,2.987,2.469,2.152,4.032C46.74,42.156,48.222,43.878,49.977,45.127z"/>
	<polygon points="57.484,58.838 30.037,58.837 30.226,60.167 30.449,61.736 30.465,61.85 57.023,61.85 	"/>
	<path d="M56.517,28.642h-0.51h-0.511l-16.045,0H38.94h-0.511h-4.61h-6.471c-0.7,0-1.288,0.482-1.492,1.142
		c-0.049,0.159-0.083,0.325-0.083,0.5c0,0.543,0.257,1.022,0.648,1.321c0.261,0.199,0.579,0.321,0.927,0.321h5.327h1.108h3.963
		h0.511h0.511l16.045,0h0.511h0.51h4.541c0.347,0,0.666-0.122,0.927-0.321c0.391-0.299,0.648-0.778,0.648-1.321
		c0-0.905-0.707-1.643-1.575-1.643H56.517z"/>
	<polygon points="50.486,2.15 49.995,5.591 49.924,6.087 49.903,6.234 54.865,7.345 54.924,7.183 55.096,6.709 56.25,3.528 	"/>
</g>
</svg>
