<?xml version="1.0" encoding="iso-8859-1"?>
<!-- Generator: Adobe Illustrator 17.0.0, SVG Export Plug-In . SVG Version: 6.00 Build 0)  -->
<!DOCTYPE svg PUBLIC "-//W3C//DTD SVG 1.1//EN" "http://www.w3.org/Graphics/SVG/1.1/DTD/svg11.dtd">
<svg version="1.1" id="Capa_1" xmlns="http://www.w3.org/2000/svg" xmlns:xlink="http://www.w3.org/1999/xlink" x="0px" y="0px"
	 width="64px" height="64px" viewBox="0 0 64 64" style="enable-background:new 0 0 64 64;" xml:space="preserve">
<g>
	<path d="M54.482,36.987c0.551-3.451-0.112-7.356-1.866-10.997c-0.357-0.742-0.532-1.07-0.919-1.07l-0.242,0.008l-0.149,0.168
		c-0.193,0.218-0.164,0.466-0.094,1.064c0.035,0.292,0.117,0.992,0.068,1.325c-0.047-0.028-0.109-0.068-0.186-0.128l-0.245-0.19
		l-14.67,7.067c0.07,0.151,0.149,0.298,0.226,0.446c0.078,0.148,0.154,0.296,0.239,0.44c0.892,1.519,2.167,2.836,3.695,3.99
		c0.796,0.601-0.501,1.665-1.29,1.069c-1.504-1.136-2.774-2.444-3.72-3.92c-0.138-0.215-0.268-0.434-0.391-0.656
		c-0.202-0.365-0.383-0.74-0.544-1.125c-0.053-0.053-0.108-0.108-0.145-0.146c-0.415-0.418-0.586-0.592-0.863-0.592l-0.297,0.011
		l-0.147,0.234c-0.18,0.287-0.068,0.578,0.298,1.338c2.839,5.894,7.994,9.853,12.826,9.854h0c1.238,0,2.409-0.263,3.481-0.779
		C52.168,43.137,53.92,40.505,54.482,36.987z"/>
	<path d="M60.276,50.425l-3.672,1.769l-3.014-6.256c2.037-1.868,3.412-4.591,3.947-7.938c0.71-4.448-0.142-9.479-2.399-14.164
		c-1.771-3.675-4.257-6.822-7.191-9.102l-0.44-0.342l-18.837,9.076c0.865-3.192,1.68-6.773,2.45-10.758l0.122-0.633L7.629,7.518
		L7.507,8.15c-4.002,20.721-2.836,31.841,3.687,34.666c0.55,0.238,1.133,0.424,1.759,0.545c0.626,0.121,1.237,0.165,1.835,0.149
		c5.135-0.139,9.286-5.344,12.704-16.039c0.32,2.839,1.164,5.726,2.492,8.482c3.659,7.596,10.32,12.698,16.575,12.699c0,0,0,0,0,0
		c0.57,0,1.124-0.058,1.671-0.142l3.017,6.263l-3.672,1.769c-0.781,0.376-1.108,1.314-0.732,2.094
		c0.376,0.78,1.314,1.108,2.094,0.732l12.699-6.118c0.781-0.376,1.108-1.314,0.732-2.094S61.056,50.049,60.276,50.425z
		 M20.772,38.093c-2.31,3.188-4.706,4.033-7.442,3.505c-2.74-0.529-4.718-2.223-5.674-6.05c-0.104-0.387-0.194-0.804-0.268-1.253
		C6.367,28.761,6.83,20.798,8.964,9.55l20.281,3.917c-2.206,11.224-4.738,18.783-7.742,23.539
		C21.262,37.405,21.018,37.766,20.772,38.093z M46.56,46.854c-5.578-0.001-11.588-4.694-14.954-11.681
		c-1.562-3.242-2.407-6.666-2.456-9.938l18.125-8.732c2.529,2.078,4.68,4.873,6.242,8.115c2.1,4.358,2.896,9.01,2.243,13.099
		c-0.634,3.969-2.563,6.916-5.433,8.299C49.171,46.571,47.904,46.854,46.56,46.854C46.561,46.854,46.561,46.854,46.56,46.854z"/>
	<path d="M14.361,23.378c-0.313,2.58-0.504,5.166-0.361,7.789c0.106,1.934-2.895,1.924-3,0c-0.154-2.811,0.069-5.588,0.419-8.357
		l-2.497-0.482C7.56,35.151,10.33,39.331,13.644,39.97c3.314,0.64,7.128-1.877,10.951-14.616L14.361,23.378z"/>
	<path d="M16.295,58.071l-4.163-0.804l2.373-12.289c-0.611,0.009-1.223-0.045-1.833-0.163c-0.61-0.118-1.198-0.296-1.762-0.532
		L8.537,56.573l-4.446-0.859c-0.613-0.118-1.182,0.163-1.272,0.629l-0.195,1.007c-0.09,0.466,0.334,0.94,0.947,1.058l12.204,2.357
		c0.613,0.118,1.182-0.163,1.273-0.629l0.194-1.007C17.331,58.663,16.908,58.189,16.295,58.071z"/>
	<path d="M35.994,3.573c-0.521-0.184-1.091,0.095-1.272,0.616l-2.306,6.649c-0.181,0.522,0.095,1.092,0.617,1.272
		c0.108,0.038,0.219,0.056,0.328,0.056c0.414,0,0.801-0.259,0.945-0.672l2.306-6.649C36.792,4.323,36.516,3.754,35.994,3.573z"/>
	<path d="M45.187,1.551c-0.432-0.344-1.062-0.272-1.405,0.159l-8.05,10.112c-0.344,0.433-0.272,1.062,0.159,1.405
		c0.184,0.146,0.404,0.218,0.623,0.218c0.294,0,0.585-0.129,0.783-0.377l8.05-10.112C45.69,2.523,45.618,1.895,45.187,1.551z"/>
	<path d="M44.126,11.711l-6.142,2.935c-0.499,0.238-0.709,0.835-0.471,1.333c0.172,0.359,0.53,0.569,0.903,0.569
		c0.145,0,0.292-0.031,0.431-0.098l6.142-2.935c0.499-0.238,0.709-0.835,0.471-1.333C45.221,11.684,44.624,11.473,44.126,11.711z"/>
</g>
</svg>
