<?xml version="1.0" encoding="iso-8859-1"?>
<!-- Generator: Adobe Illustrator 17.0.0, SVG Export Plug-In . SVG Version: 6.00 Build 0)  -->
<!DOCTYPE svg PUBLIC "-//W3C//DTD SVG 1.1//EN" "http://www.w3.org/Graphics/SVG/1.1/DTD/svg11.dtd">
<svg version="1.1" id="Capa_1" xmlns="http://www.w3.org/2000/svg" xmlns:xlink="http://www.w3.org/1999/xlink" x="0px" y="0px"
	 width="64px" height="64px" viewBox="0 0 64 64" style="enable-background:new 0 0 64 64;" xml:space="preserve">
<g>
	<path d="M48.05,4.173H16.7l-0.414,0.832c-2.313,4.652-3.536,10.123-3.536,15.823c0,13.219,6.653,24.291,15.5,26.962v9.377h-5.656
		c-1.202,0-2.177,0.975-2.177,2.177c0,1.202,0.975,2.177,2.177,2.177h19.562c1.202,0,2.177-0.975,2.177-2.177
		c0-1.202-0.975-2.177-2.177-2.177H36.5V47.79C45.347,45.119,52,34.048,52,20.828c0-5.7-1.223-11.171-3.536-15.823L48.05,4.173z
		 M32.375,45.408c-9.167,0-16.625-11.026-16.625-24.58c0-4.899,0.975-9.6,2.826-13.655h27.599C48.025,11.229,49,15.929,49,20.828
		C49,34.382,41.542,45.408,32.375,45.408z"/>
	<path d="M44.755,23.384c-0.001-0.001-0.138-0.064-0.355-0.503l-0.138-0.277H21.773c0,0.167,0.018,0.334,0.024,0.5
		c0.006,0.167,0.013,0.333,0.024,0.5c0.173,2.502,0.978,4.984,2.226,7.41c0.633,1.232-1.63,1.78-2.257,0.559
		c-1.24-2.411-2.061-4.901-2.326-7.405c-0.028-0.262-0.042-0.524-0.057-0.787c-0.024-0.417-0.039-0.833-0.03-1.25
		c-0.104-0.274-0.194-0.532-0.251-0.697c-0.292-0.85-0.413-1.201-0.855-1.201c-0.625,0-0.625,0.666-0.625,1.77
		c0,11.565,6.607,20.975,14.729,20.975s14.729-9.409,14.729-20.975c0-1.104,0-1.77-0.625-1.77c-0.442,0-0.563,0.352-0.855,1.201
		C45.453,21.931,44.998,23.251,44.755,23.384z"/>
</g>
</svg>
