<?xml version="1.0" encoding="utf-8"?>
<!-- Generator: Adobe Illustrator 16.0.0, SVG Export Plug-In . SVG Version: 6.00 Build 0)  -->
<!DOCTYPE svg PUBLIC "-//W3C//DTD SVG 1.1//EN" "http://www.w3.org/Graphics/SVG/1.1/DTD/svg11.dtd">
<svg version="1.1" id="Layer_1" xmlns="http://www.w3.org/2000/svg" xmlns:xlink="http://www.w3.org/1999/xlink" x="0px" y="0px"
	 width="48px" height="48px" viewBox="0 0 48 48" enable-background="new 0 0 48 48" xml:space="preserve">
<g>
	<path fill="#050505" d="M44.162,27.904c-1.564-1.578-3.631-2.539-5.825-2.742c1.893-1.704,3.089-4.164,3.089-6.912
		c0-5.141-4.166-9.307-9.308-9.307c-4.911,0-8.932,3.804-9.281,8.625c4.369,1.89,7.435,6.244,7.435,11.299
		c0,1.845-0.42,3.65-1.202,5.287c1.126,0.588,2.163,1.348,3.067,2.259c2.318,2.335,3.635,5.561,3.61,8.851l-0.002,0.068
		l-0.002,0.056l-0.082,1.557h11.15l0.092-12.331C46.921,32.101,45.936,29.689,44.162,27.904z"/>
	<path fill="#050505" d="M24.184,35.781c1.892-1.704,3.091-4.165,3.091-6.913c0-5.141-4.168-9.308-9.308-9.308
		c-5.142,0-9.309,4.167-9.309,9.308c0,2.744,1.194,5.203,3.084,6.907c-4.84,0.375-8.663,4.383-8.698,9.318l-0.092,1.853h14.153
		h15.553l0.092-1.714c0.018-2.514-0.968-4.926-2.741-6.711C28.444,36.942,26.377,35.984,24.184,35.781z"/>
	<path fill="#050505" d="M7.004,12.596v3.458c0,1.432,1.164,2.595,2.597,2.595c1.435,0,2.597-1.163,2.597-2.595v-3.458h3.454
		c1.433,0,2.596-1.164,2.596-2.597c0-1.432-1.163-2.596-2.596-2.596h-3.454V3.997c0-1.433-1.162-2.595-2.597-2.595
		c-1.433,0-2.597,1.162-2.597,2.595v3.406H3.596C2.161,7.403,1,8.567,1,9.999c0,1.433,1.161,2.597,2.596,2.597H7.004z"/>
</g>
</svg>
