<?xml version="1.0" encoding="utf-8"?>
<!-- Generator: Adobe Illustrator 16.0.0, SVG Export Plug-In . SVG Version: 6.00 Build 0)  -->
<!DOCTYPE svg PUBLIC "-//W3C//DTD SVG 1.1//EN" "http://www.w3.org/Graphics/SVG/1.1/DTD/svg11.dtd">
<svg version="1.1" id="Layer_1" xmlns="http://www.w3.org/2000/svg" xmlns:xlink="http://www.w3.org/1999/xlink" x="0px" y="0px"
	 width="48px" height="48px" viewBox="0 0 48 48" enable-background="new 0 0 48 48" xml:space="preserve">
<g>
	<path fill="#050505" d="M33.448,19.98h-5.261v-5.247c0-2.187-1.768-3.961-3.955-3.961s-3.955,1.774-3.955,3.961v5.247h-5.233
		c-2.187,0-3.961,1.768-3.961,3.955c0,2.188,1.774,3.955,3.961,3.955h5.233v5.247c0,2.187,1.768,3.961,3.955,3.961
		s3.955-1.774,3.955-3.961V27.89h5.261c2.187,0,3.961-1.768,3.961-3.955C37.409,21.748,35.635,19.98,33.448,19.98z"/>
	<path fill="#050505" d="M24.246,1.163c-12.576,0-22.772,10.195-22.772,22.772c0,12.577,10.196,22.772,22.772,22.772
		c12.577,0,22.772-10.195,22.772-22.772C47.019,11.358,36.823,1.163,24.246,1.163z M24.246,40.767
		c-9.281,0-16.832-7.55-16.832-16.832c0-9.281,7.55-16.832,16.832-16.832c9.282,0,16.832,7.55,16.832,16.832
		C41.078,33.216,33.528,40.767,24.246,40.767z"/>
</g>
</svg>
