<?xml version="1.0" encoding="utf-8"?>
<!-- Generator: Adobe Illustrator 16.0.0, SVG Export Plug-In . SVG Version: 6.00 Build 0)  -->
<!DOCTYPE svg PUBLIC "-//W3C//DTD SVG 1.1//EN" "http://www.w3.org/Graphics/SVG/1.1/DTD/svg11.dtd">
<svg version="1.1" id="Layer_1" xmlns="http://www.w3.org/2000/svg" xmlns:xlink="http://www.w3.org/1999/xlink" x="0px" y="0px"
	 width="48px" height="48px" viewBox="0 0 48 48" enable-background="new 0 0 48 48" xml:space="preserve">
<path fill="#050505" d="M37.197,18.016l7.873-7.303c1.104-1.018,1.737-2.434,1.768-3.935c0.029-1.5-0.562-2.94-1.623-4.002
	l-0.058-0.059c-1.062-1.061-2.502-1.651-4.002-1.622c-1.502,0.03-2.921,0.667-3.938,1.77l-7.302,7.873L5.729,2.415
	C4.27,1.911,2.836,2.293,2.383,3.303L1.301,5.725C0.849,6.736,1.522,8.061,2.869,8.813L21.86,19.425l-8.547,9.216l-4.842-1.046
	c-0.527-0.114-1.059,0.169-1.259,0.671l-0.725,1.826c-0.2,0.501,0.005,1.062,0.467,1.34l5.239,3.146l1.188,1.188l3.146,5.24
	c0.278,0.461,0.844,0.659,1.346,0.461l1.821-0.723c0.503-0.199,0.785-0.729,0.672-1.255l-1.057-4.882l9.199-8.532l10.612,18.992
	c0.753,1.347,2.077,2.02,3.089,1.568l2.421-1.082c1.01-0.452,1.394-1.888,0.89-3.347L37.197,18.016z"/>
</svg>
