<?xml version="1.0" encoding="utf-8"?>
<!-- Generator: Adobe Illustrator 16.0.0, SVG Export Plug-In . SVG Version: 6.00 Build 0)  -->
<!DOCTYPE svg PUBLIC "-//W3C//DTD SVG 1.1//EN" "http://www.w3.org/Graphics/SVG/1.1/DTD/svg11.dtd">
<svg version="1.1" id="Layer_1" xmlns="http://www.w3.org/2000/svg" xmlns:xlink="http://www.w3.org/1999/xlink" x="0px" y="0px"
	 width="48px" height="48px" viewBox="0 0 48 48" enable-background="new 0 0 48 48" xml:space="preserve">
<g>
	<path fill="#050505" d="M38.992,28.037v-9.393c0-6.357-3.94-11.767-9.491-14.034h0.053c-0.971-2.197-3.174-3.751-5.738-3.751
		c-2.567,0-4.769,1.554-5.738,3.751h0.051c-5.55,2.267-9.491,7.677-9.491,14.034v9.394c-3.158,0.029-5.7,2.61-5.7,5.791v1.248
		c0,3.199,2.582,5.796,5.781,5.796h30.193c3.199,0,5.781-2.597,5.781-5.796v-1.248C44.692,30.647,42.151,28.066,38.992,28.037z"/>
	<path fill="#050505" d="M18.265,47.096c2.565,0,4.768-1.554,5.737-3.751H12.525C13.494,45.542,15.699,47.096,18.265,47.096z"/>
</g>
</svg>
