<?xml version="1.0" encoding="utf-8"?>
<!-- Generator: Adobe Illustrator 16.0.0, SVG Export Plug-In . SVG Version: 6.00 Build 0)  -->
<!DOCTYPE svg PUBLIC "-//W3C//DTD SVG 1.1//EN" "http://www.w3.org/Graphics/SVG/1.1/DTD/svg11.dtd">
<svg version="1.1" id="Layer_1" xmlns="http://www.w3.org/2000/svg" xmlns:xlink="http://www.w3.org/1999/xlink" x="0px" y="0px"
	 width="48px" height="48px" viewBox="0 0 48 48" enable-background="new 0 0 48 48" xml:space="preserve">
<path fill="#050505" d="M46.585,34.609c-1.741-7.42-7.161-17.758-23.554-19.942V8.124c0-1.364-0.826-2.593-2.087-3.113
	c-1.261-0.521-2.712-0.23-3.675,0.737L2.384,20.707c-1.739,1.748-1.74,4.572-0.001,6.32l14.886,14.959
	c0.961,0.966,2.415,1.258,3.676,0.737c1.261-0.521,2.087-1.75,2.087-3.113v-6.331c5.593,0.007,13.657,0.743,19.392,4.314
	c0.953,0.593,2.168,0.554,3.08-0.101C46.414,36.839,46.842,35.701,46.585,34.609z"/>
</svg>
