<?xml version="1.0" encoding="utf-8"?>
<!-- Generator: Adobe Illustrator 16.0.0, SVG Export Plug-In . SVG Version: 6.00 Build 0)  -->
<!DOCTYPE svg PUBLIC "-//W3C//DTD SVG 1.1//EN" "http://www.w3.org/Graphics/SVG/1.1/DTD/svg11.dtd">
<svg version="1.1" id="Layer_1" xmlns="http://www.w3.org/2000/svg" xmlns:xlink="http://www.w3.org/1999/xlink" x="0px" y="0px"
	 width="48px" height="48px" viewBox="0 0 48 48" enable-background="new 0 0 48 48" xml:space="preserve">
<path fill="#050505" d="M39.634,3.014c0-1.218-0.94-2.183-2.158-2.183H12.295c-1.219,0-2.116,0.965-2.116,2.183V47h9.608v-7.266
	c0-0.715,0.517-1.299,1.229-1.299h7.771c0.713,0,1.238,0.584,1.238,1.299V47h9.608V3.014z M23.13,32.04
	c0,0.417-0.337,0.755-0.755,0.755h-4.549c-0.416,0-0.755-0.338-0.755-0.755v-4.549c0-0.417,0.339-0.755,0.755-0.755h4.549
	c0.418,0,0.755,0.338,0.755,0.755V32.04z M23.13,22.011c0,0.417-0.337,0.755-0.755,0.755h-4.549c-0.416,0-0.755-0.338-0.755-0.755
	v-4.549c0-0.417,0.339-0.755,0.755-0.755h4.549c0.418,0,0.755,0.338,0.755,0.755V22.011z M23.13,11.775
	c0,0.417-0.337,0.755-0.755,0.755h-4.549c-0.416,0-0.755-0.338-0.755-0.755V7.226c0-0.417,0.339-0.755,0.755-0.755h4.549
	c0.418,0,0.755,0.338,0.755,0.755V11.775z M32.741,32.04c0,0.417-0.339,0.755-0.755,0.755h-4.549c-0.418,0-0.755-0.338-0.755-0.755
	v-4.549c0-0.417,0.337-0.755,0.755-0.755h4.549c0.416,0,0.755,0.338,0.755,0.755V32.04z M32.741,22.011
	c0,0.417-0.339,0.755-0.755,0.755h-4.549c-0.418,0-0.755-0.338-0.755-0.755v-4.549c0-0.417,0.337-0.755,0.755-0.755h4.549
	c0.416,0,0.755,0.338,0.755,0.755V22.011z M32.741,11.775c0,0.417-0.339,0.755-0.755,0.755h-4.549c-0.418,0-0.755-0.338-0.755-0.755
	V7.226c0-0.417,0.337-0.755,0.755-0.755h4.549c0.416,0,0.755,0.338,0.755,0.755V11.775z"/>
</svg>
