<?xml version="1.0" encoding="utf-8"?>
<!-- Generator: Adobe Illustrator 16.0.0, SVG Export Plug-In . SVG Version: 6.00 Build 0)  -->
<!DOCTYPE svg PUBLIC "-//W3C//DTD SVG 1.1//EN" "http://www.w3.org/Graphics/SVG/1.1/DTD/svg11.dtd">
<svg version="1.1" id="Layer_1" xmlns="http://www.w3.org/2000/svg" xmlns:xlink="http://www.w3.org/1999/xlink" x="0px" y="0px"
	 width="48px" height="48px" viewBox="0 0 48 48" enable-background="new 0 0 48 48" xml:space="preserve">
<path fill="#050505" d="M27.515,24.114l9.816-9.856c0.572-0.574,0.856-1.374,0.778-2.18c-0.08-0.807-0.517-1.536-1.188-1.988
	L24.439,1.691c-0.833-0.561-1.916-0.616-2.801-0.144c-0.886,0.471-1.457,1.393-1.457,2.396V16.99l-6.489-6.56
	c-1.056-1.064-2.758-1.071-3.822-0.016c-1.064,1.056-1.072,2.775-0.016,3.839l9.78,9.861l-9.78,9.86
	c-1.056,1.064-1.048,2.783,0.016,3.84c1.064,1.055,2.767,1.049,3.822-0.016l6.489-6.56v13.046c0,1.003,0.571,1.925,1.457,2.396
	c0.885,0.472,1.968,0.417,2.801-0.145l12.481-8.397c0.672-0.453,1.109-1.182,1.188-1.988c0.078-0.806-0.206-1.606-0.778-2.18
	L27.515,24.114z M25.689,9.043l5.517,3.713l-5.517,5.539V9.043z M25.689,39.185v-9.252l5.517,5.539L25.689,39.185z"/>
</svg>
