<?xml version="1.0" encoding="utf-8"?>
<!-- Generator: Adobe Illustrator 16.0.0, SVG Export Plug-In . SVG Version: 6.00 Build 0)  -->
<!DOCTYPE svg PUBLIC "-//W3C//DTD SVG 1.1//EN" "http://www.w3.org/Graphics/SVG/1.1/DTD/svg11.dtd">
<svg version="1.1" id="Layer_1" xmlns="http://www.w3.org/2000/svg" xmlns:xlink="http://www.w3.org/1999/xlink" x="0px" y="0px"
	 width="48px" height="48px" viewBox="0 0 48 48" enable-background="new 0 0 48 48" xml:space="preserve">
<g>
	<path fill="#050505" d="M40.742,12.985h-4.019V5.851c0-1.915-1.544-3.438-3.459-3.438H14.989c-1.916,0-3.473,1.523-3.473,3.438
		v7.135H7.51c-3.797,0-6.888,3.106-6.888,6.904v17.189c0,3.797,3.09,6.85,6.888,6.85h33.232c3.797,0,6.876-3.053,6.876-6.85V19.89
		C47.618,16.092,44.539,12.985,40.742,12.985z M17.77,9.166c0-0.276,0.224-0.5,0.5-0.5h11.7c0.276,0,0.5,0.224,0.5,0.5v3.82H17.77
		V9.166z M24.126,39.62c-6.052,0-10.957-4.905-10.957-10.958c0-6.052,4.905-10.957,10.957-10.957s10.957,4.905,10.957,10.957
		C35.083,34.715,30.178,39.62,24.126,39.62z"/>
	<circle fill="#050505" cx="24.126" cy="28.663" r="4.833"/>
</g>
</svg>
