<?xml version="1.0" encoding="utf-8"?>
<!-- Generator: Adobe Illustrator 16.0.0, SVG Export Plug-In . SVG Version: 6.00 Build 0)  -->
<!DOCTYPE svg PUBLIC "-//W3C//DTD SVG 1.1//EN" "http://www.w3.org/Graphics/SVG/1.1/DTD/svg11.dtd">
<svg version="1.1" id="Layer_1" xmlns="http://www.w3.org/2000/svg" xmlns:xlink="http://www.w3.org/1999/xlink" x="0px" y="0px"
	 width="48px" height="48px" viewBox="0 0 48 48" enable-background="new 0 0 48 48" xml:space="preserve">
<path d="M42.194,14.572h-6.505V10.59c0-3.843-3.176-6.917-7.021-6.917h-9.606c-3.844,0-7.022,3.074-7.022,6.917v3.982H5.538
	c-2.473,0-4.507,1.959-4.507,4.432v20.792c0,2.473,2.034,4.531,4.507,4.531h36.656c2.473,0,4.504-2.059,4.504-4.531V19.004
	C46.698,16.531,44.667,14.572,42.194,14.572z M18.034,10.59c0-0.563,0.465-1.03,1.028-1.03h9.606c0.563,0,1.027,0.468,1.027,1.03
	v3.982H18.034V10.59z M34.702,25.193L22.328,37.566c-0.525,0.524-1.236,0.818-1.979,0.818c-0.742,0-1.454-0.294-1.979-0.818
	l-6.132-6.133c-1.093-1.093-1.093-2.865,0-3.959h0.001c0.524-0.524,1.236-0.819,1.979-0.819s1.453,0.295,1.978,0.819l3.653,3.653
	c0.276,0.276,0.724,0.276,1,0l9.896-9.894c0.524-0.524,1.236-0.819,1.979-0.819s1.454,0.295,1.979,0.819v0.001
	C35.795,22.328,35.795,24.1,34.702,25.193z"/>
</svg>
