<?xml version="1.0" encoding="utf-8"?>
<!-- Generator: Adobe Illustrator 16.0.0, SVG Export Plug-In . SVG Version: 6.00 Build 0)  -->
<!DOCTYPE svg PUBLIC "-//W3C//DTD SVG 1.1//EN" "http://www.w3.org/Graphics/SVG/1.1/DTD/svg11.dtd">
<svg version="1.1" id="Layer_1" xmlns="http://www.w3.org/2000/svg" xmlns:xlink="http://www.w3.org/1999/xlink" x="0px" y="0px"
	 width="48px" height="48px" viewBox="0 0 48 48" enable-background="new 0 0 48 48" xml:space="preserve">
<g>
	<path fill="#050505" d="M23.104,9.382c1.681,0,3.043-1.362,3.043-3.043c0,0,0.054-1.422-0.741-2.818
		c-0.409-0.718-0.673-1.233-0.795-1.672c-0.063-0.229-0.234-0.412-0.458-0.489c-0.224-0.078-0.472-0.041-0.663,0.099
		c-0.998,0.729-2.381,1.948-3.081,3.493c-0.122,0.234-0.222,0.478-0.279,0.744c-0.002,0.007-0.005,0.019-0.007,0.019h0
		c-0.042,0.208-0.063,0.411-0.063,0.623C20.061,8.018,21.423,9.382,23.104,9.382z"/>
	<path fill="#050505" d="M41.959,22.669c-1.662-2.893-5.865-6.397-16.394-7.247v-3.73c0-0.773-0.639-1.391-1.412-1.391h-2.098
		c-0.772,0-1.39,0.618-1.39,1.391v3.564C10.577,15.431,4.403,18.912,3.25,25.103c-0.664,3.563,0.461,4.801,1.522,6.091
		c0.635,0.772,1.389,1.363,2.179,1.802C6.953,32.997,6.956,32.999,6.959,33c0,0-0.008,10.218-0.008,10.253
		c0,1.893,7.239,3.427,16.161,3.427s16.161-1.521,16.161-3.414v-10.04c1.251-0.777,2.296-1.847,2.997-3.171
		C43.435,27.855,43.311,25.023,41.959,22.669z M37.071,27.306c-0.659,1.245-2.262,1.506-3.491,1.506
		c-1.706,0-3.757-0.489-6.097-1.454c-2.133-0.878-5.904-1.801-8.208-1.433c-1.546,0.246-2.792,1.027-3.891,1.716
		c-1.359,0.853-2.534,1.588-4.365,1.588l-0.07-0.001c-0.425-0.004-1.212-0.2-1.641-0.72c-0.484-0.589-0.422-1.593-0.284-2.331
		c0.85-4.563,8.988-5.056,12.448-5.056c0.592,0,1.134,0.013,1.605,0.033c10.681,0.44,13.253,3.509,13.788,4.439
		C37.321,26.39,37.209,27.044,37.071,27.306z"/>
</g>
</svg>
