<?xml version="1.0" encoding="utf-8"?>
<!-- Generator: Adobe Illustrator 16.0.0, SVG Export Plug-In . SVG Version: 6.00 Build 0)  -->
<!DOCTYPE svg PUBLIC "-//W3C//DTD SVG 1.1//EN" "http://www.w3.org/Graphics/SVG/1.1/DTD/svg11.dtd">
<svg version="1.1" id="Layer_1" xmlns="http://www.w3.org/2000/svg" xmlns:xlink="http://www.w3.org/1999/xlink" x="0px" y="0px"
	 width="48px" height="48px" viewBox="0 0 48 48" enable-background="new 0 0 48 48" xml:space="preserve">
<g>
	<path fill="#050505" d="M46.296,20.291l-9.205-9.203c-0.594-0.595-1.489-0.772-2.266-0.449c-0.777,0.322-1.282,1.082-1.28,1.923
		l0.009,3.862L21.801,16.46c-1.146,0.002-2.074,0.935-2.071,2.083l0.019,7.539c0.001,0.551,0.221,1.08,0.611,1.469
		c0.391,0.388,0.92,0.605,1.471,0.605l11.753-0.035l0.01,3.859c0.002,0.843,0.512,1.599,1.289,1.918
		c0.779,0.318,1.672,0.138,2.264-0.461l9.159-9.249C47.375,23.108,47.371,21.365,46.296,20.291z"/>
	<path fill="#050505" d="M23.297,32.08c-0.016,0.005-4.697,1.687-4.697,1.687l-6.339-18.021c0,0,4.697-1.639,4.712-1.644
		c1.192-0.419,1.16-3.601-0.072-7.104c-1.232-3.505-3.199-6.007-4.392-5.587c-0.015,0.005-5.345,1.904-5.345,1.904
		C2.337,5.39-0.172,10.905,1.601,15.943l8.556,24.323c1.85,5.257,7.656,8.003,12.896,6.16c0,0,4.693-1.651,4.708-1.656
		c1.191-0.419,1.16-3.6-0.073-7.104C26.455,34.161,24.488,31.66,23.297,32.08z"/>
</g>
</svg>
