<?xml version="1.0" encoding="utf-8"?>
<!-- Generator: Adobe Illustrator 16.0.0, SVG Export Plug-In . SVG Version: 6.00 Build 0)  -->
<!DOCTYPE svg PUBLIC "-//W3C//DTD SVG 1.1//EN" "http://www.w3.org/Graphics/SVG/1.1/DTD/svg11.dtd">
<svg version="1.1" id="Layer_1" xmlns="http://www.w3.org/2000/svg" xmlns:xlink="http://www.w3.org/1999/xlink" x="0px" y="0px"
	 width="48px" height="48px" viewBox="0 0 48 48" enable-background="new 0 0 48 48" xml:space="preserve">
<path fill="#050505" d="M30.412,14.472c1.263,0,2.289-3.012,2.289-6.726c0-3.715-1.025-6.728-2.289-6.728
	c-0.016,0-5.675,0.023-5.675,0.023c-5.242,0.354-9.438,4.725-9.438,10.065v25.784c0,5.572,4.566,10.09,10.122,10.09
	c0,0,4.975,0,4.99,0c1.263,0,2.289-3.011,2.289-6.727c0-3.715-1.025-6.727-2.289-6.727c-0.016,0-4.99,0.033-4.99,0.033V14.458
	C25.421,14.458,30.396,14.472,30.412,14.472z"/>
</svg>
