<?xml version="1.0" encoding="utf-8"?>
<!-- Generator: Adobe Illustrator 16.0.0, SVG Export Plug-In . SVG Version: 6.00 Build 0)  -->
<!DOCTYPE svg PUBLIC "-//W3C//DTD SVG 1.1//EN" "http://www.w3.org/Graphics/SVG/1.1/DTD/svg11.dtd">
<svg version="1.1" id="Layer_1" xmlns="http://www.w3.org/2000/svg" xmlns:xlink="http://www.w3.org/1999/xlink" x="0px" y="0px"
	 width="48px" height="48px" viewBox="0 0 48 48" enable-background="new 0 0 48 48" xml:space="preserve">
<path fill="#050505" d="M40.315,7.644c-8.975-8.974-23.524-8.974-32.498,0s-8.974,23.523,0,32.498
	c8.974,8.973,23.523,8.973,32.497-0.001S49.289,16.617,40.315,7.644z M33.449,27.624c1.561,1.561,1.561,4.092,0,5.652
	s-4.091,1.56-5.652,0l-3.748-3.749l-3.74,3.74c-1.561,1.561-4.074,1.578-5.635,0.018c-1.56-1.56-1.542-4.073,0.019-5.634l3.74-3.74
	l-3.747-3.747c-1.561-1.561-1.567-4.098-0.006-5.658s4.096-1.556,5.656,0.005l3.749,3.749l3.74-3.74
	c1.561-1.561,4.074-1.578,5.634-0.019c1.561,1.561,1.543,4.074-0.018,5.635l-3.74,3.74L33.449,27.624z"/>
</svg>
