<?xml version="1.0" encoding="utf-8"?>
<!-- Generator: Adobe Illustrator 16.0.0, SVG Export Plug-In . SVG Version: 6.00 Build 0)  -->
<!DOCTYPE svg PUBLIC "-//W3C//DTD SVG 1.1//EN" "http://www.w3.org/Graphics/SVG/1.1/DTD/svg11.dtd">
<svg version="1.1" id="Layer_1" xmlns="http://www.w3.org/2000/svg" xmlns:xlink="http://www.w3.org/1999/xlink" x="0px" y="0px"
	 width="48px" height="48px" viewBox="0 0 48 48" enable-background="new 0 0 48 48" xml:space="preserve">
<g>
	<path fill="#050505" d="M38.649,4.1H9.585c-4.616,0-8.362,3.736-8.362,8.352v17.003c0,4.616,3.747,8.345,8.362,8.345h18.48
		l3.903,5.603c0.527,0.755,1.389,1.209,2.31,1.211c0.92,0.002,1.785-0.444,2.315-1.197l4.128-5.866
		c3.612-0.923,6.281-4.198,6.281-8.097V12.452C47.003,7.836,43.265,4.1,38.649,4.1z M16.654,23.67c-1.505,0-2.726-1.215-2.726-2.717
		c0-1.499,1.221-2.716,2.726-2.716c1.506,0,2.726,1.217,2.726,2.716C19.38,22.455,18.16,23.67,16.654,23.67z M24.117,23.67
		c-1.505,0-2.726-1.215-2.726-2.717c0-1.499,1.221-2.716,2.726-2.716c1.506,0,2.726,1.217,2.726,2.716
		C26.843,22.455,25.623,23.67,24.117,23.67z M31.58,23.67c-1.505,0-2.726-1.215-2.726-2.717c0-1.499,1.221-2.716,2.726-2.716
		c1.507,0,2.726,1.217,2.726,2.716C34.306,22.455,33.087,23.67,31.58,23.67z"/>
</g>
</svg>
