<?xml version="1.0" encoding="utf-8"?>
<!-- Generator: Adobe Illustrator 16.0.0, SVG Export Plug-In . SVG Version: 6.00 Build 0)  -->
<!DOCTYPE svg PUBLIC "-//W3C//DTD SVG 1.1//EN" "http://www.w3.org/Graphics/SVG/1.1/DTD/svg11.dtd">
<svg version="1.1" id="Layer_1" xmlns="http://www.w3.org/2000/svg" xmlns:xlink="http://www.w3.org/1999/xlink" x="0px" y="0px"
	 width="48px" height="48px" viewBox="0 0 48 48" enable-background="new 0 0 48 48" xml:space="preserve">
<g>
	<path fill="#050505" d="M41.505,1.676H6.495c-2.301,0-4.165,1.838-4.165,4.14v25.511c0,1.439,0.742,2.776,1.963,3.537l17.39,10.83
		c1.342,0.835,3.04,0.84,4.387,0.012l17.619-10.844c1.231-0.758,1.981-2.101,1.981-3.548V5.816
		C45.67,3.515,43.807,1.676,41.505,1.676z M34.872,19.259l-11.691,11.69c-1.033,1.033-2.708,1.033-3.74,0l-5.794-5.794
		c-0.497-0.496-0.775-1.169-0.775-1.87c0-0.702,0.278-1.374,0.775-1.87v-0.001c0.496-0.496,1.168-0.774,1.87-0.774
		c0.701,0,1.373,0.279,1.868,0.775l3.453,3.453c0.126,0.125,0.296,0.196,0.472,0.196c0.178,0,0.348-0.07,0.474-0.196l9.348-9.348
		c0.497-0.496,1.17-0.775,1.871-0.774c0.7,0,1.374,0.278,1.87,0.775l0,0C35.904,16.552,35.904,18.226,34.872,19.259z"/>
</g>
</svg>
