<?xml version="1.0" encoding="utf-8"?>
<!-- Generator: Adobe Illustrator 16.0.0, SVG Export Plug-In . SVG Version: 6.00 Build 0)  -->
<!DOCTYPE svg PUBLIC "-//W3C//DTD SVG 1.1//EN" "http://www.w3.org/Graphics/SVG/1.1/DTD/svg11.dtd">
<svg version="1.1" id="Layer_1" xmlns="http://www.w3.org/2000/svg" xmlns:xlink="http://www.w3.org/1999/xlink" x="0px" y="0px"
	 width="48px" height="48px" viewBox="0 0 48 48" enable-background="new 0 0 48 48" xml:space="preserve">
<g>
	<path fill="#050505" d="M24,6.826c9.374,0,17,7.627,17,17c0,9.375-7.626,17-17,17s-17-7.625-17-17C7,14.453,14.626,6.826,24,6.826
		 M24,0.826c-12.702,0-23,10.298-23,23c0,12.703,10.298,23,23,23s23-10.297,23-23C47,11.124,36.702,0.826,24,0.826L24,0.826z"/>
	<g>
		<path fill="#050505" d="M21.887,33.308c-0.609,0.609-1.437,0.952-2.298,0.952s-1.689-0.343-2.298-0.952l-7.122-7.122
			c-1.269-1.269-1.269-3.327,0-4.596c1.27-1.27,3.327-1.27,4.597,0l4.243,4.242c0.321,0.321,0.84,0.321,1.161,0l11.489-11.489
			c1.27-1.27,3.327-1.27,4.597,0s1.27,3.327,0,4.597L21.887,33.308z"/>
	</g>
</g>
</svg>
