<?xml version="1.0" encoding="utf-8"?>
<!-- Generator: Adobe Illustrator 16.0.0, SVG Export Plug-In . SVG Version: 6.00 Build 0)  -->
<!DOCTYPE svg PUBLIC "-//W3C//DTD SVG 1.1//EN" "http://www.w3.org/Graphics/SVG/1.1/DTD/svg11.dtd">
<svg version="1.1" id="Layer_1" xmlns="http://www.w3.org/2000/svg" xmlns:xlink="http://www.w3.org/1999/xlink" x="0px" y="0px"
	 width="48px" height="48px" viewBox="0 0 48 48" enable-background="new 0 0 48 48" xml:space="preserve">
<g>
	<path fill="#050505" d="M36.822,1H11.178C5.557,1,1,5.557,1,11.178v25.645C1,42.443,5.557,47,11.178,47h25.645
		C42.443,47,47,42.443,47,36.822V11.178C47,5.557,42.443,1,36.822,1z M41,36.822C41,39.126,39.126,41,36.822,41H11.178
		C8.874,41,7,39.126,7,36.822V11.178C7,8.874,8.874,7,11.178,7h25.645C39.126,7,41,8.874,41,11.178V36.822z"/>
	<g>
		<path fill="#050505" d="M22.925,34.298c-0.609,0.609-1.437,0.952-2.298,0.952s-1.689-0.343-2.298-0.952l-7.122-7.122
			c-1.269-1.269-1.269-3.327,0-4.596c1.27-1.27,3.327-1.27,4.597,0l4.243,4.242c0.321,0.321,0.84,0.321,1.161,0l11.489-11.489
			c1.27-1.27,3.327-1.27,4.597,0s1.27,3.327,0,4.597L22.925,34.298z"/>
	</g>
</g>
</svg>
