<?xml version="1.0" encoding="utf-8"?>
<!-- Generator: Adobe Illustrator 16.0.0, SVG Export Plug-In . SVG Version: 6.00 Build 0)  -->
<!DOCTYPE svg PUBLIC "-//W3C//DTD SVG 1.1//EN" "http://www.w3.org/Graphics/SVG/1.1/DTD/svg11.dtd">
<svg version="1.1" id="Layer_1" xmlns="http://www.w3.org/2000/svg" xmlns:xlink="http://www.w3.org/1999/xlink" x="0px" y="0px"
	 width="48px" height="48px" viewBox="0 0 48 48" enable-background="new 0 0 48 48" xml:space="preserve">
<g>
	<path fill="#050505" d="M34.439,24.322c0-1.61-1.305-2.905-2.915-2.905h-4.831v-8.74c0-1.61-1.326-2.915-2.936-2.915
		s-2.936,1.305-2.936,2.915v11.66c0,1.61,1.318,2.891,2.928,2.891h7.773C33.134,27.228,34.439,25.932,34.439,24.322z"/>
	<path fill="#050505" d="M23.743,1.3C11.28,1.3,1.142,11.438,1.142,23.9c0,4.854,1.54,9.354,4.154,13.041l-2.34,2.311
		c-0.387,0.382-0.506,0.96-0.301,1.464c0.206,0.504,0.695,0.834,1.24,0.836l8.422,0.035c0.984,0.003,1.787-0.789,1.796-1.772
		l0.076-8.422c0.005-0.544-0.319-1.038-0.82-1.25c-0.501-0.213-1.082-0.102-1.468,0.281l-2.37,2.339
		C7.915,30.19,6.972,27.156,6.972,23.9c0-9.247,7.523-16.771,16.771-16.771c9.247,0,16.77,7.523,16.77,16.771
		c0,7.048-4.375,13.075-10.551,15.545c-1.313,0.525-2.068,1.913-1.792,3.301c0.168,0.846,0.705,1.574,1.463,1.985
		s1.661,0.465,2.462,0.145c8.338-3.326,14.249-11.466,14.249-20.977C46.343,11.438,36.204,1.3,23.743,1.3z"/>
</g>
</svg>
