<?xml version="1.0" encoding="utf-8"?>
<!-- Generator: Adobe Illustrator 16.0.0, SVG Export Plug-In . SVG Version: 6.00 Build 0)  -->
<!DOCTYPE svg PUBLIC "-//W3C//DTD SVG 1.1//EN" "http://www.w3.org/Graphics/SVG/1.1/DTD/svg11.dtd">
<svg version="1.1" id="Layer_1" xmlns="http://www.w3.org/2000/svg" xmlns:xlink="http://www.w3.org/1999/xlink" x="0px" y="0px"
	 width="48px" height="48px" viewBox="0 0 48 48" enable-background="new 0 0 48 48" xml:space="preserve">
<g>
	<path fill="#050505" d="M37.455,19h-0.174c-1.577-6-6.884-10.113-13.207-10.113C17.752,8.887,12.444,13,10.867,19h-0.174
		C5.381,19,1,23.62,1,28.933v2.762C1,37.007,5.381,41,10.693,41h26.762C42.768,41,47,37.007,47,31.694v-2.762
		C47,23.62,42.768,19,37.455,19z M32.739,24.527l-9.628,9.628c-0.851,0.851-2.229,0.851-3.08,0l-4.772-4.772
		c-0.851-0.851-0.851-2.229,0.001-3.08c0.85-0.851,2.229-0.851,3.078,0l2.845,2.844c0.103,0.103,0.243,0.161,0.389,0.161
		s0.286-0.059,0.389-0.161l7.699-7.7c0.408-0.408,0.962-0.638,1.54-0.638s1.132,0.229,1.54,0.639
		C33.59,22.298,33.59,23.677,32.739,24.527z"/>
</g>
</svg>
