<?xml version="1.0" encoding="utf-8"?>
<!-- Generator: Adobe Illustrator 16.0.0, SVG Export Plug-In . SVG Version: 6.00 Build 0)  -->
<!DOCTYPE svg PUBLIC "-//W3C//DTD SVG 1.1//EN" "http://www.w3.org/Graphics/SVG/1.1/DTD/svg11.dtd">
<svg version="1.1" id="Layer_1" xmlns="http://www.w3.org/2000/svg" xmlns:xlink="http://www.w3.org/1999/xlink" x="0px" y="0px"
	 width="48px" height="48px" viewBox="0 0 48 48" enable-background="new 0 0 48 48" xml:space="preserve">
<path fill="#050505" d="M24.438,0.946C11.727,0.946,1.384,11.288,1.384,24c0,12.713,10.343,23.055,23.055,23.055
	S47.493,36.712,47.493,24C47.493,11.288,37.15,0.946,24.438,0.946z M37.878,15.245l-8.248,3.277
	c-1.354-1.283-3.179-2.076-5.191-2.076c-1.886,0-3.605,0.695-4.929,1.838l-5.542-6.427c2.814-2.431,6.47-3.911,10.471-3.911
	C30.062,7.946,35.01,10.857,37.878,15.245z M24.438,40.055c-4.777,0-9.062-2.109-12.005-5.432l6.354-5.622
	c1.384,1.563,3.399,2.554,5.651,2.554c3.778,0,6.9-2.777,7.457-6.4l8.43-3.35c0.099,0.72,0.168,1.448,0.168,2.194
	C40.493,32.853,33.291,40.055,24.438,40.055z"/>
</svg>
