<?xml version="1.0" encoding="utf-8"?>
<!-- Generator: Adobe Illustrator 16.0.0, SVG Export Plug-In . SVG Version: 6.00 Build 0)  -->
<!DOCTYPE svg PUBLIC "-//W3C//DTD SVG 1.1//EN" "http://www.w3.org/Graphics/SVG/1.1/DTD/svg11.dtd">
<svg version="1.1" id="Layer_1" xmlns="http://www.w3.org/2000/svg" xmlns:xlink="http://www.w3.org/1999/xlink" x="0px" y="0px"
	 width="48px" height="48px" viewBox="0 0 48 48" enable-background="new 0 0 48 48" xml:space="preserve">
<path fill="#050505" d="M31.071,24l12.342-12.342c1.953-1.953,1.953-5.119,0-7.071c-1.951-1.952-5.119-1.952-7.07,0L24,16.93
	L11.657,4.587c-1.951-1.952-5.119-1.952-7.07,0c-1.953,1.953-1.953,5.119,0,7.071L16.929,24L4.587,36.342
	c-1.953,1.953-1.953,5.119,0,7.071c0.976,0.976,2.256,1.464,3.535,1.464s2.56-0.488,3.535-1.464L24,31.071l12.343,12.343
	c0.976,0.976,2.256,1.464,3.535,1.464s2.56-0.488,3.535-1.464c1.953-1.953,1.953-5.119,0-7.071L31.071,24z"/>
</svg>
