<?xml version="1.0" encoding="utf-8"?>
<!-- Generator: Adobe Illustrator 16.0.0, SVG Export Plug-In . SVG Version: 6.00 Build 0)  -->
<!DOCTYPE svg PUBLIC "-//W3C//DTD SVG 1.1//EN" "http://www.w3.org/Graphics/SVG/1.1/DTD/svg11.dtd">
<svg version="1.1" id="Layer_1" xmlns="http://www.w3.org/2000/svg" xmlns:xlink="http://www.w3.org/1999/xlink" x="0px" y="0px"
	 width="48px" height="48px" viewBox="0 0 48 48" enable-background="new 0 0 48 48" xml:space="preserve">
<g>
	<path fill="#050505" d="M10.605,25.723c-5.187,0-9.405,4.219-9.405,9.406s4.219,9.407,9.405,9.407c5.188,0,9.407-4.22,9.407-9.407
		S15.793,25.723,10.605,25.723z M10.605,40.549c-2.987,0-5.419-2.432-5.419-5.42s2.432-5.42,5.419-5.42
		c2.989,0,5.421,2.432,5.421,5.42S13.595,40.549,10.605,40.549z"/>
	<path fill="#050505" d="M37.519,25.723c-5.188,0-9.407,4.219-9.407,9.406s4.219,9.407,9.407,9.407c5.188,0,9.406-4.22,9.406-9.407
		S42.706,25.723,37.519,25.723z M37.519,40.549c-2.988,0-5.42-2.432-5.42-5.42s2.432-5.42,5.42-5.42c2.987,0,5.419,2.432,5.419,5.42
		S40.506,40.549,37.519,40.549z"/>
	<path fill="#050505" d="M25.977,25.441l-5.055-4.479l5.487-5.25l2.574,3.894c0.532,0.806,1.421,1.305,2.388,1.339l5.057,0.179
		c1.634,0.062,3.035-1.232,3.094-2.882c0.059-1.651-1.232-3.036-2.883-3.094l-3.519-0.124l-3.7-5.594
		c-0.489-0.739-1.28-1.224-2.16-1.322c-0.885-0.098-1.76,0.197-2.4,0.811l-10.423,9.965c-0.604,0.578-0.938,1.381-0.922,2.217
		c0.014,0.835,0.385,1.626,1.01,2.181l6.478,5.742v10.243c0,1.651,1.345,2.99,2.996,2.99c1.652,0,2.997-1.339,2.997-2.99V27.677
		C26.995,26.822,26.616,26.008,25.977,25.441z"/>
	<circle fill="#050505" cx="33.563" cy="5.632" r="3.956"/>
</g>
</svg>
