<?xml version="1.0" encoding="utf-8"?>
<!-- Generator: Adobe Illustrator 16.0.0, SVG Export Plug-In . SVG Version: 6.00 Build 0)  -->
<!DOCTYPE svg PUBLIC "-//W3C//DTD SVG 1.1//EN" "http://www.w3.org/Graphics/SVG/1.1/DTD/svg11.dtd">
<svg version="1.1" id="Layer_1" xmlns="http://www.w3.org/2000/svg" xmlns:xlink="http://www.w3.org/1999/xlink" x="0px" y="0px"
	 width="48px" height="48px" viewBox="0 0 48 48" enable-background="new 0 0 48 48" xml:space="preserve">
<g>
	<path fill="#050505" d="M9.743,44.019c0,1.774,1.437,3.213,3.211,3.213h23.095c1.774,0,3.208-1.438,3.208-3.213V16.745H9.743
		V44.019z"/>
	<path fill="#050505" d="M38.696,4.331h-8.961c-0.921-2.008-2.917-3.333-5.233-3.333c-2.317,0-4.312,1.325-5.234,3.333h-8.961
		c-1.774,0-3.241,1.423-3.241,3.198v3.249c0,1.774,1.467,3.229,3.241,3.229h28.389c1.775,0,3.238-1.455,3.238-3.229V7.529
		C41.934,5.754,40.471,4.331,38.696,4.331z"/>
</g>
</svg>
