<?xml version="1.0" encoding="utf-8"?>
<!-- Generator: Adobe Illustrator 16.0.0, SVG Export Plug-In . SVG Version: 6.00 Build 0)  -->
<!DOCTYPE svg PUBLIC "-//W3C//DTD SVG 1.1//EN" "http://www.w3.org/Graphics/SVG/1.1/DTD/svg11.dtd">
<svg version="1.1" id="Layer_1" xmlns="http://www.w3.org/2000/svg" xmlns:xlink="http://www.w3.org/1999/xlink" x="0px" y="0px"
	 width="48px" height="48px" viewBox="0 0 48 48" enable-background="new 0 0 48 48" xml:space="preserve">
<path fill="#050505" d="M45.69,21.017L31.625,6.953c-0.909-0.909-2.276-1.18-3.463-0.687c-1.187,0.493-1.959,1.654-1.956,2.938
	l0.015,5.903l-21.64,0.054c-1.753,0.004-3.171,1.429-3.167,3.183l0.028,11.522c0.002,0.842,0.338,1.648,0.935,2.242
	s1.405,0.927,2.247,0.925l21.639-0.054l0.015,5.9c0.003,1.286,0.781,2.442,1.97,2.93s2.556,0.21,3.46-0.703l13.996-14.134
	C47.34,25.322,47.334,22.659,45.69,21.017z"/>
</svg>
