<?xml version="1.0" encoding="utf-8"?>
<!-- Generator: Adobe Illustrator 16.0.0, SVG Export Plug-In . SVG Version: 6.00 Build 0)  -->
<!DOCTYPE svg PUBLIC "-//W3C//DTD SVG 1.1//EN" "http://www.w3.org/Graphics/SVG/1.1/DTD/svg11.dtd">
<svg version="1.1" id="Layer_1" xmlns="http://www.w3.org/2000/svg" xmlns:xlink="http://www.w3.org/1999/xlink" x="0px" y="0px"
	 width="48px" height="48px" viewBox="0 0 48 48" enable-background="new 0 0 48 48" xml:space="preserve">
<path fill="#050505" d="M39.758,1.019H7.794c-3.828,0-6.83,3.001-6.83,6.827v31.965c0,3.828,3.002,6.853,6.83,6.853h31.982
	c3.817,0,6.833-3.017,6.833-6.833V7.846C46.61,4.02,43.586,1.019,39.758,1.019z M11.714,7.611h23.909c1.1,0,1.992,0.676,1.992,1.775
	c0,1.101-0.892,1.774-1.992,1.774H11.714c-1.1,0-1.992-0.674-1.992-1.774C9.722,8.287,10.614,7.611,11.714,7.611z M11.714,14.205
	h23.909c1.1,0,1.992,0.929,1.992,2.028c0,1.102-0.892,2.028-1.992,2.028H11.714c-1.1,0-1.992-0.927-1.992-2.028
	C9.722,15.134,10.614,14.205,11.714,14.205z M28.859,36.752c0,1.942-1.783,3.319-3.724,3.319h-11.9
	c-1.941,0-3.648-1.377-3.648-3.319V24.853c0-1.94,1.708-3.547,3.648-3.547h11.9c1.941,0,3.724,1.606,3.724,3.547V36.752z
	 M35.146,38.314c-1.482,0-2.684-1.203-2.684-2.684c0-1.482,1.202-2.685,2.684-2.685s2.684,1.202,2.684,2.685
	C37.83,37.111,36.628,38.314,35.146,38.314z M35.146,29.727c-1.482,0-2.684-1.203-2.684-2.686s1.202-2.683,2.684-2.683
	s2.684,1.2,2.684,2.683S36.628,29.727,35.146,29.727z"/>
</svg>
