<?xml version="1.0" encoding="utf-8"?>
<!-- Generator: Adobe Illustrator 16.0.0, SVG Export Plug-In . SVG Version: 6.00 Build 0)  -->
<!DOCTYPE svg PUBLIC "-//W3C//DTD SVG 1.1//EN" "http://www.w3.org/Graphics/SVG/1.1/DTD/svg11.dtd">
<svg version="1.1" id="Layer_1" xmlns="http://www.w3.org/2000/svg" xmlns:xlink="http://www.w3.org/1999/xlink" x="0px" y="0px"
	 width="48px" height="48px" viewBox="0 0 48 48" enable-background="new 0 0 48 48" xml:space="preserve">
<g>
	<path fill="#050505" d="M21.212,31.826c1.645,1.639,4.305,1.639,5.95,0l14.083-14.014c0.91-0.906,1.185-2.287,0.695-3.474
		c-0.49-1.187-1.647-1.976-2.932-1.976H33.13V4.663c0-1.751-1.437-3.196-3.188-3.196H18.431c-1.752,0-3.208,1.444-3.208,3.196v7.698
		H9.365c-1.284,0-2.441,0.79-2.931,1.976c-0.49,1.187-0.216,2.561,0.694,3.466L21.212,31.826z"/>
	<path fill="#050505" d="M45.18,39.014c0-1.751-1.419-3.171-3.171-3.171H6.365c-1.751,0-3.171,1.419-3.171,3.171v2.611
		c0,1.751,1.42,3.171,3.171,3.171h35.645c1.751,0,3.171-1.42,3.171-3.171V39.014z"/>
</g>
</svg>
