<?xml version="1.0" encoding="utf-8"?>
<!-- Generator: Adobe Illustrator 16.0.0, SVG Export Plug-In . SVG Version: 6.00 Build 0)  -->
<!DOCTYPE svg PUBLIC "-//W3C//DTD SVG 1.1//EN" "http://www.w3.org/Graphics/SVG/1.1/DTD/svg11.dtd">
<svg version="1.1" id="Layer_1" xmlns="http://www.w3.org/2000/svg" xmlns:xlink="http://www.w3.org/1999/xlink" x="0px" y="0px"
	 width="48px" height="48px" viewBox="0 0 48 48" enable-background="new 0 0 48 48" xml:space="preserve">
<g>
	<path fill="#050505" d="M43.852,38.762c-1.956-1.179-5.052-1.508-5.114-6.154c-0.034-2.757,1.916-5.774,2.467-8.401
		c1.216-5.772-0.164-9.369-0.527-10.789C38.349,4.326,27.331-0.811,17.016,1.829c-5.49,1.405-9.876,4.766-12.441,8.965
		c-0.76,1.192-1.354,2.467-1.759,3.805c-0.594,1.89-0.821,3.869-0.67,5.862c0.269,4.865,2.489,9.853,6.578,13.686
		c7.769,7.281,29.988,17.367,36.408,10.518C47.533,42.103,46.308,40.242,43.852,38.762z M11.238,22.298
		c-1.762,0-3.19-1.429-3.19-3.191s1.429-3.191,3.19-3.191c1.763,0,3.192,1.429,3.192,3.191S13.001,22.298,11.238,22.298z
		 M19.95,13.587c-1.762,0-3.19-1.429-3.19-3.191s1.429-3.191,3.19-3.191c1.763,0,3.192,1.429,3.192,3.191
		S21.713,13.587,19.95,13.587z M31.348,17.29c-1.763,0-3.191-1.429-3.191-3.191s1.429-3.191,3.191-3.191s3.191,1.429,3.191,3.191
		S33.11,17.29,31.348,17.29z"/>
</g>
</svg>
