<?xml version="1.0" encoding="utf-8"?>
<!-- Generator: Adobe Illustrator 16.0.0, SVG Export Plug-In . SVG Version: 6.00 Build 0)  -->
<!DOCTYPE svg PUBLIC "-//W3C//DTD SVG 1.1//EN" "http://www.w3.org/Graphics/SVG/1.1/DTD/svg11.dtd">
<svg version="1.1" id="Layer_1" xmlns="http://www.w3.org/2000/svg" xmlns:xlink="http://www.w3.org/1999/xlink" x="0px" y="0px"
	 width="48px" height="48px" viewBox="0 0 48 48" enable-background="new 0 0 48 48" xml:space="preserve">
<path fill="#050505" d="M46.968,7.604c0-2.807-2.274-5.081-5.081-5.081H6.081C3.274,2.522,1,4.797,1,7.604v31.445
	c0,2.806,2.274,5.08,5.081,5.08c0.576,0,1.043-0.467,1.043-1.043V40.92c0-0.561,0.419-0.985,0.979-0.985h6.087
	c0.561,0,0.987,0.425,0.987,0.985v2.166c0,0.576,0.467,1.043,1.043,1.043h15.53c0.576,0,1.043-0.467,1.043-1.043V40.92
	c0-0.561,0.45-0.985,1.01-0.985h6.087c0.56,0,1.04,0.425,1.04,0.985v2.25c0,0.529,0.429,0.959,0.959,0.959
	c2.806,0,5.081-2.274,5.081-5.08V7.604z M15.26,30.783c0,0.561-0.454,1.015-1.014,1.015H8.138c-0.56,0-1.014-0.454-1.014-1.015
	v-6.108c0-0.56,0.454-1.015,1.014-1.015h6.108c0.56,0,1.014,0.455,1.014,1.015V30.783z M15.26,14.594
	c0,0.56-0.454,1.014-1.015,1.014H8.138c-0.56,0-1.014-0.454-1.014-1.014V8.484c0-0.559,0.454-1.013,1.014-1.013h6.108
	c0.561,0,1.015,0.454,1.015,1.013V14.594z M40.929,30.783c0,0.561-0.454,1.015-1.014,1.015h-6.108c-0.56,0-1.014-0.454-1.014-1.015
	v-6.108c0-0.56,0.454-1.015,1.014-1.015h6.108c0.56,0,1.014,0.455,1.014,1.015V30.783z M40.929,14.594
	c0,0.56-0.454,1.014-1.014,1.014h-6.108c-0.56,0-1.014-0.454-1.014-1.014V8.484c0-0.559,0.454-1.013,1.014-1.013h6.108
	c0.56,0,1.014,0.454,1.014,1.013V14.594z"/>
</svg>
