<?xml version="1.0" encoding="utf-8"?>
<!-- Generator: Adobe Illustrator 16.0.0, SVG Export Plug-In . SVG Version: 6.00 Build 0)  -->
<!DOCTYPE svg PUBLIC "-//W3C//DTD SVG 1.1//EN" "http://www.w3.org/Graphics/SVG/1.1/DTD/svg11.dtd">
<svg version="1.1" id="Layer_1" xmlns="http://www.w3.org/2000/svg" xmlns:xlink="http://www.w3.org/1999/xlink" x="0px" y="0px"
	 width="48px" height="48px" viewBox="0 0 48 48" enable-background="new 0 0 48 48" xml:space="preserve">
<g>
	<path fill="#050505" d="M24,1C11.298,1,1,11.297,1,24s10.298,23,23,23s23-10.297,23-23S36.702,1,24,1z M30.401,18.578
		c1.271,0,2.354,1.481,2.784,3.568c0.077,0.375-0.019,0.764-0.26,1.061c-0.241,0.296-0.604,0.47-0.986,0.47h-3.076
		c-0.383,0-0.745-0.172-0.986-0.469c-0.242-0.296-0.337-0.687-0.26-1.061C28.047,20.059,29.13,18.578,30.401,18.578z M17.6,18.578
		c1.271,0,2.354,1.482,2.784,3.568c0.077,0.375-0.019,0.764-0.261,1.061c-0.241,0.296-0.604,0.47-0.985,0.47h-3.076
		c-0.382,0-0.744-0.172-0.986-0.469c-0.241-0.297-0.337-0.687-0.26-1.062C15.245,20.06,16.328,18.578,17.6,18.578z M24,38.728
		c-5.987,0-11.215-3.249-14.021-8.079c-0.229-0.394-0.229-0.88-0.002-1.274c0.227-0.395,0.647-0.636,1.103-0.636h25.84
		c0.454,0,0.875,0.243,1.102,0.637c0.228,0.394,0.228,0.88-0.001,1.273C35.215,35.479,29.987,38.728,24,38.728z"/>
</g>
</svg>
