<?xml version="1.0" encoding="utf-8"?>
<!-- Generator: Adobe Illustrator 16.0.0, SVG Export Plug-In . SVG Version: 6.00 Build 0)  -->
<!DOCTYPE svg PUBLIC "-//W3C//DTD SVG 1.1//EN" "http://www.w3.org/Graphics/SVG/1.1/DTD/svg11.dtd">
<svg version="1.1" id="Layer_1" xmlns="http://www.w3.org/2000/svg" xmlns:xlink="http://www.w3.org/1999/xlink" x="0px" y="0px"
	 width="48px" height="48px" viewBox="0 0 48 48" enable-background="new 0 0 48 48" xml:space="preserve">
<path fill="#050505" d="M46.964,9.371C46.949,4.744,43.194,1,38.566,1H9.362C7.13,1,4.99,1.889,3.415,3.469
	c-1.576,1.582-2.458,3.725-2.45,5.957L1.036,31.71C1.051,36.338,4.806,40,9.434,40h8.294l3.922,5.705
	c0.529,0.76,1.396,1.253,2.321,1.255c0.925,0.002,1.793-0.508,2.326-1.265L30.265,40h8.373c2.232,0,4.372-0.807,5.948-2.387
	c1.576-1.582,2.458-3.684,2.45-5.916L46.964,9.371z M23.369,33.755c-1.747,0-2.934-1.286-2.934-3c0-1.748,1.22-3.001,2.934-3.001
	c1.781,0,2.935,1.253,2.968,3.001C26.337,32.469,25.15,33.755,23.369,33.755z M27.618,19.679C26.287,21.154,26,22.558,26,24.178
	c0,1.203-0.976,2.179-2.179,2.179h-0.897c-1.191,0-2.161-0.956-2.179-2.146l-0.003-0.233c-0.108-1.836,0.504-3.75,2.123-5.693
	c1.152-1.369,2.088-2.543,2.088-3.767c0-1.26-0.828-2.099-2.627-2.171c-0.549,0-1.152,0.092-1.735,0.254
	c-1.068,0.298-2.181-0.307-2.511-1.367c-0.333-1.068,0.251-2.205,1.313-2.557c1.163-0.386,2.585-0.658,4.156-0.658
	c4.751,0,7.02,2.627,7.02,5.615C30.569,16.367,28.987,18.167,27.618,19.679z"/>
</svg>
