<?xml version="1.0" encoding="utf-8"?>
<!-- Generator: Adobe Illustrator 16.0.0, SVG Export Plug-In . SVG Version: 6.00 Build 0)  -->
<!DOCTYPE svg PUBLIC "-//W3C//DTD SVG 1.1//EN" "http://www.w3.org/Graphics/SVG/1.1/DTD/svg11.dtd">
<svg version="1.1" id="Layer_1" xmlns="http://www.w3.org/2000/svg" xmlns:xlink="http://www.w3.org/1999/xlink" x="0px" y="0px"
	 width="48px" height="48px" viewBox="0 0 48 48" enable-background="new 0 0 48 48" xml:space="preserve">
<path fill="#050505" d="M2.884,28.555H3.71v11.12c0,0.978,0.792,1.77,1.77,1.77h0.98c0.978,0,1.77-0.792,1.77-1.77v-9.058
	c0-0.466,0.186-0.914,0.517-1.242c0.331-0.328,0.78-0.511,1.246-0.508l4.137,0.032c0.961,0.007,1.736,0.789,1.736,1.75v9.026
	c0,0.978,0.792,1.77,1.77,1.77H42.49c0.977,0,1.77-0.792,1.77-1.769c0.001-3.532,0.003-11.121,0.003-11.121h0.825
	c0.631,0,1.228-0.281,1.619-0.776s0.534-1.133,0.388-1.747l-3.522-14.804c-0.603-2.529-2.863-4.323-5.463-4.323H9.865
	c-2.601,0-4.861,1.793-5.463,4.323l-3.522,14.8c-0.146,0.613-0.003,1.254,0.388,1.749C1.658,28.272,2.254,28.555,2.884,28.555z
	 M20.93,29.895c0-0.74,0.6-1.339,1.34-1.339h14.603c0.74,0,1.339,0.6,1.339,1.339v5.307c0,0.74-0.6,1.339-1.339,1.339H22.27
	c-0.74,0-1.34-0.6-1.34-1.339V29.895z"/>
</svg>
