<?xml version="1.0" encoding="utf-8"?>
<!-- Generator: Adobe Illustrator 16.0.0, SVG Export Plug-In . SVG Version: 6.00 Build 0)  -->
<!DOCTYPE svg PUBLIC "-//W3C//DTD SVG 1.1//EN" "http://www.w3.org/Graphics/SVG/1.1/DTD/svg11.dtd">
<svg version="1.1" id="Layer_1" xmlns="http://www.w3.org/2000/svg" xmlns:xlink="http://www.w3.org/1999/xlink" x="0px" y="0px"
	 width="48px" height="48px" viewBox="0 0 48 48" enable-background="new 0 0 48 48" xml:space="preserve">
<g>
	<path fill="#050505" d="M40.264,7.736c-8.982-8.981-23.545-8.982-32.527,0c-8.982,8.982-8.981,23.545,0,32.527
		c8.982,8.981,23.545,8.982,32.527,0C49.246,31.281,49.245,16.719,40.264,7.736z M27,34c0,1.657-1.343,3-3,3s-3-1.343-3-3V22
		c0-1.657,1.343-3,3-3s3,1.343,3,3V34z M23.947,16.872c-1.728,0-2.88-1.224-2.844-2.735c-0.036-1.584,1.116-2.771,2.879-2.771
		c1.764,0,2.88,1.188,2.916,2.771C26.898,15.648,25.747,16.872,23.947,16.872z"/>
</g>
</svg>
