<?xml version="1.0" encoding="utf-8"?>
<!-- Generator: Adobe Illustrator 16.0.0, SVG Export Plug-In . SVG Version: 6.00 Build 0)  -->
<!DOCTYPE svg PUBLIC "-//W3C//DTD SVG 1.1//EN" "http://www.w3.org/Graphics/SVG/1.1/DTD/svg11.dtd">
<svg version="1.1" id="Layer_1" xmlns="http://www.w3.org/2000/svg" xmlns:xlink="http://www.w3.org/1999/xlink" x="0px" y="0px"
	 width="48px" height="48px" viewBox="0 0 48 48" enable-background="new 0 0 48 48" xml:space="preserve">
<g>
	<path fill="#050505" d="M40.079,7.971c-8.879-8.879-23.276-8.88-32.156,0c-8.879,8.88-8.879,23.276,0,32.156
		c8.88,8.879,23.276,8.88,32.156,0C48.957,31.247,48.957,16.851,40.079,7.971z M35.412,35.46c-6.303,6.303-16.52,6.302-22.822,0
		c-6.302-6.303-6.302-16.52,0-22.822c6.303-6.303,16.521-6.302,22.822,0C41.713,18.94,41.713,29.157,35.412,35.46z"/>
	<path fill="#050505" d="M24,19.081c-1.511,0-3,1.225-3,2.735v12.131c0,1.511,1.489,2.735,3,2.735s3-1.225,3-2.735V21.816
		C27,20.306,25.511,19.081,24,19.081z"/>
	<path fill="#050505" d="M23.983,11.414c-1.764,0-2.915,1.188-2.88,2.771c-0.035,1.512,1.116,2.735,2.844,2.735
		c1.801,0,2.952-1.224,2.952-2.735C26.863,12.602,25.748,11.414,23.983,11.414z"/>
</g>
</svg>
