<?xml version="1.0" encoding="utf-8"?>
<!-- Generator: Adobe Illustrator 16.0.0, SVG Export Plug-In . SVG Version: 6.00 Build 0)  -->
<!DOCTYPE svg PUBLIC "-//W3C//DTD SVG 1.1//EN" "http://www.w3.org/Graphics/SVG/1.1/DTD/svg11.dtd">
<svg version="1.1" id="Layer_1" xmlns="http://www.w3.org/2000/svg" xmlns:xlink="http://www.w3.org/1999/xlink" x="0px" y="0px"
	 width="48px" height="48px" viewBox="0 0 48 48" enable-background="new 0 0 48 48" xml:space="preserve">
<g>
	<path fill="#050505" d="M37.277,45.332c-0.878,0-1.758-0.207-2.544-0.598L23.5,39.16l-11.233,5.575
		c-1.742,0.863-3.908,0.762-5.561-0.264C5.012,43.423,4,41.604,4,39.609V6.723C4,3.567,6.567,1,9.723,1h27.555
		C40.433,1,43,3.567,43,6.723v32.887c0,1.995-1.012,3.813-2.708,4.863C39.388,45.034,38.344,45.332,37.277,45.332z M23.5,33.129
		c0.877,0,1.756,0.206,2.542,0.595L37,39.162V7H10v32.162l10.956-5.438C21.744,33.335,22.623,33.129,23.5,33.129z"/>
</g>
</svg>
