<?xml version="1.0" encoding="utf-8"?>
<!-- Generator: Adobe Illustrator 16.0.0, SVG Export Plug-In . SVG Version: 6.00 Build 0)  -->
<!DOCTYPE svg PUBLIC "-//W3C//DTD SVG 1.1//EN" "http://www.w3.org/Graphics/SVG/1.1/DTD/svg11.dtd">
<svg version="1.1" id="Layer_1" xmlns="http://www.w3.org/2000/svg" xmlns:xlink="http://www.w3.org/1999/xlink" x="0px" y="0px"
	 width="48px" height="48px" viewBox="0 0 48 48" enable-background="new 0 0 48 48" xml:space="preserve">
<g>
	<path fill="#050505" d="M9.532,18.464l8.955-8.999c-0.244-0.736-0.798-1.348-1.54-1.653c-1.01-0.418-2.177-0.185-2.95,0.591
		L2.047,20.412c-1.396,1.402-1.396,3.67,0,5.073l11.949,12.009c0.771,0.776,1.941,1.01,2.951,0.592
		c0.742-0.306,1.295-0.917,1.54-1.652l-8.956-9C7.07,24.96,7.071,20.936,9.532,18.464z"/>
	<path fill="#050505" d="M46.972,31.572c-1.396-5.957-5.771-14.255-18.906-16.009v-5.252c0-1.095-0.664-2.082-1.676-2.5
		c-0.334-0.138-0.685-0.205-1.032-0.205c-0.705,0-1.399,0.276-1.918,0.796l-11.95,12.009c-1.396,1.402-1.396,3.67-0.001,5.073
		l11.95,12.009c0.517,0.52,1.212,0.796,1.92,0.796c0.347,0,0.697-0.066,1.031-0.205c1.012-0.418,1.676-1.404,1.676-2.5v-5.082
		c4.494,0.005,10.963,0.596,15.565,3.463c0.361,0.225,0.77,0.337,1.175,0.337c0.457,0,0.911-0.14,1.298-0.417
		C46.836,33.362,47.179,32.448,46.972,31.572z"/>
</g>
</svg>
