<?xml version="1.0" encoding="utf-8"?>
<!-- Generator: Adobe Illustrator 16.0.0, SVG Export Plug-In . SVG Version: 6.00 Build 0)  -->
<!DOCTYPE svg PUBLIC "-//W3C//DTD SVG 1.1//EN" "http://www.w3.org/Graphics/SVG/1.1/DTD/svg11.dtd">
<svg version="1.1" id="Layer_1" xmlns="http://www.w3.org/2000/svg" xmlns:xlink="http://www.w3.org/1999/xlink" x="0px" y="0px"
	 width="48px" height="48px" viewBox="0 0 48 48" enable-background="new 0 0 48 48" xml:space="preserve">
<g>
	<path fill="#050505" d="M27.256,44.768c-2.407,0-4.629-0.832-6.38-2.466c-2.729-2.545-3.581-6.527-2.172-10.146
		c1.862-4.779,5.877-8.688,10.63-10.618c-1.466-0.635-3.747-0.799-7.128,0.83c-0.452,0.218-1.107,0.615-1.801,1.036
		c-3.514,2.132-10.827,6.57-16.615,0.377c-2.452-2.623-3.481-6.221-2.826-9.871C1.688,9.879,4.293,6.472,8.11,4.563
		c1.733-0.863,3.832-0.163,4.696,1.565c0.864,1.729,0.163,3.831-1.565,4.696c-1.822,0.911-3.058,2.487-3.388,4.324
		c-0.153,0.855-0.222,2.493,1.051,3.854c1.475,1.581,3.242,1.226,7.871-1.583c0.841-0.51,1.636-0.992,2.39-1.355
		c8.957-4.32,15.379-0.856,18.156,3.423c0.183,0.281,0.355,0.582,0.518,0.899c3.444,0.501,6.417,2.261,8.472,5.099
		c1.134,1.565,0.783,3.754-0.782,4.888c-1.565,1.135-3.754,0.782-4.888-0.782c-0.294-0.405-0.613-0.746-0.951-1.03
		c0.075,2.323-0.168,4.689-0.762,6.775c-1.11,3.9-3.315,6.726-6.378,8.17C30.76,44.35,28.961,44.768,27.256,44.768z M32.639,27.774
		c-3.274,1.092-6.169,3.732-7.411,6.923c-0.369,0.946-0.207,1.898,0.423,2.486c0.82,0.764,2.283,0.76,3.912-0.009
		c1.493-0.704,2.256-2.432,2.633-3.756C32.713,31.601,32.8,29.57,32.639,27.774z"/>
</g>
</svg>
