<?xml version="1.0" encoding="utf-8"?>
<!-- Generator: Adobe Illustrator 16.0.0, SVG Export Plug-In . SVG Version: 6.00 Build 0)  -->
<!DOCTYPE svg PUBLIC "-//W3C//DTD SVG 1.1//EN" "http://www.w3.org/Graphics/SVG/1.1/DTD/svg11.dtd">
<svg version="1.1" id="Layer_1" xmlns="http://www.w3.org/2000/svg" xmlns:xlink="http://www.w3.org/1999/xlink" x="0px" y="0px"
	 width="48px" height="48px" viewBox="0 0 48 48" enable-background="new 0 0 48 48" xml:space="preserve">
<g>
	<path fill="#050505" d="M8.396,14.654h30.692c3.732,0,6.756-3.025,6.756-6.757c0-3.732-3.024-6.757-6.756-6.757H8.396
		c-3.732,0-6.756,3.025-6.756,6.757C1.64,11.628,4.665,14.654,8.396,14.654z M8.396,5.243c1.462,0,2.647,1.186,2.647,2.648
		c0,1.462-1.186,2.647-2.647,2.647c-1.462,0-2.648-1.186-2.648-2.647C5.749,6.429,6.934,5.243,8.396,5.243z"/>
	<path fill="#050505" d="M39.088,33.486H8.396c-3.732,0-6.756,3.025-6.756,6.757C1.64,43.975,4.665,47,8.396,47h30.692
		c3.732,0,6.756-3.025,6.756-6.757C45.845,36.512,42.82,33.486,39.088,33.486z M8.396,42.874c-1.462,0-2.648-1.186-2.648-2.647
		c0-1.462,1.186-2.648,2.648-2.648c1.462,0,2.647,1.186,2.647,2.648C11.044,41.688,9.858,42.874,8.396,42.874z"/>
	<path fill="#050505" d="M39.088,17.356H8.396c-3.732,0-6.756,3.025-6.756,6.757c0,3.732,3.024,6.757,6.756,6.757h30.692
		c3.732,0,6.756-3.025,6.756-6.757C45.845,20.382,42.82,17.356,39.088,17.356z M8.396,26.662c-1.462,0-2.648-1.186-2.648-2.648
		s1.186-2.647,2.648-2.647c1.462,0,2.647,1.186,2.647,2.647S9.858,26.662,8.396,26.662z"/>
</g>
</svg>
