<?xml version="1.0" encoding="utf-8"?>
<!-- Generator: Adobe Illustrator 16.0.0, SVG Export Plug-In . SVG Version: 6.00 Build 0)  -->
<!DOCTYPE svg PUBLIC "-//W3C//DTD SVG 1.1//EN" "http://www.w3.org/Graphics/SVG/1.1/DTD/svg11.dtd">
<svg version="1.1" id="Layer_1" xmlns="http://www.w3.org/2000/svg" xmlns:xlink="http://www.w3.org/1999/xlink" x="0px" y="0px"
	 width="48px" height="48px" viewBox="0 0 48 48" enable-background="new 0 0 48 48" xml:space="preserve">
<path fill="#050505" d="M36.89,0.956H11.11c-5.651,0-10.231,4.561-10.231,10.211v9.897v3.115c0,1.607,1.303,2.91,2.91,2.91h10.292
	h5.278h0.016v7.236c0,0.889,0.529,1.692,1.351,2.03c0.822,0.339,1.765,0.15,2.392-0.48l9.708-9.758c1.134-1.14,1.133-2.982,0-4.123
	l-9.71-9.756c-0.627-0.632-1.565-0.821-2.387-0.482c-0.823,0.34-1.352,1.141-1.352,2.031v7.276H19.36H6.91H6.904v-9.897
	c0-2.316,1.89-4.186,4.206-4.186H36.89c2.316,0,4.206,1.87,4.206,4.186v25.78c0,2.315-1.89,4.226-4.206,4.226H11.11
	c-2.316,0-4.206-1.91-4.206-4.226v-0.819c0-1.664-1.349-3.013-3.013-3.013s-3.013,1.349-3.013,3.013v0.819
	c0,5.65,4.581,10.251,10.231,10.251H36.89c5.65,0,10.231-4.601,10.231-10.251v-25.78C47.121,5.517,42.54,0.956,36.89,0.956z"/>
</svg>
