<?xml version="1.0" encoding="utf-8"?>
<!-- Generator: Adobe Illustrator 16.0.0, SVG Export Plug-In . SVG Version: 6.00 Build 0)  -->
<!DOCTYPE svg PUBLIC "-//W3C//DTD SVG 1.1//EN" "http://www.w3.org/Graphics/SVG/1.1/DTD/svg11.dtd">
<svg version="1.1" id="Layer_1" xmlns="http://www.w3.org/2000/svg" xmlns:xlink="http://www.w3.org/1999/xlink" x="0px" y="0px"
	 width="48px" height="48px" viewBox="0 0 48 48" enable-background="new 0 0 48 48" xml:space="preserve">
<path fill="#050505" d="M47,14.017C47,10.693,44.306,8,40.983,8H7.017C3.694,8,1,10.693,1,14.017v20.967C1,38.307,3.694,41,7.017,41
	h33.967C44.306,41,47,38.307,47,34.983V14.017z M42.927,16.097L30.001,30.15C28.398,31.877,26.13,33,23.773,33
	c-0.015,0-0.028,0-0.044,0c-2.372,0-4.647-1.159-6.242-2.915L4.563,15.806c-0.921-1.015-0.848-2.616,0.167-3.538
	s2.583-0.866,3.504,0.146l12.924,14.207c0.664,0.731,1.611,1.147,2.597,1.153c0.989,0.03,1.938-0.409,2.609-1.133l12.927-13.919
	c0.933-1.002,2.502-1.063,3.506-0.131S43.859,15.094,42.927,16.097z"/>
</svg>
