<?xml version="1.0" encoding="utf-8"?>
<!-- Generator: Adobe Illustrator 16.0.0, SVG Export Plug-In . SVG Version: 6.00 Build 0)  -->
<!DOCTYPE svg PUBLIC "-//W3C//DTD SVG 1.1//EN" "http://www.w3.org/Graphics/SVG/1.1/DTD/svg11.dtd">
<svg version="1.1" id="Layer_1" xmlns="http://www.w3.org/2000/svg" xmlns:xlink="http://www.w3.org/1999/xlink" x="0px" y="0px"
	 width="48px" height="48px" viewBox="0 0 48 48" enable-background="new 0 0 48 48" xml:space="preserve">
<g>
	<path fill="#050505" d="M33.294,20H14.706c-2.209,0-4,1.791-4,4s1.791,4,4,4h18.588c2.209,0,4-1.791,4-4S35.503,20,33.294,20z"/>
	<path fill="#050505" d="M24,1C11.298,1,1,11.298,1,24c0,12.703,10.298,23,23,23s23-10.297,23-23C47,11.298,36.702,1,24,1z M24,41
		c-9.374,0-17-7.625-17-17c0-9.373,7.626-17,17-17s17,7.627,17,17C41,33.375,33.374,41,24,41z"/>
</g>
</svg>
