<?xml version="1.0" encoding="utf-8"?>
<!-- Generator: Adobe Illustrator 16.0.0, SVG Export Plug-In . SVG Version: 6.00 Build 0)  -->
<!DOCTYPE svg PUBLIC "-//W3C//DTD SVG 1.1//EN" "http://www.w3.org/Graphics/SVG/1.1/DTD/svg11.dtd">
<svg version="1.1" id="Layer_1" xmlns="http://www.w3.org/2000/svg" xmlns:xlink="http://www.w3.org/1999/xlink" x="0px" y="0px"
	 width="48px" height="48px" viewBox="0 0 48 48" enable-background="new 0 0 48 48" xml:space="preserve">
<g>
	<path fill="#050505" d="M4.106,18.272c0.388,0.385,0.913,0.601,1.459,0.601l27.493-0.035l0,3.831
		c0.003,0.836,0.556,1.586,1.329,1.904c0.772,0.315,1.659,0.135,2.247-0.459l9.09-9.18c1.062-1.071,1.059-2.801-0.009-3.868
		l-9.136-9.134c-0.59-0.591-1.479-0.768-2.25-0.446c-0.77,0.319-1.272,1.074-1.27,1.908l-0.001,3.833L5.537,7.264
		C4.398,7.267,3.479,8.191,3.481,9.331l0.018,7.483C3.5,17.361,3.719,17.887,4.106,18.272z"/>
	<path fill="#050505" d="M44.463,29.229l-27.522-0.035l-0.001-3.834c0.002-0.835-0.5-1.588-1.27-1.908
		c-0.771-0.321-1.66-0.146-2.25,0.445l-9.136,9.135c-1.067,1.065-1.071,2.796-0.009,3.867l9.09,9.18
		c0.588,0.596,1.475,0.773,2.247,0.458c0.772-0.316,1.326-1.066,1.329-1.904l0-3.83l27.493,0.035c0.547,0,1.072-0.216,1.459-0.601
		c0.387-0.386,0.606-0.911,0.607-1.457l0.018-7.483C46.521,30.157,45.602,29.231,44.463,29.229z"/>
</g>
</svg>
