<?xml version="1.0" encoding="utf-8"?>
<!-- Generator: Adobe Illustrator 16.0.0, SVG Export Plug-In . SVG Version: 6.00 Build 0)  -->
<!DOCTYPE svg PUBLIC "-//W3C//DTD SVG 1.1//EN" "http://www.w3.org/Graphics/SVG/1.1/DTD/svg11.dtd">
<svg version="1.1" id="Layer_1" xmlns="http://www.w3.org/2000/svg" xmlns:xlink="http://www.w3.org/1999/xlink" x="0px" y="0px"
	 width="48px" height="48px" viewBox="0 0 48 48" enable-background="new 0 0 48 48" xml:space="preserve">
<g>
	<path fill="#050505" d="M36.207,16.588h-0.189v-7.65c0-4.313-3.666-7.825-8.206-7.825h-6.623c-4.539,0-8.205,3.512-8.205,7.825
		v7.65h-0.19c-4.539,0-8.231,3.695-8.231,8.233V38.79c0,4.54,3.692,8.246,8.231,8.246h23.414c4.54,0,8.231-3.706,8.231-8.246V24.821
		C44.438,20.283,40.747,16.588,36.207,16.588z M19.245,8.938c0-0.827,0.895-1.491,1.943-1.491h6.623c1.05,0,1.943,0.664,1.943,1.491
		v7.672h-10.51V8.938z M38.177,38.79c0,1.068-0.902,1.912-1.97,1.912H12.793c-1.066,0-1.969-0.844-1.969-1.912V24.821
		c0-1.067,0.902-1.971,1.969-1.971h23.414c1.067,0,1.97,0.903,1.97,1.971V38.79z"/>
	<circle fill="#050505" cx="24.5" cy="31.806" r="3.535"/>
</g>
</svg>
