<?xml version="1.0" encoding="utf-8"?>
<!-- Generator: Adobe Illustrator 16.0.0, SVG Export Plug-In . SVG Version: 6.00 Build 0)  -->
<!DOCTYPE svg PUBLIC "-//W3C//DTD SVG 1.1//EN" "http://www.w3.org/Graphics/SVG/1.1/DTD/svg11.dtd">
<svg version="1.1" id="Layer_1" xmlns="http://www.w3.org/2000/svg" xmlns:xlink="http://www.w3.org/1999/xlink" x="0px" y="0px"
	 width="48px" height="48px" viewBox="0 0 48 48" enable-background="new 0 0 48 48" xml:space="preserve">
<g>
	<path fill="#050505" d="M36.649,1.639H11.523c-5.508,0-9.973,4.464-9.973,9.973v25.126c0,5.508,4.464,9.973,9.973,9.973h25.126
		c5.508,0,9.973-4.464,9.973-9.973V11.612C46.622,6.104,42.158,1.639,36.649,1.639z M30.572,25.253
		c-1.874,1.766-4.642,2.558-7.885,2.558c-0.722,0-1.377-0.034-1.868-0.109v7.162c0,0.861-0.698,1.559-1.559,1.559h-2.354
		c-0.861,0-1.559-0.698-1.559-1.559V13.78c0-0.789,0.589-1.454,1.372-1.547c1.552-0.186,3.524-0.31,6.061-0.31
		c3.386,0,5.806,0.649,7.426,1.945c1.548,1.227,2.596,3.243,2.596,5.621C32.803,21.866,32.013,23.885,30.572,25.253z"/>
	<path fill="#050505" d="M23.083,16.067c-0.467,0-0.867,0.019-1.205,0.048c-0.601,0.053-1.059,0.554-1.059,1.157v5.15
		c0,0.622,0.49,1.134,1.112,1.16c0.217,0.009,0.455,0.013,0.72,0.013c2.917,0,4.719-1.478,4.719-3.963
		C27.371,17.399,25.822,16.067,23.083,16.067z"/>
</g>
</svg>
