<?xml version="1.0" encoding="utf-8"?>
<!-- Generator: Adobe Illustrator 16.0.0, SVG Export Plug-In . SVG Version: 6.00 Build 0)  -->
<!DOCTYPE svg PUBLIC "-//W3C//DTD SVG 1.1//EN" "http://www.w3.org/Graphics/SVG/1.1/DTD/svg11.dtd">
<svg version="1.1" id="Layer_1" xmlns="http://www.w3.org/2000/svg" xmlns:xlink="http://www.w3.org/1999/xlink" x="0px" y="0px"
	 width="48px" height="48px" viewBox="0 0 48 48" enable-background="new 0 0 48 48" xml:space="preserve">
<g>
	<g>
		<path fill="#050505" d="M40.104,8.035c-8.946-8.943-23.449-8.946-32.395,0c-8.946,8.945-8.946,23.448,0,32.394
			c8.944,8.946,23.448,8.946,32.395,0C49.047,31.483,49.047,16.98,40.104,8.035z M21.051,33.03c0,1.459-1.183,2.64-2.641,2.64
			s-2.64-1.181-2.64-2.64V15.435c0-1.457,1.182-2.64,2.64-2.64s2.641,1.183,2.641,2.64V33.03z M32.041,33.03
			c0,1.459-1.183,2.64-2.64,2.64s-2.64-1.181-2.64-2.64V15.435c0-1.457,1.183-2.64,2.64-2.64s2.64,1.183,2.64,2.64V33.03z"/>
	</g>
</g>
</svg>
