<?xml version="1.0" encoding="utf-8"?>
<!-- Generator: Adobe Illustrator 16.0.0, SVG Export Plug-In . SVG Version: 6.00 Build 0)  -->
<!DOCTYPE svg PUBLIC "-//W3C//DTD SVG 1.1//EN" "http://www.w3.org/Graphics/SVG/1.1/DTD/svg11.dtd">
<svg version="1.1" id="Layer_1" xmlns="http://www.w3.org/2000/svg" xmlns:xlink="http://www.w3.org/1999/xlink" x="0px" y="0px"
	 width="48px" height="48px" viewBox="0 0 48 48" enable-background="new 0 0 48 48" xml:space="preserve">
<g>
	<path fill="#050505" d="M19.745,14.484c1.263,0,2.289-3.012,2.289-6.726c0-3.715-1.025-6.728-2.289-6.728
		c-0.016,0-5.675,0.023-5.675,0.023C8.828,1.408,4.632,5.779,4.632,11.12v25.784c0,5.572,4.566,10.09,10.122,10.09
		c0,0,4.975,0,4.99,0c1.263,0,2.289-3.011,2.289-6.727c0-3.715-1.025-6.727-2.289-6.727c-0.016,0-4.99,0.033-4.99,0.033V14.471
		C14.754,14.471,19.729,14.484,19.745,14.484z"/>
	<g>
		<path fill="#050505" d="M27.944,43.237c9.827-1.074,17.239-9.34,17.239-19.225c0-9.884-7.411-18.147-17.238-19.225
			c-0.632-0.069-1.252,0.134-1.729,0.561c-0.474,0.426-0.733,1.035-0.733,1.671v0.16c0,1.252,0.924,2.313,2.167,2.469
			c7.231,0.903,12.677,7.08,12.677,14.364c0,7.382-5.522,13.566-12.861,14.388c-1.135,0.129-1.983,1.088-1.983,2.228v0.379
			c0,0.638,0.259,1.246,0.733,1.672C26.69,43.104,27.311,43.307,27.944,43.237z"/>
		<path fill="#050505" d="M38.341,24.013c0-6.025-4.304-11.194-10.233-12.292c-0.657-0.122-1.314,0.054-1.829,0.48
			c-0.516,0.43-0.797,1.059-0.797,1.726v0.182c0,1.165,0.814,2.188,1.957,2.432c3.507,0.749,6.046,3.892,6.046,7.473
			c0,3.657-2.598,6.813-6.192,7.506c-1.054,0.201-1.81,1.127-1.81,2.201v0.381c0,0.67,0.282,1.299,0.796,1.726
			c0.513,0.428,1.179,0.602,1.836,0.48C34.043,35.21,38.341,30.04,38.341,24.013z"/>
	</g>
</g>
</svg>
