<?xml version="1.0" encoding="utf-8"?>
<!-- Generator: Adobe Illustrator 16.0.0, SVG Export Plug-In . SVG Version: 6.00 Build 0)  -->
<!DOCTYPE svg PUBLIC "-//W3C//DTD SVG 1.1//EN" "http://www.w3.org/Graphics/SVG/1.1/DTD/svg11.dtd">
<svg version="1.1" id="Layer_1" xmlns="http://www.w3.org/2000/svg" xmlns:xlink="http://www.w3.org/1999/xlink" x="0px" y="0px"
	 width="48px" height="48px" viewBox="0 0 48 48" enable-background="new 0 0 48 48" xml:space="preserve">
<g>
	<path fill="#050505" d="M8.071,31.747V11.975H5.042C2.803,11.975,1,13.805,1,16.043v26.732c0,2.24,1.803,4.051,4.042,4.051h26.733
		c2.239,0,4.076-1.811,4.076-4.051v-2.92H16.179C11.733,39.855,8.071,36.193,8.071,31.747z"/>
	<path fill="#050505" d="M42.913,0.963H16.179c-2.238,0-4.066,1.813-4.066,4.051v26.733c0,2.241,1.829,4.067,4.066,4.067h26.734
		c2.238,0,4.051-1.826,4.051-4.067V5.014C46.964,2.775,45.151,0.963,42.913,0.963z M42.363,29.502
		c-0.223,0.412-0.652,0.656-1.12,0.656H18.336c-0.403,0-0.782-0.179-1.022-0.502c-0.24-0.324-0.313-0.736-0.197-1.123l3.277-10.839
		c0.216-0.713,0.818-1.24,1.554-1.361c0.736-0.12,1.476,0.19,1.908,0.797l4.582,6.437c0.616,0.867,1.811,1.081,2.689,0.484
		l4.218-2.865c0.434-0.295,0.968-0.402,1.481-0.299c0.515,0.102,0.966,0.408,1.253,0.848l4.229,6.472
		C42.565,28.599,42.585,29.092,42.363,29.502z"/>
</g>
</svg>
