<?xml version="1.0" encoding="utf-8"?>
<!-- Generator: Adobe Illustrator 16.0.0, SVG Export Plug-In . SVG Version: 6.00 Build 0)  -->
<!DOCTYPE svg PUBLIC "-//W3C//DTD SVG 1.1//EN" "http://www.w3.org/Graphics/SVG/1.1/DTD/svg11.dtd">
<svg version="1.1" id="Layer_1" xmlns="http://www.w3.org/2000/svg" xmlns:xlink="http://www.w3.org/1999/xlink" x="0px" y="0px"
	 width="48px" height="48px" viewBox="0 0 48 48" enable-background="new 0 0 48 48" xml:space="preserve">
<path fill="#050505" d="M41.611,1H6.361C3.411,1,1,3.294,1,6.245v35.248C1,44.448,3.411,47,6.361,47h35.25
	C44.562,47,47,44.448,47,41.493V6.245C47,3.294,44.562,1,41.611,1z M28.771,8.349c3.817,0,6.912,3.095,6.912,6.912
	s-3.095,6.911-6.912,6.911c-3.817,0-6.912-3.094-6.912-6.911S24.953,8.349,28.771,8.349z M40.885,38.334
	C40.592,38.877,40.025,39,39.409,39H9.207c-0.531,0-1.031-0.037-1.348-0.463c-0.317-0.428-0.413-0.871-0.259-1.381l4.321-14.241
	c0.285-0.94,1.079-1.61,2.049-1.771c0.97-0.158,1.946,0.264,2.516,1.063l6.041,8.493c0.812,1.144,2.387,1.429,3.546,0.642
	l5.562-3.777c0.572-0.389,1.276-0.529,1.953-0.393c0.679,0.134,1.274,0.539,1.652,1.118l5.577,8.434
	C41.152,37.242,41.179,37.793,40.885,38.334z"/>
</svg>
