<?xml version="1.0" encoding="utf-8"?>
<!-- Generator: Adobe Illustrator 16.0.0, SVG Export Plug-In . SVG Version: 6.00 Build 0)  -->
<!DOCTYPE svg PUBLIC "-//W3C//DTD SVG 1.1//EN" "http://www.w3.org/Graphics/SVG/1.1/DTD/svg11.dtd">
<svg version="1.1" id="Layer_1" xmlns="http://www.w3.org/2000/svg" xmlns:xlink="http://www.w3.org/1999/xlink" x="0px" y="0px"
	 width="48px" height="48px" viewBox="0 0 48 48" enable-background="new 0 0 48 48" xml:space="preserve">
<g>
	<g>
		<path fill="#050505" d="M11.142,45.744c-1.154,1.16-2.895,1.51-4.407,0.885c-1.513-0.624-2.5-2.1-2.5-3.736V5.107
			c0-1.637,0.987-3.112,2.5-3.736c1.513-0.625,3.253-0.275,4.407,0.885l17.863,17.951c2.088,2.098,2.088,5.488,0,7.586
			L11.142,45.744z"/>
	</g>
	<g>
		<g>
			<path fill="#050505" d="M39.765,47.039c-2.762,0-5-2.238-5-5V6.064c0-2.762,2.238-5,5-5s5,2.238,5,5v35.975
				C44.765,44.801,42.526,47.039,39.765,47.039z"/>
		</g>
	</g>
</g>
</svg>
