<?xml version="1.0" encoding="utf-8"?>
<!-- Generator: Adobe Illustrator 16.0.0, SVG Export Plug-In . SVG Version: 6.00 Build 0)  -->
<!DOCTYPE svg PUBLIC "-//W3C//DTD SVG 1.1//EN" "http://www.w3.org/Graphics/SVG/1.1/DTD/svg11.dtd">
<svg version="1.1" id="Layer_1" xmlns="http://www.w3.org/2000/svg" xmlns:xlink="http://www.w3.org/1999/xlink" x="0px" y="0px"
	 width="48px" height="48px" viewBox="0 0 48 48" enable-background="new 0 0 48 48" xml:space="preserve">
<g>
	<path fill="#050505" d="M21.913,36.127c-0.625,0.627-1.565,0.816-2.383,0.479c-0.818-0.337-1.352-1.135-1.352-2.02V14.155
		c0-0.885,0.534-1.683,1.352-2.02c0.818-0.338,1.759-0.149,2.383,0.479l9.658,9.706c1.128,1.134,1.128,2.967,0,4.102L21.913,36.127z
		"/>
	<path fill="#050505" d="M24,7.371c9.374,0,17,7.626,17,17s-7.626,17-17,17s-17-7.626-17-17S14.626,7.371,24,7.371 M24,1.371
		c-12.702,0-23,10.297-23,23s10.298,23,23,23s23-10.297,23-23S36.702,1.371,24,1.371L24,1.371z"/>
</g>
</svg>
