<?xml version="1.0" encoding="utf-8"?>
<!-- Generator: Adobe Illustrator 16.0.0, SVG Export Plug-In . SVG Version: 6.00 Build 0)  -->
<!DOCTYPE svg PUBLIC "-//W3C//DTD SVG 1.1//EN" "http://www.w3.org/Graphics/SVG/1.1/DTD/svg11.dtd">
<svg version="1.1" id="Layer_1" xmlns="http://www.w3.org/2000/svg" xmlns:xlink="http://www.w3.org/1999/xlink" x="0px" y="0px"
	 width="48px" height="48px" viewBox="0 0 48 48" enable-background="new 0 0 48 48" xml:space="preserve">
<g>
	<path fill="#050505" d="M21.086,12.353c-0.62-0.619-1.553-0.804-2.361-0.468c-0.81,0.336-1.336,1.128-1.334,2.004l0.05,20.233
		c0.002,0.876,0.532,1.665,1.344,1.997c0.811,0.333,1.742,0.144,2.358-0.479l9.543-9.636c1.114-1.126,1.11-2.941-0.011-4.063
		L21.086,12.353z"/>
	<path fill="#050505" d="M46.873,11.178C46.873,5.557,42.316,1,36.695,1H11.051C5.43,1,0.873,5.557,0.873,11.178v25.645
		C0.873,42.443,5.43,47,11.051,47h25.645c5.621,0,10.178-4.557,10.178-10.178V11.178z M40.873,36.822
		c0,2.305-1.492,4.178-3.796,4.178H11.433c-2.304,0-4.56-1.873-4.56-4.178V11.178C6.873,8.875,9.129,7,11.433,7h25.645
		c2.304,0,3.796,1.875,3.796,4.178V36.822z"/>
</g>
</svg>
