<?xml version="1.0" encoding="utf-8"?>
<!-- Generator: Adobe Illustrator 16.0.0, SVG Export Plug-In . SVG Version: 6.00 Build 0)  -->
<!DOCTYPE svg PUBLIC "-//W3C//DTD SVG 1.1//EN" "http://www.w3.org/Graphics/SVG/1.1/DTD/svg11.dtd">
<svg version="1.1" id="Layer_1" xmlns="http://www.w3.org/2000/svg" xmlns:xlink="http://www.w3.org/1999/xlink" x="0px" y="0px"
	 width="48px" height="48px" viewBox="0 0 48 48" enable-background="new 0 0 48 48" xml:space="preserve">
<path fill="#050505" d="M24.5,1.125c-8.73,0-15.78,1.585-15.78,3.542v8.141c0,0.96,0.766,1.707,1.725,1.707h2.614l1.236,14.872
	c0.192,2.313,2.126,4.123,4.445,4.123h2.845v10.526c0,1.638,1.327,2.964,2.964,2.964c1.638,0,2.965-1.326,2.965-2.964V33.51h2.773
	c2.32,0,4.253-1.81,4.446-4.123l1.237-14.872h2.613c0.958,0,1.694-0.747,1.694-1.707V4.667C40.278,2.71,33.228,1.125,24.5,1.125z"/>
</svg>
