<?xml version="1.0" encoding="utf-8"?>
<!-- Generator: Adobe Illustrator 16.0.0, SVG Export Plug-In . SVG Version: 6.00 Build 0)  -->
<!DOCTYPE svg PUBLIC "-//W3C//DTD SVG 1.1//EN" "http://www.w3.org/Graphics/SVG/1.1/DTD/svg11.dtd">
<svg version="1.1" id="Layer_1" xmlns="http://www.w3.org/2000/svg" xmlns:xlink="http://www.w3.org/1999/xlink" x="0px" y="0px"
	 width="48px" height="48px" viewBox="0 0 48 48" enable-background="new 0 0 48 48" xml:space="preserve">
<g>
	<path fill="#050505" d="M43.158,10.729h-6.252v1.194c0,3.077-2.495,5.57-5.571,5.57H15.678c-3.077,0-5.571-2.493-5.571-5.57v-1.194
		H4.615C2.637,10.729,1,12.388,1,14.367V28.58c0,2.245,1.852,4.006,4.097,4.006h5.01v0.06v7.118c0,3.072,2.438,5.571,5.511,5.571
		h16.681c3.072,0,5.519-2.499,5.519-5.571v-7.118v-0.06h5.342c1.979,0,3.635-1.546,3.635-3.524V14.367
		C46.793,12.388,45.138,10.729,43.158,10.729z M33.913,39.706c0,0.881-0.715,1.596-1.597,1.596H15.605
		c-0.882,0-1.597-0.715-1.597-1.596v-12.68c0-0.881,0.715-1.596,1.597-1.596h16.711c0.882,0,1.597,0.715,1.597,1.596V39.706z"/>
	<path fill="#050505" d="M15.605,13.592h15.671c0.882,0,1.597-0.715,1.597-1.597V4.261c0-0.882-0.715-1.597-1.597-1.597H15.605
		c-0.882,0-1.597,0.715-1.597,1.597v7.734C14.009,12.877,14.724,13.592,15.605,13.592z"/>
</g>
</svg>
