<?xml version="1.0" encoding="utf-8"?>
<!-- Generator: Adobe Illustrator 16.0.0, SVG Export Plug-In . SVG Version: 6.00 Build 0)  -->
<!DOCTYPE svg PUBLIC "-//W3C//DTD SVG 1.1//EN" "http://www.w3.org/Graphics/SVG/1.1/DTD/svg11.dtd">
<svg version="1.1" id="Layer_1" xmlns="http://www.w3.org/2000/svg" xmlns:xlink="http://www.w3.org/1999/xlink" x="0px" y="0px"
	 width="48px" height="48px" viewBox="0 0 48 48" enable-background="new 0 0 48 48" xml:space="preserve">
<g>
	<path fill="#050505" d="M33.099,37.866c-1.074,0.974-2.544,1.389-3.97,1.121c-3.554-0.669-10.284-2.167-8.864-3.722
		c2.201-2.412-1.151-4.089-4.61-2.935c-3.46,1.153-2.622-2.937-3.46-6.396c-0.838-3.46,0.419-4.508-1.153-6.078
		c-1.256-1.254-1.359-1.147-2.077-1.603c-0.499-0.316-0.842-0.829-0.944-1.411c-0.104-0.583,0.045-1.182,0.405-1.65
		c0.422-0.548,0.861-1.09,1.016-1.266c1.669-1.896,5.99-3.245,6.128,1.702c0.088,3.157,4.715,4.437,6.226,6.323
		s4.133,2.935,3.922,5.556c-0.209,2.62,3.773,3.249,3.564-0.629c0-0.001,0-0.001,0-0.002c-0.035-0.66-0.304-1.284-0.758-1.766
		c-0.825-0.872-1.321-2.051-1.321-3.346v-9.48c0-1.417,0.858-2.904,1.562-3.584c0.634-0.613,1.997-1.338,3.261-1.338h0.474
		c-3.131-1.826-6.793-2.93-10.703-2.93c-11.51,0-20.872,9.379-20.872,20.89c0,11.51,9.362,20.903,20.872,20.903
		c11.078,0,20.166-8.722,20.834-19.553h-4.016C38.275,31.052,36.214,35.038,33.099,37.866z"/>
	<path fill="#050505" d="M45.179,10.366h-1.668v-3.3c0-2.623-2.074-4.79-4.697-4.79h-0.502c-2.623,0-4.717,2.167-4.717,4.79v3.3
		h-1.537c-1.025,0-1.855,0.83-1.855,1.854v9.467c0,1.025,0.83,1.856,1.855,1.856h13.121c1.025,0,1.855-0.831,1.855-1.856v-9.467
		C47.034,11.196,46.204,10.366,45.179,10.366z M40.511,10.366h-3.914v-3.3c0-0.967,0.749-1.79,1.715-1.79h0.502
		c0.967,0,1.697,0.823,1.697,1.79V10.366z"/>
</g>
</svg>
