<?xml version="1.0" encoding="utf-8"?>
<!-- Generator: Adobe Illustrator 16.0.0, SVG Export Plug-In . SVG Version: 6.00 Build 0)  -->
<!DOCTYPE svg PUBLIC "-//W3C//DTD SVG 1.1//EN" "http://www.w3.org/Graphics/SVG/1.1/DTD/svg11.dtd">
<svg version="1.1" id="Layer_1" xmlns="http://www.w3.org/2000/svg" xmlns:xlink="http://www.w3.org/1999/xlink" x="0px" y="0px"
	 width="48px" height="48px" viewBox="0 0 48 48" enable-background="new 0 0 48 48" xml:space="preserve">
<path fill="#050505" d="M44.418,2.992c-1.494-1.363-3.481-2.175-5.663-2.175H9.404c-4.575,0-8.295,3.636-8.401,8.185
	C1.002,9.082,1,9.142,1,9.221v29.201c0,4.641,3.762,8.404,8.404,8.404h29.394c4.643,0,8.404-3.763,8.404-8.404V9.221
	C47.202,6.74,46.126,4.53,44.418,2.992z M31.854,15.572c0,4.33-3.51,7.839-7.839,7.839c-4.327,0-7.837-3.509-7.837-7.839
	c0-4.328,3.51-7.838,7.837-7.838C28.345,7.734,31.854,11.244,31.854,15.572z M15.112,40.808c-2.005,0-3.63-1.625-3.63-3.63v-2.046
	c0-4.388,3.585-7.913,7.971-7.913h9.127c4.387,0,7.944,3.524,7.944,7.913v2.046c0,2.005-1.625,3.63-3.63,3.63H15.112z"/>
</svg>
