<?xml version="1.0" encoding="utf-8"?>
<!-- Generator: Adobe Illustrator 16.0.0, SVG Export Plug-In . SVG Version: 6.00 Build 0)  -->
<!DOCTYPE svg PUBLIC "-//W3C//DTD SVG 1.1//EN" "http://www.w3.org/Graphics/SVG/1.1/DTD/svg11.dtd">
<svg version="1.1" id="Layer_1" xmlns="http://www.w3.org/2000/svg" xmlns:xlink="http://www.w3.org/1999/xlink" x="0px" y="0px"
	 width="48px" height="48px" viewBox="0 0 48 48" enable-background="new 0 0 48 48" xml:space="preserve">
<g>
	<path fill="#050505" d="M33.788,19.321c2.127-1.916,3.475-4.683,3.475-7.772c0-5.781-4.686-10.465-10.465-10.465
		c-5.781,0-10.466,4.685-10.466,10.465c0,3.085,1.343,5.85,3.467,7.766c-5.441,0.422-9.74,4.928-9.779,10.477L9.951,41.238
		c-0.01,1.525,0.59,2.991,1.665,4.072S14.153,47,15.678,47h10.151h11.794c3.15,0,5.709-2.543,5.728-5.693l0.069-11.361
		c0.02-2.827-1.089-5.539-3.083-7.545C38.578,20.627,36.254,19.549,33.788,19.321z"/>
</g>
</svg>
