<?xml version="1.0" encoding="utf-8"?>
<!-- Generator: Adobe Illustrator 16.0.0, SVG Export Plug-In . SVG Version: 6.00 Build 0)  -->
<!DOCTYPE svg PUBLIC "-//W3C//DTD SVG 1.1//EN" "http://www.w3.org/Graphics/SVG/1.1/DTD/svg11.dtd">
<svg version="1.1" id="Layer_1" xmlns="http://www.w3.org/2000/svg" xmlns:xlink="http://www.w3.org/1999/xlink" x="0px" y="0px"
	 width="48px" height="48px" viewBox="0 0 48 48" enable-background="new 0 0 48 48" xml:space="preserve">
<path fill="#050505" d="M23.856,1.446c-12.572,0-22.766,10.192-22.766,22.765s10.193,22.765,22.766,22.765
	c12.573,0,22.766-10.192,22.766-22.765S36.43,1.446,23.856,1.446z M23.856,8.253c4.159,0,7.53,3.372,7.53,7.53
	c0,4.159-3.371,7.53-7.53,7.53c-4.158,0-7.529-3.371-7.529-7.53C16.327,11.625,19.698,8.253,23.856,8.253z M23.851,41.024
	c-4.149,0-7.949-1.511-10.88-4.012c-0.714-0.609-1.126-1.501-1.126-2.44c0-4.216,3.413-7.591,7.631-7.591h8.763
	c4.218,0,7.619,3.375,7.619,7.591c0,0.939-0.411,1.83-1.126,2.439C31.802,39.513,28.001,41.024,23.851,41.024z"/>
</svg>
