<?xml version="1.0" encoding="utf-8"?>
<!-- Generator: Adobe Illustrator 16.0.0, SVG Export Plug-In . SVG Version: 6.00 Build 0)  -->
<!DOCTYPE svg PUBLIC "-//W3C//DTD SVG 1.1//EN" "http://www.w3.org/Graphics/SVG/1.1/DTD/svg11.dtd">
<svg version="1.1" id="Layer_1" xmlns="http://www.w3.org/2000/svg" xmlns:xlink="http://www.w3.org/1999/xlink" x="0px" y="0px"
	 width="48px" height="48px" viewBox="0 0 48 48" enable-background="new 0 0 48 48" xml:space="preserve">
<g>
	<path fill="#050505" d="M40.48,7.594c-8.919-8.918-23.38-8.919-32.3,0c-8.918,8.919-8.917,23.38,0,32.299
		c8.92,8.919,23.381,8.919,32.3,0C49.4,30.974,49.398,16.513,40.48,7.594z M23.385,36.921c-1.73,0-2.906-1.273-2.906-2.972
		c0-1.73,1.209-2.971,2.906-2.971c1.764,0,2.906,1.241,2.938,2.971C26.323,35.647,25.148,36.921,23.385,36.921z M27.707,22.886
		c-1.321,1.466-1.857,2.86-1.821,4.468c0,1.194-0.968,2.162-2.162,2.162h-0.462c-1.182,0-2.145-0.949-2.161-2.131l-0.005-0.317
		c-0.107-1.823,0.501-3.681,2.109-5.611c1.145-1.359,2.072-2.502,2.072-3.718c0-1.25-0.822-2.073-2.607-2.145
		c-0.549,0-1.15,0.093-1.731,0.256c-1.056,0.297-2.156-0.298-2.482-1.345l-0.006-0.02c-0.329-1.054,0.247-2.175,1.294-2.523
		c1.157-0.385,2.574-0.657,4.14-0.657c4.719,0,6.864,2.609,6.864,5.576C30.748,19.597,29.067,21.384,27.707,22.886z"/>
</g>
</svg>
