<?xml version="1.0" encoding="utf-8"?>
<!-- Generator: Adobe Illustrator 16.0.0, SVG Export Plug-In . SVG Version: 6.00 Build 0)  -->
<!DOCTYPE svg PUBLIC "-//W3C//DTD SVG 1.1//EN" "http://www.w3.org/Graphics/SVG/1.1/DTD/svg11.dtd">
<svg version="1.1" id="Layer_1" xmlns="http://www.w3.org/2000/svg" xmlns:xlink="http://www.w3.org/1999/xlink" x="0px" y="0px"
	 width="48px" height="48px" viewBox="0 0 48 48" enable-background="new 0 0 48 48" xml:space="preserve">
<path fill="#050505" d="M45.725,24.732c-0.746-0.898-1.843-1.415-3.01-1.415c-2.132,0-3.945,1.456-4.407,3.54
	c-1.463,6.575-7.41,11.35-14.141,11.35c-7.998,0-14.506-6.506-14.506-14.505c0-8,6.508-14.506,14.506-14.506
	c2.633,0,5.16,0.704,7.4,2.052l-1.221,1.237c-0.362,0.366-0.467,0.916-0.267,1.391c0.202,0.476,0.669,0.781,1.185,0.776l7.954,0.004
	c0.933-0.008,1.707-0.845,1.703-1.762l-0.033-7.979c-0.002-0.529-0.314-0.994-0.793-1.189c-0.478-0.193-1.024-0.081-1.387,0.285
	l-1.205,1.223c-3.869-2.797-8.553-4.322-13.337-4.322c-12.565,0-22.789,10.224-22.789,22.79c0,12.565,10.224,22.789,22.79,22.789
	c10.936,0,20.351-7.796,22.388-18.535C46.773,26.808,46.471,25.634,45.725,24.732z"/>
</svg>
