<?xml version="1.0" encoding="utf-8"?>
<!-- Generator: Adobe Illustrator 16.0.0, SVG Export Plug-In . SVG Version: 6.00 Build 0)  -->
<!DOCTYPE svg PUBLIC "-//W3C//DTD SVG 1.1//EN" "http://www.w3.org/Graphics/SVG/1.1/DTD/svg11.dtd">
<svg version="1.1" id="Layer_1" xmlns="http://www.w3.org/2000/svg" xmlns:xlink="http://www.w3.org/1999/xlink" x="0px" y="0px"
	 width="48px" height="48px" viewBox="0 0 48 48" enable-background="new 0 0 48 48" xml:space="preserve">
<g>
	<path fill="#050505" d="M20.211,5.807c-1.217-0.502-2.504-0.222-3.433,0.711L2.473,20.949c-1.678,1.686-1.65,4.411,0.028,6.099
		l14.374,14.432c0.929,0.932,2.113,1.213,3.33,0.71C21.42,41.688,22,40.502,22,39.187V8.811C22,7.495,21.428,6.308,20.211,5.807z"/>
	<path fill="#050505" d="M45.104,5.697c-1.216-0.502-2.557-0.222-3.486,0.711L27.286,20.841c-1.677,1.686-1.663,4.41,0.015,6.098
		L41.668,41.37c0.929,0.932,2.217,1.213,3.434,0.711C46.317,41.578,47,40.393,47,39.077V8.701C47,7.385,46.321,6.199,45.104,5.697z"
		/>
</g>
</svg>
