<?xml version="1.0" encoding="utf-8"?>
<!-- Generator: Adobe Illustrator 16.0.0, SVG Export Plug-In . SVG Version: 6.00 Build 0)  -->
<!DOCTYPE svg PUBLIC "-//W3C//DTD SVG 1.1//EN" "http://www.w3.org/Graphics/SVG/1.1/DTD/svg11.dtd">
<svg version="1.1" id="Layer_1" xmlns="http://www.w3.org/2000/svg" xmlns:xlink="http://www.w3.org/1999/xlink" x="0px" y="0px"
	 width="48px" height="48px" viewBox="0 0 48 48" enable-background="new 0 0 48 48" xml:space="preserve">
<path fill="#050505" d="M45.952,24.009c0-1.25-0.478-2.424-1.362-3.308L31.627,7.732c-0.976-0.977-2.56-0.977-3.536,0
	c-0.978,0.977-0.976,2.568,0,3.546l10.574,10.57H3.484C2.102,21.849,1,22.982,1,24.365c0,0.003,0,0.025,0,0.028
	c0,1.382,1.102,2.523,2.484,2.523h35.182L28.094,37.48c-0.978,0.977-0.978,2.564,0,3.541c0.976,0.978,2.561,0.977,3.538-0.001
	L44.59,28.05c0.884-0.882,1.362-2.059,1.362-3.309C45.952,24.618,45.952,24.132,45.952,24.009z"/>
</svg>
