<?xml version="1.0" encoding="utf-8"?>
<!-- Generator: Adobe Illustrator 16.0.0, SVG Export Plug-In . SVG Version: 6.00 Build 0)  -->
<!DOCTYPE svg PUBLIC "-//W3C//DTD SVG 1.1//EN" "http://www.w3.org/Graphics/SVG/1.1/DTD/svg11.dtd">
<svg version="1.1" id="Layer_1" xmlns="http://www.w3.org/2000/svg" xmlns:xlink="http://www.w3.org/1999/xlink" x="0px" y="0px"
	 width="48px" height="48px" viewBox="0 0 48 48" enable-background="new 0 0 48 48" xml:space="preserve">
<g>
	<path fill="#050505" d="M44.454,19.492h-2.437c-0.453-1.766-1.16-3.42-2.081-4.933l1.752-1.756
		c0.472-0.473,0.733-1.104,0.733-1.774c0-0.669-0.262-1.301-0.734-1.773l-2.92-2.917c-0.947-0.948-2.601-0.947-3.545-0.001
		l-1.825,1.815C31.9,7.281,30.296,6.609,28.53,6.177V3.569c0-1.383-1.106-2.52-2.489-2.52h-4.128c-1.383,0-2.471,1.137-2.471,2.52
		v2.607c-1.766,0.431-3.38,1.104-4.878,1.977l-1.825-1.815c-0.946-0.948-2.602-0.947-3.551-0.001L6.27,9.254
		c-0.468,0.467-0.735,1.113-0.735,1.773c0,0.669,0.259,1.299,0.733,1.772l1.752,1.76c-0.921,1.513-1.629,3.167-2.081,4.933H3.501
		C2.117,19.492,1,20.604,1,21.984v4.125c0,1.384,1.117,2.471,2.501,2.471h2.438c0.452,1.766,1.159,3.43,2.079,4.944l-1.752,1.762
		c-0.474,0.473-0.734,1.107-0.734,1.777s0.261,1.302,0.734,1.776l2.92,2.919c0.474,0.472,1.103,0.733,1.772,0.733
		s1.299-0.261,1.773-0.733l1.833-1.816c1.498,0.873,3.112,1.544,4.878,1.977v2.605c0,1.382,1.088,2.498,2.471,2.498h4.128
		c1.383,0,2.489-1.116,2.489-2.498v-2.606c1.766-0.432,3.37-1.104,4.868-1.977l1.818,1.813c0.474,0.475,1.104,0.735,1.775,0.735
		c0.67,0,1.301-0.261,1.774-0.733l2.92-2.917c0.473-0.472,0.733-1.102,0.735-1.773c0-0.67-0.262-1.299-0.734-1.773l-1.751-1.769
		c0.921-1.514,1.628-3.179,2.081-4.944h2.437c1.383,0,2.519-1.087,2.519-2.471v-4.125C46.973,20.604,45.837,19.492,44.454,19.492z
		 M23.976,31.898c-4.378,0-7.928-3.516-7.928-7.851c0-4.338,3.55-7.85,7.928-7.85c4.38,0,7.931,3.512,7.931,7.85
		C31.906,28.383,28.355,31.898,23.976,31.898z"/>
</g>
</svg>
