<?xml version="1.0" encoding="utf-8"?>
<!-- Generator: Adobe Illustrator 16.0.0, SVG Export Plug-In . SVG Version: 6.00 Build 0)  -->
<!DOCTYPE svg PUBLIC "-//W3C//DTD SVG 1.1//EN" "http://www.w3.org/Graphics/SVG/1.1/DTD/svg11.dtd">
<svg version="1.1" id="Layer_1" xmlns="http://www.w3.org/2000/svg" xmlns:xlink="http://www.w3.org/1999/xlink" x="0px" y="0px"
	 width="48px" height="48px" viewBox="0 0 48 48" enable-background="new 0 0 48 48" xml:space="preserve">
<g>
	<path fill="#050505" d="M35.914,14.26c-3.405,0-6.164-2.749-6.164-6.153V1.543c0-0.44-0.356-0.797-0.797-0.797H9.149
		c-2.54,0-4.607,2.06-4.607,4.6v37.059c0,2.54,2.067,4.6,4.607,4.6h29.7c2.541,0,4.609-2.06,4.609-4.6V15.057
		c0-0.44-0.356-0.797-0.797-0.797H35.914z"/>
	<path fill="#050505" d="M35.914,11.141h5.518c0.322,0,0.613-0.194,0.736-0.493c0.123-0.298,0.054-0.641-0.175-0.868
		c-2.016-2.004-5.761-5.724-7.769-7.707c-0.229-0.226-0.57-0.292-0.867-0.168c-0.296,0.123-0.489,0.413-0.489,0.734v5.468
		C32.868,9.772,34.248,11.141,35.914,11.141z"/>
</g>
</svg>
