<?xml version="1.0" encoding="utf-8"?>
<!-- Generator: Adobe Illustrator 16.0.0, SVG Export Plug-In . SVG Version: 6.00 Build 0)  -->
<!DOCTYPE svg PUBLIC "-//W3C//DTD SVG 1.1//EN" "http://www.w3.org/Graphics/SVG/1.1/DTD/svg11.dtd">
<svg version="1.1" id="Layer_1" xmlns="http://www.w3.org/2000/svg" xmlns:xlink="http://www.w3.org/1999/xlink" x="0px" y="0px"
	 width="48px" height="48px" viewBox="0 0 48 48" enable-background="new 0 0 48 48" xml:space="preserve">
<path fill="#050505" d="M33.907,1.271H14.096c-3.023,0-5.474,2.45-5.474,5.474v34.624c0,3.022,2.45,5.474,5.474,5.474h19.812
	c3.022,0,5.474-2.451,5.474-5.474V6.745C39.381,3.722,36.93,1.271,33.907,1.271z M27.869,42.099c0,0.536-0.434,0.97-0.97,0.97
	h-5.985c-0.535,0-0.97-0.434-0.97-0.97v-0.041c0-0.536,0.435-0.971,0.97-0.971h5.985c0.536,0,0.97,0.435,0.97,0.971V42.099z
	 M34.002,35.255c0,1.085-0.879,1.964-1.964,1.964H15.87c-1.084,0-1.964-0.879-1.964-1.964V9.369c0-1.086,0.88-1.965,1.964-1.965
	h16.168c1.085,0,1.964,0.879,1.964,1.965V35.255z"/>
</svg>
