<?xml version="1.0" encoding="utf-8"?>
<!-- Generator: Adobe Illustrator 16.0.0, SVG Export Plug-In . SVG Version: 6.00 Build 0)  -->
<!DOCTYPE svg PUBLIC "-//W3C//DTD SVG 1.1//EN" "http://www.w3.org/Graphics/SVG/1.1/DTD/svg11.dtd">
<svg version="1.1" id="Layer_1" xmlns="http://www.w3.org/2000/svg" xmlns:xlink="http://www.w3.org/1999/xlink" x="0px" y="0px"
	 width="48px" height="48px" viewBox="0 0 48 48" enable-background="new 0 0 48 48" xml:space="preserve">
<path fill="#050505" d="M38.734,4.523H9.438C4.786,4.523,1,8.315,1,12.967v17.14c0,4.652,3.786,8.439,8.438,8.439h18.376
	l3.935,5.634c0.531,0.762,1.399,1.212,2.328,1.214c0.928,0.002,1.799-0.45,2.334-1.21l4.126-5.845
	c3.792-0.82,6.645-4.195,6.645-8.232v-17.14C47.182,8.315,43.387,4.523,38.734,4.523z M24.091,27.694
	c1.359,0,2.462,1.126,2.462,2.514c0,1.389-1.103,2.513-2.462,2.513s-2.462-1.124-2.462-2.513
	C21.629,28.82,22.731,27.694,24.091,27.694z M21.636,23.47V13.102c0-1.389,1.066-2.515,2.455-2.515s2.455,1.126,2.455,2.515V23.47
	c0,1.389-1.066,2.515-2.455,2.515S21.636,24.858,21.636,23.47z"/>
</svg>
