<?xml version="1.0" encoding="utf-8"?>
<!-- Generator: Adobe Illustrator 16.0.0, SVG Export Plug-In . SVG Version: 6.00 Build 0)  -->
<!DOCTYPE svg PUBLIC "-//W3C//DTD SVG 1.1//EN" "http://www.w3.org/Graphics/SVG/1.1/DTD/svg11.dtd">
<svg version="1.1" id="Layer_1" xmlns="http://www.w3.org/2000/svg" xmlns:xlink="http://www.w3.org/1999/xlink" x="0px" y="0px"
	 width="48px" height="48px" viewBox="0 0 48 48" enable-background="new 0 0 48 48" xml:space="preserve">
<path fill="#050505" d="M38.689,3.646H9.427C4.78,3.646,1,7.391,1,12.037v17.119c0,4.647,3.78,8.377,8.427,8.377h18.927l3.608,5.191
	c0.53,0.76,1.398,1.225,2.326,1.226c0.927,0.002,1.797-0.443,2.331-1.201l3.777-5.354c3.832-0.785,6.72-4.175,6.72-8.239V12.037
	C47.116,7.391,43.336,3.646,38.689,3.646z M31.137,29.266H16.979c-1.107,0-2.004-0.932-2.004-2.039c0-1.106,0.897-2.037,2.004-2.037
	h14.159c1.107,0,2.004,0.931,2.004,2.037C33.141,28.334,32.244,29.266,31.137,29.266z M31.137,22.627H16.979
	c-1.107,0-2.004-0.932-2.004-2.038c0-1.105,0.897-2.038,2.004-2.038h14.159c1.107,0,2.004,0.933,2.004,2.038
	C33.141,21.695,32.244,22.627,31.137,22.627z M31.137,15.989H16.979c-1.107,0-2.004-0.931-2.004-2.037
	c0-1.107,0.897-2.039,2.004-2.039h14.159c1.107,0,2.004,0.932,2.004,2.039C33.141,15.059,32.244,15.989,31.137,15.989z"/>
</svg>
