<?xml version="1.0" encoding="utf-8"?>
<!-- Generator: Adobe Illustrator 16.0.0, SVG Export Plug-In . SVG Version: 6.00 Build 0)  -->
<!DOCTYPE svg PUBLIC "-//W3C//DTD SVG 1.1//EN" "http://www.w3.org/Graphics/SVG/1.1/DTD/svg11.dtd">
<svg version="1.1" id="Layer_1" xmlns="http://www.w3.org/2000/svg" xmlns:xlink="http://www.w3.org/1999/xlink" x="0px" y="0px"
	 width="48px" height="48px" viewBox="0 0 48 48" enable-background="new 0 0 48 48" xml:space="preserve">
<path fill="#050505" d="M46.864,18.123c-0.607-1.868-2.332-3.191-4.294-3.294l-10.248-0.515l-3.684-9.606
	c-0.703-1.834-2.495-3.066-4.459-3.066s-3.756,1.232-4.459,3.065l-3.656,9.588L5.787,14.829c-1.961,0.103-3.686,1.426-4.293,3.295
	c-0.605,1.867,0.012,3.95,1.538,5.187l7.99,6.441l-2.667,9.937c-0.51,1.897,0.215,3.947,1.805,5.102
	c1.571,1.142,3.782,1.199,5.409,0.142l8.594-5.607l8.627,5.607c0.777,0.505,1.676,0.771,2.602,0.771
	c1.016,0,1.987-0.315,2.805-0.911c1.59-1.152,2.317-3.203,1.808-5.102l-2.678-9.907l8.001-6.474
	C46.853,22.074,47.47,19.989,46.864,18.123z M33.58,25.157c-1.817,1.471-2.599,3.881-1.993,6.138l1.376,5.13
	c0.079,0.292-0.031,0.603-0.276,0.78c-0.245,0.178-0.574,0.187-0.828,0.021l-4.453-2.895c-0.892-0.579-1.929-0.879-2.977-0.921
	V11.567c0-0.107,0.077-0.2,0.182-0.22c0.106-0.02,0.21,0.039,0.249,0.14l1.901,4.959c0.837,2.183,2.886,3.672,5.222,3.795
	l5.304,0.275c0.302,0.016,0.564,0.216,0.657,0.504c0.094,0.288,0,0.604-0.235,0.794L33.58,25.157z"/>
</svg>
