<?xml version="1.0" encoding="utf-8"?>
<!-- Generator: Adobe Illustrator 16.0.0, SVG Export Plug-In . SVG Version: 6.00 Build 0)  -->
<!DOCTYPE svg PUBLIC "-//W3C//DTD SVG 1.1//EN" "http://www.w3.org/Graphics/SVG/1.1/DTD/svg11.dtd">
<svg version="1.1" id="Layer_1" xmlns="http://www.w3.org/2000/svg" xmlns:xlink="http://www.w3.org/1999/xlink" x="0px" y="0px"
	 width="48px" height="48px" viewBox="0 0 48 48" enable-background="new 0 0 48 48" xml:space="preserve">
<g>
	<path fill="#050505" d="M35.399,46.203c-0.933,0-1.84-0.269-2.622-0.777l-8.696-5.651l-8.661,5.651
		c-1.643,1.067-3.869,1.008-5.452-0.142c-1.601-1.165-2.331-3.23-1.818-5.14l2.688-10.017l-8.052-6.49
		c-1.54-1.247-2.162-3.348-1.549-5.23c0.609-1.879,2.348-3.214,4.325-3.317L15.92,14.55l3.686-9.663
		c0.708-1.848,2.514-3.089,4.493-3.089s3.785,1.242,4.494,3.09l3.712,9.683l10.329,0.518c1.976,0.103,3.714,1.436,4.326,3.317
		c0.611,1.886-0.012,3.987-1.551,5.231l-8.061,6.522l2.698,9.984c0.515,1.909-0.216,3.976-1.818,5.14
		C37.4,45.885,36.423,46.203,35.399,46.203z M24.099,33.779c1.157,0,2.282,0.333,3.252,0.964l5.008,3.255
		c0.173,0.112,0.397,0.107,0.565-0.015c0.167-0.122,0.242-0.333,0.188-0.533l-1.548-5.769c-0.61-2.276,0.179-4.705,2.011-6.187
		l4.643-3.757c0.161-0.13,0.225-0.345,0.161-0.542c-0.064-0.196-0.242-0.333-0.449-0.344l-5.965-0.31
		c-2.353-0.123-4.419-1.624-5.262-3.823l-2.139-5.577c-0.074-0.193-0.259-0.32-0.466-0.32s-0.392,0.127-0.466,0.32l-2.139,5.577
		c-0.843,2.2-2.909,3.701-5.262,3.823l-5.965,0.31C10.061,20.863,9.883,21,9.818,21.196c-0.063,0.197,0,0.412,0.161,0.542
		l4.643,3.757c1.832,1.481,2.621,3.91,2.011,6.186l-1.549,5.769c-0.053,0.2,0.021,0.412,0.189,0.533
		c0.167,0.122,0.392,0.127,0.564,0.015l5.009-3.255C21.816,34.112,22.941,33.779,24.099,33.779z"/>
</g>
</svg>
