<?xml version="1.0" encoding="utf-8"?>
<!-- Generator: Adobe Illustrator 16.0.0, SVG Export Plug-In . SVG Version: 6.00 Build 0)  -->
<!DOCTYPE svg PUBLIC "-//W3C//DTD SVG 1.1//EN" "http://www.w3.org/Graphics/SVG/1.1/DTD/svg11.dtd">
<svg version="1.1" id="Layer_1" xmlns="http://www.w3.org/2000/svg" xmlns:xlink="http://www.w3.org/1999/xlink" x="0px" y="0px"
	 width="48px" height="48px" viewBox="0 0 48 48" enable-background="new 0 0 48 48" xml:space="preserve">
<g>
	<path fill="#050505" d="M46.968,5.813c0-2.366-1.92-4.299-4.287-4.299H16.43c-1.48,0-2.856,0.776-3.639,2.034l-11.143,17.9
		c-0.859,1.381-0.865,3.132-0.014,4.517L12.793,44.1c0.781,1.269,2.163,2.042,3.651,2.042h26.237c1.137,0,2.228-0.452,3.031-1.256
		s1.256-1.9,1.256-3.039L46.968,5.813z M38.33,27.605c1.571,1.57,1.571,4.118,0,5.689c-0.784,0.784-1.813,1.178-2.843,1.178
		c-1.03,0-2.061-0.394-2.845-1.178l-3.766-3.767l-3.765,3.767c-0.784,0.784-1.815,1.178-2.844,1.178
		c-1.029,0-2.059-0.394-2.845-1.178c-1.57-1.571-1.57-4.119,0-5.689l3.766-3.766l-3.766-3.765c-1.57-1.569-1.57-4.117,0-5.687
		c1.57-1.572,4.119-1.572,5.688,0l3.765,3.765l3.766-3.765c1.569-1.572,4.119-1.572,5.688,0c1.571,1.569,1.571,4.117,0,5.687
		l-3.765,3.765L38.33,27.605z"/>
</g>
</svg>
