<?xml version="1.0" encoding="utf-8"?>
<!-- Generator: Adobe Illustrator 16.0.0, SVG Export Plug-In . SVG Version: 6.00 Build 0)  -->
<!DOCTYPE svg PUBLIC "-//W3C//DTD SVG 1.1//EN" "http://www.w3.org/Graphics/SVG/1.1/DTD/svg11.dtd">
<svg version="1.1" id="Layer_1" xmlns="http://www.w3.org/2000/svg" xmlns:xlink="http://www.w3.org/1999/xlink" x="0px" y="0px"
	 width="48px" height="48px" viewBox="0 0 48 48" enable-background="new 0 0 48 48" xml:space="preserve">
<g>
	<path fill="#050505" d="M24.007,34.804c8.139,0,14.763-6.622,14.763-14.759c0-5.806-3.348-10.839-8.256-13.248v5.98
		c1.979,1.787,3.249,4.383,3.249,7.268c0,5.38-4.382,9.757-9.762,9.757c-5.379,0-9.739-4.377-9.739-9.757
		c0-2.884,1.211-5.479,3.269-7.267v-5.98c-4.908,2.408-8.273,7.441-8.273,13.247C9.257,28.183,15.87,34.804,24.007,34.804z"/>
	<path fill="#050505" d="M23.983,22.191c1.381,0,2.493-1.12,2.493-2.501V3.683c0-1.381-1.112-2.501-2.493-2.501
		c-1.382,0-2.494,1.12-2.494,2.501V19.69C21.489,21.072,22.602,22.191,23.983,22.191z"/>
	<circle fill="#050505" cx="23.999" cy="42.325" r="4.501"/>
	<circle fill="#050505" cx="10.992" cy="42.325" r="4.501"/>
	<circle fill="#050505" cx="37.004" cy="42.325" r="4.501"/>
</g>
</svg>
