<?xml version="1.0" encoding="utf-8"?>
<!-- Generator: Adobe Illustrator 16.0.0, SVG Export Plug-In . SVG Version: 6.00 Build 0)  -->
<!DOCTYPE svg PUBLIC "-//W3C//DTD SVG 1.1//EN" "http://www.w3.org/Graphics/SVG/1.1/DTD/svg11.dtd">
<svg version="1.1" id="Layer_1" xmlns="http://www.w3.org/2000/svg" xmlns:xlink="http://www.w3.org/1999/xlink" x="0px" y="0px"
	 width="48px" height="48px" viewBox="0 0 48 48" enable-background="new 0 0 48 48" xml:space="preserve">
<g>
	<path fill="#050505" d="M24.385,13.635c-3.361,0-6.078-2.729-6.078-6.099c0-3.367,2.717-6.097,6.078-6.097
		c3.353,0,6.073,2.729,6.073,6.097C30.458,10.905,27.737,13.635,24.385,13.635z"/>
	<path fill="#050505" d="M24.386,30.327c-3.361,0-6.079-2.728-6.079-6.098c0-3.366,2.717-6.099,6.078-6.099
		c3.353,0,6.073,2.732,6.074,6.099C30.458,27.601,27.736,30.327,24.386,30.327z"/>
	<path fill="#050505" d="M24.386,47.022c-3.361,0-6.079-2.73-6.079-6.099s2.717-6.098,6.078-6.098
		c3.353-0.001,6.073,2.729,6.073,6.098C30.458,44.292,27.736,47.022,24.386,47.022z"/>
</g>
</svg>
