<?xml version="1.0" encoding="utf-8"?>
<!-- Generator: Adobe Illustrator 16.0.0, SVG Export Plug-In . SVG Version: 6.00 Build 0)  -->
<!DOCTYPE svg PUBLIC "-//W3C//DTD SVG 1.1//EN" "http://www.w3.org/Graphics/SVG/1.1/DTD/svg11.dtd">
<svg version="1.1" id="Layer_1" xmlns="http://www.w3.org/2000/svg" xmlns:xlink="http://www.w3.org/1999/xlink" x="0px" y="0px"
	 width="48px" height="48px" viewBox="0 0 48 48" enable-background="new 0 0 48 48" xml:space="preserve">
<path fill="#050505" d="M46.612,9.495c-0.015-4.589-3.738-8.289-8.327-8.289H9.327c-2.213,0-4.335,0.869-5.897,2.437
	C1.867,5.21,0.993,7.329,1,9.542l0.071,22.163c0.014,4.588,3.738,8.286,8.327,8.286h8.208l3.906,5.601
	c0.525,0.753,1.384,1.201,2.301,1.203c0.917,0.003,1.778-0.443,2.307-1.194l3.949-5.609h8.286c2.213,0,4.335-0.869,5.897-2.437
	c1.563-1.567,2.437-3.681,2.43-5.894L46.612,9.495z M23.84,6.146c4.29,0,7.767,3.478,7.767,7.766c0,4.291-3.478,7.767-7.767,7.767
	c-4.289,0-7.766-3.476-7.766-7.767C16.075,9.624,19.552,6.146,23.84,6.146z M36.21,33.292c0,0.958-0.777,1.735-1.735,1.735H13.201
	c-0.959,0-1.736-0.777-1.736-1.736c0-4.348,3.507-7.883,7.856-7.883h9.04c2.089,0,4.079,0.835,5.556,2.312
	C35.393,29.196,36.21,31.205,36.21,33.292L36.21,33.292z"/>
</svg>
