<?xml version="1.0" encoding="utf-8"?>
<!-- Generator: Adobe Illustrator 16.0.0, SVG Export Plug-In . SVG Version: 6.00 Build 0)  -->
<!DOCTYPE svg PUBLIC "-//W3C//DTD SVG 1.1//EN" "http://www.w3.org/Graphics/SVG/1.1/DTD/svg11.dtd">
<svg version="1.1" id="Layer_1" xmlns="http://www.w3.org/2000/svg" xmlns:xlink="http://www.w3.org/1999/xlink" x="0px" y="0px"
	 width="48px" height="48px" viewBox="0 0 48 48" enable-background="new 0 0 48 48" xml:space="preserve">
<path fill="#050505" d="M46.91,34.731l-0.531-9.997c-0.127-2.388-2.1-4.264-4.489-4.264h-0.015V15.52
	c0-4.85-3.941-8.833-8.792-8.833h-18.25c-4.851,0-8.792,3.982-8.792,8.833v4.951H6.026c-2.389,0-4.362,1.876-4.489,4.264
	l-0.531,9.994c-0.065,1.232,0.382,2.439,1.231,3.334c0.232,0.245,0.495,0.461,0.771,0.646v3.75c0,1.31,1.055,2.36,2.365,2.36h3.692
	c1.311,0,2.396-1.05,2.396-2.36v-2.969h24.994v2.969c0,1.31,1.085,2.36,2.396,2.36h3.692c1.309,0,2.365-1.05,2.365-2.36v-3.75
	c0.275-0.185,0.538-0.4,0.772-0.646C46.529,37.168,46.977,35.964,46.91,34.731z M9.125,32.941c-1.639,0-2.965-1.329-2.965-2.967
	c0-1.639,1.326-2.967,2.965-2.967c1.64,0,2.968,1.328,2.968,2.967C12.093,31.613,10.765,32.941,9.125,32.941z M34.801,20.471H13.115
	V15.52c0-0.956,0.763-1.758,1.718-1.758h18.25c0.956,0,1.718,0.802,1.718,1.758V20.471z M38.791,32.941
	c-1.639,0-2.967-1.329-2.967-2.967c0-1.639,1.328-2.967,2.967-2.967s2.966,1.328,2.966,2.967
	C41.757,31.613,40.43,32.941,38.791,32.941z"/>
</svg>
