<?xml version="1.0" encoding="utf-8"?>
<!-- Generator: Adobe Illustrator 16.0.0, SVG Export Plug-In . SVG Version: 6.00 Build 0)  -->
<!DOCTYPE svg PUBLIC "-//W3C//DTD SVG 1.1//EN" "http://www.w3.org/Graphics/SVG/1.1/DTD/svg11.dtd">
<svg version="1.1" id="Layer_1" xmlns="http://www.w3.org/2000/svg" xmlns:xlink="http://www.w3.org/1999/xlink" x="0px" y="0px"
	 width="48px" height="48px" viewBox="0 0 48 48" enable-background="new 0 0 48 48" xml:space="preserve">
<g>
	<path fill="#050505" d="M41.135,4H6.358c-2.761,0-5,2.238-5,5s2.239,5,5,5h34.776c2.761,0,5-2.238,5-5S43.896,4,41.135,4z"/>
	<path fill="#050505" d="M29.135,19H6.358c-2.761,0-5,2.238-5,5s2.239,5,5,5h22.776c2.761,0,5-2.238,5-5S31.896,19,29.135,19z"/>
	<path fill="#050505" d="M16.135,34H6.358c-2.761,0-5,2.238-5,5s2.239,5,5,5h9.776c2.761,0,5-2.238,5-5S18.896,34,16.135,34z"/>
</g>
</svg>
