<?xml version="1.0" encoding="utf-8"?>
<!-- Generator: Adobe Illustrator 16.0.0, SVG Export Plug-In . SVG Version: 6.00 Build 0)  -->
<!DOCTYPE svg PUBLIC "-//W3C//DTD SVG 1.1//EN" "http://www.w3.org/Graphics/SVG/1.1/DTD/svg11.dtd">
<svg version="1.1" id="Layer_1" xmlns="http://www.w3.org/2000/svg" xmlns:xlink="http://www.w3.org/1999/xlink" x="0px" y="0px"
	 width="48px" height="48px" viewBox="0 0 48 48" enable-background="new 0 0 48 48" xml:space="preserve">
<g>
	<path fill="#050505" d="M44.222,12.698l-9.19-9.066c-1.091-1.091-2.674-1.684-4.217-1.684H16.413c-1.541,0-3.02,0.593-4.11,1.684
		l-8.909,9.076c-1.091,1.091-1.528,2.561-1.528,4.102v14.402c0,1.542,0.437,3.021,1.528,4.111l8.998,9.056
		c1.09,1.09,2.481,1.674,4.022,1.674h14.403c1.542,0,3.021-0.584,4.111-1.674l9.296-9.071c1.09-1.09,1.913-2.555,1.913-4.097V16.809
		C46.135,15.268,45.313,13.789,44.222,12.698z M24,34.631c-1.528,0-2.766-1.264-2.766-2.824c0-1.56,1.238-2.823,2.766-2.823
		s2.766,1.263,2.766,2.823C26.766,33.367,25.528,34.631,24,34.631z M26.767,24.239c0,1.559-1.207,2.823-2.767,2.823
		s-2.767-1.264-2.767-2.823V12.589c0-1.559,1.207-2.824,2.767-2.824s2.767,1.265,2.767,2.824V24.239z"/>
</g>
</svg>
