<?xml version="1.0" encoding="utf-8"?>
<!-- Generator: Adobe Illustrator 16.0.0, SVG Export Plug-In . SVG Version: 6.00 Build 0)  -->
<!DOCTYPE svg PUBLIC "-//W3C//DTD SVG 1.1//EN" "http://www.w3.org/Graphics/SVG/1.1/DTD/svg11.dtd">
<svg version="1.1" id="Layer_1" xmlns="http://www.w3.org/2000/svg" xmlns:xlink="http://www.w3.org/1999/xlink" x="0px" y="0px"
	 width="48px" height="48px" viewBox="0 0 48 48" enable-background="new 0 0 48 48" xml:space="preserve">
<g>
	<path fill="#050505" d="M46.796,30.15C45.527,18.535,35.758,9.775,24.073,9.775c-11.683,0-21.45,8.759-22.723,20.374
		c-0.082,0.747,0.158,1.479,0.662,2.044c0.503,0.561,1.224,0.867,1.975,0.867h0.189c1.479,0,2.733-1.092,2.918-2.562
		c1.068-8.547,8.368-14.983,16.979-14.983c8.725,0,16.036,6.527,17.007,15.201c0.151,1.342,1.284,2.344,2.633,2.344h0.447
		c0.753,0,1.473-0.307,1.976-0.867C46.638,31.633,46.879,30.898,46.796,30.15z"/>
	<path fill="#050505" d="M24.073,17.861c-7.122,0-13.231,5.087-14.529,12.095c-0.144,0.776,0.063,1.554,0.568,2.162
		c0.508,0.609,1.251,0.942,2.039,0.942h0.215c1.378,0,2.587-0.963,2.874-2.313c0.886-4.146,4.601-7.146,8.833-7.146
		c4.322,0,8.053,3.071,8.871,7.319c0.238,1.246,1.332,2.14,2.602,2.14h0.452c0.791,0,1.535-0.333,2.038-0.941
		c0.506-0.606,0.712-1.394,0.568-2.171C37.308,22.941,31.197,17.861,24.073,17.861z"/>
	<circle fill="#050505" cx="24.074" cy="33.85" r="6.189"/>
</g>
</svg>
