<?xml version="1.0" encoding="utf-8"?>
<!-- Generator: Adobe Illustrator 16.0.0, SVG Export Plug-In . SVG Version: 6.00 Build 0)  -->
<!DOCTYPE svg PUBLIC "-//W3C//DTD SVG 1.1//EN" "http://www.w3.org/Graphics/SVG/1.1/DTD/svg11.dtd">
<svg version="1.1" id="Layer_1" xmlns="http://www.w3.org/2000/svg" xmlns:xlink="http://www.w3.org/1999/xlink" x="0px" y="0px"
	 width="48px" height="48px" viewBox="0 0 48 48" enable-background="new 0 0 48 48" xml:space="preserve">
<g>
	<path fill="#050505" d="M45.354,38.088l-8.623-8.52c-0.869,1.396-1.903,2.705-3.097,3.897c-1.205,1.206-2.527,2.251-3.94,3.126
		l8.673,8.569c1.945,1.923,5.072,1.907,7.004-0.024c0.008-0.008,0.015-0.015,0.022-0.022C47.334,43.173,47.307,40.018,45.354,38.088
		z"/>
	<path fill="#050505" d="M35.552,18.192C35.552,8.712,27.84,1,18.359,1C13.62,0.999,9.322,2.928,6.209,6.041
		c-3.113,3.113-5.042,7.411-5.042,12.151c0.001,9.479,7.713,17.192,17.192,17.192c4.74,0,9.038-1.928,12.151-5.042
		C33.624,27.229,35.552,22.932,35.552,18.192z M25.826,25.658c-1.913,1.913-4.555,3.098-7.466,3.098
		c-5.825,0-10.564-4.739-10.564-10.564c0-2.912,1.185-5.553,3.098-7.466c1.912-1.913,4.554-3.097,7.467-3.098
		c5.823,0,10.563,4.739,10.563,10.563C28.924,21.104,27.739,23.745,25.826,25.658z"/>
</g>
</svg>
