<?xml version="1.0" encoding="utf-8"?>
<!-- Generator: Adobe Illustrator 16.0.0, SVG Export Plug-In . SVG Version: 6.00 Build 0)  -->
<!DOCTYPE svg PUBLIC "-//W3C//DTD SVG 1.1//EN" "http://www.w3.org/Graphics/SVG/1.1/DTD/svg11.dtd">
<svg version="1.1" id="Layer_3" xmlns="http://www.w3.org/2000/svg" xmlns:xlink="http://www.w3.org/1999/xlink" x="0px" y="0px"
	 width="100px" height="100px" viewBox="0 0 100 100" enable-background="new 0 0 100 100" xml:space="preserve">
<g>
	<path d="M95.131,53.803l4.229-33.331L68.055,8.594L33.03,25.321L0.318,11.507l4.615,36.365L0.685,83.927l34.475,6.466l33.066-6.299
		l31.369,7.24L95.131,53.803z M35.155,86.672L4.719,80.964L8.64,48.03L4.746,17.344l28.378,11.985L68.22,12.565l27.151,10.303
		l-3.925,30.919l3.907,32.813l-27.057-6.242L35.155,86.672z"/>
	<path d="M83.922,67.313c-0.911,0-1.752,0.263-2.487,0.688c-2.896-2.12-5.879-4.61-6.026-7.887c-0.2-4.493,2.551-8.794-0.598-12.917
		c-3.077-4.028-10.954-1.312-13.999-4.339c0.474-0.763,0.759-1.654,0.759-2.618c0-2.754-2.234-4.988-4.987-4.988
		c-2.757,0-4.989,2.233-4.989,4.988c0,1.58,0.749,2.971,1.895,3.885c-0.48,1.216-0.782,2.506-0.834,3.823
		c-0.082,2.081,0.515,4.151,0.064,6.218c-0.372,1.717-2.788,1.607-4.09,1.617c-3.284,0.03-7.964-0.589-10.082,1.729
		c-0.625-0.47-1.356-0.795-2.161-0.929c-0.474-4.271,0.347-8.443-3.44-11.728c-2.435-2.114-6.418-3.031-8.664-5.406
		c0.475-0.763,0.762-1.657,0.762-2.622c0-2.755-2.233-4.989-4.988-4.989c-2.754,0-4.988,2.233-4.988,4.989
		c0,2.754,2.233,4.987,4.988,4.987c0.919,0,1.769-0.265,2.508-0.699c1.66,1.666,3.951,2.773,6.095,3.893
		c2.731,1.425,4.766,3.254,5.14,6.49c0.205,1.774,0.126,3.518,0.241,5.263c-2.005,0.647-3.466,2.505-3.466,4.726
		c0,2.755,2.233,4.988,4.989,4.988c2.754,0,4.988-2.233,4.988-4.988c0-0.652-0.134-1.273-0.362-1.845
		c1.656-2.984,9.263-0.948,12.131-1.908c2.089-0.7,2.83-2.657,3.015-4.686c0.175-1.896-0.436-3.76-0.151-5.664
		c0.114-0.775,0.309-1.524,0.569-2.239c0.271,0.045,0.546,0.083,0.83,0.083c0.877,0,1.688-0.246,2.405-0.645
		c3.086,3.092,9.214,1.02,13.106,3.349c4.629,2.768-0.131,10.582,1.33,14.755c1.012,2.887,3.656,5.039,6.277,6.978
		c-0.479,0.767-0.77,1.666-0.77,2.636c0,2.756,2.232,4.988,4.989,4.988c2.753,0,4.988-2.232,4.988-4.988
		C88.91,69.548,86.675,67.313,83.922,67.313z"/>
</g>
</svg>
