<?xml version="1.0" encoding="utf-8"?>
<!-- Generator: Adobe Illustrator 16.0.0, SVG Export Plug-In . SVG Version: 6.00 Build 0)  -->
<!DOCTYPE svg PUBLIC "-//W3C//DTD SVG 1.1//EN" "http://www.w3.org/Graphics/SVG/1.1/DTD/svg11.dtd">
<svg version="1.1" id="Layer_3" xmlns="http://www.w3.org/2000/svg" xmlns:xlink="http://www.w3.org/1999/xlink" x="0px" y="0px"
	 width="100px" height="100px" viewBox="0 0 100 100" enable-background="new 0 0 100 100" xml:space="preserve">
<g>
	<circle cx="34.189" cy="55.44" r="6.282"/>
	<path d="M95.365,54.204l4.259-33.583L69.07,9.026L32.419,26.532L0.486,13.046l4.312,35.827l-4.133,35.28l33.929,6.364L69.2,83.926
		l30.541,7.048L95.365,54.204z M68.956,12.583l27.065,10.199l-1.863,14.685l-26.976-6.824L68.956,12.583z M65.376,14.447
		l-1.428,15.375l-0.023-0.005l-18.677,2.409l-0.112,0.412c-0.023,0.089-2.19,8.095-4.474,11.736
		c-1.478-0.869-3.14-1.451-4.916-1.667L34.232,29.32L65.376,14.447z M62.521,48.742l-16.233,2.448
		c-0.874-2.473-2.478-4.597-4.561-6.117c2.125-3.392,4.043-9.959,4.526-11.692l17.572-2.268L62.521,48.742z M30.93,29.483
		l1.5,13.256c-4.934,0.68-8.981,4.164-10.464,8.793L8.124,49.389L6.795,36.551c4.588-0.304,8.029-1.797,10.235-4.461
		c1.988-2.398,2.56-5.235,2.669-7.35L30.93,29.483z M4.482,18.314l13.955,5.893c-0.04,1.946-0.48,4.769-2.386,7.07
		c-1.989,2.398-5.152,3.739-9.417,4.008L4.482,18.314z M4.302,81.481l3.433-28.815l13.651,2.115c-0.01,0.22-0.032,0.436-0.032,0.66
		c0,3.001,1.042,5.759,2.777,7.948l-7.09,5.694L14.807,83.45L4.302,81.481z M31.047,86.497l-14.989-2.812l2.165-13.92l6.747-5.416
		c2.07,2.14,4.871,3.568,8,3.863L31.047,86.497z M23.902,55.441c0-5.675,4.615-10.29,10.287-10.29c5.675,0,10.29,4.615,10.29,10.29
		c0,5.672-4.615,10.287-10.29,10.287C28.517,65.729,23.902,61.113,23.902,55.441z M34.59,87.161l-0.289-0.055l2.002-19.02
		c6.073-1.013,10.723-6.291,10.723-12.648c0-0.344-0.025-0.679-0.052-1.018l15.867-2.392l1.324,13.533
		c-6.961,0.327-12.163,2.467-15.439,6.42c-3.819,4.613-3.999,10.365-3.801,13.209L34.59,87.161z M46.196,84.949
		c-0.154-2.699,0.069-7.996,3.513-12.153c3.046-3.678,7.961-5.663,14.579-5.963l1.411,14.399L46.196,84.949z M67.064,31.924
		L94,38.735L92.384,51.46l-26.596-3.211L67.064,31.924z M88.721,62.452l-12.255-1.458l2.245,21.74l-9.819-2.11l-2.784-29.085
		l0.286-0.044l25.71,3.263l3.804,31.945l-15.91-3.669l-2.101-20.587l10.923,1.269L88.721,62.452z"/>
</g>
</svg>
