<?xml version="1.0" encoding="utf-8"?>
<!-- Generator: Adobe Illustrator 16.0.0, SVG Export Plug-In . SVG Version: 6.00 Build 0)  -->
<!DOCTYPE svg PUBLIC "-//W3C//DTD SVG 1.1//EN" "http://www.w3.org/Graphics/SVG/1.1/DTD/svg11.dtd">
<svg version="1.1" id="Layer_5" xmlns="http://www.w3.org/2000/svg" xmlns:xlink="http://www.w3.org/1999/xlink" x="0px" y="0px"
	 width="100px" height="100px" viewBox="0 0 100 100" enable-background="new 0 0 100 100" xml:space="preserve">
<path d="M21.906,59.958l11.36,4.489v-47.57c0-0.503,0.409-0.909,0.911-0.91h9.105c0.502,0.001,0.91,0.407,0.91,0.909v47.571
	l11.361-4.489c0.381-0.148,0.815-0.026,1.061,0.299c0.248,0.328,0.246,0.778-0.005,1.103L39.452,83.678
	c-0.173,0.224-0.44,0.355-0.723,0.356c-0.281,0-0.549-0.132-0.721-0.356L20.85,61.359c-0.126-0.163-0.189-0.36-0.188-0.554
	c0-0.19,0.06-0.385,0.182-0.55C21.091,59.931,21.525,59.809,21.906,59.958z M78.992,59.584h-3.909l-2.207-5.306h-6.644l-2.146,5.306
	h-3.82l7.397-17.768h3.901L78.992,59.584z M71.948,51.677l-1.769-4.244c-0.251-0.602-0.458-1.174-0.642-1.727
	c-0.204,0.612-0.404,1.165-0.608,1.691l-1.774,4.279H71.948z M76.562,63.618h-14.94v2.729h10.045L60.641,79.512v1.876h16.074V78.66
	h-11.12l10.966-13.112V63.618z"/>
</svg>
