<?xml version="1.0" encoding="utf-8"?>
<!-- Generator: Adobe Illustrator 16.0.0, SVG Export Plug-In . SVG Version: 6.00 Build 0)  -->
<!DOCTYPE svg PUBLIC "-//W3C//DTD SVG 1.1//EN" "http://www.w3.org/Graphics/SVG/1.1/DTD/svg11.dtd">
<svg version="1.1" id="Layer_7" xmlns="http://www.w3.org/2000/svg" xmlns:xlink="http://www.w3.org/1999/xlink" x="0px" y="0px"
	 width="100px" height="100px" viewBox="0 0 100 100" enable-background="new 0 0 100 100" xml:space="preserve">
<path d="M50,11.932c-22.18,0-40.225,18.045-40.225,40.225S27.82,92.381,50,92.381s40.225-18.045,40.225-40.225
	S72.18,11.932,50,11.932z M50,88.381c-19.974,0-36.225-16.25-36.225-36.225S30.026,15.932,50,15.932s36.225,16.25,36.225,36.225
	S69.974,88.381,50,88.381z M30.894,50.056c0-3.298,1.025-6.13,2.493-7.38c-4.322-2.227-8.421-5.398-8.781-9.519
	c-0.072-0.825,0.538-1.553,1.364-1.625c0.824-0.069,1.553,0.538,1.625,1.363c0.47,5.384,12.299,9.588,16.818,10.754
	c0.031,0.008,0.058,0.022,0.088,0.032c0.05,0.017,0.1,0.033,0.147,0.055c0.045,0.02,0.087,0.043,0.129,0.066
	c0.042,0.024,0.083,0.049,0.124,0.076c0.042,0.03,0.08,0.063,0.118,0.096c0.035,0.03,0.069,0.061,0.102,0.095
	c0.037,0.039,0.07,0.081,0.103,0.124c0.019,0.024,0.041,0.045,0.059,0.07c0.008,0.013,0.013,0.026,0.021,0.039
	c0.029,0.045,0.052,0.092,0.075,0.14c0.021,0.042,0.042,0.083,0.059,0.126c0.017,0.045,0.028,0.091,0.041,0.138
	c0.013,0.048,0.028,0.095,0.036,0.144c0.007,0.044,0.009,0.09,0.013,0.136c0.004,0.052,0.009,0.104,0.008,0.155
	c-0.001,0.042-0.008,0.084-0.013,0.126c-0.006,0.058-0.013,0.114-0.026,0.17c-0.003,0.013-0.002,0.026-0.006,0.039
	c-0.003,0.014-0.013,0.024-0.017,0.037c-0.042,0.147-0.102,0.29-0.188,0.419c-0.004,0.007-0.01,0.012-0.014,0.019
	c-0.079,0.113-0.177,0.215-0.288,0.306c-0.021,0.018-0.04,0.035-0.061,0.051c-0.017,0.012-0.03,0.027-0.047,0.039l-4.313-0.713
	c-0.705-0.232-1.494-0.509-2.33-0.824c0.627,1.411,1.008,3.242,1.008,5.247c0,4.454-1.868,8.065-4.173,8.065
	C32.762,58.121,30.894,54.51,30.894,50.056z M74.871,33.157c-0.36,4.12-4.459,7.293-8.781,9.519c1.468,1.25,2.493,4.082,2.493,7.38
	c0,4.454-1.868,8.065-4.173,8.065c-2.305,0-4.173-3.611-4.173-8.065c0-2.005,0.381-3.836,1.008-5.247
	c-0.836,0.315-1.625,0.592-2.33,0.824l-4.313,0.713c-0.017-0.012-0.03-0.027-0.047-0.039c-0.021-0.016-0.041-0.033-0.061-0.051
	c-0.111-0.091-0.209-0.192-0.288-0.306c-0.004-0.007-0.01-0.012-0.014-0.019c-0.086-0.129-0.145-0.271-0.188-0.419
	C54,45.5,53.991,45.489,53.987,45.476c-0.003-0.013-0.003-0.026-0.006-0.039c-0.013-0.056-0.02-0.112-0.026-0.17
	c-0.005-0.042-0.012-0.084-0.013-0.126c-0.001-0.052,0.003-0.104,0.008-0.155c0.003-0.046,0.005-0.092,0.013-0.136
	c0.008-0.049,0.023-0.096,0.036-0.144c0.013-0.047,0.024-0.093,0.041-0.138c0.017-0.043,0.039-0.084,0.059-0.126
	c0.023-0.048,0.046-0.095,0.075-0.14c0.008-0.013,0.012-0.026,0.021-0.039c0.018-0.025,0.04-0.046,0.059-0.07
	c0.033-0.043,0.066-0.085,0.103-0.124c0.033-0.034,0.067-0.064,0.102-0.095c0.038-0.033,0.077-0.065,0.118-0.096
	c0.04-0.027,0.082-0.052,0.124-0.076c0.042-0.023,0.084-0.047,0.129-0.066c0.048-0.021,0.097-0.038,0.147-0.055
	c0.03-0.01,0.057-0.024,0.088-0.032c4.519-1.166,16.348-5.37,16.818-10.754c0.072-0.825,0.8-1.433,1.625-1.363
	C74.333,31.604,74.943,32.332,74.871,33.157z M66.967,78.625c0,0.828-0.671,1.5-1.5,1.5s-1.5-0.672-1.5-1.5
	c0-7.03-6.266-12.75-13.967-12.75s-13.966,5.72-13.966,12.75c0,0.828-0.671,1.5-1.5,1.5s-1.5-0.672-1.5-1.5
	c0-8.685,7.611-15.75,16.966-15.75S66.967,69.94,66.967,78.625z"/>
</svg>
