<?xml version="1.0" encoding="utf-8"?>
<!-- Generator: Adobe Illustrator 16.0.0, SVG Export Plug-In . SVG Version: 6.00 Build 0)  -->
<!DOCTYPE svg PUBLIC "-//W3C//DTD SVG 1.1//EN" "http://www.w3.org/Graphics/SVG/1.1/DTD/svg11.dtd">
<svg version="1.1" id="Layer_4" xmlns="http://www.w3.org/2000/svg" xmlns:xlink="http://www.w3.org/1999/xlink" x="0px" y="0px"
	 width="100px" height="100px" viewBox="0 0 100 100" enable-background="new 0 0 100 100" xml:space="preserve">
<path d="M53.756,35.104c1.366-0.707,2.311-2.117,2.311-3.762c0-2.348-1.902-4.25-4.25-4.25s-4.25,1.902-4.25,4.25
	c0,1.65,0.95,3.064,2.324,3.769c-4.624,38.372-18.246,52.53-18.387,52.674c-0.584,0.586-0.583,1.533,0.002,2.118
	c0.586,0.586,1.535,0.586,2.121,0c0.244-0.245,2.646-2.719,5.734-8.157c0.16,0.06,0.332,0.097,0.514,0.097h24.127
	c1.777,3.073,3.769,5.825,6.004,8.061c0.293,0.293,0.677,0.439,1.061,0.439s0.768-0.146,1.061-0.439
	c0.586-0.586,0.586-1.535,0-2.121C59.916,75.57,55.119,45.787,53.756,35.104z M51.834,42.88c0.936,5.706,2.379,12.927,4.511,20.188
	h-9.147C48.949,57.398,50.572,50.717,51.834,42.88z M40.923,78.842c1.716-3.369,3.554-7.597,5.306-12.773h10.838
	c0.066,0,0.129-0.012,0.191-0.02c1.424,4.438,3.119,8.813,5.124,12.793H40.923z M59.643,37.1v-1c3.148,0,5.709-2.562,5.709-5.71
	c0-3.147-2.561-5.709-5.709-5.709v-1c3.699,0,6.709,3.01,6.709,6.709C66.352,34.09,63.342,37.1,59.643,37.1z M62.696,19.427v-1
	c6.712,0,12.173,5.461,12.173,12.174c0,6.712-5.461,12.173-12.173,12.173v-1c6.161,0,11.173-5.012,11.173-11.173
	S68.857,19.427,62.696,19.427z M82.684,30.725c0,9.68-7.875,17.555-17.555,17.555v-1c9.128,0,16.555-7.427,16.555-16.555
	S74.257,14.17,65.129,14.17v-1C74.809,13.17,82.684,21.045,82.684,30.725z M39.148,30.515c0,3.148,2.561,5.71,5.709,5.71v1
	c-3.699,0-6.709-3.01-6.709-6.71c0-3.699,3.01-6.709,6.709-6.709v1C41.709,24.806,39.148,27.367,39.148,30.515z M41.804,18.552v1
	c-6.161,0-11.173,5.013-11.173,11.174s5.012,11.173,11.173,11.173v1c-6.712,0-12.173-5.461-12.173-12.173
	C29.631,24.013,35.092,18.552,41.804,18.552z M39.371,48.404c-9.68,0-17.555-7.875-17.555-17.555s7.875-17.555,17.555-17.555v1
	c-9.128,0-16.555,7.427-16.555,16.555s7.427,16.555,16.555,16.555V48.404z"/>
</svg>
