<?xml version="1.0" encoding="utf-8"?>
<!-- Generator: Adobe Illustrator 16.0.4, SVG Export Plug-In . SVG Version: 6.00 Build 0)  -->
<!DOCTYPE svg PUBLIC "-//W3C//DTD SVG 1.1//EN" "http://www.w3.org/Graphics/SVG/1.1/DTD/svg11.dtd">
<svg version="1.1" id="Capa_1" xmlns="http://www.w3.org/2000/svg" xmlns:xlink="http://www.w3.org/1999/xlink" x="0px" y="0px"
	 width="100px" height="100px" viewBox="0 0 100 100" enable-background="new 0 0 100 100" xml:space="preserve">
<g id="Layer_7">
	<path d="M24.767,30.938h49.87v2.702h-49.87V30.938z M71.688,65.688l2.949,11.584H25.363l2.949-11.584H71.688z M38.223,71.479
		c0-1.387-1.124-2.51-2.51-2.51c-1.386,0-2.511,1.123-2.511,2.51c0,1.388,1.125,2.512,2.511,2.512
		C37.099,73.99,38.223,72.866,38.223,71.479z M65.059,71.479c0-2.131-1.729-3.861-3.861-3.861c-2.133,0-3.86,1.73-3.86,3.861
		c0,2.133,1.729,3.862,3.86,3.862C63.329,75.342,65.059,73.611,65.059,71.479z M93.245,24.76v50.195
		c0,1.279-1.037,2.316-2.315,2.316H75.832l1.124-0.287l-3.468-13.613H26.512l-3.468,13.613l1.124,0.287H9.071
		c-1.28,0-2.316-1.037-2.316-2.316V24.76c0-1.279,1.036-2.317,2.316-2.317h81.857C92.208,22.442,93.245,23.48,93.245,24.76z
		 M20.891,56.807c-0.991-0.926-1.79-2.056-2.314-3.328l-1.099,3.328H20.891z M31.447,49.856c0-2.251-1.826-4.075-4.077-4.075
		s-4.077,1.824-4.077,4.075c0,2.251,1.826,4.078,4.077,4.078S31.447,52.107,31.447,49.856z M74.189,48.801
		c0-3.199-2.594-5.791-5.791-5.791c-3.198,0-5.791,2.592-5.791,5.791c0,3.199,2.593,5.792,5.791,5.792
		C71.598,54.593,74.189,52,74.189,48.801z M82.616,56.807l-1.314-3.979c-0.45,1.45-1.151,2.786-2.034,3.979H82.616z M86.295,31.322
		c0-1.279-1.038-2.316-2.316-2.316H15.635c-1.28,0-2.316,1.037-2.316,2.316V54.49c0,1.08,0.744,1.98,1.745,2.236l3.379-10.234
		l0.036,0.013c1.357-3.597,4.821-6.159,8.892-6.159c5.253,0,9.512,4.259,9.512,9.511c0,2.747-1.17,5.213-3.032,6.95h23.678
		c-1.655-2.242-2.645-5.006-2.645-8.006c0-7.463,6.051-13.514,13.514-13.514c6.771,0,12.361,4.986,13.345,11.482l3.235,9.801
		c0.774-0.375,1.315-1.16,1.315-2.08L86.295,31.322L86.295,31.322z M25.291,77.559l0.072-0.287h-1.195L25.291,77.559z
		 M74.709,77.559l1.123-0.287h-1.195L74.709,77.559z"/>
</g>
</svg>
