<?xml version="1.0" encoding="utf-8"?>
<!-- Generator: Adobe Illustrator 16.0.4, SVG Export Plug-In . SVG Version: 6.00 Build 0)  -->
<!DOCTYPE svg PUBLIC "-//W3C//DTD SVG 1.1//EN" "http://www.w3.org/Graphics/SVG/1.1/DTD/svg11.dtd">
<svg version="1.1" id="Capa_1" xmlns="http://www.w3.org/2000/svg" xmlns:xlink="http://www.w3.org/1999/xlink" x="0px" y="0px"
	 width="100px" height="100px" viewBox="0 0 100 100" enable-background="new 0 0 100 100" xml:space="preserve">
<g id="Layer_7">
	<path d="M89.15,58.828c0-5.303-2.486-10.02-6.353-13.063v-4.302c0-17.63-14.344-31.973-31.973-31.973
		c-17.631,0-31.973,14.343-31.973,31.973v3.15c-4.799,2.915-8.004,8.189-8.004,14.214c0,9.18,7.441,16.62,16.621,16.62v-33.24
		c-1.182,0-2.334,0.126-3.447,0.359v-1.104c0-14.778,12.023-26.802,26.803-26.802s26.803,12.023,26.803,26.802v1.544
		c-1.606-0.518-3.319-0.8-5.101-0.8v33.239c1.078,0,2.127-0.11,3.146-0.307c-1.684,3.576-5.525,8.977-13.664,10.525
		c-0.531-0.592-1.295-0.971-2.152-0.971H54.67c-1.605,0-2.906,1.301-2.906,2.906c0,1.604,1.301,2.905,2.906,2.905h5.188
		c1.244,0,2.3-0.787,2.713-1.888c11.439-2.151,15.568-11.039,16.789-14.653C85.13,71.359,89.15,65.568,89.15,58.828z"/>
</g>
</svg>
