<?xml version="1.0" encoding="utf-8"?>
<!-- Generator: Adobe Illustrator 16.0.0, SVG Export Plug-In . SVG Version: 6.00 Build 0)  -->
<!DOCTYPE svg PUBLIC "-//W3C//DTD SVG 1.1//EN" "http://www.w3.org/Graphics/SVG/1.1/DTD/svg11.dtd">
<svg version="1.1" id="Layer_6" xmlns="http://www.w3.org/2000/svg" xmlns:xlink="http://www.w3.org/1999/xlink" x="0px" y="0px"
	 width="100px" height="100px" viewBox="0 0 100 100" enable-background="new 0 0 100 100" xml:space="preserve">
<path d="M80.671,33.082l-0.097-0.203l-0.422,0.203h-3.855v1.848l-5.687,2.727C65.043,27.535,52.85,20.508,38.694,20.508
	C19.285,20.508,3.551,33.711,3.551,50c0,16.287,15.734,29.492,35.144,29.492c13.874,0,25.868-6.75,31.582-16.547l6.021,3.088v1.947
	h20.152V33.082H80.671z M11.415,46.598c0,0,5.529-19.168,22.487-19.537C33.902,27.061,23.579,30.379,11.415,46.598z M76.297,62.719
	l-4.675-2.398c1.164-2.617,1.894-5.408,2.126-8.314h2.549V62.719z M76.297,49.057H73.81c-0.114-3.055-0.781-5.99-1.921-8.742
	l4.408-2.113V49.057z"/>
</svg>
