<?xml version="1.0" encoding="utf-8"?>
<!-- Generator: Adobe Illustrator 16.0.4, SVG Export Plug-In . SVG Version: 6.00 Build 0)  -->
<!DOCTYPE svg PUBLIC "-//W3C//DTD SVG 1.1//EN" "http://www.w3.org/Graphics/SVG/1.1/DTD/svg11.dtd">
<svg version="1.1" id="Capa_1" xmlns="http://www.w3.org/2000/svg" xmlns:xlink="http://www.w3.org/1999/xlink" x="0px" y="0px"
	 width="100px" height="100px" viewBox="0 0 100 100" enable-background="new 0 0 100 100" xml:space="preserve">
<g id="Layer_7">
	<path d="M58.889,21.133c-0.313-0.696-1.01-1.183-1.822-1.183H45c-0.759,0-1.412,0.428-1.75,1.052
		C17.027,23.246,5.224,37.438,5.224,37.438v40.769c0,0.994,0.806,1.8,1.8,1.8h85.953c0.994,0,1.799-0.806,1.799-1.8V37.438
		C94.775,36.542,83.482,23.672,58.889,21.133z M43.214,26.355c0.327,0.659,1,1.117,1.786,1.117h12.066
		c0.634,0,1.191-0.301,1.558-0.761c17.469,2.392,28.952,10.693,28.952,10.693H11.374C22.622,30.4,33.438,27.25,43.214,26.355z
		 M24.844,72.807c-7.519,0-13.613-6.096-13.613-13.613c0-7.519,6.094-13.612,13.613-13.612c7.518,0,13.613,6.095,13.613,13.612
		S32.362,72.807,24.844,72.807z M41.9,61.214v-2.596c0-0.272,0.386-0.494,0.862-0.494h4.523c0.476,0,0.862,0.222,0.862,0.494v2.596
		c0,0.272-0.386,0.494-0.862,0.494h-4.523C42.286,61.708,41.9,61.486,41.9,61.214z M41.9,53.846v-2.597
		c0-0.272,0.386-0.494,0.862-0.494h4.523c0.476,0,0.862,0.222,0.862,0.494v2.597c0,0.272-0.386,0.493-0.862,0.493h-4.523
		C42.286,54.339,41.9,54.118,41.9,53.846z M59.225,74.831H42.8v-5.853h16.425V74.831z M51.941,58.124h4.522
		c0.478,0,0.862,0.222,0.862,0.494v2.596c0,0.272-0.385,0.494-0.862,0.494h-4.522c-0.477,0-0.862-0.222-0.862-0.494v-2.596
		C51.08,58.346,51.466,58.124,51.941,58.124z M51.08,53.846v-2.597c0-0.272,0.386-0.494,0.861-0.494h4.523
		c0.477,0,0.862,0.222,0.862,0.494v2.597c0,0.272-0.386,0.493-0.862,0.493h-4.523C51.466,54.339,51.08,54.118,51.08,53.846z
		 M60.125,45.805H39.65V41.53h20.476L60.125,45.805L60.125,45.805z M75.695,72.807c-7.519,0-13.612-6.096-13.612-13.613
		c0-7.519,6.095-13.612,13.612-13.612c7.519,0,13.613,6.095,13.613,13.612S83.214,72.807,75.695,72.807z M85.457,59.249
		c0,5.374-4.355,9.729-9.73,9.729s-9.73-4.355-9.73-9.729c0-5.375,4.355-9.731,9.73-9.731C81.1,49.518,85.457,53.874,85.457,59.249z
		 M34.753,59.249c0,5.374-4.356,9.729-9.731,9.729c-5.374,0-9.73-4.355-9.73-9.729c0-5.375,4.356-9.731,9.73-9.731
		S34.753,53.874,34.753,59.249z M46.107,73.607c0.136,0.209,0.301,0.375,0.496,0.498s0.417,0.186,0.667,0.186
		s0.472-0.062,0.668-0.184c0.197-0.121,0.363-0.287,0.498-0.496c0.135-0.209,0.239-0.45,0.311-0.728
		c0.072-0.274,0.108-0.567,0.108-0.876c0-0.307-0.036-0.599-0.106-0.874c-0.071-0.276-0.175-0.518-0.311-0.726
		c-0.137-0.207-0.303-0.371-0.5-0.493s-0.419-0.183-0.668-0.183s-0.472,0.061-0.668,0.184c-0.197,0.123-0.362,0.29-0.496,0.497
		c-0.134,0.207-0.236,0.448-0.307,0.726c-0.071,0.274-0.106,0.565-0.106,0.869c0,0.307,0.036,0.598,0.106,0.872
		C45.87,73.157,45.972,73.398,46.107,73.607z M46.095,71.257c0.055-0.237,0.136-0.444,0.243-0.622s0.239-0.318,0.396-0.422
		c0.157-0.104,0.336-0.154,0.54-0.154c0.206,0,0.388,0.053,0.546,0.156c0.158,0.105,0.29,0.246,0.396,0.422
		c0.105,0.178,0.186,0.383,0.241,0.62s0.082,0.488,0.082,0.752c0,0.261-0.027,0.509-0.08,0.744s-0.133,0.442-0.239,0.622
		c-0.106,0.18-0.238,0.322-0.396,0.428c-0.158,0.105-0.341,0.159-0.55,0.159c-0.206,0-0.388-0.053-0.546-0.157
		s-0.29-0.246-0.396-0.426s-0.185-0.387-0.239-0.622c-0.054-0.235-0.081-0.483-0.081-0.748
		C46.012,71.745,46.041,71.494,46.095,71.257z M49.936,73.299H49.35v-0.587h0.586V73.299z M49.936,71.503H49.35v-0.585h0.586V71.503
		z M50.843,73.607c0.136,0.209,0.302,0.375,0.496,0.498c0.196,0.123,0.417,0.186,0.667,0.186c0.249,0,0.471-0.062,0.668-0.184
		c0.196-0.121,0.362-0.287,0.498-0.496c0.137-0.209,0.239-0.45,0.311-0.728c0.072-0.274,0.108-0.567,0.108-0.876
		c0-0.307-0.034-0.599-0.106-0.874c-0.07-0.276-0.174-0.518-0.311-0.726c-0.136-0.207-0.303-0.371-0.5-0.493
		s-0.42-0.183-0.668-0.183c-0.25,0-0.472,0.061-0.669,0.184c-0.196,0.123-0.362,0.29-0.496,0.497s-0.237,0.448-0.308,0.726
		c-0.07,0.274-0.106,0.565-0.106,0.869c0,0.307,0.036,0.598,0.106,0.872C50.605,73.157,50.708,73.398,50.843,73.607z M50.832,71.257
		c0.055-0.237,0.136-0.444,0.243-0.622c0.106-0.178,0.239-0.318,0.396-0.422s0.336-0.154,0.541-0.154s0.387,0.053,0.545,0.156
		c0.158,0.105,0.291,0.246,0.396,0.422c0.105,0.178,0.186,0.383,0.24,0.62c0.056,0.237,0.084,0.488,0.084,0.752
		c0,0.261-0.027,0.509-0.082,0.744c-0.053,0.235-0.133,0.442-0.238,0.622s-0.236,0.322-0.396,0.428
		c-0.158,0.105-0.34,0.159-0.549,0.159c-0.207,0-0.389-0.053-0.547-0.157s-0.29-0.246-0.396-0.426
		c-0.104-0.18-0.186-0.387-0.238-0.622s-0.08-0.483-0.08-0.748C50.75,71.745,50.775,71.494,50.832,71.257z M56.268,73.205
		c0.045-0.145,0.066-0.29,0.066-0.439c0-0.156-0.023-0.3-0.072-0.431s-0.119-0.245-0.211-0.342c-0.093-0.097-0.205-0.17-0.339-0.226
		c-0.134-0.053-0.287-0.078-0.458-0.078c-0.169,0-0.335,0.027-0.5,0.088c-0.165,0.058-0.307,0.152-0.428,0.281h-0.329
		c0.028-0.387,0.06-0.762,0.088-1.125c0.028-0.365,0.06-0.736,0.092-1.121h2.265v0.322h-1.926l-0.148,1.521
		c0.062-0.059,0.132-0.107,0.211-0.146c0.079-0.037,0.16-0.068,0.246-0.088c0.086-0.021,0.173-0.035,0.261-0.042
		c0.088-0.009,0.173-0.012,0.253-0.012c0.188,0,0.362,0.034,0.523,0.106c0.162,0.073,0.301,0.172,0.416,0.297
		c0.117,0.123,0.209,0.271,0.275,0.438c0.067,0.169,0.102,0.349,0.102,0.542c0,0.216-0.03,0.418-0.09,0.605
		c-0.062,0.188-0.151,0.351-0.273,0.487c-0.122,0.14-0.273,0.246-0.456,0.325s-0.396,0.119-0.638,0.119
		c-0.174,0-0.336-0.023-0.486-0.072s-0.283-0.119-0.4-0.211c-0.115-0.093-0.213-0.207-0.289-0.346s-0.127-0.296-0.15-0.475h0.357
		c0.023,0.135,0.064,0.252,0.123,0.353c0.06,0.099,0.133,0.18,0.219,0.243c0.088,0.062,0.185,0.107,0.289,0.141
		c0.106,0.029,0.218,0.046,0.336,0.046c0.195,0,0.365-0.034,0.508-0.104c0.143-0.07,0.261-0.161,0.355-0.275
		C56.154,73.477,56.225,73.348,56.268,73.205z"/>
</g>
</svg>
