<?xml version="1.0" encoding="utf-8"?>
<!-- Generator: Adobe Illustrator 16.0.0, SVG Export Plug-In . SVG Version: 6.00 Build 0)  -->
<!DOCTYPE svg PUBLIC "-//W3C//DTD SVG 1.1//EN" "http://www.w3.org/Graphics/SVG/1.1/DTD/svg11.dtd">
<svg version="1.1" id="Layer_6" xmlns="http://www.w3.org/2000/svg" xmlns:xlink="http://www.w3.org/1999/xlink" x="0px" y="0px"
	 width="100px" height="100px" viewBox="0 0 100 100" enable-background="new 0 0 100 100" xml:space="preserve">
<path d="M86.667,80.333v4H13.333V15.667h4v64.667H86.667z M39.646,56.246l5.394-12.502l6.787,10.181l8.722-7.51l5.987,6.237
	l12.132-18.396V21.667l-12.25,18.5l-6-6.25l-9,7.75l-6-9l-5.5,12.75l-10.25-10.75l-10.75,4.75v12.454L30.1,46.698L39.646,56.246z
	 M78.667,37.832l-12.25,18.5l-6-6.25l-9,7.75l-6-9l-5.5,12.75l-10.25-11.75l-10.75,4.75v23.335h59.75V37.832z"/>
</svg>
