<?xml version="1.0" encoding="utf-8"?>
<!-- Generator: Adobe Illustrator 16.0.4, SVG Export Plug-In . SVG Version: 6.00 Build 0)  -->
<!DOCTYPE svg PUBLIC "-//W3C//DTD SVG 1.1//EN" "http://www.w3.org/Graphics/SVG/1.1/DTD/svg11.dtd">
<svg version="1.1" id="Capa_1" xmlns="http://www.w3.org/2000/svg" xmlns:xlink="http://www.w3.org/1999/xlink" x="0px" y="0px"
	 width="100px" height="100px" viewBox="0 0 100 100" enable-background="new 0 0 100 100" xml:space="preserve">
<g id="Layer_8">
	<path d="M51.182,40.867c-7.542,0-13.658,6.115-13.658,13.658c0,7.545,6.115,13.658,13.658,13.658
		c7.545,0,13.658-6.115,13.658-13.658C64.84,46.983,58.727,40.867,51.182,40.867z M51.182,60.973c-3.561,0-6.446-2.888-6.446-6.447
		c0-3.562,2.886-6.447,6.446-6.447c3.561,0,6.447,2.886,6.447,6.447C57.629,58.085,54.742,60.973,51.182,60.973z M56.045,55.498
		c-0.521,2.15-1.775,3.691-2.803,3.443c-0.346-0.084-0.62-0.364-0.812-0.778c0.918-0.204,1.904-1.597,2.353-3.44
		c0.345-1.424,0.28-2.756-0.101-3.565c0.151-0.034,0.303-0.038,0.448-0.003C56.156,51.402,56.566,53.348,56.045,55.498z
		 M23.454,69.333c-1.103,1.058-1.139,2.81-0.081,3.911c1.057,1.102,2.808,1.139,3.91,0.081c1.102-1.058,1.139-2.81,0.082-3.911
		C26.308,68.312,24.557,68.275,23.454,69.333z M26.108,72.323c-0.489,0.47-1.268,0.454-1.738-0.036
		c-0.47-0.49-0.453-1.268,0.037-1.738c0.489-0.47,1.268-0.454,1.738,0.036S26.599,71.854,26.108,72.323z M88.529,32.563h-1.502
		V30.65c0-0.604-0.488-1.093-1.092-1.093H62.027l-0.939-8.285c0-0.604-0.488-1.093-1.093-1.093H40.073
		c-0.604,0-1.093,0.489-1.093,1.093l-0.941,8.285H26.248v-1.912h-6.829v1.912h-5.286c-0.604,0-1.093,0.489-1.093,1.093v1.912h-1.57
		c-0.63,0-1.366,0.164-1.366,0.625v2.158c0,0.461,0.736,0.625,1.366,0.625h1.57v42.757c0,0.604,0.489,1.094,1.093,1.094h71.803
		c0.604,0,1.092-0.49,1.092-1.094V35.97h1.504c0.63,0,1.365-0.164,1.365-0.625v-2.158C89.896,32.726,89.16,32.563,88.529,32.563z
		 M13.04,35.424h-1.57c-0.431,0-0.721-0.084-0.819-0.144v-2.028c0.099-0.059,0.389-0.144,0.819-0.144h1.57V35.424z M41.3,22.182
		h17.619v4.37H41.3V22.182z M32.529,64.845l-3.379,7.811c-0.034,0.088-0.072,0.176-0.113,0.262l-0.146,0.34
		c-0.044,0.101-0.107,0.191-0.186,0.267c-0.016,0.016-0.037,0.024-0.055,0.039c-0.132,0.179-0.275,0.35-0.44,0.508
		c-1.571,1.508-4.068,1.455-5.576-0.116c-1.508-1.572-1.456-4.069,0.115-5.576c0.157-0.149,0.325-0.28,0.498-0.399
		c0.06-0.06,0.126-0.113,0.203-0.152l7.956-4.037c0.309-0.156,0.682-0.104,0.933,0.134S32.667,64.527,32.529,64.845z M51.152,72.536
		c-9.857,0-17.848-7.99-17.848-17.847c0-9.857,7.99-17.848,17.848-17.848c9.855,0,17.847,7.99,17.847,17.848
		C68.999,64.546,61.009,72.536,51.152,72.536z M77.467,39.665c-1.734,0-3.142-1.406-3.142-3.142c0-1.735,1.405-3.142,3.142-3.142
		s3.143,1.407,3.143,3.142C80.607,38.258,79.202,39.665,77.467,39.665z M89.352,35.28c-0.101,0.059-0.391,0.144-0.82,0.144h-1.504
		v-2.315h1.504c0.431,0,0.721,0.085,0.82,0.144V35.28z"/>
</g>
</svg>
