<?xml version="1.0" encoding="utf-8"?>
<!-- Generator: Adobe Illustrator 16.0.0, SVG Export Plug-In . SVG Version: 6.00 Build 0)  -->
<!DOCTYPE svg PUBLIC "-//W3C//DTD SVG 1.1//EN" "http://www.w3.org/Graphics/SVG/1.1/DTD/svg11.dtd">
<svg version="1.1" id="Layer_6" xmlns="http://www.w3.org/2000/svg" xmlns:xlink="http://www.w3.org/1999/xlink" x="0px" y="0px"
	 width="100px" height="100px" viewBox="0 0 100 100" enable-background="new 0 0 100 100" xml:space="preserve">
<path d="M86.667,82.012v4H13.333V17.345h4v64.667H86.667z M29.251,71.345h2v-9h1.833V41.012h-1.833v-9.333h-2v9.333h-1.834v21.333
	h1.834V71.345z M40.583,58.178h2v-9.167h1.834V27.678h-1.834v-9.167h-2v9.167H38.75v21.333h1.833V58.178z M51.833,64.845h2v-8.833
	h1.833V34.678h-1.833v-9.5h-2v9.5h-1.834v21.333h1.834V64.845z M64.583,68.595h2v-8.917h1.834V38.345h-1.834v-9.417h-2v9.417H62.75
	v21.333h1.833V68.595z M77.667,58.262h2v-9.25H81.5V27.678h-1.833v-9.083h-2v9.083h-1.834v21.333h1.834V58.262z"/>
</svg>
