<?xml version="1.0" encoding="utf-8"?>
<!-- Generator: Adobe Illustrator 16.0.0, SVG Export Plug-In . SVG Version: 6.00 Build 0)  -->
<!DOCTYPE svg PUBLIC "-//W3C//DTD SVG 1.1//EN" "http://www.w3.org/Graphics/SVG/1.1/DTD/svg11.dtd">
<svg version="1.1" id="Layer_6" xmlns="http://www.w3.org/2000/svg" xmlns:xlink="http://www.w3.org/1999/xlink" x="0px" y="0px"
	 width="100px" height="100px" viewBox="0 0 100 100" enable-background="new 0 0 100 100" xml:space="preserve">
<path d="M86.667,80.333v4H13.333V15.667h4v64.667H86.667z M25.941,46.976c0.565,0,1.101-0.116,1.603-0.3l7.409,11.601
	c-1.028,0.972-1.677,2.34-1.677,3.866c0,2.945,2.388,5.333,5.333,5.333s5.333-2.388,5.333-5.333c0-0.817-0.198-1.582-0.526-2.274
	l9.728-7.109c0.757,0.646,1.726,1.05,2.798,1.05c1.186,0,2.259-0.479,3.042-1.251l9.948,6.223c-0.509,0.887-0.804,1.913-0.804,3.009
	c0,3.35,2.715,6.065,6.064,6.065s6.064-2.715,6.064-6.065s-2.715-6.065-6.064-6.065c-1.525,0-2.916,0.567-3.981,1.497L60.03,50.854
	c0.147-0.435,0.245-0.893,0.245-1.378c0-2.393-1.94-4.333-4.333-4.333s-4.333,1.94-4.333,4.333c0,0.596,0.121,1.164,0.339,1.681
	l-9.711,7.096c-0.953-0.889-2.222-1.443-3.627-1.443c-0.698,0-1.361,0.143-1.973,0.387l-7.398-11.584
	c0.847-0.845,1.371-2.013,1.371-3.303c0-2.578-2.089-4.667-4.667-4.667s-4.667,2.089-4.667,4.667S23.364,46.976,25.941,46.976z"/>
</svg>
