<?xml version="1.0" encoding="utf-8"?>
<!-- Generator: Adobe Illustrator 16.0.0, SVG Export Plug-In . SVG Version: 6.00 Build 0)  -->
<!DOCTYPE svg PUBLIC "-//W3C//DTD SVG 1.1//EN" "http://www.w3.org/Graphics/SVG/1.1/DTD/svg11.dtd">
<svg version="1.1" id="Layer_5" xmlns="http://www.w3.org/2000/svg" xmlns:xlink="http://www.w3.org/1999/xlink" x="0px" y="0px"
	 width="100px" height="100px" viewBox="0 0 100 100" enable-background="new 0 0 100 100" xml:space="preserve">
<path d="M22.626,51.438l2.571-2.57v11.715H5.316V40.702h18.972l-2.571,2.57H7.887v14.74h14.739V51.438z M26.622,39.905l-9.309,9.309
	l-4.007-4.007c-0.65-0.651-1.705-0.651-2.356,0c-0.65,0.651-0.65,1.705,0,2.356l5.185,5.185c0.325,0.325,0.751,0.488,1.178,0.488
	c0.426,0,0.853-0.163,1.178-0.488l10.487-10.487c0.651-0.65,0.651-1.705,0-2.355C28.327,39.254,27.273,39.254,26.622,39.905z
	 M32.31,45.833v8.66h62.9v-8.66H32.31z"/>
</svg>
