<?xml version="1.0" encoding="utf-8"?>
<!-- Generator: Adobe Illustrator 16.0.4, SVG Export Plug-In . SVG Version: 6.00 Build 0)  -->
<!DOCTYPE svg PUBLIC "-//W3C//DTD SVG 1.1//EN" "http://www.w3.org/Graphics/SVG/1.1/DTD/svg11.dtd">
<svg version="1.1" id="Capa_1" xmlns="http://www.w3.org/2000/svg" xmlns:xlink="http://www.w3.org/1999/xlink" x="0px" y="0px"
	 width="100px" height="100px" viewBox="0 0 100 100" enable-background="new 0 0 100 100" xml:space="preserve">
<g id="Layer_8">
	<path d="M82.204,36.395H31.561l48.378-14.072c1.043-0.303,1.646-1.399,1.342-2.442l-2.568-8.829
		c-0.303-1.043-1.398-1.645-2.441-1.342L17.245,26.88c-1.043,0.303-1.645,1.399-1.342,2.442l2.568,8.829
		c0.063,0.216,0.167,0.409,0.291,0.583v8.826c0,1.086,0.884,1.97,1.971,1.97h1.313v39.262c0,0.871,0.707,1.576,1.576,1.576h55.692
		c0.869,0,1.576-0.706,1.576-1.576V49.53h1.312c1.086,0,1.971-0.884,1.971-1.97v-9.195C84.175,37.279,83.29,36.395,82.204,36.395z
		 M56.029,37.183h6.306l-6.286,11.559h-6.305L56.029,37.183z M38.954,37.183h6.306l-6.287,11.559h-6.305L38.954,37.183z
		 M67.016,13.223l9.264,9.343l-6.053,1.761l-9.266-9.343L67.016,13.223z M51.376,17.772l9.265,9.343l-6.054,1.761l-9.266-9.343
		L51.376,17.772z M18.025,33.795l-1.365-4.693c-0.182-0.626,0.18-1.283,0.805-1.465l1.75-0.508l9.189,9.267h-7.671
		c-0.04,0-0.078,0.01-0.117,0.012L18.025,33.795z M26.03,37.183l-3.604,1.049l-0.297-0.299l0.407-0.75H26.03z M22.555,48.742h-1.821
		c-0.652,0-1.183-0.53-1.183-1.182v-4.888l1.799-3.307l7.489-2.179L22.555,48.742z M34.979,22.542l9.265,9.343l-6.054,1.761
		l-9.265-9.343L34.979,22.542z M73.298,71.631H29.429v-2.542h43.869V71.631z M73.298,60.859H29.429v-2.541h43.869V60.859z
		 M72.336,48.742h-6.305l6.285-11.559h6.306L72.336,48.742z"/>
</g>
</svg>
