<?xml version="1.0" encoding="utf-8"?>
<!-- Generator: Adobe Illustrator 16.0.4, SVG Export Plug-In . SVG Version: 6.00 Build 0)  -->
<!DOCTYPE svg PUBLIC "-//W3C//DTD SVG 1.1//EN" "http://www.w3.org/Graphics/SVG/1.1/DTD/svg11.dtd">
<svg version="1.1" id="Capa_1" xmlns="http://www.w3.org/2000/svg" xmlns:xlink="http://www.w3.org/1999/xlink" x="0px" y="0px"
	 width="100px" height="100px" viewBox="0 0 100 100" enable-background="new 0 0 100 100" xml:space="preserve">
<g id="Layer_7">
	<path d="M50.877,50.912c-0.506-2.568-1.008-5.137-1.494-7.708c1.461-1.687,2.918-3.378,4.281-5.149
		c4.711-6.129,11.988-15.438,9.641-23.769c-2.414-8.559-13.838-7.303-17.443-0.531c-3.5,6.572-2.006,15.309-0.906,22.311
		c0.334,2.123,0.709,4.237,1.098,6.35c-2.551,2.946-5.102,5.882-7.08,9.277c-2.848,4.889-4.154,11.539-0.488,16.351
		c2.852,3.743,7.73,5.22,12.282,4.996c0.207-0.011,0.416-0.047,0.625-0.065c0.108,2.209,0.053,4.396-0.275,6.517
		c-0.6,3.864-2.492,10.28-7.588,8.952c-2.105-0.549-4.545-2.172-3.801-4.602c0.416-1.354,2.352-2.818,3.76-2.105
		c0.396,0.201,0.615,0.629,0.822,0.992c0.996,1.75,3.695,0.177,2.697-1.578c-4.168-7.313-14.848,2.058-8.482,8.063
		c3.246,3.063,8.27,3.492,11.541,0.399c3.021-2.858,3.989-7.727,4.368-11.678c0.174-1.812,0.08-3.666-0.103-5.51
		c3.188-0.936,6.08-2.898,7.719-5.818c2.025-3.61,1.752-8.375-0.276-11.9C59.822,51.318,54.824,49.946,50.877,50.912z
		 M48.727,56.201c0.09,0.466,0.184,0.93,0.271,1.396c0.07,0.377,0.145,0.758,0.219,1.139c-0.361-0.566-0.566-1.245-0.58-1.892
		C48.633,56.611,48.666,56.398,48.727,56.201z M47.916,34.896c-1.016-6.459-2.928-16.761,2.355-21.893
		c3.059-2.969,8.602-1.999,10.02,2.113c1.375,3.98-1.254,8.846-3.125,12.207c-2.303,4.142-5.189,7.961-8.176,11.628
		c-0.105,0.13-0.215,0.256-0.32,0.385C48.406,37.858,48.148,36.379,47.916,34.896z M42.115,67.374
		c-6.039-5.029-1.143-13.776,2.574-18.566c0.676-0.871,1.377-1.723,2.088-2.565c0.387,2.001,0.781,4,1.178,6
		c-1.383,1.028-2.326,2.549-2.441,4.603c-0.137,2.435,1.65,5.129,3.941,5.939c0.199,0.07,0.395,0.126,0.586,0.167
		c0.434,2.292,0.838,4.631,1.1,6.966C47.918,70.243,44.531,69.386,42.115,67.374z M56.615,67.98
		c-0.809,0.558-1.701,0.994-2.645,1.319c-0.046-0.37-0.091-0.737-0.136-1.104c-0.231-1.959-0.521-3.91-0.842-5.856
		c1.217-0.866,2.059-2.414,2.502-3.942c0.563-1.938-2.451-2.763-3.013-0.83c-0.053,0.18-0.121,0.412-0.207,0.658
		c-0.149-0.82-0.301-1.643-0.457-2.461c-0.104-0.543-0.211-1.082-0.315-1.623c0.203-0.062,0.401-0.115,0.588-0.162
		c2.525-0.636,5.089-0.285,6.714,1.896C61.646,59.686,60.379,65.383,56.615,67.98z"/>
</g>
</svg>
