<?xml version="1.0" encoding="utf-8"?>
<!-- Generator: Adobe Illustrator 16.0.0, SVG Export Plug-In . SVG Version: 6.00 Build 0)  -->
<!DOCTYPE svg PUBLIC "-//W3C//DTD SVG 1.1//EN" "http://www.w3.org/Graphics/SVG/1.1/DTD/svg11.dtd">
<svg version="1.1" id="Layer_5" xmlns="http://www.w3.org/2000/svg" xmlns:xlink="http://www.w3.org/1999/xlink" x="0px" y="0px"
	 width="100px" height="100px" viewBox="0 0 100 100" enable-background="new 0 0 100 100" xml:space="preserve">
<path d="M27.643,78.721c-3.268-5.764-1.045-14.804,5.717-21.567c7.679-7.678,18.296-9.508,23.716-4.088
	c0.006,0.007,0.013,0.015,0.021,0.022c-1.085,3.157-4.54,9.872-14.896,13.503C32.714,69.918,29.055,75.21,27.643,78.721z
	 M53.885,61.923c-2.477,2.478-5.997,4.911-10.983,6.661c-10.12,3.548-12.947,9.358-13.736,12.172
	c0.038,0.038,0.069,0.078,0.105,0.113c5.42,5.42,16.038,3.59,23.716-4.088c6.832-6.832,9.029-15.988,5.614-21.743
	C57.779,56.955,56.349,59.459,53.885,61.923z M32.944,36.952c10.932,0.958,16.846-3.738,19.134-6.167
	c-0.004-0.01-0.006-0.021-0.009-0.029c-2.706-7.171-13.135-9.877-23.294-6.044c-8.947,3.376-14.698,10.697-14.095,17.296
	C17.414,39.39,22.928,36.076,32.944,36.952z M38.573,50.681c9.041-3.41,14.814-10.848,14.073-17.5
	c-1.539,1.409-3.874,3.102-7.134,4.332c-3.277,1.237-7.487,2.004-12.751,1.543C22.079,38.12,17.108,42.25,15.229,44.49
	c0.019,0.05,0.032,0.099,0.05,0.146C17.985,51.808,28.414,54.515,38.573,50.681z M70.212,35.727
	c6.559-8.799,5.669-16.299,4.804-19.522c-0.01-0.001-0.02-0.005-0.029-0.007c-7.524-1.465-15.305,5.988-17.38,16.646
	c-1.828,9.388,1.382,18.126,7.313,21.08C64.129,50.222,64.206,43.79,70.212,35.727z M77.354,16.981
	c0.39,2.05,0.604,4.926-0.062,8.345c-0.669,3.439-2.228,7.425-5.385,11.662c-6.408,8.598-5.505,14.996-4.586,17.772
	c0.052,0.01,0.101,0.024,0.15,0.035c7.524,1.465,15.305-5.988,17.38-16.646C86.698,28.665,83.402,19.844,77.354,16.981z"/>
</svg>
