<?xml version="1.0" encoding="utf-8"?>
<!-- Generator: Adobe Illustrator 16.0.0, SVG Export Plug-In . SVG Version: 6.00 Build 0)  -->
<!DOCTYPE svg PUBLIC "-//W3C//DTD SVG 1.1//EN" "http://www.w3.org/Graphics/SVG/1.1/DTD/svg11.dtd">
<svg version="1.1" id="Layer_6" xmlns="http://www.w3.org/2000/svg" xmlns:xlink="http://www.w3.org/1999/xlink" x="0px" y="0px"
	 width="100px" height="100px" viewBox="0 0 100 100" enable-background="new 0 0 100 100" xml:space="preserve">
<path d="M86.928,56.509c0,1.475-1.196,2.67-2.67,2.67c-1.257,0-2.304-0.871-2.588-2.041l-15.845-2.283
	c-0.405,1.48-1.026,2.868-1.838,4.127l7.891,4.998c0.88-0.979,2.151-1.598,3.57-1.598c2.653,0,4.805,2.152,4.805,4.806
	c0,2.654-2.151,4.805-4.805,4.805c-2.654,0-4.806-2.15-4.806-4.805c0-0.659,0.133-1.287,0.374-1.858l-7.964-5.044
	c-1.979,2.45-4.718,4.249-7.856,5.068l1.42,8.788c1.859,0.065,3.348,1.583,3.348,3.457c0,1.917-1.554,3.471-3.471,3.471
	c-1.916,0-3.47-1.554-3.47-3.471c0-1.396,0.831-2.594,2.021-3.145l-1.418-8.781c-0.722,0.106-1.454,0.18-2.205,0.18
	c-2.03,0-3.962-0.413-5.726-1.147L39.34,81.948c0.386,0.365,0.63,0.879,0.63,1.452c0,1.106-0.896,2.003-2.002,2.003
	s-2.002-0.896-2.002-2.003c0-1.059,0.824-1.916,1.864-1.988l6.413-17.399c-1.298-0.713-2.479-1.611-3.506-2.662l-9.876,7.213
	c-0.022,1.307-1.085,2.361-2.398,2.361c-1.327,0-2.402-1.075-2.402-2.402s1.075-2.402,2.402-2.402c0.741,0,1.396,0.343,1.836,0.87
	l9.382-6.852c-1.439-1.826-2.465-3.99-2.927-6.36L22.119,55.15c-0.254,2.266-2.175,4.028-4.508,4.028
	c-2.507,0-4.539-2.032-4.539-4.538c0-2.507,2.032-4.54,4.539-4.54c2.13,0,3.913,1.471,4.401,3.451l14.523-1.365
	c-0.036-0.424-0.065-0.851-0.065-1.283c0-2.957,0.87-5.706,2.351-8.026l-3.229-2.434c-0.758,0.687-1.754,1.116-2.857,1.116
	c-2.359,0-4.271-1.912-4.271-4.271s1.912-4.271,4.271-4.271c2.36,0,4.272,1.912,4.272,4.271c0,0.676-0.172,1.307-0.451,1.876
	l3.195,2.407c2.029-2.534,4.866-4.383,8.121-5.178l-2.99-17.032c-1.136-0.19-2.003-1.172-2.003-2.362
	c0-1.327,1.075-2.402,2.402-2.402s2.402,1.075,2.402,2.402c0,0.896-0.496,1.668-1.224,2.082l2.987,17.018
	c0.647-0.086,1.304-0.146,1.974-0.146c1.689,0,3.309,0.286,4.822,0.805l3.417-9.53c-0.386-0.365-0.63-0.879-0.63-1.452
	c0-1.106,0.896-2.003,2.002-2.003s2.002,0.896,2.002,2.003c0,1.059-0.824,1.916-1.864,1.988l-3.439,9.594
	c2.313,1.085,4.307,2.741,5.793,4.793l10.65-6.087c-0.12-0.373-0.202-0.765-0.202-1.178c0-2.143,1.736-3.879,3.879-3.879
	s3.879,1.736,3.879,3.879c0,2.142-1.736,3.878-3.879,3.878c-1.151,0-2.174-0.511-2.885-1.308l-10.57,6.04
	c1.25,2.185,1.976,4.71,1.976,7.407c0,0.813-0.083,1.604-0.208,2.383l15.613,2.249c0.391-0.991,1.352-1.695,2.481-1.695
	C85.731,53.84,86.928,55.034,86.928,56.509z"/>
</svg>
