<?xml version="1.0" encoding="utf-8"?>
<!-- Generator: Adobe Illustrator 16.0.0, SVG Export Plug-In . SVG Version: 6.00 Build 0)  -->
<!DOCTYPE svg PUBLIC "-//W3C//DTD SVG 1.1//EN" "http://www.w3.org/Graphics/SVG/1.1/DTD/svg11.dtd">
<svg version="1.1" id="Layer_6" xmlns="http://www.w3.org/2000/svg" xmlns:xlink="http://www.w3.org/1999/xlink" x="0px" y="0px"
	 width="100px" height="100px" viewBox="0 0 100 100" enable-background="new 0 0 100 100" xml:space="preserve">
<path d="M71.864,27.253v-6.101H27.751v5.852c-4.603,2.955-6.935,7.721-6.935,14.184v30.05c0,12.08,8.361,18.204,24.85,18.204h8.668
	c16.488,0,24.85-6.124,24.85-18.204v-30.05C79.184,34.952,76.722,30.27,71.864,27.253z M75.717,71.237
	c0,9.917-6.994,14.736-21.383,14.736h-8.668c-14.389,0-21.383-4.819-21.383-14.736v-30.05c0-5.594,1.978-9.417,6.047-11.689
	l0.889-0.495V24.62h37.178v4.657l0.902,0.492c4.318,2.363,6.418,6.097,6.418,11.418V71.237z M26.668,16.193V12.87
	c0-1.276,1.034-2.312,2.311-2.312h42.043c1.276,0,2.311,1.035,2.311,2.312v3.323c0,1.276-1.034,2.312-2.311,2.312H28.979
	C27.702,18.505,26.668,17.47,26.668,16.193z M68.691,72.582c0,4.369-6.253,7.911-13.967,7.911c-4.327,0-8.196-1.115-10.758-2.866
	c1.642-1.29,3.205-2.898,4.571-4.75c1.905-2.583,3.257-5.395,3.935-8.103c0.732-0.067,1.484-0.104,2.252-0.104
	C62.438,64.671,68.691,68.213,68.691,72.582z M32.977,77.961c-3.517-2.595-2.654-9.728,1.926-15.936
	c4.579-6.208,11.143-9.136,14.657-6.542c3.518,2.594,2.655,9.729-1.925,15.937C43.054,77.626,36.492,80.555,32.977,77.961z"/>
</svg>
