<?xml version="1.0" encoding="utf-8"?>
<!-- Generator: Adobe Illustrator 16.0.0, SVG Export Plug-In . SVG Version: 6.00 Build 0)  -->
<!DOCTYPE svg PUBLIC "-//W3C//DTD SVG 1.1//EN" "http://www.w3.org/Graphics/SVG/1.1/DTD/svg11.dtd">
<svg version="1.1" id="Layer_6" xmlns="http://www.w3.org/2000/svg" xmlns:xlink="http://www.w3.org/1999/xlink" x="0px" y="0px"
	 width="100px" height="100px" viewBox="0 0 100 100" enable-background="new 0 0 100 100" xml:space="preserve">
<path d="M77.748,36.006C65.083,21.807,49.585,14.903,43.132,20.59c-6.451,5.686-1.417,21.812,11.244,36.014
	c12.664,14.2,28.161,21.104,34.615,15.416C95.444,66.333,90.411,50.209,77.748,36.006z M78.894,43.854
	c0.391-0.35,1.251-0.029,1.922,0.719s0.896,1.637,0.507,1.988c-0.392,0.352-1.252,0.029-1.922-0.717
	C78.729,45.095,78.503,44.206,78.894,43.854z M65.936,33.082c0.21,0.096,0.406,0.938,0.441,1.879s-0.107,1.625-0.314,1.532
	c-0.208-0.099-0.407-0.938-0.444-1.881C65.585,33.672,65.728,32.985,65.936,33.082z M52.354,48.05
	c-0.392,0.351-1.252,0.03-1.921-0.717c-0.672-0.746-0.9-1.638-0.508-1.988c0.391-0.352,1.252-0.031,1.923,0.717
	S52.743,47.698,52.354,48.05z M56.497,43.521c-0.99-0.411-1.809-0.909-1.825-1.11c-0.019-0.202,0.771-0.035,1.76,0.377
	c0.991,0.409,1.81,0.907,1.83,1.109C58.277,44.096,57.489,43.929,56.497,43.521z M58.32,37.397
	c-0.893,0.801-3.073-0.176-4.872-2.179c-1.799-2.004-2.534-4.279-1.644-5.079c0.893-0.8,3.075,0.173,4.874,2.179
	C58.479,34.322,59.214,36.599,58.32,37.397z M61.057,28.344c-0.39,0.35-1.251,0.029-1.922-0.717
	c-0.67-0.747-0.897-1.638-0.506-1.987c0.39-0.351,1.25-0.03,1.92,0.717C61.221,27.104,61.447,27.993,61.057,28.344z M66.648,54.023
	c-0.661,0.593-2.112,0.048-3.243-1.211c-1.132-1.261-1.515-2.764-0.856-3.355c0.661-0.592,2.112-0.051,3.244,1.212
	C66.925,51.93,67.308,53.43,66.648,54.023z M72.178,63.555c-0.394,0.353-1.252,0.031-1.924-0.717
	c-0.67-0.746-0.897-1.635-0.506-1.987c0.39-0.351,1.252-0.029,1.922,0.717C72.34,62.316,72.565,63.207,72.178,63.555z
	 M71.342,45.688c-1.132-1.263-1.437-2.834-0.679-3.513c0.757-0.678,2.287-0.209,3.419,1.054c1.131,1.26,1.436,2.833,0.681,3.512
	C74.005,47.42,72.474,46.947,71.342,45.688z M76.227,59.96c-0.931-0.789-1.62-1.547-1.545-1.69c0.072-0.145,0.889,0.376,1.813,1.165
	c0.929,0.789,1.622,1.549,1.548,1.692C77.969,61.27,77.152,60.748,76.227,59.96z M83.373,60.574
	c-0.409,0.367-1.913-0.649-3.364-2.264c-1.451-1.617-2.298-3.223-1.889-3.59c0.405-0.365,1.911,0.648,3.364,2.266
	C82.936,58.602,83.78,60.209,83.373,60.574z M51.711,59.649c-1.44-1.618-2.788-3.266-4.054-4.933
	c-0.473,0.183-1.01,0.274-1.576,0.232c-1.692-0.13-2.979-1.327-2.876-2.683c0.062-0.806,0.608-1.477,1.392-1.867
	c-2.368-3.61-4.307-7.246-5.734-10.771C22.34,39.895,9.089,47.438,8.24,57.77C7.304,69.212,21.922,79.714,40.89,81.221
	c11.688,0.932,22.289-1.78,28.933-6.672C63.7,71.147,57.417,66.048,51.711,59.649z M25.034,46.834
	c1.001,0.078,1.771,0.701,1.716,1.403c-0.05,0.696-0.906,1.203-1.906,1.128c-1.001-0.074-1.771-0.703-1.718-1.402
	C23.178,47.267,24.034,46.759,25.034,46.834z M25.761,61.891c-2.686-0.203-4.768-1.662-4.647-3.256
	c0.121-1.595,2.396-2.729,5.081-2.523c2.686,0.201,4.767,1.658,4.646,3.253C30.72,60.961,28.445,62.09,25.761,61.891z
	 M31.708,76.173c-1.002-0.072-1.771-0.7-1.719-1.398c0.053-0.703,0.908-1.208,1.909-1.131c1,0.073,1.769,0.7,1.716,1.399
	C33.562,75.744,32.708,76.248,31.708,76.173z M33.625,66.866c-1.012,0.542-1.955,0.845-2.102,0.67c-0.15-0.175,0.548-0.76,1.558-1.3
	c1.01-0.548,1.953-0.849,2.104-0.676C35.332,65.734,34.634,66.317,33.625,66.866z M35.96,51.226
	c-0.22,0.106-0.935-0.503-1.598-1.356c-0.661-0.858-1.018-1.643-0.799-1.745c0.222-0.107,0.935,0.506,1.596,1.36
	C35.82,50.342,36.178,51.121,35.96,51.226z M45.016,69.147c-1.69-0.127-2.989-1.186-2.898-2.366
	c0.088-1.178,1.527-2.031,3.217-1.905c1.691,0.127,2.988,1.185,2.899,2.367C48.146,68.42,46.704,69.271,45.016,69.147z
	 M58.765,71.048c-0.053,0.7-0.906,1.205-1.907,1.132s-1.77-0.7-1.717-1.403c0.052-0.7,0.906-1.204,1.908-1.13
	C58.049,69.724,58.817,70.354,58.765,71.048z"/>
</svg>
