<?xml version="1.0" encoding="utf-8"?>
<!-- Generator: Adobe Illustrator 16.0.0, SVG Export Plug-In . SVG Version: 6.00 Build 0)  -->
<!DOCTYPE svg PUBLIC "-//W3C//DTD SVG 1.1//EN" "http://www.w3.org/Graphics/SVG/1.1/DTD/svg11.dtd">
<svg version="1.1" id="Layer_5" xmlns="http://www.w3.org/2000/svg" xmlns:xlink="http://www.w3.org/1999/xlink" x="0px" y="0px"
	 width="100px" height="100px" viewBox="0 0 100 100" enable-background="new 0 0 100 100" xml:space="preserve">
<path d="M73.365,29.056v-2.045h5.428v-3.375h-5.428v-1.33h-5.295v-7.611H32.063v7.479h-5.428v1.33h-5.428v3.376h5.428v2.045h5.428
	v4.561h-5.428v1.33h-5.428v3.375h5.428v2.045h5.428v5.235h-5.428v1.33h-5.428v3.376h5.428v2.045h5.428v4.898h-5.428v1.33h-5.428
	v3.375h5.428v2.045h5.428v4.369h-5.428v1.33h-5.428v3.375h5.428v2.045h5.428v7.479h36.006v-7.347h5.295v-2.045h5.428v-3.375h-5.428
	v-1.331h-5.295v-4.368h5.295v-2.045h5.428v-3.375h-5.428v-1.33h-5.295v-4.898h5.295v-2.045h5.428v-3.375h-5.428v-1.33h-5.295v-5.235
	h5.295v-2.045h5.428v-3.375h-5.428v-1.33h-5.295v-4.561H73.365z M60.127,23.695c-1.535,0-2.78-1.245-2.78-2.78
	c0-1.535,1.245-2.78,2.78-2.78c1.535,0,2.78,1.245,2.78,2.78C62.907,22.45,61.662,23.695,60.127,23.695z"/>
</svg>
