<?xml version="1.0" encoding="utf-8"?>
<!-- Generator: Adobe Illustrator 16.0.0, SVG Export Plug-In . SVG Version: 6.00 Build 0)  -->
<!DOCTYPE svg PUBLIC "-//W3C//DTD SVG 1.1//EN" "http://www.w3.org/Graphics/SVG/1.1/DTD/svg11.dtd">
<svg version="1.1" id="Layer_5" xmlns="http://www.w3.org/2000/svg" xmlns:xlink="http://www.w3.org/1999/xlink" x="0px" y="0px"
	 width="100px" height="100px" viewBox="0 0 100 100" enable-background="new 0 0 100 100" xml:space="preserve">
<path d="M82.875,36.813v-6.125h-7.5v-6.063h-6V16.75H63.25v7.875h-9.625V16.75H47.5v7.875H36.875V16.75H30.75v7.875h-6.125v6.063
	h-8.25v6.125h8.25v9.625h-8.25v6.125h8.25v10.625h-8.25v6.125h8.25v6.063h6.125v7.875h6.125v-7.875H47.5v7.875h6.125v-7.875h9.625
	v7.875h6.125v-7.875h6v-6.063h7.5v-6.125h-7.5V52.563h7.5v-6.125h-7.5v-9.625H82.875z M75.375,32.688h5.5v2.125h-5.5V32.688z
	 M24.625,67.313h-6.25v-2.125h6.25V67.313z M24.625,50.563h-6.25v-2.125h6.25V50.563z M24.625,34.813h-6.25v-2.125h6.25V34.813z
	 M34.875,81.25H32.75v-5.875h2.125V81.25z M34.875,24.625H32.75V18.75h2.125V24.625z M49.5,18.75h2.125v5.875H49.5V18.75z
	 M51.625,81.25H49.5v-5.875h2.125V81.25z M61.399,61.399H38.601V38.601h22.799V61.399z M65.25,18.75h2.125v5.875H65.25V18.75z
	 M67.375,81.25H65.25v-5.875h2.125V81.25z M66.5,36.62c-1.585,0-2.87-1.285-2.87-2.87s1.285-2.87,2.87-2.87s2.87,1.285,2.87,2.87
	S68.085,36.62,66.5,36.62z M80.875,65.188v2.125h-5.5v-2.125H80.875z M80.875,48.438v2.125h-5.5v-2.125H80.875z"/>
</svg>
