<?xml version="1.0" encoding="utf-8"?>
<!-- Generator: Adobe Illustrator 16.0.0, SVG Export Plug-In . SVG Version: 6.00 Build 0)  -->
<!DOCTYPE svg PUBLIC "-//W3C//DTD SVG 1.1//EN" "http://www.w3.org/Graphics/SVG/1.1/DTD/svg11.dtd">
<svg version="1.1" id="Layer_6" xmlns="http://www.w3.org/2000/svg" xmlns:xlink="http://www.w3.org/1999/xlink" x="0px" y="0px"
	 width="100px" height="100px" viewBox="0 0 100 100" enable-background="new 0 0 100 100" xml:space="preserve">
<path d="M50.347,63.967v-0.607c0-0.665,0.11-1.321,0.321-1.947h-2.516v-8.857h2.194V50h-2.194v-9.581h19.163v1.09h2.555v-1.09
	h19.658v1.09h2.555V17.354c0-1.643-1.337-2.98-2.98-2.98H15.294c-1.644,0-2.98,1.338-2.98,2.98v65.293
	c0,1.009,0.507,1.899,1.277,2.439v0.47h1.069c0.205,0.044,0.416,0.071,0.634,0.071h35.053V83h-2.194v-8.09h2.274
	c-0.048-0.305-0.08-0.612-0.08-0.921v-1.634h-2.194v-8.389H50.347z M69.87,16.928h19.232c0.234,0,0.426,0.191,0.426,0.426v8.588
	H69.87V16.928z M69.87,28.496h19.658v9.368H69.87V28.496z M48.152,16.928h19.163v9.014H48.152V16.928z M48.152,28.496h19.163v9.368
	H48.152V28.496z M24.094,83h-9.021c-0.12-0.074-0.205-0.202-0.205-0.354V74.91h9.226V83z M24.094,72.355h-9.226v-8.389h9.226V72.355
	z M24.094,61.412h-9.226v-8.857h9.226V61.412z M24.094,50h-9.226v-9.581h9.226V50z M24.094,37.864h-9.226v-9.368h9.226V37.864z
	 M45.598,83H26.648v-8.09h18.949V83z M45.598,72.355H26.648v-8.389h18.949V72.355z M45.598,61.412H26.648v-8.857h18.949V61.412z
	 M45.598,50H26.648v-9.581h18.949V50z M45.598,37.864H26.648v-9.368h18.949V37.864z M45.598,25.941H26.648v-9.014h18.949V25.941z
	 M50.031,30.167h15.334V35.5H50.031V30.167z M91.335,44.01H55.367c-0.646,0-1.169,0.523-1.169,1.169v10.63
	c0,0.646,0.522,1.169,1.169,1.169h35.968c0.646,0,1.169-0.523,1.169-1.169v-10.63C92.504,44.533,91.981,44.01,91.335,44.01z
	 M73.351,53.264H57.999v-6.141h15.352V53.264z M91.335,59.69H55.367c-0.646,0-1.169,0.523-1.169,1.169v10.63
	c0,0.646,0.522,1.17,1.169,1.17h35.968c0.646,0,1.169-0.523,1.169-1.17V60.86C92.504,60.214,91.981,59.69,91.335,59.69z
	 M73.351,68.787H57.999v-6.141h15.352V68.787z M91.335,75.221H55.367c-0.646,0-1.169,0.523-1.169,1.169v10.63
	c0,0.646,0.522,1.169,1.169,1.169h35.968c0.646,0,1.169-0.523,1.169-1.169V76.39C92.504,75.744,91.981,75.221,91.335,75.221z
	 M73.351,84.776H57.999v-6.141h15.352V84.776z"/>
</svg>
