<?xml version="1.0" encoding="utf-8"?>
<!-- Generator: Adobe Illustrator 16.0.0, SVG Export Plug-In . SVG Version: 6.00 Build 0)  -->
<!DOCTYPE svg PUBLIC "-//W3C//DTD SVG 1.1//EN" "http://www.w3.org/Graphics/SVG/1.1/DTD/svg11.dtd">
<svg version="1.1" id="Layer_5" xmlns="http://www.w3.org/2000/svg" xmlns:xlink="http://www.w3.org/1999/xlink" x="0px" y="0px"
	 width="100px" height="100px" viewBox="0 0 100 100" enable-background="new 0 0 100 100" xml:space="preserve">
<path d="M63.021,26.333H12.109c-0.915,0-1.656,0.741-1.656,1.655v15.047c0,0.914,0.741,1.655,1.656,1.655h50.912
	c0.914,0,1.655-0.741,1.655-1.655V27.988C64.677,27.074,63.936,26.333,63.021,26.333z M37.565,39.433H15.834V30.74h21.731V39.433z
	 M63.021,48.529H12.109c-0.915,0-1.656,0.741-1.656,1.655v15.047c0,0.915,0.741,1.656,1.656,1.656h50.912
	c0.914,0,1.655-0.741,1.655-1.656V50.185C64.677,49.271,63.936,48.529,63.021,48.529z M37.565,61.405H15.834v-8.692h21.731V61.405z
	 M63.021,70.513H12.109c-0.915,0-1.656,0.741-1.656,1.655v15.047c0,0.914,0.741,1.655,1.656,1.655h50.912
	c0.914,0,1.655-0.741,1.655-1.655V72.168C64.677,71.254,63.936,70.513,63.021,70.513z M37.565,84.038H15.834v-8.692h21.731V84.038z
	 M89.547,12.785v15.047c0,0.914-0.741,1.655-1.656,1.655H69v-1.106c0-3.394-2.762-6.155-6.156-6.155h-0.409v-6.688h-21.73v6.688
	h-5.381v-9.44c0-0.914,0.741-1.655,1.655-1.655h50.912C88.806,11.13,89.547,11.871,89.547,12.785z M89.547,34.981v15.047
	c0,0.915-0.741,1.656-1.656,1.656H69v-1.107c0-1.333-0.431-2.565-1.154-3.575C68.569,45.993,69,44.761,69,43.428V33.326h18.891
	C88.806,33.326,89.547,34.067,89.547,34.981z M89.547,56.965v15.047c0,0.914-0.741,1.655-1.656,1.655H69v-1.106
	c0-1.285-0.397-2.479-1.074-3.468C68.603,68.104,69,66.91,69,65.624V55.31h18.891C88.806,55.31,89.547,56.051,89.547,56.965z"/>
</svg>
