<?xml version="1.0" encoding="utf-8"?>
<!-- Generator: Adobe Illustrator 16.0.0, SVG Export Plug-In . SVG Version: 6.00 Build 0)  -->
<!DOCTYPE svg PUBLIC "-//W3C//DTD SVG 1.1//EN" "http://www.w3.org/Graphics/SVG/1.1/DTD/svg11.dtd">
<svg version="1.1" id="Layer_5" xmlns="http://www.w3.org/2000/svg" xmlns:xlink="http://www.w3.org/1999/xlink" x="0px" y="0px"
	 width="100px" height="100px" viewBox="0 0 100 100" enable-background="new 0 0 100 100" xml:space="preserve">
<path d="M78.027,70c-0.253-4.678-4.005-8.43-8.683-8.683v-3.483h-1v3.483c-4.678,0.253-8.43,4.005-8.683,8.683h-3.442v1h3.442
	c0.253,4.678,4.005,8.43,8.683,8.683v3.483h1v-3.483c4.678-0.253,8.43-4.005,8.683-8.683h4.192v-1H78.027z M68.344,78.683
	c-4.127-0.25-7.433-3.556-7.683-7.683h7.683V78.683z M68.344,70h-7.683c0.25-4.127,3.556-7.433,7.683-7.683V70z M69.344,78.683V71
	h7.683C76.776,75.127,73.471,78.433,69.344,78.683z M69.344,70v-7.683c4.127,0.25,7.433,3.556,7.683,7.683H69.344z M64.369,34.559
	c-0.121-0.75,0.39-1.458,1.14-1.58c0.331-0.054,8.114-1.398,8.582-8.104c0.052-0.75,0.7-1.324,1.468-1.279
	c0.76,0.054,1.333,0.713,1.281,1.471C76.218,33.97,66.048,35.684,65.946,35.7c-0.071,0.011-0.145,0.017-0.218,0.017
	C65.049,35.717,64.478,35.23,64.369,34.559z M22.839,25.067c-0.053-0.758,0.521-1.417,1.278-1.47
	c0.782-0.055,1.418,0.528,1.471,1.278c0.468,6.707,8.25,8.051,8.582,8.105c0.749,0.122,1.26,0.83,1.14,1.579
	c-0.109,0.671-0.68,1.159-1.359,1.159c-0.073,0-0.147-0.006-0.221-0.018C33.63,35.684,23.46,33.97,22.839,25.067z M70.66,46.189
	c0.393,0.016,9.771,0.492,11.653,8.022c0.089,0.357,0.034,0.727-0.155,1.043c-0.189,0.315-0.491,0.539-0.848,0.627
	c-0.108,0.028-0.222,0.042-0.334,0.042c-0.633,0-1.182-0.429-1.336-1.043c-1.378-5.514-9.025-5.935-9.102-5.938
	c-0.366-0.015-0.706-0.173-0.955-0.444s-0.378-0.623-0.362-0.991c0.031-0.74,0.632-1.32,1.368-1.32L70.66,46.189z M29.463,48.942
	c-0.076,0.004-7.729,0.443-9.103,5.938c-0.154,0.614-0.703,1.043-1.336,1.043c-0.113,0-0.226-0.014-0.335-0.042
	c-0.356-0.089-0.657-0.312-0.847-0.627c-0.189-0.316-0.244-0.686-0.155-1.043c1.882-7.53,11.26-8.006,11.658-8.023l0.058-0.001
	c0.74,0,1.344,0.579,1.376,1.318C30.812,48.264,30.222,48.908,29.463,48.942z M43.454,27.998c-0.035-0.274-0.053-0.55-0.053-0.823
	c0-3.575,2.909-6.484,6.484-6.484c3.575,0,6.483,2.909,6.483,6.484c0,0.273-0.018,0.548-0.053,0.823
	c3.891,1.715,7.255,4.99,9.508,9.265l0.258,0.49l-0.492,0.255c-4.225,2.198-8.941,3.313-14.016,3.313h0
	c-7.512,0-13.921-2.408-17.073-3.844l-0.545-0.249l0.293-0.523C36.489,32.711,39.746,29.634,43.454,27.998z M36.25,67.953
	c0.184,0.736-0.265,1.485-1.001,1.67c-0.071,0.019-7.393,1.988-8.341,8.506c-0.098,0.672-0.684,1.179-1.362,1.179
	c-0.066,0-0.133-0.004-0.2-0.015c-0.751-0.109-1.274-0.81-1.165-1.562c1.222-8.395,10.024-10.688,10.398-10.782
	c0.109-0.027,0.223-0.042,0.336-0.042C35.547,66.909,36.096,67.338,36.25,67.953z M68.844,55.75c-0.228,0-0.449,0.024-0.674,0.034
	c0.424-1.92,0.659-3.933,0.659-6.014c0-3.679-0.687-7.198-2.042-10.459l-0.23-0.553l-0.532,0.275
	c-3.512,1.815-9.191,2.868-13.335,3.247l-0.386,0.035l-0.097,0.375c-1.126,4.344-1.79,9.673-2.18,14.619
	c-0.618-7.865-1.525-14.532-1.54-14.634l-0.069-0.473c-7.223-0.773-13.369-3.267-14.447-3.758l-0.506-0.231l-0.227,0.508
	c-1.503,3.373-2.297,7.193-2.297,11.049c0,12.762,8.498,23.146,18.944,23.146c1.391,0,2.744-0.197,4.049-0.547
	c0.81,7.512,7.185,13.382,14.909,13.382c8.271,0,15-6.729,15-15S77.115,55.75,68.844,55.75z M68.844,84.75c-7.72,0-14-6.28-14-14
	s6.28-14,14-14s14,6.28,14,14S76.563,84.75,68.844,84.75z"/>
</svg>
