<?xml version="1.0" encoding="utf-8"?>
<!-- Generator: Adobe Illustrator 16.0.0, SVG Export Plug-In . SVG Version: 6.00 Build 0)  -->
<!DOCTYPE svg PUBLIC "-//W3C//DTD SVG 1.1//EN" "http://www.w3.org/Graphics/SVG/1.1/DTD/svg11.dtd">
<svg version="1.1" id="Layer_5" xmlns="http://www.w3.org/2000/svg" xmlns:xlink="http://www.w3.org/1999/xlink" x="0px" y="0px"
	 width="100px" height="100px" viewBox="0 0 100 100" enable-background="new 0 0 100 100" xml:space="preserve">
<path d="M62.165,62.974c0.246,0.328,0.245,0.778-0.006,1.104L45.002,86.396c-0.173,0.224-0.44,0.355-0.723,0.355
	c-0.281,0-0.549-0.132-0.722-0.355L26.401,64.077c-0.127-0.164-0.189-0.36-0.189-0.555c0-0.19,0.06-0.385,0.182-0.549
	c0.248-0.325,0.682-0.447,1.063-0.298l11.36,4.488v-47.57c0-0.503,0.409-0.909,0.911-0.909h9.105c0.502,0,0.909,0.406,0.909,0.909
	v47.57l11.361-4.488C61.484,62.526,61.919,62.648,62.165,62.974z M71.046,67.856v17.099h4.655V62.652h-3.594l-5.347,2.861
	l1.04,4.095L71.046,67.856z M80.526,43.789c0,5.422-2.068,8.563-3.804,10.244c-1.674,1.643-3.979,2.707-6.485,2.993
	c-0.719,0.113-1.463,0.174-2.169,0.174c-0.186,0-0.36-0.004-0.522-0.012l-0.952-0.046V52.83l1.104,0.116
	c0.518,0.053,1.118-0.005,2.014-0.095c1.414-0.194,2.692-0.784,3.66-1.699c0.646-0.585,1.17-1.294,1.571-2.12
	c-0.923,0.416-1.955,0.63-3.07,0.63c-4.055,0-6.997-3.035-6.997-7.216c0-4.607,3.485-8.216,7.935-8.216
	C77.498,34.23,80.526,37.982,80.526,43.789z M75.746,43.445c0-1.54-0.308-5.122-3.154-5.122c-1.766,0-2.998,1.618-2.998,3.936
	c0,2.011,1.14,3.311,2.904,3.311c1.361,0,2.533-0.61,3.137-1.632C75.69,43.848,75.746,43.726,75.746,43.445z"/>
</svg>
