<?xml version="1.0" encoding="utf-8"?>
<!-- Generator: Adobe Illustrator 16.0.0, SVG Export Plug-In . SVG Version: 6.00 Build 0)  -->
<!DOCTYPE svg PUBLIC "-//W3C//DTD SVG 1.1//EN" "http://www.w3.org/Graphics/SVG/1.1/DTD/svg11.dtd">
<svg version="1.1" id="Layer_6" xmlns="http://www.w3.org/2000/svg" xmlns:xlink="http://www.w3.org/1999/xlink" x="0px" y="0px"
	 width="100px" height="100px" viewBox="0 0 100 100" enable-background="new 0 0 100 100" xml:space="preserve">
<path d="M88,20.022v16.89H12v-16.89H88z M13.689,43.667h72.621c0,20.054-16.257,36.311-36.311,36.311S13.689,63.721,13.689,43.667z
	 M41.344,69.187c0,5.108,4.142,9.25,9.25,9.25c5.109,0,9.25-4.142,9.25-9.25V55.873c0-5.109-4.141-9.251-9.25-9.251
	c-5.108,0-9.25,4.142-9.25,9.251V69.187z M50.379,72.656c3.884,0,7.034-3.149,7.034-7.035c0-3.885-3.15-7.035-7.034-7.035
	c-3.886,0-7.035,3.15-7.035,7.035C43.344,69.507,46.493,72.656,50.379,72.656z"/>
</svg>
