<?xml version="1.0" encoding="utf-8"?>
<!-- Generator: Adobe Illustrator 16.0.0, SVG Export Plug-In . SVG Version: 6.00 Build 0)  -->
<!DOCTYPE svg PUBLIC "-//W3C//DTD SVG 1.1//EN" "http://www.w3.org/Graphics/SVG/1.1/DTD/svg11.dtd">
<svg version="1.1" id="Layer_7" xmlns="http://www.w3.org/2000/svg" xmlns:xlink="http://www.w3.org/1999/xlink" x="0px" y="0px"
	 width="100px" height="100px" viewBox="0 0 100 100" enable-background="new 0 0 100 100" xml:space="preserve">
<path d="M87.629,47.974c0,9.067-7.192,16.466-16.168,16.843c-0.039-0.93-0.341-1.851-0.929-2.628
	c-0.265-0.349-0.584-0.643-0.931-0.899h1.146c7.344,0,13.317-5.974,13.317-13.316c0-7.343-5.974-13.316-13.317-13.316
	c-0.689,0-1.418,0.066-2.227,0.203l-1.139,0.191l-0.642-0.962c-2.479-3.726-6.627-5.95-11.091-5.95c-0.445,0-0.9,0.023-1.348,0.067
	l-1.502,0.153l-0.396-1.458c-1.572-5.783-6.849-9.822-12.837-9.822c-7.341,0-13.315,5.974-13.315,13.316
	c0,0.922,0.099,1.856,0.295,2.777l0.339,1.594l-1.557,0.48c-5.621,1.729-9.396,6.844-9.396,12.727
	c0,7.343,5.975,13.316,13.316,13.316h1.146c-0.348,0.257-0.668,0.552-0.933,0.903c-0.567,0.756-0.886,1.681-0.927,2.624
	c-8.976-0.378-16.165-7.777-16.165-16.843c0-6.931,4.133-13.02,10.435-15.605c-0.077-0.658-0.117-1.317-0.117-1.973
	c0-9.308,7.572-16.879,16.879-16.879c7.104,0,13.417,4.48,15.833,11.062c5.385-0.068,10.404,2.385,13.646,6.612
	c0.588-0.065,1.15-0.097,1.701-0.097C80.057,31.094,87.629,38.666,87.629,47.974z M66.449,62.944L55.34,67.331V41.616
	c0-0.492-0.397-0.89-0.891-0.89h-8.901c-0.49,0-0.89,0.398-0.89,0.89v25.715L33.55,62.944c-0.372-0.147-0.798-0.028-1.038,0.292
	c-0.118,0.158-0.179,0.347-0.179,0.536c0,0.191,0.062,0.383,0.185,0.542l16.776,21.821c0.168,0.219,0.43,0.348,0.706,0.348
	s0.537-0.129,0.706-0.348l16.776-21.821c0.245-0.317,0.246-0.759,0.005-1.078C67.246,62.916,66.821,62.796,66.449,62.944z"/>
</svg>
