<?xml version="1.0" encoding="utf-8"?>
<!-- Generator: Adobe Illustrator 16.0.0, SVG Export Plug-In . SVG Version: 6.00 Build 0)  -->
<!DOCTYPE svg PUBLIC "-//W3C//DTD SVG 1.1//EN" "http://www.w3.org/Graphics/SVG/1.1/DTD/svg11.dtd">
<svg version="1.1" id="Layer_5" xmlns="http://www.w3.org/2000/svg" xmlns:xlink="http://www.w3.org/1999/xlink" x="0px" y="0px"
	 width="100px" height="100px" viewBox="0 0 100 100" enable-background="new 0 0 100 100" xml:space="preserve">
<path d="M34.167,43.626v10.332h48V43.626H34.167z M79.167,50.958h-42v-4.332h42V50.958z M34.167,65.958h48V55.626h-48V65.958z
	 M37.167,58.626h42v4.332h-42V58.626z M34.167,77.875h48V67.543h-48V77.875z M37.167,70.543h42v4.332h-42V70.543z M65.833,40.125h13
	v-18h-13h-3h-45v18h45H65.833z M65.833,25.125h10v12h-10V25.125z M20.833,37.125v-12h42v12H20.833z M67.748,29.676h6.569
	l-3.285,4.176L67.748,29.676z"/>
</svg>
