<?xml version="1.0" encoding="utf-8"?>
<!-- Generator: Adobe Illustrator 16.0.0, SVG Export Plug-In . SVG Version: 6.00 Build 0)  -->
<!DOCTYPE svg PUBLIC "-//W3C//DTD SVG 1.1//EN" "http://www.w3.org/Graphics/SVG/1.1/DTD/svg11.dtd">
<svg version="1.1" id="Layer_6" xmlns="http://www.w3.org/2000/svg" xmlns:xlink="http://www.w3.org/1999/xlink" x="0px" y="0px"
	 width="100px" height="100px" viewBox="0 0 100 100" enable-background="new 0 0 100 100" xml:space="preserve">
<path d="M50,89.666c18.408,0,33.924-12.604,38.379-29.636l0.692-3.229c0.384-2.212,0.595-4.483,0.595-6.802
	c0-21.873-17.794-39.666-39.667-39.666c-21.873,0-39.667,17.793-39.667,39.666C10.333,71.874,28.127,89.666,50,89.666z
	 M20.083,54.764c0.35-0.96,0.602-2.164,0.761-3.471c1.498-3.093,4.461-5.194,2.361-9.836c-0.875-2.132-3.585-3.292-6.256-4.058
	c2.893-7.563,8.306-13.881,15.209-17.931c11.098,8.05,0.93,26.778,11.491,32.312c9.113,4.284,4.288-10.725,11.793-11.26
	c2.68,0,3.752,4.824,5.896,5.897c4.287,2.082,4.825-2.681,9.648,1.341c4.825,4.021,5.005-0.717,6.076-5.541
	c0.536-4.824-5.004-4.377-5.004-7.057c-1.072-8.04,2.681-8.578-4.288-15.545c-0.158-0.158-0.34-0.323-0.516-0.485
	c10.803,6.061,18.124,17.622,18.124,30.868c0,2.129-0.2,4.212-0.563,6.238c-5.983,3.138-16.61-0.809-17.581,8.406
	c-0.416,5.408,4.319,7.923,5.963,12.033c-4.745,4.131-10.596,7.018-17.047,8.154c0.911-0.674,1.478-1.769,1.743-2.858
	c0.592-2.434-1.558-4.353-1.764-6.677c-0.28-3.167-0.979-7.548-5.038-7.685c-1.619-0.052-3.73,0.843-5.116-0.251
	c-1.279-1.008-2.365-2.034-4.042-2.267c-3.934-0.546-7.097,3.015-8.179,6.431c-1.042,3.287,0.123,7.031,0.949,10.371
	c-5.021-2.416-9.379-5.99-12.747-10.364c2.952,1.342,5.907,1.123,6.201-2.828C28.514,63.927,20.37,59.574,20.083,54.764z"/>
</svg>
