<?xml version="1.0" encoding="utf-8"?>
<!-- Generator: Adobe Illustrator 16.0.0, SVG Export Plug-In . SVG Version: 6.00 Build 0)  -->
<!DOCTYPE svg PUBLIC "-//W3C//DTD SVG 1.1//EN" "http://www.w3.org/Graphics/SVG/1.1/DTD/svg11.dtd">
<svg version="1.1" id="Layer_5" xmlns="http://www.w3.org/2000/svg" xmlns:xlink="http://www.w3.org/1999/xlink" x="0px" y="0px"
	 width="100px" height="100px" viewBox="0 0 100 100" enable-background="new 0 0 100 100" xml:space="preserve">
<path d="M68.918,30.319v-5.278H30.75v5.062c-3.982,2.556-6,6.68-6,12.271v26c0,10.451,7.234,15.75,21.5,15.75h7.5
	c14.267,0,21.5-5.299,21.5-15.75v-26C75.25,36.98,73.121,32.929,68.918,30.319z M72.25,68.375c0,8.58-6.051,12.75-18.5,12.75h-7.5
	c-12.448,0-18.5-4.17-18.5-12.75v-26c0-4.839,1.711-8.147,5.232-10.113l0.768-0.429v-3.792h32.168v4.028l0.779,0.427
	c3.736,2.044,5.553,5.275,5.553,9.878V68.375z M29.813,20.75v-2.875c0-1.104,0.896-2,2-2h36.375c1.105,0,2,0.896,2,2v2.875
	c0,1.104-0.895,2-2,2H31.813C30.709,22.75,29.813,21.854,29.813,20.75z M50,40.027c-8.639,0-15.666,7.028-15.666,15.667
	S41.361,71.361,50,71.361c7.271,0,13.399-4.979,15.158-11.705l0.274-1.276c0.151-0.874,0.235-1.77,0.235-2.686
	C65.668,47.055,58.639,40.027,50,40.027z M63.752,58.159c-2.363,1.239-6.561-0.321-6.944,3.319
	c-0.164,2.137,1.706,3.129,2.354,4.753c-1.873,1.632-4.184,2.772-6.732,3.221c0.359-0.267,0.584-0.699,0.688-1.129
	c0.234-0.961-0.614-1.719-0.695-2.637c-0.111-1.251-0.387-2.981-1.99-3.035c-0.64-0.021-1.473,0.332-2.021-0.1
	c-0.505-0.398-0.935-0.803-1.597-0.895c-1.554-0.215-2.803,1.19-3.23,2.54c-0.412,1.298,0.049,2.777,0.375,4.097
	c-1.982-0.955-3.705-2.366-5.035-4.094c1.166,0.53,2.333,0.444,2.449-1.117c0.141-1.887-3.076-3.606-3.189-5.506
	c0.139-0.379,0.238-0.854,0.301-1.371c0.592-1.222,1.762-2.051,0.933-3.885c-0.345-0.842-1.416-1.3-2.471-1.603
	c1.143-2.986,3.28-5.482,6.007-7.082c4.383,3.18,0.367,10.576,4.539,12.761c3.6,1.693,1.693-4.234,4.658-4.446
	c1.059,0,1.481,1.906,2.328,2.329c0.636,0.212,1.906-1.059,3.811,0.529c1.906,1.588,1.977-0.282,2.4-2.188
	c0.211-1.906-1.977-1.729-1.977-2.788c-0.424-3.176,1.059-3.388-1.693-6.14c-0.063-0.063-0.135-0.128-0.204-0.192
	c4.267,2.395,7.158,6.961,7.158,12.192C63.974,56.536,63.895,57.358,63.752,58.159z"/>
</svg>
