<?xml version="1.0" encoding="utf-8"?>
<!-- Generator: Adobe Illustrator 16.0.0, SVG Export Plug-In . SVG Version: 6.00 Build 0)  -->
<!DOCTYPE svg PUBLIC "-//W3C//DTD SVG 1.1//EN" "http://www.w3.org/Graphics/SVG/1.1/DTD/svg11.dtd">
<svg version="1.1" id="Layer_6" xmlns="http://www.w3.org/2000/svg" xmlns:xlink="http://www.w3.org/1999/xlink" x="0px" y="0px"
	 width="100px" height="100px" viewBox="0 0 100 100" enable-background="new 0 0 100 100" xml:space="preserve">
<path fill-rule="evenodd" clip-rule="evenodd" d="M91.705,48.313c-3.058-3.058-8.033-3.058-11.093,0l-8.377,8.379
	c-2.396,2.396-2.915,5.971-1.555,8.878l-3.065,3.065c-2.907-1.36-6.481-0.842-8.878,1.555l-8.379,8.379
	c-3.058,3.058-3.058,8.033,0,11.092c3.06,3.06,8.035,3.06,11.094,0l8.378-8.378c2.501-2.5,2.956-6.281,1.369-9.249l2.88-2.88
	c2.968,1.587,6.75,1.132,9.249-1.368l8.379-8.379C94.766,56.349,94.766,51.372,91.705,48.313z M67.271,78.723l-8.378,8.38
	c-1.646,1.646-4.326,1.646-5.974-0.001s-1.647-4.326,0-5.974l8.377-8.377c0.934-0.934,2.197-1.336,3.416-1.213l-2.235,2.236
	c-0.963,0.962-0.963,2.528,0,3.491c0.962,0.961,2.528,0.961,3.491,0l2.437-2.437C68.701,76.189,68.325,77.669,67.271,78.723z
	 M89.146,56.846l-8.378,8.379c-1.057,1.058-2.534,1.432-3.895,1.135l1.505-1.507c0.963-0.961,0.963-2.527,0-3.49
	c-0.963-0.962-2.527-0.962-3.49,0l-1.306,1.305c-0.123-1.219,0.28-2.483,1.211-3.415l8.379-8.378c1.646-1.647,4.327-1.646,5.974,0
	C90.793,52.521,90.793,55.201,89.146,56.846z M46.024,84.915c0.073,1.828,0.563,3.638,1.476,5.28
	c-10.759,0.371-20.312-3.146-28.453-10.594C11.612,72.803,7.424,64.275,6.29,54.277C3.912,33.33,18.946,13.641,39.74,10.449
	c2.025-0.311,4.073-0.459,6.111-0.682c0.145,0,0.289,0,0.434,0c2.182,0.227,4.388,0.324,6.545,0.699
	c10.813,1.885,19.473,7.297,25.949,16.148c3.529,4.828,5.874,10.174,6.896,15.979c-2.242,0.462-4.303,1.562-5.958,3.216
	l-3.702,3.704c-0.197-0.575-0.317-1.2-0.344-1.887c-0.071-1.871-0.385-2.256-2.299-2.674c-2.005-0.438-2.645-1.34-2.081-3.314
	c0.376-1.316,0.995-2.566,1.558-3.824c0.588-1.313,0.98-2.607,0.68-4.098c-0.271-1.34-0.23-2.707,0.996-3.832
	c-1.143-1.299-2.197-2.557-3.322-3.748c-0.531-0.561-0.977-0.357-1.141,0.43c-0.039,0.193-0.032,0.396-0.078,0.588
	c-0.413,1.754-1.496,2.156-2.91,1.084c-0.236-0.18-0.443-0.434-0.709-0.527c-0.445-0.156-0.951-0.355-1.389-0.281
	c-1.521,0.258-1.771,0.076-1.636-1.432c0.097-1.064-0.276-1.467-1.331-1.418c-0.361,0.018-0.721,0.092-1.082,0.1
	c-1.139,0.018-1.854-0.846-1.572-1.949c0.146-0.57,0.461-1.096,0.598-1.666c0.103-0.424,0.234-1.082,0.019-1.295
	c-0.871-0.855-1.81-1.68-2.839-2.328c-1.854-1.17-3.729-0.314-5.572,0.119c-0.198,1.506-0.406,1.709-1.842,1.283
	c-1.708-0.51-3.332-1.223-4.496-2.691c-0.146-0.186-0.496-0.33-0.729-0.305c-1.763,0.201-3.522,0.432-5.274,0.705
	c-0.252,0.041-0.647,0.379-0.643,0.574c0.006,0.338,0.229,0.92,0.438,0.957c0.569,0.1,1.229,0.098,1.759-0.105
	c0.726-0.281,1.342-0.83,2.047-1.18c0.854-0.424,1.471-0.111,1.713,0.811c0.289,1.092-0.1,2.018-0.99,2.586
	c-1.213,0.771-2.543,1.359-3.799,2.066c-0.883,0.494-1.786,0.982-2.57,1.611c-0.629,0.506-1.066,1.291-0.566,2.098
	c0.465,0.75,1.289,0.574,1.973,0.332c0.702-0.248,1.367-0.615,2.021-0.98c0.398-0.223,0.727-0.57,1.117-0.809
	c0.78-0.475,1.195-0.314,1.494,0.533c0.5,1.424,1.452,1.754,2.727,0.928c0.552-0.357,1.048-0.809,1.622-1.119
	c0.849-0.457,1.757,0.029,1.839,0.92c0.121,1.305,0.424,1.559,1.719,1.414c0.763-0.086,1.523-0.199,2.285-0.301
	c0.068,0.078,0.135,0.154,0.201,0.232c-0.266,0.496-0.42,1.127-0.822,1.457c-0.621,0.506-1.387,0.863-2.134,1.182
	c-1.087,0.463-2.063,0.742-2.101,0.805c0,0,1.525,0.617,0.721,0.846c-1.326,0.375-3.334,2.525-0.45,1.633
	c0.517-0.158,1.045-0.285,1.771-0.482c-0.606,1.824-1.888,2.541-3.157,3.221c-3.797,2.031-3.93,6.898-1.992,9.396
	c0.421,0.543,0.771,1.152,1.069,1.771c0.345,0.713,0.321,1.568-0.364,1.943c-0.46,0.252-1.386,0.199-1.797-0.115
	c-0.997-0.764-1.902-1.693-2.687-2.684c-0.998-1.256-1.716-2.748-2.772-3.945c-3.412-3.863-7.264-3.012-10.561-0.104
	c-0.834,0.736-0.723,1.402,0.197,2.008c0.326,0.213,0.685,0.393,1.049,0.539c1.464,0.592,2.938,1.156,4.402,1.746
	c0.301,0.121,0.609,0.262,0.859,0.463c0.508,0.408,0.535,0.844-0.127,1.107c-0.484,0.191-1.003,0.307-1.515,0.418
	c-0.962,0.209-1.979,0.268-2.876,0.631c-0.52,0.211-1.115,0.855-1.184,1.369c-0.059,0.439,0.523,1.039,0.941,1.443
	c0.313,0.299,0.838,0.363,1.228,0.602c0.541,0.328,1.124,0.648,1.546,1.104c0.711,0.771,1.215,0.963,2.138,0.447
	c0.889-0.496,1.745-1.049,2.603-1.598c1.018-0.648,1.21-0.568,1.797,0.473c0.729,1.295,1.733,2.361,3.365,2.072
	c1.166-0.209,2.272-0.746,3.408-1.129c0.773-0.262,1.534-0.643,2.328-0.736c1.625-0.195,2.87,1.18,2.963,3.084
	c0.091,1.904-0.791,3.33-2.136,4.568c-1.317,1.213-2.027,2.6-1.421,4.484c0.645,2.004-0.041,3.725-1.574,5.057
	c-1.064,0.926-2.24,1.729-3.412,2.518c-1.374,0.922-3.662,5.979-3.158,7.76c0.096,0.334,0.125,0.379,0.1,0.74
	c-0.131,1.898-1.105,1.564-2.801,1.861c-0.957,0.168-0.863-1.861-1.083-2.789c-0.211-0.891-0.21-1.881-0.071-2.793
	c0.136-0.896,0.557-1.748,0.863-2.615c0.642-1.818,0.178-3.365-1.157-4.684c-0.585-0.578-1.224-1.102-1.824-1.664
	c-2.182-2.041-3.241-4.607-3.356-7.547c-0.058-1.48,0.67-2.154,2.137-2.293c0.307-0.029,0.613-0.07,0.92-0.105
	c-0.172-1.23-0.622-1.697-1.825-1.773c-1.143-0.07-1.808-0.715-2.247-1.656c-0.205-0.439-0.242-0.955-0.415-1.412
	c-0.413-1.09-0.702-2.273-1.345-3.215c-0.577-0.848-1.051-1.58-1.028-2.658c0.011-0.504-0.353-1.09-0.703-1.508
	c-0.796-0.943-1.677-1.816-2.548-2.693c-0.342-0.344-0.752-0.621-1.316-1.078c-0.039,0.863-0.039,1.422-0.094,1.973
	c-0.078,0.781-0.088,1.596-0.338,2.322c-0.139,0.406-0.734,0.947-1.075,0.914c-0.435-0.041-1.061-0.533-1.175-0.949
	c-0.209-0.762-0.266-1.645-0.104-2.42c0.755-3.637,1.075-7.287,0.651-10.986c-0.155-1.355-0.343-2.705-0.533-4.207
	c-7.102,8.354-10.504,23.531-3.518,36.945C21.91,77.792,33.516,84.746,46.024,84.915z"/>
</svg>
