<?xml version="1.0" encoding="utf-8"?>
<!-- Generator: Adobe Illustrator 16.0.4, SVG Export Plug-In . SVG Version: 6.00 Build 0)  -->
<!DOCTYPE svg PUBLIC "-//W3C//DTD SVG 1.1//EN" "http://www.w3.org/Graphics/SVG/1.1/DTD/svg11.dtd">
<svg version="1.1" id="Capa_1" xmlns="http://www.w3.org/2000/svg" xmlns:xlink="http://www.w3.org/1999/xlink" x="0px" y="0px"
	 width="100px" height="100px" viewBox="0 0 100 100" enable-background="new 0 0 100 100" xml:space="preserve">
<g id="Layer_8">
	<path d="M79.84,60.527H20.161c-1.23,0-2.368-0.656-2.983-1.723c-0.616-1.065-0.616-2.38,0-3.445l29.839-35.76
		c0.615-1.066,1.753-1.723,2.983-1.723c1.23,0,2.369,0.657,2.984,1.723l29.84,35.76c0.307,0.533,0.461,1.127,0.461,1.723
		c0,0.595-0.154,1.189-0.461,1.723C82.208,59.871,81.07,60.527,79.84,60.527z M83.25,80.745V69.376c0-0.761-0.617-1.378-1.379-1.378
		H18.129c-0.761,0-1.378,0.617-1.378,1.378v11.369c0,0.761,0.617,1.378,1.378,1.378h63.742C82.633,82.124,83.25,81.506,83.25,80.745
		z"/>
</g>
</svg>
