<?xml version="1.0" encoding="utf-8"?>
<!-- Generator: Adobe Illustrator 16.0.0, SVG Export Plug-In . SVG Version: 6.00 Build 0)  -->
<!DOCTYPE svg PUBLIC "-//W3C//DTD SVG 1.1//EN" "http://www.w3.org/Graphics/SVG/1.1/DTD/svg11.dtd">
<svg version="1.1" id="Layer_5" xmlns="http://www.w3.org/2000/svg" xmlns:xlink="http://www.w3.org/1999/xlink" x="0px" y="0px"
	 width="100px" height="100px" viewBox="0 0 100 100" enable-background="new 0 0 100 100" xml:space="preserve">
<path d="M94.382,55.749H82.644v-4.914H50.759v-6.583h11.739c0.882,0,1.601-0.718,1.601-1.602V27.198
	c0-0.883-0.718-1.602-1.601-1.602H37.021c-0.883,0-1.602,0.718-1.602,1.602V42.65c0,0.883,0.718,1.602,1.602,1.602h11.738v6.583
	H16.258v4.914H5.618c-0.883,0-1.602,0.718-1.602,1.601v15.452c0,0.883,0.718,1.602,1.602,1.602h25.477
	c0.883,0,1.602-0.718,1.602-1.602V57.35c0-0.882-0.718-1.601-1.602-1.601H18.258v-2.914h30.501v2.914H37.021
	c-0.883,0-1.602,0.718-1.602,1.601v15.452c0,0.883,0.718,1.602,1.602,1.602h25.478c0.882,0,1.601-0.718,1.601-1.602V57.35
	c0-0.882-0.718-1.601-1.601-1.601H50.759v-2.914h29.885v2.914H68.905c-0.883,0-1.602,0.718-1.602,1.601v15.452
	c0,0.883,0.718,1.602,1.602,1.602h25.477c0.883,0,1.602-0.718,1.602-1.602V57.35C95.983,56.467,95.265,55.749,94.382,55.749z
	 M37.077,42.594V27.255H62.44v15.339H37.077z M31.038,57.406v15.339H5.675V57.406H31.038z M62.44,57.406v15.339H37.077V57.406H62.44
	z M94.325,57.406v15.339H68.962V57.406H94.325z"/>
</svg>
