<?xml version="1.0" encoding="utf-8"?>
<!-- Generator: Adobe Illustrator 16.0.0, SVG Export Plug-In . SVG Version: 6.00 Build 0)  -->
<!DOCTYPE svg PUBLIC "-//W3C//DTD SVG 1.1//EN" "http://www.w3.org/Graphics/SVG/1.1/DTD/svg11.dtd">
<svg version="1.1" id="Layer_5" xmlns="http://www.w3.org/2000/svg" xmlns:xlink="http://www.w3.org/1999/xlink" x="0px" y="0px"
	 width="100px" height="100px" viewBox="0 0 100 100" enable-background="new 0 0 100 100" xml:space="preserve">
<path d="M77.996,65.152V34.848c0-1.662-1.352-3.014-3.014-3.014H25.018c-1.662,0-3.014,1.352-3.014,3.014v30.305
	c0,1.662,1.352,3.014,3.014,3.014h49.965C76.644,68.166,77.996,66.814,77.996,65.152z M74.996,65.152
	c0,0.008-0.006,0.014-0.014,0.014l-49.979-0.014l0.014-30.318l49.979,0.014V65.152z M12.71,51.86v-9c0-0.82,0.67-1.5,1.5-1.5
	s1.5,0.68,1.5,1.5v9c0,0.83-0.67,1.5-1.5,1.5S12.71,52.69,12.71,51.86z M87.29,28.27v9c0,0.83-0.67,1.5-1.5,1.5
	c-0.83,0-1.5-0.67-1.5-1.5v-9c0-0.83,0.67-1.5,1.5-1.5C86.62,26.77,87.29,27.44,87.29,28.27z M12.71,69.86v-9
	c0-0.82,0.67-1.5,1.5-1.5s1.5,0.68,1.5,1.5v9c0,0.83-0.67,1.5-1.5,1.5S12.71,70.69,12.71,69.86z M16.22,88.5
	c-0.28,0.38-0.72,0.6-1.2,0.6c-0.33,0-0.64-0.1-0.9-0.29c-0.88-0.66-1.41-1.71-1.41-2.81v-7.14c0-0.82,0.67-1.5,1.5-1.5
	s1.5,0.68,1.5,1.5V86c0,0.16,0.07,0.3,0.2,0.4C16.58,86.9,16.71,87.84,16.22,88.5z M27.7,12c0-0.83,0.68-1.5,1.5-1.5h9
	c0.83,0,1.5,0.67,1.5,1.5c0,0.83-0.67,1.5-1.5,1.5h-9C28.38,13.5,27.7,12.83,27.7,12z M63.7,12c0-0.83,0.68-1.5,1.5-1.5h9
	c0.83,0,1.5,0.67,1.5,1.5c0,0.83-0.67,1.5-1.5,1.5h-9C64.38,13.5,63.7,12.83,63.7,12z M45.71,12c0-0.83,0.67-1.5,1.5-1.5h9
	c0.82,0,1.49,0.67,1.49,1.5c0,0.83-0.67,1.5-1.49,1.5h-9C46.38,13.5,45.71,12.83,45.71,12z M21.7,12c0,0.83-0.67,1.5-1.5,1.5h-3.99
	c-0.27,0-0.5,0.22-0.5,0.5v1.85v0.01c0,0.83-0.67,1.5-1.5,1.5s-1.5-0.67-1.5-1.5V14c0-1.93,1.57-3.5,3.5-3.5h3.99
	C21.03,10.5,21.7,11.17,21.7,12z M12.71,33.86v-9c0-0.82,0.67-1.49,1.5-1.49s1.5,0.67,1.5,1.49v9c0,0.83-0.67,1.5-1.5,1.5
	S12.71,34.69,12.71,33.86z M34.43,88c0,0.83-0.67,1.5-1.5,1.5h-9c-0.83,0-1.5-0.67-1.5-1.5c0-0.83,0.67-1.5,1.5-1.5h9
	C33.76,86.5,34.43,87.17,34.43,88z M87.29,46.27v9c0,0.83-0.67,1.5-1.5,1.5c-0.83,0-1.5-0.67-1.5-1.5v-9c0-0.82,0.67-1.5,1.5-1.5
	C86.62,44.77,87.29,45.45,87.29,46.27z M87.29,82.27V86c0,1.93-1.57,3.5-3.5,3.5h-5.86c-0.83,0-1.5-0.67-1.5-1.5
	c0-0.83,0.67-1.5,1.5-1.5h5.86c0.27,0,0.5-0.23,0.5-0.5v-3.73c0-0.82,0.67-1.5,1.5-1.5C86.62,80.77,87.29,81.45,87.29,82.27z
	 M87.29,64.27v9c0,0.83-0.67,1.5-1.5,1.5c-0.83,0-1.5-0.67-1.5-1.5v-9c0-0.83,0.67-1.5,1.5-1.5C86.62,62.77,87.29,63.44,87.29,64.27
	z M87.29,14v5.27c0,0.83-0.67,1.5-1.5,1.5c-0.83,0-1.5-0.67-1.5-1.5V14c0-0.28-0.23-0.5-0.5-0.5H83.2c-0.82,0-1.49-0.67-1.49-1.5
	c0-0.83,0.67-1.5,1.49-1.5h0.59C85.72,10.5,87.29,12.07,87.29,14z M52.43,88c0,0.83-0.67,1.5-1.5,1.5h-9c-0.83,0-1.5-0.67-1.5-1.5
	c0-0.83,0.67-1.5,1.5-1.5h9C51.76,86.5,52.43,87.17,52.43,88z M70.43,88c0,0.83-0.67,1.5-1.5,1.5h-9c-0.83,0-1.5-0.67-1.5-1.5
	c0-0.83,0.67-1.5,1.5-1.5h9C69.76,86.5,70.43,87.17,70.43,88z"/>
</svg>
