<?xml version="1.0" encoding="utf-8"?>
<!-- Generator: Adobe Illustrator 16.0.0, SVG Export Plug-In . SVG Version: 6.00 Build 0)  -->
<!DOCTYPE svg PUBLIC "-//W3C//DTD SVG 1.1//EN" "http://www.w3.org/Graphics/SVG/1.1/DTD/svg11.dtd">
<svg version="1.1" id="Layer_7" xmlns="http://www.w3.org/2000/svg" xmlns:xlink="http://www.w3.org/1999/xlink" x="0px" y="0px"
	 width="100px" height="100px" viewBox="0 0 100 100" enable-background="new 0 0 100 100" xml:space="preserve">
<path d="M89.489,42.369c0.101-0.788,0.168-1.586,0.168-2.399c0-6.997-3.835-13.139-9.621-16.686
	C72.663,15.004,61.933,9.775,50,9.775c-11.934,0-22.664,5.229-30.037,13.509c-5.785,3.547-9.62,9.688-9.62,16.686
	c0,0.813,0.067,1.611,0.168,2.399C10.034,44.842,9.775,47.391,9.775,50C9.775,72.18,27.82,90.225,50,90.225S90.225,72.18,90.225,50
	C90.225,47.391,89.966,44.842,89.489,42.369z M50,13.775c7.611,0,14.679,2.365,20.516,6.391c-0.639-0.055-1.283-0.092-1.937-0.092
	H31.422c-0.654,0-1.299,0.037-1.938,0.093C35.321,16.141,42.389,13.775,50,13.775z M50,86.225
	c-19.684,0-35.738-15.782-36.203-35.355c3.768,5.415,10.249,8.997,17.625,8.997c8.039,0,15.023-4.25,18.578-10.497
	c3.556,6.247,10.539,10.497,18.579,10.497c7.376,0,13.856-3.582,17.624-8.997C85.738,70.442,69.684,86.225,50,86.225z
	 M61.822,64.752l2.773,1.143c-2.46,5.972-8.221,9.83-14.676,9.83c-6.259,0-11.95-3.699-14.499-9.423l2.74-1.221
	c2.067,4.644,6.684,7.644,11.759,7.644C55.154,72.725,59.826,69.595,61.822,64.752z"/>
</svg>
