<?xml version="1.0" encoding="utf-8"?>
<!-- Generator: Adobe Illustrator 16.0.0, SVG Export Plug-In . SVG Version: 6.00 Build 0)  -->
<!DOCTYPE svg PUBLIC "-//W3C//DTD SVG 1.1//EN" "http://www.w3.org/Graphics/SVG/1.1/DTD/svg11.dtd">
<svg version="1.1" id="Layer_6" xmlns="http://www.w3.org/2000/svg" xmlns:xlink="http://www.w3.org/1999/xlink" x="0px" y="0px"
	 width="100px" height="100px" viewBox="0 0 100 100" enable-background="new 0 0 100 100" xml:space="preserve">
<path d="M7.646,11.532v76.937h76.938V11.532H7.646z M71.646,51.196c-2.454,2.939-11.576,12.785-24.064,13.402
	c-9.133,0.457-18.242-4.106-26.998-13.528v-2.142c2.242-2.723,11.475-12.935,24.199-13.564c9.098-0.448,18.149,4.061,26.863,13.384
	V51.196z M10.646,14.532h33.969v18.839c-15.541,0.808-25.744,14.455-26.171,15.037L18.57,48.5h-7.924V14.532z M10.646,85.468V51.5
	h7.872l-0.146,0.132c8.442,9.364,17.255,14.376,26.243,14.941v18.895H10.646z M81.584,85.468H47.615V66.597
	c0.027-0.001,0.055,0,0.082-0.002c15.571-0.779,25.796-14.458,26.224-15.041L73.847,51.5h7.737V85.468z M81.584,48.5h-7.779
	l0.188-0.169c-8.484-9.411-17.342-14.404-26.378-14.934V14.532h33.969V48.5z M46.116,39.075C34.722,39.075,25.485,50,25.485,50
	s9.236,10.925,20.631,10.925C57.51,60.925,66.746,50,66.746,50S57.51,39.075,46.116,39.075z M46.115,56.217
	c-3.434,0-6.217-2.784-6.217-6.217s2.783-6.217,6.217-6.217c3.435,0,6.218,2.784,6.218,6.217S49.55,56.217,46.115,56.217z
	 M48.25,45.75L46.115,50l-1.865-4.25C46,43.5,48.25,45.75,48.25,45.75z"/>
</svg>
