<?xml version="1.0" encoding="utf-8"?>
<!-- Generator: Adobe Illustrator 16.0.0, SVG Export Plug-In . SVG Version: 6.00 Build 0)  -->
<!DOCTYPE svg PUBLIC "-//W3C//DTD SVG 1.1//EN" "http://www.w3.org/Graphics/SVG/1.1/DTD/svg11.dtd">
<svg version="1.1" id="Layer_6" xmlns="http://www.w3.org/2000/svg" xmlns:xlink="http://www.w3.org/1999/xlink" x="0px" y="0px"
	 width="100px" height="100px" viewBox="0 0 100 100" enable-background="new 0 0 100 100" xml:space="preserve">
<path d="M83.516,25.898l-6.057-10.494c-0.072-0.12-0.199-0.193-0.332-0.193c-0.141,0-0.268,0.073-0.334,0.193l-6.057,10.494
	c-0.041,0.061-0.053,0.127-0.053,0.193V36.74h-5.631V26.092c0-0.066-0.02-0.133-0.055-0.193l-6.057-10.494
	c-0.072-0.12-0.199-0.193-0.332-0.193c-0.141,0-0.268,0.073-0.334,0.193l-6.063,10.494c-0.027,0.061-0.047,0.127-0.047,0.193V36.74
	h-5.23V26.092c0-0.066-0.021-0.133-0.055-0.193l-6.063-10.494c-0.066-0.12-0.193-0.193-0.334-0.193c-0.133,0-0.26,0.073-0.326,0.193
	l-6.064,10.494c-0.033,0.061-0.053,0.127-0.053,0.193V36.74h-4.725V26.092c0-0.066-0.012-0.133-0.053-0.193l-6.057-10.494
	c-0.074-0.12-0.193-0.193-0.334-0.193c-0.139,0-0.26,0.073-0.332,0.193l-6.057,10.494c-0.041,0.061-0.055,0.127-0.055,0.193V36.74
	v5.077v22.476v5.077v15.039c0,0.207,0.174,0.38,0.381,0.38h12.127c0.207,0,0.379-0.173,0.379-0.38V69.37h4.725v15.039
	c0,0.207,0.174,0.38,0.387,0.38h12.121c0.213,0,0.387-0.173,0.387-0.38V69.37h5.23v15.039c0,0.207,0.166,0.38,0.379,0.38h12.127
	c0.207,0,0.381-0.173,0.381-0.38V69.37h5.631v15.039c0,0.207,0.172,0.38,0.379,0.38h12.127c0.207,0,0.381-0.173,0.381-0.38V69.37
	v-5.077V41.817V36.74V26.092C83.57,26.025,83.549,25.959,83.516,25.898z M22.52,67.904c-0.746,0-1.352-0.606-1.352-1.353
	c0-0.753,0.605-1.359,1.352-1.359c0.748,0,1.354,0.606,1.354,1.359C23.873,67.298,23.268,67.904,22.52,67.904z M22.52,39.825
	c-0.746,0-1.352-0.606-1.352-1.353c0-0.753,0.605-1.359,1.352-1.359c0.748,0,1.354,0.606,1.354,1.359
	C23.873,39.219,23.268,39.825,22.52,39.825z M34.041,64.293h-4.725V41.817h4.725V64.293z M40.832,67.904
	c-0.748,0-1.354-0.606-1.354-1.353c0-0.753,0.605-1.359,1.354-1.359c0.746,0,1.359,0.606,1.359,1.359
	C42.191,67.298,41.578,67.904,40.832,67.904z M40.832,39.825c-0.748,0-1.354-0.606-1.354-1.353c0-0.753,0.605-1.359,1.354-1.359
	c0.746,0,1.359,0.606,1.359,1.359C42.191,39.219,41.578,39.825,40.832,39.825z M52.166,64.293h-5.23V41.817h5.23V64.293z
	 M58.969,67.904c-0.754,0-1.359-0.606-1.359-1.353c0-0.753,0.605-1.359,1.359-1.359c0.746,0,1.354,0.606,1.354,1.359
	C60.322,67.298,59.715,67.904,58.969,67.904z M58.969,39.825c-0.754,0-1.359-0.606-1.359-1.353c0-0.753,0.605-1.359,1.359-1.359
	c0.746,0,1.354,0.606,1.354,1.359C60.322,39.219,59.715,39.825,58.969,39.825z M70.684,64.293h-5.631V41.817h5.631V64.293z
	 M77.279,67.904c-0.752,0-1.359-0.606-1.359-1.353c0-0.753,0.607-1.359,1.359-1.359c0.746,0,1.354,0.606,1.354,1.359
	C78.633,67.298,78.025,67.904,77.279,67.904z M77.279,39.825c-0.752,0-1.359-0.606-1.359-1.353c0-0.753,0.607-1.359,1.359-1.359
	c0.746,0,1.354,0.606,1.354,1.359C78.633,39.219,78.025,39.825,77.279,39.825z"/>
</svg>
