<?xml version="1.0" encoding="utf-8"?>
<!-- Generator: Adobe Illustrator 16.0.4, SVG Export Plug-In . SVG Version: 6.00 Build 0)  -->
<!DOCTYPE svg PUBLIC "-//W3C//DTD SVG 1.1//EN" "http://www.w3.org/Graphics/SVG/1.1/DTD/svg11.dtd">
<svg version="1.1" id="Capa_1" xmlns="http://www.w3.org/2000/svg" xmlns:xlink="http://www.w3.org/1999/xlink" x="0px" y="0px"
	 width="100px" height="100px" viewBox="0 0 100 100" enable-background="new 0 0 100 100" xml:space="preserve">
<g id="Layer_8">
	<path d="M83.645,11.238h-1.701v7.443h-5.398v-7.443h-4.352v16.65H26.115v-16.65H23.06v7.443h-5.397v-7.442
		c-1.887,0.013-3.412,1.545-3.412,3.434v70.653c0,1.896,1.537,3.435,3.436,3.435h8.429V66.135h46.077v22.626h11.451
		c1.897,0,2.104-1.538,2.104-3.435V14.673C85.749,12.776,85.542,11.238,83.645,11.238z M23.061,86.648h-5.397v-8.475h5.397V86.648z
		 M23.061,73.521h-5.397v-8.475h5.397V73.521z M23.061,59.436h-5.397v-8.474h5.397V59.436z M23.061,46.164h-5.397V37.69h5.397
		V46.164z M23.061,32.079h-5.397v-8.474h5.397V32.079z M72.191,60.868H26.115V33.156h46.076V60.868z M81.941,86.648h-5.397v-8.475
		h5.397V86.648z M81.941,73.521h-5.397v-8.475h5.397V73.521z M81.941,59.436h-5.397v-8.474h5.397V59.436z M81.941,46.164h-5.397
		V37.69h5.397V46.164z M81.941,32.079h-5.397v-8.474h5.397V32.079z"/>
</g>
</svg>
