<?xml version="1.0" encoding="utf-8"?>
<!-- Generator: Adobe Illustrator 16.0.0, SVG Export Plug-In . SVG Version: 6.00 Build 0)  -->
<!DOCTYPE svg PUBLIC "-//W3C//DTD SVG 1.1//EN" "http://www.w3.org/Graphics/SVG/1.1/DTD/svg11.dtd">
<svg version="1.1" id="Layer_5" xmlns="http://www.w3.org/2000/svg" xmlns:xlink="http://www.w3.org/1999/xlink" x="0px" y="0px"
	 width="100px" height="100px" viewBox="0 0 100 100" enable-background="new 0 0 100 100" xml:space="preserve">
<path d="M80.78,25.389v-6.489c0-0.059-0.008-0.117-0.023-0.173c-0.565-5.017-16.05-7.722-30.477-7.722
	c-14.421,0-29.899,2.703-30.475,7.717c-0.017,0.056-0.025,0.116-0.025,0.178v6.489c0,0.223,0.114,0.431,0.303,0.55L42.24,39.905V64
	c0,0.205,0.098,0.4,0.264,0.522c0.113,0.084,0.249,0.127,0.386,0.127c0.063,0,0.128-0.008,0.19-0.028l14.781-4.542
	c0.272-0.084,0.459-0.335,0.459-0.621V39.905l22.157-13.967C80.666,25.819,80.78,25.611,80.78,25.389z M73.968,19.003
	c-2.586,0.844-4.953,1.463-7.234,1.894c-1.097,0.205-2.224,0.38-3.328,0.545c-4.03,0.462-8.652,0.702-13.367,0.702
	c-16.297,0-24.822-2.605-24.822-4.002c0-1.397,8.525-4.001,24.822-4.001c16.296,0,24.821,2.604,24.821,4.001
	C74.859,18.311,74.598,18.65,73.968,19.003z M40.248,71.993c0.177,0.233,0.176,0.556-0.004,0.789L27.976,88.74
	c-0.123,0.161-0.314,0.255-0.517,0.255c-0.201,0-0.393-0.094-0.516-0.255L14.675,72.782c-0.091-0.117-0.136-0.258-0.136-0.397
	c0-0.137,0.043-0.275,0.131-0.392c0.177-0.233,0.487-0.321,0.76-0.214l8.123,3.21V56.182c0-0.358,0.292-0.65,0.651-0.65h6.511
	c0.359,0,0.65,0.292,0.65,0.65v18.808l8.124-3.21C39.762,71.672,40.072,71.76,40.248,71.993z M85.461,72.141
	c0,0.137-0.043,0.275-0.131,0.393c-0.177,0.232-0.487,0.32-0.76,0.213l-8.123-3.209v18.807c0,0.359-0.292,0.65-0.651,0.65h-6.511
	c-0.359,0-0.65-0.291-0.65-0.65V69.537l-8.124,3.209c-0.272,0.107-0.583,0.02-0.759-0.213c-0.177-0.234-0.176-0.557,0.004-0.789
	l12.269-15.959c0.123-0.16,0.314-0.254,0.517-0.254c0.201,0,0.393,0.094,0.516,0.254l12.269,15.959
	C85.416,71.861,85.461,72.002,85.461,72.141z"/>
</svg>
