<?xml version="1.0" encoding="utf-8"?>
<!-- Generator: Adobe Illustrator 16.0.0, SVG Export Plug-In . SVG Version: 6.00 Build 0)  -->
<!DOCTYPE svg PUBLIC "-//W3C//DTD SVG 1.1//EN" "http://www.w3.org/Graphics/SVG/1.1/DTD/svg11.dtd">
<svg version="1.1" id="Layer_6" xmlns="http://www.w3.org/2000/svg" xmlns:xlink="http://www.w3.org/1999/xlink" x="0px" y="0px"
	 width="100px" height="100px" viewBox="0 0 100 100" enable-background="new 0 0 100 100" xml:space="preserve">
<path d="M21.924,49.094H9.532V36.133h12.392V49.094z M9.532,86.533h12.392V73.572H9.532V86.533z M9.645,68.344h32.744V55.381H9.645
	V68.344z M50.575,55.381v12.963h6.686c-1.152-5.199-1.051-9.441-0.14-12.963H50.575z M30.11,73.572v12.961h32.744v-3.348
	c-1.76-3.486-3.103-6.678-4.103-9.613H30.11z M62.854,45.742v-9.609H30.11v12.961h29.887C60.851,47.861,61.816,46.75,62.854,45.742z
	 M88.111,39.154c-4.519-10.756-14.779-13.988-5.938-25.688c-4.355,2.814-8.05,9.324-3.915,17.592
	c12.31,25.604-0.483,30.967-5.19,28.855c-10.513-5.234,0.703-14.779,1.936-17.064c1.891-2.553,1.907-4.887,0.439-8.799
	c0.088,3.563-0.572,6.467-5.542,9.896c-8.27,5.588-16.495,14.912-2.507,40.775C67.394,84.723,99.231,65.621,88.111,39.154z"/>
</svg>
