<?xml version="1.0" encoding="utf-8"?>
<!-- Generator: Adobe Illustrator 16.0.0, SVG Export Plug-In . SVG Version: 6.00 Build 0)  -->
<!DOCTYPE svg PUBLIC "-//W3C//DTD SVG 1.1//EN" "http://www.w3.org/Graphics/SVG/1.1/DTD/svg11.dtd">
<svg version="1.1" id="Layer_6" xmlns="http://www.w3.org/2000/svg" xmlns:xlink="http://www.w3.org/1999/xlink" x="0px" y="0px"
	 width="100px" height="100px" viewBox="0 0 100 100" enable-background="new 0 0 100 100" xml:space="preserve">
<path d="M75.847,74.24c-0.017,0.865,0.252,2.029,0.252,2.029s-0.519,14.129-20.212,15.1c-19.693,0.973-24.081-12.623-24.081-12.623
	c-1.751-7.313,1.835-4.16-1.306-8.27c-5.522-6.557-14.447-9.234-9.088-18.865c2.967-4.387,6.059-2.842,6.557-10.236
	c5.334,8.098-10.967,11.68,0.1,19.059c2.705,1.439,9.029,2.215,9.958-8.592c-0.086-7.568-11.236-12.844-12.908-21.883
	C23.026,21.25,29.613,17.574,30.21,8.58c0.139,12.264-4.915,11.383-1.845,20.805c2.741,9.064,13.495,8.639,17.689,19.49
	c4.744,11.313-9.161,16.127,1.652,22.346c3.354,2.016,10.646-1.617,3.935-11.596c-2.354-4.32-3.396-5.322-3.056-9.801
	c0.704-5.408,5.339-5.025,4.516-12.932c5.497,6.01-3.322,10.191,0.578,20.063c1.124,2.916,10.152,9.1,11.875-4.777
	c0.28-14.826-17.005-15.387-9.591-34.254c-5.271,13.807,9.309,14.721,13.068,24.732c4.18,10.928-1.653,15.471-2.18,22.566
	c-0.806,5.855,8.785,8.596,9.593-0.467c0.281-4.639-6.007-5.516-4.005-11.242c0.105,5.34,6.253,5.305,7.658,10.68
	C81.082,69.109,76.69,70.832,75.847,74.24z"/>
</svg>
