<?xml version="1.0" encoding="utf-8"?>
<!-- Generator: Adobe Illustrator 16.0.0, SVG Export Plug-In . SVG Version: 6.00 Build 0)  -->
<!DOCTYPE svg PUBLIC "-//W3C//DTD SVG 1.1//EN" "http://www.w3.org/Graphics/SVG/1.1/DTD/svg11.dtd">
<svg version="1.1" id="Layer_6" xmlns="http://www.w3.org/2000/svg" xmlns:xlink="http://www.w3.org/1999/xlink" x="0px" y="0px"
	 width="100px" height="100px" viewBox="0 0 100 100" enable-background="new 0 0 100 100" xml:space="preserve">
<path d="M83.476,13.584c0-1.623-1.315-2.938-2.938-2.938h-17.63c-0.304,0-0.597,0.046-0.873,0.131v-0.131h-1.025
	c-0.585-1.779-2.892-3.111-5.646-3.111c-3.193,0-5.792,1.791-5.792,3.993c0,1.449,1.129,2.717,2.809,3.416v1.27
	c-4.413-0.609-9.064-0.267-13.052,1.808c-2.233,1.163-4.191,3.125-5.205,5.438c-1.079,2.464-1.047,5.103-0.681,7.718
	c0.359,2.561,1.213,5.01,1.748,7.531c0.606,2.852,1.056,5.738,1.36,8.638c0.558,5.306,0.835,10.961-0.738,16.121
	c-0.597,1.957-1.399,3.859-2.361,5.677l-2.864-1.915L16.524,84.926l11.276,7.539l11.054-19.708l-2.873-1.921
	c1.406-2.609,2.491-5.415,3.189-8.24c1.352-5.476,0.855-11.535,0.176-17.07c-0.35-2.849-0.763-5.742-1.466-8.528
	c-0.622-2.463-1.396-4.911-1.633-7.451c-0.185-1.97,0.021-3.925,1.02-5.661c0.967-1.683,2.634-2.852,4.357-3.654
	c3.238-1.505,7.233-1.563,10.755-0.997v1.716c-5.285,2.164-9.011,7.355-9.011,13.42v12.521v31.304V89.17
	c0,1.819,1.476,3.295,3.295,3.295H69.07c1.82,0,3.295-1.476,3.295-3.295V78.194V46.891V34.369c0-6.558-4.355-12.096-10.331-13.887
	v-3.444l15.026,8.301c1.42,0.785,3.208,0.271,3.992-1.151c0.785-1.42,0.27-3.208-1.15-3.992l-6.647-3.673h7.282
	C82.16,16.522,83.476,15.207,83.476,13.584z M50.429,11.528c0-1.729,2.214-3.135,4.935-3.135c2.239,0,4.131,0.952,4.732,2.253H52.38
	v3.373C51.197,13.446,50.429,12.544,50.429,11.528z M64.854,65.569h-5.01c0.097-0.319,0.197-0.635,0.298-0.937
	c0.656-1.971,1.224-3.672-1.078-5.28l-0.075,0.075c1.375,1.936,0.37,4.008-0.931,6.142h-3.19c-0.088-0.925-0.374-1.759-0.625-2.268
	c-0.785-1.275-1.42-2.515-0.6-3.669L53.6,59.589c-1.34,0.937-1.01,1.927-0.628,3.073c0.071,0.214,0.145,0.435,0.21,0.662
	c0.095,0.821-0.14,1.28-0.354,1.52c-0.215,0.241-0.521,0.38-0.839,0.38c-0.226,0-0.438-0.068-0.599-0.193
	c-0.813-0.669-1.212-1.407-1.186-2.19c0.051-1.529,1.716-2.741,1.733-2.753c2.039-1.302,3.085-3.368,2.486-4.914
	c-0.081-0.259-0.213-0.478-0.352-0.707c-0.353-0.586-0.753-1.249-0.449-2.89l-0.058-0.021c-0.506,0.896-0.39,1.887-0.276,2.845
	c0.173,1.471,0.336,2.859-1.758,3.749c-0.054,0.026-0.13,0.058-0.225,0.097c-0.756,0.313-2.765,1.142-3.002,3.715
	c-0.179,1.573,0.003,2.771,0.248,3.608h-2.396V45.831h12.902c0.438,2.639-0.223,3.746-0.812,4.722
	c-0.238,0.396-0.464,0.77-0.604,1.215c-1.028,2.655,0.769,6.206,4.271,8.441c0.028,0.02,2.89,2.101,2.977,4.728
	C64.901,65.15,64.883,65.36,64.854,65.569z M69.758,45.831v19.738h-1.48c0-0.664-0.034-1.376-0.121-2.142
	c-0.408-4.42-3.857-5.844-5.156-6.38c-0.163-0.068-0.293-0.121-0.385-0.167c-3.598-1.528-3.316-3.914-3.02-6.44
	c0.182-1.547,0.369-3.144-0.332-4.609H69.758z"/>
</svg>
