<?xml version="1.0" encoding="utf-8"?>
<!-- Generator: Adobe Illustrator 16.0.4, SVG Export Plug-In . SVG Version: 6.00 Build 0)  -->
<!DOCTYPE svg PUBLIC "-//W3C//DTD SVG 1.1//EN" "http://www.w3.org/Graphics/SVG/1.1/DTD/svg11.dtd">
<svg version="1.1" id="Capa_1" xmlns="http://www.w3.org/2000/svg" xmlns:xlink="http://www.w3.org/1999/xlink" x="0px" y="0px"
	 width="100px" height="100px" viewBox="0 0 100 100" enable-background="new 0 0 100 100" xml:space="preserve">
<g id="Layer_8">
	<path d="M88.458,17.421H11.541c-1.053,0-1.907,0.854-1.907,1.907v53.08c0,1.053,0.854,1.906,1.907,1.906h28.924v4.574
		c0,0.067,0.013,0.129,0.02,0.194h-4.151c-0.965,0-1.748,0.783-1.748,1.748s0.783,1.749,1.748,1.749h28.288
		c0.965,0,1.748-0.783,1.748-1.749c0-0.965-0.783-1.748-1.748-1.748h-4.151c0.006-0.063,0.021-0.127,0.021-0.194v-4.574h27.97
		c1.053,0,1.907-0.854,1.907-1.906v-53.08C90.366,18.275,89.512,17.421,88.458,17.421z M84.962,64.088
		c0,1.053-0.854,1.907-1.907,1.907H16.944c-1.053,0-1.907-0.854-1.907-1.907V23.841c0-1.053,0.854-1.907,1.907-1.907h66.111
		c1.053,0,1.907,0.854,1.907,1.907V64.088z"/>
</g>
</svg>
