<?xml version="1.0" encoding="utf-8"?>
<!-- Generator: Adobe Illustrator 16.0.0, SVG Export Plug-In . SVG Version: 6.00 Build 0)  -->
<!DOCTYPE svg PUBLIC "-//W3C//DTD SVG 1.1//EN" "http://www.w3.org/Graphics/SVG/1.1/DTD/svg11.dtd">
<svg version="1.1" id="Layer_6" xmlns="http://www.w3.org/2000/svg" xmlns:xlink="http://www.w3.org/1999/xlink" x="0px" y="0px"
	 width="100px" height="100px" viewBox="0 0 100 100" enable-background="new 0 0 100 100" xml:space="preserve">
<path d="M75.155,6.622v7.99h-2.99h-3.84v0.009h-0.383v-3.823c0-2.409-1.952-4.362-4.362-4.362c-2.408,0-4.36,1.953-4.36,4.362v3.814
	h-3.021h-1.836v-4.198c0-2.406-1.952-4.361-4.362-4.361s-4.362,1.955-4.362,4.361v4.198h-1.908h-3.623v0.009h-0.382v-3.823
	c0-2.409-1.953-4.362-4.362-4.362c-2.408,0-4.361,1.953-4.361,4.362v3.814H27.76h-2.916v-7.99h-3.79v11.062l0.024,11.498h2.961
	l0.022,64.766h19.132V73.709c0-3.796,3.076-6.872,6.871-6.872c3.797,0,6.873,3.076,6.873,6.872v20.238h19.025V29.182h2.983V17.684
	V6.622H75.155z M58.135,54.36H42.019v-11.5h16.116V54.36z"/>
</svg>
