<?xml version="1.0" encoding="utf-8"?>
<!-- Generator: Adobe Illustrator 16.0.0, SVG Export Plug-In . SVG Version: 6.00 Build 0)  -->
<!DOCTYPE svg PUBLIC "-//W3C//DTD SVG 1.1//EN" "http://www.w3.org/Graphics/SVG/1.1/DTD/svg11.dtd">
<svg version="1.1" id="Layer_7" xmlns="http://www.w3.org/2000/svg" xmlns:xlink="http://www.w3.org/1999/xlink" x="0px" y="0px"
	 width="100px" height="100px" viewBox="0 0 100 100" enable-background="new 0 0 100 100" xml:space="preserve">
<path d="M50,9.775C27.82,9.775,9.775,27.82,9.775,50S27.82,90.225,50,90.225S90.225,72.18,90.225,50S72.18,9.775,50,9.775z
	 M50,86.225c-19.975,0-36.225-16.25-36.225-36.225S30.025,13.775,50,13.775S86.225,30.025,86.225,50S69.975,86.225,50,86.225z
	 M64.587,72.003l-2.74,1.221c-2.067-4.644-6.684-7.644-11.759-7.644c-5.234,0-9.906,3.13-11.902,7.973l-2.773-1.143
	c2.46-5.972,8.221-9.83,14.676-9.83C56.347,62.58,62.038,66.279,64.587,72.003z M36.999,44.169c-3.502,0-6.342-2.84-6.342-6.343
	s2.84-6.343,6.342-6.343c3.504,0,6.344,2.84,6.344,6.343S40.503,44.169,36.999,44.169z M69.351,37.826
	c0,3.503-2.84,6.343-6.344,6.343c-3.502,0-6.342-2.84-6.342-6.343s2.84-6.343,6.342-6.343
	C66.511,31.483,69.351,34.323,69.351,37.826z"/>
</svg>
