<?xml version="1.0" encoding="utf-8"?>
<!-- Generator: Adobe Illustrator 16.0.0, SVG Export Plug-In . SVG Version: 6.00 Build 0)  -->
<!DOCTYPE svg PUBLIC "-//W3C//DTD SVG 1.1//EN" "http://www.w3.org/Graphics/SVG/1.1/DTD/svg11.dtd">
<svg version="1.1" id="Layer_6" xmlns="http://www.w3.org/2000/svg" xmlns:xlink="http://www.w3.org/1999/xlink" x="0px" y="0px"
	 width="100px" height="100px" viewBox="0 0 100 100" enable-background="new 0 0 100 100" xml:space="preserve">
<path d="M96.931,46.039c-0.015-1.337-0.081-2.665-0.209-3.973c-0.423-4.358-1.464-8.535-3.026-12.452
	c-0.117-0.292-0.225-0.586-0.346-0.875c-2.083-4.915-5.004-9.389-8.578-13.251c-0.233-0.252-0.473-0.5-0.711-0.745
	c-0.679-0.702-1.368-1.386-2.09-2.043C73.844,5.3,63.045,0.783,51.212,0.783c-11.935,0-22.81,4.598-30.962,12.113
	c-1.898,1.751-3.645,3.663-5.228,5.708c-5.973,7.727-9.54,17.406-9.54,27.908c0,24.752,19.773,44.96,44.352,45.695v2.66H45.94v1.536
	H31.082v3.064h40.261v-3.064H59.289v-1.536h-3.896v-2.822c15.955-1.454,29.561-11.136,36.537-24.757
	c1.619-3.163,2.885-6.537,3.733-10.072c0.216-0.894,0.403-1.796,0.563-2.711c0.461-2.596,0.715-5.266,0.715-7.993
	C96.942,46.353,96.931,46.197,96.931,46.039z M88.323,27.763l0.268-0.297c0.348,0.675,0.674,1.362,0.981,2.057l-0.434-0.017
	l-0.815,0.113V27.763z M81.715,19.783l0.007-2.042c0.722,0.762,1.41,1.545,2.074,2.358l-0.825,1.226l-2.88-0.026l-0.18-0.6
	L81.715,19.783z M26.55,14.707L26.55,14.707l0.001-0.077h0.916l0.08-0.313h1.499v0.654l-0.431,0.576H26.55V14.707z M29.011,17.506
	l-2.066,0.129l-0.393-0.47l1.465-0.418c0,0,0.916-0.156,0.995-0.156C29.091,16.591,29.011,17.506,29.011,17.506z M91.236,34.9H87.89
	l-2.038-1.518l-2.146,0.208v1.31h-0.68l-0.731-0.523l-3.717-0.942v-2.407l-4.709,0.366l-1.46,0.784h-1.87l-0.918-0.092l-2.271,1.26
	v2.372l-4.64,3.348l0.385,1.429h0.942l-0.247,1.362L63.129,42.1l-0.034,3.559l4.009,4.566h1.745l0.105-0.277h3.138l0.904-0.838
	h1.782l0.975,0.975l2.651,0.278l-0.35,3.525L81,59.087l-1.552,2.962l0.105,1.396l1.222,1.217v3.354l1.601,2.155v2.789h1.385
	c-7.702,9.461-19.43,15.517-32.549,15.517c-23.142,0-41.967-18.826-41.967-41.967c0-5.826,1.197-11.378,3.351-16.424l0.002,2.389
	l1.743,0.838v3.32l1.672,2.853l1.359,0.208l0.175-0.978l-1.604-2.475l-0.314-2.405h0.94l0.396,2.475l2.319,3.383l-0.6,1.093
	l1.475,2.255l3.662,0.906v-0.592l1.465,0.209l-0.139,1.046l1.151,0.21l1.778,0.485l2.511,2.859l3.207,0.241l0.314,2.614
	l-2.195,1.535l-0.104,2.338l-0.314,1.43l3.175,3.977l0.242,1.359c0,0,1.151,0.313,1.293,0.313c0.139,0,2.581,1.85,2.581,1.85v7.184
	l0.871,0.242l-0.592,3.313l1.465,1.954l-0.271,3.285l1.936,3.403l2.484,2.168l2.498,0.049l0.245-0.806l-1.836-1.545l0.106-0.767
	l0.329-0.94l0.069-0.961l-1.241-0.034l-0.626-0.787l1.03-0.993l0.139-0.748l-1.151-0.328l0.068-0.695l1.64-0.249l2.494-1.196
	l0.837-1.537l2.618-3.348l-0.595-2.617l0.804-1.396l2.404,0.073l1.622-1.283l0.523-5.05l1.797-2.282l0.312-1.467l-1.638-0.525
	l-1.079-1.773l-3.697-0.037l-2.932-1.116l-0.139-2.091l-0.978-1.708l-2.651-0.039l-1.531-2.405l-1.36-0.664l-0.069,0.733
	l-2.476,0.146l-0.906-1.261l-2.583-0.526L34.6,47.661l-3.348-0.566l-0.244-3.772l-2.442-0.418l0.98-1.851l-0.28-1.063l-3.211,2.146
	l-2.021-0.246l-0.72-1.578l0.44-1.627l1.114-2.051l2.563-1.298l4.95-0.002l-0.013,1.51l1.78,0.827l-0.142-2.581l1.283-1.29
	l2.588-1.701l0.176-1.195l2.581-2.687l2.744-1.52l-0.242-0.2l1.858-1.749l0.681,0.18l0.312,0.391l0.706-0.782l0.172-0.077
	l-0.773-0.11l-0.784-0.26v-0.752l0.416-0.341h0.917l0.419,0.185l0.362,0.732l0.445-0.067v-0.064l0.127,0.044l1.287-0.198
	l0.182-0.628l0.734,0.184v0.681l-0.681,0.469h0.002l0.099,0.746l2.333,0.719c0,0,0.002,0.009,0.006,0.027l0.534-0.044l0.037-1.01
	l-1.848-0.841l-0.104-0.485l1.532-0.522l0.066-1.467l-1.602-0.976l-0.106-2.473l-2.197,1.079h-0.802l0.211-1.883l-2.99-0.706
	l-1.238,0.936v2.851l-2.225,0.706l-0.892,1.858l-0.967,0.156V20.63l-2.091-0.291l-1.045-0.68l-0.422-1.542l3.741-2.188l1.831-0.558
	l0.185,1.23l1.019-0.053l0.079-0.619l1.066-0.152l0.02-0.217l-0.459-0.19l-0.106-0.654l1.312-0.11l0.792-0.825l0.043-0.06
	l0.009,0.003l0.241-0.248l2.756-0.348l1.219,1.034l-3.196,1.703l4.067,0.959l0.526-1.359h1.775l0.63-1.185l-1.257-0.314v-1.5
	l-3.94-1.745l-2.719,0.314l-1.535,0.802l0.105,1.953l-1.604-0.245l-0.249-1.08l1.537-1.395l-2.789-0.14l-0.801,0.243l-0.349,0.94
	l1.045,0.178l-0.208,1.044l-1.777,0.106l-0.278,0.696l-2.579,0.072c0,0-0.072-1.464-0.175-1.464s2.022-0.035,2.022-0.035
	l1.537-1.502l-0.838-0.42l-1.116,1.084l-1.851-0.105l-1.115-1.535h-2.372l-2.475,1.849h2.268l0.207,0.664l-0.589,0.547l2.511,0.07
	l0.384,0.906l-2.827-0.105l-0.138-0.697l-1.778-0.384l-0.941-0.522l-2.117,0.016c6.928-5.046,15.446-8.033,24.655-8.033
	c10.613,0,20.308,3.966,27.707,10.485l-0.5,0.891l-1.937,0.759l-0.813,0.885l0.187,1.033l0.999,0.139l0.604,1.505l1.722-0.694
	l0.287,2.012h-0.521l-1.414-0.208l-1.566,0.264l-1.52,2.144l-2.169,0.34l-0.314,1.859l0.916,0.216l-0.264,1.195l-2.159-0.434
	l-1.976,0.434l-0.419,1.101l0.342,2.309l1.163,0.543l1.944-0.011l1.313-0.119l0.402-1.046l2.056-2.669l1.35,0.276l1.332-1.203
	l0.247,0.94l3.277,2.209l-0.399,0.539l-1.479-0.08l0.568,0.805l0.907,0.2l1.065-0.444l-0.022-1.283l0.474-0.237l-0.382-0.403
	l-2.183-1.218l-0.576-1.619h1.815l0.581,0.575l1.565,1.349l0.066,1.63l1.621,1.727l0.603-2.366l1.124-0.614l0.21,1.936l1.1,1.203
	l2.186-0.038c0.423,1.089,0.805,2.198,1.135,3.327L91.236,34.9z M30.424,21.559l1.098-0.522l0.993,0.237l-0.342,1.334l-1.072,0.341
	L30.424,21.559z M36.255,24.698v0.864h-2.51l-0.94-0.261l0.235-0.603l1.206-0.498h1.648v0.498H36.255z M37.408,25.902v0.837
	l-0.627,0.405l-0.783,0.145c0,0,0-1.255,0-1.387H37.408z M36.701,25.562v-0.995l0.864,0.786L36.701,25.562z M37.094,27.574v0.815
	l-0.601,0.602H35.16l0.209-0.915L36,28.022l0.129-0.314L37.094,27.574z M33.772,25.902h1.385l-1.777,2.485l-0.734-0.393l0.159-1.046
	L33.772,25.902z M39.449,27.289v0.812h-1.333l-0.365-0.526V26.82h0.105L39.449,27.289z M38.218,26.171l0.381-0.398l0.641,0.398
	l-0.513,0.423L38.218,26.171z"/>
</svg>
