<?xml version="1.0" encoding="utf-8"?>
<!-- Generator: Adobe Illustrator 16.0.0, SVG Export Plug-In . SVG Version: 6.00 Build 0)  -->
<!DOCTYPE svg PUBLIC "-//W3C//DTD SVG 1.1//EN" "http://www.w3.org/Graphics/SVG/1.1/DTD/svg11.dtd">
<svg version="1.1" id="Layer_7" xmlns="http://www.w3.org/2000/svg" xmlns:xlink="http://www.w3.org/1999/xlink" x="0px" y="0px"
	 width="100px" height="100px" viewBox="0 0 100 100" enable-background="new 0 0 100 100" xml:space="preserve">
<path d="M50,9.775C27.82,9.775,9.775,27.82,9.775,50S27.82,90.225,50,90.225S90.225,72.18,90.225,50S72.18,9.775,50,9.775z
	 M50,86.225c-19.974,0-36.225-16.25-36.225-36.225S30.026,13.775,50,13.775S86.225,30.025,86.225,50S69.974,86.225,50,86.225z
	 M70.354,37.869c0,3.503-2.84,6.343-6.343,6.343s-6.343-2.84-6.343-6.343s2.84-6.343,6.343-6.343S70.354,34.366,70.354,37.869z
	 M30.933,37.869c0-3.503,2.84-6.343,6.343-6.343s6.343,2.84,6.343,6.343s-2.84,6.343-6.343,6.343S30.933,41.372,30.933,37.869z
	 M65.467,55.841H34.534c-1.654,0-3,1.346-3,3c0,9.512,8.284,17.25,18.467,17.25c10.182,0,18.466-7.738,18.466-17.25
	C68.467,57.187,67.121,55.841,65.467,55.841z M50,73.091c-8.528,0-15.467-6.393-15.467-14.25h30.933
	C65.467,66.698,58.529,73.091,50,73.091z"/>
</svg>
