<?xml version="1.0" encoding="utf-8"?>
<!-- Generator: Adobe Illustrator 16.0.0, SVG Export Plug-In . SVG Version: 6.00 Build 0)  -->
<!DOCTYPE svg PUBLIC "-//W3C//DTD SVG 1.1//EN" "http://www.w3.org/Graphics/SVG/1.1/DTD/svg11.dtd">
<svg version="1.1" id="Layer_6" xmlns="http://www.w3.org/2000/svg" xmlns:xlink="http://www.w3.org/1999/xlink" x="0px" y="0px"
	 width="100px" height="100px" viewBox="0 0 100 100" enable-background="new 0 0 100 100" xml:space="preserve">
<path d="M86.519,43.141c1.124-0.678,1.48-1.859,1.505-3.398h0.089c0.559,0,1.011-0.453,1.011-1.01v-15.98
	c0-0.559-0.452-1.01-1.011-1.01h-5.477c-1.061-0.816-2.258-1.463-3.552-1.9l0.229-0.52c0.225-0.512-0.006-1.107-0.517-1.332
	l-0.925-0.41c-0.51-0.225-1.107,0.006-1.333,0.518l-0.499,1.129c-0.297-0.021-0.596-0.035-0.898-0.035H16.27v-0.59
	c0-0.559-0.453-1.01-1.011-1.01h-4.801c-0.558,0-1.01,0.451-1.01,1.01v0.59H7.342l0.765,4.381H5.405
	c-0.559,0-1.011,0.451-1.011,1.01v12.465c0,0.559,0.452,1.012,1.011,1.012h5.232l1,5.727h33.258
	c0.495,2.016,1.896,5.787,5.743,8.525c2.279,1.621,5.661,2.445,10.052,2.445c1.435,0,2.736-0.092,3.742-0.191l6.646,27.008
	c0.042,0.555,0.528,0.973,1.084,0.93l22.507-0.047c0.557-0.043,0.974-0.529,0.932-1.086L86.519,43.141z M60.691,52.227
	c-3.801,0-6.77-0.682-8.587-1.975c-2.823-2.01-4.056-4.746-4.58-6.467h10.802c-0.773,1.977-1.899,4.035-3.284,4.555
	c-0.392,0.146-0.59,0.584-0.443,0.975c0.114,0.305,0.403,0.492,0.709,0.492c0.089,0,0.179-0.014,0.266-0.047
	c2.124-0.797,3.552-3.67,4.383-5.975h1.824l2.042,8.297C62.942,52.162,61.862,52.227,60.691,52.227z"/>
</svg>
