<?xml version="1.0" encoding="utf-8"?>
<!-- Generator: Adobe Illustrator 16.0.0, SVG Export Plug-In . SVG Version: 6.00 Build 0)  -->
<!DOCTYPE svg PUBLIC "-//W3C//DTD SVG 1.1//EN" "http://www.w3.org/Graphics/SVG/1.1/DTD/svg11.dtd">
<svg version="1.1" id="Layer_5" xmlns="http://www.w3.org/2000/svg" xmlns:xlink="http://www.w3.org/1999/xlink" x="0px" y="0px"
	 width="100px" height="100px" viewBox="0 0 100 100" enable-background="new 0 0 100 100" xml:space="preserve">
<path d="M54.391,38.874c2.022-2.097,3.137-4.857,3.137-7.773c0-6.174-5.022-11.196-11.196-11.196s-11.196,5.022-11.196,11.196
	c0,2.915,1.114,5.676,3.138,7.773c0.357,0.371,0.348,0.962-0.023,1.32c-0.181,0.174-0.414,0.262-0.647,0.262
	c-0.245,0-0.488-0.096-0.671-0.286c-2.361-2.447-3.662-5.668-3.662-9.069c0-7.203,5.859-13.063,13.063-13.063
	s13.063,5.86,13.063,13.063c0,3.401-1.3,6.622-3.661,9.069c-0.356,0.372-0.947,0.381-1.319,0.024
	C54.043,39.835,54.032,39.245,54.391,38.874z M32.534,45.906c0.368-0.36,0.375-0.951,0.015-1.32
	c-3.547-3.624-5.501-8.413-5.501-13.485c0-10.632,8.65-19.283,19.283-19.283s19.283,8.651,19.283,19.283
	c0,5.073-1.954,9.862-5.501,13.486c-0.361,0.368-0.354,0.959,0.015,1.319c0.181,0.178,0.417,0.267,0.652,0.267
	c0.241,0,0.483-0.094,0.667-0.28c3.891-3.975,6.033-9.229,6.033-14.792c0-11.662-9.487-21.149-21.149-21.149
	s-21.149,9.487-21.149,21.149c0,5.563,2.143,10.816,6.033,14.791C31.575,46.26,32.167,46.266,32.534,45.906z M71.482,85.94
	l-1.072,3.447c-0.121,0.393-0.485,0.661-0.897,0.661c-0.001,0-0.001,0-0.001,0l-19.953-0.03c-0.393,0-0.742-0.244-0.88-0.61
	s-0.034-0.779,0.262-1.037c-0.003,0,0.159-0.178,0.146-0.499c-0.014-0.315-0.211-0.992-1.375-1.989
	c-0.364-0.345-8.188-7.77-11.522-13.578c-0.921-1.295-7.737-11.1-6.104-15.412c0.386-1.021,1.19-1.706,2.33-1.985
	c0.514-0.183,1.039-0.275,1.561-0.275c2.994,0,5.215,2.939,6.836,5.085c0.357,0.475,0.807,1.069,1.144,1.439
	c0.146-0.653,0.303-2.118,0.287-5.402c0-0.034,0.001-0.068,0.005-0.103c0.006-0.049,0.498-4.965,0.527-20.662
	c-0.19-0.039-0.375-0.122-0.514-0.278c-0.884-0.996-1.371-2.278-1.371-3.612c0-3.001,2.441-5.443,5.442-5.443
	s5.442,2.442,5.442,5.443c0,1.185-0.402,2.314-1.107,3.253c0.02,0.19,0.04,0.387,0.062,0.6c0.183,1.813,0.38,4.186,0.587,6.698
	c0.272,3.301,0.625,7.577,0.901,9.549c0.813-0.416,1.973-0.858,3.229-0.858c1.382,0,3.243,0.537,4.624,2.946
	c0.643-0.245,1.566-0.51,2.582-0.51c1.639,0,3.809,0.671,5.078,3.766c1.153,0.205,3.696,0.864,5.354,2.848
	c1.161,1.389,1.661,3.135,1.489,5.191C74.719,65.873,75.878,77.466,71.482,85.94z M42.755,31.101c0,0.379,0.07,0.748,0.186,1.102
	c0.573-3.378,2.022-4.14,3.202-4.14c1.593,0,3.068,1.484,3.745,2.846c-0.103-1.881-1.65-3.384-3.557-3.384
	C44.358,27.524,42.755,29.129,42.755,31.101z M72.693,64.711c-0.008-0.067-0.008-0.135-0.002-0.202
	c0.147-1.578-0.203-2.891-1.045-3.902c-1.642-1.978-4.654-2.271-4.685-2.274c-0.368-0.034-0.687-0.28-0.807-0.63
	c-0.706-2.049-1.853-3.045-3.505-3.045c-1.344,0-2.533,0.667-2.545,0.674c-0.229,0.131-0.507,0.16-0.758,0.077
	c-0.252-0.082-0.459-0.266-0.566-0.508c-0.809-1.802-1.9-2.679-3.337-2.679c-1.665,0-3.241,1.176-3.257,1.188
	c-0.239,0.184-0.552,0.241-0.84,0.156c-0.868-0.258-0.96-0.286-1.906-11.761c-0.215-2.589-0.463-5.601-0.673-7.51
	c-0.012-0.062-0.022-0.12-0.021-0.182c-0.085-0.751-0.163-1.316-0.229-1.575c-0.061-0.094-0.104-0.2-0.129-0.313
	c-0.194-0.902-1.435-2.283-2.248-2.283c-0.532,0-1.238,0.948-1.488,3.618c-0.001,16.257-0.473,21.627-0.533,22.236
	c0.021,5.123-0.341,6.497-0.976,7.134c-0.269,0.271-0.604,0.414-0.97,0.414c-0.983,0-1.732-0.992-2.866-2.492
	c-1.383-1.831-3.276-4.338-5.335-4.338c-0.318,0-0.645,0.061-0.968,0.18c-0.036,0.013-0.074,0.024-0.112,0.034
	c-0.717,0.165-0.938,0.531-1.053,0.832c-0.977,2.582,3.102,9.769,5.903,13.692c0.019,0.025,0.035,0.052,0.051,0.08
	c3.183,5.57,11.095,13.079,11.174,13.154c1.309,1.12,1.991,2.278,1.997,3.411c0,0.084-0.004,0.165-0.01,0.243l17.864,0.026
	l0.891-2.865c0.017-0.054,0.038-0.107,0.064-0.157C74.111,76.871,72.709,64.832,72.693,64.711z"/>
</svg>
