<?xml version="1.0" encoding="utf-8"?>
<!-- Generator: Adobe Illustrator 16.0.4, SVG Export Plug-In . SVG Version: 6.00 Build 0)  -->
<!DOCTYPE svg PUBLIC "-//W3C//DTD SVG 1.1//EN" "http://www.w3.org/Graphics/SVG/1.1/DTD/svg11.dtd">
<svg version="1.1" id="Capa_1" xmlns="http://www.w3.org/2000/svg" xmlns:xlink="http://www.w3.org/1999/xlink" x="0px" y="0px"
	 width="100px" height="100px" viewBox="0 0 100 100" enable-background="new 0 0 100 100" xml:space="preserve">
<g id="Layer_7">
	<path d="M89.15,66.357c0,9.181-7.441,16.621-16.621,16.621V49.738c1.779,0,3.492,0.282,5.1,0.8v-1.544
		c0-14.778-12.023-26.802-26.803-26.802c-14.78,0-26.803,12.024-26.803,26.802v1.104c1.113-0.233,2.266-0.359,3.447-0.359v33.239
		c-9.18,0-16.621-7.439-16.621-16.619c0-6.024,3.205-11.299,8.004-14.215v-3.149c0-17.63,14.342-31.973,31.973-31.973
		c17.629,0,31.973,14.343,31.973,31.973v4.302C86.664,56.339,89.15,61.057,89.15,66.357z"/>
</g>
</svg>
