<?xml version="1.0" encoding="utf-8"?>
<!-- Generator: Adobe Illustrator 16.0.0, SVG Export Plug-In . SVG Version: 6.00 Build 0)  -->
<!DOCTYPE svg PUBLIC "-//W3C//DTD SVG 1.1//EN" "http://www.w3.org/Graphics/SVG/1.1/DTD/svg11.dtd">
<svg version="1.1" id="Layer_6" xmlns="http://www.w3.org/2000/svg" xmlns:xlink="http://www.w3.org/1999/xlink" x="0px" y="0px"
	 width="100px" height="100px" viewBox="0 0 100 100" enable-background="new 0 0 100 100" xml:space="preserve">
<path d="M12.165,50.248L8.257,45.72l8.932-7.71v-0.175l28.949-24.813l1.912-1.65l0.008,0.006l0.01-0.009l2.027,1.688l37.385,30.825
	l-3.805,4.614l-3.879-3.198v28.256c-0.948-0.77-2.155-1.232-3.469-1.232c-0.904,0-1.758,0.223-2.512,0.611V40.611L48.128,19.206
	L23.171,40.748v31.664c-0.315-0.057-0.639-0.091-0.97-0.091c-2.224,0-4.139,1.324-5.013,3.224V45.91L12.165,50.248z M91.174,85.494
	c-0.136,0-13.643-0.104-13.643-9.153c0-0.867-0.701-1.569-1.568-1.569s-1.569,0.702-1.569,1.569c0,7.861-8.358,8.971-10.799,9.127
	c-2.752-0.154-12.959-1.258-12.959-9.127c0-0.867-0.702-1.569-1.569-1.569s-1.568,0.702-1.568,1.569
	c0,8.114-8.884,9.033-10.995,9.138c-2.532-0.105-13.097-1.023-13.097-9.138c0-0.867-0.702-1.569-1.569-1.569
	s-1.569,0.702-1.569,1.569c0,9.009-10.979,9.151-11.446,9.153c-0.866,0.003-1.566,0.706-1.564,1.571
	c0.001,0.866,0.702,1.566,1.567,1.566c3.83,0,10.255-1.481,13.123-6.455c3.021,4.554,9.469,6.176,13.92,6.418
	c0.064,0.008,0.119,0.037,0.186,0.037c0.094,0,0.207-0.013,0.303-0.014c0.236,0.008,0.473,0.014,0.694,0.014
	c0.108,0,0.204-0.041,0.307-0.062c3.856-0.3,9.254-1.944,11.82-6.394c2.916,4.393,9.021,6.06,13.443,6.389
	c0.11,0.025,0.212,0.066,0.328,0.066c0.134,0,0.29-0.017,0.429-0.02c0.312,0.012,0.613,0.02,0.901,0.02
	c0.221,0,0.429-0.048,0.619-0.129c3.794-0.428,8.75-2.12,11.176-6.326c3.3,4.974,10.692,6.455,15.101,6.455
	c0.867,0,1.569-0.702,1.569-1.569S92.041,85.494,91.174,85.494z"/>
</svg>
