<?xml version="1.0" encoding="utf-8"?>
<!-- Generator: Adobe Illustrator 16.0.0, SVG Export Plug-In . SVG Version: 6.00 Build 0)  -->
<!DOCTYPE svg PUBLIC "-//W3C//DTD SVG 1.1//EN" "http://www.w3.org/Graphics/SVG/1.1/DTD/svg11.dtd">
<svg version="1.1" id="Layer_6" xmlns="http://www.w3.org/2000/svg" xmlns:xlink="http://www.w3.org/1999/xlink" x="0px" y="0px"
	 width="100px" height="100px" viewBox="0 0 100 100" enable-background="new 0 0 100 100" xml:space="preserve">
<path d="M91.354,29.465V17.431c0-0.654-0.525-1.185-1.174-1.185H9.803c-0.647,0-1.173,0.53-1.173,1.185v15.514
	c0,0.083,0.008,0.164,0.024,0.242v50.567H91.37V29.465H91.354z M88.409,80.793H11.615V34.129h76.794V80.793z M42.271,65.407
	l-15.624-8.048v-1.818l15.624-8.047v2.323l-13.166,6.599v0.068l13.166,6.6V65.407z M73.482,57.394l-15.623,8.014v-2.323l13.267-6.6
	v-0.068l-13.267-6.599v-2.323l15.623,8.013V57.394z M45.515,70.989h-2.598L53.73,42.886h2.636L45.515,70.989z"/>
</svg>
