<?xml version="1.0" encoding="utf-8"?>
<!-- Generator: Adobe Illustrator 16.0.0, SVG Export Plug-In . SVG Version: 6.00 Build 0)  -->
<!DOCTYPE svg PUBLIC "-//W3C//DTD SVG 1.1//EN" "http://www.w3.org/Graphics/SVG/1.1/DTD/svg11.dtd">
<svg version="1.1" id="Layer_6" xmlns="http://www.w3.org/2000/svg" xmlns:xlink="http://www.w3.org/1999/xlink" x="0px" y="0px"
	 width="100px" height="100px" viewBox="0 0 100 100" enable-background="new 0 0 100 100" xml:space="preserve">
<path d="M91.354,29.465V17.431c0-0.654-0.525-1.185-1.174-1.185H9.803c-0.647,0-1.173,0.53-1.173,1.185v15.514
	c0,0.083,0.008,0.164,0.024,0.242v50.567H91.37V29.465H91.354z M11.615,80.793V34.129h76.794v46.664H11.615z M19.646,54.841
	l15.624-8.047v2.323l-13.166,6.599v0.068l13.166,6.6v2.323l-15.624-8.048V54.841z M64.161,46.794l15.623,8.013v1.887l-15.623,8.014
	v-2.323l13.267-6.6v-0.068l-13.267-6.599V46.794z M50.414,46.309c-5.681,0-10.302,4.621-10.302,10.301
	c0,5.682,4.621,10.301,10.302,10.301c4.78,0,8.81-3.272,9.966-7.695l0.181-0.838c0.1-0.576,0.154-1.166,0.154-1.768
	C60.715,50.93,56.094,46.309,50.414,46.309z M59.455,58.229c-1.554,0.815-4.313-0.21-4.565,2.183
	c-0.107,1.405,1.122,2.058,1.549,3.125c-1.232,1.073-2.752,1.822-4.427,2.117c0.235-0.175,0.383-0.458,0.452-0.741
	c0.153-0.633-0.405-1.131-0.458-1.735c-0.073-0.822-0.255-1.959-1.309-1.994c-0.42-0.014-0.968,0.219-1.328-0.065
	c-0.332-0.262-0.614-0.528-1.05-0.588c-1.021-0.143-1.843,0.782-2.124,1.67c-0.271,0.854,0.031,1.825,0.247,2.691
	c-1.305-0.627-2.437-1.555-3.311-2.69c0.767,0.349,1.533,0.291,1.609-0.733c0.094-1.241-2.021-2.372-2.097-3.621
	c0.091-0.249,0.156-0.562,0.197-0.901c0.389-0.803,1.159-1.349,0.613-2.554c-0.227-0.555-0.931-0.855-1.624-1.055
	c0.751-1.964,2.157-3.604,3.949-4.656c2.883,2.091,0.242,6.954,2.984,8.392c2.366,1.111,1.113-2.785,3.063-2.924
	c0.696,0,0.975,1.253,1.531,1.531c1.113,0.541,1.253-0.696,2.506,0.349c1.252,1.044,1.299-0.187,1.578-1.439
	c0.139-1.253-1.301-1.137-1.301-1.832c-0.277-2.088,0.697-2.229-1.113-4.038c-0.041-0.04-0.088-0.082-0.133-0.125
	c2.805,1.573,4.706,4.576,4.706,8.016C59.602,57.163,59.55,57.703,59.455,58.229z"/>
</svg>
