<?xml version="1.0" encoding="utf-8"?>
<!-- Generator: Adobe Illustrator 16.0.0, SVG Export Plug-In . SVG Version: 6.00 Build 0)  -->
<!DOCTYPE svg PUBLIC "-//W3C//DTD SVG 1.1//EN" "http://www.w3.org/Graphics/SVG/1.1/DTD/svg11.dtd">
<svg version="1.1" id="Layer_6" xmlns="http://www.w3.org/2000/svg" xmlns:xlink="http://www.w3.org/1999/xlink" x="0px" y="0px"
	 width="100px" height="100px" viewBox="0 0 100 100" enable-background="new 0 0 100 100" xml:space="preserve">
<path d="M88.708,21.686H11.292c-1.198,0-2.17,0.972-2.17,2.17v52.287c0,1.198,0.973,2.17,2.17,2.17h77.416
	c1.198,0,2.17-0.972,2.17-2.17V23.856C90.878,22.658,89.906,21.686,88.708,21.686z M37.924,70.489H16.94v-3.981h20.984V70.489z
	 M37.924,59.53H16.94v-3.979h20.984V59.53z M45.158,48.253H16.94v-3.979h28.218V48.253z M82.33,71.314h-3.058
	c0.18-3.718-1.533-7.625-1.533-7.625c-0.58-1.288-4.119-2.403-4.119-2.403c-1.889-0.665-1.902-1.328-1.902-1.328
	c-3.711,7.313-6.529,0.021-6.529,0.021c-0.26,0.985-4.078,2.144-4.078,2.144c-1.116,0.43-1.588,1.072-1.588,1.072
	c-1.65,2.448-1.843,7.895-1.843,7.895c0,0.085,0.01,0.15,0.016,0.224h-1.685V43.097H82.33V71.314z M85.315,34.687
	c0,1.198-0.974,2.171-2.172,2.171H16.942c-1.198,0-2.172-0.973-2.172-2.171v-3.799c0-1.198,0.974-2.169,2.172-2.169h66.201
	c1.198,0,2.172,0.971,2.172,2.169V34.687z M64.251,56.091c0.286,2.354,2.311,4.79,4.146,4.79c2.11,0,4.117-2.563,4.429-4.79
	c0.121-0.086,0.313-0.289,0.387-0.753c0,0,0.451-1.613-0.149-1.442c0.209-0.621,0.899-3.043-0.438-4.548
	c0,0-0.626-0.854-2.147-1.309l-0.709-0.245c-0.281-0.203-0.845-0.682-0.845-1.214c0,0-0.353,0.164-0.561,0.466
	c0.082-0.247,0.219-0.479,0.438-0.667c0,0-0.23,0.12-0.444,0.379c-0.164,0.093-0.544,0.351-0.67,0.812l0.006-0.029
	c0,0-0.077-0.105-0.288-0.136c-0.209-0.029-0.575,0.111-0.575,0.111s-2.218,0.866-2.86,2.862c0,0-0.383,0.902,0.121,3.553
	c-0.712-0.337-0.227,1.407-0.227,1.407C63.939,55.803,64.135,56.004,64.251,56.091z M68.291,46.844
	c-0.108,0.15-0.201,0.338-0.244,0.567l-0.08-0.029C68.028,47.188,68.131,47.004,68.291,46.844z"/>
</svg>
