<?xml version="1.0" encoding="utf-8"?>
<!-- Generator: Adobe Illustrator 16.0.0, SVG Export Plug-In . SVG Version: 6.00 Build 0)  -->
<!DOCTYPE svg PUBLIC "-//W3C//DTD SVG 1.1//EN" "http://www.w3.org/Graphics/SVG/1.1/DTD/svg11.dtd">
<svg version="1.1" id="Layer_6" xmlns="http://www.w3.org/2000/svg" xmlns:xlink="http://www.w3.org/1999/xlink" x="0px" y="0px"
	 width="100px" height="100px" viewBox="0 0 100 100" enable-background="new 0 0 100 100" xml:space="preserve">
<path d="M88.708,31.654H57V18.718c0-3.866-3.134-7-7-7s-7,3.134-7,7v12.937H11.292c-1.198,0-2.17,0.972-2.17,2.17v52.287
	c0,1.198,0.973,2.171,2.17,2.171h77.416c1.198,0,2.17-0.973,2.17-2.171V33.824C90.878,32.626,89.906,31.654,88.708,31.654z
	 M50,15.219c1.933,0,3.5,1.566,3.5,3.499s-1.567,3.5-3.5,3.5s-3.5-1.567-3.5-3.5S48.067,15.219,50,15.219z M37.924,80.457H16.94
	v-3.98h20.984V80.457z M37.924,69.498H16.94v-3.979h20.984V69.498z M45.158,58.221H16.94v-3.979h28.218V58.221z M82.33,81.282
	h-3.058c0.18-3.718-1.533-7.625-1.533-7.625c-0.58-1.288-4.119-2.403-4.119-2.403c-1.889-0.665-1.902-1.328-1.902-1.328
	c-3.711,7.313-6.529,0.021-6.529,0.021c-0.26,0.985-4.078,2.144-4.078,2.144c-1.116,0.43-1.588,1.072-1.588,1.072
	c-1.65,2.448-1.843,7.896-1.843,7.896c0,0.085,0.01,0.15,0.016,0.224h-1.685V53.064H82.33V81.282z M85.315,44.654
	c0,1.198-0.974,2.171-2.172,2.171H16.942c-1.198,0-2.172-0.973-2.172-2.171v-3.799c0-1.198,0.974-2.169,2.172-2.169H43v4.031h14
	v-4.031h26.143c1.198,0,2.172,0.971,2.172,2.169V44.654z M64.251,66.059c0.286,2.354,2.311,4.79,4.146,4.79
	c2.11,0,4.117-2.563,4.429-4.79c0.121-0.086,0.313-0.289,0.387-0.753c0,0,0.451-1.613-0.149-1.441
	c0.209-0.621,0.899-3.043-0.438-4.549c0,0-0.626-0.854-2.147-1.309l-0.709-0.245c-0.281-0.203-0.845-0.682-0.845-1.214
	c0,0-0.353,0.163-0.561,0.466c0.082-0.247,0.219-0.479,0.438-0.667c0,0-0.23,0.119-0.444,0.379c-0.164,0.093-0.544,0.352-0.67,0.813
	l0.006-0.029c0,0-0.077-0.105-0.288-0.136c-0.209-0.029-0.575,0.11-0.575,0.11s-2.218,0.866-2.86,2.862c0,0-0.383,0.902,0.121,3.553
	c-0.712-0.337-0.227,1.407-0.227,1.407C63.939,65.771,64.135,65.973,64.251,66.059z M68.291,56.813
	c-0.108,0.15-0.201,0.338-0.244,0.566l-0.08-0.029C68.028,57.155,68.131,56.973,68.291,56.813z"/>
</svg>
