<?xml version="1.0" encoding="utf-8"?>
<!-- Generator: Adobe Illustrator 16.0.0, SVG Export Plug-In . SVG Version: 6.00 Build 0)  -->
<!DOCTYPE svg PUBLIC "-//W3C//DTD SVG 1.1//EN" "http://www.w3.org/Graphics/SVG/1.1/DTD/svg11.dtd">
<svg version="1.1" id="Layer_7" xmlns="http://www.w3.org/2000/svg" xmlns:xlink="http://www.w3.org/1999/xlink" x="0px" y="0px"
	 width="100px" height="100px" viewBox="0 0 100 100" enable-background="new 0 0 100 100" xml:space="preserve">
<path d="M71.178,54.44c0,0,0.063,0.731,0.014,1.835H28.606c-0.184-1.103-0.207-1.835-0.207-1.835H17.352v24.958h65.297V54.44H71.178
	z M61.818,66.919H40.071c-3.413,0.139-5.825-0.95-7.535-2.532h35.761C66.899,65.872,64.845,66.919,61.818,66.919z M70.061,61.621
	H30.404c-0.476-0.858-0.845-1.74-1.121-2.58h41.569C70.681,59.881,70.426,60.763,70.061,61.621z M37.774,36.854
	c-0.169-0.223-0.168-0.531,0.004-0.753l11.729-15.256c0.117-0.153,0.3-0.243,0.493-0.243s0.375,0.089,0.493,0.243l11.729,15.256
	c0.085,0.111,0.129,0.245,0.129,0.379c0,0.131-0.042,0.263-0.126,0.374c-0.168,0.224-0.465,0.308-0.726,0.204l-7.766-3.067V51.97
	c0,0.344-0.278,0.623-0.622,0.623h-6.225c-0.343,0-0.622-0.279-0.622-0.623V33.991L38.5,37.059
	C38.24,37.162,37.942,37.078,37.774,36.854z"/>
</svg>
