<?xml version="1.0" encoding="utf-8"?>
<!-- Generator: Adobe Illustrator 16.0.0, SVG Export Plug-In . SVG Version: 6.00 Build 0)  -->
<!DOCTYPE svg PUBLIC "-//W3C//DTD SVG 1.1//EN" "http://www.w3.org/Graphics/SVG/1.1/DTD/svg11.dtd">
<svg version="1.1" id="Layer_7" xmlns="http://www.w3.org/2000/svg" xmlns:xlink="http://www.w3.org/1999/xlink" x="0px" y="0px"
	 width="100px" height="100px" viewBox="0 0 100 100" enable-background="new 0 0 100 100" xml:space="preserve">
<path d="M71.178,54.44c0,0,0.063,0.731,0.014,1.835H28.606c-0.184-1.103-0.207-1.835-0.207-1.835H17.352v24.958h65.297V54.44H71.178
	z M61.818,66.919H40.071c-3.413,0.139-5.825-0.95-7.535-2.532h35.761C66.899,65.872,64.845,66.919,61.818,66.919z M70.061,61.621
	H30.404c-0.476-0.858-0.845-1.74-1.121-2.58h41.569C70.681,59.881,70.426,60.763,70.061,61.621z M62.226,36.34
	c0.169,0.223,0.168,0.531-0.004,0.753L50.493,52.35c-0.117,0.153-0.3,0.243-0.493,0.243s-0.375-0.089-0.493-0.243L37.777,37.093
	c-0.085-0.111-0.129-0.245-0.129-0.379c0-0.131,0.042-0.263,0.126-0.374c0.168-0.224,0.465-0.308,0.726-0.204l7.766,3.067V21.225
	c0-0.344,0.278-0.623,0.622-0.623h6.225c0.343,0,0.622,0.279,0.622,0.623v17.979l7.766-3.067
	C61.76,36.032,62.058,36.116,62.226,36.34z"/>
</svg>
