<?xml version="1.0" encoding="utf-8"?>
<!-- Generator: Adobe Illustrator 16.0.0, SVG Export Plug-In . SVG Version: 6.00 Build 0)  -->
<!DOCTYPE svg PUBLIC "-//W3C//DTD SVG 1.1//EN" "http://www.w3.org/Graphics/SVG/1.1/DTD/svg11.dtd">
<svg version="1.1" id="Layer_4" xmlns="http://www.w3.org/2000/svg" xmlns:xlink="http://www.w3.org/1999/xlink" x="0px" y="0px"
	 width="100px" height="100px" viewBox="0 0 100 100" enable-background="new 0 0 100 100" xml:space="preserve">
<path d="M38.143,46.286h5.889v6.334h-5.889V46.286z M73.689,29.396v41.209c0,1.94-1.578,3.518-3.519,3.518H29.83
	c-1.941,0-3.52-1.578-3.52-3.518V29.396c0-1.94,1.578-3.518,3.52-3.518h40.341C72.111,25.877,73.689,27.456,73.689,29.396z
	 M50,46.231c0-1.496-0.635-2.751-1.902-3.765l-0.263-0.199c-1.079-0.832-2.313-1.249-3.703-1.249h-5.989v-6.333h5.908v2.135h5.889
	v-2.153c0-1.399-0.594-2.621-1.781-3.665s-2.557-1.565-4.107-1.565h-5.908c-1.565,0-2.934,0.522-4.107,1.565
	s-1.761,2.265-1.761,3.665v17.971c0,1.412,0.59,2.637,1.771,3.674c1.18,1.037,2.553,1.557,4.117,1.557h5.97
	c1.538,0,2.9-0.52,4.087-1.557C49.406,55.274,50,54.05,50,52.638V46.231z M83.096,22.653v54.693c0,3.493-2.832,6.325-6.324,6.325
	H23.229c-3.492,0-6.324-2.832-6.324-6.325V22.653c0-3.493,2.832-6.325,6.324-6.325h53.543
	C80.264,16.329,83.096,19.161,83.096,22.653z M76.183,29.396c0-3.314-2.697-6.012-6.012-6.012H29.83
	c-3.315,0-6.013,2.697-6.013,6.012v41.209c0,3.314,2.697,6.012,6.013,6.012h40.341c3.314,0,6.012-2.697,6.012-6.012V29.396z"/>
</svg>
