<?xml version="1.0" encoding="utf-8"?>
<!-- Generator: Adobe Illustrator 16.0.0, SVG Export Plug-In . SVG Version: 6.00 Build 0)  -->
<!DOCTYPE svg PUBLIC "-//W3C//DTD SVG 1.1//EN" "http://www.w3.org/Graphics/SVG/1.1/DTD/svg11.dtd">
<svg version="1.1" id="Layer_6" xmlns="http://www.w3.org/2000/svg" xmlns:xlink="http://www.w3.org/1999/xlink" x="0px" y="0px"
	 width="100px" height="100px" viewBox="0 0 100 100" enable-background="new 0 0 100 100" xml:space="preserve">
<path d="M90.982,61.907L73.685,44.61c-1.524-1.524-3.996-1.524-5.52,0l-6.74,6.739L19.423,9.349L8.2,7.875L7.875,8.2l1.474,11.223
	l5.04,5.04h5.707c2.156,0,3.903,1.748,3.903,3.903v5.707l2.351,2.351l4.787,0c2.156,0,3.904,1.748,3.904,3.904v4.787l1.247,1.247
	h5.707c2.156,0,3.903,1.748,3.903,3.903v5.707l5.454,5.454l-6.74,6.739c-1.524,1.524-1.524,3.996,0,5.521l17.297,17.297
	c1.524,1.524,3.997,1.525,5.521,0l23.554-23.554C92.506,65.903,92.506,63.432,90.982,61.907z M19.401,14.984l1.288-1.288
	l38.643,38.643l-1.288,1.288L19.401,14.984z M79.113,65.864L66.14,78.837c-1.524,1.524-3.997,1.524-5.521,0l-4.416-4.417
	c-1.524-1.524-1.524-3.996,0-5.521l12.973-12.973c1.524-1.524,3.996-1.524,5.521,0l4.416,4.417
	C80.637,61.868,80.638,64.339,79.113,65.864z"/>
</svg>
