<?xml version="1.0" encoding="utf-8"?>
<!-- Generator: Adobe Illustrator 16.0.0, SVG Export Plug-In . SVG Version: 6.00 Build 0)  -->
<!DOCTYPE svg PUBLIC "-//W3C//DTD SVG 1.1//EN" "http://www.w3.org/Graphics/SVG/1.1/DTD/svg11.dtd">
<svg version="1.1" id="Layer_6" xmlns="http://www.w3.org/2000/svg" xmlns:xlink="http://www.w3.org/1999/xlink" x="0px" y="0px"
	 width="100px" height="100px" viewBox="0 0 100 100" enable-background="new 0 0 100 100" xml:space="preserve">
<path d="M86.964,55.288c-6.075-6.075-15.24-7.171-22.435-3.297L25.964,13.425c-1.524-1.524-3.996-1.524-5.521,0l-2.208,2.208
	c-1.524,1.524-1.524,3.996,0,5.52l38.566,38.566c-3.875,7.195-2.778,16.36,3.297,22.435c7.419,7.419,19.447,7.419,26.866,0
	C94.383,74.735,94.383,62.707,86.964,55.288z M79.241,74.43c-4.833,4.833-11.308,6.195-14.461,3.042
	c-3.153-3.153-1.792-9.627,3.042-14.46c4.833-4.833,11.307-6.195,14.46-3.042C85.436,63.123,84.074,69.597,79.241,74.43z
	 M17.592,22.349l19.506,19.505L26.977,51.976l-6.026-6.027l5.405-5.405c0.724-0.724,0.724-1.898,0-2.623
	c-0.724-0.724-1.898-0.724-2.622,0l-5.406,5.406l-4.968-4.968l5.405-5.406c0.724-0.724,0.724-1.898,0-2.622
	c-0.724-0.724-1.898-0.724-2.622,0l-5.406,5.405L7.471,32.47L17.592,22.349z"/>
</svg>
