<?xml version="1.0" encoding="utf-8"?>
<!-- Generator: Adobe Illustrator 16.0.0, SVG Export Plug-In . SVG Version: 6.00 Build 0)  -->
<!DOCTYPE svg PUBLIC "-//W3C//DTD SVG 1.1//EN" "http://www.w3.org/Graphics/SVG/1.1/DTD/svg11.dtd">
<svg version="1.1" id="Layer_4" xmlns="http://www.w3.org/2000/svg" xmlns:xlink="http://www.w3.org/1999/xlink" x="0px" y="0px"
	 width="100px" height="100px" viewBox="0 0 100 100" enable-background="new 0 0 100 100" xml:space="preserve">
<path d="M39.389,35.783h7.488v17.188h-7.488V35.783z M73.689,29.396v41.209c0,1.94-1.578,3.518-3.519,3.518H29.83
	c-1.941,0-3.52-1.578-3.52-3.518V29.396c0-1.94,1.578-3.518,3.52-3.518h40.341C72.111,25.877,73.689,27.456,73.689,29.396z
	 M53.643,35.801c0-1.341-0.693-2.518-2.076-3.529c-1.385-1.012-2.971-1.518-4.76-1.518H32.6V58h14.23
	c1.773,0,3.352-0.503,4.736-1.509c1.383-1.006,2.076-2.185,2.076-3.538V35.801z M83.096,22.653v54.693
	c0,3.493-2.832,6.325-6.324,6.325H23.229c-3.492,0-6.324-2.832-6.324-6.325V22.653c0-3.493,2.832-6.325,6.324-6.325h53.543
	C80.264,16.329,83.096,19.161,83.096,22.653z M76.183,29.396c0-3.314-2.697-6.012-6.012-6.012H29.83
	c-3.315,0-6.013,2.697-6.013,6.012v41.209c0,3.314,2.697,6.012,6.013,6.012h40.341c3.314,0,6.012-2.697,6.012-6.012V29.396z"/>
</svg>
