<?xml version="1.0" encoding="utf-8"?>
<!-- Generator: Adobe Illustrator 16.0.0, SVG Export Plug-In . SVG Version: 6.00 Build 0)  -->
<!DOCTYPE svg PUBLIC "-//W3C//DTD SVG 1.1//EN" "http://www.w3.org/Graphics/SVG/1.1/DTD/svg11.dtd">
<svg version="1.1" id="Layer_4" xmlns="http://www.w3.org/2000/svg" xmlns:xlink="http://www.w3.org/1999/xlink" x="0px" y="0px"
	 width="100px" height="100px" viewBox="0 0 100 100" enable-background="new 0 0 100 100" xml:space="preserve">
<path d="M37.859,36.235h6.272v17.935h-6.272V36.235z M73.689,29.396v41.209c0,1.94-1.578,3.518-3.518,3.518H29.83
	c-1.941,0-3.519-1.578-3.519-3.518V29.396c0-1.94,1.578-3.518,3.519-3.518h40.341C72.111,25.877,73.689,27.456,73.689,29.396z
	 M50,36.235c0-1.412-0.594-2.639-1.781-3.683s-2.563-1.565-4.128-1.565h-6.192c-1.578,0-2.958,0.524-4.138,1.574
	c-1.181,1.05-1.771,2.274-1.771,3.674v17.971c0,1.412,0.583,2.633,1.75,3.665s2.54,1.547,4.118,1.547h6.232
	c1.565,0,2.941-0.521,4.128-1.565C49.406,56.809,50,55.581,50,54.169V36.235z M83.096,22.653v54.693
	c0,3.493-2.833,6.325-6.325,6.325H23.229c-3.492,0-6.325-2.832-6.325-6.325V22.653c0-3.493,2.833-6.325,6.325-6.325h53.542
	C80.263,16.329,83.096,19.161,83.096,22.653z M76.183,29.396c0-3.314-2.697-6.012-6.012-6.012H29.83
	c-3.315,0-6.013,2.697-6.013,6.012v41.209c0,3.314,2.697,6.012,6.013,6.012h40.341c3.314,0,6.012-2.697,6.012-6.012V29.396z"/>
</svg>
