<?xml version="1.0" encoding="utf-8"?>
<!-- Generator: Adobe Illustrator 16.0.0, SVG Export Plug-In . SVG Version: 6.00 Build 0)  -->
<!DOCTYPE svg PUBLIC "-//W3C//DTD SVG 1.1//EN" "http://www.w3.org/Graphics/SVG/1.1/DTD/svg11.dtd">
<svg version="1.1" id="Layer_4" xmlns="http://www.w3.org/2000/svg" xmlns:xlink="http://www.w3.org/1999/xlink" x="0px" y="0px"
	 width="100px" height="100px" viewBox="0 0 100 100" enable-background="new 0 0 100 100" xml:space="preserve">
<path d="M70.171,25.877H29.83c-1.941,0-3.519,1.578-3.519,3.518v41.209c0,1.94,1.578,3.518,3.519,3.518h40.341
	c1.94,0,3.518-1.578,3.518-3.518V29.396C73.689,27.456,72.111,25.877,70.171,25.877z M41.765,58.88h-6.151l7.912-23.183h-5.787
	v2.135H31.87v-7.383h16.39L50,33.598L41.765,58.88z M76.771,16.329H23.229c-3.492,0-6.325,2.832-6.325,6.325v54.693
	c0,3.493,2.833,6.325,6.325,6.325h53.542c3.492,0,6.325-2.832,6.325-6.325V22.653C83.096,19.161,80.263,16.329,76.771,16.329z
	 M76.183,70.604c0,3.314-2.697,6.012-6.012,6.012H29.83c-3.315,0-6.013-2.697-6.013-6.012V29.396c0-3.314,2.697-6.012,6.013-6.012
	h40.341c3.314,0,6.012,2.697,6.012,6.012V70.604z"/>
</svg>
