<?xml version="1.0" encoding="utf-8"?>
<!-- Generator: Adobe Illustrator 16.0.0, SVG Export Plug-In . SVG Version: 6.00 Build 0)  -->
<!DOCTYPE svg PUBLIC "-//W3C//DTD SVG 1.1//EN" "http://www.w3.org/Graphics/SVG/1.1/DTD/svg11.dtd">
<svg version="1.1" id="Layer_4" xmlns="http://www.w3.org/2000/svg" xmlns:xlink="http://www.w3.org/1999/xlink" x="0px" y="0px"
	 width="100px" height="100px" viewBox="0 0 100 100" enable-background="new 0 0 100 100" xml:space="preserve">
<path d="M70.171,25.877H29.83c-1.941,0-3.52,1.578-3.52,3.518v41.209c0,1.941,1.578,3.52,3.52,3.52h40.341
	c1.94,0,3.519-1.578,3.519-3.52V29.395C73.689,27.455,72.111,25.877,70.171,25.877z M56.211,57.668h-6.904l-3.174-11.775
	l-3.195,11.775h-6.904L29.92,30.422h6.93l2.775,13.926l3.709-13.926h5.598l3.688,13.943l2.775-13.943h6.951L56.211,57.668z
	 M76.771,16.328H23.229c-3.492,0-6.324,2.832-6.324,6.324v54.693c0,3.494,2.832,6.326,6.324,6.326h53.543
	c3.492,0,6.324-2.832,6.324-6.326V22.652C83.096,19.16,80.264,16.328,76.771,16.328z M76.183,70.604
	c0,3.314-2.697,6.012-6.012,6.012H29.83c-3.315,0-6.013-2.697-6.013-6.012V29.395c0-3.314,2.697-6.012,6.013-6.012h40.341
	c3.314,0,6.012,2.697,6.012,6.012V70.604z"/>
</svg>
