<?xml version="1.0" encoding="utf-8"?>
<!-- Generator: Adobe Illustrator 16.0.0, SVG Export Plug-In . SVG Version: 6.00 Build 0)  -->
<!DOCTYPE svg PUBLIC "-//W3C//DTD SVG 1.1//EN" "http://www.w3.org/Graphics/SVG/1.1/DTD/svg11.dtd">
<svg version="1.1" id="Layer_4" xmlns="http://www.w3.org/2000/svg" xmlns:xlink="http://www.w3.org/1999/xlink" x="0px" y="0px"
	 width="100px" height="100px" viewBox="0 0 100 100" enable-background="new 0 0 100 100" xml:space="preserve">
<path d="M70.171,25.877H29.83c-1.941,0-3.52,1.578-3.52,3.519v41.209c0,1.94,1.578,3.519,3.52,3.519h40.341
	c1.94,0,3.519-1.578,3.519-3.519V29.396C73.689,27.455,72.111,25.877,70.171,25.877z M45.326,57h-6.951l-8.188-27.246h6.951
	c0.949,3.191,1.715,5.767,2.299,7.727c0.582,1.959,1.387,4.621,2.414,7.986c1.01-3.365,1.807-6.029,2.391-7.995
	s1.357-4.538,2.32-7.718h6.93L45.326,57z M76.771,16.328H23.229c-3.492,0-6.324,2.832-6.324,6.325v54.693
	c0,3.493,2.832,6.325,6.324,6.325h53.543c3.492,0,6.324-2.832,6.324-6.325V22.653C83.096,19.16,80.264,16.328,76.771,16.328z
	 M76.183,70.604c0,3.314-2.697,6.012-6.012,6.012H29.83c-3.315,0-6.013-2.697-6.013-6.012V29.396c0-3.314,2.697-6.012,6.013-6.012
	h40.341c3.314,0,6.012,2.697,6.012,6.012V70.604z"/>
</svg>
