<?xml version="1.0" encoding="utf-8"?>
<!-- Generator: Adobe Illustrator 16.0.0, SVG Export Plug-In . SVG Version: 6.00 Build 0)  -->
<!DOCTYPE svg PUBLIC "-//W3C//DTD SVG 1.1//EN" "http://www.w3.org/Graphics/SVG/1.1/DTD/svg11.dtd">
<svg version="1.1" id="Layer_4" xmlns="http://www.w3.org/2000/svg" xmlns:xlink="http://www.w3.org/1999/xlink" x="0px" y="0px"
	 width="100px" height="100px" viewBox="0 0 100 100" enable-background="new 0 0 100 100" xml:space="preserve">
<path d="M70.171,25.877H29.83c-1.941,0-3.519,1.578-3.519,3.518v41.209c0,1.94,1.578,3.518,3.519,3.518h40.341
	c1.94,0,3.518-1.578,3.518-3.518V29.396C73.689,27.456,72.111,25.877,70.171,25.877z M51.5,56.867h-6.765v-8.585H37.41v8.585h-6.765
	V34.65c0-1.341,0.68-2.515,2.042-3.521c1.36-1.006,2.943-1.509,4.747-1.509h7.255c1.788,0,3.371,0.503,4.747,1.509
	S51.5,33.31,51.5,34.65V56.867z M37.41,34.65h7.325v8.603H37.41V34.65z M76.771,16.329H23.229c-3.492,0-6.325,2.832-6.325,6.325
	v54.693c0,3.493,2.833,6.325,6.325,6.325h53.542c3.492,0,6.325-2.832,6.325-6.325V22.653C83.096,19.161,80.263,16.329,76.771,16.329
	z M76.183,70.604c0,3.314-2.697,6.012-6.012,6.012H29.83c-3.315,0-6.013-2.697-6.013-6.012V29.396c0-3.314,2.697-6.012,6.013-6.012
	h40.341c3.314,0,6.012,2.697,6.012,6.012V70.604z"/>
</svg>
