<?xml version="1.0" encoding="utf-8"?>
<!-- Generator: Adobe Illustrator 16.0.0, SVG Export Plug-In . SVG Version: 6.00 Build 0)  -->
<!DOCTYPE svg PUBLIC "-//W3C//DTD SVG 1.1//EN" "http://www.w3.org/Graphics/SVG/1.1/DTD/svg11.dtd">
<svg version="1.1" id="Layer_4" xmlns="http://www.w3.org/2000/svg" xmlns:xlink="http://www.w3.org/1999/xlink" x="0px" y="0px"
	 width="100px" height="100px" viewBox="0 0 100 100" enable-background="new 0 0 100 100" xml:space="preserve">
<path d="M72.921,25.877H32.58c-1.941,0-3.519,1.578-3.519,3.518v41.209c0,1.941,1.578,3.52,3.519,3.52h40.341
	c1.94,0,3.518-1.578,3.518-3.52V29.395C76.439,27.455,74.861,25.877,72.921,25.877z M61.225,41.771L47.806,52.087
	c-0.1,0.077-0.218,0.115-0.334,0.114c-0.114,0-0.23-0.036-0.329-0.11c-0.197-0.146-0.271-0.408-0.181-0.637l2.699-6.832H33.848
	c-0.302,0-0.55-0.244-0.547-0.547v-5.475c-0.001-0.302,0.245-0.546,0.548-0.548l15.812,0.002l-2.698-6.832
	c-0.09-0.229-0.016-0.489,0.181-0.638c0.196-0.149,0.467-0.149,0.663,0.002l13.418,10.316c0.135,0.104,0.214,0.266,0.214,0.435
	C61.438,41.508,61.358,41.669,61.225,41.771z M79.521,16.328H25.979c-3.492,0-6.325,2.832-6.325,6.324v54.693
	c0,3.494,2.833,6.326,6.325,6.326h53.542c3.492,0,6.325-2.832,6.325-6.326V22.652C85.846,19.16,83.013,16.328,79.521,16.328z
	 M78.933,70.604c0,3.314-2.697,6.012-6.012,6.012H32.58c-3.315,0-6.013-2.697-6.013-6.012V29.395c0-3.314,2.697-6.012,6.013-6.012
	h40.341c3.314,0,6.012,2.697,6.012,6.012V70.604z"/>
</svg>
