<?xml version="1.0" encoding="utf-8"?>
<!-- Generator: Adobe Illustrator 16.0.0, SVG Export Plug-In . SVG Version: 6.00 Build 0)  -->
<!DOCTYPE svg PUBLIC "-//W3C//DTD SVG 1.1//EN" "http://www.w3.org/Graphics/SVG/1.1/DTD/svg11.dtd">
<svg version="1.1" id="Layer_4" xmlns="http://www.w3.org/2000/svg" xmlns:xlink="http://www.w3.org/1999/xlink" x="0px" y="0px"
	 width="100px" height="100px" viewBox="0 0 100 100" enable-background="new 0 0 100 100" xml:space="preserve">
<path d="M70.171,25.877H29.83c-1.941,0-3.52,1.578-3.52,3.519v41.209c0,1.94,1.578,3.519,3.52,3.519h40.341
	c1.94,0,3.519-1.578,3.519-3.519V29.396C73.689,27.455,72.111,25.877,70.171,25.877z M50.114,36.379h-6.906v-2.203h-6.717v3.643
	l10.963,5.932c1.773,0.959,2.66,2.248,2.66,3.867v3.746c0,1.353-0.689,2.529-2.064,3.529c-1.377,1-2.959,1.5-4.748,1.5h-6.811
	c-1.805,0-3.383-0.497-4.736-1.492c-1.354-0.994-2.029-2.167-2.029-3.52V49.16h6.857v2.203h6.742v-3.799L32.43,41.807
	c-1.803-0.959-2.705-2.26-2.705-3.902v-3.746c0-1.341,0.68-2.512,2.041-3.512s2.943-1.5,4.746-1.5h6.789
	c1.789,0,3.371,0.503,4.748,1.509c1.375,1.006,2.064,2.18,2.064,3.521V36.379z M76.771,16.328H23.229
	c-3.492,0-6.324,2.832-6.324,6.325v54.693c0,3.493,2.832,6.325,6.324,6.325h53.543c3.492,0,6.324-2.832,6.324-6.325V22.653
	C83.096,19.16,80.264,16.328,76.771,16.328z M76.183,70.604c0,3.314-2.697,6.012-6.012,6.012H29.83
	c-3.315,0-6.013-2.697-6.013-6.012V29.396c0-3.314,2.697-6.012,6.013-6.012h40.341c3.314,0,6.012,2.697,6.012,6.012V70.604z"/>
</svg>
