<?xml version="1.0" encoding="utf-8"?>
<!-- Generator: Adobe Illustrator 16.0.0, SVG Export Plug-In . SVG Version: 6.00 Build 0)  -->
<!DOCTYPE svg PUBLIC "-//W3C//DTD SVG 1.1//EN" "http://www.w3.org/Graphics/SVG/1.1/DTD/svg11.dtd">
<svg version="1.1" id="Layer_4" xmlns="http://www.w3.org/2000/svg" xmlns:xlink="http://www.w3.org/1999/xlink" x="0px" y="0px"
	 width="100px" height="100px" viewBox="0 0 100 100" enable-background="new 0 0 100 100" xml:space="preserve">
<path d="M70.171,25.877H29.83c-1.941,0-3.52,1.578-3.52,3.518v41.209c0,1.94,1.578,3.518,3.52,3.518h40.341
	c1.94,0,3.519-1.578,3.519-3.518V29.396C73.689,27.456,72.111,25.877,70.171,25.877z M50.598,52.107h-1.639v6.334H43.07v-0.869
	h0.021v-5.465h-8.438l-3.723-2.968L43.091,30.01h5.868v16.849h1.639V52.107z M39.125,46.859l3.966-6.226v6.226H39.125z
	 M76.771,16.329H23.229c-3.492,0-6.324,2.832-6.324,6.325v54.693c0,3.493,2.832,6.325,6.324,6.325h53.543
	c3.492,0,6.324-2.832,6.324-6.325V22.653C83.096,19.161,80.264,16.329,76.771,16.329z M76.183,70.604
	c0,3.314-2.697,6.012-6.012,6.012H29.83c-3.315,0-6.013-2.697-6.013-6.012V29.396c0-3.314,2.697-6.012,6.013-6.012h40.341
	c3.314,0,6.012,2.697,6.012,6.012V70.604z"/>
</svg>
