<?xml version="1.0" encoding="utf-8"?>
<!-- Generator: Adobe Illustrator 16.0.0, SVG Export Plug-In . SVG Version: 6.00 Build 0)  -->
<!DOCTYPE svg PUBLIC "-//W3C//DTD SVG 1.1//EN" "http://www.w3.org/Graphics/SVG/1.1/DTD/svg11.dtd">
<svg version="1.1" id="Layer_4" xmlns="http://www.w3.org/2000/svg" xmlns:xlink="http://www.w3.org/1999/xlink" x="0px" y="0px"
	 width="100px" height="100px" viewBox="0 0 100 100" enable-background="new 0 0 100 100" xml:space="preserve">
<path d="M70.171,25.877H29.83c-1.941,0-3.52,1.578-3.52,3.519v41.209c0,1.94,1.578,3.519,3.52,3.519h40.341
	c1.94,0,3.519-1.578,3.519-3.519V29.396C73.689,27.455,72.111,25.877,70.171,25.877z M50,51.254c0,1.353-0.682,2.529-2.041,3.529
	c-1.361,1-2.943,1.5-4.748,1.5H37.1c-1.805,0-3.387-0.497-4.748-1.492c-1.359-0.994-2.041-2.167-2.041-3.52v-2.221h6.766v2.203
	h6.158V29.037H50V51.254z M76.771,16.328H23.229c-3.492,0-6.324,2.832-6.324,6.325v54.693c0,3.493,2.832,6.325,6.324,6.325h53.543
	c3.492,0,6.324-2.832,6.324-6.325V22.653C83.096,19.16,80.264,16.328,76.771,16.328z M76.183,70.604
	c0,3.314-2.697,6.012-6.012,6.012H29.83c-3.315,0-6.013-2.697-6.013-6.012V29.396c0-3.314,2.697-6.012,6.013-6.012h40.341
	c3.314,0,6.012,2.697,6.012,6.012V70.604z"/>
</svg>
