<?xml version="1.0" encoding="utf-8"?>
<!-- Generator: Adobe Illustrator 16.0.0, SVG Export Plug-In . SVG Version: 6.00 Build 0)  -->
<!DOCTYPE svg PUBLIC "-//W3C//DTD SVG 1.1//EN" "http://www.w3.org/Graphics/SVG/1.1/DTD/svg11.dtd">
<svg version="1.1" id="Layer_4" xmlns="http://www.w3.org/2000/svg" xmlns:xlink="http://www.w3.org/1999/xlink" x="0px" y="0px"
	 width="100px" height="100px" viewBox="0 0 100 100" enable-background="new 0 0 100 100" xml:space="preserve">
<path d="M43.526,37.459l1.88,5.89h-6.138l1.845-5.89c0.426-1.419,0.781-3.086,1.136-4.47h0.071
	C42.675,34.373,43.065,36.005,43.526,37.459z M38.56,46.647l-2.058,6.776h-4.506l7.663-23.911h5.57l7.291,22.441
	c0.712-0.516,1.529-0.861,2.403-1.006l6.034-3.57V26.11c0-1.556-1.266-2.821-2.821-2.821H25.784c-1.557,0-2.822,1.266-2.822,2.821
	v33.049c0,1.556,1.266,2.821,2.822,2.821h19.843v-4.216c0-1.989,1.012-3.746,2.547-4.785l-2.022-6.332H38.56z M20.962,59.159V26.11
	c0-2.658,2.163-4.821,4.822-4.821h32.353c2.658,0,4.821,2.163,4.821,4.821v20.084l4.306-2.547h0.82c0.142,0,0.279,0.012,0.418,0.021
	V20.703c0-2.801-2.271-5.072-5.072-5.072H20.49c-2.801,0-5.072,2.271-5.072,5.072v43.863c0,2.801,2.271,5.072,5.072,5.072h25.137
	V63.98H25.784C23.125,63.98,20.962,61.817,20.962,59.159z M68.39,46.648l-12.208,7.223c-0.91,0-1.71,0.443-2.216,1.121h-2.26
	c-1.531,0-2.773,1.241-2.773,2.773v13.291c0,1.531,1.242,2.773,2.773,2.773h2.826c0.463,0.343,1.029,0.554,1.649,0.554l12.208,9.985
	c1.532,0,2.773-1.242,2.773-2.773V49.422C71.163,47.891,69.922,46.648,68.39,46.648z M78.563,65.509c0-2.557-2.08-4.637-4.637-4.637
	v1.109c1.944,0,3.527,1.583,3.527,3.527s-1.583,3.526-3.527,3.526v1.109C76.483,70.145,78.563,68.065,78.563,65.509z M75.968,56.894
	v1.11c4.139,0,7.505,3.367,7.505,7.505c0,4.139-3.366,7.505-7.505,7.505v1.109c4.75,0,8.614-3.864,8.614-8.614
	S80.718,56.894,75.968,56.894z"/>
</svg>
