<?xml version="1.0" encoding="utf-8"?>
<!-- Generator: Adobe Illustrator 16.0.0, SVG Export Plug-In . SVG Version: 6.00 Build 0)  -->
<!DOCTYPE svg PUBLIC "-//W3C//DTD SVG 1.1//EN" "http://www.w3.org/Graphics/SVG/1.1/DTD/svg11.dtd">
<svg version="1.1" id="Layer_4" xmlns="http://www.w3.org/2000/svg" xmlns:xlink="http://www.w3.org/1999/xlink" x="0px" y="0px"
	 width="100px" height="100px" viewBox="0 0 100 100" enable-background="new 0 0 100 100" xml:space="preserve">
<path d="M75.142,10.026H24.858c-2.761,0-5,2.239-5,5v69.948c0,2.761,2.239,5,5,5h50.284c2.761,0,5-2.239,5-5V15.026
	C80.142,12.265,77.903,10.026,75.142,10.026z M38.276,79.089c0,1.021-0.828,1.85-1.85,1.85h-7.089c-1.021,0-1.85-0.828-1.85-1.85V72
	c0-1.021,0.828-1.849,1.85-1.849h7.089c1.021,0,1.85,0.828,1.85,1.849V79.089z M38.276,61.982c0,1.021-0.828,1.85-1.85,1.85h-7.089
	c-1.021,0-1.85-0.828-1.85-1.85v-7.089c0-1.021,0.828-1.85,1.85-1.85h7.089c1.021,0,1.85,0.828,1.85,1.85V61.982z M38.276,45.03
	c0,1.021-0.828,1.85-1.85,1.85h-7.089c-1.021,0-1.85-0.828-1.85-1.85v-7.09c0-1.021,0.828-1.849,1.85-1.849h7.089
	c1.021,0,1.85,0.828,1.85,1.849V45.03z M38.276,28c0,1.021-0.828,1.849-1.85,1.849h-7.089c-1.021,0-1.85-0.828-1.85-1.849v-7.09
	c0-1.021,0.828-1.85,1.85-1.85h7.089c1.021,0,1.85,0.828,1.85,1.85V28z M55.405,79.089c0,1.021-0.828,1.85-1.849,1.85h-7.09
	c-1.021,0-1.849-0.828-1.849-1.85V72c0-1.021,0.828-1.849,1.849-1.849h7.09c1.021,0,1.849,0.828,1.849,1.849V79.089z M55.405,61.982
	c0,1.021-0.828,1.85-1.849,1.85h-7.09c-1.021,0-1.849-0.828-1.849-1.85v-7.089c0-1.021,0.828-1.85,1.849-1.85h7.09
	c1.021,0,1.849,0.828,1.849,1.85V61.982z M55.405,45.03c0,1.021-0.828,1.85-1.849,1.85h-7.09c-1.021,0-1.849-0.828-1.849-1.85v-7.09
	c0-1.021,0.828-1.849,1.849-1.849h7.09c1.021,0,1.849,0.828,1.849,1.849V45.03z M55.405,28c0,1.021-0.828,1.849-1.849,1.849h-7.09
	c-1.021,0-1.849-0.828-1.849-1.849v-7.09c0-1.021,0.828-1.85,1.849-1.85h7.09c1.021,0,1.849,0.828,1.849,1.85V28z M72.512,72v2.62
	v4.47c0,1.021-0.828,1.85-1.849,1.85h-7.09c-1.021,0-1.85-0.828-1.85-1.85v-4.47V72V54.893c0-1.021,0.828-1.85,1.85-1.85h7.09
	c1.021,0,1.849,0.828,1.849,1.85V72z M72.512,45.03c0,1.021-0.828,1.85-1.849,1.85h-7.09c-1.021,0-1.85-0.828-1.85-1.85v-7.09
	c0-1.021,0.828-1.849,1.85-1.849h7.09c1.021,0,1.849,0.828,1.849,1.849V45.03z M72.512,28c0,1.021-0.828,1.849-1.849,1.849h-7.09
	c-1.021,0-1.85-0.828-1.85-1.849v-7.09c0-1.021,0.828-1.85,1.85-1.85h7.09c1.021,0,1.849,0.828,1.849,1.85V28z"/>
</svg>
