<?xml version="1.0" encoding="utf-8"?>
<!-- Generator: Adobe Illustrator 16.0.0, SVG Export Plug-In . SVG Version: 6.00 Build 0)  -->
<!DOCTYPE svg PUBLIC "-//W3C//DTD SVG 1.1//EN" "http://www.w3.org/Graphics/SVG/1.1/DTD/svg11.dtd">
<svg version="1.1" id="Layer_6" xmlns="http://www.w3.org/2000/svg" xmlns:xlink="http://www.w3.org/1999/xlink" x="0px" y="0px"
	 width="100px" height="100px" viewBox="0 0 100 100" enable-background="new 0 0 100 100" xml:space="preserve">
<path d="M86.666,80.333v4H13.333V15.667h4v64.667H86.666z M30.771,55.106l10.459,7.143l5.524-5.272l5.829,3.643l8.871-4.682
	l6.344,6.079l12.911-19.498l-1.668-1.104L67.452,58.916l-5.656-5.421l-9.129,4.818l-6.171-3.857l-5.476,5.227l-10.041-6.857
	l-11.259,4.975l0.809,1.829L30.771,55.106z M30.605,38.837l10.81,12.391l5.399-12.517l5.605,8.41l9.14-7.87l6.209,6.468
	l12.94-19.542l-1.668-1.104l-11.56,17.458l-5.791-6.032l-8.86,7.63l-6.395-9.59l-5.601,12.983l-9.69-11.109L19.721,41.46
	l0.809,1.829L30.605,38.837z"/>
</svg>
