<?xml version="1.0" encoding="utf-8"?>
<!-- Generator: Adobe Illustrator 16.0.4, SVG Export Plug-In . SVG Version: 6.00 Build 0)  -->
<!DOCTYPE svg PUBLIC "-//W3C//DTD SVG 1.1//EN" "http://www.w3.org/Graphics/SVG/1.1/DTD/svg11.dtd">
<svg version="1.1" id="Capa_1" xmlns="http://www.w3.org/2000/svg" xmlns:xlink="http://www.w3.org/1999/xlink" x="0px" y="0px"
	 width="100px" height="100px" viewBox="0 0 100 100" enable-background="new 0 0 100 100" xml:space="preserve">
<g id="Layer_7">
	<path d="M57.299,81.837c0.473,0,0.943-0.124,1.365-0.37c0.828-0.484,1.338-1.373,1.338-2.332V6.189
		c0-0.937-0.486-1.809-1.283-2.301c-0.797-0.491-1.791-0.533-2.629-0.115L25.582,19.061c-0.914,0.459-1.49,1.395-1.49,2.416v0.789
		h-12.68c-1.104,0-2,0.896-2,2v34.25c0,1.104,0.896,2,2,2h12.68v1.487c0,0.976,0.527,1.877,1.379,2.354l30.505,17.134
		C56.389,81.723,56.844,81.837,57.299,81.837z M54.598,74.52L29.494,60.421V23.145l25.104-12.58V74.52z M71.217,40.71
		c0-4.798-2.443-8.989-6.533-11.212c-0.729-0.396-0.998-1.307-0.602-2.034c0.396-0.729,1.307-0.995,2.033-0.603
		c5.072,2.757,8.102,7.934,8.102,13.849s-3.029,11.092-8.102,13.849c-0.227,0.123-0.473,0.183-0.715,0.183
		c-0.531,0-1.047-0.283-1.318-0.784c-0.396-0.729-0.127-1.639,0.602-2.034C68.773,49.699,71.217,45.508,71.217,40.71z
		 M66.623,18.964c0.396-0.729,1.307-0.995,2.033-0.603c8.18,4.446,13.064,12.801,13.064,22.349s-4.886,17.901-13.064,22.349
		c-0.227,0.123-0.473,0.183-0.715,0.183c-0.531,0-1.047-0.283-1.318-0.784c-0.396-0.729-0.127-1.639,0.602-2.034
		c7.197-3.912,11.496-11.281,11.496-19.712c0-8.431-4.299-15.8-11.496-19.712C66.496,20.602,66.227,19.691,66.623,18.964z
		 M90.588,40.711c0,12.754-6.521,23.912-17.443,29.848c-0.227,0.123-0.473,0.183-0.715,0.183c-0.531,0-1.047-0.283-1.318-0.784
		c-0.396-0.729-0.127-1.639,0.603-2.034c9.938-5.401,15.875-15.573,15.875-27.211s-5.937-21.811-15.875-27.213
		c-0.729-0.396-0.998-1.307-0.603-2.035c0.396-0.728,1.306-0.995,2.035-0.602C84.066,16.798,90.588,27.957,90.588,40.711z
		 M59.174,93.021H69.63v2.66H59.174v0.832H47.596v-0.832H34.707v-2.66h12.889v-1.332h3.378v-3.06h1.193v-4.47h2.582v4.469h1.046
		v3.061h3.378V93.021z"/>
</g>
</svg>
