<?xml version="1.0" encoding="utf-8"?>
<!-- Generator: Adobe Illustrator 16.0.4, SVG Export Plug-In . SVG Version: 6.00 Build 0)  -->
<!DOCTYPE svg PUBLIC "-//W3C//DTD SVG 1.1//EN" "http://www.w3.org/Graphics/SVG/1.1/DTD/svg11.dtd">
<svg version="1.1" id="Capa_1" xmlns="http://www.w3.org/2000/svg" xmlns:xlink="http://www.w3.org/1999/xlink" x="0px" y="0px"
	 width="100px" height="100px" viewBox="0 0 100 100" enable-background="new 0 0 100 100" xml:space="preserve">
<g id="Layer_7">
	<path d="M74.012,11.227c-0.797-0.491-1.791-0.533-2.63-0.115L40.876,26.398c-0.914,0.459-1.492,1.395-1.492,2.416v0.789H26.706
		c-1.104,0-2,0.896-2,2v34.25c0,1.104,0.896,2,2,2h12.678v1.486c0,0.977,0.528,1.877,1.379,2.355L71.27,88.829
		c0.412,0.229,0.867,0.346,1.323,0.346c0.472,0,0.942-0.124,1.364-0.37c0.828-0.484,1.337-1.373,1.337-2.332V13.527
		C75.294,12.591,74.809,11.719,74.012,11.227z M69.893,81.855L44.788,67.759V30.482l25.104-12.58V81.855z"/>
</g>
</svg>
