<?xml version="1.0" encoding="utf-8"?>
<!-- Generator: Adobe Illustrator 16.0.4, SVG Export Plug-In . SVG Version: 6.00 Build 0)  -->
<!DOCTYPE svg PUBLIC "-//W3C//DTD SVG 1.1//EN" "http://www.w3.org/Graphics/SVG/1.1/DTD/svg11.dtd">
<svg version="1.1" id="Capa_1" xmlns="http://www.w3.org/2000/svg" xmlns:xlink="http://www.w3.org/1999/xlink" x="0px" y="0px"
	 width="100px" height="100px" viewBox="0 0 100 100" enable-background="new 0 0 100 100" xml:space="preserve">
<g id="Layer_7">
	<path d="M57.468,68.758c0,4.124-3.344,7.469-7.468,7.469c-4.125,0-7.468-3.345-7.468-7.469S45.875,61.29,50,61.29
		C54.124,61.29,57.468,64.634,57.468,68.758z M50,33.911c3.12,0,5.65-2.531,5.65-5.651c0-3.122-2.53-5.651-5.65-5.651
		c-3.122,0-5.651,2.529-5.651,5.651C44.349,31.38,46.878,33.911,50,33.911z M78.258,7.344v85.313H21.742V7.344H78.258z
		 M37.082,28.47c0,7.134,5.783,12.918,12.918,12.918c7.134,0,12.918-5.784,12.918-12.918c0-7.134-5.784-12.918-12.918-12.918
		C42.865,15.552,37.082,21.336,37.082,28.47z M27.169,89.021c0-0.595-0.481-1.076-1.077-1.076c-0.595,0-1.077,0.481-1.077,1.076
		c0,0.596,0.482,1.078,1.077,1.078C26.688,90.1,27.169,89.617,27.169,89.021z M27.169,12.054c0-0.594-0.481-1.077-1.077-1.077
		c-0.595,0-1.077,0.483-1.077,1.077c0,0.595,0.482,1.077,1.077,1.077C26.688,13.131,27.169,12.648,27.169,12.054z M66.954,68.436
		c0-9.363-7.591-16.955-16.954-16.955c-9.364,0-16.955,7.592-16.955,16.955c0,9.362,7.591,16.955,16.955,16.955
		C59.363,85.391,66.954,77.798,66.954,68.436z M70.296,45.479c0-1.895-1.536-3.432-3.433-3.432c-1.895,0-3.43,1.537-3.43,3.432
		s1.535,3.431,3.43,3.431C68.76,48.91,70.296,47.374,70.296,45.479z M74.355,89.021c0-0.595-0.481-1.076-1.078-1.076
		c-0.594,0-1.075,0.481-1.075,1.076c0,0.596,0.481,1.078,1.075,1.078C73.874,90.1,74.355,89.617,74.355,89.021z M74.355,12.054
		c0-0.594-0.481-1.077-1.078-1.077c-0.594,0-1.075,0.483-1.075,1.077c0,0.595,0.481,1.077,1.075,1.077
		C73.874,13.131,74.355,12.648,74.355,12.054z"/>
</g>
</svg>
