<?xml version="1.0" encoding="utf-8"?>
<!-- Generator: Adobe Illustrator 16.0.0, SVG Export Plug-In . SVG Version: 6.00 Build 0)  -->
<!DOCTYPE svg PUBLIC "-//W3C//DTD SVG 1.1//EN" "http://www.w3.org/Graphics/SVG/1.1/DTD/svg11.dtd">
<svg version="1.1" id="Layer_7" xmlns="http://www.w3.org/2000/svg" xmlns:xlink="http://www.w3.org/1999/xlink" x="0px" y="0px"
	 width="100px" height="100px" viewBox="0 0 100 100" enable-background="new 0 0 100 100" xml:space="preserve">
<path d="M83.955,39.631h-0.473L57.139,16.7v7.95l6.396,5.563c1.271-0.425,2.822,0.018,3.655,1.121
	c0.567,0.753,0.763,1.693,0.597,2.578l9.335,8.12l-4.651,3.636L50,62.147L27.529,45.668l-4.525-3.4l9.268-8.124
	c-0.073-0.273-0.121-0.554-0.121-0.839c0-0.713,0.226-1.392,0.651-1.962c0.874-1.16,2.492-1.611,3.829-1.08l0.047,0.019l6.182-5.418
	v-7.999L16.706,39.631h-0.661c-0.416,0-0.754,0.338-0.754,0.755v46.782c0,0.417,0.338,0.754,0.754,0.754h67.91
	c0.416,0,0.754-0.337,0.754-0.754V40.386C84.709,39.969,84.371,39.631,83.955,39.631z M78.673,81.886H21.327v-33.28l28.227,20.7
	c0.267,0.195,0.626,0.195,0.893,0l28.227-20.7V81.886z M35.707,32.785l9.652,3.811V14.251c0-0.428,0.346-0.773,0.773-0.773h7.734
	c0.426,0,0.771,0.346,0.771,0.773v22.344l9.654-3.811c0.322-0.129,0.691-0.025,0.9,0.252s0.209,0.662-0.004,0.938L50.613,52.935
	c-0.146,0.189-0.373,0.301-0.613,0.301s-0.467-0.111-0.613-0.301L34.811,33.974c-0.107-0.139-0.16-0.307-0.16-0.471
	s0.051-0.328,0.154-0.467C35.014,32.759,35.383,32.656,35.707,32.785z"/>
</svg>
