<?xml version="1.0" encoding="utf-8"?>
<!-- Generator: Adobe Illustrator 16.0.0, SVG Export Plug-In . SVG Version: 6.00 Build 0)  -->
<!DOCTYPE svg PUBLIC "-//W3C//DTD SVG 1.1//EN" "http://www.w3.org/Graphics/SVG/1.1/DTD/svg11.dtd">
<svg version="1.1" id="Layer_7" xmlns="http://www.w3.org/2000/svg" xmlns:xlink="http://www.w3.org/1999/xlink" x="0px" y="0px"
	 width="100px" height="100px" viewBox="0 0 100 100" enable-background="new 0 0 100 100" xml:space="preserve">
<path d="M92.418,55.788c0,8.542-6.95,15.491-15.491,15.491H55.781v-3.27h21.146c6.738,0,12.222-5.482,12.222-12.222
	s-5.483-12.222-12.222-12.222c-0.635,0-1.303,0.061-2.045,0.187l-1.046,0.176l-0.587-0.883c-2.277-3.42-6.082-5.461-10.179-5.461
	c-0.41,0-0.827,0.021-1.237,0.062l-1.38,0.141l-0.362-1.338c-1.442-5.308-6.287-9.015-11.781-9.015
	c-6.739,0-12.221,5.482-12.221,12.221c0,0.847,0.09,1.704,0.27,2.549l0.17,0.798h-6.446c0.882-0.601,1.83-1.12,2.844-1.536
	c-0.072-0.604-0.107-1.209-0.107-1.811c0-8.542,6.949-15.491,15.491-15.491c6.518,0,12.313,4.112,14.53,10.152
	c4.942-0.063,9.55,2.188,12.523,6.068c0.54-0.06,1.057-0.089,1.563-0.089C85.468,40.296,92.418,47.246,92.418,55.788z M7.582,44.836
	h45v31h-45V44.836z M13.664,47.836l16.418,12.04L46.5,47.836H13.664z M10.582,72.836h39v-23.54l-19.5,14.301l-19.5-14.301V72.836z"
	/>
</svg>
