<?xml version="1.0" encoding="utf-8"?>
<!-- Generator: Adobe Illustrator 16.0.0, SVG Export Plug-In . SVG Version: 6.00 Build 0)  -->
<!DOCTYPE svg PUBLIC "-//W3C//DTD SVG 1.1//EN" "http://www.w3.org/Graphics/SVG/1.1/DTD/svg11.dtd">
<svg version="1.1" id="Layer_7" xmlns="http://www.w3.org/2000/svg" xmlns:xlink="http://www.w3.org/1999/xlink" x="0px" y="0px"
	 width="100px" height="100px" viewBox="0 0 100 100" enable-background="new 0 0 100 100" xml:space="preserve">
<path d="M35.127,37.229c-1.283,0-2.441,0.538-3.268,1.397L17.178,27.86v26.246H30.59v4.761H15.083v-8.637h-2.665V21.378
	c0-0.329,0.266-0.596,0.594-0.596h53.557c0.328,0,0.595,0.267,0.595,0.596v15.851h-4.761V27.86l-12.775,9.369h-8.05l15.934-11.686
	H22.069l15.934,11.686H35.127z M84.977,50.238h3.46v27.628c0,0.329-0.267,0.595-0.595,0.595H34.285
	c-0.327,0-0.594-0.266-0.594-0.595V40.972c0-0.33,0.267-0.596,0.594-0.596h50.691V50.238z M43.343,45.137l17.721,12.996
	l17.722-12.996H43.343z M83.676,47.454l-22.26,16.325c-0.21,0.154-0.494,0.154-0.704,0L38.451,47.454V73.7h45.225V47.454z
	 M87.86,27.201c-3.243-3.182-7.887-3.131-8.091-3.127l0.001,0.04c-0.319-0.027-0.549-0.04-0.549-0.04l-2.401-0.007l1.865-4.723
	c0.063-0.158,0.013-0.339-0.123-0.442c-0.067-0.05-0.148-0.075-0.228-0.075c-0.083,0-0.163,0.026-0.231,0.078l-9.278,7.134
	c-0.094,0.071-0.148,0.182-0.148,0.3s0.055,0.228,0.148,0.3l9.278,7.134c0.135,0.104,0.322,0.104,0.459,0.001
	c0.136-0.102,0.187-0.282,0.123-0.44l-1.865-4.724h3.255c0.707,0.035,3.033,0.276,4.613,1.826c1.109,1.089,1.649,2.623,1.649,4.692
	v13.236h4.53V35.127C90.868,31.825,89.855,29.159,87.86,27.201z M21.896,66.228c-0.135-0.103-0.322-0.104-0.459-0.001
	c-0.136,0.102-0.188,0.282-0.123,0.44l1.866,4.724h-3.256c-0.707-0.036-3.033-0.276-4.613-1.826
	c-1.109-1.089-1.649-2.624-1.649-4.692V51.636h-4.53v13.236c0,3.303,1.013,5.969,3.008,7.926c3.243,3.183,7.887,3.131,8.091,3.128
	l-0.002-0.04c0.32,0.027,0.55,0.04,0.55,0.04l2.401,0.007l-1.865,4.723c-0.064,0.158-0.013,0.339,0.123,0.441
	c0.067,0.051,0.148,0.076,0.228,0.076c0.083,0,0.163-0.026,0.231-0.078l9.278-7.135c0.093-0.071,0.148-0.181,0.148-0.3
	c0-0.117-0.056-0.228-0.148-0.299L21.896,66.228z"/>
</svg>
