<?xml version="1.0" encoding="utf-8"?>
<!-- Generator: Adobe Illustrator 16.0.0, SVG Export Plug-In . SVG Version: 6.00 Build 0)  -->
<!DOCTYPE svg PUBLIC "-//W3C//DTD SVG 1.1//EN" "http://www.w3.org/Graphics/SVG/1.1/DTD/svg11.dtd">
<svg version="1.1" id="Layer_7" xmlns="http://www.w3.org/2000/svg" xmlns:xlink="http://www.w3.org/1999/xlink" x="0px" y="0px"
	 width="100px" height="100px" viewBox="0 0 100 100" enable-background="new 0 0 100 100" xml:space="preserve">
<path d="M77.84,11.225v-0.46H32.674c-6.506,0-12.115,3.792-14.775,9.279l18.471-0.872v7.911l-14.816,0.579v7.626
	c0,3.211-2.283,5.898-5.313,6.522v4.476h16.434h11.621v42.949h9.139V46.286h4.17H77.84h12.631V27.199
	C90.471,19.434,85.08,12.943,77.84,11.225z M87.605,42.981H60.852V27.446c0-7.388,5.99-13.376,13.377-13.376
	s13.377,5.989,13.377,13.376V42.981z M13.793,40.926c-2.994,0-4.264-1.27-4.264-4.264v-9.396v-5.421l24.5-1.157v5.421l-14.816,0.578
	v8.818C19.213,38.5,16.787,40.926,13.793,40.926z"/>
</svg>
