<?xml version="1.0" encoding="utf-8"?>
<!-- Generator: Adobe Illustrator 16.0.0, SVG Export Plug-In . SVG Version: 6.00 Build 0)  -->
<!DOCTYPE svg PUBLIC "-//W3C//DTD SVG 1.1//EN" "http://www.w3.org/Graphics/SVG/1.1/DTD/svg11.dtd">
<svg version="1.1" id="Layer_4" xmlns="http://www.w3.org/2000/svg" xmlns:xlink="http://www.w3.org/1999/xlink" x="0px" y="0px"
	 width="100px" height="100px" viewBox="0 0 100 100" enable-background="new 0 0 100 100" xml:space="preserve">
<path d="M16.059,60.819V55.69h17.795v5.129H16.059z M31.746,19.188c0.916,0,1.66-0.744,1.66-1.659c0-0.914-0.744-1.658-1.66-1.658
	c-0.914,0-1.658,0.744-1.658,1.658C30.088,18.444,30.832,19.188,31.746,19.188z M42.512,19.188c0.916,0,1.66-0.744,1.66-1.659
	c0-0.914-0.744-1.658-1.66-1.658c-0.914,0-1.658,0.744-1.658,1.658C40.854,18.444,41.598,19.188,42.512,19.188z M33.873,47.337
	c0.104-2.003,1.75-3.604,3.777-3.604h8.576v-1.524H16.059v5.129H33.873z M33.854,69.286H9.348V8.728h43.139v35.005h-3.545v-4.239
	H13.344v10.559h20.51v2.923h-20.51v10.559h20.51V69.286z M38.139,17.529c0,2.412,1.962,4.374,4.373,4.374
	c2.412,0,4.375-1.962,4.375-4.374c0-2.411-1.963-4.374-4.375-4.374C40.101,13.155,38.139,15.118,38.139,17.529z M27.373,17.529
	c0,2.412,1.962,4.374,4.373,4.374c2.412,0,4.375-1.962,4.375-4.374c0-2.411-1.963-4.374-4.375-4.374
	C29.335,13.155,27.373,15.118,27.373,17.529z M13.344,36.383h35.598V25.825H13.344V36.383z M16.059,28.54h30.168v5.129H16.059V28.54
	z M40.042,31.632h4.13V30.2h-4.13V31.632z M90.652,50.45v26.366c0,1.93-1.57,3.5-3.5,3.5H40.354c-1.93,0-3.5-1.57-3.5-3.5V50.45
	c0-1.93,1.57-3.5,3.5-3.5h46.799C89.082,46.95,90.652,48.52,90.652,50.45z M42.438,49.95l21.441,14.18l20.325-14.18H42.438z
	 M87.652,51.204L63.925,67.755L39.854,51.836v24.979c0,0.275,0.225,0.5,0.5,0.5h46.799c0.275,0,0.5-0.225,0.5-0.5V51.204z
	 M26.813,74.652c-0.15-0.116-0.359-0.117-0.511-0.002c-0.151,0.114-0.207,0.315-0.138,0.49l2.074,5.253H24.62
	c-0.787-0.04-3.374-0.307-5.13-2.03c-1.234-1.211-1.835-2.917-1.835-5.218h-5.037c0,3.672,1.124,6.638,3.344,8.814
	c3.607,3.539,8.771,3.482,8.997,3.478l-0.001-0.044c0.354,0.03,0.61,0.044,0.61,0.044l2.67,0.008l-2.074,5.252
	c-0.069,0.176-0.014,0.377,0.138,0.491c0.075,0.057,0.165,0.084,0.253,0.084c0.092,0,0.182-0.029,0.258-0.087l10.318-7.933
	c0.103-0.079,0.164-0.203,0.164-0.333c0-0.131-0.062-0.253-0.164-0.334L26.813,74.652z"/>
</svg>
