<?xml version="1.0" encoding="utf-8"?>
<!-- Generator: Adobe Illustrator 16.0.0, SVG Export Plug-In . SVG Version: 6.00 Build 0)  -->
<!DOCTYPE svg PUBLIC "-//W3C//DTD SVG 1.1//EN" "http://www.w3.org/Graphics/SVG/1.1/DTD/svg11.dtd">
<svg version="1.1" id="Layer_7" xmlns="http://www.w3.org/2000/svg" xmlns:xlink="http://www.w3.org/1999/xlink" x="0px" y="0px"
	 width="100px" height="100px" viewBox="0 0 100 100" enable-background="new 0 0 100 100" xml:space="preserve">
<path d="M75.648,51.132l6.037,4.641V18.935c0-0.417-0.338-0.755-0.754-0.755h-67.91c-0.416,0-0.754,0.338-0.754,0.755v46.781
	c0,0.417,0.338,0.755,0.754,0.755h29.955v-5.257c0-0.267,0.035-0.524,0.078-0.779H18.303v-33.28l28.227,20.7
	c0.268,0.194,0.627,0.194,0.893,0l28.227-20.7V51.132z M46.977,40.695L24.506,24.216h44.941L46.977,40.695z M87.732,66.471
	c0,0.239-0.111,0.467-0.301,0.613L68.471,81.66c-0.139,0.107-0.307,0.16-0.471,0.16s-0.328-0.052-0.467-0.155
	c-0.277-0.208-0.381-0.578-0.252-0.902l3.811-9.652H48.748c-0.428,0-0.773-0.345-0.773-0.772v-7.734
	c0-0.427,0.346-0.772,0.773-0.772h22.344l-3.811-9.653c-0.129-0.323-0.025-0.692,0.252-0.901s0.662-0.209,0.938,0.004l18.961,14.577
	C87.621,66.004,87.732,66.229,87.732,66.471z"/>
</svg>
