<?xml version="1.0" encoding="utf-8"?>
<!-- Generator: Adobe Illustrator 16.0.0, SVG Export Plug-In . SVG Version: 6.00 Build 0)  -->
<!DOCTYPE svg PUBLIC "-//W3C//DTD SVG 1.1//EN" "http://www.w3.org/Graphics/SVG/1.1/DTD/svg11.dtd">
<svg version="1.1" id="Layer_7" xmlns="http://www.w3.org/2000/svg" xmlns:xlink="http://www.w3.org/1999/xlink" x="0px" y="0px"
	 width="100px" height="100px" viewBox="0 0 100 100" enable-background="new 0 0 100 100" xml:space="preserve">
<path d="M24.957,19.295H14.219c-3.422,0-6.195-2.773-6.195-6.195c0-3.421,2.773-6.194,6.195-6.194h10.738h6.194v29.323h-6.194
	V19.295z M91.977,31.059v19.087H79.346H59.108h-4.169v42.949H45.8V50.146H34.18H17.746V31.059c0-3.684,1.227-7.073,3.275-9.813
	h1.623v16.933H32.97V14.687c0.401-0.029,0.802-0.062,1.21-0.062h45.166v0.46C86.585,16.804,91.977,23.294,91.977,31.059z
	 M89.11,31.306c0-7.388-5.989-13.377-13.377-13.377c-7.387,0-13.376,5.989-13.376,13.377v15.535H89.11V31.306z"/>
</svg>
