<?xml version="1.0" encoding="utf-8"?>
<!-- Generator: Adobe Illustrator 16.0.4, SVG Export Plug-In . SVG Version: 6.00 Build 0)  -->
<!DOCTYPE svg PUBLIC "-//W3C//DTD SVG 1.1//EN" "http://www.w3.org/Graphics/SVG/1.1/DTD/svg11.dtd">
<svg version="1.1" id="Capa_1" xmlns="http://www.w3.org/2000/svg" xmlns:xlink="http://www.w3.org/1999/xlink" x="0px" y="0px"
	 width="100px" height="100px" viewBox="0 0 100 100" enable-background="new 0 0 100 100" xml:space="preserve">
<g id="Layer_7">
	<path d="M92.921,86.643H28.288c0-4.719,1.031-9.19,2.849-13.233l11.115-10.582c1.995-0.357,3.864-1.386,5.383-2.984l3.66-3.852
		c0.107-0.115,0.189-0.244,0.283-0.365c0.134-0.123,0.277-0.237,0.396-0.379c2.471-2.888,3.346-7.646-1.608-12.354
		c-2.247-2.135-4.6-3.217-6.994-3.217c-2.006,0-3.882,0.775-5.427,2.24c-0.086,0.082-0.155,0.176-0.229,0.266
		c-0.396-1.709-0.618-3.486-0.618-5.318c0-12.982,10.524-23.506,23.505-23.506c12.982,0,23.506,10.523,23.506,23.505
		c0,8.42-4.44,15.788-11.094,19.936C84.702,61.666,92.921,73.191,92.921,86.643z M47.303,46.117
		c-2.038-1.936-4.339-2.834-6.296-0.975l7.591,7.211C50.353,50.305,49.338,48.051,47.303,46.117z M44.411,56.779l3.66-3.854
		l-7.609-7.23l-3.66,3.852c-1.116,1.174-1.463,2.842-1.29,4.334L19.827,71.766c-1.185,1.246-1.891,2.543-1.046,3.752l0.05,0.047
		c-0.727,0.816-1.577,1.537-2.518,1.584c-1.425,0.072-2.991-1.383-2.876-2.864c0.226-2.902,3.059-4.906,4.064-7.531
		c0.917-2.387,0.039-5.519-2.697-6.133c-2.508-0.563-5.364,0.387-7.46,1.766c-0.628,0.412-0.027,1.412,0.602,0.998
		c1.872-1.229,5.979-2.934,7.891-0.932c2.486,2.608-0.66,5.955-2.109,8.129c-0.725,1.086-1.469,2.379-1.456,3.731
		c0.012,1.338,0.764,2.549,1.831,3.318c2.08,1.508,3.991,0.254,5.514-1.32l0.012,0.01c1.213,0.74,2.314-0.178,3.497-1.422
		l17.213-16.391C41.851,58.619,43.284,57.965,44.411,56.779z"/>
</g>
</svg>
