<?xml version="1.0" encoding="utf-8"?>
<!-- Generator: Adobe Illustrator 16.0.4, SVG Export Plug-In . SVG Version: 6.00 Build 0)  -->
<!DOCTYPE svg PUBLIC "-//W3C//DTD SVG 1.1//EN" "http://www.w3.org/Graphics/SVG/1.1/DTD/svg11.dtd">
<svg version="1.1" id="Capa_1" xmlns="http://www.w3.org/2000/svg" xmlns:xlink="http://www.w3.org/1999/xlink" x="0px" y="0px"
	 width="100px" height="100px" viewBox="0 0 100 100" enable-background="new 0 0 100 100" xml:space="preserve">
<g id="Layer_8">
	<path d="M60.527,20.161v59.678c0,1.231-0.655,2.369-1.723,2.984c-1.066,0.614-2.38,0.614-3.445,0L19.6,52.982
		c-1.065-0.614-1.724-1.752-1.724-2.983c0-1.23,0.657-2.368,1.724-2.984l35.759-29.839c0.533-0.308,1.127-0.461,1.724-0.461
		c0.594,0,1.188,0.154,1.724,0.462C59.871,17.792,60.527,18.93,60.527,20.161z M80.745,16.75H69.376
		c-0.76,0-1.377,0.617-1.377,1.378V81.87c0,0.761,0.617,1.378,1.377,1.378h11.369c0.762,0,1.379-0.617,1.379-1.378V18.128
		C82.124,17.367,81.507,16.75,80.745,16.75z"/>
</g>
</svg>
