<?xml version="1.0" encoding="utf-8"?>
<!-- Generator: Adobe Illustrator 16.0.0, SVG Export Plug-In . SVG Version: 6.00 Build 0)  -->
<!DOCTYPE svg PUBLIC "-//W3C//DTD SVG 1.1//EN" "http://www.w3.org/Graphics/SVG/1.1/DTD/svg11.dtd">
<svg version="1.1" id="Layer_7" xmlns="http://www.w3.org/2000/svg" xmlns:xlink="http://www.w3.org/1999/xlink" x="0px" y="0px"
	 width="100px" height="100px" viewBox="0 0 100 100" enable-background="new 0 0 100 100" xml:space="preserve">
<path d="M69.815,37.826c0,1.326-1.075,2.402-2.401,2.402H32.587c-1.327,0-2.401-1.076-2.401-2.402s1.074-2.402,2.401-2.402h34.827
	C68.74,35.424,69.815,36.5,69.815,37.826z M67.414,49.754H32.587c-1.327,0-2.401,1.076-2.401,2.402s1.074,2.402,2.401,2.402h34.827
	c1.326,0,2.401-1.076,2.401-2.402S68.74,49.754,67.414,49.754z M87.629,43.988c0,10.756-6.776,20.848-17.744,26.518
	c-8.101,16.252-26.612,16.729-28.729,16.729h-0.001L40.86,87.23c-1.049-0.031-1.956-0.742-2.24-1.752
	c-0.282-1.008,0.117-2.084,0.994-2.658c3.448-2.254,6.203-4.82,8.231-7.658c-19.75-0.93-35.475-14.557-35.475-31.174
	c0-17.217,16.88-31.223,37.63-31.223C70.749,12.766,87.629,26.771,87.629,43.988z M82.825,43.988
	c0-14.566-14.726-26.42-32.824-26.42c-18.101,0-32.826,11.854-32.826,26.42c0,14.568,14.726,26.422,32.826,26.422
	c0.649,0,1.294-0.02,1.935-0.051c0.037-0.002,0.077-0.002,0.116-0.002c0.801,0,1.554,0.4,1.999,1.072
	c0.47,0.703,0.531,1.602,0.167,2.365c-1.29,2.697-3.044,5.209-5.247,7.516c5.688-1.525,12.996-5.125,16.926-13.594
	c0.232-0.498,0.629-0.902,1.121-1.145C76.916,61.721,82.825,53.277,82.825,43.988z"/>
</svg>
