<?xml version="1.0" encoding="utf-8"?>
<!-- Generator: Adobe Illustrator 16.0.0, SVG Export Plug-In . SVG Version: 6.00 Build 0)  -->
<!DOCTYPE svg PUBLIC "-//W3C//DTD SVG 1.1//EN" "http://www.w3.org/Graphics/SVG/1.1/DTD/svg11.dtd">
<svg version="1.1" id="Layer_6" xmlns="http://www.w3.org/2000/svg" xmlns:xlink="http://www.w3.org/1999/xlink" x="0px" y="0px"
	 width="100px" height="100px" viewBox="0 0 100 100" enable-background="new 0 0 100 100" xml:space="preserve">
<path d="M93.418,52.528l-1.803,0.517l-0.959,2.011h1.233v6.554c0,0.874-0.333,1.582-0.742,1.582L62.71,55.056H32.324
	c-0.177,0-0.354-0.002-0.529-0.005V44.949c0.176-0.003,0.353-0.005,0.529-0.005h30.984l27.839-8.136
	c0.409,0,0.742,0.708,0.742,1.583v6.553h-1.791l1.517,2.099l1.803,0.539C94.631,50.146,93.418,52.528,93.418,52.528z M6.043,49.747
	c0,2.521,17.707,4.864,23.601,5.247v-9.986C23.75,45.39,6.043,47.227,6.043,49.747z"/>
</svg>
