<?xml version="1.0" encoding="utf-8"?>
<!-- Generator: Adobe Illustrator 16.0.0, SVG Export Plug-In . SVG Version: 6.00 Build 0)  -->
<!DOCTYPE svg PUBLIC "-//W3C//DTD SVG 1.1//EN" "http://www.w3.org/Graphics/SVG/1.1/DTD/svg11.dtd">
<svg version="1.1" id="Layer_7" xmlns="http://www.w3.org/2000/svg" xmlns:xlink="http://www.w3.org/1999/xlink" x="0px" y="0px"
	 width="100px" height="100px" viewBox="0 0 100 100" enable-background="new 0 0 100 100" xml:space="preserve">
<path d="M68.944,40.875v-20.75h-0.554v-5.949c0-1.104-0.896-2-2-2H33.056c-1.104,0-2,0.896-2,2v71.648c0,1.104,0.896,2,2,2h33.335
	c1.104,0,2-0.896,2-2V74.625h0.554v-6.5h-0.554v-27.25H68.944z M45.394,14.438h7.813v1h-7.813V14.438z M65.185,53.339H34.352V18.672
	h30.833V53.339z M43.255,61.62h-8.25v-4.625h8.25V61.62z M53.916,61.62h-8.25v-4.625h8.25V61.62z M64.48,61.62h-8.25v-4.625h8.25
	V61.62z M43.255,68.87h-8.25v-4.625h8.25V68.87z M53.916,68.87h-8.25v-4.625h8.25V68.87z M64.48,68.87h-8.25v-4.625h8.25V68.87z
	 M43.255,75.87h-8.25v-4.625h8.25V75.87z M53.916,75.87h-8.25v-4.625h8.25V75.87z M64.48,75.87h-8.25v-4.625h8.25V75.87z
	 M43.255,82.37h-8.25v-4.625h8.25V82.37z M53.916,82.37h-8.25v-4.625h8.25V82.37z M64.48,82.37h-8.25v-4.625h8.25V82.37z
	 M62.25,86.006c0,0.414-0.336,0.75-0.75,0.75s-0.75-0.336-0.75-0.75s0.336-0.75,0.75-0.75S62.25,85.592,62.25,86.006z"/>
</svg>
