<?xml version="1.0" encoding="utf-8"?>
<!-- Generator: Adobe Illustrator 16.0.0, SVG Export Plug-In . SVG Version: 6.00 Build 0)  -->
<!DOCTYPE svg PUBLIC "-//W3C//DTD SVG 1.1//EN" "http://www.w3.org/Graphics/SVG/1.1/DTD/svg11.dtd">
<svg version="1.1" id="Layer_4" xmlns="http://www.w3.org/2000/svg" xmlns:xlink="http://www.w3.org/1999/xlink" x="0px" y="0px"
	 width="100px" height="100px" viewBox="0 0 100 100" enable-background="new 0 0 100 100" xml:space="preserve">
<path d="M82.777,67.418V25.549H17.223v41.869h24.883v3.117c-7.018,0.333-11.867,1.035-11.867,1.854
	c0,1.139,9.398,2.063,20.995,2.063s20.995-0.924,20.995-2.063c0-0.91-6.006-1.68-14.334-1.954v-3.017H82.777z M21.528,63.83V28.779
	H78.47V63.83H21.528z M50,30.358l7.015,7.015l-1.306,1.305L50,32.968l-5.709,5.71l-1.306-1.305L50,30.358z M55.709,53.874
	l1.306,1.305L50,62.193l-7.015-7.015l1.306-1.305L50,59.584L55.709,53.874z"/>
</svg>
