<?xml version="1.0" encoding="utf-8"?>
<!-- Generator: Adobe Illustrator 16.0.0, SVG Export Plug-In . SVG Version: 6.00 Build 0)  -->
<!DOCTYPE svg PUBLIC "-//W3C//DTD SVG 1.1//EN" "http://www.w3.org/Graphics/SVG/1.1/DTD/svg11.dtd">
<svg version="1.1" id="Layer_4" xmlns="http://www.w3.org/2000/svg" xmlns:xlink="http://www.w3.org/1999/xlink" x="0px" y="0px"
	 width="100px" height="100px" viewBox="0 0 100 100" enable-background="new 0 0 100 100" xml:space="preserve">
<path d="M82.777,67.418V25.549H17.223v41.869h24.883v3.117c-7.018,0.333-11.867,1.035-11.867,1.854
	c0,1.139,9.398,2.063,20.995,2.063s20.995-0.924,20.995-2.063c0-0.91-6.006-1.68-14.334-1.954v-3.017H82.777z M21.528,63.83V28.779
	H78.47V63.83H21.528z M71.261,40.819l7.015,7.014l-7.015,7.016l-1.305-1.307l5.71-5.709l-5.71-5.709L71.261,40.819z M30.177,42.124
	l-5.71,5.709l5.71,5.709l-1.305,1.307l-7.015-7.016l7.015-7.014L30.177,42.124z"/>
</svg>
