<?xml version="1.0" encoding="utf-8"?>
<!-- Generator: Adobe Illustrator 16.0.0, SVG Export Plug-In . SVG Version: 6.00 Build 0)  -->
<!DOCTYPE svg PUBLIC "-//W3C//DTD SVG 1.1//EN" "http://www.w3.org/Graphics/SVG/1.1/DTD/svg11.dtd">
<svg version="1.1" id="Layer_4" xmlns="http://www.w3.org/2000/svg" xmlns:xlink="http://www.w3.org/1999/xlink" x="0px" y="0px"
	 width="100px" height="100px" viewBox="0 0 100 100" enable-background="new 0 0 100 100" xml:space="preserve">
<path d="M51.992,29.233c-0.05-0.056-0.092-0.112-0.151-0.165c-0.651-0.584-0.668-0.412,0.044-1.068
	c0.527-0.484,1.167-0.863,1.747-1.281c1.534-1.109,2.544-2.594,3.227-4.355c1.531-3.953-2.982-6.684-5.246-9.023
	c-1.637-1.693-4.213,0.889-2.579,2.578c1.263,1.307,2.89,2.367,3.989,3.82c1.231,1.627-0.645,3.422-1.93,4.328
	c-1.987,1.4-3.705,3.259-3.308,5.253c-8.917,0.833-17.161,5.72-17.161,14.335v24.184c0,10.684,8.691,19.375,19.375,19.375
	s19.375-8.691,19.375-19.375V43.654C69.375,34.248,60.624,29.693,51.992,29.233z M34.272,43.654c0-6.395,6.942-10.098,14.132-10.713
	v22.305c-6.559-0.33-11.884-1.824-14.132-2.553V43.654z M65.728,67.838c0,8.674-7.056,15.729-15.728,15.729
	s-15.728-7.055-15.728-15.729V56.527c3.257,0.984,9.387,2.477,16.634,2.477c4.64,0,9.735-0.621,14.822-2.371V67.838z M65.728,52.754
	c-4.613,1.764-9.322,2.453-13.677,2.547V32.887c7.033,0.422,13.677,3.795,13.677,10.768V52.754z"/>
</svg>
