<?xml version="1.0" encoding="utf-8"?>
<!-- Generator: Adobe Illustrator 16.0.0, SVG Export Plug-In . SVG Version: 6.00 Build 0)  -->
<!DOCTYPE svg PUBLIC "-//W3C//DTD SVG 1.1//EN" "http://www.w3.org/Graphics/SVG/1.1/DTD/svg11.dtd">
<svg version="1.1" id="Layer_4" xmlns="http://www.w3.org/2000/svg" xmlns:xlink="http://www.w3.org/1999/xlink" x="0px" y="0px"
	 width="100px" height="100px" viewBox="0 0 100 100" enable-background="new 0 0 100 100" xml:space="preserve">
<path d="M50.585,18.182c-10.851,0-21.835,5.448-21.835,15.861v26.525c0,11.718,9.532,21.25,21.25,21.25s21.25-9.532,21.25-21.25
	V34.043C71.25,23.145,60.538,18.182,50.585,18.182z M67.25,60.568c0,9.512-7.738,17.25-17.25,17.25s-17.25-7.738-17.25-17.25V48.162
	c3.572,1.08,10.295,2.716,18.243,2.716c5.089,0,10.678-0.681,16.257-2.6V60.568z M67.25,44.023
	c-14.577,5.574-30.045,1.377-34.5-0.065v-9.915c0-7.704,9.189-11.861,17.835-11.861c8.295,0,16.665,3.667,16.665,11.861V44.023z
	 M52.25,26.818v14.5c0,1.104-0.896,2-2,2s-2-0.896-2-2v-14.5c0-1.104,0.896-2,2-2S52.25,25.714,52.25,26.818z M65.345,41.45
	c0,0-8.332,2.333-11.166,1.833v-18.5C54.179,24.783,67.511,24.95,65.345,41.45z"/>
</svg>
