<?xml version="1.0" encoding="utf-8"?>
<!-- Generator: Adobe Illustrator 16.0.4, SVG Export Plug-In . SVG Version: 6.00 Build 0)  -->
<!DOCTYPE svg PUBLIC "-//W3C//DTD SVG 1.1//EN" "http://www.w3.org/Graphics/SVG/1.1/DTD/svg11.dtd">
<svg version="1.1" id="Capa_1" xmlns="http://www.w3.org/2000/svg" xmlns:xlink="http://www.w3.org/1999/xlink" x="0px" y="0px"
	 width="100px" height="100px" viewBox="0 0 100 100" enable-background="new 0 0 100 100" xml:space="preserve">
<g id="Layer_8">
	<path d="M89,38.673h-7.866c-1.317-2.847-3.157-6.07-5.565-8.682h6.428c0.261,1.302,1.408,2.284,2.788,2.284l1.147,1.394V20.948
		l-1.147,0.995c-1.57,0-2.845,1.272-2.845,2.844v0.085H63.172v0.011c-2.617-0.033-4.715-0.036-6.369-0.023
		c-0.494-0.837-1.402-1.399-2.445-1.399H28.954c-1.57,0-2.843,1.273-2.843,2.844v2.654c0,1.57,1.272,2.843,2.843,2.843h25.403
		c1.211,0,2.242-0.758,2.651-1.824c2.046-0.015,4.788-0.005,8.394,0.059c4.236,0.074,7.66,4.246,10.029,8.638H37.815
		c-1.57,0-2.844,1.273-2.844,2.844v7.649h-6.688c-0.23-1.062-1.175-1.857-2.306-1.857h-7.782c-0.094-1.486-1.325-2.664-2.835-2.664
		H11c-1.57,0-2.844,1.273-2.844,2.844v1.564h3.317c1.401,0,2.563,1.014,2.798,2.347v13.408c-0.234,1.334-1.396,2.349-2.798,2.349
		H8.156v3.081c0,1.57,1.273,2.844,2.844,2.844h4.36c1.419,0,2.591-1.04,2.806-2.398h7.812c1.145,0,2.098-0.813,2.314-1.896h6.68
		v7.421c0,1.57,1.273,2.844,2.844,2.844H89c1.57,0,2.844-1.272,2.844-2.844V41.517C91.844,39.946,90.57,38.673,89,38.673z
		 M47.84,40.806h1.705v3.341H47.84V40.806z M47.84,45.711h1.705v3.342H47.84V45.711z M41.512,73.721
		c-1.217,0-2.203-0.986-2.203-2.203c0-1.218,0.986-2.205,2.203-2.205c1.218,0,2.204,0.987,2.204,2.205
		C43.716,72.734,42.729,73.721,41.512,73.721z M47.797,73.721c-1.218,0-2.204-0.986-2.204-2.203c0-1.218,0.986-2.205,2.204-2.205
		c1.217,0,2.203,0.987,2.203,2.205C50,72.734,49.014,73.721,47.797,73.721z M52.673,49.053h-1.706v-3.342h1.706V49.053z
		 M52.673,44.146h-1.706v-3.341h1.706V44.146z M87.482,72.18c0,1.57-1.272,2.844-2.844,2.844H57.342
		c-1.57,0-2.844-1.272-2.844-2.844V60.9c0-1.57,1.271-2.844,2.844-2.844h27.299c1.569,0,2.844,1.272,2.844,2.844V72.18H87.482z
		 M86.229,45.355h-5.545c-0.981,0-1.777-0.796-1.777-1.777s0.796-1.777,1.777-1.777h5.545c0.98,0,1.776,0.796,1.776,1.777
		S87.209,45.355,86.229,45.355z M86.575,61.775v9.605c0,1.521-1.234,2.756-2.755,2.756H58.182c-1.521,0-2.755-1.232-2.755-2.756
		v-9.605c0-1.521,1.233-2.754,2.755-2.754H83.82C85.341,59.021,86.575,60.256,86.575,61.775z M42.799,71.514
		c0,0.706-0.572,1.278-1.279,1.278s-1.28-0.572-1.28-1.278c0-0.707,0.573-1.279,1.28-1.279S42.799,70.807,42.799,71.514z
		 M49.098,71.493c0,0.706-0.573,1.278-1.279,1.278c-0.707,0-1.279-0.572-1.279-1.278c0-0.707,0.572-1.279,1.279-1.279
		C48.524,70.214,49.098,70.786,49.098,71.493z"/>
</g>
</svg>
