<?xml version="1.0" encoding="utf-8"?>
<!-- Generator: Adobe Illustrator 16.0.4, SVG Export Plug-In . SVG Version: 6.00 Build 0)  -->
<!DOCTYPE svg PUBLIC "-//W3C//DTD SVG 1.1//EN" "http://www.w3.org/Graphics/SVG/1.1/DTD/svg11.dtd">
<svg version="1.1" id="Capa_1" xmlns="http://www.w3.org/2000/svg" xmlns:xlink="http://www.w3.org/1999/xlink" x="0px" y="0px"
	 width="100px" height="100px" viewBox="0 0 100 100" enable-background="new 0 0 100 100" xml:space="preserve">
<g id="Layer_8">
	<path d="M38.098,71.227c0.381,0.604,0.781,1.197,1.203,1.772c-1.074,0.127-2.166,0.2-3.273,0.2c-15.238,0-27.59-12.354-27.59-27.59
		s12.352-27.59,27.59-27.59c7.668,0,14.604,3.13,19.604,8.18c-0.637,0.175-1.264,0.371-1.885,0.586
		c-4.584-4.255-10.719-6.863-17.451-6.863c-14.164,0-25.688,11.523-25.688,25.687c0,14.165,11.523,25.687,25.688,25.687
		C36.9,71.296,37.5,71.268,38.098,71.227z M28.689,36.398c0.184-0.319,0.17-0.731-0.061-1.043l-4.801-6.466
		c-0.154-0.208-0.387-0.343-0.643-0.377c-0.256-0.033-0.516,0.041-0.717,0.203c-3.693,2.965-6.25,7.231-7.119,11.902
		c-0.047,0.253,0.01,0.515,0.16,0.725c0.148,0.209,0.377,0.351,0.631,0.39l7.957,1.221c0.5,0.077,0.977-0.252,1.076-0.75
		c0.447-2.188,1.615-4.136,3.303-5.553C28.564,36.578,28.635,36.491,28.689,36.398z M24.82,47.995
		c-0.02-0.113-0.059-0.217-0.113-0.311c-0.184-0.32-0.547-0.514-0.934-0.469l-8,0.925c-0.256,0.029-0.49,0.163-0.646,0.368
		c-0.156,0.205-0.223,0.466-0.184,0.721c0.721,4.682,3.139,9.028,6.748,12.117c0.197,0.168,0.453,0.248,0.709,0.225
		c0.256-0.024,0.492-0.152,0.652-0.353l5.035-6.28c0.318-0.396,0.271-0.972-0.109-1.307C26.307,52.15,25.203,50.163,24.82,47.995z
		 M28.947,66.003c2.264,0.88,4.674,1.327,7.09,1.342c-1.4-3.18-2.268-6.643-2.486-10.28c-0.248-0.068-0.492-0.146-0.734-0.232
		c-0.107-0.039-0.217-0.059-0.326-0.059c-0.369,0-0.717,0.218-0.873,0.574l-3.197,7.392c-0.104,0.237-0.105,0.506-0.006,0.743
		C28.514,65.723,28.707,65.91,28.947,66.003z M40.453,34.203c0.369,0,0.719-0.216,0.873-0.574l3.199-7.391
		c0.102-0.237,0.104-0.506,0.004-0.745c-0.1-0.239-0.291-0.426-0.533-0.52c-4.414-1.716-9.387-1.796-13.865-0.214
		c-0.244,0.086-0.441,0.267-0.549,0.501c-0.107,0.233-0.115,0.501-0.021,0.742l2.92,7.501c0.184,0.472,0.707,0.719,1.188,0.557
		c2.117-0.706,4.391-0.668,6.461,0.084C40.234,34.184,40.346,34.203,40.453,34.203z M36.605,40.602c-2.668,0-4.83,2.162-4.83,4.83
		c0,1.725,0.906,3.235,2.268,4.089c0.609-3.159,1.713-6.143,3.229-8.869C37.053,40.623,36.832,40.602,36.605,40.602z M91.559,53.939
		c0.25,15.235-11.897,27.789-27.135,28.037c-15.236,0.25-27.787-11.898-28.037-27.134c-0.25-15.236,11.898-27.789,27.134-28.038
		S91.309,38.705,91.559,53.939z M89.922,53.966C89.689,39.805,77.98,28.471,63.818,28.703
		c-14.163,0.232-25.494,11.942-25.263,26.104C38.787,68.969,50.498,80.302,64.66,80.07C78.822,79.838,90.154,68.128,89.922,53.966z
		 M51.5,37.873c-0.156-0.205-0.391-0.337-0.648-0.366c-0.256-0.029-0.514,0.049-0.712,0.214c-3.645,3.025-6.129,7.333-6.924,12.017
		c-0.041,0.254,0.02,0.515,0.172,0.722c0.152,0.207,0.385,0.345,0.639,0.379L52,51.932c0.502,0.067,0.973-0.27,1.064-0.768
		c0.412-2.195,1.549-4.163,3.211-5.606c0.086-0.074,0.156-0.162,0.209-0.256c0.18-0.323,0.16-0.734-0.078-1.042L51.5,37.873z
		 M52.807,56.959c-0.021-0.111-0.062-0.216-0.117-0.309c-0.19-0.317-0.557-0.506-0.942-0.455l-7.982,1.057
		c-0.256,0.034-0.488,0.171-0.641,0.378c-0.154,0.208-0.217,0.47-0.172,0.726c0.797,4.668,3.285,8.975,6.945,12.004
		c0.199,0.164,0.455,0.24,0.71,0.213c0.256-0.028,0.49-0.16,0.648-0.363l4.932-6.361c0.312-0.399,0.254-0.977-0.133-1.305
		C54.361,61.09,53.225,59.122,52.807,56.959z M68.604,66.182c-0.192-0.469-0.721-0.707-1.196-0.537
		c-2.105,0.74-4.38,0.739-6.462,0.021c-0.106-0.038-0.219-0.055-0.325-0.052c-0.369,0.005-0.716,0.228-0.863,0.588l-3.077,7.442
		c-0.099,0.237-0.097,0.506,0.008,0.744c0.104,0.236,0.299,0.42,0.541,0.51c4.442,1.645,9.416,1.644,13.869-0.013
		c0.241-0.089,0.438-0.274,0.539-0.509c0.104-0.234,0.106-0.504,0.01-0.742L68.604,66.182z M84.805,57.688l-7.975-1.09
		c-0.502-0.068-0.973,0.269-1.062,0.768c-0.412,2.193-1.55,4.162-3.213,5.604c-0.087,0.075-0.156,0.162-0.209,0.257
		c-0.181,0.322-0.158,0.732,0.077,1.041l4.906,6.387c0.155,0.205,0.392,0.337,0.647,0.365c0.258,0.029,0.515-0.047,0.713-0.213
		c3.646-3.024,6.131-7.332,6.924-12.018c0.044-0.254-0.02-0.516-0.172-0.723C85.291,57.859,85.061,57.723,84.805,57.688z
		 M85.881,50.171c-0.799-4.668-3.287-8.975-6.947-12.004c-0.199-0.164-0.455-0.241-0.711-0.212c-0.256,0.028-0.49,0.159-0.646,0.362
		l-4.935,6.361c-0.311,0.4-0.254,0.976,0.133,1.305c1.693,1.454,2.83,3.422,3.248,5.585c0.023,0.111,0.063,0.216,0.119,0.308
		c0.189,0.317,0.556,0.505,0.941,0.454l7.982-1.057c0.258-0.033,0.488-0.17,0.641-0.377C85.861,50.688,85.924,50.425,85.881,50.171z
		 M71.604,33.628c-4.442-1.644-9.416-1.642-13.869,0.013c-0.241,0.09-0.436,0.274-0.539,0.51c-0.104,0.235-0.106,0.503-0.01,0.742
		l3.043,7.453c0.191,0.469,0.72,0.708,1.195,0.538c2.105-0.74,4.379-0.74,6.461-0.021c0.107,0.037,0.219,0.054,0.326,0.052
		c0.369-0.006,0.715-0.229,0.863-0.588l3.078-7.442c0.1-0.239,0.096-0.507-0.008-0.744C72.04,33.904,71.846,33.718,71.604,33.628z
		 M64.627,59.035c2.666-0.043,4.793-2.241,4.75-4.909c-0.043-2.667-2.24-4.794-4.908-4.75c-2.668,0.043-4.795,2.241-4.752,4.909
		C59.762,56.952,61.959,59.078,64.627,59.035z"/>
</g>
</svg>
