<?xml version="1.0" encoding="utf-8"?>
<!-- Generator: Adobe Illustrator 16.0.4, SVG Export Plug-In . SVG Version: 6.00 Build 0)  -->
<!DOCTYPE svg PUBLIC "-//W3C//DTD SVG 1.1//EN" "http://www.w3.org/Graphics/SVG/1.1/DTD/svg11.dtd">
<svg version="1.1" id="Capa_1" xmlns="http://www.w3.org/2000/svg" xmlns:xlink="http://www.w3.org/1999/xlink" x="0px" y="0px"
	 width="100px" height="100px" viewBox="0 0 100 100" enable-background="new 0 0 100 100" xml:space="preserve">
<g id="Layer_8">
	<path d="M13.311,45.3c-0.168-0.236-0.232-0.53-0.18-0.815c0.977-5.254,3.852-10.053,8.006-13.388
		c0.227-0.182,0.518-0.265,0.807-0.228c0.289,0.038,0.551,0.19,0.723,0.423l5.4,7.273c0.262,0.351,0.275,0.814,0.068,1.173
		c-0.061,0.105-0.141,0.202-0.238,0.284c-1.898,1.593-3.213,3.786-3.717,6.246c-0.111,0.56-0.646,0.93-1.211,0.843l-8.949-1.374
		C13.734,45.694,13.477,45.536,13.311,45.3z M23.783,52.783c-0.021-0.127-0.066-0.244-0.127-0.35
		c-0.207-0.36-0.615-0.578-1.051-0.528l-8.998,1.04c-0.289,0.033-0.551,0.184-0.729,0.414c-0.176,0.231-0.25,0.524-0.205,0.812
		c0.811,5.266,3.529,10.155,7.59,13.629c0.221,0.188,0.508,0.279,0.797,0.252c0.287-0.027,0.553-0.171,0.734-0.396l5.666-7.063
		c0.355-0.445,0.303-1.094-0.127-1.47C25.455,57.457,24.215,55.223,23.783,52.783z M41.379,63.445
		c-0.207-0.531-0.795-0.811-1.334-0.627c-2.383,0.795-4.939,0.752-7.268-0.094c-0.121-0.045-0.244-0.065-0.365-0.065
		c-0.416,0-0.809,0.243-0.982,0.646l-3.6,8.313c-0.115,0.267-0.117,0.569-0.004,0.837c0.111,0.27,0.328,0.479,0.6,0.585
		c4.965,1.93,10.559,2.021,15.598,0.239c0.273-0.096,0.496-0.299,0.617-0.562c0.121-0.263,0.129-0.564,0.023-0.834L41.379,63.445z
		 M60.469,54.628c-0.166-0.235-0.424-0.394-0.709-0.438l-8.949-1.373c-0.563-0.086-1.1,0.283-1.21,0.843
		c-0.504,2.46-1.818,4.651-3.715,6.245c-0.1,0.084-0.18,0.18-0.24,0.285c-0.207,0.359-0.193,0.821,0.068,1.172l5.4,7.273
		c0.174,0.233,0.434,0.387,0.723,0.424c0.287,0.036,0.578-0.045,0.807-0.228c4.154-3.335,7.029-8.134,8.008-13.388
		C60.703,55.159,60.637,54.865,60.469,54.628z M49.996,47.146c0.021,0.126,0.066,0.244,0.127,0.349
		c0.207,0.36,0.615,0.578,1.051,0.528l8.998-1.041c0.289-0.033,0.551-0.183,0.729-0.414c0.177-0.231,0.25-0.524,0.207-0.812
		c-0.812-5.266-3.53-10.154-7.592-13.628c-0.221-0.188-0.508-0.279-0.797-0.252c-0.287,0.027-0.553,0.17-0.734,0.396l-5.664,7.063
		c-0.357,0.445-0.305,1.094,0.125,1.47C48.324,42.471,49.564,44.706,49.996,47.146z M32.4,36.483
		c0.205,0.531,0.795,0.81,1.334,0.627c2.383-0.794,4.939-0.752,7.268,0.095c0.121,0.044,0.244,0.065,0.365,0.065
		c0.416,0,0.809-0.244,0.982-0.646l3.598-8.313c0.117-0.267,0.117-0.569,0.006-0.837c-0.111-0.269-0.328-0.479-0.6-0.585
		c-4.965-1.93-10.559-2.02-15.598-0.24c-0.273,0.097-0.496,0.3-0.617,0.563c-0.121,0.263-0.129,0.564-0.025,0.834L32.4,36.483z
		 M37.039,44.467c-3,0-5.434,2.433-5.434,5.434c0,3.001,2.434,5.434,5.434,5.434s5.434-2.433,5.434-5.434
		C42.473,46.9,40.039,44.467,37.039,44.467z M94.494,74.555l-3.996,6.479H36.539C19.428,81.034,5.506,67.111,5.506,50
		c0-17.112,13.922-31.034,31.033-31.034c17.113,0,31.035,13.922,31.035,31.034c0,9.982-4.742,18.874-12.088,24.555H94.494z
		 M84.307,76.152h2.338l0.972-1.159h-2.339L84.307,76.152z M79.1,76.152h2.338l0.974-1.159H80.07L79.1,76.152z M74.373,76.152h2.338
		l0.973-1.159h-2.34L74.373,76.152z M74.314,78.604h13.555l1.498-2.246H75.812L74.314,78.604z M69.367,76.152h2.338l0.971-1.159
		h-2.338L69.367,76.152z M64.174,76.152h2.338l0.971-1.159h-2.338L64.174,76.152z M58.699,76.152h2.338l0.971-1.159H59.67
		L58.699,76.152z M36.539,78.895c15.934,0,28.895-12.963,28.895-28.895c0-15.932-12.961-28.894-28.895-28.894
		C20.607,21.106,7.646,34.068,7.646,50C7.646,65.932,20.607,78.895,36.539,78.895z M52.391,79.229h-2.494l-1.002,1.236h2.492
		L52.391,79.229z M53.504,76.152h2.338l0.971-1.159h-2.338L53.504,76.152z M57.93,79.229h-2.494l-1.002,1.236h2.494L57.93,79.229z
		 M63.77,79.229h-2.494l-1.002,1.236h2.494L63.77,79.229z M69.311,79.229h-2.496l-1,1.236h2.492L69.311,79.229z M70.463,76.357
		H56.906l-1.498,2.246h13.555L70.463,76.357z M74.648,79.229h-2.494l-1.002,1.236h2.494L74.648,79.229z M79.689,79.229h-2.494
		l-1.002,1.236h2.494L79.689,79.229z M85.244,79.229H82.75l-1.002,1.236h2.492L85.244,79.229z M90.783,79.229h-2.494l-1.002,1.236
		h2.494L90.783,79.229z M91.84,76.152l0.971-1.159h-2.34l-0.969,1.159H91.84z"/>
</g>
</svg>
