<?xml version="1.0" encoding="utf-8"?>
<!-- Generator: Adobe Illustrator 16.0.0, SVG Export Plug-In . SVG Version: 6.00 Build 0)  -->
<!DOCTYPE svg PUBLIC "-//W3C//DTD SVG 1.1//EN" "http://www.w3.org/Graphics/SVG/1.1/DTD/svg11.dtd">
<svg version="1.1" id="Layer_4" xmlns="http://www.w3.org/2000/svg" xmlns:xlink="http://www.w3.org/1999/xlink" x="0px" y="0px"
	 width="100px" height="100px" viewBox="0 0 100 100" enable-background="new 0 0 100 100" xml:space="preserve">
<path d="M66.251,62.919H32.917v5.667h33.334V62.919z M63.979,66.543h-4.563V64.96h4.563V66.543z M48.418,20.752
	c0-1.011,0.822-1.833,1.833-1.833s1.833,0.822,1.833,1.833s-0.822,1.833-1.833,1.833S48.418,21.763,48.418,20.752z M60.313,20.752
	c0-1.011,0.822-1.833,1.833-1.833s1.833,0.822,1.833,1.833s-0.822,1.833-1.833,1.833S60.313,21.763,60.313,20.752z M66.251,48.022
	H32.917v5.667h33.334V48.022z M63.979,51.647h-4.563v-1.583h4.563V51.647z M25.501,11.028v66.914h47.666V11.028H25.501z
	 M62.146,15.919c2.665,0,4.833,2.168,4.833,4.833s-2.168,4.833-4.833,4.833s-4.833-2.168-4.833-4.833S59.481,15.919,62.146,15.919z
	 M50.251,15.919c2.665,0,4.833,2.168,4.833,4.833s-2.168,4.833-4.833,4.833s-4.833-2.168-4.833-4.833S47.586,15.919,50.251,15.919z
	 M69.251,71.585H29.917V59.919h39.334V71.585z M69.251,56.689H29.917V45.022h39.334V56.689z M69.251,41.585H29.917V29.919h39.334
	V41.585z M66.251,32.919H32.917v5.667h33.334V32.919z M63.979,36.335h-4.563v-1.583h4.563V36.335z M63.979,88.914h8.438v2h-8.438
	v2.75H36.5v-2.75h-7.583v-2H36.5v-2.25h10.24v-6.74h7v6.74h10.239V88.914z"/>
</svg>
