<?xml version="1.0" encoding="utf-8"?>
<!-- Generator: Adobe Illustrator 16.0.0, SVG Export Plug-In . SVG Version: 6.00 Build 0)  -->
<!DOCTYPE svg PUBLIC "-//W3C//DTD SVG 1.1//EN" "http://www.w3.org/Graphics/SVG/1.1/DTD/svg11.dtd">
<svg version="1.1" id="Layer_7" xmlns="http://www.w3.org/2000/svg" xmlns:xlink="http://www.w3.org/1999/xlink" x="0px" y="0px"
	 width="100px" height="100px" viewBox="0 0 100 100" enable-background="new 0 0 100 100" xml:space="preserve">
<path d="M90.758,49.253v1.578c0,0.871-0.705,1.577-1.576,1.577H73.93v3.155c0,0.872-0.707,1.578-1.578,1.578H56.674v18.591
	c0,0.871-0.707,1.578-1.578,1.578h-3.123v15.048c0,0.871-0.707,1.577-1.578,1.577h-1.578c-0.871,0-1.578-0.706-1.578-1.577V77.311
	h-2.135c-0.871,0-1.578-0.707-1.578-1.578V57.142h-15.68c-0.869,0-1.576-0.706-1.576-1.578v-3.155H10.82
	c-0.873,0-1.578-0.706-1.578-1.577v-1.578c0-0.871,0.705-1.578,1.578-1.578H26.27v-3.943c0-0.872,0.707-1.578,1.576-1.578h15.68
	V22.3c0-0.871,0.707-1.578,1.578-1.578h2.529V7.642c0-0.871,0.707-1.577,1.578-1.577h1.578c0.871,0,1.578,0.706,1.578,1.577v13.08
	h2.729c0.871,0,1.578,0.707,1.578,1.578v19.854h15.678c0.871,0,1.578,0.706,1.578,1.578v3.943h15.252
	C90.053,47.675,90.758,48.382,90.758,49.253z"/>
</svg>
