<?xml version="1.0" encoding="utf-8"?>
<!-- Generator: Adobe Illustrator 16.0.0, SVG Export Plug-In . SVG Version: 6.00 Build 0)  -->
<!DOCTYPE svg PUBLIC "-//W3C//DTD SVG 1.1//EN" "http://www.w3.org/Graphics/SVG/1.1/DTD/svg11.dtd">
<svg version="1.1" id="Layer_4" xmlns="http://www.w3.org/2000/svg" xmlns:xlink="http://www.w3.org/1999/xlink" x="0px" y="0px"
	 width="100px" height="100px" viewBox="0 0 100 100" enable-background="new 0 0 100 100" xml:space="preserve">
<path d="M77.629,12.273H27.344c-2.761,0-5,2.238-5,5v69.948c0,2.761,2.239,5,5,5h50.285c2.761,0,5-2.239,5-5V17.273
	C82.629,14.512,80.39,12.273,77.629,12.273z M40.763,64.23c0,1.021-0.828,1.85-1.85,1.85h-7.089c-1.021,0-1.85-0.828-1.85-1.85
	v-7.09c0-1.021,0.828-1.85,1.85-1.85h7.089c1.021,0,1.85,0.828,1.85,1.85V64.23z M40.763,47.277c0,1.021-0.828,1.85-1.85,1.85
	h-7.089c-1.021,0-1.85-0.828-1.85-1.85v-7.09c0-1.021,0.828-1.85,1.85-1.85h7.089c1.021,0,1.85,0.828,1.85,1.85V47.277z
	 M40.763,30.248c0,1.021-0.828,1.85-1.85,1.85h-7.089c-1.021,0-1.85-0.828-1.85-1.85v-7.09c0-1.021,0.828-1.85,1.85-1.85h7.089
	c1.021,0,1.85,0.828,1.85,1.85V30.248z M57.892,81.337c0,1.021-0.828,1.85-1.849,1.85h-7.09c-1.021,0-1.85-0.828-1.85-1.85v-7.09
	c0-1.021,0.828-1.849,1.85-1.849h7.09c1.021,0,1.849,0.828,1.849,1.849V81.337z M57.892,64.23c0,1.021-0.828,1.85-1.849,1.85h-7.09
	c-1.021,0-1.85-0.828-1.85-1.85v-7.09c0-1.021,0.828-1.85,1.85-1.85h7.09c1.021,0,1.849,0.828,1.849,1.85V64.23z M75.142,64.23
	c0,1.021-0.828,1.85-1.849,1.85h-7.09c-1.021,0-1.85-0.828-1.85-1.85v-7.09c0-1.021,0.828-1.85,1.85-1.85h7.09
	c1.021,0,1.849,0.828,1.849,1.85V64.23z M57.892,47.277c0,1.021-0.828,1.85-1.849,1.85h-7.09c-1.021,0-1.85-0.828-1.85-1.85v-7.09
	c0-1.021,0.828-1.85,1.85-1.85h7.09c1.021,0,1.849,0.828,1.849,1.85V47.277z M57.892,30.248c0,1.021-0.828,1.85-1.849,1.85h-7.09
	c-1.021,0-1.85-0.828-1.85-1.85v-7.09c0-1.021,0.828-1.85,1.85-1.85h7.09c1.021,0,1.849,0.828,1.849,1.85V30.248z M74.998,47.277
	c0,1.021-0.828,1.85-1.849,1.85h-7.09c-1.021,0-1.85-0.828-1.85-1.85v-7.09c0-1.021,0.828-1.85,1.85-1.85h7.09
	c1.021,0,1.849,0.828,1.849,1.85V47.277z M74.998,30.248c0,1.021-0.828,1.85-1.849,1.85h-7.09c-1.021,0-1.85-0.828-1.85-1.85v-7.09
	c0-1.021,0.828-1.85,1.85-1.85h7.09c1.021,0,1.849,0.828,1.849,1.85V30.248z"/>
</svg>
