<?xml version="1.0" encoding="utf-8"?>
<!-- Generator: Adobe Illustrator 16.0.0, SVG Export Plug-In . SVG Version: 6.00 Build 0)  -->
<!DOCTYPE svg PUBLIC "-//W3C//DTD SVG 1.1//EN" "http://www.w3.org/Graphics/SVG/1.1/DTD/svg11.dtd">
<svg version="1.1" id="Layer_5" xmlns="http://www.w3.org/2000/svg" xmlns:xlink="http://www.w3.org/1999/xlink" x="0px" y="0px"
	 width="100px" height="100px" viewBox="0 0 100 100" enable-background="new 0 0 100 100" xml:space="preserve">
<path d="M14.818,34.667v30.666h70.363V34.667H14.818z M81.182,61.333H18.818V38.667h62.363V61.333z M36.027,56.262
	c0.681,0.749,1.516,1.327,2.481,1.718c0.95,0.383,2.012,0.578,3.157,0.578c1.171,0,2.238-0.191,3.168-0.569
	c0.946-0.385,1.776-0.965,2.467-1.724c0.668-0.728,1.191-1.639,1.557-2.711c0.355-1.049,0.537-2.242,0.537-3.549
	s-0.178-2.498-0.525-3.54c-0.358-1.07-0.885-1.99-1.568-2.74c-0.671-0.732-1.498-1.305-2.453-1.697
	c-1.854-0.766-4.365-0.79-6.325-0.01c-0.983,0.393-1.819,0.97-2.491,1.715c-0.684,0.766-1.211,1.695-1.563,2.759
	c-0.345,1.039-0.521,2.221-0.521,3.514c0,1.313,0.178,2.504,0.527,3.541C34.832,54.607,35.354,55.522,36.027,56.262z M38.785,46.094
	c0.696-0.845,1.641-1.256,2.891-1.256c1.236,0,2.177,0.411,2.875,1.258c0.729,0.883,1.099,2.198,1.099,3.909
	c0,1.727-0.373,3.042-1.107,3.91c-0.709,0.839-1.647,1.246-2.866,1.246c-1.222,0-2.161-0.407-2.873-1.246
	c-0.736-0.868-1.11-2.184-1.11-3.91C37.692,48.293,38.061,46.978,38.785,46.094z M54.534,58.25h-3.665V41.749h3.665v6.416
	l5.97-6.416h4.732l-7.438,7.83l7.648,8.671h-4.815l-5.491-6.181l-0.606,0.646V58.25z"/>
</svg>
