<?xml version="1.0" encoding="utf-8"?>
<!-- Generator: Adobe Illustrator 16.0.0, SVG Export Plug-In . SVG Version: 6.00 Build 0)  -->
<!DOCTYPE svg PUBLIC "-//W3C//DTD SVG 1.1//EN" "http://www.w3.org/Graphics/SVG/1.1/DTD/svg11.dtd">
<svg version="1.1" id="Layer_7" xmlns="http://www.w3.org/2000/svg" xmlns:xlink="http://www.w3.org/1999/xlink" x="0px" y="0px"
	 width="100px" height="100px" viewBox="0 0 100 100" enable-background="new 0 0 100 100" xml:space="preserve">
<path d="M55.468,16H44.721l5.373-4.678L55.468,16z M84.709,41.142v46.781c0,0.417-0.338,0.755-0.754,0.755h-67.91
	c-0.416,0-0.754-0.338-0.754-0.755V41.142c0-0.417,0.338-0.755,0.754-0.755h0.661l9.724-8.464v8.098l-3.426,3.003l4.525,3.399
	L50,62.902l22.471-16.479l4.651-3.636l-3.692-3.212v-7.939l10.053,8.751h0.473C84.371,40.387,84.709,40.725,84.709,41.142z
	 M78.673,49.361l-28.227,20.7c-0.267,0.194-0.626,0.194-0.893,0l-28.227-20.7v33.28h57.346V49.361z M31.165,20.563h37.93V46.03
	c0.998-0.675,1.998-1.342,3-2.002V17.563h-44v27.2l3,2.345L31.165,20.563z"/>
</svg>
