<?xml version="1.0" encoding="utf-8"?>
<!-- Generator: Adobe Illustrator 16.0.0, SVG Export Plug-In . SVG Version: 6.00 Build 0)  -->
<!DOCTYPE svg PUBLIC "-//W3C//DTD SVG 1.1//EN" "http://www.w3.org/Graphics/SVG/1.1/DTD/svg11.dtd">
<svg version="1.1" id="Layer_6" xmlns="http://www.w3.org/2000/svg" xmlns:xlink="http://www.w3.org/1999/xlink" x="0px" y="0px"
	 width="100px" height="100px" viewBox="0 0 100 100" enable-background="new 0 0 100 100" xml:space="preserve">
<path d="M70.024,44.818v-16.55c0-11.042-8.982-20.025-20.024-20.025s-20.024,8.983-20.024,20.025v16.55
	c-4.782,4.988-7.729,11.747-7.729,19.186c0,15.303,12.45,27.753,27.753,27.753s27.753-12.45,27.753-27.753
	C77.753,56.565,74.806,49.806,70.024,44.818z M50,14.518c7.581,0,13.75,6.168,13.75,13.75v11.644
	C59.693,37.587,55.001,36.25,50,36.25s-9.693,1.337-13.75,3.662V28.268C36.25,20.686,42.418,14.518,50,14.518z M54.645,84.971V72.82
	c1.077-1.144,1.743-2.679,1.743-4.375c0-3.528-2.86-6.388-6.389-6.388c-3.527,0-6.387,2.859-6.387,6.388
	c0,1.506,0.524,2.888,1.397,3.98v12.465c-9.444-2.256-16.488-10.762-16.488-20.887c0-6.557,2.956-12.432,7.602-16.375h0.127V47.52
	c3.728-3.116,8.522-4.994,13.75-4.994c5.227,0,10.022,1.878,13.75,4.994v0.109h0.127c4.645,3.943,7.602,9.818,7.602,16.375
	C71.479,74.252,64.263,82.841,54.645,84.971z"/>
</svg>
