<?xml version="1.0" encoding="utf-8"?>
<!-- Generator: Adobe Illustrator 16.0.0, SVG Export Plug-In . SVG Version: 6.00 Build 0)  -->
<!DOCTYPE svg PUBLIC "-//W3C//DTD SVG 1.1//EN" "http://www.w3.org/Graphics/SVG/1.1/DTD/svg11.dtd">
<svg version="1.1" id="Layer_4" xmlns="http://www.w3.org/2000/svg" xmlns:xlink="http://www.w3.org/1999/xlink" x="0px" y="0px"
	 width="100px" height="100px" viewBox="0 0 100 100" enable-background="new 0 0 100 100" xml:space="preserve">
<path d="M83.333,28.458H16.667c-1.104,0-2,0.896-2,2v39.084c0,1.104,0.896,2,2,2h66.666c1.104,0,2-0.896,2-2V30.458
	C85.333,29.354,84.438,28.458,83.333,28.458z M34.196,65.295l-7.877-5.525l7.877-5.524V65.295z M41.303,65.295v-11.05l7.877,5.524
	L41.303,65.295z M73.5,60.625c-2.117,0-3.834-1.716-3.834-3.833s1.717-3.834,3.834-3.834s3.834,1.717,3.834,3.834
	S75.617,60.625,73.5,60.625z M63.515,66.792c-2.117,0-3.834-1.716-3.834-3.833s1.717-3.834,3.834-3.834s3.834,1.717,3.834,3.834
	S65.632,66.792,63.515,66.792z M78.5,45.375c0,1.104-0.896,2-2,2h-54c-1.104,0-2-0.896-2-2v-9.333c0-1.104,0.896-2,2-2h54
	c1.104,0,2,0.896,2,2V45.375z"/>
</svg>
