<?xml version="1.0" encoding="utf-8"?>
<!-- Generator: Adobe Illustrator 16.0.0, SVG Export Plug-In . SVG Version: 6.00 Build 0)  -->
<!DOCTYPE svg PUBLIC "-//W3C//DTD SVG 1.1//EN" "http://www.w3.org/Graphics/SVG/1.1/DTD/svg11.dtd">
<svg version="1.1" id="Layer_6" xmlns="http://www.w3.org/2000/svg" xmlns:xlink="http://www.w3.org/1999/xlink" x="0px" y="0px"
	 width="100px" height="100px" viewBox="0 0 100 100" enable-background="new 0 0 100 100" xml:space="preserve">
<path d="M39.44,60.852c1.58,0.531,4.366,1.304,7.302,1.306c2.357,0.047,6.136-1.033,8.182-1.448c0.322-0.065-1,0.615-1,0.615
	s-3.18,1.862-7.088,1.862C41.253,63.065,39.084,60.732,39.44,60.852z M33.431,54.053c0.262,0.667,0.573,1.312,0.933,1.932
	c1.393,0.712,6.034,2.813,12.369,2.813c4.355,0,8.618-1.003,12.673-2.985c0.34-0.604,0.634-1.229,0.881-1.872
	c-4.372,1.463-8.91,2.203-13.523,2.203C41.05,56.144,36.335,54.995,33.431,54.053z M56.197,37.835
	c-2.608-2.244-5.876-3.463-9.36-3.463c-3.548,0-6.969,1.324-9.6,3.676c1.894,0.852,5.217,2.007,9.293,2.007
	C49.833,40.056,53.076,39.31,56.197,37.835z M80.138,14.535v70.93c0,1.46-1.062,2.648-2.367,2.648h-4.097
	c-0.106,0.775-0.824,1.377-1.702,1.377H21.584c-0.952,0-1.722-0.704-1.722-1.571V12.081c0-0.868,0.771-1.571,1.722-1.571h50.388
	c0.878,0,1.595,0.602,1.702,1.377h4.097C79.076,11.887,80.138,13.075,80.138,14.535z M64.608,48.78
	c0-9.798-7.972-17.771-17.771-17.771c-5.214,0-10.143,2.285-13.535,6.271c-0.086,0.083-0.159,0.168-0.21,0.245l-0.011,0.017
	c-2.588,3.164-4.013,7.151-4.013,11.238c0,0.61,0.033,1.222,0.102,1.859l0.239,1.588c0.397,2.01,1.127,3.913,2.176,5.663
	c0.07,0.163,0.165,0.315,0.283,0.449c3.296,5.144,8.884,8.212,14.971,8.212c8.747,0,16.104-6.242,17.53-14.855
	c0.043-0.146,0.067-0.3,0.069-0.454C64.55,50.417,64.608,49.59,64.608,48.78z M77.781,14.535c0-0.151-0.05-0.248-0.082-0.291h-4.004
	v71.512h4.004c0.032-0.043,0.082-0.14,0.082-0.291V14.535z M32.519,47.19c-0.059,0.529-0.089,1.061-0.089,1.589
	c0,0.448,0.022,0.904,0.067,1.365c2.127,0.86,7.364,2.639,14.25,2.638c4.956,0,9.811-0.924,14.441-2.748
	c0.039-0.424,0.058-0.845,0.058-1.255c0-0.566-0.035-1.136-0.103-1.702c-4.626,1.815-9.459,2.734-14.389,2.734
	C40.24,49.812,35.115,48.208,32.519,47.19z M46.546,43.421c-5.361,0-9.59-1.73-11.609-2.746c-0.684,0.998-1.233,2.071-1.644,3.204
	c2.094,0.871,7.006,2.572,13.447,2.572c4.667,0,9.239-0.899,13.606-2.674c-0.443-1.197-1.04-2.321-1.782-3.359
	C54.735,42.406,50.687,43.421,46.546,43.421z"/>
</svg>
