<?xml version="1.0" encoding="utf-8"?>
<!-- Generator: Adobe Illustrator 16.0.0, SVG Export Plug-In . SVG Version: 6.00 Build 0)  -->
<!DOCTYPE svg PUBLIC "-//W3C//DTD SVG 1.1//EN" "http://www.w3.org/Graphics/SVG/1.1/DTD/svg11.dtd">
<svg version="1.1" id="Layer_5" xmlns="http://www.w3.org/2000/svg" xmlns:xlink="http://www.w3.org/1999/xlink" x="0px" y="0px"
	 width="100px" height="100px" viewBox="0 0 100 100" enable-background="new 0 0 100 100" xml:space="preserve">
<path d="M9.387,34.667v30.666h81.227V34.667H9.387z M86.613,61.333H13.387V38.667h73.227V61.333z M28.689,50.572l-4.389,0.811V48.56
	l4.334,0.867l0.027-0.056l-2.963-3.522l2.488-1.426l1.564,4.276h0.057l1.594-4.276l2.459,1.397l-3.02,3.551l0.029,0.083l4.443-0.895
	v2.823l-4.473-0.782l-0.027,0.084l3.047,3.438l-2.488,1.453l-1.594-4.333l-0.055,0.028l-1.621,4.305l-2.404-1.453l2.99-3.494V50.572
	z M41.377,50.572l-4.389,0.811V48.56l4.334,0.867l0.027-0.056l-2.963-3.522l2.488-1.426l1.564,4.276h0.057l1.594-4.276l2.459,1.397
	l-3.02,3.551l0.029,0.083l4.443-0.895v2.823l-4.473-0.782l-0.027,0.084l3.047,3.438l-2.488,1.453l-1.594-4.333l-0.055,0.028
	l-1.621,4.305l-2.404-1.453l2.99-3.494V50.572z M54.064,50.572l-4.389,0.811V48.56l4.334,0.867l0.027-0.056l-2.963-3.522
	l2.488-1.426l1.564,4.276h0.057l1.594-4.276l2.459,1.397l-3.02,3.551l0.029,0.083l4.443-0.895v2.823l-4.473-0.782l-0.027,0.084
	l3.047,3.438l-2.488,1.453l-1.594-4.333L55.1,51.271l-1.621,4.305l-2.404-1.453l2.99-3.494V50.572z M66.752,50.572l-4.389,0.811
	V48.56l4.334,0.867l0.027-0.056l-2.963-3.522l2.488-1.426l1.564,4.276h0.057l1.594-4.276l2.459,1.397l-3.02,3.551l0.029,0.083
	l4.443-0.895v2.823l-4.473-0.782l-0.027,0.084l3.047,3.438l-2.488,1.453l-1.594-4.333l-0.055,0.028l-1.621,4.305l-2.404-1.453
	l2.99-3.494V50.572z"/>
</svg>
