<?xml version="1.0" encoding="utf-8"?>
<!-- Generator: Adobe Illustrator 16.0.4, SVG Export Plug-In . SVG Version: 6.00 Build 0)  -->
<!DOCTYPE svg PUBLIC "-//W3C//DTD SVG 1.1//EN" "http://www.w3.org/Graphics/SVG/1.1/DTD/svg11.dtd">
<svg version="1.1" id="Capa_1" xmlns="http://www.w3.org/2000/svg" xmlns:xlink="http://www.w3.org/1999/xlink" x="0px" y="0px"
	 width="100px" height="100px" viewBox="0 0 100 100" enable-background="new 0 0 100 100" xml:space="preserve">
<g id="Layer_8">
	<path d="M71.906,19.529V80.47c0,0.761-0.617,1.378-1.377,1.378H59.16c-0.762,0-1.379-0.617-1.379-1.378V19.529
		c0-0.761,0.617-1.378,1.379-1.378h11.369C71.289,18.151,71.906,18.768,71.906,19.529z M40.842,18.151H29.473
		c-0.761,0-1.378,0.617-1.378,1.378V80.47c0,0.761,0.617,1.378,1.378,1.378h11.369c0.761,0,1.378-0.617,1.378-1.378V19.529
		C42.22,18.768,41.603,18.151,40.842,18.151z"/>
</g>
</svg>
