<?xml version="1.0" encoding="utf-8"?>
<!-- Generator: Adobe Illustrator 16.0.0, SVG Export Plug-In . SVG Version: 6.00 Build 0)  -->
<!DOCTYPE svg PUBLIC "-//W3C//DTD SVG 1.1//EN" "http://www.w3.org/Graphics/SVG/1.1/DTD/svg11.dtd">
<svg version="1.1" id="Layer_7" xmlns="http://www.w3.org/2000/svg" xmlns:xlink="http://www.w3.org/1999/xlink" x="0px" y="0px"
	 width="100px" height="100px" viewBox="0 0 100 100" enable-background="new 0 0 100 100" xml:space="preserve">
<path d="M88.675,57.347l0.006,0.006c-0.018,0.101-0.042,0.196-0.062,0.296c-0.033,0.177-0.067,0.34-0.103,0.497
	c-0.017,0.066-0.03,0.139-0.047,0.206c-0.205,0.859-0.408,1.361-0.408,1.361s-0.012-0.012-0.031-0.027
	c-1.482,3.727-4.759,6.061-8.079,4.849l-7.347-3.062c-3.96-1.444-6.469-6.831-5.607-12.033l0.07-0.42
	c-8.987-2.502-20.509-3.473-33.867,0.308l0.164,0.984c0.863,5.202-1.647,10.587-5.605,12.032l-7.347,2.299
	c-3.861,1.409-7.666-1.076-8.653-6.044c-0.922-2.923-5.726-22.833,34.486-23.604C88.638,34.185,89.749,51.008,88.675,57.347z"/>
</svg>
