<?xml version="1.0" encoding="utf-8"?>
<!-- Generator: Adobe Illustrator 16.0.0, SVG Export Plug-In . SVG Version: 6.00 Build 0)  -->
<!DOCTYPE svg PUBLIC "-//W3C//DTD SVG 1.1//EN" "http://www.w3.org/Graphics/SVG/1.1/DTD/svg11.dtd">
<svg version="1.1" id="Layer_7" xmlns="http://www.w3.org/2000/svg" xmlns:xlink="http://www.w3.org/1999/xlink" x="0px" y="0px"
	 width="100px" height="100px" viewBox="0 0 100 100" enable-background="new 0 0 100 100" xml:space="preserve">
<path d="M62.227,60.908c0.169,0.223,0.168,0.531-0.004,0.754L50.494,76.918c-0.117,0.154-0.3,0.244-0.493,0.244
	s-0.375-0.09-0.493-0.244L37.778,61.662c-0.085-0.111-0.129-0.244-0.129-0.379c0-0.131,0.042-0.264,0.126-0.375
	c0.168-0.223,0.465-0.307,0.726-0.203l7.766,3.066V45.793c0-0.344,0.278-0.621,0.622-0.621h6.225c0.343,0,0.622,0.277,0.622,0.621
	v17.979l7.766-3.066C61.761,60.602,62.059,60.686,62.227,60.908z M46.245,22.866C6.033,23.638,10.837,43.548,11.759,46.471
	c0.987,4.968,4.792,7.453,8.653,6.044l7.347-2.299c3.958-1.445,6.469-6.83,5.605-12.032L33.2,37.199
	c13.358-3.78,24.88-2.81,33.867-0.308l-0.07,0.42c-0.861,5.202,1.647,10.589,5.607,12.033l7.347,3.062
	c3.32,1.212,6.597-1.122,8.079-4.849c0.02,0.016,0.031,0.027,0.031,0.027s0.203-0.502,0.408-1.361
	c0.017-0.067,0.03-0.14,0.047-0.206c0.035-0.157,0.069-0.32,0.103-0.497c0.02-0.1,0.044-0.195,0.062-0.296l-0.006-0.006
	C89.749,38.88,88.638,22.057,46.245,22.866z"/>
</svg>
