<?xml version="1.0" encoding="utf-8"?>
<!-- Generator: Adobe Illustrator 16.0.0, SVG Export Plug-In . SVG Version: 6.00 Build 0)  -->
<!DOCTYPE svg PUBLIC "-//W3C//DTD SVG 1.1//EN" "http://www.w3.org/Graphics/SVG/1.1/DTD/svg11.dtd">
<svg version="1.1" id="Layer_7" xmlns="http://www.w3.org/2000/svg" xmlns:xlink="http://www.w3.org/1999/xlink" x="0px" y="0px"
	 width="100px" height="100px" viewBox="0 0 100 100" enable-background="new 0 0 100 100" xml:space="preserve">
<path d="M74.021,80.297c-2.005,2.317-16.439,16.848-38.183-16.986c-22.92-35.672-9.178-45.44-3.217-47.85l0.001-0.008
	c0.095-0.038,0.189-0.067,0.285-0.104c0.167-0.064,0.324-0.12,0.477-0.173c0.065-0.021,0.134-0.047,0.2-0.068
	c0.839-0.276,1.373-0.366,1.373-0.366s-0.004,0.016-0.007,0.041c3.951-0.691,7.656,0.874,8.365,4.336l1.246,7.861
	c0.847,4.129-2.424,9.09-7.305,11.085l-0.395,0.16c2.583,8.965,7.798,19.284,18.022,28.676l0.752-0.655
	c3.977-3.464,9.878-4.149,13.185-1.537l5.81,5.05C77.854,72.308,77.732,76.851,74.021,80.297z"/>
</svg>
