<?xml version="1.0" encoding="utf-8"?>
<!-- Generator: Adobe Illustrator 16.0.0, SVG Export Plug-In . SVG Version: 6.00 Build 0)  -->
<!DOCTYPE svg PUBLIC "-//W3C//DTD SVG 1.1//EN" "http://www.w3.org/Graphics/SVG/1.1/DTD/svg11.dtd">
<svg version="1.1" id="Layer_4" xmlns="http://www.w3.org/2000/svg" xmlns:xlink="http://www.w3.org/1999/xlink" x="0px" y="0px"
	 width="100px" height="100px" viewBox="0 0 100 100" enable-background="new 0 0 100 100" xml:space="preserve">
<path d="M49.436,68.193c0-0.737,0.598-1.333,1.334-1.333s1.334,0.596,1.334,1.333s-0.598,1.334-1.334,1.334
	S49.436,68.931,49.436,68.193z M77.25,59.485v14.75c0,0.521-0.422,0.941-0.941,0.941H15.424c-0.52,0-0.941-0.421-0.941-0.941v-14.75
	c0-0.521,0.422-0.941,0.941-0.941h10.043v5.257h1.883v-5.257h3.374v5.257h1.883v-5.257h3.609v5.257h1.883v-5.257h38.21
	C76.828,58.544,77.25,58.965,77.25,59.485z M56.105,63.879h12.671v-2.355H56.105V63.879z M69.09,66.037H23.271v4.236H69.09V66.037z
	 M57.439,69.527c0.736,0,1.334-0.597,1.334-1.334s-0.598-1.333-1.334-1.333c-0.737,0-1.334,0.596-1.334,1.333
	S56.702,69.527,57.439,69.527z M64.501,69.527c0.737,0,1.333-0.597,1.333-1.334s-0.596-1.333-1.333-1.333s-1.335,0.596-1.335,1.333
	S63.764,69.527,64.501,69.527z M58.755,15.6c-14.796,0-26.833,12.036-26.833,26.833c0,4.829,1.289,9.36,3.53,13.278h8.433
	c0.042-0.192,0.076-0.396,0.094-0.625c0.241-3.231-5.268-6.176-5.462-9.43c0.237-0.649,0.408-1.464,0.516-2.348
	c1.011-2.093,3.018-3.514,1.597-6.654c-0.592-1.441-2.427-2.227-4.232-2.745c1.957-5.114,5.618-9.39,10.289-12.129
	c7.507,5.445,0.629,18.114,7.772,21.856c6.166,2.899,2.901-7.254,7.979-7.615c1.813,0,2.536,3.264,3.987,3.988
	c1.089,0.364,3.265-1.813,6.527,0.906c3.264,2.721,3.386-0.483,4.11-3.747c0.362-3.263-3.385-2.961-3.385-4.773
	c-0.726-5.438,1.814-5.802-2.9-10.516c-0.106-0.106-0.231-0.219-0.351-0.328c7.31,4.1,12.262,11.921,12.262,20.881
	c0,1.44-0.136,2.85-0.381,4.22c-4.048,2.123-11.237-0.547-11.893,5.688c-0.103,1.336,0.262,2.409,0.816,3.371h4.729
	c1.894,0,3.522,1.082,4.352,2.65c2.006-2.708,3.53-5.793,4.406-9.143l0.469-2.186c0.26-1.495,0.402-3.031,0.402-4.601
	C85.588,27.636,73.551,15.6,58.755,15.6z M59.494,54.348c-1.096-0.037-2.524,0.569-3.461-0.171
	c-0.866-0.683-1.601-1.376-2.734-1.533c-2.165-0.3-3.984,1.238-4.983,3.067h13.577C61.395,54.934,60.646,54.387,59.494,54.348z"/>
</svg>
