<?xml version="1.0" encoding="utf-8"?>
<!-- Generator: Adobe Illustrator 16.0.0, SVG Export Plug-In . SVG Version: 6.00 Build 0)  -->
<!DOCTYPE svg PUBLIC "-//W3C//DTD SVG 1.1//EN" "http://www.w3.org/Graphics/SVG/1.1/DTD/svg11.dtd">
<svg version="1.1" id="Layer_7" xmlns="http://www.w3.org/2000/svg" xmlns:xlink="http://www.w3.org/1999/xlink" x="0px" y="0px"
	 width="100px" height="100px" viewBox="0 0 100 100" enable-background="new 0 0 100 100" xml:space="preserve">
<path d="M70.208,12.724L57.704,25.228c-2.355-0.333-4.831,0.397-6.643,2.209L39.924,38.573c-1.978,1.979-6.428,8.504-7.69,12.887
	c-0.436,0.164-0.846,0.415-1.196,0.766c-1.146,1.146-1.295,2.91-0.451,4.221l-7.622,7.622l3.667,3.667L12.059,82.309l4.967,4.968
	l14.573-14.573l3.557,3.557l7.565-7.565l0.157,0.157c1.321,1.321,3.463,1.321,4.785,0c0.401-0.401,0.666-0.882,0.823-1.389
	c4.58-1.14,10.953-5.179,13.051-7.276l11.137-11.138c1.549-1.549,2.312-3.586,2.292-5.617l12.975-12.975L70.208,12.724z
	 M74.698,41.483c-0.343-1.288-1.013-2.507-2.023-3.518l-2.335-2.336L59.687,46.281l-1.177-1.177l-3.757,3.757l-2.813-2.813
	l3.757-3.757l-0.947-0.947l10.651-10.652l-3.256-3.255c-0.789-0.789-1.705-1.37-2.681-1.753L70.208,14.94l1.059,1.059l-5.827,5.827
	l1.108,1.108l5.827-5.827l1.478,1.479l-5.827,5.826l1.108,1.109l5.827-5.828l1.313,1.313l-5.827,5.827l1.108,1.108l5.828-5.827
	l1.273,1.272l-5.828,5.827l1.108,1.108l5.827-5.827l1.478,1.479l-5.827,5.827l1.108,1.108l5.827-5.828l1.313,1.313l-5.828,5.828
	l1.109,1.107l5.827-5.827l0.954,0.953L74.698,41.483z"/>
</svg>
