<?xml version="1.0" encoding="utf-8"?>
<!-- Generator: Adobe Illustrator 16.0.0, SVG Export Plug-In . SVG Version: 6.00 Build 0)  -->
<!DOCTYPE svg PUBLIC "-//W3C//DTD SVG 1.1//EN" "http://www.w3.org/Graphics/SVG/1.1/DTD/svg11.dtd">
<svg version="1.1" id="Layer_7" xmlns="http://www.w3.org/2000/svg" xmlns:xlink="http://www.w3.org/1999/xlink" x="0px" y="0px"
	 width="100px" height="100px" viewBox="0 0 100 100" enable-background="new 0 0 100 100" xml:space="preserve">
<path d="M83.314,14.782V9.249h-7.303c-0.211,2.351-2.184,4.194-4.59,4.194c-2.405,0-4.378-1.844-4.59-4.194h-5.586
	c-0.211,2.351-2.184,4.194-4.589,4.194c-2.406,0-4.379-1.844-4.59-4.194h-5.801c-0.211,2.351-2.184,4.194-4.59,4.194
	c-2.405,0-4.378-1.844-4.589-4.194h-5.587c-0.211,2.351-2.184,4.194-4.589,4.194c-2.406,0-4.379-1.844-4.59-4.194h-5.637v5.533
	c2.546,0,4.61,2.064,4.61,4.61c0,2.547-2.064,4.611-4.61,4.611v5.544c2.546,0,4.61,2.064,4.61,4.61c0,2.547-2.064,4.61-4.61,4.61
	v5.759c2.546,0,4.61,2.064,4.61,4.61s-2.064,4.61-4.61,4.61v5.545c2.546,0,4.61,2.064,4.61,4.61c0,2.547-2.064,4.611-4.61,4.611
	v5.811c2.546,0,4.61,2.063,4.61,4.61c0,2.546-2.064,4.61-4.61,4.61v7.205h5.615c0-2.547,2.064-4.61,4.611-4.61
	c2.546,0,4.609,2.063,4.609,4.61h5.545c0-2.547,2.064-4.61,4.61-4.61s4.611,2.063,4.611,4.61h5.758c0-2.547,2.063-4.61,4.611-4.61
	c2.546,0,4.61,2.063,4.61,4.61h5.545c0-2.547,2.063-4.61,4.609-4.61c2.547,0,4.61,2.063,4.61,4.61h7.282v-7.205
	c-2.547,0-4.611-2.064-4.611-4.61c0-2.547,2.064-4.61,4.611-4.61v-5.811c-2.547,0-4.611-2.064-4.611-4.611
	c0-2.546,2.064-4.61,4.611-4.61v-5.545c-2.547,0-4.611-2.064-4.611-4.61s2.064-4.61,4.611-4.61v-5.759
	c-2.547,0-4.611-2.063-4.611-4.61c0-2.546,2.064-4.61,4.611-4.61v-5.544c-2.547,0-4.611-2.064-4.611-4.611
	C78.703,16.847,80.768,14.782,83.314,14.782z M77.365,84.802H66.774c1.807-2.97,2.857-6.451,2.857-10.182
	c0-7.545-4.259-14.092-10.501-17.379c2.969-2.563,4.85-6.352,4.85-10.581c0-7.721-6.259-13.98-13.98-13.98
	c-7.721,0-13.979,6.26-13.979,13.98c0,4.229,1.881,8.019,4.85,10.581c-6.243,3.287-10.502,9.834-10.502,17.379
	c0,3.73,1.048,7.212,2.854,10.182H22.635V15.198h54.73V84.802z"/>
</svg>
