<?xml version="1.0" encoding="utf-8"?>
<!-- Generator: Adobe Illustrator 16.0.4, SVG Export Plug-In . SVG Version: 6.00 Build 0)  -->
<!DOCTYPE svg PUBLIC "-//W3C//DTD SVG 1.1//EN" "http://www.w3.org/Graphics/SVG/1.1/DTD/svg11.dtd">
<svg version="1.1" id="Capa_1" xmlns="http://www.w3.org/2000/svg" xmlns:xlink="http://www.w3.org/1999/xlink" x="0px" y="0px"
	 width="100px" height="100px" viewBox="0 0 100 100" enable-background="new 0 0 100 100" xml:space="preserve">
<g id="Layer_8">
	<path d="M50,9.667C27.76,9.667,9.666,27.761,9.666,50S27.76,90.333,50,90.333S90.332,72.239,90.332,50S72.24,9.667,50,9.667z
		 M50,80.333c-16.727,0-30.334-13.606-30.334-30.333c0-16.726,13.607-30.333,30.334-30.333c16.725,0,30.332,13.607,30.332,30.333
		C80.332,66.727,66.725,80.333,50,80.333z M55.467,28.75v42.499c0,2.762-2.238,5-5,5s-5-2.238-5-5V28.75c0-2.762,2.238-5,5-5
		S55.467,25.988,55.467,28.75z"/>
</g>
</svg>
