<?xml version="1.0" encoding="utf-8"?>
<!-- Generator: Adobe Illustrator 16.0.0, SVG Export Plug-In . SVG Version: 6.00 Build 0)  -->
<!DOCTYPE svg PUBLIC "-//W3C//DTD SVG 1.1//EN" "http://www.w3.org/Graphics/SVG/1.1/DTD/svg11.dtd">
<svg version="1.1" id="Layer_6" xmlns="http://www.w3.org/2000/svg" xmlns:xlink="http://www.w3.org/1999/xlink" x="0px" y="0px"
	 width="100px" height="100px" viewBox="0 0 100 100" enable-background="new 0 0 100 100" xml:space="preserve">
<path d="M63.441,41.342l9.621-10.092v6.867l-9.525,10.036l-4.701-3.402l-6.85,4.097l-5.331-5.553l-4.232,6.82l-7.497-5.209
	l-8.781,2.822v-6.794l8.441-2.591l8.048,5.864l4.32-6.956l4.71,4.91l7.067-4.228L63.441,41.342z M58.731,46.75l-7.067,4.228
	l-4.71-4.91l-4.32,6.956l-8.048-6.41l-8.441,2.591v12.729h46.918V40.068l-9.621,10.091L58.731,46.75z M80.594,25.32v38.624
	c0,2.847-2.315,5.163-5.162,5.163H52.008v13.958h0.287v0.815l11.634,3.317c0.991,0.496,1.394,1.702,0.898,2.693
	c-0.353,0.703-1.062,1.11-1.798,1.11c-0.302,0-0.607-0.068-0.896-0.212l-9.838-2.419v2.632h-4.589v-2.632l-9.339,2.419
	c-0.288,0.144-0.595,0.212-0.896,0.212c-0.736,0-1.445-0.407-1.797-1.11c-0.496-0.992-0.094-2.198,0.897-2.693l11.135-3.317v-0.815
	h0.286V69.107H24.569c-2.847,0-5.162-2.316-5.162-5.163V25.32c0-2.847,2.315-5.163,5.162-5.163h23.997v-2.39
	c0-0.792,0.642-1.434,1.434-1.434s1.435,0.642,1.435,1.434v2.39h23.997C78.278,20.158,80.594,22.474,80.594,25.32z M76.005,25.32
	c0-0.316-0.257-0.574-0.573-0.574H24.569c-0.316,0-0.573,0.257-0.573,0.574v38.624c0,0.316,0.257,0.574,0.573,0.574h50.862
	c0.316,0,0.573-0.257,0.573-0.574V25.32z"/>
</svg>
