<?xml version="1.0" encoding="utf-8"?>
<!-- Generator: Adobe Illustrator 16.0.0, SVG Export Plug-In . SVG Version: 6.00 Build 0)  -->
<!DOCTYPE svg PUBLIC "-//W3C//DTD SVG 1.1//EN" "http://www.w3.org/Graphics/SVG/1.1/DTD/svg11.dtd">
<svg version="1.1" id="Layer_4" xmlns="http://www.w3.org/2000/svg" xmlns:xlink="http://www.w3.org/1999/xlink" x="0px" y="0px"
	 width="100px" height="100px" viewBox="0 0 100 100" enable-background="new 0 0 100 100" xml:space="preserve">
<path d="M88.551,36.836V24.357H11.449v12.479h3.803v5.458h-3.803v12.479h77.102V42.294h-4.387v-5.458H88.551z M25.291,49.661h-5.394
	v-5.277h5.394V49.661z M25.291,42.133h-5.394v-5.277h5.394V42.133z M25.291,34.745h-5.394v-5.277h5.394V34.745z M33.265,49.661
	h-5.394v-5.277h5.394V49.661z M33.265,42.133h-5.394v-5.277h5.394V42.133z M33.265,34.745h-5.394v-5.277h5.394V34.745z
	 M41.122,49.661h-5.394v-5.277h5.394V49.661z M41.122,42.133h-5.394v-5.277h5.394V42.133z M41.122,34.745h-5.394v-5.277h5.394
	V34.745z M48.897,49.661h-5.394v-5.277h5.394V49.661z M48.897,42.133h-5.394v-5.277h5.394V42.133z M48.897,34.745h-5.394v-5.277
	h5.394V34.745z M56.87,49.661h-5.394v-5.277h5.394V49.661z M56.87,42.133h-5.394v-5.277h5.394V42.133z M56.87,34.745h-5.394v-5.277
	h5.394V34.745z M64.728,49.661h-5.393v-5.277h5.393V49.661z M64.728,42.133h-5.393v-5.277h5.393V42.133z M64.728,34.745h-5.393
	v-5.277h5.393V34.745z M76.795,49.509h-6.964v-3.217h6.964V49.509z M73.286,40.477c-3.069,0-5.557-2.488-5.557-5.557
	c0-3.067,2.487-5.556,5.557-5.556s5.557,2.488,5.557,5.556C78.843,37.988,76.355,40.477,73.286,40.477z M76.795,34.886
	c0,1.923-1.559,3.482-3.481,3.482s-3.482-1.56-3.482-3.482s1.56-3.48,3.482-3.48S76.795,32.963,76.795,34.886z M61.84,70.57h9.011
	v2.136H61.84v2.937H32.495v-2.937h-8.098V70.57h8.098v-2.402h10.936v-7.197h7.476v7.197H61.84V70.57z"/>
</svg>
