<?xml version="1.0" encoding="utf-8"?>
<!-- Generator: Adobe Illustrator 16.0.0, SVG Export Plug-In . SVG Version: 6.00 Build 0)  -->
<!DOCTYPE svg PUBLIC "-//W3C//DTD SVG 1.1//EN" "http://www.w3.org/Graphics/SVG/1.1/DTD/svg11.dtd">
<svg version="1.1" id="Layer_5" xmlns="http://www.w3.org/2000/svg" xmlns:xlink="http://www.w3.org/1999/xlink" x="0px" y="0px"
	 width="100px" height="100px" viewBox="0 0 100 100" enable-background="new 0 0 100 100" xml:space="preserve">
<path d="M19.423,39.076c-6.023,0-10.924,4.9-10.924,10.924s4.9,10.924,10.924,10.924S30.348,56.023,30.348,50
	S25.446,39.076,19.423,39.076z M19.423,58.344c-4.601,0-8.344-3.742-8.344-8.344c0-4.6,3.743-8.344,8.344-8.344
	c4.602,0,8.344,3.744,8.344,8.344C27.767,54.602,24.024,58.344,19.423,58.344z M23.805,50c0,2.419-1.962,4.381-4.382,4.381
	c-2.419,0-4.381-1.962-4.381-4.381s1.962-4.381,4.381-4.381C21.843,45.619,23.805,47.581,23.805,50z M91.501,43.379v13.24
	c0,0.57-0.462,1.033-1.032,1.033H36.275c-0.569,0-1.031-0.463-1.031-1.033v-13.24c0-0.568,0.462-1.031,1.031-1.031h54.193
	C91.039,42.348,91.501,42.811,91.501,43.379z"/>
</svg>
