<?xml version="1.0" encoding="utf-8"?>
<!-- Generator: Adobe Illustrator 16.0.0, SVG Export Plug-In . SVG Version: 6.00 Build 0)  -->
<!DOCTYPE svg PUBLIC "-//W3C//DTD SVG 1.1//EN" "http://www.w3.org/Graphics/SVG/1.1/DTD/svg11.dtd">
<svg version="1.1" id="Layer_5" xmlns="http://www.w3.org/2000/svg" xmlns:xlink="http://www.w3.org/1999/xlink" x="0px" y="0px"
	 width="100px" height="100px" viewBox="0 0 100 100" enable-background="new 0 0 100 100" xml:space="preserve">
<path d="M19.423,23.334c-6.023,0-10.924,4.9-10.924,10.925c0,6.023,4.9,10.924,10.924,10.924s10.925-4.9,10.925-10.924
	C30.348,28.234,25.446,23.334,19.423,23.334z M19.423,42.602c-4.601,0-8.344-3.742-8.344-8.343s3.743-8.345,8.344-8.345
	c4.602,0,8.344,3.744,8.344,8.345S24.024,42.602,19.423,42.602z M19.423,54.817c-6.023,0-10.924,4.9-10.924,10.924
	c0,6.024,4.9,10.925,10.924,10.925s10.925-4.9,10.925-10.925C30.348,59.718,25.446,54.817,19.423,54.817z M19.423,74.086
	c-4.601,0-8.344-3.744-8.344-8.345s3.743-8.343,8.344-8.343c4.602,0,8.344,3.742,8.344,8.343S24.024,74.086,19.423,74.086z
	 M91.501,27.638v13.24c0,0.57-0.462,1.032-1.032,1.032H36.275c-0.569,0-1.031-0.462-1.031-1.032v-13.24
	c0-0.569,0.462-1.031,1.031-1.031h54.193C91.039,26.606,91.501,27.068,91.501,27.638z M91.501,59.122v13.24
	c0,0.569-0.462,1.031-1.032,1.031H36.275c-0.569,0-1.031-0.462-1.031-1.031v-13.24c0-0.57,0.462-1.032,1.031-1.032h54.193
	C91.039,58.09,91.501,58.552,91.501,59.122z M23.805,34.258c0,2.419-1.962,4.381-4.382,4.381c-2.419,0-4.381-1.962-4.381-4.381
	s1.962-4.381,4.381-4.381C21.843,29.877,23.805,31.839,23.805,34.258z M23.805,65.641c0,2.419-1.962,4.381-4.382,4.381
	c-2.419,0-4.381-1.962-4.381-4.381s1.962-4.381,4.381-4.381C21.843,61.26,23.805,63.222,23.805,65.641z"/>
</svg>
