<?xml version="1.0" encoding="utf-8"?>
<!-- Generator: Adobe Illustrator 16.0.4, SVG Export Plug-In . SVG Version: 6.00 Build 0)  -->
<!DOCTYPE svg PUBLIC "-//W3C//DTD SVG 1.1//EN" "http://www.w3.org/Graphics/SVG/1.1/DTD/svg11.dtd">
<svg version="1.1" id="Capa_1" xmlns="http://www.w3.org/2000/svg" xmlns:xlink="http://www.w3.org/1999/xlink" x="0px" y="0px"
	 width="100px" height="100px" viewBox="0 0 100 100" enable-background="new 0 0 100 100" xml:space="preserve">
<g id="Layer_7">
	<path d="M41.748,54.396c-2.428,0-4.397-1.97-4.397-4.396c0-2.429,1.969-4.396,4.397-4.396c2.428,0,4.396,1.968,4.396,4.396
		C46.145,52.428,44.176,54.396,41.748,54.396z M91.089,79.292H56.583c-4.457,2.263-9.495,3.545-14.835,3.545
		s-10.378-1.282-14.835-3.545H16.471v-8.333C11.75,65.271,8.911,57.968,8.911,50s2.839-15.271,7.56-20.959v-8.267h10.313
		c4.489-2.304,9.572-3.611,14.964-3.611s10.475,1.308,14.964,3.611h34.376L91.089,79.292L91.089,79.292z M18.833,23.136v3.355
		c1.254-1.223,2.606-2.345,4.043-3.355H18.833z M18.833,45.605c1.063-4.424,3.151-8.454,6.002-11.82
		c-0.321-0.322-0.644-0.643-0.965-0.965c-2.104,2.465-3.811,5.273-5.038,8.326L18.833,45.605L18.833,45.605z M21.443,52.298h1.362
		c0-5.737,2.031-11.007,5.41-15.132l-0.968-0.968C23.624,40.574,21.443,46.186,21.443,52.298z M41.748,63.023
		c7.192,0,13.023-5.832,13.023-13.023c0-7.192-5.832-13.023-13.023-13.023S28.725,42.808,28.725,50
		C28.725,57.191,34.556,63.023,41.748,63.023z M60.113,68.376c4.479-5.25,7.193-12.051,7.193-19.478h-1.361
		c0,7.051-2.562,13.512-6.797,18.513C59.471,67.732,59.792,68.055,60.113,68.376z M62.54,48.898h-1.362
		c0,5.736-2.031,11.007-5.41,15.132l0.969,0.969C60.359,60.622,62.54,55.011,62.54,48.898z M22.969,76.932
		c-1.471-1.029-2.854-2.174-4.136-3.423v3.423H22.969z M88.729,23.136H60.62C69.062,29.078,74.585,38.891,74.585,50
		c0,11.148-5.563,20.995-14.058,26.932h28.201V23.136z M77.172,66.434c0.651,0,1.256,0.183,1.791,0.475l-0.087-0.077l3.899-4.39
		V36.125H81.07v-8.659h5.772v8.659h-1.706V63.34l-4.496,5.059l-0.363-0.321c0.416,0.604,0.66,1.337,0.66,2.125
		c0,2.077-1.689,3.768-3.768,3.768s-3.768-1.689-3.768-3.768S75.094,66.434,77.172,66.434z M77.172,68.795
		c-0.775,0-1.406,0.631-1.406,1.406s0.631,1.406,1.406,1.406s1.406-0.631,1.406-1.406S77.947,68.795,77.172,68.795z"/>
</g>
</svg>
