<?xml version="1.0" encoding="utf-8"?>
<!-- Generator: Adobe Illustrator 16.0.0, SVG Export Plug-In . SVG Version: 6.00 Build 0)  -->
<!DOCTYPE svg PUBLIC "-//W3C//DTD SVG 1.1//EN" "http://www.w3.org/Graphics/SVG/1.1/DTD/svg11.dtd">
<svg version="1.1" id="Layer_5" xmlns="http://www.w3.org/2000/svg" xmlns:xlink="http://www.w3.org/1999/xlink" x="0px" y="0px"
	 width="100px" height="100px" viewBox="0 0 100 100" enable-background="new 0 0 100 100" xml:space="preserve">
<path d="M76.164,8.319H23.836c-1.701,0-3.086,1.384-3.086,3.085v31.738c0,1.701,1.385,3.085,3.086,3.085h52.328
	c1.701,0,3.086-1.384,3.086-3.085V11.404C79.25,9.703,77.865,8.319,76.164,8.319z M76.25,43.143c0,0.047-0.038,0.085-0.086,0.085
	H23.836c-0.048,0-0.086-0.039-0.086-0.085V11.404c0-0.047,0.038-0.085,0.086-0.085h52.328c0.048,0,0.086,0.039,0.086,0.085V43.143z
	 M76.164,51.661H23.836c-1.701,0-3.086,1.384-3.086,3.086v31.738c0,1.701,1.385,3.085,3.086,3.085h52.328
	c1.701,0,3.086-1.384,3.086-3.085V54.747C79.25,53.045,77.865,51.661,76.164,51.661z M76.25,86.485c0,0.047-0.038,0.085-0.086,0.085
	H23.836c-0.048,0-0.086-0.039-0.086-0.085V54.747c0-0.047,0.038-0.086,0.086-0.086h52.328c0.048,0,0.086,0.039,0.086,0.086V86.485z"
	/>
</svg>
