<?xml version="1.0" encoding="utf-8"?>
<!-- Generator: Adobe Illustrator 16.0.0, SVG Export Plug-In . SVG Version: 6.00 Build 0)  -->
<!DOCTYPE svg PUBLIC "-//W3C//DTD SVG 1.1//EN" "http://www.w3.org/Graphics/SVG/1.1/DTD/svg11.dtd">
<svg version="1.1" id="Layer_5" xmlns="http://www.w3.org/2000/svg" xmlns:xlink="http://www.w3.org/1999/xlink" x="0px" y="0px"
	 width="100px" height="100px" viewBox="0 0 100 100" enable-background="new 0 0 100 100" xml:space="preserve">
<path d="M83,26.434H17c-1.93,0-3.5,1.57-3.5,3.5v40.03c0,1.93,1.57,3.5,3.5,3.5h66c1.93,0,3.5-1.57,3.5-3.5v-40.03
	C86.5,28.004,84.93,26.434,83,26.434z M83.5,69.964c0,0.276-0.224,0.5-0.5,0.5H17c-0.276,0-0.5-0.224-0.5-0.5v-40.03
	c0-0.276,0.224-0.5,0.5-0.5h66c0.276,0,0.5,0.224,0.5,0.5V69.964z"/>
</svg>
