<?xml version="1.0" encoding="utf-8"?>
<!-- Generator: Adobe Illustrator 16.0.0, SVG Export Plug-In . SVG Version: 6.00 Build 0)  -->
<!DOCTYPE svg PUBLIC "-//W3C//DTD SVG 1.1//EN" "http://www.w3.org/Graphics/SVG/1.1/DTD/svg11.dtd">
<svg version="1.1" id="Layer_4" xmlns="http://www.w3.org/2000/svg" xmlns:xlink="http://www.w3.org/1999/xlink" x="0px" y="0px"
	 width="100px" height="100px" viewBox="0 0 100 100" enable-background="new 0 0 100 100" xml:space="preserve">
<path d="M80.75,48.857h-61.5c-0.276,0-0.5,0.225-0.5,0.5v9.967c0,0.277,0.224,0.5,0.5,0.5h3.5v9.834h-2c-1.104,0-2,0.896-2,2v4.334
	c0,1.104,0.896,2,2,2h58.5c1.104,0,2-0.896,2-2v-4.334c0-1.104-0.896-2-2-2h-3.5v-9.834h5c0.276,0,0.5-0.223,0.5-0.5v-9.967
	C81.25,49.082,81.026,48.857,80.75,48.857z M42.5,52.199h3.25v3.25H42.5V52.199z M33.5,52.199h3.25v3.25H33.5V52.199z
	 M25.125,52.199h3.25v3.25h-3.25V52.199z M80.32,45.109l-58.65-20.432l0.93-2.67c0,0,27.861,4.887,58.651,20.434L80.32,45.109z"/>
</svg>
