<?xml version="1.0" encoding="utf-8"?>
<!-- Generator: Adobe Illustrator 16.0.0, SVG Export Plug-In . SVG Version: 6.00 Build 0)  -->
<!DOCTYPE svg PUBLIC "-//W3C//DTD SVG 1.1//EN" "http://www.w3.org/Graphics/SVG/1.1/DTD/svg11.dtd">
<svg version="1.1" id="Layer_5" xmlns="http://www.w3.org/2000/svg" xmlns:xlink="http://www.w3.org/1999/xlink" x="0px" y="0px"
	 width="100px" height="100px" viewBox="0 0 100 100" enable-background="new 0 0 100 100" xml:space="preserve">
<path d="M42.041,7v87.833h16.83V7H42.041z M57.159,93.121H43.752V8.712h13.407V93.121z M55.734,10.137H45.04v8.697h10.694V10.137z
	 M46.165,16.77l4.222-5.629l4.221,5.629H46.165z M55.734,83.189H45.04v8.698h10.694V83.189z M50.387,90.886l-4.222-5.631h8.442
	L50.387,90.886z M54.521,63.083V32.38h-8.27v30.703H54.521z M53.178,51.142h-5.514v-1.425h5.514V51.142z M53.178,47.791h-5.514
	v-1.426h5.514V47.791z M47.595,43.229h5.513v1.426h-5.513V43.229z"/>
</svg>
