<?xml version="1.0" encoding="utf-8"?>
<!-- Generator: Adobe Illustrator 16.0.0, SVG Export Plug-In . SVG Version: 6.00 Build 0)  -->
<!DOCTYPE svg PUBLIC "-//W3C//DTD SVG 1.1//EN" "http://www.w3.org/Graphics/SVG/1.1/DTD/svg11.dtd">
<svg version="1.1" id="Layer_5" xmlns="http://www.w3.org/2000/svg" xmlns:xlink="http://www.w3.org/1999/xlink" x="0px" y="0px"
	 width="100px" height="100px" viewBox="0 0 100 100" enable-background="new 0 0 100 100" xml:space="preserve">
<path d="M73.811,14.5H32.033c-0.375,0-0.734,0.164-0.98,0.448l-8.443,9.741c-0.205,0.236-0.316,0.538-0.316,0.851v56.064
	c0,2.148,1.746,3.896,3.895,3.896h47.623c2.15,0,3.896-1.748,3.896-3.896V18.396C77.707,16.248,75.961,14.5,73.811,14.5z
	 M38.221,30.962h-4.369V19.469h4.369V30.962z M31.182,31.099h-4.365v-3.42h4.365V31.099z M45.205,30.962H40.84V19.469h4.365V30.962z
	 M52.119,30.962h-4.365V19.469h4.365V30.962z M59.105,30.962H54.74V19.469h4.365V30.962z M66.057,30.962h-4.369V19.469h4.369V30.962
	z M72.76,30.962h-4.365V19.469h4.365V30.962z"/>
</svg>
