<?xml version="1.0" encoding="utf-8"?>
<!-- Generator: Adobe Illustrator 16.0.0, SVG Export Plug-In . SVG Version: 6.00 Build 0)  -->
<!DOCTYPE svg PUBLIC "-//W3C//DTD SVG 1.1//EN" "http://www.w3.org/Graphics/SVG/1.1/DTD/svg11.dtd">
<svg version="1.1" id="Layer_7" xmlns="http://www.w3.org/2000/svg" xmlns:xlink="http://www.w3.org/1999/xlink" x="0px" y="0px"
	 width="100px" height="100px" viewBox="0 0 100 100" enable-background="new 0 0 100 100" xml:space="preserve">
<path d="M83.955,25.854H16.045c-0.417,0-0.754,0.338-0.754,0.755v46.782c0,0.417,0.337,0.754,0.754,0.754h67.909
	c0.417,0,0.754-0.337,0.754-0.754V26.609C84.709,26.192,84.372,25.854,83.955,25.854z M78.673,68.109H21.327v-33.28l12.287,9.011
	l1.433-2.069l0.428-3.024c0.042-0.299,0.121-0.588,0.214-0.871l-8.161-5.985H45.31c0.25-0.167,0.512-0.321,0.792-0.443
	c0.648-0.284,1.339-0.427,2.054-0.427c1.104,0,2.088,0.304,2.931,0.871h21.384l-11.14,8.169l0.217,1.194l1.835,2.441
	c0.393,0.522,0.673,1.112,0.841,1.729l14.449-10.596V68.109z M53.846,41.665c2.984,2.984,2.984,7.822,0,10.806
	c-1.505,1.505-3.482,2.249-5.454,2.235c-0.009,0-0.018,0.001-0.026,0.001c-4.219,0-7.641-3.421-7.641-7.64
	c0-4.22,3.421-7.641,7.641-7.641c0.017,0,0.033,0.002,0.049,0.003C50.38,39.421,52.347,40.166,53.846,41.665z M59.194,42.366
	l-0.652-3.587c-0.202-1.114-1.091-1.969-2.21-2.127l-3.611-0.512l-2.997-2.075c-0.458-0.317-0.989-0.466-1.518-0.46
	c-0.372-0.007-0.747,0.062-1.102,0.217c-0.185,0.081-0.362,0.184-0.525,0.306l-2.915,2.19l-3.587,0.652
	c-0.2,0.036-0.396,0.096-0.581,0.177c-0.827,0.361-1.419,1.141-1.546,2.034l-0.511,3.61l-2.076,2.998
	c-0.645,0.931-0.621,2.164,0.059,3.067l2.191,2.915l0.651,3.587c0.18,0.989,0.902,1.773,1.846,2.047l0.092-0.001
	c0.114,0.032,0.23,0.062,0.351,0.079l3.609,0.512l2.198,1.522l-0.084-0.003l0.808,0.56c0.467,0.324,1.027,0.48,1.584,0.462
	c0.549-0.003,1.097-0.177,1.56-0.524l2.915-2.19l3.587-0.652c0.901-0.164,1.639-0.771,1.973-1.624
	c0.073-0.188,0.125-0.386,0.154-0.588l0.512-3.609l2.076-2.998c0.116-0.167,0.212-0.348,0.285-0.536
	c0.33-0.84,0.197-1.811-0.344-2.532L59.194,42.366z M48.394,55.86c-2.234-0.013-4.465-0.869-6.17-2.574
	c-3.435-3.435-3.435-9.003,0-12.438c1.71-1.71,3.949-2.567,6.189-2.575c4.835,0.026,8.748,3.952,8.748,8.793
	C57.161,51.915,53.238,55.845,48.394,55.86z"/>
</svg>
