<?xml version="1.0" encoding="utf-8"?>
<!-- Generator: Adobe Illustrator 16.0.0, SVG Export Plug-In . SVG Version: 6.00 Build 0)  -->
<!DOCTYPE svg PUBLIC "-//W3C//DTD SVG 1.1//EN" "http://www.w3.org/Graphics/SVG/1.1/DTD/svg11.dtd">
<svg version="1.1" id="Layer_6" xmlns="http://www.w3.org/2000/svg" xmlns:xlink="http://www.w3.org/1999/xlink" x="0px" y="0px"
	 width="100px" height="100px" viewBox="0 0 100 100" enable-background="new 0 0 100 100" xml:space="preserve">
<path d="M70.023,44.818v-16.55c0-11.042-8.982-20.025-20.023-20.025s-20.025,8.983-20.025,20.025v16.55
	c-4.781,4.988-7.729,11.747-7.729,19.186c0,15.303,12.449,27.753,27.754,27.753c15.303,0,27.754-12.45,27.754-27.753
	C77.754,56.565,74.805,49.806,70.023,44.818z M50,14.518c7.582,0,13.75,6.168,13.75,13.75v11.644
	C59.693,37.587,55.002,36.25,50,36.25s-9.693,1.337-13.75,3.662V28.268C36.25,20.686,42.418,14.518,50,14.518z M50,85.482
	c-11.844,0-21.479-9.635-21.479-21.479c0-6.557,2.955-12.432,7.602-16.375h0.127V47.52c3.727-3.116,8.523-4.994,13.75-4.994
	s10.021,1.878,13.75,4.994v0.109h0.127c4.645,3.943,7.602,9.818,7.602,16.375C71.479,75.847,61.844,85.482,50,85.482z
	 M67.488,64.606h0.777v-1.732h-0.807c-0.084-1.275-0.303-2.513-0.645-3.7l0.742-0.241l-0.535-1.648l-0.768,0.25
	c-0.467-1.175-1.053-2.29-1.748-3.324l0.625-0.455l-1.02-1.401l-0.643,0.467c-0.799-0.969-1.703-1.848-2.689-2.627l0.443-0.612
	l-1.402-1.019l-0.453,0.625c-1.053-0.677-2.18-1.247-3.371-1.689l0.221-0.679l-1.646-0.535l-0.227,0.691
	c-1.201-0.316-2.453-0.507-3.74-0.562v-0.674h-1.734v0.683c-1.291,0.07-2.545,0.282-3.748,0.615l-0.191-0.59l-1.648,0.536
	l0.193,0.599c-1.197,0.464-2.334,1.051-3.389,1.752l-0.334-0.46l-1.402,1.019l0.342,0.469c-0.994,0.809-1.895,1.725-2.689,2.728
	l-0.426-0.308l-1.018,1.402l0.434,0.314c-0.691,1.072-1.273,2.222-1.723,3.437l-0.455-0.147l-0.535,1.648l0.471,0.153
	c-0.32,1.225-0.508,2.501-0.557,3.814h-0.459v1.732h0.479c0.08,1.312,0.305,2.584,0.654,3.804l-0.424,0.137l0.535,1.648l0.447-0.146
	c0.48,1.207,1.086,2.35,1.807,3.409l-0.363,0.266l1.018,1.401l0.393-0.284c0.824,0.989,1.758,1.883,2.777,2.671l-0.279,0.386
	l1.4,1.019l0.301-0.414c1.082,0.678,2.24,1.241,3.461,1.674l-0.156,0.483l1.646,0.536l0.17-0.521
	c1.221,0.301,2.492,0.472,3.797,0.505v0.561h0.002h1.73l0,0v-0.602c1.295-0.093,2.553-0.324,3.754-0.682l0.188,0.577l1.648-0.536
	l-0.201-0.617c1.184-0.484,2.303-1.092,3.342-1.809l0.389,0.534l1.402-1.017l-0.414-0.57c0.965-0.816,1.842-1.734,2.611-2.737
	l0.574,0.417l1.02-1.402l-0.605-0.439c0.662-1.062,1.215-2.199,1.643-3.395l0.707,0.229l0.535-1.647l-0.742-0.242
	C67.277,67.134,67.449,65.888,67.488,64.606z M49.84,74.301c-5.154,0-9.332-4.179-9.332-9.332c0-4.032,2.563-7.456,6.143-8.76
	l3.189-6.942l3.189,6.942c3.58,1.304,6.141,4.729,6.141,8.76C59.17,70.122,54.992,74.301,49.84,74.301z M56.23,64.969
	c0,3.44-2.791,6.23-6.23,6.23c-3.441,0-6.23-2.79-6.23-6.23s2.789-6.229,6.23-6.229C53.439,58.739,56.23,61.528,56.23,64.969z"/>
</svg>
