<?xml version="1.0" encoding="utf-8"?>
<!-- Generator: Adobe Illustrator 16.0.0, SVG Export Plug-In . SVG Version: 6.00 Build 0)  -->
<!DOCTYPE svg PUBLIC "-//W3C//DTD SVG 1.1//EN" "http://www.w3.org/Graphics/SVG/1.1/DTD/svg11.dtd">
<svg version="1.1" id="Layer_4" xmlns="http://www.w3.org/2000/svg" xmlns:xlink="http://www.w3.org/1999/xlink" x="0px" y="0px"
	 width="100px" height="100px" viewBox="0 0 100 100" enable-background="new 0 0 100 100" xml:space="preserve">
<path d="M67.167,67.833H33.833V73.5h33.334V67.833z M64.896,71.458h-4.563v-1.583h4.563V71.458z M49.334,25.667
	c0-1.011,0.822-1.833,1.833-1.833S53,24.656,53,25.667S52.178,27.5,51.167,27.5S49.334,26.678,49.334,25.667z M61.229,25.667
	c0-1.011,0.822-1.833,1.833-1.833s1.833,0.822,1.833,1.833S64.073,27.5,63.063,27.5S61.229,26.678,61.229,25.667z M67.167,52.937
	H33.833v5.667h33.334V52.937z M64.896,56.562h-4.563v-1.583h4.563V56.562z M26.417,15.942v66.914h47.666V15.942H26.417z
	 M63.063,20.834c2.665,0,4.833,2.168,4.833,4.833S65.728,30.5,63.063,30.5s-4.833-2.168-4.833-4.833S60.397,20.834,63.063,20.834z
	 M51.167,20.834c2.665,0,4.833,2.168,4.833,4.833S53.832,30.5,51.167,30.5s-4.833-2.168-4.833-4.833S48.502,20.834,51.167,20.834z
	 M70.167,76.5H30.833V64.833h39.334V76.5z M70.167,61.604H30.833V49.937h39.334V61.604z M70.167,46.5H30.833V34.833h39.334V46.5z
	 M67.167,37.833H33.833V43.5h33.334V37.833z M64.896,41.25h-4.563v-1.583h4.563V41.25z"/>
</svg>
