<?xml version="1.0" encoding="utf-8"?>
<!-- Generator: Adobe Illustrator 16.0.0, SVG Export Plug-In . SVG Version: 6.00 Build 0)  -->
<!DOCTYPE svg PUBLIC "-//W3C//DTD SVG 1.1//EN" "http://www.w3.org/Graphics/SVG/1.1/DTD/svg11.dtd">
<svg version="1.1" id="Layer_4" xmlns="http://www.w3.org/2000/svg" xmlns:xlink="http://www.w3.org/1999/xlink" x="0px" y="0px"
	 width="100px" height="100px" viewBox="0 0 100 100" enable-background="new 0 0 100 100" xml:space="preserve">
<path d="M17.031,62.255v-5.332h17.881v5.332H17.031z M33.344,18.965c0.951,0,1.727-0.774,1.727-1.726s-0.775-1.725-1.727-1.725
	s-1.725,0.773-1.725,1.725S32.393,18.965,33.344,18.965z M44.539,18.965c0.951,0,1.725-0.774,1.725-1.726s-0.773-1.725-1.725-1.725
	s-1.725,0.773-1.725,1.725S43.588,18.965,44.539,18.965z M34.912,48.236v-5.333H17.031v5.333H34.912z M34.912,71.061H10.053V8.088
	H54.91v30.28H34.912v1.712H14.209V51.06h20.703v3.04H14.209v10.979h20.703V71.061z M39.99,17.239c0,2.509,2.041,4.549,4.549,4.549
	s4.549-2.04,4.549-4.549c0-2.508-2.041-4.548-4.549-4.548S39.99,14.731,39.99,17.239z M28.797,17.239
	c0,2.509,2.039,4.549,4.547,4.549c2.51,0,4.549-2.04,4.549-4.549c0-2.508-2.039-4.548-4.549-4.548
	C30.836,12.691,28.797,14.731,28.797,17.239z M14.209,36.846h37.016V25.866H14.209V36.846z M17.031,28.689h31.371v5.333H17.031
	V28.689z M41.971,31.904h4.293v-1.489h-4.293V31.904z M70.27,74.071v2.386c6.584,0.217,11.336,0.825,11.336,1.545
	c0,0.901-7.436,1.631-16.605,1.631c-9.172,0-16.605-0.729-16.605-1.631c0-0.646,3.834-1.202,9.385-1.466v-2.465H38.1V40.956h51.848
	v33.115H70.27z M86.541,71.233V43.512H41.504v27.722H86.541z M33.476,75.292c-0.15-0.116-0.359-0.117-0.512-0.002
	c-0.15,0.114-0.207,0.315-0.137,0.49l2.074,5.253h-3.619c-0.787-0.04-3.373-0.307-5.129-2.03c-1.234-1.211-1.836-2.917-1.836-5.218
	H19.28c0,3.672,1.125,6.638,3.344,8.814c3.607,3.539,8.771,3.482,8.998,3.478l-0.002-0.044c0.355,0.03,0.611,0.044,0.611,0.044
	l2.67,0.008l-2.074,5.252c-0.07,0.176-0.014,0.377,0.137,0.491c0.076,0.057,0.166,0.084,0.254,0.084
	c0.092,0,0.182-0.029,0.258-0.087l10.318-7.933c0.102-0.079,0.164-0.203,0.164-0.333c0-0.131-0.063-0.253-0.164-0.334L33.476,75.292
	z"/>
</svg>
