<?xml version="1.0" encoding="utf-8"?>
<!-- Generator: Adobe Illustrator 16.0.0, SVG Export Plug-In . SVG Version: 6.00 Build 0)  -->
<!DOCTYPE svg PUBLIC "-//W3C//DTD SVG 1.1//EN" "http://www.w3.org/Graphics/SVG/1.1/DTD/svg11.dtd">
<svg version="1.1" id="Layer_4" xmlns="http://www.w3.org/2000/svg" xmlns:xlink="http://www.w3.org/1999/xlink" x="0px" y="0px"
	 width="100px" height="100px" viewBox="0 0 100 100" enable-background="new 0 0 100 100" xml:space="preserve">
<path d="M66.734,68.059H33.4v5.667h33.334V68.059z M64.463,71.684H59.9v-1.583h4.563V71.684z M48.901,25.893
	c0-1.011,0.822-1.833,1.833-1.833s1.833,0.822,1.833,1.833s-0.822,1.833-1.833,1.833S48.901,26.903,48.901,25.893z M60.797,25.893
	c0-1.011,0.822-1.833,1.833-1.833s1.833,0.822,1.833,1.833s-0.822,1.833-1.833,1.833S60.797,26.903,60.797,25.893z M66.734,53.163
	H33.4v5.667h33.334V53.163z M64.463,56.787H59.9v-1.583h4.563V56.787z M73.65,16.168H25.984v66.914H73.65V16.168z M62.63,21.06
	c2.665,0,4.833,2.168,4.833,4.833s-2.168,4.833-4.833,4.833s-4.833-2.168-4.833-4.833S59.965,21.06,62.63,21.06z M50.734,21.06
	c2.665,0,4.833,2.168,4.833,4.833s-2.168,4.833-4.833,4.833s-4.833-2.168-4.833-4.833S48.069,21.06,50.734,21.06z M69.734,76.726
	H30.4V65.059h39.334V76.726z M69.734,61.829H30.4V50.163h39.334V61.829z M69.734,46.726H30.4V35.059h39.334V46.726z M66.734,38.059
	H33.4v5.667h33.334V38.059z M64.463,41.476H59.9v-1.583h4.563V41.476z M79.294,10.625H20.706c-0.829,0-1.5,0.671-1.5,1.5v75.75
	c0,0.829,0.671,1.5,1.5,1.5h58.588c0.829,0,1.5-0.671,1.5-1.5v-75.75C80.794,11.296,80.123,10.625,79.294,10.625z M77.794,86.375
	H22.206v-72.75h55.588V86.375z"/>
</svg>
