<?xml version="1.0" encoding="utf-8"?>
<!-- Generator: Adobe Illustrator 16.0.0, SVG Export Plug-In . SVG Version: 6.00 Build 0)  -->
<!DOCTYPE svg PUBLIC "-//W3C//DTD SVG 1.1//EN" "http://www.w3.org/Graphics/SVG/1.1/DTD/svg11.dtd">
<svg version="1.1" id="Layer_4" xmlns="http://www.w3.org/2000/svg" xmlns:xlink="http://www.w3.org/1999/xlink" x="0px" y="0px"
	 width="100px" height="100px" viewBox="0 0 100 100" enable-background="new 0 0 100 100" xml:space="preserve">
<path d="M16.619,79.393h22.608V75.55H16.619V79.393z M34.593,76.935h3.094v1.074h-3.094V76.935z M27.133,46.951
	c0-0.686,0.558-1.243,1.243-1.243s1.243,0.558,1.243,1.243c0,0.685-0.558,1.243-1.243,1.243S27.133,47.636,27.133,46.951z
	 M35.201,46.951c0-0.686,0.558-1.243,1.243-1.243c0.686,0,1.243,0.558,1.243,1.243c0,0.685-0.558,1.243-1.243,1.243
	C35.759,48.194,35.201,47.636,35.201,46.951z M16.619,69.29h22.608v-3.844H16.619V69.29z M34.593,66.831h3.094v1.073h-3.094V66.831z
	 M11.589,85.739h32.33V40.355h-32.33V85.739z M36.444,43.673c1.808,0,3.278,1.471,3.278,3.278s-1.471,3.277-3.278,3.277
	s-3.277-1.47-3.277-3.277S34.636,43.673,36.444,43.673z M28.376,43.673c1.808,0,3.278,1.471,3.278,3.278s-1.47,3.277-3.278,3.277
	s-3.278-1.47-3.278-3.277S26.568,43.673,28.376,43.673z M14.584,53.168h26.678v7.913H14.584V53.168z M14.584,63.412h26.678v7.912
	H14.584V63.412z M14.584,73.516h26.678v7.912H14.584V73.516z M16.619,59.046h22.608v-3.844H16.619V59.046z M34.593,56.446h3.094
	v1.073h-3.094V56.446z M88.411,48.307c0,1.99-0.182,3.939-0.511,5.838l-0.595,2.772c-3.823,14.617-17.141,25.436-32.94,25.436
	c-2.007,0-3.971-0.185-5.884-0.52V61.551c0.899,0.375,1.62,1.019,2.43,1.657c1.19,0.938,3.001,0.17,4.391,0.217
	c3.484,0.116,4.083,3.875,4.324,6.595c0.177,1.995,2.022,3.642,1.514,5.729c-0.228,0.934-0.714,1.874-1.496,2.454
	c5.538-0.976,10.559-3.453,14.631-6.999c-1.411-3.528-5.475-5.685-5.118-10.329c0.833-7.91,9.954-4.52,15.09-7.213
	c0.312-1.74,0.483-3.527,0.483-5.355c0-11.368-6.283-21.291-15.556-26.495c0.151,0.141,0.307,0.281,0.443,0.418
	c5.981,5.98,2.76,6.44,3.681,13.342c0,2.3,4.754,1.917,4.294,6.059c-0.919,4.141-1.074,8.204-5.215,4.753
	c-4.14-3.451-6.9-0.689-8.281-1.15c-1.841-0.92-2.761-5.061-5.062-5.061c-6.44,0.46-2.3,13.342-10.122,9.662
	c-0.153-0.08-0.289-0.172-0.433-0.259V35.943h-4.349c-0.151-5.218-0.56-10.562-5.081-13.841c-5.444,3.193-9.785,8.043-12.384,13.841
	h-4.015c4.959-12.677,17.3-21.683,31.712-21.683C73.138,14.261,88.411,29.533,88.411,48.307z"/>
</svg>
