<?xml version="1.0" encoding="utf-8"?>
<!-- Generator: Adobe Illustrator 16.0.0, SVG Export Plug-In . SVG Version: 6.00 Build 0)  -->
<!DOCTYPE svg PUBLIC "-//W3C//DTD SVG 1.1//EN" "http://www.w3.org/Graphics/SVG/1.1/DTD/svg11.dtd">
<svg version="1.1" id="Layer_4" xmlns="http://www.w3.org/2000/svg" xmlns:xlink="http://www.w3.org/1999/xlink" x="0px" y="0px"
	 width="100px" height="100px" viewBox="0 0 100 100" enable-background="new 0 0 100 100" xml:space="preserve">
<path d="M17.031,62.367v-5.332h17.881v5.332H17.031z M33.344,19.077c0.951,0,1.727-0.774,1.727-1.726s-0.775-1.725-1.727-1.725
	s-1.725,0.773-1.725,1.725S32.393,19.077,33.344,19.077z M44.539,19.077c0.951,0,1.725-0.774,1.725-1.726s-0.773-1.725-1.725-1.725
	s-1.725,0.773-1.725,1.725S43.588,19.077,44.539,19.077z M34.912,48.349v-5.333H17.031v5.333H34.912z M34.912,71.173H10.053V8.2
	H54.91v30.28H34.912v1.712H14.209v10.979h20.703v3.04H14.209v10.979h20.703V71.173z M39.99,17.352c0,2.509,2.041,4.549,4.549,4.549
	s4.549-2.04,4.549-4.549c0-2.508-2.041-4.548-4.549-4.548S39.99,14.844,39.99,17.352z M28.797,17.352
	c0,2.509,2.039,4.549,4.547,4.549c2.51,0,4.549-2.04,4.549-4.549c0-2.508-2.039-4.548-4.549-4.548
	C30.836,12.804,28.797,14.844,28.797,17.352z M14.209,36.958h37.016V25.979H14.209V36.958z M17.031,28.802h31.371v5.333H17.031
	V28.802z M41.971,32.017h4.293v-1.489h-4.293V32.017z M70.27,74.184v2.386c6.584,0.217,11.336,0.825,11.336,1.545
	c0,0.901-7.436,1.631-16.605,1.631c-9.172,0-16.605-0.729-16.605-1.631c0-0.646,3.834-1.202,9.385-1.466v-2.465H38.1V41.068h51.848
	v33.115H70.27z M86.541,71.346V43.624H41.504v27.722H86.541z M66.393,36.357c0.15,0.116,0.359,0.117,0.51,0.003
	s0.207-0.315,0.137-0.49l-2.074-5.253h3.619c0.787,0.039,3.374,0.307,5.13,2.03c1.234,1.211,1.834,2.917,1.834,5.218h5.037
	c0-3.672-1.125-6.638-3.344-8.813c-3.607-3.539-8.771-3.482-8.997-3.478l0.001,0.044c-0.354-0.03-0.611-0.044-0.611-0.044
	l-2.67-0.008l2.074-5.253c0.07-0.176,0.014-0.377-0.137-0.491c-0.076-0.057-0.165-0.084-0.253-0.084
	c-0.091,0-0.181,0.028-0.257,0.087l-10.318,7.933c-0.103,0.079-0.164,0.203-0.164,0.334s0.061,0.253,0.164,0.334L66.393,36.357z
	 M35.201,75.181c-0.15-0.116-0.359-0.117-0.51-0.003s-0.207,0.315-0.137,0.49l2.074,5.253h-3.619
	c-0.787-0.039-3.374-0.307-5.13-2.03c-1.234-1.211-1.834-2.917-1.834-5.218h-5.037c0,3.672,1.125,6.638,3.344,8.813
	c3.607,3.539,8.771,3.482,8.997,3.478l-0.001-0.044c0.354,0.03,0.611,0.044,0.611,0.044l2.67,0.008l-2.074,5.253
	c-0.07,0.176-0.014,0.377,0.137,0.491c0.076,0.057,0.165,0.084,0.253,0.084c0.091,0,0.181-0.028,0.257-0.087l10.318-7.933
	c0.103-0.079,0.164-0.203,0.164-0.334s-0.061-0.253-0.164-0.334L35.201,75.181z"/>
</svg>
