<?xml version="1.0" encoding="utf-8"?>
<!-- Generator: Adobe Illustrator 16.0.4, SVG Export Plug-In . SVG Version: 6.00 Build 0)  -->
<!DOCTYPE svg PUBLIC "-//W3C//DTD SVG 1.1//EN" "http://www.w3.org/Graphics/SVG/1.1/DTD/svg11.dtd">
<svg version="1.1" id="Capa_1" xmlns="http://www.w3.org/2000/svg" xmlns:xlink="http://www.w3.org/1999/xlink" x="0px" y="0px"
	 width="100px" height="100px" viewBox="0 0 100 100" enable-background="new 0 0 100 100" xml:space="preserve">
<g id="Layer_8">
	<path d="M35.273,45.695c-3.582-8.911-2.859-19.202,2.299-27.624c6.478-4.821,17.958-4.968,24.95-1.027
		C48.632,19.183,35.273,45.695,35.273,45.695z M46.163,34.656c0,0,29.64-1.689,38.437,9.271
		c-0.084-8.027-5.951-17.895-13.363-21.094C61.359,22.577,52.09,27.098,46.163,34.656z M61.167,38.566
		c0,0,16.281,24.825,11.188,37.922c6.91-4.086,12.521-14.103,11.586-22.12C79.227,45.688,70.676,39.919,61.167,38.566z
		 M38.035,82.166c6.994,3.941,18.475,3.793,24.949-1.027c5.162-8.422,5.882-18.712,2.299-27.623
		C65.283,53.516,51.926,80.027,38.035,82.166z M54.395,64.555c0,0-29.64,1.688-38.435-9.271c0.082,8.025,5.949,17.895,13.364,21.092
		C39.197,76.633,48.47,72.113,54.395,64.555z M39.391,60.645c0,0-16.281-24.825-11.188-37.921
		c-6.909,4.084-12.522,14.101-11.586,22.12C21.331,53.521,29.882,59.292,39.391,60.645z M91.676,50
		c0,22.98-18.695,41.676-41.676,41.676C27.019,91.676,8.324,72.98,8.324,50C8.324,27.02,27.02,8.324,50,8.324
		C72.98,8.324,91.676,27.02,91.676,50z M87.828,50c0-20.859-16.969-37.829-37.828-37.829c-20.859,0-37.831,16.97-37.831,37.829
		c0,20.859,16.972,37.829,37.831,37.829C70.859,87.829,87.828,70.859,87.828,50z"/>
</g>
</svg>
