<?xml version="1.0" encoding="utf-8"?>
<!-- Generator: Adobe Illustrator 16.0.0, SVG Export Plug-In . SVG Version: 6.00 Build 0)  -->
<!DOCTYPE svg PUBLIC "-//W3C//DTD SVG 1.1//EN" "http://www.w3.org/Graphics/SVG/1.1/DTD/svg11.dtd">
<svg version="1.1" id="Layer_7" xmlns="http://www.w3.org/2000/svg" xmlns:xlink="http://www.w3.org/1999/xlink" x="0px" y="0px"
	 width="100px" height="100px" viewBox="0 0 100 100" enable-background="new 0 0 100 100" xml:space="preserve">
<path d="M81.388,14.965H71.43c-0.952,0-1.725,0.771-1.725,1.724v15.607c0-0.952-0.771-1.724-1.723-1.724h-9.959
	c-0.951,0-1.723,0.772-1.723,1.724v9.63c-0.316-0.381-0.788-0.629-1.322-0.629h-9.958c-0.952,0-1.724,0.771-1.724,1.724v12.256
	c0-0.952-0.771-1.724-1.724-1.724h-9.958c-0.952,0-1.725,0.771-1.725,1.724v9.63c-0.315-0.381-0.787-0.629-1.32-0.629h-9.959
	c-0.951,0-1.723,0.772-1.723,1.724v17.309c0,0.952,0.771,1.724,1.723,1.724L81.388,85c0.952,0,1.724-0.771,1.724-1.724V16.689
	C83.111,15.737,82.34,14.965,81.388,14.965z M27.977,82.089h-8.235V67.726h8.235V82.089z"/>
</svg>
