<?xml version="1.0" encoding="utf-8"?>
<!-- Generator: Adobe Illustrator 16.0.0, SVG Export Plug-In . SVG Version: 6.00 Build 0)  -->
<!DOCTYPE svg PUBLIC "-//W3C//DTD SVG 1.1//EN" "http://www.w3.org/Graphics/SVG/1.1/DTD/svg11.dtd">
<svg version="1.1" id="Layer_5" xmlns="http://www.w3.org/2000/svg" xmlns:xlink="http://www.w3.org/1999/xlink" x="0px" y="0px"
	 width="100px" height="100px" viewBox="0 0 100 100" enable-background="new 0 0 100 100" xml:space="preserve">
<path d="M73.267,21.611l-8.798-9.077c-0.212-0.219-0.504-0.342-0.807-0.342H27.54c-0.621,0-1.123,0.503-1.123,1.123v73.369
	c0,0.62,0.502,1.123,1.123,1.123h44.92c0.62,0,1.123-0.503,1.123-1.123V22.393C73.583,22.102,73.469,21.821,73.267,21.611z
	 M66.095,77.7c0,0.619-0.503,1.123-1.123,1.123H35.026c-0.619,0-1.123-0.504-1.123-1.123V47.755c0-0.619,0.504-1.123,1.123-1.123
	h29.945c0.62,0,1.123,0.504,1.123,1.123V77.7z M61.41,48.925H38.59c-1.475,0-2.675,1.199-2.675,2.674v22.819
	c0,1.475,1.2,2.675,2.675,2.675h22.82c1.474,0,2.674-1.2,2.674-2.675V51.599C64.084,50.124,62.884,48.925,61.41,48.925z
	 M57.234,49.994v5.794h-5.177v-5.794H57.234z M45.898,49.994h5.128v5.794h-5.128V49.994z M36.984,51.599
	c0-0.885,0.72-1.604,1.605-1.604h6.239v6.863h10.34l0.001,6.151H36.984V51.599z M43.938,76.022H38.59
	c-0.886,0-1.605-0.719-1.605-1.604v-4.546h6.953V76.022z M51.961,76.022h-6.953v-6.15h6.953V76.022z M59.984,76.022H53.03v-6.15
	h6.954V76.022z M63.014,74.418c0,0.886-0.72,1.604-1.604,1.604h-0.357v-7.221H53.03h-0.534h-7.488h-0.535h-7.488v-4.724H55.17h1.07
	h6.773V74.418z M63.014,63.009H56.24v-6.151h6.773V63.009z M63.014,55.788h-4.748v-5.794h3.145c0.884,0,1.604,0.72,1.604,1.604
	V55.788z"/>
</svg>
