<?xml version="1.0" encoding="utf-8"?>
<!-- Generator: Adobe Illustrator 16.0.0, SVG Export Plug-In . SVG Version: 6.00 Build 0)  -->
<!DOCTYPE svg PUBLIC "-//W3C//DTD SVG 1.1//EN" "http://www.w3.org/Graphics/SVG/1.1/DTD/svg11.dtd">
<svg version="1.1" id="Layer_7" xmlns="http://www.w3.org/2000/svg" xmlns:xlink="http://www.w3.org/1999/xlink" x="0px" y="0px"
	 width="100px" height="100px" viewBox="0 0 100 100" enable-background="new 0 0 100 100" xml:space="preserve">
<path d="M73.875,40.875v-20.75h-0.554v-5.949c0-1.104-0.896-2-2-2H30.984c-1.104,0-2,0.896-2,2v71.648c0,1.104,0.896,2,2,2h40.337
	c1.104,0,2-0.896,2-2V74.625h0.554v-6.5h-0.554v-27.25H73.875z M47.523,14.438h7.813v1h-7.813V14.438z M54.248,85.297
	c0,0.164-0.133,0.296-0.296,0.296h-4.295c-0.163,0-0.296-0.132-0.296-0.296v-2.835c0-0.099,0.05-0.19,0.13-0.246l2.149-1.444
	c0.101-0.066,0.23-0.066,0.331,0l2.148,1.444c0.097,0.064,0.145,0.179,0.128,0.29V85.297z M70.5,76.1c0,1.104-0.896,2-2,2H33.824
	c-1.104,0-2-0.896-2-2V19.379c0-1.104,0.896-2,2-2H68.5c1.104,0,2,0.896,2,2V76.1z"/>
</svg>
