<?xml version="1.0" encoding="utf-8"?>
<!-- Generator: Adobe Illustrator 16.0.0, SVG Export Plug-In . SVG Version: 6.00 Build 0)  -->
<!DOCTYPE svg PUBLIC "-//W3C//DTD SVG 1.1//EN" "http://www.w3.org/Graphics/SVG/1.1/DTD/svg11.dtd">
<svg version="1.1" id="Layer_7" xmlns="http://www.w3.org/2000/svg" xmlns:xlink="http://www.w3.org/1999/xlink" x="0px" y="0px"
	 width="100px" height="100px" viewBox="0 0 100 100" enable-background="new 0 0 100 100" xml:space="preserve">
<path d="M50,9.775C27.82,9.775,9.775,27.82,9.775,50S27.82,90.225,50,90.225S90.225,72.18,90.225,50S72.18,9.775,50,9.775z
	 M50,86.225c-19.974,0-36.225-16.25-36.225-36.225S30.026,13.775,50,13.775S86.225,30.025,86.225,50S69.974,86.225,50,86.225z
	 M70.354,37.869c0,3.503-2.84,6.343-6.343,6.343s-6.343-2.84-6.343-6.343s2.84-6.343,6.343-6.343S70.354,34.366,70.354,37.869z
	 M37.276,44.212c-3.503,0-6.343-2.84-6.343-6.343s2.84-6.343,6.343-6.343s6.343,2.84,6.343,6.343S40.779,44.212,37.276,44.212z
	 M61.814,62.354l2.773,1.143c-2.46,5.972-8.221,9.83-14.676,9.83c-6.259,0-11.95-3.699-14.499-9.423l2.74-1.221
	c2.067,4.644,6.684,7.644,11.759,7.644C55.146,70.327,59.818,67.197,61.814,62.354z"/>
</svg>
