<?xml version="1.0" encoding="utf-8"?>
<!-- Generator: Adobe Illustrator 16.0.0, SVG Export Plug-In . SVG Version: 6.00 Build 0)  -->
<!DOCTYPE svg PUBLIC "-//W3C//DTD SVG 1.1//EN" "http://www.w3.org/Graphics/SVG/1.1/DTD/svg11.dtd">
<svg version="1.1" id="Layer_5" xmlns="http://www.w3.org/2000/svg" xmlns:xlink="http://www.w3.org/1999/xlink" x="0px" y="0px"
	 width="100px" height="100px" viewBox="0 0 100 100" enable-background="new 0 0 100 100" xml:space="preserve">
<path d="M22.079,59.6l11.36,4.489v-47.57c0-0.503,0.409-0.909,0.91-0.91h9.105c0.503,0.001,0.91,0.407,0.91,0.909v47.571
	L55.727,59.6c0.381-0.148,0.815-0.026,1.061,0.299c0.248,0.328,0.246,0.778-0.006,1.103L39.625,83.319
	c-0.173,0.224-0.44,0.355-0.723,0.356c-0.281,0-0.549-0.132-0.721-0.356L21.023,61.001c-0.126-0.163-0.189-0.36-0.188-0.554
	c-0.001-0.19,0.06-0.385,0.182-0.55C21.264,59.572,21.698,59.45,22.079,59.6z M79.165,84.392h-3.909l-2.207-5.306h-6.644
	l-2.146,5.306h-3.82l7.396-17.768h3.9L79.165,84.392z M72.121,76.484l-1.77-4.244c-0.251-0.602-0.457-1.174-0.642-1.727
	c-0.204,0.612-0.403,1.165-0.608,1.691l-1.774,4.279H72.121z M76.735,44.958h-14.94v2.729H71.84L60.814,60.852v1.876h16.074V60
	H65.77l10.966-13.112V44.958z"/>
</svg>
