<?xml version="1.0" encoding="utf-8"?>
<!-- Generator: Adobe Illustrator 16.0.0, SVG Export Plug-In . SVG Version: 6.00 Build 0)  -->
<!DOCTYPE svg PUBLIC "-//W3C//DTD SVG 1.1//EN" "http://www.w3.org/Graphics/SVG/1.1/DTD/svg11.dtd">
<svg version="1.1" id="Layer_5" xmlns="http://www.w3.org/2000/svg" xmlns:xlink="http://www.w3.org/1999/xlink" x="0px" y="0px"
	 width="100px" height="100px" viewBox="0 0 100 100" enable-background="new 0 0 100 100" xml:space="preserve">
<path d="M58.304,40.043l-11.36-4.489v47.57c0,0.503-0.409,0.909-0.911,0.91h-9.105c-0.502-0.001-0.91-0.407-0.91-0.909V35.554
	l-11.361,4.489c-0.381,0.148-0.815,0.026-1.061-0.299c-0.248-0.328-0.246-0.778,0.005-1.103l17.157-22.318
	c0.173-0.224,0.44-0.355,0.723-0.356c0.281,0,0.549,0.132,0.721,0.356L59.36,38.642c0.126,0.163,0.189,0.36,0.188,0.554
	c0,0.19-0.06,0.385-0.182,0.55C59.119,40.07,58.685,40.192,58.304,40.043z M76.588,82.743h-3.909l-2.207-5.306h-6.644l-2.146,5.306
	h-3.82l7.397-17.768h3.901L76.588,82.743z M69.544,74.836l-1.769-4.244c-0.251-0.602-0.458-1.174-0.642-1.727
	c-0.204,0.612-0.404,1.165-0.608,1.691l-1.774,4.279H69.544z M74.159,43.833h-14.94v2.729h10.045L58.238,59.727v1.876h16.074v-2.728
	h-11.12l10.966-13.112V43.833z"/>
</svg>
