<?xml version="1.0" encoding="utf-8"?>
<!-- Generator: Adobe Illustrator 16.0.0, SVG Export Plug-In . SVG Version: 6.00 Build 0)  -->
<!DOCTYPE svg PUBLIC "-//W3C//DTD SVG 1.1//EN" "http://www.w3.org/Graphics/SVG/1.1/DTD/svg11.dtd">
<svg version="1.1" id="Layer_5" xmlns="http://www.w3.org/2000/svg" xmlns:xlink="http://www.w3.org/1999/xlink" x="0px" y="0px"
	 width="100px" height="100px" viewBox="0 0 100 100" enable-background="new 0 0 100 100" xml:space="preserve">
<path d="M60.544,60.256c0.247,0.328,0.246,0.778-0.006,1.104L43.382,83.678c-0.173,0.224-0.44,0.355-0.723,0.355
	c-0.281,0-0.549-0.132-0.722-0.355L24.78,61.359c-0.127-0.164-0.189-0.36-0.189-0.555c0-0.19,0.061-0.385,0.183-0.549
	c0.247-0.325,0.682-0.447,1.063-0.298l11.36,4.488v-47.57c0-0.503,0.408-0.909,0.91-0.909h9.105c0.502,0,0.91,0.406,0.91,0.909
	v47.57l11.361-4.488C59.864,59.809,60.298,59.931,60.544,60.256z M54.409,21.5v5.25h21V21.5H54.409z"/>
</svg>
