<?xml version="1.0" encoding="utf-8"?>
<!-- Generator: Adobe Illustrator 16.0.0, SVG Export Plug-In . SVG Version: 6.00 Build 0)  -->
<!DOCTYPE svg PUBLIC "-//W3C//DTD SVG 1.1//EN" "http://www.w3.org/Graphics/SVG/1.1/DTD/svg11.dtd">
<svg version="1.1" id="Layer_5" xmlns="http://www.w3.org/2000/svg" xmlns:xlink="http://www.w3.org/1999/xlink" x="0px" y="0px"
	 width="100px" height="100px" viewBox="0 0 100 100" enable-background="new 0 0 100 100" xml:space="preserve">
<path d="M24.04,59.958l11.359,4.488v-47.57c0-0.503,0.408-0.909,0.911-0.909h9.104c0.503,0,0.91,0.406,0.91,0.909v47.57
	l11.361-4.488c0.381-0.149,0.814-0.027,1.061,0.298c0.248,0.328,0.246,0.778-0.005,1.104L41.585,83.678
	c-0.172,0.224-0.439,0.355-0.723,0.355c-0.281,0-0.549-0.132-0.721-0.355L22.983,61.359c-0.127-0.164-0.189-0.36-0.189-0.555
	c0-0.19,0.061-0.385,0.184-0.549C23.225,59.931,23.659,59.809,24.04,59.958z M51.248,44.635h25.958v-6H51.248V44.635z
	 M51.248,33.134h25.958v-6H51.248V33.134z M51.248,15.967v6h25.958v-6H51.248z"/>
</svg>
