<?xml version="1.0" encoding="utf-8"?>
<!-- Generator: Adobe Illustrator 16.0.0, SVG Export Plug-In . SVG Version: 6.00 Build 0)  -->
<!DOCTYPE svg PUBLIC "-//W3C//DTD SVG 1.1//EN" "http://www.w3.org/Graphics/SVG/1.1/DTD/svg11.dtd">
<svg version="1.1" id="Layer_7" xmlns="http://www.w3.org/2000/svg" xmlns:xlink="http://www.w3.org/1999/xlink" x="0px" y="0px"
	 width="100px" height="100px" viewBox="0 0 100 100" enable-background="new 0 0 100 100" xml:space="preserve">
<path d="M80.35,35.746V80.13l-9.587,4.275H23.741l-4.09-4.275V35.746h8.115l-5.533-7.39l17.044-12.761l2.185,2.918l-4.008,0.225
	l1.264,22.528c-0.031,0.002-0.055,0.013-0.084,0.017h-6.722l-3.231-4.315h-8.457l5.044,5.375h4.738h20.731h20.833l1.882-0.35
	l6.151-5.025h-4.975l-2.34,4.315H46.201l11.189-17.229L75.199,35.62l0.216-0.104l-0.125,0.23H80.35z M40.12,41.282l5.079-0.285
	l11.943-18.39l3.378,2.194l-0.335-5.971l-21.258,1.192L40.12,41.282z"/>
</svg>
