<?xml version="1.0" encoding="utf-8"?>
<!-- Generator: Adobe Illustrator 16.0.4, SVG Export Plug-In . SVG Version: 6.00 Build 0)  -->
<!DOCTYPE svg PUBLIC "-//W3C//DTD SVG 1.1//EN" "http://www.w3.org/Graphics/SVG/1.1/DTD/svg11.dtd">
<svg version="1.1" id="Capa_1" xmlns="http://www.w3.org/2000/svg" xmlns:xlink="http://www.w3.org/1999/xlink" x="0px" y="0px"
	 width="100px" height="100px" viewBox="0 0 100 100" enable-background="new 0 0 100 100" xml:space="preserve">
<g id="Layer_7">
	<path d="M60.085,11.227c-0.797-0.491-1.791-0.533-2.629-0.115L26.95,26.398c-0.914,0.459-1.492,1.395-1.492,2.416v0.789H12.78
		c-1.105,0-2,0.896-2,2v34.25c0,1.104,0.895,2,2,2h12.678v1.486c0,0.977,0.527,1.877,1.379,2.355l30.506,17.133
		c0.412,0.23,0.867,0.346,1.324,0.346c0.472,0,0.942-0.124,1.364-0.369c0.826-0.484,1.337-1.373,1.337-2.332V13.527
		C61.368,12.591,60.883,11.719,60.085,11.227z M55.966,81.855L30.862,67.759V30.482l25.104-12.58V81.855z M88.783,58.104
		c0.707,0.707,0.707,1.854,0,2.561c-0.354,0.354-0.816,0.529-1.28,0.529c-0.463,0-0.927-0.176-1.28-0.529l-7.849-7.85l-7.849,7.85
		c-0.354,0.354-0.817,0.529-1.28,0.529s-0.927-0.176-1.28-0.529c-0.707-0.707-0.707-1.854,0-2.561l7.85-7.85l-7.85-7.849
		c-0.707-0.708-0.707-1.854,0-2.562c0.707-0.707,1.854-0.707,2.561,0l7.85,7.849l7.85-7.849c0.707-0.707,1.854-0.707,2.561,0
		c0.707,0.707,0.707,1.854,0,2.562l-7.85,7.849L88.783,58.104z"/>
</g>
</svg>
