<?xml version="1.0" encoding="utf-8"?>
<!-- Generator: Adobe Illustrator 16.0.0, SVG Export Plug-In . SVG Version: 6.00 Build 0)  -->
<!DOCTYPE svg PUBLIC "-//W3C//DTD SVG 1.1//EN" "http://www.w3.org/Graphics/SVG/1.1/DTD/svg11.dtd">
<svg version="1.1" id="Layer_6" xmlns="http://www.w3.org/2000/svg" xmlns:xlink="http://www.w3.org/1999/xlink" x="0px" y="0px"
	 width="100px" height="100px" viewBox="0 0 100 100" enable-background="new 0 0 100 100" xml:space="preserve">
<path d="M90.333,80.333v4H17V15.667h4v22.035c2.151-3.24,6.032-6.311,9.679-3.082c2.456,2.176,4.424,5.999,7.353,2.283
	c2.185-2.771,5.563-13.771,10.81-10.862c3.891,2.157,3.573,6.936,5.86,10.178c4.544,6.44,9.481-4.614,12.053-7.334
	c1.037-1.097,2.39-2.174,3.979-1.557c1.485,0.576,2.424,2.063,3.777,2.866c2.919,1.73,5.011,0.819,6.822-1.925
	c1.328-2.013,2.343-4.185,3.373-6.358c0.828-1.748,3.414-0.224,2.59,1.514c-0.76,1.604-1.486,3.236-2.385,4.769
	c-2.167,3.696-5.623,7.534-10.28,5.436c-1.905-0.858-3.087-2.451-4.823-3.431c-0.546-0.308-3.396,4.103-4.06,5.077
	c-2.518,3.696-6.306,7.898-11.128,4.877c-4.175-2.615-3.279-7.989-6.643-11.055c-1.776-1.619-3.531,2.78-4.17,3.964
	c-1.423,2.64-2.827,5.801-5.354,7.584c-3.064,2.162-6.089,0.379-8.241-2.152c-1.825-2.146-3.746-3.119-5.819-0.462
	c-1.66,2.126-2.751,4.733-3.279,7.367c-0.025,0.129-0.065,0.244-0.113,0.349v11.531c0.973-1.266,1.914-2.546,3.726-2.726
	c2.856-0.283,4.447,2.164,6.202,3.99c4.986,5.186,8.458-2.038,13.077-3.656c2.382-0.834,4.749-0.185,6.734,1.289
	c1.237,0.918,2.351,2.393,3.905,2.78c1.865,0.463,3.682,0.198,5.281-0.876c2.662-1.789,4.865-3.967,8.303-3.805
	c3.151,0.148,6.885,1.669,9.34-1.002c1.312-1.428,3.428,0.7,2.121,2.121c-2.356,2.565-5.309,2.626-8.563,2.176
	c-1.943-0.27-4.188-0.707-5.94,0.441c-1.279,0.837-2.439,1.869-3.746,2.66c-2.52,1.525-5.791,2.144-8.549,0.809
	c-2.176-1.053-4.566-4.654-7.256-3.953c-4.539,1.183-6.949,7.04-12.346,5.865c-3.031-0.66-4.385-2.968-6.512-4.954
	c-2.376-2.218-3.926,1.445-5.777,3.086v18.809H90.333z"/>
</svg>
