<?xml version="1.0" encoding="utf-8"?>
<!-- Generator: Adobe Illustrator 16.0.0, SVG Export Plug-In . SVG Version: 6.00 Build 0)  -->
<!DOCTYPE svg PUBLIC "-//W3C//DTD SVG 1.1//EN" "http://www.w3.org/Graphics/SVG/1.1/DTD/svg11.dtd">
<svg version="1.1" id="Layer_6" xmlns="http://www.w3.org/2000/svg" xmlns:xlink="http://www.w3.org/1999/xlink" x="0px" y="0px"
	 width="100px" height="100px" viewBox="0 0 100 100" enable-background="new 0 0 100 100" xml:space="preserve">
<path d="M45.954,83v-8.09h19.163v3.989l2.555-2.657l1.28-1.332l1.222-1.271l-1.194-1.284h-1.308v-1.407l-2.555-2.748v4.154H45.954
	v-8.389H61.18l-2.375-2.555H45.954v-8.857h10.475c0.813-1.302,2.114-2.208,3.596-2.555h-14.07v-9.581h19.163v9.415h2.555v-9.415
	H87.33v9.415h2.555v-32.48c0-1.643-1.337-2.98-2.98-2.98H13.096c-1.644,0-2.98,1.338-2.98,2.98v65.293
	c0,1.009,0.507,1.899,1.277,2.439v0.47h1.069c0.205,0.044,0.416,0.071,0.634,0.071h45.553L61.175,83H45.954z M67.672,16.928h19.232
	c0.234,0,0.426,0.191,0.426,0.426v8.588H67.672V16.928z M67.672,28.496H87.33v9.368H67.672V28.496z M45.954,16.928h19.163v9.014
	H45.954V16.928z M45.954,28.496h19.163v9.368H45.954V28.496z M21.896,83h-9.021c-0.12-0.074-0.205-0.202-0.205-0.354V74.91h9.226V83
	z M21.896,72.355H12.67v-8.389h9.226V72.355z M21.896,61.412H12.67v-8.857h9.226V61.412z M21.896,50H12.67v-9.581h9.226V50z
	 M21.896,37.864H12.67v-9.368h9.226V37.864z M43.399,83H24.45v-8.09h18.949V83z M43.399,72.355H24.45v-8.389h18.949V72.355z
	 M43.399,61.412H24.45v-8.857h18.949V61.412z M43.399,50H24.45v-9.581h18.949V50z M43.399,37.864H24.45v-9.368h18.949V37.864z
	 M43.399,25.941H24.45v-9.014h18.949V25.941z M90.413,61.38v-3.458H67.94l13.225,14.222c0.827,0.89,0.815,2.275-0.026,3.152
	L68.064,88.895h22.349v-2.087c0-1.266,1.028-2.295,2.293-2.295s2.295,1.029,2.295,2.295v4.382c0,1.265-1.03,2.294-2.295,2.294
	H62.674c-0.92,0-1.75-0.548-2.11-1.395c-0.361-0.849-0.184-1.827,0.456-2.491L76.324,73.68L60.993,57.19
	c-0.621-0.668-0.787-1.641-0.422-2.479c0.365-0.837,1.189-1.378,2.103-1.378h30.032c1.265,0,2.295,1.029,2.295,2.294v5.752
	c0,1.266-1.03,2.295-2.295,2.295S90.413,62.646,90.413,61.38z"/>
</svg>
