<?xml version="1.0" encoding="utf-8"?>
<!-- Generator: Adobe Illustrator 16.0.0, SVG Export Plug-In . SVG Version: 6.00 Build 0)  -->
<!DOCTYPE svg PUBLIC "-//W3C//DTD SVG 1.1//EN" "http://www.w3.org/Graphics/SVG/1.1/DTD/svg11.dtd">
<svg version="1.1" id="Layer_6" xmlns="http://www.w3.org/2000/svg" xmlns:xlink="http://www.w3.org/1999/xlink" x="0px" y="0px"
	 width="100px" height="100px" viewBox="0 0 100 100" enable-background="new 0 0 100 100" xml:space="preserve">
<path d="M65.117,72.355h-5.439l-0.759,0.3c-0.593,0.234-1.217,0.353-1.854,0.353c-0.869,0-1.714-0.236-2.459-0.653h-8.651v-8.389
	h7.823l1.964-2.555h-9.787v-8.857H62.55L64.514,50h-18.56v-9.581h19.163v8.796l2.555-3.323v-5.473h4.207l0.855-1.113
	c0.482-0.621,1.081-1.107,1.752-1.442h-6.814v-9.368H87.33v9.368h-8.361c0.681,0.336,1.286,0.823,1.758,1.433l0.862,1.122h5.741
	v7.469l2.555,3.323V17.354c0-1.643-1.337-2.98-2.98-2.98H13.096c-1.644,0-2.98,1.338-2.98,2.98v65.293
	c0,1.009,0.507,1.899,1.277,2.439v0.47h1.069c0.205,0.044,0.416,0.071,0.634,0.071h53.376V69.671l-1.354,0.535V72.355z
	 M67.672,16.928h19.232c0.234,0,0.426,0.191,0.426,0.426v8.588H67.672V16.928z M45.954,16.928h19.163v9.014H45.954V16.928z
	 M45.954,28.496h19.163v9.368H45.954V28.496z M21.896,83h-9.021c-0.12-0.074-0.205-0.202-0.205-0.354V74.91h9.226V83z
	 M21.896,72.355H12.67v-8.389h9.226V72.355z M21.896,61.412H12.67v-8.857h9.226V61.412z M21.896,50H12.67v-9.581h9.226V50z
	 M21.896,37.864H12.67v-9.368h9.226V37.864z M43.399,83H24.45v-8.09h18.949V83z M43.399,72.355H24.45v-8.389h18.949V72.355z
	 M43.399,61.412H24.45v-8.857h18.949V61.412z M43.399,50H24.45v-9.581h18.949V50z M43.399,37.864H24.45v-9.368h18.949V37.864z
	 M43.399,25.941H24.45v-9.014h18.949V25.941z M65.117,83H45.954v-8.09h19.163V83z M97.44,66.465c0,0.222-0.07,0.442-0.21,0.628
	c-0.281,0.374-0.782,0.515-1.217,0.342L82.99,62.291v30.15c0,0.577-0.467,1.043-1.045,1.043H71.509
	c-0.576,0-1.044-0.467-1.044-1.044v-30.15l-13.022,5.145c-0.438,0.173-0.936,0.032-1.218-0.342
	c-0.282-0.375-0.281-0.892,0.007-1.265l19.667-25.584c0.199-0.256,0.505-0.407,0.829-0.407c0.323,0,0.63,0.151,0.828,0.407
	l19.667,25.584C97.367,66.016,97.44,66.241,97.44,66.465z"/>
</svg>
