<?xml version="1.0" encoding="utf-8"?>
<!-- Generator: Adobe Illustrator 16.0.0, SVG Export Plug-In . SVG Version: 6.00 Build 0)  -->
<!DOCTYPE svg PUBLIC "-//W3C//DTD SVG 1.1//EN" "http://www.w3.org/Graphics/SVG/1.1/DTD/svg11.dtd">
<svg version="1.1" id="Layer_6" xmlns="http://www.w3.org/2000/svg" xmlns:xlink="http://www.w3.org/1999/xlink" x="0px" y="0px"
	 width="100px" height="100px" viewBox="0 0 100 100" enable-background="new 0 0 100 100" xml:space="preserve">
<path d="M45.954,40.419h19.163v4.521h2.555v-4.521H87.33v4.521h2.555V17.354c0-1.643-1.337-2.98-2.98-2.98H13.096
	c-1.644,0-2.98,1.338-2.98,2.98v65.293c0,1.009,0.507,1.899,1.277,2.439v0.47h1.069c0.205,0.044,0.416,0.071,0.634,0.071H47V83
	h-1.046v-8.09H47v-2.555h-1.046v-8.389H47v-2.555h-1.046v-8.857H47V50h-1.046V40.419z M67.672,16.928h19.232
	c0.234,0,0.426,0.191,0.426,0.426v8.588H67.672V16.928z M67.672,28.496H87.33v9.368H67.672V28.496z M45.954,16.928h19.163v9.014
	H45.954V16.928z M45.954,28.496h19.163v9.368H45.954V28.496z M21.896,83h-9.021c-0.12-0.074-0.205-0.202-0.205-0.354V74.91h9.226V83
	z M21.896,72.355H12.67v-8.389h9.226V72.355z M21.896,61.412H12.67v-8.857h9.226V61.412z M21.896,50H12.67v-9.581h9.226V50z
	 M21.896,37.864H12.67v-9.368h9.226V37.864z M43.399,83H24.45v-8.09h18.949V83z M43.399,72.355H24.45v-8.389h18.949V72.355z
	 M43.399,61.412H24.45v-8.857h18.949V61.412z M43.399,50H24.45v-9.581h18.949V50z M43.399,37.864H24.45v-9.368h18.949V37.864z
	 M43.399,25.941H24.45v-9.014h18.949V25.941z M54.961,60.279c0-1.554,1.259-2.813,2.814-2.813c1.553,0,2.813,1.259,2.813,2.813
	c0,0.778-0.316,1.482-0.827,1.992l4.46,6.982c0.369-0.146,0.768-0.232,1.189-0.232c0.847,0,1.613,0.334,2.187,0.871l5.854-4.279
	c-0.131-0.311-0.205-0.653-0.205-1.013c0-1.442,1.17-2.612,2.613-2.612c1.442,0,2.612,1.17,2.612,2.612
	c0,0.293-0.059,0.569-0.147,0.832l6.137,3.839c0.643-0.562,1.481-0.903,2.4-0.903c2.019,0,3.656,1.637,3.656,3.656
	c0,2.019-1.638,3.656-3.656,3.656c-2.019,0-3.656-1.637-3.656-3.656c0-0.661,0.178-1.279,0.484-1.814l-5.997-3.752
	c-0.472,0.466-1.119,0.755-1.833,0.755c-0.647,0-1.231-0.245-1.687-0.634l-5.864,4.286c0.197,0.417,0.316,0.879,0.316,1.371
	c0,1.776-1.439,3.215-3.215,3.215s-3.215-1.439-3.215-3.215c0-0.919,0.392-1.745,1.011-2.331l-4.466-6.993
	c-0.302,0.111-0.625,0.181-0.965,0.181C56.221,63.093,54.961,61.833,54.961,60.279z M50.837,48.64v39.987h43.806V48.64H50.837z
	 M92.833,86.819H52.646V50.448h40.188V86.819z"/>
</svg>
