<?xml version="1.0" encoding="utf-8"?>
<!-- Generator: Adobe Illustrator 16.0.0, SVG Export Plug-In . SVG Version: 6.00 Build 0)  -->
<!DOCTYPE svg PUBLIC "-//W3C//DTD SVG 1.1//EN" "http://www.w3.org/Graphics/SVG/1.1/DTD/svg11.dtd">
<svg version="1.1" id="Layer_6" xmlns="http://www.w3.org/2000/svg" xmlns:xlink="http://www.w3.org/1999/xlink" x="0px" y="0px"
	 width="100px" height="100px" viewBox="0 0 100 100" enable-background="new 0 0 100 100" xml:space="preserve">
<path d="M93.789,14.373H19.98c-1.645,0-2.98,1.338-2.98,2.98v65.293c0,1.009,0.506,1.899,1.277,2.439v0.47h1.068
	c0.205,0.044,0.416,0.071,0.635,0.071h73.809c0.217,0,0.428-0.027,0.633-0.071h0.146V85.51c1.264-0.346,2.201-1.492,2.201-2.863
	V17.354C96.77,15.711,95.432,14.373,93.789,14.373z M28.779,83h-9.02c-0.121-0.074-0.205-0.202-0.205-0.354V74.91h9.225V83z
	 M28.779,72.355h-9.225v-8.389h9.225V72.355z M28.779,61.412h-9.225v-8.857h9.225V61.412z M28.779,50h-9.225v-9.581h9.225V50z
	 M28.779,37.864h-9.225v-9.368h9.225V37.864z M50.283,83H31.334v-8.09h18.949V83z M50.283,72.355H31.334v-8.389h18.949V72.355z
	 M50.283,61.412H31.334v-8.857h18.949V61.412z M50.283,50H31.334v-9.581h18.949V50z M50.283,37.864H31.334v-9.368h18.949V37.864z
	 M50.283,25.941H31.334v-9.014h18.949V25.941z M72.002,83H52.838v-8.09h19.164V83z M72.002,72.355H52.838v-8.389h19.164V72.355z
	 M72.002,61.412H52.838v-8.857h19.164V61.412z M72.002,50H52.838v-9.581h19.164V50z M72.002,37.864H52.838v-9.368h19.164V37.864z
	 M72.002,25.941H52.838v-9.014h19.164V25.941z M94.215,82.646c0,0.151-0.086,0.279-0.205,0.354H74.557v-8.09h19.658V82.646z
	 M94.215,72.355H74.557v-8.389h19.658V72.355z M94.215,61.412H74.557v-8.857h19.658V61.412z M94.215,50H74.557v-9.581h19.658V50z
	 M94.215,37.864H74.557v-9.368h19.658V37.864z M94.215,25.941H74.557v-9.014h19.232c0.234,0,0.426,0.191,0.426,0.426V25.941z
	 M48.384,59.416H33.051v-5.333h15.333V59.416z M70.051,59.617H54.718v-5.333h15.333V59.617z M92.252,59.5H76.919v-5.333h15.333V59.5
	z"/>
</svg>
