<?xml version="1.0" encoding="utf-8"?>
<!-- Generator: Adobe Illustrator 16.0.0, SVG Export Plug-In . SVG Version: 6.00 Build 0)  -->
<!DOCTYPE svg PUBLIC "-//W3C//DTD SVG 1.1//EN" "http://www.w3.org/Graphics/SVG/1.1/DTD/svg11.dtd">
<svg version="1.1" id="Layer_6" xmlns="http://www.w3.org/2000/svg" xmlns:xlink="http://www.w3.org/1999/xlink" x="0px" y="0px"
	 width="100px" height="100px" viewBox="0 0 100 100" enable-background="new 0 0 100 100" xml:space="preserve">
<path d="M86.666,80.333v4H13.334V15.667h4v64.667H86.666z M27.047,40h9.813V23.667h7.258v22.667h10.391V35h7.836v13.333h6.34V29
	h4.076v17.667h9.969v-2H74.76V27h-8.076v19.333h-2.34V33H52.508v11.333h-6.391V21.667H34.859V38h-5.813V26h-8.764v2h6.764V40z
	 M28.082,52.333h4.076v19.333h10.727V58.333h7.836v11.333h10.391V54h7.258v16.333h9.813v-12h6.764v-2h-8.764v12h-5.813V52H59.111
	v15.667h-6.391V56.333H40.885v13.333h-6.727V50.333h-8.076V68h-7.969v2h9.969V52.333z"/>
</svg>
