<?xml version="1.0" encoding="utf-8"?>
<!-- Generator: Adobe Illustrator 16.0.0, SVG Export Plug-In . SVG Version: 6.00 Build 0)  -->
<!DOCTYPE svg PUBLIC "-//W3C//DTD SVG 1.1//EN" "http://www.w3.org/Graphics/SVG/1.1/DTD/svg11.dtd">
<svg version="1.1" id="Layer_7" xmlns="http://www.w3.org/2000/svg" xmlns:xlink="http://www.w3.org/1999/xlink" x="0px" y="0px"
	 width="100px" height="100px" viewBox="0 0 100 100" enable-background="new 0 0 100 100" xml:space="preserve">
<path d="M50,9.775C27.82,9.775,9.775,27.82,9.775,50S27.82,90.225,50,90.225S90.225,72.18,90.225,50S72.18,9.775,50,9.775z
	 M50,86.225c-19.974,0-36.225-16.25-36.225-36.225S30.026,13.775,50,13.775S86.225,30.025,86.225,50S69.974,86.225,50,86.225z
	 M70.354,37.869c0,3.503-2.84,6.343-6.343,6.343s-6.343-2.84-6.343-6.343s2.84-6.343,6.343-6.343S70.354,34.366,70.354,37.869z
	 M37.276,44.212c-3.503,0-6.343-2.84-6.343-6.343s2.84-6.343,6.343-6.343s6.343,2.84,6.343,6.343S40.779,44.212,37.276,44.212z
	 M64.487,63.456c-2.593-5.605-8.216-9.219-14.399-9.219c-6.379,0-12.075,3.772-14.583,9.626l-0.093,0.041
	c0.012,0.027,0.026,0.052,0.039,0.078c-0.012,0.029-0.027,0.057-0.039,0.085l0.1,0.041c2.593,5.605,8.216,9.219,14.399,9.219
	c6.379,0,12.075-3.772,14.583-9.626l0.093-0.041c-0.012-0.027-0.026-0.052-0.039-0.078c0.012-0.029,0.027-0.057,0.039-0.085
	L64.487,63.456z M49.912,70.327c-4.601,0-8.818-2.471-11.108-6.392c2.242-4.107,6.527-6.698,11.285-6.698
	c4.601,0,8.818,2.471,11.108,6.392C58.955,67.736,54.669,70.327,49.912,70.327z"/>
</svg>
