<?xml version="1.0" encoding="utf-8"?>
<!-- Generator: Adobe Illustrator 16.0.0, SVG Export Plug-In . SVG Version: 6.00 Build 0)  -->
<!DOCTYPE svg PUBLIC "-//W3C//DTD SVG 1.1//EN" "http://www.w3.org/Graphics/SVG/1.1/DTD/svg11.dtd">
<svg version="1.1" id="Layer_6" xmlns="http://www.w3.org/2000/svg" xmlns:xlink="http://www.w3.org/1999/xlink" x="0px" y="0px"
	 width="100px" height="100px" viewBox="0 0 100 100" enable-background="new 0 0 100 100" xml:space="preserve">
<path d="M16.621,51.268l17.156,9.043c-0.184,0.059-0.373,0.107-0.564,0.145l-9.41,1.766c-2.732,0.514-5.367-1.287-5.881-4.021
	L16.621,51.268z M96.191,59.635v-3.801h-5.039v5.082l-13.656-0.002l-6.887-6.887l-0.307,0.012l6.336-1.189l-0.201-1.072l3.217-0.604
	l0.102-21.764l-7.207,1.66l-0.186-0.998L3.781,42.951l34.482,17.104l26.307-4.939l10.838,10.838h15.773v4.637h5.039V59.635H96.191z"
	/>
</svg>
