<?xml version="1.0" encoding="utf-8"?>
<!-- Generator: Adobe Illustrator 16.0.0, SVG Export Plug-In . SVG Version: 6.00 Build 0)  -->
<!DOCTYPE svg PUBLIC "-//W3C//DTD SVG 1.1//EN" "http://www.w3.org/Graphics/SVG/1.1/DTD/svg11.dtd">
<svg version="1.1" id="Layer_4" xmlns="http://www.w3.org/2000/svg" xmlns:xlink="http://www.w3.org/1999/xlink" x="0px" y="0px"
	 width="100px" height="100px" viewBox="0 0 100 100" enable-background="new 0 0 100 100" xml:space="preserve">
<path d="M22.791,4.408c0-0.307,0.236-0.556,0.527-0.556h6.158c0.291,0,0.527,0.249,0.527,0.556c0,0.306-0.236,0.554-0.527,0.554
	h-6.158C23.027,4.962,22.791,4.714,22.791,4.408z M85.125,32.25l-0.459,0.862l0.459,0.926v10.733c0,0.374-0.289,0.678-0.646,0.678
	c-0.355,0-0.643-0.304-0.643-0.678v46.199c0,2.854-2.211,5.177-4.928,5.177H19.801c-2.717,0-4.926-2.323-4.926-5.177V10.281
	c0-2.854,2.209-5.176,4.926-5.176h59.107c2.717,0,4.928,2.322,4.928,5.176v11.073c0-0.375,0.287-0.678,0.643-0.678
	c0.357,0,0.646,0.303,0.646,0.678V32.25z M51.641,88.524c0-1.327-1.023-2.403-2.287-2.403c-1.262,0-2.287,1.076-2.287,2.403
	c0,1.328,1.025,2.403,2.287,2.403C50.617,90.928,51.641,89.853,51.641,88.524z M79.613,10.281c0-0.407-0.316-0.739-0.705-0.739
	H19.801c-0.389,0-0.705,0.332-0.705,0.739v71.445c0,0.408,0.316,0.739,0.705,0.739h59.107c0.389,0,0.705-0.331,0.705-0.739V10.281z"
	/>
</svg>
