<?xml version="1.0" encoding="utf-8"?>
<!-- Generator: Adobe Illustrator 16.0.0, SVG Export Plug-In . SVG Version: 6.00 Build 0)  -->
<!DOCTYPE svg PUBLIC "-//W3C//DTD SVG 1.1//EN" "http://www.w3.org/Graphics/SVG/1.1/DTD/svg11.dtd">
<svg version="1.1" id="Layer_5" xmlns="http://www.w3.org/2000/svg" xmlns:xlink="http://www.w3.org/1999/xlink" x="0px" y="0px"
	 width="100px" height="100px" viewBox="0 0 100 100" enable-background="new 0 0 100 100" xml:space="preserve">
<path d="M82.76,15.693H17.24c-2.137,0-3.869,1.732-3.869,3.869v60.875c0,2.139,1.732,3.869,3.869,3.869h65.52
	c2.137,0,3.869-1.73,3.869-3.869V19.563C86.629,17.426,84.896,15.693,82.76,15.693z M27.172,79.664H16.467V70.57h10.705V79.664z
	 M27.172,68.25H16.467V56.643h10.705V68.25z M27.172,54.32H16.467V43.486h10.705V54.32z M27.172,41.164H16.467v-9.479h10.705V41.164
	z M42.262,79.664H29.493V70.57h12.769V79.664z M42.262,68.25H29.493V56.643h12.769V68.25z M42.262,54.32H29.493V43.486h12.769V54.32
	z M42.262,41.164H29.493v-9.479h12.769V41.164z M56.191,79.664H44.583V70.57h11.608V79.664z M56.191,68.25H44.583V56.643h11.608
	V68.25z M56.191,54.32H44.583V43.486h11.608V54.32z M56.191,41.164H44.583v-9.479h11.608V41.164z M69.346,79.664H58.512V70.57
	h10.834V79.664z M69.346,68.25H58.512V56.643h10.834V68.25z M69.346,54.32H58.512V43.486h10.834V54.32z M69.346,41.164H58.512
	v-9.479h10.834V41.164z M83.533,79.664H71.668V70.57h11.865V79.664z M83.533,68.25H71.668V56.643h11.865V68.25z M83.533,54.32
	H71.668V43.486h11.865V54.32z M83.533,41.164H71.668v-9.479h11.865V41.164z M74.109,65.046l2.563-2.563l-2.563-2.563l0.893-0.893
	l2.563,2.563l2.563-2.563l0.893,0.893l-2.563,2.563l2.563,2.563l-0.893,0.893l-2.563-2.563l-2.563,2.563L74.109,65.046z
	 M18.069,65.046l2.563-2.563l-2.563-2.563l0.893-0.893l2.563,2.563l2.564-2.563l0.892,0.893l-2.563,2.563l2.563,2.563l-0.892,0.893
	l-2.564-2.563l-2.564,2.563L18.069,65.046z M32.348,65.046l2.563-2.563l-2.563-2.563l0.893-0.893l2.563,2.563l2.564-2.563
	l0.893,0.893l-2.564,2.563l2.564,2.563l-0.893,0.893l-2.564-2.563l-2.563,2.563L32.348,65.046z M47.098,65.046l2.563-2.563
	l-2.563-2.563l0.893-0.893l2.563,2.563l2.564-2.563l0.893,0.893l-2.564,2.563l2.564,2.563l-0.893,0.893l-2.564-2.563l-2.563,2.563
	L47.098,65.046z M60.546,65.046l2.563-2.563l-2.563-2.563l0.893-0.893l2.563,2.563l2.564-2.563l0.892,0.893l-2.563,2.563
	l2.563,2.563l-0.892,0.893l-2.564-2.563l-2.564,2.563L60.546,65.046z"/>
</svg>
