<?xml version="1.0" encoding="utf-8"?>
<!-- Generator: Adobe Illustrator 16.0.0, SVG Export Plug-In . SVG Version: 6.00 Build 0)  -->
<!DOCTYPE svg PUBLIC "-//W3C//DTD SVG 1.1//EN" "http://www.w3.org/Graphics/SVG/1.1/DTD/svg11.dtd">
<svg version="1.1" id="Layer_5" xmlns="http://www.w3.org/2000/svg" xmlns:xlink="http://www.w3.org/1999/xlink" x="0px" y="0px"
	 width="100px" height="100px" viewBox="0 0 100 100" enable-background="new 0 0 100 100" xml:space="preserve">
<path d="M84.008,15.693h-65.52c-2.137,0-3.869,1.732-3.869,3.869v60.875c0,2.139,1.732,3.869,3.869,3.869h65.52
	c2.137,0,3.869-1.73,3.869-3.869V19.563C87.877,17.426,86.145,15.693,84.008,15.693z M28.419,79.664H17.714V70.57h10.705V79.664z
	 M28.419,68.25H17.714V56.643h10.705V68.25z M28.419,54.32H17.714V43.486h10.705V54.32z M28.419,41.164H17.714v-9.479h10.705V41.164
	z M43.51,79.664H30.741V70.57H43.51V79.664z M43.51,68.25H30.741V56.643H43.51V68.25z M43.51,54.32H30.741V43.486H43.51V54.32z
	 M43.51,41.164H30.741v-9.479H43.51V41.164z M57.439,79.664H45.831V70.57h11.608V79.664z M57.439,68.25H45.831V56.643h11.608V68.25z
	 M57.439,54.32H45.831V43.486h11.608V54.32z M57.439,41.164H45.831v-9.479h11.608V41.164z M70.594,79.664H59.76V70.57h10.834V79.664
	z M70.594,68.25H59.76V56.643h10.834V68.25z M70.594,54.32H59.76V43.486h10.834V54.32z M70.594,41.164H59.76v-9.479h10.834V41.164z
	 M84.782,79.664H72.916V70.57h11.866V79.664z M84.782,68.25H72.916V56.643h11.866V68.25z M84.782,54.32H72.916V43.486h11.866V54.32z
	 M84.782,41.164H72.916v-9.479h11.866V41.164z M19.317,38.751l2.563-2.563l-2.563-2.563l0.893-0.893l2.563,2.563l2.564-2.563
	l0.892,0.893l-2.563,2.563l2.563,2.563l-0.892,0.893l-2.564-2.563l-2.564,2.563L19.317,38.751z M33.595,38.751l2.563-2.563
	l-2.563-2.563l0.893-0.893l2.563,2.563l2.564-2.563l0.892,0.893l-2.563,2.563l2.563,2.563l-0.892,0.893l-2.564-2.563l-2.564,2.563
	L33.595,38.751z M48.345,38.751l2.563-2.563l-2.563-2.563l0.893-0.893l2.563,2.563l2.564-2.563l0.892,0.893l-2.563,2.563
	l2.563,2.563l-0.892,0.893l-2.564-2.563l-2.564,2.563L48.345,38.751z M61.794,38.751l2.563-2.563l-2.563-2.563l0.893-0.893
	l2.563,2.563l2.564-2.563l0.892,0.893l-2.563,2.563l2.563,2.563l-0.892,0.893L65.25,37.08l-2.564,2.563L61.794,38.751z
	 M75.357,38.751l2.563-2.563l-2.563-2.563l0.893-0.893l2.563,2.563l2.564-2.563l0.892,0.893l-2.563,2.563l2.563,2.563l-0.892,0.893
	l-2.564-2.563l-2.564,2.563L75.357,38.751z M19.317,51.584l2.563-2.563l-2.563-2.563l0.893-0.893l2.563,2.563l2.564-2.563
	l0.892,0.893l-2.563,2.563l2.563,2.563l-0.892,0.893l-2.564-2.563l-2.564,2.563L19.317,51.584z M33.595,51.584l2.563-2.563
	l-2.563-2.563l0.893-0.893l2.563,2.563l2.564-2.563l0.892,0.893l-2.563,2.563l2.563,2.563l-0.892,0.893l-2.564-2.563l-2.564,2.563
	L33.595,51.584z M48.345,51.584l2.563-2.563l-2.563-2.563l0.893-0.893l2.563,2.563l2.564-2.563l0.892,0.893l-2.563,2.563
	l2.563,2.563l-0.892,0.893l-2.564-2.563l-2.564,2.563L48.345,51.584z M61.794,51.584l2.563-2.563l-2.563-2.563l0.893-0.893
	l2.563,2.563l2.564-2.563l0.892,0.893l-2.563,2.563l2.563,2.563l-0.892,0.893l-2.564-2.563l-2.564,2.563L61.794,51.584z
	 M75.357,51.584l2.563-2.563l-2.563-2.563l0.893-0.893l2.563,2.563l2.564-2.563l0.892,0.893l-2.563,2.563l2.563,2.563l-0.892,0.893
	l-2.564-2.563l-2.564,2.563L75.357,51.584z M19.317,65.046l2.563-2.563l-2.563-2.563l0.893-0.893l2.563,2.563l2.564-2.563
	l0.892,0.893l-2.563,2.563l2.563,2.563l-0.892,0.893l-2.564-2.563l-2.564,2.563L19.317,65.046z M33.595,65.046l2.563-2.563
	l-2.563-2.563l0.893-0.893l2.563,2.563l2.564-2.563l0.892,0.893l-2.563,2.563l2.563,2.563l-0.892,0.893l-2.564-2.563l-2.564,2.563
	L33.595,65.046z M48.345,65.046l2.563-2.563l-2.563-2.563l0.893-0.893l2.563,2.563l2.564-2.563l0.892,0.893l-2.563,2.563
	l2.563,2.563l-0.892,0.893l-2.564-2.563l-2.564,2.563L48.345,65.046z M61.794,65.046l2.563-2.563l-2.563-2.563l0.893-0.893
	l2.563,2.563l2.564-2.563l0.892,0.893l-2.563,2.563l2.563,2.563l-0.892,0.893l-2.564-2.563l-2.564,2.563L61.794,65.046z
	 M75.357,65.046l2.563-2.563l-2.563-2.563l0.893-0.893l2.563,2.563l2.564-2.563l0.892,0.893l-2.563,2.563l2.563,2.563l-0.892,0.893
	l-2.564-2.563l-2.564,2.563L75.357,65.046z M19.317,77.63l2.563-2.563l-2.563-2.563l0.893-0.893l2.563,2.563l2.564-2.563
	l0.892,0.893l-2.563,2.563l2.563,2.563l-0.892,0.893l-2.564-2.563l-2.564,2.563L19.317,77.63z M33.595,77.63l2.563-2.563
	l-2.563-2.563l0.893-0.893l2.563,2.563l2.564-2.563l0.892,0.893l-2.563,2.563l2.563,2.563l-0.892,0.893l-2.564-2.563l-2.564,2.563
	L33.595,77.63z M48.345,77.63l2.563-2.563l-2.563-2.563l0.893-0.893l2.563,2.563l2.564-2.563l0.892,0.893l-2.563,2.563l2.563,2.563
	l-0.892,0.893l-2.564-2.563l-2.564,2.563L48.345,77.63z M61.794,77.63l2.563-2.563l-2.563-2.563l0.893-0.893l2.563,2.563
	l2.564-2.563l0.892,0.893l-2.563,2.563l2.563,2.563l-0.892,0.893l-2.564-2.563l-2.564,2.563L61.794,77.63z M75.357,77.63
	l2.563-2.563l-2.563-2.563l0.893-0.893l2.563,2.563l2.564-2.563l0.892,0.893l-2.563,2.563l2.563,2.563l-0.892,0.893l-2.564-2.563
	l-2.564,2.563L75.357,77.63z"/>
</svg>
