<?xml version="1.0" encoding="utf-8"?>
<!-- Generator: Adobe Illustrator 16.0.0, SVG Export Plug-In . SVG Version: 6.00 Build 0)  -->
<!DOCTYPE svg PUBLIC "-//W3C//DTD SVG 1.1//EN" "http://www.w3.org/Graphics/SVG/1.1/DTD/svg11.dtd">
<svg version="1.1" id="Layer_5" xmlns="http://www.w3.org/2000/svg" xmlns:xlink="http://www.w3.org/1999/xlink" x="0px" y="0px"
	 width="100px" height="100px" viewBox="0 0 100 100" enable-background="new 0 0 100 100" xml:space="preserve">
<path d="M82.76,15.693H17.24c-2.137,0-3.869,1.732-3.869,3.869v60.875c0,2.139,1.732,3.869,3.869,3.869h65.52
	c2.137,0,3.869-1.73,3.869-3.869V19.563C86.629,17.426,84.896,15.693,82.76,15.693z M27.171,79.664H16.466V70.57h10.705V79.664z
	 M27.171,68.25H16.466V56.643h10.705V68.25z M27.171,54.32H16.466V43.486h10.705V54.32z M27.171,41.164H16.466v-9.479h10.705V41.164
	z M42.262,79.664H29.493V70.57h12.769V79.664z M42.262,68.25H29.493V56.643h12.769V68.25z M42.262,54.32H29.493V43.486h12.769V54.32
	z M42.262,41.164H29.493v-9.479h12.769V41.164z M56.191,79.664H44.583V70.57h11.608V79.664z M56.191,68.25H44.583V56.643h11.608
	V68.25z M56.191,54.32H44.583V43.486h11.608V54.32z M56.191,41.164H44.583v-9.479h11.608V41.164z M69.346,79.664H58.512V70.57
	h10.834V79.664z M69.346,68.25H58.512V56.643h10.834V68.25z M69.346,54.32H58.512V43.486h10.834V54.32z M69.346,41.164H58.512
	v-9.479h10.834V41.164z M83.534,79.664H71.667V70.57h11.866V79.664z M83.534,68.25H71.667V56.643h11.866V68.25z M83.534,54.32
	H71.667V43.486h11.866V54.32z M83.534,41.164H71.667v-9.479h11.866V41.164z"/>
</svg>
