<?xml version="1.0" encoding="utf-8"?>
<!-- Generator: Adobe Illustrator 16.0.0, SVG Export Plug-In . SVG Version: 6.00 Build 0)  -->
<!DOCTYPE svg PUBLIC "-//W3C//DTD SVG 1.1//EN" "http://www.w3.org/Graphics/SVG/1.1/DTD/svg11.dtd">
<svg version="1.1" id="Layer_5" xmlns="http://www.w3.org/2000/svg" xmlns:xlink="http://www.w3.org/1999/xlink" x="0px" y="0px"
	 width="100px" height="100px" viewBox="0 0 100 100" enable-background="new 0 0 100 100" xml:space="preserve">
<path d="M81.341,15.693h-65.52c-2.137,0-3.869,1.732-3.869,3.869v60.875c0,2.139,1.732,3.869,3.869,3.869h65.52
	c2.137,0,3.869-1.73,3.869-3.869V19.563C85.21,17.426,83.478,15.693,81.341,15.693z M25.753,79.664H15.048V70.57h10.705V79.664z
	 M25.753,68.25H15.048V56.643h10.705V68.25z M25.753,54.32H15.048V43.486h10.705V54.32z M25.753,41.164H15.048v-9.479h10.705V41.164
	z M40.843,79.664H28.074V70.57h12.769V79.664z M40.843,68.25H28.074V56.643h12.769V68.25z M40.843,54.32H28.074V43.486h12.769V54.32
	z M40.843,41.164H28.074v-9.479h12.769V41.164z M54.772,79.664H43.164V70.57h11.608V79.664z M54.772,68.25H43.164V56.643h11.608
	V68.25z M54.772,54.32H43.164V43.486h11.608V54.32z M54.772,41.164H43.164v-9.479h11.608V41.164z M67.927,79.664H57.093V70.57
	h10.834V79.664z M67.927,68.25H57.093V56.643h10.834V68.25z M67.927,54.32H57.093V43.486h10.834V54.32z M67.927,41.164H57.093
	v-9.479h10.834V41.164z M82.114,79.664H70.249V70.57h11.865V79.664z M82.114,68.25H70.249V56.643h11.865V68.25z M82.114,54.32
	H70.249V43.486h11.865V54.32z M82.114,41.164H70.249v-9.479h11.865V41.164z M30.929,51.584l2.563-2.563l-2.563-2.563l0.893-0.893
	l2.563,2.563l2.564-2.563l0.893,0.893l-2.564,2.563l2.564,2.563l-0.893,0.893l-2.564-2.563l-2.563,2.563L30.929,51.584z
	 M30.929,65.171l2.563-2.563l-2.563-2.563l0.893-0.893l2.563,2.563l2.564-2.563l0.893,0.893l-2.564,2.563l2.564,2.563l-0.893,0.893
	L34.384,63.5l-2.563,2.563L30.929,65.171z M30.929,77.546l2.563-2.563l-2.563-2.563l0.893-0.893l2.563,2.563l2.564-2.563
	l0.893,0.893l-2.564,2.563l2.564,2.563l-0.893,0.893l-2.564-2.563l-2.563,2.563L30.929,77.546z M30.929,38.956l2.563-2.563
	l-2.563-2.563l0.893-0.893l2.563,2.563l2.564-2.563l0.893,0.893l-2.564,2.563l2.564,2.563l-0.893,0.893l-2.564-2.563l-2.563,2.563
	L30.929,38.956z"/>
</svg>
