<?xml version="1.0" encoding="utf-8"?>
<!-- Generator: Adobe Illustrator 16.0.0, SVG Export Plug-In . SVG Version: 6.00 Build 0)  -->
<!DOCTYPE svg PUBLIC "-//W3C//DTD SVG 1.1//EN" "http://www.w3.org/Graphics/SVG/1.1/DTD/svg11.dtd">
<svg version="1.1" id="Layer_5" xmlns="http://www.w3.org/2000/svg" xmlns:xlink="http://www.w3.org/1999/xlink" x="0px" y="0px"
	 width="100px" height="100px" viewBox="0 0 100 100" enable-background="new 0 0 100 100" xml:space="preserve">
<path d="M71.525,28.37H9.834c-2.012,0-3.644,1.63-3.644,3.643v57.318c0,2.013,1.631,3.644,3.644,3.644h61.69
	c2.012,0,3.643-1.631,3.643-3.644V32.013C75.168,30,73.537,28.37,71.525,28.37z M19.185,88.604H9.106v-8.563h10.079V88.604z
	 M19.185,77.854H9.106v-10.93h10.079V77.854z M19.185,64.739H9.106V54.538h10.079V64.739z M19.185,52.353H9.106v-8.924h10.079
	V52.353z M33.394,88.604H21.371v-8.563h12.022V88.604z M33.394,77.854H21.371v-10.93h12.022V77.854z M33.394,64.739H21.371V54.538
	h12.022V64.739z M33.394,52.353H21.371v-8.924h12.022V52.353z M46.509,88.604h-10.93v-8.563h10.93V88.604z M46.509,77.854h-10.93
	v-10.93h10.93V77.854z M46.509,64.739h-10.93V54.538h10.93V64.739z M46.509,52.353h-10.93v-8.924h10.93V52.353z M58.895,88.604
	H48.694v-8.563h10.201V88.604z M58.895,77.854H48.694v-10.93h10.201V77.854z M58.895,64.739H48.694V54.538h10.201V64.739z
	 M58.895,52.353H48.694v-8.924h10.201V52.353z M72.254,88.604H61.082v-8.563h11.172V88.604z M72.254,77.854H61.082v-10.93h11.172
	V77.854z M72.254,64.739H61.082V54.538h11.172V64.739z M72.254,52.353H61.082v-8.924h11.172V52.353z M90.166,7.025H28.475
	c-2.012,0-3.643,1.63-3.643,3.644v15.697h2.915v-4.283h10.079v4.283h2.187v-4.283h12.021v4.283h2.187v-4.283h10.93v4.283h2.186
	v-4.283h10.201v8.926h-0.408c0.186,0.605,0.287,1.248,0.287,1.914v0.271h0.121v10.201h-0.121v2.186h0.121v10.93h-0.121v2.186h0.121
	v8.562h-0.121v4.372h12.751c2.012,0,3.643-1.631,3.643-3.643V10.669C93.809,8.655,92.178,7.025,90.166,7.025z M90.895,67.258H79.722
	v-8.562h11.172V67.258z M90.895,56.511H79.722v-10.93h11.172V56.511z M90.895,43.396H79.722V33.194h11.172V43.396z M90.895,31.009
	H79.722v-8.926h11.172V31.009z"/>
</svg>
