<?xml version="1.0" encoding="utf-8"?>
<!-- Generator: Adobe Illustrator 16.0.4, SVG Export Plug-In . SVG Version: 6.00 Build 0)  -->
<!DOCTYPE svg PUBLIC "-//W3C//DTD SVG 1.1//EN" "http://www.w3.org/Graphics/SVG/1.1/DTD/svg11.dtd">
<svg version="1.1" id="Capa_1" xmlns="http://www.w3.org/2000/svg" xmlns:xlink="http://www.w3.org/1999/xlink" x="0px" y="0px"
	 width="100px" height="100px" viewBox="0 0 100 100" enable-background="new 0 0 100 100" xml:space="preserve">
<g id="Layer_8">
	<path d="M82.659,35.763H53.325L69.732,18.36c0.31,0.178,0.668,0.282,1.05,0.282c1.161,0,2.103-0.941,2.103-2.103
		s-0.941-2.103-2.103-2.103c-1.162,0-2.103,0.941-2.103,2.103c0,0.427,0.127,0.823,0.346,1.155l-16.53,17.535L32.622,16.492
		c0.178-0.309,0.282-0.667,0.282-1.049c0-1.161-0.941-2.103-2.102-2.103c-1.162,0-2.103,0.941-2.103,2.103
		c0,1.16,0.941,2.102,2.103,2.102c0.426,0,0.823-0.128,1.155-0.347l19.689,18.564H17.341c-2.342,0-4.241,1.898-4.241,4.241v42.414
		c0,2.342,1.899,4.241,4.241,4.241h65.318c2.342,0,4.241-1.899,4.241-4.241V40.004C86.9,37.661,85.001,35.763,82.659,35.763z
		 M61.098,78.459c0,2.456-1.998,4.454-4.453,4.454H21.583c-2.456,0-4.454-1.998-4.454-4.454V43.68c0-2.455,1.998-4.453,4.454-4.453
		h35.062c2.457,0,4.455,1.998,4.455,4.453v34.779H61.098z M74.389,79.59c-4.451,0-8.06-3.607-8.06-8.059s3.608-8.059,8.06-8.059
		c4.45,0,8.059,3.607,8.059,8.059S78.839,79.59,74.389,79.59z M82.701,59.797H64.322V39.721h18.379V59.797z M75.449,43.75
		c0-1.288,1.044-2.333,2.333-2.333h0.849c1.288,0,2.333,1.045,2.333,2.333s-1.044,2.333-2.333,2.333h-0.849
		C76.493,46.083,75.449,45.038,75.449,43.75z M75.449,49.604c0-1.288,1.044-2.333,2.333-2.333h0.849
		c1.288,0,2.333,1.045,2.333,2.333c0,1.289-1.044,2.333-2.333,2.333h-0.849C76.493,51.938,75.449,50.893,75.449,49.604z
		 M75.449,55.419c0-1.288,1.044-2.332,2.333-2.332h0.849c1.288,0,2.333,1.044,2.333,2.332c0,1.289-1.044,2.333-2.333,2.333h-0.849
		C76.493,57.752,75.449,56.708,75.449,55.419z M78.206,71.248c0,2.068-1.677,3.747-3.747,3.747s-3.746-1.679-3.746-3.747
		s1.678-3.746,3.746-3.746S78.206,69.18,78.206,71.248z"/>
</g>
</svg>
