<?xml version="1.0" encoding="utf-8"?>
<!-- Generator: Adobe Illustrator 16.0.0, SVG Export Plug-In . SVG Version: 6.00 Build 0)  -->
<!DOCTYPE svg PUBLIC "-//W3C//DTD SVG 1.1//EN" "http://www.w3.org/Graphics/SVG/1.1/DTD/svg11.dtd">
<svg version="1.1" id="Layer_7" xmlns="http://www.w3.org/2000/svg" xmlns:xlink="http://www.w3.org/1999/xlink" x="0px" y="0px"
	 width="100px" height="100px" viewBox="0 0 100 100" enable-background="new 0 0 100 100" xml:space="preserve">
<path d="M79.667,17H20.333c-1.104,0-2,0.896-2,2v62c0,1.104,0.896,2,2,2h59.334c1.104,0,2-0.896,2-2V19
	C81.667,17.896,80.771,17,79.667,17z M37.083,40.578c0,0.849-0.608,1.553-1.412,1.705v15.434c0.804,0.153,1.412,0.856,1.412,1.705
	v18.571c0,0.96-0.778,1.738-1.737,1.738h-9.774c-0.96,0-1.738-0.778-1.738-1.738V59.422c0-0.849,0.608-1.552,1.412-1.705V42.283
	c-0.804-0.152-1.412-0.856-1.412-1.705V22.007c0-0.96,0.778-1.737,1.738-1.737h9.774c0.959,0,1.737,0.777,1.737,1.737V40.578z
	 M43,36.001V21.667c0-1.104,0.896-2,2-2h30c1.104,0,2,0.896,2,2v14.334c0,1.104-0.896,2-2,2H45C43.896,38.001,43,37.105,43,36.001z
	 M43.833,44.125V42.75c0-1.104,0.896-2,2-2h12.25c1.104,0,2,0.896,2,2v1.375c0,1.104-0.896,2-2,2h-12.25
	C44.729,46.125,43.833,45.229,43.833,44.125z M53.055,78.241c0,0.611-0.495,1.107-1.107,1.107h-6.229
	c-0.611,0-1.107-0.496-1.107-1.107v-6.229c0-0.612,0.496-1.107,1.107-1.107h6.229c0.612,0,1.107,0.495,1.107,1.107V78.241z
	 M53.055,67.866c0,0.611-0.495,1.107-1.107,1.107h-6.229c-0.611,0-1.107-0.496-1.107-1.107v-6.229c0-0.612,0.496-1.107,1.107-1.107
	h6.229c0.612,0,1.107,0.495,1.107,1.107V67.866z M53.055,57.866c0,0.611-0.495,1.107-1.107,1.107h-6.229
	c-0.611,0-1.107-0.496-1.107-1.107v-6.229c0-0.612,0.496-1.107,1.107-1.107h6.229c0.612,0,1.107,0.495,1.107,1.107V57.866z
	 M63.805,78.241c0,0.611-0.495,1.107-1.107,1.107h-6.229c-0.611,0-1.107-0.496-1.107-1.107v-6.229c0-0.612,0.496-1.107,1.107-1.107
	h6.229c0.612,0,1.107,0.495,1.107,1.107V78.241z M63.805,67.866c0,0.611-0.495,1.107-1.107,1.107h-6.229
	c-0.611,0-1.107-0.496-1.107-1.107v-6.229c0-0.612,0.496-1.107,1.107-1.107h6.229c0.612,0,1.107,0.495,1.107,1.107V67.866z
	 M63.805,57.866c0,0.611-0.495,1.107-1.107,1.107h-6.229c-0.611,0-1.107-0.496-1.107-1.107v-6.229c0-0.612,0.496-1.107,1.107-1.107
	h6.229c0.612,0,1.107,0.495,1.107,1.107V57.866z M74.18,78.241c0,0.611-0.495,1.107-1.107,1.107h-6.229
	c-0.611,0-1.107-0.496-1.107-1.107v-6.229c0-0.612,0.496-1.107,1.107-1.107h6.229c0.612,0,1.107,0.495,1.107,1.107V78.241z
	 M74.18,67.866c0,0.611-0.495,1.107-1.107,1.107h-6.229c-0.611,0-1.107-0.496-1.107-1.107v-6.229c0-0.612,0.496-1.107,1.107-1.107
	h6.229c0.612,0,1.107,0.495,1.107,1.107V67.866z M74.18,57.866c0,0.611-0.495,1.107-1.107,1.107h-6.229
	c-0.611,0-1.107-0.496-1.107-1.107v-6.229c0-0.612,0.496-1.107,1.107-1.107h6.229c0.612,0,1.107,0.495,1.107,1.107V57.866z
	 M77.708,44.125c0,1.104-0.896,2-2,2h-12.25c-1.104,0-2-0.896-2-2V42.75c0-1.104,0.896-2,2-2h12.25c1.104,0,2,0.896,2,2V44.125z"/>
</svg>
