<?xml version="1.0" encoding="utf-8"?>
<!-- Generator: Adobe Illustrator 16.0.0, SVG Export Plug-In . SVG Version: 6.00 Build 0)  -->
<!DOCTYPE svg PUBLIC "-//W3C//DTD SVG 1.1//EN" "http://www.w3.org/Graphics/SVG/1.1/DTD/svg11.dtd">
<svg version="1.1" id="Layer_7" xmlns="http://www.w3.org/2000/svg" xmlns:xlink="http://www.w3.org/1999/xlink" x="0px" y="0px"
	 width="100px" height="100px" viewBox="0 0 100 100" enable-background="new 0 0 100 100" xml:space="preserve">
<path d="M71.829,23.338C70.778,12.529,61.359,4.043,49.93,4.043c-11.458,0-20.894,8.527-21.905,19.375
	c-1.054,0.604-1.774,1.727-1.774,3.027v66.012c0,1.93,1.57,3.5,3.5,3.5h40.5c1.93,0,3.5-1.57,3.5-3.5V26.445
	C73.75,25.086,72.963,23.918,71.829,23.338z M70.75,92.457c0,0.275-0.225,0.5-0.5,0.5h-40.5c-0.275,0-0.5-0.225-0.5-0.5V26.445
	c0-0.275,0.225-0.5,0.5-0.5h40.5c0.275,0,0.5,0.225,0.5,0.5V92.457z M49.999,36.725c-10.734,0-19.437,8.701-19.437,19.438
	c0,10.734,8.702,19.436,19.437,19.436c10.735,0,19.438-8.701,19.438-19.436C69.437,45.426,60.734,36.725,49.999,36.725z
	 M61.337,67.26c-0.697,1.055-5.826,7.771-16.529-4.91c-11.283-13.371-6.183-18.102-3.872-19.406v-0.002
	c0.037-0.021,0.074-0.039,0.111-0.057c0.065-0.037,0.126-0.068,0.187-0.098c0.025-0.014,0.051-0.027,0.078-0.039
	c0.328-0.158,0.542-0.223,0.542-0.223s0,0.008,0,0.018c1.579-0.496,3.179-0.053,3.653,1.326l0.93,3.15
	c0.567,1.645-0.507,3.85-2.397,4.924l-0.152,0.09c1.535,3.527,4.22,7.473,8.905,10.768l0.273-0.309
	c1.441-1.629,3.818-2.225,5.311-1.332l2.648,1.756C62.479,63.785,62.672,65.652,61.337,67.26z"/>
</svg>
