<?xml version="1.0" encoding="utf-8"?>
<!-- Generator: Adobe Illustrator 16.0.4, SVG Export Plug-In . SVG Version: 6.00 Build 0)  -->
<!DOCTYPE svg PUBLIC "-//W3C//DTD SVG 1.1//EN" "http://www.w3.org/Graphics/SVG/1.1/DTD/svg11.dtd">
<svg version="1.1" id="Capa_1" xmlns="http://www.w3.org/2000/svg" xmlns:xlink="http://www.w3.org/1999/xlink" x="0px" y="0px"
	 width="100px" height="100px" viewBox="0 0 100 100" enable-background="new 0 0 100 100" xml:space="preserve">
<g id="Layer_7">
	<path d="M78.471,11.837h-4.097c-0.106-0.775-0.824-1.377-1.702-1.377H22.285c-0.952,0-1.722,0.703-1.722,1.572V87.87
		c0,0.866,0.771,1.569,1.722,1.569h50.388c0.878,0,1.595-0.602,1.702-1.377h4.098c1.305,0,2.366-1.188,2.366-2.647v-70.93
		C80.838,13.026,79.777,11.837,78.471,11.837z M61.016,64.52H37.229c-1.022,0-1.852-0.828-1.852-1.852
		c0-0.689,0.381-1.282,0.939-1.604v-7.381c0-3.175,1.944-5.894,4.706-7.036v-3.685c0-1.295,1.051-2.346,2.347-2.346
		c1.297,0,2.347,1.051,2.347,2.346c0,0,0.33,3.108,3.458,3.108c3.127,0,2.885-3.108,2.885-3.108c0-1.295,1.051-2.346,2.349-2.346
		c1.295,0,2.347,1.051,2.347,2.346v3.556c2.948,1.05,5.062,3.856,5.062,7.165v7.319c0.619,0.3,1.052,0.929,1.052,1.664
		C62.867,63.689,62.038,64.52,61.016,64.52z M66.482,42.109c-0.01,0.043-0.02,0.083-0.026,0.125
		c-0.015,0.075-0.029,0.145-0.044,0.212c-0.008,0.027-0.014,0.058-0.02,0.087c-0.088,0.364-0.174,0.576-0.174,0.576
		s-0.006-0.005-0.014-0.011c-0.628,1.579-2.018,2.569-3.424,2.055l-3.114-1.297c-1.679-0.613-2.742-2.896-2.376-5.101l0.029-0.179
		c-3.809-1.06-11.407-1.472-17.069,0.13l0.068,0.419c0.367,2.204-0.698,4.486-2.375,5.099L34.828,45.2
		c-1.637,0.598-3.25-0.457-3.669-2.563c-0.39-1.238-0.617-9.678,16.429-10.005c17.971-0.345,19.346,6.787,18.891,9.475
		L66.482,42.109z M78.48,85.415c0,0.151-0.049,0.248-0.082,0.291h-4.004V14.194H78.4c0.031,0.043,0.082,0.141,0.082,0.291v70.93
		H78.48z M49.065,49.515c-2.287,0-4.141,1.854-4.141,4.142c0,2.286,1.854,4.141,4.141,4.141c2.287,0,4.142-1.854,4.142-4.141
		C53.208,51.368,51.352,49.515,49.065,49.515z M49.019,55.852c-1.228,0-2.222-0.994-2.222-2.222s0.995-2.223,2.222-2.223
		s2.223,0.995,2.223,2.223S50.246,55.852,49.019,55.852z"/>
</g>
</svg>
