<?xml version="1.0" encoding="utf-8"?>
<!-- Generator: Adobe Illustrator 16.0.0, SVG Export Plug-In . SVG Version: 6.00 Build 0)  -->
<!DOCTYPE svg PUBLIC "-//W3C//DTD SVG 1.1//EN" "http://www.w3.org/Graphics/SVG/1.1/DTD/svg11.dtd">
<svg version="1.1" id="Layer_5" xmlns="http://www.w3.org/2000/svg" xmlns:xlink="http://www.w3.org/1999/xlink" x="0px" y="0px"
	 width="100px" height="100px" viewBox="0 0 100 100" enable-background="new 0 0 100 100" xml:space="preserve">
<path d="M90.613,33.667v30.666h-8.855c1.246-0.643,2.205-1.78,2.558-3.176c0.072-0.271,0.119-0.547,0.145-0.824h2.153V37.667H13.387
	v22.666h44.377l-1.059,4H9.387V33.667H90.613z M80.729,59.415l-14.221-8.116c-0.143-0.081-0.316-0.091-0.469-0.028
	c-0.15,0.063-0.265,0.195-0.305,0.354l-4.188,15.827c-0.062,0.23,0.039,0.472,0.246,0.592c0.204,0.12,0.464,0.089,0.635-0.077
	l5.086-4.962l5.911,14.107c0.112,0.27,0.423,0.396,0.693,0.284l4.883-2.047c0.268-0.113,0.396-0.422,0.282-0.692l-5.91-14.107
	l7.104-0.146c0.236-0.004,0.442-0.167,0.501-0.398c0.03-0.114,0.018-0.231-0.025-0.334C80.909,59.566,80.83,59.474,80.729,59.415z"
	/>
</svg>
