<?xml version="1.0" encoding="utf-8"?>
<!-- Generator: Adobe Illustrator 16.0.0, SVG Export Plug-In . SVG Version: 6.00 Build 0)  -->
<!DOCTYPE svg PUBLIC "-//W3C//DTD SVG 1.1//EN" "http://www.w3.org/Graphics/SVG/1.1/DTD/svg11.dtd">
<svg version="1.1" id="Layer_5" xmlns="http://www.w3.org/2000/svg" xmlns:xlink="http://www.w3.org/1999/xlink" x="0px" y="0px"
	 width="100px" height="100px" viewBox="0 0 100 100" enable-background="new 0 0 100 100" xml:space="preserve">
<path d="M55.469,58.15c0,1.362-0.504,2.667-1.419,3.675c-0.185,0.204-0.439,0.307-0.694,0.307c-0.225,0-0.45-0.08-0.63-0.244
	c-0.384-0.348-0.412-0.94-0.064-1.324c0.601-0.662,0.932-1.519,0.932-2.414c0-1.982-1.612-3.594-3.594-3.594
	s-3.594,1.612-3.594,3.594c0,0.88,0.321,1.727,0.904,2.383c0.345,0.387,0.309,0.98-0.078,1.324c-0.389,0.344-0.98,0.308-1.323-0.079
	c-0.889-1-1.378-2.289-1.378-3.628c0-3.016,2.453-5.469,5.469-5.469S55.469,55.135,55.469,58.15z M50,45.025
	c-7.237,0-13.125,5.888-13.125,13.125c0,3.417,1.307,6.653,3.679,9.112c0.184,0.191,0.429,0.287,0.674,0.287
	c0.234,0,0.469-0.087,0.651-0.263c0.373-0.359,0.383-0.953,0.024-1.326c-2.033-2.107-3.153-4.881-3.153-7.81
	c0-6.204,5.047-11.25,11.25-11.25s11.25,5.046,11.25,11.25c0,2.929-1.119,5.703-3.152,7.81c-0.359,0.373-0.349,0.966,0.023,1.326
	c0.373,0.359,0.966,0.349,1.325-0.024c2.373-2.458,3.679-5.695,3.679-9.112C63.125,50.913,57.237,45.025,50,45.025z M36.137,73.026
	c0.371-0.362,0.376-0.956,0.015-1.326c-3.564-3.641-5.527-8.454-5.527-13.55c0-10.684,8.691-19.375,19.375-19.375
	s19.375,8.691,19.375,19.375c0,5.097-1.963,9.909-5.527,13.55c-0.362,0.371-0.356,0.964,0.015,1.326
	c0.182,0.179,0.419,0.268,0.655,0.268c0.243,0,0.487-0.094,0.67-0.281c3.909-3.994,6.062-9.272,6.062-14.862
	c0-11.717-9.532-21.25-21.25-21.25s-21.25,9.533-21.25,21.25c0,5.589,2.153,10.867,6.062,14.861
	C35.173,73.382,35.768,73.388,36.137,73.026z M88.666,17.43v65.14c0,3.341-2.719,6.06-6.06,6.06H17.394
	c-3.341,0-6.06-2.719-6.06-6.06V17.43c0-3.341,2.719-6.059,6.06-6.059h65.212C85.947,11.371,88.666,14.088,88.666,17.43z
	 M75.901,20.865c0,1.435,1.162,2.597,2.597,2.597s2.597-1.163,2.597-2.597c0-1.434-1.162-2.597-2.597-2.597
	S75.901,19.431,75.901,20.865z M66.595,20.865c0,1.435,1.162,2.597,2.597,2.597s2.597-1.163,2.597-2.597
	c0-1.434-1.162-2.597-2.597-2.597S66.595,19.431,66.595,20.865z M81.741,29.909H18.259v51.795h63.481V29.909z"/>
</svg>
