<?xml version="1.0" encoding="utf-8"?>
<!-- Generator: Adobe Illustrator 16.0.0, SVG Export Plug-In . SVG Version: 6.00 Build 0)  -->
<!DOCTYPE svg PUBLIC "-//W3C//DTD SVG 1.1//EN" "http://www.w3.org/Graphics/SVG/1.1/DTD/svg11.dtd">
<svg version="1.1" id="Layer_6" xmlns="http://www.w3.org/2000/svg" xmlns:xlink="http://www.w3.org/1999/xlink" x="0px" y="0px"
	 width="100px" height="100px" viewBox="0 0 100 100" enable-background="new 0 0 100 100" xml:space="preserve">
<path fill-rule="evenodd" clip-rule="evenodd" d="M87.997,34.349c-0.354-0.507-0.747-0.991-1.081-1.511
	c-1.585-2.471-3.166-4.945-4.731-7.429c-0.68-1.077-1.295-2.193-1.984-3.263c-0.367-0.57-0.829-1.076-1.205-1.556
	c0.615-0.202,1.286-0.328,1.862-0.634c0.858-0.457,1.562-1.096,1.498-2.217c-0.017-0.285-0.112-0.404-0.415-0.398
	c-0.802,0.016-1.605-0.027-2.403,0.018c-0.517,0.027-0.642-0.16-0.631-0.643c0.017-0.725-0.042-1.452-0.07-2.171
	c-1.051-0.132-1.706,0.639-2.574,0.833c0-0.232-0.003-0.411,0.001-0.59c0.011-0.708-0.061-0.77-0.777-0.786
	c-2.732-0.066-5.426,0.323-8.125,0.651c-0.274,0.033-0.572,0.035-0.815,0.147c-0.635,0.293-1.26,0.615-1.863,0.97
	c-2.226,1.304-4.313,2.755-5.752,4.99c-1.051,1.633-2.218,3.188-3.313,4.793c-0.149,0.219-0.26,0.506-0.277,0.769
	c-0.184,2.628-0.342,5.257-0.509,7.887c-0.006,0.092-0.026,0.186-0.043,0.305c-0.759-0.05-1.492-0.103-2.226-0.144
	c-3.629-0.205-7.261-0.414-10.891-0.605c-3.271-0.173-6.548-0.283-9.813-0.514c-0.868-0.061-1.472,0.244-2.07,0.739
	c-0.933,0.771-1.85,1.564-2.802,2.312c-0.367,0.289-0.825,0.693-1.222,0.671c-1.185-0.067-2.358-0.325-3.537-0.499
	c-1.487-0.218-2.977-0.431-4.467-0.629c-0.161-0.022-0.37,0.021-0.497,0.114c-0.406,0.298-0.813,0.603-1.165,0.96
	c-1.101,1.119-2.181,2.258-3.251,3.404c-0.17,0.183-0.322,0.438-0.357,0.679c-0.144,0.97-0.252,1.944-0.348,2.921
	c-0.13,1.301-0.248,2.603-0.349,3.906c-0.085,1.103-0.14,2.207-0.21,3.336c0.304,0.047,0.494,0.085,0.687,0.104
	c0.765,0.074,1.53,0.143,2.295,0.215l1.169,0.047c-0.032-2.672,5.45-5.735,5.462-8.406c0.004-0.936,0.332-1.757,1.304-2.102
	c0.303-0.107,0.683-0.1,1.001-0.026c0.104,0.025,0.136,0.417,0.179,0.645c0.076,0.399,0.202,0.827-0.155,1.154
	c-0.693,0.634-0.693,1.411-0.546,2.251c0.353,1.999,1.226,3.799,2.13,5.583c0.796,1.574,1.462,3.166,1.266,4.991
	c-0.057,0.508-0.099,0.982-0.458,1.403c-0.774,0.902-1.514,1.834-2.251,2.766c-0.26,0.328-0.644,0.676-0.673,1.039
	c-0.057,0.698-0.056,1.476,0.196,2.111c0.68,1.711,1.521,3.357,2.261,5.044c0.376,0.856,0.675,1.745,1.034,2.687
	c-0.411,0.033-0.718,0.057-1.025,0.082c-0.747,0.063-1.564-0.042-2.231,0.225c-1.414,0.564-2.809,1.218-4.016,2.195
	c-0.168,0.138-0.43,0.227-0.648,0.227c-1.229-0.005-2.457-0.039-3.685-0.072c-0.43-0.014-0.602,0.144-0.513,0.589
	c0.188,0.929,0.346,1.861,0.525,2.791c0.129,0.673,0.302,0.808,0.975,0.794c0.163-0.004,0.329-0.006,0.49-0.035
	c0.396-0.073,0.509,0.09,0.514,0.479c0.007,0.735,0.023,1.477,0.121,2.204c0.121,0.914,0.636,1.604,1.254,2.305
	c1.048,1.187,2.23,2.158,3.597,2.918c0.472,0.264,0.996,0.553,1.516,0.595c1.042,0.084,2.095,0.001,3.144,0
	c0.742-0.003,1.476-0.109,2.085-0.534c1.363-0.952,2.971-1.636,3.709-3.306c0.264-0.596,0.635-1.143,0.908-1.733
	c0.107-0.231,0.136-0.527,0.112-0.786c-0.062-0.722-0.171-1.439-0.269-2.227c7.035,0.059,13.958,0.116,20.898,0.174
	c0.035,0.419,0.087,0.742,0.085,1.066c-0.01,1.477,0.294,2.764,1.41,3.905c1.112,1.137,2.291,2.134,3.662,2.912
	c0.427,0.243,0.915,0.512,1.386,0.529c1.29,0.048,2.587-0.017,3.88-0.072c0.309-0.015,0.647-0.112,0.912-0.271
	c0.896-0.533,1.778-1.089,2.636-1.68c0.354-0.244,0.707-0.553,0.933-0.912c0.573-0.909,1.08-1.861,1.596-2.806
	c0.07-0.128,0.068-0.313,0.05-0.466c-0.059-0.53-0.141-1.057-0.22-1.633c0.516,0,0.942,0.027,1.361-0.014
	c0.149-0.014,0.383-0.174,0.406-0.299c0.279-1.474,0.528-2.952,0.778-4.431c0.063-0.374-0.104-0.515-0.493-0.524
	c-1.571-0.039-3.144-0.102-4.713-0.18c-0.221-0.012-0.462-0.125-0.645-0.259c-0.683-0.502-1.342-1.036-2.018-1.546
	c-0.124-0.094-0.294-0.191-0.437-0.183c-1.475,0.095-2.971-0.068-4.421,0.37c-0.203,0.063-0.52,0.013-0.685-0.114
	c-0.383-0.295-0.679-0.703-1.058-1.003c-0.507-0.401-0.562-0.921-0.505-1.49c0.068-0.683,0.196-1.363,0.213-2.048
	c0.044-1.978,0.316-3.898,1.185-5.704c0.821-1.709,1.686-3.388,3.035-4.76c1.042-1.058,2.086-2.111,3.104-3.191
	c1.074-1.142,1.633-2.468,1.771-4.076c0.165-1.91,0.555-3.81,0.952-5.69c0.499-2.361,1.095-4.702,1.672-7.046
	c0.191-0.771,0.456-1.523,0.699-2.324c0.576,0.217,1.092,0.418,1.612,0.606c1.246,0.452,2.49,0.913,3.858,0.743
	c0.146-0.02,0.324,0.055,0.456,0.136c1.461,0.89,2.929,1.771,4.366,2.699c0.697,0.449,1.378,0.945,1.987,1.506
	c0.728,0.669,0.69,0.706,1.413,0.078c0.136-0.118,0.285-0.22,0.423-0.335c1.038-0.869,2.069-1.747,3.114-2.608
	C88.554,35.745,88.633,35.252,87.997,34.349z M24.866,80.622c-1.303,0-2.36-1.057-2.36-2.361c0-1.303,1.058-2.359,2.36-2.359
	c1.304,0,2.36,1.057,2.36,2.359C27.227,79.565,26.17,80.622,24.866,80.622z M51.739,67.153c-0.037,1.701-0.183,3.398-0.252,5.098
	c-0.017,0.397-0.129,0.535-0.54,0.531c-2.375-0.018-4.75-0.008-7.126-0.008c0,0.005,0,0.011,0,0.017
	c-2.358,0-4.716-0.005-7.075,0.006c-0.307,0.001-0.484-0.105-0.698-0.333c-0.544-0.578-1.151-1.098-1.734-1.638
	c-0.181-0.166-0.352-0.35-0.557-0.479c-1.247-0.787-1.315-2.081-1.455-3.342c-0.177-1.622-0.303-3.251-0.531-4.866
	c-0.075-0.541,0.179-0.778,0.524-1.024c0.901-0.645,1.799-1.297,2.719-1.914c0.85-0.571,1.751-1.071,2.58-1.669
	c0.372-0.27,0.633-0.697,0.93-1.064c0.273-0.343,0.561-0.681,0.778-1.057c0.278-0.481,0.606-0.603,1.153-0.456
	c1.902,0.513,3.806,1.031,5.73,1.441c1.19,0.253,2.419,0.342,3.634,0.45c0.591,0.053,1.079,0.403,1.166,1.012
	c0.232,1.629,0.528,3.253,0.668,4.89C51.776,64.208,51.773,65.686,51.739,67.153z M62.189,75.901c1.305,0,2.361,1.057,2.361,2.359
	c0,1.305-1.057,2.361-2.361,2.361c-1.303,0-2.358-1.057-2.358-2.361C59.831,76.958,60.887,75.901,62.189,75.901z"/>
</svg>
