<?xml version="1.0" encoding="utf-8"?>
<!-- Generator: Adobe Illustrator 16.0.0, SVG Export Plug-In . SVG Version: 6.00 Build 0)  -->
<!DOCTYPE svg PUBLIC "-//W3C//DTD SVG 1.1//EN" "http://www.w3.org/Graphics/SVG/1.1/DTD/svg11.dtd">
<svg version="1.1" id="Layer_6" xmlns="http://www.w3.org/2000/svg" xmlns:xlink="http://www.w3.org/1999/xlink" x="0px" y="0px"
	 width="100px" height="100px" viewBox="0 0 100 100" enable-background="new 0 0 100 100" xml:space="preserve">
<path d="M85.184,44.179c0,2.058-0.188,4.071-0.529,6.033l-0.616,2.864c-1.667,6.375-5.085,12.045-9.702,16.477
	c0.064-0.33,0.108-0.663,0.108-1c0-1.164-0.393-2.309-1.091-3.207l-7.676-9.984c2.02-5.82,10.339-3.096,15.203-5.648
	c0.32-1.799,0.498-3.646,0.498-5.534c0-11.749-6.494-22.003-16.076-27.381c0.156,0.145,0.318,0.289,0.458,0.433
	c6.181,6.18,2.851,6.655,3.803,13.788c0,2.377,4.913,1.979,4.439,6.258c-0.952,4.281-1.11,8.479-5.391,4.914
	c-4.276-3.566-7.13-0.711-8.558-1.189c-1.901-0.949-2.851-5.229-5.228-5.229c-3.285,0.234-3.908,3.592-4.666,6.478
	c-0.686,0.351-1.298,0.848-1.776,1.469l-2.059,2.679c-0.558-0.081-1.206-0.287-1.96-0.642c-9.369-4.906-0.351-21.517-10.193-28.657
	c-6.123,3.592-10.924,9.198-13.49,15.904c2.369,0.68,4.774,1.709,5.548,3.599c1.862,4.119-0.765,5.98-2.094,8.725
	c-0.14,1.16-0.364,2.228-0.675,3.079c0.254,4.268,7.479,8.128,7.163,12.364c-0.261,3.505-2.882,3.7-5.5,2.509
	c1.614,2.096,3.492,3.976,5.574,5.607c0.063,1.001,0.394,1.988,1.025,2.825c0.988,1.317,2.561,2.104,4.207,2.104h0
	c0.669,0,1.325-0.126,1.935-0.369l5.02-1.982v7.177c-16.001-3.299-28.068-17.495-28.068-34.461
	c0-19.402,15.782-35.184,35.182-35.184C69.398,8.995,85.184,24.776,85.184,44.179z M64.08,72.193
	c-0.605,0.306-1.223,0.591-1.85,0.857v4.112c2.376-0.885,4.632-2.018,6.736-3.369c-0.593-0.025-1.175-0.133-1.729-0.354
	L64.08,72.193z M52.77,46.001c-0.167-0.217-0.425-0.344-0.699-0.344s-0.532,0.127-0.7,0.344L34.746,67.628
	c-0.243,0.314-0.244,0.751-0.005,1.067c0.239,0.318,0.66,0.437,1.029,0.289l11.009-4.349v25.486c0,0.487,0.395,0.883,0.882,0.883
	h8.822c0.487,0,0.882-0.396,0.882-0.883V64.636l11.008,4.349c0.369,0.147,0.79,0.029,1.029-0.289
	c0.119-0.157,0.178-0.344,0.178-0.53c0-0.19-0.061-0.38-0.183-0.537L52.77,46.001z"/>
</svg>
