<?xml version="1.0" encoding="utf-8"?>
<!-- Generator: Adobe Illustrator 16.0.0, SVG Export Plug-In . SVG Version: 6.00 Build 0)  -->
<!DOCTYPE svg PUBLIC "-//W3C//DTD SVG 1.1//EN" "http://www.w3.org/Graphics/SVG/1.1/DTD/svg11.dtd">
<svg version="1.1" id="Layer_7" xmlns="http://www.w3.org/2000/svg" xmlns:xlink="http://www.w3.org/1999/xlink" x="0px" y="0px"
	 width="100px" height="100px" viewBox="0 0 100 100" enable-background="new 0 0 100 100" xml:space="preserve">
<path d="M57.568,24.017L79.18,45.629L68.043,56.767c-2.098,2.098-8.472,6.138-13.051,7.276c-0.158,0.507-0.421,0.987-0.823,1.389
	c-1.322,1.321-3.465,1.321-4.785,0l-0.157-0.157l-7.565,7.565l-3.557-3.557l-19.03,19.029l-4.967-4.968l19.029-19.029l-3.667-3.667
	l7.622-7.622c-0.844-1.311-0.695-3.074,0.451-4.221c0.351-0.351,0.761-0.602,1.197-0.766c1.263-4.383,5.712-10.908,7.69-12.887
	L57.568,24.017z M78.074,41.092l-15.969-15.97L75.54,11.688l15.969,15.97L78.074,41.092z M80.273,26.871l3.221,3.221l2.416-2.416
	l-3.221-3.221L80.273,26.871z M75.917,22.436l2.416-2.416l-3.221-3.221l-2.416,2.416L75.917,22.436z"/>
</svg>
