<?xml version="1.0" encoding="utf-8"?>
<!-- Generator: Adobe Illustrator 16.0.4, SVG Export Plug-In . SVG Version: 6.00 Build 0)  -->
<!DOCTYPE svg PUBLIC "-//W3C//DTD SVG 1.1//EN" "http://www.w3.org/Graphics/SVG/1.1/DTD/svg11.dtd">
<svg version="1.1" id="Capa_1" xmlns="http://www.w3.org/2000/svg" xmlns:xlink="http://www.w3.org/1999/xlink" x="0px" y="0px"
	 width="100px" height="100px" viewBox="0 0 100 100" enable-background="new 0 0 100 100" xml:space="preserve">
<g id="Layer_8">
	<path d="M85.107,15.781H14.892c-1.534,0-2.782,1.248-2.782,2.782v62.875c0,1.533,1.248,2.781,2.782,2.781h70.215
		c1.535,0,2.783-1.248,2.783-2.781V18.563C87.891,17.029,86.643,15.781,85.107,15.781z M84.552,80.881H15.448V31.304h69.104V80.881z
		 M42.166,61.074c-3.888-2.555-6.458-6.952-6.458-11.952c0-7.894,6.4-14.292,14.293-14.292c7.894,0,14.292,6.399,14.292,14.292
		c0,5-2.568,9.397-6.458,11.952c6.149,2.931,10.401,9.203,10.401,16.47H31.765C31.765,70.277,36.016,64.005,42.166,61.074z"/>
</g>
</svg>
