<?xml version="1.0" encoding="utf-8"?>
<!-- Generator: Adobe Illustrator 16.0.0, SVG Export Plug-In . SVG Version: 6.00 Build 0)  -->
<!DOCTYPE svg PUBLIC "-//W3C//DTD SVG 1.1//EN" "http://www.w3.org/Graphics/SVG/1.1/DTD/svg11.dtd">
<svg version="1.1" id="Layer_4" xmlns="http://www.w3.org/2000/svg" xmlns:xlink="http://www.w3.org/1999/xlink" x="0px" y="0px"
	 width="100px" height="100px" viewBox="0 0 100 100" enable-background="new 0 0 100 100" xml:space="preserve">
<path d="M64.428,34.635h-3.139v-3.044c0-0.767-0.621-1.389-1.389-1.389h-1.182c-0.768,0-1.391,0.622-1.391,1.389v3.044h-4.473
	v-5.437c0-1.102-0.893-1.995-1.994-1.995h-1.697c-1.102,0-1.994,0.894-1.994,1.995v5.437h-6.471c0-0.017,0.006-0.031,0.006-0.048
	V22.869c0-0.96-0.555-1.784-1.355-2.192V6.586c0-0.588-0.479-1.064-1.066-1.064s-1.064,0.477-1.064,1.064v14.039
	c-0.855,0.388-1.453,1.244-1.453,2.244v11.718c0,0.017,0.006,0.031,0.006,0.048h-0.199c-1.605,0-2.906,1.301-2.906,2.905v54.034
	c0,1.604,1.301,2.904,2.906,2.904h28.855c1.605,0,2.906-1.301,2.906-2.904V37.54C67.334,35.936,66.033,34.635,64.428,34.635z
	 M36.539,41.801c0-1.604,1.301-2.905,2.906-2.905h19.947c1.605,0,2.904,1.301,2.904,2.905v8.23c0,1.604-1.299,2.905-2.904,2.905
	H39.445c-1.605,0-2.906-1.301-2.906-2.905V41.801z M50,86.732c-7.594,0-13.752-6.156-13.752-13.751
	c0-7.594,6.158-13.751,13.752-13.751s13.75,6.157,13.75,13.751C63.75,80.576,57.594,86.732,50,86.732z M50,63.008
	c-5.508,0-9.975,4.466-9.975,9.974c0,5.509,4.467,9.975,9.975,9.975s9.975-4.466,9.975-9.975C59.975,67.474,55.508,63.008,50,63.008
	z M50,77.729c-2.621,0-4.748-2.126-4.748-4.747c0-2.622,2.127-4.748,4.748-4.748s4.748,2.126,4.748,4.748
	C54.748,75.604,52.621,77.729,50,77.729z"/>
</svg>
