<?xml version="1.0" encoding="utf-8"?>
<!-- Generator: Adobe Illustrator 16.0.0, SVG Export Plug-In . SVG Version: 6.00 Build 0)  -->
<!DOCTYPE svg PUBLIC "-//W3C//DTD SVG 1.1//EN" "http://www.w3.org/Graphics/SVG/1.1/DTD/svg11.dtd">
<svg version="1.1" id="Layer_6" xmlns="http://www.w3.org/2000/svg" xmlns:xlink="http://www.w3.org/1999/xlink" x="0px" y="0px"
	 width="100px" height="100px" viewBox="0 0 100 100" enable-background="new 0 0 100 100" xml:space="preserve">
<path d="M42.58,19.021c2.134-0.921,4.483-1.438,6.955-1.438c9.7,0,17.563,7.864,17.563,17.564c0,9.217-7.104,16.761-16.133,17.491
	c0.058-0.27,0.117-0.541,0.206-0.823c1.076-3.415,5.114-5.651,7.617-7.927c6.325-5.751,6.711-16.069-1.984-19.611
	c-3.508-1.429-7.338-1.751-10.908-2.99C44.623,20.846,43.378,20.126,42.58,19.021z M31.972,35.148
	c0,8.442,5.958,15.486,13.896,17.174c0.547-3.144,2.246-5.878,4.721-8.11c2.512-2.264,6.528-4.508,7.55-7.95
	c1.076-3.628-0.357-6.371-3.891-7.52c-4.625-1.502-13.159-2.271-16.156-6.9C34.351,25.063,31.972,29.824,31.972,35.148z
	 M38.73,10.436l-8.247,1.499c-0.459,0.084-0.909,0.221-1.336,0.408c-1.9,0.83-3.262,2.622-3.554,4.675l-1.176,8.298l-4.771,6.891
	c-1.481,2.139-1.427,4.973,0.136,7.051l5.036,6.701l1.498,8.246c0.413,2.273,2.072,4.074,4.242,4.706l-15.623,25.63
	c-0.282,0.463-0.212,1.059,0.17,1.444c0.381,0.385,0.977,0.46,1.442,0.182l12.731-7.615c0.147,1.451,0.363,3.576,0.583,5.701
	c0.194,1.889,0.392,3.778,0.546,5.194c0.078,0.712,0.144,1.307,0.193,1.722c0.09,0.747,0.2,1.675,1.248,1.688
	c0.005,0.001,0.011,0.001,0.016,0.001c0.31,0,0.608-0.123,0.829-0.341c0.185-0.181,0.304-0.441,0.342-0.701
	c0.396-1.421,6.531-15.96,11.694-28.061l1.858,1.287c1.253,0.868,2.796,1.21,4.279,1.004c-0.744-1.174-1.669-2.268-2.534-3.483
	c-1.558-2.19-2.508-4.66-2.648-7.361c-0.004-0.072,0.004-0.14,0.002-0.212c-9.324-1.798-16.37-9.993-16.37-19.842
	c0-6.475,3.056-12.225,7.791-15.925c-0.1-0.653-0.123-1.356-0.044-2.125 M85.058,85.382L68.231,58.437l0.357-0.065
	c0.458-0.084,0.908-0.221,1.335-0.408c1.9-0.831,3.262-2.622,3.554-4.677l1.176-8.297l4.771-6.891
	c1.48-2.139,1.426-4.973-0.137-7.052l-5.035-6.7l-1.498-8.246c-0.466-2.559-2.508-4.524-5.084-4.889l-8.299-1.178l-5.657-3.917
	c-3.603,2.76-7.678,5.069-10.3,8.776c-0.273,0.386-0.577,0.825-0.823,1.286c2.168-0.794,4.5-1.25,6.943-1.25
	c11.165,0,20.218,9.052,20.218,20.218c0,10.717-8.346,19.463-18.888,20.151c0.544,3.781,3.923,6.53,5.568,10.225
	c0.697,1.564,1,3.221,1.021,4.899c4.626,10.569,9.232,21.225,9.582,22.43c0.041,0.261,0.164,0.519,0.349,0.698
	c0.224,0.216,0.522,0.335,0.833,0.332c0.005,0,0.011,0,0.016,0c1.048-0.025,1.148-0.955,1.229-1.702
	c0.046-0.416,0.105-1.011,0.176-1.724c0.139-1.418,0.315-3.31,0.49-5.201c0.196-2.126,0.389-4.254,0.521-5.706l12.813,7.477
	c0.468,0.273,1.063,0.191,1.44-0.197C85.281,86.439,85.345,85.842,85.058,85.382z"/>
</svg>
