<?xml version="1.0" encoding="utf-8"?>
<!-- Generator: Adobe Illustrator 16.0.4, SVG Export Plug-In . SVG Version: 6.00 Build 0)  -->
<!DOCTYPE svg PUBLIC "-//W3C//DTD SVG 1.1//EN" "http://www.w3.org/Graphics/SVG/1.1/DTD/svg11.dtd">
<svg version="1.1" id="Capa_1" xmlns="http://www.w3.org/2000/svg" xmlns:xlink="http://www.w3.org/1999/xlink" x="0px" y="0px"
	 width="100px" height="100px" viewBox="0 0 100 100" enable-background="new 0 0 100 100" xml:space="preserve">
<g id="Layer_8">
	<path d="M41.189,55.127c0-4.866,3.944-8.812,8.811-8.812s8.811,3.945,8.811,8.812c0,4.866-3.943,8.811-8.811,8.811
		S41.189,59.993,41.189,55.127z M76.634,90.074H24.836c0-5.272,3.748-9.975,9.605-13.055c-11.721-5.756-19.79-17.806-19.79-31.744
		c0-19.524,15.827-35.35,35.349-35.35c19.523,0,35.35,15.826,35.35,35.349c0,13.645-7.736,25.476-19.058,31.368
		C72.573,79.709,76.634,84.583,76.634,90.074z M33.376,54.2c0,9.181,7.442,16.625,16.624,16.625c9.182,0,16.624-7.443,16.624-16.625
		c0-9.182-7.442-16.625-16.624-16.625C40.818,37.575,33.376,45.019,33.376,54.2z"/>
</g>
</svg>
