<?xml version="1.0" encoding="utf-8"?>
<!-- Generator: Adobe Illustrator 16.0.0, SVG Export Plug-In . SVG Version: 6.00 Build 0)  -->
<!DOCTYPE svg PUBLIC "-//W3C//DTD SVG 1.1//EN" "http://www.w3.org/Graphics/SVG/1.1/DTD/svg11.dtd">
<svg version="1.1" id="Layer_4" xmlns="http://www.w3.org/2000/svg" xmlns:xlink="http://www.w3.org/1999/xlink" x="0px" y="0px"
	 width="100px" height="100px" viewBox="0 0 100 100" enable-background="new 0 0 100 100" xml:space="preserve">
<path d="M78.38,67.058c-0.021-0.319-0.041-0.637-0.072-0.966c-0.233-2.412,1.348-3.165,2.865-4.167
	c0.854-0.564,1.166-1.304,1.077-2.294c-0.277-3.09-6.693-5.146-4.282-8.371h7.378V6.109H14.654v45.15h26.832v3.502
	c-5.888,0.295-9.926,0.896-9.926,1.59c0,0.986,8.14,1.786,18.182,1.786c10.042,0,18.182-0.8,18.182-1.786
	c0-0.673-3.802-1.26-9.41-1.564v-3.528h17.959c-0.923,2.104,0.646,4.129,2.479,5.967c0.75,0.752,3.084,2.572,1.093,3.888
	c-0.81,0.536-1.472,0.98-2.095,1.738c-1.029,1.25-0.972,2.721-0.884,4.206H8.333v26.833h83.333V67.058H78.38z M19.298,47.389V9.593
	h61.403v37.796H19.298z M88.571,90.794H11.429v-20.64h77.142V90.794z M20.33,76.475h-4.258v-4.257h4.258V76.475z M27.103,76.475
	h-4.257v-4.257h4.257V76.475z M34.068,76.475h-4.256v-4.257h4.256V76.475z M40.84,76.475h-4.256v-4.257h4.256V76.475z M48,76.475
	h-4.256v-4.257H48V76.475z M54.772,76.475h-4.256v-4.257h4.256V76.475z M61.739,76.475h-4.258v-4.257h4.258V76.475z M68.512,76.475
	h-4.258v-4.257h4.258V76.475z M17.427,82.602h-4.256v-4.257h4.256V82.602z M24.2,82.602h-4.256v-4.257H24.2V82.602z M31.166,82.602
	h-4.257v-4.257h4.257V82.602z M37.938,82.602h-4.257v-4.257h4.257V82.602z M45.098,82.602H40.84v-4.257h4.258V82.602z
	 M51.871,82.602h-4.257v-4.257h4.257V82.602z M58.836,82.602H54.58v-4.257h4.256V82.602z M65.608,82.602h-4.256v-4.257h4.256V82.602
	z M80.881,82.602h-4.256v-4.257h4.256V82.602z M80.379,84.021h4.256v4.257h-4.256V84.021z M73.025,84.021h4.258v4.257h-4.258V84.021
	z M14.622,84.795h4.257v4.257h-4.257V84.795z M21.394,84.795h4.258v4.257h-4.258V84.795z M28.361,84.795h4.256v4.257h-4.256V84.795z
	 M35.132,84.795h4.258v4.257h-4.258V84.795z M42.292,84.795h4.256v4.257h-4.256V84.795z M49.064,84.795h4.258v4.257h-4.258V84.795z
	 M56.031,84.795h4.256v4.257h-4.256V84.795z M62.803,84.795h4.256v4.257h-4.256V84.795z M78.909,71.58h-6.49v2.342h6.49V71.58z
	 M78.598,73.611H72.73V71.89h5.868V73.611z M86.712,71.58h-6.488v2.342h6.488V71.58z M86.403,73.611h-5.87V71.89h5.87V73.611z"/>
</svg>
