<?xml version="1.0" encoding="utf-8"?>
<!-- Generator: Adobe Illustrator 16.0.0, SVG Export Plug-In . SVG Version: 6.00 Build 0)  -->
<!DOCTYPE svg PUBLIC "-//W3C//DTD SVG 1.1//EN" "http://www.w3.org/Graphics/SVG/1.1/DTD/svg11.dtd">
<svg version="1.1" id="Layer_4" xmlns="http://www.w3.org/2000/svg" xmlns:xlink="http://www.w3.org/1999/xlink" x="0px" y="0px"
	 width="100px" height="100px" viewBox="0 0 100 100" enable-background="new 0 0 100 100" xml:space="preserve">
<path d="M46.427,68.851v-4.539H62.51c-0.049,2.536,0.264,5.577,3.284,5.604c1.701,0.015,3.865-0.865,5.213-1.856
	c1.004-0.738,1.218-1.402,2.577-1.867c0.934-0.319,1.914-0.256,2.877-0.021v6.434v1.799v2.253h4.052v-2.253h8.103v2.253h4.052
	v-2.253v-1.799V23.343H76.46V65.06c-1.93-0.396-3.861-0.199-5.454,1.381c-1.326,1.316-3.854,2.556-5.83,2.283
	c-1.523-0.21-1.62-2.621-1.542-4.412h6.709V24.067H7.333v40.245H31.25v4.539 M11.472,60.862V27.172h54.732v33.689H11.472z
	 M84.563,27.782c1.918,0,3.473,1.554,3.473,3.473c0,1.917-1.555,3.473-3.473,3.473c-1.917,0-3.473-1.555-3.473-3.473
	C81.091,29.336,82.646,27.782,84.563,27.782z M90.014,59.148H79.113v-2.123h10.901V59.148z M90.014,54.613H79.113v-2.122h10.901
	V54.613z M90.014,50.369H79.113v-2.122h10.901V50.369z M90.014,45.835H79.113v-2.123h10.901V45.835z M54.458,67.167
	c0,0.759-6.268,1.375-14,1.375s-14-0.616-14-1.375s6.268-1.375,14-1.375S54.458,66.408,54.458,67.167z"/>
</svg>
