<?xml version="1.0" encoding="utf-8"?>
<!-- Generator: Adobe Illustrator 16.0.0, SVG Export Plug-In . SVG Version: 6.00 Build 0)  -->
<!DOCTYPE svg PUBLIC "-//W3C//DTD SVG 1.1//EN" "http://www.w3.org/Graphics/SVG/1.1/DTD/svg11.dtd">
<svg version="1.1" id="Layer_4" xmlns="http://www.w3.org/2000/svg" xmlns:xlink="http://www.w3.org/1999/xlink" x="0px" y="0px"
	 width="100px" height="100px" viewBox="0 0 100 100" enable-background="new 0 0 100 100" xml:space="preserve">
<path d="M31.133,50.991h8.135v2.216H28.475v-6.616h2.658V50.991z M46.217,57.506c1.043,0.027,2.13,0.043,3.258,0.043
	c1.514,0,2.959-0.027,4.309-0.073v-6.484h-7.566V57.506z M66.292,50.991h-5.561v2.216h8.22v-6.616h-2.659V50.991z M31.133,29.349
	h35.159v10.958h2.659V27.354H28.475v12.952h2.658V29.349z M81.042,68.304v1.862c5.142,0.169,8.851,0.645,8.851,1.206
	c0,0.704-5.804,1.273-12.964,1.273s-12.964-0.569-12.964-1.273c0-0.504,2.994-0.938,7.327-1.145v-1.924H55.929V42.451h40.477v25.853
	H81.042z M93.746,66.088V44.446H58.587v21.642H93.746z M3.595,42.451h40.477v25.853H28.708v1.862
	c5.142,0.169,8.851,0.645,8.851,1.206c0,0.704-5.804,1.273-12.964,1.273s-12.964-0.569-12.964-1.273
	c0-0.504,2.994-0.938,7.328-1.145v-1.924H3.595V42.451z M6.253,66.088h35.159V44.446H6.253V66.088z"/>
</svg>
