<?xml version="1.0" encoding="utf-8"?>
<!-- Generator: Adobe Illustrator 17.1.0, SVG Export Plug-In . SVG Version: 6.00 Build 0)  -->
<!DOCTYPE svg PUBLIC "-//W3C//DTD SVG 1.1//EN" "http://www.w3.org/Graphics/SVG/1.1/DTD/svg11.dtd">
<svg version="1.1" id="Layer_1" xmlns="http://www.w3.org/2000/svg" xmlns:xlink="http://www.w3.org/1999/xlink" x="0px" y="0px"
	 width="800px" height="800px" viewBox="0 0 800 800" enable-background="new 0 0 800 800" xml:space="preserve">
<g>
	<circle cx="466.6" cy="127.2" r="66"/>
	<path d="M760.8,508.5h-84.5c-11,0-20,9-20,20v52.2H551.4c-11,0-20,9-20,20v52h-99.3c-11,0-20,9-20,20v46c0,11,9,20,20,20h328.7
		c11,0,20-9,20-20V528.5C780.8,517.5,771.8,508.5,760.8,508.5z"/>
	<path d="M173.5,489c-5.2,9.7-17.4,13.4-27.1,8.1L29.8,434.3c-9.7-5.2-13.4-17.4-8.1-27.1L61,334.2c5.2-9.7,17.4-13.4,27.1-8.1
		l116.7,62.8c9.7,5.2,13.4,17.4,8.1,27.1L173.5,489z"/>
	<path d="M256.1,426.5v118.4l-73.7,73.7c-11.7,11.7-11.7,30.7,0,42.4c5.9,5.9,13.5,8.8,21.2,8.8s15.4-2.9,21.2-8.8l82.5-82.5
		c0.4-0.4,0.7-0.7,1-1.1c0.1-0.2,0.3-0.3,0.4-0.5c0.2-0.2,0.4-0.4,0.6-0.6c0.2-0.2,0.3-0.4,0.5-0.7c0.1-0.2,0.3-0.3,0.4-0.5
		c0.2-0.2,0.4-0.5,0.5-0.7c0.1-0.1,0.2-0.3,0.3-0.4c0.2-0.3,0.3-0.5,0.5-0.8c0.1-0.1,0.2-0.3,0.3-0.4c0.2-0.3,0.3-0.5,0.5-0.8
		c0.1-0.2,0.2-0.3,0.3-0.5c0.1-0.3,0.3-0.5,0.4-0.8c0.1-0.2,0.2-0.4,0.3-0.6c0.1-0.2,0.2-0.5,0.3-0.7c0.1-0.2,0.2-0.4,0.3-0.7
		c0.1-0.2,0.2-0.4,0.2-0.6c0.1-0.3,0.2-0.5,0.3-0.8c0.1-0.2,0.1-0.4,0.2-0.5c0.1-0.3,0.2-0.6,0.3-0.9c0-0.2,0.1-0.3,0.1-0.5
		c0.1-0.3,0.2-0.6,0.3-0.9c0-0.1,0.1-0.3,0.1-0.5c0.1-0.3,0.1-0.7,0.2-1c0-0.2,0.1-0.3,0.1-0.5c0.1-0.3,0.1-0.7,0.2-1
		c0-0.2,0-0.4,0.1-0.5c0-0.3,0.1-0.6,0.1-0.9c0-0.2,0-0.5,0.1-0.7c0-0.3,0-0.5,0.1-0.8c0-0.4,0-0.9,0-1.3c0-0.1,0-0.1,0-0.2V445.7
		l-59.2-26.1C256.3,421.9,256.1,424.1,256.1,426.5z"/>
	<path d="M698.6,289.3c-5.2-15.7-22.2-24.2-37.9-19l-103.3,34.4l-80.5-80.5c-0.3-0.3-0.6-0.6-0.9-0.9c-2.4-2.6-5.3-4.8-8.8-6.4
		l-2.4-1.1l-57.4,53.7l6.7-76l-43.7-19.2c-4-1.8-7.6-2.2-12.2-2.2c-0.8,0-133.9,0-133.9,0c-0.1,0-0.3,0-0.4,0h-0.1c0,0-0.1,0-0.1,0
		c-0.4,0-0.9,0-1.3,0c-0.1,0-0.2,0-0.3,0c-0.4,0-0.7,0-1.1,0.1c-0.2,0-0.4,0-0.6,0.1c-0.3,0-0.5,0.1-0.8,0.1c-0.3,0-0.6,0.1-0.9,0.1
		c-0.2,0-0.3,0.1-0.5,0.1c-0.4,0.1-0.7,0.1-1.1,0.2c-0.1,0-0.2,0-0.3,0.1c-0.4,0.1-0.8,0.2-1.2,0.3c0,0-0.1,0-0.1,0
		c-0.4,0.1-0.9,0.3-1.3,0.4c0,0,0,0,0,0c-0.4,0.1-0.9,0.3-1.3,0.5c0,0,0,0-0.1,0c-0.4,0.2-0.8,0.3-1.3,0.5c0,0-0.1,0-0.1,0.1
		c-0.4,0.2-0.8,0.3-1.1,0.5c-0.1,0-0.2,0.1-0.3,0.1c-0.3,0.2-0.6,0.3-0.9,0.5c-0.2,0.1-0.3,0.2-0.5,0.3c-0.2,0.1-0.5,0.3-0.7,0.4
		c-0.2,0.1-0.5,0.3-0.7,0.4c-0.1,0.1-0.3,0.2-0.4,0.3c-0.3,0.2-0.6,0.4-0.9,0.6c-0.1,0.1-0.2,0.1-0.2,0.2c-0.3,0.3-0.7,0.5-1,0.8
		c0,0-0.1,0.1-0.1,0.1c-0.4,0.3-0.7,0.6-1,0.9c0,0,0,0,0,0c-0.3,0.3-0.7,0.6-1,1c0,0,0,0,0,0c-0.3,0.3-0.6,0.7-0.9,1
		c0,0,0,0.1-0.1,0.1c-0.3,0.3-0.6,0.6-0.8,1c-0.1,0.1-0.1,0.1-0.2,0.2c-0.2,0.3-0.5,0.6-0.7,0.9c-0.1,0.1-0.2,0.3-0.3,0.4
		c-0.2,0.2-0.3,0.5-0.5,0.7c-0.1,0.2-0.3,0.4-0.4,0.6c-0.1,0.2-0.2,0.3-0.3,0.5c-0.2,0.3-0.4,0.6-0.5,0.9c-0.1,0.1-0.1,0.2-0.2,0.3
		c-0.2,0.4-0.4,0.8-0.6,1.2c0,0,0,0.1,0,0.1l-0.1,0.1c-0.1,0.1-0.1,0.2-0.2,0.4l-56.8,113.5c-7.4,14.8-1.4,32.8,13.4,40.2
		c4.3,2.2,8.9,3.2,13.4,3.2c11,0,21.6-6.1,26.9-16.6l48.7-97.4h71.8l-66.3,130.9c-5.7,12.9,0.2,27.9,13.1,33.6l0.5,0.2l179.1,96.1
		v98.2c0,16.6,13.4,30,30,30s30-13.4,30-30V475.8c0,0,0-0.1,0-0.1c0-0.4,0-0.8,0-1.2c0-0.1,0-0.3,0-0.4c0-0.3,0-0.6-0.1-1
		c0-0.2,0-0.4-0.1-0.6c0-0.2-0.1-0.4-0.1-0.7c0-0.3-0.1-0.6-0.1-0.9c0-0.1,0-0.2-0.1-0.4c-0.1-0.4-0.1-0.8-0.2-1.1c0,0,0,0,0,0
		c-0.6-2.8-1.6-5.5-3-8c-0.1-0.2-0.3-0.5-0.4-0.7c-0.1-0.2-0.2-0.3-0.3-0.5c-1.7-2.8-3.8-5.3-6.4-7.4c-0.1-0.1-0.1-0.1-0.2-0.2
		c-0.2-0.2-0.5-0.4-0.7-0.6c-0.2-0.1-0.3-0.3-0.5-0.4c-0.2-0.1-0.4-0.3-0.6-0.4c-0.2-0.2-0.5-0.3-0.7-0.5c-0.1-0.1-0.3-0.2-0.4-0.3
		c-0.3-0.2-0.6-0.4-1-0.6c0,0-0.1-0.1-0.1-0.1l-92-57.4l56.1-110.6l78.6,78.6c0,0,0.1,0.1,0.1,0.1c0.2,0.2,0.4,0.4,0.6,0.6
		c0.3,0.3,0.7,0.6,1,0.9c0.2,0.1,0.3,0.3,0.5,0.4c0.5,0.4,1,0.8,1.6,1.2c0.1,0.1,0.2,0.1,0.3,0.2c1.2,0.9,2.5,1.6,3.8,2.3
		c0,0,0,0,0,0c1.3,0.7,2.7,1.2,4.1,1.7c0.1,0,0.1,0,0.2,0.1c0.7,0.2,1.4,0.4,2.1,0.6c0.1,0,0.2,0,0.3,0.1c0.6,0.1,1.1,0.2,1.7,0.3
		c0.2,0,0.4,0.1,0.6,0.1c0.6,0.1,1.2,0.2,1.8,0.2c0.3,0,0.5,0,0.8,0.1c0.5,0,0.9,0,1.4,0.1c0.2,0,0.3,0,0.5,0c0.2,0,0.3,0,0.5,0
		c0.5,0,1,0,1.4-0.1c0.2,0,0.5,0,0.7-0.1c0.6-0.1,1.3-0.1,1.9-0.2c0.2,0,0.3-0.1,0.5-0.1c1.5-0.3,3-0.6,4.4-1.1c0,0,0,0,0,0l0.2-0.1
		c0.1,0,0.2-0.1,0.3-0.1l120.4-40.1C695.4,322,703.9,305,698.6,289.3z"/>
</g>
</svg>
