<?xml version="1.0" encoding="utf-8"?>
<!-- Generator: Adobe Illustrator 16.0.0, SVG Export Plug-In . SVG Version: 6.00 Build 0)  -->
<!DOCTYPE svg PUBLIC "-//W3C//DTD SVG 1.1//EN" "http://www.w3.org/Graphics/SVG/1.1/DTD/svg11.dtd">
<svg version="1.1" id="Layer_1" xmlns="http://www.w3.org/2000/svg" xmlns:xlink="http://www.w3.org/1999/xlink" x="0px" y="0px"
	 width="800px" height="800px" viewBox="0 0 800 800" enable-background="new 0 0 800 800" xml:space="preserve">
<g>
	<path d="M322.507,101.23c2.022,42.016,36.722,75.457,79.233,75.457c43.135,0,78.203-34.432,79.281-77.307
		c0.018-0.037,0.034-0.076,0.053-0.112c-0.017-0.038-0.029-0.076-0.047-0.116c0.014-0.6,0.047-1.195,0.047-1.799
		c0-43.813-35.52-79.333-79.333-79.333c-40.316,0-73.585,30.084-78.645,69.022c-0.031,0.224-0.058,0.448-0.084,0.674
		c-0.105,0.866-0.2,1.734-0.276,2.611c-0.046,0.486-0.076,0.969-0.11,1.454c-0.046,0.675-0.099,1.346-0.126,2.024
		c-0.045,0.965-0.064,1.926-0.074,2.884c0,0.224-0.017,0.442-0.017,0.663c0,0.027,0.001,0.055,0.001,0.079
		c0,0.033-0.001,0.067-0.001,0.102C322.41,98.766,322.444,99.997,322.507,101.23z"/>
	<path d="M400.162,325.203c0.524,0,1.055,0,1.579,0c51.604,0,103.308,0,155.871,0c2.681-45.973,8.644-57.348-0.611-83.281
		c-16.46-41.699-69.763-44.837-77.048-45.843c-8.053-1.111-16.373-0.255-25.086-0.255c-9.379,31.825-12.854,64.669-30.306,94.181
		c-3.187-19.194,0,0-8.604-54.089c11.17-39.833,4.079-14.694,11.17-39.833c-8.731,0-43.619,0-52.354,0
		c11.169,39.833,2.109,7.403,11.169,39.833c-8.604,54.089-5.417,34.895-8.604,54.089c-17.452-29.512-20.925-62.355-30.305-94.181
		c-8.713,0-17.033-0.856-25.088,0.255c-7.283,1.006-60.588,4.144-77.047,45.843c-9.256,25.934-3.292,37.309-0.61,83.281
		C296.858,325.203,348.558,325.203,400.162,325.203z"/>
	<polygon points="244.739,413.102 284.739,781.98 514.174,781.98 554.174,413.102 	"/>
	<polygon points="679.795,339.916 120.205,339.916 150.205,469.102 233.703,469.102 225.786,396.093 573.125,396.093 
		565.207,469.102 649.795,469.102 	"/>
</g>
</svg>
