<?xml version="1.0" encoding="utf-8"?>
<!-- Generator: Adobe Illustrator 17.1.0, SVG Export Plug-In . SVG Version: 6.00 Build 0)  -->
<!DOCTYPE svg PUBLIC "-//W3C//DTD SVG 1.1//EN" "http://www.w3.org/Graphics/SVG/1.1/DTD/svg11.dtd">
<svg version="1.1" id="Layer_1" xmlns="http://www.w3.org/2000/svg" xmlns:xlink="http://www.w3.org/1999/xlink" x="0px" y="0px"
	 width="800px" height="800px" viewBox="0 0 800 800" enable-background="new 0 0 800 800" xml:space="preserve">
<circle cx="383.5" cy="459.2" r="15"/>
<g>
	<path d="M232.6,642L232.6,642L232.6,642c-0.2-1.1-0.4-2.1-0.8-3.1c-2.6-9.8-8.4-27.7-11-35.7c-0.3-1.4-0.8-2.7-1.3-4l0,0l0,0
		c-1.6-3.5-4.3-6.4-7.5-8.3l0,0c-0.2-0.1-0.6-0.4-1.2-0.6c-0.2-0.1-0.4-0.2-0.7-0.3c-6.4-3-26.1-10.9-26.1-10.9l0,0
		c-9.9-4.3-20.1-7.9-30.5-11.6l0,0l0,0l0,0l0,0c-1.9,7.8-19.5,59.2-22.3,66.3L129,586c0.7-1.1,1.3-2.4,1.8-3.7l7.4-14.6
		c-5.2,4.3-13,7.1-21.7,7.1c-8.5,0-16.1-2.6-21.3-6.8l7.2,14.3c0.6,1.2,1.1,2.5,1.8,3.7l-2.2,47.8c-2.8-7.1-20.5-58.5-22.3-66.3l0,0
		l0,0l0,0l0,0c-10.4,3.7-20.6,7.4-30.5,11.6l0,0c0,0-19.7,7.9-26.1,10.9c-0.2,0.1-0.4,0.2-0.7,0.3c-0.6,0.3-1,0.5-1.2,0.6l0,0
		c-3.3,2-5.9,4.9-7.5,8.3l0,0l0,0c-0.6,1.3-1,2.6-1.3,4c-2.6,8-8.5,25.9-11,35.7c-0.3,1-0.6,2.1-0.8,3.1l0,0l0,0
		c-0.1,0.9-0.2,1.9-0.2,2.9c0,10.5,8.5,19,19,19h18.2c26,0,52,0,78,0c0.3,0,0.7,0,1,0l0,0c0.3,0,0.7,0,1,0c26,0,52,0,78,0h18.2
		c10.5,0,19-8.5,19-19C232.8,643.9,232.7,642.9,232.6,642z"/>
	<path d="M166.2,478.9c0-3.4,0.7-15.6,0.7-18.3c0-27.2-22.1-49.3-49.3-49.3l0,0l0,0h-0.1h-0.1l0,0l0,0c-0.3,0-0.6,0-0.9,0
		s-0.6,0-0.9,0l0,0l0,0h-0.1h-0.1l0,0l0,0c-27.2,0-49.3,22.1-49.3,49.3c0,2.8,0.7,15,0.7,18.3c-1.2,0-12.2-2.6-11,10.6
		c2.5,28,13.2,22.6,13.5,22.6c5.3,16.9,13.4,27.7,21.4,34.5c12.5,10.7,24.6,11.9,24.8,11.9c0.3,0,0.7,0,1,0l0,0l0,0c0.3,0,0.7,0,1,0
		c0.2,0,12.2-1.2,24.7-11.8c8.1-6.9,16.3-17.7,21.6-34.6c0.3,0,11,5.4,13.5-22.6C178.4,476.3,167.4,478.9,166.2,478.9z"/>
</g>
<g>
	<path d="M799.6,642L799.6,642L799.6,642c-0.2-1.1-0.4-2.1-0.8-3.1c-2.6-9.8-8.4-27.7-11-35.7c-0.3-1.4-0.8-2.7-1.3-4l0,0l0,0
		c-1.6-3.5-4.3-6.4-7.5-8.3l0,0c-0.2-0.1-0.6-0.4-1.2-0.6c-0.2-0.1-0.4-0.2-0.7-0.3c-6.4-3-26.1-10.9-26.1-10.9l0,0
		c-9.9-4.3-20.1-7.9-30.5-11.6l0,0l0,0l0,0l0,0c-1.9,7.8-19.5,59.2-22.3,66.3L696,586c0.7-1.1,1.3-2.4,1.8-3.7l7.4-14.6
		c-5.2,4.3-13,7.1-21.7,7.1c-8.5,0-16.1-2.6-21.3-6.8l7.2,14.3c0.6,1.2,1.1,2.5,1.8,3.7l-2.2,47.8c-2.8-7.1-20.5-58.5-22.3-66.3l0,0
		l0,0l0,0l0,0c-10.4,3.7-20.6,7.4-30.5,11.6l0,0c0,0-19.7,7.9-26.1,10.9c-0.2,0.1-0.4,0.2-0.7,0.3c-0.6,0.3-1,0.5-1.2,0.6l0,0
		c-3.3,2-5.9,4.9-7.5,8.3l0,0l0,0c-0.6,1.3-1,2.6-1.3,4c-2.6,8-8.5,25.9-11,35.7c-0.3,1-0.6,2.1-0.8,3.1l0,0l0,0
		c-0.1,0.9-0.2,1.9-0.2,2.9c0,10.5,8.5,19,19,19h18.2c26,0,52,0,78,0c0.3,0,0.7,0,1,0l0,0c0.3,0,0.7,0,1,0c26,0,52,0,78,0h18.2
		c10.5,0,19-8.5,19-19C799.8,643.9,799.7,642.9,799.6,642z"/>
	<path d="M733.2,478.9c0-3.4,0.7-15.6,0.7-18.3c0-27.2-22.1-49.3-49.3-49.3l0,0l0,0h-0.1h-0.1l0,0l0,0c-0.3,0-0.6,0-0.9,0
		c-0.3,0-0.6,0-0.9,0l0,0l0,0h-0.1h-0.1l0,0l0,0c-27.2,0-49.3,22.1-49.3,49.3c0,2.8,0.7,15,0.7,18.3c-1.2,0-12.2-2.6-11,10.6
		c2.5,28,13.2,22.6,13.5,22.6c5.3,16.9,13.4,27.7,21.4,34.5c12.5,10.7,24.6,11.9,24.8,11.9c0.3,0,0.7,0,1,0l0,0l0,0c0.3,0,0.7,0,1,0
		c0.2,0,12.2-1.2,24.7-11.8c8.1-6.9,16.3-17.7,21.6-34.6c0.3,0,11,5.4,13.5-22.6C745.4,476.3,734.4,478.9,733.2,478.9z"/>
</g>
<path d="M383.5,38.5c-124.2,0-224.8,66.2-224.8,147.8s100.6,147.8,224.8,147.8c1.3,0,2.6,0,3.9,0c0.2,0,0.5,0,0.7,0s0.3,0,0.5,0
	c121.8-1.8,219.7-67.2,219.7-147.7C608.3,104.6,507.7,38.5,383.5,38.5z"/>
<circle cx="383.5" cy="397.7" r="30.4"/>
<circle cx="608.3" cy="334" r="30.4"/>
<circle cx="186" cy="334" r="30.4"/>
<circle cx="653.5" cy="374.7" r="15"/>
<circle cx="140.6" cy="376.1" r="15"/>
<g>
	<path d="M499.6,739.6L499.6,739.6L499.6,739.6c-0.2-1.1-0.4-2.1-0.8-3.1c-2.6-9.8-8.4-27.7-11-35.7c-0.3-1.4-0.8-2.7-1.3-4l0,0l0,0
		c-1.6-3.5-4.3-6.4-7.5-8.3l0,0c-0.2-0.1-0.6-0.4-1.2-0.6c-0.2-0.1-0.4-0.2-0.7-0.3c-6.4-3-26.1-10.9-26.1-10.9l0,0
		c-9.9-4.3-20.1-7.9-30.5-11.6l0,0l0,0l0,0l0,0c-1.9,7.8-19.5,59.2-22.3,66.3l-2.2-47.8c0.7-1.1,1.3-2.4,1.8-3.7l7.4-14.6
		c-5.2,4.3-13,7.1-21.7,7.1c-8.5,0-16.1-2.6-21.3-6.8l7.2,14.3c0.6,1.2,1.1,2.5,1.8,3.7l-2.2,47.8c-2.8-7.1-20.5-58.5-22.3-66.3l0,0
		l0,0l0,0l0,0c-10.4,3.7-20.6,7.4-30.5,11.6l0,0c0,0-19.7,7.9-26.1,10.9c-0.2,0.1-0.4,0.2-0.7,0.3c-0.6,0.3-1,0.5-1.2,0.6l0,0
		c-3.3,2-5.9,4.9-7.5,8.3l0,0l0,0c-0.6,1.3-1,2.6-1.3,4c-2.6,8-8.5,25.9-11,35.7c-0.3,1-0.6,2.1-0.8,3.1l0,0l0,0
		c-0.1,0.9-0.2,1.9-0.2,2.9c0,10.5,8.5,19,19,19h18.2c26,0,52,0,78,0c0.3,0,0.7,0,1,0l0,0c0.3,0,0.7,0,1,0c26,0,52,0,78,0h18.2
		c10.5,0,19-8.5,19-19C499.8,741.5,499.7,740.5,499.6,739.6z"/>
	<path d="M433.2,576.5c0-3.4,0.7-15.6,0.7-18.3c0-27.2-22.1-49.3-49.3-49.3l0,0l0,0h-0.1h-0.1l0,0l0,0c-0.3,0-0.6,0-0.9,0
		s-0.6,0-0.9,0l0,0l0,0h-0.1h-0.1l0,0l0,0c-27.2,0-49.3,22.1-49.3,49.3c0,2.8,0.7,15,0.7,18.3c-1.2,0-12.2-2.6-11,10.6
		c2.5,28,13.2,22.6,13.5,22.6c5.3,16.9,13.4,27.7,21.4,34.5c12.5,10.7,24.6,11.9,24.8,11.9c0.3,0,0.7,0,1,0l0,0l0,0c0.3,0,0.7,0,1,0
		c0.2,0,12.2-1.2,24.7-11.8c8.1-6.9,16.3-17.7,21.6-34.6c0.3,0,11,5.4,13.5-22.6C445.4,573.9,434.4,576.5,433.2,576.5z"/>
</g>
</svg>
