<?xml version="1.0" encoding="utf-8"?>
<!-- Generator: Adobe Illustrator 17.1.0, SVG Export Plug-In . SVG Version: 6.00 Build 0)  -->
<!DOCTYPE svg PUBLIC "-//W3C//DTD SVG 1.1//EN" "http://www.w3.org/Graphics/SVG/1.1/DTD/svg11.dtd">
<svg version="1.1" id="Layer_1" xmlns="http://www.w3.org/2000/svg" xmlns:xlink="http://www.w3.org/1999/xlink" x="0px" y="0px"
	 width="800px" height="800px" viewBox="0 0 800 800" enable-background="new 0 0 800 800" xml:space="preserve">
<path d="M508.2,741.5L508.2,741.5L508.2,741.5c-0.4-2.3-0.9-4.5-1.6-6.7c-5.5-20.9-17.9-59-23.5-76c-0.6-3-1.6-5.8-2.8-8.5
	c0-0.1,0-0.1,0-0.1l0,0c-3.4-7.4-9.1-13.6-16-17.8l0,0c-0.4-0.3-1.3-0.8-2.5-1.3c-0.5-0.2-0.9-0.5-1.4-0.7
	c-13.6-6.4-55.6-23.2-55.6-23.2l0,0c-21-9.1-42.7-16.9-64.9-24.7l0,0l0,0l0,0l0,0c-4,16.5-41.6,126-47.6,141.1l-4.8-101.7
	c1.6-2.4,2.7-5.1,3.9-7.8l15.7-31c-11,9.2-27.6,15.1-46.1,15.1c-18.1,0-34.3-5.6-45.3-14.4l15.4,30.4c1.2,2.6,2.4,5.4,3.9,7.8
	l-4.8,101.7c-6-15.2-43.6-124.6-47.6-141.1l0,0l0,0l0,0l0,0c-22.2,7.9-43.9,15.7-64.9,24.7l0,0c0,0-42,16.8-55.6,23.2
	c-0.5,0.2-0.9,0.4-1.4,0.7c-1.2,0.6-2,1-2.5,1.3l0,0c-7,4.2-12.6,10.3-16,17.8l0,0c0,0,0,0,0,0.1c-1.2,2.7-2.2,5.6-2.8,8.5
	c-5.6,17-18.1,55-23.5,76c-0.7,2.2-1.3,4.4-1.6,6.7l0,0l0,0c-0.3,2-0.5,4.1-0.5,6.2c0,22.4,18.1,40.5,40.5,40.5l414.2-0.1
	c22.4,0,40.5-18.1,40.5-40.5C508.7,745.6,508.5,743.6,508.2,741.5z"/>
<path d="M367,394.2c0-7.2,1.4-33.1,1.4-39.1c0-57.9-47-104.9-104.9-104.9l0,0l0,0c-0.1,0-0.1,0-0.2,0s-0.1,0-0.2,0l0,0l0,0
	c-0.7,0-1.3,0-2,0s-1.3,0-2,0l0,0l0,0c-0.1,0-0.1,0-0.2,0s-0.1,0-0.2,0l0,0l0,0c-57.9,0-104.9,47-104.9,104.9c0,6,1.4,31.9,1.4,39.1
	c-2.6,0.1-26-5.5-23.5,22.6c5.3,59.7,28.1,48.1,28.8,48.1c11.2,36,28.6,58.9,45.6,73.5c26.6,22.8,52.4,25.3,52.8,25.3
	c0.7,0,1.5,0.1,2.2,0.1l0,0l0,0c0.7,0,1.4,0,2.2-0.1c0.4,0,26-2.5,52.5-25c17.1-14.6,34.6-37.6,45.9-73.8c0.7,0,23.4,11.6,28.8-48.1
	C393,388.7,369.5,394.3,367,394.2z"/>
<path d="M587.4,80.1c-116.2,0-210.3,73.3-210.3,163.7c0,57.8,38.5,108.6,96.5,137.7c0,0-3.4,19.8-18.1,35.6
	c-3.8,3.9-20.2,18.4-21.4,19.4c-0.9,0.8-1.2,2-1.2,3.3c0.1,2.6,1.7,4.9,4.2,5.3c0.8,0.1,2.3,0.2,3.3,0.2
	c31.7-0.8,86.5-8.9,121.9-38.9c8.2,0.8,16.6,1.2,25.1,1.2c116.2,0,210.3-73.3,210.3-163.7C797.7,153.4,703.5,80.1,587.4,80.1z
	 M595.4,336.2v28.9h-17.5V337c-16.1-0.3-32.8-5.3-42.5-12.2l6.7-18.6c10,6.7,24.5,12,40,12c19.7,0,33.1-11.4,33.1-27.2
	c0-15.3-10.8-24.7-31.4-33.1c-28.4-11.1-45.9-23.9-45.9-48.1c0-23.1,16.4-40.6,42-44.8v-28.1h17.2v27c16.7,0.6,28.1,5,36.1,9.7
	l-6.9,18.3c-5.8-3.3-17.2-9.5-35-9.5c-21.4,0-29.5,12.8-29.5,23.9c0,14.5,10.3,21.7,34.5,31.7c28.6,11.7,43.1,26.1,43.1,50.9
	C639.4,310.9,624.1,331.5,595.4,336.2z"/>
</svg>
