<?xml version="1.0" encoding="utf-8"?>
<!-- Generator: Adobe Illustrator 16.0.0, SVG Export Plug-In . SVG Version: 6.00 Build 0)  -->
<!DOCTYPE svg PUBLIC "-//W3C//DTD SVG 1.1//EN" "http://www.w3.org/Graphics/SVG/1.1/DTD/svg11.dtd">
<svg version="1.1" id="Layer_1" xmlns="http://www.w3.org/2000/svg" xmlns:xlink="http://www.w3.org/1999/xlink" x="0px" y="0px"
	 width="800px" height="800px" viewBox="0 0 800 800" enable-background="new 0 0 800 800" xml:space="preserve">
<path d="M577.1,527.4c-48.2-20-68.7-34.4-68.7-63.2c0-22.2,16.1-47.7,58.8-47.7c35.5,0,58.2,12.2,69.9,18.9l13.9-36.6
	c-16.1-9.4-38.8-18.3-72.1-19.4v-53.8h-34.4v56c-51,8.3-83.7,43.2-83.7,89.2c0,48.2,34.9,73.7,91.5,95.9c41,16.6,62.6,35.5,62.6,66
	c0,31.6-26.6,54.3-66,54.3c-31.1,0-59.9-10.5-79.8-23.8l-13.3,37.1c19.4,13.9,52.7,23.8,84.8,24.4v56h34.9v-57.7
	c57.1-9.4,87.6-50.5,87.6-94.2C663,579.5,634.2,550.7,577.1,527.4z"/>
<g>
	<circle cx="241.8" cy="95.3" r="89.7"/>
	<path d="M534.2,198.1H341.6h-1.7h-35.3l-2.8,17.4l-8.4,52.3l-10.2,63.3h-12.6h-0.7l-8.6-97.4l10-35.6h-59.1l10,35.6l-8.6,97.4H213
		h-12.6l-8-50l-10.1-62.9l-3.2-20.1h-37h-0.1l0,0c-27.7,0.1-50.2,22.6-50.2,50.3v214.5c0,27.8,22.5,50.3,50.3,50.3V744
		c0,27.8,22.5,50.3,50.3,50.3c24.6,0,45-17.6,49.5-40.9c4.4,23.3,24.9,40.9,49.5,40.9c27.8,0,50.3-22.5,50.3-50.3V488.1v-89.4v-99.9
		h192.6c27.8,0,50.3-22.5,50.3-50.3C584.5,220.6,562,198.1,534.2,198.1z"/>
</g>
</svg>
