<?xml version="1.0" encoding="utf-8"?>
<!-- Generator: Adobe Illustrator 17.1.0, SVG Export Plug-In . SVG Version: 6.00 Build 0)  -->
<!DOCTYPE svg PUBLIC "-//W3C//DTD SVG 1.1//EN" "http://www.w3.org/Graphics/SVG/1.1/DTD/svg11.dtd">
<svg version="1.1" id="Layer_1" xmlns="http://www.w3.org/2000/svg" xmlns:xlink="http://www.w3.org/1999/xlink" x="0px" y="0px"
	 width="800px" height="800px" viewBox="0 0 800 800" enable-background="new 0 0 800 800" xml:space="preserve">
<circle cx="395.1" cy="104" r="90"/>
<path d="M589.4,461.1c0-0.5,0-0.8,0-0.8c-0.1-1.3-0.3-2.6-0.5-3.9c-2.1-17.3-5.6-35.2-5.6-35.2l-19-121.7l-2.3-14.9
	c-2.3-14-8-26.8-18.3-38.8c-23.9-27.7-88.3-30.5-91-30.6c-0.1,0-0.1,0-0.1,0s-33.4,116.5-33.8,117.8c0,0,0,0.1,0,0.1l0-0.1
	c-0.4-9.3-11.1-92.7-11.1-92.7s0.1-0.1,0.2-0.4l15-24.6h-53.4l15,24.6c0.1,0.2,0.2,0.4,0.2,0.4s-10.7,83.3-11.1,92.7l0,0.1
	c0,0,0,0,0-0.1c-0.4-1.3-34.2-119.1-34.4-119.7c-28.4,0-61.3,0-89.6,0c6.1-13.1,24.2-69,35.1-98.5c9.3-25.2-11-54.7-37.8-54.2
	c-24.1,0.4-35.9,18.2-43.2,36.4c-17.5,43.5-33.1,87.8-48.9,132.1c-1.8,4.9-3.5,9.9-5.3,14.8c-0.5,2.7-0.7,5.5-0.7,8.3
	c0,16.6,8.5,31.1,21.4,39.6c7.4,4.9,16.3,7.7,25.8,7.7h32.1h56.9c0,9.3,0,16.9,0,24.5c0,59.4,0,118.7,0.1,178.1c0,0,0.1-0.1,0.1-0.1
	c0,0.2,0,0.4,0,0.7c0,75.3-0.3,150.5,0,225.8c0,2.6,0.2,10.6,0.2,12c0,31.9,25.8,57.8,57.6,58c23.9-0.2,44.3-14.8,53-35.6
	c0.9,0,0,0,0.9,0c8.7,20.7,29.1,35.4,53,35.6c31.9-0.2,57.6-26.1,57.6-58c0-1.4,0.2-9.4,0.2-12c0.3-75.3,0-150.5,0-225.8
	c0-0.2,0-0.4,0-0.7c0,0,0.1,0.1,0.1,0.1c7.8,12.9,22,21.6,38.3,21.6c24.7,0,44.8-20,44.8-44.8c0-0.2,0-0.5,0-0.7
	C590.4,473.5,590,467.4,589.4,461.1z"/>
<path d="M591.7,584.9c0-18.3-14.8-33.2-33.2-33.2c-18.3,0-33.2,14.8-33.2,33.2v137.3h0c0,0.2,0,0.4,0,0.7
	c0,18.3,14.8,33.2,33.2,33.2c18.3,0,33.2-14.8,33.2-33.2c0-0.2,0-0.4,0-0.7h0V584.9z"/>
</svg>
