<?xml version="1.0" encoding="utf-8"?>
<!-- Generator: Adobe Illustrator 16.0.0, SVG Export Plug-In . SVG Version: 6.00 Build 0)  -->
<!DOCTYPE svg PUBLIC "-//W3C//DTD SVG 1.1//EN" "http://www.w3.org/Graphics/SVG/1.1/DTD/svg11.dtd">
<svg version="1.1" id="Layer_1" xmlns="http://www.w3.org/2000/svg" xmlns:xlink="http://www.w3.org/1999/xlink" x="0px" y="0px"
	 width="800px" height="800px" viewBox="0 0 800 800" enable-background="new 0 0 800 800" xml:space="preserve">
<g>
	<path d="M721.051,674.249c-0.493-5.625-1.146-11.234-1.964-16.823c-0.001-0.007-3.267-18.134-3.896-20.901
		c-7.262-31.865-27.06-55.229-53.806-73.354c-5.002-3.39-10.194-6.33-15.45-9.093c-6.929-3.642-111.646-38.054-114.372-38.909
		c0.643,3.58,1.083,7.541,1.229,11.842c14.581,10.24,57.56,47.195,38.043,116.344c0,0-30.854-36.778-62.331-41.505
		C478.523,654.11,427.488,720.263,400,737.626c-27.487-17.363-78.522-83.516-108.502-135.777
		c-31.479,4.727-62.331,41.505-62.331,41.505C209.65,574.206,252.628,537.25,267.21,527.01c0.145-4.301,0.585-8.262,1.228-11.842
		c-2.726,0.855-107.444,35.267-114.372,38.909c-5.255,2.763-10.447,5.702-15.45,9.093c-26.746,18.123-46.544,41.488-53.806,73.354
		c-0.631,2.769-3.896,20.896-3.896,20.901c-0.818,5.589-1.472,11.198-1.964,16.823c-0.021,0.234-1.194,29.509-1.193,29.676
		c0,0.001,0.302,13.717,0.472,16.993c0.94,18.195,4.757,35.117,18.037,49.217c16.923,17.961,37.479,25.313,61.586,25.3
		c80.715-0.038,161.433-0.047,242.148-0.048c80.719,0.001,161.435,0.01,242.149,0.048c24.107,0.014,44.663-7.339,61.586-25.3
		c13.28-14.1,17.097-31.021,18.037-49.217c0.17-3.276,0.472-16.992,0.472-16.993C722.244,703.758,721.073,674.483,721.051,674.249z"
		/>
	<path d="M210.071,345.143c2.507,9.057,4.111,17.579,4.05,25.67c-0.021,2.696-0.227,5.345-0.646,7.948
		c-2.266,7.657-18.4,33.465-20.976,37.8c28.429,30.65,66.08,37.76,103.213,45.584c10.979,2.313,22.172,3.702,34.067,5.24
		c3.836,0.697,7.7,1.414,11.587,2.154L322.5,524.688c0,0-0.537,80.471,77.256,129.44h0.487
		c77.793-48.971,77.257-129.44,77.257-129.44l-18.866-55.147c3.887-0.74,7.751-1.457,11.587-2.154
		c11.896-1.538,23.088-2.929,34.067-5.239c37.134-7.825,74.784-14.935,103.214-45.584c-2.575-4.336-18.711-30.144-20.977-37.801
		c-0.42-2.604-0.625-5.252-0.646-7.948c-0.063-8.091,1.543-16.613,4.049-25.67c2.382-8.609,5.127-17.177,7.743-25.785
		c12.569-28.009,19.568-59.104,19.568-91.851c0-121.767-96.783-220.713-216.998-222.927V4.565c-0.082,0.001-0.162,0.006-0.244,0.007
		c-0.082-0.001-0.161-0.005-0.243-0.007V4.58C279.541,6.794,182.758,105.74,182.758,227.507c0,32.745,6.999,63.841,19.569,91.851
		C204.944,327.966,207.689,336.532,210.071,345.143z"/>
</g>
</svg>
