<?xml version="1.0" encoding="utf-8"?>
<!-- Generator: Adobe Illustrator 16.0.0, SVG Export Plug-In . SVG Version: 6.00 Build 0)  -->
<!DOCTYPE svg PUBLIC "-//W3C//DTD SVG 1.1//EN" "http://www.w3.org/Graphics/SVG/1.1/DTD/svg11.dtd">
<svg version="1.1" id="Layer_1" xmlns="http://www.w3.org/2000/svg" xmlns:xlink="http://www.w3.org/1999/xlink" x="0px" y="0px"
	 width="800px" height="800px" viewBox="0 0 800 800" enable-background="new 0 0 800 800" xml:space="preserve">
<path d="M717.841,208.818h0.003c0,90.051,0,179.204,0,269.796c-119.669,0.52-237.33,0.62-357.021,0.443c0-44.206,0-85.371,0-127.49
	c-17.63,0-33.229,0-52.014,0c0,44.361-1.585,86.458,0.541,128.362c1.495,29.474,29.195,51.68,59.068,51.744
	c114.688,0.25,229.375,0.142,344.063,0.619c34.096,0.145,60.201-24.021,60.039-60.542c-0.386-87.645-0.107-175.291-0.096-262.936
	h0.096v-45.693h-54.678L717.841,208.818L717.841,208.818z"/>
<path d="M779.983,94.875c-5.709-1.829-12.212-1.547-18.359-1.557c-57.313-0.103-114.627-0.062-171.938-0.062
	c-4.248,0-8.469,0-12.486,0c-1.767-18.784-17.569-33.482-36.814-33.482s-35.052,14.699-36.818,33.482c-4.446,0-9.112,0-13.799,0
	c-55.24,0-110.481-0.002-165.728,0.004c-4.833,0.001-9.71-0.352-14.491,0.173c-14.131,1.546-26.798,14.699-26.558,27.161
	c0.239,12.377,13.224,25.016,27.354,26.417c3.421,0.34,6.902,0.102,10.354,0.102c147.084,0.003,294.167,0.003,441.25,0.001
	c3.455,0,6.929,0.237,10.354-0.082c13.365-1.242,25.063-12.418,26.25-24.873C799.505,112.091,790.872,98.365,779.983,94.875z"/>
<path d="M362.557,223.224v-60.099h-54.678v60.099h2.078c17.43,0,33.452,0,50.521,0H362.557z"/>
<g>
	<circle cx="153.656" cy="135.419" r="89.043"/>
	<path d="M444.037,237.461H216.019l-11.131,69.235l-10.105,62.865h-13.219l-8.515-96.739l9.972-35.357h-58.729l9.972,35.357
		l-8.515,96.739h-13.219l-7.987-49.688l-10.042-62.466l-3.207-19.945H54.543h-0.125v0.003
		c-27.558,0.067-49.875,22.424-49.875,49.997v212.99c0,27.612,22.386,50,50,50V738c0,27.614,22.386,50,50,50
		c24.416,0,44.731-17.505,49.112-40.646C158.037,770.495,178.354,788,202.77,788c27.614,0,50-22.386,50-50V525.467v-88.813v-99.19
		h191.269c27.613,0,50-22.387,50-50C494.037,259.847,471.652,237.461,444.037,237.461z"/>
</g>
<path d="M688.087,740.201l0.038-0.039L568.5,620.537v-69.024h-56.055v64.062v4.963L392.821,740.162l0.038,0.039
	c-10.935,10.935-10.935,28.663,0,39.598c10.936,10.936,28.663,10.935,39.599,0l79.988-79.988v64.023c0,15.464,12.535,28,28,28
	c15.464,0,28-12.536,28-28h0.055v-64.023l79.988,79.988c10.936,10.935,28.663,10.936,39.599,0
	C699.022,768.864,699.022,751.136,688.087,740.201z"/>
</svg>
