<?xml version="1.0" encoding="utf-8"?>
<!-- Generator: Adobe Illustrator 17.1.0, SVG Export Plug-In . SVG Version: 6.00 Build 0)  -->
<!DOCTYPE svg PUBLIC "-//W3C//DTD SVG 1.1//EN" "http://www.w3.org/Graphics/SVG/1.1/DTD/svg11.dtd">
<svg version="1.1" id="Layer_1" xmlns="http://www.w3.org/2000/svg" xmlns:xlink="http://www.w3.org/1999/xlink" x="0px" y="0px"
	 width="800px" height="800px" viewBox="0 0 800 800" enable-background="new 0 0 800 800" xml:space="preserve">
<g>
	<g>
		<path d="M516.5,373.4L516.5,373.4C516.5,373.4,516.5,373.4,516.5,373.4c-0.2-1.1-0.4-2.1-0.8-3.2c-2.6-9.9-8.4-27.8-11.1-35.8
			c-0.3-1.4-0.8-2.8-1.3-4c0,0,0,0,0,0l0,0c-1.6-3.5-4.3-6.4-7.6-8.4c0,0,0,0,0,0c-0.2-0.1-0.6-0.4-1.2-0.6
			c-0.2-0.1-0.4-0.2-0.7-0.3c-6.4-3-26.2-11-26.2-11l0,0c-9.9-4.3-20.2-7.9-30.6-11.7h0l0,0l0,0l0,0c-1.9,7.8-19.6,59.4-22.4,66.5
			l-2.2-48c0.7-1.1,1.3-2.4,1.9-3.7l7.4-14.6c-5.2,4.3-13,7.1-21.8,7.1c-8.5,0-16.2-2.6-21.4-6.8l7.2,14.3c0.6,1.2,1.1,2.5,1.9,3.7
			l-2.2,48c-2.8-7.1-20.6-58.8-22.4-66.5l0,0c0,0,0,0,0,0l0,0l0,0c-10.5,3.7-20.7,7.4-30.6,11.7l0,0c0,0-19.8,7.9-26.2,11
			c-0.2,0.1-0.4,0.2-0.7,0.3c-0.6,0.3-1,0.5-1.2,0.6c0,0,0,0,0,0c-3.3,2-5.9,4.9-7.6,8.4l0,0c0,0,0,0,0,0c-0.6,1.3-1,2.6-1.3,4
			c-2.7,8-8.5,26-11.1,35.8c-0.3,1-0.6,2.1-0.8,3.2c0,0,0,0,0,0l0,0c-0.1,1-0.2,1.9-0.2,2.9c0,10.6,8.6,19.1,19.1,19.1l18.3,0
			c26.1,0,52.2,0,78.4,0c0.3,0,0.7,0,1,0l0,0c0.3,0,0.7,0,1,0c26.1,0,52.2,0,78.4,0l18.3,0c10.6,0,19.1-8.6,19.1-19.1
			C516.7,375.3,516.7,374.3,516.5,373.4z"/>
		<path d="M449.9,209.6c0-3.4,0.7-15.6,0.7-18.4c0-27.3-22.1-49.5-49.5-49.5l0,0c0,0,0,0,0,0c0,0-0.1,0-0.1,0c0,0-0.1,0-0.1,0l0,0
			c0,0,0,0,0,0c-0.3,0-0.6,0-0.9,0c-0.3,0-0.6,0-0.9,0c0,0,0,0,0,0h0c0,0-0.1,0-0.1,0c0,0-0.1,0-0.1,0c0,0,0,0,0,0s0,0,0,0
			c-27.3,0-49.5,22.1-49.5,49.5c0,2.8,0.7,15,0.7,18.4c-1.2,0.1-12.3-2.6-11.1,10.7c2.5,28.1,13.2,22.7,13.6,22.7
			c5.3,17,13.5,27.8,21.5,34.7c12.5,10.7,24.7,11.9,24.9,11.9c0.3,0,0.7,0,1,0l0,0l0,0c0.3,0,0.7,0,1,0c0.2,0,12.3-1.2,24.8-11.8
			c8.1-6.9,16.3-17.7,21.6-34.8c0.3,0,11,5.5,13.6-22.7C462.2,207,451.1,209.7,449.9,209.6z"/>
	</g>
	<g>
		<path d="M235,636.2L235,636.2C235,636.2,235,636.2,235,636.2c-0.2-1.1-0.4-2.1-0.8-3.2c-2.6-9.9-8.4-27.8-11.1-35.8
			c-0.3-1.4-0.8-2.8-1.3-4c0,0,0,0,0,0l0,0c-1.6-3.5-4.3-6.4-7.6-8.4c0,0,0,0,0,0c-0.2-0.1-0.6-0.4-1.2-0.6
			c-0.2-0.1-0.4-0.2-0.7-0.3c-6.4-3-26.2-11-26.2-11l0,0c-9.9-4.3-20.2-7.9-30.6-11.7h0l0,0l0,0h0c-1.9,7.8-19.6,59.4-22.4,66.5
			l-2.2-48c0.7-1.1,1.3-2.4,1.9-3.7l7.4-14.6c-5.2,4.3-13,7.1-21.8,7.1c-8.5,0-16.2-2.6-21.4-6.8l7.2,14.3c0.6,1.2,1.1,2.5,1.9,3.7
			l-2.2,48c-2.8-7.1-20.6-58.8-22.4-66.5l0,0c0,0,0,0,0,0l0,0l0,0c-10.5,3.7-20.7,7.4-30.6,11.7l0,0c0,0-19.8,7.9-26.2,11
			c-0.2,0.1-0.4,0.2-0.7,0.3c-0.6,0.3-1,0.5-1.2,0.6c0,0,0,0,0,0c-3.3,2-5.9,4.9-7.6,8.4l0,0c0,0,0,0,0,0c-0.6,1.3-1,2.6-1.3,4
			c-2.7,8-8.5,26-11.1,35.8c-0.3,1-0.6,2.1-0.8,3.2c0,0,0,0,0,0v0c-0.1,1-0.2,1.9-0.2,2.9c0,10.6,8.6,19.1,19.1,19.1l18.3,0
			c26.1,0,52.2,0,78.3,0c0.3,0,0.7,0,1,0l0,0c0.3,0,0.7,0,1,0c26.1,0,52.2,0,78.3,0l18.3,0c10.6,0,19.1-8.6,19.1-19.1
			C235.2,638.2,235.1,637.2,235,636.2z"/>
		<path d="M168.4,472.5c0-3.4,0.7-15.6,0.7-18.4c0-27.3-22.1-49.5-49.5-49.5l0,0c0,0,0,0,0,0c0,0-0.1,0-0.1,0c0,0-0.1,0-0.1,0l0,0
			c0,0,0,0,0,0c-0.3,0-0.6,0-0.9,0c-0.3,0-0.6,0-0.9,0c0,0,0,0,0,0h0c0,0-0.1,0-0.1,0c0,0-0.1,0-0.1,0c0,0,0,0,0,0s0,0,0,0
			c-27.3,0-49.5,22.1-49.5,49.5c0,2.8,0.7,15,0.7,18.4c-1.2,0-12.3-2.6-11.1,10.7c2.5,28.1,13.2,22.7,13.6,22.7
			c5.3,17,13.5,27.8,21.5,34.7c12.5,10.7,24.7,11.9,24.9,11.9c0.3,0,0.7,0,1,0l0,0l0,0c0.3,0,0.7,0,1,0c0.2,0,12.3-1.2,24.8-11.8
			c8.1-6.9,16.3-17.7,21.6-34.8c0.3,0,11,5.5,13.6-22.7C180.6,469.9,169.6,472.5,168.4,472.5z"/>
	</g>
	<path d="M252.4,296.6c0-3.4,0.7-15.6,0.7-18.4c0-27.3-22.1-49.5-49.5-49.5l0,0c0,0,0,0,0,0c0,0-0.1,0-0.1,0c0,0-0.1,0-0.1,0l0,0
		c0,0,0,0,0,0c-0.3,0-0.6,0-0.9,0c-0.3,0-0.6,0-0.9,0c0,0,0,0,0,0h0c0,0-0.1,0-0.1,0c0,0-0.1,0-0.1,0c0,0,0,0,0,0s0,0,0,0
		c-27.3,0-49.5,22.1-49.5,49.5c0,2.8,0.7,15,0.7,18.4c-1.2,0-12.3-2.6-11.1,10.7c2.5,28.1,13.2,22.7,13.6,22.7
		c5.3,17,13.5,27.8,21.5,34.7c12.5,10.7,24.7,11.9,24.9,11.9c0.3,0,0.7,0,1,0l0,0l0,0c0.3,0,0.7,0,1,0c0.2,0,12.3-1.2,24.8-11.8
		c8.1-6.9,16.3-17.7,21.6-34.8c0.3,0,11,5.5,13.6-22.7C264.6,294,253.6,296.7,252.4,296.6z"/>
	<g>
		<path d="M565,636.2L565,636.2C565,636.2,565,636.2,565,636.2c0.2-1.1,0.4-2.1,0.8-3.2c2.6-9.9,8.4-27.8,11.1-35.8
			c0.3-1.4,0.8-2.8,1.3-4c0,0,0,0,0,0l0,0c1.6-3.5,4.3-6.4,7.6-8.4c0,0,0,0,0,0c0.2-0.1,0.6-0.4,1.2-0.6c0.2-0.1,0.4-0.2,0.7-0.3
			c6.4-3,26.2-11,26.2-11l0,0c9.9-4.3,20.2-7.9,30.6-11.7l0,0l0,0l0,0h0c1.9,7.8,19.6,59.4,22.4,66.5l2.2-48
			c-0.7-1.1-1.3-2.4-1.9-3.7l-7.4-14.6c5.2,4.3,13,7.1,21.8,7.1c8.5,0,16.2-2.6,21.4-6.8l-7.2,14.3c-0.6,1.2-1.1,2.5-1.9,3.7l2.2,48
			c2.8-7.1,20.6-58.8,22.4-66.5l0,0c0,0,0,0,0,0l0,0l0,0c10.5,3.7,20.7,7.4,30.6,11.7l0,0c0,0,19.8,7.9,26.2,11
			c0.2,0.1,0.4,0.2,0.7,0.3c0.6,0.3,1,0.5,1.2,0.6c0,0,0,0,0,0c3.3,2,5.9,4.9,7.6,8.4l0,0c0,0,0,0,0,0c0.6,1.3,1,2.6,1.3,4
			c2.7,8,8.5,26,11.1,35.8c0.3,1,0.6,2.1,0.8,3.2c0,0,0,0,0,0v0c0.1,1,0.2,1.9,0.2,2.9c0,10.6-8.6,19.1-19.1,19.1l-18.3,0
			c-26.1,0-52.2,0-78.3,0c-0.3,0-0.7,0-1,0c0,0,0,0,0,0c-0.3,0-0.7,0-1,0c-26.1,0-52.2,0-78.3,0l-18.3,0c-10.6,0-19.1-8.6-19.1-19.1
			C564.8,638.2,564.9,637.2,565,636.2z"/>
		<path d="M631.6,472.5c0-3.4-0.7-15.6-0.7-18.4c0-27.3,22.1-49.5,49.5-49.5c0,0,0,0,0,0l0,0c0,0,0.1,0,0.1,0c0,0,0.1,0,0.1,0
			c0,0,0,0,0,0c0,0,0,0,0,0c0.3,0,0.6,0,0.9,0c0.3,0,0.6,0,0.9,0c0,0,0,0,0,0h0c0,0,0.1,0,0.1,0c0,0,0.1,0,0.1,0c0,0,0,0,0,0
			s0,0,0,0c27.3,0,49.5,22.1,49.5,49.5c0,2.8-0.7,15-0.7,18.4c1.2,0,12.3-2.6,11.1,10.7c-2.5,28.1-13.2,22.7-13.6,22.7
			c-5.3,17-13.5,27.8-21.5,34.7c-12.5,10.7-24.7,11.9-24.9,11.9c-0.3,0-0.7,0-1,0h0l0,0c-0.3,0-0.7,0-1,0c-0.2,0-12.3-1.2-24.8-11.8
			c-8.1-6.9-16.3-17.7-21.6-34.8c-0.3,0-11,5.5-13.6-22.7C619.4,469.9,630.4,472.5,631.6,472.5z"/>
	</g>
	<path d="M547.6,296.6c0-3.4-0.7-15.6-0.7-18.4c0-27.3,22.1-49.5,49.5-49.5c0,0,0,0,0,0l0,0c0,0,0.1,0,0.1,0c0,0,0.1,0,0.1,0
		c0,0,0,0,0,0c0,0,0,0,0,0c0.3,0,0.6,0,0.9,0c0.3,0,0.6,0,0.9,0c0,0,0,0,0,0l0,0c0,0,0.1,0,0.1,0c0,0,0.1,0,0.1,0c0,0,0,0,0,0l0,0
		c27.3,0,49.5,22.1,49.5,49.5c0,2.8-0.7,15-0.7,18.4c1.2,0,12.3-2.6,11.1,10.7c-2.5,28.1-13.2,22.7-13.6,22.7
		c-5.3,17-13.5,27.8-21.5,34.7c-12.5,10.7-24.7,11.9-24.9,11.9c-0.3,0-0.7,0-1,0h0l0,0c-0.3,0-0.7,0-1,0c-0.2,0-12.3-1.2-24.8-11.8
		c-8.1-6.9-16.3-17.7-21.6-34.8c-0.3,0-11,5.5-13.6-22.7C535.4,294,546.4,296.7,547.6,296.6z"/>
	<path d="M538.5,638.3c0,11-9,20-20,20H283.3c-11,0-20-9-20-20l20-195.2c1.4-12.2,9-20,20-20h195.2c11,0,18.8,8.7,20,20L538.5,638.3
		z"/>
</g>
</svg>
