<?xml version="1.0" encoding="utf-8"?>
<!-- Generator: Adobe Illustrator 17.1.0, SVG Export Plug-In . SVG Version: 6.00 Build 0)  -->
<!DOCTYPE svg PUBLIC "-//W3C//DTD SVG 1.1//EN" "http://www.w3.org/Graphics/SVG/1.1/DTD/svg11.dtd">
<svg version="1.1" id="Layer_1" xmlns="http://www.w3.org/2000/svg" xmlns:xlink="http://www.w3.org/1999/xlink" x="0px" y="0px"
	 width="800px" height="800px" viewBox="0 0 800 800" enable-background="new 0 0 800 800" xml:space="preserve">
<g>
	<path d="M541.8,527.7L541.8,527.7C541.8,527.7,541.8,527.7,541.8,527.7c-0.2-1.3-0.5-2.6-0.9-3.8c-3.1-12-10.3-33.9-13.5-43.6
		c-0.4-1.7-0.9-3.4-1.6-4.9c0,0,0,0,0,0l0,0c-2-4.3-5.2-7.8-9.2-10.2c0,0,0,0,0,0c-0.3-0.2-0.7-0.4-1.4-0.8
		c-0.3-0.1-0.5-0.3-0.8-0.4c-7.8-3.7-32-13.3-32-13.3l0,0c-12.1-5.2-24.6-9.7-37.3-14.2l0,0v0c0,0,0,0,0,0l0,0
		c-2.3,9.5-23.9,72.4-27.3,81.1l-2.7-58.4c0.9-1.4,1.5-3,2.3-4.5l9-17.8c-6.3,5.3-15.9,8.6-26.5,8.6c-10.4,0-19.7-3.2-26-8.3
		l8.8,17.4c0.7,1.5,1.4,3.1,2.3,4.5l-2.7,58.4c-3.4-8.7-25-71.6-27.3-81.1l0,0c0,0,0,0,0,0v0l0,0c-12.7,4.5-25.2,9-37.3,14.2l0,0
		c0,0-24.1,9.7-32,13.3c-0.3,0.1-0.5,0.3-0.8,0.4c-0.7,0.3-1.2,0.6-1.4,0.8c0,0,0,0,0,0c-4,2.4-7.2,5.9-9.2,10.2l0,0c0,0,0,0,0,0
		c-0.7,1.6-1.3,3.2-1.6,4.9c-3.2,9.8-10.4,31.6-13.5,43.6c-0.4,1.2-0.7,2.5-0.9,3.8c0,0,0,0,0,0l0,0c-0.2,1.2-0.3,2.4-0.3,3.6
		c0,12.9,10.4,23.3,23.3,23.3l22.2,0c31.8,0,63.6,0,95.5,0c0.4,0,0.8,0,1.2,0l0,0c0.4,0,0.8,0,1.2,0c31.8,0,63.6,0,95.5,0l22.2,0
		c12.9,0,23.3-10.4,23.3-23.3C542.1,530,542,528.9,541.8,527.7z"/>
	<path d="M460.7,328.2c0-4.1,0.8-19,0.8-22.4c0-33.3-27-60.3-60.3-60.3c0,0,0,0,0,0h0c0,0-0.1,0-0.1,0s-0.1,0-0.1,0c0,0,0,0,0,0h0
		c-0.4,0-0.8,0-1.1,0c-0.4,0-0.8,0-1.1,0h0h0c0,0-0.1,0-0.1,0c0,0-0.1,0-0.1,0c0,0,0,0,0,0s0,0,0,0c-33.3,0-60.3,27-60.3,60.3
		c0,3.4,0.8,18.3,0.8,22.4c-1.5,0.1-14.9-3.2-13.5,13c3.1,34.3,16.1,27.6,16.5,27.6c6.4,20.7,16.4,33.8,26.2,42.2
		c15.3,13.1,30.1,14.5,30.3,14.5c0.4,0,0.8,0,1.2,0l0,0l0,0c0.4,0,0.8,0,1.2,0c0.3,0,15-1.4,30.2-14.4c9.8-8.4,19.9-21.6,26.4-42.4
		c0.4,0,13.5,6.6,16.5-27.6C475.6,325,462.1,328.2,460.7,328.2z"/>
</g>
<g>
	<path d="M758,401.5l-88.2-88.8L593,410.1l39.3,31l15.7-19.9c-11.5,129.2-120.3,230.8-252.5,230.8c-31,0-61.2-5.5-89.8-16.4
		L286.5,686c34.8,13.2,71.5,19.9,109,19.9c82.1,0,159.4-32,217.4-90.1c53.8-53.8,85.2-124,89.5-199.2l20,20.2L758,401.5z"/>
	<path d="M42,398.5l88.2,88.8l76.7-97.4l-39.3-31L152,378.9c11.5-129.2,120.3-230.8,252.5-230.8c31,0,61.2,5.5,89.8,16.4l19.1-50.5
		c-34.8-13.2-71.5-19.9-109-19.9c-82.1,0-159.4,32-217.4,90.1c-53.8,53.8-85.2,124-89.5,199.3l-20-20.2L42,398.5z"/>
</g>
</svg>
