<?xml version="1.0" encoding="utf-8"?>
<!-- Generator: Adobe Illustrator 16.0.0, SVG Export Plug-In . SVG Version: 6.00 Build 0)  -->
<!DOCTYPE svg PUBLIC "-//W3C//DTD SVG 1.1//EN" "http://www.w3.org/Graphics/SVG/1.1/DTD/svg11.dtd">
<svg version="1.1" id="Layer_1" xmlns="http://www.w3.org/2000/svg" xmlns:xlink="http://www.w3.org/1999/xlink" x="0px" y="0px"
	 width="800px" height="800px" viewBox="0 0 800 800" enable-background="new 0 0 800 800" xml:space="preserve">
<g>
	<circle cx="189.99" cy="97.414" r="89.043"/>
	<path d="M480.371,199.457H289.104h-1.722h-35.029l-2.782,17.306l-8.349,51.929l-10.105,62.865h-12.559h-0.66l-8.515-96.739
		l9.972-35.357h-58.729l9.971,35.357l-8.514,96.739h-0.66h-12.559l-7.987-49.688l-10.043-62.466l-3.206-19.945H90.877h-0.125v0.003
		c-27.558,0.067-49.875,22.424-49.875,49.997v212.99c0,27.612,22.386,50,50,50v229.183c0,27.614,22.386,50,50,50
		c24.416,0,44.73-17.505,49.112-40.646c4.382,23.142,24.697,40.646,49.113,40.646c27.614,0,50-22.386,50-50V487.462v-88.813v-99.19
		h191.269c27.613,0,50-22.387,50-50C530.371,221.842,507.986,199.457,480.371,199.457z"/>
</g>
<path d="M549.063,375.576c-113.583,0-205.99,92.407-205.99,205.99s92.407,205.99,205.99,205.99s205.99-92.407,205.99-205.99
	S662.646,375.576,549.063,375.576z M550.563,745.987c-16.202,0-33.253-15.638-46.78-42.904
	c-5.406-10.897-9.986-23.068-13.682-36.194c19.645,2.44,40.077,3.674,60.462,3.674s40.817-1.233,60.462-3.674
	c-3.695,13.126-8.275,25.297-13.682,36.194C583.816,730.35,566.765,745.987,550.563,745.987z M550.563,630.563
	c-24.106,0-47.389-1.779-68.763-5.161c-1.799-14.105-2.732-28.806-2.732-43.835s0.934-29.729,2.732-43.835
	c21.374-3.382,44.656-5.161,68.763-5.161s47.389,1.779,68.763,5.161c1.799,14.105,2.732,28.806,2.732,43.835
	s-0.934,29.729-2.732,43.835C597.951,628.783,574.669,630.563,550.563,630.563z M386.142,581.566
	c0-7.084,12.838-19.511,41.023-30.056c4.287-1.604,8.771-3.11,13.427-4.522c-1.007,11.317-1.524,22.876-1.524,34.578
	s0.518,23.261,1.524,34.578c-4.655-1.412-9.14-2.919-13.427-4.522C398.98,601.077,386.142,588.65,386.142,581.566z M550.563,417.146
	c16.202,0,33.253,15.638,46.78,42.904c5.406,10.897,9.986,23.068,13.682,36.194c-19.645-2.44-40.077-3.674-60.462-3.674
	s-40.817,1.233-60.462,3.674c3.695-13.126,8.275-25.297,13.682-36.194C517.31,432.783,534.361,417.146,550.563,417.146z
	 M660.533,546.988c4.655,1.412,9.14,2.919,13.427,4.522c28.186,10.545,41.023,22.972,41.023,30.056s-12.838,19.511-41.023,30.056
	c-4.287,1.604-8.771,3.11-13.427,4.522c1.007-11.317,1.524-22.876,1.524-34.578S661.54,558.306,660.533,546.988z M703.428,520.535
	c-14.397-6.76-31.143-12.314-49.362-16.642c-4.878-22.631-11.907-43.516-20.89-61.621c-0.905-1.824-1.831-3.599-2.768-5.352
	C663.35,455.521,689.344,485.038,703.428,520.535z M471.962,434.606c-1.37,2.481-2.708,5.036-4.013,7.666
	c-8.982,18.105-16.012,38.99-20.89,61.621c-19.796,4.702-37.853,10.852-53.047,18.422
	C408.51,484.508,436.452,453.313,471.962,434.606z M394.013,640.817c15.194,7.57,33.251,13.72,53.047,18.422
	c4.878,22.631,11.907,43.516,20.89,61.621c1.305,2.63,2.643,5.185,4.013,7.666C436.452,709.82,408.51,678.625,394.013,640.817z
	 M630.408,726.212c0.937-1.753,1.862-3.527,2.768-5.352c8.982-18.105,16.012-38.99,20.89-61.621
	c18.22-4.327,34.965-9.882,49.362-16.642C689.344,678.095,663.35,707.612,630.408,726.212z"/>
</svg>
