<?xml version="1.0" encoding="utf-8"?>
<!-- Generator: Adobe Illustrator 16.0.0, SVG Export Plug-In . SVG Version: 6.00 Build 0)  -->
<!DOCTYPE svg PUBLIC "-//W3C//DTD SVG 1.1//EN" "http://www.w3.org/Graphics/SVG/1.1/DTD/svg11.dtd">
<svg version="1.1" id="Layer_1" xmlns="http://www.w3.org/2000/svg" xmlns:xlink="http://www.w3.org/1999/xlink" x="0px" y="0px"
	 width="800px" height="800px" viewBox="0 0 800 800" enable-background="new 0 0 800 800" xml:space="preserve">
<g>
	<path stroke="#000000" stroke-miterlimit="10" d="M200.38,176.395c0.125,0,0.249-0.004,0.374-0.005
		c0.125,0,0.249,0.005,0.374,0.005c47.646,0,86.272-38.626,86.272-86.273c0-7.558-0.975-14.888-2.8-21.874
		c-9.563-37.234-43.353-64.752-83.57-64.752c-0.125,0-0.249,0.005-0.374,0.005c-0.125-0.001-0.249-0.005-0.374-0.005
		c-47.647,0-86.272,38.625-86.272,86.273c0,7.564,0.977,14.9,2.805,21.891C126.382,148.884,160.168,176.395,200.38,176.395z"/>
	<path d="M291.605,212.587h-21.534l-21.556,107.667h-25.549l-6.653-72.276c1.979-11.013,6.716-21.317,11.778-32.096
		c0,0,0.91-1.931,1.368-2.905l0,0c-0.096,0-0.183,0-0.28,0c0.065-0.14,0.128-0.273,0.186-0.39c-30.277,0-27.839,0-57.414,0h-0.001
		c0.055,0.118,0.118,0.25,0.185,0.39c-0.031,0-0.059,0-0.089,0c0,0,0,0-0.001,0c0.458,0.974,1.368,2.905,1.368,2.905
		c4.395,9.357,8.542,18.359,10.854,27.776c0.313,1.301,0.591,2.61,0.829,3.929l-6.689,72.667h-25.513l-21.554-107.667h-21.535
		c-32.725,0-59.252,26.527-59.252,59.25V444.55c0,32.726,26.527,59.253,59.252,59.253h7.554v250.955
		c0,23.088,18.716,41.806,41.805,41.806c21.514,0,39.226-16.254,41.541-37.153c2.314,20.899,20.025,37.153,41.541,37.153
		c23.089,0,41.804-18.718,41.804-41.806V503.803h7.555c32.726,0,59.252-26.527,59.252-59.253V271.838
		C350.858,239.114,324.331,212.587,291.605,212.587z"/>
</g>
<path d="M767.842,644.883c-1.943-45.162-39.162-81.183-84.806-81.183c-39.604,0-72.868,27.112-82.252,63.798
	c-2.075,6.671-3.237,13.489-3.271,20.266c-0.027,5.831,0.774,11.66,2.254,17.387c7.703,38.961,42.053,68.344,83.271,68.344
	c46.89,0,84.896-38.01,84.896-84.896c0-0.606-0.031-1.207-0.047-1.813c0.012-0.563,0.049-1.12,0.047-1.688
	C767.903,645.027,767.872,644.954,767.842,644.883z"/>
<circle cx="682.135" cy="396.851" r="85.8"/>
<path d="M597.264,146.539c0.006,0.162,0.021,0.326,0.031,0.488c0.719,38.284,26.77,70.354,62.104,80.157
	c7.061,2.307,14.287,3.406,21.432,3.071c0.438,0.007,0.867,0.033,1.306,0.033c44.817,0,81.494-34.739,84.643-78.754
	c0.021-0.204,0.029-0.406,0.047-0.608c0.043-0.692,0.084-1.387,0.107-2.085c0.043-0.942,0.065-1.885,0.072-2.828
	c0.002-0.205,0.018-0.404,0.018-0.608c0-0.207-0.016-0.407-0.018-0.613c-0.005-0.354,0.01-0.708,0-1.063
	c-0.011-0.307-0.039-0.611-0.052-0.917c-1.34-44.564-37.01-80.481-81.477-82.206c-0.107-0.05-0.225-0.095-0.328-0.146
	c-0.631,0.012-1.262,0.061-1.891,0.088c-0.375-0.003-0.748-0.028-1.125-0.028c-45.703,0-82.947,36.122-84.795,81.369
	c-0.045,0.875-0.062,1.747-0.064,2.619c-0.004,0.3-0.021,0.594-0.021,0.895c0,0.196,0.018,0.393,0.02,0.591
	C597.27,146.177,597.26,146.356,597.264,146.539z"/>
<path d="M573.206,425.851v-58H513.19v-131c0-32.532,26.467-59,59-59v-58c-64.514,0-117,52.486-117,117v131h-52.018v58h52.018v131
	c0,64.515,52.486,117,117,117v-58c-32.533,0-59-26.468-59-59v-131H573.206z"/>
</svg>
