<?xml version="1.0" encoding="utf-8"?>
<!-- Generator: Adobe Illustrator 16.0.0, SVG Export Plug-In . SVG Version: 6.00 Build 0)  -->
<!DOCTYPE svg PUBLIC "-//W3C//DTD SVG 1.1//EN" "http://www.w3.org/Graphics/SVG/1.1/DTD/svg11.dtd">
<svg version="1.1" id="Layer_1" xmlns="http://www.w3.org/2000/svg" xmlns:xlink="http://www.w3.org/1999/xlink" x="0px" y="0px"
	 width="800px" height="800px" viewBox="0 0 800 800" enable-background="new 0 0 800 800" xml:space="preserve">
<g>
	<g>
		<path d="M543.232,33.108c-0.012-0.01-0.021-0.02-0.032-0.03c0.008-0.246,0.032-0.486,0.032-0.734
			c0-12.52-10.147-22.667-22.668-22.667c-11.384,0-20.805,8.393-22.42,19.327l-41.088,78.008c-2.261,4.195-4.484,8.408-6.661,12.646
			l-34.771,66.015l-5.521-19.329l11.002-21.416h-0.872h-20.419h-0.873h-20.42h-0.873l11.003,21.416l-5.521,19.329l-34.771-66.015
			c-2.176-4.238-4.398-8.451-6.66-12.646l-41.088-78.008c-1.613-10.935-11.036-19.327-22.42-19.327
			c-12.519,0-22.667,10.147-22.667,22.667c0,0.248,0.025,0.489,0.033,0.734c-0.011,0.011-0.021,0.021-0.032,0.029
			c0.013,0.032,0.025,0.063,0.038,0.094c0.003,0.089,0.007,0.178,0.012,0.268c-0.016,0.018-0.031,0.034-0.049,0.052
			c0.021,0.042,0.038,0.082,0.059,0.124c0.124,2.17,0.542,4.259,1.232,6.224l0,0l73.23,152.873l0.47,133.205
			c0,0-26.865,131.494-26.865,132.73c0,17.12,13.879,31,31,31c0.115,0,0.229-0.012,0.343-0.015c0.179,0.004,0.354,0.015,0.53,0.015
			c13.358,0,24.741-8.449,29.104-20.295c1.308-2.503,2.342-5.275,3.041-8.278c4.289-18.444,8.482-36.913,12.758-55.362
			c1.361-5.304,2.716-10.606,4.027-15.927c2.396-9.706,4.681-19.438,7.003-29.164c2.201-7.211,4.915-14.869,7.928-24.22
			c3.011,9.352,5.725,17.009,7.927,24.22c2.322,9.726,4.606,19.458,7.002,29.164c1.313,5.317,2.665,10.623,4.027,15.927
			c4.272,18.449,8.47,36.918,12.759,55.362c0.698,3.003,1.73,5.775,3.04,8.278c4.357,11.846,15.743,20.295,29.102,20.295
			c0.181,0,0.354-0.011,0.532-0.015c0.113,0.003,0.227,0.015,0.341,0.015c17.121,0,31-13.88,31-31
			c0-1.236-26.864-132.73-26.864-132.73l0.471-133.205l73.229-152.872l0,0c0.69-1.964,1.108-4.053,1.232-6.223
			c0.021-0.042,0.038-0.082,0.058-0.125c-0.017-0.019-0.032-0.035-0.05-0.053c0.004-0.088,0.009-0.178,0.013-0.267
			C543.205,33.173,543.22,33.141,543.232,33.108z"/>
		<path d="M398.94,127.011c0.146,0,0.291-0.011,0.438-0.012c0.146,0.001,0.29,0.012,0.438,0.012
			c24.979,0,45.229-20.25,45.229-45.229c0-24.979-20.25-45.229-45.229-45.229c-0.146,0-0.291,0.01-0.438,0.011
			c-0.146-0.001-0.289-0.011-0.438-0.011c-24.979,0-45.229,20.25-45.229,45.229C353.711,106.761,373.961,127.011,398.94,127.011z"/>
	</g>
	<path d="M728,676.324H536.834v38.5c0,6.902-5.597,12.5-12.5,12.5s-12.5-5.598-12.5-12.5v-111.5c0-0.662,0.066-1.309,0.166-1.943
		v-76.057c0-11.047-8.954-20-20-20H301.5c-11.046,0-20,8.953-20,20v78v4v107.5c0,6.902-5.597,12.5-12.5,12.5s-12.5-5.598-12.5-12.5
		v-107.5H72c-11.046,0-20,8.953-20,20v143c0,11.045,8.954,20,20,20h381h38h237c11.046,0,20-8.955,20-20v-74
		C748,685.277,739.046,676.324,728,676.324z M413.596,683.02H397.46V575.193h-0.371l-21.454,11.578l-3.23-12.705l26.956-14.438
		h14.235V683.02z"/>
</g>
</svg>
