<?xml version="1.0" encoding="utf-8"?>
<!-- Generator: Adobe Illustrator 17.1.0, SVG Export Plug-In . SVG Version: 6.00 Build 0)  -->
<!DOCTYPE svg PUBLIC "-//W3C//DTD SVG 1.1//EN" "http://www.w3.org/Graphics/SVG/1.1/DTD/svg11.dtd">
<svg version="1.1" id="Layer_1" xmlns="http://www.w3.org/2000/svg" xmlns:xlink="http://www.w3.org/1999/xlink" x="0px" y="0px"
	 width="800px" height="800px" viewBox="0 0 800 800" enable-background="new 0 0 800 800" xml:space="preserve">
<g>
	<path stroke="#000000" stroke-miterlimit="10" d="M399.7,178.2c0.1,0,0.2,0,0.4,0c0.1,0,0.2,0,0.4,0c47.3,0,85.6-38.3,85.6-85.6
		c0-7.5-1-14.8-2.8-21.7c-9.5-36.9-43-64.2-82.9-64.2c-0.1,0-0.2,0-0.4,0c-0.1,0-0.2,0-0.4,0C352.3,6.6,314,45,314,92.2
		c0,7.5,1,14.8,2.8,21.7C326.3,150.9,359.8,178.2,399.7,178.2z"/>
	<path d="M490.2,214.1h-21.4l-21.4,106.8h-25.3l-6.6-71.7c2-10.9,6.7-21.1,11.7-31.8c0,0,0.9-1.9,1.4-2.9l0,0c-0.1,0-0.2,0-0.3,0
		c0.1-0.1,0.1-0.3,0.2-0.4c-30,0-27.6,0-57,0h0c0.1,0.1,0.1,0.2,0.2,0.4c0,0-0.1,0-0.1,0c0,0,0,0,0,0c0.5,1,1.4,2.9,1.4,2.9
		c4.4,9.3,8.5,18.2,10.8,27.6c0.3,1.3,0.6,2.6,0.8,3.9l-6.6,72.1h-25.3l-21.4-106.8h-21.4c-32.5,0-58.8,26.3-58.8,58.8v171.3
		c0,32.5,26.3,58.8,58.8,58.8h7.5v248.9c0,22.9,18.6,41.5,41.5,41.5c21.3,0,38.9-16.1,41.2-36.9c2.3,20.7,19.9,36.9,41.2,36.9
		c22.9,0,41.5-18.6,41.5-41.5V502.9h7.5c32.5,0,58.8-26.3,58.8-58.8V272.8C548.9,240.4,522.6,214.1,490.2,214.1z"/>
</g>
<path stroke="#000000" stroke-miterlimit="10" d="M621.8,178.2c0.1,0,0.2,0,0.4,0c0.1,0,0.2,0,0.4,0c47.3,0,85.6-38.3,85.6-85.6
	c0-7.5-1-14.8-2.8-21.7c-9.5-36.9-43-64.2-82.9-64.2c-0.1,0-0.2,0-0.4,0c-0.1,0-0.2,0-0.4,0c-47.3,0-85.6,38.3-85.6,85.6
	c0,7.5,1,14.8,2.8,21.7C548.4,150.9,581.9,178.2,621.8,178.2z"/>
<path d="M712.3,214.1h-21.4l-21.4,106.8h-25.3l-6.6-71.7c2-10.9,6.7-21.1,11.7-31.8c0,0,0.9-1.9,1.4-2.9c-0.1,0-0.2,0-0.3,0
	c0.1-0.1,0.1-0.3,0.2-0.4c-30,0-27.6,0-57,0h0c0.1,0.1,0.1,0.2,0.2,0.4c0,0-0.1,0-0.1,0l0,0c0.5,1,1.4,2.9,1.4,2.9
	c4.4,9.3,8.5,18.2,10.8,27.6c0.3,1.3,0.6,2.6,0.8,3.9l-6.6,72.1h-23v123.3c0,29.6-14.9,55.8-37.6,71.4v236.3
	c0,22.9,18.6,41.5,41.5,41.5c21.3,0,38.9-16.1,41.2-36.9c2.3,20.7,19.9,36.9,41.2,36.9c22.9,0,41.5-18.6,41.5-41.5V502.9h7.5
	c32.5,0,58.8-26.3,58.8-58.8V272.8C771,240.4,744.7,214.1,712.3,214.1z"/>
<path stroke="#000000" stroke-miterlimit="10" d="M177.6,178.2c0.1,0,0.2,0,0.4,0c0.1,0,0.2,0,0.4,0c47.3,0,85.6-38.3,85.6-85.6
	c0-7.5-1-14.8-2.8-21.7c-9.5-36.9-43-64.2-82.9-64.2c-0.1,0-0.2,0-0.4,0c-0.1,0-0.2,0-0.4,0c-47.3,0-85.6,38.3-85.6,85.6
	c0,7.5,1,14.8,2.8,21.7C104.2,150.9,137.7,178.2,177.6,178.2z"/>
<path d="M223,444.2V320.9h-23l-6.6-71.7c2-10.9,6.7-21.1,11.7-31.8c0,0,0.9-1.9,1.4-2.9c-0.1,0-0.2,0-0.3,0c0.1-0.1,0.1-0.3,0.2-0.4
	c-30,0-27.6,0-57,0h0c0.1,0.1,0.1,0.2,0.2,0.4c0,0-0.1,0-0.1,0c0,0,0,0,0,0c0.5,1,1.4,2.9,1.4,2.9c4.4,9.3,8.5,18.2,10.8,27.6
	c0.3,1.3,0.6,2.6,0.8,3.9l-6.6,72.1h-25.3l-21.4-106.8H87.7c-32.5,0-58.8,26.3-58.8,58.8v171.3c0,32.5,26.3,58.8,58.8,58.8h7.5
	v248.9c0,22.9,18.6,41.5,41.5,41.5c21.3,0,38.9-16.1,41.2-36.9c2.3,20.7,19.9,36.9,41.2,36.9c22.9,0,41.5-18.6,41.5-41.5V515.6
	C237.9,499.9,223,473.8,223,444.2z"/>
</svg>
