<?xml version="1.0" encoding="utf-8"?>
<!-- Generator: Adobe Illustrator 16.0.0, SVG Export Plug-In . SVG Version: 6.00 Build 0)  -->
<!DOCTYPE svg PUBLIC "-//W3C//DTD SVG 1.1//EN" "http://www.w3.org/Graphics/SVG/1.1/DTD/svg11.dtd">
<svg version="1.1" id="Layer_1" xmlns="http://www.w3.org/2000/svg" xmlns:xlink="http://www.w3.org/1999/xlink" x="0px" y="0px"
	 width="800px" height="800px" viewBox="0 0 800 800" enable-background="new 0 0 800 800" xml:space="preserve">
<g>
	<g>
		<path d="M551.5,782.5c-109.7,0-199-89.3-199-199s89.3-199,199-199s199,89.3,199,199S661.2,782.5,551.5,782.5z M551.5,424.5
			c-87.7,0-159,71.3-159,159s71.3,159,159,159s159-71.3,159-159S639.2,424.5,551.5,424.5z"/>
	</g>
	<path d="M642.8,575.5H565v-105c0-8.3-6.7-15-15-15s-15,6.7-15,15v113.4c0,4.5,0,4.8,0,6.5c0,8.3,5.2,15.1,13.5,15.1h94.3
		c8.3,0,15-6.7,15-15S651.1,575.5,642.8,575.5z"/>
</g>
<g>
	<circle cx="191.1" cy="97.4" r="89"/>
	<path d="M481.5,199.5H290.2h-1.7h-35l-2.8,17.3l-8.3,51.9l-10.1,62.9h-12.6H219l-8.5-96.7l10-35.4h-58.7l10,35.4l-8.5,96.7h-0.7
		H150l-8-49.7l-10-62.5l-3.2-19.9H92h-0.1v0c-27.6,0.1-49.9,22.4-49.9,50v213c0,27.6,22.4,50,50,50v229.2c0,27.6,22.4,50,50,50
		c24.4,0,44.7-17.5,49.1-40.6c4.4,23.1,24.7,40.6,49.1,40.6c27.6,0,50-22.4,50-50V487.5v-88.8v-99.2h191.3c27.6,0,50-22.4,50-50
		C531.5,221.8,509.1,199.5,481.5,199.5z"/>
</g>
</svg>
