<?xml version="1.0" encoding="utf-8"?>
<!-- Generator: Adobe Illustrator 17.1.0, SVG Export Plug-In . SVG Version: 6.00 Build 0)  -->
<!DOCTYPE svg PUBLIC "-//W3C//DTD SVG 1.1//EN" "http://www.w3.org/Graphics/SVG/1.1/DTD/svg11.dtd">
<svg version="1.1" id="Layer_1" xmlns="http://www.w3.org/2000/svg" xmlns:xlink="http://www.w3.org/1999/xlink" x="0px" y="0px"
	 width="800px" height="800px" viewBox="0 0 800 800" enable-background="new 0 0 800 800" xml:space="preserve">
<path d="M756.5,723.5L756.5,723.5C756.5,723.5,756.5,723.5,756.5,723.5c-0.5-3.4-1.3-6.6-2.4-9.7c-7.9-30.4-26-85.8-34.2-110.6
	c-0.9-4.3-2.3-8.5-4.1-12.4c0-0.1,0-0.1,0-0.1l0,0c-5-10.8-13.2-19.8-23.3-25.8c0,0,0,0,0,0c-0.6-0.4-1.9-1.1-3.6-2
	c-0.7-0.3-1.4-0.7-2.1-1c-19.9-9.4-81-33.8-81-33.8l0,0c-30.6-13.2-62.2-24.5-94.5-36h0v0c0,0,0,0,0,0h0
	c-5.8,24-60.5,183.3-69.2,205.4l-6.9-148c2.3-3.5,3.9-7.5,5.7-11.3l22.8-45.1c-16.1,13.4-40.2,21.9-67.1,21.9
	c-26.3,0-49.9-8.1-66-21l22.4,44.2c1.8,3.8,3.4,7.8,5.7,11.3l-6.9,148C343,675.4,288.2,516,282.5,492h0c0,0,0,0,0,0v0h0
	c-32.3,11.5-63.9,22.8-94.5,36l0,0c0,0-61.1,24.5-81,33.8c-0.7,0.3-1.4,0.6-2.1,1c-1.7,0.8-3,1.5-3.6,2c0,0,0,0,0,0
	C91.2,570.9,83,579.9,78,590.7l0,0c0,0,0,0.1,0,0.1c-1.8,3.9-3.2,8.1-4.1,12.4c-8.2,24.8-26.3,80.1-34.2,110.6
	c-1.1,3.1-1.9,6.4-2.4,9.7c0,0,0,0,0,0l0,0c-0.5,2.9-0.7,6-0.7,9c0,32.6,26.4,59,59,59l56.3,0c80.6,0,161.2,0.1,241.8,0
	c1.1,0,2.1,0,3.2,0c0,0,0,0,0,0c1.1,0,2.1,0,3.2,0c80.6,0,161.2,0,241.8,0l56.3,0c32.6,0,59-26.4,59-59
	C757.2,729.5,756.9,726.4,756.5,723.5z"/>
<path d="M550.9,218c0-10.4,2-48.2,2-56.9C553,76.8,484.6,8.5,400.3,8.5c0,0,0,0,0,0c0,0,0,0,0,0c-0.1,0-0.2,0-0.3,0s-0.2,0-0.3,0
	c0,0,0,0,0,0s0,0,0,0c-1,0-1.9,0-2.9,0c-1,0-1.9,0-2.9,0c0,0,0,0,0,0s0,0,0,0c-0.1,0-0.2,0-0.3,0c-0.1,0-0.2,0-0.3,0c0,0,0,0,0,0
	c0,0,0,0,0,0c-84.3,0-152.7,68.4-152.7,152.7c0,8.7,2,46.4,2,56.9c-3.7,0.2-37.9-8-34.2,32.9c7.8,86.8,40.9,70,41.9,70
	c16.3,52.3,41.6,85.7,66.4,107c38.7,33.2,76.2,36.8,76.9,36.8c1.1,0,2.1,0.1,3.2,0.1l0,0l0,0c1,0,2.1,0,3.2-0.1
	c0.6,0,37.9-3.6,76.4-36.4c24.9-21.2,50.4-54.7,66.8-107.4c1,0,34.1,16.8,41.9-70C588.8,210,554.6,218.2,550.9,218z"/>
</svg>
