<?xml version="1.0" encoding="utf-8"?>
<!-- Generator: Adobe Illustrator 17.1.0, SVG Export Plug-In . SVG Version: 6.00 Build 0)  -->
<!DOCTYPE svg PUBLIC "-//W3C//DTD SVG 1.1//EN" "http://www.w3.org/Graphics/SVG/1.1/DTD/svg11.dtd">
<svg version="1.1" id="Layer_1" xmlns="http://www.w3.org/2000/svg" xmlns:xlink="http://www.w3.org/1999/xlink" x="0px" y="0px"
	 width="800px" height="800px" viewBox="0 0 800 800" enable-background="new 0 0 800 800" xml:space="preserve">
<g>
	<path d="M571.3,554.1L571.3,554.1L571.3,554.1c-0.2-1.6-0.6-3.2-1.1-4.6c-3.8-14.5-12.4-40.9-16.3-52.7c-0.4-2.1-1.1-4-2-5.9v-0.1
		l0,0c-2.4-5.1-6.3-9.4-11.1-12.3l0,0c-0.3-0.2-0.9-0.5-1.7-0.9c-0.3-0.2-0.7-0.3-1-0.5c-9.5-4.5-38.6-16.1-38.6-16.1l0,0
		c-14.6-6.3-29.6-11.7-45-17.1l0,0l0,0l0,0l0,0c-2.7,11.4-28.8,87.3-33,97.8l-3.3-70.5c1.1-1.7,1.9-3.6,2.7-5.4l10.9-21.5
		c-7.7,6.4-19.1,10.4-32,10.4c-12.5,0-23.8-3.9-31.4-10l10.6,21.1c0.9,1.8,1.6,3.7,2.7,5.4l-3.3,70.5c-4.1-10.5-30.2-86.4-33-97.8
		l0,0l0,0l0,0l0,0c-15.4,5.5-30.5,10.9-45,17.1l0,0c0,0-29.1,11.6-38.6,16.1c-0.3,0.2-0.7,0.3-1,0.5c-0.8,0.4-1.4,0.7-1.7,0.9l0,0
		c-4.8,2.9-8.7,7.2-11.1,12.3l0,0c0,0,0,0,0,0.1c-0.9,1.9-1.5,3.9-2,5.9c-3.9,11.8-12.5,38.2-16.3,52.7c-0.5,1.5-0.9,3-1.1,4.6l0,0
		l0,0c-0.2,1.4-0.3,2.8-0.3,4.3c0,15.5,12.6,28.1,28.1,28.1h287c15.5,0,28.1-12.6,28.1-28.1C571.7,556.9,571.5,555.5,571.3,554.1z"
		/>
	<path d="M473.4,313.3c0-5,1-23,1-27.1c0-40.2-32.6-72.7-72.7-72.7l0,0l0,0h-0.1h-0.1l0,0l0,0c-0.5,0-0.9,0-1.4,0s-0.9,0-1.4,0l0,0
		l0,0h-0.1h-0.1l0,0l0,0c-40.2,0-72.7,32.6-72.7,72.7c0,4.1,1,22.1,1,27.1c-1.8,0.1-18-3.8-16.3,15.7c3.7,41.4,19.5,33.3,19.9,33.3
		c7.8,24.9,19.8,40.8,31.6,51c18.4,15.8,36.3,17.5,36.6,17.5c0.5,0,1,0,1.5,0l0,0l0,0c0.5,0,1,0,1.5,0c0.3,0,18.1-1.7,36.4-17.3
		c11.9-10.1,24-26.1,31.8-51.1c0.5,0,16.2,8,19.9-33.3C491.4,309.5,475.2,313.4,473.4,313.3z"/>
	<path d="M205.7,552.6c0.1-1.1,0.5-3.2,0.7-4.3c0.3-1.8,0.9-3.5,1.4-5.3c4.3-14.4,11.6-38.5,16.2-52.4c0.7-2.8,1.6-5.6,2.8-8.3
		l3.1-8.9c-10-4-20.2-7.7-30.6-11.4l0,0c-2.4,10-25.1,76.1-28.7,85.3l-2.9-61.5c1-1.5,1.6-3.1,2.4-4.7l9.5-18.8
		c-6.7,5.6-16.7,9.1-27.9,9.1c-10.9,0-20.7-3.4-27.4-8.7l9.3,18.4c0.8,1.6,1.4,3.2,2.4,4.7l-2.9,61.5c-3.6-9.2-26.4-75.3-28.7-85.3
		l0,0c-13.4,4.8-26.6,9.5-39.2,14.9l0,0c0,0-25.4,10.2-33.6,14c-0.3,0.1-0.6,0.3-0.9,0.4c-0.7,0.4-1.2,0.6-1.5,0.8l0,0
		c-4.2,2.5-7.6,6.3-9.7,10.7l0,0c0,0,0,0,0,0.1c-0.8,1.6-1.3,3.4-1.7,5.2C14.4,518.4,6.9,541.4,3.6,554c-0.4,1.3-0.8,2.7-1,4l0,0
		l0,0c-0.2,1.2-0.3,2.5-0.3,3.7c0,13.5,11,24.5,24.5,24.5h23.4c33.5,0,67,0,100.4,0c0.4,0,0.9,0,1.3,0c0.4,0,0.9,0,1.3,0
		c20.2,0,40.5,0,60.7,0c-5.3-8.1-8.5-17.7-8.5-28.1C205.4,556.5,205.4,554.5,205.7,552.6z"/>
	<path d="M91,391.1c6.8,21.7,17.3,35.6,27.6,44.4c16.1,13.8,31.7,15.3,31.9,15.3c0.4,0,0.9,0,1.3,0s0.9,0,1.3,0
		c0.3,0,15.7-1.5,31.7-15.1c10.4-8.8,20.9-22.7,27.8-44.6c0.4,0,14.2,7,17.4-29.1c1.5-17-12.7-13.6-14.2-13.7c0-4.3,0.8-20,0.8-23.6
		c0-35-28.4-63.4-63.4-63.4l0,0h-0.1H153l0,0l0,0c-0.4,0-0.8,0-1.2,0s-0.8,0-1.2,0l0,0l0,0h-0.1h-0.1l0,0l0,0
		c-35,0-63.4,28.4-63.4,63.4c0,3.6,0.9,19.3,0.9,23.6c-1.5,0.1-15.7-3.3-14.2,13.7C76.8,398,90.6,391.1,91,391.1z"/>
	<path d="M797.4,537.3c-0.2-2.3-0.5-4.6-0.8-6.8c0,0-1.3-7.4-1.6-8.5c-2.9-12.9-11-22.4-21.9-29.8c-2-1.4-4.1-2.6-6.3-3.7
		c-2.8-1.5-45.4-15.5-46.5-15.8c0.3,1.5,0.4,3.1,0.5,4.8c5.9,4.2,23.4,19.2,15.5,47.3c0,0-12.5-14.9-25.3-16.9
		c-12.2,21.2-32.9,48.1-44.1,55.2c-11.2-7.1-31.9-33.9-44.1-55.2c-12.8,1.9-25.3,16.9-25.3,16.9c-7.9-28.1,9.5-43.1,15.5-47.3
		c0.1-1.7,0.2-3.4,0.5-4.8c-0.8,0.3-25.9,8.5-38.9,13c0.6,1.6,1.1,3.3,1.5,4.9c4.6,13.9,12.4,37.9,16.2,52.4
		c0.2,0.6,1.7,7.2,2.1,9.6c0.3,1.9,0.3,3.9,0.3,5.8c0,10.4-3.1,20-8.5,28.1c26.9,0,53.8,0,80.8,0c32.8,0,65.6,0,98.4,0
		c9.8,0,18.1-3,25-10.3c5.4-5.7,6.9-12.6,7.3-20c0.1-1.3,0.2-6.9,0.2-6.9S797.4,537.4,797.4,537.3z"/>
	<path d="M589.7,403.5c1,3.7,1.7,7.1,1.6,10.4c0,1.1-0.1,2.2-0.3,3.2c-0.9,3.1-7.5,13.6-8.5,15.4c11.6,12.5,26.8,15.3,41.9,18.5
		c4.5,0.9,9,1.5,13.8,2.1c1.6,0.3,3.1,0.6,4.7,0.9l-7.7,22.4c0,0-0.2,32.7,31.4,52.6h0.2c31.6-19.9,31.4-52.6,31.4-52.6l-7.7-22.4
		c1.6-0.3,3.2-0.6,4.7-0.9c4.8-0.6,9.4-1.2,13.8-2.1c15.1-3.2,30.4-6.1,41.9-18.5c-1-1.8-7.6-12.2-8.5-15.4
		c-0.2-1.1-0.3-2.1-0.3-3.2c0-3.3,0.6-6.8,1.6-10.4c1-3.5,2.1-7,3.1-10.5c5.1-11.4,8-24,8-37.3c0-49.5-39.3-89.7-88.2-90.6l0,0h-0.1
		h-0.1l0,0c-48.9,0.9-88.2,41.1-88.2,90.6c0,13.3,2.8,25.9,8,37.3C587.7,396.6,588.8,400,589.7,403.5z"/>
</g>
</svg>
