<?xml version="1.0" encoding="utf-8"?>
<!-- Generator: Adobe Illustrator 17.1.0, SVG Export Plug-In . SVG Version: 6.00 Build 0)  -->
<!DOCTYPE svg PUBLIC "-//W3C//DTD SVG 1.1//EN" "http://www.w3.org/Graphics/SVG/1.1/DTD/svg11.dtd">
<svg version="1.1" id="Layer_1" xmlns="http://www.w3.org/2000/svg" xmlns:xlink="http://www.w3.org/1999/xlink" x="0px" y="0px"
	 width="800px" height="800px" viewBox="0 0 800 800" enable-background="new 0 0 800 800" xml:space="preserve">
<g>
	<path d="M572.9,555.8L572.9,555.8C572.9,555.8,572.9,555.8,572.9,555.8c-0.2-1.6-0.6-3.2-1.1-4.7c-3.8-14.6-12.5-41.3-16.5-53.2
		c-0.4-2.1-1.1-4.1-2-6c0,0-6.4-9.6-11.2-12.5c0,0-2.4-1.3-2.7-1.4c-9.5-4.5-38.9-16.3-38.9-16.3l0,0c-14.7-6.4-29.9-11.8-45.4-17.3
		h0l0,0l0,0l0,0c-2.8,11.5-29.1,88.1-33.3,98.8l-3.3-71.2c1.1-1.7,1.9-3.6,2.8-5.4l11-21.7c-7.7,6.4-19.3,10.5-32.3,10.5
		c-12.7,0-24-3.9-31.7-10.1l10.7,21.2c0.9,1.8,1.7,3.8,2.8,5.4l-3.3,71.2c-4.2-10.6-30.5-87.2-33.3-98.8l0,0c0,0,0,0,0,0l0,0l0,0
		c-15.5,5.5-30.7,11-45.4,17.3l0,0c0,0-29.4,11.8-38.9,16.3c-0.3,0.2-2.4,1.2-2.7,1.4c0,0-8.8,7.3-11.2,12.4c0,0-1.6,3.9-2,6
		c-3.9,11.9-12.6,38.5-16.5,53.2c-0.5,1.5-0.9,3.1-1.1,4.7c0,0,0,0,0,0v0c-0.2,1.4-0.3,2.9-0.3,4.3c0,15.7,12.7,28.4,28.4,28.4
		l27.1,0c38.8,0,77.5,0,116.3,0c0.5,0,1,0,1.5,0c0,0,0,0,0,0c0.5,0,1,0,1.5,0c38.8,0,77.5,0,116.3,0l27.1,0
		c15.7,0,28.4-12.7,28.4-28.4C573.2,558.7,573.1,557.2,572.9,555.8z"/>
	<path d="M474.1,312.8c0-5,1-23.2,1-27.3c0-40.5-32.9-73.4-73.4-73.4c0,0,0,0,0,0s0,0,0,0c0,0-0.1,0-0.1,0c0,0-0.1,0-0.1,0
		c0,0,0,0,0,0c0,0,0,0,0,0c-0.5,0-0.9,0-1.4,0c-0.5,0-0.9,0-1.4,0c0,0,0,0,0,0h0c0,0-0.1,0-0.1,0c0,0-0.1,0-0.1,0l0,0c0,0,0,0,0,0
		c-40.5,0-73.4,32.9-73.4,73.4c0,4.2,1,22.3,1,27.3c-1.8,0.1-18.2-3.9-16.4,15.8c3.7,41.7,19.7,33.7,20.1,33.7
		c7.8,25.2,20,41.2,31.9,51.4c18.6,15.9,36.6,17.7,37,17.7c0.5,0,1,0,1.5,0h0l0,0c0.5,0,1,0,1.5,0c0.3,0,18.2-1.7,36.7-17.5
		c12-10.2,24.2-26.3,32.1-51.6c0.5,0,16.4,8.1,20.1-33.7C492.3,308.9,475.9,312.9,474.1,312.8z"/>
	<path d="M225.2,483.4l0.2-0.6l0.3-0.6c2.2-4.8,5.8-9.5,11.3-14.9c1.2-1.1,4.8-4.7,7.7-6.7l0,0c0.2-0.1,0.4-0.3,0.6-0.4
		c0.1-0.1,0.2-0.2,0.4-0.2l0,0c2-1.3,4.4-2.4,5.2-2.8c6.5-3.1,20.5-8.8,30.2-12.8c-0.3-0.1-0.6-0.3-1-0.5c-0.3-0.1-0.6-0.3-0.9-0.4
		c-8.3-3.9-33.9-14.2-33.9-14.2l0,0c-12.8-5.5-26.1-10.3-39.6-15.1h0c-2.4,10.1-25.4,76.8-29,86.1l-2.9-62.1c1-1.5,1.6-3.1,2.4-4.7
		l9.6-18.9c-6.7,5.6-16.8,9.2-28.1,9.2c-11,0-20.9-3.4-27.7-8.8l9.4,18.5c0.8,1.6,1.4,3.3,2.4,4.7l-2.9,62.1
		c-3.6-9.2-26.6-76-29-86.1c0,0,0,0,0,0c-13.5,4.8-26.8,9.5-39.6,15.1l0,0c0,0-25.6,10.3-33.9,14.2c-0.3,0.1-0.6,0.3-0.9,0.4
		c-0.7,0.4-1.2,0.6-1.5,0.8c0,0,0,0,0,0c-4.3,2.5-7.7,6.3-9.8,10.8l0,0c0,0,0,0,0,0.1c-0.8,1.6-1.4,3.4-1.7,5.2
		c-3.4,10.4-11,33.6-14.3,46.3c-0.4,1.3-0.8,2.7-1,4.1c0,0,0,0,0,0v0c-0.2,1.2-0.3,2.5-0.3,3.8c0,13.7,11.1,24.7,24.7,24.7l23.6,0
		c33.8,0,67.6,0,101.4,0c0.4,0,0.9,0,1.3,0c0.4,0,0.9,0,1.3,0c16.1,0,32.2,0,48.3,0c4.2-14.8,10.9-35.6,15.1-48.1
		C223.2,488.5,224.4,485.2,225.2,483.4z"/>
	<path d="M96.3,342.4c6.8,21.9,17.4,35.9,27.8,44.8c16.2,13.9,31.9,15.4,32.2,15.4c0.4,0,0.9,0,1.3,0c0.4,0,0.9,0,1.3,0
		c0.3,0,15.9-1.5,32-15.3c10.5-8.9,21.1-22.9,28-45c0.4,0,14.3,7.1,17.6-29.3c1.5-17.2-12.8-13.7-14.3-13.8c0-4.4,0.9-20.2,0.9-23.8
		c0-35.3-28.7-64-64-64c0,0,0,0,0,0c0,0-0.1,0-0.1,0c0,0-0.1,0-0.1,0c0,0,0,0,0,0c0,0,0,0,0,0c-0.4,0-0.8,0-1.2,0
		c-0.4,0-0.8,0-1.2,0c0,0,0,0,0,0h0c0,0-0.1,0-0.1,0c0,0-0.1,0-0.1,0c0,0,0,0,0,0c0,0,0,0,0,0c-35.3,0-64,28.7-64,64
		c0,3.6,0.9,19.5,0.9,23.8c-1.6,0.1-15.9-3.4-14.3,13.8C82,349.5,95.9,342.4,96.3,342.4z"/>
	<path d="M792.9,490c-0.2-2.3-0.5-4.6-0.8-6.9c0,0-1.3-7.4-1.6-8.6c-3-13.1-11.1-22.6-22.1-30.1c-2.1-1.4-4.2-2.6-6.3-3.7
		c-2.8-1.5-45.8-15.6-46.9-16c0.3,1.5,0.4,3.1,0.5,4.9c6,4.2,23.6,19.4,15.6,47.7c0,0-12.7-15.1-25.6-17
		c-12.3,21.4-33.2,48.6-44.5,55.7c-11.3-7.1-32.2-34.2-44.5-55.7c-12.9,1.9-25.6,17-25.6,17c-8-28.4,9.6-43.5,15.6-47.7
		c0.1-1.8,0.2-3.4,0.5-4.9c-1.1,0.4-44.1,14.5-46.9,16c-2.2,1.1-4.3,2.3-6.3,3.7c-4.3,2.9-8.1,6.1-11.4,9.7c2.6,1.1,4.8,2.1,6.6,2.9
		c0.7,0.3,2.8,1.3,4.7,2.5l0,0c4.5,2.7,8.9,6.8,13.7,12.8c4.8,6.1,6.4,9,7.2,10.9c1.2,2.7,2.2,5.6,2.9,8.5c4.1,12.5,10.9,33.3,15,48
		c22.8,0,45.7,0,68.5,0c33.1,0,66.2,0,99.3,0c9.9,0,18.3-3,25.3-10.4c5.4-5.8,7-12.7,7.4-20.2c0.1-1.3,0.2-7,0.2-7
		C793.4,502.1,792.9,490.1,792.9,490z"/>
	<path d="M583.3,355c1,3.7,1.7,7.2,1.7,10.5c0,1.1-0.1,2.2-0.3,3.3c-0.9,3.1-7.5,13.7-8.6,15.5c11.7,12.6,27.1,15.5,42.3,18.7
		c4.5,0.9,9.1,1.5,14,2.1c1.6,0.3,3.2,0.6,4.8,0.9l-7.7,22.6c0,0-0.2,33,31.7,53.1h0.2c31.9-20.1,31.7-53.1,31.7-53.1l-7.7-22.6
		c1.6-0.3,3.2-0.6,4.8-0.9c4.9-0.6,9.5-1.2,14-2.1c15.2-3.2,30.7-6.1,42.3-18.7c-1.1-1.8-7.7-12.4-8.6-15.5
		c-0.2-1.1-0.3-2.2-0.3-3.3c0-3.3,0.6-6.8,1.7-10.5c1-3.5,2.1-7,3.2-10.6c5.2-11.5,8-24.2,8-37.7c0-49.9-39.7-90.5-89-91.4v0
		c0,0-0.1,0-0.1,0c0,0-0.1,0-0.1,0v0c-49.3,0.9-89,41.5-89,91.4c0,13.4,2.9,26.2,8,37.7C581.2,348,582.3,351.5,583.3,355z"/>
</g>
</svg>
