<?xml version="1.0" encoding="utf-8"?>
<!-- Generator: Adobe Illustrator 17.1.0, SVG Export Plug-In . SVG Version: 6.00 Build 0)  -->
<!DOCTYPE svg PUBLIC "-//W3C//DTD SVG 1.1//EN" "http://www.w3.org/Graphics/SVG/1.1/DTD/svg11.dtd">
<svg version="1.1" id="Layer_1" xmlns="http://www.w3.org/2000/svg" xmlns:xlink="http://www.w3.org/1999/xlink" x="0px" y="0px"
	 width="800px" height="800px" viewBox="0 0 800 800" enable-background="new 0 0 800 800" xml:space="preserve">
<g>
	<g>
		<path d="M796.1,740.4L796.1,740.4C796.1,740.4,796.1,740.4,796.1,740.4c-0.2-1.5-0.6-3-1.1-4.4c-3.6-13.7-11.7-38.5-15.4-49.7
			c-0.4-1.9-1-3.8-1.9-5.6c0,0,0-0.1,0-0.1l0,0c-2.3-4.8-5.9-8.9-10.5-11.6c0,0,0,0,0,0c-0.3-0.2-0.8-0.5-1.6-0.9
			c-0.3-0.2-0.6-0.3-0.9-0.4c-8.9-4.2-36.4-15.2-36.4-15.2l0,0c-13.7-5.9-27.9-11-42.4-16.2h0v0v0h0c-2.6,10.8-27.2,82.3-31.1,92.3
			l-3.1-66.5c1-1.6,1.8-3.4,2.6-5.1l10.3-20.3c-7.2,6-18.1,9.8-30.2,9.8c-11.8,0-22.4-3.6-29.6-9.4l10,19.8c0.8,1.7,1.5,3.5,2.6,5.1
			l-3.1,66.5c-3.9-9.9-28.5-81.5-31.1-92.3h0c0,0,0,0,0,0v0h0c-14.5,5.1-28.7,10.2-42.4,16.2l0,0c0,0-27.4,11-36.4,15.2
			c-0.3,0.1-0.6,0.3-0.9,0.4c-0.8,0.4-1.3,0.7-1.6,0.9c0,0,0,0,0,0c-4.6,2.7-8.2,6.8-10.5,11.6l0,0c0,0,0,0,0,0.1
			c-0.8,1.8-1.4,3.6-1.9,5.6c-3.7,11.1-11.8,36-15.4,49.7c-0.5,1.4-0.8,2.9-1.1,4.4c0,0,0,0,0,0l0,0c-0.2,1.3-0.3,2.7-0.3,4.1
			c0,14.6,11.9,26.5,26.5,26.5l25.3,0c36.2,0,72.4,0,108.6,0c0.5,0,0.9,0,1.4,0c0,0,0,0,0,0c0.5,0,0.9,0,1.4,0
			c36.2,0,72.4,0,108.6,0l25.3,0c14.6,0,26.5-11.9,26.5-26.5C796.4,743.1,796.3,741.7,796.1,740.4z"/>
		<path d="M703.7,513.3c0-4.7,0.9-21.6,0.9-25.5c0-37.9-30.7-68.6-68.6-68.6c0,0,0,0,0,0s0,0,0,0c0,0-0.1,0-0.1,0c0,0-0.1,0-0.1,0
			c0,0,0,0,0,0s0,0,0,0c-0.4,0-0.9,0-1.3,0c-0.4,0-0.9,0-1.3,0c0,0,0,0,0,0c0,0,0,0,0,0c0,0-0.1,0-0.1,0c0,0-0.1,0-0.1,0l0,0
			c0,0,0,0,0,0c-37.9,0-68.6,30.7-68.6,68.6c0,3.9,0.9,20.9,0.9,25.5c-1.7,0.1-17-3.6-15.4,14.8c3.5,39,18.4,31.4,18.8,31.4
			c7.3,23.5,18.7,38.5,29.8,48.1c17.4,14.9,34.2,16.5,34.5,16.5c0.5,0,0.9,0,1.4,0h0l0,0c0.5,0,0.9,0,1.4,0c0.3,0,17-1.6,34.3-16.4
			c11.2-9.5,22.6-24.6,30-48.2c0.4,0,15.3,7.6,18.8-31.4C720.7,509.7,705.4,513.4,703.7,513.3z"/>
	</g>
	<g>
		<path d="M327,740.4L327,740.4C327,740.4,327,740.4,327,740.4c-0.2-1.5-0.6-3-1.1-4.4c-3.6-13.7-11.7-38.5-15.4-49.7
			c-0.4-1.9-1-3.8-1.9-5.6c0,0,0-0.1,0-0.1l0,0c-2.3-4.8-5.9-8.9-10.5-11.6c0,0,0,0,0,0c-0.3-0.2-0.8-0.5-1.6-0.9
			c-0.3-0.2-0.6-0.3-0.9-0.4c-8.9-4.2-36.4-15.2-36.4-15.2l0,0c-13.7-5.9-27.9-11-42.4-16.2h0v0v0h0c-2.6,10.8-27.2,82.3-31.1,92.3
			l-3.1-66.5c1-1.6,1.8-3.4,2.6-5.1l10.3-20.3c-7.2,6-18.1,9.8-30.2,9.8c-11.8,0-22.4-3.6-29.6-9.4l10,19.8c0.8,1.7,1.5,3.5,2.6,5.1
			l-3.1,66.5c-3.9-9.9-28.5-81.5-31.1-92.3h0c0,0,0,0,0,0v0h0c-14.5,5.1-28.7,10.2-42.4,16.2l0,0c0,0-27.4,11-36.4,15.2
			c-0.3,0.1-0.6,0.3-0.9,0.4c-0.8,0.4-1.3,0.7-1.6,0.9c0,0,0,0,0,0c-4.6,2.7-8.2,6.8-10.5,11.6l0,0c0,0,0,0,0,0.1
			c-0.8,1.8-1.4,3.6-1.9,5.6C16.7,697.5,8.6,722.3,5,736c-0.5,1.4-0.8,2.9-1.1,4.4c0,0,0,0,0,0l0,0c-0.2,1.3-0.3,2.7-0.3,4.1
			c0,14.6,11.9,26.5,26.5,26.5l25.3,0c36.2,0,72.4,0,108.6,0c0.5,0,0.9,0,1.4,0c0,0,0,0,0,0c0.5,0,0.9,0,1.4,0
			c36.2,0,72.4,0,108.6,0l25.3,0c14.6,0,26.5-11.9,26.5-26.5C327.3,743.1,327.2,741.7,327,740.4z"/>
		<path d="M234.7,513.3c0-4.7,0.9-21.6,0.9-25.5c0-37.9-30.7-68.6-68.6-68.6c0,0,0,0,0,0s0,0,0,0c0,0-0.1,0-0.1,0c0,0-0.1,0-0.1,0
			c0,0,0,0,0,0s0,0,0,0c-0.4,0-0.9,0-1.3,0c-0.4,0-0.9,0-1.3,0c0,0,0,0,0,0c0,0,0,0,0,0c0,0-0.1,0-0.1,0c0,0-0.1,0-0.1,0l0,0
			c0,0,0,0,0,0c-37.9,0-68.6,30.7-68.6,68.6c0,3.9,0.9,20.9,0.9,25.5c-1.7,0.1-17-3.6-15.4,14.8c3.5,39,18.4,31.4,18.8,31.4
			c7.3,23.5,18.7,38.5,29.8,48.1c17.4,14.9,34.2,16.5,34.5,16.5c0.5,0,0.9,0,1.4,0h0l0,0c0.5,0,0.9,0,1.4,0c0.3,0,17-1.6,34.3-16.4
			c11.2-9.5,22.6-24.6,30-48.2c0.4,0,15.3,7.6,18.8-31.4C251.7,509.7,236.3,513.4,234.7,513.3z"/>
	</g>
</g>
<g>
	<path d="M561.5,350.2L561.5,350.2C561.5,350.2,561.5,350.2,561.5,350.2c-0.2-1.5-0.6-3-1.1-4.4c-3.6-13.7-11.7-38.5-15.4-49.7
		c-0.4-1.9-1-3.8-1.9-5.6c0,0,0-0.1,0-0.1l0,0c-2.3-4.8-5.9-8.9-10.5-11.6c0,0,0,0,0,0c-0.3-0.2-0.8-0.5-1.6-0.9
		c-0.3-0.2-0.6-0.3-0.9-0.4c-8.9-4.2-36.4-15.2-36.4-15.2l0,0c-13.7-5.9-27.9-11-42.4-16.2h0l0,0l0,0h0
		c-2.6,10.8-27.2,82.3-31.1,92.3l-3.1-66.5c1-1.6,1.8-3.4,2.6-5.1l10.3-20.3c-7.2,6-18.1,9.8-30.2,9.8c-11.8,0-22.4-3.6-29.6-9.4
		l10,19.8c0.8,1.7,1.5,3.5,2.6,5.1l-3.1,66.5c-3.9-9.9-28.5-81.5-31.1-92.3l0,0c0,0,0,0,0,0l0,0l0,0c-14.5,5.1-28.7,10.2-42.4,16.2
		l0,0c0,0-27.4,11-36.4,15.2c-0.3,0.1-0.6,0.3-0.9,0.4c-0.8,0.4-1.3,0.7-1.6,0.9c0,0,0,0,0,0c-4.6,2.7-8.2,6.8-10.5,11.6l0,0
		c0,0,0,0,0,0.1c-0.8,1.8-1.4,3.6-1.9,5.6c-3.7,11.1-11.8,36-15.4,49.7c-0.5,1.4-0.8,2.9-1.1,4.4c0,0,0,0,0,0l0,0
		c-0.2,1.3-0.3,2.7-0.3,4.1c0,14.6,11.9,26.5,26.5,26.5l25.3,0c36.2,0,72.4,0,108.6,0c0.5,0,0.9,0,1.4,0c0,0,0,0,0,0
		c0.5,0,0.9,0,1.4,0c36.2,0,72.4,0,108.6,0l25.3,0c14.6,0,26.5-11.9,26.5-26.5C561.8,352.9,561.7,351.5,561.5,350.2z"/>
	<path d="M469.2,123.2c0-4.7,0.9-21.6,0.9-25.5c0-37.9-30.7-68.6-68.6-68.6c0,0,0,0,0,0s0,0,0,0c0,0-0.1,0-0.1,0c0,0-0.1,0-0.1,0
		c0,0,0,0,0,0s0,0,0,0c-0.4,0-0.9,0-1.3,0c-0.4,0-0.9,0-1.3,0c0,0,0,0,0,0h0c0,0-0.1,0-0.1,0s-0.1,0-0.1,0c0,0,0,0,0,0s0,0,0,0
		c-37.9,0-68.6,30.7-68.6,68.6c0,3.9,0.9,20.9,0.9,25.5c-1.7,0.1-17-3.6-15.4,14.8c3.5,39,18.4,31.4,18.8,31.4
		c7.3,23.5,18.7,38.5,29.8,48.1c17.4,14.9,34.2,16.5,34.5,16.5c0.5,0,0.9,0,1.4,0h0l0,0c0.5,0,0.9,0,1.4,0c0.3,0,17-1.6,34.3-16.4
		c11.2-9.5,22.6-24.6,30-48.2c0.4,0,15.3,7.6,18.8-31.4C486.2,119.6,470.9,123.2,469.2,123.2z"/>
</g>
<polygon points="423.3,531.4 423.3,417.8 378.3,417.8 378.3,531.4 302.7,607 334.5,638.8 400.8,572.6 465.5,637.3 497.3,605.4 "/>
</svg>
