<?xml version="1.0" encoding="utf-8"?>
<!-- Generator: Adobe Illustrator 17.0.0, SVG Export Plug-In . SVG Version: 6.00 Build 0)  -->
<!DOCTYPE svg PUBLIC "-//W3C//DTD SVG 1.1//EN" "http://www.w3.org/Graphics/SVG/1.1/DTD/svg11.dtd">
<svg version="1.1" id="Capa_1" xmlns="http://www.w3.org/2000/svg" xmlns:xlink="http://www.w3.org/1999/xlink" x="0px" y="0px"
	 width="64px" height="64px" viewBox="0 0 64 64" enable-background="new 0 0 64 64" xml:space="preserve">
<path d="M27.741,25.42c-1.32,0-2.53,0.399-3.331,1.391c-0.412,0.509-0.079,1.131,0.554,1.266c0.632,0.135,1.28-0.17,1.687-0.444
	c0.229-0.158,0.515-0.253,0.834-0.253c0.698,0,1.18,0.44,1.098,1.052c-0.129,0.953-0.996,1.123-1.779,1.123h-0.347
	c-0.19,0-0.404,0.412-0.477,0.924c-0.068,0.51-0.017,0.924,0.121,0.924s0.247,0,0.247,0c0.954,0,1.991,0.028,1.82,1.165
	c-0.1,0.754-0.61,1.293-1.534,1.293c-0.424,0-0.73-0.098-0.946-0.274c-0.426-0.353-0.907-0.773-1.546-0.63l-0.003,0.002
	c-0.639,0.144-1.147,0.814-0.853,1.398c0.507,1.007,1.578,1.464,2.935,1.464c1.976,0,3.767-0.995,4.051-3.012
	c0.107-0.737-0.068-1.415-0.507-1.866c-0.459-0.468-0.489-0.602,0.027-1.001c0.525-0.407,0.863-1.018,0.963-1.724
	C31.023,26.285,29.532,25.42,27.741,25.42z M36.371,25.589H34.23c-0.653,0-1.259,0.525-1.351,1.175l-1.089,7.713
	c-0.092,0.648,0.365,1.174,1.019,1.174h2.44c2.998,0,5.896-1.75,6.352-5.003C42.128,26.967,39.611,25.589,36.371,25.589z
	 M39.326,30.534c-0.326,2.288-1.989,3.07-4.049,3.07h-0.574c-0.318,0-0.501-0.525-0.413-1.174l0.511-3.623
	c0.089-0.647,0.457-1.173,0.817-1.173c0.362,0,0.654,0,0.654,0C38.147,27.635,39.597,28.559,39.326,30.534z M55.178,43.215H11.055
	c-0.801,0-1.451-0.651-1.451-1.451V18.831c0-0.801,0.65-1.451,1.451-1.451h44.123c0.801,0,1.451,0.65,1.451,1.451v22.933
	C56.629,42.563,55.978,43.215,55.178,43.215z M11.055,17.96c-0.481,0-0.871,0.391-0.871,0.871v22.933c0,0.479,0.391,0.87,0.871,0.87
	h44.123c0.48,0,0.871-0.391,0.871-0.87V18.831c0-0.481-0.391-0.871-0.871-0.871C55.178,17.96,11.055,17.96,11.055,17.96z
	 M38.834,52.456H26.875c-1.121,0-2.032-0.911-2.032-2.032v-0.677c0-1.12,0.911-2.032,2.032-2.032h0.483c0.16,0,0.29-0.13,0.29-0.29
	v-1.017c0-0.16-0.13-0.291-0.29-0.291H8.441c-1.12,0-2.031-0.911-2.031-2.031V16.654c0-1.121,0.912-2.032,2.032-2.032H57.79
	c1.12,0,2.032,0.911,2.032,2.032v27.432c0,1.12-0.912,2.031-2.033,2.031H38.544c-0.16,0-0.291,0.131-0.291,0.291v1.016
	c0,0.16,0.131,0.29,0.291,0.29h0.29c1.12,0,2.032,0.912,2.032,2.032v0.678C40.866,51.545,39.954,52.456,38.834,52.456z
	 M26.875,49.457c-0.16,0-0.291,0.13-0.291,0.29v0.677c0,0.16,0.131,0.291,0.291,0.291h11.959c0.16,0,0.29-0.131,0.29-0.291v-0.678
	c0-0.16-0.13-0.29-0.29-0.29h-0.29c-1.12,0-2.032-0.912-2.032-2.032v-1.016c0-1.121,0.912-2.032,2.032-2.032h19.245
	c0.161,0,0.291-0.131,0.291-0.29V16.654c0-0.16-0.13-0.291-0.29-0.291H8.442c-0.16,0-0.29,0.131-0.29,0.291v27.432
	c0,0.159,0.13,0.29,0.289,0.29h18.917c1.12,0,2.032,0.911,2.032,2.032v1.017c0,1.12-0.912,2.032-2.032,2.032
	C27.358,49.457,26.875,49.457,26.875,49.457z"/>
</svg>
