<?xml version="1.0" encoding="iso-8859-1"?>
<!-- Generator: Adobe Illustrator 17.0.0, SVG Export Plug-In . SVG Version: 6.00 Build 0)  -->
<!DOCTYPE svg PUBLIC "-//W3C//DTD SVG 1.1//EN" "http://www.w3.org/Graphics/SVG/1.1/DTD/svg11.dtd">
<svg version="1.1" id="Capa_1" xmlns="http://www.w3.org/2000/svg" xmlns:xlink="http://www.w3.org/1999/xlink" x="0px" y="0px"
	 width="64px" height="64px" viewBox="0 0 64 64" style="enable-background:new 0 0 64 64;" xml:space="preserve">
<g>
	<path d="M26.338,31.344c1.598-1.28,2.474-3.083,2.474-5.211c0-3.416-2.809-7.092-8.976-7.092c-3.558,0-6.461,1.052-7.866,1.952
		l-0.831,0.533l1.848,6.556l1.5-0.923c0.777-0.478,2.511-1.19,4.104-1.19c0.778,0,2.083,0.142,2.083,1.088
		c0,0.974-1.692,1.337-2.759,1.337h-3.464v6.537h3.536c0.341,0,3.328,0.057,3.328,2.013c0,1.603-2.221,1.728-2.901,1.728
		c-1.951,0-3.942-0.822-4.722-1.256l-1.489-0.828l-1.807,6.702l0.857,0.518c1.432,0.866,4.169,1.792,7.552,1.792
		c6.454,0,10.79-3.364,10.79-8.372C29.595,34.738,28.36,32.607,26.338,31.344z"/>
	<path d="M50.613,21.227c-2.606-1.955-5.891-2.827-10.649-2.827c-2.631,0-5.296,0.196-7.502,0.55l-1.12,0.181v25.804l1.152,0.155
		c1.241,0.168,3.348,0.368,6.331,0.368c5.136,0,9.267-1.177,11.963-3.416c2.012-1.729,4.411-4.993,4.411-10.718
		C55.2,26.946,53.612,23.455,50.613,21.227z M45.001,36.883c-1.133,1.115-2.795,1.681-5.035,1.681c0,0-0.002,0-0.002,0
		c-0.165,0-0.358,0-0.554-0.002v-13.3c0.306-0.023,0.678-0.039,1.123-0.039c4.108,0,6.279,2.171,6.279,6.279
		C46.812,33.89,46.203,35.702,45.001,36.883z"/>
</g>
</svg>
