<?xml version="1.0" encoding="iso-8859-1"?>
<!-- Generator: Adobe Illustrator 17.0.0, SVG Export Plug-In . SVG Version: 6.00 Build 0)  -->
<!DOCTYPE svg PUBLIC "-//W3C//DTD SVG 1.1//EN" "http://www.w3.org/Graphics/SVG/1.1/DTD/svg11.dtd">
<svg version="1.1" id="Capa_1" xmlns="http://www.w3.org/2000/svg" xmlns:xlink="http://www.w3.org/1999/xlink" x="0px" y="0px"
	 width="64px" height="64px" viewBox="0 0 64 64" style="enable-background:new 0 0 64 64;" xml:space="preserve">
<g>
	<path d="M9.148,49.568h18.021l2.797-6.286c1.123-2.522,3.015-2.556,4.226-0.074l3.104,6.36h17.555c3.442,0,6.232-2.79,6.232-6.232
		V33.158L44.019,15.575c-0.958-0.988-2.761-1.19-3.317,0.068c-0.444,1.004-0.808,2.532-0.808,4.844c0,1.885,0.274,3.043,0.646,3.747
		c0.646,1.216,1.818-0.211,2.117-1.555c0.208-0.937,0.722-1.686,1.91-1.257c2.597,0.935,7.271,11.736,7.271,11.736H12.161
		c0,0,4.674-10.801,7.271-11.736c1.189-0.428,1.702,0.32,1.91,1.257c0.299,1.344,1.472,2.77,2.117,1.555
		c0.372-0.704,0.646-1.861,0.646-3.747c0-2.311-0.364-3.839-0.809-4.844c-0.556-1.258-2.358-1.056-3.316-0.068L2.916,33.158v10.178
		C2.916,46.778,5.706,49.568,9.148,49.568z M38.283,36.066h20.358v5.297c0,2.925-2.79,5.297-6.232,5.297H38.283V36.066z
		 M5.617,36.274h20.357v10.595H11.85c-3.442,0-6.232-2.373-6.232-5.297V36.274z"/>
</g>
</svg>
