<?xml version="1.0" encoding="utf-8"?>
<!-- Generator: Adobe Illustrator 17.0.0, SVG Export Plug-In . SVG Version: 6.00 Build 0)  -->
<!DOCTYPE svg PUBLIC "-//W3C//DTD SVG 1.1//EN" "http://www.w3.org/Graphics/SVG/1.1/DTD/svg11.dtd">
<svg version="1.1" id="Capa_1" xmlns="http://www.w3.org/2000/svg" xmlns:xlink="http://www.w3.org/1999/xlink" x="0px" y="0px"
	 width="64px" height="64px" viewBox="0 0 64 64" enable-background="new 0 0 64 64" xml:space="preserve">
<path d="M14.042,24.243c-0.845,0-1.618,0.256-2.131,0.89c-0.264,0.325-0.049,0.723,0.354,0.809s0.817-0.108,1.077-0.284
	c0.148-0.101,0.33-0.161,0.535-0.161c0.445,0,0.753,0.281,0.699,0.672c-0.082,0.609-0.636,0.718-1.136,0.718h-0.22
	c-0.123,0-0.259,0.264-0.305,0.591c-0.045,0.325-0.011,0.59,0.076,0.59c0.089,0,0.159,0,0.159,0c0.608,0,1.273,0.019,1.163,0.745
	c-0.065,0.481-0.391,0.826-0.981,0.826c-0.271,0-0.467-0.062-0.604-0.175c-0.272-0.226-0.58-0.494-0.988-0.402l-0.003,0.001
	c-0.408,0.092-0.732,0.521-0.545,0.894c0.325,0.644,1.01,0.936,1.877,0.936c1.262,0,2.406-0.636,2.588-1.925
	c0.069-0.471-0.043-0.904-0.324-1.192c-0.292-0.298-0.312-0.385,0.018-0.64c0.337-0.261,0.553-0.65,0.615-1.102
	C16.14,24.797,15.185,24.243,14.042,24.243z M19.556,24.352h-1.367c-0.418,0-0.805,0.336-0.863,0.751l-0.697,4.93
	c-0.059,0.414,0.234,0.75,0.652,0.75h1.559c1.916,0,3.77-1.118,4.061-3.197C23.235,25.232,21.626,24.352,19.556,24.352z
	 M21.445,27.513c-0.209,1.461-1.271,1.962-2.588,1.962h-0.368c-0.203,0-0.32-0.336-0.263-0.75l0.325-2.315
	c0.058-0.414,0.293-0.75,0.523-0.75c0.231,0,0.418,0,0.418,0C20.69,25.659,21.618,26.25,21.445,27.513z M43.429,24.144
	c-0.844,0-1.617,0.255-2.129,0.889c-0.264,0.325-0.051,0.723,0.354,0.809c0.404,0.086,0.818-0.108,1.078-0.284
	c0.146-0.101,0.329-0.161,0.533-0.161c0.446,0,0.754,0.281,0.701,0.672c-0.082,0.609-0.637,0.718-1.137,0.718h-0.222
	c-0.122,0-0.259,0.264-0.305,0.591c-0.044,0.325-0.011,0.59,0.077,0.59s0.158,0,0.158,0c0.609,0,1.272,0.019,1.163,0.745
	c-0.063,0.482-0.39,0.826-0.98,0.826c-0.271,0-0.466-0.062-0.604-0.175c-0.272-0.226-0.58-0.494-0.988-0.402l-0.002,0.001
	c-0.408,0.092-0.732,0.521-0.545,0.894c0.324,0.643,1.009,0.936,1.876,0.936c1.263,0,2.407-0.636,2.589-1.925
	c0.068-0.471-0.044-0.904-0.324-1.192c-0.293-0.299-0.312-0.385,0.018-0.64c0.336-0.261,0.552-0.65,0.615-1.102
	C45.526,24.696,44.573,24.144,43.429,24.144z M48.944,24.251h-1.368c-0.418,0-0.805,0.336-0.863,0.751l-0.696,4.93
	c-0.059,0.414,0.233,0.75,0.651,0.75h1.56c1.916,0,3.769-1.118,4.06-3.197C52.623,25.132,51.015,24.251,48.944,24.251z
	 M50.833,27.412c-0.209,1.462-1.271,1.962-2.588,1.962h-0.367c-0.203,0-0.32-0.336-0.264-0.75l0.326-2.315
	c0.057-0.414,0.292-0.75,0.522-0.75c0.231,0,0.418,0,0.418,0C50.079,25.559,51.006,26.149,50.833,27.412z M25.05,21.099H10.798
	c-1.352,0-2.452,1.1-2.452,2.452v7.832c0,1.353,1.101,2.452,2.452,2.452H25.05c1.352,0,2.453-1.1,2.453-2.452v-7.832
	C27.503,22.198,26.402,21.099,25.05,21.099z M26.276,31.383c0,0.676-0.55,1.227-1.227,1.227H10.798
	c-0.676,0-1.227-0.551-1.227-1.227v-7.832c0-0.677,0.551-1.227,1.227-1.227H25.05c0.677,0,1.227,0.55,1.227,1.227L26.276,31.383
	L26.276,31.383z M53.556,21.099H39.303c-1.353,0-2.452,1.1-2.452,2.452v7.832c0,1.353,1.1,2.452,2.452,2.452h14.253
	c1.352,0,2.452-1.1,2.452-2.452v-7.832C56.008,22.198,54.907,21.099,53.556,21.099z M54.781,31.383c0,0.676-0.55,1.227-1.226,1.227
	H39.303c-0.676,0-1.226-0.551-1.226-1.227v-7.832c0-0.677,0.55-1.227,1.226-1.227h14.253c0.676,0,1.226,0.55,1.226,1.227v7.832
	L54.781,31.383z M60.605,22.74h-0.46v-2.605c0-1.521-1.237-2.759-2.759-2.759H7.272c-1.521,0-2.758,1.237-2.758,2.759v3.109H3.136
	c-0.846,0-1.533,0.687-1.533,1.532v10.267c0,0.846,0.688,1.533,1.533,1.533h1.379v3.327c0,1.521,1.237,2.759,2.758,2.759h1.275
	l-1.088,1.77c-0.437,0.707-0.57,1.542-0.379,2.351c0.191,0.81,0.688,1.494,1.395,1.93c0.492,0.303,1.056,0.463,1.631,0.463
	c1.089,0,2.08-0.554,2.651-1.481l2.063-3.354c0.325-0.528,0.431-1.389,0.455-1.64l0.004-0.037h7.727
	c1.284,0,2.895-0.728,3.745-1.691l5.127-5.822c0.303-0.343,0.795-0.348,1.103-0.016l5.467,5.888
	c0.869,0.936,2.486,1.642,3.764,1.642h7.831c-0.481,0.593-0.593,1.184-0.289,1.677l2.063,3.354c0.571,0.928,1.562,1.481,2.652,1.481
	c0.574,0,1.139-0.16,1.629-0.463c0.708-0.435,1.203-1.12,1.396-1.93c0.192-0.809,0.058-1.644-0.378-2.35l-1.089-1.769h1.357
	c1.521,0,2.759-1.237,2.759-2.759v-3.831h0.46c0.845,0,1.532-0.688,1.532-1.533v-10.27C62.138,23.427,61.45,22.74,60.605,22.74z
	 M11.192,46.729c-0.357,0.578-1.166,0.777-1.752,0.416c-0.289-0.178-0.492-0.457-0.57-0.788c-0.078-0.33-0.023-0.672,0.155-0.961
	l1.191-1.938l2.956,0.053C13.172,43.511,11.192,46.729,11.192,46.729z M55.707,46.357c-0.078,0.331-0.281,0.61-0.571,0.788
	c-0.201,0.124-0.431,0.19-0.664,0.19c-0.447,0-0.853-0.228-1.086-0.606l-1.822-2.961l2.93-0.093l1.06,1.721
	C55.73,45.686,55.785,46.027,55.707,46.357z M60.299,34.233h-1.992v5.671c0,0.507-0.413,0.919-0.92,0.919H42.214
	c-0.766,0-1.895-0.491-2.416-1.053l-5.467-5.888c-0.504-0.543-1.177-0.843-1.893-0.843c-0.732,0-1.438,0.326-1.938,0.894
	l-5.128,5.822c-0.501,0.568-1.606,1.067-2.365,1.067H7.272c-0.506,0-0.919-0.412-0.919-0.919v-5.166H3.442v-9.655h2.911v-4.948
	c0-0.507,0.413-0.92,0.919-0.92h50.114c0.507,0,0.92,0.413,0.92,0.92v4.444h1.992v9.655L60.299,34.233z"/>
</svg>
