<?xml version="1.0" encoding="iso-8859-1"?>
<!-- Generator: Adobe Illustrator 17.0.0, SVG Export Plug-In . SVG Version: 6.00 Build 0)  -->
<!DOCTYPE svg PUBLIC "-//W3C//DTD SVG 1.1//EN" "http://www.w3.org/Graphics/SVG/1.1/DTD/svg11.dtd">
<svg version="1.1" id="Capa_1" xmlns="http://www.w3.org/2000/svg" xmlns:xlink="http://www.w3.org/1999/xlink" x="0px" y="0px"
	 width="64px" height="64px" viewBox="0 0 64 64" style="enable-background:new 0 0 64 64;" xml:space="preserve">
<g>
	<path d="M50.174,31.244c0-12.871-10.432-23.304-23.304-23.304C14,7.94,3.566,18.373,3.566,31.244
		c0,12.87,10.434,23.304,23.304,23.304C39.742,54.547,50.174,44.114,50.174,31.244z M45.219,24.889c0.443,0,0.801,0.359,0.801,0.801
		c0,0.443-0.357,0.803-0.801,0.803c-0.443,0-0.803-0.359-0.803-0.803C44.416,25.248,44.775,24.889,45.219,24.889z M43.826,31.982
		c0,0.576-0.029,1.145-0.084,1.705L30.65,28.386l7.467-9.087C41.619,22.405,43.826,26.935,43.826,31.982z M25.846,10.615
		c0.443,0,0.802,0.359,0.802,0.802c0,0.443-0.358,0.802-0.802,0.802c-0.441,0-0.801-0.359-0.801-0.802
		C25.045,10.975,25.404,10.615,25.846,10.615z M26.87,15.026c2.237,0,4.37,0.438,6.323,1.224l-7.396,9.003l-7.3-8.013
		C20.969,15.833,23.824,15.026,26.87,15.026z M7.219,27.294c-0.442,0-0.802-0.359-0.802-0.802c0-0.443,0.359-0.802,0.802-0.802
		c0.443,0,0.801,0.359,0.801,0.802C8.019,26.935,7.662,27.294,7.219,27.294z M10.029,33.929c-0.074-0.639-0.115-1.288-0.115-1.947
		c0-4.245,1.564-8.122,4.142-11.097l7.592,8.336L10.029,33.929z M15.781,49.481c-0.442,0-0.801-0.359-0.801-0.802
		c0-0.443,0.359-0.802,0.801-0.802c0.443,0,0.802,0.359,0.802,0.802C16.583,49.122,16.225,49.481,15.781,49.481z M11.652,39.463
		l12.143-4.919l0.279,14.161C18.605,47.797,14.023,44.274,11.652,39.463z M26.348,34.173c-1.785,0-3.234-1.448-3.234-3.234
		c0-1.787,1.449-3.234,3.234-3.234c1.787,0,3.236,1.448,3.236,3.234C29.584,32.726,28.135,34.173,26.348,34.173z M38.521,47.877
		c-0.441,0-0.801-0.359-0.801-0.802c0-0.443,0.359-0.802,0.801-0.802c0.443,0,0.803,0.359,0.803,0.802
		C39.324,47.518,38.965,47.877,38.521,47.877z M29.815,48.679l-0.287-14.557l12.664,5.13C39.875,44.128,35.297,47.719,29.815,48.679
		z"/>
	<path d="M44.797,48.577c-2.145,1.799-7.076,5.058-7.076,5.058c9.807-2.87,19.498,1.304,19.498,1.304l1.217-10.174
		C51.914,43.722,48.078,45.827,44.797,48.577z"/>
</g>
</svg>
