<?xml version="1.0" encoding="utf-8"?>
<!-- Generator: Adobe Illustrator 17.0.0, SVG Export Plug-In . SVG Version: 6.00 Build 0)  -->
<!DOCTYPE svg PUBLIC "-//W3C//DTD SVG 1.1//EN" "http://www.w3.org/Graphics/SVG/1.1/DTD/svg11.dtd">
<svg version="1.1" id="Capa_1" xmlns="http://www.w3.org/2000/svg" xmlns:xlink="http://www.w3.org/1999/xlink" x="0px" y="0px"
	 width="64px" height="64px" viewBox="0 0 64 64" enable-background="new 0 0 64 64" xml:space="preserve">
<path d="M50.979,25.152H12.44c-0.04-0.433-0.157-0.839-0.344-1.209L49.915,16.1c0.747-0.154,1.39-0.592,1.808-1.229
	c0.419-0.638,0.565-1.4,0.409-2.148L50.78,6.194c-0.274-1.318-1.45-2.274-2.796-2.274c-0.194,0-0.39,0.02-0.582,0.059L7.313,12.292
	c-0.748,0.154-1.39,0.592-1.809,1.231c-0.419,0.638-0.564,1.4-0.409,2.146l1.355,6.528c0.061,0.291,0.73,6.062,0.73,6.062V56.15
	c0,1.574,1.281,2.856,2.857,2.856h40.941c1.576,0,2.857-1.282,2.857-2.856V28.009C53.837,26.434,52.556,25.152,50.979,25.152z
	 M50.979,27.057c0.525,0,0.953,0.427,0.953,0.952v0.203h-2.588l-3.977,9.413c-0.184,0.35-0.184,0.721-0.004,1.021
	c0.182,0.3,0.512,0.472,0.906,0.472h5.662v4.755H9.085v-5.339l5.478-10.614L11.4,27.922c0.266-0.249,0.482-0.542,0.654-0.864
	L50.979,27.057L50.979,27.057z M51.933,37.847H46.65l3.537-8.366h1.746C51.933,29.481,51.933,37.847,51.933,37.847z M9.085,44.871
	h12.721v4.554H9.085C9.085,49.425,9.085,44.871,9.085,44.871z M22.806,44.871h13.88v4.554h-13.88V44.871z M37.686,44.871h14.247
	v4.554H37.686C37.686,49.425,37.686,44.871,37.686,44.871z M9.085,35.764v-6.573l3.394-0.002L9.085,35.764z M47.789,5.843
	c0.065-0.014,0.13-0.02,0.195-0.02c0.448,0,0.839,0.318,0.931,0.758l1.354,6.528c0.051,0.249,0.003,0.503-0.137,0.716
	c-0.14,0.212-0.354,0.357-0.603,0.409l-0.339,0.07l0.097-0.094l-7.032-7.221C42.255,6.989,47.789,5.843,47.789,5.843z M40.78,7.296
	l7.094,7.282l-5.776,1.197l-7.093-7.281C35.005,8.494,40.78,7.296,40.78,7.296z M33.532,8.8l7.092,7.281l-5.346,1.108l-7.092-7.281
	C28.186,9.908,33.532,8.8,33.532,8.8z M26.712,10.214l7.093,7.281l-5.89,1.222l-6.959-7.31
	C20.956,11.407,26.712,10.214,26.712,10.214z M19.491,11.71l6.961,7.311l-5.565,1.154l-6.96-7.311
	C13.927,12.864,19.491,11.71,19.491,11.71z M7.005,14.747c0.024-0.064,0.055-0.124,0.092-0.182c0.14-0.213,0.354-0.358,0.604-0.409
	l4.762-0.988l6.961,7.31l-5.812,1.206C13.612,21.684,7.005,14.747,7.005,14.747z M7.294,16.891l4.853,5.096l-1.733,0.359
	c-0.408-0.174-0.855-0.272-1.328-0.272c-0.216,0-0.426,0.024-0.631,0.064C8.39,22.04,8.34,21.93,8.315,21.809
	C8.315,21.809,7.294,16.891,7.294,16.891z M50.979,57.102H10.038c-0.525,0-0.953-0.428-0.953-0.952v-5.725h42.848v5.725
	C51.933,56.674,51.505,57.102,50.979,57.102z M16.86,38.984h5.396c0.579,0,1.211-0.364,1.521-0.903l4.998-10.159h-7.868
	l-4.903,9.559c-0.206,0.345-0.225,0.718-0.051,1.023C16.128,38.81,16.458,38.984,16.86,38.984z M21.684,29.191h5.054l-4.078,8.291
	c-0.061,0.107-0.279,0.233-0.402,0.233H17.31C17.31,37.715,21.684,29.191,21.684,29.191z M31.144,39.117h5.871
	c0.582,0,1.213-0.369,1.521-0.92l4.717-10.135h-8.112l-4.859,9.552c-0.202,0.347-0.218,0.719-0.043,1.023
	C30.413,38.941,30.743,39.117,31.144,39.117z M35.919,29.332h5.343l-3.854,8.285c-0.06,0.105-0.272,0.23-0.394,0.23h-5.429
	C31.585,37.847,35.919,29.332,35.919,29.332z"/>
</svg>
