<?xml version="1.0" encoding="iso-8859-1"?>
<!-- Generator: Adobe Illustrator 17.0.0, SVG Export Plug-In . SVG Version: 6.00 Build 0)  -->
<!DOCTYPE svg PUBLIC "-//W3C//DTD SVG 1.1//EN" "http://www.w3.org/Graphics/SVG/1.1/DTD/svg11.dtd">
<svg version="1.1" id="Capa_1" xmlns="http://www.w3.org/2000/svg" xmlns:xlink="http://www.w3.org/1999/xlink" x="0px" y="0px"
	 width="64px" height="64px" viewBox="0 0 64 64" style="enable-background:new 0 0 64 64;" xml:space="preserve">
<g>
	<polygon points="37.201,14.31 33.951,7.977 26.747,7.977 30.413,14.31 	"/>
	<polygon points="54.989,14.31 59.247,14.31 59.247,7.977 51.323,7.977 	"/>
	<polygon points="49.489,14.31 46.239,7.977 39.035,7.977 42.701,14.31 	"/>
	<polygon points="27.163,21.935 33.951,21.935 37.618,15.602 30.413,15.602 	"/>
	<polygon points="39.451,21.935 46.239,21.935 49.906,15.602 42.701,15.602 	"/>
	<polygon points="51.739,21.935 59.247,21.935 59.247,15.602 54.989,15.602 	"/>
	<path d="M5.247,21.935h16.417l3.667-6.334H8.133c0.177-0.395,0.281-0.83,0.281-1.291h16.5l-3.25-6.334H5.247v3.167
		c-1.749,0-3.167,1.418-3.167,3.167c0,1.749,1.418,3.167,3.167,3.167V21.935z M3.58,14.31c0-0.92,0.747-1.667,1.667-1.667
		s1.667,0.747,1.667,1.667c0,0.92-0.747,1.667-1.667,1.667S3.58,15.231,3.58,14.31z"/>
	<path d="M5.247,56.269h54V24.602h-54V56.269z M8.542,34.102h14.08v-7c0-0.552,0.448-1,1-1c0.552,0,1,0.448,1,1v7h15.25v-7
		c0-0.552,0.448-1,1-1c0.552,0,1,0.448,1,1v7h14.08c0.552,0,1,0.448,1,1c0,0.552-0.448,1-1,1H8.542c-0.552,0-1-0.448-1-1
		C7.542,34.549,7.989,34.102,8.542,34.102z M8.542,38.477h47.41c0.552,0,1,0.448,1,1c0,0.552-0.448,1-1,1H8.542
		c-0.552,0-1-0.448-1-1C7.542,38.924,7.989,38.477,8.542,38.477z M8.542,44.852c-0.552,0-1-0.448-1-1c0-0.552,0.448-1,1-1h47.41
		c0.552,0,1,0.448,1,1c0,0.552-0.448,1-1,1H44.955v2.375h10.997c0.552,0,1,0.448,1,1c0,0.552-0.448,1-1,1H8.542
		c-0.552,0-1-0.448-1-1c0-0.552,0.448-1,1-1h34.413v-2.375H8.542z"/>
</g>
</svg>
