<?xml version="1.0" encoding="iso-8859-1"?>
<!-- Generator: Adobe Illustrator 17.0.0, SVG Export Plug-In . SVG Version: 6.00 Build 0)  -->
<!DOCTYPE svg PUBLIC "-//W3C//DTD SVG 1.1//EN" "http://www.w3.org/Graphics/SVG/1.1/DTD/svg11.dtd">
<svg version="1.1" id="Capa_1" xmlns="http://www.w3.org/2000/svg" xmlns:xlink="http://www.w3.org/1999/xlink" x="0px" y="0px"
	 width="64px" height="64px" viewBox="0 0 64 64" style="enable-background:new 0 0 64 64;" xml:space="preserve">
<g>
	<path d="M20.502,26.894c0-1.941-1.588-3.53-3.531-3.53h-4.238c-1.942,0-3.53,1.589-3.53,3.53v8.121c0,1.44,0.875,2.687,2.119,3.232
		v10.185c0,1.555,1.271,2.826,2.824,2.826h1.412c1.553,0,2.825-1.271,2.825-2.826V38.248c1.244-0.548,2.119-1.792,2.119-3.232
		V26.894z"/>
	<circle cx="14.853" cy="19.127" r="3.178"/>
	<path d="M7.867,35.078v-8.121c0-0.121,0.023-0.237,0.031-0.356h-2.38v17.305h4.468v-4.815C8.675,38.192,7.867,36.697,7.867,35.078z
		"/>
	<path d="M32.545,15.95c0,1.914,1.552,3.466,3.468,3.466c1.915,0,3.467-1.552,3.467-3.466c0-1.917-1.552-3.469-3.467-3.469
		C34.097,12.481,32.545,14.033,32.545,15.95z"/>
	<path d="M42.176,24.425c0-2.118-1.732-3.852-3.852-3.852h-4.621c-0.461,0-0.897,0.095-1.306,0.246v4.456h-2.549v1.268h12.327
		V24.425z"/>
	<polygon points="28.066,26.544 28.066,24.571 31.604,24.571 31.604,17.446 21.671,17.446 21.671,24.571 25.213,24.571 
		25.213,26.544 	"/>
	<path d="M48.429,20.063c0.031-0.077-0.006-0.164-0.083-0.196c-0.077-0.032-0.164,0.005-0.196,0.083l-0.312,0.763
		c-0.006,0.018-0.011,0.038-0.011,0.058v1.73c-0.272-0.001-1.196,0.01-1.31,0.18c0,0-0.076,0.218-0.067,0.476
		c0,0,0.576,0.074,1.453,0.074h0.158c0.877,0,1.452-0.074,1.452-0.074c0.009-0.258-0.066-0.476-0.066-0.476
		c-0.115-0.173-1.062-0.181-1.319-0.18V20.8L48.429,20.063z M48.325,19.902c0.06,0.018,0.096,0.073,0.08,0.122
		c-0.015,0.05-0.075,0.075-0.135,0.058c-0.06-0.018-0.096-0.073-0.079-0.125C48.204,19.91,48.267,19.883,48.325,19.902z"/>
	<path d="M52.428,19.98c0.033-0.076-0.005-0.164-0.081-0.194c-0.078-0.033-0.164,0.005-0.196,0.081l-0.312,0.764
		c-0.008,0.018-0.011,0.038-0.011,0.058v1.731c-0.273-0.002-1.197,0.009-1.312,0.178c0,0-0.075,0.219-0.065,0.477
		c0,0,0.574,0.074,1.452,0.074h0.159c0.876,0,1.451-0.074,1.451-0.074c0.01-0.258-0.065-0.477-0.065-0.477
		c-0.116-0.172-1.062-0.18-1.32-0.178v-1.703L52.428,19.98z M52.326,19.821c0.06,0.017,0.096,0.073,0.08,0.12
		c-0.016,0.05-0.075,0.077-0.135,0.059c-0.061-0.02-0.097-0.074-0.081-0.124C52.205,19.827,52.267,19.802,52.326,19.821z"/>
	<ellipse cx="56.409" cy="23.912" rx="0.882" ry="1.248"/>
	<path d="M59.712,21.501l-0.223-0.026l-0.598,5.126h-0.203l0.476-5.164l-0.153-0.018l-0.506,5.183h-0.204l0.354-5.224l-0.271-0.032
		l-0.268,5.256h-0.265l0.196-5.295l-0.224-0.027l-0.365,0.038l-0.043,2.38c0.009,0.071,0.014,0.143,0.014,0.216
		c0,0.101-0.008,0.197-0.022,0.291l-0.043,2.398h-0.311l-0.018-1.563c-0.104,0.109-0.228,0.188-0.363,0.237l0.037,1.326h-0.307
		l-0.053-1.284c-0.121-0.011-0.237-0.046-0.344-0.106l0.063,1.39h-0.309l-0.151-1.798c-0.146-0.243-0.235-0.553-0.235-0.891
		c0-0.222,0.039-0.432,0.108-0.619l-0.148-1.756l-0.425,0.043l0.479,5.021h-2.503c0.006-0.003,0.023-0.013,0.023-0.013l0.441-3.388
		c-0.702,0.041-1.285,0.041-1.285,0.041h-0.159c0,0-0.584,0-1.287-0.041l0.442,3.388c0,0,0.017,0.009,0.023,0.013h-2.167
		l0.434-3.319c-0.702,0.043-1.287,0.043-1.287,0.043h-0.158c0,0-0.585,0-1.287-0.043l0.433,3.319h-25.24
		c0.008,0.119,0.031,0.235,0.031,0.356v8.121c0,1.618-0.809,3.113-2.119,4.013v4.815h41.263V26.601h-1.797L59.712,21.501z
		 M43.775,40.063H25.213v-4.811h18.562V40.063z M43.775,33.881H25.213v-4.343h18.562V33.881z"/>
	<path d="M57.693,20.409c-0.069,0-0.13,0.034-0.17,0.086c-0.05-0.133-0.177-0.227-0.329-0.227c-0.142,0-0.264,0.087-0.318,0.21
		c-0.006,0-0.01-0.002-0.014-0.002c-0.09,0-0.167,0.046-0.213,0.115c-0.003,0-0.005-0.002-0.008-0.002
		c-0.121,0-0.221,0.089-0.24,0.204c-0.043-0.094-0.137-0.157-0.246-0.157c-0.089,0-0.167,0.041-0.217,0.106
		c-0.029-0.016-0.061-0.025-0.098-0.025c-0.094,0-0.173,0.062-0.2,0.147c-0.046-0.023-0.097-0.034-0.151-0.034
		c-0.194,0-0.353,0.156-0.353,0.352c0,0.096,0.037,0.204,0.101,0.268l2.461-0.257l1.851,0.21v-0.252h-0.001
		c-0.017-0.101-0.104-0.179-0.209-0.179c-0.007,0-0.016,0-0.021,0.001c-0.035-0.027-0.079-0.043-0.128-0.043
		c-0.065,0-0.123,0.029-0.162,0.075c-0.021-0.142-0.143-0.253-0.294-0.253c-0.083,0-0.158,0.035-0.212,0.092
		c-0.013-0.107-0.102-0.19-0.212-0.19c-0.063,0-0.12,0.028-0.159,0.073c-0.047-0.048-0.112-0.077-0.184-0.077
		c-0.023,0-0.043,0.004-0.065,0.01c0.001-0.013,0.004-0.024,0.004-0.037C57.906,20.503,57.81,20.409,57.693,20.409z"/>
	<path d="M56.99,21.364l-0.419,0.045L56.6,22.53c0.15,0.038,0.287,0.118,0.407,0.232L56.99,21.364z"/>
	<path d="M56.19,21.448l-0.356,0.037l0.056,1.21c0.104-0.083,0.221-0.141,0.345-0.17L56.19,21.448z"/>
</g>
</svg>
