<?xml version="1.0" encoding="utf-8"?>
<!-- Generator: Adobe Illustrator 17.0.0, SVG Export Plug-In . SVG Version: 6.00 Build 0)  -->
<!DOCTYPE svg PUBLIC "-//W3C//DTD SVG 1.1//EN" "http://www.w3.org/Graphics/SVG/1.1/DTD/svg11.dtd">
<svg version="1.1" id="Capa_1" xmlns="http://www.w3.org/2000/svg" xmlns:xlink="http://www.w3.org/1999/xlink" x="0px" y="0px"
	 width="64px" height="64px" viewBox="0 0 64 64" enable-background="new 0 0 64 64" xml:space="preserve">
<path d="M11.727,35.939c-0.398-0.626-0.609-1.352-0.609-2.097c0-0.191,0.014-0.381,0.04-0.565c0.087-0.596-0.372-1.212-1.092-1.464
	L6.12,30.431c-0.766-0.263-1.623,0.195-1.797,0.96c-0.184,0.799-0.275,1.624-0.275,2.452c0,2.562,0.9,5.057,2.537,7.021
	c0.256,0.308,0.634,0.484,1.036,0.484c0.373,0,0.741-0.153,1.009-0.422l2.952-2.951C12.101,37.456,12.16,36.62,11.727,35.939z
	 M10.899,37.293l-2.953,2.952c-0.088,0.088-0.206,0.138-0.325,0.138c-0.067,0-0.196-0.018-0.295-0.137
	c-1.492-1.791-2.313-4.065-2.313-6.403c0-0.756,0.084-1.508,0.25-2.236c0.047-0.201,0.226-0.29,0.384-0.29
	c0.052,0,0.104,0.009,0.155,0.026l3.945,1.382c0.344,0.12,0.465,0.356,0.456,0.416c-0.032,0.229-0.05,0.464-0.05,0.702
	c0,0.93,0.262,1.833,0.76,2.616C11.071,36.707,11.118,37.074,10.899,37.293z M19.153,37.318c-0.491-0.519-1.376-0.584-2.025-0.171
	c-0.779,0.496-1.74,0.699-2.64,0.571l-0.132-0.01c-0.539,0-1.08,0.456-1.313,1.107l-1.411,3.937
	c-0.139,0.381-0.107,0.799,0.084,1.146c0.184,0.336,0.492,0.567,0.867,0.652c0.798,0.182,1.621,0.274,2.447,0.274
	c2.505,0,4.953-0.864,6.896-2.435c0.297-0.238,0.474-0.581,0.5-0.965c0.025-0.396-0.119-0.79-0.396-1.082
	C22.03,40.342,19.153,37.318,19.153,37.318z M21.321,41.642c-2.357,1.904-5.587,2.638-8.525,1.97
	c-0.131-0.03-0.199-0.112-0.234-0.177c-0.058-0.104-0.066-0.234-0.021-0.357l1.412-3.936c0.115-0.322,0.339-0.468,0.4-0.468
	c1.117,0.157,2.32-0.093,3.295-0.712c0.228-0.146,0.526-0.272,0.807,0.021l2.877,3.026c0.093,0.097,0.141,0.226,0.132,0.354
	C21.458,41.442,21.429,41.554,21.321,41.642z M21.444,26.79l-2.866,3.047c-0.489,0.521-0.554,1.363-0.157,2.051
	c0.342,0.591,0.522,1.267,0.522,1.955c0,0.19-0.013,0.378-0.04,0.562c-0.084,0.594,0.376,1.208,1.094,1.461l3.942,1.393
	c0.155,0.055,0.315,0.082,0.477,0.082c0.639,0,1.182-0.428,1.321-1.038c0.184-0.803,0.276-1.629,0.276-2.459
	c0-2.562-0.901-5.057-2.537-7.021C22.981,26.227,21.987,26.212,21.444,26.79z M24.798,36.087c-0.061,0.266-0.332,0.333-0.537,0.26
	l-3.942-1.392c-0.339-0.12-0.468-0.357-0.46-0.413c0.033-0.229,0.051-0.461,0.051-0.699c0-0.858-0.227-1.702-0.652-2.438
	c-0.18-0.311-0.169-0.7,0.024-0.906l2.865-3.046c0.085-0.091,0.2-0.144,0.314-0.144c0.076,0,0.185,0.023,0.274,0.131
	c1.492,1.792,2.314,4.065,2.314,6.403C25.05,34.601,24.964,35.354,24.798,36.087z M11.039,30.261
	c0.284,0.284,0.679,0.441,1.109,0.441c0.325,0,0.648-0.088,0.933-0.252c0.769-0.443,1.711-0.605,2.559-0.473l0.169,0.014
	c0.571,0,1.124-0.446,1.344-1.086l1.361-3.951c0.133-0.383,0.098-0.801-0.094-1.147c-0.186-0.336-0.492-0.568-0.865-0.655
	c-3.238-0.762-6.788,0.032-9.389,2.118c-0.301,0.24-0.477,0.583-0.498,0.966c-0.021,0.395,0.131,0.785,0.416,1.07
	C8.084,27.306,11.039,30.261,11.039,30.261z M8.77,26.022c1.794-1.438,3.959-2.198,6.261-2.198c0.777,0,1.552,0.09,2.305,0.267
	c0.133,0.031,0.204,0.116,0.24,0.184c0.061,0.107,0.07,0.241,0.027,0.365l-1.361,3.95c-0.102,0.296-0.316,0.434-0.448,0.434
	c-0.001,0-0.002,0-0.003,0c-1.065-0.164-2.231,0.038-3.191,0.591c-0.245,0.14-0.582,0.259-0.877-0.036l-2.955-2.955
	c-0.092-0.092-0.141-0.214-0.134-0.335C8.637,26.213,8.664,26.107,8.77,26.022z M57.96,17.422c-2.361-1.399-5.021-2.109-7.906-2.109
	c-3.426,0-9.002,1.037-16.123,5.979l-0.171,0.119c-0.89,0.611-3.668,1.983-7.679,3.77c-0.107,0-0.217-0.057-0.262-0.112
	c-2.658-3.266-6.59-5.138-10.789-5.138c-7.672,0-13.913,6.24-13.913,13.912c0,7.673,6.241,13.915,13.913,13.915
	c4.046,0,7.887-1.768,10.537-4.85c0.187-0.216,0.621-0.443,0.861-0.45c0.715-0.02,1.648-0.036,2.728-0.036
	c4.037,0,11.455,0.253,15.777,1.943c5.234,2.047,10.13,6.832,11.994,8.795c0.332,0.353,0.699,0.531,1.088,0.531
	c0.592,0,1.231-0.454,1.231-1.452V19.736C59.246,18.851,58.693,17.855,57.96,17.422z M57.315,50.798
	c-2.404-2.385-6.872-6.351-11.679-8.23c-4.387-1.716-11.383-2.076-16.48-2.076c-1.101,0-2.053,0.018-2.781,0.037
	c-0.776,0.022-1.731,0.494-2.271,1.122c-2.284,2.654-5.592,4.177-9.074,4.177c-6.607,0-11.982-5.376-11.982-11.984
	c0-6.607,5.375-11.982,11.982-11.982c3.616,0,7.002,1.613,9.291,4.427c0.607,0.744,1.748,1.031,2.607,0.646
	c2.383-1.072,6.582-3.01,7.925-3.932l0.178-0.125c6.709-4.656,11.874-5.634,15.022-5.634c2.531,0,4.861,0.618,6.922,1.84
	c0.142,0.082,0.34,0.436,0.34,0.653C57.315,19.737,57.315,50.798,57.315,50.798z M14.86,31.772c1.112,0,2.013,0.901,2.013,2.013
	s-0.901,2.013-2.013,2.013s-2.013-0.901-2.013-2.013S13.748,31.772,14.86,31.772z M53.348,22.45l0.354-0.007v-3.429l-0.369,0.007
	c-0.941,0.018-1.929,0.106-2.934,0.264l-0.306,0.048v3.438l0.417-0.065C51.482,22.553,52.438,22.468,53.348,22.45z M50.817,19.955
	c0.737-0.106,1.461-0.172,2.163-0.2v1.982c-0.704,0.024-1.428,0.089-2.163,0.19V19.955z M48.506,22.906l0.285-0.061v-3.446
	l-0.438,0.095c-0.923,0.199-1.877,0.456-2.831,0.766l-0.251,0.079v3.466l0.472-0.153C46.677,23.352,47.607,23.101,48.506,22.906z
	 M45.996,20.868c0.695-0.219,1.392-0.409,2.073-0.568v1.963c-0.682,0.153-1.378,0.34-2.073,0.552
	C45.996,22.815,45.996,20.868,45.996,20.868z M43.934,23.957l0.236-0.089V20.39l-0.488,0.184c-0.923,0.345-1.86,0.738-2.79,1.171
	l-0.21,0.098v3.503l0.516-0.239C42.109,24.681,43.031,24.294,43.934,23.957z M41.405,22.304c0.682-0.311,1.362-0.602,2.04-0.865
	v1.93c-0.676,0.257-1.358,0.541-2.04,0.847V22.304z M39.935,25.591l0.196-0.101v-3.517l-0.526,0.268
	c-0.791,0.405-1.574,0.836-2.328,1.281l-0.179,0.105v3.546l0.546-0.322C38.385,26.413,39.155,25.989,39.935,25.591z M37.82,24.042
	c0.52-0.303,1.051-0.599,1.587-0.883v1.889c-0.534,0.277-1.065,0.566-1.587,0.862V24.042z M35.304,28.021
	c0.295-0.2,0.62-0.411,0.971-0.632l0.167-0.106v-3.56l-0.553,0.349c-0.356,0.224-0.688,0.441-0.991,0.646
	c-0.334,0.227-0.661,0.437-0.977,0.63l-0.173,0.105v3.554l0.552-0.336C34.622,28.472,34.959,28.255,35.304,28.021z M34.472,25.858
	c0.27-0.169,0.548-0.349,0.832-0.541c0.132-0.089,0.271-0.183,0.414-0.276v1.844c-0.291,0.185-0.564,0.366-0.82,0.537
	c-0.145,0.098-0.286,0.192-0.426,0.283C34.472,27.705,34.472,25.858,34.472,25.858z M32.969,29.257l0.186-0.104V25.62l-0.536,0.299
	c-0.648,0.359-1.293,0.677-1.914,0.941l-0.221,0.093v3.492l0.504-0.215C31.632,29.957,32.3,29.628,32.969,29.257z M31.206,27.43
	c0.403-0.177,0.812-0.374,1.225-0.588v1.884c-0.412,0.224-0.821,0.429-1.225,0.616C31.206,29.342,31.206,27.43,31.206,27.43z
	 M29.664,30.695l0.246-0.083v-3.469l-0.478,0.16c-1.141,0.387-1.81,0.45-1.816,0.451l-0.33,0.029v3.43l0.394-0.033
	C27.71,31.178,28.431,31.111,29.664,30.695z M28.011,28.428c0.255-0.044,0.654-0.13,1.176-0.286v1.948
	c-0.509,0.161-0.908,0.254-1.176,0.307V28.428z M54.991,42.648l-0.41-0.302L53.66,45.3l0.214,0.152
	c1.264,0.901,2.028,1.547,2.036,1.555l0.596,0.505v-3.675l-0.126-0.108C56.359,43.712,55.864,43.292,54.991,42.648z M55.782,45.975
	c-0.312-0.246-0.744-0.575-1.275-0.958l0.462-1.481c0.389,0.294,0.665,0.517,0.813,0.639V45.975z M53.614,41.842
	c-1.629-1.204-2.111-1.503-2.616-1.789l-0.369-0.213l-1.077,2.891l0.271,0.15c0.55,0.308,1.067,0.619,2.743,1.849l0.426,0.312
	l0.82-3.053C53.812,41.989,53.614,41.842,53.614,41.842z M52.568,43.835c-1.142-0.829-1.676-1.173-2.12-1.433l0.56-1.505
	c0.349,0.214,0.872,0.566,1.977,1.38C52.985,42.277,52.568,43.835,52.568,43.835z M49.603,39.524c-0.57-0.312-1.17-0.62-1.794-0.918
	l-0.41-0.197l-0.683,3.092l0.258,0.123c0.542,0.26,1.066,0.528,1.572,0.801l0.385,0.207l0.934-2.965
	C49.865,39.667,49.603,39.524,49.603,39.524z M48.503,41.582c-0.313-0.164-0.633-0.325-0.958-0.485l0.362-1.639
	c0.373,0.185,0.735,0.371,1.088,0.561L48.503,41.582z M46.551,37.975c-0.562-0.252-1.141-0.492-1.73-0.717l-0.388-0.146
	l-0.719,3.059l0.297,0.112c0.557,0.211,1.106,0.439,1.641,0.68l0.393,0.177l0.784-3.041C46.829,38.099,46.551,37.975,46.551,37.975z
	 M45.558,40.13c-0.327-0.142-0.659-0.278-0.995-0.41l0.388-1.636c0.345,0.138,0.687,0.279,1.024,0.427
	C45.975,38.511,45.558,40.13,45.558,40.13z M40.959,36.373l-0.379-0.044l-0.215,3.137l0.339,0.043c0.758,0.095,1.432,0.208,2,0.337
	l0.371,0.084l0.542-3.102l-0.336-0.076C42.628,36.604,41.845,36.477,40.959,36.373z M42.492,39.061
	c-0.412-0.083-0.867-0.159-1.358-0.226l0.116-1.697c0.564,0.072,1.077,0.157,1.534,0.248L42.492,39.061z M37.549,36.107
	l-0.387-0.018l0.055,3.142l0.336,0.02c0.633,0.036,1.257,0.082,1.856,0.138l0.359,0.033l0.298-3.126l-0.362-0.031
	C38.961,36.198,38.33,36.146,37.549,36.107z M39.117,38.636c-0.388-0.033-0.787-0.062-1.188-0.088l-0.03-1.696
	c0.481,0.028,0.913,0.061,1.376,0.101L39.117,38.636z M36.227,36.068c-0.774-0.027-1.548-0.044-2.304-0.052l-0.384-0.004
	l0.159,3.117l0.338,0.005c0.773,0.011,1.441,0.029,2.228,0.062l0.387,0.017l-0.084-3.133C36.567,36.08,36.227,36.068,36.227,36.068z
	 M34.386,38.416L34.3,36.745c0.517,0.008,1.038,0.019,1.562,0.035l0.045,1.679C35.384,38.438,34.901,38.426,34.386,38.416z
	 M32.655,36.011c-0.624,0-1.17,0.017-1.692,0.032l-1.117,0.027l-0.235,3.08l0.397-0.008c0.71-0.013,1.495-0.021,2.325-0.021
	l0.821,0.002l-0.155-3.113L32.655,36.011L32.655,36.011z M32.333,38.398c-0.683,0-1.335,0.006-1.941,0.015l0.126-1.634l0.466-0.013
	c0.418-0.012,0.852-0.024,1.327-0.029l0.083,1.661H32.333z M26.96,36.141l-0.289,0.015l-0.543,3.118l0.453-0.021
	c0.002-0.001,0.844-0.044,2.166-0.081l0.31-0.009l0.391-3.111l-0.422,0.014C27.759,36.1,26.96,36.141,26.96,36.141z M28.417,38.457
	c-0.608,0.018-1.096,0.036-1.42,0.05l0.287-1.657c0.276-0.013,0.738-0.031,1.341-0.05L28.417,38.457z M40.603,30.193
	c0.161-0.016,0.308-0.015,0.441-0.004c0.243,0.02,0.465-0.101,0.502-0.329s-0.179-0.502-0.496-0.519
	c-0.167-0.008-0.36-0.005-0.573,0.017c-1.37,0.137-2.384,1.102-2.229,2.647c0.13,1.289,1.035,2.188,2.601,2.031
	c0.215-0.022,0.414-0.059,0.583-0.104c0.317-0.081,0.501-0.386,0.438-0.604c-0.064-0.218-0.291-0.303-0.525-0.241
	c-0.139,0.037-0.287,0.065-0.434,0.08c-0.906,0.092-1.5-0.424-1.593-1.331C39.214,30.828,39.797,30.274,40.603,30.193z
	 M43.456,30.179c-0.03-0.532-0.286-0.951-0.57-0.934c-0.282,0.018-0.486,0.462-0.457,0.994l0.156,2.619
	c0.031,0.531,0.286,0.95,0.568,0.934c0.284-0.018,0.488-0.462,0.456-0.994L43.456,30.179z M47.712,33.701
	c0.298,0.001,0.541-0.43,0.541-0.963l0.007-2.627c0-0.532-0.211-0.964-0.472-0.965c-0.262-0.001-0.475,0.295-0.475,0.661
	c0,0.365-0.002,0.661-0.002,0.661c0,0.333,0.004,0.649,0.015,0.953c0.017,0.527-0.093,0.594-0.297,0.162
	c-0.126-0.268-0.258-0.53-0.394-0.771l-0.472-0.837c-0.26-0.461-0.74-0.836-1.073-0.837c-0.33,0-0.603,0.431-0.603,0.964
	l-0.008,2.626c0,0.533,0.212,0.965,0.472,0.966c0.262,0.001,0.475-0.307,0.475-0.685c0.002-0.379,0.002-0.687,0.002-0.687
	c0-0.364-0.002-0.705-0.005-1.028c-0.006-0.533,0.139-0.593,0.359-0.149c0.138,0.277,0.28,0.549,0.416,0.794l0.505,0.914
	C46.963,33.322,47.412,33.701,47.712,33.701z M51.369,30.309c0.486,0.061,0.902-0.08,0.933-0.311
	c0.027-0.231-0.379-0.471-0.906-0.536l-0.865-0.106c-0.531-0.065-1.012,0.311-1.076,0.84l-0.321,2.601
	c-0.063,0.529,0.312,1.011,0.841,1.076l0.96,0.117c0.526,0.065,0.979-0.069,1.008-0.301c0.029-0.231-0.364-0.47-0.876-0.533
	c-0.513-0.063-0.898-0.354-0.861-0.649c0.035-0.297,0.438-0.49,0.896-0.434c0.458,0.055,0.851-0.085,0.884-0.315
	c0.027-0.229-0.323-0.461-0.782-0.517c-0.458-0.056-0.804-0.312-0.772-0.57C50.462,30.409,50.883,30.248,51.369,30.309z"/>
</svg>
