<?xml version="1.0" encoding="utf-8"?>
<!-- Generator: Adobe Illustrator 16.0.4, SVG Export Plug-In . SVG Version: 6.00 Build 0)  -->
<!DOCTYPE svg PUBLIC "-//W3C//DTD SVG 1.1//EN" "http://www.w3.org/Graphics/SVG/1.1/DTD/svg11.dtd">
<svg version="1.1" id="Capa_1" xmlns="http://www.w3.org/2000/svg" xmlns:xlink="http://www.w3.org/1999/xlink" x="0px" y="0px"
	 width="64px" height="64px" viewBox="0 0 64 64" enable-background="new 0 0 64 64" xml:space="preserve">
<path d="M56.175,13.507c0.589,0,1.063-0.476,1.063-1.064c0-0.588-0.477-1.064-1.063-1.064h-2.485v-7.28h2.485
	c0.589,0,1.063-0.479,1.063-1.066c0-0.587-0.477-1.064-1.063-1.064L6.698,1.967c-0.588,0-1.064,0.478-1.064,1.065
	c0,0.587,0.476,1.066,1.064,1.066h1.951v7.279H6.698c-0.588,0-1.064,0.477-1.064,1.065s0.477,1.064,1.064,1.064h9.113V48.01H6.698
	c-0.588,0-1.064,0.477-1.064,1.064c0,0.589,0.477,1.064,1.064,1.064h1.951v7.28H6.698c-0.588,0-1.064,0.478-1.064,1.065
	s0.477,1.065,1.064,1.065h49.476c0.59,0.002,1.064-0.477,1.064-1.065c0-0.588-0.477-1.064-1.063-1.064h-2.485v-7.279h2.485
	c0.589,0,1.063-0.477,1.063-1.065s-0.477-1.063-1.063-1.063h-8.879V13.507H56.175z M36.523,4.099h6.453v7.279h-6.453V4.099z
	 M27.944,4.099h6.451v7.279h-6.451V4.099z M19.362,4.099h6.451v7.279h-6.451V4.099z M17.231,57.421H10.78v-7.28h6.451V57.421z
	 M17.231,11.377H10.78V4.098h6.451V11.377z M17.232,13.507h28.644v34.504H17.232V13.507z M25.813,57.421h-6.451v-7.278h6.451V57.421
	z M34.395,57.421h-6.451v-7.278h6.451V57.421z M42.977,57.421h-6.453v-7.278h6.453V57.421z M51.559,50.143v7.278h-6.451v-7.278
	H51.559z M45.107,11.378V4.099h6.451v7.279H45.107z"/>
</svg>
