<?xml version="1.0" encoding="iso-8859-1"?>
<!-- Generator: Adobe Illustrator 17.0.0, SVG Export Plug-In . SVG Version: 6.00 Build 0)  -->
<!DOCTYPE svg PUBLIC "-//W3C//DTD SVG 1.1//EN" "http://www.w3.org/Graphics/SVG/1.1/DTD/svg11.dtd">
<svg version="1.1" id="Capa_1" xmlns="http://www.w3.org/2000/svg" xmlns:xlink="http://www.w3.org/1999/xlink" x="0px" y="0px"
	 width="64px" height="64px" viewBox="0 0 64 64" style="enable-background:new 0 0 64 64;" xml:space="preserve">
<g>
	<path d="M45.699,36.403H18.647l-2.428,2.69c-0.441,0.488-0.799,1.418-0.799,2.075v4.683c0,0.658,0.534,1.191,1.191,1.191h30.608
		c0.658,0,1.191-0.533,1.191-1.191v-4.683c0-0.657-0.322-1.616-0.72-2.14L45.699,36.403z"/>
	<path d="M46.029,35.46v-8.197c0-1.205,0.98-2.184,2.185-2.184h1.191V12.43c0-2.852-2.311-5.163-5.162-5.163H18.829
		c-2.851,0-5.162,2.311-5.162,5.163v12.111h2.251c1.204,0,2.184,0.979,2.184,2.184v8.735H46.029z"/>
	<path d="M16.639,27.263c0-0.658-0.533-1.191-1.191-1.191h-3.573c-0.658,0-1.424,0.48-1.71,1.072l-1.842,3.812
		c-0.286,0.593-0.519,1.605-0.519,2.264V52.18h1.819v4.797c0,0.219,0.178,0.397,0.398,0.397h2.515c0.219,0,0.397-0.179,0.397-0.397
		V52.18h0.927V41.16c0-0.657,0.37-1.574,0.827-2.048l1.952-2.023V27.263z"/>
	<path d="M53.977,27.144c-0.287-0.592-1.053-1.072-1.71-1.072h-3.574c-0.657,0-1.191,0.533-1.191,1.191v9.827l1.953,2.023
		c0.456,0.474,0.827,1.391,0.827,2.048v11.02h0.927v4.797c0,0.219,0.178,0.397,0.396,0.397h2.516c0.219,0,0.396-0.179,0.396-0.397
		V52.18h1.82V33.219c0-0.658-0.232-1.671-0.519-2.264L53.977,27.144z M55.782,34.537h-0.239v1.866c0,0.11-0.089,0.199-0.198,0.199
		h-1.887c-0.108,0-0.197-0.089-0.197-0.199c0-0.109,0.089-0.198,0.197-0.198h1.688v-1.668h-2.579v2.412h-1.162v-2.412h-2.513v1.668
		h1.688c0.109,0,0.198,0.089,0.198,0.198c0,0.11-0.089,0.199-0.198,0.199h-1.887c-0.109,0-0.198-0.089-0.198-0.199v-1.866H48.19
		v-2.055h7.593V34.537z"/>
</g>
</svg>
