<?xml version="1.0" encoding="iso-8859-1"?>
<!-- Generator: Adobe Illustrator 17.0.0, SVG Export Plug-In . SVG Version: 6.00 Build 0)  -->
<!DOCTYPE svg PUBLIC "-//W3C//DTD SVG 1.1//EN" "http://www.w3.org/Graphics/SVG/1.1/DTD/svg11.dtd">
<svg version="1.1" id="Capa_1" xmlns="http://www.w3.org/2000/svg" xmlns:xlink="http://www.w3.org/1999/xlink" x="0px" y="0px"
	 width="64px" height="64px" viewBox="0 0 64 64" style="enable-background:new 0 0 64 64;" xml:space="preserve">
<g>
	<path d="M32.655,4.921c0.261-0.638-0.044-1.366-0.682-1.628c-0.639-0.262-1.367,0.043-1.628,0.682l-2.6,6.344
		c-0.061,0.149-0.093,0.311-0.093,0.473v14.373c-2.255-0.006-9.939,0.078-10.884,1.495c0,0-0.624,1.803-0.555,3.952
		c0,0,4.784,0.615,12.063,0.615h1.325c7.279,0,12.062-0.615,12.062-0.615c0.07-2.149-0.555-3.952-0.555-3.952
		c-0.956-1.435-8.812-1.503-10.961-1.495V11.037L32.655,4.921z M30.675,4.049c0.127-0.41,0.631-0.621,1.125-0.468
		c0.494,0.153,0.792,0.61,0.664,1.021c-0.128,0.411-0.631,0.622-1.125,0.47C30.845,4.918,30.548,4.461,30.675,4.049z"/>
	<path d="M29.602,31.997h-1.325c0,0-4.853,0-10.676-0.347l3.674,28.148c0,0,2.704,1.802,7.626,1.663h0.078
		c4.922,0.139,7.625-1.663,7.625-1.663l3.674-28.148C34.455,31.997,29.602,31.997,29.602,31.997z"/>
</g>
</svg>
