<?xml version="1.0" encoding="iso-8859-1"?>
<!-- Generator: Adobe Illustrator 17.0.0, SVG Export Plug-In . SVG Version: 6.00 Build 0)  -->
<!DOCTYPE svg PUBLIC "-//W3C//DTD SVG 1.1//EN" "http://www.w3.org/Graphics/SVG/1.1/DTD/svg11.dtd">
<svg version="1.1" id="Capa_1" xmlns="http://www.w3.org/2000/svg" xmlns:xlink="http://www.w3.org/1999/xlink" x="0px" y="0px"
	 width="64px" height="64px" viewBox="0 0 64 64" style="enable-background:new 0 0 64 64;" xml:space="preserve">
<g>
	<circle cx="21.296" cy="18.735" r="3.454"/>
	<circle cx="11.702" cy="22.767" r="3.454"/>
	<path d="M7.865,54.617c0,1.689,1.381,3.071,3.07,3.071h1.535c1.688,0,3.069-1.382,3.069-3.071V43.549
		c1.352-0.597,2.303-1.948,2.303-3.514v-8.827c0-2.11-1.727-3.837-3.837-3.837H9.399c-2.111,0-3.837,1.727-3.837,3.837v8.827
		c0,1.565,0.951,2.919,2.303,3.514V54.617z"/>
	<circle cx="44.117" cy="18.331" r="1.791"/>
	<path d="M17.613,45.091v6.211c0.217,1.48,1.487,2.63,3.025,2.63h1.535c1.688,0,3.07-1.381,3.07-3.07V39.792
		c1.352-0.596,2.303-1.948,2.303-3.514v-8.827c0-2.11-1.727-3.837-3.837-3.837h-4.606c-0.723,0-1.392,0.214-1.971,0.565
		c-0.141,0.763-0.435,1.473-0.86,2.088c2.132,0.857,3.645,2.94,3.645,5.375v8.827C19.916,42.307,19.042,44.008,17.613,45.091z"/>
	<path d="M47.301,22.708c0-1.094-0.895-1.989-1.99-1.989h-2.388c-0.237,0-0.462,0.049-0.673,0.127v2.302h-1.317v0.467h-0.921v-0.83
		h1.829v-3.681h-5.131v3.681h1.829v0.83H28.143c0.776,0.986,1.258,2.214,1.258,3.563v8.827c0,0.789-0.169,1.55-0.467,2.251h29.483
		V23.614H47.301V22.708z"/>
	<path d="M28.258,17.13h8.451v-5.697h-8.451V17.13z M30.937,12.477h4.5v0.682h-4.5V12.477z M30.937,14.985h4.5v0.682h-4.5V14.985z
		 M29.003,12.147h0.93v1.339h-0.93V12.147z M29.003,14.656h0.93v1.34h-0.93V14.656z"/>
	<path d="M29.352,12.343l-0.231,0.759h0.177l0.054-0.194h0.217l0.059,0.194h0.187l-0.237-0.759H29.352z M29.377,12.778l0.045-0.161
		c0.013-0.042,0.024-0.101,0.035-0.146h0.002c0.011,0.046,0.024,0.102,0.039,0.146l0.047,0.161H29.377z"/>
	<path d="M29.352,14.947l-0.231,0.758h0.177l0.054-0.194h0.217l0.059,0.194h0.187l-0.237-0.758H29.352z M29.377,15.382l0.045-0.161
		c0.013-0.042,0.024-0.101,0.035-0.147h0.002c0.011,0.046,0.024,0.102,0.039,0.147l0.047,0.161H29.377z"/>
	<path d="M56.959,11.433h-8.451v5.697h8.451V11.433z M50.183,15.996h-0.93v-1.34h0.93V15.996z M50.183,13.486h-0.93v-1.339h0.93
		V13.486z M55.687,15.667h-4.5v-0.682h4.5V15.667z M55.687,13.158h-4.5v-0.682h4.5V13.158z"/>
	<path d="M49.602,12.907h0.217l0.059,0.194h0.187l-0.237-0.759h-0.225l-0.231,0.759h0.177L49.602,12.907z M49.672,12.617
		c0.013-0.042,0.024-0.101,0.035-0.146h0.002c0.011,0.046,0.024,0.102,0.039,0.146l0.047,0.161h-0.168L49.672,12.617z"/>
	<path d="M49.602,15.511h0.217l0.059,0.194h0.187l-0.237-0.758h-0.225l-0.231,0.758h0.177L49.602,15.511z M49.672,15.221
		c0.013-0.042,0.024-0.101,0.035-0.147h0.002c0.011,0.046,0.024,0.102,0.039,0.147l0.047,0.161h-0.168L49.672,15.221z"/>
</g>
</svg>
