<?xml version="1.0" encoding="iso-8859-1"?>
<!-- Generator: Adobe Illustrator 17.0.0, SVG Export Plug-In . SVG Version: 6.00 Build 0)  -->
<!DOCTYPE svg PUBLIC "-//W3C//DTD SVG 1.1//EN" "http://www.w3.org/Graphics/SVG/1.1/DTD/svg11.dtd">
<svg version="1.1" id="Capa_1" xmlns="http://www.w3.org/2000/svg" xmlns:xlink="http://www.w3.org/1999/xlink" x="0px" y="0px"
	 width="64px" height="64px" viewBox="0 0 64 64" style="enable-background:new 0 0 64 64;" xml:space="preserve">
<g>
	<path d="M32.994,48.565c0.364-4.375-4.01-5.833-4.01-5.833l-13.43-4.163c-0.686-0.432-1.436-0.673-2.223-0.689l-0.02-0.005v0.003
		c-0.021,0-0.04-0.003-0.061-0.003c-3.321,0-6.014,4.079-6.014,9.11c0,5.032,2.693,9.113,6.014,9.113
		c0.021,0,0.04-0.005,0.061-0.005v0.005l0.098-0.013c0.223-0.009,0.442-0.037,0.659-0.082l14.916-1.85
		C28.984,54.153,32.629,52.938,32.994,48.565z M13.251,52.991c-2.189,0-3.963-2.69-3.963-6.007s1.774-6.006,3.963-6.006
		c2.189,0,3.964,2.69,3.964,6.006S15.44,52.991,13.251,52.991z"/>
	<path d="M20.127,20.621c0,8.43,3.742,15.324,8.475,15.877c-2.951-2.41-4.941-8.439-4.941-15.877c0-7.437,1.991-13.467,4.941-15.875
		C23.869,5.297,20.127,12.192,20.127,20.621z"/>
	<path d="M37.816,14.777C36.82,8.903,34.383,4.746,31.527,4.746c-3.741,0-6.774,7.126-6.774,15.915
		c0,8.791,3.033,15.917,6.774,15.917c2.331,0,4.386-2.768,5.604-6.981c1.279,4.595,3.885,7.847,6.949,8.204
		c-2.714-2.217-4.545-7.762-4.545-14.603c0-6.84,1.831-12.387,4.544-14.603C41.489,8.896,39.229,11.274,37.816,14.777z
		 M31.802,25.123c-0.95,0-1.719-1.847-1.719-4.126c0-2.278,0.769-4.125,1.719-4.125c0.95,0,1.719,1.847,1.719,4.125
		C33.521,23.276,32.752,25.123,31.802,25.123z"/>
	<path d="M46.771,37.874c3.44,0,6.229-6.556,6.229-14.641c0-8.083-2.789-14.639-6.229-14.639c-3.441,0-6.23,6.556-6.23,14.639
		C40.541,31.318,43.331,37.874,46.771,37.874z M46.771,19.705c0.95,0,1.719,1.847,1.719,4.125c0,2.279-0.769,4.126-1.719,4.126
		s-1.719-1.847-1.719-4.126C45.052,21.552,45.821,19.705,46.771,19.705z"/>
	<path d="M54.763,40.667l-18.468-2.793H21.838v1.223l7.235,2.244c1.919,0.639,5.394,2.982,5.031,7.344
		c-0.439,5.271-4.815,6.79-5.002,6.851c-0.091,0.031-0.186,0.053-0.281,0.064l-6.983,0.865v2.79l13.972-0.607l18.953,0.607V40.667z
		 M23.035,58.275c-0.277,0-0.502-0.225-0.502-0.502c0-0.278,0.225-0.503,0.502-0.503c0.277,0,0.502,0.225,0.502,0.503
		C23.537,58.051,23.312,58.275,23.035,58.275z M34.782,57.773c-0.277,0-0.502-0.225-0.502-0.503c0-0.277,0.225-0.502,0.502-0.502
		c0.277,0,0.501,0.225,0.501,0.502C35.284,57.548,35.059,57.773,34.782,57.773z M34.782,40.181c-0.277,0-0.502-0.225-0.502-0.502
		s0.225-0.502,0.502-0.502c0.277,0,0.501,0.225,0.501,0.502S35.059,40.181,34.782,40.181z"/>
</g>
</svg>
