<?xml version="1.0" encoding="iso-8859-1"?>
<!-- Generator: Adobe Illustrator 17.0.0, SVG Export Plug-In . SVG Version: 6.00 Build 0)  -->
<!DOCTYPE svg PUBLIC "-//W3C//DTD SVG 1.1//EN" "http://www.w3.org/Graphics/SVG/1.1/DTD/svg11.dtd">
<svg version="1.1" id="Capa_1" xmlns="http://www.w3.org/2000/svg" xmlns:xlink="http://www.w3.org/1999/xlink" x="0px" y="0px"
	 width="64px" height="64px" viewBox="0 0 64 64" style="enable-background:new 0 0 64 64;" xml:space="preserve">
<g>
	<path d="M60.913,33.298h-9.486v5.165l-1.191,0.496V15.7c0-4.056-3.289-7.344-7.345-7.344H26.824c-4.056,0-7.344,3.288-7.344,7.344
		v20.25l-1.156,0.481v-3.134h-3.822l0.608-4.652c-1.231,0.073-2.257,0.073-2.257,0.073h-0.28c0,0-1.025,0-2.258-0.073l0.608,4.652
		H8.838c-0.678,0-1.225,0.548-1.225,1.224v2.856c0,0.676,0.547,1.225,1.225,1.225h5.508v10.735h1.539c0,0.432,0,0.901,0,1.402
		c0,1.916,1.644,3.469,3.672,3.469h6.477v3.979h17.649v-3.979h6.478c2.028,0,3.672-1.575,3.672-3.519v-0.483h1.539V38.602h5.542
		c0.678,0,1.225-0.549,1.225-1.225v-2.856C62.138,33.846,61.591,33.298,60.913,33.298z M50.236,43.702H19.48v-1.07h30.756V43.702z"
		/>
	<path d="M13.498,22.993c0.057-0.135-0.009-0.288-0.143-0.344c-0.136-0.057-0.289,0.01-0.346,0.144l-0.548,1.341
		c-0.014,0.032-0.021,0.067-0.021,0.102v3.039c-0.478-0.001-2.103,0.016-2.301,0.316c0,0-0.133,0.38-0.118,0.834
		c0,0,1.012,0.131,2.551,0.131h0.28c1.538,0,2.551-0.131,2.551-0.131c0.015-0.454-0.117-0.834-0.117-0.834
		c-0.202-0.304-1.863-0.318-2.317-0.316v-2.988L13.498,22.993z M13.318,22.71c0.104,0.032,0.168,0.129,0.141,0.217
		c-0.028,0.086-0.133,0.131-0.238,0.099c-0.104-0.032-0.167-0.128-0.141-0.217C13.106,22.722,13.214,22.678,13.318,22.71z"/>
</g>
</svg>
