<?xml version="1.0" encoding="iso-8859-1"?>
<!-- Generator: Adobe Illustrator 17.0.0, SVG Export Plug-In . SVG Version: 6.00 Build 0)  -->
<!DOCTYPE svg PUBLIC "-//W3C//DTD SVG 1.1//EN" "http://www.w3.org/Graphics/SVG/1.1/DTD/svg11.dtd">
<svg version="1.1" id="Capa_1" xmlns="http://www.w3.org/2000/svg" xmlns:xlink="http://www.w3.org/1999/xlink" x="0px" y="0px"
	 width="64px" height="64px" viewBox="0 0 64 64" style="enable-background:new 0 0 64 64;" xml:space="preserve">
<g>
	<path d="M59.773,50.228h-0.895l-1.842-2.456V19.259c0.975-0.803,1.609-2.002,1.609-3.363c0-2.414-1.957-4.371-4.371-4.371
		c-2.413,0-4.37,1.957-4.37,4.371c0,1.361,0.635,2.561,1.609,3.363v0.494c-1.234,1.042-6.16,4.243-20.199,4.424
		C20.6,24.311,15.334,23.112,12.93,22.233v-2.975c0.977-0.801,1.611-2.002,1.611-3.363c0-2.414-1.957-4.371-4.371-4.371
		c-2.414,0-4.371,1.957-4.371,4.371c0,1.361,0.637,2.562,1.611,3.363v28.127l-2.336,3.115H3.771c-0.506,0-0.916,0.41-0.916,0.916
		c0,0.507,0.41,0.917,0.916,0.917h12.002c0.506,0,0.916-0.41,0.916-0.917c0-0.506-0.41-0.916-0.916-0.916h-0.797l-2.047-2.729
		V25.137c2.953,0.912,8.059,1.81,16.731,1.81c0.547,0,1.111-0.003,1.689-0.01c11.377-0.146,17.258-2.193,20.164-3.838v24.289
		l-2.131,2.841h-1.611c-0.506,0-0.916,0.41-0.916,0.916c0,0.507,0.41,0.917,0.916,0.917h12.001c0.506,0,0.916-0.41,0.916-0.917
		C60.688,50.639,60.278,50.228,59.773,50.228z"/>
</g>
</svg>
