<?xml version="1.0" encoding="iso-8859-1"?>
<!-- Generator: Adobe Illustrator 17.0.0, SVG Export Plug-In . SVG Version: 6.00 Build 0)  -->
<!DOCTYPE svg PUBLIC "-//W3C//DTD SVG 1.1//EN" "http://www.w3.org/Graphics/SVG/1.1/DTD/svg11.dtd">
<svg version="1.1" id="Capa_1" xmlns="http://www.w3.org/2000/svg" xmlns:xlink="http://www.w3.org/1999/xlink" x="0px" y="0px"
	 width="64px" height="64px" viewBox="0 0 64 64" style="enable-background:new 0 0 64 64;" xml:space="preserve">
<g>
	<rect x="13.481" y="10.25" width="37.683" height="42.377"/>
	<path d="M5.786,53.628h6.695V9.25H5.786V53.628z M10.481,51.628H7.786v-5.295h2.695V51.628z M7.786,36.667h2.695v7.667H7.786
		V36.667z M7.786,27h2.695v7.667H7.786V27z M7.786,17.333h2.695V25H7.786V17.333z M7.786,11.25h2.695v4.083H7.786V11.25z"/>
	<path d="M52.223,53.628h6.695V9.25h-6.695V53.628z M56.918,51.628h-2.695v-5.295h2.695V51.628z M54.223,36.667h2.695v7.667h-2.695
		V36.667z M54.223,27h2.695v7.667h-2.695V27z M54.223,17.333h2.695V25h-2.695V17.333z M54.223,11.25h2.695v4.083h-2.695V11.25z"/>
</g>
</svg>
