<?xml version="1.0" encoding="iso-8859-1"?>
<!-- Generator: Adobe Illustrator 17.0.0, SVG Export Plug-In . SVG Version: 6.00 Build 0)  -->
<!DOCTYPE svg PUBLIC "-//W3C//DTD SVG 1.1//EN" "http://www.w3.org/Graphics/SVG/1.1/DTD/svg11.dtd">
<svg version="1.1" id="Capa_1" xmlns="http://www.w3.org/2000/svg" xmlns:xlink="http://www.w3.org/1999/xlink" x="0px" y="0px"
	 width="64px" height="64px" viewBox="0 0 64 64" style="enable-background:new 0 0 64 64;" xml:space="preserve">
<g>
	<path d="M27.703,42.051l-8.127,12.408h2.82l4.039-6.095l5.85,4.493l-6.033,8.705h3.186l6.933-9.965l2.558-0.031l5.039,6.601h3.186
		l-8.02-10.542l13.399-19.26h0.408v-1.776l-0.861-0.301V16.227h1.201v-1.044l-11.543-2.638H41.32v-1.801l0.036-0.001V2.438
		L15.188,2.804v7.939v0.731v2.403v1.097v9.872h-0.47v1.201l1.233,0.684L27.703,42.051z M24.579,34.536l-3.074-4.729l1.414,0.783
		l3.461,4.534L24.579,34.536z M26.176,30.59h0.295v-0.744c3.447,0.157,6.527,0.13,9.229-0.003l-4.669,7.128L26.176,30.59z
		 M26.731,37.275l1.708,0.547l1.094,1.434l-0.562,0.857L26.731,37.275z M33.574,50.998l-5.844-4.586l1.537-2.32l4.776,6.228
		L33.574,50.998z M32.999,45.214l-2.433-3.082l0.54-0.815l3.067,4.018L32.999,45.214z M37.448,45.408l-4.838-6.36l4.082-6.16
		l6.822,3.766L37.448,45.408z M49.26,28.365l-4.442,6.41l-7.042-3.521l1.078-1.627c4.886-0.43,8.157-1.179,9.711-1.6l0.825,0.337
		H49.26z M41.32,14.079l8.932,2.136v9.437l-7.928-2.766H41.32V14.079z M17.017,11.423l22.476-0.629v1.75v1.097v9.245h-0.563v1.152
		l-0.236-0.082c-5.066,0.712-10.203,1.051-13.945,1.212v-7.375h1.201v-1.044l-8.514-2.872h-0.418V11.423z M17.017,15.636
		l5.902,2.139v7.464c-2.349,0.077-3.812,0.078-3.813,0.078l-0.992-0.471h-1.097V15.636z"/>
</g>
</svg>
