<?xml version="1.0" encoding="utf-8"?>
<!-- Generator: Adobe Illustrator 17.0.0, SVG Export Plug-In . SVG Version: 6.00 Build 0)  -->
<!DOCTYPE svg PUBLIC "-//W3C//DTD SVG 1.1//EN" "http://www.w3.org/Graphics/SVG/1.1/DTD/svg11.dtd">
<svg version="1.1" id="Capa_1" xmlns="http://www.w3.org/2000/svg" xmlns:xlink="http://www.w3.org/1999/xlink" x="0px" y="0px"
	 width="64px" height="64px" viewBox="0 0 64 64" enable-background="new 0 0 64 64" xml:space="preserve">
<path d="M47.867,57.849c-0.386,0-0.791-0.15-1.231-0.461l-14.264-7.735c-0.469-0.341-1.402-0.341-1.871,0l-0.11,0.069l-14.153,7.666
	c-0.927,0.652-1.818,0.573-2.281-0.062c-0.306-0.421-0.35-0.995-0.129-1.706l3.475-16.096c0.188-0.576-0.088-1.424-0.577-1.779
	l-0.08-0.064L4.441,26.733c-1.005-0.75-0.956-1.477-0.836-1.847c0.12-0.371,0.511-0.989,1.773-1.002l16.289-1.312
	c0.605,0,1.328-0.524,1.515-1.1l0.035-0.091l6.72-15.347c0.404-1.188,1.11-1.368,1.499-1.368s1.094,0.18,1.499,1.368l6.755,15.438
	c0.187,0.575,0.908,1.1,1.515,1.1l0.079,0.003l16.209,1.309c1.264,0.013,1.654,0.631,1.774,1.002c0.12,0.37,0.168,1.096-0.836,1.847
	L46.148,37.744c-0.489,0.356-0.765,1.203-0.577,1.779l0.026,0.097l3.448,15.999c0.221,0.711,0.177,1.285-0.129,1.706
	C48.676,57.658,48.293,57.849,47.867,57.849z M33.472,48.019l13.499,7.312L43.683,40.08c-0.413-1.354,0.136-3.042,1.265-3.896
	l11.596-10.4l-15.382-1.243c-1.42-0.021-2.863-1.067-3.327-2.41l-6.398-14.61l-6.398,14.61c-0.463,1.342-1.906,2.389-3.326,2.41
	L6.329,25.783l11.596,10.4c1.129,0.854,1.678,2.541,1.266,3.894L15.902,55.33l13.499-7.312C30.527,47.24,32.346,47.24,33.472,48.019
	z M31.463,44.292c-5.066,0-9.188-4.121-9.188-9.187s4.121-9.187,9.188-9.187c5.065,0,9.186,4.121,9.186,9.187
	S36.528,44.292,31.463,44.292z M31.463,27.231c-4.343,0-7.875,3.532-7.875,7.874s3.532,7.874,7.875,7.874
	c4.342,0,7.874-3.532,7.874-7.874S35.805,27.231,31.463,27.231z M17.567,17.757l-9.635-4.604C7.019,12.716,6.79,11.72,7.42,10.929
	L8.994,8.95c0.63-0.792,1.662-0.801,2.306-0.02l6.756,8.203C18.698,17.914,18.48,18.193,17.567,17.757z M19.706,15.932l-1.541-4.881
	c-0.146-0.462,0.128-0.869,0.612-0.907l1.208-0.097c0.484-0.039,0.825,0.32,0.762,0.801l-0.661,5.051
	C20.021,16.379,19.852,16.395,19.706,15.932z M45.027,17.757l9.634-4.604c0.913-0.436,1.143-1.433,0.513-2.224L53.6,8.95
	c-0.63-0.792-1.662-0.801-2.306-0.02l-6.756,8.203C43.895,17.914,44.113,18.193,45.027,17.757z M14.045,39.691L4.41,44.295
	c-0.913,0.437-1.143,1.433-0.513,2.225l1.574,1.979c0.63,0.791,1.662,0.801,2.306,0.02l6.756-8.203
	C15.177,39.534,14.958,39.255,14.045,39.691z M48.828,40.454l9.635,4.604c0.913,0.436,1.143,1.433,0.513,2.224l-1.574,1.979
	c-0.63,0.792-1.662,0.801-2.306,0.02l-6.756-8.202C47.696,40.298,47.915,40.018,48.828,40.454z M49.211,38.627l6.045-0.693
	c0.572-0.065,0.985,0.347,0.921,0.919l-0.161,1.432c-0.065,0.573-0.561,0.891-1.107,0.708l-5.744-1.916
	C48.617,38.894,48.638,38.692,49.211,38.627z"/>
</svg>
