<svg width="64" xmlns="http://www.w3.org/2000/svg" height="64" viewBox="0 0 64 64" xmlns:xlink="http://www.w3.org/1999/xlink" enable-background="new 0 0 64 64">
<path d="m55.965,50.504h-48.785c-2.554,0-4.63-2.077-4.63-4.63v-25.519c0-2.553 2.076-4.63 4.63-4.63h48.785c2.554,0 4.63,2.077 4.63,4.63v25.519c0,2.553-2.076,4.63-4.63,4.63zm-48.785-32.464c-1.276,0-2.315,1.038-2.315,2.315v25.519c0,1.275 1.039,2.314 2.315,2.314h48.785c1.276,0 2.316-1.039 2.316-2.314v-25.519c0-1.277-1.039-2.315-2.316-2.315h-48.785z"/>
<path d="m31.571,42.16c-4.987,0-9.045-4.059-9.045-9.047s4.058-9.046 9.045-9.046c4.988,0 9.047,4.058 9.047,9.046s-4.058,9.047-9.047,9.047zm0-16.935c-4.35,0-7.888,3.539-7.888,7.889 0,4.351 3.538,7.89 7.888,7.89 4.351,0 7.89-3.539 7.89-7.89 0-4.35-3.539-7.889-7.89-7.889z"/>
<path d="m31.571,46.11c-7.165,0-12.995-5.83-12.995-12.995 0-7.167 5.83-12.997 12.995-12.997 7.166,0 12.997,5.83 12.997,12.997 0,7.165-5.831,12.995-12.997,12.995zm0-24.834c-6.526,0-11.837,5.311-11.837,11.839 0,6.526 5.31,11.837 11.837,11.837 6.527,0 11.839-5.31 11.839-11.837-0-6.528-5.311-11.839-11.839-11.839z"/>
<path d="m38.335,32.536h21.102v1.158h-21.102z"/>
<path d="m3.707,32.536h20.955v1.158h-20.955z"/>
<path d="m30.993,39.794h1.158v9.972h-1.158z"/>
<path d="m30.993,16.462h1.158v10.019h-1.158z"/>
<path d="m30.977,30.388h-.027l-1.568,.847-.236-.929 1.971-1.056h1.041v9.024h-1.18v-7.886z"/>
</svg>
