<?xml version="1.0" encoding="iso-8859-1"?>
<!-- Generator: Adobe Illustrator 17.0.0, SVG Export Plug-In . SVG Version: 6.00 Build 0)  -->
<!DOCTYPE svg PUBLIC "-//W3C//DTD SVG 1.1//EN" "http://www.w3.org/Graphics/SVG/1.1/DTD/svg11.dtd">
<svg version="1.1" id="Capa_1" xmlns="http://www.w3.org/2000/svg" xmlns:xlink="http://www.w3.org/1999/xlink" x="0px" y="0px"
	 width="64px" height="64px" viewBox="0 0 64 64" style="enable-background:new 0 0 64 64;" xml:space="preserve">
<g>
	<path d="M16.002,44.451c6.934,0,12.554-5.62,12.554-12.553c0-6.933-5.619-12.554-12.554-12.554
		c-6.933,0-12.554,5.621-12.554,12.554C3.448,38.831,9.069,44.451,16.002,44.451z M10.028,41.721c-0.237,0-0.432-0.193-0.432-0.431
		c0-0.239,0.194-0.432,0.432-0.432c0.239,0,0.433,0.193,0.433,0.432C10.461,41.528,10.268,41.721,10.028,41.721z M7.804,36.325
		l6.542-2.649l0.15,7.628C11.55,40.815,9.081,38.917,7.804,36.325z M15.721,33.476c-0.963,0-1.741-0.78-1.741-1.742
		c0-0.963,0.778-1.743,1.741-1.743c0.962,0,1.743,0.779,1.743,1.743C17.464,32.696,16.683,33.476,15.721,33.476z M22.278,40.858
		c-0.238,0-0.431-0.194-0.431-0.432c0-0.239,0.192-0.432,0.431-0.432c0.239,0,0.433,0.193,0.433,0.432
		C22.711,40.664,22.518,40.858,22.278,40.858z M17.588,41.29l-0.154-7.842l6.822,2.763C23.008,38.839,20.542,40.772,17.588,41.29z
		 M25.887,28.475c0.238,0,0.431,0.193,0.431,0.432c0,0.239-0.192,0.433-0.431,0.433c-0.239,0-0.433-0.194-0.433-0.433
		C25.454,28.668,25.647,28.475,25.887,28.475z M25.137,32.296c0,0.31-0.017,0.616-0.046,0.918l-7.053-2.856l4.023-4.896
		C23.947,27.136,25.137,29.576,25.137,32.296z M15.45,20.786c0.238,0,0.432,0.193,0.432,0.432s-0.193,0.432-0.432,0.432
		c-0.237,0-0.432-0.194-0.432-0.432S15.213,20.786,15.45,20.786z M16.002,23.161c1.205,0,2.353,0.236,3.405,0.66l-3.983,4.85
		l-3.932-4.316C12.824,23.597,14.361,23.161,16.002,23.161z M5.416,29.771c-0.238,0-0.432-0.193-0.432-0.433
		c0-0.238,0.193-0.432,0.432-0.432c0.239,0,0.432,0.194,0.432,0.432C5.848,29.577,5.655,29.771,5.416,29.771z M6.868,32.296
		c0-2.287,0.843-4.375,2.231-5.979l4.09,4.491l-6.259,2.536C6.89,33,6.868,32.65,6.868,32.296z"/>
	<path d="M60.552,23.601c0-7.528-6.102-13.631-13.631-13.631c-7.526,0-13.63,6.103-13.63,13.631c0,6.475,4.52,11.884,10.572,13.273
		l-0.829,2.728H39.74v-2.644c0-0.38-0.31-0.689-0.69-0.689h-9.77c-0.381,0-0.689,0.309-0.689,0.689v2.644h-1.315
		c-1.376,1.966-3.263,3.549-5.466,4.555v0.47l4.506-2.343h12.197v16.169h-4.06V57.1L21.81,52.594c0,0,0,1.466,0,3.274
		c0,1.808,1.791,3.274,4,3.274h18.666c2.209,0,4-1.791,4-4v-15.54h-1.555v-2.371C54.45,37.231,60.552,31.128,60.552,23.601z
		 M38.361,39.602H29.97v-1.955h8.392V39.602z M53.737,33.33c-0.259,0-0.469-0.211-0.469-0.469c0-0.26,0.21-0.47,0.469-0.47
		c0.26,0,0.469,0.21,0.469,0.47C54.206,33.119,53.997,33.33,53.737,33.33z M48.644,33.799l-0.169-8.515l7.408,3
		C54.528,31.137,51.851,33.237,48.644,33.799z M57.654,19.883c0.26,0,0.469,0.21,0.469,0.469c0,0.259-0.209,0.469-0.469,0.469
		c-0.26,0-0.47-0.21-0.47-0.469C57.185,20.093,57.394,19.883,57.654,19.883z M56.84,24.033c0,0.336-0.018,0.669-0.05,0.998
		l-7.658-3.101l4.368-5.315C55.548,18.43,56.84,21.08,56.84,24.033z M46.323,11.535c0.258,0,0.469,0.21,0.469,0.469
		c0,0.259-0.211,0.469-0.469,0.469c-0.259,0-0.469-0.21-0.469-0.469C45.854,11.745,46.065,11.535,46.323,11.535z M46.921,14.114
		c1.309,0,2.558,0.256,3.699,0.717l-4.325,5.266l-4.271-4.687C43.471,14.587,45.142,14.114,46.921,14.114z M35.428,21.29
		c-0.259,0-0.469-0.21-0.469-0.469c0-0.259,0.21-0.469,0.469-0.469c0.26,0,0.47,0.21,0.47,0.469
		C35.897,21.081,35.688,21.29,35.428,21.29z M37.004,24.033c0-2.483,0.915-4.751,2.424-6.491l4.439,4.876l-6.795,2.753
		C37.028,24.798,37.004,24.418,37.004,24.033z M40.435,34.267c-0.259,0-0.469-0.21-0.469-0.468c0-0.259,0.21-0.469,0.469-0.469
		c0.26,0,0.469,0.21,0.469,0.469C40.904,34.057,40.695,34.267,40.435,34.267z M38.021,28.408l7.102-2.876l0.164,8.282
		C42.087,33.283,39.407,31.222,38.021,28.408z M46.616,25.315c-1.045,0-1.892-0.847-1.892-1.892c0-1.046,0.847-1.892,1.892-1.892
		c1.045,0,1.893,0.846,1.893,1.892C48.509,24.467,47.661,25.315,46.616,25.315z"/>
	<polygon points="37.824,57.687 37.824,42.897 26.483,42.897 20.735,45.886 20.735,51.403 35.143,56.538 35.143,57.687 	"/>
</g>
</svg>
