<?xml version="1.0" encoding="iso-8859-1"?>
<!-- Generator: Adobe Illustrator 17.0.0, SVG Export Plug-In . SVG Version: 6.00 Build 0)  -->
<!DOCTYPE svg PUBLIC "-//W3C//DTD SVG 1.1//EN" "http://www.w3.org/Graphics/SVG/1.1/DTD/svg11.dtd">
<svg version="1.1" id="Capa_1" xmlns="http://www.w3.org/2000/svg" xmlns:xlink="http://www.w3.org/1999/xlink" x="0px" y="0px"
	 width="64px" height="64px" viewBox="0 0 64 64" style="enable-background:new 0 0 64 64;" xml:space="preserve">
<g>
	<path d="M61.054,29.748l-1.451-8.252c0,0,0.843-7.456-25.73,1.667c-10.685,3.668-17.647,4.994-22.16,5.271l-1.008-5.649
		C3.196,24.245,3.466,26.334,3.771,27c-0.036-0.041-0.053-0.065-0.053-0.065L6.47,42.369c0,0,4.642,1.897,20.581-1.752l0.957,5.362
		c36.866-6.283,34.07-10.496,34.07-10.496L61.054,29.748z M6.063,24.926l0.352,1.979l0.069-0.013
		c-0.001,0.013-0.017,0.028-0.014,0.042L4.759,27.16C4.631,26.188,5.226,25.461,6.063,24.926z M6.388,30.641l0,0.002L6.262,30.62
		c-0.017-0.004-0.035-0.006-0.051-0.01l-0.627-0.121l-0.33-1.843c0.664,0.101,1.343,0.282,1.343,0.282l0.321,1.802
		C6.737,30.705,6.562,30.673,6.388,30.641z M6.863,24.497c0.453-0.205,0.925-0.369,1.372-0.5l0.306,1.716
		c-0.53,0.165-1.005,0.353-1.364,0.543L6.863,24.497z M7.813,30.835L7.5,29.075c0.449,0.056,0.923,0.095,1.426,0.115l0.307,1.723
		C8.741,30.902,8.268,30.876,7.813,30.835z M9.072,23.779c0.42-0.095,0.763-0.155,0.951-0.185l0.266,1.706
		c-0.309,0.048-0.612,0.113-0.913,0.183L9.072,23.779z M9.784,41.88l-0.315-1.76c0.449,0.057,0.924,0.096,1.427,0.115l0.307,1.723
		C10.711,41.948,10.238,41.921,9.784,41.88z M10.11,30.91l-0.304-1.704c0.449,0.001,0.915-0.01,1.399-0.035l0.301,1.688
		C11.028,30.888,10.564,30.904,10.11,30.91z M12.08,41.955l-0.305-1.704c0.45,0,0.916-0.011,1.4-0.035l0.301,1.688
		C12.998,41.933,12.534,41.948,12.08,41.955z M12.374,30.805l-0.301-1.688c0.449-0.034,0.91-0.078,1.384-0.128l0.299,1.679
		C13.287,30.719,12.825,30.768,12.374,30.805z M14.343,41.85l-0.301-1.689c0.45-0.034,0.911-0.078,1.383-0.129l0.3,1.679
		C15.256,41.765,14.795,41.812,14.343,41.85z M14.614,30.563l-0.3-1.677c0.45-0.057,0.907-0.121,1.372-0.192l0.3,1.678
		C15.523,30.444,15.066,30.505,14.614,30.563z M16.583,41.608l-0.298-1.677c0.449-0.057,0.906-0.122,1.372-0.193l0.299,1.678
		C17.492,41.489,17.036,41.55,16.583,41.608z M17.642,30.099c-0.27,0.048-0.537,0.088-0.804,0.132l-0.299-1.672
		c0.447-0.074,0.902-0.155,1.363-0.24l0.298,1.673C18.015,30.027,17.827,30.066,17.642,30.099z M19.612,41.144
		c-0.271,0.049-0.537,0.089-0.805,0.133l-0.298-1.673c0.447-0.074,0.902-0.154,1.363-0.24l0.298,1.674
		C19.985,41.072,19.797,41.11,19.612,41.144z M19.048,29.831l-0.299-1.673c0.447-0.088,0.899-0.18,1.357-0.278l0.298,1.673
		C19.951,29.649,19.499,29.744,19.048,29.831z M21.019,40.876l-0.299-1.674c0.447-0.088,0.899-0.18,1.357-0.278l0.298,1.672
		C21.921,40.694,21.469,40.789,21.019,40.876z M21.248,29.372l-0.299-1.675c0.447-0.1,0.898-0.203,1.352-0.31l0.299,1.675
		C22.151,29.169,21.7,29.272,21.248,29.372z M23.218,40.417l-0.298-1.675c0.448-0.099,0.898-0.203,1.353-0.31l0.298,1.675
		C24.12,40.214,23.669,40.317,23.218,40.417z M23.44,28.86l-0.299-1.674c0.446-0.109,0.896-0.221,1.348-0.337l0.299,1.678
		C24.341,28.641,23.891,28.751,23.44,28.86z M25.625,28.31l-0.299-1.677c0.445-0.117,0.892-0.237,1.342-0.361l0.299,1.679
		C26.523,28.072,26.077,28.191,25.625,28.31z M59.331,23.442l0.425,2.378l0.024,0.018c-0.155,0.219-0.625,0.718-1.905,1.432
		l-0.483-2.707c0.077-0.017,0.154-0.044,0.229-0.07c0.06-0.019,0.111-0.035,0.152-0.048C58.514,24.159,59.18,23.579,59.331,23.442z
		 M56.465,19.584l0.002,0.001c0.048,0.004,0.087,0.007,0.102,0.009v0.006c0.219,0.039,0.742,0.141,0.881,0.273l0.306,1.714
		l-1.374-0.277c-0.002,0-0.031-0.003-0.047-0.005l-0.313-1.754C56.224,19.565,56.371,19.576,56.465,19.584z M57.037,27.708
		c-0.485,0.239-1.058,0.496-1.723,0.771l-0.462-2.591c0.734-0.316,1.292-0.592,1.714-0.823L57.037,27.708z M55.138,19.513
		l0.31,1.744c-0.367-0.013-0.841-0.021-1.408-0.014l-0.309-1.733C54.271,19.501,54.745,19.503,55.138,19.513z M54,26.24l0.46,2.581
		c-0.528,0.204-1.109,0.417-1.747,0.637l-0.458-2.566C52.908,26.661,53.487,26.444,54,26.24z M52.859,19.54l0.309,1.727
		c-0.429,0.016-0.891,0.04-1.393,0.077l-0.308-1.723C51.967,19.582,52.425,19.557,52.859,19.54z M51.851,29.748
		c-0.55,0.182-1.137,0.368-1.763,0.559l-0.455-2.557c0.636-0.194,1.218-0.382,1.761-0.562L51.851,29.748z M50.606,19.698
		l0.307,1.719c-0.44,0.042-0.898,0.092-1.38,0.153l-0.306-1.714C49.707,19.794,50.164,19.742,50.606,19.698z M48.372,19.977
		l0.306,1.71c-0.44,0.065-0.897,0.14-1.367,0.223l-0.305-1.708C47.476,20.117,47.931,20.042,48.372,19.977z M48.765,28.011
		l0.455,2.555c-0.559,0.164-1.153,0.331-1.772,0.5l-0.455-2.551C47.616,28.344,48.209,28.175,48.765,28.011z M46.157,20.359
		l0.305,1.708c-0.439,0.087-0.893,0.185-1.354,0.291l-0.305-1.707C45.265,20.547,45.718,20.447,46.157,20.359z M46.12,28.753
		l0.454,2.549c-0.565,0.151-1.162,0.304-1.778,0.458l-0.453-2.547C44.958,29.058,45.557,28.904,46.12,28.753z M43.963,20.852
		l0.305,1.708c-0.44,0.11-0.886,0.225-1.343,0.352l-0.306-1.711C43.076,21.074,43.523,20.961,43.963,20.852z M43.92,31.978
		c-0.574,0.14-1.168,0.282-1.785,0.427l-0.453-2.545c0.62-0.145,1.211-0.287,1.785-0.429L43.92,31.978z M41.787,21.448l0.306,1.712
		c-0.439,0.131-0.882,0.272-1.331,0.422l-0.307-1.719C40.905,21.715,41.349,21.578,41.787,21.448z M41.257,32.606
		c-0.579,0.132-1.176,0.265-1.791,0.399l-0.453-2.543c0.616-0.135,1.212-0.268,1.79-0.4L41.257,32.606z M39.127,22.313
		c0.17-0.061,0.334-0.111,0.501-0.17l0.307,1.717c-0.075,0.027-0.148,0.048-0.224,0.076c-0.285,0.103-0.666,0.238-1.1,0.39
		l-0.307-1.721C38.578,22.508,38.854,22.411,39.127,22.313z M38.586,33.196c-0.581,0.125-1.183,0.25-1.796,0.376l-0.452-2.541
		c0.617-0.128,1.213-0.253,1.794-0.378L38.586,33.196z M37.479,22.895l0.305,1.717c-0.406,0.14-0.843,0.289-1.324,0.45l-0.306-1.711
		C36.6,23.199,37.04,23.048,37.479,22.895z M35.327,23.63l0.305,1.707c-0.423,0.139-0.865,0.284-1.328,0.432L34,24.067
		C34.444,23.922,34.887,23.777,35.327,23.63z M35.455,31.209l0.454,2.543c-0.585,0.119-1.186,0.237-1.798,0.357l-0.452-2.544
		C34.273,31.446,34.871,31.327,35.455,31.209z M33.171,24.335l0.303,1.698c-0.432,0.136-0.875,0.274-1.333,0.416l-0.302-1.693
		C32.285,24.617,32.728,24.478,33.171,24.335z M33.227,34.278c-0.589,0.114-1.185,0.227-1.8,0.341l-0.454-2.543
		c0.614-0.114,1.214-0.227,1.8-0.339L33.227,34.278z M31.009,25.013l0.301,1.69c-0.436,0.131-0.881,0.264-1.336,0.398l-0.301-1.686
		C30.12,25.283,30.565,25.148,31.009,25.013z M28.841,25.659l0.301,1.684c-0.441,0.127-0.886,0.255-1.339,0.38l-0.3-1.682
		C27.948,25.917,28.395,25.788,28.841,25.659z M27.88,35.256l-0.442-2.543c0.912-0.159,1.792-0.317,2.65-0.474l0.453,2.541
		c-0.419,0.076-0.826,0.152-1.257,0.229C28.824,35.091,28.354,35.173,27.88,35.256z M30.857,44.645
		c-0.472,0.085-0.955,0.168-1.441,0.254l-0.443-2.551c0.924-0.161,1.816-0.321,2.686-0.48l0.454,2.548
		C31.694,44.493,31.288,44.569,30.857,44.645z M32.961,44.262l-0.455-2.551c0.627-0.116,1.242-0.232,1.839-0.346l0.454,2.549
		C34.198,44.03,33.591,44.146,32.961,44.262z M35.646,43.753l-0.454-2.552c0.627-0.123,1.237-0.244,1.835-0.364l0.454,2.553
		C36.885,43.51,36.273,43.631,35.646,43.753z M38.328,43.216l-0.455-2.549c0.629-0.131,1.237-0.259,1.83-0.386l0.454,2.552
		C39.565,42.959,38.954,43.087,38.328,43.216z M41.002,42.65l-0.455-2.554c0.629-0.138,1.238-0.273,1.826-0.408l0.455,2.555
		C42.239,42.377,41.63,42.513,41.002,42.65z M43.671,42.051l-0.456-2.555c0.633-0.148,1.236-0.294,1.823-0.438l0.454,2.556
		C44.907,41.757,44.301,41.902,43.671,42.051z M46.333,41.407l-0.457-2.558c0.63-0.16,1.242-0.317,1.814-0.47l0.458,2.56
		C47.57,41.093,46.962,41.249,46.333,41.407z M48.984,40.712l-0.456-2.562c0.635-0.175,1.24-0.347,1.807-0.515l0.456,2.567
		C50.223,40.369,49.615,40.54,48.984,40.712z M51.624,39.954l-0.458-2.568c0.649-0.199,1.245-0.391,1.798-0.576l0.459,2.575
		C52.862,39.57,52.266,39.76,51.624,39.954z M54.249,39.107l-0.46-2.581c0.668-0.235,1.26-0.458,1.781-0.665l0.463,2.595
		C55.494,38.665,54.901,38.882,54.249,39.107z M56.852,38.131l-0.466-2.608c0.753-0.324,1.324-0.606,1.75-0.841l0.475,2.663
		C58.116,37.588,57.533,37.851,56.852,38.131z M59.413,36.927l-0.487-2.728c0.078-0.018,0.153-0.044,0.229-0.07
		c0.062-0.019,0.111-0.035,0.152-0.048c0.842-0.326,1.59-1.035,1.59-1.035l0.43,2.411l0.025,0.018
		C61.195,35.696,60.724,36.201,59.413,36.927z"/>
</g>
</svg>
