<?xml version="1.0" encoding="iso-8859-1"?>
<!-- Generator: Adobe Illustrator 17.0.0, SVG Export Plug-In . SVG Version: 6.00 Build 0)  -->
<!DOCTYPE svg PUBLIC "-//W3C//DTD SVG 1.1//EN" "http://www.w3.org/Graphics/SVG/1.1/DTD/svg11.dtd">
<svg version="1.1" id="Capa_1" xmlns="http://www.w3.org/2000/svg" xmlns:xlink="http://www.w3.org/1999/xlink" x="0px" y="0px"
	 width="64px" height="64px" viewBox="0 0 64 64" style="enable-background:new 0 0 64 64;" xml:space="preserve">
<g>
	<path d="M17.756,30.047c0,1.643,1.568,2.979,3.503,2.979h4.005c2.172,0,3.934-1.334,3.934-2.979c0-1.645,0-2.978,0-2.978H17.756
		V30.047z"/>
	<path d="M47.559,29.93v-2.978H36.116v2.978c0,1.644,1.761,2.978,3.934,2.978h4.006C45.99,32.908,47.559,31.573,47.559,29.93z"/>
	<path d="M48.243,38.219c2.066-0.775,2.842-2.842,3.272-6.717c0.43-3.874-2.497-2.584-2.497-2.584s4.392-7.404,0.345-16.1
		C45.72,4.99,34.897,4.139,32.77,4.047c0-0.003-0.001-0.012-0.001-0.012s-0.067,0.001-0.184,0.005
		C32.468,4.036,32.4,4.035,32.4,4.035s-0.001,0.009-0.002,0.012c-2.126,0.092-12.949,0.943-16.592,8.771
		c-4.047,8.696,0.344,16.1,0.344,16.1s-2.927-1.29-2.498,2.584c0.431,3.875,1.206,5.942,3.273,6.717c0,0,4.362,8.719,9.565,13.59
		l-5.703,8.624h23.592l-6.119-8.247C43.646,47.405,48.243,38.219,48.243,38.219z M37.247,34.541c-0.931,0-2.017-0.679-2.426-1.515
		l-1.005-2.06c-0.681-1.395-1.744-1.376-2.375,0.042l-0.887,1.992c-0.378,0.851-1.44,1.54-2.372,1.54H19.74
		c-1.934,0-3.502-1.567-3.502-3.502v-5.721h5.196h22.3h5.197v5.721c0,1.935-1.568,3.502-3.503,3.502H37.247z"/>
</g>
</svg>
