<?xml version="1.0" encoding="utf-8"?>
<!-- Generator: Adobe Illustrator 16.0.4, SVG Export Plug-In . SVG Version: 6.00 Build 0)  -->
<!DOCTYPE svg PUBLIC "-//W3C//DTD SVG 1.1//EN" "http://www.w3.org/Graphics/SVG/1.1/DTD/svg11.dtd">
<svg version="1.1" id="Capa_1" xmlns="http://www.w3.org/2000/svg" xmlns:xlink="http://www.w3.org/1999/xlink" x="0px" y="0px"
	 width="64px" height="64px" viewBox="0 0 64 64" enable-background="new 0 0 64 64" xml:space="preserve">
<path d="M16.006,33.486c0.174,0.477,0.702,0.723,1.178,0.549l1.833-0.669L14.924,22.15l-1.834,0.669
	c-0.475,0.174-0.721,0.702-0.548,1.178L16.006,33.486z M32.82,28.329c0.477-0.174,0.723-0.702,0.549-1.178l-3.464-9.49
	c-0.174-0.476-0.701-0.722-1.177-0.548l-1.402,0.512l4.093,11.216L32.82,28.329z M26.465,17.939l4.093,11.216l-10.678,3.896
	l-4.093-11.216L26.465,17.939z M10.173,30.564c0.554,1.52-0.112,3.191-1.498,3.934L9.296,36.2c2.437-0.671,4.995,0.389,6.239,2.592
	l21.919-7.999c-0.231-2.332,1.045-4.556,3.168-5.536l-0.779-2.134c-1.536,0.323-3.125-0.526-3.679-2.044
	c-0.555-1.519,0.113-3.19,1.498-3.934l-0.596-1.63c-2.733,0.748-5.64-0.718-6.627-3.427L8.744,20.006
	c0.708,2.586-0.568,5.329-3.002,6.453l0.751,2.062C8.031,28.197,9.618,29.046,10.173,30.564z M12.775,21.956l15.639-5.707
	c0.951-0.347,2.007,0.144,2.355,1.096l3.463,9.491c0.349,0.952-0.145,2.008-1.096,2.355l-15.638,5.706
	c-0.952,0.349-2.009-0.144-2.355-1.096L11.68,24.31C11.332,23.36,11.824,22.304,12.775,21.956z M6.681,30.372
	c0.714-0.26,1.506,0.108,1.767,0.822c0.26,0.714-0.108,1.506-0.822,1.766l-1.294,0.474l1.863,5.104l1.294-0.472
	c1.797-0.656,3.765,0.152,4.579,1.882l0.536,1.139l24.904-9.088l-0.191-1.131c-0.295-1.745,0.697-3.453,2.36-4.06l1.294-0.472
	l-2.021-5.537l-1.294,0.472c-0.715,0.261-1.506-0.108-1.768-0.821c-0.261-0.714,0.108-1.506,0.822-1.767l1.294-0.472l-1.837-5.033
	l-1.294,0.472c-1.903,0.694-4.017-0.289-4.711-2.191c-0.039-0.106-0.069-0.212-0.098-0.319l-0.384-1.46L6.406,18.904l0.473,1.294
	c0.694,1.903-0.289,4.016-2.192,4.71L3.393,25.38l1.993,5.464L6.681,30.372z M5.002,25.771c2.379-0.868,3.607-3.51,2.739-5.888
	l-0.157-0.432l23.466-8.563l0.13,0.486c0.034,0.134,0.073,0.268,0.122,0.4c0.868,2.378,3.511,3.607,5.89,2.74l0.431-0.158
	l1.208,3.307l-0.432,0.158c-1.191,0.434-1.806,1.754-1.371,2.944c0.435,1.189,1.756,1.804,2.943,1.37l0.432-0.158l1.392,3.812
	l-0.431,0.157c-2.081,0.759-3.321,2.895-2.951,5.077l0.064,0.377l-23.398,8.54L14.9,39.559c-1.017-2.16-3.478-3.174-5.725-2.354
	l-0.433,0.154L7.509,33.98l0.432-0.157c1.189-0.435,1.804-1.755,1.369-2.944c-0.434-1.189-1.755-1.804-2.943-1.369l-0.432,0.157
	L4.57,25.929L5.002,25.771z"/>
<path d="M45.663,43.588l1.544-9.984c0.077-0.5-0.268-0.97-0.768-1.047l-1.475-0.229l-1.824,11.8l1.476,0.228
	C45.115,44.434,45.586,44.088,45.663,43.588z M31.001,42.25l11.231,1.736l1.826-11.798l-3.428-0.53l0.201,1.18l-8.877,3.239
	L31.001,42.25z M26.91,37.902l-6.043,2.205c2.104,0.787,3.534,2.778,3.56,5.076l23.058,3.564c0.924-2.152,3.113-3.486,5.447-3.321
	l0.346-2.245c-1.502-0.457-2.482-1.968-2.236-3.565c0.247-1.599,1.639-2.74,3.209-2.724l0.266-1.715
	c-2.756-0.662-4.594-3.349-4.152-6.199l-7.766-1.201l-0.231,0.085c-1.202,0.438-1.968,1.584-1.954,2.829l6.17,0.954
	c1.002,0.155,1.689,1.095,1.534,2.097l-1.544,9.983c-0.154,1.002-1.094,1.69-2.096,1.535l-16.452-2.544
	c-1.001-0.153-1.689-1.095-1.534-2.096L26.91,37.902z M51.477,28.223l-0.121,0.488c-0.033,0.134-0.063,0.27-0.086,0.41
	c-0.388,2.501,1.336,4.852,3.838,5.24l0.451,0.07l-0.537,3.479l-0.453-0.07c-1.25-0.193-2.426,0.667-2.619,1.918
	c-0.194,1.251,0.667,2.426,1.919,2.62l0.452,0.07l-0.619,4.008l-0.454-0.07c-2.188-0.338-4.306,0.935-5.032,3.023l-0.127,0.362
	l-24.615-3.808l0.027-0.418c0.151-2.385-1.516-4.458-3.88-4.823l-0.305-0.048l-1.146,0.418l-0.051,0.326l1.361,0.211
	c1.891,0.292,3.225,1.951,3.102,3.858l-0.078,1.256l26.199,4.051l0.377-1.083c0.583-1.671,2.276-2.688,4.024-2.418l1.362,0.211
	l0.9-5.825l-1.361-0.211c-0.751-0.115-1.267-0.82-1.151-1.572c0.117-0.75,0.821-1.267,1.573-1.15l1.36,0.211l0.818-5.294
	l-1.361-0.211c-2.002-0.31-3.378-2.189-3.069-4.192c0.017-0.111,0.042-0.219,0.069-0.327l0.365-1.465l-8.683-1.342l0.359,0.985
	L51.477,28.223z M30.093,42.109l0.878-5.672l-3.079,1.123l-0.494,3.203c-0.078,0.5,0.267,0.971,0.767,1.047L30.093,42.109z"/>
</svg>
