<?xml version="1.0" encoding="iso-8859-1"?>
<!-- Generator: Adobe Illustrator 17.0.0, SVG Export Plug-In . SVG Version: 6.00 Build 0)  -->
<!DOCTYPE svg PUBLIC "-//W3C//DTD SVG 1.1//EN" "http://www.w3.org/Graphics/SVG/1.1/DTD/svg11.dtd">
<svg version="1.1" id="Capa_1" xmlns="http://www.w3.org/2000/svg" xmlns:xlink="http://www.w3.org/1999/xlink" x="0px" y="0px"
	 width="64px" height="64px" viewBox="0 0 64 64" style="enable-background:new 0 0 64 64;" xml:space="preserve">
<g>
	<rect x="22.333" y="13.334" width="30.333" height="3.167"/>
	<path d="M24.173,18.372c0-0.192-0.102-0.336-0.249-0.414c-0.156-0.091-0.333-0.118-0.624-0.118c-0.24,0-0.489,0.021-0.614,0.043
		v2.063c0.106,0.016,0.281,0.031,0.514,0.031c0.418,0,0.673-0.069,0.826-0.19c0.131-0.106,0.218-0.255,0.218-0.449
		c0-0.268-0.178-0.451-0.418-0.514v-0.007C24.065,18.727,24.173,18.556,24.173,18.372z M23.158,18.198
		c0.037-0.007,0.096-0.014,0.202-0.014c0.215,0,0.337,0.085,0.337,0.244c0,0.155-0.131,0.259-0.383,0.259h-0.156V18.198z
		 M23.341,19.625c-0.081,0-0.137,0-0.184-0.006v-0.592h0.162c0.237,0,0.427,0.083,0.427,0.292
		C23.747,19.541,23.557,19.625,23.341,19.625z"/>
	<path d="M24.544,22.596c0-0.371-0.137-0.63-0.355-0.792c-0.199-0.149-0.461-0.225-0.863-0.225c-0.237,0-0.465,0.019-0.639,0.047
		v2.06c0.115,0.016,0.293,0.031,0.539,0.031c0.411,0,0.751-0.088,0.972-0.271C24.398,23.274,24.544,22.997,24.544,22.596z
		 M23.326,23.347c-0.057,0-0.125,0-0.166-0.01v-1.374c0.041-0.009,0.112-0.019,0.215-0.019c0.412,0,0.667,0.231,0.667,0.667
		C24.042,23.112,23.759,23.35,23.326,23.347z"/>
	<path d="M25.66,22.577c0.053,0,0.09,0.006,0.127,0.012v-0.445c-0.034-0.006-0.056-0.009-0.1-0.009
		c-0.149,0-0.333,0.093-0.411,0.317h-0.012l-0.019-0.281h-0.405c0.009,0.132,0.012,0.278,0.012,0.503v1.022h0.474v-0.773
		c0-0.036,0.003-0.074,0.009-0.105C25.367,22.67,25.486,22.577,25.66,22.577z"/>
	<path d="M26.841,23.543l0.028,0.152h0.427c-0.019-0.084-0.025-0.224-0.025-0.367v-0.533c0-0.361-0.159-0.66-0.667-0.66
		c-0.278,0-0.486,0.077-0.592,0.137l0.087,0.306c0.1-0.062,0.265-0.116,0.42-0.116c0.233,0,0.277,0.116,0.277,0.199v0.02
		c-0.539,0-0.895,0.187-0.895,0.582c0,0.243,0.184,0.468,0.493,0.468c0.181,0,0.336-0.065,0.436-0.187H26.841z M26.813,23.141
		c0,0.028-0.003,0.057-0.009,0.081c-0.031,0.097-0.131,0.174-0.246,0.174c-0.106,0-0.187-0.059-0.187-0.18
		c0-0.181,0.193-0.24,0.442-0.24V23.141z"/>
	<path d="M29.033,23.695v-0.892c0-0.04,0.006-0.087,0.015-0.121c0.034-0.09,0.109-0.165,0.221-0.165
		c0.153,0,0.225,0.127,0.225,0.349v0.829h0.461v-0.897c0-0.459-0.222-0.664-0.514-0.664c-0.113,0-0.206,0.027-0.29,0.074
		c-0.075,0.044-0.14,0.106-0.2,0.188h-0.006c-0.065-0.159-0.218-0.262-0.418-0.262c-0.259,0-0.396,0.143-0.461,0.242h-0.009
		l-0.019-0.206h-0.402c0.006,0.138,0.013,0.297,0.013,0.487v1.037h0.461v-0.888c0-0.04,0.003-0.085,0.019-0.122
		c0.028-0.074,0.1-0.168,0.221-0.168c0.153,0,0.221,0.131,0.221,0.321v0.856H29.033z"/>
	<path d="M30.229,23.262c0,0.243,0.184,0.468,0.493,0.468c0.18,0,0.336-0.065,0.436-0.187h0.009l0.028,0.152h0.427
		c-0.019-0.084-0.025-0.224-0.025-0.367v-0.533c0-0.361-0.159-0.66-0.667-0.66c-0.277,0-0.486,0.077-0.592,0.137l0.087,0.306
		c0.1-0.062,0.265-0.116,0.42-0.116c0.233,0,0.277,0.116,0.277,0.199v0.02C30.585,22.68,30.229,22.866,30.229,23.262z M31.14,22.976
		v0.165c0,0.028-0.003,0.057-0.009,0.081c-0.031,0.097-0.131,0.174-0.246,0.174c-0.106,0-0.188-0.059-0.188-0.18
		C30.697,23.035,30.89,22.976,31.14,22.976z"/>
	<polygon points="23.675,28.675 23.675,26.649 23.285,26.649 22.746,26.898 22.824,27.254 23.21,27.07 23.217,27.07 23.217,28.675 	
		"/>
	<polygon points="25.404,28.675 25.404,26.649 25.015,26.649 24.476,26.898 24.554,27.254 24.94,27.07 24.946,27.07 24.946,28.675 	
		"/>
	<path d="M26.377,27.133c-0.162,0-0.277,0.118-0.277,0.286c0,0.162,0.112,0.283,0.274,0.283c0.171,0,0.28-0.121,0.28-0.283
		C26.651,27.247,26.542,27.133,26.377,27.133z"/>
	<path d="M26.377,28.139c-0.162,0-0.277,0.118-0.277,0.286c0,0.163,0.112,0.284,0.274,0.284c0.171,0,0.28-0.121,0.28-0.284
		C26.651,28.254,26.542,28.139,26.377,28.139z"/>
	<path d="M27.611,28.709c0.514,0,0.767-0.433,0.767-1.056c0-0.555-0.215-1.038-0.754-1.038c-0.523,0-0.769,0.461-0.769,1.05
		C26.857,28.238,27.088,28.709,27.611,28.709z M27.618,26.974c0.19,0,0.287,0.236,0.287,0.686c0,0.461-0.1,0.691-0.284,0.691
		c-0.181,0-0.293-0.221-0.293-0.686C27.328,27.191,27.446,26.974,27.618,26.974z"/>
	<path d="M29.341,28.709c0.514,0,0.766-0.433,0.766-1.056c0-0.555-0.215-1.038-0.754-1.038c-0.524,0-0.77,0.461-0.77,1.05
		C28.587,28.238,28.817,28.709,29.341,28.709z M29.347,26.974c0.19,0,0.287,0.236,0.287,0.686c0,0.461-0.1,0.691-0.284,0.691
		c-0.181,0-0.293-0.221-0.293-0.686C29.058,27.191,29.176,26.974,29.347,26.974z"/>
	<polygon points="32.664,28.675 32.664,26.649 32.274,26.649 31.735,26.898 31.812,27.254 32.199,27.07 32.206,27.07 32.206,28.675 
			"/>
	<path d="M34.618,28.675v-0.483h0.24v-0.354h-0.24v-1.188h-0.583l-0.763,1.234v0.308h0.897v0.483H34.618z M33.71,27.837l0.003-0.007
		l0.268-0.442c0.068-0.128,0.125-0.246,0.19-0.377h0.009c-0.006,0.131-0.012,0.256-0.012,0.377v0.449H33.71z"/>
	<path d="M35.366,27.133c-0.162,0-0.277,0.118-0.277,0.286c0,0.162,0.112,0.283,0.274,0.283c0.171,0,0.28-0.121,0.28-0.283
		C35.64,27.247,35.531,27.133,35.366,27.133z"/>
	<path d="M35.366,28.139c-0.162,0-0.277,0.118-0.277,0.286c0,0.163,0.112,0.284,0.274,0.284c0.171,0,0.28-0.121,0.28-0.284
		C35.64,28.254,35.531,28.139,35.366,28.139z"/>
	<path d="M36.133,28.154l-0.259,0.234v0.286h1.436v-0.39h-0.767v-0.006l0.187-0.156c0.296-0.262,0.539-0.532,0.539-0.876
		c0-0.364-0.25-0.632-0.71-0.632c-0.271,0-0.511,0.093-0.661,0.209l0.134,0.336c0.106-0.077,0.259-0.165,0.433-0.165
		c0.234,0,0.331,0.131,0.331,0.296C36.794,27.528,36.578,27.756,36.133,28.154z"/>
	<path d="M37.573,27.665c0.003,0.573,0.233,1.044,0.757,1.044c0.514,0,0.767-0.433,0.767-1.056c0-0.555-0.215-1.038-0.754-1.038
		C37.818,26.615,37.573,27.076,37.573,27.665z M38.623,27.659c0,0.461-0.1,0.691-0.283,0.691c-0.181,0-0.294-0.221-0.294-0.686
		c0-0.474,0.119-0.691,0.29-0.691C38.526,26.974,38.623,27.21,38.623,27.659z"/>
	<polygon points="41.651,28.675 41.651,26.649 41.262,26.649 40.723,26.898 40.801,27.254 41.188,27.07 41.194,27.07 41.194,28.675 
			"/>
	<polygon points="42.434,28.675 42.935,28.675 43.771,26.949 43.771,26.649 42.341,26.649 42.341,27.039 43.269,27.039 
		43.269,27.045 	"/>
	<path d="M44.354,28.139c-0.162,0-0.278,0.118-0.278,0.286c0,0.163,0.113,0.284,0.275,0.284c0.171,0,0.28-0.121,0.28-0.284
		C44.628,28.254,44.519,28.139,44.354,28.139z"/>
	<path d="M44.354,27.133c-0.162,0-0.278,0.118-0.278,0.286c0,0.162,0.113,0.283,0.275,0.283c0.171,0,0.28-0.121,0.28-0.283
		C44.628,27.247,44.519,27.133,44.354,27.133z"/>
	<path d="M46.146,28.675v-0.483h0.24v-0.354h-0.24v-1.188h-0.583L44.8,27.884v0.308h0.898v0.483H46.146z M45.239,27.837l0.003-0.007
		l0.268-0.442c0.068-0.128,0.125-0.246,0.19-0.377h0.009c-0.006,0.131-0.012,0.256-0.012,0.377v0.449H45.239z"/>
	<path d="M46.56,27.665c0.003,0.573,0.234,1.044,0.757,1.044c0.514,0,0.767-0.433,0.767-1.056c0-0.555-0.215-1.038-0.754-1.038
		C46.807,26.615,46.56,27.076,46.56,27.665z M47.611,27.659c0,0.461-0.1,0.691-0.284,0.691c-0.181,0-0.293-0.221-0.293-0.686
		c0-0.474,0.118-0.691,0.29-0.691C47.514,26.974,47.611,27.21,47.611,27.659z"/>
	<rect x="22.593" y="31.334" width="30.333" height="3.167"/>
	<polygon points="23.006,44.898 23.084,45.254 23.47,45.07 23.477,45.07 23.477,46.675 23.935,46.675 23.935,44.649 23.545,44.649 	
		"/>
	<polygon points="24.735,44.898 24.813,45.254 25.2,45.07 25.206,45.07 25.206,46.675 25.664,46.675 25.664,44.649 25.275,44.649 	
		"/>
	<path d="M26.637,46.139c-0.162,0-0.277,0.118-0.277,0.286c0,0.163,0.112,0.284,0.274,0.284c0.171,0,0.28-0.121,0.28-0.284
		C26.911,46.254,26.802,46.139,26.637,46.139z"/>
	<path d="M26.637,45.133c-0.162,0-0.277,0.118-0.277,0.286c0,0.162,0.112,0.283,0.274,0.283c0.171,0,0.28-0.121,0.28-0.283
		C26.911,45.247,26.802,45.133,26.637,45.133z"/>
	<path d="M27.883,44.615c-0.523,0-0.769,0.461-0.769,1.05c0.002,0.573,0.233,1.044,0.757,1.044c0.514,0,0.767-0.433,0.767-1.056
		C28.638,45.099,28.423,44.615,27.883,44.615z M27.88,46.351c-0.181,0-0.293-0.221-0.293-0.686c0-0.474,0.118-0.691,0.29-0.691
		c0.19,0,0.287,0.236,0.287,0.686C28.164,46.12,28.065,46.351,27.88,46.351z"/>
	<path d="M29.613,44.615c-0.524,0-0.769,0.461-0.769,1.05c0.003,0.573,0.233,1.044,0.757,1.044c0.514,0,0.766-0.433,0.766-1.056
		C30.367,45.099,30.152,44.615,29.613,44.615z M29.61,46.351c-0.181,0-0.293-0.221-0.293-0.686c0-0.474,0.118-0.691,0.289-0.691
		c0.19,0,0.287,0.236,0.287,0.686C29.894,46.12,29.794,46.351,29.61,46.351z"/>
	<polygon points="31.995,44.898 32.072,45.254 32.459,45.07 32.465,45.07 32.465,46.675 32.923,46.675 32.923,44.649 32.534,44.649 
			"/>
	<path d="M34.877,44.649h-0.583l-0.763,1.234v0.308h0.897v0.483h0.449v-0.483h0.24v-0.354h-0.24V44.649z M34.429,45.388v0.449H33.97
		l0.003-0.007l0.268-0.442c0.068-0.128,0.125-0.246,0.19-0.377h0.009C34.435,45.142,34.429,45.267,34.429,45.388z"/>
	<path d="M35.625,46.139c-0.162,0-0.277,0.118-0.277,0.286c0,0.163,0.112,0.284,0.275,0.284c0.171,0,0.28-0.121,0.28-0.284
		C35.899,46.254,35.791,46.139,35.625,46.139z"/>
	<path d="M35.625,45.133c-0.162,0-0.277,0.118-0.277,0.286c0,0.162,0.112,0.283,0.275,0.283c0.171,0,0.28-0.121,0.28-0.283
		C35.899,45.247,35.791,45.133,35.625,45.133z"/>
	<path d="M36.804,46.279l0.187-0.156c0.296-0.262,0.539-0.532,0.539-0.876c0-0.364-0.25-0.632-0.711-0.632
		c-0.271,0-0.511,0.093-0.661,0.209l0.134,0.336c0.106-0.077,0.259-0.165,0.433-0.165c0.234,0,0.331,0.131,0.331,0.296
		c-0.003,0.237-0.218,0.465-0.664,0.863l-0.259,0.234v0.286h1.437v-0.39h-0.767V46.279z"/>
	<path d="M38.602,44.615c-0.523,0-0.769,0.461-0.769,1.05c0.003,0.573,0.233,1.044,0.757,1.044c0.514,0,0.767-0.433,0.767-1.056
		C39.356,45.099,39.141,44.615,38.602,44.615z M38.599,46.351c-0.181,0-0.293-0.221-0.293-0.686c0-0.474,0.119-0.691,0.29-0.691
		c0.19,0,0.287,0.236,0.287,0.686C38.882,46.12,38.783,46.351,38.599,46.351z"/>
	<polygon points="40.983,44.898 41.06,45.254 41.447,45.07 41.454,45.07 41.454,46.675 41.911,46.675 41.911,44.649 41.522,44.649 	
		"/>
	<polygon points="42.601,45.039 43.529,45.039 43.529,45.045 42.694,46.675 43.195,46.675 44.031,44.949 44.031,44.649 
		42.601,44.649 	"/>
	<path d="M44.614,46.139c-0.162,0-0.278,0.118-0.278,0.286c0,0.163,0.113,0.284,0.275,0.284c0.171,0,0.28-0.121,0.28-0.284
		C44.888,46.254,44.779,46.139,44.614,46.139z"/>
	<path d="M44.614,45.133c-0.162,0-0.278,0.118-0.278,0.286c0,0.162,0.113,0.283,0.275,0.283c0.171,0,0.28-0.121,0.28-0.283
		C44.888,45.247,44.779,45.133,44.614,45.133z"/>
	<path d="M46.406,44.649h-0.583l-0.763,1.234v0.308h0.897v0.483h0.449v-0.483h0.24v-0.354h-0.24V44.649z M45.957,45.388v0.449
		h-0.458l0.004-0.007l0.268-0.442c0.068-0.128,0.124-0.246,0.19-0.377h0.009C45.963,45.142,45.957,45.267,45.957,45.388z"/>
	<path d="M47.59,44.615c-0.523,0-0.769,0.461-0.769,1.05c0.003,0.573,0.234,1.044,0.757,1.044c0.514,0,0.767-0.433,0.767-1.056
		C48.344,45.099,48.129,44.615,47.59,44.615z M47.587,46.351c-0.181,0-0.293-0.221-0.293-0.686c0-0.474,0.118-0.691,0.29-0.691
		c0.19,0,0.287,0.236,0.287,0.686C47.871,46.12,47.771,46.351,47.587,46.351z"/>
	<path d="M24.434,37.693l0.173,0.577h0.551l-0.701-2.249H23.79l-0.684,2.249h0.524l0.16-0.577H24.434z M23.997,36.835
		c0.037-0.13,0.07-0.3,0.104-0.434h0.006c0.034,0.134,0.074,0.3,0.114,0.434l0.14,0.478h-0.497L23.997,36.835z"/>
	<rect x="23.269" y="40.026" width="0.507" height="2.249"/>
	<path d="M25.175,40.607c-0.273,0-0.437,0.156-0.504,0.264h-0.01l-0.023-0.228h-0.44c0.006,0.146,0.013,0.317,0.013,0.521v1.11
		h0.507v-0.94c0-0.047,0.004-0.094,0.017-0.127c0.037-0.094,0.12-0.189,0.26-0.189c0.184,0,0.257,0.143,0.257,0.353v0.904h0.508
		v-0.964C25.759,40.831,25.509,40.607,25.175,40.607z"/>
	<path d="M26.731,40.56c0-0.16,0.07-0.29,0.237-0.29c0.066,0,0.12,0.009,0.164,0.023l0.02-0.392
		c-0.07-0.017-0.157-0.033-0.267-0.033c-0.15,0-0.324,0.044-0.454,0.164c-0.143,0.133-0.204,0.351-0.204,0.547v0.063H26.01v0.375
		h0.217v1.257h0.507v-1.257h0.324v-0.375h-0.327V40.56z"/>
	<path d="M28.663,41.311c0-0.388-0.17-0.707-0.714-0.707c-0.297,0-0.521,0.083-0.634,0.146l0.093,0.327
		c0.107-0.067,0.284-0.124,0.451-0.124c0.25,0,0.297,0.124,0.297,0.213v0.021c-0.577,0-0.958,0.2-0.958,0.624
		c0,0.261,0.197,0.501,0.527,0.501c0.193,0,0.36-0.07,0.467-0.2h0.01l0.03,0.163h0.457c-0.02-0.09-0.027-0.239-0.027-0.394V41.311z
		 M28.173,41.682c0,0.03-0.004,0.061-0.01,0.087c-0.033,0.104-0.14,0.187-0.264,0.187c-0.113,0-0.201-0.063-0.201-0.193
		c0-0.193,0.207-0.257,0.475-0.257V41.682z"/>
	<path d="M30.032,40.607c-0.274,0-0.438,0.156-0.504,0.264h-0.01l-0.023-0.228h-0.44c0.007,0.146,0.013,0.317,0.013,0.521v1.11
		h0.507v-0.94c0-0.047,0.003-0.094,0.017-0.127c0.037-0.094,0.121-0.189,0.261-0.189c0.183,0,0.256,0.143,0.256,0.353v0.904h0.508
		v-0.964C30.616,40.831,30.365,40.607,30.032,40.607z"/>
	<path d="M31.57,40.203l-0.497,0.138v0.303h-0.217v0.375h0.217v0.667c0,0.229,0.046,0.387,0.14,0.484
		c0.083,0.082,0.22,0.14,0.384,0.14c0.14,0,0.264-0.021,0.327-0.043l-0.003-0.385c-0.046,0.01-0.08,0.014-0.15,0.014
		c-0.15,0-0.2-0.09-0.2-0.287v-0.59h0.364v-0.375H31.57V40.203z"/>
	<path d="M32.485,39.936c-0.164,0-0.271,0.11-0.271,0.254c0,0.14,0.103,0.254,0.264,0.254c0.17,0,0.273-0.114,0.273-0.254
		C32.748,40.047,32.648,39.936,32.485,39.936z"/>
	<rect x="32.227" y="40.644" width="0.507" height="1.632"/>
	<rect x="33.142" y="39.906" width="0.507" height="2.369"/>
	<path d="M20.167,13.334h-11.5v15.667h11.5V13.334z M18.228,20.48l-1.798,1.307c-0.223,0.161-0.334,0.505-0.249,0.767l0.686,2.114
		c0.085,0.262-0.026,0.343-0.249,0.181l-1.798-1.307c-0.223-0.161-0.584-0.161-0.807,0l-1.798,1.307
		c-0.223,0.162-0.334,0.081-0.249-0.181l0.686-2.114c0.086-0.262-0.026-0.606-0.249-0.767l-1.798-1.307
		c-0.223-0.162-0.18-0.293,0.095-0.293h2.223c0.275,0,0.568-0.213,0.653-0.475l0.687-2.113c0.086-0.263,0.223-0.263,0.309,0
		l0.687,2.113c0.085,0.262,0.378,0.475,0.653,0.475h2.223C18.408,20.188,18.451,20.318,18.228,20.48z"/>
	<path d="M8.926,47.001h11.5V31.334h-11.5V47.001z M10.96,37.806h2.223c0.275,0,0.568-0.213,0.653-0.475l0.687-2.113
		c0.085-0.263,0.223-0.263,0.309,0l0.686,2.113c0.085,0.262,0.377,0.475,0.653,0.475h2.223c0.275,0,0.318,0.131,0.095,0.293
		l-1.798,1.307c-0.223,0.161-0.335,0.505-0.249,0.767l0.687,2.114c0.085,0.262-0.026,0.343-0.249,0.181L15.08,41.16
		c-0.223-0.161-0.584-0.161-0.807,0l-1.798,1.307c-0.223,0.162-0.335,0.081-0.249-0.181l0.687-2.114
		c0.086-0.262-0.026-0.605-0.249-0.767l-1.798-1.307C10.642,37.936,10.685,37.806,10.96,37.806z"/>
	<path d="M4.333,53.334h56V7.167h-56V53.334z M6.333,9.167h52v42.167h-52V9.167z"/>
</g>
</svg>
