<?xml version="1.0" encoding="utf-8"?>
<!-- Generator: Adobe Illustrator 16.0.4, SVG Export Plug-In . SVG Version: 6.00 Build 0)  -->
<!DOCTYPE svg PUBLIC "-//W3C//DTD SVG 1.1//EN" "http://www.w3.org/Graphics/SVG/1.1/DTD/svg11.dtd">
<svg version="1.1" id="Capa_1" xmlns="http://www.w3.org/2000/svg" xmlns:xlink="http://www.w3.org/1999/xlink" x="0px" y="0px"
	 width="64px" height="64px" viewBox="0 0 64 64" enable-background="new 0 0 64 64" xml:space="preserve">
<g>
	<path d="M10.479,51c0.531,1.305,2.127,2.373,3.535,2.402l28.268,0.606c1.405,0.03,3.362-0.741,4.368-1.727l9.256-9.06
		c1.007-0.981,1.822-2.683,1.822-3.791c0-1.109,0-2.012,0-2.012l0.676-1.434c0.375-0.791,0.678-2.574,0.678-3.981v-4.618
		l-0.919,0.784l-3.119-3.776c-0.948-1.151-1.836-1.147-2.278-1.043c-0.445,0.105-1.24,0.498-1.574,1.952l-0.148,0.651l-1.309-4.794
		c-0.277-1.018-0.906-1.77-1.771-2.117c-0.864-0.349-1.84-0.242-2.743,0.299l-4.939,2.951c-1.135-1.482-3.264-2.118-5.008-1.401
		l-5.611,2.3c-0.444-0.726-1.077-1.222-1.843-1.39c-0.904-0.197-1.841,0.073-2.641,0.764l-2.609,2.257l-5.59-1.628
		c-0.986-0.336-1.986-0.248-2.819,0.248c-0.833,0.496-1.386,1.334-1.559,2.36l-0.88,5.208l-1.82-0.571
		c-1.418-0.446-2.175,0.042-2.5,0.372c-0.324,0.33-0.798,1.094-0.328,2.505l1.908,5.736c-2.34-0.927-1.494-2.988-1.494-2.988
		C5.059,36.857,8.633,46.46,10.479,51z M11.465,39.493c-0.378-0.013-0.714-0.042-1.027-0.082l-0.143-0.431l1.772-1.315
		c0.917-0.679,2.412-0.347,3.335,0.741l1.033,1.219C14.227,39.57,12.464,39.523,11.465,39.493z M16.761,38.042l-0.016-0.019
		l0.071-0.021L16.761,38.042z M15.888,30.841c-0.185-0.612-0.123-1.158,0.175-1.537c0.296-0.38,0.812-0.573,1.473-0.541l9.488,0.088
		c-0.077,0.158-0.183,0.31-0.319,0.442c-0.187,0.179-0.586,0.469-1.152,0.411c-2.888-0.298-3.351,0.235-3.549,0.463
		c-0.173,0.196-0.265,0.437-0.271,0.686c-0.219,0.571-1.314,2.031-2.121,2.031c-0.674,0-1.269,0.238-1.719,0.688
		c-0.423,0.424-0.642,0.962-0.756,1.416L15.888,30.841z M18.141,39.669l-0.553-0.651l6.802-4.813
		c1.193-0.847,3.01-0.696,4.049,0.331l5.583,5.521C28.933,39.934,22.845,39.786,18.141,39.669z M28.537,33.036l4.482-5.956
		c0.397-0.532,0.957-0.852,1.567-0.901c0.614-0.051,1.212,0.178,1.692,0.639l4.474,4.296c-0.34-0.032-0.696-0.026-1.083,0.06
		l-10.492,2.329C28.98,33.326,28.766,33.171,28.537,33.036z M35.68,40.094l0.096-0.098l-5.496-5.434l9.667-2.146
		c0.609-0.134,1.104-0.047,1.391,0.245c0.29,0.293,0.369,0.789,0.225,1.396l-1.459,6.142C38.841,40.169,37.338,40.133,35.68,40.094z
		 M52.434,25.594c0.127-0.555,0.366-0.937,0.625-0.998c0.265-0.063,0.643,0.175,1.004,0.614l3.131,3.792l-6.897,5.882L52.434,25.594
		z M35.753,22.074c1.34-0.549,3.011,0.029,3.726,1.286l1.918,3.377c-0.014,0.414,0.022,0.837,0.117,1.208
		c-0.492,0.081-0.844,0.531-0.795,1.034c0.049,0.494,0.465,0.864,0.949,0.864c0.031,0,0.062-0.002,0.094-0.005
		c0.262-0.025,1.153-0.163,1.578-0.87c0.241-0.404,0.266-0.887,0.067-1.361c-0.085-0.205-0.149-0.701-0.081-1.109
		c0.301-0.086,1.031-0.022,1.363,0.007c0.151,0.013,0.297,0.026,0.424,0.033c1.059,0.058,1.609-0.41,1.908-0.893
		c0.205,0.153,0.427,0.397,0.494,0.638c0.027,0.102,0.035,0.18-0.121,0.32c-0.396,0.35-0.434,0.955-0.082,1.349
		c0.35,0.395,0.953,0.432,1.35,0.082c0.752-0.667,0.977-1.615,0.602-2.538c-0.438-1.083-1.632-1.947-2.582-1.917
		c-0.597,0.028-1.072,0.396-1.244,0.961c-0.013,0.044-0.023,0.072-0.024,0.085c-0.032,0.004-0.095,0.01-0.187,0.004
		c-0.11-0.006-0.234-0.017-0.371-0.029c-0.812-0.071-2.164-0.177-2.901,0.534l-0.998-1.757l4.919-2.938
		c0.557-0.332,1.129-0.407,1.613-0.211c0.486,0.196,0.849,0.647,1.019,1.271l1.935,7.085l-1.77,7.684l-4.716,4.021
		c0,0-0.958-0.021-2.548-0.061l1.396-5.877c0.248-1.051,0.051-1.965-0.557-2.583c-0.132-0.134-0.284-0.24-0.443-0.335l0.538-0.561
		l-5.178-4.974c-0.747-0.718-1.705-1.069-2.679-0.99c-0.979,0.079-1.862,0.578-2.484,1.405l-0.545,0.725l-1.226-2.701L35.753,22.074
		z M26.01,23.533c0.487-0.422,1.033-0.594,1.535-0.483c0.502,0.11,0.925,0.495,1.191,1.081l1.846,4.068l-3.26,4.333
		c-1.246-0.303-2.627-0.107-3.669,0.63l-5.825,4.124l-0.143-0.478c0.092,0.028,0.184,0.059,0.284,0.059c0.001,0,0.002,0,0.002,0
		c0.527-0.003,0.954-0.432,0.953-0.959c0-0.176,0.076-0.739,0.321-0.986c0.062-0.061,0.155-0.126,0.366-0.126
		c1.391,0,2.502-1.151,3.042-1.836c0.273-0.349,0.652-0.884,0.853-1.408c0.351-0.03,0.971-0.036,1.847,0.054
		c0.978,0.1,1.954-0.24,2.676-0.936c0.704-0.676,1.09-1.614,1.031-2.507c-0.033-0.526-0.49-0.92-1.015-0.892
		c-0.256,0.017-0.479,0.135-0.64,0.31l-6.011-0.056L26.01,23.533z M13.854,26.019c0.11-0.652,0.45-1.176,0.956-1.478
		s1.13-0.349,1.784-0.127l4.826,1.406l-1.951,1.688L17.57,27.49c-1.06-0.053-1.954,0.315-2.513,1.03s-0.697,1.67-0.392,2.689
		l0.244,0.809L12.944,31.4L13.854,26.019z M8.277,32.919c-0.183-0.553-0.172-1.005,0.029-1.21c0.202-0.206,0.655-0.224,1.209-0.05
		l5.839,1.834l1.351,4.483l-0.333-0.395c-1.347-1.591-3.62-2.014-5.065-0.939L9.871,37.71L8.277,32.919z"/>
	<rect x="11.688" y="33.602" width="1.608" height="0.531"/>
	<rect x="20.447" y="38.301" width="1.608" height="0.53"/>
	<rect x="32.071" y="29.261" width="1.607" height="0.53"/>
	<rect x="25.185" y="26.18" width="1.609" height="0.531"/>
	<rect x="37.873" y="23.807" width="1.607" height="0.531"/>
	<rect x="44.789" y="21.85" width="1.607" height="0.53"/>
	<rect x="43.471" y="36.148" width="1.609" height="0.531"/>
	<rect x="45.593" y="31.803" width="1.607" height="0.531"/>
	<path d="M53.641,30.095l-0.454-1.543l0.509-0.149l0.453,1.542L53.641,30.095z"/>
	<path d="M34.182,37.314l-1.312-0.932l0.307-0.433l1.312,0.932L34.182,37.314z M44.404,27.884l1.311,0.932l-0.307,0.432
		l-1.311-0.932L44.404,27.884z"/>
</g>
</svg>
