<?xml version="1.0" encoding="utf-8"?>
<!-- Generator: Adobe Illustrator 17.0.0, SVG Export Plug-In . SVG Version: 6.00 Build 0)  -->
<!DOCTYPE svg PUBLIC "-//W3C//DTD SVG 1.1//EN" "http://www.w3.org/Graphics/SVG/1.1/DTD/svg11.dtd">
<svg version="1.1" id="Capa_1" xmlns="http://www.w3.org/2000/svg" xmlns:xlink="http://www.w3.org/1999/xlink" x="0px" y="0px"
	 width="64px" height="64px" viewBox="0 0 64 64" enable-background="new 0 0 64 64" xml:space="preserve">
<path d="M6.673,48.7h49.722c1.091,0,1.979-0.888,1.979-1.978V14.517c0-1.09-0.888-1.977-1.979-1.977H6.673
	c-1.09,0-1.978,0.888-1.978,1.977v32.206C4.695,47.812,5.583,48.7,6.673,48.7z M6.391,14.517c0-0.155,0.127-0.282,0.282-0.282
	h49.722c0.156,0,0.283,0.127,0.283,0.282v32.206c0,0.155-0.127,0.283-0.283,0.283H6.673c-0.155,0-0.282-0.128-0.282-0.283
	C6.391,46.723,6.391,14.517,6.391,14.517z M9.498,45.886H53.57c0.935,0,1.694-0.76,1.694-1.694V19.225
	c0-0.935-0.76-1.695-1.694-1.695H9.498c-0.935,0-1.695,0.761-1.695,1.695v24.967C7.803,45.126,8.563,45.886,9.498,45.886z
	 M8.934,19.225c0-0.312,0.253-0.565,0.564-0.565H53.57c0.311,0,0.565,0.254,0.565,0.565v24.967c0,0.312-0.254,0.565-0.565,0.565
	H9.498c-0.312,0-0.564-0.253-0.564-0.565C8.934,44.192,8.934,19.225,8.934,19.225z M31.436,16.771c0.546,0,0.988-0.444,0.988-0.989
	s-0.442-0.989-0.988-0.989c-0.546,0-0.988,0.444-0.988,0.989C30.448,16.326,30.891,16.771,31.436,16.771z M31.436,15.357
	c0.233,0,0.424,0.191,0.424,0.424c0,0.232-0.191,0.424-0.424,0.424s-0.424-0.191-0.424-0.424
	C31.013,15.548,31.203,15.357,31.436,15.357z M24.874,31.469h0.589V29.32h0.762V28.8h-2.112v0.52h0.761V31.469z M26.8,28.8h0.588
	v2.669H26.8V28.8z M29.504,31.537c0.366,0,0.743-0.146,0.966-0.463l-0.49-0.366c-0.121,0.182-0.313,0.287-0.552,0.287
	c-0.425,0-0.754-0.362-0.754-0.859c0-0.499,0.329-0.86,0.774-0.86c0.219,0,0.389,0.079,0.505,0.218l0.453-0.368
	c-0.227-0.291-0.604-0.393-0.901-0.393c-0.833,0-1.44,0.547-1.44,1.403C28.063,30.99,28.671,31.537,29.504,31.537z M31.685,30.203
	l1.085,1.266h0.823l-1.29-1.428l1.188-1.241h-0.769l-1.037,1.109V28.8h-0.588v2.669h0.588V30.203z M35.985,30.927h-1.294v-0.542
	h1.159v-0.544h-1.159v-0.497h1.227V28.8h-1.815v2.669h1.882L35.985,30.927z M37.259,31.469h0.588V29.32h0.761V28.8h-2.112v0.52
	h0.763L37.259,31.469z M24.214,33.783c0,0.856,0.608,1.403,1.441,1.403c0.832,0,1.44-0.547,1.44-1.403
	c0-0.855-0.608-1.402-1.44-1.402C24.822,32.381,24.214,32.928,24.214,33.783z M26.484,33.783c0,0.499-0.327,0.859-0.829,0.859
	s-0.83-0.36-0.83-0.859c0-0.497,0.328-0.859,0.83-0.859S26.484,33.286,26.484,33.783z M28.085,33.218h0.009l1.165,1.9h0.768v-2.67
	h-0.588v1.856h-0.007l-1.135-1.856h-0.8v2.67h0.588V33.218z M32.272,34.575h-1.089v-2.127h-0.588v2.67h1.677V34.575z M32.591,32.448
	h0.588v2.67h-0.588V32.448z M34.304,33.218h0.007l1.166,1.9h0.768v-2.67h-0.587v1.856H35.65l-1.135-1.856h-0.8v2.67h0.589
	L34.304,33.218z M38.626,32.991v-0.543h-1.814v2.67h1.882v-0.543h-1.293v-0.543h1.159V33.49h-1.159v-0.499L38.626,32.991z
	 M60.933,50.294c-0.307-0.422-0.811-0.664-1.383-0.664H3.236c-0.572,0-1.076,0.242-1.383,0.664
	c-0.299,0.411-0.377,0.947-0.218,1.479l0.425,1.868l0.021,0.072c0.308,0.946,1.29,1.661,2.285,1.661H58.42
	c0.995,0,1.978-0.715,2.285-1.661l0.445-1.94C61.31,51.241,61.231,50.705,60.933,50.294z M59.083,53.216
	c-0.093,0.233-0.418,0.463-0.663,0.463H4.366c-0.245,0-0.57-0.229-0.663-0.463l-0.422-1.853l-0.01-0.039h56.243
	C59.514,51.324,59.083,53.216,59.083,53.216z M27.966,53.223h6.1c0.376,0,0.683-0.307,0.683-0.683v-0.077
	c0-0.376-0.307-0.683-0.683-0.683h-6.1c-0.376,0-0.682,0.307-0.682,0.683v0.077C27.284,52.916,27.59,53.223,27.966,53.223z
	 M27.739,52.463c0-0.125,0.101-0.227,0.226-0.227h6.1c0.126,0,0.228,0.102,0.228,0.227v0.077c0,0.125-0.102,0.227-0.228,0.227h-6.1
	c-0.125,0-0.226-0.102-0.226-0.227C27.739,52.54,27.739,52.463,27.739,52.463z M44.497,27.006c-0.126-0.101-0.292-0.136-0.447-0.099
	c-0.143,0.034-0.277,0.051-0.411,0.051c-0.962,0-1.745-0.783-1.745-1.746c0-0.361,0.109-0.709,0.317-1.005
	c0.115-0.16,0.13-0.37,0.038-0.544c-0.09-0.176-0.27-0.285-0.467-0.285H21.484c-0.175,0-0.337,0.086-0.435,0.23
	c-0.098,0.143-0.119,0.325-0.057,0.487c0.079,0.202,0.118,0.414,0.118,0.627c0,0.963-0.783,1.747-1.746,1.747
	c-0.235,0-0.463-0.046-0.677-0.137c-0.162-0.068-0.349-0.051-0.495,0.047c-0.147,0.098-0.235,0.262-0.235,0.438v10.071
	c0,0.177,0.088,0.341,0.235,0.438c0.146,0.097,0.334,0.114,0.495,0.046c0.214-0.09,0.441-0.136,0.677-0.136
	c0.963,0,1.746,0.783,1.746,1.746c0,0.131-0.016,0.264-0.049,0.404c-0.037,0.157-0.001,0.322,0.1,0.449
	c0.1,0.125,0.251,0.199,0.412,0.199H41.43c0.162,0,0.313-0.074,0.413-0.199c0.1-0.127,0.137-0.292,0.1-0.449
	c-0.033-0.141-0.049-0.273-0.049-0.404c0-1.096,1.005-1.973,2.155-1.695c0.155,0.038,0.321,0.002,0.448-0.099
	c0.127-0.1,0.201-0.251,0.201-0.413v-9.358C44.698,27.257,44.624,27.105,44.497,27.006z M43.646,36.185c-0.003,0-0.005,0-0.008,0
	c-1.542,0-2.798,1.256-2.798,2.799H22.164c0-1.543-1.256-2.799-2.799-2.799c-0.119,0-0.238,0.009-0.355,0.022v-8.709
	c0.117,0.016,0.236,0.023,0.355,0.023c1.543,0,2.799-1.256,2.799-2.799c0-0.098-0.006-0.194-0.015-0.291h18.803
	c-0.073,0.252-0.111,0.514-0.111,0.781c0,1.542,1.256,2.798,2.798,2.798c0.003,0,0.005,0,0.008,0L43.646,36.185L43.646,36.185z
	 M41.387,27.612c-0.705-0.259-1.179-0.937-1.179-1.685c0-0.098-0.078-0.176-0.175-0.176H22.779c-0.088,0-0.161,0.065-0.174,0.151
	c-0.103,0.744-0.664,1.351-1.397,1.508c-0.071,0.016-0.128,0.082-0.138,0.154c-0.001,0.009-0.003,0.027-0.003,0.035v8.471
	c0,0.087,0.064,0.161,0.152,0.174c0.721,0.095,1.309,0.612,1.495,1.315c0.021,0.077,0.089,0.131,0.169,0.131h17.071
	c0.079,0,0.148-0.054,0.169-0.131c0.163-0.61,0.641-1.096,1.249-1.266c0.076-0.021,0.128-0.091,0.128-0.169v-8.349
	C41.501,27.702,41.456,27.638,41.387,27.612z M41.15,35.997c-0.623,0.218-1.116,0.718-1.326,1.344h-16.81
	c-0.242-0.726-0.849-1.264-1.596-1.418l0.001-8.203c0.759-0.218,1.343-0.844,1.507-1.617h16.938
	c0.065,0.783,0.562,1.478,1.286,1.792C41.15,27.895,41.15,35.997,41.15,35.997z M13.942,30.552l-0.004-0.009l-0.676-1.546
	c-0.041-0.12-0.112-0.137-0.151-0.137c-0.038,0-0.109,0.017-0.149,0.137l-0.681,1.555c-0.019,0.058-0.092,0.11-0.152,0.11H12.12
	l-1.631,0.134c-0.127,0-0.167,0.062-0.18,0.1c-0.012,0.037-0.017,0.11,0.084,0.186l1.236,1.109c0.05,0.035,0.077,0.121,0.058,0.179
	l-0.001,0.009l-0.348,1.611c-0.021,0.071-0.017,0.13,0.014,0.172c0.025,0.033,0.062,0.052,0.106,0.052
	c0.039,0,0.08-0.014,0.123-0.045l1.437-0.779c0.046-0.034,0.14-0.034,0.188,0l0.012,0.007l1.423,0.772
	c0.095,0.065,0.186,0.057,0.23-0.007c0.031-0.042,0.036-0.101,0.014-0.172l-0.35-1.62c-0.019-0.058,0.009-0.143,0.057-0.179
	l0.009-0.008l1.228-1.101c0.102-0.075,0.097-0.149,0.085-0.186c-0.014-0.037-0.052-0.1-0.179-0.1l-1.64-0.134
	C14.034,30.662,13.961,30.609,13.942,30.552z M50.442,30.552l-0.004-0.009l-0.676-1.546c-0.041-0.12-0.112-0.137-0.151-0.137
	c-0.038,0-0.109,0.017-0.149,0.137l-0.681,1.555c-0.019,0.058-0.092,0.11-0.152,0.11H48.62l-1.631,0.134
	c-0.127,0-0.167,0.062-0.18,0.1c-0.012,0.037-0.017,0.11,0.084,0.186l1.236,1.109c0.05,0.035,0.077,0.121,0.058,0.179l-0.001,0.009
	l-0.348,1.611c-0.021,0.071-0.017,0.13,0.014,0.172c0.025,0.033,0.062,0.052,0.106,0.052c0.039,0,0.08-0.014,0.123-0.045
	l1.436-0.779c0.046-0.034,0.14-0.034,0.189,0l0.012,0.007l1.423,0.772c0.095,0.065,0.186,0.057,0.23-0.007
	c0.031-0.042,0.036-0.101,0.014-0.172l-0.35-1.62c-0.019-0.058,0.009-0.143,0.057-0.179l0.009-0.008l1.229-1.101
	c0.103-0.075,0.097-0.149,0.085-0.186c-0.014-0.037-0.052-0.1-0.179-0.1l-1.64-0.134C50.534,30.662,50.461,30.609,50.442,30.552z"/>
</svg>
