<?xml version="1.0" encoding="iso-8859-1"?>
<!-- Generator: Adobe Illustrator 17.0.0, SVG Export Plug-In . SVG Version: 6.00 Build 0)  -->
<!DOCTYPE svg PUBLIC "-//W3C//DTD SVG 1.1//EN" "http://www.w3.org/Graphics/SVG/1.1/DTD/svg11.dtd">
<svg version="1.1" id="Capa_1" xmlns="http://www.w3.org/2000/svg" xmlns:xlink="http://www.w3.org/1999/xlink" x="0px" y="0px"
	 width="64px" height="64px" viewBox="0 0 64 64" style="enable-background:new 0 0 64 64;" xml:space="preserve">
<g>
	<path d="M26.33,48.691c0,1.144,3.432,2.072,7.664,2.072c4.233,0,7.663-0.928,7.663-2.072c0-0.906-2.152-1.673-5.146-1.956
		c0.06-0.356,0.054-0.626,0.054-0.626s-0.646-3.066,0.215-4.843c0.862-1.776,0.538-4.414,0.323-4.791
		c-0.216-0.378-0.484-2.368,0-3.176c0.484-0.808,0.647-2.637,0.915-5.432c0.268-2.796-0.501-3.341-0.501-3.341v-2.312h0.501
		c1.614-0.108,1.829-3.444,2.045-4.95c0.216-1.507,1.292-2.907,0-4.684c-1.292-1.775-4.414-2.422-4.414-2.422l0.054-1.614
		c0,0,0.835-0.7,0.755-3.123C36.376,3,34.344,3,34.344,3h-0.7c0,0-2.031,0-2.112,2.422c-0.081,2.423,0.754,3.123,0.754,3.123
		l0.054,1.614c0,0-3.122,0.646-4.414,2.422c-1.292,1.776-0.216,3.177,0,4.684c0.216,1.506,0.432,4.842,2.046,4.95h0.501v2.312
		c0,0-0.77,0.545-0.501,3.341c0.268,2.795,0.43,4.624,0.914,5.432c0.484,0.808,0.214,2.798,0,3.176
		c-0.216,0.377-0.539,3.015,0.323,4.791c0.862,1.776,0.216,4.843,0.216,4.843s-0.007,0.271,0.052,0.626
		C28.482,47.019,26.33,47.785,26.33,48.691z"/>
	<path d="M42.654,53.196c0.276-0.345,0.421-0.746,0.409-1.214c-0.047-1.949-0.859-2.374-1.084-2.456
		c-1.898,1.751-7.034,1.858-8.248,1.858c-1.17,0-5.975-0.107-8.018-1.684c-0.324,0.266-0.755,0.88-0.789,2.281
		c-0.011,0.468,0.132,0.866,0.406,1.211c-2.064,0.57-3.34,1.343-3.34,2.194v4.038c0,0,2.368,2.745,12.703,2.583
		c10.334-0.161,11.304-3.308,11.304-3.308v-3.528h-0.041C45.762,54.407,44.537,53.718,42.654,53.196z"/>
</g>
</svg>
