<?xml version="1.0" encoding="utf-8"?>
<!-- Generator: Adobe Illustrator 17.0.0, SVG Export Plug-In . SVG Version: 6.00 Build 0)  -->
<!DOCTYPE svg PUBLIC "-//W3C//DTD SVG 1.1//EN" "http://www.w3.org/Graphics/SVG/1.1/DTD/svg11.dtd">
<svg version="1.1" id="Capa_1" xmlns="http://www.w3.org/2000/svg" xmlns:xlink="http://www.w3.org/1999/xlink" x="0px" y="0px"
	 width="64px" height="64px" viewBox="0 0 64 64" enable-background="new 0 0 64 64" xml:space="preserve">
<path d="M14.509,25.608h38.56c0.781,0,1.419-0.637,1.419-1.42V21.64c0-1.896-1.543-3.438-3.44-3.438c-0.404,0-0.8,0.068-1.172,0.203
	c-0.103-2.396-2.083-4.313-4.504-4.313c-0.358,0-0.714,0.042-1.105,0.133c-0.05,0-0.116-0.022-0.152-0.082
	c-0.951-1.626-2.713-2.638-4.596-2.638c-0.404,0-0.809,0.047-1.232,0.127c-0.893-2.622-3.355-4.384-6.128-4.384
	c-3.52,0-6.393,2.823-6.473,6.323c-0.748-0.367-1.57-0.558-2.417-0.558c-2.851,0-5.202,2.18-5.474,4.96
	c-0.264-0.055-0.533-0.082-0.803-0.082c-2.152,0-3.902,1.75-3.902,3.902v2.394C13.091,24.972,13.727,25.608,14.509,25.608z
	 M14.509,21.795c0-1.37,1.115-2.484,2.484-2.484c0.226,0,0.45,0.031,0.665,0.091c0.292,0.081,0.512,0.132,0.707,0.132
	c0.318,0,0.515-0.137,0.622-0.252l0.225-0.269l-0.018-0.304c-0.003-0.062-0.006-0.129-0.006-0.196c0-2.25,1.83-4.08,4.081-4.08
	c0.833,0,1.636,0.25,2.318,0.722c0.525,0.365,1.022,0.324,1.331-0.021c0.184-0.208,0.258-0.491,0.217-0.839
	c-0.021-0.187-0.033-0.377-0.033-0.57c0-2.788,2.269-5.055,5.057-5.055c2.165,0,4.088,1.374,4.785,3.422
	c0.238,0.702,0.975,1.103,1.692,0.935c0.289-0.066,0.585-0.1,0.883-0.1c1.381,0,2.673,0.741,3.371,1.935
	c0.347,0.593,1.071,0.903,1.761,0.739c0.235-0.059,0.478-0.088,0.722-0.088c1.703,0,3.09,1.386,3.09,3.09
	c0,0.182-0.016,0.362-0.048,0.541c-0.029,0.166-0.097,0.556,0.162,0.864l0.264,0.275l0.331-0.001c0.272,0,0.498-0.135,0.701-0.281
	c0.343-0.248,0.751-0.379,1.176-0.379c1.113,0,2.021,0.906,2.021,2.02l0.001,2.548H14.509C14.509,24.19,14.509,21.795,14.509,21.795
	z M16.214,12.135c0.303,0.151,0.779,0.537,1.041,0.845c0.249,0.289,0.646,0.463,1.064,0.463c0.233,0,0.462-0.056,0.657-0.159
	c0.537-0.285,0.942-1.086,0.942-1.865c0-0.832-0.795-1.508-1.773-1.508h-0.177c-0.802,0-1.786,0.269-2.117,0.783
	c-0.164,0.255-0.214,0.56-0.139,0.835C15.786,11.793,15.963,12.009,16.214,12.135z M16.449,11.078
	c0.119-0.188,0.771-0.459,1.52-0.459h0.177c0.587,0,1.065,0.358,1.065,0.799c0,0.554-0.299,1.096-0.566,1.238
	c-0.094,0.05-0.206,0.075-0.325,0.075c-0.211,0-0.411-0.082-0.525-0.214c-0.323-0.378-0.878-0.824-1.264-1.019
	c-0.068-0.034-0.114-0.089-0.134-0.158C16.374,11.258,16.393,11.165,16.449,11.078z M25.585,8.686
	c0.152,0.255,0.437,0.401,0.786,0.401c0.29,0,0.607-0.102,0.892-0.283c0.509-0.322,1.023-0.906,1.023-1.393
	c0-0.395-0.211-0.904-0.489-1.183c-0.309-0.308-0.872-0.341-1.102-0.341c-0.178,0-0.354,0.018-0.522,0.053
	c-0.7,0.147-1.173,0.732-1.076,1.334C25.17,7.728,25.384,8.35,25.585,8.686z M26.319,6.636c0.118-0.024,0.248-0.038,0.376-0.038
	c0.318,0,0.546,0.08,0.6,0.134c0.148,0.147,0.28,0.472,0.28,0.681c0,0.105-0.235,0.502-0.694,0.795
	c-0.278,0.179-0.645,0.187-0.686,0.117c-0.156-0.264-0.339-0.795-0.397-1.16C25.767,6.972,25.974,6.708,26.319,6.636z M35.559,5.976
	c0.141,0.064,0.383,0.238,0.517,0.371c0.275,0.274,0.982,0.4,1.522,0.4c0.746,0,1.33-0.778,1.33-1.773V4.736
	c0-0.977-0.796-1.773-1.773-1.773h-0.356c-0.977,0-1.773,0.649-1.773,1.448C35.025,4.632,35.051,5.745,35.559,5.976z M36.799,3.672
	h0.356c0.587,0,1.064,0.479,1.064,1.064v0.237c0,0.627-0.327,1.063-0.621,1.063c-0.516,0-0.941-0.128-1.021-0.192
	c-0.195-0.194-0.507-0.416-0.669-0.477c-0.059-0.071-0.173-0.438-0.173-0.957C35.734,4.01,36.223,3.672,36.799,3.672z
	 M42.962,11.269c0.106,0.033,0.219,0.05,0.335,0.05c0.475,0,0.952-0.282,1.188-0.702c0.309-0.551,0.274-1.192-0.079-1.493
	C44.1,8.86,43.461,8.775,42.969,8.919c-0.542,0.157-0.966,0.67-0.966,1.168C42.003,10.583,42.425,11.102,42.962,11.269z
	 M43.167,9.601c0.099-0.028,0.212-0.045,0.327-0.045c0.24,0,0.401,0.064,0.452,0.107c0.045,0.04,0.087,0.311-0.08,0.606
	c-0.133,0.236-0.468,0.391-0.694,0.323c-0.263-0.083-0.459-0.334-0.459-0.505C42.713,9.92,42.906,9.676,43.167,9.601z
	 M51.049,14.788c0.587,0,1.065-0.557,1.065-1.241c0-0.686-0.478-1.243-1.065-1.243c-0.586,0-1.064,0.558-1.064,1.243
	C49.984,14.231,50.463,14.788,51.049,14.788z M51.049,13.015c0.19,0,0.356,0.248,0.356,0.532c0,0.282-0.166,0.532-0.356,0.532
	c-0.188,0-0.354-0.25-0.354-0.532C50.694,13.263,50.86,13.015,51.049,13.015z M33.529,13.644c-0.856-0.276-2.085,0.014-2.727,0.633
	l-0.531,0.513c-0.687,0.664-0.826,1.819-0.314,2.629l0.166,0.264c0.484,0.764,1.521,1.363,2.363,1.363
	c0.888,0,1.758-0.725,1.983-1.65l0.361-1.5C35.057,14.959,34.494,13.955,33.529,13.644z M34.141,15.729l-0.362,1.499
	c-0.144,0.601-0.737,1.107-1.292,1.107c-0.601,0-1.409-0.473-1.763-1.032l-0.166-0.265c-0.328-0.518-0.232-1.313,0.208-1.739
	l0.53-0.512c0.336-0.325,0.936-0.543,1.493-0.543c0.192,0,0.368,0.025,0.57,0.092C33.932,14.519,34.281,15.144,34.141,15.729z
	 M39.403,15.902l-0.369,0.035c-0.86,0.085-1.731,0.501-1.731,1.134c0,0.514,0.465,1.255,0.902,1.692
	c0.514,0.514,1.307,0.902,1.847,0.902c0.658,0,1.153-0.764,1.153-1.773v-0.355C41.205,16.559,40.395,15.81,39.403,15.902z
	 M40.495,17.893c0,0.66-0.286,1.062-0.443,1.062c-0.309,0-0.937-0.284-1.346-0.692c-0.43-0.432-0.694-0.983-0.695-1.181
	c0.028-0.094,0.408-0.37,1.093-0.438l0.369-0.036c0.034-0.003,0.069-0.006,0.104-0.006c0.523,0,0.919,0.402,0.919,0.935
	L40.495,17.893L40.495,17.893z M44.42,18.955c-0.722,0-1.309,0.518-1.309,1.154c0,0.572,0.316,1.183,0.735,1.418
	c0.178,0.099,0.384,0.152,0.598,0.152c0.307,0,0.591-0.109,0.781-0.3c0.286-0.287,0.502-0.872,0.502-1.36
	C45.727,19.424,45.153,18.955,44.42,18.955z M44.723,20.878c-0.056,0.056-0.163,0.092-0.278,0.092c-0.092,0-0.18-0.022-0.249-0.062
	c-0.178-0.1-0.375-0.462-0.375-0.799c0-0.241,0.275-0.443,0.6-0.443c0.343,0,0.599,0.187,0.599,0.354
	C45.019,20.343,44.862,20.738,44.723,20.878z M36.995,20.424c-0.552-0.229-1.361-0.098-1.791,0.285
	c-0.249,0.222-0.386,0.524-0.376,0.83c0.01,0.296,0.149,0.564,0.393,0.757c0.189,0.147,0.436,0.227,0.71,0.227h0.001
	c0.408,0,0.832-0.169,1.163-0.464c0.335-0.298,0.495-0.662,0.438-0.999C37.486,20.779,37.29,20.548,36.995,20.424z M36.623,21.53
	c-0.196,0.174-0.462,0.282-0.691,0.282c0,0,0,0-0.001,0c-0.112,0-0.21-0.026-0.271-0.075c-0.077-0.062-0.118-0.137-0.122-0.22
	c-0.002-0.098,0.047-0.196,0.139-0.278c0.153-0.137,0.422-0.225,0.685-0.225c0.135,0,0.261,0.022,0.362,0.065
	c0.047,0.018,0.104,0.052,0.11,0.098C36.843,21.232,36.809,21.364,36.623,21.53z M30.144,19.857
	c-0.229-0.113-0.562-0.139-0.802-0.139c-0.311,0-0.647,0.041-0.946,0.111c-0.415,0.1-0.723,0.341-0.846,0.663
	c-0.108,0.282-0.062,0.588,0.127,0.86c0.306,0.438,0.854,0.885,1.31,0.885c0.46,0,0.998-0.448,1.294-0.891
	c0.229-0.344,0.313-0.717,0.231-1.026C30.457,20.113,30.326,19.949,30.144,19.857z M29.69,20.954
	c-0.238,0.357-0.59,0.573-0.703,0.573c-0.114,0-0.477-0.219-0.729-0.58c-0.053-0.075-0.069-0.144-0.047-0.202
	c0.029-0.075,0.136-0.174,0.349-0.224c0.245-0.061,0.524-0.092,0.781-0.092c0.283,0,0.438,0.04,0.479,0.058
	C29.841,20.517,29.859,20.7,29.69,20.954z M24.75,17.599c-0.481-0.156-1.231-0.009-1.688,0.313
	c-0.504,0.357-0.713,1.232-0.477,1.991c0.21,0.672,0.819,1.142,1.484,1.142c0.104,0,0.209-0.012,0.311-0.036
	c0.73-0.173,1.304-0.928,1.304-1.721C25.684,18.496,25.282,17.77,24.75,17.599z M24.217,20.318
	c-0.378,0.089-0.821-0.199-0.953-0.625c-0.154-0.493-0.016-1.042,0.209-1.202c0.21-0.147,0.541-0.248,0.824-0.248
	c0.092,0,0.173,0.011,0.236,0.031c0.18,0.058,0.441,0.481,0.441,1.014C24.975,19.75,24.628,20.222,24.217,20.318z M54.042,27.976
	c-0.436-0.49-1.073-0.771-1.752-0.771H15.751c-0.676,0-1.314,0.278-1.75,0.768c-0.438,0.487-0.646,1.151-0.572,1.823l3.238,29.639
	c0.144,1.322,1.301,2.359,2.632,2.359h29.09c1.324,0,2.486-1.03,2.645-2.347l3.563-29.643
	C54.678,29.132,54.476,28.464,54.042,27.976z M32.597,59.664l-2.52-30.332h8.749L35.87,59.664H32.597z M23.489,59.664l-6.446-30.332
	h8.232l1.42,30.332H23.489z M26.276,29.332h2.798l2.52,30.332h-3.898L26.276,29.332z M39.831,29.332h2.305l-1.42,30.332h-3.84
	L39.831,29.332z M41.717,59.664l1.42-30.332h8.232l-6.446,30.332H41.717z M18.783,59.202L17.49,47.363l-0.745-6.813l-1.2-10.986
	c-0.006-0.051-0.003-0.122,0.04-0.172c0.044-0.049,0.114-0.06,0.166-0.06h0.269l6.445,30.332h-3.167
	C19.06,59.664,18.81,59.44,18.783,59.202z M51.337,39.095l-1.176,9.785l-1.24,10.312c-0.03,0.242-0.288,0.472-0.532,0.472h-2.442
	l6.438-30.299c0.023,0.008,0.049,0.004,0.065,0.022c0.04,0.045,0.041,0.113,0.035,0.162C52.485,29.549,51.337,39.095,51.337,39.095z
	"/>
</svg>
