<?xml version="1.0" encoding="utf-8"?>
<!-- Generator: Adobe Illustrator 17.0.0, SVG Export Plug-In . SVG Version: 6.00 Build 0)  -->
<!DOCTYPE svg PUBLIC "-//W3C//DTD SVG 1.1//EN" "http://www.w3.org/Graphics/SVG/1.1/DTD/svg11.dtd">
<svg version="1.1" id="Capa_1" xmlns="http://www.w3.org/2000/svg" xmlns:xlink="http://www.w3.org/1999/xlink" x="0px" y="0px"
	 width="64px" height="64px" viewBox="0 0 64 64" enable-background="new 0 0 64 64" xml:space="preserve">
<path d="M35.73,25.613l8.175-13.725c0.201-0.339,0.635-0.448,0.973-0.247c0.337,0.201,0.447,0.635,0.247,0.972L36.95,26.339
	c-0.2,0.338-0.635,0.448-0.973,0.247C35.64,26.385,35.53,25.949,35.73,25.613z M38.2,30.64c0.169,0.354,0.592,0.505,0.945,0.336
	l14.433-6.849c0.355-0.169,0.505-0.591,0.337-0.946c-0.169-0.354-0.591-0.505-0.945-0.336l-14.433,6.85
	C38.183,29.862,38.032,30.286,38.2,30.64z M56.322,37.629l-15.809-2.302c-0.388-0.057-0.749,0.211-0.805,0.601
	c-0.057,0.389,0.212,0.747,0.6,0.804l15.809,2.302c0.389,0.055,0.749-0.213,0.806-0.601C56.98,38.044,56.712,37.685,56.322,37.629z
	 M31.107,19.701c-0.17-0.454-0.703-0.707-1.168-0.532c-0.466,0.176-0.704,0.698-0.53,1.165l9.264,24.805
	c0.131,0.353,0.473,0.589,0.85,0.589c0.107,0,0.214-0.019,0.317-0.058c0.467-0.176,0.705-0.698,0.531-1.164L31.107,19.701z
	 M37.191,45.318c0.069,0.185,0.044,0.392-0.065,0.553c-0.071,0.106-0.174,0.186-0.29,0.23c-0.063,0.022-0.129,0.036-0.198,0.037
	l-15.764,0.388l0.115,2.756c0.011,0.271-0.155,0.506-0.395,0.596c-0.06,0.021-0.123,0.035-0.188,0.038l-9.054,0.382
	c-0.162,0.006-0.319-0.051-0.437-0.161c-0.119-0.109-0.19-0.26-0.197-0.422l-0.122-2.911L8.573,47.56
	c-0.314,0.118-0.665-0.044-0.783-0.358L4.597,38.65c-0.119-0.316,0.041-0.666,0.357-0.784l1.612-0.601l20.403-17.006
	c0.149-0.126,0.354-0.172,0.544-0.12c0.191,0.05,0.345,0.189,0.414,0.374L37.191,45.318z M19.749,48.727l-0.093-2.168l-0.604,0.015
	c0.012,0.063,0.026,0.127,0.029,0.193c0.016,0.374-0.138,0.744-0.422,1.014c-0.269,0.257-0.631,0.407-1.019,0.424l-3.631,0.151
	c-0.802,0-1.456-0.577-1.487-1.312c-0.004-0.106,0.008-0.209,0.029-0.312l-0.741,0.019l0.098,2.307L19.749,48.727z M14.01,47.355
	l0.027-0.001l3.561-0.15c0.143-0.005,0.279-0.059,0.372-0.148c0.044-0.041,0.117-0.129,0.111-0.246
	c-0.003-0.081-0.048-0.151-0.11-0.21l-4.257,0.104c-0.026,0.018-0.057,0.029-0.08,0.051c-0.044,0.041-0.117,0.129-0.111,0.246
	C13.531,47.196,13.749,47.355,14.01,47.355z M35.753,44.945l-8.664-23.201L7.268,38.265c-0.053,0.043-0.114,0.079-0.178,0.103
	l-1.14,0.425l2.769,7.413l1.615-0.604c0.063-0.023,0.13-0.036,0.198-0.038l9.643-0.237c0.013-0.001,0.024-0.006,0.038-0.005
	c0.017-0.002,0.035,0.002,0.053,0.002L35.753,44.945z"/>
</svg>
