<?xml version="1.0" encoding="iso-8859-1"?>
<!-- Generator: Adobe Illustrator 17.0.0, SVG Export Plug-In . SVG Version: 6.00 Build 0)  -->
<!DOCTYPE svg PUBLIC "-//W3C//DTD SVG 1.1//EN" "http://www.w3.org/Graphics/SVG/1.1/DTD/svg11.dtd">
<svg version="1.1" id="Capa_1" xmlns="http://www.w3.org/2000/svg" xmlns:xlink="http://www.w3.org/1999/xlink" x="0px" y="0px"
	 width="64px" height="64px" viewBox="0 0 64 64" style="enable-background:new 0 0 64 64;" xml:space="preserve">
<g>
	<path d="M19.168,54.765c0-1.439-1.166-2.605-2.607-2.605h-6.515c-1.439,0-2.607,1.166-2.607,2.605v4.234h11.728V54.765z"/>
	<path d="M32.035,54.765c0-1.439-1.167-2.605-2.608-2.605h-6.514c-1.44,0-2.607,1.166-2.607,2.605v4.234h11.728V54.765z"/>
	<path d="M22.964,51.616h7.31c0.059-0.263,0.092-0.535,0.092-0.814c0-2.069-1.678-3.746-3.746-3.746
		c-2.068,0-3.746,1.677-3.746,3.746C22.873,51.081,22.906,51.353,22.964,51.616z"/>
	<path d="M17.351,50.802c0-2.069-1.677-3.746-3.746-3.746c-2.068,0-3.746,1.677-3.746,3.746c0,0.279,0.032,0.552,0.091,0.814h7.31
		C17.318,51.353,17.351,51.081,17.351,50.802z"/>
	<path d="M22.348,50.301c0.02-1.371,0.697-2.583,1.729-3.343c-0.053-2.109-1.782-3.812-3.905-3.812
		c-2.136,0-3.875,1.723-3.906,3.851c0.992,0.755,1.642,1.933,1.674,3.264c0.635,0.442,1.402,0.704,2.232,0.704
		C20.977,50.965,21.726,50.719,22.348,50.301z"/>
	<path d="M44.517,54.656c0-1.441-1.167-2.607-2.606-2.607h-6.516c-1.439,0-2.606,1.166-2.606,2.607v4.235h11.728V54.656z"/>
	<path d="M57.385,54.656c0-1.441-1.168-2.607-2.606-2.607h-6.516c-1.438,0-2.606,1.166-2.606,2.607v4.235h11.728V54.656z"/>
	<path d="M48.222,50.692c0,0.28,0.033,0.552,0.092,0.814h7.309c0.06-0.263,0.092-0.534,0.092-0.814c0-2.068-1.677-3.746-3.746-3.746
		C49.899,46.946,48.222,48.624,48.222,50.692z"/>
	<path d="M35.208,50.692c0,0.28,0.033,0.552,0.09,0.814h7.31c0.059-0.263,0.091-0.534,0.091-0.814c0-2.068-1.678-3.746-3.745-3.746
		C36.885,46.946,35.208,48.624,35.208,50.692z"/>
	<path d="M47.695,50.193c0.022-1.372,0.699-2.584,1.73-3.344c-0.053-2.11-1.782-3.812-3.904-3.812c-2.137,0-3.876,1.723-3.907,3.852
		c0.992,0.753,1.642,1.931,1.675,3.263c0.634,0.442,1.402,0.703,2.232,0.703C46.325,50.855,47.074,50.611,47.695,50.193z"/>
	<path d="M56.714,13.485H8.44v26.208h48.273V13.485z M32.577,34.793c-4.53,0-8.204-3.673-8.204-8.204
		c0-4.531,3.674-8.204,8.204-8.204c4.531,0,8.204,3.673,8.204,8.204C40.781,31.12,37.108,34.793,32.577,34.793z"/>
	<polygon points="30.262,24.755 30.515,25.911 31.771,25.311 31.792,25.311 31.792,30.534 33.283,30.534 33.283,23.943 
		32.016,23.943 	"/>
</g>
</svg>
