<?xml version="1.0" encoding="iso-8859-1"?>
<!-- Generator: Adobe Illustrator 17.0.0, SVG Export Plug-In . SVG Version: 6.00 Build 0)  -->
<!DOCTYPE svg PUBLIC "-//W3C//DTD SVG 1.1//EN" "http://www.w3.org/Graphics/SVG/1.1/DTD/svg11.dtd">
<svg version="1.1" id="Capa_1" xmlns="http://www.w3.org/2000/svg" xmlns:xlink="http://www.w3.org/1999/xlink" x="0px" y="0px"
	 width="64px" height="64px" viewBox="0 0 64 64" style="enable-background:new 0 0 64 64;" xml:space="preserve">
<g>
	<path d="M53.361,25.094H39.987c-1.657,0-3.415-1.277-3.927-2.853l-4.132-12.72c-0.512-1.576-1.342-1.576-1.854,0l-4.132,12.72
		c-0.512,1.576-2.271,2.853-3.927,2.853H8.639c-1.657,0-1.914,0.79-0.573,1.763l10.82,7.861c1.341,0.974,2.012,3.04,1.5,4.616
		l-4.133,12.72c-0.512,1.576,0.159,2.064,1.5,1.09l10.82-7.862c1.341-0.974,3.514-0.974,4.854,0l10.82,7.862
		c1.341,0.974,2.012,0.486,1.5-1.09l-4.133-12.72c-0.512-1.576,0.159-3.643,1.5-4.616l10.82-7.861
		C55.275,25.884,55.018,25.094,53.361,25.094z"/>
</g>
</svg>
