<?xml version="1.0" encoding="utf-8"?>
<!-- Generator: Adobe Illustrator 17.0.0, SVG Export Plug-In . SVG Version: 6.00 Build 0)  -->
<!DOCTYPE svg PUBLIC "-//W3C//DTD SVG 1.1//EN" "http://www.w3.org/Graphics/SVG/1.1/DTD/svg11.dtd">
<svg version="1.1" id="Capa_1" xmlns="http://www.w3.org/2000/svg" xmlns:xlink="http://www.w3.org/1999/xlink" x="0px" y="0px"
	 width="64px" height="64px" viewBox="0 0 64 64" enable-background="new 0 0 64 64" xml:space="preserve">
<path d="M53.089,13.738c-0.307,0.459-0.927,0.582-1.387,0.277l-7.347-4.897c-0.46-0.307-1.038-0.157-1.293,0.333l-5.372,10.33
	c-0.255,0.49-0.014,0.888,0.539,0.888h2.286c0.553,0,1.113,0.434,1.253,0.968l0.195,0.75c0.14,0.534-0.194,0.968-0.747,0.968H20.333
	c-0.552,0-0.836-0.417-0.635-0.932l0.322-0.822c0.201-0.515,0.811-0.932,1.363-0.932h12.59c0.553,0,1.207-0.398,1.461-0.888
	l6.827-13.129C42.393,6.4,42.625,6.215,42.9,6.144c0.276-0.069,0.568-0.02,0.804,0.137l9.108,6.07
	C53.272,12.658,53.396,13.278,53.089,13.738z M44.266,26.104c0,0.553-0.447,1-1,1h-0.43c-0.237,0-0.483,0.444-0.547,0.993
	l-3.505,29.667c-0.064,0.549-0.564,0.993-1.117,0.993h-13.78c-0.552,0-1.056-0.444-1.125-0.992l-3.737-29.669
	c-0.069-0.548-0.289-0.992-0.492-0.992c-0.202,0-0.366,0-0.366,0c-0.553,0-1-0.447-1-1s0.447-1,1-1h25.099
	C43.819,25.104,44.266,25.551,44.266,26.104z M40.04,30.098c0.064-0.549-0.33-0.993-0.883-0.993H22.168
	c-0.552,0-0.944,0.444-0.875,0.992l3.233,25.669c0.069,0.548,0.573,0.992,1.125,0.992h10.24c0.552,0,1.052-0.445,1.117-0.993
	L40.04,30.098z"/>
</svg>
