<?xml version="1.0" encoding="iso-8859-1"?>
<!-- Generator: Adobe Illustrator 17.0.0, SVG Export Plug-In . SVG Version: 6.00 Build 0)  -->
<!DOCTYPE svg PUBLIC "-//W3C//DTD SVG 1.1//EN" "http://www.w3.org/Graphics/SVG/1.1/DTD/svg11.dtd">
<svg version="1.1" id="Capa_1" xmlns="http://www.w3.org/2000/svg" xmlns:xlink="http://www.w3.org/1999/xlink" x="0px" y="0px"
	 width="64px" height="64px" viewBox="0 0 64 64" style="enable-background:new 0 0 64 64;" xml:space="preserve">
<g>
	<path d="M36.931,31.396c1.54,0,2.684-0.389,3.463-1.156c0.827-0.811,1.246-2.059,1.246-3.701c0-2.826-1.494-4.319-4.319-4.319
		c-0.306,0-0.562,0.011-0.772,0.027v9.148c0.135,0.001,0.268,0.001,0.381,0.001H36.931z"/>
	<path d="M6.583,44.001h14.333v2.821c-2.974,0.583-4.833,1.401-4.833,2.31v5.202h31.333v-5.202c0-0.908-1.86-1.727-4.833-2.31
		v-2.821h14.333V11.525H6.583V44.001z M31,18.029l0.771-0.124c1.518-0.243,3.35-0.378,5.16-0.378c3.273,0,5.533,0.6,7.325,1.944
		c2.062,1.532,3.155,3.934,3.155,6.945c0,3.938-1.65,6.183-3.034,7.372c-1.854,1.54-4.696,2.35-8.229,2.35
		c-2.052,0-3.501-0.138-4.355-0.253L31,35.779V18.029z M21.812,28.897H19.38v-4.496h2.383c0.733,0,1.897-0.25,1.897-0.92
		c0-0.65-0.898-0.748-1.433-0.748c-1.095,0-2.288,0.49-2.823,0.818l-1.032,0.635l-1.271-4.509l0.571-0.367
		c0.966-0.619,2.963-1.343,5.411-1.343c4.242,0,6.174,2.528,6.174,4.878c0,1.464-0.602,2.704-1.702,3.585
		c1.391,0.869,2.24,2.335,2.24,4.047c0,3.444-2.982,5.759-7.422,5.759c-2.327,0-4.209-0.637-5.195-1.232l-0.59-0.356l1.243-4.61
		l1.024,0.569c0.537,0.299,1.906,0.864,3.248,0.864c0.468,0,1.996-0.086,1.996-1.189C24.102,28.936,22.047,28.897,21.812,28.897z"/>
</g>
</svg>
