<?xml version="1.0" encoding="utf-8"?>
<!-- Generator: Adobe Illustrator 17.0.0, SVG Export Plug-In . SVG Version: 6.00 Build 0)  -->
<!DOCTYPE svg PUBLIC "-//W3C//DTD SVG 1.1//EN" "http://www.w3.org/Graphics/SVG/1.1/DTD/svg11.dtd">
<svg version="1.1" id="Capa_1" xmlns="http://www.w3.org/2000/svg" xmlns:xlink="http://www.w3.org/1999/xlink" x="0px" y="0px"
	 width="64px" height="64px" viewBox="0 0 64 64" enable-background="new 0 0 64 64" xml:space="preserve">
<path d="M13.46,27.942H5.394c-1.334,0-2.42,1.086-2.42,2.42v17.053c0,1.334,1.086,2.42,2.42,2.42h8.067
	c1.334,0,2.42-1.086,2.419-2.42V30.362C15.88,29.028,14.794,27.942,13.46,27.942z M13.806,47.416c0,0.191-0.157,0.346-0.346,0.346
	H5.394c-0.191,0-0.346-0.156-0.346-0.346V30.363c0-0.191,0.156-0.346,0.346-0.346v-0.001h8.066c0.19,0,0.346,0.156,0.346,0.346
	V47.416z M18.702,28.979v19.818c0,0.573-0.464,1.038-1.037,1.038s-1.037-0.465-1.037-1.037V28.979c0-0.572,0.464-1.037,1.037-1.037
	S18.702,28.407,18.702,28.979z M60.124,33.709c-0.007-1.283-0.341-2.331-0.995-3.112c-0.023-0.03-0.044-0.057-0.062-0.079
	c0.018-0.022,0.04-0.05,0.065-0.08c0.659-0.772,0.992-1.805,0.992-3.07c0-1.537-0.705-2.796-1.985-3.543
	c-0.859-0.5-2.214-0.605-3.199-0.605H42.842c-0.916,0-1.406-0.109-1.647-0.193c-0.034-0.326,0.103-1.013,0.158-1.29l0.026-0.13
	c0.907-4.599,1.61-10.545-0.198-12.743c-0.52-0.633-1.22-0.968-2.027-0.968c-3.223,0-4.039,1.954-5.17,4.657
	c-0.727,1.735-1.63,3.896-3.418,6.644c-3.245,4.986-7.248,7.355-9.346,8.322c-1.004,0.465-1.598,1.568-1.552,2.842l0.001,15.652
	c0.042,1.21,1.147,2.466,2.145,2.936c5.613,2.637,15.133,2.992,23.705,2.992l2.911-0.005c2.401,0,4.21-0.613,5.373-1.825
	c0.979-1.019,1.462-2.431,1.397-4.082c-0.015-0.341,0.205-0.691,0.546-0.874c1.577-0.845,2.546-2.318,2.732-4.146
	c0.092-0.905-0.074-1.878-0.492-2.896c-0.007-0.018-0.013-0.033-0.018-0.047c0.039-0.032,0.111-0.086,0.238-0.154
	C60.237,36.825,60.15,34.135,60.124,33.709z M57.223,36.086c-1.716,0.918-1.383,2.278-1.159,2.818
	c0.283,0.687,0.404,1.343,0.347,1.897c-0.117,1.153-0.671,2.004-1.647,2.528c-1.042,0.557-1.686,1.651-1.64,2.784
	c0.031,0.748-0.086,1.8-0.819,2.562c-0.758,0.789-2.062,1.188-3.878,1.188l-2.91,0.005c-5.477,0-16.872,0-22.822-2.796
	c-0.432-0.203-0.946-0.859-0.955-1.096l-0.001-15.653c-0.013-0.371,0.103-0.806,0.349-0.919c2.3-1.062,6.685-3.653,10.213-9.075
	c1.893-2.907,2.875-5.258,3.594-6.976c1.145-2.737,1.483-3.384,3.257-3.384c0.157,0,0.282,0.035,0.426,0.212
	c0.95,1.155,0.858,5.484-0.235,11.026l-0.024,0.123c-0.196,0.976-0.561,2.794,0.78,3.482c0.634,0.324,1.531,0.483,2.742,0.483
	h12.095c1.104,0,1.878,0.161,2.153,0.322c0.644,0.376,0.958,0.949,0.958,1.752c0,0.758-0.168,1.339-0.497,1.726
	c-0.821,0.962-0.826,1.862-0.017,2.832c0.336,0.402,0.514,1.032,0.514,1.821l0.002,0.088C58.051,33.852,58.161,35.584,57.223,36.086
	z M45.319,34.56c0.028,0.09,0.042,0.266-0.206,0.448l-2.967,2.66l-0.02,0.019c-0.116,0.085-0.182,0.292-0.137,0.432l0.844,3.912
	c0.055,0.172,0.043,0.314-0.033,0.415c-0.108,0.155-0.327,0.175-0.556,0.017l-3.437-1.865l-0.028-0.017
	c-0.118-0.082-0.344-0.082-0.455,0l-3.469,1.882c-0.104,0.075-0.203,0.108-0.297,0.108c-0.107,0-0.196-0.045-0.255-0.125
	c-0.073-0.101-0.085-0.243-0.033-0.415l0.84-3.891l0.002-0.021c0.048-0.14-0.019-0.347-0.139-0.432l-2.985-2.679
	c-0.243-0.181-0.231-0.358-0.203-0.448c0.031-0.09,0.127-0.24,0.434-0.24l3.938-0.323h0.021c0.147,0,0.324-0.128,0.368-0.267
	l1.644-3.754c0.096-0.291,0.269-0.331,0.361-0.331c0.094,0,0.266,0.04,0.365,0.331l1.632,3.732l0.01,0.021
	c0.044,0.139,0.221,0.267,0.369,0.268l3.96,0.323C45.194,34.32,45.286,34.47,45.319,34.56z"/>
</svg>
