<?xml version="1.0" encoding="utf-8"?>
<!-- Generator: Adobe Illustrator 17.0.0, SVG Export Plug-In . SVG Version: 6.00 Build 0)  -->
<!DOCTYPE svg PUBLIC "-//W3C//DTD SVG 1.1//EN" "http://www.w3.org/Graphics/SVG/1.1/DTD/svg11.dtd">
<svg version="1.1" id="Capa_1" xmlns="http://www.w3.org/2000/svg" xmlns:xlink="http://www.w3.org/1999/xlink" x="0px" y="0px"
	 width="64px" height="64px" viewBox="0 0 64 64" enable-background="new 0 0 64 64" xml:space="preserve">
<path d="M15.086,34.886c0.049-0.034,0.143-0.034,0.188,0l1.437,0.779c0.043,0.031,0.084,0.045,0.123,0.045
	c0.044,0,0.081-0.019,0.105-0.052c0.03-0.042,0.035-0.101,0.014-0.172l-0.348-1.611l-0.001-0.009
	c-0.019-0.058,0.008-0.144,0.058-0.179l1.236-1.109c0.101-0.075,0.096-0.148,0.084-0.185c-0.013-0.037-0.053-0.1-0.18-0.1
	l-1.632-0.134h-0.008c-0.061,0-0.134-0.053-0.152-0.11l-0.681-1.555c-0.04-0.12-0.111-0.137-0.15-0.137s-0.109,0.017-0.15,0.137
	l-0.676,1.546l-0.004,0.009c-0.019,0.058-0.092,0.11-0.153,0.11l-1.64,0.134c-0.127,0-0.165,0.062-0.179,0.1
	c-0.012,0.037-0.018,0.11,0.085,0.185l1.228,1.102l0.008,0.008c0.049,0.035,0.076,0.121,0.058,0.179l-0.35,1.62
	c-0.022,0.071-0.018,0.13,0.014,0.172c0.045,0.063,0.136,0.072,0.23,0.007l1.423-0.772L15.086,34.886z M14.54,28.875l0.005,0.005
	c0.029,0.021,0.045,0.072,0.034,0.105l-0.207,0.959c-0.014,0.042-0.011,0.076,0.008,0.101c0.026,0.039,0.08,0.044,0.136,0.005
	l0.843-0.457l0.007-0.005c0.028-0.02,0.084-0.02,0.11,0l0.851,0.462c0.026,0.019,0.05,0.027,0.073,0.027
	c0.025,0,0.047-0.011,0.062-0.032c0.018-0.024,0.02-0.059,0.008-0.101l-0.206-0.953l-0.001-0.006
	c-0.012-0.033,0.005-0.085,0.035-0.105l0.73-0.656c0.061-0.044,0.056-0.088,0.05-0.108c-0.007-0.022-0.031-0.061-0.106-0.061
	l-0.965-0.078h-0.004c-0.036,0-0.08-0.031-0.091-0.066l-0.402-0.92c-0.024-0.071-0.066-0.081-0.089-0.081s-0.065,0.01-0.09,0.081
	l-0.399,0.914l-0.002,0.006c-0.011,0.034-0.055,0.066-0.092,0.066l-0.969,0.078c-0.074,0-0.099,0.038-0.105,0.061
	c-0.008,0.021-0.011,0.064,0.05,0.108C13.814,28.224,14.54,28.875,14.54,28.875z M15.758,25.76l0.004,0.004
	c0.022,0.016,0.033,0.053,0.025,0.077l-0.153,0.711c-0.01,0.03-0.008,0.057,0.005,0.074c0.021,0.028,0.061,0.032,0.102,0.003
	l0.623-0.338l0.006-0.003c0.021-0.015,0.062-0.015,0.082,0l0.63,0.341c0.02,0.015,0.037,0.021,0.055,0.021
	c0.019,0,0.034-0.008,0.046-0.023c0.013-0.018,0.016-0.044,0.006-0.074l-0.152-0.707l-0.002-0.004
	c-0.009-0.024,0.005-0.061,0.026-0.077l0.541-0.486c0.045-0.033,0.042-0.065,0.037-0.081s-0.022-0.044-0.078-0.044l-0.716-0.059
	h-0.002c-0.028,0-0.059-0.022-0.067-0.048l-0.298-0.681c-0.019-0.053-0.05-0.062-0.067-0.062s-0.049,0.009-0.066,0.062l-0.296,0.676
	l-0.001,0.005c-0.008,0.025-0.04,0.048-0.068,0.048l-0.717,0.059c-0.057,0-0.072,0.028-0.079,0.044
	c-0.005,0.016-0.007,0.048,0.036,0.081C15.22,25.279,15.758,25.76,15.758,25.76z M15.421,39.692c0.023,0,0.065-0.011,0.089-0.082
	l0.402-0.92c0.011-0.034,0.055-0.066,0.091-0.066h0.004l0.965-0.078c0.075,0,0.1-0.036,0.106-0.059
	c0.006-0.021,0.011-0.065-0.05-0.109l-0.73-0.656c-0.03-0.021-0.047-0.072-0.035-0.105l0.001-0.006l0.206-0.953
	c0.013-0.043,0.01-0.076-0.008-0.102c-0.016-0.021-0.037-0.031-0.062-0.031c-0.023,0-0.047,0.009-0.073,0.027l-0.851,0.461
	c-0.026,0.021-0.082,0.021-0.11,0l-0.007-0.004l-0.843-0.457c-0.056-0.038-0.109-0.033-0.136,0.004
	c-0.019,0.025-0.021,0.059-0.008,0.102l0.207,0.959c0.011,0.033-0.005,0.084-0.034,0.105l-0.005,0.005l-0.727,0.651
	c-0.061,0.044-0.058,0.088-0.05,0.109c0.007,0.022,0.031,0.059,0.105,0.059l0.969,0.078c0.037,0,0.081,0.032,0.092,0.066
	l0.002,0.005l0.399,0.915C15.355,39.682,15.397,39.692,15.421,39.692z M17.638,41.405c0.005-0.016,0.008-0.047-0.037-0.081
	l-0.541-0.485c-0.021-0.016-0.035-0.053-0.026-0.078l0.002-0.005l0.152-0.707c0.01-0.028,0.007-0.055-0.006-0.073
	c-0.012-0.016-0.027-0.023-0.046-0.023c-0.017,0-0.035,0.006-0.055,0.02l-0.63,0.341c-0.021,0.015-0.062,0.015-0.082,0l-0.006-0.002
	l-0.623-0.339c-0.041-0.029-0.08-0.025-0.102,0.003c-0.013,0.019-0.015,0.045-0.005,0.073l0.153,0.712
	c0.008,0.025-0.004,0.062-0.025,0.078l-0.004,0.003l-0.539,0.482c-0.043,0.034-0.041,0.066-0.036,0.081
	c0.007,0.017,0.023,0.044,0.079,0.044l0.717,0.059c0.028,0,0.061,0.022,0.068,0.048l0.001,0.005l0.296,0.676
	c0.018,0.053,0.049,0.062,0.066,0.062s0.048-0.009,0.067-0.062l0.298-0.681c0.009-0.025,0.039-0.048,0.067-0.048h0.002l0.716-0.059
	C17.615,41.449,17.633,41.422,17.638,41.405z M50.047,32.049l-0.004-0.009l-0.676-1.546c-0.041-0.12-0.112-0.137-0.151-0.137
	c-0.038,0-0.109,0.017-0.149,0.137l-0.681,1.555c-0.018,0.058-0.092,0.11-0.152,0.11h-0.009l-1.631,0.134
	c-0.127,0-0.167,0.062-0.18,0.1c-0.012,0.037-0.017,0.11,0.084,0.185l1.236,1.109c0.05,0.035,0.077,0.121,0.058,0.179l-0.001,0.009
	l-0.348,1.611c-0.021,0.071-0.017,0.13,0.014,0.172c0.024,0.033,0.061,0.052,0.105,0.052c0.039,0,0.08-0.014,0.123-0.045
	l1.437-0.779c0.046-0.034,0.14-0.034,0.188,0l0.012,0.007l1.423,0.772c0.095,0.065,0.186,0.057,0.23-0.007
	c0.031-0.042,0.036-0.101,0.014-0.172l-0.35-1.62c-0.019-0.058,0.009-0.144,0.057-0.179l0.009-0.008l1.229-1.102
	c0.103-0.075,0.097-0.148,0.085-0.185c-0.014-0.037-0.052-0.1-0.179-0.1l-1.64-0.134C50.139,32.159,50.065,32.106,50.047,32.049z
	 M48.976,26.91c-0.023,0-0.066,0.01-0.089,0.081l-0.403,0.92c-0.011,0.034-0.054,0.066-0.09,0.066H48.39l-0.966,0.078
	c-0.074,0-0.099,0.038-0.105,0.061c-0.006,0.021-0.011,0.064,0.05,0.108l0.73,0.656c0.03,0.021,0.047,0.072,0.034,0.105v0.006
	l-0.206,0.953c-0.013,0.042-0.01,0.076,0.008,0.101c0.016,0.021,0.037,0.032,0.062,0.032s0.048-0.009,0.074-0.027l0.851-0.462
	c0.026-0.02,0.082-0.02,0.11,0l0.007,0.005l0.843,0.457c0.056,0.039,0.109,0.034,0.136-0.005c0.018-0.024,0.021-0.059,0.008-0.101
	l-0.207-0.959c-0.011-0.033,0.005-0.085,0.034-0.105l0.005-0.005l0.727-0.651c0.06-0.044,0.058-0.088,0.05-0.108
	c-0.008-0.022-0.031-0.061-0.105-0.061l-0.969-0.078c-0.037,0-0.081-0.031-0.092-0.066l-0.002-0.006l-0.399-0.914
	C49.041,26.92,48.999,26.91,48.976,26.91z M46.759,25.196c-0.005,0.016-0.008,0.048,0.036,0.081l0.542,0.486
	c0.021,0.016,0.034,0.053,0.024,0.077v0.004l-0.152,0.707c-0.01,0.03-0.007,0.057,0.006,0.074c0.012,0.016,0.027,0.023,0.046,0.023
	c0.018,0,0.035-0.006,0.055-0.021l0.63-0.341c0.021-0.015,0.062-0.015,0.082,0l0.006,0.003l0.623,0.338
	c0.041,0.029,0.08,0.025,0.102-0.003c0.013-0.018,0.015-0.044,0.005-0.074l-0.153-0.711c-0.008-0.024,0.004-0.061,0.025-0.077
	l0.004-0.004l0.539-0.482c0.043-0.033,0.041-0.065,0.036-0.081c-0.007-0.016-0.022-0.044-0.079-0.044l-0.717-0.059
	c-0.028,0-0.061-0.022-0.068-0.048l-0.001-0.005l-0.296-0.676c-0.018-0.053-0.049-0.062-0.066-0.062
	c-0.017,0-0.049,0.009-0.066,0.062l-0.298,0.681c-0.009,0.025-0.039,0.048-0.067,0.048h-0.002l-0.717,0.059
	C46.781,25.152,46.763,25.181,46.759,25.196z M49.856,37.727l-0.005-0.005c-0.029-0.021-0.045-0.072-0.034-0.105l0.207-0.959
	c0.013-0.043,0.011-0.076-0.008-0.102c-0.026-0.037-0.08-0.042-0.136-0.004l-0.843,0.457l-0.007,0.004
	c-0.028,0.021-0.084,0.021-0.11,0l-0.851-0.461c-0.026-0.019-0.05-0.027-0.074-0.027s-0.046,0.011-0.062,0.031
	c-0.018,0.025-0.021,0.059-0.008,0.102l0.206,0.953v0.006c0.013,0.033-0.004,0.084-0.034,0.105l-0.73,0.656
	c-0.061,0.044-0.056,0.088-0.05,0.109c0.007,0.022,0.031,0.059,0.105,0.059l0.966,0.078h0.004c0.036,0,0.079,0.032,0.09,0.066
	l0.403,0.92c0.023,0.071,0.065,0.082,0.089,0.082c0.023,0,0.065-0.011,0.09-0.082l0.399-0.915l0.002-0.005
	c0.011-0.034,0.055-0.066,0.092-0.066l0.969-0.078c0.074,0,0.098-0.036,0.105-0.059c0.008-0.021,0.011-0.065-0.05-0.109
	C50.581,38.378,49.856,37.727,49.856,37.727z M48.639,40.842l-0.004-0.003c-0.021-0.016-0.033-0.053-0.025-0.078l0.153-0.712
	c0.01-0.028,0.008-0.055-0.005-0.073c-0.021-0.028-0.061-0.032-0.102-0.003l-0.623,0.339l-0.006,0.002
	c-0.021,0.015-0.062,0.015-0.082,0l-0.63-0.341c-0.019-0.015-0.037-0.02-0.055-0.02s-0.034,0.008-0.046,0.023
	c-0.013,0.019-0.016,0.045-0.006,0.073l0.152,0.707v0.005c0.01,0.025-0.003,0.062-0.024,0.078l-0.542,0.485
	c-0.044,0.034-0.041,0.066-0.036,0.081c0.004,0.017,0.022,0.044,0.077,0.044l0.717,0.059h0.002c0.028,0,0.059,0.022,0.067,0.048
	l0.298,0.681c0.018,0.053,0.05,0.062,0.066,0.062c0.018,0,0.049-0.009,0.066-0.062l0.296-0.676l0.001-0.005
	c0.008-0.025,0.04-0.048,0.068-0.048l0.717-0.059c0.057,0,0.072-0.027,0.079-0.044c0.005-0.016,0.007-0.047-0.036-0.081
	C49.176,41.324,48.639,40.842,48.639,40.842z M28.082,37.718l-1.503-0.122h-0.007c-0.057,0-0.123-0.05-0.141-0.103l-0.626-1.431
	c-0.038-0.11-0.103-0.127-0.139-0.127c-0.035,0-0.102,0.017-0.14,0.127l-0.623,1.423L24.9,37.493
	c-0.018,0.053-0.084,0.103-0.14,0.103l-1.51,0.122c-0.117,0-0.153,0.059-0.165,0.092c-0.011,0.034-0.016,0.101,0.077,0.172
	l1.132,1.015l0.007,0.005c0.046,0.034,0.071,0.113,0.054,0.166l-0.322,1.491c-0.02,0.066-0.015,0.118,0.013,0.159
	c0.042,0.059,0.125,0.064,0.211,0.005l1.312-0.71l0.01-0.008c0.044-0.03,0.131-0.03,0.174,0l1.322,0.718
	c0.041,0.029,0.078,0.043,0.114,0.043c0.04,0,0.075-0.018,0.098-0.048c0.028-0.041,0.032-0.093,0.012-0.159l-0.32-1.482
	l-0.002-0.009c-0.017-0.053,0.008-0.132,0.054-0.166l1.139-1.02c0.093-0.07,0.088-0.138,0.077-0.172S28.198,37.718,28.082,37.718z
	 M26.92,38.856c-0.105,0.08-0.156,0.236-0.118,0.361l0.305,1.413l-1.252-0.678c-0.103-0.071-0.272-0.071-0.376,0l-1.252,0.678
	l0.306-1.413c0.037-0.125-0.014-0.281-0.118-0.361l-1.074-0.964l1.426-0.114c0.131-0.002,0.265-0.1,0.309-0.224l0.593-1.354
	l0.593,1.354c0.043,0.124,0.177,0.222,0.308,0.224l1.426,0.114C27.996,37.892,26.92,38.856,26.92,38.856z M34.821,37.718
	l-1.504-0.122H33.31c-0.056,0-0.122-0.05-0.141-0.103l-0.625-1.431c-0.038-0.11-0.103-0.127-0.139-0.127s-0.103,0.017-0.14,0.127
	l-0.622,1.423l-0.003,0.008c-0.018,0.053-0.085,0.103-0.141,0.103l-1.511,0.122c-0.117,0-0.153,0.059-0.165,0.092
	c-0.01,0.034-0.015,0.101,0.078,0.172l1.131,1.015l0.009,0.005c0.044,0.034,0.07,0.113,0.053,0.166l-0.321,1.491
	c-0.021,0.066-0.017,0.118,0.011,0.159c0.043,0.059,0.125,0.064,0.212,0.005l1.312-0.71l0.01-0.008c0.044-0.03,0.131-0.03,0.175,0
	l1.321,0.718c0.041,0.029,0.078,0.043,0.113,0.043c0.04,0,0.075-0.018,0.098-0.048c0.028-0.041,0.033-0.093,0.013-0.159
	l-0.319-1.482l-0.003-0.009c-0.018-0.053,0.008-0.132,0.053-0.166l1.14-1.02c0.093-0.07,0.088-0.138,0.076-0.172
	C34.975,37.776,34.937,37.718,34.821,37.718z M33.658,38.856c-0.106,0.08-0.155,0.236-0.117,0.361l0.305,1.413l-1.252-0.678
	c-0.103-0.071-0.273-0.071-0.376,0l-1.252,0.678l0.305-1.413c0.038-0.125-0.012-0.281-0.116-0.361l-1.075-0.964l1.426-0.114
	c0.131-0.002,0.266-0.1,0.308-0.224l0.594-1.354l0.593,1.354c0.042,0.124,0.176,0.222,0.309,0.224l1.426,0.114L33.658,38.856z
	 M41.56,37.718l-1.503-0.122h-0.009c-0.055,0-0.121-0.05-0.14-0.103l-0.626-1.431c-0.037-0.11-0.102-0.127-0.139-0.127
	c-0.036,0-0.101,0.017-0.139,0.127l-0.623,1.423l-0.003,0.008c-0.018,0.053-0.084,0.103-0.141,0.103l-1.51,0.122
	c-0.117,0-0.153,0.059-0.164,0.092c-0.012,0.034-0.016,0.101,0.076,0.172l1.133,1.015l0.007,0.005
	c0.044,0.034,0.07,0.113,0.054,0.166l-0.322,1.491c-0.021,0.066-0.017,0.118,0.013,0.159c0.041,0.059,0.125,0.064,0.211,0.005
	l1.312-0.71l0.011-0.008c0.043-0.03,0.13-0.03,0.173,0l1.322,0.718c0.04,0.029,0.079,0.043,0.114,0.043
	c0.04,0,0.075-0.018,0.098-0.048c0.026-0.041,0.032-0.093,0.012-0.159l-0.32-1.482l-0.001-0.009
	c-0.019-0.053,0.007-0.132,0.053-0.166l1.139-1.02c0.093-0.07,0.089-0.138,0.077-0.172S41.677,37.718,41.56,37.718z M40.397,38.856
	c-0.104,0.08-0.155,0.236-0.117,0.361l0.304,1.413l-1.251-0.678c-0.104-0.071-0.273-0.071-0.377,0l-1.251,0.678l0.305-1.413
	c0.038-0.125-0.013-0.281-0.117-0.361l-1.074-0.964l1.426-0.114c0.131-0.002,0.265-0.1,0.309-0.224l0.592-1.354l0.594,1.354
	c0.043,0.124,0.176,0.222,0.308,0.224l1.426,0.114C41.474,37.892,40.397,38.856,40.397,38.856z M43.333,34.591H20.751
	c-0.201,0-0.364,0.163-0.364,0.364s0.163,0.364,0.364,0.364h22.582c0.202,0,0.364-0.163,0.364-0.364S43.535,34.591,43.333,34.591z
	 M23.213,33.496h0.725v-3.419h1.249v-0.656h-3.224v0.656h1.25L23.213,33.496z M25.667,29.421h0.726v4.075h-0.726V29.421z
	 M29.221,33.6c0.598,0,1.151-0.218,1.52-0.725l-0.599-0.427c-0.271,0.346-0.589,0.495-0.916,0.495c-0.84,0-1.399-0.645-1.399-1.514
	c0-0.812,0.559-1.457,1.399-1.457c0.282,0,0.559,0.086,0.858,0.403l0.563-0.415c-0.402-0.466-0.875-0.645-1.427-0.645
	c-1.255,0-2.153,0.853-2.153,2.158C27.067,32.747,27.966,33.6,29.221,33.6z M31.957,31.492h0.04l1.768,2.004h1.018l-2.032-2.193
	l1.906-1.882h-0.978l-1.688,1.725h-0.034v-1.725h-0.726v4.075h0.726V31.492z M37.981,32.84h-2.079v-1.106h1.871v-0.655h-1.871
	v-1.002h1.975v-0.656h-2.7v4.075h2.804V32.84z M39.531,33.496h0.726v-3.419h1.249v-0.656h-3.224v0.656h1.249L39.531,33.496z
	 M59.46,23.919c-0.264-0.209-0.609-0.283-0.933-0.205c-0.296,0.07-0.575,0.106-0.853,0.106c-2.001,0-3.63-1.629-3.63-3.631
	c0-0.751,0.229-1.473,0.662-2.088c0.236-0.333,0.267-0.769,0.079-1.133c-0.189-0.362-0.562-0.591-0.972-0.591H11.615
	c-0.361,0-0.699,0.178-0.902,0.476c-0.203,0.297-0.247,0.677-0.117,1.013c0.163,0.424,0.246,0.862,0.246,1.306
	c0,2.002-1.629,3.631-3.631,3.631c-0.488,0-0.962-0.095-1.406-0.282c-0.338-0.142-0.726-0.106-1.03,0.096
	c-0.306,0.203-0.489,0.545-0.489,0.911v20.938c0,0.367,0.184,0.709,0.489,0.912c0.305,0.202,0.693,0.238,1.029,0.096
	c0.445-0.187,0.919-0.282,1.407-0.282c2.002,0,3.631,1.629,3.631,3.631c0,0.273-0.032,0.549-0.102,0.841
	c-0.078,0.326-0.001,0.668,0.206,0.932c0.208,0.262,0.523,0.415,0.857,0.415h41.28c0.335,0,0.649-0.153,0.858-0.415
	c0.206-0.264,0.283-0.605,0.206-0.932c-0.069-0.292-0.103-0.567-0.103-0.841c0-2.277,2.091-4.102,4.481-3.525
	c0.323,0.079,0.669,0.003,0.935-0.204c0.263-0.207,0.417-0.523,0.417-0.859V24.776C59.877,24.442,59.723,24.125,59.46,23.919z
	 M57.689,43.002c-0.005,0-0.009,0-0.015,0c-3.208,0-5.817,2.61-5.817,5.818H13.029c0-3.208-2.61-5.818-5.818-5.818
	c-0.248,0-0.495,0.016-0.738,0.047V24.942c0.243,0.031,0.49,0.047,0.738,0.047c3.208,0,5.818-2.61,5.818-5.818
	c0-0.203-0.011-0.405-0.032-0.606h39.091c-0.152,0.523-0.231,1.068-0.231,1.624c0,3.208,2.609,5.817,5.817,5.817
	c0.006,0,0.01,0,0.015,0V43.002z M52.992,25.18c-1.465-0.538-2.45-1.946-2.45-3.503c0-0.201-0.163-0.364-0.364-0.364H14.309
	c-0.182,0-0.336,0.135-0.361,0.315c-0.214,1.548-1.381,2.808-2.906,3.136c-0.148,0.031-0.263,0.169-0.285,0.319
	c-0.003,0.018-0.007,0.057-0.007,0.074v17.607c0,0.183,0.136,0.338,0.317,0.361c1.499,0.199,2.719,1.274,3.107,2.737
	c0.043,0.16,0.188,0.271,0.353,0.271h35.489c0.165,0,0.31-0.11,0.353-0.271c0.337-1.269,1.331-2.277,2.596-2.631
	c0.158-0.044,0.267-0.188,0.267-0.352V25.522C53.23,25.368,53.135,25.232,52.992,25.18z M52.501,42.612
	c-1.295,0.452-2.319,1.49-2.757,2.792H14.798c-0.504-1.509-1.766-2.628-3.318-2.948l0.003-17.053
	c1.579-0.452,2.791-1.754,3.133-3.362h35.213c0.135,1.629,1.166,3.072,2.673,3.727v16.844H52.501z"/>
</svg>
