# Blender v2.75 (sub 0) OBJ File: ''
# www.blender.org
mtllib walls.mtl
o roof
v 3.256809 2.524125 -18.854738
v 3.256808 2.468563 0.000000
v 3.256809 2.468563 -18.854738
v 3.256808 2.524125 0.000000
v -2.967780 2.524125 -0.000000
v -2.967778 2.524125 -18.854738
v -2.967778 2.468563 -18.854738
v -2.967780 2.468563 -0.000000
vn 1.000000 0.000000 0.000000
vn 0.000000 1.000000 0.000000
vn 0.000000 -1.000000 0.000000
vn -1.000000 0.000000 -0.000000
vn -0.000000 0.000000 1.000000
vn 0.000000 0.000000 -1.000000
usemtl Material
s off
f 1//1 2//1 3//1
f 2//1 1//1 4//1
f 1//2 5//2 4//2
f 5//2 1//2 6//2
f 7//3 2//3 8//3
f 2//3 7//3 3//3
f 5//4 7//4 8//4
f 7//4 5//4 6//4
f 5//5 2//5 4//5
f 2//5 5//5 8//5
f 7//6 1//6 3//6
f 1//6 7//6 6//6
o hall
v -2.967778 0.000000 -18.854738
v 3.256808 0.000000 0.000000
v -2.967780 0.000000 -0.000000
v 3.256809 0.000000 -18.854738
v -2.967779 0.028575 -7.730712
v -2.882485 2.159000 -7.730712
v -2.882485 0.028575 -7.730712
v -2.967779 2.159000 -7.730712
v 2.007673 1.898962 -0.000000
v 2.007673 0.495612 -0.085294
v 2.007673 0.495612 -0.000000
v 2.007673 1.898962 -0.085294
v -2.882484 2.468563 -18.663080
v 3.171515 0.028575 -18.663080
v 3.171515 2.468563 -18.663080
v -2.882484 0.028575 -18.663080
v -2.882485 2.050832 -5.653212
v -2.882485 0.512545 -1.743199
v -2.882485 0.512545 -5.653212
v -2.882485 2.050832 -1.743199
v -1.426089 1.898962 -0.085295
v -1.426089 0.495612 -0.000000
v -1.426089 0.495612 -0.085295
v -1.426089 1.898962 -0.000000
v -2.967780 0.512545 -1.743199
v -2.967780 2.050832 -1.743199
v -2.967779 0.512545 -5.653212
v -2.967779 2.050832 -5.653212
v -2.882485 0.028575 -0.085295
v 3.171514 0.028575 -0.085294
v -2.882485 0.028575 -9.149937
v -2.967779 0.028575 -9.149937
v 3.171514 2.468563 -0.085294
v -2.882485 2.468563 -0.085295
v 3.256808 2.468563 0.000000
v -2.967780 2.468563 -0.000000
v 3.256809 2.468563 -18.854738
v -2.967778 2.468563 -18.854738
v -2.967779 2.159000 -9.149937
v -2.882485 2.159000 -9.149937
vt 0.000000 0.000000
vt 0.219133 0.756953
vt 0.000000 0.756953
vt 0.219133 0.000000
vt 0.627087 0.831363
vt 0.630090 0.745834
vt 0.630090 0.831363
vt 0.627087 0.745834
vt 0.642101 0.802174
vt 0.639098 0.745834
vt 0.642101 0.745834
vt 0.639098 0.802174
vt 0.085898 0.756953
vt 0.171796 1.000000
vt 0.085898 1.000000
vt 0.171796 0.756953
vt 0.928808 0.223533
vt 0.982962 0.066559
vt 0.982962 0.223533
vt 0.928808 0.066559
vt 0.645104 0.802174
vt 0.645104 0.745834
vt 0.624085 0.745834
vt 0.621082 0.883688
vt 0.621082 0.745834
vt 0.624084 0.883688
vt 0.630090 0.807591
vt 0.633093 0.745834
vt 0.633093 0.807591
vt 0.612074 0.745834
vt 0.615076 0.902808
vt 0.612074 0.902808
vt 0.615076 0.745834
vt 0.618079 0.902807
vt 0.618079 0.745834
vt 0.438265 0.000000
vt 0.651392 0.745834
vt 0.438265 0.745834
vt 0.651392 0.438897
vt 0.654395 0.438897
vt 0.651392 0.381920
vt 0.651392 0.000000
vt 0.654395 0.381920
vt 0.069456 0.803677
vt 0.069456 0.941531
vt 0.020052 0.941531
vt 0.020052 0.803677
vt 0.000000 1.000000
vt 0.828204 0.745834
vt 0.914102 0.000000
vt 0.914102 0.745834
vt 0.828203 0.000000
vt 0.222135 0.753528
vt 0.438265 0.756953
vt 0.222135 0.007694
vt 0.435262 0.007694
vt 0.435263 0.753528
vt 0.618079 0.883688
vt 0.639098 0.802811
vt 0.636095 0.745834
vt 0.636096 0.802811
vt 0.624085 0.831363
vt 0.636095 0.807591
vt 1.000000 0.306937
vt 1.000000 0.000000
vt 0.925000 0.306937
vt 1.000000 0.363914
vt 1.000000 0.745834
vt 0.925000 0.363914
vt 0.525169 0.995730
vt 0.545222 0.945581
vt 0.612074 0.995730
vt 0.525169 0.745834
vt 0.545222 0.807728
vt 0.594626 0.807728
vt 0.594626 0.945581
vt 0.438265 0.995730
vt 0.828203 0.756953
vt 0.827197 0.446591
vt 0.810160 0.686969
vt 0.741299 0.756953
vt 0.756005 0.686969
vt 0.756005 0.529996
vt 0.752197 0.446591
vt 0.752197 0.389614
vt 0.827197 0.389614
vt 0.741299 0.000000
vt 0.810160 0.529996
vt 0.654395 0.756953
vt 0.654395 0.000000
vn 0.000000 -1.000000 0.000000
vn 0.000000 0.000000 -1.000000
vn -1.000000 0.000000 0.000000
vn 0.000000 0.000000 1.000000
vn 1.000000 0.000000 0.000000
vn 0.000000 1.000000 0.000000
usemtl Material.001
s off
f 9/1/7 10/2/7 11/3/7
f 10/2/7 9/1/7 12/4/7
f 13/5/8 14/6/8 15/7/8
f 14/6/8 13/5/8 16/8/8
f 17/9/9 18/10/9 19/11/9
f 18/10/9 17/9/9 20/12/9
f 21/13/10 22/14/10 23/15/10
f 22/14/10 21/13/10 24/16/10
f 25/17/11 26/18/11 27/19/11
f 26/18/11 25/17/11 28/20/11
f 29/11/11 30/21/11 31/9/11
f 30/21/11 29/11/11 32/22/11
f 18/23/12 30/24/12 19/25/12
f 30/24/12 18/23/12 31/26/12
f 33/27/8 28/28/8 26/29/8
f 28/28/8 33/27/8 34/6/8
f 27/30/12 33/31/12 26/32/12
f 33/31/12 27/30/12 35/33/12
f 36/33/7 28/34/7 34/31/7
f 28/34/7 36/33/7 25/35/7
f 22/36/12 37/37/12 38/38/12
f 37/37/12 22/36/12 15/39/12
f 15/39/12 22/36/12 13/40/12
f 13/40/12 22/36/12 39/41/12
f 39/41/12 22/36/12 24/42/12
f 40/43/12 13/40/12 39/41/12
f 38/13/8 18/44/8 41/3/8
f 18/44/8 38/13/8 37/15/8
f 18/44/8 37/15/8 31/45/8
f 31/45/8 37/15/8 29/46/8
f 41/3/8 20/47/8 42/48/8
f 20/47/8 41/3/8 18/44/8
f 42/48/8 20/47/8 29/46/8
f 42/48/8 29/46/8 37/15/8
f 41/49/9 22/50/9 38/51/9
f 22/50/9 41/49/9 23/52/9
f 43/2/12 41/53/12 44/54/12
f 41/53/12 43/2/12 45/4/12
f 41/53/12 45/4/12 23/55/12
f 23/55/12 45/4/12 21/56/12
f 44/54/12 42/57/12 46/36/12
f 42/57/12 44/54/12 41/53/12
f 46/36/12 42/57/12 21/56/12
f 46/36/12 21/56/12 45/4/12
f 29/25/7 17/58/7 32/35/7
f 17/58/7 29/25/7 20/24/7
f 47/59/7 14/60/7 16/10/7
f 14/60/7 47/59/7 48/61/7
f 47/62/10 39/8/10 48/5/10
f 39/8/10 47/62/10 40/23/10
f 36/60/10 27/29/10 25/28/10
f 27/29/10 36/60/10 35/63/10
f 15/64/11 27/19/11 37/65/11
f 27/19/11 15/64/11 14/66/11
f 27/19/11 14/66/11 25/17/11
f 25/17/11 14/66/11 28/20/11
f 21/51/11 39/67/11 24/68/11
f 39/67/11 21/51/11 48/69/11
f 48/69/11 21/51/11 14/66/11
f 37/65/11 26/18/11 42/50/11
f 26/18/11 37/65/11 27/19/11
f 42/50/11 26/18/11 28/20/11
f 42/50/11 28/20/11 14/66/11
f 42/50/11 14/66/11 21/51/11
f 43/70/10 17/71/10 10/72/10
f 17/71/10 43/70/10 44/73/10
f 17/71/10 44/73/10 32/74/10
f 32/74/10 44/73/10 30/75/10
f 10/72/10 19/76/10 11/30/10
f 19/76/10 10/72/10 17/71/10
f 11/30/10 19/76/10 30/75/10
f 11/30/10 30/75/10 44/73/10
f 9/70/8 45/38/8 12/73/8
f 45/38/8 9/70/8 46/77/8
f 9/52/9 11/78/9 13/79/9
f 13/79/9 11/78/9 33/80/9
f 33/80/9 11/78/9 44/81/9
f 33/80/9 44/81/9 34/82/9
f 34/82/9 44/81/9 36/83/9
f 36/83/9 44/81/9 16/84/9
f 16/84/9 44/81/9 47/85/9
f 9/52/9 40/86/9 46/87/9
f 40/86/9 9/52/9 13/79/9
f 46/87/9 40/86/9 47/85/9
f 46/87/9 47/85/9 44/81/9
f 13/79/9 35/88/9 16/84/9
f 35/88/9 13/79/9 33/80/9
f 16/84/9 35/88/9 36/83/9
f 45/87/11 10/89/11 12/90/11
f 10/89/11 45/87/11 43/81/11
