<?xml version="1.0" encoding="iso-8859-1"?>
<!-- Generator: Adobe Illustrator 18.0.0, SVG Export Plug-In . SVG Version: 6.00 Build 0)  -->
<!DOCTYPE svg PUBLIC "-//W3C//DTD SVG 1.1//EN" "http://www.w3.org/Graphics/SVG/1.1/DTD/svg11.dtd">
<svg version="1.1" id="Capa_1" xmlns="http://www.w3.org/2000/svg" xmlns:xlink="http://www.w3.org/1999/xlink" x="0px" y="0px"
	 viewBox="0 0 966 966" style="enable-background:new 0 0 966 966;" xml:space="preserve">
<g>
	<path d="M0,817.266h966V148.734H0V817.266z M491.465,239.627h139.559c143.92,0,242.774,66.872,242.774,234.052
		s-98.854,238.413-235.505,238.413H491.465V239.627z M201.845,521.653v-87.224c77.048,0,100.308-20.353,100.308-52.335
		c0-27.621-16.718-42.159-47.974-42.159c-30.529,0-52.335,13.084-81.409,37.797l-62.511-75.595
		c45.066-37.797,93.039-59.603,149.735-59.603c101.761,0,167.179,46.52,167.179,130.109c0,44.339-24.713,77.775-74.14,99.581v2.908
		c52.334,15.991,88.678,52.334,88.678,110.484c0,87.224-82.863,135.197-178.81,135.197c-74.867,0-129.383-24.713-164.273-65.418
		l56.697-78.503c28.347,26.168,61.784,43.613,94.492,43.613c40.706,0,66.873-14.538,66.873-43.613
		C316.69,542.005,298.519,521.653,201.845,521.653z"/>
	<path d="M745.868,473.679c0-110.484-53.788-133.744-122.113-133.744h-7.269v271.849h7.269
		C692.08,611.784,745.868,584.163,745.868,473.679z"/>
</g>
<g>
</g>
<g>
</g>
<g>
</g>
<g>
</g>
<g>
</g>
<g>
</g>
<g>
</g>
<g>
</g>
<g>
</g>
<g>
</g>
<g>
</g>
<g>
</g>
<g>
</g>
<g>
</g>
<g>
</g>
</svg>
