<?xml version="1.0" encoding="iso-8859-1"?>
<!-- Generator: Adobe Illustrator 18.0.0, SVG Export Plug-In . SVG Version: 6.00 Build 0)  -->
<!DOCTYPE svg PUBLIC "-//W3C//DTD SVG 1.1//EN" "http://www.w3.org/Graphics/SVG/1.1/DTD/svg11.dtd">
<svg version="1.1" id="Capa_1" xmlns="http://www.w3.org/2000/svg" xmlns:xlink="http://www.w3.org/1999/xlink" x="0px" y="0px"
	 viewBox="0 0 960 960" style="enable-background:new 0 0 960 960;" xml:space="preserve">
<g>
	<path d="M47.338,486.095c6.455,12.235,1.769,27.386-10.466,33.84l12.184,23.095c12.235-6.455,27.386-1.769,33.841,10.466
		c6.455,12.235,1.769,27.386-10.466,33.841l12.184,23.095c12.235-6.455,27.386-1.769,33.84,10.466
		c6.455,12.235,1.769,27.386-10.466,33.84l12.184,23.095c5.715-3.015,12.065-3.598,17.869-2.118v-15.955v-15.094v-35v-26.112
		v-15.094v-35v-28.927v-35h35c14.852,0,26.936-12.084,26.936-26.936v-35h35h331.543h260.083
		c5.584-11.183,14.58-20.795,26.479-27.072l-13.498-25.585c-12.235,6.455-27.386,1.769-33.841-10.466
		c-6.455-12.235-1.769-27.386,10.466-33.841l-12.184-23.095c-12.235,6.455-27.386,1.769-33.84-10.466
		c-6.454-12.235-1.768-27.386,10.466-33.84l-12.184-23.095c-12.235,6.455-27.386,1.769-33.841-10.466
		c-6.455-12.235-1.769-27.386,10.466-33.84l-12.184-23.095c-12.235,6.454-27.386,1.769-33.84-10.466
		c-6.455-12.235-1.769-27.386,10.466-33.84l-13.498-25.585c-30.254,15.961-67.719,4.374-83.68-25.881l-293.238,154.7l-293.239,154.7
		c15.961,30.254,4.374,67.719-25.881,83.68l13.498,25.585C25.732,469.174,40.883,473.86,47.338,486.095z"/>
	<path d="M898.064,442.598h-77.588H566.521H234.977c0,34.206-27.73,61.936-61.936,61.936v28.927
		c13.833,0,25.047,11.214,25.047,25.047c0,13.833-11.214,25.047-25.047,25.047v26.112c13.833,0,25.047,11.214,25.047,25.047
		c0,13.833-11.214,25.047-25.047,25.047v26.112c13.833,0,25.047,11.214,25.047,25.047c0,13.833-11.214,25.047-25.047,25.047v5.964
		v20.148c13.833,0,25.047,11.214,25.047,25.047c0,13.833-11.214,25.047-25.047,25.047v28.927c34.206,0,61.936,27.73,61.936,61.936
		h331.543h331.544c0-34.206,27.73-61.936,61.936-61.936v-28.927c-13.833,0-25.047-11.214-25.047-25.047
		c0-13.833,11.214-25.047,25.047-25.047v-26.112c-13.833,0-25.047-11.214-25.047-25.047c0-13.833,11.214-25.047,25.047-25.047
		v-26.112c-13.833,0-25.047-11.214-25.047-25.047c0-13.833,11.214-25.047,25.047-25.047v-26.112
		c-13.833,0-25.047-11.214-25.047-25.047c0-13.833,11.214-25.047,25.047-25.047v-28.927
		C925.794,504.534,898.064,476.804,898.064,442.598z M584.021,821.364c0,9.665-7.835,17.5-17.5,17.5s-17.5-7.835-17.5-17.5V610.962
		V524.27c0-9.665,7.835-17.5,17.5-17.5s17.5,7.835,17.5,17.5v68.227V821.364z"/>
</g>
<g>
</g>
<g>
</g>
<g>
</g>
<g>
</g>
<g>
</g>
<g>
</g>
<g>
</g>
<g>
</g>
<g>
</g>
<g>
</g>
<g>
</g>
<g>
</g>
<g>
</g>
<g>
</g>
<g>
</g>
</svg>
