<?xml version="1.0" encoding="iso-8859-1"?>
<!-- Generator: Adobe Illustrator 18.0.0, SVG Export Plug-In . SVG Version: 6.00 Build 0)  -->
<!DOCTYPE svg PUBLIC "-//W3C//DTD SVG 1.1//EN" "http://www.w3.org/Graphics/SVG/1.1/DTD/svg11.dtd">
<svg version="1.1" id="Capa_1" xmlns="http://www.w3.org/2000/svg" xmlns:xlink="http://www.w3.org/1999/xlink" x="0px" y="0px"
	 viewBox="0 0 931.176 931.176" style="enable-background:new 0 0 931.176 931.176;" xml:space="preserve">
<g>
	<path d="M0.001,612.745c0.39,121.453,98.626,219.358,220.079,219.356c121.545-0.001,220.076-98.533,220.076-220.078v-126.58
		c8.237-0.162,16.736-0.097,25.432-0.097c8.696,0,17.195-0.066,25.432,0.097v126.58c0,121.545,98.531,220.076,220.076,220.078
		c121.454,0.001,219.69-97.903,220.079-219.356c0.112-34.968-7.942-68.04-22.347-97.434L770.83,221.174
		c-6.322-13.476-12.194-27.154-18.225-40.763c-21.098-47.605-68.566-80.915-123.89-81.333
		C552.984,98.507,491.02,161.84,491.02,237.573v54.669c-8.237-1.573-16.736-2.406-25.432-2.406c-8.695,0-17.195,0.833-25.432,2.406
		v-54.669c0-75.733-61.964-139.066-137.695-138.495c-55.324,0.418-102.792,33.728-123.89,81.333
		c-6.031,13.608-11.903,27.287-18.225,40.763L22.348,515.312C7.944,544.706-0.111,577.778,0.001,612.745z M713.237,442.586
		c93.591,0,169.462,75.871,169.462,169.462c0,93.592-75.871,169.463-169.462,169.463c-93.592,0-169.462-75.871-169.462-169.463
		C543.775,518.457,619.646,442.586,713.237,442.586z M219.423,442.586c93.591,0,169.462,75.871,169.462,169.462
		c0,93.592-75.871,169.463-169.462,169.463c-93.591,0-169.462-75.871-169.462-169.463
		C49.961,518.457,125.832,442.586,219.423,442.586z"/>
	<path d="M152.623,554.524c10.58,20.602,15.977,43.136,22.553,65.195c5.942,19.932,14.128,39.812,26.391,55.846
		c20.411,26.687,49.06,45.169,81.189,53.199c41.36-22.491,69.434-66.324,69.434-116.715c0-73.325-59.442-132.767-132.767-132.767
		c-37.097,0-70.634,15.221-94.724,39.751C136.313,528.546,145.565,540.781,152.623,554.524z"/>
	<path d="M648.575,553.524c10.58,20.602,15.977,43.136,22.553,65.195c5.942,19.932,14.128,39.812,26.391,55.846
		c20.411,26.687,49.06,45.169,81.189,53.199c41.36-22.491,69.434-66.324,69.434-116.715c0-73.325-59.442-132.767-132.767-132.767
		c-37.097,0-70.634,15.221-94.724,39.751C632.265,527.546,641.518,539.781,648.575,553.524z"/>
</g>
<g>
</g>
<g>
</g>
<g>
</g>
<g>
</g>
<g>
</g>
<g>
</g>
<g>
</g>
<g>
</g>
<g>
</g>
<g>
</g>
<g>
</g>
<g>
</g>
<g>
</g>
<g>
</g>
<g>
</g>
</svg>
