<?xml version="1.0" encoding="iso-8859-1"?>
<!-- Generator: Adobe Illustrator 18.0.0, SVG Export Plug-In . SVG Version: 6.00 Build 0)  -->
<!DOCTYPE svg PUBLIC "-//W3C//DTD SVG 1.1//EN" "http://www.w3.org/Graphics/SVG/1.1/DTD/svg11.dtd">
<svg version="1.1" id="Capa_1" xmlns="http://www.w3.org/2000/svg" xmlns:xlink="http://www.w3.org/1999/xlink" x="0px" y="0px"
	 viewBox="0 0 924.565 924.565" style="enable-background:new 0 0 924.565 924.565;" xml:space="preserve">
<g>
	<path d="M241.241,607.777h76.235c58.261,0,109.206-37.959,126.427-92.762c1.62-5.157,6.444-8.632,11.849-8.632h6.53h6.53
		c5.405,0,10.228,3.476,11.849,8.632c17.221,54.802,68.166,92.762,126.427,92.762h76.236c133.233,0,241.24-108.007,241.24-241.24
		V318.4c0,0-76.277,15.392-242.353,0c-152.625-14.145-191.821,68.558-201.394,100.745c-1.567,5.268-6.426,8.86-11.922,8.86h-6.613
		h-6.613c-5.496,0-10.355-3.592-11.922-8.86c-9.572-32.188-48.769-114.891-201.394-100.745C76.277,333.792,0,318.4,0,318.4v48.136
		C0,499.77,108.007,607.777,241.241,607.777z M555.176,460.129c0.04-24.389,13.11-47.11,34.546-58.744
		c15.841-8.597,38.572-13.99,71.156-10.97c87.143,8.076,127.167,0,127.167,0v25.258c0,69.91-56.673,126.583-126.583,126.583H621.46
		c-0.764,0-1.526-0.013-2.285-0.037c-35.919-1.17-64.081-31.397-64.023-67.335L555.176,460.129z M136.519,390.415
		c0,0,40.024,8.076,127.167,0c32.585-3.02,55.316,2.373,71.156,10.97c21.436,11.634,34.506,34.355,34.546,58.744l0.024,14.755
		c0.059,35.938-28.104,66.165-64.023,67.335c-0.759,0.025-1.521,0.037-2.285,0.037h-40.002c-69.91,0-126.583-56.673-126.583-126.583
		V390.415z"/>
</g>
<g>
</g>
<g>
</g>
<g>
</g>
<g>
</g>
<g>
</g>
<g>
</g>
<g>
</g>
<g>
</g>
<g>
</g>
<g>
</g>
<g>
</g>
<g>
</g>
<g>
</g>
<g>
</g>
<g>
</g>
</svg>
