<?xml version="1.0" encoding="iso-8859-1"?>
<!-- Generator: Adobe Illustrator 18.0.0, SVG Export Plug-In . SVG Version: 6.00 Build 0)  -->
<!DOCTYPE svg PUBLIC "-//W3C//DTD SVG 1.1//EN" "http://www.w3.org/Graphics/SVG/1.1/DTD/svg11.dtd">
<svg version="1.1" id="Capa_1" xmlns="http://www.w3.org/2000/svg" xmlns:xlink="http://www.w3.org/1999/xlink" x="0px" y="0px"
	 viewBox="0 0 939.224 939.224" style="enable-background:new 0 0 939.224 939.224;" xml:space="preserve">
<g>
	<path d="M434.23,870.046c59.393,0,115.998-11.93,167.558-33.515V588.414v-60.622l52.5,30.311l158.101,91.28
		c35.691-63.062,56.071-135.933,56.071-213.567c0-239.818-194.411-434.23-434.23-434.23S0,195.998,0,435.816
		C0,675.635,194.411,870.046,434.23,870.046z M434.23,288.219c81.385,0,147.597,66.212,147.597,147.598
		c0,81.385-66.211,147.597-147.597,147.597s-147.597-66.212-147.597-147.597C286.633,354.431,352.844,288.219,434.23,288.219z"/>
	<path d="M434.23,548.413c62.086,0,112.597-50.511,112.597-112.597c0-62.087-50.511-112.598-112.597-112.598
		S321.633,373.73,321.633,435.817C321.633,497.903,372.144,548.413,434.23,548.413z M434.23,383.781
		c28.738,0,52.035,23.297,52.035,52.035c0,28.738-23.297,52.035-52.035,52.035c-28.738,0-52.035-23.297-52.035-52.035
		C382.195,407.078,405.492,383.781,434.23,383.781z"/>
	<polygon points="793.929,679.14 636.787,588.414 636.787,820.004 636.787,937.638 939.224,763.026 	"/>
</g>
<g>
</g>
<g>
</g>
<g>
</g>
<g>
</g>
<g>
</g>
<g>
</g>
<g>
</g>
<g>
</g>
<g>
</g>
<g>
</g>
<g>
</g>
<g>
</g>
<g>
</g>
<g>
</g>
<g>
</g>
</svg>
