<?xml version="1.0" encoding="iso-8859-1"?>
<!-- Generator: Adobe Illustrator 18.0.0, SVG Export Plug-In . SVG Version: 6.00 Build 0)  -->
<!DOCTYPE svg PUBLIC "-//W3C//DTD SVG 1.1//EN" "http://www.w3.org/Graphics/SVG/1.1/DTD/svg11.dtd">
<svg version="1.1" id="Capa_1" xmlns="http://www.w3.org/2000/svg" xmlns:xlink="http://www.w3.org/1999/xlink" x="0px" y="0px"
	 viewBox="0 0 945.126 945.126" style="enable-background:new 0 0 945.126 945.126;" xml:space="preserve">
<g>
	<polygon points="697.671,564.256 562.537,564.256 472.563,637.055 382.589,564.256 247.455,564.256 404.996,691.725 
		173.48,879.047 226.945,945.126 472.563,746.394 718.181,945.126 771.646,879.047 540.13,691.725 	"/>
	<path d="M787.414,416.272V0h-85v77.172H242.712V0h-85v416.272h-54.274v0c8.503,49.307,43.546,88.32,88.93,103.413
		c13.216,4.395,27.306,6.768,41.877,6.768h101.622h273.393h101.622c14.571,0,28.661-2.373,41.877-6.768
		c45.384-15.092,80.427-54.105,88.93-103.413v0H787.414z M702.414,412.863H242.712V287.575h459.701V412.863z"/>
</g>
<g>
</g>
<g>
</g>
<g>
</g>
<g>
</g>
<g>
</g>
<g>
</g>
<g>
</g>
<g>
</g>
<g>
</g>
<g>
</g>
<g>
</g>
<g>
</g>
<g>
</g>
<g>
</g>
<g>
</g>
</svg>
