<?xml version="1.0" encoding="iso-8859-1"?>
<!-- Generator: Adobe Illustrator 18.0.0, SVG Export Plug-In . SVG Version: 6.00 Build 0)  -->
<!DOCTYPE svg PUBLIC "-//W3C//DTD SVG 1.1//EN" "http://www.w3.org/Graphics/SVG/1.1/DTD/svg11.dtd">
<svg version="1.1" id="Capa_1" xmlns="http://www.w3.org/2000/svg" xmlns:xlink="http://www.w3.org/1999/xlink" x="0px" y="0px"
	 viewBox="0 0 922 922" style="enable-background:new 0 0 922 922;" xml:space="preserve">
<g>
	<path d="M109.656,338.827c-3.476-7.257-6.62-14.561-9.412-21.904H30.415l-18.78,489.442h115.73L109.656,338.827z"/>
	<path d="M890.827,316.923h-69.071c-3.015,7.929-6.437,15.812-10.249,23.639l-17.872,465.803h115.73L890.827,316.923z"/>
	<path d="M32.4,244.666c-12.198,7.91-20.275,21.636-20.275,37.257h19.632h75.744h18.164
		C157.074,399.718,295.261,517.674,461,517.674s303.926-117.956,335.335-235.751h17.422h75.744h20.373
		c0-15.621-8.077-29.347-20.275-37.257C909.074,232.236,922,210.452,922,185.635c0-38.66-31.34-70-70-70c-38.66,0-70,31.34-70,70
		c0,24.817,12.926,46.601,32.4,59.031C808.773,248.315,610.764,373,461,373c-149.765,0-347.774-124.685-353.401-128.334
		C127.074,232.236,140,210.452,140,185.635c0-38.66-31.34-70-70-70c-38.66,0-70,31.34-70,70C0,210.452,12.926,232.236,32.4,244.666z
		"/>
</g>
<g>
</g>
<g>
</g>
<g>
</g>
<g>
</g>
<g>
</g>
<g>
</g>
<g>
</g>
<g>
</g>
<g>
</g>
<g>
</g>
<g>
</g>
<g>
</g>
<g>
</g>
<g>
</g>
<g>
</g>
</svg>
