<?xml version="1.0" encoding="iso-8859-1"?>
<!-- Generator: Adobe Illustrator 18.0.0, SVG Export Plug-In . SVG Version: 6.00 Build 0)  -->
<!DOCTYPE svg PUBLIC "-//W3C//DTD SVG 1.1//EN" "http://www.w3.org/Graphics/SVG/1.1/DTD/svg11.dtd">
<svg version="1.1" id="Capa_1" xmlns="http://www.w3.org/2000/svg" xmlns:xlink="http://www.w3.org/1999/xlink" x="0px" y="0px"
	 viewBox="0 0 952 952" style="enable-background:new 0 0 952 952;" xml:space="preserve">
<g>
	<path d="M629.493,916.703c-2.09,0.884-4.187,1.749-6.286,2.602h100.147H952v-80.19H754.657
		C717.167,871.337,675.204,897.369,629.493,916.703z"/>
	<path d="M443.305,919.305c94.64,0,182.348-29.663,254.348-80.19C811.915,758.93,886.609,626.191,886.609,476
		c0-244.83-198.474-443.305-443.304-443.305C198.474,32.695,0,231.17,0,476S198.474,919.305,443.305,919.305z M676.991,362.016
		c62.951,0,113.984,51.032,113.984,113.984s-51.033,113.984-113.984,113.984c-62.952,0-113.984-51.032-113.984-113.984
		S614.039,362.016,676.991,362.016z M443.305,128.33c62.951,0,113.984,51.032,113.984,113.984
		c0,62.952-51.032,113.984-113.984,113.984c-62.952,0-113.984-51.032-113.984-113.984
		C329.321,179.362,380.353,128.33,443.305,128.33z M487.476,476c0,24.395-19.776,44.172-44.172,44.172
		c-24.395,0-44.171-19.776-44.171-44.172c0-24.395,19.776-44.171,44.171-44.171C467.7,431.829,487.476,451.605,487.476,476z
		 M443.305,595.702c62.951,0,113.984,51.032,113.984,113.984c0,62.952-51.032,113.984-113.984,113.984
		c-62.952,0-113.984-51.032-113.984-113.984C329.321,646.735,380.353,595.702,443.305,595.702z M95.634,476
		c0-62.952,51.032-113.984,113.984-113.984c62.952,0,113.984,51.032,113.984,113.984S272.57,589.984,209.618,589.984
		C146.667,589.984,95.634,538.952,95.634,476z"/>
</g>
<g>
</g>
<g>
</g>
<g>
</g>
<g>
</g>
<g>
</g>
<g>
</g>
<g>
</g>
<g>
</g>
<g>
</g>
<g>
</g>
<g>
</g>
<g>
</g>
<g>
</g>
<g>
</g>
<g>
</g>
</svg>
