<?xml version="1.0" encoding="iso-8859-1"?>
<!-- Generator: Adobe Illustrator 18.0.0, SVG Export Plug-In . SVG Version: 6.00 Build 0)  -->
<!DOCTYPE svg PUBLIC "-//W3C//DTD SVG 1.1//EN" "http://www.w3.org/Graphics/SVG/1.1/DTD/svg11.dtd">
<svg version="1.1" id="Capa_1" xmlns="http://www.w3.org/2000/svg" xmlns:xlink="http://www.w3.org/1999/xlink" x="0px" y="0px"
	 viewBox="0 0 925.133 925.133" style="enable-background:new 0 0 925.133 925.133;" xml:space="preserve">
<g>
	<path d="M721.246,711.395h62.878l0,0c27.894,47.355,78.753,76.424,133.713,76.424h7.295V519.813h-7.295
		c-54.959,0-105.819,29.069-133.713,76.423v0h-62.878V711.395z"/>
	<rect x="44.771" y="423.44" width="641.475" height="460.751"/>
	<path d="M543.73,388.325c8.501,0.666,16.989,0.715,25.319,0.115c90.173-6.488,161.316-81.691,161.316-173.519
		c0-96.087-77.894-173.98-173.98-173.98c-90.98,0-165.636,69.838-173.316,158.827c-0.87,10.082-0.869,20.225,0,30.306
		c4.88,56.6,38.227,108.27,87.616,136.282C492.505,378.732,518.173,386.322,543.73,388.325z M556.385,139.662
		c41.565,0,75.26,33.695,75.26,75.26s-33.695,75.26-75.26,75.26c-41.565,0-75.26-33.695-75.26-75.26S514.82,139.662,556.385,139.662
		z"/>
	<path d="M161.314,388.325c8.501,0.666,16.989,0.715,25.319,0.115c90.173-6.488,161.316-81.691,161.316-173.519
		c0-96.087-77.894-173.98-173.98-173.98c-90.98,0-165.636,69.838-173.316,158.827c-0.87,10.082-0.869,20.225,0,30.306
		c4.88,56.6,38.227,108.27,87.616,136.282C110.089,378.732,135.757,386.322,161.314,388.325z M173.969,139.662
		c41.565,0,75.26,33.695,75.26,75.26s-33.695,75.26-75.26,75.26c-41.565,0-75.26-33.695-75.26-75.26
		S132.404,139.662,173.969,139.662z"/>
</g>
<g>
</g>
<g>
</g>
<g>
</g>
<g>
</g>
<g>
</g>
<g>
</g>
<g>
</g>
<g>
</g>
<g>
</g>
<g>
</g>
<g>
</g>
<g>
</g>
<g>
</g>
<g>
</g>
<g>
</g>
</svg>
