<?xml version="1.0" encoding="iso-8859-1"?>
<!-- Generator: Adobe Illustrator 18.0.0, SVG Export Plug-In . SVG Version: 6.00 Build 0)  -->
<!DOCTYPE svg PUBLIC "-//W3C//DTD SVG 1.1//EN" "http://www.w3.org/Graphics/SVG/1.1/DTD/svg11.dtd">
<svg version="1.1" id="Capa_1" xmlns="http://www.w3.org/2000/svg" xmlns:xlink="http://www.w3.org/1999/xlink" x="0px" y="0px"
	 viewBox="0 0 951.155 951.155" style="enable-background:new 0 0 951.155 951.155;" xml:space="preserve">
<g>
	<path d="M298.578,691.737c0,0,8.931-2.279,23.699-7.195c-2.179-13.863-3.277-27.997-3.277-42.382V514.903
		c-6.788-1.079-13.747-1.646-20.839-1.646c-31.059,0-59.603,10.752-82.127,28.729c-0.234-2.533-0.369-5.094-0.369-7.688
		c0-45.561,36.935-82.496,82.496-82.496c7.2,0,14.182,0.927,20.839,2.66V259.419V196.52l53.45,33.156
		c27.891,17.301,77.968,28.082,105.335,32.969c36.17,6.458,76.718,10.771,119.37,12.776V10.419
		c-49.573,30.751-164.59,52.299-298.578,52.299S49.573,41.17,0,10.419v382.741C0,615.589,298.578,691.737,298.578,691.737z
		 M82.203,277.385c22.524,17.977,51.068,28.729,82.127,28.729c31.059,0,59.603-10.752,82.127-28.729
		c0.234,2.533,0.369,5.094,0.369,7.688c0,45.561-36.935,82.496-82.496,82.496c-45.561,0-82.496-36.935-82.496-82.496
		C81.834,282.479,81.969,279.918,82.203,277.385z"/>
	<path d="M597.155,310.467c-109.703-5.01-200.573-24.633-243.155-51.048v214.167v52.066v116.507c0,10.332,0.647,20.347,1.875,30.055
		c25.221,199.284,296.702,268.523,296.702,268.523s298.578-76.147,298.578-298.577V259.419
		c-49.573,30.751-164.59,52.299-298.578,52.299C633.682,311.718,615.165,311.289,597.155,310.467z M517.794,571.354
		c-30.851,0.123-59.197,10.85-81.591,28.723c-0.234-2.533-0.369-5.094-0.369-7.688c0-45.561,36.935-82.496,82.496-82.496
		c14.917,0,28.896,3.979,40.97,10.904c24.804,14.226,41.526,40.947,41.526,71.592c0,2.594-0.135,5.155-0.369,7.688
		c-22.524-17.977-51.068-28.729-82.127-28.729C518.151,571.348,517.973,571.353,517.794,571.354z M652.161,774.494
		c-45.561,0-82.496-36.935-82.496-82.496c0-2.594,0.135-5.155,0.369-7.688c22.524,17.977,51.068,28.729,82.127,28.729
		c31.059,0,59.603-10.752,82.127-28.729c0.234,2.533,0.369,5.094,0.369,7.688C734.657,737.56,697.722,774.494,652.161,774.494z
		 M786.826,509.894c45.561,0,82.496,36.935,82.496,82.496c0,2.594-0.135,5.155-0.369,7.688
		c-22.524-17.977-51.068-28.729-82.127-28.729c-31.059,0-59.603,10.752-82.127,28.729c-0.234-2.533-0.369-5.094-0.369-7.688
		C704.33,546.828,741.264,509.894,786.826,509.894z"/>
</g>
<g>
</g>
<g>
</g>
<g>
</g>
<g>
</g>
<g>
</g>
<g>
</g>
<g>
</g>
<g>
</g>
<g>
</g>
<g>
</g>
<g>
</g>
<g>
</g>
<g>
</g>
<g>
</g>
<g>
</g>
</svg>
