<?xml version="1.0" encoding="iso-8859-1"?>
<!-- Generator: Adobe Illustrator 18.0.0, SVG Export Plug-In . SVG Version: 6.00 Build 0)  -->
<!DOCTYPE svg PUBLIC "-//W3C//DTD SVG 1.1//EN" "http://www.w3.org/Graphics/SVG/1.1/DTD/svg11.dtd">
<svg version="1.1" id="Capa_1" xmlns="http://www.w3.org/2000/svg" xmlns:xlink="http://www.w3.org/1999/xlink" x="0px" y="0px"
	 viewBox="0 0 938.286 938.286" style="enable-background:new 0 0 938.286 938.286;" xml:space="preserve">
<g>
	<path d="M152.347,655.675c-1.118,0.092-2.235,0.143-3.346,0.143c-43.768,0-104.985-11.482-149.001-33.549v283.135h223.443
		C223.443,772.06,183.884,695.513,152.347,655.675z"/>
	<path d="M158.216,544.423c0.528,0.119,1.083,0.258,1.654,0.414c95.214-97.631,142.907-224.895,166.793-328.115
		c-40.051-7.889-78.713-19.154-115.02-33.527C134.899,152.812,69.659,108.853,22.977,56.069L2.47,32.882H0v452.915
		C0,485.798,84.21,527.735,158.216,544.423z"/>
	<path d="M936.742,622.986c-21.686,10.541-45.443,17.509-63.569,21.81c-29.521,7.005-61.191,11.022-86.888,11.022
		c-0.653,0-1.307-0.019-1.963-0.05c-31.525,39.864-71.023,116.395-71.023,249.636h223.443V622.986z"/>
	<path d="M610.079,216.722c23.862,103.115,71.48,230.226,166.5,327.818c0.164-0.039,0.331-0.081,0.491-0.117
		c72.704-16.394,159.672-57.583,159.672-57.583V32.882h-2.47L913.765,56.07c-46.682,52.783-111.922,96.742-188.667,127.125
		C688.792,197.568,650.13,208.832,610.079,216.722z"/>
	<path d="M333.932,182.479c42.724,8.38,87.82,12.872,134.439,12.872c46.619,0,91.715-4.492,134.439-12.872
		c119.962-23.53,221.2-77.755,284.737-149.596H586.108H350.634H49.195C112.732,104.724,213.97,158.949,333.932,182.479z"/>
	<path d="M149.001,620.818c13.906,0,10.678-40.187,1.516-42.253c-7.112-1.604-14.148-3.287-21.071-5.027
		C67.156,557.884,14.152,537.573,0,528.023v53.911c28.206,19.036,74.12,31.634,114.066,36.554
		C126.53,620.022,138.42,620.818,149.001,620.818z"/>
	<path d="M806.988,573.273c-7.322,1.834-14.745,3.607-22.218,5.293c-9.162,2.066-12.39,42.253,1.516,42.253
		c10.866,0,23.289-0.835,36.391-2.453c39.819-4.917,85.933-17.116,114.066-35.432c0.513-0.334,1.043-0.662,1.544-1v-53.911
		c-0.469,0.316-0.986,0.645-1.544,0.985C920.546,538.857,867.249,558.175,806.988,573.273z"/>
</g>
<g>
</g>
<g>
</g>
<g>
</g>
<g>
</g>
<g>
</g>
<g>
</g>
<g>
</g>
<g>
</g>
<g>
</g>
<g>
</g>
<g>
</g>
<g>
</g>
<g>
</g>
<g>
</g>
<g>
</g>
</svg>
