<?xml version="1.0" encoding="iso-8859-1"?>
<!-- Generator: Adobe Illustrator 18.0.0, SVG Export Plug-In . SVG Version: 6.00 Build 0)  -->
<!DOCTYPE svg PUBLIC "-//W3C//DTD SVG 1.1//EN" "http://www.w3.org/Graphics/SVG/1.1/DTD/svg11.dtd">
<svg version="1.1" id="Capa_1" xmlns="http://www.w3.org/2000/svg" xmlns:xlink="http://www.w3.org/1999/xlink" x="0px" y="0px"
	 viewBox="0 0 920.27 920.27" style="enable-background:new 0 0 920.27 920.27;" xml:space="preserve">
<g>
	<path d="M693.163,318.518H227.18l30.108,258.017c28.065,2.002,57.119-5.588,82.876-15.581
		c34.914-13.546,66.78-33.826,100.517-49.903c33.413-15.922,68.926-28.331,106.362-28.225
		c44.151,0.125,87.579,15.795,122.173,42.782L693.163,318.518z"/>
	<path d="M525.786,627.707c-15.856,1.996-34.71,7.664-50.803,14.007c-16.846,6.64-33.017,14.951-49.03,23.368
		c-33.749,17.741-67.215,36.562-104.125,47.023c-15.732,4.459-31.79,7.26-47.805,7.844l23.376,200.321h326.182l29.712-256.946
		c-11.881-9.173-25.008-16.874-39.024-22.911C586.956,628.65,556.184,623.88,525.786,627.707z"/>
	<path d="M712.693,282.518h4.127v-35.686v-13.449v-15.265v-38.935h-43.408c-3.957-6.262-9.066-12.281-15.214-18
		c-6.883-6.404-15.069-12.429-24.381-18c-35.442-21.202-87.248-35.78-146.181-39.274v-0.814V75.982
		c0-11.57,9.413-20.982,20.982-20.982h133.194V0H508.617c-41.897,0-75.982,34.085-75.982,75.982v27.113v0.814
		c-58.933,3.494-110.739,18.073-146.181,39.274c-9.312,5.571-17.498,11.596-24.381,18c-6.147,5.719-11.257,11.738-15.214,18h-43.408
		v38.935v15.265v13.48v35.655h4.161h15.368h474.347H712.693z"/>
</g>
<g>
</g>
<g>
</g>
<g>
</g>
<g>
</g>
<g>
</g>
<g>
</g>
<g>
</g>
<g>
</g>
<g>
</g>
<g>
</g>
<g>
</g>
<g>
</g>
<g>
</g>
<g>
</g>
<g>
</g>
</svg>
