<?xml version="1.0" encoding="iso-8859-1"?>
<!-- Generator: Adobe Illustrator 18.0.0, SVG Export Plug-In . SVG Version: 6.00 Build 0)  -->
<!DOCTYPE svg PUBLIC "-//W3C//DTD SVG 1.1//EN" "http://www.w3.org/Graphics/SVG/1.1/DTD/svg11.dtd">
<svg version="1.1" id="Capa_1" xmlns="http://www.w3.org/2000/svg" xmlns:xlink="http://www.w3.org/1999/xlink" x="0px" y="0px"
	 viewBox="0 0 952 952" style="enable-background:new 0 0 952 952;" xml:space="preserve">
<g>
	<path d="M200,193.693v-99l-150.618,83.24C18.914,194.771,0,226.834,0,261.645v220.994h100.472V269.827
		c0-10.909,5.774-21.002,15.177-26.532L200,193.693z"/>
	<path d="M752,193.693v-99l150.618,83.24C933.086,194.771,952,226.834,952,261.645v220.994H851.528V269.827
		c0-10.909-5.774-21.002-15.177-26.532L752,193.693z"/>
	<path d="M851,517.639h-17.5H816H476H135h-17.5H100H0v17.5v17.5v304.668h266.63c58.014,0,110.995-32.939,136.664-84.965
		l17.293-35.05H476h55.412l17.293,35.05c25.669,52.026,78.651,84.965,136.664,84.965H952V552.639v-17.5v-17.5h-1H851z
		 M344.481,687.764c0,50.352-40.818,91.17-91.17,91.17H146.689c-50.352,0-91.17-40.818-91.17-91.17v-10.581
		c0-50.352,40.818-91.17,91.17-91.17h106.622c50.352,0,91.17,40.818,91.17,91.17V687.764z M900.481,687.764
		c0,50.352-40.818,91.17-91.17,91.17H702.689c-50.352,0-91.17-40.818-91.17-91.17v-10.58c0-50.352,40.818-91.17,91.17-91.17h106.623
		c50.352,0,91.17,40.818,91.17,91.17V687.764z"/>
	<path d="M253.311,621.013H146.689c-30.972,0-56.17,25.198-56.17,56.17v10.581c0,30.972,25.198,56.17,56.17,56.17h106.622
		c30.972,0,56.17-25.198,56.17-56.17v-10.581C309.481,646.211,284.283,621.013,253.311,621.013z"/>
</g>
<g>
</g>
<g>
</g>
<g>
</g>
<g>
</g>
<g>
</g>
<g>
</g>
<g>
</g>
<g>
</g>
<g>
</g>
<g>
</g>
<g>
</g>
<g>
</g>
<g>
</g>
<g>
</g>
<g>
</g>
</svg>
