<?xml version="1.0" encoding="iso-8859-1"?>
<!-- Generator: Adobe Illustrator 18.0.0, SVG Export Plug-In . SVG Version: 6.00 Build 0)  -->
<!DOCTYPE svg PUBLIC "-//W3C//DTD SVG 1.1//EN" "http://www.w3.org/Graphics/SVG/1.1/DTD/svg11.dtd">
<svg version="1.1" id="Capa_1" xmlns="http://www.w3.org/2000/svg" xmlns:xlink="http://www.w3.org/1999/xlink" x="0px" y="0px"
	 viewBox="0 0 961.528 961.528" style="enable-background:new 0 0 961.528 961.528;" xml:space="preserve">
<g>
	<path d="M75.563,904.792h118.661v39.43h85.846V795.645h401.389v148.576h85.649v-39.43h118.662v39.43h75.759V17.307h-75.759V66.35
		H767.107V17.307h-86.591v146.3H279.127v-146.3h-84.903V66.35H75.563V17.307H0v926.915h75.563V904.792z M767.107,142.83h118.662
		v114.011H767.107V142.83z M767.107,333.32h118.662v114.011H767.107V333.32z M767.107,523.81h118.662v114.011H767.107V523.81z
		 M767.107,714.301h118.662v114.011H767.107V714.301z M279.971,247.6H681.36v466.329H279.971V247.6z M75.563,142.83h118.661v114.011
		H75.563V142.83z M75.563,333.32h118.661v114.011H75.563V333.32z M75.563,523.81h118.661v114.011H75.563V523.81z M75.563,714.301
		h118.661v114.011H75.563V714.301z"/>
</g>
<g>
</g>
<g>
</g>
<g>
</g>
<g>
</g>
<g>
</g>
<g>
</g>
<g>
</g>
<g>
</g>
<g>
</g>
<g>
</g>
<g>
</g>
<g>
</g>
<g>
</g>
<g>
</g>
<g>
</g>
</svg>
