<?xml version="1.0" encoding="iso-8859-1"?>
<!-- Generator: Adobe Illustrator 18.0.0, SVG Export Plug-In . SVG Version: 6.00 Build 0)  -->
<!DOCTYPE svg PUBLIC "-//W3C//DTD SVG 1.1//EN" "http://www.w3.org/Graphics/SVG/1.1/DTD/svg11.dtd">
<svg version="1.1" id="Capa_1" xmlns="http://www.w3.org/2000/svg" xmlns:xlink="http://www.w3.org/1999/xlink" x="0px" y="0px"
	 viewBox="0 0 970.966 970.966" style="enable-background:new 0 0 970.966 970.966;" xml:space="preserve">
<g>
	<rect x="177.438" y="316.518" width="616.089" height="337.931"/>
	<path d="M970.966,485.483c0,0-34.356-101.246-64.796-101.246c1.506-10.648,1.036-21.671-1.667-32.624
		c-3.044-12.335-8.924-23.439-16.808-32.854c5.211-8.07,10.424-16.139,15.633-24.211c11.211-17.375-17.499-77.209-17.499-77.209
		s-62.296-23.771-78.525-10.958c-7.539,5.953-15.076,11.911-22.613,17.866c-10.123-6.952-21.736-11.748-34.305-13.604
		c-13.63-2.013-27.049-0.706-39.491,3.392c-20.066-15.471-48.068-20.666-73.904-20.637c-13.978,0.015-70.372-59.123-103.492-59.123
		c-19.596,0-37.002,9.355-48.015,23.835c-11.013-14.48-28.419-23.835-48.015-23.835c-33.121,0-89.514,59.138-103.492,59.123
		c-25.836-0.029-53.839,5.166-73.904,20.637c-12.442-4.098-25.861-5.405-39.491-3.392c-12.569,1.856-24.182,6.652-34.305,13.604
		c-7.537-5.955-15.073-11.913-22.613-17.866c-16.229-12.814-78.525,10.958-78.525,10.958s-28.711,59.834-17.499,77.209
		c5.208,8.072,10.422,16.141,15.633,24.211c-7.884,9.415-13.763,20.519-16.808,32.854c-2.703,10.952-3.174,21.975-1.667,32.624
		C34.356,384.237,0,485.483,0,485.483s34.356,101.246,64.796,101.246c-1.506,10.649-1.036,21.672,1.667,32.624
		c3.044,12.335,8.924,23.439,16.808,32.854c-5.211,8.07-10.425,16.139-15.633,24.211c-11.211,17.375,17.499,77.209,17.499,77.209
		s62.296,23.771,78.525,10.958c7.539-5.953,15.076-11.911,22.613-17.867c10.123,6.953,21.736,11.748,34.305,13.605
		c13.63,2.013,27.049,0.706,39.491-3.392c20.066,15.471,48.068,20.667,73.904,20.638c13.978-0.016,70.372,59.122,103.492,59.122
		c19.596,0,37.002-9.354,48.015-23.834c11.013,14.48,28.419,23.834,48.015,23.834c33.121,0,89.514-59.137,103.492-59.122
		c25.836,0.029,53.839-5.167,73.904-20.638c12.442,4.099,25.861,5.405,39.491,3.392c12.569-1.857,24.182-6.652,34.305-13.605
		c7.537,5.956,15.073,11.914,22.613,17.867c16.229,12.814,78.525-10.958,78.525-10.958s28.711-59.834,17.499-77.209
		c-5.208-8.072-10.422-16.141-15.633-24.211c7.884-9.416,13.763-20.519,16.808-32.854c2.703-10.952,3.174-21.975,1.667-32.624
		C936.61,586.729,970.966,485.483,970.966,485.483z M828.528,316.518v337.931v35h-35H177.439h-35v-35V316.518v-35h35h616.089h35
		V316.518z"/>
</g>
<g>
</g>
<g>
</g>
<g>
</g>
<g>
</g>
<g>
</g>
<g>
</g>
<g>
</g>
<g>
</g>
<g>
</g>
<g>
</g>
<g>
</g>
<g>
</g>
<g>
</g>
<g>
</g>
<g>
</g>
</svg>
