<?xml version="1.0" encoding="iso-8859-1"?>
<!-- Generator: Adobe Illustrator 18.0.0, SVG Export Plug-In . SVG Version: 6.00 Build 0)  -->
<!DOCTYPE svg PUBLIC "-//W3C//DTD SVG 1.1//EN" "http://www.w3.org/Graphics/SVG/1.1/DTD/svg11.dtd">
<svg version="1.1" id="Capa_1" xmlns="http://www.w3.org/2000/svg" xmlns:xlink="http://www.w3.org/1999/xlink" x="0px" y="0px"
	 viewBox="0 0 962.686 962.686" style="enable-background:new 0 0 962.686 962.686;" xml:space="preserve">
<g>
	<path d="M526.989,895.473l8.578-15.573H789.3l8.578,15.573c22.838,41.461,66.424,67.213,113.759,67.213L695.059,586.518v-64.295
		c-10.233,3.527-21.209,5.447-32.625,5.447s-22.392-1.92-32.625-5.447v64.295L413.231,962.686
		C460.565,962.686,504.152,936.934,526.989,895.473z M695.059,708.814L764.98,835.75h-69.921V708.814z M629.809,708.813V835.75
		h-69.921L629.809,708.813z"/>
	<path d="M616.201,379.947c-4.865,15.429-11.278,30.181-19.142,44.066v3.283c0,24.219,13.181,45.347,32.75,56.643
		c9.604,5.544,20.739,8.732,32.625,8.732c11.886,0,23.021-3.188,32.625-8.732c19.569-11.296,32.75-32.424,32.75-56.643V356.14
		c6.196-4.139,12.045-8.754,17.5-13.792c6.407-5.916,12.271-12.41,17.5-19.409c17.662-23.643,28.12-52.98,28.12-84.761v0H616.2
		c0.021,0.064,0.042,0.127,0.062,0.19c0.049,0.156,0.094,0.313,0.143,0.47c2.191,7.022,4.05,14.137,5.568,21.327
		c1.423,6.74,2.542,13.547,3.368,20.402c1.136,9.419,1.717,18.93,1.717,28.495c0,24.119-3.632,47.904-10.796,70.694
		C616.242,379.82,616.221,379.883,616.201,379.947z M662.434,450.351c-14.174,0-25.665-11.49-25.665-25.665
		c0-14.174,11.49-25.665,25.665-25.665s25.664,11.49,25.664,25.665C688.098,438.86,676.608,450.351,662.434,450.351z"/>
	<path d="M562.059,414.36c6.771-10.762,12.521-22.29,17.113-34.413c0.132-0.347,0.257-0.697,0.387-1.045
		c8.094-21.741,12.5-45.355,12.5-69.839v0c0-23.118-3.93-45.461-11.181-66.184c-0.551-1.575-1.116-3.144-1.705-4.701
		c-2.388-6.304-5.094-12.445-8.087-18.404c-21.71-43.219-58.877-76.715-104.893-90.99L51.049,0v309.063v309.062l415.144-128.784
		C506.352,476.882,539.771,449.783,562.059,414.36z"/>
</g>
<g>
</g>
<g>
</g>
<g>
</g>
<g>
</g>
<g>
</g>
<g>
</g>
<g>
</g>
<g>
</g>
<g>
</g>
<g>
</g>
<g>
</g>
<g>
</g>
<g>
</g>
<g>
</g>
<g>
</g>
</svg>
