<?xml version="1.0" encoding="iso-8859-1"?>
<!-- Generator: Adobe Illustrator 18.0.0, SVG Export Plug-In . SVG Version: 6.00 Build 0)  -->
<!DOCTYPE svg PUBLIC "-//W3C//DTD SVG 1.1//EN" "http://www.w3.org/Graphics/SVG/1.1/DTD/svg11.dtd">
<svg version="1.1" id="Capa_1" xmlns="http://www.w3.org/2000/svg" xmlns:xlink="http://www.w3.org/1999/xlink" x="0px" y="0px"
	 viewBox="0 0 932.013 932.013" style="enable-background:new 0 0 932.013 932.013;" xml:space="preserve">
<g>
	<path d="M402.182,94.485c-7.859-23.203-29.8-39.911-55.658-39.911c-32.456,0-58.767,26.311-58.767,58.767
		c0,1.819,0.095,3.615,0.257,5.392c-8.135-3.469-17.087-5.392-26.49-5.392c-37.335,0-67.601,30.266-67.601,67.601
		c0,8.15,1.444,15.963,4.087,23.198c-26.912,4.324-47.473,27.645-47.473,55.775c0,1.57,0.081,3.12,0.207,4.658h632.731
		c0.247-1.555,0.384-3.109,0.384-4.658c0-25.102-18.676-45.828-42.888-49.077c0.129-1.459,0.207-2.933,0.207-4.425
		c0-20.22-12.121-37.598-29.487-45.296c0.84-4.363,1.294-8.863,1.294-13.471c0-39.143-31.732-70.874-70.874-70.874
		c-1.137,0-2.266,0.033-3.39,0.086C627.092,32.625,586.834,0,538.951,0c-52.392,0-95.657,39.056-102.279,89.642
		c-3.071-0.495-6.218-0.763-9.43-0.763C418.276,88.879,409.785,90.895,402.182,94.485z"/>
	<polygon points="361.651,932.013 435.793,932.013 435.793,316.417 435.793,299.573 311.128,299.573 312.474,316.417 	"/>
	<polygon points="496.22,932.013 570.362,932.013 619.539,316.417 620.885,299.573 496.22,299.573 496.22,316.417 	"/>
	<polygon points="681.312,299.573 679.966,316.417 630.788,932.013 709.488,932.013 802.531,299.573 762.326,299.573 	"/>
	<polygon points="166.806,299.573 129.482,299.573 224.91,932.013 301.225,932.013 252.047,316.417 250.701,299.573 	"/>
</g>
<g>
</g>
<g>
</g>
<g>
</g>
<g>
</g>
<g>
</g>
<g>
</g>
<g>
</g>
<g>
</g>
<g>
</g>
<g>
</g>
<g>
</g>
<g>
</g>
<g>
</g>
<g>
</g>
<g>
</g>
</svg>
