<?xml version="1.0" encoding="iso-8859-1"?>
<!-- Generator: Adobe Illustrator 18.0.0, SVG Export Plug-In . SVG Version: 6.00 Build 0)  -->
<!DOCTYPE svg PUBLIC "-//W3C//DTD SVG 1.1//EN" "http://www.w3.org/Graphics/SVG/1.1/DTD/svg11.dtd">
<svg version="1.1" id="Capa_1" xmlns="http://www.w3.org/2000/svg" xmlns:xlink="http://www.w3.org/1999/xlink" x="0px" y="0px"
	 viewBox="0 0 898.576 898.576" style="enable-background:new 0 0 898.576 898.576;" xml:space="preserve">
<g>
	<path d="M6.117,837.325h96.436c0.284,6.807,1.623,13.341,3.873,19.436c2.648,7.175,6.556,13.736,11.44,19.436
		c11.73,13.691,29.134,22.379,48.577,22.379s36.847-8.687,48.577-22.379c4.884-5.7,8.792-12.261,11.44-19.436
		c2.25-6.096,3.589-12.629,3.872-19.436h446.669c0.284,6.807,1.623,13.341,3.873,19.436c2.648,7.175,6.556,13.736,11.44,19.436
		c11.73,13.691,29.134,22.379,48.577,22.379c19.443,0,36.847-8.687,48.577-22.379c4.884-5.7,8.792-12.261,11.44-19.436
		c2.25-6.096,3.589-12.629,3.873-19.436h87.679V219.177H311.51h-161.7H6.117V837.325z M749.656,651.174
		c23.27,0,42.134,18.864,42.134,42.134c0,23.27-18.864,42.134-42.134,42.134c-23.27,0-42.134-18.864-42.134-42.134
		C707.521,670.038,726.386,651.174,749.656,651.174z M707.521,570.385c0-23.27,18.864-42.134,42.134-42.134
		c23.27,0,42.134,18.864,42.134,42.134c0,23.27-18.864,42.134-42.134,42.134C726.386,612.519,707.521,593.655,707.521,570.385z
		 M696.33,321.061h106.652v30.551H696.33V321.061z M696.33,387.714h106.652v30.551H696.33V387.714z M696.33,454.367h106.652v30.552
		H696.33V454.367z M99.065,321.061h535.232v414.382H99.065V321.061z"/>
	<path d="M372.061,4.256c-8.17-6.628-20.163-5.375-26.789,2.793l-80.404,99.119c-10.408-4.812-21.99-7.516-34.209-7.516
		c-12.287,0-23.93,2.731-34.381,7.593L115.811,7.048C109.184-1.12,97.19-2.371,89.022,4.256c-8.169,6.626-9.419,18.62-2.793,26.789
		l80.209,98.88c-10.894,13.874-17.409,31.349-17.409,50.357v0.024h163.26v-0.024c0-19.076-6.561-36.608-17.525-50.505l80.09-98.732
		C381.48,22.875,380.23,10.882,372.061,4.256z"/>
</g>
<g>
</g>
<g>
</g>
<g>
</g>
<g>
</g>
<g>
</g>
<g>
</g>
<g>
</g>
<g>
</g>
<g>
</g>
<g>
</g>
<g>
</g>
<g>
</g>
<g>
</g>
<g>
</g>
<g>
</g>
</svg>
