<?xml version="1.0" encoding="iso-8859-1"?>
<!-- Generator: Adobe Illustrator 18.0.0, SVG Export Plug-In . SVG Version: 6.00 Build 0)  -->
<!DOCTYPE svg PUBLIC "-//W3C//DTD SVG 1.1//EN" "http://www.w3.org/Graphics/SVG/1.1/DTD/svg11.dtd">
<svg version="1.1" id="Capa_1" xmlns="http://www.w3.org/2000/svg" xmlns:xlink="http://www.w3.org/1999/xlink" x="0px" y="0px"
	 viewBox="0 0 969.164 969.164" style="enable-background:new 0 0 969.164 969.164;" xml:space="preserve">
<g>
	<path d="M201.454,108.915c-9.623-16.265-23.283-30.924-40.6-43.57c-30.709-22.424-62.572-30.894-64.293-31.34L50.568,23.277
		c-7.555,8.583-12.799,20.319-12.799,36.372c0,57.419,20.507,72.52,20.507,72.52h153.831
		C209.352,124.028,205.802,116.265,201.454,108.915z"/>
	<path d="M226.231,918.228c12.713-13.265,19.433-32.658,19.433-56.082v-35h35h477.508c-1.679-11.047-2.593-22.95-2.593-35.746
		c0-172.669,149.321-418.483,149.321-614.5C904.899,19.803,755.578,0,755.578,0H220.279H104.846c0,0,116.768,28.242,143.774,132.169
		c3.531,13.587,5.547,28.451,5.547,44.732c0,196.017-149.321,441.83-149.321,614.5c0,21.877,2.605,43.935,9.325,64.813
		c5.274,16.386,13.149,32.064,24.154,45.366c6.627,8.01,14.383,15.117,23.097,20.802c8.555,5.581,17.698,10.425,28.093,11.19
		C204.003,934.637,216.38,928.507,226.231,918.228z"/>
	<path d="M194.969,969.154"/>
	<path d="M280.663,862.146c0,35.851-12.083,62.219-28.71,79.815c-16.931,17.917-56.984,27.193-56.984,27.193l639.909-0.02l17.261,0
		c0.589,0.02,1.176,0.03,1.768,0.03c19.363,0,39.95-10.857,55.035-31.219c13.396-18.083,22.453-43.662,22.453-75.798H766.938
		H280.663z"/>
</g>
<g>
</g>
<g>
</g>
<g>
</g>
<g>
</g>
<g>
</g>
<g>
</g>
<g>
</g>
<g>
</g>
<g>
</g>
<g>
</g>
<g>
</g>
<g>
</g>
<g>
</g>
<g>
</g>
<g>
</g>
</svg>
