<?xml version="1.0" encoding="iso-8859-1"?>
<!-- Generator: Adobe Illustrator 18.0.0, SVG Export Plug-In . SVG Version: 6.00 Build 0)  -->
<!DOCTYPE svg PUBLIC "-//W3C//DTD SVG 1.1//EN" "http://www.w3.org/Graphics/SVG/1.1/DTD/svg11.dtd">
<svg version="1.1" id="Capa_1" xmlns="http://www.w3.org/2000/svg" xmlns:xlink="http://www.w3.org/1999/xlink" x="0px" y="0px"
	 viewBox="0 0 935.29 935.29" style="enable-background:new 0 0 935.29 935.29;" xml:space="preserve">
<g>
	<path d="M206.434,934.441c73.819,7.384,136.478-34.086,168.225-97.944c35.82-72.054,27.589-156.356,20.035-233.733
		c-7.723-79.108-17.164-162.94-11.196-242.727c7.903-105.667,44.743-152.206,35.939-233.759
		C411.238,50.328,346.014,1.946,270.973,0.051c-77.271-1.952-128.387,52.72-144.292,122.91
		c-18.446,81.403-9.775,164.752-28.564,247.502C75.016,472.203,39.67,519.931,24.958,596.378
		c-14.024,72.874-13.007,152.378,20.671,220.073C76.85,879.207,135.105,927.306,206.434,934.441z M66.952,585.348
		c10.835-43.243,30.084-78.431,42.466-121.497c17.771-61.81,30.444-127.084,36.458-191.887
		c4.743-51.117,1.213-109.026,22.138-156.877c19.402-44.37,63.975-72.072,112.406-69.723c35.5,1.722,69.722,22.962,88.357,53.011
		c16.311,26.301,15.833,56.389,10.226,85.686c-9.118,47.638-19.386,95.145-25.423,143.288
		c-11.534,91.971-11.255,176.606,5.659,267.893c5.276,28.474,8.206,71.266-16.514,92.156
		c-50.989,43.087-149.213,29.285-205.568,6.114C95.922,676.557,54.7,634.246,66.952,585.348z"/>
	<path d="M540.596,602.764c-7.554,77.376-15.786,161.679,20.035,233.733c31.746,63.858,94.405,105.328,168.225,97.944
		c71.329-7.135,129.584-55.234,160.805-117.99c33.678-67.695,34.695-147.198,20.671-220.073
		c-14.711-76.447-50.058-124.175-73.158-225.916c-18.789-82.75-10.118-166.099-28.564-247.502
		C792.704,52.771,741.588-1.901,664.317,0.051c-75.041,1.896-140.265,50.277-148.463,126.227
		c-8.804,81.553,28.037,128.092,35.94,233.759C557.76,439.824,548.319,523.656,540.596,602.764z M566.512,98.375
		c18.636-30.049,52.858-51.29,88.357-53.011c48.432-2.349,93.004,25.353,112.406,69.723
		c20.925,47.851,17.395,105.759,22.138,156.877c6.013,64.804,18.686,130.078,36.458,191.887
		c12.382,43.065,31.631,78.253,42.466,121.497c12.252,48.898-28.97,91.209-70.205,108.163
		c-56.354,23.171-154.579,36.973-205.568-6.114c-24.721-20.89-21.79-63.681-16.514-92.156
		c16.914-91.287,17.192-175.922,5.659-267.893c-6.037-48.143-16.305-95.65-25.423-143.288
		C550.679,154.764,550.201,124.676,566.512,98.375z"/>
</g>
<g>
</g>
<g>
</g>
<g>
</g>
<g>
</g>
<g>
</g>
<g>
</g>
<g>
</g>
<g>
</g>
<g>
</g>
<g>
</g>
<g>
</g>
<g>
</g>
<g>
</g>
<g>
</g>
<g>
</g>
</svg>
