<?xml version="1.0" encoding="iso-8859-1"?>
<!-- Generator: Adobe Illustrator 18.0.0, SVG Export Plug-In . SVG Version: 6.00 Build 0)  -->
<!DOCTYPE svg PUBLIC "-//W3C//DTD SVG 1.1//EN" "http://www.w3.org/Graphics/SVG/1.1/DTD/svg11.dtd">
<svg version="1.1" id="Capa_1" xmlns="http://www.w3.org/2000/svg" xmlns:xlink="http://www.w3.org/1999/xlink" x="0px" y="0px"
	 viewBox="0 0 912.669 912.669" style="enable-background:new 0 0 912.669 912.669;" xml:space="preserve">
<g>
	<path d="M456.335,406.236c121.157,0,238.238,10.276,329.675,28.934c10.982,2.241,21.423,4.571,31.308,6.986V276.214
		c0-101.948-161.617-184.595-360.983-184.595S95.351,174.266,95.351,276.214v165.942c9.885-2.415,20.326-4.745,31.308-6.986
		C218.097,416.512,335.178,406.236,456.335,406.236z M622.352,202.539c31.96,9.041,60.949,20.61,86,34.2v85.472
		c-25.336-12.636-54.295-23.38-86-31.792V202.539z M405.317,182.56c16.655-1.276,33.689-1.939,51.017-1.939
		c17.328,0,34.362,0.664,51.017,1.939v89.049c-16.667-1.206-33.699-1.831-51.017-1.831c-17.318,0-34.35,0.625-51.017,1.831V182.56z
		 M204.317,236.739c25.051-13.59,54.04-25.159,86-34.2v87.88c-31.705,8.412-60.664,19.156-86,31.792V236.739z"/>
	<path d="M817.318,478.251c-83.47-21.563-214.122-37.015-360.983-37.015s-277.514,15.453-360.983,37.015
		C35.58,493.692,0,512.264,0,530.54l0,0.003v290.506h180.317V675.674c0-2.218,0.167-4.397,0.472-6.53
		c3.169-22.123,22.189-39.13,45.188-39.13h40.34v39.13v151.905h106.927V669.144v-43.258c0-31.613,25.627-57.239,57.239-57.239
		h25.851h25.851c31.612,0,57.239,25.627,57.239,57.239v43.258v151.905h106.927V669.144v-39.13h40.34
		c22.999,0,42.019,17.007,45.188,39.13c0.306,2.134,0.472,4.312,0.472,6.53v145.375h180.317V530.543l0-0.003
		C912.669,512.264,877.089,493.692,817.318,478.251z"/>
</g>
<g>
</g>
<g>
</g>
<g>
</g>
<g>
</g>
<g>
</g>
<g>
</g>
<g>
</g>
<g>
</g>
<g>
</g>
<g>
</g>
<g>
</g>
<g>
</g>
<g>
</g>
<g>
</g>
<g>
</g>
</svg>
