<?xml version="1.0" encoding="iso-8859-1"?>
<!-- Generator: Adobe Illustrator 18.0.0, SVG Export Plug-In . SVG Version: 6.00 Build 0)  -->
<!DOCTYPE svg PUBLIC "-//W3C//DTD SVG 1.1//EN" "http://www.w3.org/Graphics/SVG/1.1/DTD/svg11.dtd">
<svg version="1.1" id="Capa_1" xmlns="http://www.w3.org/2000/svg" xmlns:xlink="http://www.w3.org/1999/xlink" x="0px" y="0px"
	 viewBox="0 0 878.993 878.993" style="enable-background:new 0 0 878.993 878.993;" xml:space="preserve">
<g>
	<path d="M0,803.599v46.252h219.496v-46.252c0-31.548-13.316-59.981-34.628-80.001c-20.546,18.897-47.036,29.253-75.12,29.253
		c-28.085,0-54.574-10.356-75.12-29.253C13.316,743.618,0,772.052,0,803.599z"/>
	<path d="M329.748,803.599v46.252h219.496v-46.252c0-31.548-13.316-59.981-34.628-80.001c-20.546,18.897-47.036,29.253-75.12,29.253
		c-28.084,0-54.574-10.356-75.12-29.253C343.064,743.618,329.748,772.052,329.748,803.599z"/>
	<path d="M844.365,723.598c-20.546,18.897-47.036,29.253-75.12,29.253c-28.085,0-54.574-10.356-75.12-29.253
		c-21.312,20.02-34.628,48.454-34.628,80.001v46.252h219.496v-46.252C878.993,772.052,865.677,743.618,844.365,723.598z"/>
	<path d="M0,29.588v515.101c85.009-18.819,249.504-31.575,438.496-31.575c190.485,0,356.085,12.958,440.496,32.022V29.141
		c-84.411,19.064-250.011,32.022-440.496,32.022C249.504,61.163,85.009,48.408,0,29.588z"/>
	<path d="M65.065,703.335c12.549,9.122,27.982,14.516,44.683,14.516s32.134-5.394,44.683-14.516
		c19.029-13.832,31.412-36.254,31.412-61.579c0-42.026-34.069-76.095-76.095-76.095s-76.095,34.069-76.095,76.095
		C33.653,667.081,46.035,689.503,65.065,703.335z"/>
	<path d="M394.813,703.335c12.549,9.122,27.982,14.516,44.683,14.516s32.134-5.394,44.683-14.516
		c19.029-13.832,31.412-36.254,31.412-61.579c0-42.026-34.069-76.095-76.096-76.095c-42.026,0-76.095,34.069-76.095,76.095
		C363.401,667.081,375.783,689.503,394.813,703.335z"/>
	<path d="M724.561,703.335c12.549,9.122,27.982,14.516,44.683,14.516c16.701,0,32.134-5.394,44.683-14.516
		c19.029-13.832,31.412-36.254,31.412-61.579c0-42.026-34.069-76.095-76.096-76.095s-76.096,34.069-76.096,76.095
		C693.149,667.081,705.532,689.503,724.561,703.335z"/>
</g>
<g>
</g>
<g>
</g>
<g>
</g>
<g>
</g>
<g>
</g>
<g>
</g>
<g>
</g>
<g>
</g>
<g>
</g>
<g>
</g>
<g>
</g>
<g>
</g>
<g>
</g>
<g>
</g>
<g>
</g>
</svg>
