<?xml version="1.0" encoding="utf-8"?>
<!-- Generator: Adobe Illustrator 16.0.0, SVG Export Plug-In . SVG Version: 6.00 Build 0)  -->
<!DOCTYPE svg PUBLIC "-//W3C//DTD SVG 1.1//EN" "http://www.w3.org/Graphics/SVG/1.1/DTD/svg11.dtd">
<svg version="1.1" id="Layer_1" xmlns="http://www.w3.org/2000/svg" xmlns:xlink="http://www.w3.org/1999/xlink" x="0px" y="0px"
	 width="48px" height="48px" viewBox="0 0 48 48" enable-background="new 0 0 48 48" xml:space="preserve">
<g>
	<path d="M40.906,39.95c0.804-0.897,1.072-2.035,0.695-3.234c-0.014-0.045-3.484-11.504-3.484-11.504
		c-0.376-1.249-1.524-2.08-2.829-2.08h-4.535v5.824c0,3.529-2.882,6.4-6.411,6.4s-6.412-2.871-6.412-6.4v-5.824h-3.67
		c-1.303,0-2.453,0.826-2.828,2.075c-2.766,9.625-2.795,9.727-3.942,13.083c-0.269,0.788-0.548,1.624-0.548,2.51
		c0,3.258,2.65,5.937,5.908,5.937h26.012c1.205,0,2.291-0.762,2.74-1.881c0.45-1.12,0.127-2.368-0.695-3.249
		C40.575,41.253,40.347,40.575,40.906,39.95z M38.861,43.672H12.85c-1.632,0-2.955-1.319-2.955-2.95s1.323-2.95,2.955-2.95h26.012
		C37.275,39.36,37.275,42.197,38.861,43.672z"/>
	<path d="M15.997,15.755h4.884v13.201c0,1.903,1.558,3.446,3.461,3.446s3.461-1.543,3.461-3.446V15.755h4.921
		c1.903,0,3.446-1.557,3.446-3.46c0-1.904-1.543-3.461-3.446-3.461h-4.921V4.34c0-1.904-1.558-3.447-3.461-3.447
		s-3.461,1.543-3.461,3.447v4.494h-4.884c-1.903,0-3.446,1.558-3.446,3.461C12.551,14.198,14.094,15.755,15.997,15.755z"/>
</g>
</svg>
