<?xml version="1.0" encoding="utf-8"?>
<!-- Generator: Adobe Illustrator 16.0.0, SVG Export Plug-In . SVG Version: 6.00 Build 0)  -->
<!DOCTYPE svg PUBLIC "-//W3C//DTD SVG 1.1//EN" "http://www.w3.org/Graphics/SVG/1.1/DTD/svg11.dtd">
<svg version="1.1" id="Layer_1" xmlns="http://www.w3.org/2000/svg" xmlns:xlink="http://www.w3.org/1999/xlink" x="0px" y="0px"
	 width="48px" height="48px" viewBox="0 0 48 48" enable-background="new 0 0 48 48" xml:space="preserve">
<path d="M40.762,8.366c-0.001-0.467-0.042-0.917-0.253-1.326L38.025,2.26C37.62,1.483,36.827,1,35.957,1H11.225
	c-0.914,0-2.31,0.418-2.31,2.016c0,9.962-0.072,39.444-0.072,39.444c0,0.411,0.134,0.808,0.398,1.108l1.824,2.126
	c0.362,0.421,0.89,0.664,1.445,0.664h4.398V7.512h-2.633c-0.123,0-0.235-0.068-0.292-0.177l-1.509-2.91
	c-0.053-0.102-0.048-0.224,0.011-0.322s0.166-0.158,0.28-0.158H35.39c0.123,0,0.235,0.068,0.292,0.177l1.509,2.91
	c0.053,0.102,0.048,0.224-0.011,0.322s-0.166,0.158-0.28,0.158H20.164v38.846h19.017c0.894,0,1.608-0.731,1.608-1.631
	C40.789,44.727,40.789,17.724,40.762,8.366z"/>
</svg>
