<?xml version="1.0" encoding="utf-8"?>
<!-- Generator: Adobe Illustrator 16.0.0, SVG Export Plug-In . SVG Version: 6.00 Build 0)  -->
<!DOCTYPE svg PUBLIC "-//W3C//DTD SVG 1.1//EN" "http://www.w3.org/Graphics/SVG/1.1/DTD/svg11.dtd">
<svg version="1.1" id="Layer_1" xmlns="http://www.w3.org/2000/svg" xmlns:xlink="http://www.w3.org/1999/xlink" x="0px" y="0px"
	 width="48px" height="48px" viewBox="0 0 48 48" enable-background="new 0 0 48 48" xml:space="preserve">
<g>
	<path d="M11.623,40.03c-0.093,0-0.169-0.076-0.169-0.169V37.49h-0.819c-0.657,0-1.269-0.12-1.833-0.367v2.679
		c0,1.54,1.061,2.994,2.652,2.994c0.514,0,2.314,0,2.314,0V40.03H11.623z"/>
	<path d="M36.876,36.857c-0.495,1.817-2.141,3.173-4.112,3.173h-8.553v2.766h8.553c3.927,0,7.083-3.15,7.083-7.078v-0.824
		C39.057,35.724,37.998,36.404,36.876,36.857z"/>
	<path d="M33.461,1.873H10.636c-1.003,0-1.834,0.785-1.834,1.787v29.192c0,1.002,0.831,1.815,1.834,1.815h22.825
		c3.526,0,6.386-2.861,6.386-6.391V8.237C39.847,4.707,36.987,1.873,33.461,1.873z"/>
	<path d="M15.688,45.394c0,0.212,0.102,0.408,0.292,0.504c0.08,0.041,0.158,0.061,0.246,0.061c0.116,0,0.229-0.037,0.328-0.11
		l2.075-1.528c0.1-0.073,0.214-0.111,0.333-0.111s0.235,0.038,0.335,0.111l2.077,1.528c0.098,0.073,0.215,0.11,0.333,0.11
		c0.088,0,0.184-0.02,0.266-0.061c0.19-0.097,0.319-0.292,0.319-0.504V37.49h-6.604V45.394z"/>
</g>
</svg>
