<?xml version="1.0" encoding="utf-8"?>
<!-- Generator: Adobe Illustrator 16.0.0, SVG Export Plug-In . SVG Version: 6.00 Build 0)  -->
<!DOCTYPE svg PUBLIC "-//W3C//DTD SVG 1.1//EN" "http://www.w3.org/Graphics/SVG/1.1/DTD/svg11.dtd">
<svg version="1.1" id="Layer_1" xmlns="http://www.w3.org/2000/svg" xmlns:xlink="http://www.w3.org/1999/xlink" x="0px" y="0px"
	 width="48px" height="48px" viewBox="0 0 48 48" enable-background="new 0 0 48 48" xml:space="preserve">
<g>
	<path d="M27.974,5.869h-3.488v-2.37c0-0.71-0.211-1.421-0.656-1.975c-0.993-1.236-2.327-1.109-3.548-0.659
		C16.933,2.101,7.442,5.579,7.442,5.579c-3.168,1.163-5.272,4.179-5.27,7.554c0.007,7.696,0.02,21.15,0.024,26.233
		c0.003,4.058,3.334,7.348,7.392,7.348h21.246c0.792,0,1.453-0.659,1.453-1.451v-0.029c0-0.791-0.65-1.432-1.441-1.434l-1.175-0.002
		c-1.248-1.85-0.398-3.842,0.217-4.869c1.415-0.702,2.398-2.16,2.398-3.843V10.174C32.288,7.812,30.336,5.869,27.974,5.869z
		 M23.065,30.914c0.867-0.495,1.42-1.426,1.42-2.425V8.951h3.488c0.701,0,1.232,0.51,1.232,1.211v24.833
		c0,0.527-0.163,1.38-1.232,1.38H7.511L23.065,30.914z M9.589,43.758c-2.393,0-4.34-2.039-4.342-4.34h21.069
		c-0.405,1.326-0.536,2.851-0.048,4.368L9.589,43.758z"/>
	<path d="M37.239,26.649c-0.752,0.022-1.343,0.65-1.32,1.402c0.022,0.738,0.627,1.321,1.36,1.321c0.015,0,0.028,0,0.042,0
		c2.774-0.084,4.948-2.323,4.948-5.096s-2.173-5.012-4.948-5.096c-0.736-0.011-1.379,0.568-1.402,1.32
		c-0.023,0.751,0.568,1.38,1.32,1.402c1.293,0.04,2.306,1.082,2.306,2.374S38.532,26.609,37.239,26.649z"/>
	<path d="M37.299,14.965c-0.757-0.021-1.371,0.591-1.382,1.342c-0.01,0.752,0.591,1.371,1.343,1.382
		c3.582,0.051,6.497,3.005,6.497,6.586s-2.915,6.535-6.497,6.586c-0.752,0.01-1.353,0.62-1.343,1.372
		c0.011,0.745,0.619,1.333,1.362,1.333c0.006,0,0.013,0,0.02,0c5.063-0.078,9.182-4.239,9.182-9.3S42.362,15.038,37.299,14.965z"/>
</g>
</svg>
