<?xml version="1.0" encoding="utf-8"?>
<!-- Generator: Adobe Illustrator 16.0.0, SVG Export Plug-In . SVG Version: 6.00 Build 0)  -->
<!DOCTYPE svg PUBLIC "-//W3C//DTD SVG 1.1//EN" "http://www.w3.org/Graphics/SVG/1.1/DTD/svg11.dtd">
<svg version="1.1" id="Layer_1" xmlns="http://www.w3.org/2000/svg" xmlns:xlink="http://www.w3.org/1999/xlink" x="0px" y="0px"
	 width="48px" height="48px" viewBox="0 0 48 48" enable-background="new 0 0 48 48" xml:space="preserve">
<g>
	<path d="M2.333,10.231c-0.463,0.422-0.711,1.02-0.711,1.646v24.13c0,1.152,0.866,2.114,2.012,2.219l16.7,1.529
		c0.724,0.066,1.441-0.175,1.979-0.665c0.536-0.49,0.842-1.183,0.842-1.909V13.767c0-1.336-1.019-2.452-2.349-2.574L4.031,9.658
		C3.408,9.601,2.794,9.809,2.333,10.231z M4.871,18.224c0.075-0.814,0.789-1.422,1.609-1.338l12.048,1.109
		c0.814,0.075,1.412,0.795,1.339,1.609c-0.072,0.767-0.718,1.344-1.474,1.344c-0.045,0-0.091-0.002-0.137-0.006L6.208,19.832
		C5.396,19.757,4.797,19.037,4.871,18.224z M4.871,24.141c0.075-0.813,0.789-1.414,1.609-1.337l12.048,1.109
		c0.814,0.076,1.412,0.796,1.339,1.61c-0.072,0.767-0.718,1.344-1.474,1.344c-0.045,0-0.091-0.002-0.137-0.007L6.208,25.75
		C5.396,25.675,4.797,24.956,4.871,24.141z M4.871,30.06c0.075-0.813,0.789-1.416,1.609-1.337l12.048,1.109
		c0.814,0.076,1.412,0.795,1.339,1.609c-0.072,0.768-0.718,1.345-1.474,1.345c-0.045,0-0.091-0.002-0.137-0.007L6.208,31.669
		C5.396,31.594,4.797,30.874,4.871,30.06z"/>
	<path d="M42.63,17.465c-0.92,0-1.8-0.34-2.481-0.958c-0.776-0.701-1.217-1.704-1.217-2.75v-3.72l-11.329,1.036
		c-1.33,0.122-2.349,1.238-2.349,2.574v23.415c0,0.727,0.306,1.419,0.842,1.909c0.537,0.49,1.255,0.731,1.979,0.665l16.7-1.529
		c1.146-0.105,2.012-1.067,2.012-2.219V17.065l-3.801,0.381C42.861,17.459,42.752,17.465,42.63,17.465z M42.193,31.669
		l-12.047,1.109c-0.047,0.004-0.093,0.007-0.138,0.007c-0.756,0-1.4-0.577-1.473-1.345c-0.073-0.814,0.524-1.533,1.338-1.609
		l12.048-1.109c0.821-0.078,1.534,0.524,1.609,1.337C43.606,30.874,43.007,31.594,42.193,31.669z M43.531,24.141
		c0.075,0.814-0.524,1.534-1.338,1.609l-12.047,1.109c-0.047,0.004-0.093,0.007-0.138,0.007c-0.756,0-1.4-0.577-1.473-1.344
		c-0.073-0.814,0.524-1.534,1.338-1.61l12.048-1.109C42.743,22.727,43.456,23.328,43.531,24.141z"/>
	<path d="M41.91,9.782v3.976c0,0.211,0.076,0.414,0.231,0.555c0.139,0.125,0.31,0.194,0.495,0.194l0.058-0.004l4.092-0.411v-0.008
		L41.91,9.782z"/>
</g>
</svg>
