<?xml version="1.0" encoding="utf-8"?>
<!-- Generator: Adobe Illustrator 16.0.0, SVG Export Plug-In . SVG Version: 6.00 Build 0)  -->
<!DOCTYPE svg PUBLIC "-//W3C//DTD SVG 1.1//EN" "http://www.w3.org/Graphics/SVG/1.1/DTD/svg11.dtd">
<svg version="1.1" id="Layer_1" xmlns="http://www.w3.org/2000/svg" xmlns:xlink="http://www.w3.org/1999/xlink" x="0px" y="0px"
	 width="48px" height="48px" viewBox="0 0 48 48" enable-background="new 0 0 48 48" xml:space="preserve">
<g>
	<path d="M36.81,1.975h-0.34v3.902h0.34c0.722,0,1.301,0.53,1.301,1.252v34.313c0,0.722-0.579,1.259-1.301,1.259H16.772V5.877h7.733
		V1.975H11.244c-2.865,0-5.202,2.289-5.202,5.154v34.313c0,2.866,2.337,5.161,5.202,5.161H36.81c2.866,0,5.202-2.295,5.202-5.161
		V7.129C42.012,4.264,39.676,1.975,36.81,1.975z"/>
	<path d="M27.085,16.853c0.114,0.046,0.221,0.069,0.339,0.069c0.248,0,0.485-0.099,0.665-0.284l1.718-1.769
		c0.176-0.181,0.417-0.283,0.669-0.283c0.253,0,0.494,0.102,0.67,0.283l1.721,1.769c0.18,0.185,0.423,0.284,0.671,0.284
		c0.119,0,0.227-0.023,0.341-0.069c0.353-0.143,0.573-0.486,0.573-0.868V2.652C34.453,1.716,33.716,1,32.78,1h-4.611
		c-0.936,0-1.642,0.716-1.642,1.652v13.333C26.527,16.367,26.732,16.71,27.085,16.853z"/>
</g>
</svg>
