<?xml version="1.0" encoding="utf-8"?>
<!-- Generator: Adobe Illustrator 16.0.0, SVG Export Plug-In . SVG Version: 6.00 Build 0)  -->
<!DOCTYPE svg PUBLIC "-//W3C//DTD SVG 1.1//EN" "http://www.w3.org/Graphics/SVG/1.1/DTD/svg11.dtd">
<svg version="1.1" id="Layer_1" xmlns="http://www.w3.org/2000/svg" xmlns:xlink="http://www.w3.org/1999/xlink" x="0px" y="0px"
	 width="48px" height="48px" viewBox="0 0 48 48" enable-background="new 0 0 48 48" xml:space="preserve">
<g>
	<path d="M39.59,6.803v25.996c0,3.512-2.839,6.376-6.351,6.376H6.125v0.258c0,3.6,2.925,6.522,6.524,6.522h26.175
		c3.592,0,6.479-2.917,6.479-6.509V13.271C45.303,9.942,42.854,7.197,39.59,6.803z"/>
	<path d="M35.76,32.799V4.371c0-1.394-1.126-2.552-2.521-2.552h-2.251v10.126c0,0.356-0.218,0.677-0.547,0.813
		c-0.329,0.136-0.709,0.062-0.96-0.19l-2.66-2.659c-0.343-0.344-0.901-0.344-1.244,0l-2.66,2.659
		c-0.252,0.251-0.614,0.327-0.943,0.19s-0.529-0.457-0.529-0.813V1.818H4.812c-1.395,0-2.516,1.158-2.516,2.552v28.428
		c0,1.394,1.121,2.546,2.516,2.546h28.428C34.634,35.345,35.76,34.192,35.76,32.799z"/>
</g>
</svg>
