<?xml version="1.0" encoding="utf-8"?>
<!-- Generator: Adobe Illustrator 16.0.0, SVG Export Plug-In . SVG Version: 6.00 Build 0)  -->
<!DOCTYPE svg PUBLIC "-//W3C//DTD SVG 1.1//EN" "http://www.w3.org/Graphics/SVG/1.1/DTD/svg11.dtd">
<svg version="1.1" id="Layer_1" xmlns="http://www.w3.org/2000/svg" xmlns:xlink="http://www.w3.org/1999/xlink" x="0px" y="0px"
	 width="48px" height="48px" viewBox="0 0 48 48" enable-background="new 0 0 48 48" xml:space="preserve">
<path d="M45.301,9.311c-0.713-0.542-1.638-0.719-2.5-0.48l-14.557,4.03c-0.45,0.125-0.915,0.188-1.383,0.187l-4.893-0.011
	c-0.459-0.001-0.916-0.063-1.358-0.186L6.041,8.817c-0.863-0.24-1.786-0.055-2.5,0.487c-0.713,0.542-1.13,1.393-1.13,2.289v21.306
	c0,1.288,0.857,2.398,2.098,2.743l16.097,4.453c0.445,0.124,0.906,0.186,1.369,0.186h4.894c0.463,0,0.923-0.063,1.369-0.186
	l16.096-4.453c1.241-0.345,2.098-1.455,2.098-2.743V11.593C46.431,10.697,46.014,9.853,45.301,9.311z M26.845,36.115
	c0,0.426-0.345,0.771-0.771,0.771h-3.307c-0.426,0-0.771-0.345-0.771-0.771v-5.827c0-0.426,0.345-0.771,0.771-0.771h3.307
	c0.426,0,0.771,0.345,0.771,0.771V36.115z M26.845,26.323c0,0.426-0.345,0.771-0.771,0.771h-3.307c-0.426,0-0.771-0.345-0.771-0.771
	v-3.306c0-0.426,0.345-0.771,0.771-0.771h3.307c0.426,0,0.771,0.345,0.771,0.771V26.323z M26.845,18.954
	c0,0.426-0.345,0.771-0.771,0.771h-3.307c-0.426,0-0.771-0.345-0.771-0.771v-1.658c0-0.426,0.345-0.771,0.771-0.771h3.307
	c0.426,0,0.771,0.345,0.771,0.771V18.954z"/>
</svg>
