<?xml version="1.0" encoding="utf-8"?>
<!-- Generator: Adobe Illustrator 16.0.0, SVG Export Plug-In . SVG Version: 6.00 Build 0)  -->
<!DOCTYPE svg PUBLIC "-//W3C//DTD SVG 1.1//EN" "http://www.w3.org/Graphics/SVG/1.1/DTD/svg11.dtd">
<svg version="1.1" id="Layer_1" xmlns="http://www.w3.org/2000/svg" xmlns:xlink="http://www.w3.org/1999/xlink" x="0px" y="0px"
	 width="48px" height="48px" viewBox="0 0 48 48" enable-background="new 0 0 48 48" xml:space="preserve">
<g>
	<path d="M45.57,10.524c-0.77-0.625-1.793-0.876-2.765-0.673l-13.261,2.792l6.17-5.439c0.668-0.59,0.733-1.609,0.143-2.279
		c-0.589-0.668-1.609-0.732-2.278-0.143l-9.684,8.538l-9.684-8.538c-0.669-0.589-1.689-0.525-2.278,0.143
		c-0.59,0.669-0.525,1.689,0.143,2.279l6.17,5.439L4.982,9.852C4.01,9.648,2.985,9.899,2.215,10.524C1.432,11.16,1,12.103,1,13.11
		v25.068c0,1.566,1.092,2.936,2.624,3.258l19.375,4.084c0.266,0.056,0.615,0.106,0.899,0.106s0.622-0.05,0.889-0.106l19.368-4.083
		c1.532-0.323,2.627-1.692,2.627-3.258V13.11C46.781,12.103,46.354,11.16,45.57,10.524z M22.606,41.492
		c0,0.157-0.08,0.305-0.202,0.403c-0.122,0.099-0.286,0.137-0.438,0.105L4.694,38.362c-0.239-0.05-0.411-0.26-0.413-0.504
		c-0.022-2.953,0.035-20.614,0.047-24.209c0-0.156,0.071-0.304,0.192-0.402c0.122-0.098,0.271-0.137,0.424-0.105L6.634,13.5v7.38
		c0,0.77,0.563,1.433,1.318,1.584l2.167,0.43c0.475,0.095,0.967-0.028,1.341-0.334c0.374-0.307,0.594-0.765,0.594-1.249v-6.669
		l10.124,2.128c0.241,0.051,0.43,0.263,0.43,0.508V41.492z"/>
</g>
</svg>
