<?xml version="1.0" encoding="utf-8"?>
<!-- Generator: Adobe Illustrator 16.0.0, SVG Export Plug-In . SVG Version: 6.00 Build 0)  -->
<!DOCTYPE svg PUBLIC "-//W3C//DTD SVG 1.1//EN" "http://www.w3.org/Graphics/SVG/1.1/DTD/svg11.dtd">
<svg version="1.1" id="Layer_1" xmlns="http://www.w3.org/2000/svg" xmlns:xlink="http://www.w3.org/1999/xlink" x="0px" y="0px"
	 width="48px" height="48px" viewBox="0 0 48 48" enable-background="new 0 0 48 48" xml:space="preserve">
<g>
	<path d="M32.288,18.675c1.178,0,2.334,0.133,3.44,0.382v-7.031c0-0.422-0.196-0.824-0.516-1.101c-0.32-0.276-0.75-0.4-1.168-0.341
		l-1.386,0.197c-0.236-1.015-0.728-1.96-1.469-2.826C28.383,4.68,22.396,3.33,18.713,2.793c0.03-0.337-0.056-0.686-0.27-0.981
		c-0.472-0.651-1.381-0.797-2.033-0.328c0,0-14.051,10.189-14.227,10.318c-0.316,0.234-0.457,0.651-0.457,1.053v28.667
		c0,0.522,0.286,1.006,0.739,1.265l5.083,2.903c0.634,0.362,1.371,0.502,2.094,0.399l11.048-1.578
		c-2.446-2.744-3.93-6.359-3.93-10.315C16.761,25.638,23.73,18.675,32.288,18.675z M8.853,14.181c-0.21,0.03-0.422-0.01-0.605-0.115
		l-1.915-1.093c-0.104-0.06-0.17-0.167-0.176-0.288c-0.008-0.119,0.048-0.234,0.145-0.304l9.658-6.979
		c3.175,0.251,10.417,1.413,13.016,4.448c0.365,0.427,0.619,0.874,0.77,1.347L8.853,14.181z"/>
	<path d="M42.635,27.031c-0.155-0.224-0.397-0.373-0.667-0.411c-0.271-0.038-0.543,0.04-0.754,0.212l-6.187,5.068
		c-0.342,0.28-0.453,0.757-0.269,1.16c0.158,0.346,0.246,0.73,0.246,1.136c0,0.324,0.228,0.601,0.545,0.664l8.079,1.614
		c0.268,0.053,0.546-0.008,0.767-0.168c0.22-0.161,0.364-0.407,0.395-0.678c0.054-0.47,0.081-0.947,0.081-1.431
		C44.871,31.535,44.045,29.065,42.635,27.031z"/>
	<path d="M32.278,36.926c-1.508,0-2.747-1.222-2.747-2.729c0-1.243,0.824-2.292,1.955-2.621c0.417-0.122,0.702-0.503,0.702-0.937
		v-8.014c0-0.274-0.115-0.535-0.317-0.72c-0.202-0.185-0.474-0.275-0.746-0.251c-6.371,0.57-11.458,5.968-11.458,12.543
		c0,6.955,5.646,12.593,12.603,12.593c3.734,0,7.092-1.626,9.399-4.208c0.124-0.14,0.186-0.324,0.17-0.51
		c-0.017-0.186-0.108-0.358-0.255-0.474l-6.712-5.308c-0.251-0.198-0.607-0.195-0.854,0.009
		C33.547,36.69,32.94,36.926,32.278,36.926z"/>
</g>
</svg>
