<?xml version="1.0" encoding="utf-8"?>
<!-- Generator: Adobe Illustrator 16.0.0, SVG Export Plug-In . SVG Version: 6.00 Build 0)  -->
<!DOCTYPE svg PUBLIC "-//W3C//DTD SVG 1.1//EN" "http://www.w3.org/Graphics/SVG/1.1/DTD/svg11.dtd">
<svg version="1.1" id="Layer_1" xmlns="http://www.w3.org/2000/svg" xmlns:xlink="http://www.w3.org/1999/xlink" x="0px" y="0px"
	 width="48px" height="48px" viewBox="0 0 48 48" enable-background="new 0 0 48 48" xml:space="preserve">
<g>
	<path d="M41.336,2.574h-28.86c-1.373,0-2.479,1.111-2.479,2.484v0.582h0.736c2.915,0,5.287,2.357,5.287,5.272
		c0,2.915-2.372,5.272-5.287,5.272H9.998v2.693h0.736c2.915,0,5.287,2.395,5.287,5.31s-2.372,5.31-5.287,5.31H9.998v2.692h0.736
		c2.915,0,5.287,2.358,5.287,5.273c0,2.915-2.372,5.272-5.287,5.272H9.998v0.582c0,1.374,1.105,2.484,2.479,2.484h28.86
		c1.374,0,2.465-1.111,2.465-2.484V5.059C43.801,3.685,42.71,2.574,41.336,2.574z M22.208,9.604h9.398c1.038,0,1.88,0.832,1.88,1.87
		c0,1.038-0.842,1.869-1.88,1.869h-9.398c-1.038,0-1.88-0.832-1.88-1.869C20.328,10.436,21.169,9.604,22.208,9.604z M33.642,19.925
		H20.171c-1.038,0-1.879-0.832-1.879-1.87c0-1.038,0.842-1.87,1.879-1.87h13.471c1.038,0,1.879,0.832,1.879,1.87
		C35.521,19.093,34.68,19.925,33.642,19.925z"/>
	<path d="M5.8,13.418h4.934c1.362,0,2.467-1.106,2.467-2.468s-1.105-2.468-2.467-2.468H5.8c-1.363,0-2.467,1.105-2.467,2.468
		S4.437,13.418,5.8,13.418z"/>
	<path d="M5.8,26.656h4.934c1.362,0,2.467-1.106,2.467-2.468s-1.105-2.468-2.467-2.468H5.8c-1.363,0-2.467,1.106-2.467,2.468
		S4.437,26.656,5.8,26.656z"/>
	<path d="M13.201,37.425c0-1.362-1.105-2.468-2.467-2.468H5.8c-1.363,0-2.467,1.106-2.467,2.468s1.104,2.468,2.467,2.468h4.934
		C12.096,39.893,13.201,38.787,13.201,37.425z"/>
</g>
</svg>
