<?xml version="1.0" encoding="utf-8"?>
<!-- Generator: Adobe Illustrator 16.0.0, SVG Export Plug-In . SVG Version: 6.00 Build 0)  -->
<!DOCTYPE svg PUBLIC "-//W3C//DTD SVG 1.1//EN" "http://www.w3.org/Graphics/SVG/1.1/DTD/svg11.dtd">
<svg version="1.1" id="Layer_1" xmlns="http://www.w3.org/2000/svg" xmlns:xlink="http://www.w3.org/1999/xlink" x="0px" y="0px"
	 width="48px" height="48px" viewBox="0 0 48 48" enable-background="new 0 0 48 48" xml:space="preserve">
<g>
	<path d="M31.369,10.637c0-0.443-0.359-0.803-0.803-0.803H18.099c-0.443,0-0.803,0.359-0.803,0.803v5.431
		c0,0.443,0.36,0.803,0.803,0.803h12.467c0.444,0,0.803-0.359,0.803-0.803V10.637z"/>
	<path d="M42.862,38.04c-0.242-0.295-0.242-0.721,0-1.017l3.022-3.693c0.197-0.24,0.237-0.554,0.104-0.834
		c-0.132-0.28-0.415-0.441-0.726-0.441h-5.468V5.123c0-2.303-1.894-4.177-4.197-4.177H11.792c-5.021,0-9.125,4.084-9.125,9.104
		v27.898c0,5.021,4.104,9.104,9.125,9.104h23.805c2.247,0,4.084-1.759,4.172-3.981h5.493c0.311,0,0.593-0.193,0.726-0.473
		c0.133-0.28,0.093-0.62-0.104-0.859L42.862,38.04z M35.689,42.462c0,0.337-0.273,0.61-0.61,0.61H13.462
		c-0.337,0-0.61-0.273-0.61-0.61V5.538c0-0.337,0.273-0.61,0.61-0.61h21.617c0.337,0,0.61,0.273,0.61,0.61V42.462z"/>
</g>
</svg>
