<?xml version="1.0" encoding="utf-8"?>
<!-- Generator: Adobe Illustrator 16.0.0, SVG Export Plug-In . SVG Version: 6.00 Build 0)  -->
<!DOCTYPE svg PUBLIC "-//W3C//DTD SVG 1.1//EN" "http://www.w3.org/Graphics/SVG/1.1/DTD/svg11.dtd">
<svg version="1.1" id="Layer_1" xmlns="http://www.w3.org/2000/svg" xmlns:xlink="http://www.w3.org/1999/xlink" x="0px" y="0px"
	 width="48px" height="48px" viewBox="0 0 48 48" enable-background="new 0 0 48 48" xml:space="preserve">
<g>
	<path d="M41.892,6.776H30.443c-2.586,0-4.878,1.281-6.275,3.242c-1.397-1.961-3.689-3.242-6.275-3.242h-2.591v2.969h2.591
		c2.605,0,4.706,2.086,4.706,4.691V29.7c0,2.599-2.095,4.735-4.693,4.735H6.444c-1.039,0-1.917-0.868-1.917-1.907V11.595
		c0-0.646,0.339-1.205,0.848-1.534V6.893c-2.206,0.48-3.818,2.39-3.818,4.702l0.085,25.803c0,1.863,1.475,3.4,3.336,3.4h15.287
		c0.057,1.103,0.971,1.952,2.089,1.952h3.75c1.12,0,2.033-0.849,2.09-1.952h15.162c1.862,0,3.336-1.537,3.336-3.4l0.085-25.803
		C46.779,8.915,44.572,6.776,41.892,6.776z M43.809,32.528c0,1.039-0.878,1.907-1.917,1.907H30.43c-2.597,0-4.692-2.136-4.692-4.735
		V14.436c0-2.605,2.1-4.691,4.706-4.691h11.449c1.039,0,1.917,0.812,1.917,1.851V32.528z"/>
	<path d="M7.776,16.225c0.085,0.034,0.181,0.051,0.27,0.051c0.185,0,0.369-0.074,0.504-0.211l1.282-1.316
		c0.131-0.135,0.313-0.211,0.5-0.211c0.188,0,0.369,0.076,0.5,0.211l1.28,1.316c0.135,0.137,0.315,0.211,0.5,0.211
		c0.087,0,0.198-0.017,0.282-0.051c0.263-0.107,0.456-0.362,0.456-0.646V5.66c0-0.697-0.606-1.26-1.303-1.26h-3.43
		c-0.696,0-1.292,0.563-1.292,1.26v9.919C7.326,15.863,7.514,16.118,7.776,16.225z"/>
</g>
</svg>
