<?xml version="1.0" encoding="utf-8"?>
<!-- Generator: Adobe Illustrator 16.0.0, SVG Export Plug-In . SVG Version: 6.00 Build 0)  -->
<!DOCTYPE svg PUBLIC "-//W3C//DTD SVG 1.1//EN" "http://www.w3.org/Graphics/SVG/1.1/DTD/svg11.dtd">
<svg version="1.1" id="Layer_1" xmlns="http://www.w3.org/2000/svg" xmlns:xlink="http://www.w3.org/1999/xlink" x="0px" y="0px"
	 width="48px" height="48px" viewBox="0 0 48 48" enable-background="new 0 0 48 48" xml:space="preserve">
<path d="M45.638,8.78c-0.755-0.614-1.746-0.857-2.698-0.66l-12.292,2.543l8.43-4.153c0.742-0.366,1.047-1.266,0.682-2.009
	c-0.367-0.742-1.268-1.048-2.008-0.682l-10.68,5.263l2.81-4.829c0.415-0.716,0.173-1.634-0.544-2.05
	c-0.714-0.415-1.634-0.174-2.051,0.542l-3.202,5.506l-3.203-5.506c-0.416-0.716-1.335-0.958-2.05-0.542
	c-0.716,0.417-0.959,1.334-0.543,2.05l2.81,4.829L10.417,3.82c-0.74-0.366-1.641-0.06-2.008,0.682
	C8.044,5.245,8.349,6.145,9.091,6.511l8.428,4.153L5.227,8.121C4.274,7.923,3.298,8.166,2.543,8.78s-1.182,1.536-1.182,2.508v23.803
	c0,1.475,0.984,2.763,2.412,3.132l18.694,4.833c0.271,0.07,0.939,0.245,1.629,0.245c0.663,0,1.349-0.173,1.625-0.245l18.685-4.833
	c1.428-0.369,2.426-1.658,2.426-3.132V11.289C46.832,10.316,46.392,9.395,45.638,8.78z M43.815,18.053
	c0,0.354-0.263,0.657-0.609,0.727l-13.52,2.702c-0.218,0.043-0.439-0.012-0.612-0.153c-0.172-0.141-0.269-0.353-0.269-0.574V16.27
	c0-0.354,0.244-0.658,0.591-0.727l13.509-2.703c0.219-0.043,0.456,0.013,0.627,0.153c0.172,0.142,0.283,0.352,0.283,0.574V18.053z"
	/>
</svg>
