<?xml version="1.0" encoding="utf-8"?>
<!-- Generator: Adobe Illustrator 16.0.0, SVG Export Plug-In . SVG Version: 6.00 Build 0)  -->
<!DOCTYPE svg PUBLIC "-//W3C//DTD SVG 1.1//EN" "http://www.w3.org/Graphics/SVG/1.1/DTD/svg11.dtd">
<svg version="1.1" id="Layer_1" xmlns="http://www.w3.org/2000/svg" xmlns:xlink="http://www.w3.org/1999/xlink" x="0px" y="0px"
	 width="48px" height="48px" viewBox="0 0 48 48" enable-background="new 0 0 48 48" xml:space="preserve">
<g>
	<path d="M27.16,40.497c-0.335,0.475-0.828,0.821-1.388,0.974l-2.79,0.763c-0.219,0.062-0.445,0.093-0.673,0.093
		c-0.514,0-1.011-0.157-1.43-0.452c-0.615-0.428-1.001-1.102-1.062-1.834l-0.245-2.881c-0.058-0.59,0.101-1.182,0.437-1.659
		l0.103-0.148H10.16c-0.803,0-1.454-0.662-1.454-1.464c0-0.803,0.651-1.465,1.454-1.465h12.046l2.692-3.845H10.16
		c-0.803,0-1.454-0.662-1.454-1.465s0.651-1.465,1.454-1.465l16.811-0.042l6.304-9.039V9.875c0-1.1-0.851-1.988-1.949-1.988h-4.826
		v3.819c0,1.803-1.473,3.229-3.274,3.229H13.52c-1.804,0-3.227-1.427-3.227-3.229V7.887H5.416c-1.099,0-1.988,0.889-1.988,1.988
		v34.154c0,1.099,0.89,2.036,1.988,2.036h25.909c1.099,0,1.949-0.937,1.949-2.036V31.815L27.16,40.497z M10.16,18.874h16.424
		c0.801,0,1.453,0.661,1.453,1.464c0,0.803-0.652,1.465-1.453,1.465H10.16c-0.803,0-1.454-0.662-1.454-1.465
		C8.706,19.535,9.357,18.874,10.16,18.874z"/>
	<path d="M13.548,13.014h9.697c0.734,0,1.331-0.596,1.331-1.332V6.105c0-0.736-0.597-1.332-1.331-1.332h-1.461
		c-0.01-1.875-1.534-3.395-3.413-3.395c-1.88,0-3.402,1.519-3.413,3.395h-1.41c-0.736,0-1.331,0.596-1.331,1.332v5.576
		C12.217,12.417,12.812,13.014,13.548,13.014z M18.372,3.269c0.835,0,1.512,0.672,1.521,1.505h-3.045
		C16.858,3.941,17.536,3.269,18.372,3.269z"/>
	<path d="M45.542,10.356c-0.045-0.248-0.186-0.465-0.392-0.609l-2.428-1.692c-0.164-0.115-0.352-0.17-0.539-0.17
		c-0.296,0-0.59,0.14-0.772,0.403L24.212,32.951l3.973,2.771L45.386,11.06C45.528,10.855,45.585,10.602,45.542,10.356z"/>
	<path d="M21.503,36.978l0.249,2.896c0.012,0.167,0.101,0.317,0.236,0.412c0.096,0.067,0.209,0.103,0.321,0.103
		c0.049,0,0.099-0.006,0.147-0.021l2.805-0.768c0.127-0.034,0.237-0.112,0.313-0.219l1.053-1.51l-3.975-2.773l-1.053,1.51
		C21.524,36.716,21.489,36.847,21.503,36.978z"/>
</g>
</svg>
