<?xml version="1.0" encoding="utf-8"?>
<!-- Generator: Adobe Illustrator 16.0.0, SVG Export Plug-In . SVG Version: 6.00 Build 0)  -->
<!DOCTYPE svg PUBLIC "-//W3C//DTD SVG 1.1//EN" "http://www.w3.org/Graphics/SVG/1.1/DTD/svg11.dtd">
<svg version="1.1" id="Layer_1" xmlns="http://www.w3.org/2000/svg" xmlns:xlink="http://www.w3.org/1999/xlink" x="0px" y="0px"
	 width="48px" height="48px" viewBox="0 0 48 48" enable-background="new 0 0 48 48" xml:space="preserve">
<g>
	<path d="M22.541,42.654c0,0.752,0.643,1.4,1.395,1.4h5.927c0.752,0,1.365-0.648,1.365-1.4v-1.582h-8.688V42.654z"/>
	<path d="M9.679,8.397H4.713c-0.752,0-1.363,0.665-1.363,1.417v2.473h7.65V9.813C11.001,9.062,10.431,8.397,9.679,8.397z"/>
	<path d="M3.351,42.654c0,0.752,0.611,1.4,1.363,1.4h4.966c0.752,0,1.322-0.648,1.322-1.4V18.121h-7.65V42.654z"/>
	<path d="M18.33,8.397h-3.044c-0.752,0-1.302,0.666-1.302,1.418v4.027h5.705V9.815C19.688,9.063,19.082,8.397,18.33,8.397z"/>
	<path d="M13.983,42.654c0,0.752,0.55,1.4,1.302,1.4h3.044c0.752,0,1.358-0.648,1.358-1.4V16.565h-5.705V42.654z"/>
	<path d="M29.863,2.691h-5.927c-0.752,0-1.395,0.604-1.395,1.356v30.412h8.688V4.047C31.229,3.295,30.615,2.691,29.863,2.691z"/>
	<path d="M40.313,9.213c-0.131-0.74-0.838-1.234-1.579-1.102l-4.889,0.87c-0.74,0.131-1.234,0.839-1.103,1.579l0.435,2.445
		l7.57-1.347L40.313,9.213z"/>
	<path d="M46.064,41.546l-4.305-24.209l-7.571,1.346l4.306,24.209c0.132,0.74,0.839,1.234,1.58,1.103l4.888-0.87
		c0.356-0.063,0.672-0.265,0.879-0.562C46.047,42.268,46.128,41.901,46.064,41.546z"/>
</g>
</svg>
