<?xml version="1.0" encoding="utf-8"?>
<!-- Generator: Adobe Illustrator 16.0.0, SVG Export Plug-In . SVG Version: 6.00 Build 0)  -->
<!DOCTYPE svg PUBLIC "-//W3C//DTD SVG 1.1//EN" "http://www.w3.org/Graphics/SVG/1.1/DTD/svg11.dtd">
<svg version="1.1" id="Layer_1" xmlns="http://www.w3.org/2000/svg" xmlns:xlink="http://www.w3.org/1999/xlink" x="0px" y="0px"
	 width="48px" height="48px" viewBox="0 0 48 48" enable-background="new 0 0 48 48" xml:space="preserve">
<g>
	<path d="M26.048,23.043v-4.655c-0.595-0.405-1.308-0.633-2.066-0.633c-0.72,0-1.4,0.207-1.977,0.575v4.692
		c0.637-0.146,1.299-0.223,1.977-0.223C24.691,22.8,25.384,22.884,26.048,23.043z"/>
	<path d="M41.681,7.779H27.373c-1.277,0-2.452,0.447-3.377,1.192c-0.925-0.745-2.1-1.192-3.377-1.192H6.31
		c-2.974,0-5.38,2.409-5.38,5.383v20.959c0,2.975,2.406,5.406,5.38,5.406h14.308c1.277,0,2.452-0.447,3.377-1.191
		c0.925,0.745,2.1,1.191,3.377,1.191h14.308c2.974,0,5.388-2.431,5.388-5.406V13.162C47.069,10.188,44.655,7.779,41.681,7.779z
		 M43.081,34.125c0,0.75-0.625,1.359-1.376,1.359H27.39c-0.75,0-1.342-0.608-1.342-1.359v-5.648
		c-0.595-0.404-1.308-0.632-2.066-0.632c-0.72,0-1.4,0.206-1.977,0.574v5.706c0,0.75-0.608,1.359-1.359,1.359H6.332
		c-0.75,0-1.358-0.608-1.358-1.359V13.18c0-0.75,0.608-1.359,1.358-1.359h14.315c0.668,0,1.223,0.482,1.337,1.118
		c0.644-0.149,1.313-0.228,1.999-0.228c0.716,0,1.413,0.085,2.083,0.248c0.103-0.646,0.649-1.138,1.324-1.138h14.314
		c0.75,0,1.376,0.608,1.376,1.359V34.125z"/>
	<path d="M31.375,19.175c-0.98-3.174-3.921-5.455-7.393-5.455c-3.472,0-6.412,2.28-7.393,5.455
		c-0.683,0.401-1.146,1.136-1.146,1.986c0,1.277,1.035,2.312,2.312,2.312c1.277,0,2.312-1.035,2.312-2.312
		c0-0.522-0.18-0.999-0.472-1.386c0.684-1.774,2.384-3.028,4.387-3.028c2.003,0,3.704,1.253,4.388,3.028
		c-0.292,0.387-0.472,0.864-0.472,1.386c0,1.277,1.035,2.312,2.312,2.312s2.312-1.035,2.312-2.312
		C32.522,20.311,32.059,19.577,31.375,19.175z"/>
	<path d="M31.375,29.264c-0.98-3.174-3.921-5.455-7.393-5.455c-3.472,0-6.412,2.28-7.393,5.455
		c-0.683,0.401-1.146,1.136-1.146,1.986c0,1.277,1.035,2.312,2.312,2.312c1.277,0,2.312-1.035,2.312-2.312
		c0-0.522-0.18-0.999-0.472-1.386c0.684-1.775,2.384-3.028,4.387-3.028c2.003,0,3.704,1.253,4.388,3.028
		c-0.292,0.387-0.472,0.863-0.472,1.386c0,1.277,1.035,2.312,2.312,2.312s2.312-1.035,2.312-2.312
		C32.522,30.399,32.059,29.665,31.375,29.264z"/>
</g>
</svg>
