<?xml version="1.0" encoding="utf-8"?>
<!-- Generator: Adobe Illustrator 16.0.0, SVG Export Plug-In . SVG Version: 6.00 Build 0)  -->
<!DOCTYPE svg PUBLIC "-//W3C//DTD SVG 1.1//EN" "http://www.w3.org/Graphics/SVG/1.1/DTD/svg11.dtd">
<svg version="1.1" id="Layer_1" xmlns="http://www.w3.org/2000/svg" xmlns:xlink="http://www.w3.org/1999/xlink" x="0px" y="0px"
	 width="48px" height="48px" viewBox="0 0 48 48" enable-background="new 0 0 48 48" xml:space="preserve">
<g>
	<path d="M39.279,6.566h-0.033v2.658h0.037c0.444,0,0.744,0.401,0.744,0.844v32.979c0,0.443-0.3,0.731-0.744,0.731H12.508V9.224
		h17.513V6.566H8.722c-1.968,0-3.563,1.595-3.563,3.562v32.903c0,1.967,1.595,3.562,3.563,3.562h30.558
		c1.968,0,3.563-1.595,3.563-3.562V10.128C42.842,8.161,41.247,6.566,39.279,6.566z M9.694,43.779H8.717
		c-0.443,0-0.743-0.288-0.743-0.731V10.068c0-0.443,0.3-0.844,0.743-0.844h0.978V43.779z"/>
	<path d="M17.906,16.417h9.313c1.015,0,1.838-0.782,1.838-1.798c0-1.015-0.823-1.798-1.838-1.798h-9.313
		c-1.016,0-1.839,0.783-1.839,1.798C16.067,15.634,16.891,16.417,17.906,16.417z"/>
	<path d="M17.906,24.547h16.666c1.016,0,1.839-0.861,1.839-1.876c0-1.015-0.823-1.876-1.839-1.876H17.906
		c-1.016,0-1.839,0.861-1.839,1.876C16.067,23.687,16.891,24.547,17.906,24.547z"/>
	<path d="M17.906,32.521h16.666c1.016,0,1.839-0.861,1.839-1.876c0-1.015-0.823-1.876-1.839-1.876H17.906
		c-1.016,0-1.839,0.861-1.839,1.876C16.067,31.661,16.891,32.521,17.906,32.521z"/>
	<path d="M27.198,40.339h7.355c1.016,0,1.838-0.783,1.838-1.798c0-1.016-0.822-1.798-1.838-1.798h-7.355
		c-1.015,0-1.838,0.783-1.838,1.798C25.36,39.557,26.184,40.339,27.198,40.339z"/>
	<path d="M33.378,16.981c0.246,0.414,0.703,0.667,1.186,0.667c0.481,0,0.934-0.253,1.182-0.667l1.406-2.308
		c0.128-0.213,0.217-0.458,0.217-0.706V2.85c0-0.758-0.653-1.444-1.411-1.444h-2.77c-0.759,0-1.447,0.686-1.447,1.444v11.117
		c0,0.249,0.104,0.493,0.232,0.706L33.378,16.981z"/>
</g>
</svg>
